# This file uses centimeters as units for non-parametric coordinates.

v 67.224380 118.825073 21.411621
v 182.063660 118.825073 21.411621
v 67.224380 123.143433 20.436279
v 182.063660 123.143433 20.436279
v 67.224380 130.577637 5.731567
v 182.063660 130.577637 5.731567
v 67.224380 126.259216 6.706909
v 182.063660 126.259216 6.706909
v 67.224380 136.694946 21.411499
v 182.063660 136.694946 21.411499
v 67.224380 141.013306 20.436279
v 182.063660 141.013306 20.436279
v 67.224380 148.447388 5.731567
v 182.063660 148.447388 5.731567
v 67.224380 144.129028 6.707153
v 182.063660 144.129028 6.707153
v 67.365814 148.368774 22.700317
v 182.159531 150.283325 20.116333
v 67.324707 152.686279 21.725952
v 182.118393 154.600647 19.141968
v 67.128479 160.116455 7.026978
v 181.922150 162.031006 4.443359
v 67.169586 155.798950 8.001099
v 181.963287 157.713501 5.417358
v 67.224380 162.463440 21.411621
v 182.063660 162.463440 21.411621
v 67.224380 166.781860 20.436035
v 182.063660 166.781860 20.436035
v 67.224380 174.215942 5.731567
v 182.063660 174.215942 5.731567
v 67.224380 169.897583 6.706909
v 182.063660 169.897583 6.706909
v 67.224380 176.602417 21.411499
v 182.063660 176.602417 21.411499
v 67.224380 180.920776 20.436279
v 182.063660 180.920776 20.436279
v 67.224380 188.354858 5.731567
v 182.063660 188.354858 5.731567
v 67.224380 184.036499 6.707153
v 182.063660 184.036499 6.707153
v 67.171204 189.813721 19.906250
v 181.999542 187.662720 22.915405
v 67.191345 194.132019 18.930786
v 182.019592 191.980957 21.940430
v 67.288574 201.565002 4.227539
v 182.116821 199.414001 7.237183
v 67.268448 197.246948 5.203003
v 182.096771 195.095947 8.212280
v 67.224380 203.024780 21.411499
v 182.063660 203.024780 21.411499
v 67.224380 207.343140 20.436279
v 182.063660 207.343140 20.436279
v 67.224380 214.777222 5.731567
v 182.063660 214.777222 5.731567
v 67.224380 210.458984 6.706909
v 182.063660 210.458984 6.706909
v 67.224380 218.932617 21.411499
v 182.063660 218.932617 21.411499
v 67.224380 223.251099 20.435913
v 182.063660 223.251099 20.435913
v 67.224380 230.685181 5.731567
v 182.063660 230.685181 5.731567
v 67.224380 226.366821 6.706909
v 182.063660 226.366821 6.706909
v 177.778076 236.648071 14.809082
v 179.414673 236.648071 14.809082
v 177.778076 236.648071 13.172729
v 179.414673 236.648071 13.172729
v 70.848846 123.242554 15.102417
v 72.836823 123.242554 15.102417
v 70.848846 236.648071 15.102417
v 72.836823 236.648071 15.102417
v 70.848846 236.648071 13.114258
v 72.836823 236.648071 13.114258
v 70.848846 123.242554 13.114258
v 72.836823 123.242554 13.114258
v 177.778076 114.888428 13.235840
v 179.414673 114.888428 13.235840
v 179.414673 114.888428 14.872314
v 177.778076 114.888428 14.872314
v 176.643661 114.494385 12.101440
v 180.548920 114.494385 12.101440
v 180.548920 114.494385 16.006714
v 176.643661 114.494385 16.006714
v 176.643661 109.913574 12.101440
v 180.548920 109.913574 12.101440
v 180.548920 109.913574 16.006714
v 176.643661 109.913574 16.006714
vt 0.331931 0.007603
vt 0.331931 0.007603
vt 0.331931 0.007603
vt 0.331931 0.007603
vt 0.331931 0.007603
vt 0.331931 0.007603
vt 0.331931 0.007603
vt 0.331931 0.007603
vt 0.331931 0.007603
vt 0.331931 0.007603
vt 0.331931 0.007603
vt 0.331931 0.007603
vt 0.331931 0.007603
vt 0.331931 0.007603
vt 0.331931 0.007603
vt 0.331931 0.007603
vt 0.331931 0.007603
vt 0.331931 0.007603
vt 0.331931 0.007603
vt 0.331931 0.007603
vt 0.331931 0.007603
vt 0.331931 0.007603
vt 0.331931 0.007603
vt 0.331931 0.007603
vt 0.331931 0.007603
vt 0.331931 0.007603
vt 0.331931 0.007603
vt 0.331931 0.007603
vt 0.300054 0.007603
vt 0.300054 0.007603
vt 0.300054 0.007603
vt 0.300054 0.007603
vt 0.300054 0.007603
vt 0.300054 0.007603
vt 0.300054 0.007603
vt 0.300054 0.007603
vt 0.300054 0.007603
vt 0.300054 0.007603
vt 0.300054 0.007603
vt 0.300054 0.007603
vt 0.300054 0.007603
vt 0.300054 0.007603
vt 0.300054 0.007603
vt 0.300054 0.007603
vt 0.300054 0.007603
vt 0.300054 0.007603
vt 0.300054 0.007603
vt 0.300054 0.007603
vt 0.300054 0.007603
vt 0.300054 0.007603
vt 0.300054 0.007603
vt 0.300054 0.007603
vt 0.357638 0.007603
vt 0.357638 0.007603
vt 0.357638 0.007603
vt 0.357638 0.007603
vt 0.357638 0.007603
vt 0.357638 0.007603
vt 0.357638 0.007603
vt 0.357638 0.007603
vt 0.357638 0.007603
vt 0.357638 0.007603
vt 0.357638 0.007603
vt 0.357638 0.007603
vt 0.357638 0.007603
vt 0.357638 0.007603
vt 0.357638 0.007603
vt 0.357638 0.007603
vt 0.357638 0.007603
vt 0.357638 0.007603
vt 0.357638 0.007603
vt 0.357638 0.007603
vt 0.357638 0.007603
vt 0.357638 0.007603
vt 0.357638 0.007603
vt 0.357638 0.007603
vt 0.331931 0.007603
vt 0.331931 0.007603
vt 0.331931 0.007603
vt 0.331931 0.007603
vt 0.331931 0.007603
vt 0.331931 0.007603
vt 0.331931 0.007603
vt 0.331931 0.007603
vt 0.331931 0.007603
vt 0.331931 0.007603
vt 0.331931 0.007603
vt 0.331931 0.007603
vt 0.331931 0.007603
vt 0.331931 0.007603
vt 0.300054 0.007603
vt 0.300054 0.007603
vt 0.300054 0.007603
vt 0.300054 0.007603
vt 0.300054 0.007603
vt 0.300054 0.007603
vt 0.300054 0.007603
vt 0.300054 0.007603
vt 0.300054 0.007603
vt 0.300054 0.007603
vt 0.300054 0.007603
vt 0.300054 0.007603
vt 0.300054 0.007603
vt 0.300054 0.007603
vt 0.300054 0.007603
vt 0.300054 0.007603
vt 0.300054 0.007603
vt 0.300054 0.007603
vt 0.300054 0.007603
vt 0.300054 0.007603
vt 0.300054 0.007603
vt 0.300054 0.007603
vt 0.300054 0.007603
vt 0.300054 0.007603
vt 0.331931 0.007603
vt 0.331931 0.007603
vt 0.331931 0.007603
vt 0.331931 0.007603
vt 0.331931 0.007603
vt 0.331931 0.007603
vt 0.331931 0.007603
vt 0.331931 0.007603
vt 0.331931 0.007603
vt 0.331931 0.007603
vt 0.331931 0.007603
vt 0.331931 0.007603
vt 0.331931 0.007603
vt 0.331931 0.007603
vt 0.357638 0.007603
vt 0.357638 0.007603
vt 0.357638 0.007603
vt 0.357638 0.007603
vt 0.357638 0.007603
vt 0.357638 0.007603
vt 0.357638 0.007603
vt 0.357638 0.007603
vt 0.357638 0.007603
vt 0.357638 0.007603
vt 0.357638 0.007603
vt 0.357638 0.007603
vt 0.357638 0.007603
vt 0.357638 0.007603
vt 0.357638 0.007603
vt 0.357638 0.007603
vt 0.357638 0.007603
vt 0.357638 0.007603
vt 0.357638 0.007603
vt 0.357638 0.007603
vt 0.357638 0.007603
vt 0.357638 0.007603
vt 0.357638 0.007603
vt 0.357638 0.007603
vt 0.298426 0.009109
vt 0.298426 0.009109
vt 0.298426 0.009109
vt 0.298426 0.009109
vt 0.298426 0.009109
vt 0.298426 0.009109
vt 0.298426 0.009109
vt 0.298426 0.009109
vt 0.418721 0.006079
vt 0.418721 0.006079
vt 0.418721 0.006079
vt 0.418721 0.006079
vt 0.298426 0.009109
vt 0.298426 0.009109
vt 0.298426 0.009109
vt 0.298426 0.009109
vt 0.298426 0.009109
vt 0.298426 0.009109
vt 0.298426 0.009109
vt 0.298426 0.009109
vt 0.298426 0.009109
vt 0.298426 0.009109
vt 0.298426 0.009109
vt 0.298426 0.009109
vt 0.298426 0.009109
vt 0.298426 0.009109
vt 0.298426 0.009109
vt 0.298426 0.009109
vt 0.418721 0.006079
vt 0.418721 0.006079
vt 0.418721 0.006079
vt 0.418721 0.006079
vt 0.418721 0.006079
vt 0.418721 0.006079
vt 0.418721 0.006079
vt 0.418721 0.006079
vn 0.000000 0.220310 0.975430
vn 0.000000 0.220310 0.975430
vn 0.000000 0.220310 0.975430
vn 0.000000 0.220310 0.975430
vn 0.000000 0.892431 0.451183
vn 0.000000 0.892431 0.451183
vn 0.000000 0.892431 0.451183
vn 0.000000 0.892431 0.451183
vn 0.000000 -0.220307 -0.975431
vn 0.000000 -0.220307 -0.975431
vn 0.000000 -0.220307 -0.975431
vn 0.000000 -0.220307 -0.975431
vn 0.000000 -0.892433 -0.451180
vn 0.000000 -0.892433 -0.451180
vn 0.000000 -0.892433 -0.451180
vn 0.000000 -0.892433 -0.451180
vn 1.000000 -0.000001 0.000000
vn 1.000000 -0.000001 0.000000
vn 1.000000 -0.000001 0.000000
vn 1.000000 -0.000001 0.000000
vn -1.000000 0.000000 0.000000
vn -1.000000 0.000000 0.000000
vn -1.000000 0.000000 0.000000
vn -1.000000 0.000000 0.000000
vn 0.000000 0.220284 0.975436
vn 0.000000 0.220284 0.975436
vn 0.000000 0.220284 0.975436
vn 0.000000 0.220284 0.975436
vn 0.000000 0.892434 0.451178
vn 0.000000 0.892434 0.451178
vn 0.000000 0.892434 0.451178
vn 0.000000 0.892434 0.451178
vn 0.000000 -0.220362 -0.975418
vn 0.000000 -0.220362 -0.975418
vn 0.000000 -0.220362 -0.975418
vn 0.000000 -0.220362 -0.975418
vn 0.000000 -0.892430 -0.451186
vn 0.000000 -0.892430 -0.451186
vn 0.000000 -0.892430 -0.451186
vn 0.000000 -0.892430 -0.451186
vn 1.000000 -0.000001 0.000000
vn 1.000000 -0.000001 0.000000
vn 1.000000 -0.000001 0.000000
vn 1.000000 -0.000001 0.000000
vn -1.000000 -0.000001 0.000000
vn -1.000000 -0.000001 0.000000
vn -1.000000 -0.000001 0.000000
vn -1.000000 -0.000001 0.000000
vn 0.018279 0.220275 0.975267
vn 0.018279 0.220275 0.975267
vn 0.018279 0.220275 0.975267
vn 0.018279 0.220275 0.975267
vn -0.004728 0.892419 0.451183
vn -0.004728 0.892419 0.451183
vn -0.004728 0.892419 0.451183
vn -0.004728 0.892419 0.451183
vn -0.018278 -0.220205 -0.975282
vn -0.018278 -0.220205 -0.975282
vn -0.018278 -0.220205 -0.975282
vn -0.018278 -0.220205 -0.975282
vn 0.004729 -0.892425 -0.451171
vn 0.004729 -0.892425 -0.451171
vn 0.004729 -0.892425 -0.451171
vn 0.004729 -0.892425 -0.451171
vn 0.999927 0.007357 -0.009632
vn 0.999927 0.007357 -0.009632
vn 0.999927 0.007357 -0.009632
vn 0.999927 0.007357 -0.009632
vn -0.999927 -0.007346 0.009635
vn -0.999927 -0.007346 0.009635
vn -0.999927 -0.007346 0.009635
vn -0.999927 -0.007346 0.009635
vn 0.000000 0.220359 0.975419
vn 0.000000 0.220359 0.975419
vn 0.000000 0.220359 0.975419
vn 0.000000 0.220359 0.975419
vn 0.000000 0.892431 0.451183
vn 0.000000 0.892431 0.451183
vn 0.000000 0.892431 0.451183
vn 0.000000 0.892431 0.451183
vn 0.000000 -0.220310 -0.975430
vn 0.000000 -0.220310 -0.975430
vn 0.000000 -0.220310 -0.975430
vn 0.000000 -0.220310 -0.975430
vn 0.000000 -0.892433 -0.451180
vn 0.000000 -0.892433 -0.451180
vn 0.000000 -0.892433 -0.451180
vn 0.000000 -0.892433 -0.451180
vn 1.000000 -0.000002 0.000000
vn 1.000000 -0.000002 0.000000
vn 1.000000 -0.000002 0.000000
vn 1.000000 -0.000002 0.000000
vn -1.000000 -0.000001 0.000000
vn -1.000000 -0.000001 0.000000
vn -1.000000 -0.000001 0.000000
vn -1.000000 -0.000001 0.000000
vn 0.000000 0.220283 0.975436
vn 0.000000 0.220283 0.975436
vn 0.000000 0.220283 0.975436
vn 0.000000 0.220283 0.975436
vn 0.000000 0.892434 0.451177
vn 0.000000 0.892434 0.451177
vn 0.000000 0.892434 0.451177
vn 0.000000 0.892434 0.451177
vn 0.000000 -0.220362 -0.975418
vn 0.000000 -0.220362 -0.975418
vn 0.000000 -0.220362 -0.975418
vn 0.000000 -0.220362 -0.975418
vn 0.000000 -0.892430 -0.451186
vn 0.000000 -0.892430 -0.451186
vn 0.000000 -0.892430 -0.451186
vn 0.000000 -0.892430 -0.451186
vn 1.000000 -0.000001 0.000000
vn 1.000000 -0.000001 0.000000
vn 1.000000 -0.000001 0.000000
vn 1.000000 -0.000001 0.000000
vn -1.000000 -0.000001 0.000000
vn -1.000000 -0.000001 0.000000
vn -1.000000 -0.000001 0.000000
vn -1.000000 -0.000001 0.000000
vn -0.021430 0.220333 0.975189
vn -0.021430 0.220333 0.975189
vn -0.021430 0.220333 0.975189
vn -0.021430 0.220333 0.975189
vn 0.004892 0.892419 0.451182
vn 0.004892 0.892419 0.451182
vn 0.004892 0.892419 0.451182
vn 0.004892 0.892419 0.451182
vn 0.021430 -0.220356 -0.975184
vn 0.021430 -0.220356 -0.975184
vn 0.021430 -0.220356 -0.975184
vn 0.021430 -0.220356 -0.975184
vn -0.004893 -0.892412 -0.451194
vn -0.004893 -0.892412 -0.451194
vn -0.004893 -0.892412 -0.451194
vn -0.004893 -0.892412 -0.451194
vn 0.999982 -0.003556 0.004815
vn 0.999982 -0.003556 0.004815
vn 0.999982 -0.003556 0.004815
vn 0.999982 -0.003556 0.004815
vn -0.999982 0.003577 -0.004805
vn -0.999982 0.003577 -0.004805
vn -0.999982 0.003577 -0.004805
vn -0.999982 0.003577 -0.004805
vn 0.000000 0.220283 0.975436
vn 0.000000 0.220283 0.975436
vn 0.000000 0.220283 0.975436
vn 0.000000 0.220283 0.975436
vn 0.000000 0.892434 0.451177
vn 0.000000 0.892434 0.451177
vn 0.000000 0.892434 0.451177
vn 0.000000 0.892434 0.451177
vn 0.000000 -0.220316 -0.975429
vn 0.000000 -0.220316 -0.975429
vn 0.000000 -0.220316 -0.975429
vn 0.000000 -0.220316 -0.975429
vn 0.000000 -0.892430 -0.451187
vn 0.000000 -0.892430 -0.451187
vn 0.000000 -0.892430 -0.451187
vn 0.000000 -0.892430 -0.451187
vn 1.000000 -0.000001 0.000000
vn 1.000000 -0.000001 0.000000
vn 1.000000 -0.000001 0.000000
vn 1.000000 -0.000001 0.000000
vn -1.000000 -0.000001 0.000000
vn -1.000000 -0.000001 0.000000
vn -1.000000 -0.000001 0.000000
vn -1.000000 -0.000001 0.000000
vn 0.000000 0.220356 0.975419
vn 0.000000 0.220356 0.975419
vn 0.000000 0.220356 0.975419
vn 0.000000 0.220356 0.975419
vn 0.000000 0.892430 0.451186
vn 0.000000 0.892430 0.451186
vn 0.000000 0.892430 0.451186
vn 0.000000 0.892430 0.451186
vn 0.000000 -0.220310 -0.975430
vn 0.000000 -0.220310 -0.975430
vn 0.000000 -0.220310 -0.975430
vn 0.000000 -0.220310 -0.975430
vn 0.000000 -0.892430 -0.451186
vn 0.000000 -0.892430 -0.451186
vn 0.000000 -0.892430 -0.451186
vn 0.000000 -0.892430 -0.451186
vn 1.000000 -0.000002 0.000000
vn 1.000000 -0.000002 0.000000
vn 1.000000 -0.000002 0.000000
vn 1.000000 -0.000002 0.000000
vn -1.000000 -0.000001 0.000000
vn -1.000000 -0.000001 0.000000
vn -1.000000 -0.000001 0.000000
vn -1.000000 -0.000001 0.000000
vn 0.000000 0.000519 1.000000
vn 0.000000 0.000519 1.000000
vn 0.000000 0.000519 1.000000
vn 0.000000 0.000519 1.000000
vn 0.000000 1.000000 0.000000
vn 0.000000 1.000000 0.000000
vn 0.000000 1.000000 0.000000
vn 0.000000 1.000000 0.000000
vn 0.000000 -0.000518 -1.000000
vn 0.000000 -0.000518 -1.000000
vn 0.000000 -0.000518 -1.000000
vn 0.000000 -0.000518 -1.000000
vn 0.000000 -1.000000 0.000000
vn 0.000000 -1.000000 0.000000
vn 0.000000 -1.000000 0.000000
vn 0.000000 -1.000000 0.000000
vn 1.000000 -0.000000 0.000000
vn 1.000000 -0.000000 0.000000
vn 1.000000 -0.000000 0.000000
vn 1.000000 -0.000000 0.000000
vn -1.000000 -0.000000 0.000000
vn -1.000000 -0.000000 0.000000
vn -1.000000 -0.000000 0.000000
vn -1.000000 -0.000000 0.000000
vn 0.000000 0.000000 1.000000
vn 0.000000 0.000000 1.000000
vn 0.000000 0.000000 1.000000
vn 0.000000 0.000000 1.000000
vn 0.000000 1.000000 0.000000
vn 0.000000 1.000000 0.000000
vn 0.000000 1.000000 0.000000
vn 0.000000 1.000000 0.000000
vn 0.000000 0.000000 -1.000000
vn 0.000000 0.000000 -1.000000
vn 0.000000 0.000000 -1.000000
vn 0.000000 0.000000 -1.000000
vn 0.000000 -1.000000 0.000000
vn 0.000000 -1.000000 0.000000
vn 0.000000 -1.000000 0.000000
vn 0.000000 -1.000000 0.000000
vn 1.000000 0.000000 0.000000
vn 1.000000 0.000000 0.000000
vn 1.000000 0.000000 0.000000
vn 1.000000 0.000000 0.000000
vn -1.000000 0.000000 0.000000
vn -1.000000 0.000000 0.000000
vn -1.000000 0.000000 0.000000
vn -1.000000 0.000000 0.000000
vn 0.000000 0.944633 -0.328128
vn 0.000000 0.944633 -0.328128
vn 0.000000 0.944633 -0.328128
vn 0.000000 0.944633 -0.328128
vn 0.328167 0.944620 0.000000
vn 0.328167 0.944620 0.000000
vn 0.328167 0.944620 0.000000
vn 0.328167 0.944620 0.000000
vn 0.000000 0.944633 0.328128
vn 0.000000 0.944633 0.328128
vn 0.000000 0.944633 0.328128
vn 0.000000 0.944633 0.328128
vn -0.328122 0.944635 0.000000
vn -0.328122 0.944635 0.000000
vn -0.328122 0.944635 0.000000
vn -0.328122 0.944635 0.000000
vn 0.000000 0.000000 -1.000000
vn 0.000000 0.000000 -1.000000
vn 0.000000 0.000000 -1.000000
vn 0.000000 0.000000 -1.000000
vn 1.000000 0.000000 0.000000
vn 1.000000 0.000000 0.000000
vn 1.000000 0.000000 0.000000
vn 1.000000 0.000000 0.000000
vn 0.000000 0.000000 1.000000
vn 0.000000 0.000000 1.000000
vn 0.000000 0.000000 1.000000
vn 0.000000 0.000000 1.000000
vn -1.000000 0.000000 0.000000
vn -1.000000 0.000000 0.000000
vn -1.000000 0.000000 0.000000
vn -1.000000 0.000000 0.000000
s off
f 1/1/1 2/2/2 4/3/3 3/4/4
f 3/4/5 4/3/6 6/5/7 5/6/8
f 5/6/9 6/5/10 8/7/11 7/8/12
f 7/8/13 8/7/14 2/9/15 1/10/16
f 2/2/17 8/11/18 6/12/19 4/3/20
f 7/13/21 1/1/22 3/4/23 5/14/24
f 9/15/25 10/16/26 12/17/27 11/18/28
f 11/18/29 12/17/30 14/19/31 13/20/32
f 13/20/33 14/19/34 16/21/35 15/22/36
f 15/22/37 16/21/38 10/23/39 9/24/40
f 10/16/41 16/25/42 14/26/43 12/17/44
f 15/27/45 9/15/46 11/18/47 13/28/48
f 17/29/49 18/30/50 20/31/51 19/32/52
f 19/33/53 20/34/54 22/35/55 21/36/56
f 21/37/57 22/38/58 24/39/59 23/40/60
f 23/41/61 24/42/62 18/43/63 17/44/64
f 18/45/65 24/46/66 22/47/67 20/48/68
f 23/49/69 17/50/70 19/51/71 21/52/72
f 25/53/73 26/54/74 28/55/75 27/56/76
f 27/57/77 28/58/78 30/59/79 29/60/80
f 29/61/81 30/62/82 32/63/83 31/64/84
f 31/65/85 32/66/86 26/67/87 25/68/88
f 26/69/89 32/70/90 30/71/91 28/72/92
f 31/73/93 25/74/94 27/75/95 29/76/96
f 33/77/97 34/78/98 36/79/99 35/80/100
f 35/80/101 36/79/102 38/81/103 37/82/104
f 37/82/105 38/81/106 40/83/107 39/84/108
f 39/84/109 40/83/110 34/85/111 33/86/112
f 34/78/113 40/87/114 38/88/115 36/79/116
f 39/89/117 33/77/118 35/80/119 37/90/120
f 41/91/121 42/92/122 44/93/123 43/94/124
f 43/95/125 44/96/126 46/97/127 45/98/128
f 45/99/129 46/100/130 48/101/131 47/102/132
f 47/103/133 48/104/134 42/105/135 41/106/136
f 42/107/137 48/108/138 46/109/139 44/110/140
f 47/111/141 41/112/142 43/113/143 45/114/144
f 49/115/145 50/116/146 52/117/147 51/118/148
f 51/118/149 52/117/150 54/119/151 53/120/152
f 53/120/153 54/119/154 56/121/155 55/122/156
f 55/122/157 56/121/158 50/123/159 49/124/160
f 50/116/161 56/125/162 54/126/163 52/117/164
f 55/127/165 49/115/166 51/118/167 53/128/168
f 57/129/169 58/130/170 60/131/171 59/132/172
f 59/133/173 60/134/174 62/135/175 61/136/176
f 61/137/177 62/138/178 64/139/179 63/140/180
f 63/141/181 64/142/182 58/143/183 57/144/184
f 58/145/185 64/146/186 62/147/187 60/148/188
f 63/149/189 57/150/190 59/151/191 61/152/192
f 66/153/193 65/154/194 80/155/195 79/156/196
f 65/154/197 66/153/198 68/157/199 67/158/200
f 67/158/201 68/157/202 78/159/203 77/160/204
f 85/161/205 86/162/206 87/163/207 88/164/208
f 68/165/209 66/153/210 79/156/211 78/159/212
f 65/154/213 67/166/214 77/160/215 80/155/216
f 69/167/217 70/168/218 72/169/219 71/170/220
f 71/170/221 72/169/222 74/171/223 73/172/224
f 73/172/225 74/171/226 76/173/227 75/174/228
f 75/174/229 76/173/230 70/175/231 69/176/232
f 70/168/233 76/177/234 74/178/235 72/169/236
f 75/179/237 69/167/238 71/170/239 73/180/240
f 77/181/241 78/182/242 82/183/243 81/184/244
f 78/182/245 79/185/246 83/186/247 82/183/248
f 79/185/249 80/187/250 84/188/251 83/186/252
f 80/187/253 77/181/254 81/184/255 84/188/256
f 81/184/257 82/183/258 86/162/259 85/161/260
f 82/183/261 83/186/262 87/163/263 86/162/264
f 83/186/265 84/188/266 88/164/267 87/163/268
f 84/188/269 81/184/270 85/161/271 88/164/272
