# This file uses centimeters as units for non-parametric coordinates.

v 0.000031 -0.000000 21.717285
v 21.717255 -0.000000 21.717285
v 0.000031 300.000000 21.717285
v 21.717255 300.000000 21.717285
v 0.000031 300.000000 0.000000
v 21.717255 300.000000 0.000000
v 0.000031 -0.000000 0.000000
v 21.717255 -0.000000 0.000000
v 10.858612 -1.540771 10.858643
v 10.858612 301.540771 10.858643
vt 0.102127 0.302547
vt 0.102027 0.302620
vt 0.102013 0.301952
vt 0.102222 0.301808
vt 0.101859 0.301759
vt 0.102067 0.301620
vt 0.101953 0.302522
vt 0.102053 0.302450
vt 0.102040 0.302535
vt 0.102040 0.301786
vn 0.000000 0.000000 1.000000
vn 0.000000 0.000000 1.000000
vn 0.000000 0.000000 1.000000
vn 0.000000 0.000000 1.000000
vn 0.000000 0.990083 -0.140485
vn 0.000000 0.990083 -0.140485
vn 0.000000 0.990083 -0.140485
vn 0.000000 0.000000 -1.000000
vn 0.000000 0.000000 -1.000000
vn 0.000000 0.000000 -1.000000
vn 0.000000 0.000000 -1.000000
vn 0.000000 -0.990083 -0.140486
vn 0.000000 -0.990083 -0.140486
vn 0.000000 -0.990083 -0.140486
vn 1.000000 0.000000 0.000000
vn 1.000000 0.000000 0.000000
vn 1.000000 0.000000 0.000000
vn 1.000000 0.000000 0.000000
vn -1.000000 0.000000 0.000000
vn -1.000000 0.000000 0.000000
vn -1.000000 0.000000 0.000000
vn -1.000000 0.000000 0.000000
vn -0.140487 0.990083 0.000000
vn -0.140487 0.990083 0.000000
vn -0.140487 0.990083 0.000000
vn -0.140487 -0.990083 0.000000
vn -0.140487 -0.990083 0.000000
vn -0.140487 -0.990083 0.000000
vn 0.140486 -0.990083 0.000000
vn 0.140486 -0.990083 0.000000
vn 0.140486 -0.990083 0.000000
vn 0.000000 -0.990083 0.140486
vn 0.000000 -0.990083 0.140486
vn 0.000000 -0.990083 0.140486
vn 0.000000 0.990083 0.140487
vn 0.000000 0.990083 0.140487
vn 0.000000 0.990083 0.140487
vn 0.140486 0.990083 0.000000
vn 0.140486 0.990083 0.000000
vn 0.140486 0.990083 0.000000
s off
f 1/1/1 2/2/2 4/3/3 3/4/4
f 5/6/5 10/10/6 6/5/7
f 5/6/8 6/5/9 8/7/10 7/8/11
f 7/8/12 8/7/13 9/9/14
f 2/2/15 8/7/16 6/5/17 4/3/18
f 7/8/19 1/1/20 3/4/21 5/6/22
f 3/4/23 10/10/24 5/6/25
f 7/8/26 9/9/27 1/1/28
f 9/9/29 8/7/30 2/2/31
f 1/1/32 9/9/33 2/2/34
f 3/4/35 4/3/36 10/10/37
f 6/5/38 10/10/39 4/3/40
