# This file uses centimeters as units for non-parametric coordinates.

v -18.549438 19.398438 18.549316
v 18.549194 19.398438 18.549316
v -18.549438 300.000092 18.549316
v 18.549194 300.000092 18.549316
v -18.549438 300.000092 -18.549316
v -18.549438 19.398438 -18.549316
v -19.559448 21.685183 19.559326
v 19.559204 21.685183 19.559326
v -19.559448 21.685183 -19.559570
v 19.559204 297.713379 19.559326
v -19.559448 297.713379 19.559326
v -19.559448 297.713379 -19.559570
v -21.410278 13.978336 -21.410156
v 21.409912 13.978336 21.410034
v -21.410278 13.978336 21.410034
v -21.410278 -0.000001 -21.410156
v 21.409912 -0.000001 21.410034
v -21.410278 -0.000001 21.410034
v 19.559204 21.685183 0.000000
v 18.549194 19.398438 0.000000
v 21.409912 13.978336 0.000000
v 21.409912 -0.000001 0.000000
v 18.549194 300.000092 0.000000
v 19.559204 297.713379 0.000000
v -0.000122 297.713379 -19.559570
v 0.000122 300.000092 -18.549316
v 0.000122 300.654175 0.000000
v 0.000122 -0.000001 0.000000
v 0.000122 -0.000001 -21.410156
v 0.000122 13.978336 -21.410156
v 0.000122 19.398438 -18.549316
v -0.000122 21.685183 -19.559570
v 0.000122 297.713379 0.000000
v 0.000122 21.685183 0.000000
v 0.000122 19.398438 0.000000
v 0.000122 13.978336 0.000000
vt 0.010922 0.756837
vt 0.010795 0.756834
vt 0.010717 0.755944
vt 0.010865 0.755945
vt 0.010870 0.756800
vt 0.010881 0.756767
vt 0.010820 0.755907
vt 0.010806 0.755925
vt 0.010943 0.756768
vt 0.010891 0.755908
vt 0.010799 0.756838
vt 0.010920 0.756841
vt 0.010871 0.756807
vt 0.010881 0.756775
vt 0.010939 0.756776
vt 0.010721 0.755934
vt 0.010861 0.755936
vt 0.010819 0.755900
vt 0.010805 0.755915
vt 0.010886 0.755901
vt 0.010872 0.756821
vt 0.010884 0.756784
vt 0.010789 0.756858
vt 0.010929 0.756862
vt 0.010950 0.756786
vt 0.010874 0.756859
vt 0.010886 0.756822
vt 0.010793 0.756896
vt 0.010931 0.756900
vt 0.010953 0.756823
vt 0.010808 0.756799
vt 0.010733 0.755925
vt 0.010811 0.756805
vt 0.010803 0.756820
vt 0.010807 0.756857
vt 0.010736 0.755916
vt 0.100316 0.762267
vt 0.148766 0.762267
vt 0.148766 0.990773
vt 0.100316 0.990773
vt 0.148766 0.762267
vt 0.100316 0.762267
vt 0.100316 0.990773
vt 0.148766 0.990773
vn 0.000000 0.000000 1.000000
vn 0.000000 0.000000 1.000000
vn 0.000000 0.000000 1.000000
vn 0.000000 0.000000 1.000000
vn 1.000000 0.000000 -0.000012
vn 1.000000 0.000000 -0.000012
vn 1.000000 0.000000 -0.000012
vn 1.000000 0.000000 -0.000012
vn -1.000000 0.000000 0.000000
vn -1.000000 0.000000 0.000000
vn -1.000000 0.000000 0.000000
vn -1.000000 0.000000 0.000000
vn 0.000000 -0.404026 0.914748
vn 0.000000 -0.404026 0.914748
vn 0.000000 -0.404026 0.914748
vn 0.000000 -0.404026 0.914748
vn 1.000000 0.000052 -0.000006
vn 1.000000 0.000052 -0.000006
vn 1.000000 0.000052 -0.000006
vn 1.000000 0.000052 -0.000006
vn -0.914748 -0.404026 0.000000
vn -0.914748 -0.404026 0.000000
vn -0.914748 -0.404026 0.000000
vn -0.914748 -0.404026 0.000000
vn 0.000000 0.404030 0.914746
vn 0.000000 0.404030 0.914746
vn 0.000000 0.404030 0.914746
vn 0.000000 0.404030 0.914746
vn 1.000000 -0.000046 -0.000006
vn 1.000000 -0.000046 -0.000006
vn 1.000000 -0.000046 -0.000006
vn 1.000000 -0.000046 -0.000006
vn -0.914746 0.404031 0.000000
vn -0.914745 0.404031 0.000000
vn -0.914746 0.404031 0.000000
vn -0.914746 0.404031 0.000000
vn 1.000000 0.000000 0.000000
vn 1.000000 0.000000 0.000000
vn 1.000000 0.000000 0.000000
vn 1.000000 0.000000 0.000000
vn 0.000000 0.466773 0.884377
vn 0.000000 0.466772 0.884377
vn 0.000000 0.466773 0.884377
vn 0.000000 0.466773 0.884377
vn -0.884369 0.466788 0.000000
vn -0.884369 0.466788 0.000000
vn -0.884369 0.466788 0.000000
vn -0.884369 0.466788 0.000000
vn 1.000000 0.000000 0.000000
vn 1.000000 0.000000 0.000000
vn 1.000000 0.000000 0.000000
vn 1.000000 0.000000 0.000000
vn 0.000000 0.000000 1.000000
vn 0.000000 0.000000 1.000000
vn 0.000000 0.000000 1.000000
vn 0.000000 0.000000 1.000000
vn -1.000000 0.000000 0.000000
vn -1.000000 0.000000 0.000000
vn -1.000000 0.000000 0.000000
vn -1.000000 0.000000 0.000000
vn 1.000000 0.000000 0.000000
vn 1.000000 0.000000 0.000000
vn 1.000000 0.000000 0.000000
vn 1.000000 0.000000 0.000000
vn 0.914747 -0.404026 0.000000
vn 0.914748 -0.404026 0.000000
vn 0.914748 -0.404026 0.000000
vn 0.914747 -0.404026 0.000000
vn 0.884377 0.466773 0.000000
vn 0.884377 0.466773 0.000000
vn 0.884377 0.466773 0.000000
vn 0.884377 0.466773 0.000000
vn 1.000000 0.000000 0.000000
vn 1.000000 0.000000 0.000000
vn 1.000000 0.000000 0.000000
vn 1.000000 0.000000 0.000000
vn 0.000000 -1.000000 0.000000
vn 0.000000 -1.000000 0.000000
vn 0.000000 -1.000000 0.000000
vn 0.000000 -1.000000 0.000000
vn -0.023499 0.999655 -0.011751
vn -0.023499 0.999655 -0.011751
vn -0.023499 0.999655 -0.011751
vn -0.023499 0.999655 -0.011751
vn 0.914746 0.404031 0.000000
vn 0.914746 0.404031 0.000000
vn 0.914746 0.404031 0.000000
vn 0.914745 0.404031 0.000000
vn 0.000000 0.000000 -1.000000
vn 0.000000 0.000000 -1.000000
vn 0.000000 0.000000 -1.000000
vn 0.000000 0.000000 -1.000000
vn 0.000000 0.404114 -0.914709
vn 0.000000 0.404114 -0.914709
vn 0.000000 0.404114 -0.914709
vn 0.000000 0.404114 -0.914709
vn 0.000000 0.000000 -1.000000
vn 0.000000 0.000000 -1.000000
vn 0.000000 0.000000 -1.000000
vn 0.000000 0.000000 -1.000000
vn 0.000000 0.466788 -0.884369
vn 0.000000 0.466788 -0.884369
vn 0.000000 0.466788 -0.884369
vn 0.000000 0.466788 -0.884369
vn 0.000000 -0.404108 -0.914711
vn 0.000000 -0.404108 -0.914711
vn 0.000000 -0.404108 -0.914711
vn 0.000000 -0.404108 -0.914711
vn 0.000000 0.000000 -1.000000
vn 0.000000 0.000000 -1.000000
vn 0.000000 0.000000 -1.000000
vn 0.000000 0.000000 -1.000000
vn 0.000000 0.000000 -1.000000
vn 0.000000 0.000000 -1.000000
vn 0.000000 0.000000 -1.000000
vn 0.000000 0.000000 -1.000000
vn 0.000000 0.000000 -1.000000
vn 0.000000 0.000000 -1.000000
vn 0.000000 0.000000 -1.000000
vn 0.000000 0.000000 -1.000000
vn 0.000000 0.000000 -1.000000
vn 0.000000 0.000000 -1.000000
vn 0.000000 0.000000 -1.000000
vn 0.000000 0.000000 -1.000000
vn 0.000000 0.000000 -1.000000
vn 0.000000 0.000000 -1.000000
vn 0.000000 0.000000 -1.000000
vn 0.000000 0.000000 -1.000000
vn 0.011750 0.999655 0.023502
vn 0.011750 0.999655 0.023502
vn 0.011750 0.999655 0.023502
vn 0.011750 0.999655 0.023502
vn 0.000000 -1.000000 0.000000
vn 0.000000 -1.000000 0.000000
vn 0.000000 -1.000000 0.000000
vn 0.000000 -1.000000 0.000000
s off
f 7/37/1 8/38/2 10/39/3 11/40/4
f 34/5/5 32/6/6 25/7/7 33/8/8
f 9/41/9 7/42/10 11/43/11 12/44/12
f 2/11/13 8/2/14 7/1/15 1/12/16
f 34/5/17 35/13/18 31/14/19 32/6/20
f 9/9/21 6/15/22 1/12/23 7/1/24
f 10/3/25 4/16/26 3/17/27 11/4/28
f 26/18/29 27/19/30 33/8/31 25/7/32
f 5/20/33 12/10/34 11/4/35 3/17/36
f 31/14/37 35/13/38 36/21/39 30/22/40
f 14/23/41 2/11/42 1/12/43 15/24/44
f 6/15/45 13/25/46 15/24/47 1/12/48
f 30/22/49 36/21/50 28/26/51 29/27/52
f 17/28/53 14/23/54 15/24/55 18/29/56
f 13/25/57 16/30/58 18/29/59 15/24/60
f 10/3/61 8/2/62 19/31/63 24/32/64
f 2/11/65 20/33/66 19/31/67 8/2/68
f 21/34/69 20/33/70 2/11/71 14/23/72
f 22/35/73 21/34/74 14/23/75 17/28/76
f 28/26/77 18/29/78 16/30/79 29/27/80
f 3/17/81 27/19/82 26/18/83 5/20/84
f 24/32/85 23/36/86 4/16/87 10/3/88
f 9/9/89 12/10/90 25/7/91 32/6/92
f 5/20/93 26/18/94 25/7/95 12/10/96
f 13/25/97 30/22/98 29/27/99 16/30/100
f 6/15/101 31/14/102 30/22/103 13/25/104
f 32/6/105 31/14/106 6/15/107 9/9/108
f 24/32/109 19/31/110 34/5/111 33/8/112
f 19/31/113 20/33/114 35/13/115 34/5/116
f 23/36/117 24/32/118 33/8/119 27/19/120
f 20/33/121 21/34/122 36/21/123 35/13/124
f 21/34/125 22/35/126 28/26/127 36/21/128
f 4/16/129 23/36/130 27/19/131 3/17/132
f 28/26/133 22/35/134 17/28/135 18/29/136
