# This file uses centimeters as units for non-parametric coordinates.

v 0.000000 0.000000 18.714722
v 249.999268 0.000000 18.714722
v 0.000000 0.000000 -18.714966
v 249.999268 0.000000 -18.714966
v 249.999268 16.723480 16.167984
v 249.999268 14.176758 18.714722
v 0.000000 16.723480 16.167984
v 0.000000 14.176758 18.714722
v 249.999268 14.176758 -18.714966
v 249.999268 16.723480 -16.168228
v 0.000000 14.176758 -18.714966
v 0.000000 16.723480 -16.168228
v 140.992920 16.723480 13.010406
v 176.181519 16.723480 -13.818481
v 126.369019 10.584686 -18.714966
v 174.349731 0.000000 -18.714966
v 66.393311 0.000000 18.714722
v 65.487305 11.439636 18.714722
vt 0.103248 0.300964
vt 0.103248 0.300964
vt 0.103248 0.300964
vt 0.103248 0.300964
vt 0.103248 0.300964
vt 0.103248 0.300964
vt 0.103248 0.300964
vt 0.103248 0.300964
vt 0.103248 0.300964
vt 0.103248 0.300964
vt 0.103248 0.300964
vt 0.103248 0.300964
vt 0.103248 0.300964
vt 0.103248 0.300964
vt 0.103248 0.300964
vt 0.103248 0.300964
vt 0.103248 0.300964
vt 0.103248 0.300964
vn -1.000000 0.000000 0.000000
vn -1.000000 0.000000 0.000000
vn -1.000000 0.000000 0.000000
vn -1.000000 0.000000 0.000000
vn -1.000000 0.000000 0.000000
vn -1.000000 0.000000 0.000000
vn 0.000000 1.000000 0.000000
vn 0.000000 1.000000 0.000000
vn 0.000000 1.000000 0.000000
vn 0.000000 1.000000 0.000000
vn 0.000000 -1.000000 0.000000
vn 0.000000 -1.000000 0.000000
vn 0.000000 -1.000000 0.000000
vn 0.000000 -1.000000 0.000000
vn 0.000000 0.000000 1.000000
vn 0.000000 0.000000 1.000000
vn 0.000000 0.000000 1.000000
vn 0.000000 0.000000 1.000000
vn 0.000000 0.000000 -1.000000
vn 0.000000 0.000000 -1.000000
vn 0.000000 0.000000 -1.000000
vn 0.000000 0.000000 -1.000000
vn 1.000000 0.000000 0.000000
vn 1.000000 0.000000 0.000000
vn 1.000000 0.000000 0.000000
vn 1.000000 0.000000 0.000000
vn 1.000000 0.000000 0.000000
vn 1.000000 0.000000 0.000000
vn 0.018773 0.633785 0.773281
vn -0.013313 0.783275 0.621533
vn 0.020220 0.626245 0.779364
vn 0.020220 0.626245 0.779364
vn -0.018789 0.710549 -0.703397
vn 0.012410 0.608679 -0.793319
vn 0.013368 0.605350 -0.795847
vn 0.013368 0.605350 -0.795847
vn 0.000000 1.000000 0.000000
vn 0.000000 1.000000 0.000000
vn 0.000000 1.000000 0.000000
vn 0.000000 1.000000 0.000000
vn -0.021344 0.718326 -0.695379
vn -0.021344 0.718326 -0.695379
vn 0.012410 0.608679 -0.793319
vn -0.018789 0.710549 -0.703397
vn 0.000000 0.000000 -1.000000
vn 0.000000 0.000000 -1.000000
vn 0.000000 0.000000 -1.000000
vn 0.000000 0.000000 -1.000000
vn 0.000000 -1.000000 0.000000
vn 0.000000 -1.000000 0.000000
vn 0.000000 -1.000000 0.000000
vn 0.000000 -1.000000 0.000000
vn 0.000000 0.000000 1.000000
vn 0.000000 0.000000 1.000000
vn 0.000000 0.000000 1.000000
vn 0.000000 0.000000 1.000000
vn -0.013979 0.786019 0.618044
vn -0.013979 0.786019 0.618044
vn -0.013313 0.783275 0.621533
vn 0.018773 0.633785 0.773281
s off
f 1/1/1 8/10/2 7/5/3 12/12/4 11/7/5 3/8/6
f 7/5/7 13/13/8 14/14/9 12/12/10
f 17/17/11 1/1/12 3/8/13 16/16/14
f 18/18/15 8/10/16 1/1/17 17/17/18
f 11/7/19 15/15/20 16/16/21 3/8/22
f 5/9/23 6/4/24 2/2/25 4/3/26 9/11/27 10/6/28
f 18/18/29 13/13/30 7/5/31 8/10/32
f 14/14/33 15/15/34 11/7/35 12/12/36
f 13/13/37 5/9/38 10/6/39 14/14/40
f 10/6/41 9/11/42 15/15/43 14/14/44
f 16/16/45 15/15/46 9/11/47 4/3/48
f 2/2/49 17/17/50 16/16/51 4/3/52
f 6/4/53 18/18/54 17/17/55 2/2/56
f 6/4/57 5/9/58 13/13/59 18/18/60
