# This file uses centimeters as units for non-parametric coordinates.

v -250.001343 -150.000031 -249.999023
v 0.000000 -150.000031 -249.999023
v -250.001343 -150.000031 0.000000
v 0.000000 -150.000031 0.000000
v 0.000000 0.000000 0.000000
v -250.001343 0.000000 0.000000
v 0.000000 150.000031 -249.999023
v -250.001343 150.000031 -249.999023
v -250.001343 75.000031 -124.999512
v 0.000000 75.000031 -124.999512
v -250.001343 112.500092 -187.499268
v 0.000000 112.500092 -187.499268
v 0.000000 37.500061 -62.499756
v -250.001343 37.500061 -62.499756
v 0.000000 18.750107 -31.250000
v -250.001343 18.750107 -31.250000
v -250.001343 56.250092 -93.749512
v 0.000000 56.250092 -93.749512
v 0.000000 93.749969 -156.249512
v -250.001343 93.749969 -156.249512
v -250.001343 131.250031 -218.749023
v 0.000000 131.250031 -218.749023
v -250.001343 16.135788 0.000000
v 0.000000 16.135788 0.000000
v -250.001343 91.135590 -124.999512
v 0.000000 91.135590 -124.999512
v -250.001343 53.635803 -62.499756
v 0.000000 53.635803 -62.499756
v -250.001343 128.635712 -187.499268
v 0.000000 128.635712 -187.499268
v -250.001343 147.385651 -218.749023
v 0.000000 147.385651 -218.749023
v -250.001343 72.385590 -93.749512
v 0.000000 72.385590 -93.749512
v -250.001343 34.885742 -31.250000
v 0.000000 34.885742 -31.250000
v -250.001343 109.885773 -156.249512
v 0.000000 109.885773 -156.249512
v -250.001343 18.750168 -3.125000
v 0.000000 18.750168 -3.125000
v -250.001343 37.500122 -34.375000
v 0.000000 37.500122 -34.375000
v -250.001343 56.250153 -65.624756
v 0.000000 56.250153 -65.624756
v -250.001343 74.999969 -96.874512
v 0.000000 74.999969 -96.874512
v -250.001343 93.749969 -128.124512
v 0.000000 93.749939 -128.124512
v -250.001343 112.500153 -159.374512
v 0.000000 112.500153 -159.374512
v -250.001343 131.250092 -190.624268
v 0.000000 131.250092 -190.624268
v -250.001343 150.000031 -221.874023
v 0.000000 150.000031 -221.874023
v -58.847168 108.179810 -158.125732
v -89.497070 108.179810 -158.125732
v -75.038574 110.794189 -161.250732
v -74.955078 105.343872 -158.125732
v -74.814453 107.214691 -159.759277
v -221.881470 70.679626 -95.625488
v -180.453247 70.679626 -95.625732
v -198.824829 73.294006 -98.750732
v -198.505737 66.320587 -95.625732
v -198.540405 69.714508 -97.259277
v -129.443604 35.794159 -36.251221
v -91.008789 35.794159 -36.251221
v -109.186523 33.179779 -33.126221
v -106.867188 35.794159 -41.913330
v -108.098389 34.829041 -37.884766
vt 0.063352 0.173834
vt 0.063323 0.174807
vt 0.063337 0.174818
vt 0.063366 0.173843
vt 0.062754 0.173852
vt 0.062742 0.173844
vt 0.062517 0.174824
vt 0.062529 0.174834
vt 0.063162 0.173846
vt 0.063148 0.173838
vt 0.063264 0.173844
vt 0.063250 0.173836
vt 0.063047 0.173839
vt 0.063060 0.173847
vt 0.062996 0.173840
vt 0.063009 0.173848
vt 0.063111 0.173847
vt 0.063097 0.173838
vt 0.063199 0.173837
vt 0.063213 0.173845
vt 0.063315 0.173844
vt 0.063301 0.173835
vt 0.062958 0.173849
vt 0.062945 0.173841
vt 0.063162 0.173846
vt 0.063148 0.173838
vt 0.063060 0.173847
vt 0.063047 0.173839
vt 0.063264 0.173844
vt 0.063250 0.173836
vt 0.063315 0.173844
vt 0.063301 0.173835
vt 0.063111 0.173847
vt 0.063097 0.173838
vt 0.063009 0.173848
vt 0.062996 0.173840
vt 0.063213 0.173845
vt 0.063199 0.173837
vt 0.251754 0.751467
vt 0.498867 0.751467
vt 0.498867 0.782356
vt 0.251754 0.782356
vt 0.251754 0.967691
vt 0.498867 0.967691
vt 0.498867 0.998580
vt 0.251754 0.998580
vt 0.251754 0.844134
vt 0.498867 0.844134
vt 0.498867 0.875023
vt 0.251754 0.875023
vt 0.251754 0.875023
vt 0.498867 0.875023
vt 0.498867 0.905913
vt 0.251754 0.905913
vt 0.251754 0.936802
vt 0.498867 0.936802
vt 0.498867 0.967691
vt 0.251754 0.967691
vt 0.251754 0.905913
vt 0.498867 0.905913
vt 0.498867 0.936802
vt 0.251754 0.936802
vt 0.251754 0.813245
vt 0.498867 0.813245
vt 0.498867 0.844134
vt 0.251754 0.844134
vt 0.251754 0.782356
vt 0.498867 0.782356
vt 0.498867 0.813245
vt 0.251754 0.813245
vt 0.498867 0.995491
vt 0.062963 0.173849
vt 0.251754 0.995491
vt 0.062950 0.173841
vt 0.498867 0.964602
vt 0.063014 0.173848
vt 0.251754 0.964602
vt 0.063001 0.173840
vt 0.498867 0.933713
vt 0.063065 0.173847
vt 0.251754 0.933713
vt 0.063052 0.173839
vt 0.498867 0.902824
vt 0.063116 0.173847
vt 0.251754 0.902824
vt 0.063103 0.173838
vt 0.498867 0.871935
vt 0.063167 0.173846
vt 0.251754 0.871934
vt 0.063153 0.173837
vt 0.498867 0.841045
vt 0.063218 0.173845
vt 0.251754 0.841045
vt 0.063204 0.173837
vt 0.498867 0.810156
vt 0.063269 0.173844
vt 0.251754 0.810156
vt 0.063255 0.173836
vt 0.498867 0.779267
vt 0.063320 0.173843
vt 0.251754 0.779267
vt 0.063306 0.173835
vt 0.063202 0.173839
vt 0.309921 0.844134
vt 0.063204 0.173840
vt 0.340217 0.844134
vt 0.325926 0.841045
vt 0.063203 0.173839
vt 0.063203 0.173839
vt 0.325704 0.844134
vt 0.471072 0.905913
vt 0.063109 0.173846
vt 0.430123 0.905913
vt 0.063107 0.173844
vt 0.448282 0.902824
vt 0.063108 0.173845
vt 0.448001 0.905913
vt 0.063108 0.173845
vt 0.379702 0.964602
vt 0.341711 0.964602
vt 0.063001 0.173844
vt 0.359679 0.967691
vt 0.357386 0.959005
vt 0.358603 0.964602
vn 0.000000 0.000000 -1.000000
vn 0.000000 0.000000 -1.000000
vn 0.000000 0.000000 -1.000000
vn 0.000000 0.000000 -1.000000
vn 0.000000 1.000000 0.000000
vn 0.000000 1.000000 0.000000
vn 0.000000 1.000000 0.000000
vn 0.000000 1.000000 0.000000
vn 0.000000 -1.000000 0.000000
vn 0.000000 -1.000000 0.000000
vn 0.000000 -1.000000 0.000000
vn 0.000000 -1.000000 0.000000
vn -1.000000 -0.000000 0.000000
vn -1.000000 -0.000000 0.000000
vn -1.000000 -0.000000 0.000000
vn -1.000000 -0.000000 0.000000
vn -1.000000 -0.000000 0.000000
vn 0.000000 0.000000 1.000000
vn 0.000000 0.000000 1.000000
vn 0.000000 0.000000 1.000000
vn 0.000000 0.000000 1.000000
vn 1.000000 0.000000 0.000000
vn 1.000000 0.000000 0.000000
vn 1.000000 0.000000 0.000000
vn 1.000000 0.000000 0.000000
vn 0.000000 1.000000 -0.000002
vn 0.000000 1.000000 -0.000002
vn 0.000000 1.000000 -0.000002
vn 0.000000 1.000000 -0.000002
vn 0.000000 1.000000 0.000001
vn 0.000000 1.000000 0.000001
vn 0.000000 1.000000 0.000001
vn 0.000000 1.000000 0.000001
vn 0.000000 0.997895 0.064857
vn 0.000000 0.997895 0.064857
vn 0.000000 0.997895 0.064857
vn -0.016507 0.999834 0.007746
vn -0.016507 0.999834 0.007746
vn -0.016507 0.999834 0.007746
vn -0.016507 0.999834 0.007746
vn 0.000000 1.000000 -0.000002
vn 0.000000 1.000000 -0.000002
vn 0.000000 1.000000 -0.000002
vn 0.000000 1.000000 -0.000002
vn 0.000000 0.997895 0.064853
vn 0.000000 0.997895 0.064853
vn 0.000000 0.997895 0.064853
vn 0.000000 1.000000 -0.000002
vn 0.000000 1.000000 -0.000002
vn 0.000000 1.000000 -0.000002
vn 0.000000 1.000000 -0.000002
vn -1.000000 0.000000 0.000000
vn -1.000000 0.000000 0.000000
vn -1.000000 0.000000 0.000000
vn -1.000000 0.000000 0.000000
vn 0.000000 0.000000 1.000000
vn 0.000000 0.000000 1.000000
vn 0.000000 0.000000 1.000000
vn 0.000000 0.000000 1.000000
vn 1.000000 0.000000 0.000000
vn 1.000000 0.000000 0.000000
vn 1.000000 0.000000 0.000000
vn 1.000000 0.000000 0.000000
vn -1.000000 0.000000 0.000000
vn -1.000000 0.000000 0.000000
vn -1.000000 0.000000 0.000000
vn -1.000000 0.000000 0.000000
vn 0.000000 0.000000 1.000000
vn 0.000000 0.000000 1.000000
vn 0.000000 0.000000 1.000000
vn 0.000000 0.000000 1.000000
vn 1.000000 0.000000 0.000000
vn 1.000000 0.000000 0.000000
vn 1.000000 0.000000 0.000000
vn 1.000000 0.000000 0.000000
vn -1.000000 0.000000 0.000000
vn -1.000000 0.000000 0.000000
vn -1.000000 0.000000 0.000000
vn -1.000000 0.000000 0.000000
vn 0.000000 0.000000 1.000000
vn 0.000000 0.000000 1.000000
vn 0.000000 0.000000 1.000000
vn 0.000000 0.000000 1.000000
vn 1.000000 0.000000 0.000000
vn 1.000000 0.000000 0.000000
vn 1.000000 0.000000 0.000000
vn 1.000000 0.000000 0.000000
vn -1.000000 0.000000 0.000000
vn -1.000000 0.000000 0.000000
vn -1.000000 0.000000 0.000000
vn -1.000000 0.000000 0.000000
vn 0.000000 0.000000 1.000000
vn 0.000000 0.000000 1.000000
vn 0.000000 0.000000 1.000000
vn 0.000000 0.000000 1.000000
vn 1.000000 0.000000 0.000000
vn 1.000000 0.000000 0.000000
vn 1.000000 0.000000 0.000000
vn 1.000000 0.000000 0.000000
vn -1.000000 0.000000 0.000000
vn -1.000000 0.000000 0.000000
vn -1.000000 0.000000 0.000000
vn -1.000000 0.000000 0.000000
vn 0.000000 0.000000 1.000000
vn 0.000000 0.000000 1.000000
vn 0.000000 0.000000 1.000000
vn 0.000000 0.000000 1.000000
vn 1.000000 0.000000 0.000000
vn 1.000000 0.000000 0.000000
vn 1.000000 0.000000 0.000000
vn 1.000000 0.000000 0.000000
vn -1.000000 0.000000 0.000000
vn -1.000000 0.000000 0.000000
vn -1.000000 0.000000 0.000000
vn -1.000000 0.000000 0.000000
vn 0.042001 0.047894 0.997969
vn 0.042001 0.047894 0.997969
vn 0.042001 0.047894 0.997969
vn 0.042001 0.047894 0.997969
vn 1.000000 0.000000 0.000000
vn 1.000000 0.000000 0.000000
vn 1.000000 0.000000 0.000000
vn 1.000000 0.000000 0.000000
vn -1.000000 0.000000 0.000000
vn -1.000000 0.000000 0.000000
vn -1.000000 0.000000 0.000000
vn -1.000000 0.000000 0.000000
vn 0.013323 0.000000 0.999911
vn 0.013323 0.000000 0.999911
vn 0.013323 0.000000 0.999911
vn 1.000000 0.000000 0.000000
vn 1.000000 0.000000 0.000000
vn 1.000000 0.000000 0.000000
vn 1.000000 0.000000 0.000000
vn -1.000000 0.000000 0.000000
vn -1.000000 0.000000 0.000000
vn -1.000000 0.000000 0.000000
vn -1.000000 0.000000 0.000000
vn 0.000000 0.159750 0.987158
vn 0.000000 0.159750 0.987158
vn 0.000000 0.159750 0.987158
vn 1.000000 0.000000 0.000000
vn 1.000000 0.000000 0.000000
vn 1.000000 0.000000 0.000000
vn 1.000000 0.000000 0.000000
vn 1.000000 0.000000 0.000000
vn 1.000000 0.000000 0.000000
vn 1.000000 0.000000 0.000000
vn 1.000000 0.000000 0.000000
vn 1.000000 0.000000 0.000000
vn 1.000000 0.000000 0.000000
vn 1.000000 0.000000 0.000000
vn 1.000000 0.000000 0.000000
vn 1.000000 0.000000 0.000000
vn 1.000000 0.000000 0.000000
vn 1.000000 0.000000 0.000000
vn 1.000000 0.000000 0.000000
vn 1.000000 0.000000 0.000000
vn -1.000000 0.000000 0.000000
vn -1.000000 0.000000 0.000000
vn -1.000000 0.000000 0.000000
vn -1.000000 0.000000 0.000000
vn -1.000000 0.000000 0.000000
vn -1.000000 0.000000 0.000000
vn -1.000000 0.000000 0.000000
vn -1.000000 0.000000 0.000000
vn -1.000000 -0.000000 0.000000
vn -1.000000 -0.000000 0.000000
vn -1.000000 -0.000000 0.000000
vn -1.000000 -0.000000 0.000000
vn 0.000000 0.766987 0.641663
vn 0.000000 0.766987 0.641663
vn 0.000000 0.766987 0.641663
vn 0.000000 0.766987 0.641663
vn -0.024862 0.801156 0.597939
vn -0.024862 0.801156 0.597939
vn -0.024862 0.801156 0.597939
vn -0.024862 0.801156 0.597939
vn 0.000000 0.766991 0.641658
vn 0.000000 0.766991 0.641658
vn 0.000000 0.766991 0.641658
vn 0.000000 0.766991 0.641658
vn 0.063760 0.637074 0.768161
vn 0.063760 0.637074 0.768161
vn 0.063760 0.637074 0.768161
vn 0.063760 0.637074 0.768161
vn 0.000000 0.766988 0.641661
vn 0.000000 0.766988 0.641661
vn 0.000000 0.766988 0.641661
vn 0.000000 0.766988 0.641661
vn 0.015026 0.749521 0.661810
vn 0.015026 0.749521 0.661810
vn 0.015026 0.749521 0.661810
vn 0.015026 0.749521 0.661810
vn 0.000000 0.766988 0.641662
vn 0.000000 0.766988 0.641662
vn 0.000000 0.766988 0.641662
vn 0.000000 0.766988 0.641662
vn 0.000000 0.766986 0.641664
vn 0.000000 0.766986 0.641664
vn 0.000000 0.766986 0.641664
vn 0.000000 0.766986 0.641664
vn -0.037783 0.716101 0.696974
vn -0.037783 0.716101 0.696974
vn -0.037783 0.716101 0.696974
vn -0.037783 0.716101 0.696974
vn 0.127072 0.388266 0.912744
vn 0.127072 0.388266 0.912744
vn 0.127072 0.388266 0.912744
vn 0.126189 0.647070 0.751915
vn 0.126189 0.647070 0.751915
vn 0.126189 0.647070 0.751915
vn -0.115884 0.658219 0.743854
vn -0.115884 0.658219 0.743854
vn -0.115884 0.658219 0.743854
vn -0.116766 0.375745 0.919338
vn -0.116766 0.375745 0.919338
vn -0.116766 0.375745 0.919338
vn -0.013295 0.747341 0.664308
vn -0.013295 0.747341 0.664308
vn -0.013295 0.747341 0.664308
vn -0.013295 0.747341 0.664308
vn 0.080320 0.388803 0.917813
vn 0.080320 0.388803 0.917813
vn 0.080320 0.388803 0.917813
vn 0.080744 0.432947 0.897796
vn 0.080744 0.432947 0.897796
vn 0.080744 0.432947 0.897796
vn -0.103946 0.430483 0.896593
vn -0.103946 0.430483 0.896593
vn -0.103946 0.430483 0.896593
vn -0.103223 0.375560 0.921032
vn -0.103223 0.375560 0.921032
vn -0.103223 0.375560 0.921032
vn 0.062861 0.966037 0.250643
vn 0.062861 0.966037 0.250643
vn 0.062861 0.966037 0.250642
vn 0.019074 0.796410 0.604456
vn 0.019074 0.796410 0.604456
vn 0.019074 0.796410 0.604456
vn 0.019074 0.796410 0.604456
vn 0.068467 0.937694 0.340651
vn 0.068467 0.937694 0.340651
vn 0.068467 0.937694 0.340651
vn -0.083067 0.947318 0.309336
vn -0.083067 0.947318 0.309336
vn -0.083067 0.947318 0.309336
vn -0.075169 0.974692 0.210534
vn -0.075169 0.974692 0.210534
vn -0.075169 0.974692 0.210534
vn 0.009750 0.999952 -0.000002
vn 0.009750 0.999953 -0.000002
vn 0.009750 0.999953 -0.000002
vn -0.022729 0.999742 -0.000003
vn -0.022729 0.999742 -0.000003
vn -0.022729 0.999742 -0.000003
vn -0.026373 0.022392 0.999401
vn -0.026373 0.022392 0.999401
vn -0.026373 0.022392 0.999401
vn -0.026373 0.022392 0.999401
vn 0.010935 0.008382 0.999905
vn 0.010935 0.008382 0.999905
vn 0.010935 0.008382 0.999905
vn 0.010935 0.008382 0.999905
vn 0.033316 0.999445 0.000002
vn 0.033316 0.999445 0.000002
vn 0.033316 0.999445 0.000002
vn -0.008580 0.999963 0.000002
vn -0.008580 0.999963 0.000002
vn -0.008580 0.999963 0.000002
vn 0.012352 0.999890 0.008252
vn 0.012352 0.999890 0.008252
vn 0.012352 0.999890 0.008252
vn 0.012352 0.999890 0.008252
vn 0.000000 0.996584 0.082582
vn 0.000000 0.996584 0.082582
vn 0.000000 0.996584 0.082582
vn -0.009712 0.008555 0.999916
vn -0.009712 0.008555 0.999916
vn -0.009712 0.008555 0.999916
vn -0.009712 0.008555 0.999916
vn 0.000000 0.183157 0.983084
vn 0.000000 0.183157 0.983084
vn 0.000000 0.183157 0.983084
vn -0.017181 0.000000 0.999852
vn -0.017181 0.000000 0.999852
vn -0.017181 0.000000 0.999852
vn 0.000000 0.128940 0.991652
vn 0.000000 0.128940 0.991652
vn 0.000000 0.128940 0.991652
s off
f 7/1/1 2/2/2 1/3/3 8/4/4
f 7/39/5 8/40/6 53/99/7 54/101/8
f 1/3/9 2/2/10 4/7/11 3/8/12
f 6/5/13 16/16/14 14/14/15 1/3/16 3/8/17
f 5/6/18 6/5/19 3/8/20 4/7/21
f 2/2/22 10/10/23 18/18/24 13/13/25
f 15/43/26 16/44/27 39/71/28 40/73/29
f 19/47/30 20/48/31 47/87/32 48/89/33
f 10/51/34 9/52/35 62/115/36
f 13/55/37 68/123/38 66/120/39 42/77/40
f 18/59/41 17/60/42 43/79/43 44/81/44
f 12/63/45 11/64/46 57/107/47
f 22/67/48 21/68/49 51/95/50 52/97/51
f 16/16/52 6/5/53 23/23/54 39/72/55
f 6/5/56 5/6/57 24/24/58 23/23/59
f 5/6/60 15/15/61 40/74/62 24/24/63
f 20/20/64 9/9/65 25/25/66 47/88/67
f 9/9/68 10/10/69 26/26/70 25/25/71
f 10/10/72 19/19/73 48/90/74 26/26/75
f 17/17/76 14/14/77 27/27/78 43/80/79
f 14/14/80 13/13/81 28/28/82 27/27/83
f 13/13/84 18/18/85 44/82/86 28/28/87
f 21/21/88 11/11/89 29/29/90 51/96/91
f 11/11/92 12/12/93 30/30/94 29/29/95
f 12/12/96 22/22/97 52/98/98 30/30/99
f 8/4/100 21/21/101 31/31/102 53/100/103
f 21/21/104 22/22/105 32/32/106 31/31/107
f 22/22/108 7/1/109 54/102/110 32/32/111
f 9/9/112 17/17/113 33/33/114 45/84/115
f 17/17/116 63/116/117 60/112/118 33/33/119
f 18/18/120 10/10/121 46/86/122 34/34/123
f 14/14/124 16/16/125 35/35/126 41/76/127
f 16/16/128 67/121/129 35/35/130
f 15/15/131 13/13/132 42/78/133 36/36/134
f 11/11/135 20/20/136 37/37/137 49/92/138
f 20/20/139 19/19/140 58/108/141
f 19/19/142 12/12/143 50/94/144 38/38/145
f 2/2/146 13/13/147 15/15/148 5/6/149 4/7/150
f 2/2/151 7/1/152 22/22/153 12/12/154
f 2/2/155 12/12/156 19/19/157 10/10/158
f 1/3/159 9/9/160 20/20/161 11/11/162
f 1/3/163 14/14/164 17/17/165 9/9/166
f 1/3/167 11/11/168 21/21/169 8/4/170
f 40/73/171 39/71/172 23/45/173 24/46/174
f 42/77/175 66/120/176 67/122/177 36/58/178
f 44/81/179 43/79/180 27/61/181 28/62/182
f 60/111/183 62/115/184 45/83/185 33/53/186
f 48/89/187 47/87/188 25/49/189 26/50/190
f 56/106/191 57/107/192 49/91/193 37/65/194
f 52/97/195 51/95/196 29/69/197 30/70/198
f 54/101/199 53/99/200 31/41/201 32/42/202
f 50/93/203 57/107/204 55/104/205 38/66/206
f 59/110/207 57/107/208 56/106/209
f 56/105/210 58/108/211 59/109/212
f 59/109/213 58/108/214 55/103/215
f 55/104/216 57/107/217 59/110/218
f 46/85/219 62/115/220 61/113/221 34/54/222
f 64/117/223 62/115/224 60/111/225
f 60/112/226 63/116/227 64/118/228
f 64/118/229 63/116/230 61/114/231
f 61/113/232 62/115/233 64/117/234
f 69/124/235 68/123/236 65/119/237
f 67/122/238 65/119/239 41/75/240 35/57/241
f 67/122/242 69/124/243 65/119/244
f 67/122/245 66/120/246 69/124/247
f 66/120/248 68/123/249 69/124/250
f 57/107/251 11/64/252 49/91/253
f 12/63/254 57/107/255 50/93/256
f 58/108/257 19/19/258 38/38/259 55/103/260
f 20/20/261 58/108/262 56/105/263 37/37/264
f 62/115/265 9/52/266 45/83/267
f 10/51/268 62/115/269 46/85/270
f 68/123/271 14/56/272 41/75/273 65/119/274
f 13/55/275 14/56/276 68/123/277
f 63/116/278 18/18/279 34/34/280 61/114/281
f 17/17/282 18/18/283 63/116/284
f 67/121/285 15/15/286 36/36/287
f 16/16/288 15/15/289 67/121/290
