# This file uses centimeters as units for non-parametric coordinates.

v -18.549194 19.398438 18.549316
v 18.549194 19.398438 18.549316
v -18.549194 300.000092 18.549316
v 18.549194 300.000092 18.549316
v -18.549194 300.000092 -18.549316
v 18.549194 300.000092 -18.549316
v -18.549194 19.398438 -18.549316
v 18.549194 19.398438 -18.549316
v -19.559448 21.685183 19.559326
v 19.559448 21.685183 19.559326
v 19.559448 21.685183 -19.559570
v -19.559448 21.685183 -19.559570
v 19.559448 297.713379 19.559326
v -19.559448 297.713379 19.559326
v -19.559448 297.713379 -19.559570
v 19.559448 297.713379 -19.559570
v -21.410034 13.978336 -21.410156
v 21.410278 13.978336 -21.410156
v 21.410278 13.978336 21.410034
v -21.410034 13.978336 21.410034
v -21.410034 -0.000001 -21.410156
v 21.410278 -0.000001 -21.410156
v 21.410278 -0.000001 21.410034
v -21.410034 -0.000001 21.410034
v 0.000122 300.654175 0.000000
vt 0.013706 0.755628
vt 0.013636 0.755612
vt 0.013603 0.755655
vt 0.013742 0.756543
vt 0.013610 0.756534
vt 0.013559 0.756554
vt 0.013702 0.756566
vt 0.013696 0.756485
vt 0.013566 0.756478
vt 0.013558 0.755604
vt 0.013676 0.755570
vt 0.013612 0.756466
vt 0.013601 0.755664
vt 0.013732 0.756471
vt 0.013710 0.755635
vt 0.013694 0.756492
vt 0.013571 0.756486
vt 0.013614 0.756473
vt 0.013728 0.756479
vt 0.013563 0.755598
vt 0.013673 0.755566
vt 0.013609 0.756489
vt 0.013740 0.756497
vt 0.013558 0.756505
vt 0.013701 0.756514
vt 0.100316 0.762267
vt 0.148766 0.762267
vt 0.148766 0.990773
vt 0.100316 0.990773
vt 0.148766 0.762267
vt 0.100316 0.762267
vt 0.100316 0.990773
vt 0.148766 0.990773
vn 0.000000 0.999379 -0.035243
vn 0.000000 0.999379 -0.035243
vn 0.000000 0.999379 -0.035243
vn 0.000000 -1.000000 0.000000
vn 0.000000 -1.000000 0.000000
vn 0.000000 -1.000000 0.000000
vn 0.000000 -1.000000 0.000000
vn 0.000000 0.000000 1.000000
vn 0.000000 0.000000 1.000000
vn 0.000000 0.000000 1.000000
vn 0.000000 0.000000 1.000000
vn 1.000000 0.000000 0.000000
vn 1.000000 0.000000 0.000000
vn 1.000000 0.000000 0.000000
vn 1.000000 0.000000 0.000000
vn 0.000000 0.000000 -1.000000
vn 0.000000 0.000000 -1.000000
vn 0.000000 0.000000 -1.000000
vn 0.000000 0.000000 -1.000000
vn -1.000000 0.000000 0.000000
vn -1.000000 0.000000 0.000000
vn -1.000000 0.000000 0.000000
vn -1.000000 0.000000 0.000000
vn 0.000000 -0.404026 0.914748
vn 0.000000 -0.404026 0.914748
vn 0.000000 -0.404026 0.914748
vn 0.000000 -0.404026 0.914748
vn 0.914711 -0.404108 0.000000
vn 0.914711 -0.404108 0.000000
vn 0.914711 -0.404108 0.000000
vn 0.914711 -0.404108 0.000000
vn 0.000000 -0.404107 -0.914712
vn 0.000000 -0.404107 -0.914712
vn 0.000000 -0.404107 -0.914712
vn 0.000000 -0.404107 -0.914712
vn -0.914711 -0.404108 0.000000
vn -0.914711 -0.404108 0.000000
vn -0.914711 -0.404108 0.000000
vn -0.914711 -0.404108 0.000000
vn 0.000000 0.404033 0.914744
vn 0.000000 0.404033 0.914744
vn 0.000000 0.404033 0.914744
vn 0.000000 0.404033 0.914744
vn 0.000000 0.404115 -0.914708
vn 0.000000 0.404115 -0.914708
vn 0.000000 0.404115 -0.914708
vn 0.000000 0.404115 -0.914708
vn 0.914709 0.404113 0.000000
vn 0.914709 0.404113 0.000000
vn 0.914709 0.404113 0.000000
vn 0.914709 0.404113 0.000000
vn -0.914709 0.404113 0.000000
vn -0.914709 0.404113 0.000000
vn -0.914709 0.404113 0.000000
vn -0.914709 0.404113 0.000000
vn 0.000000 0.466788 -0.884369
vn 0.000000 0.466788 -0.884369
vn 0.000000 0.466788 -0.884369
vn 0.000000 0.466788 -0.884369
vn 0.884353 0.466819 0.000000
vn 0.884353 0.466819 0.000000
vn 0.884353 0.466819 0.000000
vn 0.884353 0.466819 0.000000
vn 0.000000 0.466773 0.884377
vn 0.000000 0.466772 0.884377
vn 0.000000 0.466772 0.884377
vn 0.000000 0.466772 0.884377
vn -0.884369 0.466788 0.000000
vn -0.884369 0.466788 0.000000
vn -0.884369 0.466788 0.000000
vn -0.884369 0.466788 0.000000
vn 0.000000 0.000000 -1.000000
vn 0.000000 0.000000 -1.000000
vn 0.000000 0.000000 -1.000000
vn 0.000000 0.000000 -1.000000
vn 1.000000 0.000000 0.000000
vn 1.000000 0.000000 0.000000
vn 1.000000 0.000000 0.000000
vn 1.000000 0.000000 0.000000
vn 0.000000 0.000000 1.000000
vn 0.000000 0.000000 1.000000
vn 0.000000 0.000000 1.000000
vn 0.000000 0.000000 1.000000
vn -1.000000 0.000000 0.000000
vn -1.000000 0.000000 0.000000
vn -1.000000 0.000000 0.000000
vn -1.000000 0.000000 0.000000
vn 0.035240 0.999379 0.000000
vn 0.035240 0.999379 0.000000
vn 0.035240 0.999379 0.000000
vn -0.035240 0.999379 0.000000
vn -0.035240 0.999379 0.000000
vn -0.035240 0.999379 0.000000
vn 0.000000 0.999379 0.035243
vn 0.000000 0.999379 0.035243
vn 0.000000 0.999379 0.035243
s off
f 5/1/1 25/2/2 6/3/3
f 21/4/4 22/5/5 23/6/6 24/7/7
f 9/26/8 10/27/9 13/28/10 14/29/11
f 10/9/12 11/12/13 16/13/14 13/10/15
f 11/12/16 12/14/17 15/15/18 16/13/19
f 12/30/20 9/31/21 14/32/22 15/33/23
f 1/16/24 2/17/25 10/9/26 9/8/27
f 2/17/28 8/18/29 11/12/30 10/9/31
f 8/18/32 7/19/33 12/14/34 11/12/35
f 7/19/36 1/16/37 9/8/38 12/14/39
f 4/20/40 3/21/41 14/11/42 13/10/43
f 5/1/44 6/3/45 16/13/46 15/15/47
f 6/3/48 4/20/49 13/10/50 16/13/51
f 3/21/52 5/1/53 15/15/54 14/11/55
f 7/19/56 8/18/57 18/22/58 17/23/59
f 8/18/60 2/17/61 19/24/62 18/22/63
f 2/17/64 1/16/65 20/25/66 19/24/67
f 1/16/68 7/19/69 17/23/70 20/25/71
f 17/23/72 18/22/73 22/5/74 21/4/75
f 18/22/76 19/24/77 23/6/78 22/5/79
f 19/24/80 20/25/81 24/7/82 23/6/83
f 20/25/84 17/23/85 21/4/86 24/7/87
f 25/2/88 4/20/89 6/3/90
f 3/21/91 25/2/92 5/1/93
f 3/21/94 4/20/95 25/2/96
