# This file uses centimeters as units for non-parametric coordinates.

v 0.000031 268.967743 83.013016
v 250.000000 268.967743 83.013016
v 0.000031 31.032372 83.013016
v 250.000000 31.032372 83.013016
v 250.000000 60.774292 83.013016
v 250.000000 90.516212 83.013016
v 250.000000 120.258133 83.013016
v 250.000000 150.000061 83.013016
v 250.000000 179.741989 83.013016
v 250.000000 209.483887 83.013016
v 250.000000 239.225815 83.013016
v 0.000031 60.774292 83.013016
v 0.000031 90.516212 83.013016
v 0.000031 120.258133 83.013016
v 0.000031 150.000061 83.013016
v 0.000031 179.741989 83.013016
v 0.000031 209.483887 83.013016
v 0.000031 239.225815 83.013016
v 0.000031 36.872925 96.613022
v 250.000000 36.872925 96.613022
v 250.000000 54.933739 96.613022
v 0.000031 54.933739 96.613022
v 250.000000 245.066376 96.613022
v 0.000031 245.066376 96.613022
v 250.000000 263.127167 96.613022
v 0.000031 263.127167 96.613022
v 250.000000 215.324463 96.613022
v 0.000031 215.324463 96.613022
v 250.000000 233.385269 96.613022
v 0.000031 233.385269 96.613022
v 250.000000 185.582535 96.613022
v 0.000031 185.582535 96.613022
v 250.000000 203.643341 96.613022
v 0.000031 203.643341 96.613022
v 250.000000 155.840637 96.613022
v 0.000031 155.840637 96.613022
v 250.000000 173.901443 96.613022
v 0.000031 173.901443 96.613022
v 250.000000 126.098694 96.613022
v 0.000031 126.098694 96.613022
v 250.000000 144.159515 96.613022
v 0.000031 144.159515 96.613022
v 250.000000 96.356773 96.613022
v 0.000031 96.356773 96.613022
v 250.000000 114.417587 96.613022
v 0.000031 114.417587 96.613022
v 250.000000 66.614853 96.613022
v 0.000031 66.614853 96.613022
v 250.000000 84.675667 96.613022
v 0.000031 84.675667 96.613022
vt 0.358838 0.473288
vt 0.358189 0.472872
vt 0.358187 0.472830
vt 0.358840 0.473222
vt 0.358861 0.472468
vt 0.358167 0.472362
vt 0.358165 0.472315
vt 0.358863 0.472390
vt 0.358857 0.472595
vt 0.358170 0.472438
vt 0.358168 0.472392
vt 0.358859 0.472518
vt 0.358854 0.472718
vt 0.358174 0.472513
vt 0.358172 0.472468
vt 0.358856 0.472643
vt 0.358851 0.472837
vt 0.358177 0.472587
vt 0.358175 0.472543
vt 0.358853 0.472765
vt 0.358848 0.472954
vt 0.358180 0.472660
vt 0.358178 0.472616
vt 0.358850 0.472884
vt 0.358844 0.473068
vt 0.358183 0.472732
vt 0.358181 0.472689
vt 0.358846 0.472999
vt 0.358841 0.473179
vt 0.358186 0.472803
vt 0.358184 0.472760
vt 0.358843 0.473112
vt 0.358882 0.473299
vt 0.358221 0.472882
vt 0.358218 0.472813
vt 0.358885 0.473192
vt 0.358908 0.472491
vt 0.358200 0.472376
vt 0.358197 0.472299
vt 0.358912 0.472363
vt 0.358904 0.472615
vt 0.358203 0.472452
vt 0.358900 0.472736
vt 0.358206 0.472526
vt 0.358896 0.472855
vt 0.358209 0.472600
vt 0.358893 0.472970
vt 0.358212 0.472672
vt 0.358889 0.473082
vt 0.358215 0.472743
vn 0.000000 0.000000 1.000000
vn 0.000000 0.000000 1.000000
vn 0.000000 0.000000 1.000000
vn 0.000000 0.000000 1.000000
vn 0.000000 0.000000 1.000000
vn 0.000000 0.000000 1.000000
vn 0.000000 0.000000 1.000000
vn 0.000000 0.000000 1.000000
vn 0.000000 0.000000 1.000000
vn 0.000000 0.000000 1.000000
vn 0.000000 0.000000 1.000000
vn 0.000000 0.000000 1.000000
vn 0.000000 0.000000 1.000000
vn 0.000000 0.000000 1.000000
vn 0.000000 0.000000 1.000000
vn 0.000000 0.000000 1.000000
vn 0.000000 0.000000 1.000000
vn 0.000000 0.000000 1.000000
vn 0.000000 0.000000 1.000000
vn 0.000000 0.000000 1.000000
vn 0.000000 0.000000 1.000000
vn 0.000000 0.000000 1.000000
vn 0.000000 0.000000 1.000000
vn 0.000000 0.000000 1.000000
vn 0.000000 0.000000 1.000000
vn 0.000000 0.000000 1.000000
vn 0.000000 0.000000 1.000000
vn 0.000000 0.000000 1.000000
vn 0.000000 0.000000 1.000000
vn 0.000000 0.000000 1.000000
vn 0.000000 0.000000 1.000000
vn 0.000000 0.000000 1.000000
vn 0.000000 -0.918852 0.394603
vn 0.000000 -0.918852 0.394603
vn 0.000000 -0.918852 0.394603
vn 0.000000 -0.918852 0.394603
vn 0.000000 0.918852 0.394603
vn 0.000000 0.918852 0.394603
vn 0.000000 0.918852 0.394603
vn 0.000000 0.918852 0.394603
vn 0.000000 -0.918852 0.394603
vn 0.000000 -0.918852 0.394603
vn 0.000000 -0.918852 0.394603
vn 0.000000 -0.918852 0.394603
vn 0.000000 0.918851 0.394604
vn 0.000000 0.918851 0.394604
vn 0.000000 0.918851 0.394604
vn 0.000000 0.918851 0.394604
vn 0.000000 -0.918851 0.394604
vn 0.000000 -0.918851 0.394604
vn 0.000000 -0.918851 0.394604
vn 0.000000 -0.918851 0.394604
vn 0.000000 0.918852 0.394603
vn 0.000000 0.918852 0.394603
vn 0.000000 0.918852 0.394603
vn 0.000000 0.918852 0.394603
vn 0.000000 -0.918852 0.394603
vn 0.000000 -0.918852 0.394603
vn 0.000000 -0.918852 0.394603
vn 0.000000 -0.918852 0.394603
vn 0.000000 0.918852 0.394603
vn 0.000000 0.918852 0.394603
vn 0.000000 0.918852 0.394603
vn 0.000000 0.918852 0.394603
vn 0.000000 -0.918851 0.394604
vn 0.000000 -0.918851 0.394604
vn 0.000000 -0.918851 0.394604
vn 0.000000 -0.918851 0.394604
vn 0.000000 0.918852 0.394603
vn 0.000000 0.918852 0.394603
vn 0.000000 0.918852 0.394603
vn 0.000000 0.918852 0.394603
vn 0.000000 -0.918852 0.394603
vn 0.000000 -0.918852 0.394603
vn 0.000000 -0.918852 0.394603
vn 0.000000 -0.918852 0.394603
vn 0.000000 0.918852 0.394603
vn 0.000000 0.918852 0.394603
vn 0.000000 0.918852 0.394603
vn 0.000000 0.918852 0.394603
vn 0.000000 -0.918852 0.394603
vn 0.000000 -0.918852 0.394603
vn 0.000000 -0.918852 0.394603
vn 0.000000 -0.918852 0.394603
vn 0.000000 0.918852 0.394603
vn 0.000000 0.918852 0.394603
vn 0.000000 0.918852 0.394603
vn 0.000000 0.918852 0.394603
vn 0.000000 -0.918852 0.394603
vn 0.000000 -0.918852 0.394603
vn 0.000000 -0.918852 0.394603
vn 0.000000 -0.918852 0.394603
vn 0.000000 0.918852 0.394603
vn 0.000000 0.918852 0.394603
vn 0.000000 0.918852 0.394603
vn 0.000000 0.918852 0.394603
s off
f 19/1/1 20/2/2 21/3/3 22/4/4
f 24/5/5 23/6/6 25/7/7 26/8/8
f 28/9/9 27/10/10 29/11/11 30/12/12
f 32/13/13 31/14/14 33/15/15 34/16/16
f 36/17/17 35/18/18 37/19/19 38/20/20
f 40/21/21 39/22/22 41/23/23 42/24/24
f 44/25/25 43/26/26 45/27/27 46/28/28
f 48/29/29 47/30/30 49/31/31 50/32/32
f 3/33/33 4/34/34 20/2/35 19/1/36
f 5/35/37 12/36/38 22/4/39 21/3/40
f 18/37/41 11/38/42 23/6/43 24/5/44
f 2/39/45 1/40/46 26/8/47 25/7/48
f 17/41/49 10/42/50 27/10/51 28/9/52
f 11/38/53 18/37/54 30/12/55 29/11/56
f 16/43/57 9/44/58 31/14/59 32/13/60
f 10/42/61 17/41/62 34/16/63 33/15/64
f 15/45/65 8/46/66 35/18/67 36/17/68
f 9/44/69 16/43/70 38/20/71 37/19/72
f 14/47/73 7/48/74 39/22/75 40/21/76
f 8/46/77 15/45/78 42/24/79 41/23/80
f 13/49/81 6/50/82 43/26/83 44/25/84
f 7/48/85 14/47/86 46/28/87 45/27/88
f 12/36/89 5/35/90 47/30/91 48/29/92
f 6/50/93 13/49/94 50/32/95 49/31/96
