# This file uses centimeters as units for non-parametric coordinates.

v 67.156372 107.211411 17.040771
v 67.156372 107.211411 10.167480
v 182.843903 107.211411 17.040771
v 182.843903 107.211411 10.167480
v 67.156372 234.655731 17.040771
v 67.156372 234.655731 10.167480
v 182.843903 234.655731 17.040771
v 182.843903 234.655731 10.167480
v 76.625977 156.395203 10.167480
v 76.625977 114.009293 10.167480
v 173.374298 156.395203 10.167480
v 173.374298 165.413284 10.167480
v 76.625977 165.337067 10.167480
v 173.374298 114.009293 10.167480
v 76.625977 227.857971 10.167480
v 173.374298 227.857971 10.167480
v 76.625977 156.395203 0.000000
v 76.625977 114.009293 0.000000
v 173.374298 156.395203 0.000000
v 173.374298 165.413284 0.000000
v 76.625977 165.337067 0.000000
v 173.374298 114.009293 0.000000
v 76.625977 227.857971 0.000000
v 173.374298 227.857971 0.000000
v 67.156372 224.909882 17.040771
v 67.156372 201.384232 17.040771
v 65.374542 216.568359 17.040771
v 67.156372 217.237747 15.956421
v 182.843903 116.236664 17.040771
v 182.843903 143.412231 17.040771
v 185.586823 133.733078 17.040771
v 182.843903 133.118820 12.002563
v 160.437683 164.975113 10.167480
v 132.989288 164.949997 10.167480
v 147.106293 164.964630 4.952515
v 147.798584 163.128342 10.167480
v 87.537628 228.159058 10.167480
v 116.760834 228.159058 10.167480
v 100.254272 230.054138 10.167480
v 99.713898 228.159058 8.967773
v 76.625977 121.576180 10.167603
v 76.625977 143.581253 10.167603
v 76.254639 131.074600 9.126831
v 74.020447 131.771912 10.167480
v 62.500122 102.560059 17.040771
v 187.500153 102.560059 17.040771
v 62.500122 239.307205 17.040771
v 187.500153 239.307205 17.040771
v 188.879486 101.051064 14.999878
v 61.120758 101.051064 14.999878
v 61.120758 240.816193 14.999878
v 188.879486 240.816193 14.999878
v 0.000000 0.000000 14.999878
v 0.000000 299.700073 14.999878
v 0.000000 299.700073 0.000000
v 0.000000 0.000000 0.000000
v 249.999268 299.700073 14.999878
v 249.999268 -0.000000 14.999878
v 249.999268 0.000000 0.000000
v 249.999268 299.700073 0.000000
v 62.500031 102.560234 14.999878
v 187.500031 102.560234 14.999878
v 62.500000 239.307251 14.999878
v 187.500031 239.307251 14.999878
vt 0.102317 0.229411
vt 0.102331 0.229426
vt 0.101606 0.229567
vt 0.101597 0.229550
vt 0.102317 0.228626
vt 0.102324 0.228729
vt 0.101589 0.229405
vt 0.101519 0.228710
vt 0.102333 0.228635
vt 0.101528 0.228721
vt 0.102355 0.229445
vt 0.101575 0.229599
vt 0.102339 0.228734
vt 0.102360 0.228599
vt 0.101488 0.228689
vt 0.101570 0.229401
vt 0.102815 0.253173
vt 0.102815 0.253173
vt 0.102815 0.253173
vt 0.102815 0.253173
vt 0.102815 0.253173
vt 0.102815 0.253173
vt 0.102815 0.253173
vt 0.102815 0.253173
vt 0.102815 0.253173
vt 0.102815 0.253173
vt 0.102815 0.253173
vt 0.102815 0.253173
vt 0.102815 0.253173
vt 0.102815 0.253173
vt 0.102815 0.253173
vt 0.102815 0.253173
vt 0.102815 0.253173
vt 0.102815 0.253173
vt 0.102815 0.253173
vt 0.102815 0.253173
vt 0.102815 0.253173
vt 0.102815 0.253173
vt 0.102815 0.253173
vt 0.102815 0.253173
vt 0.102815 0.253173
vt 0.102815 0.253173
vt 0.102815 0.253173
vt 0.102815 0.253173
vt 0.102332 0.228793
vt 0.102333 0.228695
vt 0.101587 0.229364
vt 0.101598 0.229481
vt 0.102815 0.253173
vt 0.102815 0.253173
vt 0.102815 0.253173
vt 0.102815 0.253173
vt 0.102202 0.229944
vt 0.102498 0.229409
vt 0.102509 0.229412
vt 0.102206 0.229945
vt 0.102442 0.228945
vt 0.102446 0.228946
vt 0.102286 0.229437
vt 0.102289 0.229438
vt 0.001595 0.752547
vt 0.001595 0.752547
vt 0.001595 0.752547
vt 0.001595 0.752547
vt 0.023772 0.752547
vt 0.023772 0.752547
vt 0.023772 0.752547
vt 0.023772 0.752547
vt 0.022824 0.752547
vt 0.022824 0.752547
vt 0.022824 0.752547
vt 0.022824 0.752547
vt 0.001595 0.752547
vt 0.248737 0.752547
vt 0.186129 0.836746
vt 0.063594 0.836746
vt 0.248737 0.997796
vt 0.186129 0.948324
vt 0.001595 0.997796
vt 0.063594 0.948324
vt 0.001595 0.752547
vt 0.001595 0.752547
vt 0.001595 0.752547
vt 0.001595 0.752547
vn 0.000000 1.000000 0.000000
vn 0.000000 1.000000 0.000000
vn 0.000000 1.000000 0.000000
vn 0.000000 1.000000 0.000000
vn 1.000000 0.000000 0.000000
vn 1.000000 0.000000 0.000000
vn 1.000000 0.000000 0.000000
vn -1.000000 0.000000 0.000000
vn -1.000000 0.000000 0.000000
vn -1.000000 0.000000 0.000000
vn 0.000000 -1.000000 0.000000
vn 0.000000 -1.000000 0.000000
vn 0.000000 -1.000000 0.000000
vn 0.000000 -1.000000 0.000000
vn 0.000000 0.000000 1.000000
vn 0.000000 0.000000 1.000000
vn 0.000000 0.000000 1.000000
vn 0.000000 0.000000 1.000000
vn 0.000000 0.000000 1.000000
vn 0.000000 0.000000 1.000000
vn 0.000000 0.000000 1.000000
vn 0.000000 0.000000 1.000000
vn 0.000000 0.000000 1.000000
vn 0.000000 0.000000 1.000000
vn 0.000000 0.000000 1.000000
vn 0.000000 0.000000 1.000000
vn 0.000000 0.000000 1.000000
vn 0.000000 0.000000 1.000000
vn 0.000000 0.000000 1.000000
vn 0.000000 0.000000 1.000000
vn 0.000000 0.000000 1.000000
vn 0.000000 0.000000 1.000000
vn 0.000000 0.000000 1.000000
vn 0.000000 0.000000 1.000000
vn 0.000000 0.000000 1.000000
vn 0.000000 0.000000 1.000000
vn 0.000000 0.000000 1.000000
vn 0.000000 0.000000 1.000000
vn 0.000000 0.000000 1.000000
vn 0.000000 0.000000 1.000000
vn 0.000000 0.000000 1.000000
vn 0.000000 0.000000 1.000000
vn 0.000000 0.000000 1.000000
vn 0.000000 0.000000 1.000000
vn 0.000000 0.000000 1.000000
vn 0.000000 0.000000 1.000000
vn 0.000000 0.000000 1.000000
vn -1.000000 0.000000 0.000000
vn -1.000000 0.000000 0.000000
vn -1.000000 0.000000 0.000000
vn -1.000000 0.000000 0.000000
vn 0.000000 1.000000 0.000000
vn 0.000000 1.000000 0.000000
vn 0.000000 1.000000 0.000000
vn 0.000000 1.000000 0.000000
vn 0.999664 0.020808 -0.015486
vn 0.999664 0.020808 -0.015486
vn 0.999664 0.020808 -0.015486
vn 0.999664 0.020808 -0.015486
vn 0.000000 -1.000000 0.000000
vn 0.000000 -1.000000 0.000000
vn 0.000000 -1.000000 0.000000
vn 0.000000 -1.000000 0.000000
vn 0.013807 -0.999795 0.014789
vn 0.013807 -0.999795 0.014789
vn 0.013807 -0.999795 0.014789
vn 0.013807 -0.999795 0.014789
vn -1.000000 0.000000 0.000000
vn -1.000000 0.000000 0.000000
vn -1.000000 0.000000 0.000000
vn -1.000000 0.000000 0.000000
vn -0.000785 0.996287 0.086096
vn -0.000785 0.996287 0.086096
vn -0.000785 0.996287 0.086096
vn 1.000000 0.000000 0.000000
vn 1.000000 0.000000 0.000000
vn 1.000000 0.000000 0.000000
vn 1.000000 0.000000 0.000000
vn 0.502692 0.058990 0.862451
vn 0.502691 0.058990 0.862451
vn 0.502691 0.058990 0.862451
vn 0.548011 -0.117060 0.828240
vn 0.548011 -0.117060 0.828240
vn 0.548011 -0.117060 0.828240
vn -0.840509 -0.238186 0.486634
vn -0.840509 -0.238186 0.486634
vn -0.840509 -0.238186 0.486634
vn -0.876880 0.137468 0.460634
vn -0.876880 0.137468 0.460634
vn -0.876880 0.137468 0.460634
vn 0.115824 0.941602 0.316181
vn 0.115824 0.941602 0.316181
vn 0.115824 0.941602 0.316181
vn -0.135701 0.928726 0.345040
vn -0.135701 0.928726 0.345040
vn -0.135701 0.928726 0.345040
vn 0.081913 -0.549667 0.831358
vn 0.081913 -0.549667 0.831358
vn 0.081913 -0.549667 0.831358
vn -0.059893 -0.521678 0.851038
vn -0.059893 -0.521678 0.851038
vn -0.059893 -0.521678 0.851038
vn 0.397946 -0.087809 0.913197
vn 0.397946 -0.087809 0.913197
vn 0.397946 -0.087809 0.913197
vn 0.448625 0.114657 0.886335
vn 0.448626 0.114657 0.886335
vn 0.448625 0.114657 0.886335
vn 0.999749 -0.013940 -0.017568
vn 0.999749 -0.013940 -0.017568
vn 0.999749 -0.013940 -0.017568
vn 0.999749 -0.013940 -0.017568
vn 0.999173 0.000000 0.040653
vn 0.999173 0.000000 0.040653
vn 0.999173 0.000000 0.040653
vn -0.000011 -0.000002 1.000000
vn -0.000011 -0.000002 1.000000
vn -0.000011 -0.000002 1.000000
vn -0.000011 -0.000002 1.000000
vn -0.000003 0.000000 1.000000
vn -0.000003 0.000000 1.000000
vn -0.000003 0.000000 1.000000
vn -0.000003 0.000000 1.000000
vn -0.000003 0.000000 1.000000
vn -0.000003 0.000000 1.000000
vn 1.000000 0.000000 0.000000
vn 1.000000 0.000000 0.000000
vn 1.000000 0.000000 0.000000
vn 1.000000 0.000000 0.000000
vn 1.000000 0.000000 0.000000
vn 1.000000 0.000000 0.000000
vn 1.000000 0.000000 0.000000
vn 1.000000 0.000000 0.000000
vn 0.000000 0.000000 1.000000
vn 0.000000 0.000000 1.000000
vn 0.000000 0.000000 1.000000
vn 0.000000 0.000000 1.000000
vn 0.000000 0.000000 1.000000
vn 0.000000 0.000000 1.000000
vn 0.000000 0.000000 1.000000
vn 0.000000 0.000000 1.000000
vn 0.000000 0.000000 1.000000
vn 0.000000 0.000000 1.000000
vn 0.000000 0.000000 1.000000
vn 0.000000 0.000000 1.000000
vn 0.000000 0.000000 1.000000
vn 0.000000 0.000000 1.000000
vn 0.000000 0.000000 1.000000
vn 0.000000 0.000000 1.000000
vn -0.004190 -0.999972 0.006280
vn -0.004190 -0.999972 0.006280
vn -0.004190 -0.999972 0.006280
vn -0.004190 -0.999972 0.006280
vn 0.000000 -0.999437 0.033556
vn 0.000000 -0.999437 0.033556
vn 0.000000 -0.999437 0.033556
vn 0.005745 0.999964 0.006223
vn 0.005745 0.999964 0.006223
vn 0.005745 0.999964 0.006223
vn 0.005745 0.999964 0.006223
vn -0.020459 0.999645 0.017050
vn -0.020459 0.999645 0.017050
vn -0.020459 0.999645 0.017050
vn -0.020459 0.999645 0.017050
vn 0.000000 0.000000 1.000000
vn 0.000000 0.000000 1.000000
vn 0.000000 0.000000 1.000000
vn 0.000000 0.000000 1.000000
vn 0.000000 0.000000 1.000000
vn 0.000000 0.000000 1.000000
vn 0.000000 0.000000 1.000000
vn 0.000000 0.000000 1.000000
vn -1.000000 0.000000 0.000000
vn -1.000000 0.000000 0.000000
vn -1.000000 0.000000 0.000000
vn -1.000000 0.000000 0.000000
vn -1.000000 0.000000 0.000000
vn -1.000000 0.000000 0.000000
vn -1.000000 0.000000 0.000000
vn -1.000000 0.000000 0.000000
vn -0.000000 0.000000 1.000000
vn -0.000000 0.000000 1.000000
vn -0.000000 0.000000 1.000000
vn -0.000000 0.000000 1.000000
vn 0.000000 0.000000 1.000000
vn 0.000000 0.000000 1.000000
vn 0.000000 0.000000 1.000000
vn 0.000000 0.000000 1.000000
vn 0.000000 -0.804080 0.594521
vn 0.000000 -0.804080 0.594521
vn 0.000000 -0.804080 0.594521
vn 0.000000 -0.804080 0.594521
vn -0.828517 0.000000 0.559964
vn -0.828517 0.000000 0.559964
vn -0.828517 0.000000 0.559964
vn -0.828517 0.000000 0.559964
vn 0.828523 0.000000 0.559956
vn 0.828523 0.000000 0.559956
vn 0.828523 0.000000 0.559956
vn 0.828523 0.000000 0.559956
vn 0.000000 0.804081 0.594520
vn 0.000000 0.804081 0.594520
vn 0.000000 0.804081 0.594520
vn 0.000000 0.804081 0.594520
vn -1.000000 0.000000 0.000000
vn -1.000000 0.000000 0.000000
vn -1.000000 0.000000 0.000000
vn -1.000000 0.000000 0.000000
vn 0.000000 1.000000 0.000000
vn 0.000000 1.000000 0.000000
vn 0.000000 1.000000 0.000000
vn 0.000000 1.000000 0.000000
vn -0.000000 -1.000000 -0.000000
vn -0.000000 -1.000000 -0.000000
vn -0.000000 -1.000000 -0.000000
vn -0.000000 -1.000000 -0.000000
vn 0.000000 0.000000 1.000000
vn 0.000000 0.000000 1.000000
vn 0.000000 0.000000 1.000000
vn 0.000000 0.000000 1.000000
vn 0.000000 0.000000 1.000000
vn 0.000000 0.000000 1.000000
vn 0.000000 0.000000 1.000000
vn 0.000000 0.000000 1.000000
vn 0.000000 0.000000 1.000000
vn 0.000000 0.000000 1.000000
vn 0.000000 0.000000 1.000000
vn 0.000000 0.000000 1.000000
vn -0.000000 0.000000 1.000000
vn -0.000000 0.000000 1.000000
vn -0.000000 0.000000 1.000000
vn -0.000000 0.000000 1.000000
vn 1.000000 0.000000 0.000000
vn 1.000000 0.000000 0.000000
vn 1.000000 0.000000 0.000000
vn 1.000000 0.000000 0.000000
s off
f 2/1/1 1/2/2 3/3/3 4/4/4
f 6/5/5 28/6/6 2/1/7
f 32/7/8 8/8/9 4/4/10
f 5/9/11 6/5/12 8/8/13 7/10/14
f 3/3/15 1/2/16 45/11/17 46/12/18
f 45/11/19 27/13/20 47/14/21
f 46/12/22 48/15/23 31/16/24
f 48/15/25 47/14/26 5/9/27 7/10/28
f 6/17/29 2/18/30 44/19/31
f 10/20/32 2/18/33 4/21/34 14/22/35
f 12/23/36 11/24/37 14/22/38 4/21/39 8/25/40 16/26/41
f 6/17/42 39/27/43 8/25/44
f 11/24/45 36/28/46 9/29/47
f 14/22/48 11/24/49 19/30/50 22/31/51
f 10/20/52 14/22/53 22/31/54 18/32/55
f 18/32/56 43/33/57 41/34/58 10/20/59
f 19/30/60 11/24/61 9/29/62 17/35/63
f 23/36/64 40/37/65 37/38/66 15/39/67
f 12/23/68 16/26/69 24/40/70 20/41/71
f 21/42/72 35/43/73 20/41/74
f 15/39/75 13/44/76 21/42/77 23/36/78
f 26/45/79 28/6/80 27/13/81
f 27/13/82 28/6/83 25/46/84
f 32/7/85 31/16/86 30/47/87
f 29/48/88 31/16/89 32/7/90
f 36/28/91 35/43/92 34/49/93
f 33/50/94 35/43/95 36/28/96
f 37/38/97 40/37/98 39/27/99
f 39/27/100 40/37/101 38/51/102
f 44/19/103 43/33/104 42/52/105
f 41/34/106 43/33/107 44/19/108
f 9/29/109 42/52/110 43/33/111 17/35/112
f 17/35/113 43/33/114 18/32/115
f 44/19/116 2/18/117 10/20/118 41/34/119
f 6/17/120 44/19/121 42/52/122 9/29/123 13/44/124 15/39/125
f 6/5/126 5/9/127 25/46/128 28/6/129
f 2/1/130 28/6/131 26/45/132 1/2/133
f 1/2/134 26/45/135 27/13/136 45/11/137
f 47/14/138 27/13/139 25/46/140 5/9/141
f 6/17/142 15/39/143 37/38/144 39/27/145
f 8/25/146 39/27/147 38/51/148 16/26/149
f 40/37/150 24/40/151 16/26/152 38/51/153
f 23/36/154 24/40/155 40/37/156
f 13/44/157 34/49/158 35/43/159 21/42/160
f 20/41/161 35/43/162 33/50/163 12/23/164
f 12/23/165 33/50/166 36/28/167 11/24/168
f 9/29/169 36/28/170 34/49/171 13/44/172
f 32/7/173 4/4/174 3/3/175 29/48/176
f 7/10/177 8/8/178 32/7/179 30/47/180
f 31/16/181 48/15/182 7/10/183 30/47/184
f 46/12/185 31/16/186 29/48/187 3/3/188
f 46/53/189 45/54/190 50/55/191 49/56/192
f 45/54/193 47/57/194 51/58/195 50/55/196
f 48/59/197 46/53/198 49/56/199 52/60/200
f 47/57/201 48/59/202 52/60/203 51/58/204
f 55/61/205 56/62/206 53/63/207 54/64/208
f 55/65/209 54/66/210 57/67/211 60/68/212
f 53/69/213 56/70/214 59/71/215 58/72/216
f 53/73/217 58/74/218 62/75/219 61/76/220
f 58/74/221 57/77/222 64/78/223 62/75/224
f 57/77/225 54/79/226 63/80/227 64/78/228
f 54/79/229 53/73/230 61/76/231 63/80/232
f 58/81/233 59/82/234 60/83/235 57/84/236
v 76.625977 227.857971 2.033569
v 76.625977 113.971245 2.033569
v 173.374298 114.047348 2.033569
v 173.374298 227.857971 2.033569
vt 0.050561 0.180885
vt 0.050562 0.181381
vt 0.049569 0.181374
vt 0.049563 0.180879
vn 0.000000 0.000000 1.000000
vn 0.000000 0.000000 1.000000
vn 0.000000 0.000000 1.000000
vn 0.000000 0.000000 1.000000
s off
f 65/85/237 66/86/238 67/87/239 68/88/240
