# This file uses centimeters as units for non-parametric coordinates.

v -18.549313 19.398438 18.549263
v 18.549213 19.398438 18.549263
v -18.549313 300.000092 18.549263
v 18.549213 300.000092 18.549263
v -18.549313 300.000092 -18.549263
v 18.549213 300.000092 -18.549263
v -18.549313 19.398438 -18.549263
v 18.549213 19.398438 -18.549263
v -19.559414 21.685183 19.559364
v 19.559437 21.685183 19.559364
v 19.559437 21.685183 -19.559608
v -19.559414 21.685183 -19.559608
v 19.559437 297.713379 19.559364
v -19.559414 297.713379 19.559364
v -19.559414 297.713379 -19.559608
v 19.559437 297.713379 -19.559608
v -21.410074 13.978336 -21.410145
v 21.410097 13.978336 -21.410145
v 21.410097 13.978336 21.410023
v -21.410074 13.978336 21.410023
v -21.410074 -0.000001 -21.410145
v 21.410097 -0.000001 -21.410145
v 21.410097 -0.000001 21.410023
v -21.410074 -0.000001 21.410023
v -0.000050 300.654175 0.000000
vt 0.063069 0.152346
vt 0.063069 0.152346
vt 0.063069 0.152346
vt 0.063069 0.152346
vt 0.063069 0.152346
vt 0.063069 0.152346
vt 0.063069 0.152346
vt 0.063069 0.152346
vt 0.063069 0.152346
vt 0.063069 0.152346
vt 0.063069 0.152346
vt 0.063069 0.152346
vt 0.063069 0.152346
vt 0.063069 0.152346
vt 0.063069 0.152346
vt 0.063069 0.152346
vt 0.063069 0.152346
vt 0.063069 0.152346
vt 0.063069 0.152346
vt 0.063069 0.152346
vt 0.063069 0.152346
vt 0.063069 0.152346
vt 0.063069 0.152346
vt 0.063069 0.152346
vt 0.063069 0.152346
vt 0.063069 0.152346
vt 0.063069 0.152346
vt 0.063069 0.152346
vt 0.063069 0.152346
vt 0.063069 0.152346
vt 0.063069 0.152346
vt 0.063069 0.152346
vt 0.063069 0.152346
vt 0.063069 0.152346
vt 0.063069 0.152346
vn 0.000000 0.999379 -0.035240
vn 0.000000 0.999379 -0.035240
vn 0.000000 0.999379 -0.035240
vn 0.000000 -1.000000 0.000000
vn 0.000000 -1.000000 0.000000
vn 0.000000 -1.000000 0.000000
vn 0.000000 -1.000000 0.000000
vn 0.000000 0.000000 1.000000
vn 0.000000 0.000000 1.000000
vn 0.000000 0.000000 1.000000
vn 0.000000 0.000000 1.000000
vn 1.000000 0.000000 0.000000
vn 1.000000 0.000000 0.000000
vn 1.000000 0.000000 0.000000
vn 1.000000 0.000000 0.000000
vn 0.000000 0.000000 -1.000000
vn 0.000000 0.000000 -1.000000
vn 0.000000 0.000000 -1.000000
vn 0.000000 0.000000 -1.000000
vn -1.000000 0.000000 0.000000
vn -1.000000 0.000000 0.000000
vn -1.000000 0.000000 0.000000
vn -1.000000 0.000000 0.000000
vn 0.000000 -0.404056 0.914734
vn 0.000000 -0.404056 0.914734
vn 0.000000 -0.404056 0.914734
vn 0.000000 -0.404056 0.914734
vn 0.914716 -0.404097 0.000000
vn 0.914716 -0.404097 0.000000
vn 0.914716 -0.404097 0.000000
vn 0.914716 -0.404097 0.000000
vn 0.000000 -0.404138 -0.914698
vn 0.000000 -0.404138 -0.914698
vn 0.000000 -0.404138 -0.914698
vn 0.000000 -0.404138 -0.914698
vn -0.914734 -0.404056 0.000000
vn -0.914734 -0.404056 0.000000
vn -0.914734 -0.404056 0.000000
vn -0.914734 -0.404056 0.000000
vn 0.000000 0.404058 0.914733
vn 0.000000 0.404058 0.914733
vn 0.000000 0.404058 0.914733
vn 0.000000 0.404058 0.914733
vn 0.000000 0.404141 -0.914697
vn 0.000000 0.404141 -0.914697
vn 0.000000 0.404141 -0.914697
vn 0.000000 0.404141 -0.914697
vn 0.914714 0.404102 0.000000
vn 0.914714 0.404102 0.000000
vn 0.914714 0.404102 0.000000
vn 0.914714 0.404102 0.000000
vn -0.914732 0.404061 0.000000
vn -0.914732 0.404061 0.000000
vn -0.914732 0.404061 0.000000
vn -0.914732 0.404061 0.000000
vn 0.000000 0.466793 -0.884366
vn 0.000000 0.466793 -0.884366
vn 0.000000 0.466793 -0.884366
vn 0.000000 0.466793 -0.884366
vn 0.884366 0.466794 0.000000
vn 0.884366 0.466794 0.000000
vn 0.884366 0.466794 0.000000
vn 0.884366 0.466794 0.000000
vn 0.000000 0.466778 0.884375
vn 0.000000 0.466778 0.884375
vn 0.000000 0.466778 0.884375
vn 0.000000 0.466778 0.884375
vn -0.884374 0.466778 0.000000
vn -0.884374 0.466778 0.000000
vn -0.884375 0.466778 0.000000
vn -0.884375 0.466778 0.000000
vn 0.000000 0.000000 -1.000000
vn 0.000000 0.000000 -1.000000
vn 0.000000 0.000000 -1.000000
vn 0.000000 0.000000 -1.000000
vn 1.000000 0.000000 0.000000
vn 1.000000 0.000000 0.000000
vn 1.000000 0.000000 0.000000
vn 1.000000 0.000000 0.000000
vn 0.000000 0.000000 1.000000
vn 0.000000 0.000000 1.000000
vn 0.000000 0.000000 1.000000
vn 0.000000 0.000000 1.000000
vn -1.000000 0.000000 0.000000
vn -1.000000 0.000000 0.000000
vn -1.000000 0.000000 0.000000
vn -1.000000 0.000000 0.000000
vn 0.035240 0.999379 0.000000
vn 0.035240 0.999379 0.000000
vn 0.035240 0.999379 0.000000
vn -0.035240 0.999379 0.000000
vn -0.035240 0.999379 0.000000
vn -0.035240 0.999379 0.000000
vn 0.000000 0.999379 0.035240
vn 0.000000 0.999379 0.035240
vn 0.000000 0.999379 0.035240
s off
f 5/5/1 25/35/2 6/6/3
f 21/31/4 22/32/5 23/33/6 24/34/7
f 9/15/8 10/16/9 13/21/10 14/22/11
f 10/16/12 11/17/13 16/25/14 13/21/15
f 11/18/16 12/19/17 15/23/18 16/24/19
f 12/20/20 9/15/21 14/22/22 15/26/23
f 1/1/24 2/2/25 10/16/26 9/15/27
f 2/2/28 8/11/29 11/17/30 10/16/31
f 8/8/32 7/7/33 12/19/34 11/18/35
f 7/13/36 1/1/37 9/15/38 12/20/39
f 4/4/40 3/3/41 14/22/42 13/21/43
f 5/5/44 6/6/45 16/24/46 15/23/47
f 6/12/48 4/4/49 13/21/50 16/25/51
f 3/3/52 5/14/53 15/26/54 14/22/55
f 7/7/56 8/8/57 18/28/58 17/27/59
f 8/8/60 2/10/61 19/29/62 18/28/63
f 2/10/64 1/9/65 20/30/66 19/29/67
f 1/9/68 7/7/69 17/27/70 20/30/71
f 17/27/72 18/28/73 22/32/74 21/31/75
f 18/28/76 19/29/77 23/33/78 22/32/79
f 19/29/80 20/30/81 24/34/82 23/33/83
f 20/30/84 17/27/85 21/31/86 24/34/87
f 25/35/88 4/4/89 6/6/90
f 3/3/91 25/35/92 5/5/93
f 3/3/94 4/4/95 25/35/96
