# This file uses centimeters as units for non-parametric coordinates.

v 10.400000 0.457489 41.451660
v 489.600128 0.457489 41.451660
v 10.400000 4.951202 44.046112
v 489.600128 4.951202 44.046112
v 10.400000 9.541687 36.095139
v 489.600128 9.541687 36.095139
v 10.400000 5.047974 33.500687
v 489.600128 5.047974 33.500687
v 10.400000 0.457489 57.346924
v 489.600128 0.457489 57.346924
v 10.400000 4.951202 59.941376
v 489.600128 4.951202 59.941376
v 10.400000 9.541687 51.990402
v 489.600128 9.541687 51.990402
v 10.400000 5.047974 49.395950
v 489.600128 5.047974 49.395950
v 10.400000 0.457489 73.327393
v 489.600128 0.457489 73.327393
v 10.400000 4.951202 75.921844
v 489.600128 4.951202 75.921844
v 10.400000 9.541687 67.970871
v 489.600128 9.541687 67.970871
v 10.400000 5.047974 65.376419
v 489.600128 5.047974 65.376419
v 0.000000 -0.000397 91.993317
v 500.000122 -0.000397 91.993317
v 0.000000 9.999603 91.993317
v 500.000122 9.999603 91.993317
v 0.000000 9.999603 17.343994
v 500.000122 9.999603 17.343994
v 0.000000 -0.000397 17.343994
v 500.000122 -0.000397 17.343994
v 10.400000 9.999603 81.593323
v 489.600128 9.999603 81.593323
v 489.600128 9.999603 27.743988
v 10.400000 9.999603 27.743988
v 10.400000 -0.000397 27.743988
v 489.600128 -0.000397 27.743988
v 489.600128 -0.000397 81.593323
v 10.400000 -0.000397 81.593323
vt 0.102928 0.282291
vt 0.102075 0.281978
vt 0.102069 0.281972
vt 0.102926 0.282285
vt 0.102936 0.282266
vt 0.102080 0.281958
vt 0.102085 0.281964
vt 0.102938 0.282272
vt 0.102910 0.282311
vt 0.102051 0.281991
vt 0.102046 0.281985
vt 0.102908 0.282305
vt 0.102918 0.282286
vt 0.102056 0.281970
vt 0.102062 0.281976
vt 0.102920 0.282292
vt 0.102891 0.282332
vt 0.102027 0.282004
vt 0.102022 0.281998
vt 0.102889 0.282326
vt 0.102900 0.282306
vt 0.102032 0.281983
vt 0.102038 0.281989
vt 0.102902 0.282312
vt 0.102893 0.282367
vt 0.101984 0.282014
vt 0.101980 0.281996
vt 0.102895 0.282347
vt 0.102980 0.282251
vt 0.102092 0.281938
vt 0.102095 0.281955
vt 0.102978 0.282271
vt 0.102011 0.281993
vt 0.102883 0.282323
vt 0.102092 0.281951
vt 0.102946 0.282255
vt 0.102095 0.281968
vt 0.102943 0.282275
vt 0.102015 0.282011
vt 0.102881 0.282344
vn 0.000000 -0.500001 0.866025
vn 0.000000 -0.500001 0.866025
vn 0.000000 -0.500001 0.866025
vn 0.000000 -0.500001 0.866025
vn 0.000000 0.500001 -0.866025
vn 0.000000 0.500001 -0.866025
vn 0.000000 0.500001 -0.866025
vn 0.000000 0.500001 -0.866025
vn 1.000000 0.000003 0.000000
vn 1.000000 0.000003 0.000000
vn 1.000000 0.000003 0.000000
vn 1.000000 0.000003 0.000000
vn -1.000000 -0.000000 0.000000
vn -1.000000 -0.000000 0.000000
vn -1.000000 -0.000000 0.000000
vn -1.000000 -0.000000 0.000000
vn 0.000000 0.866026 0.499999
vn 0.000000 0.866026 0.499999
vn 0.000000 0.866026 0.499999
vn 0.000000 0.866026 0.499999
vn 0.000000 -0.866026 -0.499999
vn 0.000000 -0.866026 -0.499999
vn 0.000000 -0.866026 -0.499999
vn 0.000000 -0.866026 -0.499999
vn 0.000000 -0.500001 0.866025
vn 0.000000 -0.500001 0.866025
vn 0.000000 -0.500001 0.866025
vn 0.000000 -0.500001 0.866025
vn 0.000000 0.500001 -0.866025
vn 0.000000 0.500001 -0.866025
vn 0.000000 0.500001 -0.866025
vn 0.000000 0.500001 -0.866025
vn 1.000000 0.000003 0.000000
vn 1.000000 0.000003 0.000000
vn 1.000000 0.000003 0.000000
vn 1.000000 0.000003 0.000000
vn -1.000000 -0.000000 0.000000
vn -1.000000 -0.000000 0.000000
vn -1.000000 -0.000000 0.000000
vn -1.000000 -0.000000 0.000000
vn 0.000000 0.866026 0.499999
vn 0.000000 0.866026 0.499999
vn 0.000000 0.866026 0.499999
vn 0.000000 0.866026 0.499999
vn 0.000000 -0.866026 -0.499999
vn 0.000000 -0.866026 -0.499999
vn 0.000000 -0.866026 -0.499999
vn 0.000000 -0.866026 -0.499999
vn 0.000000 -0.500001 0.866025
vn 0.000000 -0.500001 0.866025
vn 0.000000 -0.500001 0.866025
vn 0.000000 -0.500001 0.866025
vn 0.000000 0.500001 -0.866025
vn 0.000000 0.500001 -0.866025
vn 0.000000 0.500001 -0.866025
vn 0.000000 0.500001 -0.866025
vn 1.000000 0.000003 0.000000
vn 1.000000 0.000003 0.000000
vn 1.000000 0.000003 0.000000
vn 1.000000 0.000003 0.000000
vn -1.000000 -0.000000 0.000000
vn -1.000000 -0.000000 0.000000
vn -1.000000 -0.000000 0.000000
vn -1.000000 -0.000000 0.000000
vn 0.000000 0.866026 0.499999
vn 0.000000 0.866026 0.499999
vn 0.000000 0.866026 0.499999
vn 0.000000 0.866026 0.499999
vn 0.000000 -0.866026 -0.499999
vn 0.000000 -0.866026 -0.499999
vn 0.000000 -0.866026 -0.499999
vn 0.000000 -0.866026 -0.499999
vn 0.000000 0.000000 1.000000
vn 0.000000 0.000000 1.000000
vn 0.000000 0.000000 1.000000
vn 0.000000 0.000000 1.000000
vn 0.000000 0.000000 -1.000000
vn 0.000000 0.000000 -1.000000
vn 0.000000 0.000000 -1.000000
vn 0.000000 0.000000 -1.000000
vn 1.000000 0.000000 0.000000
vn 1.000000 0.000000 0.000000
vn 1.000000 0.000000 0.000000
vn 1.000000 0.000000 0.000000
vn -1.000000 0.000000 0.000000
vn -1.000000 0.000000 0.000000
vn -1.000000 0.000000 0.000000
vn -1.000000 0.000000 0.000000
vn 0.000000 1.000000 -0.000000
vn 0.000000 1.000000 -0.000000
vn 0.000000 1.000000 -0.000000
vn 0.000000 1.000000 -0.000000
vn 0.000000 1.000000 -0.000000
vn 0.000000 1.000000 -0.000000
vn 0.000000 1.000000 -0.000000
vn 0.000000 1.000000 -0.000000
vn 0.000000 1.000000 -0.000000
vn 0.000000 1.000000 -0.000000
vn 0.000000 1.000000 -0.000000
vn 0.000000 1.000000 -0.000000
vn 0.000000 1.000000 -0.000000
vn 0.000000 1.000000 -0.000000
vn 0.000000 1.000000 -0.000000
vn 0.000000 1.000000 -0.000000
vn 0.000000 -1.000000 0.000000
vn 0.000000 -1.000000 0.000000
vn 0.000000 -1.000000 0.000000
vn 0.000000 -1.000000 0.000000
vn 0.000000 -1.000000 0.000000
vn 0.000000 -1.000000 0.000000
vn 0.000000 -1.000000 0.000000
vn 0.000000 -1.000000 0.000000
vn 0.000000 -1.000000 0.000000
vn 0.000000 -1.000000 0.000000
vn 0.000000 -1.000000 0.000000
vn 0.000000 -1.000000 0.000000
vn 0.000000 -1.000000 0.000000
vn 0.000000 -1.000000 0.000000
vn 0.000000 -1.000000 0.000000
vn 0.000000 -1.000000 0.000000
vn -1.000000 0.000000 0.000000
vn -1.000000 0.000000 0.000000
vn -1.000000 0.000000 0.000000
vn -1.000000 0.000000 0.000000
vn 0.000000 0.000000 1.000000
vn 0.000000 0.000000 1.000000
vn 0.000000 0.000000 1.000000
vn 0.000000 0.000000 1.000000
vn 1.000000 0.000000 0.000000
vn 1.000000 0.000000 0.000000
vn 1.000000 0.000000 0.000000
vn 1.000000 0.000000 0.000000
vn 0.000000 0.000000 -1.000000
vn 0.000000 0.000000 -1.000000
vn 0.000000 0.000000 -1.000000
vn 0.000000 0.000000 -1.000000
s off
f 1/1/1 2/2/2 4/3/3 3/4/4
f 5/5/5 6/6/6 8/7/7 7/8/8
f 2/2/9 8/7/10 6/6/11 4/3/12
f 7/8/13 1/1/14 3/4/15 5/5/16
f 5/5/17 3/4/18 4/3/19 6/6/20
f 1/1/21 7/8/22 8/7/23 2/2/24
f 9/9/25 10/10/26 12/11/27 11/12/28
f 13/13/29 14/14/30 16/15/31 15/16/32
f 10/10/33 16/15/34 14/14/35 12/11/36
f 15/16/37 9/9/38 11/12/39 13/13/40
f 13/13/41 11/12/42 12/11/43 14/14/44
f 9/9/45 15/16/46 16/15/47 10/10/48
f 17/17/49 18/18/50 20/19/51 19/20/52
f 21/21/53 22/22/54 24/23/55 23/24/56
f 18/18/57 24/23/58 22/22/59 20/19/60
f 23/24/61 17/17/62 19/20/63 21/21/64
f 21/21/65 19/20/66 20/19/67 22/22/68
f 17/17/69 23/24/70 24/23/71 18/18/72
f 25/25/73 26/26/74 28/27/75 27/28/76
f 29/29/77 30/30/78 32/31/79 31/32/80
f 26/26/81 32/31/82 30/30/83 28/27/84
f 31/32/85 25/25/86 27/28/87 29/29/88
f 27/28/89 28/27/90 34/33/91 33/34/92
f 28/27/93 30/30/94 35/35/95 34/33/96
f 30/30/97 29/29/98 36/36/99 35/35/100
f 29/29/101 27/28/102 33/34/103 36/36/104
f 31/32/105 32/31/106 38/37/107 37/38/108
f 32/31/109 26/26/110 39/39/111 38/37/112
f 26/26/113 25/25/114 40/40/115 39/39/116
f 25/25/117 31/32/118 37/38/119 40/40/120
f 34/33/121 35/35/122 38/37/123 39/39/124
f 35/35/125 36/36/126 37/38/127 38/37/128
f 36/36/129 33/34/130 40/40/131 37/38/132
f 33/34/133 34/33/134 39/39/135 40/40/136
