# This file uses centimeters as units for non-parametric coordinates.

v 0.000000 0.000000 0.000000
v 0.000000 0.000000 250.000122
v 249.999985 0.000000 0.000122
v 249.999985 0.000000 250.000122
v 124.999985 0.000000 0.000000
v 124.999985 0.000000 250.000122
v 249.999985 0.000000 125.000122
v 134.478256 0.000000 143.252075
v 0.000000 0.000000 125.000000
v 249.999985 5.486506 62.500122
v 115.119370 5.486506 78.782837
v 0.000000 5.486506 62.500000
v 249.999985 5.486506 187.500122
v 124.999985 5.486506 187.500000
v 0.000000 5.486506 187.500000
v 187.499985 5.486506 0.000000
v 185.336288 5.486506 47.986450
v 209.238846 5.486506 101.877319
v 207.013412 5.486506 204.928345
v 187.499985 5.486506 250.000122
v 62.499985 5.486506 0.000000
v 43.516953 5.486506 47.002686
v 62.499985 5.486506 125.000000
v 51.594833 5.486506 205.161255
v 62.499985 5.486506 250.000122
v 0.000000 -4.222630 0.000000
v 0.000000 -4.222575 62.500000
v 249.999985 -4.222630 0.000122
v 249.999985 -4.222575 62.500122
v 62.499985 -4.222575 0.000000
v 0.000000 -4.222630 250.000122
v 62.499985 -4.222575 250.000122
v 124.999985 -4.222630 0.000000
v 187.499985 -4.222575 0.000000
v 124.999985 -4.222630 250.000122
v 187.499985 -4.222575 250.000122
v 249.999985 -4.222630 125.000122
v 249.999985 -4.222575 187.500122
v 0.000000 -4.222630 125.000000
v 0.000000 -4.222575 187.500000
v 249.999985 -4.222630 250.000122
vt 0.144119 0.301301
vt 0.144119 0.301301
vt 0.144119 0.301301
vt 0.144119 0.301301
vt 0.144119 0.301301
vt 0.144119 0.301301
vt 0.144119 0.301301
vt 0.144119 0.301301
vt 0.144119 0.301301
vt 0.144119 0.301301
vt 0.144119 0.301301
vt 0.144119 0.301301
vt 0.144119 0.301301
vt 0.144119 0.301301
vt 0.144119 0.301301
vt 0.144119 0.301301
vt 0.144119 0.301301
vt 0.144119 0.301301
vt 0.144119 0.301301
vt 0.144119 0.301301
vt 0.144119 0.301301
vt 0.144119 0.301301
vt 0.144119 0.301301
vt 0.144119 0.301301
vt 0.144119 0.301301
vt 0.144119 0.301301
vt 0.144119 0.301301
vt 0.144119 0.301301
vt 0.144119 0.301301
vt 0.144119 0.301301
vt 0.144119 0.301301
vt 0.144119 0.301301
vt 0.144119 0.301301
vt 0.144119 0.301301
vt 0.144119 0.301301
vt 0.144119 0.301301
vt 0.144119 0.301301
vt 0.144119 0.301301
vt 0.144119 0.301301
vt 0.144119 0.301301
vt 0.144119 0.301301
vt 0.144119 0.301301
vt 0.144119 0.301301
vt 0.144119 0.301301
vt 0.144119 0.301301
vt 0.144119 0.301301
vt 0.144119 0.301301
vt 0.144119 0.301301
vt 0.144119 0.301301
vt 0.144119 0.301301
vt 0.144119 0.301301
vt 0.144119 0.301301
vt 0.144119 0.301301
vt 0.144119 0.301301
vt 0.144119 0.301301
vt 0.144119 0.301301
vt 0.144119 0.301301
vt 0.144119 0.301301
vt 0.144119 0.301301
vt 0.144119 0.301301
vt 0.144119 0.301301
vt 0.144119 0.301301
vt 0.144119 0.301301
vt 0.144119 0.301301
vt 0.144119 0.301301
vt 0.144119 0.301301
vt 0.144119 0.301301
vt 0.144119 0.301301
vt 0.144119 0.301301
vt 0.144119 0.301301
vt 0.144119 0.301301
vt 0.144119 0.301301
vt 0.144119 0.301301
vt 0.144119 0.301301
vt 0.144119 0.301301
vt 0.144119 0.301301
vt 0.144119 0.301301
vt 0.144119 0.301301
vt 0.144119 0.301301
vt 0.144119 0.301301
vt 0.144119 0.301301
vt 0.144119 0.301301
vt 0.144119 0.301301
vt 0.144119 0.301301
vt 0.144119 0.301301
vt 0.144119 0.301301
vt 0.144119 0.301301
vt 0.144119 0.301301
vt 0.144119 0.301301
vn 0.087385 0.995456 0.037833
vn 0.087385 0.995456 0.037833
vn 0.087385 0.995456 0.037833
vn 0.035432 0.995544 0.087393
vn 0.035432 0.995544 0.087393
vn 0.035432 0.995544 0.087393
vn 0.087428 0.995944 -0.021263
vn 0.087428 0.995944 -0.021263
vn 0.087428 0.995944 -0.021263
vn 0.021035 0.995949 0.087428
vn 0.021035 0.995949 0.087428
vn 0.021035 0.995949 0.087428
vn 0.000000 1.000000 0.000000
vn 0.000000 1.000000 0.000000
vn 0.000000 1.000000 0.000000
vn 0.084179 0.992633 0.087137
vn 0.084179 0.992633 0.087137
vn 0.084179 0.992633 0.087137
vn 0.000000 1.000000 0.000000
vn 0.000000 1.000000 0.000000
vn 0.000000 1.000000 0.000000
vn 0.058912 0.996007 0.067073
vn 0.058912 0.996007 0.067073
vn 0.058912 0.996007 0.067073
vn 0.087447 0.996161 0.003943
vn 0.087447 0.996161 0.003943
vn 0.087447 0.996161 0.003943
vn 0.019624 0.995977 -0.087431
vn 0.019624 0.995977 -0.087431
vn 0.019624 0.995977 -0.087431
vn 0.087393 0.995548 0.035296
vn 0.087393 0.995548 0.035296
vn 0.087393 0.995548 0.035296
vn 0.029204 0.997406 -0.065798
vn 0.029204 0.997406 -0.065798
vn 0.029204 0.997406 -0.065798
vn 0.131812 0.991271 0.002847
vn 0.131812 0.991271 0.002847
vn 0.131812 0.991271 0.002847
vn -0.035432 0.995544 -0.087393
vn -0.035432 0.995544 -0.087393
vn -0.035432 0.995544 -0.087393
vn 0.000000 1.000000 0.000000
vn 0.000000 1.000000 0.000000
vn 0.000000 1.000000 0.000000
vn 0.101071 0.989732 -0.101071
vn 0.101071 0.989732 -0.101071
vn 0.101071 0.989732 -0.101071
vn -0.032217 0.996778 -0.073457
vn -0.032217 0.996778 -0.073457
vn -0.032217 0.996778 -0.073457
vn -0.087447 0.996161 -0.003943
vn -0.087447 0.996161 -0.003943
vn -0.087447 0.996161 -0.003943
vn -0.022443 0.995556 0.091464
vn -0.022443 0.995556 0.091464
vn -0.022443 0.995556 0.091464
vn 0.000000 1.000000 0.000000
vn 0.000000 1.000000 0.000000
vn 0.000000 1.000000 0.000000
vn 0.025019 0.992730 -0.117734
vn 0.025019 0.992730 -0.117734
vn 0.025019 0.992730 -0.117734
vn -0.074071 0.997252 -0.001600
vn -0.074071 0.997252 -0.001600
vn -0.074071 0.997252 -0.001600
vn -0.087115 0.992382 0.087115
vn -0.087115 0.992382 0.087115
vn -0.087115 0.992382 0.087115
vn 0.000000 1.000000 0.000000
vn 0.000000 1.000000 0.000000
vn 0.000000 1.000000 0.000000
vn -0.031127 0.995686 -0.087405
vn -0.031127 0.995686 -0.087405
vn -0.031127 0.995686 -0.087405
vn -0.087393 0.995548 -0.035296
vn -0.087393 0.995548 -0.035296
vn -0.087393 0.995548 -0.035296
vn -0.087115 0.992382 0.087115
vn -0.087115 0.992382 0.087115
vn -0.087115 0.992382 0.087115
vn 0.000000 1.000000 0.000000
vn 0.000000 1.000000 0.000000
vn 0.000000 1.000000 0.000000
vn -0.087115 0.992382 -0.087115
vn -0.087115 0.992382 -0.087115
vn -0.087115 0.992382 -0.087115
vn 0.000000 1.000000 -0.000000
vn 0.000000 1.000000 -0.000000
vn 0.000000 1.000000 -0.000000
vn -0.029921 0.995723 0.087408
vn -0.029921 0.995723 0.087408
vn -0.029921 0.995723 0.087408
vn -0.087428 0.995944 0.021263
vn -0.087428 0.995944 0.021263
vn -0.087428 0.995944 0.021263
vn -1.000000 0.000000 0.000000
vn -1.000000 0.000000 0.000000
vn -1.000000 0.000000 0.000000
vn -1.000000 0.000000 0.000000
vn 1.000000 0.000000 0.000000
vn 1.000000 0.000000 0.000000
vn 1.000000 0.000000 0.000000
vn 1.000000 0.000000 0.000000
vn 0.000000 0.000000 -1.000000
vn 0.000000 0.000000 -1.000000
vn 0.000000 0.000000 -1.000000
vn 0.000000 0.000000 -1.000000
vn 0.000001 0.000000 1.000000
vn 0.000001 0.000000 1.000000
vn 0.000001 0.000000 1.000000
vn 0.000001 0.000000 1.000000
vn 0.000000 0.000000 -1.000000
vn 0.000000 0.000000 -1.000000
vn 0.000000 0.000000 -1.000000
vn 0.000000 0.000000 -1.000000
vn 0.000001 0.000000 1.000000
vn 0.000001 0.000000 1.000000
vn 0.000001 0.000000 1.000000
vn 0.000001 0.000000 1.000000
vn 1.000000 0.000000 0.000000
vn 1.000000 0.000000 0.000000
vn 1.000000 0.000000 0.000000
vn 1.000000 0.000000 0.000000
vn -1.000000 0.000000 0.000000
vn -1.000000 0.000000 0.000000
vn -1.000000 0.000000 0.000000
vn -1.000000 0.000000 0.000000
vn 1.000000 0.000000 0.000000
vn 1.000000 0.000000 0.000000
vn 1.000000 0.000000 0.000000
vn 1.000000 0.000000 0.000000
vn -1.000000 0.000000 0.000000
vn -1.000000 0.000000 0.000000
vn -1.000000 0.000000 0.000000
vn -1.000000 0.000000 0.000000
vn 1.000000 0.000000 0.000000
vn 1.000000 0.000000 0.000000
vn 1.000000 0.000000 0.000000
vn 1.000000 0.000000 0.000000
vn -1.000000 0.000000 0.000000
vn -1.000000 0.000000 0.000000
vn -1.000000 0.000000 0.000000
vn -1.000000 0.000000 0.000000
vn 0.000002 0.000000 -1.000000
vn 0.000002 0.000000 -1.000000
vn 0.000002 0.000000 -1.000000
vn 0.000002 0.000000 -1.000000
vn -0.000001 0.000000 1.000000
vn -0.000001 0.000000 1.000000
vn -0.000001 0.000000 1.000000
vn -0.000001 0.000000 1.000000
vn 0.000000 0.000000 -1.000000
vn 0.000000 0.000000 -1.000000
vn 0.000000 0.000000 -1.000000
vn 0.000000 0.000000 -1.000000
vn -0.000001 0.000000 1.000000
vn -0.000001 0.000000 1.000000
vn -0.000001 0.000000 1.000000
vn -0.000001 0.000000 1.000000
s off
f 20/20/1 4/4/2 19/19/3
f 19/19/4 4/4/5 13/13/6
f 25/25/7 6/6/8 24/24/9
f 24/24/10 6/6/11 14/14/12
f 17/17/13 18/18/14 10/10/15
f 10/10/16 18/18/17 7/7/18
f 22/22/19 23/23/20 11/11/21
f 11/11/22 23/23/23 8/8/24
f 16/16/25 17/17/26 3/3/27
f 3/3/28 17/17/29 10/10/30
f 21/21/31 22/22/32 5/5/33
f 5/5/34 22/22/35 11/11/36
f 18/18/37 19/19/38 7/7/39
f 7/7/40 19/19/41 13/13/42
f 24/24/43 14/14/44 23/23/45
f 23/23/46 14/14/47 8/8/48
f 11/11/49 17/17/50 5/5/51
f 5/5/52 17/17/53 16/16/54
f 8/8/55 18/18/56 11/11/57
f 11/11/58 18/18/59 17/17/60
f 14/14/61 19/19/62 8/8/63
f 8/8/64 19/19/65 18/18/66
f 6/6/67 20/20/68 14/14/69
f 14/14/70 20/20/71 19/19/72
f 12/12/73 22/22/74 1/1/75
f 1/1/76 22/22/77 21/21/78
f 9/9/79 23/23/80 12/12/81
f 12/12/82 23/23/83 22/22/84
f 9/9/85 15/15/86 23/23/87
f 23/23/88 15/15/89 24/24/90
f 15/15/91 2/2/92 24/24/93
f 24/24/94 2/2/95 25/25/96
f 12/26/97 1/27/98 26/28/99 27/29/100
f 3/30/101 10/31/102 29/32/103 28/33/104
f 1/34/105 21/35/106 30/36/107 26/37/108
f 25/38/109 2/39/110 31/40/111 32/41/112
f 5/42/113 16/43/114 34/44/115 33/45/116
f 20/46/117 6/47/118 35/48/119 36/49/120
f 7/50/121 13/51/122 38/52/123 37/53/124
f 15/54/125 9/55/126 39/56/127 40/57/128
f 10/58/129 7/59/130 37/60/131 29/61/132
f 9/62/133 12/63/134 27/64/135 39/65/136
f 13/66/137 4/67/138 41/68/139 38/69/140
f 2/70/141 15/71/142 40/72/143 31/73/144
f 16/74/145 3/75/146 28/76/147 34/77/148
f 4/78/149 20/79/150 36/80/151 41/81/152
f 21/82/153 5/83/154 33/84/155 30/85/156
f 6/86/157 25/87/158 32/88/159 35/89/160
