# This file uses centimeters as units for non-parametric coordinates.

v 232.501129 236.648132 14.705200
v 233.912567 236.648132 14.705200
v 232.501129 236.648132 13.293945
v 233.912567 236.648132 13.293945
v 17.037796 118.515099 14.828247
v 18.477493 118.515099 14.828247
v 17.037796 236.648132 14.828247
v 18.477493 236.648132 14.828247
v 17.037796 236.648132 13.388428
v 18.477493 236.648132 13.388428
v 17.037796 118.515099 13.388428
v 18.477493 118.515099 13.388428
v 232.501129 113.058189 13.348389
v 233.912567 113.058189 13.348389
v 233.912567 113.058189 14.759766
v 232.501129 113.058189 14.759766
v 231.522812 112.664146 12.370117
v 234.890747 112.664146 12.370117
v 234.890747 112.664146 15.738037
v 231.522812 112.664146 15.738037
v 231.522812 108.083305 12.370117
v 234.890747 108.083305 12.370117
v 234.890747 108.083305 15.738037
v 231.522812 108.083305 15.738037
v 13.139191 114.604851 14.034058
v 236.674164 114.604851 14.034058
v 13.139191 118.087624 16.289307
v 236.674164 118.087624 16.289307
v 13.139191 134.373444 13.108887
v 236.674164 134.373444 13.108887
v 13.139191 130.890717 10.853760
v 236.674164 130.890717 10.853760
v 13.139191 132.474609 14.034058
v 236.674164 132.474609 14.034058
v 13.139191 135.957367 16.289307
v 236.674164 135.957367 16.289307
v 13.139191 152.243195 13.108887
v 236.674164 152.243195 13.108887
v 13.139191 148.760498 10.853760
v 236.674164 148.760498 10.853760
v 13.280624 146.591476 13.999146
v 236.770035 146.715302 14.069214
v 13.239517 150.072815 16.254395
v 236.728897 150.196564 16.324341
v 13.043289 166.351761 13.074097
v 236.532654 166.475586 13.144531
v 13.084396 162.870514 10.818848
v 236.573792 162.994354 10.889038
v 13.139191 161.269440 14.034058
v 236.674164 161.269440 14.034058
v 13.139191 164.752319 16.289307
v 236.674164 164.752319 16.289307
v 13.139191 181.038147 13.108887
v 236.674164 181.038147 13.108887
v 13.139191 177.555420 10.853760
v 236.674164 177.555420 10.853760
v 13.139191 173.003647 14.034058
v 236.674164 173.003647 14.034058
v 13.139191 176.486435 16.289307
v 236.674164 176.486435 16.289307
v 13.139191 192.772247 13.108887
v 236.674164 192.772247 13.108887
v 13.139191 189.289551 10.853760
v 236.674164 189.289551 10.853760
v 13.086014 185.254852 14.034058
v 236.610046 185.559662 14.034058
v 13.106155 188.737274 16.289307
v 236.630096 189.042053 16.289307
v 13.203384 205.021393 13.108887
v 236.727325 205.326172 13.108887
v 13.183258 201.539063 10.853760
v 236.707275 201.843842 10.853760
v 13.139191 197.696350 14.034058
v 236.674164 198.804565 14.034058
v 13.139191 201.179138 16.289307
v 236.674164 202.287323 16.289307
v 13.139191 217.464966 13.108887
v 236.674164 218.573151 13.108887
v 13.139191 213.982300 10.853760
v 236.674164 215.090515 10.853760
v 13.139191 214.712341 14.034058
v 236.674164 214.712341 14.034058
v 13.139191 218.195221 16.289307
v 236.674164 218.195221 16.289307
v 13.139191 234.480988 13.108887
v 236.674164 234.480988 13.108887
v 13.139191 230.998291 10.853760
v 236.674164 230.998291 10.853760
vt 0.298426 0.009109
vt 0.298426 0.009109
vt 0.298426 0.009109
vt 0.298426 0.009109
vt 0.298426 0.009109
vt 0.298426 0.009109
vt 0.298426 0.009109
vt 0.298426 0.009109
vt 0.298426 0.009109
vt 0.298426 0.009109
vt 0.298426 0.009109
vt 0.298426 0.009109
vt 0.298426 0.009109
vt 0.298426 0.009109
vt 0.298426 0.009109
vt 0.298426 0.009109
vt 0.298426 0.009109
vt 0.298426 0.009109
vt 0.298426 0.009109
vt 0.298426 0.009109
vt 0.298426 0.009109
vt 0.298426 0.009109
vt 0.298426 0.009109
vt 0.298426 0.009109
vt 0.418721 0.006079
vt 0.418721 0.006079
vt 0.418721 0.006079
vt 0.418721 0.006079
vt 0.418721 0.006079
vt 0.418721 0.006079
vt 0.418721 0.006079
vt 0.418721 0.006079
vt 0.418721 0.006079
vt 0.418721 0.006079
vt 0.418721 0.006079
vt 0.418721 0.006079
vt 0.331931 0.007603
vt 0.331931 0.007603
vt 0.331931 0.007603
vt 0.331931 0.007603
vt 0.331931 0.007603
vt 0.331931 0.007603
vt 0.331931 0.007603
vt 0.331931 0.007603
vt 0.331931 0.007603
vt 0.331931 0.007603
vt 0.331931 0.007603
vt 0.331931 0.007603
vt 0.331931 0.007603
vt 0.331931 0.007603
vt 0.331931 0.007603
vt 0.331931 0.007603
vt 0.331931 0.007603
vt 0.331931 0.007603
vt 0.331931 0.007603
vt 0.331931 0.007603
vt 0.331931 0.007603
vt 0.331931 0.007603
vt 0.331931 0.007603
vt 0.331931 0.007603
vt 0.331931 0.007603
vt 0.331931 0.007603
vt 0.331931 0.007603
vt 0.331931 0.007603
vt 0.300054 0.007603
vt 0.300054 0.007603
vt 0.300054 0.007603
vt 0.300054 0.007603
vt 0.300054 0.007603
vt 0.300054 0.007603
vt 0.300054 0.007603
vt 0.300054 0.007603
vt 0.300054 0.007603
vt 0.300054 0.007603
vt 0.300054 0.007603
vt 0.300054 0.007603
vt 0.300054 0.007603
vt 0.300054 0.007603
vt 0.300054 0.007603
vt 0.300054 0.007603
vt 0.300054 0.007603
vt 0.300054 0.007603
vt 0.300054 0.007603
vt 0.300054 0.007603
vt 0.300054 0.007603
vt 0.300054 0.007603
vt 0.300054 0.007603
vt 0.300054 0.007603
vt 0.357638 0.007603
vt 0.357638 0.007603
vt 0.357638 0.007603
vt 0.357638 0.007603
vt 0.357638 0.007603
vt 0.357638 0.007603
vt 0.357638 0.007603
vt 0.357638 0.007603
vt 0.357638 0.007603
vt 0.357638 0.007603
vt 0.357638 0.007603
vt 0.357638 0.007603
vt 0.357638 0.007603
vt 0.357638 0.007603
vt 0.357638 0.007603
vt 0.357638 0.007603
vt 0.357638 0.007603
vt 0.357638 0.007603
vt 0.357638 0.007603
vt 0.357638 0.007603
vt 0.357638 0.007603
vt 0.357638 0.007603
vt 0.357638 0.007603
vt 0.357638 0.007603
vt 0.331931 0.007603
vt 0.331931 0.007603
vt 0.331931 0.007603
vt 0.331931 0.007603
vt 0.331931 0.007603
vt 0.331931 0.007603
vt 0.331931 0.007603
vt 0.331931 0.007603
vt 0.331931 0.007603
vt 0.331931 0.007603
vt 0.331931 0.007603
vt 0.331931 0.007603
vt 0.331931 0.007603
vt 0.331931 0.007603
vt 0.300054 0.007603
vt 0.300054 0.007603
vt 0.300054 0.007603
vt 0.300054 0.007603
vt 0.300054 0.007603
vt 0.300054 0.007603
vt 0.300054 0.007603
vt 0.300054 0.007603
vt 0.300054 0.007603
vt 0.300054 0.007603
vt 0.300054 0.007603
vt 0.300054 0.007603
vt 0.300054 0.007603
vt 0.300054 0.007603
vt 0.300054 0.007603
vt 0.300054 0.007603
vt 0.300054 0.007603
vt 0.300054 0.007603
vt 0.300054 0.007603
vt 0.300054 0.007603
vt 0.300054 0.007603
vt 0.300054 0.007603
vt 0.300054 0.007603
vt 0.300054 0.007603
vt 0.331931 0.007603
vt 0.331931 0.007603
vt 0.331931 0.007603
vt 0.331931 0.007603
vt 0.331931 0.007603
vt 0.331931 0.007603
vt 0.331931 0.007603
vt 0.331931 0.007603
vt 0.331931 0.007603
vt 0.331931 0.007603
vt 0.331931 0.007603
vt 0.331931 0.007603
vt 0.331931 0.007603
vt 0.331931 0.007603
vt 0.357638 0.007603
vt 0.357638 0.007603
vt 0.357638 0.007603
vt 0.357638 0.007603
vt 0.357638 0.007603
vt 0.357638 0.007603
vt 0.357638 0.007603
vt 0.357638 0.007603
vt 0.357638 0.007603
vt 0.357638 0.007603
vt 0.357638 0.007603
vt 0.357638 0.007603
vt 0.357638 0.007603
vt 0.357638 0.007603
vt 0.357638 0.007603
vt 0.357638 0.007603
vt 0.357638 0.007603
vt 0.357638 0.007603
vt 0.357638 0.007603
vt 0.357638 0.007603
vt 0.357638 0.007603
vt 0.357638 0.007603
vt 0.357638 0.007603
vt 0.357638 0.007603
vn 0.000000 0.000000 1.000000
vn 0.000000 0.000000 1.000000
vn 0.000000 0.000000 1.000000
vn 0.000000 0.000000 1.000000
vn 0.000000 1.000000 0.000000
vn 0.000000 1.000000 0.000000
vn 0.000000 1.000000 0.000000
vn 0.000000 1.000000 0.000000
vn 0.000000 0.000000 -1.000000
vn 0.000000 0.000000 -1.000000
vn 0.000000 0.000000 -1.000000
vn 0.000000 0.000000 -1.000000
vn 0.000000 -1.000000 0.000000
vn 0.000000 -1.000000 0.000000
vn 0.000000 -1.000000 0.000000
vn 0.000000 -1.000000 0.000000
vn 1.000000 0.000000 0.000000
vn 1.000000 0.000000 0.000000
vn 1.000000 0.000000 0.000000
vn 1.000000 0.000000 0.000000
vn -1.000000 0.000000 0.000000
vn -1.000000 0.000000 0.000000
vn -1.000000 0.000000 0.000000
vn -1.000000 0.000000 0.000000
vn 0.000000 0.000000 1.000000
vn 0.000000 0.000000 1.000000
vn 0.000000 0.000000 1.000000
vn 0.000000 0.000000 1.000000
vn 0.000000 1.000000 0.000000
vn 0.000000 1.000000 0.000000
vn 0.000000 1.000000 0.000000
vn 0.000000 1.000000 0.000000
vn 0.000000 0.000000 -1.000000
vn 0.000000 0.000000 -1.000000
vn 0.000000 0.000000 -1.000000
vn 0.000000 0.000000 -1.000000
vn 0.000000 -1.000000 0.000000
vn 0.000000 -1.000000 0.000000
vn 0.000000 -1.000000 0.000000
vn 0.000000 -1.000000 0.000000
vn 1.000000 0.000000 0.000000
vn 1.000000 0.000000 0.000000
vn 1.000000 0.000000 0.000000
vn 1.000000 0.000000 0.000000
vn -1.000000 0.000000 0.000000
vn -1.000000 0.000000 0.000000
vn -1.000000 0.000000 0.000000
vn -1.000000 0.000000 0.000000
vn 0.000000 0.768053 -0.640386
vn 0.000000 0.768053 -0.640386
vn 0.000000 0.768053 -0.640386
vn 0.000000 0.768053 -0.640386
vn 0.640341 0.768091 0.000000
vn 0.640341 0.768091 0.000000
vn 0.640341 0.768091 0.000000
vn 0.640341 0.768091 0.000000
vn 0.000000 0.768053 0.640386
vn 0.000000 0.768053 0.640386
vn 0.000000 0.768053 0.640386
vn 0.000000 0.768053 0.640386
vn -0.640341 0.768091 0.000000
vn -0.640341 0.768091 0.000000
vn -0.640341 0.768091 0.000000
vn -0.640341 0.768091 0.000000
vn 0.000000 0.000000 -1.000000
vn 0.000000 0.000000 -1.000000
vn 0.000000 0.000000 -1.000000
vn 0.000000 0.000000 -1.000000
vn 1.000000 0.000000 0.000000
vn 1.000000 0.000000 0.000000
vn 1.000000 0.000000 0.000000
vn 1.000000 0.000000 0.000000
vn 0.000000 0.000000 1.000000
vn 0.000000 0.000000 1.000000
vn 0.000000 0.000000 1.000000
vn 0.000000 0.000000 1.000000
vn -1.000000 0.000000 0.000000
vn -1.000000 0.000000 0.000000
vn -1.000000 0.000000 0.000000
vn -1.000000 0.000000 0.000000
vn 0.000000 -0.139241 0.990259
vn 0.000000 -0.139241 0.990259
vn 0.000000 -0.139241 0.990259
vn 0.000000 -0.139241 0.990259
vn 0.000000 0.151875 0.988400
vn 0.000000 0.151875 0.988400
vn 0.000000 0.151875 0.988400
vn 0.000000 0.151875 0.988400
vn 0.000000 0.139271 -0.990254
vn 0.000000 0.139271 -0.990254
vn 0.000000 0.139271 -0.990254
vn 0.000000 0.139271 -0.990254
vn 0.000000 -0.151880 -0.988399
vn 0.000000 -0.151880 -0.988399
vn 0.000000 -0.151880 -0.988399
vn 0.000000 -0.151880 -0.988399
vn 1.000000 -0.000001 0.000000
vn 1.000000 -0.000001 0.000000
vn 1.000000 -0.000001 0.000000
vn 1.000000 -0.000001 0.000000
vn -1.000000 0.000000 0.000000
vn -1.000000 0.000000 0.000000
vn -1.000000 0.000000 0.000000
vn -1.000000 0.000000 0.000000
vn 0.000000 -0.139239 0.990259
vn 0.000000 -0.139239 0.990259
vn 0.000000 -0.139239 0.990259
vn 0.000000 -0.139239 0.990259
vn 0.000000 0.151875 0.988400
vn 0.000000 0.151875 0.988400
vn 0.000000 0.151875 0.988400
vn 0.000000 0.151875 0.988400
vn 0.000000 0.139271 -0.990254
vn 0.000000 0.139271 -0.990254
vn 0.000000 0.139271 -0.990254
vn 0.000000 0.139271 -0.990254
vn 0.000000 -0.151880 -0.988399
vn 0.000000 -0.151880 -0.988399
vn 0.000000 -0.151880 -0.988399
vn 0.000000 -0.151880 -0.988399
vn 1.000000 -0.000001 0.000000
vn 1.000000 -0.000001 0.000000
vn 1.000000 -0.000001 0.000000
vn 1.000000 -0.000001 0.000000
vn -1.000000 0.000000 0.000000
vn -1.000000 0.000000 0.000000
vn -1.000000 0.000000 0.000000
vn -1.000000 0.000000 0.000000
vn 0.009311 -0.139181 0.990223
vn 0.009311 -0.139181 0.990223
vn 0.009311 -0.139181 0.990223
vn 0.009311 -0.139181 0.990223
vn -0.011224 0.151790 0.988349
vn -0.011224 0.151790 0.988349
vn -0.011224 0.151790 0.988349
vn -0.011224 0.151790 0.988349
vn -0.009313 0.139214 -0.990218
vn -0.009313 0.139214 -0.990218
vn -0.009313 0.139214 -0.990218
vn -0.009313 0.139214 -0.990218
vn 0.011225 -0.151795 -0.988348
vn 0.011225 -0.151795 -0.988348
vn 0.011225 -0.151795 -0.988348
vn 0.011225 -0.151795 -0.988348
vn 0.999926 0.012140 0.000554
vn 0.999926 0.012140 0.000554
vn 0.999926 0.012140 0.000554
vn 0.999926 0.012140 0.000554
vn -0.999926 -0.012138 -0.000553
vn -0.999926 -0.012138 -0.000553
vn -0.999926 -0.012138 -0.000553
vn -0.999926 -0.012138 -0.000553
vn 0.000000 -0.139239 0.990259
vn 0.000000 -0.139239 0.990259
vn 0.000000 -0.139239 0.990259
vn 0.000000 -0.139239 0.990259
vn 0.000000 0.151875 0.988400
vn 0.000000 0.151875 0.988400
vn 0.000000 0.151875 0.988400
vn 0.000000 0.151875 0.988400
vn 0.000000 0.139271 -0.990254
vn 0.000000 0.139271 -0.990254
vn 0.000000 0.139271 -0.990254
vn 0.000000 0.139271 -0.990254
vn 0.000000 -0.151880 -0.988399
vn 0.000000 -0.151880 -0.988399
vn 0.000000 -0.151880 -0.988399
vn 0.000000 -0.151880 -0.988399
vn 1.000000 -0.000001 0.000000
vn 1.000000 -0.000001 0.000000
vn 1.000000 -0.000001 0.000000
vn 1.000000 -0.000001 0.000000
vn -1.000000 0.000000 0.000000
vn -1.000000 0.000000 0.000000
vn -1.000000 0.000000 0.000000
vn -1.000000 0.000000 0.000000
vn 0.000000 -0.139239 0.990259
vn 0.000000 -0.139239 0.990259
vn 0.000000 -0.139239 0.990259
vn 0.000000 -0.139239 0.990259
vn 0.000000 0.151875 0.988400
vn 0.000000 0.151875 0.988400
vn 0.000000 0.151875 0.988400
vn 0.000000 0.151875 0.988400
vn 0.000000 0.139269 -0.990255
vn 0.000000 0.139269 -0.990255
vn 0.000000 0.139269 -0.990255
vn 0.000000 0.139269 -0.990255
vn 0.000000 -0.151880 -0.988399
vn 0.000000 -0.151880 -0.988399
vn 0.000000 -0.151880 -0.988399
vn 0.000000 -0.151880 -0.988399
vn 1.000000 -0.000001 0.000000
vn 1.000000 -0.000001 0.000000
vn 1.000000 -0.000001 0.000000
vn 1.000000 -0.000001 0.000000
vn -1.000000 0.000000 0.000000
vn -1.000000 0.000000 0.000000
vn -1.000000 0.000000 0.000000
vn -1.000000 0.000000 0.000000
vn -0.004833 -0.139225 0.990249
vn -0.004833 -0.139225 0.990249
vn -0.004833 -0.139225 0.990249
vn -0.004833 -0.139225 0.990249
vn 0.005271 0.151858 0.988388
vn 0.005271 0.151858 0.988388
vn 0.005271 0.151858 0.988388
vn 0.005271 0.151858 0.988388
vn 0.004834 0.139256 -0.990245
vn 0.004834 0.139256 -0.990245
vn 0.004834 0.139256 -0.990245
vn 0.004834 0.139256 -0.990245
vn -0.005271 -0.151863 -0.988387
vn -0.005271 -0.151863 -0.988388
vn -0.005271 -0.151863 -0.988387
vn -0.005271 -0.151863 -0.988388
vn 0.999982 -0.005967 0.000021
vn 0.999982 -0.005967 0.000021
vn 0.999982 -0.005967 0.000021
vn 0.999982 -0.005967 0.000021
vn -0.999982 0.005974 0.000027
vn -0.999982 0.005974 0.000027
vn -0.999982 0.005974 0.000027
vn -0.999982 0.005974 0.000027
vn 0.000000 -0.139241 0.990259
vn 0.000000 -0.139241 0.990259
vn 0.000000 -0.139241 0.990259
vn 0.000000 -0.139241 0.990259
vn 0.000000 0.151875 0.988400
vn 0.000000 0.151875 0.988400
vn 0.000000 0.151875 0.988400
vn 0.000000 0.151875 0.988400
vn 0.000000 0.139271 -0.990254
vn 0.000000 0.139271 -0.990254
vn 0.000000 0.139271 -0.990254
vn 0.000000 0.139271 -0.990254
vn 0.000000 -0.151880 -0.988399
vn 0.000000 -0.151880 -0.988399
vn 0.000000 -0.151880 -0.988399
vn 0.000000 -0.151880 -0.988399
vn 1.000000 -0.000001 0.000000
vn 1.000000 -0.000001 0.000000
vn 1.000000 -0.000001 0.000000
vn 1.000000 -0.000001 0.000000
vn -1.000000 0.000000 0.000000
vn -1.000000 0.000000 0.000000
vn -1.000000 0.000000 0.000000
vn -1.000000 0.000000 0.000000
vn 0.000000 -0.139239 0.990259
vn 0.000000 -0.139239 0.990259
vn 0.000000 -0.139239 0.990259
vn 0.000000 -0.139239 0.990259
vn 0.000000 0.151875 0.988400
vn 0.000000 0.151875 0.988400
vn 0.000000 0.151875 0.988400
vn 0.000000 0.151875 0.988400
vn 0.000000 0.139271 -0.990254
vn 0.000000 0.139271 -0.990254
vn 0.000000 0.139271 -0.990254
vn 0.000000 0.139271 -0.990254
vn 0.000000 -0.151880 -0.988399
vn 0.000000 -0.151880 -0.988399
vn 0.000000 -0.151880 -0.988399
vn 0.000000 -0.151880 -0.988399
vn 1.000000 -0.000001 0.000000
vn 1.000000 -0.000001 0.000000
vn 1.000000 -0.000001 0.000000
vn 1.000000 -0.000001 0.000000
vn -1.000000 0.000000 0.000000
vn -1.000000 0.000000 0.000000
vn -1.000000 0.000000 0.000000
vn -1.000000 0.000000 0.000000
s off
f 2/2/1 1/1/2 16/24/3 15/23/4
f 1/1/5 2/2/6 4/4/7 3/3/8
f 3/3/9 4/4/10 14/22/11 13/21/12
f 21/25/13 22/26/14 23/27/15 24/28/16
f 4/5/17 2/2/18 15/23/19 14/22/20
f 1/1/21 3/6/22 13/21/23 16/24/24
f 5/7/25 6/8/26 8/9/27 7/10/28
f 7/10/29 8/9/30 10/11/31 9/12/32
f 9/12/33 10/11/34 12/13/35 11/14/36
f 11/14/37 12/13/38 6/15/39 5/16/40
f 6/8/41 12/17/42 10/18/43 8/9/44
f 11/19/45 5/7/46 7/10/47 9/20/48
f 13/29/49 14/30/50 18/31/51 17/32/52
f 14/30/53 15/33/54 19/34/55 18/31/56
f 15/33/57 16/35/58 20/36/59 19/34/60
f 16/35/61 13/29/62 17/32/63 20/36/64
f 17/32/65 18/31/66 22/26/67 21/25/68
f 18/31/69 19/34/70 23/27/71 22/26/72
f 19/34/73 20/36/74 24/28/75 23/27/76
f 20/36/77 17/32/78 21/25/79 24/28/80
f 25/37/81 26/38/82 28/39/83 27/40/84
f 27/40/85 28/39/86 30/41/87 29/42/88
f 29/42/89 30/41/90 32/43/91 31/44/92
f 31/44/93 32/43/94 26/45/95 25/46/96
f 26/38/97 32/47/98 30/48/99 28/39/100
f 31/49/101 25/37/102 27/40/103 29/50/104
f 33/51/105 34/52/106 36/53/107 35/54/108
f 35/54/109 36/53/110 38/55/111 37/56/112
f 37/56/113 38/55/114 40/57/115 39/58/116
f 39/58/117 40/57/118 34/59/119 33/60/120
f 34/52/121 40/61/122 38/62/123 36/53/124
f 39/63/125 33/51/126 35/54/127 37/64/128
f 41/65/129 42/66/130 44/67/131 43/68/132
f 43/69/133 44/70/134 46/71/135 45/72/136
f 45/73/137 46/74/138 48/75/139 47/76/140
f 47/77/141 48/78/142 42/79/143 41/80/144
f 42/81/145 48/82/146 46/83/147 44/84/148
f 47/85/149 41/86/150 43/87/151 45/88/152
f 49/89/153 50/90/154 52/91/155 51/92/156
f 51/93/157 52/94/158 54/95/159 53/96/160
f 53/97/161 54/98/162 56/99/163 55/100/164
f 55/101/165 56/102/166 50/103/167 49/104/168
f 50/105/169 56/106/170 54/107/171 52/108/172
f 55/109/173 49/110/174 51/111/175 53/112/176
f 57/113/177 58/114/178 60/115/179 59/116/180
f 59/116/181 60/115/182 62/117/183 61/118/184
f 61/118/185 62/117/186 64/119/187 63/120/188
f 63/120/189 64/119/190 58/121/191 57/122/192
f 58/114/193 64/123/194 62/124/195 60/115/196
f 63/125/197 57/113/198 59/116/199 61/126/200
f 65/127/201 66/128/202 68/129/203 67/130/204
f 67/131/205 68/132/206 70/133/207 69/134/208
f 69/135/209 70/136/210 72/137/211 71/138/212
f 71/139/213 72/140/214 66/141/215 65/142/216
f 66/143/217 72/144/218 70/145/219 68/146/220
f 71/147/221 65/148/222 67/149/223 69/150/224
f 73/151/225 74/152/226 76/153/227 75/154/228
f 75/154/229 76/153/230 78/155/231 77/156/232
f 77/156/233 78/155/234 80/157/235 79/158/236
f 79/158/237 80/157/238 74/159/239 73/160/240
f 74/152/241 80/161/242 78/162/243 76/153/244
f 79/163/245 73/151/246 75/154/247 77/164/248
f 81/165/249 82/166/250 84/167/251 83/168/252
f 83/169/253 84/170/254 86/171/255 85/172/256
f 85/173/257 86/174/258 88/175/259 87/176/260
f 87/177/261 88/178/262 82/179/263 81/180/264
f 82/181/265 88/182/266 86/183/267 84/184/268
f 87/185/269 81/186/270 83/187/271 85/188/272
