# This file uses centimeters as units for non-parametric coordinates.

v 0.000000 0.000000 14.999878
v 0.000000 280.571838 16.360474
v 0.000000 8.723450 14.999878
v 249.999146 278.528442 14.999878
v 43.584839 8.723450 14.999878
v 43.584839 0.000000 14.999878
v 43.584839 6.545044 16.360474
v 43.584839 2.178406 16.360474
v 0.000000 6.545044 16.360474
v 0.000000 2.178406 16.360474
v 249.999146 299.700134 14.999878
v 0.000000 299.700134 14.999878
v 249.999146 280.571838 16.360474
v 249.999146 296.784363 16.360474
v 0.000000 278.528442 14.999878
v 0.000000 296.784363 16.360474
v 206.414429 0.000000 14.999878
v 206.414429 8.723450 14.999878
v 249.999268 8.723450 14.999878
v 249.999268 0.000000 14.999878
v 249.999268 6.545044 16.360474
v 249.999268 2.178406 16.360474
v 206.414429 6.545044 16.360474
v 206.414429 2.178406 16.360474
v 0.000000 0.000000 0.000000
v 249.999146 0.000000 0.000000
v 0.000000 299.700012 0.000000
v 249.999146 299.700012 0.000000
v 0.000000 299.700012 -249.999146
v 249.999146 299.700012 -249.999146
v 0.000000 0.000000 -249.999146
v 249.999390 0.000000 -249.999146
v 198.111206 0.000000 0.000122
v 249.999146 299.700012 0.000000
v 51.887939 0.000000 0.000122
v 0.000000 299.700012 0.000000
v 0.000000 299.700012 -87.499634
v 0.000000 0.000000 -87.499634
v 0.000000 0.000000 -162.499390
v 0.000000 299.700012 -162.499390
v 87.500000 299.700012 -249.999146
v 87.500000 0.000000 -249.999146
v 162.499634 299.700012 -249.999146
v 162.499634 0.000000 -249.999146
v 249.999390 0.000000 -162.499390
v 249.999390 299.700012 -162.499390
v 249.999390 299.700012 -87.499634
v 249.999390 0.000000 -87.499634
v 4.392822 0.000000 -159.198853
v 4.392822 0.000000 -90.799927
v 4.392822 299.700012 -159.198853
v 4.392822 299.700012 -90.799927
v 90.800415 0.000000 -245.605835
v 159.199341 0.000000 -245.605835
v 159.199341 299.700012 -245.605835
v 90.800415 299.700012 -245.605835
v 245.606689 0.000000 -159.198853
v 245.606689 0.000000 -90.799927
v 245.606689 299.700012 -90.799927
v 245.606689 299.700012 -159.198853
v -15.000122 0.000000 9.231567
v 0.000000 0.000000 9.231567
v -15.000122 299.700012 9.231567
v 0.000000 299.700012 9.231567
v -15.000122 299.700012 0.000000
v -15.000122 0.000000 0.000000
v 0.000000 0.000000 14.999878
v 249.999268 299.700012 14.999878
v 249.999268 0.000000 14.999878
v 0.000000 299.700012 14.999878
v 51.887939 0.000000 22.540649
v 198.111206 0.000000 22.540649
v 51.887939 236.991089 22.540649
v 198.111206 236.991089 22.540649
v 43.584839 0.000000 0.000000
v 43.584839 0.000000 22.540649
v 43.584839 245.394348 14.999878
v 206.414429 245.394348 14.999878
v 206.414429 0.000000 22.540649
v 206.414429 0.000000 0.000000
v 206.414429 245.394348 22.540649
v 43.584839 245.394348 22.540649
v 206.414429 0.000000 14.999878
v 43.584839 0.000000 14.999878
v 198.111206 7.961487 0.000000
v 51.887939 7.961487 0.000000
v 198.111206 7.961487 8.196655
v 198.111206 236.991089 8.196655
v 51.887939 236.991089 8.196655
v 51.887939 7.961487 8.196655
v 239.487183 249.796387 0.000000
v 242.431030 7.961487 0.000000
v 242.431030 7.961487 8.196655
v 239.487183 249.796387 8.196655
v 10.511963 249.796387 8.196655
v 10.511963 249.796387 0.000000
v 7.567993 7.961487 8.196655
v 7.567993 7.961487 0.000000
v 249.999023 0.000000 9.231567
v 264.999146 0.000000 9.231567
v 249.999023 299.700012 9.231567
v 264.999146 299.700012 9.231567
v 264.999146 299.700012 0.000000
v 264.999146 0.000000 0.000000
v 198.111206 249.796387 0.000122
v 51.887939 249.796387 0.000122
v 51.887939 0.000000 14.999878
v 198.111206 0.000000 14.999878
vt 0.063351 0.151407
vt 0.063351 0.151407
vt 0.063340 0.151511
vt 0.063340 0.151511
vt 0.063340 0.151511
vt 0.063351 0.151407
vt 0.063351 0.151407
vt 0.063351 0.151407
vt 0.063351 0.151407
vt 0.063351 0.151407
vt 0.063351 0.151407
vt 0.063340 0.151511
vt 0.063340 0.151511
vt 0.063340 0.151511
vt 0.063340 0.151511
vt 0.063351 0.151407
vt 0.062915 0.174499
vt 0.062913 0.174687
vt 0.063340 0.151511
vt 0.063352 0.151471
vt 0.062915 0.174492
vt 0.062913 0.174693
vt 0.063351 0.151407
vt 0.063351 0.151407
vt 0.063351 0.151407
vt 0.063351 0.151407
vt 0.063351 0.151407
vt 0.063351 0.151407
vt 0.063351 0.151407
vt 0.063351 0.151407
vt 0.063351 0.151407
vt 0.062913 0.174693
vt 0.062915 0.174492
vt 0.062915 0.174499
vt 0.062913 0.174687
vt 0.113129 0.276439
vt 0.113179 0.275638
vt 0.112985 0.275630
vt 0.112982 0.275709
vt 0.112962 0.276425
vt 0.112793 0.275446
vt 0.112796 0.276096
vt 0.112607 0.276083
vt 0.112580 0.275439
vt 0.112459 0.276383
vt 0.112401 0.275606
vt 0.112464 0.275547
vt 0.112511 0.276278
vt 0.113469 0.256315
vt 0.113479 0.256123
vt 0.113611 0.255970
vt 0.113599 0.256236
vt 0.113332 0.275943
vt 0.113567 0.275945
vt 0.113357 0.276939
vt 0.113186 0.276931
vt 0.113301 0.276155
vt 0.112555 0.276188
vt 0.112518 0.275497
vt 0.113135 0.276327
vt 0.113182 0.275575
vt 0.113147 0.276119
vt 0.113188 0.275458
vt 0.113185 0.275521
vt 0.113141 0.276231
vt 0.112958 0.276106
vt 0.112975 0.275451
vt 0.113254 0.255869
vt 0.113066 0.255856
vt 0.113036 0.255604
vt 0.113297 0.255623
vt 0.112806 0.256074
vt 0.112788 0.256264
vt 0.112648 0.256166
vt 0.112675 0.255903
vt 0.113481 0.256325
vt 0.113492 0.256115
vt 0.113629 0.255959
vt 0.113616 0.256250
vt 0.113264 0.255858
vt 0.113057 0.255843
vt 0.113025 0.255587
vt 0.113310 0.255607
vt 0.112795 0.256064
vt 0.112775 0.256273
vt 0.112629 0.256178
vt 0.112659 0.255889
vt 0.063205 0.150621
vt 0.063146 0.150605
vt 0.063368 0.149650
vt 0.063451 0.149666
vt 0.063375 0.149621
vt 0.063457 0.149637
vt 0.063152 0.150576
vt 0.063212 0.150592
vt 0.063366 0.173842
vt 0.063357 0.173834
vt 0.063346 0.174807
vt 0.063354 0.174817
vt 0.062535 0.173847
vt 0.062540 0.173855
vt 0.062755 0.174830
vt 0.062749 0.174819
vt 0.062531 0.174823
vt 0.062537 0.174834
vt 0.079833 0.230349
vt 0.080123 0.230947
vt 0.080101 0.231007
vt 0.079820 0.230395
vt 0.063143 0.174156
vt 0.062759 0.174163
vt 0.111943 0.327755
vt 0.111930 0.328735
vt 0.111932 0.328748
vt 0.111945 0.327757
vt 0.111228 0.327758
vt 0.111284 0.328755
vt 0.111289 0.328742
vt 0.111234 0.327756
vt 0.079151 0.230296
vt 0.079159 0.230248
vt 0.063129 0.174811
vt 0.063137 0.174822
vt 0.111900 0.328701
vt 0.111909 0.327794
vt 0.111267 0.327795
vt 0.111315 0.328707
vt 0.111323 0.328712
vt 0.111926 0.328711
vt 0.111894 0.328711
vt 0.111897 0.328707
vt 0.111319 0.328641
vt 0.079123 0.230877
vt 0.079134 0.230815
vt 0.111275 0.327792
vt 0.111906 0.327791
vt 0.111898 0.328636
vt 0.111327 0.328624
vt 0.111319 0.328641
vt 0.111327 0.328624
vt 0.111275 0.327792
vt 0.111906 0.327791
vt 0.111898 0.328636
vt 0.111895 0.328619
vt 0.111895 0.328619
vt 0.063443 0.150621
vt 0.063391 0.150607
vt 0.063273 0.149645
vt 0.063342 0.149658
vt 0.063293 0.149621
vt 0.063361 0.149634
vt 0.063405 0.150582
vt 0.063457 0.150596
vt 0.112691 0.275939
vt 0.112696 0.276146
vt 0.111331 0.328717
vt 0.111299 0.328717
vn -1.000000 0.000000 0.000000
vn -1.000000 0.000000 0.000000
vn -1.000000 0.000000 0.000000
vn -1.000000 0.000000 0.000000
vn 0.000000 -0.529745 0.848157
vn 0.000000 -0.529745 0.848157
vn 0.000000 -0.529745 0.848157
vn 0.000000 -0.529745 0.848157
vn 0.000000 0.529745 0.848157
vn 0.000000 0.529745 0.848157
vn 0.000000 0.529745 0.848157
vn 0.000000 0.529745 0.848157
vn 0.000000 0.422858 0.906196
vn 0.000000 0.422858 0.906196
vn 0.000000 0.422858 0.906196
vn 0.000000 0.422858 0.906196
vn 0.000000 0.000000 1.000000
vn 0.000000 0.000000 1.000000
vn 0.000000 0.000000 1.000000
vn 0.000000 0.000000 1.000000
vn 1.000000 0.000000 0.000000
vn 1.000000 0.000000 0.000000
vn 1.000000 0.000000 0.000000
vn 1.000000 0.000000 0.000000
vn 1.000000 0.000000 0.000000
vn 1.000000 0.000000 0.000000
vn 1.000000 0.000000 0.000000
vn 1.000000 0.000000 0.000000
vn 0.000000 -0.554232 0.832362
vn 0.000000 -0.554232 0.832362
vn 0.000000 -0.554232 0.832362
vn 0.000000 -0.554232 0.832362
vn 0.000000 0.000000 1.000000
vn 0.000000 0.000000 1.000000
vn 0.000000 0.000000 1.000000
vn 0.000000 0.000000 1.000000
vn -1.000000 0.000000 0.000000
vn -1.000000 0.000000 0.000000
vn -1.000000 0.000000 0.000000
vn -1.000000 0.000000 0.000000
vn -1.000000 0.000000 0.000000
vn -1.000000 0.000000 0.000000
vn -1.000000 0.000000 0.000000
vn -1.000000 0.000000 0.000000
vn 0.000000 -0.529745 0.848157
vn 0.000000 -0.529745 0.848157
vn 0.000000 -0.529745 0.848157
vn 0.000000 -0.529745 0.848157
vn 0.000000 0.529745 0.848157
vn 0.000000 0.529745 0.848157
vn 0.000000 0.529745 0.848157
vn 0.000000 0.529745 0.848157
vn 0.000000 0.000000 1.000000
vn 0.000000 0.000000 1.000000
vn 0.000000 0.000000 1.000000
vn 0.000000 0.000000 1.000000
vn 1.000000 0.000000 0.000000
vn 1.000000 0.000000 0.000000
vn 1.000000 0.000000 0.000000
vn 1.000000 0.000000 0.000000
vn 0.000002 0.000000 -1.000000
vn 0.000000 0.000000 -0.000000
vn 0.000000 0.000000 -0.000000
vn 0.000002 0.000000 -1.000000
vn 0.000002 0.000000 -1.000000
vn 0.000000 0.000000 1.000000
vn 0.000000 0.000000 1.000000
vn 0.000000 0.000000 1.000000
vn 0.000000 0.000000 1.000000
vn -1.000000 0.000000 -0.000003
vn -1.000000 0.000000 -0.000003
vn -1.000000 0.000000 -0.000003
vn -1.000000 0.000000 -0.000003
vn 1.000000 0.000000 0.000000
vn 1.000000 0.000000 0.000000
vn 1.000000 0.000000 0.000000
vn 1.000000 0.000000 0.000000
vn -0.000000 0.000000 -0.000000
vn -0.000000 0.000000 -0.000000
vn -0.000002 0.000000 -1.000000
vn -0.000002 0.000000 -1.000000
vn -0.000002 0.000000 -1.000000
vn -1.000000 -0.000000 0.000001
vn -1.000000 -0.000000 0.000001
vn -1.000000 -0.000000 0.000001
vn -1.000000 -0.000000 0.000001
vn 1.000000 0.000000 0.000000
vn 1.000000 0.000000 0.000000
vn 1.000000 0.000000 0.000000
vn 1.000000 0.000000 0.000000
vn 1.000000 0.000000 0.000000
vn 1.000000 0.000000 0.000000
vn 1.000000 0.000000 0.000000
vn 1.000000 0.000000 0.000000
vn 0.000000 0.000000 1.000000
vn 0.000000 0.000000 1.000000
vn 0.000000 0.000000 1.000000
vn 0.000000 0.000000 1.000000
vn 0.000000 0.000000 1.000000
vn 0.000000 0.000000 1.000000
vn 0.000000 0.000000 1.000000
vn 0.000000 0.000000 1.000000
vn -1.000000 0.000000 0.000000
vn -1.000000 0.000000 0.000000
vn -1.000000 0.000000 0.000000
vn -1.000000 0.000000 0.000000
vn 0.000000 -1.000000 0.000000
vn 0.000000 -1.000000 0.000000
vn 0.000000 -1.000000 0.000000
vn 0.000000 -1.000000 0.000000
vn 0.600690 0.000000 -0.799482
vn 0.600690 0.000000 -0.799482
vn 0.600690 0.000000 -0.799482
vn 0.600690 0.000000 -0.799482
vn 0.000000 1.000000 0.000000
vn 0.000000 1.000000 0.000000
vn 0.000000 1.000000 0.000000
vn 0.000000 1.000000 0.000000
vn 0.600661 0.000000 0.799504
vn 0.600661 0.000000 0.799504
vn 0.600661 0.000000 0.799504
vn 0.600661 0.000000 0.799504
vn 0.000000 -1.000000 0.000000
vn 0.000000 -1.000000 0.000000
vn 0.000000 -1.000000 0.000000
vn 0.000000 -1.000000 0.000000
vn 0.799537 0.000000 0.600617
vn 0.799537 0.000000 0.600617
vn 0.799537 0.000000 0.600617
vn 0.799537 0.000000 0.600617
vn 0.000000 1.000000 -0.000001
vn 0.000000 1.000000 -0.000001
vn 0.000000 1.000000 -0.000001
vn 0.000000 1.000000 -0.000001
vn -0.799526 0.000000 0.600631
vn -0.799526 0.000000 0.600631
vn -0.799526 0.000000 0.600631
vn -0.799526 0.000000 0.600631
vn 0.000000 -1.000000 0.000000
vn 0.000000 -1.000000 0.000000
vn 0.000000 -1.000000 0.000000
vn 0.000000 -1.000000 0.000000
vn -0.600672 0.000000 0.799496
vn -0.600672 0.000000 0.799496
vn -0.600672 0.000000 0.799496
vn -0.600672 0.000000 0.799496
vn 0.000000 1.000000 0.000000
vn 0.000000 1.000000 0.000000
vn 0.000000 1.000000 0.000000
vn 0.000000 1.000000 0.000000
vn -0.600700 0.000000 -0.799474
vn -0.600700 0.000000 -0.799474
vn -0.600700 0.000000 -0.799474
vn -0.600700 0.000000 -0.799474
vn 0.000000 0.000000 1.000000
vn 0.000000 0.000000 1.000000
vn 0.000000 0.000000 1.000000
vn 0.000000 0.000000 1.000000
vn 0.000000 1.000000 0.000000
vn 0.000000 1.000000 0.000000
vn 0.000000 1.000000 0.000000
vn 0.000000 1.000000 0.000000
vn 0.000000 0.000000 -1.000000
vn 0.000000 0.000000 -1.000000
vn 0.000000 0.000000 -1.000000
vn 0.000000 0.000000 -1.000000
vn 0.000000 -1.000000 0.000000
vn 0.000000 -1.000000 0.000000
vn 0.000000 -1.000000 0.000000
vn 0.000000 -1.000000 0.000000
vn 1.000000 0.000000 0.000000
vn 1.000000 0.000000 0.000000
vn 1.000000 0.000000 0.000000
vn 1.000000 0.000000 0.000000
vn -1.000000 0.000000 0.000000
vn -1.000000 0.000000 0.000000
vn -1.000000 0.000000 0.000000
vn -1.000000 0.000000 0.000000
vn -1.000000 0.000000 0.000000
vn -1.000000 0.000000 0.000000
vn -1.000000 0.000000 0.000000
vn -1.000000 0.000000 0.000000
vn 0.000000 1.000000 0.000001
vn 0.000000 1.000000 0.000001
vn 0.000000 1.000000 0.000001
vn 0.000000 1.000000 0.000001
vn 0.000000 -1.000000 0.000000
vn 0.000000 -1.000000 0.000000
vn 0.000000 -1.000000 0.000000
vn 0.000000 -1.000000 0.000000
vn -0.999926 -0.012172 0.000000
vn -0.999926 -0.012172 0.000000
vn -0.999926 -0.012172 0.000000
vn -0.999926 -0.012172 0.000000
vn 0.000000 0.000000 1.000000
vn 0.000000 0.000000 1.000000
vn 0.000000 0.000000 1.000000
vn 0.000000 0.000000 1.000000
vn 1.000000 0.000000 -0.000008
vn 1.000000 0.000000 -0.000008
vn 1.000000 0.000000 -0.000008
vn 1.000000 0.000000 -0.000008
vn -1.000000 0.000000 0.000000
vn -1.000000 0.000000 0.000000
vn -1.000000 0.000000 0.000000
vn -1.000000 0.000000 0.000000
vn 1.000000 0.000000 0.000000
vn 1.000000 0.000000 0.000000
vn 1.000000 0.000000 0.000000
vn 1.000000 0.000000 0.000000
vn 0.000000 -1.000000 0.000000
vn 0.000000 -1.000000 0.000000
vn 0.000000 -1.000000 0.000000
vn 0.000000 -1.000000 0.000000
vn 0.000000 -1.000000 0.000000
vn 0.000000 -1.000000 0.000000
vn 0.000000 -1.000000 0.000000
vn 0.000000 -1.000000 0.000000
vn 0.000000 -1.000000 0.000000
vn 0.000000 -1.000000 0.000000
vn 0.000000 -1.000000 0.000000
vn 0.000000 0.000000 1.000000
vn 0.000000 0.000000 1.000000
vn 0.000000 0.000000 1.000000
vn 0.000000 0.000000 1.000000
vn 0.000000 0.000000 1.000000
vn 0.000000 0.000000 1.000000
vn 0.000000 0.000000 1.000000
vn 0.000000 0.000000 1.000000
vn 0.000000 0.000000 1.000000
vn 0.000000 0.000000 1.000000
vn 0.000000 0.000000 1.000000
vn 0.000000 0.000000 1.000000
vn 0.000000 -1.000000 0.000000
vn 0.000000 -1.000000 0.000000
vn 0.000000 -1.000000 0.000000
vn 0.000000 1.000000 0.000000
vn 0.000000 1.000000 0.000000
vn 0.000000 1.000000 0.000000
vn 0.000000 1.000000 0.000000
vn 0.000000 -1.000000 0.000000
vn 0.000000 -1.000000 0.000000
vn 0.000000 -1.000000 0.000000
vn 0.000000 0.000000 1.000000
vn 0.000000 0.000000 1.000000
vn 0.000000 0.000000 1.000000
vn 0.000000 0.000000 1.000000
vn -0.000000 0.000000 1.000000
vn -0.000000 0.000000 1.000000
vn -0.000000 0.000000 1.000000
vn -0.000000 0.000000 1.000000
vn 0.000000 -1.000000 0.000000
vn 0.000000 -1.000000 0.000000
vn 0.000000 -1.000000 0.000000
vn 0.000000 -1.000000 0.000000
vn -1.000000 0.000000 0.000000
vn -1.000000 0.000000 0.000000
vn -1.000000 0.000000 0.000000
vn 0.999926 -0.012173 0.000000
vn 0.999926 -0.012173 0.000000
vn 0.999926 -0.012173 0.000000
vn 0.999926 -0.012173 0.000000
vn -1.000000 0.000000 0.000000
vn -1.000000 0.000000 0.000000
vn -1.000000 0.000000 0.000000
vn -1.000000 0.000000 0.000000
vn 0.000000 -1.000000 0.000000
vn 0.000000 -1.000000 0.000000
vn 0.000000 -1.000000 0.000000
vn 0.000000 -1.000000 0.000000
vn 1.000000 0.000000 0.000000
vn 1.000000 0.000000 0.000000
vn 1.000000 0.000000 0.000000
vn 1.000000 0.000000 0.000000
vn 0.000000 1.000000 0.000000
vn 0.000000 1.000000 0.000000
vn 0.000000 1.000000 0.000000
vn 0.000000 1.000000 0.000000
vn 0.000000 0.000000 -1.000000
vn 0.000000 0.000000 -1.000000
vn 0.000000 0.000000 -1.000000
vn 0.000000 0.000000 -1.000000
vn 0.000000 0.000000 -1.000000
vn 0.000000 0.000000 -1.000000
vn 0.000000 0.000000 -1.000000
vn 0.000000 0.000000 -1.000000
vn 0.000000 0.000000 -1.000000
vn 0.000000 0.000000 -1.000000
vn 0.000000 0.000000 -1.000000
vn 0.000000 0.000000 -1.000000
vn 0.000000 1.000000 0.000000
vn 0.000000 1.000000 0.000000
vn 0.000000 1.000000 0.000000
vn 0.000000 1.000000 0.000000
vn 0.000000 0.000000 1.000000
vn 0.000000 0.000000 1.000000
vn 0.000000 0.000000 1.000000
vn 0.000000 0.000000 1.000000
vn 0.000000 1.000000 -0.000000
vn 0.000000 1.000000 -0.000000
vn 0.000000 1.000000 -0.000000
vn 0.000000 1.000000 -0.000000
vn 0.000000 0.000000 -1.000000
vn 0.000000 0.000000 -1.000000
vn 0.000000 0.000000 -1.000000
vn 0.000000 0.000000 -1.000000
vn 0.000000 -1.000000 0.000000
vn 0.000000 -1.000000 0.000000
vn 0.000000 -1.000000 0.000000
vn 0.000000 -1.000000 0.000000
vn 1.000000 0.000000 0.000000
vn 1.000000 0.000000 0.000000
vn 1.000000 0.000000 0.000000
vn 1.000000 0.000000 0.000000
vn -1.000000 0.000000 -0.000013
vn -1.000000 0.000000 -0.000013
vn -1.000000 0.000000 -0.000013
vn -1.000000 0.000000 -0.000013
vn 0.000000 -0.000002 -1.000000
vn 0.000000 -0.000002 -1.000000
vn 0.000000 -0.000002 -1.000000
vn 0.000000 -0.000002 -1.000000
vn 1.000000 0.000001 0.000000
vn 1.000000 0.000000 0.000000
vn 1.000000 0.000000 0.000000
vn 0.000000 -1.000000 0.000000
vn 0.000000 -1.000000 0.000000
vn 0.000000 -1.000000 0.000000
vn 0.000000 -1.000000 0.000000
vn 0.000000 -1.000000 0.000000
vn 0.000000 -1.000000 0.000000
vn 0.000000 -1.000000 0.000000
vn 0.000000 -0.000015 -1.000000
vn 0.000000 -0.000015 -1.000000
vn 0.000000 -0.000015 -1.000000
vn 0.000000 -0.000015 -1.000000
vn 0.000000 0.649640 0.760242
vn 0.000000 0.649640 0.760242
vn 0.000000 0.649640 0.760242
vn 0.000000 0.649640 0.760242
vn 0.000000 1.000000 0.000000
vn 0.000000 1.000000 0.000000
vn 0.000000 1.000000 0.000000
vn 0.000000 1.000000 0.000000
vn 0.000000 -1.000000 0.000000
vn 0.000000 -1.000000 0.000000
vn 0.000000 -1.000000 0.000000
vn 0.000000 -1.000000 0.000000
s off
f 3/2/1 1/1/2 10/8/3 9/10/4
f 1/1/5 6/6/6 8/7/7 10/8/8
f 9/10/9 7/11/10 5/9/11 3/2/12
f 14/12/13 11/4/14 12/3/15 16/5/16
f 7/16/17 9/10/18 10/8/19 8/7/20
f 4/20/21 11/4/22 14/12/23 13/19/24
f 6/22/25 5/21/26 7/17/27 8/18/28
f 2/13/29 15/14/30 4/15/31 13/19/32
f 13/19/33 14/12/34 16/5/35 2/13/36
f 12/3/37 15/14/38 2/13/39 16/5/40
f 18/23/41 17/24/42 24/25/43 23/26/44
f 17/24/45 20/27/46 22/28/47 24/25/48
f 23/26/49 21/29/50 19/30/51 18/23/52
f 21/31/53 23/26/54 24/25/55 22/28/56
f 20/32/57 19/33/58 21/34/59 22/35/60
f 25/36/61 27/37/62 36/38/63 106/39/64 35/40/65
f 43/41/66 44/42/67 32/43/68 30/44/69
f 26/45/70 28/46/71 47/47/72 48/48/73
f 50/49/74 49/50/75 51/51/76 52/52/77
f 34/53/78 28/54/79 26/55/80 33/56/81 105/57/82
f 45/58/83 46/59/84 30/44/85 32/43/86
f 38/60/87 37/61/88 27/37/89 25/36/90
f 31/62/91 29/63/92 40/64/93 39/65/94
f 29/63/95 31/62/96 42/66/97 41/67/98
f 53/68/99 54/69/100 55/70/101 56/71/102
f 57/72/103 58/73/104 59/74/105 60/75/106
f 38/76/107 39/77/108 49/50/109 50/49/110
f 39/77/111 40/78/112 51/51/113 49/50/114
f 40/78/115 37/79/116 52/52/117 51/51/118
f 37/79/119 38/76/120 50/49/121 52/52/122
f 42/80/123 44/81/124 54/69/125 53/68/126
f 44/81/127 43/82/128 55/70/129 54/69/130
f 43/82/131 41/83/132 56/71/133 55/70/134
f 41/83/135 42/80/136 53/68/137 56/71/138
f 45/84/139 48/85/140 58/73/141 57/72/142
f 48/85/143 47/86/144 59/74/145 58/73/146
f 47/86/147 46/87/148 60/75/149 59/74/150
f 46/87/151 45/84/152 57/72/153 60/75/154
f 61/88/155 62/89/156 64/90/157 63/91/158
f 63/91/159 64/90/160 27/92/161 65/93/162
f 65/93/163 27/92/164 25/94/165 66/95/166
f 66/95/167 25/94/168 62/89/169 61/88/170
f 62/89/171 25/94/172 27/92/173 64/90/174
f 66/95/175 61/88/176 63/91/177 65/93/178
f 70/96/179 27/97/180 25/98/181 67/99/182
f 28/100/183 27/97/184 70/96/185 68/101/186
f 83/102/187 80/103/188 26/104/189 69/105/190
f 91/106/191 92/107/192 93/108/193 94/109/194
f 77/110/195 78/111/196 68/101/197 70/96/198
f 26/104/199 28/100/200 68/101/201 69/105/202
f 77/112/203 84/113/204 76/114/205 82/115/206
f 81/116/207 79/117/208 83/118/209 78/119/210
f 91/106/211 94/109/212 95/120/213 96/121/214
f 25/98/215 75/122/216 84/123/217 67/99/218
f 84/113/219 71/124/220 76/114/221
f 76/114/222 71/124/223 73/125/224 82/115/225
f 73/125/226 74/126/227 81/116/228 82/115/229
f 72/127/230 79/117/231 81/116/232 74/126/233
f 72/127/234 83/118/235 79/117/236
f 82/115/237 81/116/238 78/119/239 77/112/240
f 72/127/241 108/128/242 83/118/243
f 78/111/244 83/102/245 69/105/246 68/101/247
f 77/110/248 70/96/249 67/99/250 84/123/251
f 75/129/252 35/130/253 107/131/254 84/113/255
f 72/127/256 87/132/257 108/128/258
f 95/120/259 97/133/260 98/134/261 96/121/262
f 88/135/263 87/132/264 72/127/265 74/126/266
f 89/136/267 88/135/268 74/126/269 73/125/270
f 71/124/271 90/137/272 89/136/273 73/125/274
f 85/138/275 87/132/276 93/139/277 92/140/278
f 87/132/279 88/135/280 94/141/281 93/139/282
f 88/135/283 89/136/284 95/142/285 94/141/286
f 89/136/287 90/137/288 97/143/289 95/142/290
f 90/137/291 86/144/292 98/145/293 97/143/294
f 99/146/295 100/147/296 102/148/297 101/149/298
f 101/149/299 102/148/300 103/150/301 28/151/302
f 28/151/303 103/150/304 104/152/305 26/153/306
f 26/153/307 104/152/308 100/147/309 99/146/310
f 100/147/311 104/152/312 103/150/313 102/148/314
f 26/153/315 99/146/316 101/149/317 28/151/318
f 36/154/319 34/53/320 105/57/321 106/155/322
f 107/131/323 90/137/324 71/124/325
f 84/113/326 107/131/327 71/124/328
f 83/118/329 108/128/330 33/156/331 80/157/332
f 35/130/333 86/144/334 85/138/335 33/156/336
f 107/131/337 108/128/338 87/132/339 90/137/340
f 90/137/341 87/132/342 85/138/343 86/144/344
f 35/130/345 33/156/346 108/128/347 107/131/348
v 49.809814 7.961487 8.196411
v 124.260986 7.961487 8.196411
v 49.809814 241.599518 8.196411
v 124.260986 241.599518 8.196411
v 49.809814 241.599518 4.098267
v 124.698486 241.599518 4.098267
v 49.809814 7.961487 4.098267
v 124.698486 7.961487 4.098267
vt 0.112134 0.354511
vt 0.111810 0.354510
vt 0.111817 0.353523
vt 0.112232 0.353524
vt 0.111816 0.353510
vt 0.112224 0.353511
vt 0.111809 0.354485
vt 0.112129 0.354486
vn 0.000000 0.000000 1.000000
vn 0.000000 0.000000 1.000000
vn 0.000000 0.000000 1.000000
vn 0.000000 0.000000 1.000000
vn 0.000000 1.000000 0.000000
vn 0.000000 1.000000 0.000000
vn 0.000000 1.000000 0.000000
vn 0.000000 1.000000 0.000000
vn 0.000000 0.000000 -1.000000
vn 0.000000 0.000000 -1.000000
vn 0.000000 0.000000 -1.000000
vn 0.000000 0.000000 -1.000000
vn 0.000000 -1.000000 0.000000
vn 0.000000 -1.000000 0.000000
vn 0.000000 -1.000000 0.000000
vn 0.000000 -1.000000 0.000000
vn 0.994350 0.000000 0.106152
vn 0.994350 0.000000 0.106152
vn 0.994350 0.000000 0.106152
vn 0.994350 0.000000 0.106152
vn -1.000000 0.000000 0.000000
vn -1.000000 0.000000 0.000000
vn -1.000000 0.000000 0.000000
vn -1.000000 0.000000 0.000000
s off
f 109/158/349 110/159/350 112/160/351 111/161/352
f 111/161/353 112/160/354 114/162/355 113/163/356
f 113/163/357 114/162/358 116/164/359 115/165/360
f 115/165/361 116/164/362 110/159/363 109/158/364
f 110/159/365 116/164/366 114/162/367 112/160/368
f 115/165/369 109/158/370 111/161/371 113/163/372
v 199.587158 7.961487 8.196411
v 125.280396 7.961487 8.196411
v 199.587158 241.599518 8.196411
v 125.280396 241.599518 8.196411
v 199.587158 241.599518 4.098267
v 124.698486 241.599518 4.098267
v 199.587158 7.961487 4.098267
v 124.698486 7.961487 4.098267
vt 0.111901 0.354510
vt 0.112225 0.354511
vt 0.112096 0.353524
vt 0.111681 0.353523
vt 0.112107 0.353511
vt 0.111700 0.353510
vt 0.112232 0.354486
vt 0.111913 0.354485
vn 0.000000 0.000000 1.000000
vn 0.000000 0.000000 1.000000
vn 0.000000 0.000000 1.000000
vn 0.000000 0.000000 1.000000
vn 0.000000 1.000000 -0.000006
vn 0.000000 1.000000 -0.000006
vn 0.000000 1.000000 -0.000006
vn 0.000000 1.000000 -0.000006
vn 0.000000 0.000000 -1.000000
vn 0.000000 0.000000 -1.000000
vn 0.000000 0.000000 -1.000000
vn 0.000000 0.000000 -1.000000
vn 0.000000 -1.000000 0.000000
vn 0.000000 -1.000000 0.000000
vn 0.000000 -1.000000 0.000000
vn 0.000000 -1.000000 0.000000
vn -0.990069 0.000000 0.140583
vn -0.990069 0.000000 0.140583
vn -0.990069 0.000000 0.140583
vn -0.990069 0.000000 0.140583
vn 1.000000 0.000000 0.000000
vn 1.000000 0.000000 0.000000
vn 1.000000 0.000000 0.000000
vn 1.000000 0.000000 0.000000
s off
f 117/166/373 119/169/374 120/168/375 118/167/376
f 119/169/377 121/171/378 122/170/379 120/168/380
f 121/171/381 123/173/382 124/172/383 122/170/384
f 123/173/385 117/166/386 118/167/387 124/172/388
f 118/167/389 120/168/390 122/170/391 124/172/392
f 123/173/393 121/171/394 119/169/395 117/166/396
