# This file uses centimeters as units for non-parametric coordinates.

v 0.000000 0.000000 0.000000
v 249.999146 0.000000 0.000000
v 0.000000 299.700073 0.000000
v 249.999146 299.700073 0.000000
v 0.000000 299.700073 -249.999146
v 249.999146 299.700073 -249.999146
v 0.000000 0.000000 -249.999146
v 249.999390 0.000000 -249.999146
v 198.111206 0.000000 0.000122
v 249.999146 299.700073 0.000000
v 51.887939 0.000000 0.000122
v 0.000000 299.700073 0.000000
v 0.000000 299.700073 -87.499634
v 0.000000 0.000000 -87.499634
v 0.000000 0.000000 -162.499390
v 0.000000 299.700073 -162.499390
v 87.500000 299.700073 -249.999146
v 87.500000 0.000000 -249.999146
v 162.499634 299.700073 -249.999146
v 162.499634 0.000000 -249.999146
v 249.999390 0.000000 -162.499390
v 249.999390 299.700073 -162.499390
v 249.999390 299.700073 -87.499634
v 249.999390 0.000000 -87.499634
v 4.392822 0.000000 -159.198853
v 4.392822 0.000000 -90.799927
v 4.392822 299.700073 -159.198853
v 4.392822 299.700073 -90.799927
v 90.800415 0.000000 -245.605835
v 159.199341 0.000000 -245.605835
v 159.199341 299.700073 -245.605835
v 90.800415 299.700073 -245.605835
v 245.606689 0.000000 -159.198853
v 245.606689 0.000000 -90.799927
v 245.606689 299.700073 -90.799927
v 245.606689 299.700073 -159.198853
v -15.000122 0.000000 9.231567
v 0.000000 0.000000 9.231567
v -15.000122 299.700073 9.231567
v 0.000000 299.700073 9.231567
v -15.000122 299.700073 0.000000
v -15.000122 0.000000 0.000000
v 0.000000 0.000000 14.999878
v 249.999268 299.700073 14.999878
v 249.999268 0.000000 14.999878
v 0.000000 299.700073 14.999878
v 51.887939 0.000000 22.540649
v 198.111206 0.000000 22.540649
v 51.887939 236.991119 22.540649
v 198.111206 236.991119 22.540649
v 43.584839 0.000000 0.000000
v 43.584839 0.000000 22.540649
v 43.584839 245.394379 14.999878
v 206.414429 245.394379 14.999878
v 206.414429 0.000000 22.540649
v 206.414429 0.000000 0.000000
v 206.414429 245.394379 22.540649
v 43.584839 245.394379 22.540649
v 206.414429 0.000000 14.999878
v 43.584839 0.000000 14.999878
v 198.111206 7.961517 0.000000
v 51.887939 7.961517 0.000000
v 198.111206 7.961517 8.196655
v 198.111206 236.991119 8.196655
v 51.887939 236.991119 8.196655
v 51.887939 7.961517 8.196655
v 239.487183 249.796387 0.000000
v 242.431030 7.961517 0.000000
v 242.431030 7.961517 8.196655
v 239.487183 249.796387 8.196655
v 10.511963 249.796387 8.196655
v 10.511963 249.796387 0.000000
v 7.567993 7.961517 8.196655
v 7.567993 7.961517 0.000000
v 249.999023 0.000000 9.231567
v 264.999146 0.000000 9.231567
v 249.999023 299.700073 9.231567
v 264.999146 299.700073 9.231567
v 264.999146 299.700073 0.000000
v 264.999146 0.000000 0.000000
v 198.111206 249.796387 0.000122
v 51.887939 249.796387 0.000122
v 51.887939 0.000000 14.999878
v 198.111206 0.000000 14.999878
vt 0.113129 0.276439
vt 0.112459 0.276383
vt 0.112401 0.275606
vt 0.113179 0.275638
vt 0.112580 0.275439
vt 0.113188 0.275458
vt 0.112607 0.276083
vt 0.113147 0.276119
vt 0.113332 0.275943
vt 0.113567 0.275945
vt 0.112962 0.276425
vt 0.112985 0.275630
vt 0.113182 0.275575
vt 0.113135 0.276327
vt 0.113141 0.276231
vt 0.113185 0.275521
vt 0.112975 0.275451
vt 0.112958 0.276106
vt 0.112793 0.275446
vt 0.112796 0.276096
vt 0.112555 0.276188
vt 0.112518 0.275497
vt 0.112464 0.275547
vt 0.112511 0.276278
vt 0.113469 0.256315
vt 0.113479 0.256123
vt 0.113611 0.255970
vt 0.113599 0.256236
vt 0.113254 0.255869
vt 0.113066 0.255856
vt 0.113036 0.255604
vt 0.113297 0.255623
vt 0.112806 0.256074
vt 0.112788 0.256264
vt 0.112648 0.256166
vt 0.112675 0.255903
vt 0.113481 0.256325
vt 0.113492 0.256115
vt 0.113629 0.255959
vt 0.113616 0.256250
vt 0.113264 0.255858
vt 0.113057 0.255843
vt 0.113025 0.255587
vt 0.113310 0.255607
vt 0.112795 0.256064
vt 0.112775 0.256273
vt 0.112629 0.256178
vt 0.112659 0.255889
vt 0.091376 0.229377
vt 0.091316 0.229360
vt 0.091539 0.228406
vt 0.091622 0.228422
vt 0.091545 0.228377
vt 0.091627 0.228393
vt 0.091323 0.229331
vt 0.091382 0.229347
vt 0.002289 0.751610
vt 0.002292 0.751620
vt 0.002356 0.751890
vt 0.002354 0.751884
vt 0.002038 0.751684
vt 0.002031 0.751676
vt 0.002064 0.751917
vt 0.002073 0.751922
vt 0.002022 0.751928
vt 0.002013 0.751923
vt 0.079833 0.230349
vt 0.080123 0.230947
vt 0.080101 0.231007
vt 0.079820 0.230395
vt 0.044826 0.953366
vt 0.205730 0.953366
vt 0.111943 0.327755
vt 0.111930 0.328735
vt 0.111932 0.328748
vt 0.111945 0.327757
vt 0.111894 0.328711
vt 0.111895 0.328619
vt 0.111898 0.328636
vt 0.111900 0.328701
vt 0.111228 0.327758
vt 0.111284 0.328755
vt 0.111289 0.328742
vt 0.111234 0.327756
vt 0.079151 0.230296
vt 0.079159 0.230248
vt 0.002289 0.751898
vt 0.002285 0.751892
vt 0.111909 0.327794
vt 0.111267 0.327795
vt 0.111315 0.328707
vt 0.111331 0.328717
vt 0.002277 0.751899
vt 0.002274 0.751896
vt 0.111319 0.328641
vt 0.111327 0.328624
vt 0.079123 0.230877
vt 0.079134 0.230815
vt 0.111275 0.327792
vt 0.111906 0.327791
vt 0.111319 0.328641
vt 0.111327 0.328624
vt 0.111275 0.327792
vt 0.111906 0.327791
vt 0.111898 0.328636
vt 0.111895 0.328619
vt 0.091614 0.229377
vt 0.091562 0.229362
vt 0.091444 0.228400
vt 0.091512 0.228414
vt 0.091463 0.228377
vt 0.091531 0.228390
vt 0.091576 0.229337
vt 0.091627 0.229351
vt 0.113357 0.276939
vt 0.112982 0.275709
vt 0.113186 0.276931
vt 0.113301 0.276155
vt 0.112696 0.276146
vt 0.112691 0.275939
vt 0.111897 0.328707
vt 0.111323 0.328712
vt 0.248799 0.997789
vt 0.001757 0.997789
vt 0.205730 0.752629
vt 0.248799 0.752629
vt 0.001757 0.752629
vt 0.044826 0.752629
vt 0.002078 0.751918
vt 0.002083 0.751921
vn 0.000002 0.000000 -1.000000
vn 0.000000 0.000000 -0.000000
vn 0.000000 0.000000 -0.000000
vn 0.000002 0.000000 -1.000000
vn 0.000002 0.000000 -1.000000
vn 0.000000 0.000000 1.000000
vn 0.000000 0.000000 1.000000
vn 0.000000 0.000000 1.000000
vn 0.000000 0.000000 1.000000
vn -1.000000 0.000000 -0.000003
vn -1.000000 0.000000 -0.000003
vn -1.000000 0.000000 -0.000003
vn -1.000000 0.000000 -0.000003
vn 1.000000 0.000000 0.000000
vn 1.000000 0.000000 0.000000
vn 1.000000 0.000000 0.000000
vn 1.000000 0.000000 0.000000
vn -0.000000 0.000000 -0.000000
vn -0.000000 0.000000 -0.000000
vn -0.000002 0.000000 -1.000000
vn -0.000002 0.000000 -1.000000
vn -0.000002 0.000000 -1.000000
vn -1.000000 -0.000000 0.000001
vn -1.000000 -0.000000 0.000001
vn -1.000000 -0.000000 0.000001
vn -1.000000 -0.000000 0.000001
vn 1.000000 0.000000 0.000000
vn 1.000000 0.000000 0.000000
vn 1.000000 0.000000 0.000000
vn 1.000000 0.000000 0.000000
vn 1.000000 0.000000 0.000000
vn 1.000000 0.000000 0.000000
vn 1.000000 0.000000 0.000000
vn 1.000000 0.000000 0.000000
vn 0.000000 0.000000 1.000000
vn 0.000000 0.000000 1.000000
vn 0.000000 0.000000 1.000000
vn 0.000000 0.000000 1.000000
vn 0.000000 0.000000 1.000000
vn 0.000000 0.000000 1.000000
vn 0.000000 0.000000 1.000000
vn 0.000000 0.000000 1.000000
vn -1.000000 0.000000 0.000000
vn -1.000000 0.000000 0.000000
vn -1.000000 0.000000 0.000000
vn -1.000000 0.000000 0.000000
vn 0.000000 -1.000000 0.000000
vn 0.000000 -1.000000 0.000000
vn 0.000000 -1.000000 0.000000
vn 0.000000 -1.000000 0.000000
vn 0.600690 0.000000 -0.799482
vn 0.600690 0.000000 -0.799482
vn 0.600690 0.000000 -0.799482
vn 0.600690 0.000000 -0.799482
vn 0.000000 1.000000 0.000000
vn 0.000000 1.000000 0.000000
vn 0.000000 1.000000 0.000000
vn 0.000000 1.000000 0.000000
vn 0.600661 0.000000 0.799504
vn 0.600661 0.000000 0.799504
vn 0.600661 0.000000 0.799504
vn 0.600661 0.000000 0.799504
vn 0.000000 -1.000000 0.000000
vn 0.000000 -1.000000 0.000000
vn 0.000000 -1.000000 0.000000
vn 0.000000 -1.000000 0.000000
vn 0.799537 0.000000 0.600617
vn 0.799537 0.000000 0.600617
vn 0.799537 0.000000 0.600617
vn 0.799537 0.000000 0.600617
vn 0.000000 1.000000 0.000005
vn 0.000000 1.000000 0.000005
vn 0.000000 1.000000 0.000005
vn 0.000000 1.000000 0.000005
vn -0.799526 0.000000 0.600631
vn -0.799526 0.000000 0.600631
vn -0.799526 0.000000 0.600631
vn -0.799526 0.000000 0.600631
vn 0.000000 -1.000000 0.000000
vn 0.000000 -1.000000 0.000000
vn 0.000000 -1.000000 0.000000
vn 0.000000 -1.000000 0.000000
vn -0.600671 0.000000 0.799496
vn -0.600671 0.000000 0.799496
vn -0.600671 0.000000 0.799496
vn -0.600671 0.000000 0.799496
vn 0.000000 1.000000 0.000000
vn 0.000000 1.000000 0.000000
vn 0.000000 1.000000 0.000000
vn 0.000000 1.000000 0.000000
vn -0.600700 0.000000 -0.799474
vn -0.600700 0.000000 -0.799474
vn -0.600700 0.000000 -0.799474
vn -0.600700 0.000000 -0.799474
vn 0.000000 0.000000 1.000000
vn 0.000000 0.000000 1.000000
vn 0.000000 0.000000 1.000000
vn 0.000000 0.000000 1.000000
vn 0.000000 1.000000 0.000000
vn 0.000000 1.000000 0.000000
vn 0.000000 1.000000 0.000000
vn 0.000000 1.000000 0.000000
vn 0.000000 0.000000 -1.000000
vn 0.000000 0.000000 -1.000000
vn 0.000000 0.000000 -1.000000
vn 0.000000 0.000000 -1.000000
vn 0.000000 -1.000000 0.000000
vn 0.000000 -1.000000 0.000000
vn 0.000000 -1.000000 0.000000
vn 0.000000 -1.000000 0.000000
vn 1.000000 0.000000 0.000000
vn 1.000000 0.000000 0.000000
vn 1.000000 0.000000 0.000000
vn 1.000000 0.000000 0.000000
vn -1.000000 0.000000 0.000000
vn -1.000000 0.000000 0.000000
vn -1.000000 0.000000 0.000000
vn -1.000000 0.000000 0.000000
vn -1.000000 0.000000 0.000000
vn -1.000000 0.000000 0.000000
vn -1.000000 0.000000 0.000000
vn -1.000000 0.000000 0.000000
vn 0.000000 1.000000 0.000001
vn 0.000000 1.000000 0.000001
vn 0.000000 1.000000 0.000001
vn 0.000000 1.000000 0.000001
vn 0.000000 -1.000000 0.000000
vn 0.000000 -1.000000 0.000000
vn 0.000000 -1.000000 0.000000
vn 0.000000 -1.000000 0.000000
vn -0.999926 -0.012172 0.000000
vn -0.999926 -0.012172 0.000000
vn -0.999926 -0.012172 0.000000
vn -0.999926 -0.012172 0.000000
vn 0.000000 0.000000 1.000000
vn 0.000000 0.000000 1.000000
vn 0.000000 0.000000 1.000000
vn 0.000000 0.000000 1.000000
vn 1.000000 0.000000 -0.000008
vn 1.000000 0.000000 -0.000008
vn 1.000000 0.000000 -0.000008
vn 1.000000 0.000000 -0.000008
vn -1.000000 0.000000 0.000000
vn -1.000000 0.000000 0.000000
vn -1.000000 0.000000 0.000000
vn -1.000000 0.000000 0.000000
vn 1.000000 0.000000 0.000000
vn 1.000000 0.000000 0.000000
vn 1.000000 0.000000 0.000000
vn 1.000000 0.000000 0.000000
vn 0.000000 -1.000000 0.000000
vn 0.000000 -1.000000 0.000000
vn 0.000000 -1.000000 0.000000
vn 0.000000 -1.000000 0.000000
vn 0.000000 -1.000000 0.000000
vn 0.000000 -1.000000 0.000000
vn 0.000000 -1.000000 0.000000
vn 0.000000 -1.000000 0.000000
vn 0.000000 -1.000000 0.000000
vn 0.000000 -1.000000 0.000000
vn 0.000000 -1.000000 0.000000
vn 0.000000 0.000000 1.000000
vn 0.000000 0.000000 1.000000
vn 0.000000 0.000000 1.000000
vn 0.000000 0.000000 1.000000
vn 0.000000 0.000000 1.000000
vn 0.000000 0.000000 1.000000
vn 0.000000 0.000000 1.000000
vn 0.000000 0.000000 1.000000
vn 0.000000 0.000000 1.000000
vn 0.000000 0.000000 1.000000
vn 0.000000 0.000000 1.000000
vn 0.000000 0.000000 1.000000
vn 0.000000 -1.000000 0.000000
vn 0.000000 -1.000000 0.000000
vn 0.000000 -1.000000 0.000000
vn 0.000000 1.000000 0.000000
vn 0.000000 1.000000 0.000000
vn 0.000000 1.000000 0.000000
vn 0.000000 1.000000 0.000000
vn 0.000000 -1.000000 0.000000
vn 0.000000 -1.000000 0.000000
vn 0.000000 -1.000000 0.000000
vn 0.000000 0.000000 1.000000
vn 0.000000 0.000000 1.000000
vn 0.000000 0.000000 1.000000
vn 0.000000 0.000000 1.000000
vn -0.000000 0.000000 1.000000
vn -0.000000 0.000000 1.000000
vn -0.000000 0.000000 1.000000
vn -0.000000 0.000000 1.000000
vn 0.000000 -1.000000 0.000000
vn 0.000000 -1.000000 0.000000
vn 0.000000 -1.000000 0.000000
vn 0.000000 -1.000000 0.000000
vn -1.000000 0.000000 0.000000
vn -1.000000 0.000000 0.000000
vn -1.000000 0.000000 0.000000
vn 0.999926 -0.012173 0.000000
vn 0.999926 -0.012173 0.000000
vn 0.999926 -0.012173 0.000000
vn 0.999926 -0.012173 0.000000
vn -1.000000 0.000000 0.000000
vn -1.000000 0.000000 0.000000
vn -1.000000 0.000000 0.000000
vn -1.000000 0.000000 0.000000
vn 0.000000 -1.000000 0.000000
vn 0.000000 -1.000000 0.000000
vn 0.000000 -1.000000 0.000000
vn 0.000000 -1.000000 0.000000
vn 1.000000 0.000000 0.000000
vn 1.000000 0.000000 0.000000
vn 1.000000 0.000000 0.000000
vn 1.000000 0.000000 0.000000
vn 0.000000 1.000000 0.000000
vn 0.000000 1.000000 0.000000
vn 0.000000 1.000000 0.000000
vn 0.000000 1.000000 0.000000
vn 0.000000 0.000000 -1.000000
vn 0.000000 0.000000 -1.000000
vn 0.000000 0.000000 -1.000000
vn 0.000000 0.000000 -1.000000
vn 0.000000 0.000000 -1.000000
vn 0.000000 0.000000 -1.000000
vn 0.000000 0.000000 -1.000000
vn 0.000000 0.000000 -1.000000
vn 0.000000 0.000000 -1.000000
vn 0.000000 0.000000 -1.000000
vn 0.000000 0.000000 -1.000000
vn 0.000000 0.000000 -1.000000
vn 0.000000 1.000000 0.000000
vn 0.000000 1.000000 0.000000
vn 0.000000 1.000000 0.000000
vn 0.000000 1.000000 0.000000
vn 0.000000 0.000000 1.000000
vn 0.000000 0.000000 1.000000
vn 0.000000 0.000000 1.000000
vn 0.000000 0.000000 1.000000
vn 0.000000 1.000000 -0.000000
vn 0.000000 1.000000 -0.000000
vn 0.000000 1.000000 -0.000000
vn 0.000000 1.000000 -0.000000
vn 0.000000 0.000000 -1.000000
vn 0.000000 0.000000 -1.000000
vn 0.000000 0.000000 -1.000000
vn 0.000000 0.000000 -1.000000
vn 0.000000 -1.000000 0.000000
vn 0.000000 -1.000000 0.000000
vn 0.000000 -1.000000 0.000000
vn 0.000000 -1.000000 0.000000
vn 1.000000 0.000000 0.000000
vn 1.000000 0.000000 0.000000
vn 1.000000 0.000000 0.000000
vn 1.000000 0.000000 0.000000
vn -1.000000 0.000000 -0.000013
vn -1.000000 0.000000 -0.000013
vn -1.000000 0.000000 -0.000013
vn -1.000000 0.000000 -0.000013
vn 0.000000 -0.000002 -1.000000
vn 0.000000 -0.000002 -1.000000
vn 0.000000 -0.000002 -1.000000
vn 0.000000 -0.000002 -1.000000
vn 1.000000 0.000001 0.000000
vn 1.000000 0.000000 0.000000
vn 1.000000 0.000000 0.000000
vn 0.000000 -1.000000 0.000000
vn 0.000000 -1.000000 0.000000
vn 0.000000 -1.000000 0.000000
vn 0.000000 -1.000000 0.000000
vn 0.000000 -1.000000 0.000000
vn 0.000000 -1.000000 0.000000
vn 0.000000 -1.000000 0.000000
vn 0.000000 -0.000015 -1.000000
vn 0.000000 -0.000015 -1.000000
vn 0.000000 -0.000015 -1.000000
vn 0.000000 -0.000015 -1.000000
vn 0.000000 0.649638 0.760244
vn 0.000000 0.649638 0.760244
vn 0.000000 0.649638 0.760244
vn 0.000000 0.649638 0.760244
vn 0.000000 1.000000 0.000000
vn 0.000000 1.000000 0.000000
vn 0.000000 1.000000 0.000000
vn 0.000000 1.000000 0.000000
vn 0.000000 -1.000000 0.000000
vn 0.000000 -1.000000 0.000000
vn 0.000000 -1.000000 0.000000
vn 0.000000 -1.000000 0.000000
s off
f 1/1/1 3/4/2 12/12/3 82/116/4 11/11/5
f 19/19/6 20/20/7 8/7/8 6/5/9
f 2/2/10 4/3/11 23/23/12 24/24/13
f 26/25/14 25/26/15 27/27/16 28/28/17
f 10/9/18 4/10/19 2/115/20 9/117/21 81/118/22
f 21/21/23 22/22/24 6/5/25 8/7/26
f 14/14/27 13/13/28 3/4/29 1/1/30
f 7/8/31 5/6/32 16/16/33 15/15/34
f 5/6/35 7/8/36 18/18/37 17/17/38
f 29/29/39 30/30/40 31/31/41 32/32/42
f 33/33/43 34/34/44 35/35/45 36/36/46
f 14/37/47 15/38/48 25/26/49 26/25/50
f 15/38/51 16/39/52 27/27/53 25/26/54
f 16/39/55 13/40/56 28/28/57 27/27/58
f 13/40/59 14/37/60 26/25/61 28/28/62
f 18/41/63 20/42/64 30/30/65 29/29/66
f 20/42/67 19/43/68 31/31/69 30/30/70
f 19/43/71 17/44/72 32/32/73 31/31/74
f 17/44/75 18/41/76 29/29/77 32/32/78
f 21/45/79 24/46/80 34/34/81 33/33/82
f 24/46/83 23/47/84 35/35/85 34/34/86
f 23/47/87 22/48/88 36/36/89 35/35/90
f 22/48/91 21/45/92 33/33/93 36/36/94
f 37/49/95 38/50/96 40/51/97 39/52/98
f 39/52/99 40/51/100 3/53/101 41/54/102
f 41/54/103 3/53/104 1/55/105 42/56/106
f 42/56/107 1/55/108 38/50/109 37/49/110
f 38/50/111 1/55/112 3/53/113 40/51/114
f 42/56/115 37/49/116 39/52/117 41/54/118
f 46/57/119 3/58/120 1/59/121 43/60/122
f 4/61/123 3/58/124 46/57/125 44/62/126
f 59/63/127 56/64/128 2/65/129 45/66/130
f 67/67/131 68/68/132 69/69/133 70/70/134
f 53/71/135 54/72/136 44/123/137 46/124/138
f 2/65/139 4/61/140 44/62/141 45/66/142
f 53/73/143 60/74/144 52/75/145 58/76/146
f 57/81/147 55/82/148 59/83/149 54/84/150
f 67/67/151 70/70/152 71/85/153 72/86/154
f 1/59/155 51/87/156 60/88/157 43/60/158
f 60/74/159 47/80/160 52/75/161
f 52/75/162 47/80/163 49/89/164 58/76/165
f 49/89/166 50/90/167 57/81/168 58/76/169
f 48/91/170 55/82/171 57/81/172 50/90/173
f 48/91/174 59/83/175 55/82/176
f 58/76/177 57/81/178 54/84/179 53/73/180
f 48/91/181 84/122/182 59/83/183
f 54/72/184 59/125/185 45/126/186 44/123/187
f 53/71/188 46/124/189 43/127/190 60/128/191
f 51/87/192 11/93/193 83/94/194 60/88/195
f 48/91/196 63/95/197 84/122/198
f 71/85/199 73/97/200 74/98/201 72/86/202
f 64/99/203 63/95/204 48/91/205 50/90/206
f 65/100/207 64/99/208 50/90/209 49/89/210
f 47/80/211 66/79/212 65/100/213 49/89/214
f 61/96/215 63/95/216 69/101/217 68/102/218
f 63/95/219 64/99/220 70/103/221 69/101/222
f 64/99/223 65/100/224 71/104/225 70/103/226
f 65/100/227 66/79/228 73/105/229 71/104/230
f 66/79/231 62/78/232 74/106/233 73/105/234
f 75/107/235 76/108/236 78/109/237 77/110/238
f 77/110/239 78/109/240 79/111/241 4/112/242
f 4/112/243 79/111/244 80/113/245 2/114/246
f 2/114/247 80/113/248 76/108/249 75/107/250
f 76/108/251 80/113/252 79/111/253 78/109/254
f 2/114/255 75/107/256 77/110/257 4/112/258
f 12/120/259 10/9/260 81/118/261 82/119/262
f 83/121/263 66/79/264 47/80/265
f 60/74/266 83/121/267 47/80/268
f 59/63/269 84/129/270 9/130/271 56/64/272
f 11/77/273 62/78/274 61/96/275 9/92/276
f 83/121/277 84/122/278 63/95/279 66/79/280
f 66/79/281 63/95/282 61/96/283 62/78/284
f 11/93/285 9/130/286 84/129/287 83/94/288
v 49.809814 7.961487 8.196411
v 124.260986 7.961487 8.196411
v 49.809814 241.599518 8.196411
v 124.260986 241.599518 8.196411
v 49.809814 241.599518 4.098267
v 124.698486 241.599518 4.098267
v 49.809814 7.961487 4.098267
v 124.698486 7.961487 4.098267
vt 0.112134 0.354511
vt 0.111810 0.354510
vt 0.111817 0.353523
vt 0.112232 0.353524
vt 0.111816 0.353510
vt 0.112224 0.353511
vt 0.111809 0.354485
vt 0.112129 0.354486
vn 0.000000 0.000000 1.000000
vn 0.000000 0.000000 1.000000
vn 0.000000 0.000000 1.000000
vn 0.000000 0.000000 1.000000
vn 0.000000 1.000000 0.000000
vn 0.000000 1.000000 0.000000
vn 0.000000 1.000000 0.000000
vn 0.000000 1.000000 0.000000
vn 0.000000 0.000000 -1.000000
vn 0.000000 0.000000 -1.000000
vn 0.000000 0.000000 -1.000000
vn 0.000000 0.000000 -1.000000
vn 0.000000 -1.000000 0.000000
vn 0.000000 -1.000000 0.000000
vn 0.000000 -1.000000 0.000000
vn 0.000000 -1.000000 0.000000
vn 0.994350 0.000000 0.106152
vn 0.994350 0.000000 0.106152
vn 0.994350 0.000000 0.106152
vn 0.994350 0.000000 0.106152
vn -1.000000 0.000000 0.000000
vn -1.000000 0.000000 0.000000
vn -1.000000 0.000000 0.000000
vn -1.000000 0.000000 0.000000
s off
f 85/131/289 86/132/290 88/133/291 87/134/292
f 87/134/293 88/133/294 90/135/295 89/136/296
f 89/136/297 90/135/298 92/137/299 91/138/300
f 91/138/301 92/137/302 86/132/303 85/131/304
f 86/132/305 92/137/306 90/135/307 88/133/308
f 91/138/309 85/131/310 87/134/311 89/136/312
v 199.587158 7.961487 8.196411
v 125.280396 7.961487 8.196411
v 199.587158 241.599518 8.196411
v 125.280396 241.599518 8.196411
v 199.587158 241.599518 4.098267
v 124.698486 241.599518 4.098267
v 199.587158 7.961487 4.098267
v 124.698486 7.961487 4.098267
vt 0.111901 0.354510
vt 0.112225 0.354511
vt 0.112096 0.353524
vt 0.111681 0.353523
vt 0.112107 0.353511
vt 0.111700 0.353510
vt 0.112232 0.354486
vt 0.111913 0.354485
vn 0.000000 0.000000 1.000000
vn 0.000000 0.000000 1.000000
vn 0.000000 0.000000 1.000000
vn 0.000000 0.000000 1.000000
vn 0.000000 1.000000 -0.000006
vn 0.000000 1.000000 -0.000006
vn 0.000000 1.000000 -0.000006
vn 0.000000 1.000000 -0.000006
vn 0.000000 0.000000 -1.000000
vn 0.000000 0.000000 -1.000000
vn 0.000000 0.000000 -1.000000
vn 0.000000 0.000000 -1.000000
vn 0.000000 -1.000000 0.000000
vn 0.000000 -1.000000 0.000000
vn 0.000000 -1.000000 0.000000
vn 0.000000 -1.000000 0.000000
vn -0.990069 0.000000 0.140583
vn -0.990069 0.000000 0.140583
vn -0.990069 0.000000 0.140583
vn -0.990069 0.000000 0.140583
vn 1.000000 0.000000 0.000000
vn 1.000000 0.000000 0.000000
vn 1.000000 0.000000 0.000000
vn 1.000000 0.000000 0.000000
s off
f 93/139/313 95/142/314 96/141/315 94/140/316
f 95/142/317 97/144/318 98/143/319 96/141/320
f 97/144/321 99/146/322 100/145/323 98/143/324
f 99/146/325 93/139/326 94/140/327 100/145/328
f 94/140/329 96/141/330 98/143/331 100/145/332
f 99/146/333 97/144/334 95/142/335 93/139/336
