# This file uses centimeters as units for non-parametric coordinates.

v -53.227203 0.000000 -53.382813
v 52.991302 0.020813 -52.111694
v 52.191986 -3.052856 -51.072876
v -53.019196 -3.077057 -52.192383
v -52.871490 0.000000 51.970703
v 53.227142 0.000000 53.382568
v -52.871490 -3.077057 51.970703
v 53.227142 -3.033478 53.382568
v -45.771637 -3.097015 -44.860107
v 44.961273 -3.096985 -43.849731
v 45.096039 -3.055298 46.031494
v -52.871490 -3.077057 51.970703
v -38.153717 -3.055328 44.873535
v -45.640533 -3.056488 42.241089
v -26.233551 -3.097015 -44.722656
v -5.047760 -3.096985 -44.372559
v -16.148346 -3.096039 -42.431519
v 45.070404 -3.063232 30.786987
v 45.035980 -3.073914 13.014771
v 43.215668 -3.068268 19.386475
vt 0.384739 0.445921
vt 0.385353 0.445922
vt 0.384739 0.445921
vt 0.385353 0.445922
vt 0.385382 0.445908
vt 0.385382 0.445908
vt 0.384768 0.445908
vt 0.384768 0.445908
vt 0.386000 0.445177
vt 0.386000 0.445177
vt 0.386000 0.445177
vt 0.386000 0.445177
vt 0.004068 0.123878
vt 0.004730 0.124208
vt 0.004663 0.124205
vt 0.384240 0.446361
vt 0.004321 0.124152
vt 0.386000 0.445177
vt 0.004083 0.123905
vt 0.386000 0.445177
vt 0.004530 0.123851
vt 0.386000 0.445177
vt 0.004006 0.123825
vt 0.386000 0.445177
vt 0.003939 0.123756
vt 0.386000 0.445177
vt 0.004939 0.124248
vt 0.386000 0.445177
vt 0.004807 0.124228
vt 0.004593 0.123871
vt 0.384321 0.446391
vt 0.384239 0.446389
vt 0.384753 0.445460
vt 0.384604 0.445477
vt 0.384426 0.445451
vt 0.385237 0.446231
vt 0.385207 0.446113
vt 0.385239 0.445985
vn 0.010699 -0.341636 -0.939771
vn 0.010699 -0.341636 -0.939772
vn 0.010699 -0.341636 -0.939771
vn 0.010699 -0.341636 -0.939771
vn -0.000029 -1.000000 0.000466
vn -0.000020 -1.000000 0.000461
vn -0.000048 -1.000000 0.000453
vn -0.000048 -1.000000 0.000453
vn -0.000048 -1.000000 0.000453
vn -0.999442 -0.033316 0.002401
vn -0.999442 -0.033316 0.002401
vn -0.999442 -0.033316 0.002401
vn -0.999442 -0.033316 0.002401
vn -0.013306 0.000000 0.999911
vn -0.013306 0.000000 0.999911
vn -0.013306 0.000000 0.999912
vn -0.013306 0.000000 0.999912
vn 0.991394 -0.130777 -0.006003
vn 0.991394 -0.130777 -0.006003
vn 0.991394 -0.130777 -0.006003
vn 0.991394 -0.130777 -0.006003
vn 0.004950 -0.999988 0.000234
vn 0.003770 -0.999993 0.000369
vn 0.002097 -0.999998 0.000560
vn 0.002097 -0.999998 0.000560
vn 0.000207 -0.999988 -0.004818
vn 0.000207 -0.999988 -0.004818
vn 0.000205 -0.999989 -0.004794
vn 0.000118 -0.999993 -0.003772
vn 0.000000 -0.000000 0.000000
vn 0.000000 -0.000000 0.000000
vn 0.000229 -1.000000 0.000111
vn 0.000229 -1.000000 0.000111
vn 0.000229 -1.000000 0.000111
vn 0.000077 -1.000000 0.000212
vn 0.000077 -1.000000 0.000212
vn 0.000077 -1.000000 0.000212
vn 0.000000 -0.000000 0.000000
vn 0.000000 -0.000000 0.000000
vn 0.000013 -1.000000 0.000411
vn -0.000006 -1.000000 0.000453
vn 0.000712 -0.999999 -0.001585
vn -0.000048 -1.000000 0.000453
vn -0.000020 -1.000000 0.000461
vn -0.000006 -1.000000 0.000465
vn -0.000013 -1.000000 0.000488
vn -0.000029 -1.000000 0.000466
vn -0.000048 -1.000000 0.000453
vn -0.000006 -1.000000 0.000453
vn -0.000020 -1.000000 0.000461
vn -0.000029 -1.000000 0.000466
vn -0.000006 -1.000000 0.000453
vn -0.000029 -1.000000 0.000466
vn -0.000013 -1.000000 0.000488
vn -0.000012 -1.000000 0.000488
vn -0.000006 -1.000000 0.000465
vn -0.000006 -1.000000 0.000465
vn -0.000020 -1.000000 0.000461
vn -0.000006 -1.000000 0.000453
vn 0.000013 -1.000000 0.000411
vn 0.004992 -0.999988 0.000229
vn 0.003770 -0.999993 0.000369
vn 0.004950 -0.999988 0.000234
vn 0.004992 -0.999988 0.000229
vn 0.000118 -0.999993 -0.003772
vn 0.000205 -0.999989 -0.004794
vn 0.000034 -0.999996 -0.002795
vn 0.000034 -0.999996 -0.002795
s off
f 3/3/1 4/4/2 1/2/3 2/1/4
f 20/13/5 17/14/6 16/15/7 10/17/8 19/19/9
f 4/4/10 7/5/11 5/6/12 1/2/13
f 6/7/14 5/6/15 7/5/16 8/8/17
f 2/1/18 6/7/19 8/8/20 3/3/21
f 19/28/22 8/8/23 11/11/24 18/26/25
f 3/3/26 10/9/27 16/24/28 4/4/29
f 7/5/30 12/12/31 13/18/32 11/11/33 8/8/34
f 4/4/35 9/10/36 14/20/37 12/12/38 7/5/39
f 14/16/40 13/31/41 12/32/42
f 16/33/43 17/34/44 15/35/45
f 18/36/46 20/37/47 19/38/48
f 13/21/49 17/14/50 20/13/51
f 13/21/52 20/13/53 18/23/54 11/25/55
f 9/27/56 15/29/57 17/14/58 13/21/59 14/30/60
f 3/3/61 8/8/62 19/28/63 10/9/64
f 4/4/65 16/24/66 15/22/67 9/10/68
