# This file uses centimeters as units for non-parametric coordinates.

v 425.470215 42.163208 5.075439
v 425.470215 51.797241 5.075439
v 425.470215 42.163208 -0.000122
v 74.695679 51.797241 5.075439
v 74.958008 42.163208 5.075439
v 74.110596 42.163208 -0.000122
v 74.695679 51.797241 -0.000122
v 425.470215 51.797241 -0.000122
v 62.499939 0.000000 17.343750
v 62.499939 0.000000 -0.000122
v 249.999939 299.699951 7.694214
v 249.999939 299.699951 0.000000
v 249.999939 0.000000 7.694214
v 249.999939 0.000000 0.000000
v 62.499939 299.700073 17.343872
v 62.500000 299.700073 0.000000
v 76.466309 145.070557 7.694214
v 66.490906 0.000000 7.694214
v 76.466309 145.070557 -0.000122
v 76.466309 157.127808 7.694214
v 76.466309 157.127808 -0.000122
v 66.490906 299.699951 7.694214
v 66.490906 299.699951 17.343750
v 66.490906 0.000000 17.343750
v 76.466309 285.192261 7.694214
v 76.466309 285.192261 -0.000122
v 76.466309 14.507080 7.694214
v 76.466309 14.507080 -0.000122
v 243.117798 157.127808 7.694214
v 243.117798 145.070557 7.694214
v 241.954773 145.070557 -0.000122
v 241.954773 157.127808 -0.000122
v 243.117798 285.192261 7.694214
v 241.954773 285.192261 -0.000122
v 243.117798 14.507080 7.694214
v 241.954773 14.507080 -0.000122
v 249.999939 145.070557 7.694214
v 249.999939 157.127808 7.694214
v 437.499939 0.000000 17.343750
v 437.499939 0.000000 -0.000122
v 437.499939 299.700073 17.343872
v 437.499939 299.700073 0.000000
v 423.533569 145.070557 7.694214
v 433.509033 0.000000 7.694214
v 423.533569 145.070557 -0.000122
v 423.533569 157.127808 7.694214
v 423.533569 157.127808 -0.000122
v 433.509033 299.699951 7.694214
v 433.509033 299.699951 17.343750
v 433.509033 0.000000 17.343750
v 423.533569 285.192261 7.694214
v 423.533569 285.192261 -0.000122
v 423.533569 14.507080 7.694214
v 423.533569 14.507080 -0.000122
v 256.882141 157.127808 7.694214
v 256.882141 145.070557 7.694214
v 258.045166 145.070557 -0.000122
v 258.045166 157.127808 -0.000122
v 256.882141 285.192261 7.694214
v 258.045166 285.192261 -0.000122
v 256.882141 14.507080 7.694214
v 258.045166 14.507080 -0.000122
v 425.470215 249.147827 5.075439
v 425.470215 258.781860 5.075439
v 425.470215 249.147827 -0.000122
v 74.695679 258.781860 5.075439
v 74.958008 249.147827 5.075439
v 74.110596 249.147827 -0.000122
v 74.695679 258.781860 -0.000122
v 425.470215 258.781860 -0.000122
v 92.229919 285.901245 7.694214
v 116.346985 285.901245 7.694214
v 103.568237 287.662842 7.694214
v 102.112671 285.901245 6.435425
v 277.275513 258.225586 5.075439
v 302.966614 258.225586 5.075439
v 286.455750 258.225586 4.164673
v 286.492737 256.292114 5.075439
v 389.569641 249.709595 5.075439
v 364.992859 249.709595 5.075439
v 382.131531 251.462402 5.075439
v 382.186768 249.709595 4.332520
v 243.117737 55.215332 7.694458
v 243.117798 87.439697 7.694214
v 245.600708 68.739502 7.694214
v 243.117798 68.580688 6.205200
v 345.551270 13.146118 7.694214
v 313.875000 13.146118 7.694214
v 322.884277 13.146118 6.422485
v 323.563477 11.163818 7.803589
v 75.239380 126.574463 7.694214
v 75.239380 106.274048 7.694214
v 73.031250 116.249512 7.694214
v 75.239380 116.916504 5.512695
v -0.000031 0.000000 15.000122
v -0.000031 0.000000 0.000000
v 62.499939 0.000000 14.999756
v -0.000031 299.700073 14.999634
v -0.000031 299.700073 -0.000122
v 62.499939 299.700073 14.999756
v 499.999939 0.000000 14.999756
v 499.999939 0.000000 -0.000122
v 437.499939 0.000000 14.999756
v 499.999939 299.700073 14.999756
v 499.999939 299.700073 -0.000122
v 437.499939 299.700073 14.999756
v 62.499939 0.000000 -0.000122
v 62.499939 299.700073 -0.000122
v 437.499939 0.000000 -0.000122
v 437.499939 299.700073 -0.000122
vt 0.101685 0.278862
vt 0.102641 0.278615
vt 0.102657 0.278569
vt 0.101676 0.278814
vt 0.101688 0.278885
vt 0.102660 0.278630
vt 0.102676 0.278584
vt 0.101685 0.278836
vt 0.103040 0.279023
vt 0.103038 0.278904
vt 0.103032 0.278933
vt 0.103029 0.279036
vt 0.103074 0.278553
vt 0.103056 0.278569
vt 0.103036 0.279078
vt 0.103047 0.279065
vt 0.103042 0.278917
vt 0.103106 0.278544
vt 0.103069 0.278576
vt 0.103043 0.279084
vt 0.103065 0.279058
vt 0.103060 0.278560
vt 0.103042 0.278576
vt 0.103034 0.278848
vt 0.103049 0.278833
vt 0.103034 0.278867
vt 0.102704 0.278635
vt 0.102698 0.278614
vt 0.103048 0.278852
vt 0.102720 0.278626
vt 0.102715 0.278605
vt 0.103005 0.278554
vt 0.102963 0.278518
vt 0.102973 0.278527
vt 0.102599 0.278282
vt 0.102618 0.278271
vt 0.102753 0.278824
vt 0.102767 0.278815
vt 0.102747 0.278833
vt 0.102759 0.278823
vt 0.102692 0.278627
vt 0.102686 0.278606
vt 0.102624 0.278331
vt 0.102646 0.278321
vt 0.102739 0.278750
vt 0.102728 0.278727
vt 0.102728 0.278748
vt 0.102739 0.278772
vt 0.102431 0.278444
vt 0.102445 0.278435
vt 0.102526 0.278632
vt 0.102514 0.278640
vt 0.102270 0.278095
vt 0.102511 0.278650
vt 0.102499 0.278657
vt 0.102252 0.278102
vt 0.102421 0.278422
vt 0.102283 0.278084
vt 0.102246 0.278099
vt 0.102495 0.278654
vt 0.102518 0.278638
vt 0.102321 0.278134
vt 0.102436 0.278414
vt 0.102302 0.278143
vt 0.102674 0.278598
vt 0.102680 0.278619
vt 0.102693 0.278607
vt 0.102687 0.278585
vt 0.102596 0.278314
vt 0.102612 0.278302
vt 0.102647 0.278733
vt 0.102611 0.278715
vt 0.102641 0.278742
vt 0.102733 0.278808
vt 0.102743 0.278797
vt 0.101685 0.278862
vt 0.102269 0.278675
vt 0.102249 0.278671
vt 0.101676 0.278814
vt 0.101688 0.278885
vt 0.102660 0.278630
vt 0.102532 0.278652
vt 0.102676 0.278584
vt 0.102272 0.278670
vt 0.102294 0.278660
vt 0.102657 0.278569
vt 0.102928 0.278509
vt 0.102489 0.278654
vt 0.102525 0.278639
vt 0.102543 0.278640
vt 0.102641 0.278615
vt 0.101685 0.278836
vt 0.102653 0.278747
vt 0.103033 0.278895
vt 0.063169 0.151730
vt 0.063169 0.151730
vt 0.063169 0.151730
vt 0.063169 0.151730
vt 0.063027 0.175010
vt 0.063027 0.175010
vt 0.063027 0.175010
vt 0.063027 0.175010
vt 0.063169 0.151730
vt 0.063169 0.151730
vt 0.063169 0.151730
vt 0.063169 0.151730
vt 0.063027 0.175010
vt 0.063027 0.175010
vt 0.063027 0.175010
vt 0.063027 0.175010
vt 0.063383 0.175169
vt 0.063497 0.175173
vt 0.063496 0.175153
vt 0.063383 0.175149
vt 0.063527 0.174899
vt 0.063401 0.174894
vt 0.063400 0.174875
vt 0.063526 0.174879
vt 0.062596 0.175139
vt 0.062707 0.175143
vt 0.062713 0.175124
vt 0.062603 0.175120
vt 0.062651 0.174870
vt 0.062527 0.174865
vt 0.062536 0.174847
vt 0.062658 0.174851
vn 0.000000 0.000000 1.000000
vn 0.000000 0.000000 1.000000
vn 0.000000 0.000000 1.000000
vn 0.000000 0.000000 1.000000
vn 0.000000 -1.000000 0.000000
vn 0.000000 -1.000000 0.000000
vn 0.000000 -1.000000 0.000000
vn 0.000000 -1.000000 0.000000
vn 0.000000 1.000000 0.000000
vn 0.000000 1.000000 0.000000
vn 0.000000 1.000000 0.000000
vn 0.000000 1.000000 0.000000
vn 0.999838 0.012260 0.013212
vn 0.999838 0.012260 0.013212
vn 0.999838 0.012260 0.013212
vn 0.999838 0.012260 0.013212
vn 1.000000 0.000000 0.000000
vn 1.000000 0.000000 0.000000
vn 1.000000 0.000000 0.000000
vn 1.000000 0.000000 0.000000
vn 0.000000 0.000000 1.000000
vn 0.000000 0.000000 1.000000
vn 0.000000 0.000000 1.000000
vn 0.000031 1.000000 0.000000
vn 0.000031 1.000000 0.000000
vn 0.000031 1.000000 0.000000
vn 0.000031 1.000000 0.000000
vn 0.000000 -1.000000 0.000000
vn 0.000000 -1.000000 0.000000
vn 0.000000 -1.000000 0.000000
vn 0.000000 -1.000000 0.000000
vn 1.000000 0.000000 0.000000
vn 1.000000 0.000000 0.000000
vn 1.000000 0.000000 0.000000
vn 1.000000 0.000000 0.000000
vn 0.000000 0.000000 1.000000
vn 0.000000 0.000000 1.000000
vn 0.000000 0.000000 1.000000
vn 0.000000 0.000000 1.000000
vn 0.000000 -1.000000 0.000000
vn 0.000000 -1.000000 0.000000
vn 0.000000 -1.000000 0.000000
vn 0.000000 -1.000000 0.000000
vn 0.000000 1.000000 0.000000
vn 0.000000 1.000000 0.000000
vn 0.000000 1.000000 0.000000
vn 0.000000 1.000000 0.000000
vn 0.000000 0.000000 1.000000
vn 0.000000 0.000000 1.000000
vn 0.000000 0.000000 1.000000
vn 0.000000 0.000000 1.000000
vn 0.029201 -0.999054 0.032238
vn 0.029201 -0.999054 0.032238
vn 0.029201 -0.999054 0.032238
vn 0.029201 -0.999054 0.032238
vn 0.000000 1.000000 0.000008
vn 0.000000 1.000000 0.000008
vn 0.000000 1.000000 0.000008
vn 0.000000 1.000000 0.000008
vn 0.000000 1.000000 0.000000
vn 0.000000 1.000000 0.000000
vn 0.000000 1.000000 0.000000
vn 0.000000 1.000000 0.000000
vn 0.000000 0.000000 1.000000
vn 0.000000 0.000000 1.000000
vn 0.000000 0.000000 1.000000
vn 0.000000 0.000000 1.000000
vn 0.000000 -1.000000 0.000000
vn 0.000000 -1.000000 0.000000
vn 0.000000 -1.000000 0.000000
vn 0.000000 -1.000000 0.000000
vn 0.000000 0.000000 1.000000
vn 0.000000 0.000000 1.000000
vn 0.000000 0.000000 1.000000
vn 0.000000 0.000000 1.000000
vn -0.000000 0.000000 1.000000
vn -0.000000 0.000000 1.000000
vn -0.000000 0.000000 1.000000
vn -0.000000 0.000000 1.000000
vn -0.988768 0.000000 0.149456
vn -0.988768 0.000000 0.149456
vn -0.988768 0.000000 0.149456
vn -0.988768 0.000000 0.149456
vn -0.991408 -0.002546 0.130785
vn -0.991407 -0.002546 0.130785
vn -0.991408 -0.002546 0.130785
vn -0.991408 -0.002546 0.130785
vn 0.000026 -0.000001 1.000000
vn 0.000026 -0.000001 1.000000
vn 0.000026 -0.000001 1.000000
vn 0.000026 -0.000001 1.000000
vn 0.000016 -0.000000 1.000000
vn 0.000016 -0.000000 1.000000
vn 0.000016 -0.000000 1.000000
vn 0.000016 -0.000000 1.000000
vn 0.671893 0.148728 0.725562
vn 0.671893 0.148728 0.725562
vn 0.671893 0.148728 0.725562
vn 0.000000 0.000000 1.000000
vn 0.000000 0.000000 1.000000
vn 0.000000 0.000000 1.000000
vn -1.000000 0.000000 0.000000
vn -1.000000 0.000000 0.000000
vn -1.000000 0.000000 0.000000
vn -1.000000 0.000000 0.000000
vn -1.000000 0.000000 0.000000
vn -1.000000 0.000000 0.000000
vn -1.000000 0.000000 0.000000
vn -1.000000 0.000000 0.000000
vn 0.000000 0.000000 1.000000
vn 0.000000 0.000000 1.000000
vn 0.000000 0.000000 1.000000
vn 0.000000 0.000000 1.000000
vn -0.000031 1.000000 0.000000
vn -0.000031 1.000000 0.000000
vn -0.000031 1.000000 0.000000
vn -0.000031 1.000000 0.000000
vn 0.000000 -1.000000 0.000000
vn 0.000000 -1.000000 0.000000
vn 0.000000 -1.000000 0.000000
vn 0.000000 -1.000000 0.000000
vn -1.000000 0.000000 0.000000
vn -1.000000 0.000000 0.000000
vn -1.000000 0.000000 0.000000
vn -1.000000 0.000000 0.000000
vn 0.000000 0.000000 1.000000
vn 0.000000 0.000000 1.000000
vn 0.000000 0.000000 1.000000
vn 0.000000 0.000000 1.000000
vn 0.000000 -1.000000 0.000000
vn 0.000000 -1.000000 0.000000
vn 0.000000 -1.000000 0.000000
vn 0.000000 -1.000000 0.000000
vn 0.000000 1.000000 0.000000
vn 0.000000 1.000000 0.000000
vn 0.000000 1.000000 0.000000
vn 0.000000 1.000000 0.000000
vn 0.000000 0.000000 1.000000
vn 0.000000 0.000000 1.000000
vn 0.000000 0.000000 1.000000
vn 0.000000 0.000000 1.000000
vn 0.000000 -1.000000 0.000000
vn 0.000000 -1.000000 0.000000
vn 0.000000 -1.000000 0.000000
vn 0.000000 -1.000000 0.000000
vn -0.000000 1.000000 0.000008
vn -0.000000 1.000000 0.000008
vn -0.000000 1.000000 0.000008
vn -0.000000 1.000000 0.000008
vn -0.013958 0.999280 0.035287
vn -0.013958 0.999280 0.035287
vn -0.013958 0.999280 0.035287
vn -0.013958 0.999280 0.035287
vn 0.000000 -0.009797 0.999952
vn 0.000000 -0.009797 0.999952
vn 0.000000 -0.009797 0.999952
vn 0.000000 -1.000000 0.000000
vn 0.000000 -1.000000 0.000000
vn 0.000000 -1.000000 0.000000
vn 0.000000 -1.000000 0.000000
vn 0.000000 0.000000 1.000000
vn 0.000000 0.000000 1.000000
vn 0.000000 0.000000 1.000000
vn 0.000000 0.000000 1.000000
vn 0.000000 0.000000 1.000000
vn 0.000000 0.000000 1.000000
vn 0.000000 0.000000 1.000000
vn 0.000000 0.000000 1.000000
vn 0.988768 0.000000 0.149456
vn 0.988768 0.000000 0.149456
vn 0.988768 0.000000 0.149456
vn 0.988768 0.000000 0.149456
vn 0.988769 0.000000 0.149456
vn 0.988769 0.000000 0.149456
vn 0.988769 0.000000 0.149456
vn 0.988769 0.000000 0.149456
vn -0.000000 0.000000 1.000000
vn -0.000000 0.000000 1.000000
vn -0.000000 0.000000 1.000000
vn -0.000000 0.000000 1.000000
vn -0.000016 -0.000000 1.000000
vn -0.000016 -0.000000 1.000000
vn -0.000016 -0.000000 1.000000
vn -0.000016 -0.000000 1.000000
vn 0.000000 0.000000 1.000000
vn 0.000000 0.000000 1.000000
vn 0.000000 0.000000 1.000000
vn 0.000000 0.000000 1.000000
vn 0.000000 0.000000 1.000000
vn 0.000000 0.000000 1.000000
vn 0.000000 0.000000 1.000000
vn 0.000000 0.000000 1.000000
vn 0.000000 0.000000 1.000000
vn 0.000000 0.000000 1.000000
vn 0.000000 -0.991699 0.128578
vn 0.000000 -0.991699 0.128578
vn 0.000000 -0.991699 0.128578
vn -0.004075 0.999929 0.011243
vn -0.004075 0.999929 0.011243
vn -0.004075 0.999929 0.011243
vn -0.004075 0.999928 0.011243
vn 0.098028 -0.630947 0.769608
vn 0.098028 -0.630947 0.769608
vn 0.098028 -0.630947 0.769608
vn -0.005106 -0.999948 0.008778
vn -0.005106 -0.999949 0.008778
vn -0.005106 -0.999949 0.008778
vn -0.005106 -0.999949 0.008778
vn -0.074229 -0.538460 0.839375
vn -0.074229 -0.538460 0.839375
vn -0.074229 -0.538460 0.839375
vn 0.000000 0.000000 1.000000
vn 0.000000 0.000000 1.000000
vn 0.000000 0.000000 1.000000
vn 0.000000 0.000000 1.000000
vn 0.000000 0.000000 1.000000
vn 0.000000 0.000000 1.000000
vn 0.000000 0.000000 1.000000
vn 0.000000 -0.993986 0.109504
vn 0.000000 -0.993986 0.109504
vn 0.000000 -0.993986 0.109504
vn 0.089325 0.425829 0.900384
vn 0.089325 0.425829 0.900384
vn 0.089325 0.425829 0.900384
vn -0.049860 0.424825 0.903901
vn -0.049860 0.424825 0.903901
vn -0.049860 0.424825 0.903901
vn 0.039769 -0.388857 0.920439
vn 0.039769 -0.388857 0.920439
vn 0.039769 -0.388857 0.920439
vn -0.092148 -0.391037 0.915750
vn -0.092148 -0.391037 0.915750
vn -0.092148 -0.391037 0.915750
vn -0.013265 -0.999770 0.016828
vn -0.013265 -0.999770 0.016828
vn -0.013265 -0.999770 0.016828
vn -0.013265 -0.999770 0.016828
vn 0.001841 -0.999985 0.005172
vn 0.001841 -0.999985 0.005172
vn 0.001841 -0.999985 0.005172
vn 0.001841 -0.999985 0.005172
vn -0.000000 0.000000 1.000000
vn -0.000000 0.000000 1.000000
vn -0.000000 0.000000 1.000000
vn -0.000000 0.000000 1.000000
vn -0.000000 0.000000 1.000000
vn -0.000000 0.000000 1.000000
vn -0.000000 0.000000 1.000000
vn -0.000000 0.000000 1.000000
vn 0.000000 0.000000 1.000000
vn 0.000000 0.000000 1.000000
vn 0.000000 0.000000 1.000000
vn 0.000000 0.000000 1.000000
vn 0.002644 0.999988 0.004057
vn 0.002644 0.999988 0.004057
vn 0.002644 0.999988 0.004057
vn 0.002644 0.999988 0.004057
vn 0.000000 0.991198 0.132389
vn 0.000000 0.991198 0.132389
vn 0.000000 0.991198 0.132389
vn -0.509941 -0.067707 0.857541
vn -0.509941 -0.067707 0.857541
vn -0.509941 -0.067707 0.857541
vn -0.516446 0.094833 0.851052
vn -0.516446 0.094833 0.851052
vn -0.516446 0.094833 0.851052
vn 0.000000 0.000000 1.000000
vn 0.000000 0.000000 1.000000
vn 0.000000 0.000000 1.000000
vn 0.000000 0.000000 1.000000
vn 0.000000 0.000000 1.000000
vn 0.000000 0.000000 1.000000
vn 0.000000 0.000000 1.000000
vn -0.991404 0.003602 0.130788
vn -0.991404 0.003602 0.130788
vn -0.991404 0.003602 0.130788
vn -0.991404 0.003602 0.130788
vn -0.982886 0.000000 0.184216
vn -0.982886 0.000000 0.184216
vn -0.982886 0.000000 0.184216
vn 0.112474 0.593683 0.796800
vn 0.112474 0.593683 0.796800
vn 0.112474 0.593683 0.796800
vn -0.046399 0.560286 0.826999
vn -0.046399 0.560286 0.826999
vn -0.046399 0.560286 0.826998
vn 0.021070 0.999492 0.023905
vn 0.021070 0.999492 0.023905
vn 0.021070 0.999492 0.023905
vn 0.021070 0.999492 0.023905
vn 0.000000 0.978278 0.207299
vn 0.000000 0.978278 0.207299
vn 0.000000 0.978278 0.207299
vn 0.000894 0.005982 0.999982
vn 0.000894 0.005982 0.999982
vn 0.000894 0.005982 0.999982
vn 0.000894 0.005982 0.999982
vn -0.001319 0.006408 0.999979
vn -0.001319 0.006408 0.999979
vn -0.001319 0.006408 0.999979
vn -0.001319 0.006408 0.999979
vn 0.000000 0.000000 1.000000
vn 0.000000 0.000000 1.000000
vn 0.000000 0.000000 1.000000
vn 0.000000 0.000000 1.000000
vn 0.000000 0.000000 1.000000
vn 0.000000 0.000000 1.000000
vn 0.000000 0.000000 1.000000
vn 0.717553 -0.153458 0.679388
vn 0.717553 -0.153458 0.679388
vn 0.717553 -0.153458 0.679388
vn 0.997832 -0.047050 0.046012
vn 0.997832 -0.047050 0.046012
vn 0.997832 -0.047050 0.046012
vn 0.997832 -0.047050 0.046012
vn 0.976117 0.000000 0.217244
vn 0.976117 0.000000 0.217244
vn 0.976117 0.000000 0.217244
vn 0.000000 0.000000 1.000000
vn 0.000000 0.000000 1.000000
vn 0.000000 0.000000 1.000000
vn 0.000000 0.000000 1.000000
vn -1.000000 0.000000 -0.000002
vn -1.000000 0.000000 -0.000002
vn -1.000000 0.000000 -0.000002
vn -1.000000 0.000000 -0.000002
vn 1.000000 0.000000 0.000000
vn 1.000000 0.000000 0.000000
vn 1.000000 0.000000 0.000000
vn 1.000000 0.000000 0.000000
vn -1.000000 0.000000 0.000000
vn -1.000000 0.000000 0.000000
vn -1.000000 0.000000 0.000000
vn -1.000000 0.000000 0.000000
vn 0.000002 0.000001 1.000000
vn 0.000002 0.000001 1.000000
vn 0.000002 0.000001 1.000000
vn 0.000002 0.000001 1.000000
vn 1.000000 0.000000 0.000000
vn 1.000000 0.000000 0.000000
vn 1.000000 0.000000 0.000000
vn 1.000000 0.000000 0.000000
vn 0.000000 0.000000 1.000000
vn 0.000000 0.000000 1.000000
vn 0.000000 0.000000 1.000000
vn 0.000000 0.000000 1.000000
vn 0.000000 -1.000000 0.000000
vn 0.000000 -1.000000 0.000000
vn 0.000000 -1.000000 0.000000
vn 0.000000 -1.000000 0.000000
vn 0.000000 1.000000 0.000000
vn 0.000000 1.000000 0.000000
vn 0.000000 1.000000 0.000000
vn 0.000000 1.000000 0.000000
vn 0.000000 -1.000000 0.000000
vn 0.000000 -1.000000 0.000000
vn 0.000000 -1.000000 0.000000
vn 0.000000 -1.000000 0.000000
vn 0.000000 1.000000 0.000000
vn 0.000000 1.000000 0.000000
vn 0.000000 1.000000 0.000000
vn 0.000000 1.000000 0.000000
s off
f 5/1/1 1/2/2 2/3/3 4/4/4
f 6/5/5 3/6/6 1/2/7 5/1/8
f 4/4/9 2/3/10 8/7/11 7/8/12
f 28/9/13 94/10/14 92/11/15 27/12/16
f 22/13/17 23/14/18 24/15/19 18/16/20
f 22/13/21 18/16/22 93/17/23
f 16/18/24 15/19/25 23/14/26 22/13/27
f 9/20/28 10/21/29 18/16/30 24/15/31
f 26/22/32 25/23/33 20/24/34 21/25/35
f 20/24/36 17/26/37 30/27/38 29/28/39
f 17/26/40 19/29/41 31/30/42 30/27/43
f 21/25/44 20/24/45 29/28/46 32/31/47
f 22/13/48 25/23/49 71/32/50 73/33/51
f 25/23/52 26/22/53 74/34/54 71/32/55
f 16/18/56 22/13/57 11/35/58 12/36/59
f 28/9/60 27/12/61 35/37/62 36/38/63
f 27/12/64 18/16/65 13/39/66 35/37/67
f 18/16/68 10/21/69 14/40/70 13/39/71
f 37/41/72 38/42/73 29/28/74 30/27/75
f 38/42/76 11/35/77 33/43/78 29/28/79
f 29/28/80 33/43/81 34/44/82 32/31/83
f 31/30/84 86/45/85 84/46/86 30/27/87
f 13/39/88 85/47/89 83/48/90 35/37/91
f 9/20/92 24/15/93 23/14/94 15/19/95
f 94/10/96 93/17/97 92/11/98
f 22/13/99 20/24/100 25/23/101
f 43/49/102 45/50/103 54/51/104 53/52/105
f 48/53/106 44/54/107 50/55/108 49/56/109
f 48/53/110 46/57/111 43/49/112 44/54/113
f 42/58/114 48/53/115 49/56/116 41/59/117
f 39/60/118 50/55/119 44/54/120 40/61/121
f 52/62/122 47/63/123 46/57/124 51/64/125
f 46/57/126 55/65/127 56/66/128 43/49/129
f 43/49/130 56/66/131 57/67/132 45/50/133
f 47/63/134 58/68/135 55/65/136 46/57/137
f 48/53/138 11/35/139 59/69/140 51/64/141
f 51/64/142 59/69/143 60/70/144 52/62/145
f 42/58/146 12/36/147 11/35/148 48/53/149
f 54/51/150 89/71/151 87/72/152 53/52/153
f 44/54/154 90/73/155 13/39/156
f 44/54/157 13/39/158 14/40/159 40/61/160
f 37/41/161 56/66/162 55/65/163 38/42/164
f 38/42/165 55/65/166 59/69/167 11/35/168
f 55/65/169 58/68/170 60/70/171 59/69/172
f 57/67/173 56/66/174 61/74/175 62/75/176
f 56/66/177 37/41/178 13/39/179 61/74/180
f 39/60/181 41/59/182 49/56/183 50/55/184
f 43/49/185 53/52/186 44/54/187
f 48/53/188 51/64/189 46/57/190
f 67/76/191 78/77/192 75/78/193 66/79/194
f 68/80/195 65/81/196 82/82/197
f 70/83/198 77/84/199 76/85/200 64/86/201
f 71/32/202 74/34/203 73/33/204
f 74/34/205 34/44/206 33/43/207 72/87/208
f 73/33/209 74/34/210 72/87/211
f 22/13/212 73/33/213 11/35/214
f 11/35/215 73/33/216 72/87/217 33/43/218
f 74/34/219 26/22/220 34/44/221
f 75/78/222 78/77/223 77/84/224
f 77/84/225 78/77/226 76/85/227
f 80/88/228 82/82/229 81/89/230
f 81/89/231 82/82/232 79/90/233
f 82/82/234 65/81/235 63/91/236 79/90/237
f 68/80/238 82/82/239 80/88/240 67/76/241
f 78/77/242 81/89/243 64/86/244 76/85/245
f 67/76/246 80/88/247 81/89/248 78/77/249
f 64/86/250 81/89/251 79/90/252 63/91/253
f 66/79/254 75/78/255 77/84/256 69/92/257
f 69/92/258 77/84/259 70/83/260
f 86/45/261 85/47/262 84/46/263
f 83/48/264 85/47/265 86/45/266
f 30/27/267 84/46/268 85/47/269 37/41/270
f 37/41/271 85/47/272 13/39/273
f 86/45/274 36/38/275 35/37/276 83/48/277
f 31/30/278 36/38/279 86/45/280
f 90/73/281 89/71/282 88/93/283
f 87/72/284 89/71/285 90/73/286
f 89/71/287 62/75/288 61/74/289 88/93/290
f 54/51/291 62/75/292 89/71/293
f 53/52/294 87/72/295 90/73/296 44/54/297
f 13/39/298 90/73/299 88/93/300 61/74/301
f 17/26/302 93/17/303 91/94/304
f 92/11/305 93/17/306 18/16/307 27/12/308
f 91/94/309 93/17/310 94/10/311
f 17/26/312 91/94/313 94/10/314 19/29/315
f 19/29/316 94/10/317 28/9/318
f 22/13/319 93/17/320 17/26/321 20/24/322
f 9/20/323 15/19/324 16/18/325 10/21/326
f 41/59/327 39/60/328 40/61/329 42/58/330
f 99/95/331 96/96/332 95/97/333 98/98/334
f 97/99/335 100/100/336 98/101/337 95/102/338
f 105/103/339 104/104/340 101/105/341 102/106/342
f 103/107/343 101/108/344 104/109/345 106/110/346
f 97/111/347 95/112/348 96/113/349 107/114/350
f 98/115/351 100/116/352 108/117/353 99/118/354
f 101/119/355 103/120/356 109/121/357 102/122/358
f 106/123/359 104/124/360 105/125/361 110/126/362
v 423.533569 14.506958 2.913818
v 76.466370 14.506958 2.913818
v 423.533569 285.192261 2.913818
v 76.466370 285.192261 2.913818
vt 0.049361 0.180946
vt 0.049333 0.180158
vt 0.050325 0.180158
vt 0.050333 0.180946
vn 0.000000 0.000000 1.000000
vn 0.000000 0.000000 1.000000
vn 0.000000 0.000000 1.000000
vn 0.000000 0.000000 1.000000
s off
f 111/127/363 113/128/364 114/129/365 112/130/366
