# This file uses centimeters as units for non-parametric coordinates.

v 94.358116 98.067459 -7.656589
v 89.765976 98.067459 -7.656589
v 87.469421 94.090385 -7.656589
v 89.765976 90.113319 -7.656589
v 94.358116 90.113319 -7.656589
v 96.654007 94.090385 -7.656589
v 94.358116 98.067459 -8.703680
v 89.765976 98.067459 -8.703680
v 87.469421 94.090385 -8.703680
v 89.765976 90.113319 -8.703680
v 94.358116 90.113319 -8.703680
v 96.654007 94.090385 -8.703680
v 93.559944 96.685463 -9.642757
v 90.563721 96.685463 -9.642757
v 89.065521 94.090385 -9.642757
v 90.563721 91.495323 -9.642757
v 93.559944 91.495323 -9.642757
v 95.058449 94.090385 -9.642757
v 93.559944 96.685463 -16.244421
v 93.559944 91.495323 -16.244421
v 95.058449 94.090385 -16.244421
v 90.563721 96.685463 -15.030993
v 89.065521 94.090385 -15.030993
v 90.563721 91.495323 -15.030993
v 75.557899 95.994553 -15.030993
v 74.544106 95.994553 -16.244421
v 75.557899 92.186218 -15.030993
v 74.544106 92.186218 -16.244421
v 73.916473 95.994553 -11.756918
v 72.706589 95.994553 -11.670112
v 73.916473 92.186218 -11.756918
v 72.706589 92.186218 -11.670112
v 94.358116 98.067459 -0.102532
v 89.765976 98.067459 -0.102532
v 87.469421 94.090385 -0.102532
v 89.765976 90.113319 -0.102532
v 94.358116 90.113319 -0.102532
v 96.654007 94.090385 -0.102532
v 94.358116 98.067459 0.944559
v 89.765976 98.067459 0.944559
v 87.469421 94.090385 0.944559
v 89.765976 90.113319 0.944559
v 94.358116 90.113319 0.944559
v 96.654007 94.090385 0.944559
v 93.559944 96.685463 1.883392
v 90.563721 96.685463 1.883392
v 89.065521 94.090385 1.883392
v 90.563721 91.495323 1.883392
v 93.559944 91.495323 1.883392
v 95.058449 94.090385 1.883392
v 93.559944 96.685463 8.485299
v 93.559944 91.495323 8.485299
v 95.058449 94.090385 8.485299
v 90.563721 96.685463 7.271995
v 89.065521 94.090385 7.271995
v 90.563721 91.495323 7.271995
v 75.557899 95.994553 7.271995
v 74.544106 95.994553 8.485299
v 75.557899 92.186218 7.271995
v 74.544106 92.186218 8.485299
v 73.916473 95.994553 3.997797
v 72.706589 95.994553 3.910746
v 73.916473 92.186218 3.997797
v 72.706589 92.186218 3.910746
v 0.000122 0.000000 0.000056
v 100.281845 0.000000 0.000056
v 0.000122 196.685944 0.000056
v 100.281845 196.685944 0.000056
v 0.000122 196.685944 -7.656589
v 100.281845 196.685944 -7.656589
v 0.000122 0.000000 -7.656589
v 100.281845 0.000000 -7.656589
v 0.347839 167.468170 -2.277355
v -2.635509 167.468170 -1.307945
v -2.635509 167.468170 1.828770
v 0.347839 167.468170 2.798303
v 2.191708 167.468170 0.260474
v 0.347839 187.468155 -2.277355
v -2.635509 187.468155 -1.307945
v -2.635509 187.468155 1.828770
v 0.347839 187.468155 2.798303
v 2.191708 187.468155 0.260474
v -0.476799 167.468170 0.260474
v -0.476799 187.468155 0.260474
v 0.347839 85.255157 -2.277355
v -2.635509 85.255157 -1.307945
v -2.635509 85.255157 1.828770
v 0.347839 85.255157 2.798303
v 2.191708 85.255157 0.260474
v 0.347839 105.255157 -2.277355
v -2.635509 105.255157 -1.307945
v -2.635509 105.255157 1.828770
v 0.347839 105.255157 2.798303
v 2.191708 105.255157 0.260474
v -0.476799 85.255157 0.260474
v -0.476799 105.255157 0.260474
v 0.347839 8.214327 -2.277355
v -2.635509 8.214327 -1.307945
v -2.635509 8.214327 1.828770
v 0.347839 8.214327 2.798303
v 2.191708 8.214327 0.260474
v 0.347839 28.214327 -2.277355
v -2.635509 28.214327 -1.307945
v -2.635509 28.214327 1.828770
v 0.347839 28.214327 2.798303
v 2.191708 28.214327 0.260474
v -0.476799 8.214327 0.260474
v -0.476799 28.214327 0.260474
vt 0.090291 0.301731
vt 0.090291 0.301731
vt 0.090291 0.301731
vt 0.090291 0.301731
vt 0.090291 0.301731
vt 0.090291 0.301731
vt 0.090291 0.301731
vt 0.090291 0.301731
vt 0.090291 0.301731
vt 0.090291 0.301731
vt 0.090291 0.301731
vt 0.090291 0.301731
vt 0.090291 0.301731
vt 0.090291 0.301731
vt 0.090291 0.301731
vt 0.090291 0.301731
vt 0.090291 0.301731
vt 0.090291 0.301731
vt 0.090291 0.301731
vt 0.090291 0.301731
vt 0.090291 0.301731
vt 0.090291 0.301731
vt 0.090291 0.301731
vt 0.090291 0.301731
vt 0.090291 0.301731
vt 0.090291 0.301731
vt 0.090291 0.301731
vt 0.090291 0.301731
vt 0.090291 0.301731
vt 0.090291 0.301731
vt 0.090291 0.301731
vt 0.090291 0.301731
vt 0.090291 0.301731
vt 0.090291 0.301731
vt 0.090291 0.301731
vt 0.090291 0.301731
vt 0.090291 0.301731
vt 0.090291 0.301731
vt 0.090291 0.301731
vt 0.090291 0.301731
vt 0.090291 0.301731
vt 0.090291 0.301731
vt 0.090291 0.301731
vt 0.090291 0.301731
vt 0.090291 0.301731
vt 0.090291 0.301731
vt 0.090291 0.301731
vt 0.090291 0.301731
vt 0.090291 0.301731
vt 0.090291 0.301731
vt 0.090291 0.301731
vt 0.090291 0.301731
vt 0.090291 0.301731
vt 0.090291 0.301731
vt 0.090291 0.301731
vt 0.090291 0.301731
vt 0.090291 0.301731
vt 0.090291 0.301731
vt 0.090291 0.301731
vt 0.090291 0.301731
vt 0.090291 0.301731
vt 0.090291 0.301731
vt 0.090291 0.301731
vt 0.090291 0.301731
vt 0.090291 0.301731
vt 0.090291 0.301731
vt 0.090291 0.301731
vt 0.090291 0.301731
vt 0.090291 0.301731
vt 0.090291 0.301731
vt 0.090291 0.301731
vt 0.090291 0.301731
vt 0.090291 0.301731
vt 0.090291 0.301731
vt 0.090291 0.301731
vt 0.090291 0.301731
vt 0.090291 0.301731
vt 0.090291 0.301731
vt 0.090291 0.301731
vt 0.090291 0.301731
vt 0.100962 0.353450
vt 0.100962 0.353450
vt 0.100962 0.353450
vt 0.100962 0.353450
vt 0.100962 0.353450
vt 0.100962 0.353450
vt 0.100962 0.353450
vt 0.100962 0.353450
vt 0.100962 0.353450
vt 0.100962 0.353450
vt 0.100962 0.353450
vt 0.100962 0.353450
vt 0.100962 0.353450
vt 0.100962 0.353450
vt 0.089193 0.328041
vt 0.089193 0.328041
vt 0.089193 0.328041
vt 0.089193 0.328041
vt 0.089193 0.328041
vt 0.089193 0.328041
vt 0.089193 0.328041
vt 0.089193 0.328041
vt 0.089193 0.328041
vt 0.089193 0.328041
vt 0.089193 0.328041
vt 0.089193 0.328041
vt 0.089193 0.328041
vt 0.089193 0.328041
vt 0.089193 0.328041
vt 0.089193 0.328041
vt 0.089193 0.328041
vt 0.089193 0.328041
vt 0.089193 0.328041
vt 0.089193 0.328041
vt 0.089193 0.328041
vt 0.089193 0.328041
vt 0.089193 0.328041
vt 0.089193 0.328041
vt 0.089193 0.328041
vt 0.089193 0.328041
vt 0.089193 0.328041
vt 0.089193 0.328041
vt 0.089193 0.328041
vt 0.089193 0.328041
vt 0.089193 0.328041
vt 0.089193 0.328041
vt 0.089193 0.328041
vt 0.089193 0.328041
vt 0.089193 0.328041
vt 0.089193 0.328041
vt 0.089193 0.328041
vt 0.089193 0.328041
vt 0.089193 0.328041
vt 0.089193 0.328041
vt 0.089193 0.328041
vt 0.089193 0.328041
vt 0.089193 0.328041
vt 0.089193 0.328041
vt 0.089193 0.328041
vt 0.089193 0.328041
vt 0.089193 0.328041
vt 0.089193 0.328041
vt 0.089193 0.328041
vt 0.089193 0.328041
vt 0.089193 0.328041
vt 0.089193 0.328041
vt 0.089193 0.328041
vt 0.089193 0.328041
vt 0.089193 0.328041
vt 0.089193 0.328041
vt 0.089193 0.328041
vt 0.089193 0.328041
vt 0.089193 0.328041
vt 0.089193 0.328041
vt 0.089193 0.328041
vt 0.089193 0.328041
vt 0.089193 0.328041
vt 0.089193 0.328041
vt 0.089193 0.328041
vt 0.089193 0.328041
vt 0.089193 0.328041
vt 0.089193 0.328041
vt 0.089193 0.328041
vt 0.089193 0.328041
vt 0.089193 0.328041
vt 0.089193 0.328041
vn 0.000000 1.000000 0.000000
vn 0.000000 1.000000 0.000000
vn 0.000000 1.000000 0.000000
vn 0.000000 1.000000 0.000000
vn -0.865989 0.500064 0.000000
vn -0.865989 0.500064 0.000000
vn -0.865989 0.500064 0.000000
vn -0.865989 0.500064 0.000000
vn -0.865988 -0.500064 0.000000
vn -0.865988 -0.500064 0.000000
vn -0.865988 -0.500064 0.000000
vn -0.865988 -0.500064 0.000000
vn 0.000000 -1.000000 0.000000
vn 0.000000 -1.000000 0.000000
vn 0.000000 -1.000000 0.000000
vn 0.000000 -1.000000 0.000000
vn 0.866051 -0.499956 0.000000
vn 0.866051 -0.499956 0.000000
vn 0.866051 -0.499956 0.000000
vn 0.866051 -0.499956 0.000000
vn 0.866051 0.499955 0.000000
vn 0.866051 0.499955 0.000000
vn 0.866051 0.499955 0.000000
vn 0.866051 0.499955 0.000000
vn -0.000001 0.000000 -1.000000
vn -0.000001 0.000000 -1.000000
vn -0.000001 0.000000 -1.000000
vn 0.000000 0.562035 -0.827113
vn 0.000000 0.562035 -0.827113
vn 0.000000 0.562035 -0.827113
vn 0.000000 0.562035 -0.827113
vn -0.486707 0.281024 -0.827129
vn -0.486707 0.281024 -0.827129
vn -0.486707 0.281024 -0.827129
vn -0.486707 0.281024 -0.827129
vn -0.486708 -0.281026 -0.827128
vn -0.486708 -0.281026 -0.827128
vn -0.486708 -0.281026 -0.827128
vn -0.486708 -0.281025 -0.827128
vn 0.000000 -0.562029 -0.827118
vn 0.000000 -0.562029 -0.827118
vn 0.000000 -0.562029 -0.827118
vn 0.000000 -0.562029 -0.827118
vn 0.486730 -0.281012 -0.827120
vn 0.486730 -0.281012 -0.827119
vn 0.486730 -0.281012 -0.827119
vn 0.486730 -0.281012 -0.827119
vn 0.486730 0.281011 -0.827120
vn 0.486730 0.281011 -0.827120
vn 0.486730 0.281011 -0.827120
vn 0.486730 0.281011 -0.827120
vn 0.000000 1.000000 0.000000
vn 0.000000 1.000000 0.000000
vn 0.000000 1.000000 0.000000
vn 0.000000 1.000000 0.000000
vn 0.071563 0.000000 0.997436
vn 0.071563 0.000000 0.997436
vn 0.071563 0.000000 0.997436
vn 0.071563 0.000000 0.997436
vn 0.000000 -1.000000 0.000000
vn 0.000000 -1.000000 0.000000
vn 0.000000 -1.000000 0.000000
vn 0.000000 -1.000000 0.000000
vn 0.865991 -0.500060 0.000000
vn 0.865991 -0.500060 0.000000
vn 0.865991 -0.500060 0.000000
vn 0.865991 -0.500060 0.000000
vn 0.865992 0.500057 0.000000
vn 0.865992 0.500057 0.000000
vn 0.865992 0.500057 0.000000
vn 0.865992 0.500057 0.000000
vn -0.866036 0.499982 0.000000
vn -0.866036 0.499982 0.000000
vn -0.866036 0.499982 0.000000
vn -0.866036 0.499982 0.000000
vn -0.866035 -0.499984 0.000000
vn -0.866035 -0.499984 0.000000
vn -0.866035 -0.499984 0.000000
vn -0.866035 -0.499984 0.000000
vn 0.000000 0.000000 1.000000
vn 0.000000 0.000000 1.000000
vn 0.000000 0.000000 1.000000
vn -0.000000 0.000000 1.000000
vn -0.000000 0.000000 1.000000
vn -0.000000 0.000000 1.000000
vn 0.000000 0.000000 1.000000
vn 0.000000 0.000000 1.000000
vn 0.000000 0.000000 1.000000
vn -0.040560 0.998627 -0.033136
vn -0.040560 0.998627 -0.033136
vn -0.040560 0.998627 -0.033136
vn -0.040560 0.998628 -0.033136
vn -0.040559 -0.998628 -0.033128
vn -0.040559 -0.998628 -0.033128
vn -0.040559 -0.998628 -0.033128
vn -0.040559 -0.998628 -0.033128
vn 0.000000 0.000000 -1.000000
vn 0.000000 0.000000 -1.000000
vn 0.000000 0.000000 -1.000000
vn 0.000000 0.000000 -1.000000
vn 0.893948 0.000000 0.448172
vn 0.893948 0.000000 0.448172
vn 0.893948 0.000000 0.448172
vn 0.893948 0.000000 0.448172
vn 0.000000 1.000000 0.000000
vn 0.000000 1.000000 0.000000
vn 0.000000 1.000000 0.000000
vn 0.000000 1.000000 0.000000
vn 0.000000 -1.000000 0.000001
vn 0.000000 -1.000000 0.000001
vn 0.000000 -1.000000 0.000001
vn 0.000000 -1.000000 0.000001
vn -0.927931 0.000000 -0.372753
vn -0.927931 0.000000 -0.372753
vn -0.927931 0.000000 -0.372753
vn -0.927931 0.000000 -0.372753
vn 0.000000 1.000000 0.000000
vn 0.000000 1.000000 0.000000
vn 0.000000 1.000000 0.000000
vn 0.000000 1.000000 0.000000
vn -0.865989 0.500064 0.000000
vn -0.865989 0.500064 0.000000
vn -0.865989 0.500064 0.000000
vn -0.865989 0.500064 0.000000
vn -0.865988 -0.500064 0.000000
vn -0.865988 -0.500064 0.000000
vn -0.865988 -0.500064 0.000000
vn -0.865988 -0.500064 0.000000
vn 0.000000 -1.000000 0.000000
vn 0.000000 -1.000000 0.000000
vn 0.000000 -1.000000 0.000000
vn 0.000000 -1.000000 0.000000
vn 0.866051 -0.499956 0.000000
vn 0.866051 -0.499956 0.000000
vn 0.866051 -0.499956 0.000000
vn 0.866051 -0.499956 0.000000
vn 0.866051 0.499955 0.000000
vn 0.866051 0.499955 0.000000
vn 0.866051 0.499955 0.000000
vn 0.866051 0.499955 0.000000
vn -0.000000 0.000000 1.000000
vn -0.000000 0.000000 1.000000
vn -0.000000 0.000000 1.000000
vn 0.000000 0.561932 0.827183
vn 0.000000 0.561932 0.827183
vn 0.000000 0.561932 0.827183
vn 0.000000 0.561932 0.827183
vn -0.486620 0.280974 0.827197
vn -0.486620 0.280974 0.827197
vn -0.486620 0.280974 0.827197
vn -0.486620 0.280974 0.827197
vn -0.486620 -0.280975 0.827197
vn -0.486620 -0.280975 0.827197
vn -0.486620 -0.280975 0.827197
vn -0.486620 -0.280975 0.827197
vn 0.000000 -0.561928 0.827186
vn 0.000000 -0.561928 0.827186
vn 0.000000 -0.561928 0.827186
vn 0.000000 -0.561928 0.827186
vn 0.486643 -0.280963 0.827187
vn 0.486643 -0.280963 0.827187
vn 0.486643 -0.280963 0.827187
vn 0.486643 -0.280963 0.827187
vn 0.486643 0.280962 0.827187
vn 0.486643 0.280962 0.827187
vn 0.486643 0.280962 0.827187
vn 0.486643 0.280962 0.827187
vn 0.000000 1.000000 0.000000
vn 0.000000 1.000000 0.000000
vn 0.000000 1.000000 0.000000
vn 0.000000 1.000000 0.000000
vn 0.071764 0.000000 -0.997422
vn 0.071764 0.000000 -0.997422
vn 0.071764 0.000000 -0.997422
vn 0.071764 0.000000 -0.997422
vn 0.000000 -1.000000 0.000000
vn 0.000000 -1.000000 0.000000
vn 0.000000 -1.000000 0.000000
vn 0.000000 -1.000000 0.000000
vn 0.865990 -0.500062 0.000000
vn 0.865990 -0.500062 0.000000
vn 0.865990 -0.500062 0.000000
vn 0.865990 -0.500062 0.000000
vn 0.865991 0.500060 0.000000
vn 0.865991 0.500060 0.000000
vn 0.865991 0.500060 0.000000
vn 0.865991 0.500060 0.000000
vn -0.866035 0.499983 0.000000
vn -0.866035 0.499983 0.000000
vn -0.866035 0.499983 0.000000
vn -0.866035 0.499983 0.000000
vn -0.866034 -0.499985 0.000000
vn -0.866034 -0.499985 0.000000
vn -0.866034 -0.499985 0.000000
vn -0.866034 -0.499985 0.000000
vn -0.000000 0.000000 -1.000000
vn -0.000000 0.000000 -1.000000
vn -0.000000 0.000000 -1.000000
vn 0.000000 0.000000 -1.000000
vn 0.000000 0.000000 -1.000000
vn 0.000000 0.000000 -1.000000
vn 0.000000 0.000000 -1.000000
vn 0.000000 0.000000 -1.000000
vn 0.000000 0.000000 -1.000000
vn -0.040560 0.998627 0.033140
vn -0.040560 0.998627 0.033140
vn -0.040560 0.998627 0.033140
vn -0.040560 0.998627 0.033140
vn -0.040559 -0.998628 0.033129
vn -0.040559 -0.998628 0.033129
vn -0.040559 -0.998628 0.033129
vn -0.040559 -0.998628 0.033129
vn 0.000000 0.000000 1.000000
vn 0.000000 0.000000 1.000000
vn 0.000000 0.000000 1.000000
vn 0.000000 0.000000 1.000000
vn 0.893954 0.000000 -0.448158
vn 0.893954 0.000000 -0.448158
vn 0.893954 0.000000 -0.448158
vn 0.893954 0.000000 -0.448158
vn 0.000000 1.000000 0.000000
vn 0.000000 1.000000 0.000000
vn 0.000000 1.000000 0.000000
vn 0.000000 1.000000 0.000000
vn 0.000000 -1.000000 0.000000
vn 0.000000 -1.000000 0.000000
vn 0.000000 -1.000000 0.000000
vn 0.000000 -1.000000 0.000000
vn -0.927938 0.000000 0.372736
vn -0.927938 0.000000 0.372736
vn -0.927938 0.000000 0.372736
vn -0.927938 0.000000 0.372736
vn 0.000000 0.000000 1.000000
vn 0.000000 0.000000 1.000000
vn 0.000000 0.000000 1.000000
vn 0.000000 0.000000 1.000000
vn 0.000000 1.000000 0.000000
vn 0.000000 1.000000 0.000000
vn 0.000000 1.000000 0.000000
vn 0.000000 1.000000 0.000000
vn 0.000000 0.000000 -1.000000
vn 0.000000 0.000000 -1.000000
vn 0.000000 0.000000 -1.000000
vn 0.000000 0.000000 -1.000000
vn 0.000000 -1.000000 0.000000
vn 0.000000 -1.000000 0.000000
vn 0.000000 -1.000000 0.000000
vn 0.000000 -1.000000 0.000000
vn 1.000000 0.000000 0.000000
vn 1.000000 0.000000 0.000000
vn 1.000000 0.000000 0.000000
vn 1.000000 0.000000 0.000000
vn -1.000000 0.000000 0.000000
vn -1.000000 0.000000 0.000000
vn -1.000000 0.000000 0.000000
vn -1.000000 0.000000 0.000000
vn -0.309035 0.000000 -0.951051
vn -0.309035 0.000000 -0.951051
vn -0.309035 0.000000 -0.951051
vn -0.309035 0.000000 -0.951051
vn -1.000000 0.000000 0.000000
vn -1.000000 0.000000 0.000000
vn -1.000000 0.000000 0.000000
vn -1.000000 0.000000 0.000000
vn -0.309070 0.000000 0.951039
vn -0.309070 0.000000 0.951039
vn -0.309070 0.000000 0.951039
vn -0.309070 0.000000 0.951039
vn 0.809013 0.000000 0.587791
vn 0.809013 0.000000 0.587791
vn 0.809013 0.000000 0.587791
vn 0.809013 0.000000 0.587791
vn 0.809013 0.000000 -0.587791
vn 0.809013 0.000000 -0.587791
vn 0.809013 0.000000 -0.587791
vn 0.809013 0.000000 -0.587791
vn 0.000000 -1.000000 0.000000
vn 0.000000 -1.000000 0.000000
vn 0.000000 -1.000000 0.000000
vn 0.000000 -1.000000 0.000000
vn 0.000000 -1.000000 0.000000
vn 0.000000 -1.000000 0.000000
vn 0.000000 -1.000000 0.000000
vn 0.000000 -1.000000 0.000000
vn 0.000000 -1.000000 0.000000
vn 0.000000 -1.000000 0.000000
vn 0.000000 -1.000000 0.000000
vn 0.000000 -1.000000 0.000000
vn 0.000000 -1.000000 0.000000
vn 0.000000 -1.000000 0.000000
vn 0.000000 -1.000000 0.000000
vn 0.000000 1.000000 -0.000002
vn 0.000000 1.000000 -0.000002
vn 0.000000 1.000000 0.000002
vn 0.000000 1.000000 -0.000002
vn 0.000000 1.000000 0.000005
vn 0.000000 1.000000 0.000002
vn 0.000000 1.000000 0.000005
vn 0.000000 1.000000 0.000007
vn 0.000000 1.000000 0.000002
vn 0.000000 1.000000 0.000007
vn 0.000000 1.000000 0.000002
vn 0.000000 1.000000 0.000002
vn 0.000000 1.000000 0.000002
vn 0.000000 1.000000 -0.000002
vn 0.000000 1.000000 0.000002
vn -0.309035 0.000000 -0.951051
vn -0.309035 0.000000 -0.951051
vn -0.309035 0.000000 -0.951051
vn -0.309035 0.000000 -0.951051
vn -1.000000 0.000000 0.000000
vn -1.000000 0.000000 0.000000
vn -1.000000 0.000000 0.000000
vn -1.000000 0.000000 0.000000
vn -0.309070 0.000000 0.951039
vn -0.309070 0.000000 0.951039
vn -0.309070 0.000000 0.951039
vn -0.309070 0.000000 0.951039
vn 0.809013 0.000000 0.587791
vn 0.809013 0.000000 0.587791
vn 0.809013 0.000000 0.587791
vn 0.809013 0.000000 0.587791
vn 0.809013 0.000000 -0.587791
vn 0.809013 0.000000 -0.587791
vn 0.809013 0.000000 -0.587791
vn 0.809013 0.000000 -0.587791
vn 0.000000 -1.000000 0.000000
vn 0.000000 -1.000000 0.000000
vn 0.000000 -1.000000 0.000000
vn 0.000000 -1.000000 0.000000
vn 0.000000 -1.000000 0.000000
vn 0.000000 -1.000000 0.000000
vn 0.000000 -1.000000 0.000000
vn 0.000000 -1.000000 0.000000
vn 0.000000 -1.000000 0.000000
vn 0.000000 -1.000000 0.000000
vn 0.000000 -1.000000 0.000000
vn 0.000000 -1.000000 0.000000
vn 0.000000 -1.000000 0.000000
vn 0.000000 -1.000000 0.000000
vn 0.000000 -1.000000 0.000000
vn 0.000000 1.000000 0.000000
vn 0.000000 1.000000 0.000000
vn 0.000000 1.000000 0.000000
vn 0.000000 1.000000 0.000000
vn 0.000000 1.000000 0.000000
vn 0.000000 1.000000 0.000000
vn 0.000000 1.000000 0.000000
vn 0.000000 1.000000 0.000000
vn 0.000000 1.000000 0.000000
vn 0.000000 1.000000 0.000000
vn 0.000000 1.000000 0.000000
vn 0.000000 1.000000 0.000000
vn 0.000000 1.000000 0.000000
vn 0.000000 1.000000 0.000000
vn 0.000000 1.000000 0.000000
vn -0.309035 0.000000 -0.951051
vn -0.309035 0.000000 -0.951051
vn -0.309035 0.000000 -0.951051
vn -0.309035 0.000000 -0.951051
vn -1.000000 0.000000 0.000000
vn -1.000000 0.000000 0.000000
vn -1.000000 0.000000 0.000000
vn -1.000000 0.000000 0.000000
vn -0.309070 0.000000 0.951039
vn -0.309070 0.000000 0.951039
vn -0.309070 0.000000 0.951039
vn -0.309070 0.000000 0.951039
vn 0.809013 0.000000 0.587791
vn 0.809013 0.000000 0.587791
vn 0.809013 0.000000 0.587791
vn 0.809013 0.000000 0.587791
vn 0.809013 0.000000 -0.587791
vn 0.809013 0.000000 -0.587791
vn 0.809013 0.000000 -0.587791
vn 0.809013 0.000000 -0.587791
vn 0.000000 -1.000000 0.000000
vn 0.000000 -1.000000 -0.000000
vn 0.000000 -1.000000 0.000000
vn 0.000000 -1.000000 0.000000
vn 0.000000 -1.000000 0.000000
vn 0.000000 -1.000000 0.000000
vn 0.000000 -1.000000 0.000000
vn 0.000000 -1.000000 0.000000
vn 0.000000 -1.000000 0.000000
vn 0.000000 -1.000000 -0.000000
vn 0.000000 -1.000000 0.000000
vn 0.000000 -1.000000 0.000000
vn 0.000000 -1.000000 -0.000000
vn 0.000000 -1.000000 -0.000000
vn 0.000000 -1.000000 0.000000
vn 0.000000 1.000000 0.000000
vn 0.000000 1.000000 0.000000
vn 0.000000 1.000000 -0.000000
vn 0.000000 1.000000 0.000000
vn 0.000000 1.000000 0.000000
vn 0.000000 1.000000 -0.000000
vn 0.000000 1.000000 0.000000
vn 0.000000 1.000000 -0.000001
vn 0.000000 1.000000 -0.000000
vn 0.000000 1.000000 -0.000001
vn 0.000000 1.000000 -0.000001
vn 0.000000 1.000000 -0.000000
vn 0.000000 1.000000 -0.000001
vn 0.000000 1.000000 0.000000
vn 0.000000 1.000000 -0.000000
s off
f 1/1/1 7/8/2 8/9/3 2/2/4
f 2/2/5 8/9/6 9/10/7 3/3/8
f 3/3/9 9/10/10 10/11/11 4/4/12
f 4/4/13 10/11/14 11/12/15 5/5/16
f 5/5/17 11/12/18 12/13/19 6/6/20
f 6/6/21 12/13/22 7/14/23 1/7/24
f 21/29/25 20/21/26 19/28/27
f 7/19/28 13/22/29 14/23/30 8/18/31
f 8/18/32 14/23/33 15/24/34 9/17/35
f 9/17/36 15/24/37 16/25/38 10/16/39
f 10/16/40 16/25/41 17/26/42 11/15/43
f 11/15/44 17/26/45 18/27/46 12/20/47
f 12/20/48 18/27/49 13/22/50 7/19/51
f 22/30/52 14/23/53 13/22/54 19/28/55
f 30/38/56 32/40/57 31/39/58 29/37/59
f 20/21/60 17/26/61 16/25/62 24/32/63
f 21/29/64 18/27/65 17/26/66 20/21/67
f 13/22/68 18/27/69 21/29/70 19/28/71
f 14/23/72 22/30/73 23/31/74 15/24/75
f 15/24/76 23/31/77 24/32/78 16/25/79
f 22/30/80 25/33/81 23/31/82
f 24/32/83 23/31/84 27/35/85
f 25/33/86 27/35/87 23/31/88
f 19/28/89 26/34/90 25/33/91 22/30/92
f 24/32/93 27/35/94 28/36/95 20/21/96
f 28/36/97 26/34/98 19/28/99 20/21/100
f 29/37/101 31/39/102 27/35/103 25/33/104
f 26/34/105 30/38/106 29/37/107 25/33/108
f 27/35/109 31/39/110 32/40/111 28/36/112
f 30/38/113 26/34/114 28/36/115 32/40/116
f 33/41/117 34/42/118 40/43/119 39/44/120
f 34/42/121 35/45/122 41/46/123 40/43/124
f 35/45/125 36/47/126 42/48/127 41/46/128
f 36/47/129 37/49/130 43/50/131 42/48/132
f 37/49/133 38/51/134 44/52/135 43/50/136
f 38/51/137 33/53/138 39/54/139 44/52/140
f 53/55/141 51/56/142 52/57/143
f 39/58/144 40/59/145 46/60/146 45/61/147
f 40/59/148 41/62/149 47/63/150 46/60/151
f 41/62/152 42/64/153 48/65/154 47/63/155
f 42/64/156 43/66/157 49/67/158 48/65/159
f 43/66/160 44/68/161 50/69/162 49/67/163
f 44/68/164 39/58/165 45/61/166 50/69/167
f 54/70/168 51/56/169 45/61/170 46/60/171
f 62/71/172 61/72/173 63/73/174 64/74/175
f 52/57/176 56/75/177 48/65/178 49/67/179
f 53/55/180 52/57/181 49/67/182 50/69/183
f 45/61/184 51/56/185 53/55/186 50/69/187
f 46/60/188 47/63/189 55/76/190 54/70/191
f 47/63/192 48/65/193 56/75/194 55/76/195
f 54/70/196 55/76/197 57/77/198
f 56/75/199 59/78/200 55/76/201
f 57/77/202 55/76/203 59/78/204
f 51/56/205 54/70/206 57/77/207 58/79/208
f 56/75/209 52/57/210 60/80/211 59/78/212
f 60/80/213 52/57/214 51/56/215 58/79/216
f 61/72/217 57/77/218 59/78/219 63/73/220
f 58/79/221 57/77/222 61/72/223 62/71/224
f 59/78/225 60/80/226 64/74/227 63/73/228
f 62/71/229 64/74/230 60/80/231 58/79/232
f 65/81/233 66/82/234 68/83/235 67/84/236
f 67/84/237 68/83/238 70/85/239 69/86/240
f 69/86/241 70/85/242 72/87/243 71/88/244
f 71/88/245 72/87/246 66/89/247 65/90/248
f 66/82/249 72/91/250 70/92/251 68/83/252
f 71/93/253 65/81/254 67/84/255 69/94/256
f 73/95/257 74/96/258 79/97/259 78/98/260
f 74/96/261 75/99/262 80/100/263 79/97/264
f 75/99/265 76/101/266 81/102/267 80/100/268
f 76/101/269 77/103/270 82/104/271 81/102/272
f 77/103/273 73/105/274 78/106/275 82/104/276
f 74/107/277 73/108/278 83/109/279
f 75/110/280 74/107/281 83/109/282
f 76/111/283 75/110/284 83/109/285
f 77/112/286 76/111/287 83/109/288
f 73/108/289 77/112/290 83/109/291
f 78/113/292 79/114/293 84/115/294
f 79/114/295 80/116/296 84/115/297
f 80/116/298 81/117/299 84/115/300
f 81/117/301 82/118/302 84/115/303
f 82/118/304 78/113/305 84/115/306
f 85/119/307 86/120/308 91/121/309 90/122/310
f 86/120/311 87/123/312 92/124/313 91/121/314
f 87/123/315 88/125/316 93/126/317 92/124/318
f 88/125/319 89/127/320 94/128/321 93/126/322
f 89/127/323 85/129/324 90/130/325 94/128/326
f 86/131/327 85/132/328 95/133/329
f 87/134/330 86/131/331 95/133/332
f 88/135/333 87/134/334 95/133/335
f 89/136/336 88/135/337 95/133/338
f 85/132/339 89/136/340 95/133/341
f 90/137/342 91/138/343 96/139/344
f 91/138/345 92/140/346 96/139/347
f 92/140/348 93/141/349 96/139/350
f 93/141/351 94/142/352 96/139/353
f 94/142/354 90/137/355 96/139/356
f 97/143/357 98/144/358 103/145/359 102/146/360
f 98/144/361 99/147/362 104/148/363 103/145/364
f 99/147/365 100/149/366 105/150/367 104/148/368
f 100/149/369 101/151/370 106/152/371 105/150/372
f 101/151/373 97/153/374 102/154/375 106/152/376
f 98/155/377 97/156/378 107/157/379
f 99/158/380 98/155/381 107/157/382
f 100/159/383 99/158/384 107/157/385
f 101/160/386 100/159/387 107/157/388
f 97/156/389 101/160/390 107/157/391
f 102/161/392 103/162/393 108/163/394
f 103/162/395 104/164/396 108/163/397
f 104/164/398 105/165/399 108/163/400
f 105/165/401 106/166/402 108/163/403
f 106/166/404 102/161/405 108/163/406
