# This file uses centimeters as units for non-parametric coordinates.

v 12.429443 115.644073 46.903564
v 3.981689 115.644073 36.429443
v 12.429443 122.533356 46.903564
v 3.981689 122.533356 36.429443
v -11.143555 122.533356 46.903564
v -2.695801 122.533356 36.429443
v -11.143311 115.644073 46.903564
v -2.695801 115.644073 36.429443
v 5.003418 115.644073 31.250000
v 20.243408 115.644073 31.250000
v 20.243408 122.533356 31.250000
v 5.003418 122.533356 31.250000
v -4.998535 122.533356 31.250000
v -20.238525 122.533356 31.250000
v -20.238525 115.644073 31.250000
v -4.998535 115.644073 31.250000
v 0.751709 0.000076 44.776855
v -3.172119 0.000076 43.501953
v -3.172119 0.000076 39.375977
v 0.751709 0.000076 38.101074
v 3.177002 0.000076 41.438965
v 0.751709 117.076294 44.776855
v -3.172119 117.076294 43.501953
v -3.172119 117.076294 39.375977
v 0.751709 117.076294 38.101074
v 3.177002 117.076294 41.438965
v 10.016357 96.058350 46.903564
v 5.135986 96.058350 36.429443
v 10.015869 100.723297 46.903564
v 5.135742 100.723297 36.429443
v -9.964600 100.723297 46.903564
v -5.084717 100.723297 36.429443
v -9.964600 96.058411 46.903564
v -5.084473 96.058411 36.429443
v 8.080322 96.058350 31.250000
v 17.166016 96.058350 31.250000
v 17.166016 100.723297 31.250000
v 8.080322 100.723297 31.250000
v -8.075439 100.723297 31.250000
v -17.161133 100.723297 31.250000
v -17.161133 96.058411 31.250000
v -8.075439 96.058411 31.250000
vt 0.112667 0.327991
vt 0.112621 0.327996
vt 0.112621 0.327996
vt 0.112667 0.327991
vt 0.112625 0.327980
vt 0.112625 0.327980
vt 0.112671 0.327975
vt 0.112671 0.327975
vt 0.112874 0.328958
vt 0.112824 0.328966
vt 0.112824 0.328966
vt 0.112874 0.328958
vt 0.112818 0.328975
vt 0.112818 0.328975
vt 0.112867 0.328966
vt 0.112867 0.328966
vt 0.112621 0.327996
vt 0.112667 0.327991
vt 0.112625 0.327980
vt 0.112671 0.327975
vt 0.113270 0.303831
vt 0.113283 0.302867
vt 0.113251 0.302881
vt 0.113245 0.303850
vt 0.113208 0.302873
vt 0.113212 0.303839
vt 0.113214 0.302854
vt 0.113217 0.303814
vt 0.113260 0.302850
vt 0.113253 0.303809
vt 0.112900 0.303679
vt 0.112880 0.303684
vt 0.112880 0.303684
vt 0.112900 0.303679
vt 0.112879 0.303666
vt 0.112879 0.303666
vt 0.112898 0.303662
vt 0.112898 0.303662
vt 0.113879 0.304225
vt 0.113873 0.304239
vt 0.113873 0.304239
vt 0.113879 0.304225
vt 0.113872 0.304255
vt 0.113872 0.304255
vt 0.113877 0.304242
vt 0.113877 0.304242
vt 0.112880 0.303684
vt 0.112900 0.303679
vt 0.112879 0.303666
vt 0.112898 0.303662
vn 0.000000 -1.000000 0.000000
vn 0.000000 -1.000000 0.000000
vn 0.000000 -1.000000 0.000000
vn 0.000000 -1.000000 0.000000
vn 0.894720 0.000000 0.446627
vn 0.894720 0.000000 0.446627
vn 0.894720 0.000000 0.446627
vn 0.894720 0.000000 0.446627
vn 0.000000 1.000000 0.000000
vn 0.000000 1.000000 0.000000
vn 0.000000 1.000000 0.000000
vn 0.000000 1.000000 0.000000
vn -0.981093 0.000000 -0.193536
vn -0.981093 0.000000 -0.193536
vn -0.981093 0.000000 -0.193536
vn -0.981093 0.000000 -0.193536
vn 0.000000 1.000000 0.000000
vn 0.000000 1.000000 0.000000
vn 0.000000 1.000000 0.000000
vn 0.000000 1.000000 0.000000
vn -0.864647 -0.000015 0.502380
vn -0.864647 -0.000015 0.502380
vn -0.864647 -0.000015 0.502380
vn -0.864647 -0.000015 0.502380
vn 0.000000 -1.000000 0.000000
vn 0.000000 -1.000000 0.000000
vn 0.000000 -1.000000 0.000000
vn 0.000000 -1.000000 0.000000
vn 0.913762 0.000000 -0.406251
vn 0.913762 0.000000 -0.406251
vn 0.913762 0.000000 -0.406251
vn 0.913762 0.000000 -0.406251
vn 0.000000 -1.000000 0.000001
vn 0.000000 -1.000000 0.000001
vn 0.000000 -1.000000 0.000001
vn 0.000000 -1.000000 0.000001
vn 0.000000 0.000000 1.000000
vn 0.000000 0.000000 1.000000
vn 0.000000 0.000000 1.000000
vn 0.000000 0.000000 1.000000
vn 0.000000 1.000000 0.000000
vn 0.000000 1.000000 0.000000
vn 0.000000 1.000000 0.000000
vn 0.000000 1.000000 0.000000
vn 0.000000 0.000000 -1.000000
vn 0.000000 0.000000 -1.000000
vn 0.000000 0.000000 -1.000000
vn 0.000000 0.000000 -1.000000
vn -0.309011 0.000000 0.951058
vn -0.309011 0.000000 0.951058
vn -0.309011 0.000000 0.951058
vn -0.309011 0.000000 0.951058
vn -1.000000 0.000000 0.000000
vn -1.000000 0.000000 0.000000
vn -1.000000 0.000000 0.000000
vn -1.000000 0.000000 0.000000
vn -0.309011 0.000000 -0.951058
vn -0.309011 0.000000 -0.951058
vn -0.309011 0.000000 -0.951058
vn -0.309011 0.000000 -0.951058
vn 0.808997 0.000000 -0.587813
vn 0.808997 0.000000 -0.587813
vn 0.808997 0.000000 -0.587813
vn 0.808997 0.000000 -0.587813
vn 0.808997 0.000000 0.587813
vn 0.808997 0.000000 0.587813
vn 0.808997 0.000000 0.587813
vn 0.808997 0.000000 0.587813
vn 0.000000 -1.000000 -0.000000
vn 0.000000 -1.000000 -0.000000
vn 0.000000 -1.000000 -0.000000
vn 0.000000 -1.000000 -0.000000
vn 0.909607 0.000048 0.415471
vn 0.909607 0.000048 0.415471
vn 0.909606 0.000048 0.415471
vn 0.909606 0.000048 0.415471
vn 0.000000 1.000000 -0.000001
vn 0.000000 1.000000 -0.000001
vn 0.000000 1.000000 -0.000001
vn 0.000000 1.000000 -0.000001
vn -0.869342 -0.000023 -0.494211
vn -0.869342 -0.000023 -0.494211
vn -0.869342 -0.000023 -0.494211
vn -0.869342 -0.000023 -0.494211
vn 0.000000 1.000000 -0.000000
vn 0.000000 1.000000 -0.000000
vn 0.000000 1.000000 -0.000000
vn 0.000000 1.000000 -0.000000
vn -0.908581 0.000000 0.417709
vn -0.908581 0.000000 0.417709
vn -0.908581 0.000000 0.417709
vn -0.908581 0.000000 0.417709
vn 0.000000 -1.000000 -0.000001
vn 0.000000 -1.000000 -0.000001
vn 0.000000 -1.000000 -0.000001
vn 0.000000 -1.000000 -0.000001
vn 0.865990 0.000023 -0.500061
vn 0.865990 0.000023 -0.500061
vn 0.865990 0.000023 -0.500061
vn 0.865990 0.000023 -0.500061
vn -0.000004 -1.000000 0.000000
vn -0.000004 -1.000000 0.000000
vn -0.000004 -1.000000 0.000000
vn -0.000004 -1.000000 0.000000
vn -0.000000 0.000000 1.000000
vn -0.000000 0.000000 1.000000
vn -0.000000 0.000000 1.000000
vn -0.000000 0.000000 1.000000
vn 0.000000 1.000000 0.000001
vn 0.000000 1.000000 0.000001
vn 0.000000 1.000000 0.000001
vn 0.000000 1.000000 0.000001
vn -0.000000 0.000000 -1.000000
vn -0.000000 0.000000 -1.000000
vn -0.000000 0.000000 -1.000000
vn -0.000000 0.000000 -1.000000
vn 0.000000 0.000000 -1.000000
vn 0.000000 0.000000 -1.000000
vn 0.000000 0.000000 -1.000000
vn 0.000000 0.000000 -1.000000
vn 0.000000 0.000000 -1.000000
vn 0.000000 0.000000 -1.000000
vn 0.000000 0.000000 -1.000000
vn 0.000000 0.000000 -1.000000
vn 0.000000 0.000000 -1.000000
vn 0.000000 0.000000 -1.000000
vn 0.000000 0.000000 -1.000000
vn 0.000000 0.000000 -1.000000
vn 0.000000 0.000000 -1.000000
vn 0.000000 0.000000 -1.000000
vn 0.000000 0.000000 -1.000000
vn 0.000000 0.000000 -1.000000
s off
f 9/1/1 10/2/2 1/3/3 2/4/4
f 10/2/5 11/5/6 3/6/7 1/3/8
f 11/5/9 12/7/10 4/8/11 3/6/12
f 12/7/13 9/1/14 2/4/15 4/8/16
f 13/9/17 14/10/18 5/11/19 6/12/20
f 14/10/21 15/13/22 7/14/23 5/11/24
f 15/13/25 16/15/26 8/16/27 7/14/28
f 16/15/29 13/9/30 6/12/31 8/16/32
f 2/4/33 1/3/34 7/17/35 8/18/36
f 1/3/37 3/6/38 5/19/39 7/17/40
f 3/6/41 4/8/42 6/20/43 5/19/44
f 4/8/45 2/4/46 8/18/47 6/20/48
f 17/21/49 22/22/50 23/23/51 18/24/52
f 18/24/53 23/23/54 24/25/55 19/26/56
f 19/26/57 24/25/58 25/27/59 20/28/60
f 20/28/61 25/27/62 26/29/63 21/30/64
f 21/30/65 26/29/66 22/22/67 17/21/68
f 35/31/69 36/32/70 27/33/71 28/34/72
f 36/32/73 37/35/74 29/36/75 27/33/76
f 37/35/77 38/37/78 30/38/79 29/36/80
f 38/37/81 35/31/82 28/34/83 30/38/84
f 39/39/85 40/40/86 31/41/87 32/42/88
f 40/40/89 41/43/90 33/44/91 31/41/92
f 41/43/93 42/45/94 34/46/95 33/44/96
f 42/45/97 39/39/98 32/42/99 34/46/100
f 28/34/101 27/33/102 33/47/103 34/48/104
f 27/33/105 29/36/106 31/49/107 33/47/108
f 29/36/109 30/38/110 32/50/111 31/49/112
f 30/38/113 28/34/114 34/48/115 32/50/116
f 9/1/117 12/7/118 11/5/119 10/2/120
f 13/9/121 16/15/122 15/13/123 14/10/124
f 35/31/125 38/37/126 37/35/127 36/32/128
f 39/39/129 42/45/130 41/43/131 40/40/132
