# This file uses centimeters as units for non-parametric coordinates.

v 177.890625 236.648132 14.705200
v 179.302063 236.648132 14.705200
v 177.890625 236.648132 13.293945
v 179.302063 236.648132 13.293945
v 71.122986 204.177094 14.828247
v 72.562683 204.177094 14.828247
v 71.122986 236.648132 14.828247
v 72.562683 236.648132 14.828247
v 71.122986 236.648132 13.388428
v 72.562683 236.648132 13.388428
v 71.122986 204.177094 13.388428
v 72.562683 204.177094 13.388428
v 177.890625 116.604889 13.348389
v 179.302063 116.604889 13.348389
v 179.302063 116.604889 14.759766
v 177.890625 116.604889 14.759766
v 176.912308 116.210876 12.370117
v 180.280243 116.210876 12.370117
v 180.280243 116.210876 15.738037
v 176.912308 116.210876 15.738037
v 176.912308 111.630005 12.370117
v 180.280243 111.630005 12.370117
v 180.280243 111.630005 15.738037
v 176.912308 111.630005 15.738037
v 67.224380 217.035278 18.782227
v 182.063660 217.035278 18.782227
v 67.224380 221.157532 20.728027
v 182.063660 221.157532 20.728027
v 67.224380 233.546814 8.360474
v 182.063660 233.546814 8.360474
v 67.224380 229.424866 6.415161
v 182.063660 229.424866 6.415161
v 67.171204 205.557068 17.881104
v 181.999542 202.150574 19.682495
v 67.191345 209.678772 19.827271
v 182.019592 206.272278 21.628296
v 67.288574 222.066650 7.460327
v 182.116821 218.660156 9.261597
v 67.268448 217.944946 5.514893
v 182.096771 214.538452 7.315796
v 67.224380 198.042603 18.782349
v 182.063660 198.042603 18.782349
v 67.224380 202.164734 20.728027
v 182.063660 202.164734 20.728027
v 67.224380 214.554138 8.360474
v 182.063660 214.554138 8.360474
v 67.224380 210.432068 6.415161
v 182.063660 210.432068 6.415161
v 67.224380 210.646606 18.782227
v 182.063660 210.646606 18.782227
v 67.224380 214.768677 20.728027
v 182.063660 214.768677 20.728027
v 67.224380 227.158142 8.360596
v 182.063660 227.158142 8.360596
v 67.224380 223.036194 6.415161
v 182.063660 223.036194 6.415161
vt 0.298426 0.009109
vt 0.298426 0.009109
vt 0.298426 0.009109
vt 0.298426 0.009109
vt 0.298426 0.009109
vt 0.298426 0.009109
vt 0.298426 0.009109
vt 0.298426 0.009109
vt 0.298426 0.009109
vt 0.298426 0.009109
vt 0.298426 0.009109
vt 0.298426 0.009109
vt 0.298426 0.009109
vt 0.298426 0.009109
vt 0.298426 0.009109
vt 0.298426 0.009109
vt 0.298426 0.009109
vt 0.298426 0.009109
vt 0.298426 0.009109
vt 0.298426 0.009109
vt 0.298426 0.009109
vt 0.298426 0.009109
vt 0.298426 0.009109
vt 0.298426 0.009109
vt 0.418721 0.006079
vt 0.418721 0.006079
vt 0.418721 0.006079
vt 0.418721 0.006079
vt 0.418721 0.006079
vt 0.418721 0.006079
vt 0.418721 0.006079
vt 0.418721 0.006079
vt 0.418721 0.006079
vt 0.418721 0.006079
vt 0.418721 0.006079
vt 0.418721 0.006079
vt 0.357638 0.007603
vt 0.357638 0.007603
vt 0.357638 0.007603
vt 0.357638 0.007603
vt 0.357638 0.007603
vt 0.357638 0.007603
vt 0.357638 0.007603
vt 0.357638 0.007603
vt 0.357638 0.007603
vt 0.357638 0.007603
vt 0.357638 0.007603
vt 0.357638 0.007603
vt 0.357638 0.007603
vt 0.357638 0.007603
vt 0.357638 0.007603
vt 0.357638 0.007603
vt 0.357638 0.007603
vt 0.357638 0.007603
vt 0.357638 0.007603
vt 0.357638 0.007603
vt 0.357638 0.007603
vt 0.357638 0.007603
vt 0.357638 0.007603
vt 0.357638 0.007603
vt 0.300054 0.007603
vt 0.300054 0.007603
vt 0.300054 0.007603
vt 0.300054 0.007603
vt 0.300054 0.007603
vt 0.300054 0.007603
vt 0.300054 0.007603
vt 0.300054 0.007603
vt 0.300054 0.007603
vt 0.300054 0.007603
vt 0.300054 0.007603
vt 0.300054 0.007603
vt 0.300054 0.007603
vt 0.300054 0.007603
vt 0.300054 0.007603
vt 0.300054 0.007603
vt 0.300054 0.007603
vt 0.300054 0.007603
vt 0.300054 0.007603
vt 0.300054 0.007603
vt 0.300054 0.007603
vt 0.300054 0.007603
vt 0.300054 0.007603
vt 0.300054 0.007603
vt 0.331931 0.007603
vt 0.331931 0.007603
vt 0.331931 0.007603
vt 0.331931 0.007603
vt 0.331931 0.007603
vt 0.331931 0.007603
vt 0.331931 0.007603
vt 0.331931 0.007603
vt 0.331931 0.007603
vt 0.331931 0.007603
vt 0.331931 0.007603
vt 0.331931 0.007603
vt 0.331931 0.007603
vt 0.331931 0.007603
vt 0.331931 0.007603
vt 0.331931 0.007603
vt 0.331931 0.007603
vt 0.331931 0.007603
vt 0.331931 0.007603
vt 0.331931 0.007603
vt 0.331931 0.007603
vt 0.331931 0.007603
vt 0.331931 0.007603
vt 0.331931 0.007603
vt 0.331931 0.007603
vt 0.331931 0.007603
vt 0.331931 0.007603
vt 0.331931 0.007603
vn 0.000000 0.000455 1.000000
vn 0.000000 0.000455 1.000000
vn 0.000000 0.000455 1.000000
vn 0.000000 0.000455 1.000000
vn 0.000000 1.000000 0.000000
vn 0.000000 1.000000 0.000000
vn 0.000000 1.000000 0.000000
vn 0.000000 1.000000 0.000000
vn 0.000000 -0.000454 -1.000000
vn 0.000000 -0.000454 -1.000000
vn 0.000000 -0.000454 -1.000000
vn 0.000000 -0.000454 -1.000000
vn 0.000000 -1.000000 0.000000
vn 0.000000 -1.000000 0.000000
vn 0.000000 -1.000000 0.000000
vn 0.000000 -1.000000 0.000000
vn 1.000000 -0.000000 0.000000
vn 1.000000 -0.000000 0.000000
vn 1.000000 -0.000000 0.000000
vn 1.000000 -0.000000 0.000000
vn -1.000000 -0.000000 0.000000
vn -1.000000 -0.000000 0.000000
vn -1.000000 -0.000000 0.000000
vn -1.000000 -0.000000 0.000000
vn 0.000000 0.000000 1.000000
vn 0.000000 0.000000 1.000000
vn 0.000000 0.000000 1.000000
vn 0.000000 0.000000 1.000000
vn 0.000000 1.000000 0.000000
vn 0.000000 1.000000 0.000000
vn 0.000000 1.000000 0.000000
vn 0.000000 1.000000 0.000000
vn 0.000000 0.000000 -1.000000
vn 0.000000 0.000000 -1.000000
vn 0.000000 0.000000 -1.000000
vn 0.000000 0.000000 -1.000000
vn 0.000000 -1.000000 0.000000
vn 0.000000 -1.000000 0.000000
vn 0.000000 -1.000000 0.000000
vn 0.000000 -1.000000 0.000000
vn 1.000000 0.000000 0.000000
vn 1.000000 0.000000 0.000000
vn 1.000000 0.000000 0.000000
vn 1.000000 0.000000 0.000000
vn -1.000000 0.000000 0.000000
vn -1.000000 0.000000 0.000000
vn -1.000000 0.000000 0.000000
vn -1.000000 0.000000 0.000000
vn 0.000000 0.927588 -0.373604
vn 0.000000 0.927588 -0.373604
vn 0.000000 0.927588 -0.373604
vn 0.000000 0.927588 -0.373604
vn 0.373627 0.927579 0.000000
vn 0.373627 0.927579 0.000000
vn 0.373627 0.927579 0.000000
vn 0.373627 0.927579 0.000000
vn 0.000000 0.927588 0.373604
vn 0.000000 0.927588 0.373604
vn 0.000000 0.927588 0.373604
vn 0.000000 0.927588 0.373604
vn -0.373590 0.927594 0.000000
vn -0.373590 0.927594 0.000000
vn -0.373590 0.927594 0.000000
vn -0.373590 0.927594 0.000000
vn 0.000000 0.000000 -1.000000
vn 0.000000 0.000000 -1.000000
vn 0.000000 0.000000 -1.000000
vn 0.000000 0.000000 -1.000000
vn 1.000000 0.000000 0.000000
vn 1.000000 0.000000 0.000000
vn 1.000000 0.000000 0.000000
vn 1.000000 0.000000 0.000000
vn 0.000000 0.000000 1.000000
vn 0.000000 0.000000 1.000000
vn 0.000000 0.000000 1.000000
vn 0.000000 0.000000 1.000000
vn -1.000000 0.000000 0.000000
vn -1.000000 0.000000 0.000000
vn -1.000000 0.000000 0.000000
vn -1.000000 0.000000 0.000000
vn 0.000000 -0.426859 0.904318
vn 0.000000 -0.426859 0.904318
vn 0.000000 -0.426859 0.904318
vn 0.000000 -0.426859 0.904318
vn 0.000000 0.706486 0.707727
vn 0.000000 0.706486 0.707727
vn 0.000000 0.706486 0.707727
vn 0.000000 0.706486 0.707727
vn 0.000000 0.426798 -0.904347
vn 0.000000 0.426798 -0.904347
vn 0.000000 0.426798 -0.904347
vn 0.000000 0.426798 -0.904347
vn 0.000000 -0.706463 -0.707750
vn 0.000000 -0.706463 -0.707750
vn 0.000000 -0.706463 -0.707750
vn 0.000000 -0.706463 -0.707750
vn 1.000000 0.000001 0.000000
vn 1.000000 0.000001 0.000000
vn 1.000000 0.000001 0.000000
vn 1.000000 0.000001 0.000000
vn -1.000000 0.000000 0.000000
vn -1.000000 0.000000 0.000000
vn -1.000000 0.000000 0.000000
vn -1.000000 0.000000 0.000000
vn -0.026838 -0.426677 0.904006
vn -0.026838 -0.426677 0.904006
vn -0.026838 -0.426677 0.904006
vn -0.026838 -0.426677 0.904006
vn 0.009856 0.706432 0.707712
vn 0.009856 0.706432 0.707712
vn 0.009856 0.706432 0.707712
vn 0.009856 0.706432 0.707712
vn 0.026836 0.426613 -0.904036
vn 0.026836 0.426613 -0.904036
vn 0.026836 0.426613 -0.904036
vn 0.026836 0.426613 -0.904036
vn -0.009856 -0.706422 -0.707723
vn -0.009856 -0.706422 -0.707723
vn -0.009856 -0.706422 -0.707723
vn -0.009856 -0.706422 -0.707723
vn 0.999981 -0.005823 0.002030
vn 0.999981 -0.005823 0.002030
vn 0.999981 -0.005823 0.002030
vn 0.999981 -0.005823 0.002030
vn -0.999981 0.005837 -0.002016
vn -0.999981 0.005837 -0.002016
vn -0.999981 0.005837 -0.002016
vn -0.999981 0.005837 -0.002016
vn 0.000000 -0.426848 0.904324
vn 0.000000 -0.426848 0.904324
vn 0.000000 -0.426848 0.904324
vn 0.000000 -0.426848 0.904324
vn 0.000000 0.706483 0.707730
vn 0.000000 0.706483 0.707730
vn 0.000000 0.706483 0.707730
vn 0.000000 0.706483 0.707730
vn 0.000000 0.426788 -0.904352
vn 0.000000 0.426788 -0.904352
vn 0.000000 0.426788 -0.904352
vn 0.000000 0.426788 -0.904352
vn 0.000000 -0.706470 -0.707743
vn 0.000000 -0.706470 -0.707743
vn 0.000000 -0.706470 -0.707743
vn 0.000000 -0.706470 -0.707743
vn 1.000000 0.000001 0.000000
vn 1.000000 0.000001 0.000000
vn 1.000000 0.000001 0.000000
vn 1.000000 0.000001 0.000000
vn -1.000000 -0.000000 0.000000
vn -1.000000 -0.000000 0.000000
vn -1.000000 -0.000000 0.000000
vn -1.000000 -0.000000 0.000000
vn 0.000000 -0.426874 0.904311
vn 0.000000 -0.426874 0.904311
vn 0.000000 -0.426874 0.904311
vn 0.000000 -0.426874 0.904311
vn 0.000000 0.706477 0.707736
vn 0.000000 0.706477 0.707736
vn 0.000000 0.706477 0.707736
vn 0.000000 0.706477 0.707736
vn 0.000000 0.426820 -0.904337
vn 0.000000 0.426820 -0.904337
vn 0.000000 0.426820 -0.904337
vn 0.000000 0.426820 -0.904337
vn 0.000000 -0.706463 -0.707750
vn 0.000000 -0.706463 -0.707750
vn 0.000000 -0.706463 -0.707750
vn 0.000000 -0.706463 -0.707750
vn 1.000000 0.000001 0.000000
vn 1.000000 0.000001 0.000000
vn 1.000000 0.000001 0.000000
vn 1.000000 0.000001 0.000000
vn -1.000000 0.000001 0.000000
vn -1.000000 0.000001 0.000000
vn -1.000000 0.000001 0.000000
vn -1.000000 0.000001 0.000000
s off
f 2/2/1 1/1/2 16/24/3 15/23/4
f 1/1/5 2/2/6 4/4/7 3/3/8
f 3/3/9 4/4/10 14/22/11 13/21/12
f 21/25/13 22/26/14 23/27/15 24/28/16
f 4/5/17 2/2/18 15/23/19 14/22/20
f 1/1/21 3/6/22 13/21/23 16/24/24
f 5/7/25 6/8/26 8/9/27 7/10/28
f 7/10/29 8/9/30 10/11/31 9/12/32
f 9/12/33 10/11/34 12/13/35 11/14/36
f 11/14/37 12/13/38 6/15/39 5/16/40
f 6/8/41 12/17/42 10/18/43 8/9/44
f 11/19/45 5/7/46 7/10/47 9/20/48
f 13/29/49 14/30/50 18/31/51 17/32/52
f 14/30/53 15/33/54 19/34/55 18/31/56
f 15/33/57 16/35/58 20/36/59 19/34/60
f 16/35/61 13/29/62 17/32/63 20/36/64
f 17/32/65 18/31/66 22/26/67 21/25/68
f 18/31/69 19/34/70 23/27/71 22/26/72
f 19/34/73 20/36/74 24/28/75 23/27/76
f 20/36/77 17/32/78 21/25/79 24/28/80
f 25/37/81 26/38/82 28/39/83 27/40/84
f 27/41/85 28/42/86 30/43/87 29/44/88
f 29/45/89 30/46/90 32/47/91 31/48/92
f 31/49/93 32/50/94 26/51/95 25/52/96
f 26/53/97 32/54/98 30/55/99 28/56/100
f 31/57/101 25/58/102 27/59/103 29/60/104
f 33/61/105 34/62/106 36/63/107 35/64/108
f 35/65/109 36/66/110 38/67/111 37/68/112
f 37/69/113 38/70/114 40/71/115 39/72/116
f 39/73/117 40/74/118 34/75/119 33/76/120
f 34/77/121 40/78/122 38/79/123 36/80/124
f 39/81/125 33/82/126 35/83/127 37/84/128
f 41/85/129 42/86/130 44/87/131 43/88/132
f 43/88/133 44/87/134 46/89/135 45/90/136
f 45/90/137 46/89/138 48/91/139 47/92/140
f 47/92/141 48/91/142 42/93/143 41/94/144
f 42/86/145 48/95/146 46/96/147 44/87/148
f 47/97/149 41/85/150 43/88/151 45/98/152
f 49/99/153 50/100/154 52/101/155 51/102/156
f 51/102/157 52/101/158 54/103/159 53/104/160
f 53/104/161 54/103/162 56/105/163 55/106/164
f 55/106/165 56/105/166 50/107/167 49/108/168
f 50/100/169 56/109/170 54/110/171 52/101/172
f 55/111/173 49/99/174 51/102/175 53/112/176
