# This file uses centimeters as units for non-parametric coordinates.

v -18.549129 19.398438 18.549263
v -18.549129 300.000092 18.549263
v -19.559475 21.685183 19.559364
v -19.559475 297.713379 19.559364
v -21.410135 13.978336 21.410023
v -21.410135 -0.000001 21.410023
v -21.410135 -0.000001 0.000000
v -18.549129 300.000092 0.000000
v -19.559475 297.713379 0.000000
v -19.559475 21.685183 0.000000
v -18.549129 19.398438 0.000000
v -21.410135 13.978336 0.000000
v 0.000133 19.398438 0.000000
v 0.000133 21.685183 0.000000
v 0.000133 297.713379 0.000000
v 0.000133 300.654175 0.000000
v 0.000133 300.000092 18.549263
v 0.000133 297.713379 19.559364
v 0.000133 21.685183 19.559364
v 0.000133 19.398438 18.549263
v 0.000133 13.978336 21.410023
v 0.000133 -0.000001 21.410023
v 0.000133 -0.000001 0.000000
v 0.000133 13.978336 0.000000
vt 0.063006 0.152024
vt 0.063006 0.152024
vt 0.063006 0.152024
vt 0.063006 0.152024
vt 0.063006 0.152024
vt 0.063006 0.152024
vt 0.063006 0.152024
vt 0.063006 0.152024
vt 0.063006 0.152024
vt 0.063006 0.152024
vt 0.063006 0.152024
vt 0.063006 0.152024
vt 0.063006 0.152024
vt 0.063006 0.152024
vt 0.063006 0.152024
vt 0.063006 0.152024
vt 0.063006 0.152024
vt 0.063006 0.152024
vt 0.063006 0.152024
vt 0.063006 0.152024
vt 0.063006 0.152024
vt 0.063006 0.152024
vt 0.063006 0.152024
vt 0.063006 0.152024
vt 0.063006 0.152024
vt 0.063006 0.152024
vt 0.063006 0.152024
vt 0.063006 0.152024
vt 0.063006 0.152024
vn -1.000000 0.000000 0.000000
vn -1.000000 0.000000 0.000000
vn -1.000000 0.000000 0.000000
vn -1.000000 0.000000 0.000000
vn -0.914698 -0.404138 0.000000
vn -0.914698 -0.404138 0.000000
vn -0.914698 -0.404138 0.000000
vn -0.914698 -0.404138 0.000000
vn -0.914696 0.404143 0.000000
vn -0.914696 0.404143 0.000000
vn -0.914696 0.404143 0.000000
vn -0.914696 0.404143 0.000000
vn -0.884358 0.466809 0.000000
vn -0.884358 0.466809 0.000000
vn -0.884358 0.466809 0.000000
vn -0.884358 0.466809 0.000000
vn -1.000000 0.000000 0.000000
vn -1.000000 0.000000 0.000000
vn -1.000000 0.000000 0.000000
vn -1.000000 0.000000 0.000000
vn 0.000000 0.000000 -1.000000
vn 0.000000 0.000000 -1.000000
vn 0.000000 0.000000 -1.000000
vn 0.000000 0.000000 -1.000000
vn 0.000000 0.000000 -1.000000
vn 0.000000 0.000000 -1.000000
vn 0.000000 0.000000 -1.000000
vn 0.000000 0.000000 -1.000000
vn 0.000000 0.000000 -1.000000
vn 0.000000 0.000000 -1.000000
vn 0.000000 0.000000 -1.000000
vn 0.000000 0.000000 -1.000000
vn -0.035240 0.999379 0.000000
vn -0.035240 0.999379 0.000000
vn -0.035240 0.999379 0.000000
vn 0.000000 0.404059 0.914733
vn 0.000000 0.404059 0.914733
vn 0.000000 0.404059 0.914733
vn 0.000000 0.404059 0.914733
vn 0.000000 0.000000 1.000000
vn 0.000000 0.000000 1.000000
vn 0.000000 0.000000 1.000000
vn 0.000000 0.000000 1.000000
vn 0.000000 -0.404056 0.914734
vn 0.000000 -0.404056 0.914734
vn 0.000000 -0.404056 0.914734
vn 0.000000 -0.404056 0.914734
vn 0.000000 0.466778 0.884375
vn 0.000000 0.466778 0.884375
vn 0.000000 0.466778 0.884375
vn 0.000000 0.466778 0.884375
vn 0.000000 0.000000 1.000000
vn 0.000000 0.000000 1.000000
vn 0.000000 0.000000 1.000000
vn 0.000000 0.000000 1.000000
vn 0.000000 -1.000000 0.000000
vn 0.000000 -1.000000 0.000000
vn 0.000000 -1.000000 0.000000
vn 0.000000 -1.000000 0.000000
vn 0.000000 0.000000 -1.000000
vn 0.000000 0.000000 -1.000000
vn 0.000000 0.000000 -1.000000
vn 0.000000 0.000000 -1.000000
vn 0.000000 0.000000 -1.000000
vn 0.000000 0.000000 -1.000000
vn 0.000000 0.000000 -1.000000
vn 0.000000 0.000000 -1.000000
vn 1.000000 -0.000000 0.000000
vn 1.000000 -0.000000 0.000000
vn 1.000000 -0.000000 0.000000
vn 1.000000 -0.000000 0.000000
vn 1.000000 0.000000 0.000000
vn 1.000000 0.000000 0.000000
vn 1.000000 0.000000 0.000000
vn 1.000000 0.000000 0.000000
vn 1.000000 0.000000 0.000000
vn 1.000000 0.000000 0.000000
vn 1.000000 0.000000 0.000000
vn 1.000000 0.000000 0.000000
vn 1.000000 0.000000 0.000000
vn 1.000000 0.000000 0.000000
vn 1.000000 0.000000 0.000000
vn 1.000000 0.000000 0.000000
vn 1.000000 0.000000 0.000000
vn 1.000000 0.000000 0.000000
vn 1.000000 0.000000 0.000000
vn 1.000000 0.000000 0.000000
vn 0.000000 0.999379 0.035240
vn 0.000000 0.999379 0.035240
vn 0.000000 0.999379 0.035240
s off
f 4/5/1 9/11/2 10/12/3 3/4/4
f 10/12/5 11/13/6 1/1/7 3/4/8
f 2/2/9 8/9/10 9/11/11 4/5/12
f 1/3/13 11/14/14 12/15/15 5/6/16
f 5/6/17 12/15/18 7/8/19 6/7/20
f 14/17/21 13/16/22 11/13/23 10/12/24
f 14/17/25 10/12/26 9/11/27 15/18/28
f 16/20/29 15/18/30 9/11/31 8/10/32
f 2/2/33 16/19/34 8/10/35
f 18/22/36 17/21/37 2/2/38 4/5/39
f 18/22/40 4/5/41 3/4/42 19/23/43
f 1/1/44 20/24/45 19/23/46 3/4/47
f 21/26/48 20/25/49 1/3/50 5/6/51
f 22/27/52 21/26/53 5/6/54 6/7/55
f 7/8/56 23/28/57 22/27/58 6/7/59
f 24/29/60 23/28/61 7/8/62 12/15/63
f 13/16/64 24/29/65 12/15/66 11/13/67
f 18/22/68 15/18/69 16/19/70 17/21/71
f 18/22/72 19/23/73 14/17/74 15/18/75
f 14/17/76 19/23/77 20/25/78 13/16/79
f 13/16/80 20/25/81 21/26/82 24/29/83
f 24/29/84 21/26/85 22/27/86 23/28/87
f 2/2/88 17/21/89 16/19/90
