# This file uses centimeters as units for non-parametric coordinates.

v 67.156372 6.160337 17.040771
v 67.156372 6.160337 10.167480
v 182.843933 6.160337 17.040771
v 182.843933 6.160337 10.167480
v 67.156372 293.539734 17.040771
v 67.156372 293.539734 10.167480
v 182.843933 293.539734 17.040771
v 182.843933 293.539734 10.167480
v 76.625977 235.633942 10.167480
v 76.625977 12.958159 10.167480
v 173.374329 235.633942 10.167480
v 173.374329 244.652008 10.167480
v 76.625977 244.575867 10.167480
v 173.374329 12.958159 10.167480
v 76.625977 286.741974 10.167480
v 173.374329 286.741974 10.167480
v 76.625977 235.633942 0.000000
v 76.625977 12.958159 0.000000
v 173.374329 235.633942 0.000000
v 173.374329 244.652008 0.000000
v 76.625977 244.575867 0.000000
v 173.374329 12.958159 0.000000
v 76.625977 286.741974 0.000000
v 173.374329 286.741974 0.000000
v 67.034241 239.666870 17.040771
v 67.034241 218.648270 17.040771
v 65.317993 233.019501 17.040771
v 67.034241 233.318878 15.820068
v 182.843933 76.443192 17.040771
v 182.843933 100.155540 17.040771
v 184.805725 90.476326 17.040771
v 182.843933 89.862015 14.806519
v 160.437683 243.628448 10.167480
v 135.730499 243.603378 10.167480
v 147.106323 243.617874 8.409424
v 147.798584 241.812454 10.167480
v 89.062683 287.606750 10.167480
v 116.760773 287.606750 10.167480
v 100.254272 289.206543 10.167480
v 99.713928 287.606750 7.738403
v 75.557739 94.120628 10.167603
v 75.557739 116.125580 10.167603
v 75.557739 103.618874 8.818726
v 73.486267 104.428795 10.167480
v 62.500122 1.508988 17.040771
v 187.500092 1.508988 17.040771
v 62.500122 298.191071 17.040771
v 187.500092 298.191071 17.040771
v 188.879395 0.000000 14.999878
v 61.120758 0.000000 14.999878
v 61.120758 299.700073 14.999878
v 188.879395 299.700073 14.999878
v 61.120758 299.700073 0.000000
v 61.120758 -0.000001 0.000000
v 188.879395 -0.000001 0.000000
v 188.879395 299.700073 0.000000
v 0.000000 0.000000 14.999878
v 0.000000 0.000000 0.000000
v 0.000000 299.700043 14.999878
v 0.000000 299.700043 0.000000
v 250.000061 0.000000 14.999878
v 250.000061 0.000000 0.000000
v 250.000061 299.700043 14.999878
v 250.000061 299.700043 0.000000
vt 0.102602 0.232068
vt 0.102616 0.232082
vt 0.101891 0.232224
vt 0.101883 0.232206
vt 0.102603 0.231282
vt 0.102610 0.231386
vt 0.101875 0.232062
vt 0.101804 0.231367
vt 0.102618 0.231291
vt 0.101813 0.231378
vt 0.102641 0.232101
vt 0.101861 0.232255
vt 0.102624 0.231391
vt 0.102646 0.231255
vt 0.101773 0.231346
vt 0.101855 0.232057
vt 0.102815 0.253173
vt 0.102815 0.253173
vt 0.102815 0.253173
vt 0.102815 0.253173
vt 0.102815 0.253173
vt 0.102815 0.253173
vt 0.102815 0.253173
vt 0.102815 0.253173
vt 0.102815 0.253173
vt 0.102815 0.253173
vt 0.102815 0.253173
vt 0.102815 0.253173
vt 0.102815 0.253173
vt 0.102815 0.253173
vt 0.102815 0.253173
vt 0.102815 0.253173
vt 0.102815 0.253173
vt 0.102815 0.253173
vt 0.102815 0.253173
vt 0.102815 0.253173
vt 0.102815 0.253173
vt 0.102815 0.253173
vt 0.102815 0.253173
vt 0.102815 0.253173
vt 0.102815 0.253173
vt 0.102815 0.253173
vt 0.102815 0.253173
vt 0.102815 0.253173
vt 0.102618 0.231450
vt 0.102618 0.231352
vt 0.101872 0.232020
vt 0.101883 0.232138
vt 0.102815 0.253173
vt 0.102815 0.253173
vt 0.102815 0.253173
vt 0.102815 0.253173
vt 0.102487 0.232601
vt 0.102783 0.232066
vt 0.102794 0.232069
vt 0.102492 0.232601
vt 0.102727 0.231601
vt 0.102731 0.231603
vt 0.102572 0.232094
vt 0.102574 0.232094
vt 0.102943 0.230799
vt 0.102943 0.230757
vt 0.102486 0.230755
vt 0.102495 0.230798
vt 0.102950 0.231725
vt 0.102949 0.231755
vt 0.102357 0.231754
vt 0.102341 0.231724
vt 0.002042 0.751845
vt 0.002061 0.751844
vt 0.002061 0.751837
vt 0.002042 0.751838
vt 0.002040 0.751710
vt 0.002040 0.751703
vt 0.002060 0.751702
vt 0.002060 0.751709
vt 0.055156 0.997796
vt 0.001595 0.997796
vt 0.001595 0.752547
vt 0.055156 0.752547
vt 0.001925 0.751851
vt 0.001926 0.751844
vt 0.001906 0.751845
vt 0.001906 0.751852
vt 0.001919 0.751716
vt 0.001899 0.751717
vt 0.001899 0.751710
vt 0.001920 0.751709
vt 0.194657 0.997796
vt 0.194657 0.752547
vt 0.248737 0.752547
vt 0.248737 0.997796
vn 0.000000 1.000000 0.000000
vn 0.000000 1.000000 0.000000
vn 0.000000 1.000000 0.000000
vn 0.000000 1.000000 0.000000
vn 0.999767 0.000000 0.021601
vn 0.999767 0.000000 0.021601
vn 0.999767 0.000000 0.021601
vn -1.000000 0.000000 0.000000
vn -1.000000 0.000000 0.000000
vn -1.000000 0.000000 0.000000
vn 0.000000 -1.000000 0.000000
vn 0.000000 -1.000000 0.000000
vn 0.000000 -1.000000 0.000000
vn 0.000000 -1.000000 0.000000
vn 0.000000 0.000000 1.000000
vn 0.000000 0.000000 1.000000
vn 0.000000 0.000000 1.000000
vn 0.000000 0.000000 1.000000
vn 0.000000 0.000000 1.000000
vn 0.000000 0.000000 1.000000
vn 0.000000 0.000000 1.000000
vn 0.000001 0.000000 1.000000
vn 0.000001 0.000000 1.000000
vn 0.000001 0.000000 1.000000
vn 0.000000 0.000000 1.000000
vn 0.000000 0.000000 1.000000
vn 0.000000 0.000000 1.000000
vn 0.000000 0.000000 1.000000
vn 0.000000 0.000000 1.000000
vn 0.000000 0.000000 1.000000
vn 0.000000 0.000000 1.000000
vn 0.000000 0.000000 1.000000
vn 0.000000 0.000000 1.000000
vn 0.000000 0.000000 1.000000
vn 0.000000 0.000000 1.000000
vn 0.000000 0.000000 1.000000
vn 0.000000 0.000000 1.000000
vn 0.000000 0.000000 1.000000
vn 0.000000 0.000000 1.000000
vn 0.000000 0.000000 1.000000
vn 0.000000 0.000000 1.000000
vn 0.000000 0.000000 1.000000
vn 0.000000 0.000000 1.000000
vn 0.000000 0.000000 1.000000
vn 0.000000 0.000000 1.000000
vn 0.000000 0.000000 1.000000
vn 0.000000 0.000000 1.000000
vn -1.000000 0.000000 0.000000
vn -1.000000 0.000000 0.000000
vn -1.000000 0.000000 0.000000
vn -1.000000 0.000000 0.000000
vn 0.000000 1.000000 0.000000
vn 0.000000 1.000000 0.000000
vn 0.000000 1.000000 0.000000
vn 0.000000 1.000000 0.000000
vn 0.999880 0.011928 0.009838
vn 0.999881 0.011928 0.009838
vn 0.999881 0.011928 0.009838
vn 0.999881 0.011928 0.009838
vn 0.000000 -1.000000 0.000000
vn 0.000000 -1.000000 0.000000
vn 0.000000 -1.000000 0.000000
vn 0.000000 -1.000000 0.000000
vn 0.041054 -0.998554 0.034714
vn 0.041054 -0.998554 0.034714
vn 0.041054 -0.998554 0.034714
vn 0.041054 -0.998554 0.034714
vn -1.000000 0.000000 0.000000
vn -1.000000 0.000000 0.000000
vn -1.000000 0.000000 0.000000
vn -1.000000 0.000000 0.000000
vn -0.000781 0.992815 0.119654
vn -0.000781 0.992815 0.119654
vn -0.000781 0.992815 0.119654
vn 1.000000 0.000000 0.000000
vn 1.000000 0.000000 0.000000
vn 1.000000 0.000000 0.000000
vn 1.000000 0.000000 0.000000
vn 0.570343 0.068112 0.818578
vn 0.570343 0.068112 0.818578
vn 0.570343 0.068112 0.818578
vn 0.590352 -0.152420 0.792624
vn 0.590352 -0.152420 0.792624
vn 0.590353 -0.152420 0.792624
vn -0.723003 -0.146538 0.675125
vn -0.723003 -0.146538 0.675125
vn -0.723003 -0.146538 0.675125
vn -0.761498 0.106455 0.639365
vn -0.761498 0.106455 0.639365
vn -0.761498 0.106455 0.639365
vn 0.106001 0.714286 0.691779
vn 0.106001 0.714286 0.691779
vn 0.106001 0.714286 0.691779
vn -0.096987 0.675019 0.731398
vn -0.096987 0.675019 0.731398
vn -0.096987 0.675019 0.731398
vn 0.120241 -0.841167 0.527238
vn 0.120241 -0.841167 0.527239
vn 0.120241 -0.841167 0.527238
vn -0.079883 -0.824222 0.560605
vn -0.079883 -0.824222 0.560605
vn -0.079883 -0.824222 0.560605
vn 0.517907 -0.091729 0.850505
vn 0.517907 -0.091729 0.850505
vn 0.517907 -0.091729 0.850505
vn 0.573250 0.115207 0.811241
vn 0.573250 0.115207 0.811241
vn 0.573250 0.115207 0.811241
vn 0.999927 -0.008182 0.008886
vn 0.999927 -0.008182 0.008886
vn 0.999927 -0.008182 0.008886
vn 0.999927 -0.008182 0.008886
vn 0.992743 0.000000 0.120254
vn 0.992743 0.000000 0.120254
vn 0.992743 0.000000 0.120254
vn -0.000011 -0.000000 1.000000
vn -0.000011 -0.000000 1.000000
vn -0.000011 -0.000000 1.000000
vn -0.000011 -0.000000 1.000000
vn -0.000007 0.000000 1.000000
vn -0.000007 0.000000 1.000000
vn -0.000007 0.000000 1.000000
vn -0.000007 0.000000 1.000000
vn -0.000007 0.000000 1.000000
vn -0.000007 0.000000 1.000000
vn 0.999997 -0.002061 0.001616
vn 0.999997 -0.002061 0.001616
vn 0.999997 -0.002061 0.001616
vn 0.999997 -0.002061 0.001616
vn 0.999999 0.000543 0.000984
vn 0.999999 0.000543 0.000984
vn 0.999999 0.000543 0.000984
vn 0.999999 0.000543 0.000984
vn -0.000000 0.000000 1.000000
vn -0.000000 0.000000 1.000000
vn -0.000000 0.000000 1.000000
vn -0.000000 0.000000 1.000000
vn 0.000000 0.000000 1.000000
vn 0.000000 0.000000 1.000000
vn 0.000000 0.000000 1.000000
vn 0.000000 0.000000 1.000000
vn 0.000000 0.000000 1.000000
vn 0.000000 0.000000 1.000000
vn 0.000000 0.000000 1.000000
vn 0.000000 0.000000 1.000000
vn 0.000000 0.000000 1.000000
vn 0.000000 0.000000 1.000000
vn 0.000000 0.000000 1.000000
vn 0.000000 0.000000 1.000000
vn -0.012286 -0.999786 0.016628
vn -0.012286 -0.999786 0.016628
vn -0.012286 -0.999786 0.016628
vn -0.012286 -0.999786 0.016628
vn 0.000000 -0.993813 0.111064
vn 0.000000 -0.993813 0.111064
vn 0.000000 -0.993813 0.111064
vn 0.013952 0.999797 0.014522
vn 0.013952 0.999797 0.014522
vn 0.013952 0.999797 0.014522
vn 0.013952 0.999797 0.014522
vn -0.042404 0.998017 0.046518
vn -0.042404 0.998017 0.046518
vn -0.042404 0.998017 0.046518
vn -0.042404 0.998017 0.046518
vn -0.000000 0.000000 1.000000
vn -0.000000 0.000000 1.000000
vn -0.000000 0.000000 1.000000
vn -0.000000 0.000000 1.000000
vn 0.000000 0.000000 1.000000
vn 0.000000 0.000000 1.000000
vn 0.000000 0.000000 1.000000
vn 0.000000 0.000000 1.000000
vn -1.000000 0.000000 0.000000
vn -1.000000 0.000000 0.000000
vn -1.000000 0.000000 0.000000
vn -1.000000 0.000000 0.000000
vn -1.000000 -0.000000 0.000000
vn -1.000000 -0.000000 0.000000
vn -1.000000 -0.000000 0.000000
vn -1.000000 -0.000000 0.000000
vn -0.000000 0.000000 1.000000
vn -0.000000 0.000000 1.000000
vn -0.000000 0.000000 1.000000
vn -0.000000 0.000000 1.000000
vn -0.000000 0.000000 1.000000
vn -0.000000 0.000000 1.000000
vn -0.000000 0.000000 1.000000
vn -0.000000 0.000000 1.000000
vn 0.000000 -0.804082 0.594519
vn 0.000000 -0.804082 0.594519
vn 0.000000 -0.804082 0.594519
vn 0.000000 -0.804082 0.594519
vn -0.828517 0.000000 0.559964
vn -0.828517 0.000000 0.559964
vn -0.828517 0.000000 0.559964
vn -0.828517 0.000000 0.559964
vn 0.828529 0.000000 0.559947
vn 0.828528 0.000000 0.559947
vn 0.828528 0.000000 0.559947
vn 0.828529 0.000000 0.559947
vn 0.000000 0.804077 0.594525
vn 0.000000 0.804077 0.594525
vn 0.000000 0.804077 0.594525
vn 0.000000 0.804077 0.594525
vn 0.000000 1.000000 0.000000
vn 0.000000 1.000000 0.000000
vn 0.000000 1.000000 0.000000
vn 0.000000 1.000000 0.000000
vn 0.000000 -1.000000 0.000000
vn 0.000000 -1.000000 0.000000
vn 0.000000 -1.000000 0.000000
vn 0.000000 -1.000000 0.000000
vn -0.000000 -1.000000 0.000000
vn -0.000000 -1.000000 0.000000
vn -0.000000 -1.000000 0.000000
vn -0.000000 -1.000000 0.000000
vn -0.000000 1.000000 0.000000
vn -0.000000 1.000000 0.000000
vn -0.000000 1.000000 0.000000
vn -0.000000 1.000000 0.000000
vn -1.000000 0.000000 0.000000
vn -1.000000 0.000000 0.000000
vn -1.000000 0.000000 0.000000
vn -1.000000 0.000000 0.000000
vn 0.000000 0.000000 1.000000
vn 0.000000 0.000000 1.000000
vn 0.000000 0.000000 1.000000
vn 0.000000 0.000000 1.000000
vn 0.000000 -1.000000 0.000000
vn 0.000000 -1.000000 0.000000
vn 0.000000 -1.000000 0.000000
vn 0.000000 -1.000000 0.000000
vn 0.000000 1.000000 0.000000
vn 0.000000 1.000000 0.000000
vn 0.000000 1.000000 0.000000
vn 0.000000 1.000000 0.000000
vn 1.000000 0.000000 0.000000
vn 1.000000 0.000000 0.000000
vn 1.000000 0.000000 0.000000
vn 1.000000 0.000000 0.000000
vn 0.000000 0.000000 1.000000
vn 0.000000 0.000000 1.000000
vn 0.000000 0.000000 1.000000
vn 0.000000 0.000000 1.000000
s off
f 2/1/1 1/2/2 3/3/3 4/4/4
f 6/5/5 28/6/6 2/1/7
f 32/7/8 8/8/9 4/4/10
f 5/9/11 6/5/12 8/8/13 7/10/14
f 3/3/15 1/2/16 45/11/17 46/12/18
f 45/11/19 27/13/20 47/14/21
f 46/12/22 48/15/23 31/16/24
f 48/15/25 47/14/26 5/9/27 7/10/28
f 6/17/29 2/18/30 44/19/31
f 10/20/32 2/18/33 4/21/34 14/22/35
f 12/23/36 11/24/37 14/22/38 4/21/39 8/25/40 16/26/41
f 6/17/42 39/27/43 8/25/44
f 11/24/45 36/28/46 9/29/47
f 14/22/48 11/24/49 19/30/50 22/31/51
f 10/20/52 14/22/53 22/31/54 18/32/55
f 18/32/56 43/33/57 41/34/58 10/20/59
f 19/30/60 11/24/61 9/29/62 17/35/63
f 23/36/64 40/37/65 37/38/66 15/39/67
f 12/23/68 16/26/69 24/40/70 20/41/71
f 21/42/72 35/43/73 20/41/74
f 15/39/75 13/44/76 21/42/77 23/36/78
f 26/45/79 28/6/80 27/13/81
f 27/13/82 28/6/83 25/46/84
f 32/7/85 31/16/86 30/47/87
f 29/48/88 31/16/89 32/7/90
f 36/28/91 35/43/92 34/49/93
f 33/50/94 35/43/95 36/28/96
f 37/38/97 40/37/98 39/27/99
f 39/27/100 40/37/101 38/51/102
f 44/19/103 43/33/104 42/52/105
f 41/34/106 43/33/107 44/19/108
f 9/29/109 42/52/110 43/33/111 17/35/112
f 17/35/113 43/33/114 18/32/115
f 44/19/116 2/18/117 10/20/118 41/34/119
f 6/17/120 44/19/121 42/52/122 9/29/123 13/44/124 15/39/125
f 6/5/126 5/9/127 25/46/128 28/6/129
f 2/1/130 28/6/131 26/45/132 1/2/133
f 1/2/134 26/45/135 27/13/136 45/11/137
f 47/14/138 27/13/139 25/46/140 5/9/141
f 6/17/142 15/39/143 37/38/144 39/27/145
f 8/25/146 39/27/147 38/51/148 16/26/149
f 40/37/150 24/40/151 16/26/152 38/51/153
f 23/36/154 24/40/155 40/37/156
f 13/44/157 34/49/158 35/43/159 21/42/160
f 20/41/161 35/43/162 33/50/163 12/23/164
f 12/23/165 33/50/166 36/28/167 11/24/168
f 9/29/169 36/28/170 34/49/171 13/44/172
f 32/7/173 4/4/174 3/3/175 29/48/176
f 7/10/177 8/8/178 32/7/179 30/47/180
f 31/16/181 48/15/182 7/10/183 30/47/184
f 46/12/185 31/16/186 29/48/187 3/3/188
f 46/53/189 45/54/190 50/55/191 49/56/192
f 45/54/193 47/57/194 51/58/195 50/55/196
f 48/59/197 46/53/198 49/56/199 52/60/200
f 47/57/201 48/59/202 52/60/203 51/58/204
f 53/61/205 51/62/206 52/63/207 56/64/208
f 50/65/209 54/66/210 55/67/211 49/68/212
f 50/69/213 57/70/214 58/71/215 54/72/216
f 51/73/217 53/74/218 60/75/219 59/76/220
f 60/75/221 58/71/222 57/70/223 59/76/224
f 51/77/225 59/78/226 57/79/227 50/80/228
f 49/81/229 55/82/230 62/83/231 61/84/232
f 52/85/233 63/86/234 64/87/235 56/88/236
f 62/83/237 64/87/238 63/86/239 61/84/240
f 52/89/241 49/90/242 61/91/243 63/92/244
v 76.625977 286.741974 2.033569
v 76.625977 12.920112 2.033569
v 173.374329 12.996207 2.033569
v 173.374329 286.741974 2.033569
vt 0.050561 0.180885
vt 0.050562 0.181381
vt 0.049569 0.181374
vt 0.049563 0.180879
vn 0.000000 0.000000 1.000000
vn 0.000000 0.000000 1.000000
vn 0.000000 0.000000 1.000000
vn 0.000000 0.000000 1.000000
s off
f 65/93/245 66/94/246 67/95/247 68/96/248
