# This file uses centimeters as units for non-parametric coordinates.

v 177.890625 300.000061 14.705078
v 179.302063 300.000061 14.705078
v 177.890625 300.000061 13.293823
v 179.302063 300.000061 13.293823
v 71.122986 253.153168 14.828125
v 72.562683 253.153168 14.828125
v 71.122986 300.000061 14.828125
v 72.562683 300.000061 14.828125
v 71.122986 300.000061 13.388306
v 72.562683 300.000061 13.388306
v 71.122986 253.153168 13.388306
v 72.562683 253.153168 13.388306
v 177.890625 126.943024 13.348267
v 179.302063 126.943024 13.348267
v 179.302063 126.943024 14.759644
v 177.890625 126.943024 14.759644
v 176.912308 126.549011 12.369995
v 180.280243 126.549011 12.369995
v 180.280243 126.549011 15.737915
v 176.912308 126.549011 15.737915
v 176.912308 121.968140 12.369995
v 180.280243 121.968140 12.369995
v 180.280243 121.968140 15.737915
v 176.912308 121.968140 15.737915
v 67.224380 255.961243 18.782104
v 182.063660 255.961243 18.782104
v 67.224380 260.083313 20.727905
v 182.063660 260.083313 20.727905
v 67.224380 272.472778 8.360352
v 182.063660 272.472778 8.360352
v 67.224380 268.350769 6.415039
v 182.063660 268.350769 6.415039
v 67.224380 280.387207 18.782104
v 182.063660 280.387207 18.782104
v 67.224380 284.509460 20.727905
v 182.063660 284.509460 20.727905
v 67.224380 296.898743 8.360352
v 182.063660 296.898743 8.360352
v 67.224380 292.776794 6.415039
v 182.063660 292.776794 6.415039
v 67.171204 268.908997 17.880981
v 181.999542 265.502502 19.682373
v 67.191345 273.030701 19.827148
v 182.019592 269.624207 21.628174
v 67.288574 285.418579 7.460205
v 182.116821 282.012085 9.261475
v 67.268448 281.296875 5.514771
v 182.096771 277.890381 7.315674
v 67.365814 247.851318 19.514526
v 182.159531 250.869629 18.046631
v 67.324707 251.971863 21.460327
v 182.118393 254.990417 19.992798
v 67.128479 264.355103 9.096558
v 181.922150 267.373718 7.628906
v 67.169586 260.234436 7.150269
v 181.963287 263.252869 5.682251
v 67.224380 261.394531 18.782227
v 182.063660 261.394531 18.782227
v 67.224380 265.516663 20.727905
v 182.063660 265.516663 20.727905
v 67.224380 277.906067 8.360352
v 182.063660 277.906067 8.360352
v 67.224380 273.783997 6.415039
v 182.063660 273.783997 6.415039
v 67.224380 273.998535 18.782104
v 182.063660 273.998535 18.782104
v 67.224380 278.120605 20.727905
v 182.063660 278.120605 20.727905
v 67.224380 290.510071 8.360474
v 182.063660 290.510071 8.360474
v 67.224380 286.388123 6.415039
v 182.063660 286.388123 6.415039
vt 0.298426 0.009109
vt 0.298426 0.009109
vt 0.298426 0.009109
vt 0.298426 0.009109
vt 0.298426 0.009109
vt 0.298426 0.009109
vt 0.298426 0.009109
vt 0.298426 0.009109
vt 0.298426 0.009109
vt 0.298426 0.009109
vt 0.298426 0.009109
vt 0.298426 0.009109
vt 0.298426 0.009109
vt 0.298426 0.009109
vt 0.298426 0.009109
vt 0.298426 0.009109
vt 0.298426 0.009109
vt 0.298426 0.009109
vt 0.298426 0.009109
vt 0.298426 0.009109
vt 0.298426 0.009109
vt 0.298426 0.009109
vt 0.298426 0.009109
vt 0.298426 0.009109
vt 0.418721 0.006079
vt 0.418721 0.006079
vt 0.418721 0.006079
vt 0.418721 0.006079
vt 0.418721 0.006079
vt 0.418721 0.006079
vt 0.418721 0.006079
vt 0.418721 0.006079
vt 0.418721 0.006079
vt 0.418721 0.006079
vt 0.418721 0.006079
vt 0.418721 0.006079
vt 0.357638 0.007603
vt 0.357638 0.007603
vt 0.357638 0.007603
vt 0.357638 0.007603
vt 0.357638 0.007603
vt 0.357638 0.007603
vt 0.357638 0.007603
vt 0.357638 0.007603
vt 0.357638 0.007603
vt 0.357638 0.007603
vt 0.357638 0.007603
vt 0.357638 0.007603
vt 0.357638 0.007603
vt 0.357638 0.007603
vt 0.357638 0.007603
vt 0.357638 0.007603
vt 0.357638 0.007603
vt 0.357638 0.007603
vt 0.357638 0.007603
vt 0.357638 0.007603
vt 0.357638 0.007603
vt 0.357638 0.007603
vt 0.357638 0.007603
vt 0.357638 0.007603
vt 0.357638 0.007603
vt 0.357638 0.007603
vt 0.357638 0.007603
vt 0.357638 0.007603
vt 0.357638 0.007603
vt 0.357638 0.007603
vt 0.357638 0.007603
vt 0.357638 0.007603
vt 0.357638 0.007603
vt 0.357638 0.007603
vt 0.357638 0.007603
vt 0.357638 0.007603
vt 0.357638 0.007603
vt 0.357638 0.007603
vt 0.357638 0.007603
vt 0.357638 0.007603
vt 0.357638 0.007603
vt 0.357638 0.007603
vt 0.357638 0.007603
vt 0.357638 0.007603
vt 0.357638 0.007603
vt 0.357638 0.007603
vt 0.357638 0.007603
vt 0.357638 0.007603
vt 0.300054 0.007603
vt 0.300054 0.007603
vt 0.300054 0.007603
vt 0.300054 0.007603
vt 0.300054 0.007603
vt 0.300054 0.007603
vt 0.300054 0.007603
vt 0.300054 0.007603
vt 0.300054 0.007603
vt 0.300054 0.007603
vt 0.300054 0.007603
vt 0.300054 0.007603
vt 0.300054 0.007603
vt 0.300054 0.007603
vt 0.300054 0.007603
vt 0.300054 0.007603
vt 0.300054 0.007603
vt 0.300054 0.007603
vt 0.300054 0.007603
vt 0.300054 0.007603
vt 0.300054 0.007603
vt 0.300054 0.007603
vt 0.300054 0.007603
vt 0.300054 0.007603
vt 0.300054 0.007603
vt 0.300054 0.007603
vt 0.300054 0.007603
vt 0.300054 0.007603
vt 0.300054 0.007603
vt 0.300054 0.007603
vt 0.300054 0.007603
vt 0.300054 0.007603
vt 0.300054 0.007603
vt 0.300054 0.007603
vt 0.300054 0.007603
vt 0.300054 0.007603
vt 0.300054 0.007603
vt 0.300054 0.007603
vt 0.300054 0.007603
vt 0.300054 0.007603
vt 0.300054 0.007603
vt 0.300054 0.007603
vt 0.300054 0.007603
vt 0.300054 0.007603
vt 0.300054 0.007603
vt 0.300054 0.007603
vt 0.300054 0.007603
vt 0.300054 0.007603
vt 0.331931 0.007603
vt 0.331931 0.007603
vt 0.331931 0.007603
vt 0.331931 0.007603
vt 0.331931 0.007603
vt 0.331931 0.007603
vt 0.331931 0.007603
vt 0.331931 0.007603
vt 0.331931 0.007603
vt 0.331931 0.007603
vt 0.331931 0.007603
vt 0.331931 0.007603
vt 0.331931 0.007603
vt 0.331931 0.007603
vt 0.331931 0.007603
vt 0.331931 0.007603
vt 0.331931 0.007603
vt 0.331931 0.007603
vt 0.331931 0.007603
vt 0.331931 0.007603
vt 0.331931 0.007603
vt 0.331931 0.007603
vt 0.331931 0.007603
vt 0.331931 0.007603
vt 0.331931 0.007603
vt 0.331931 0.007603
vt 0.331931 0.007603
vt 0.331931 0.007603
vn 0.000000 0.000315 1.000000
vn 0.000000 0.000315 1.000000
vn 0.000000 0.000315 1.000000
vn 0.000000 0.000315 1.000000
vn 0.000000 1.000000 0.000000
vn 0.000000 1.000000 0.000000
vn 0.000000 1.000000 0.000000
vn 0.000000 1.000000 0.000000
vn 0.000000 -0.000315 -1.000000
vn 0.000000 -0.000315 -1.000000
vn 0.000000 -0.000315 -1.000000
vn 0.000000 -0.000315 -1.000000
vn 0.000000 -1.000000 0.000000
vn 0.000000 -1.000000 0.000000
vn 0.000000 -1.000000 0.000000
vn 0.000000 -1.000000 0.000000
vn 1.000000 -0.000000 0.000000
vn 1.000000 -0.000000 0.000000
vn 1.000000 -0.000000 0.000000
vn 1.000000 -0.000000 0.000000
vn -1.000000 -0.000000 0.000000
vn -1.000000 -0.000000 0.000000
vn -1.000000 -0.000000 0.000000
vn -1.000000 -0.000000 0.000000
vn 0.000000 0.000000 1.000000
vn 0.000000 0.000000 1.000000
vn 0.000000 0.000000 1.000000
vn 0.000000 0.000000 1.000000
vn 0.000000 1.000000 0.000000
vn 0.000000 1.000000 0.000000
vn 0.000000 1.000000 0.000000
vn 0.000000 1.000000 0.000000
vn 0.000000 0.000000 -1.000000
vn 0.000000 0.000000 -1.000000
vn 0.000000 0.000000 -1.000000
vn 0.000000 0.000000 -1.000000
vn 0.000000 -1.000000 0.000000
vn 0.000000 -1.000000 0.000000
vn 0.000000 -1.000000 0.000000
vn 0.000000 -1.000000 0.000000
vn 1.000000 0.000000 0.000000
vn 1.000000 0.000000 0.000000
vn 1.000000 0.000000 0.000000
vn 1.000000 0.000000 0.000000
vn -1.000000 0.000000 0.000000
vn -1.000000 0.000000 0.000000
vn -1.000000 0.000000 0.000000
vn -1.000000 0.000000 0.000000
vn 0.000000 0.927589 -0.373602
vn 0.000000 0.927589 -0.373602
vn 0.000000 0.927589 -0.373602
vn 0.000000 0.927589 -0.373602
vn 0.373627 0.927579 0.000000
vn 0.373627 0.927579 0.000000
vn 0.373627 0.927579 0.000000
vn 0.373627 0.927579 0.000000
vn 0.000000 0.927587 0.373607
vn 0.000000 0.927587 0.373607
vn 0.000000 0.927587 0.373607
vn 0.000000 0.927587 0.373607
vn -0.373590 0.927594 0.000000
vn -0.373590 0.927594 0.000000
vn -0.373590 0.927594 0.000000
vn -0.373590 0.927594 0.000000
vn 0.000000 0.000000 -1.000000
vn 0.000000 0.000000 -1.000000
vn 0.000000 0.000000 -1.000000
vn 0.000000 0.000000 -1.000000
vn 1.000000 0.000000 0.000000
vn 1.000000 0.000000 0.000000
vn 1.000000 0.000000 0.000000
vn 1.000000 0.000000 0.000000
vn 0.000000 0.000000 1.000000
vn 0.000000 0.000000 1.000000
vn 0.000000 0.000000 1.000000
vn 0.000000 0.000000 1.000000
vn -1.000000 0.000000 0.000000
vn -1.000000 0.000000 0.000000
vn -1.000000 0.000000 0.000000
vn -1.000000 0.000000 0.000000
vn 0.000000 -0.426875 0.904310
vn 0.000000 -0.426875 0.904310
vn 0.000000 -0.426875 0.904310
vn 0.000000 -0.426875 0.904310
vn 0.000000 0.706480 0.707733
vn 0.000000 0.706480 0.707733
vn 0.000000 0.706480 0.707733
vn 0.000000 0.706480 0.707733
vn 0.000000 0.426792 -0.904350
vn 0.000000 0.426792 -0.904350
vn 0.000000 0.426792 -0.904350
vn 0.000000 0.426792 -0.904350
vn 0.000000 -0.706465 -0.707748
vn 0.000000 -0.706465 -0.707748
vn 0.000000 -0.706465 -0.707748
vn 0.000000 -0.706465 -0.707748
vn 1.000000 0.000001 0.000000
vn 1.000000 0.000001 0.000000
vn 1.000000 0.000001 0.000000
vn 1.000000 0.000001 0.000000
vn -1.000000 0.000000 0.000000
vn -1.000000 0.000000 0.000000
vn -1.000000 0.000000 0.000000
vn -1.000000 0.000000 0.000000
vn 0.000000 -0.426859 0.904318
vn 0.000000 -0.426859 0.904318
vn 0.000000 -0.426859 0.904318
vn 0.000000 -0.426859 0.904318
vn 0.000000 0.706486 0.707727
vn 0.000000 0.706486 0.707727
vn 0.000000 0.706486 0.707727
vn 0.000000 0.706486 0.707727
vn 0.000000 0.426799 -0.904346
vn 0.000000 0.426799 -0.904346
vn 0.000000 0.426799 -0.904346
vn 0.000000 0.426799 -0.904346
vn 0.000000 -0.706463 -0.707750
vn 0.000000 -0.706463 -0.707750
vn 0.000000 -0.706463 -0.707750
vn 0.000000 -0.706463 -0.707750
vn 1.000000 0.000001 0.000000
vn 1.000000 0.000001 0.000000
vn 1.000000 0.000001 0.000000
vn 1.000000 0.000001 0.000000
vn -1.000000 0.000000 0.000000
vn -1.000000 0.000000 0.000000
vn -1.000000 0.000000 0.000000
vn -1.000000 0.000000 0.000000
vn -0.026838 -0.426678 0.904005
vn -0.026838 -0.426678 0.904005
vn -0.026838 -0.426678 0.904005
vn -0.026838 -0.426678 0.904005
vn 0.009856 0.706432 0.707712
vn 0.009856 0.706432 0.707712
vn 0.009856 0.706432 0.707712
vn 0.009856 0.706432 0.707712
vn 0.026836 0.426612 -0.904037
vn 0.026836 0.426612 -0.904037
vn 0.026836 0.426612 -0.904037
vn 0.026836 0.426612 -0.904037
vn -0.009856 -0.706421 -0.707723
vn -0.009856 -0.706421 -0.707723
vn -0.009856 -0.706421 -0.707723
vn -0.009856 -0.706421 -0.707723
vn 0.999981 -0.005823 0.002030
vn 0.999981 -0.005823 0.002030
vn 0.999981 -0.005823 0.002030
vn 0.999981 -0.005823 0.002030
vn -0.999981 0.005837 -0.002016
vn -0.999981 0.005837 -0.002016
vn -0.999981 0.005837 -0.002016
vn -0.999981 0.005837 -0.002016
vn 0.022780 -0.426730 0.904092
vn 0.022780 -0.426730 0.904092
vn 0.022780 -0.426730 0.904092
vn 0.022780 -0.426730 0.904092
vn -0.009529 0.706444 0.707705
vn -0.009529 0.706444 0.707705
vn -0.009529 0.706444 0.707705
vn -0.009529 0.706444 0.707705
vn -0.022783 0.426811 -0.904054
vn -0.022783 0.426811 -0.904054
vn -0.022783 0.426811 -0.904054
vn -0.022783 0.426811 -0.904054
vn 0.009526 -0.706460 -0.707689
vn 0.009526 -0.706460 -0.707689
vn 0.009526 -0.706460 -0.707689
vn 0.009526 -0.706460 -0.707689
vn 0.999922 0.011868 -0.003987
vn 0.999922 0.011868 -0.003987
vn 0.999922 0.011868 -0.003987
vn 0.999922 0.011868 -0.003987
vn -0.999922 -0.011861 0.003991
vn -0.999922 -0.011861 0.003991
vn -0.999922 -0.011861 0.003991
vn -0.999922 -0.011861 0.003991
vn 0.000000 -0.426848 0.904324
vn 0.000000 -0.426848 0.904324
vn 0.000000 -0.426848 0.904324
vn 0.000000 -0.426848 0.904324
vn 0.000000 0.706482 0.707731
vn 0.000000 0.706482 0.707731
vn 0.000000 0.706482 0.707731
vn 0.000000 0.706482 0.707731
vn 0.000000 0.426786 -0.904353
vn 0.000000 0.426786 -0.904353
vn 0.000000 0.426786 -0.904353
vn 0.000000 0.426786 -0.904353
vn 0.000000 -0.706470 -0.707743
vn 0.000000 -0.706470 -0.707743
vn 0.000000 -0.706470 -0.707743
vn 0.000000 -0.706470 -0.707743
vn 1.000000 0.000001 0.000000
vn 1.000000 0.000001 0.000000
vn 1.000000 0.000001 0.000000
vn 1.000000 0.000001 0.000000
vn -1.000000 -0.000000 0.000000
vn -1.000000 -0.000000 0.000000
vn -1.000000 -0.000000 0.000000
vn -1.000000 -0.000000 0.000000
vn 0.000000 -0.426875 0.904310
vn 0.000000 -0.426875 0.904310
vn 0.000000 -0.426875 0.904310
vn 0.000000 -0.426875 0.904310
vn 0.000000 0.706477 0.707736
vn 0.000000 0.706477 0.707736
vn 0.000000 0.706477 0.707736
vn 0.000000 0.706477 0.707736
vn 0.000000 0.426818 -0.904337
vn 0.000000 0.426818 -0.904337
vn 0.000000 0.426818 -0.904337
vn 0.000000 0.426818 -0.904337
vn 0.000000 -0.706463 -0.707750
vn 0.000000 -0.706463 -0.707750
vn 0.000000 -0.706463 -0.707750
vn 0.000000 -0.706463 -0.707750
vn 1.000000 0.000001 0.000000
vn 1.000000 0.000001 0.000000
vn 1.000000 0.000001 0.000000
vn 1.000000 0.000001 0.000000
vn -1.000000 0.000001 0.000000
vn -1.000000 0.000001 0.000000
vn -1.000000 0.000001 0.000000
vn -1.000000 0.000001 0.000000
s off
f 2/2/1 1/1/2 16/24/3 15/23/4
f 1/1/5 2/2/6 4/4/7 3/3/8
f 3/3/9 4/4/10 14/22/11 13/21/12
f 21/25/13 22/26/14 23/27/15 24/28/16
f 4/5/17 2/2/18 15/23/19 14/22/20
f 1/1/21 3/6/22 13/21/23 16/24/24
f 5/7/25 6/8/26 8/9/27 7/10/28
f 7/10/29 8/9/30 10/11/31 9/12/32
f 9/12/33 10/11/34 12/13/35 11/14/36
f 11/14/37 12/13/38 6/15/39 5/16/40
f 6/8/41 12/17/42 10/18/43 8/9/44
f 11/19/45 5/7/46 7/10/47 9/20/48
f 13/29/49 14/30/50 18/31/51 17/32/52
f 14/30/53 15/33/54 19/34/55 18/31/56
f 15/33/57 16/35/58 20/36/59 19/34/60
f 16/35/61 13/29/62 17/32/63 20/36/64
f 17/32/65 18/31/66 22/26/67 21/25/68
f 18/31/69 19/34/70 23/27/71 22/26/72
f 19/34/73 20/36/74 24/28/75 23/27/76
f 20/36/77 17/32/78 21/25/79 24/28/80
f 25/37/81 26/38/82 28/39/83 27/40/84
f 27/41/85 28/42/86 30/43/87 29/44/88
f 29/45/89 30/46/90 32/47/91 31/48/92
f 31/49/93 32/50/94 26/51/95 25/52/96
f 26/53/97 32/54/98 30/55/99 28/56/100
f 31/57/101 25/58/102 27/59/103 29/60/104
f 33/61/105 34/62/106 36/63/107 35/64/108
f 35/65/109 36/66/110 38/67/111 37/68/112
f 37/69/113 38/70/114 40/71/115 39/72/116
f 39/73/117 40/74/118 34/75/119 33/76/120
f 34/77/121 40/78/122 38/79/123 36/80/124
f 39/81/125 33/82/126 35/83/127 37/84/128
f 41/85/129 42/86/130 44/87/131 43/88/132
f 43/89/133 44/90/134 46/91/135 45/92/136
f 45/93/137 46/94/138 48/95/139 47/96/140
f 47/97/141 48/98/142 42/99/143 41/100/144
f 42/101/145 48/102/146 46/103/147 44/104/148
f 47/105/149 41/106/150 43/107/151 45/108/152
f 49/109/153 50/110/154 52/111/155 51/112/156
f 51/113/157 52/114/158 54/115/159 53/116/160
f 53/117/161 54/118/162 56/119/163 55/120/164
f 55/121/165 56/122/166 50/123/167 49/124/168
f 50/125/169 56/126/170 54/127/171 52/128/172
f 55/129/173 49/130/174 51/131/175 53/132/176
f 57/133/177 58/134/178 60/135/179 59/136/180
f 59/136/181 60/135/182 62/137/183 61/138/184
f 61/138/185 62/137/186 64/139/187 63/140/188
f 63/140/189 64/139/190 58/141/191 57/142/192
f 58/134/193 64/143/194 62/144/195 60/135/196
f 63/145/197 57/133/198 59/136/199 61/146/200
f 65/147/201 66/148/202 68/149/203 67/150/204
f 67/150/205 68/149/206 70/151/207 69/152/208
f 69/152/209 70/151/210 72/153/211 71/154/212
f 71/154/213 72/153/214 66/155/215 65/156/216
f 66/148/217 72/157/218 70/158/219 68/149/220
f 71/159/221 65/147/222 67/150/223 69/160/224
