# This file uses centimeters as units for non-parametric coordinates.

v 15.654297 -22.902119 13.716248
v 21.465454 -16.432289 13.716248
v 15.654297 -16.432289 19.527527
v 15.654297 -16.432289 -20.116272
v 21.465454 -16.432289 -14.304810
v 15.654297 -22.902119 -14.304810
v 15.654297 16.464445 19.527527
v 21.465454 16.464445 13.716248
v 15.654297 21.234835 13.716248
v 15.654297 21.234835 -14.304810
v 21.465454 16.464445 -14.304810
v 15.654297 16.464445 -20.116272
v -14.079102 16.464445 19.527527
v -14.079224 21.234835 13.716309
v -19.890259 16.464445 13.716248
v -19.890259 16.464445 -14.304810
v -14.079102 21.234835 -14.304688
v -14.079102 16.464445 -20.116211
v -14.079102 -16.432289 19.527527
v -19.890259 -16.432289 13.716248
v -14.079224 -22.902119 13.716309
v -14.079102 -22.902119 -14.304688
v -19.890259 -16.432289 -14.304810
v -14.079102 -16.432289 -20.116211
vt 0.101466 0.349607
vt 0.101466 0.349607
vt 0.101466 0.349607
vt 0.101466 0.349607
vt 0.101466 0.349607
vt 0.101466 0.349607
vt 0.101466 0.349607
vt 0.101466 0.349607
vt 0.101466 0.349607
vt 0.101466 0.349607
vt 0.101466 0.349607
vt 0.101466 0.349607
vt 0.101466 0.349607
vt 0.101466 0.349607
vt 0.101466 0.349607
vt 0.101466 0.349607
vt 0.101466 0.349607
vt 0.101466 0.349607
vt 0.101466 0.349607
vt 0.101466 0.349607
vt 0.101466 0.349607
vt 0.101466 0.349607
vt 0.101466 0.349607
vt 0.101466 0.349607
vn 0.000001 -0.668228 0.743957
vn 0.000001 -0.668227 0.743957
vn 0.000001 -0.668228 0.743957
vn 0.000001 -0.668228 0.743957
vn 0.743962 -0.668222 0.000000
vn 0.743962 -0.668222 0.000000
vn 0.743962 -0.668222 0.000000
vn 0.743962 -0.668222 0.000000
vn 0.707114 0.000000 0.707099
vn 0.707114 0.000000 0.707099
vn 0.707114 0.000000 0.707099
vn 0.707114 0.000000 0.707099
vn -0.000002 -0.668243 -0.743943
vn -0.000002 -0.668243 -0.743943
vn -0.000002 -0.668243 -0.743943
vn -0.000002 -0.668243 -0.743943
vn 0.707125 0.000000 -0.707088
vn 0.707125 0.000000 -0.707088
vn 0.707125 0.000000 -0.707088
vn 0.707125 0.000000 -0.707088
vn 0.000001 0.772931 0.634490
vn 0.000001 0.772931 0.634490
vn 0.000001 0.772931 0.634490
vn 0.000001 0.772931 0.634490
vn 0.634496 0.772926 0.000000
vn 0.634496 0.772926 0.000000
vn 0.634496 0.772926 0.000000
vn 0.634496 0.772926 0.000000
vn -0.000002 0.772944 -0.634474
vn -0.000002 0.772944 -0.634474
vn -0.000002 0.772944 -0.634474
vn -0.000002 0.772944 -0.634474
vn -0.707114 0.000000 0.707099
vn -0.707114 0.000000 0.707099
vn -0.707114 0.000000 0.707099
vn -0.707114 0.000000 0.707099
vn -0.634500 0.772923 -0.000001
vn -0.634500 0.772923 -0.000001
vn -0.634500 0.772923 -0.000001
vn -0.634500 0.772923 -0.000001
vn -0.707122 0.000000 -0.707092
vn -0.707122 0.000000 -0.707092
vn -0.707122 0.000000 -0.707092
vn -0.707122 0.000000 -0.707092
vn -0.743966 -0.668218 -0.000002
vn -0.743966 -0.668218 -0.000002
vn -0.743966 -0.668218 -0.000002
vn -0.743966 -0.668218 -0.000002
vn 1.000000 0.000000 0.000000
vn 1.000000 0.000000 0.000000
vn 1.000000 0.000000 0.000000
vn 1.000000 0.000000 0.000000
vn 0.000000 1.000000 -0.000000
vn 0.000000 1.000000 -0.000000
vn 0.000000 1.000000 -0.000000
vn 0.000000 1.000000 -0.000000
vn -1.000000 0.000000 0.000000
vn -1.000000 0.000000 0.000000
vn -1.000000 0.000000 0.000000
vn -1.000000 0.000000 0.000000
vn 0.000000 -1.000000 0.000000
vn 0.000000 -1.000000 0.000000
vn 0.000000 -1.000000 0.000000
vn 0.000000 -1.000000 0.000000
vn -0.000002 0.000000 -1.000000
vn -0.000002 0.000000 -1.000000
vn -0.000002 0.000000 -1.000000
vn -0.000002 0.000000 -1.000000
vn 0.000000 0.000000 1.000000
vn 0.000000 0.000000 1.000000
vn 0.000000 0.000000 1.000000
vn 0.000000 0.000000 1.000000
vn 0.596900 -0.536131 0.596887
vn 0.596900 -0.536131 0.596887
vn 0.596900 -0.536131 0.596887
vn 0.596906 -0.536137 -0.596875
vn 0.596906 -0.536137 -0.596875
vn 0.596906 -0.536137 -0.596875
vn 0.535756 0.652643 0.535745
vn 0.535756 0.652643 0.535745
vn 0.535756 0.652643 0.535745
vn 0.535761 0.652649 -0.535733
vn 0.535761 0.652649 -0.535733
vn 0.535761 0.652649 -0.535733
vn -0.535763 0.652632 0.535752
vn -0.535763 0.652632 0.535752
vn -0.535763 0.652631 0.535752
vn -0.535755 0.652655 -0.535732
vn -0.535755 0.652655 -0.535732
vn -0.535755 0.652655 -0.535732
vn -0.596905 -0.536119 0.596892
vn -0.596905 -0.536119 0.596892
vn -0.596905 -0.536119 0.596892
vn -0.596900 -0.536143 -0.596875
vn -0.596900 -0.536143 -0.596875
vn -0.596900 -0.536143 -0.596875
s off
f 1/1/1 3/22/2 19/8/3 21/21/4
f 2/2/5 1/1/6 6/3/7 5/16/8
f 3/22/9 2/2/10 8/5/11 7/23/12
f 4/4/13 6/3/14 22/15/15 24/12/16
f 5/16/17 4/4/18 12/7/19 11/6/20
f 7/23/21 9/17/22 14/9/23 13/24/24
f 9/17/25 8/5/26 11/6/27 10/18/28
f 10/18/29 12/7/30 18/11/31 17/10/32
f 13/24/33 15/19/34 20/13/35 19/8/36
f 15/19/37 14/9/38 17/10/39 16/20/40
f 16/20/41 18/11/42 24/12/43 23/14/44
f 21/21/45 20/13/46 23/14/47 22/15/48
f 2/2/49 5/16/50 11/6/51 8/5/52
f 9/17/53 10/18/54 17/10/55 14/9/56
f 15/19/57 16/20/58 23/14/59 20/13/60
f 21/21/61 22/15/62 6/3/63 1/1/64
f 4/4/65 24/12/66 18/11/67 12/7/68
f 19/8/69 3/22/70 7/23/71 13/24/72
f 1/1/73 2/2/74 3/22/75
f 4/4/76 5/16/77 6/3/78
f 7/23/79 8/5/80 9/17/81
f 10/18/82 11/6/83 12/7/84
f 13/24/85 14/9/86 15/19/87
f 16/20/88 17/10/89 18/11/90
f 19/8/91 20/13/92 21/21/93
f 22/15/94 23/14/95 24/12/96
