# This file uses centimeters as units for non-parametric coordinates.

v 40.287590 -4.893576 27.307968
v 40.287590 -4.893576 -26.378052
v 36.228371 -2.885787 27.307968
v 36.228371 -2.885787 -26.378052
v 35.744156 -3.864746 26.107330
v 35.744156 -3.864746 -25.390411
v 39.803375 -5.872535 26.107330
v 39.803375 -5.872535 -25.390411
v -27.063997 -4.893576 40.287598
v 25.565647 -4.893576 40.287598
v -27.063997 -2.885787 36.228378
v 25.565647 -2.885787 36.228378
v -25.303724 -3.864746 35.744171
v 24.018381 -3.864746 35.744171
v -25.303724 -5.872535 39.803391
v 24.018381 -5.872535 39.803391
v -25.891590 -7.579027 -25.891586
v 25.891590 -7.579027 -25.891586
v 25.891590 -7.579027 25.891617
v -25.891590 -7.579027 25.891617
v 13.246706 -7.579027 -25.891586
v 13.246706 -7.579027 25.891617
v 1.031233 -7.579027 -25.891586
v 1.031233 -7.579027 25.891617
v -12.242818 -7.579027 -25.891586
v -12.242818 -7.579027 25.891617
v -13.889380 -7.579027 -25.891586
v -13.889380 -7.579027 25.891617
v -0.457561 -7.579027 -25.891586
v -0.457561 -7.579027 25.891617
v 11.708928 -7.579027 -25.891586
v 11.708928 -7.579027 25.891617
v -31.003727 -8.349669 31.003738
v 31.003727 -8.349669 31.003738
v -47.303753 -2.573657 47.303772
v 47.303753 -2.573657 47.303772
v -47.303753 -2.573657 -47.303757
v 47.303753 -2.573657 -47.303757
v -31.003727 -8.349669 -31.003708
v 31.003727 -8.349669 -31.003708
v -27.048754 -8.349669 -27.048752
v 27.048754 -8.349669 -27.048752
v 27.048754 -8.349669 27.048767
v -27.048754 -8.349669 27.048767
v -23.043962 -6.105709 37.336258
v 21.810192 -6.105709 37.336258
v 28.853403 -4.199625 42.715225
v -30.087173 -4.199625 42.715225
v -30.087173 -4.199620 -42.715225
v 28.853403 -4.199620 -42.715225
v 21.810192 -6.105704 -37.336227
v -23.043962 -6.105704 -37.336227
v 36.371254 -6.447653 -23.478806
v 36.371254 -6.447653 24.305481
v 43.414463 -3.951849 -28.857849
v 43.414463 -3.951849 29.684448
v -36.371254 -6.447654 -23.478851
v -36.371254 -6.447654 24.305466
v -43.414463 -3.951849 29.684448
v -43.414463 -3.951849 -28.857849
v -21.821766 -5.445422 33.930008
v 20.587996 -5.445422 33.930008
v 26.988642 -3.539338 38.818253
v -28.222414 -3.539338 38.818253
v -28.222414 -3.539333 -38.818253
v 26.988642 -3.539333 -38.818253
v 20.587996 -5.445416 -33.929977
v -21.821766 -5.445416 -33.929977
v 33.053047 -5.787366 -22.545395
v 33.053047 -5.787366 23.372055
v 39.453693 -3.291562 -27.433701
v 39.453693 -3.291562 28.260300
v -33.053047 -5.787367 -22.545441
v -33.053047 -5.787367 23.372040
v -39.453693 -3.291562 28.260300
v -39.453693 -3.291562 -27.433701
v -25.891590 -7.893605 -25.891586
v 25.891590 -7.893605 -25.891586
v 25.891590 -7.893605 25.891617
v -25.891590 -7.893605 25.891617
v -25.891590 -6.854669 -25.891586
v 25.891590 -6.854669 -25.891586
v 25.891590 -6.854669 25.891617
v -25.891590 -6.854669 25.891617
v -47.303753 0.000000 47.303772
v 47.303753 0.000000 47.303772
v 47.303753 0.000000 -47.303757
v -47.303753 0.000000 -47.303757
v -40.287590 -4.893576 -26.452072
v -40.287590 -4.893576 27.233948
v -36.228371 -2.885787 -26.452072
v -36.228371 -2.885787 27.233948
v -35.744156 -3.864746 -25.251434
v -35.744156 -3.864746 26.246307
v -39.803375 -5.872535 -25.251434
v -39.803375 -5.872535 26.246307
v 25.685230 -4.893576 -40.287567
v -26.944414 -4.893576 -40.287567
v 25.685230 -2.885787 -36.228348
v -26.944414 -2.885787 -36.228348
v 23.924957 -3.864746 -35.744141
v -25.397148 -3.864746 -35.744141
v 23.924957 -5.872535 -39.803360
v -25.397148 -5.872535 -39.803360
vt 0.134331 0.328655
vt 0.134331 0.328655
vt 0.134331 0.328655
vt 0.134331 0.328655
vt 0.134331 0.328655
vt 0.134331 0.328655
vt 0.134331 0.328655
vt 0.134331 0.328655
vt 0.134331 0.328655
vt 0.134331 0.328655
vt 0.134331 0.328655
vt 0.134331 0.328655
vt 0.134331 0.328655
vt 0.134331 0.328655
vt 0.134331 0.328655
vt 0.134331 0.328655
vt 0.134331 0.328655
vt 0.134331 0.328655
vt 0.134331 0.328655
vt 0.134331 0.328655
vt 0.134331 0.328655
vt 0.134331 0.328655
vt 0.134331 0.328655
vt 0.134331 0.328655
vt 0.134331 0.328655
vt 0.134331 0.328655
vt 0.134331 0.328655
vt 0.134331 0.328655
vt 0.080860 0.354087
vt 0.080860 0.354087
vt 0.080860 0.354087
vt 0.080860 0.354087
vt 0.080860 0.354087
vt 0.080860 0.354087
vt 0.080860 0.354087
vt 0.080860 0.354087
vt 0.080860 0.354087
vt 0.080860 0.354087
vt 0.080860 0.354087
vt 0.080860 0.354087
vt 0.080860 0.354087
vt 0.080860 0.354087
vt 0.080860 0.354087
vt 0.080860 0.354087
vt 0.134983 0.326047
vt 0.134983 0.326047
vt 0.134983 0.326047
vt 0.134983 0.326047
vt 0.134983 0.326047
vt 0.134983 0.326047
vt 0.134983 0.326047
vt 0.134983 0.326047
vt 0.134983 0.326047
vt 0.134983 0.326047
vt 0.134983 0.326047
vt 0.134983 0.326047
vt 0.082165 0.232797
vt 0.082165 0.232797
vt 0.082165 0.232798
vt 0.082165 0.232798
vt 0.133670 0.354436
vt 0.133670 0.354436
vt 0.133670 0.354436
vt 0.133670 0.354436
vt 0.082165 0.232798
vt 0.082165 0.232798
vt 0.082165 0.232797
vt 0.082165 0.232797
vt 0.082165 0.232797
vt 0.082165 0.232797
vt 0.082165 0.232798
vt 0.082165 0.232798
vt 0.082165 0.232797
vt 0.082165 0.232797
vt 0.082165 0.232798
vt 0.082165 0.232798
vt 0.133670 0.354436
vt 0.133670 0.354436
vt 0.133670 0.354436
vt 0.133670 0.354436
vt 0.133670 0.354436
vt 0.133670 0.354436
vt 0.133670 0.354436
vt 0.133670 0.354436
vt 0.133670 0.354436
vt 0.133670 0.354436
vt 0.133670 0.354436
vt 0.133670 0.354436
vt 0.133670 0.354436
vt 0.133670 0.354436
vt 0.133670 0.354436
vt 0.133670 0.354436
vt 0.133670 0.354436
vt 0.133670 0.354436
vt 0.133670 0.354436
vt 0.133670 0.354436
vt 0.133670 0.354436
vt 0.133670 0.354436
vt 0.133670 0.354436
vt 0.133670 0.354436
vt 0.133670 0.354436
vt 0.133670 0.354436
vt 0.133670 0.354436
vt 0.133670 0.354436
vt 0.133670 0.354436
vt 0.133670 0.354436
vt 0.133670 0.354436
vt 0.133670 0.354436
vt 0.133670 0.354436
vt 0.133670 0.354436
vt 0.133670 0.354436
vt 0.133670 0.354436
vt 0.133670 0.354436
vt 0.133670 0.354436
vt 0.133670 0.354436
vt 0.133670 0.354436
vt 0.133670 0.354436
vt 0.133670 0.354436
vt 0.133670 0.354436
vt 0.133670 0.354436
vt 0.133670 0.354436
vt 0.133670 0.354436
vt 0.133028 0.301267
vt 0.133028 0.301267
vt 0.133028 0.301267
vt 0.133028 0.301267
vt 0.133028 0.301267
vt 0.133028 0.301267
vt 0.133028 0.301267
vt 0.133028 0.301267
vt 0.133028 0.301267
vt 0.133028 0.301267
vt 0.133028 0.301267
vt 0.133028 0.301267
vt 0.134331 0.328655
vt 0.134331 0.328655
vt 0.134331 0.328655
vt 0.134331 0.328655
vt 0.134331 0.328655
vt 0.134331 0.328655
vt 0.134331 0.328655
vt 0.134331 0.328655
vt 0.134331 0.328655
vt 0.134331 0.328655
vt 0.134331 0.328655
vt 0.134331 0.328655
vt 0.134331 0.328655
vt 0.134331 0.328655
vt 0.134331 0.328655
vt 0.134331 0.328655
vt 0.134331 0.328655
vt 0.134331 0.328655
vt 0.134331 0.328655
vt 0.134331 0.328655
vt 0.134331 0.328655
vt 0.134331 0.328655
vt 0.134331 0.328655
vt 0.134331 0.328655
vt 0.134331 0.328655
vt 0.134331 0.328655
vt 0.134331 0.328655
vt 0.134331 0.328655
vt 0.133670 0.354436
vt 0.133670 0.354436
vt 0.133670 0.354436
vt 0.133670 0.354436
vt 0.133670 0.354436
vt 0.133670 0.354436
vt 0.133670 0.354436
vt 0.133670 0.354436
vt 0.133670 0.354436
vt 0.133670 0.354436
vt 0.133670 0.354436
vt 0.133670 0.354436
vt 0.133670 0.354436
vt 0.133670 0.354436
vt 0.133670 0.354436
vt 0.133670 0.354436
vt 0.133670 0.354436
vt 0.133670 0.354436
vt 0.133670 0.354436
vt 0.133670 0.354436
vt 0.133670 0.354436
vt 0.133670 0.354436
vt 0.133670 0.354436
vt 0.133670 0.354436
vt 0.133670 0.354436
vt 0.133670 0.354436
vt 0.133670 0.354436
vt 0.133670 0.354436
vt 0.133670 0.354436
vt 0.133670 0.354436
vt 0.133670 0.354436
vt 0.133670 0.354436
vn 0.443355 0.896346 0.000000
vn 0.443355 0.896346 0.000000
vn 0.443355 0.896346 0.000000
vn 0.443355 0.896346 0.000000
vn -0.443355 -0.896346 0.000000
vn -0.443355 -0.896346 0.000000
vn -0.443355 -0.896346 0.000000
vn -0.443355 -0.896346 0.000000
vn 0.896347 -0.443353 0.000000
vn 0.896347 -0.443353 0.000000
vn 0.896347 -0.443353 0.000000
vn 0.896347 -0.443353 0.000000
vn -0.297368 -0.601200 -0.741708
vn -0.297368 -0.601200 -0.741708
vn -0.297368 -0.601200 -0.741708
vn -0.297368 -0.601200 -0.741708
vn -0.327963 -0.663057 0.672901
vn -0.327963 -0.663057 0.672901
vn -0.327963 -0.663057 0.672901
vn -0.327963 -0.663057 0.672901
vn 0.000000 0.896346 0.443355
vn 0.000000 0.896346 0.443355
vn 0.000000 0.896346 0.443355
vn 0.000000 0.896346 0.443355
vn 0.000000 -0.896346 -0.443355
vn 0.000000 -0.896346 -0.443355
vn 0.000000 -0.896346 -0.443355
vn 0.000000 -0.896346 -0.443355
vn 0.000000 -0.443348 0.896350
vn 0.000000 -0.443348 0.896350
vn 0.000000 -0.443348 0.896350
vn 0.000000 -0.443348 0.896350
vn 0.576674 -0.732292 -0.362210
vn 0.576674 -0.732292 -0.362210
vn 0.576674 -0.732292 -0.362210
vn 0.576674 -0.732292 -0.362210
vn -0.527216 -0.761654 -0.376733
vn -0.527216 -0.761654 -0.376733
vn -0.527216 -0.761654 -0.376733
vn -0.527216 -0.761654 -0.376733
vn 0.000000 -1.000000 0.000000
vn 0.000000 -1.000000 0.000000
vn 0.000000 -1.000000 0.000000
vn 0.000000 -1.000000 0.000000
vn 0.000000 -1.000000 0.000000
vn 0.000000 -1.000000 0.000000
vn 0.000000 -1.000000 0.000000
vn 0.000000 -1.000000 0.000000
vn 0.000000 -1.000000 0.000000
vn 0.000000 -1.000000 0.000000
vn 0.000000 -1.000000 0.000000
vn 0.000000 -1.000000 0.000000
vn 0.000000 -1.000000 0.000000
vn 0.000000 -1.000000 0.000000
vn 0.000000 -1.000000 0.000000
vn 0.000000 -1.000000 0.000000
vn 0.000000 -1.000000 0.000000
vn 0.000000 -1.000000 0.000000
vn 0.000000 -1.000000 0.000000
vn 0.000000 -1.000000 0.000000
vn 0.000000 -1.000000 0.000000
vn 0.000000 -1.000000 0.000000
vn 0.000000 -1.000000 0.000000
vn 0.000000 -1.000000 0.000000
vn 0.000000 -1.000000 0.000000
vn 0.000000 -1.000000 0.000000
vn 0.000000 -1.000000 0.000000
vn 0.000000 -1.000000 0.000000
vn 0.000000 -0.931676 0.363290
vn 0.000000 -0.931676 0.363290
vn 0.000000 -0.931676 0.363290
vn 0.000000 -0.931676 0.363290
vn 0.000000 1.000000 0.000000
vn 0.000000 1.000000 0.000000
vn 0.000000 1.000000 0.000000
vn 0.000000 1.000000 0.000000
vn 0.000000 -0.931677 -0.363288
vn 0.000000 -0.931677 -0.363288
vn 0.000000 -0.931677 -0.363288
vn 0.000000 -0.931677 -0.363288
vn 0.363289 -0.931677 0.000000
vn 0.363289 -0.931677 0.000000
vn 0.363289 -0.931677 0.000000
vn 0.363289 -0.931677 0.000000
vn -0.363289 -0.931677 0.000000
vn -0.363289 -0.931677 0.000000
vn -0.363289 -0.931677 0.000000
vn -0.363289 -0.931677 0.000000
vn 0.000000 -1.000000 0.000000
vn 0.000000 -1.000000 0.000000
vn 0.000000 -1.000000 0.000000
vn 0.000000 -1.000000 0.000000
vn 0.000000 -1.000000 0.000000
vn 0.000000 -1.000000 0.000000
vn 0.000000 -1.000000 0.000000
vn 0.000000 -1.000000 0.000000
vn 0.000000 -1.000000 -0.000000
vn 0.000000 -1.000000 -0.000000
vn 0.000000 -1.000000 -0.000000
vn 0.000000 -1.000000 -0.000000
vn 0.000000 -1.000000 0.000000
vn 0.000000 -1.000000 0.000000
vn 0.000000 -1.000000 0.000000
vn 0.000000 -1.000000 0.000000
vn 0.000000 -0.942571 0.334005
vn 0.000000 -0.942571 0.334005
vn 0.000000 -0.942571 0.334005
vn 0.000000 -0.942571 0.334005
vn -0.000000 -0.942571 0.334006
vn -0.000000 -0.942571 0.334006
vn -0.000000 -0.942571 0.334006
vn -0.000000 -0.942571 0.334006
vn 0.000000 -0.942572 0.334004
vn 0.000000 -0.942572 0.334004
vn 0.000000 -0.942572 0.334004
vn 0.000000 -0.942572 0.334004
vn 0.000000 -0.942571 0.334006
vn 0.000000 -0.942571 0.334006
vn 0.000000 -0.942571 0.334006
vn 0.000000 -0.942571 0.334006
vn 0.000000 -0.942572 -0.334004
vn 0.000000 -0.942572 -0.334004
vn 0.000000 -0.942572 -0.334004
vn 0.000000 -0.942572 -0.334004
vn -0.000000 -0.942571 -0.334006
vn -0.000000 -0.942571 -0.334006
vn -0.000000 -0.942571 -0.334006
vn -0.000000 -0.942571 -0.334006
vn 0.000000 -0.942571 -0.334006
vn 0.000000 -0.942571 -0.334006
vn 0.000000 -0.942571 -0.334006
vn 0.000000 -0.942571 -0.334006
vn 0.000000 -0.942571 -0.334006
vn 0.000000 -0.942571 -0.334006
vn 0.000000 -0.942571 -0.334006
vn 0.000000 -0.942571 -0.334006
vn 0.334006 -0.942571 0.000000
vn 0.334006 -0.942571 0.000000
vn 0.334006 -0.942571 0.000000
vn 0.334006 -0.942571 0.000000
vn 0.334006 -0.942571 0.000000
vn 0.334006 -0.942571 0.000000
vn 0.334006 -0.942571 0.000000
vn 0.334006 -0.942571 0.000000
vn 0.334006 -0.942571 0.000000
vn 0.334006 -0.942571 0.000000
vn 0.334006 -0.942571 0.000000
vn 0.334006 -0.942571 0.000000
vn 0.334006 -0.942571 0.000000
vn 0.334006 -0.942571 0.000000
vn 0.334006 -0.942571 0.000000
vn 0.334006 -0.942571 0.000000
vn -0.334006 -0.942571 0.000000
vn -0.334006 -0.942571 0.000000
vn -0.334006 -0.942571 0.000000
vn -0.334006 -0.942571 0.000000
vn -0.334006 -0.942571 0.000000
vn -0.334006 -0.942571 0.000000
vn -0.334006 -0.942571 0.000000
vn -0.334006 -0.942571 0.000000
vn -0.334006 -0.942571 0.000000
vn -0.334006 -0.942571 0.000000
vn -0.334006 -0.942571 0.000000
vn -0.334006 -0.942571 0.000000
vn -0.334006 -0.942571 -0.000000
vn -0.334006 -0.942571 -0.000000
vn -0.334006 -0.942571 -0.000000
vn -0.334006 -0.942571 -0.000000
vn 0.000000 0.981725 0.190303
vn 0.000000 0.981725 0.190303
vn 0.000000 0.981725 0.190303
vn 0.000000 0.981725 0.190303
vn -0.494600 0.794341 0.352693
vn -0.494600 0.794341 0.352693
vn -0.494600 0.794341 0.352693
vn -0.494600 0.794341 0.352693
vn 0.000000 -0.985948 -0.167055
vn 0.000000 -0.985948 -0.167055
vn 0.000000 -0.985948 -0.167055
vn 0.000000 -0.985948 -0.167055
vn 0.494600 0.794342 0.352693
vn 0.494600 0.794342 0.352693
vn 0.494600 0.794342 0.352693
vn 0.494600 0.794342 0.352693
vn 0.000000 -0.985948 0.167055
vn 0.000000 -0.985948 0.167055
vn 0.000000 -0.985948 0.167055
vn 0.000000 -0.985948 0.167055
vn -0.494602 0.794340 -0.352694
vn -0.494602 0.794340 -0.352694
vn -0.494602 0.794340 -0.352694
vn -0.494602 0.794340 -0.352694
vn 0.000000 0.981725 -0.190303
vn 0.000000 0.981725 -0.190303
vn 0.000000 0.981725 -0.190303
vn 0.000000 0.981725 -0.190303
vn 0.494602 0.794340 -0.352694
vn 0.494602 0.794340 -0.352694
vn 0.494602 0.794340 -0.352694
vn 0.494602 0.794340 -0.352694
vn 0.195163 0.980771 0.000000
vn 0.195163 0.980771 0.000000
vn 0.195163 0.980771 0.000000
vn 0.195163 0.980771 0.000000
vn 0.344036 0.584664 0.734716
vn 0.344036 0.584664 0.734716
vn 0.344036 0.584664 0.734715
vn 0.344036 0.584664 0.734716
vn -0.164437 -0.986387 0.000000
vn -0.164437 -0.986387 0.000000
vn -0.164437 -0.986388 0.000000
vn -0.164437 -0.986388 0.000000
vn 0.344038 0.584654 -0.734723
vn 0.344038 0.584654 -0.734723
vn 0.344038 0.584654 -0.734723
vn 0.344038 0.584654 -0.734723
vn -0.195163 0.980771 0.000000
vn -0.195163 0.980771 0.000000
vn -0.195163 0.980771 0.000000
vn -0.195163 0.980771 0.000000
vn -0.344038 0.584655 -0.734722
vn -0.344038 0.584655 -0.734722
vn -0.344038 0.584655 -0.734722
vn -0.344038 0.584655 -0.734722
vn 0.164437 -0.986387 0.000000
vn 0.164437 -0.986387 0.000000
vn 0.164437 -0.986388 0.000000
vn 0.164437 -0.986388 0.000000
vn -0.344036 0.584658 0.734720
vn -0.344036 0.584658 0.734720
vn -0.344036 0.584658 0.734720
vn -0.344036 0.584658 0.734720
vn 0.000000 -0.930351 0.366671
vn 0.000000 -0.930351 0.366671
vn 0.000000 -0.930351 0.366671
vn 0.000000 -0.930351 0.366671
vn -0.366672 -0.930350 0.000000
vn -0.366672 -0.930350 0.000000
vn -0.366672 -0.930350 0.000000
vn -0.366672 -0.930350 0.000000
vn 0.000000 -0.930349 -0.366675
vn 0.000000 -0.930349 -0.366675
vn 0.000000 -0.930349 -0.366675
vn 0.000000 -0.930349 -0.366675
vn 0.366672 -0.930350 0.000000
vn 0.366672 -0.930350 0.000000
vn 0.366672 -0.930350 0.000000
vn 0.366672 -0.930350 0.000000
vn 0.000000 0.000000 1.000000
vn 0.000000 0.000000 1.000000
vn 0.000000 0.000000 1.000000
vn 0.000000 0.000000 1.000000
vn -1.000000 0.000000 0.000000
vn -1.000000 0.000000 0.000000
vn -1.000000 0.000000 0.000000
vn -1.000000 0.000000 0.000000
vn 0.000000 0.000000 -1.000000
vn 0.000000 0.000000 -1.000000
vn 0.000000 0.000000 -1.000000
vn 0.000000 0.000000 -1.000000
vn 1.000000 0.000000 0.000000
vn 1.000000 0.000000 0.000000
vn 1.000000 0.000000 0.000000
vn 1.000000 0.000000 0.000000
vn 0.000000 0.000000 1.000000
vn 0.000000 0.000000 1.000000
vn 0.000000 0.000000 1.000000
vn 0.000000 0.000000 1.000000
vn 1.000000 0.000000 0.000000
vn 1.000000 0.000000 0.000000
vn 1.000000 0.000000 0.000000
vn 1.000000 0.000000 0.000000
vn 0.000000 0.000000 -1.000000
vn 0.000000 0.000000 -1.000000
vn 0.000000 0.000000 -1.000000
vn 0.000000 0.000000 -1.000000
vn -1.000000 0.000000 0.000000
vn -1.000000 0.000000 0.000000
vn -1.000000 0.000000 0.000000
vn -1.000000 0.000000 0.000000
vn -0.443355 0.896346 0.000000
vn -0.443355 0.896346 0.000000
vn -0.443355 0.896346 0.000000
vn -0.443355 0.896346 0.000000
vn 0.443355 -0.896346 0.000000
vn 0.443355 -0.896346 0.000000
vn 0.443355 -0.896346 0.000000
vn 0.443355 -0.896346 0.000000
vn -0.896347 -0.443353 0.000000
vn -0.896347 -0.443353 0.000000
vn -0.896347 -0.443353 0.000000
vn -0.896347 -0.443353 0.000000
vn 0.297368 -0.601200 0.741708
vn 0.297368 -0.601200 0.741708
vn 0.297368 -0.601200 0.741708
vn 0.297368 -0.601200 0.741708
vn 0.327964 -0.663056 -0.672901
vn 0.327964 -0.663056 -0.672901
vn 0.327964 -0.663056 -0.672901
vn 0.327964 -0.663056 -0.672901
vn 0.000000 0.896346 -0.443355
vn 0.000000 0.896346 -0.443355
vn 0.000000 0.896346 -0.443355
vn 0.000000 0.896346 -0.443355
vn 0.000000 -0.896346 0.443355
vn 0.000000 -0.896346 0.443355
vn 0.000000 -0.896346 0.443355
vn 0.000000 -0.896346 0.443355
vn 0.000000 -0.443348 -0.896350
vn 0.000000 -0.443348 -0.896350
vn 0.000000 -0.443348 -0.896350
vn 0.000000 -0.443348 -0.896350
vn -0.576674 -0.732292 0.362210
vn -0.576674 -0.732292 0.362210
vn -0.576674 -0.732292 0.362210
vn -0.576674 -0.732292 0.362210
vn 0.527216 -0.761653 0.376733
vn 0.527216 -0.761654 0.376733
vn 0.527216 -0.761653 0.376733
vn 0.527216 -0.761654 0.376733
s off
f 1/1/1 2/2/2 4/4/3 3/3/4
f 5/5/5 6/6/6 8/8/7 7/7/8
f 7/7/9 8/8/10 2/10/11 1/9/12
f 2/2/13 8/11/14 6/12/15 4/4/16
f 7/13/17 1/1/18 3/3/19 5/14/20
f 9/15/21 10/16/22 12/17/23 11/18/24
f 13/19/25 14/20/26 16/21/27 15/22/28
f 15/22/29 16/21/30 10/23/31 9/24/32
f 10/16/33 16/25/34 14/26/35 12/17/36
f 15/27/37 9/15/38 11/18/39 13/28/40
f 17/29/41 27/30/42 28/31/43 20/32/44
f 21/33/45 18/34/46 19/35/47 22/36/48
f 23/37/49 31/38/50 32/39/51 24/40/52
f 25/41/53 29/42/54 30/43/55 26/44/56
f 27/45/57 25/46/58 26/47/59 28/48/60
f 29/49/61 23/50/62 24/51/63 30/52/64
f 31/53/65 21/54/66 22/55/67 32/56/68
f 61/57/69 62/58/70 63/59/71 64/60/72
f 85/61/73 86/62/74 87/63/75 88/64/76
f 65/65/77 66/66/78 67/67/79 68/68/80
f 70/69/81 69/70/82 71/71/83 72/72/84
f 73/73/85 74/74/86 75/75/87 76/76/88
f 39/77/89 40/78/90 42/79/91 41/80/92
f 40/78/93 34/81/94 43/82/95 42/79/96
f 34/81/97 33/83/98 44/84/99 43/82/100
f 33/83/101 39/77/102 41/80/103 44/84/104
f 33/85/105 34/86/106 46/87/107 45/88/108
f 34/86/109 36/89/110 47/90/111 46/87/112
f 36/89/113 35/91/114 48/92/115 47/90/116
f 35/91/117 33/85/118 45/88/119 48/92/120
f 37/93/121 38/94/122 50/95/123 49/96/124
f 38/94/125 40/78/126 51/97/127 50/95/128
f 40/78/129 39/77/130 52/98/131 51/97/132
f 39/77/133 37/93/134 49/96/135 52/98/136
f 34/86/137 40/99/138 53/100/139 54/101/140
f 40/99/141 38/102/142 55/103/143 53/100/144
f 38/102/145 36/89/146 56/104/147 55/103/148
f 36/89/149 34/86/150 54/101/151 56/104/152
f 39/105/153 33/85/154 58/106/155 57/107/156
f 33/85/157 35/91/158 59/108/159 58/106/160
f 35/91/161 37/109/162 60/110/163 59/108/164
f 37/109/165 39/105/166 57/107/167 60/110/168
f 45/163/169 46/164/170 62/111/171 61/112/172
f 46/165/173 47/166/174 63/113/175 62/111/176
f 47/167/177 48/168/178 64/114/179 63/113/180
f 48/169/181 45/170/182 61/112/183 64/114/184
f 49/171/185 50/172/186 66/115/187 65/116/188
f 50/173/189 51/174/190 67/117/191 66/115/192
f 51/175/193 52/176/194 68/118/195 67/117/196
f 52/177/197 49/178/198 65/116/199 68/118/200
f 54/179/201 53/180/202 69/119/203 70/181/204
f 53/182/205 55/183/206 71/120/207 69/119/208
f 55/184/209 56/185/210 72/186/211 71/120/212
f 56/187/213 54/188/214 70/189/215 72/190/216
f 57/107/217 58/106/218 74/191/219 73/121/220
f 58/106/221 59/108/222 75/192/223 74/193/224
f 59/108/225 60/110/226 76/122/227 75/194/228
f 60/110/229 57/107/230 73/121/231 76/122/232
f 41/123/233 42/124/234 78/125/235 77/126/236
f 42/124/237 43/127/238 79/128/239 78/125/240
f 43/127/241 44/129/242 80/130/243 79/128/244
f 44/129/245 41/123/246 77/126/247 80/130/248
f 77/126/249 78/125/250 82/131/251 81/132/252
f 78/125/253 79/128/254 83/133/255 82/131/256
f 79/128/257 80/130/258 84/134/259 83/133/260
f 80/130/261 77/126/262 81/132/263 84/134/264
f 35/91/265 36/89/266 86/62/267 85/61/268
f 36/89/269 38/94/270 87/63/271 86/62/272
f 38/94/273 37/93/274 88/64/275 87/63/276
f 37/93/277 35/91/278 85/61/279 88/64/280
f 89/135/281 90/136/282 92/137/283 91/138/284
f 93/139/285 94/140/286 96/141/287 95/142/288
f 95/142/289 96/141/290 90/143/291 89/144/292
f 90/136/293 96/145/294 94/146/295 92/137/296
f 95/147/297 89/135/298 91/138/299 93/148/300
f 97/149/301 98/150/302 100/151/303 99/152/304
f 101/153/305 102/154/306 104/155/307 103/156/308
f 103/156/309 104/155/310 98/157/311 97/158/312
f 98/150/313 104/159/314 102/160/315 100/151/316
f 103/161/317 97/149/318 99/152/319 101/162/320
