# This file uses centimeters as units for non-parametric coordinates.

v 0.000000 0.000000 14.998779
v 0.000000 299.700073 -0.000977
v 0.000000 0.000000 -0.000977
v 249.999268 299.700073 14.998779
v 249.999268 0.000000 14.998779
v 249.999268 0.000000 -0.000977
v 249.999268 299.700073 -0.000977
v 0.000000 299.700073 14.998779
v 70.671387 0.000000 18.270752
v 70.671387 0.000000 -0.000977
v 179.327881 0.000000 18.270752
v 179.327881 0.000000 -0.000977
v 71.524902 200.076324 18.270752
v 178.474121 200.076324 18.270752
v 175.140381 196.489227 -0.000977
v 74.858887 196.489227 -0.000977
v 66.689209 0.000000 -0.000977
v 66.689209 0.000000 18.270752
v 66.689209 204.892487 14.998779
v 183.310059 204.892487 14.998779
v 183.310059 0.000000 18.270752
v 183.310059 0.000000 -0.000977
v 183.310059 204.892487 18.270752
v 66.689209 204.892487 17.061401
v 183.310059 0.000000 14.998779
v 66.689209 0.000000 14.998779
v 71.524902 1.859772 18.270752
v 74.858887 2.276306 -0.000977
v 175.140381 2.276306 -0.000977
v 178.474121 1.859772 18.270752
v 71.524902 200.076324 14.730713
v 71.524902 1.859772 14.730713
v 178.474121 1.859772 14.730713
v 178.474121 200.076324 14.730713
v 175.140381 196.489227 13.654663
v 175.140381 2.276306 13.654663
v 74.858887 2.276306 13.654663
v 74.858887 196.489227 13.654663
v 77.204102 204.892487 18.270752
v 66.689209 201.613861 18.270752
v 183.310059 164.078613 18.270752
v 183.310059 134.450836 18.270752
v 183.310059 146.204712 14.998779
v 181.603516 146.720184 18.270752
v 66.689209 44.267700 18.270752
v 66.689209 22.939911 18.270752
v 66.689209 30.154602 14.998779
v 68.631836 31.675964 18.270752
vt 0.001743 0.997724
vt 0.001743 0.997724
vt 0.001743 0.752518
vt 0.001743 0.752518
vt 0.248458 0.997724
vt 0.248458 0.997724
vt 0.182645 0.752518
vt 0.182645 0.752518
vt 0.248458 0.752518
vt 0.248458 0.752518
vt 0.067556 0.920155
vt 0.182645 0.920155
vt 0.067556 0.752518
vt 0.067556 0.752518
vt 0.101904 0.253073
vt 0.101946 0.253978
vt 0.101930 0.253985
vt 0.101883 0.253057
vt 0.102510 0.253032
vt 0.102464 0.253949
vt 0.102447 0.253945
vt 0.102489 0.253050
vt 0.101853 0.253040
vt 0.101865 0.253259
vt 0.101870 0.253342
vt 0.101852 0.253032
vt 0.102488 0.253956
vt 0.102471 0.253968
vt 0.102491 0.253966
vt 0.102467 0.253961
vt 0.102483 0.253839
vt 0.102496 0.253874
vt 0.102514 0.253040
vt 0.101883 0.253065
vt 0.102482 0.253015
vt 0.101886 0.253347
vt 0.101926 0.254004
vt 0.101905 0.253995
vt 0.101906 0.254005
vt 0.102542 0.253010
vt 0.102540 0.253005
vt 0.101924 0.253944
vt 0.101904 0.253946
vt 0.102474 0.253909
vt 0.102455 0.253910
vt 0.102435 0.253902
vt 0.101944 0.253934
vt 0.101930 0.253996
vt 0.101902 0.253042
vt 0.102475 0.253020
vt 0.102543 0.253031
vt 0.101873 0.253409
vt 0.102494 0.253834
vt 0.102501 0.253786
vt 0.182645 0.872139
vt 0.067556 0.777190
vt 0.001835 0.751705
vt 0.002209 0.751711
vt 0.002217 0.751721
vt 0.001837 0.751714
vn -1.000000 0.000000 0.000000
vn -1.000000 0.000000 0.000000
vn -1.000000 0.000000 0.000000
vn -1.000000 0.000000 0.000000
vn 0.000000 1.000000 0.000000
vn 0.000000 1.000000 0.000000
vn 0.000000 1.000000 0.000000
vn 0.000000 1.000000 0.000000
vn 0.000000 -1.000000 0.000000
vn 0.000000 -1.000000 0.000000
vn 0.000000 -1.000000 0.000000
vn 0.000000 -1.000000 0.000000
vn -0.307171 0.000000 0.951654
vn -0.307171 0.000000 0.951654
vn -0.307171 0.000000 0.951654
vn -0.307171 0.000000 0.951654
vn 0.000000 0.000000 1.000000
vn 0.000000 0.000000 1.000000
vn 0.000000 0.000000 1.000000
vn 0.000000 0.000000 1.000000
vn 1.000000 0.000000 0.000000
vn 1.000000 0.000000 0.000000
vn 1.000000 0.000000 0.000000
vn 1.000000 0.000000 0.000000
vn 0.307150 0.000000 0.951661
vn 0.307150 0.000000 0.951661
vn 0.307150 0.000000 0.951661
vn 0.307150 0.000000 0.951661
vn 1.000000 0.000000 0.000000
vn 1.000000 0.000000 0.000000
vn 1.000000 0.000000 0.000000
vn 1.000000 0.000000 0.000000
vn 0.000000 -0.287328 0.957832
vn 0.000000 -0.287328 0.957832
vn 0.000000 -0.287328 0.957832
vn 0.000000 -0.287328 0.957832
vn 0.000000 -1.000000 0.000000
vn 0.000000 -1.000000 0.000000
vn 0.000000 -1.000000 0.000000
vn 0.000000 -1.000000 0.000000
vn 0.000000 -1.000000 0.000000
vn 0.000000 -1.000000 0.000000
vn 0.000000 -1.000000 0.000000
vn -0.000000 0.000000 1.000000
vn -0.000000 0.000000 1.000000
vn -0.000000 0.000000 1.000000
vn -0.000000 0.000000 1.000000
vn -0.000000 0.000000 1.000000
vn 0.000000 0.000000 1.000000
vn 0.000000 0.000000 1.000000
vn 0.000000 0.000000 1.000000
vn 0.000000 0.000000 1.000000
vn 0.000000 0.000000 1.000000
vn 0.000000 0.000000 1.000000
vn 0.000000 0.000000 1.000000
vn 0.000000 0.000000 1.000000
vn 0.000000 -1.000000 0.000000
vn 0.000000 -1.000000 0.000000
vn 0.000000 -1.000000 0.000000
vn 0.000000 1.000000 0.000005
vn 0.000000 1.000000 0.000005
vn 0.000000 1.000000 0.000005
vn 0.000000 1.000000 0.000005
vn 0.000000 1.000000 0.000005
vn 0.000000 -1.000000 0.000000
vn 0.000000 -1.000000 0.000000
vn 0.000000 -1.000000 0.000000
vn 0.000000 -1.000000 0.000000
vn 0.000000 0.000000 1.000000
vn 0.000000 0.000000 1.000000
vn 0.000000 0.000000 1.000000
vn 0.000000 0.000000 1.000000
vn 0.000000 0.000000 1.000000
vn 0.000000 0.000000 1.000000
vn 0.000000 0.000000 1.000000
vn 0.000000 -1.000000 0.000000
vn 0.000000 -1.000000 0.000000
vn 0.000000 -1.000000 0.000000
vn 0.000000 -1.000000 0.000000
vn 0.000000 0.000000 -1.000000
vn 0.000000 0.000000 -1.000000
vn 0.000000 0.000000 -1.000000
vn 0.000000 0.000000 -1.000000
vn 0.000000 0.932568 0.360993
vn 0.000000 0.932568 0.360993
vn 0.000000 0.932568 0.360993
vn 0.000000 0.932568 0.360993
vn 0.000000 -1.000000 0.000000
vn 0.000000 -1.000000 0.000000
vn 0.000000 -1.000000 0.000000
vn 0.000000 -1.000000 0.000000
vn 0.000000 0.000000 1.000000
vn 0.000000 0.000000 1.000000
vn 0.000000 0.000000 1.000000
vn 0.000000 0.000000 1.000000
vn 1.000000 0.000000 0.000000
vn 1.000000 0.000000 0.000000
vn 1.000000 0.000000 0.000000
vn 1.000000 0.000000 0.000000
vn 0.000000 1.000000 0.000000
vn 0.000000 1.000000 0.000000
vn 0.000000 1.000000 0.000000
vn 0.000000 1.000000 0.000000
vn -1.000000 0.000000 0.000000
vn -1.000000 0.000000 0.000000
vn -1.000000 0.000000 0.000000
vn -1.000000 0.000000 0.000000
vn 0.000000 -1.000000 0.000000
vn 0.000000 -1.000000 0.000000
vn 0.000000 -1.000000 0.000000
vn 0.000000 -1.000000 0.000000
vn -1.000000 0.000000 0.000000
vn -1.000000 0.000000 0.000000
vn -1.000000 0.000000 0.000000
vn -1.000000 0.000000 0.000000
vn 0.000000 1.000000 0.000000
vn 0.000000 1.000000 0.000000
vn 0.000000 1.000000 0.000000
vn 0.000000 1.000000 0.000000
vn 1.000000 0.000000 0.000000
vn 1.000000 0.000000 0.000000
vn 1.000000 0.000000 0.000000
vn 1.000000 0.000000 0.000000
vn 0.000000 -1.000000 0.000000
vn 0.000000 -1.000000 0.000000
vn 0.000000 -1.000000 0.000000
vn 0.000000 -1.000000 0.000000
vn -0.107283 0.344068 0.932796
vn -0.107283 0.344068 0.932796
vn -0.107283 0.344068 0.932796
vn 0.000000 0.000000 1.000000
vn 0.000000 0.000000 1.000000
vn 0.000000 0.000000 1.000000
vn 1.000000 0.000000 0.000000
vn 1.000000 0.000000 0.000000
vn 1.000000 0.000000 0.000000
vn 1.000000 0.000000 0.000000
vn 0.877703 -0.086290 0.471372
vn 0.877703 -0.086290 0.471372
vn 0.877703 -0.086290 0.471372
vn 0.887707 0.123473 0.443544
vn 0.887707 0.123473 0.443544
vn 0.887707 0.123473 0.443544
vn -1.000000 0.000000 0.000000
vn -1.000000 0.000000 0.000000
vn -1.000000 0.000000 0.000000
vn -1.000000 0.000000 0.000000
vn -1.000000 0.000000 0.000000
vn -1.000000 0.000000 0.000000
vn -1.000000 0.000000 0.000000
vn -1.000000 0.000000 0.000000
vn -1.000000 0.000000 0.000000
vn -0.880497 0.195795 0.431728
vn -0.880497 0.195795 0.431728
vn -0.880497 0.195795 0.431728
vn -0.825734 -0.127393 0.549486
vn -0.825734 -0.127393 0.549486
vn -0.825734 -0.127393 0.549486
vn 0.000000 0.000000 1.000000
vn 0.000000 0.000000 1.000000
vn 0.000000 0.000000 1.000000
vn -0.000000 0.000000 1.000000
vn -0.000000 0.000000 1.000000
vn -0.000000 0.000000 1.000000
vn -0.000000 0.000000 1.000000
vn 0.000000 0.000000 1.000000
vn 0.000000 0.000000 1.000000
vn 0.000000 0.000000 1.000000
vn 0.000000 0.000000 1.000000
vn 0.000000 0.000000 1.000000
vn 0.000000 0.000000 1.000000
vn 0.000000 0.000000 1.000000
vn 0.000000 0.000000 1.000000
vn 0.000000 0.000000 1.000000
vn 0.000000 0.000000 1.000000
vn 0.000000 0.000000 1.000000
vn -0.000000 0.000000 1.000000
vn -0.000000 0.000000 1.000000
vn -0.000000 0.000000 1.000000
vn 0.000000 0.000000 1.000000
vn 0.000000 0.000000 1.000000
vn 0.000000 0.000000 1.000000
s off
f 8/1/1 2/2/2 3/3/3 1/4/4
f 7/57/5 2/58/6 8/59/7 4/60/8
f 25/7/9 22/8/10 6/9/11 5/10/12
f 35/15/13 36/16/14 33/17/15 34/18/16
f 19/11/17 20/12/18 4/6/19 8/1/20
f 6/9/21 7/5/22 4/6/23 5/10/24
f 31/19/25 32/20/26 37/21/27 38/22/28
f 23/23/29 41/24/30 43/25/31 20/26/32
f 38/22/33 35/15/34 34/18/35 31/19/36
f 3/3/37 17/13/38 26/14/39 1/4/40
f 26/27/41 9/28/42 18/29/43
f 18/29/44 9/28/45 27/30/46 48/31/47 46/32/48
f 13/33/49 14/34/50 23/23/51 39/35/52
f 14/34/53 44/36/54 41/24/55 23/23/56
f 11/37/57 25/38/58 21/39/59
f 24/40/60 39/35/61 23/23/62 20/26/63 19/41/64
f 11/37/65 12/42/66 22/43/67 25/38/68
f 5/10/69 43/55/70 25/7/71
f 19/11/72 8/1/73 1/4/74 47/56/75
f 17/44/76 10/45/77 9/28/78 26/27/79
f 10/45/80 28/46/81 29/47/82 12/42/83
f 36/16/84 37/21/85 32/20/86 33/17/87
f 10/45/88 12/42/89 11/37/90 9/28/91
f 9/28/92 11/37/93 30/48/94 27/30/95
f 27/30/96 32/20/97 31/19/98 13/33/99
f 33/17/100 32/20/101 27/30/102 30/48/103
f 34/18/104 33/17/105 30/48/106 14/34/107
f 31/19/108 34/18/109 14/34/110 13/33/111
f 15/49/112 29/47/113 36/16/114 35/15/115
f 28/46/116 37/21/117 36/16/118 29/47/119
f 38/22/120 37/21/121 28/46/122 16/50/123
f 15/49/124 35/15/125 38/22/126 16/50/127
f 40/51/128 39/35/129 24/40/130
f 13/33/131 39/35/132 40/51/133
f 43/25/134 42/52/135 21/39/136 25/38/137
f 41/24/138 44/36/139 43/25/140
f 43/25/141 44/36/142 42/52/143
f 19/41/144 47/53/145 45/54/146 40/51/147 24/40/148
f 46/32/149 47/53/150 26/27/151 18/29/152
f 46/32/153 48/31/154 47/53/155
f 47/53/156 48/31/157 45/54/158
f 47/56/159 1/4/160 26/14/161
f 48/31/162 13/33/163 40/51/164 45/54/165
f 48/31/166 27/30/167 13/33/168
f 11/37/169 21/39/170 42/52/171 44/36/172 30/48/173
f 30/48/174 44/36/175 14/34/176
f 20/12/177 43/55/178 4/6/179
f 4/6/180 43/55/181 5/10/182
