# This file uses centimeters as units for non-parametric coordinates.

v -257.244141 48.214905 273.078278
v -263.675537 44.710327 266.410767
v -266.745605 34.572815 264.953735
v -262.272949 28.649170 271.509308
v -255.737549 31.268188 277.979523
v -252.765381 40.331116 278.964020
v -261.841553 48.310669 276.972809
v -269.270020 45.941345 270.765717
v -271.502686 36.217834 269.785309
v -265.676514 29.231934 274.835419
v -260.331787 32.100769 280.916534
v -257.782471 41.363464 282.315491
v -267.804199 38.985474 279.941986
v -256.137939 37.504456 267.675629
v -5.150391 294.409851 6.118722
v -7.330566 294.409851 4.045144
v -7.421875 292.244324 1.958210
v -5.333008 290.078796 1.944866
v -3.152832 290.078796 4.018445
v -3.061523 292.244324 6.105366
v -261.386963 45.583862 275.533813
v -263.567139 45.583862 273.460236
v -263.658447 43.418335 271.373260
v -261.569580 41.252869 271.359863
v -259.389404 41.252869 273.433472
v -259.298096 43.418335 275.520416
v -261.478271 43.418335 273.446869
v -5.241699 292.244324 4.031792
v -0.788330 9.019958 7.861741
v -4.835693 12.393982 3.604956
v -9.290039 9.019958 -0.224030
v -9.697021 2.271790 0.203765
v -5.649658 -1.102234 4.460549
v -1.195313 2.271790 8.289536
v -265.326416 42.602844 286.005188
v -269.373779 45.976868 281.748474
v -273.828125 42.602844 277.919403
v -274.234863 35.854675 278.347198
v -270.187500 32.480652 282.603973
v -265.733154 35.854675 286.432983
v -269.742676 41.485168 287.022339
v -272.065918 43.421814 284.578979
v -274.622559 41.485168 282.381195
v -274.855957 37.611877 282.626740
v -272.532959 35.675232 285.070068
v -269.976318 37.611877 287.267822
v -272.299316 39.548523 284.824524
v -20.419922 273.307678 15.504616
v -15.939453 273.307678 19.765795
v -26.566650 273.307678 21.967522
v -22.086182 273.307678 26.228699
v -26.566650 281.569031 21.967522
v -22.086182 281.569031 26.228699
v -20.419922 281.569031 15.504616
v -15.939453 281.569031 19.765795
v -28.339844 277.438354 22.261818
v -18.476074 283.014771 24.002960
v -18.179688 283.014771 17.635193
v -24.524658 283.014771 18.250355
v -15.155518 277.438354 20.511496
v -21.203857 277.438354 14.758891
v -18.179688 271.861938 17.635193
v -18.476074 271.861938 24.002960
v -25.315674 271.861938 25.138119
v -24.524658 271.861938 18.250355
v -22.291260 277.438354 28.014423
v -25.315674 283.014771 25.138119
v -21.500244 270.003113 21.126657
v -26.587402 277.438354 26.475273
v -21.500244 284.873596 21.126657
v -17.468018 277.438354 24.961727
v -25.532715 277.438354 17.291588
v -18.179688 277.438354 17.635199
vt 0.060088 0.377645
vt 0.060075 0.378057
vt 0.059693 0.378019
vt 0.059769 0.377649
vt 0.060012 0.378608
vt 0.059649 0.378527
vt 0.059961 0.378645
vt 0.059713 0.378617
vt 0.059987 0.378278
vt 0.059711 0.378269
vt 0.060060 0.377809
vt 0.059751 0.377788
vt 0.059439 0.378140
vt 0.060329 0.378191
vt 0.060516 0.377074
vt 0.060526 0.377075
vt 0.059549 0.377024
vt 0.059541 0.377023
vt 0.060529 0.377088
vt 0.059552 0.377038
vt 0.060523 0.377100
vt 0.059547 0.377052
vt 0.060514 0.377099
vt 0.059539 0.377051
vt 0.060510 0.377086
vt 0.059536 0.377036
vt 0.059534 0.377037
vt 0.060520 0.377087
vt 0.103611 0.227012
vt 0.103620 0.227014
vt 0.102644 0.226962
vt 0.102636 0.226961
vt 0.103624 0.227027
vt 0.102646 0.226977
vt 0.103618 0.227039
vt 0.102641 0.226991
vt 0.103609 0.227037
vt 0.102634 0.226989
vt 0.103605 0.227024
vt 0.102631 0.226975
vt 0.102631 0.226968
vt 0.102627 0.226967
vt 0.102633 0.226976
vt 0.102630 0.226984
vt 0.102625 0.226983
vt 0.102624 0.226975
vt 0.102628 0.226975
vt 0.058347 0.370180
vt 0.058077 0.370149
vt 0.058001 0.369889
vt 0.058368 0.369931
vt 0.057923 0.370065
vt 0.057790 0.369780
vt 0.057918 0.369523
vt 0.058073 0.369512
vt 0.058348 0.369630
vt 0.058292 0.369303
vt 0.058584 0.369487
vt 0.058006 0.369348
vt 0.058238 0.369385
vt 0.058503 0.369325
vt 0.058663 0.369487
vt 0.058570 0.369627
vt 0.058790 0.369730
vt 0.058220 0.369589
vt 0.058239 0.369916
vt 0.058500 0.369945
vt 0.058659 0.370026
vt 0.058010 0.369970
vt 0.057915 0.369659
vt 0.058580 0.370122
vt 0.058681 0.369854
vt 0.058292 0.370045
vn 0.061800 0.991372 -0.115592
vn 0.061800 0.991372 -0.115592
vn 0.061800 0.991372 -0.115592
vn 0.061800 0.991372 -0.115592
vn -0.562156 0.504167 -0.655588
vn -0.562156 0.504167 -0.655588
vn -0.562156 0.504167 -0.655588
vn -0.562156 0.504167 -0.655588
vn -0.705494 -0.554834 -0.440952
vn -0.705494 -0.554834 -0.440952
vn -0.705494 -0.554834 -0.440952
vn -0.705494 -0.554834 -0.440952
vn -0.090810 -0.985473 0.143513
vn -0.090810 -0.985473 0.143513
vn -0.090810 -0.985473 0.143513
vn -0.090810 -0.985473 0.143513
vn 0.458110 -0.500731 0.734442
vn 0.458110 -0.500731 0.734442
vn 0.458110 -0.500731 0.734442
vn 0.458110 -0.500731 0.734442
vn 0.631306 0.466107 0.619837
vn 0.631306 0.466107 0.619837
vn 0.631306 0.466107 0.619837
vn 0.631306 0.466107 0.619837
vn -0.481558 0.567903 0.667523
vn -0.481558 0.567903 0.667523
vn -0.481558 0.567903 0.667523
vn -0.878701 0.312288 0.361056
vn -0.878701 0.312288 0.361056
vn -0.878701 0.312288 0.361056
vn -0.877420 -0.307339 0.368344
vn -0.877420 -0.307339 0.368344
vn -0.877420 -0.307339 0.368344
vn -0.598615 -0.490742 0.633113
vn -0.598615 -0.490742 0.633113
vn -0.598615 -0.490742 0.633113
vn -0.218176 -0.218048 0.951238
vn -0.218176 -0.218048 0.951238
vn -0.218176 -0.218048 0.951238
vn -0.201306 0.335942 0.920119
vn -0.201306 0.335942 0.920119
vn -0.201306 0.335942 0.920119
vn 0.934878 0.158083 -0.317825
vn 0.934878 0.158083 -0.317825
vn 0.934878 0.158083 -0.317825
vn 0.857346 -0.423542 -0.292524
vn 0.857346 -0.423542 -0.292524
vn 0.857346 -0.423542 -0.292524
vn 0.503070 -0.659028 -0.559110
vn 0.503070 -0.659028 -0.559110
vn 0.503070 -0.659028 -0.559110
vn 0.227810 -0.456544 -0.860041
vn 0.227810 -0.456544 -0.860041
vn 0.227810 -0.456544 -0.860041
vn 0.239576 0.190551 -0.951995
vn 0.239576 0.190551 -0.951995
vn 0.239576 0.190551 -0.951995
vn 0.582509 0.444058 -0.680805
vn 0.582509 0.444058 -0.680805
vn 0.582509 0.444058 -0.680805
vn -0.383295 0.831065 0.403008
vn -0.383295 0.831065 0.403008
vn -0.383295 0.831065 0.403008
vn -0.383295 0.831065 0.403008
vn -0.819175 0.415533 -0.395328
vn -0.819175 0.415533 -0.395328
vn -0.819175 0.415533 -0.395328
vn -0.819175 0.415533 -0.395328
vn -0.435881 -0.415533 -0.798336
vn -0.435881 -0.415533 -0.798336
vn -0.435881 -0.415533 -0.798336
vn -0.435881 -0.415533 -0.798336
vn 0.383295 -0.831065 -0.403008
vn 0.383295 -0.831065 -0.403008
vn 0.383295 -0.831065 -0.403008
vn 0.383295 -0.831065 -0.403008
vn 0.819175 -0.415533 0.395328
vn 0.819175 -0.415533 0.395328
vn 0.819175 -0.415533 0.395328
vn 0.819175 -0.415533 0.395328
vn 0.435881 0.415533 0.798336
vn 0.435881 0.415533 0.798336
vn 0.435881 0.415533 0.798336
vn 0.435881 0.415533 0.798336
vn -0.572735 -0.556184 0.602191
vn -0.572735 -0.556184 0.602191
vn -0.572735 -0.556184 0.602191
vn -0.572748 -0.556193 0.602171
vn -0.572748 -0.556193 0.602171
vn -0.572748 -0.556193 0.602171
vn -0.572756 -0.556175 0.602179
vn -0.572756 -0.556175 0.602179
vn -0.572756 -0.556175 0.602179
vn -0.572731 -0.556193 0.602187
vn -0.572731 -0.556193 0.602187
vn -0.572731 -0.556193 0.602187
vn -0.572705 -0.556211 0.602194
vn -0.572705 -0.556211 0.602194
vn -0.572705 -0.556211 0.602194
vn -0.572730 -0.556157 0.602221
vn -0.572730 -0.556157 0.602221
vn -0.572730 -0.556157 0.602221
vn 0.572742 0.556181 -0.602187
vn 0.572742 0.556181 -0.602187
vn 0.572739 0.556175 -0.602196
vn 0.572745 0.556181 -0.602184
vn 0.572745 0.556181 -0.602184
vn 0.572739 0.556175 -0.602196
vn 0.572745 0.556182 -0.602184
vn 0.572745 0.556182 -0.602183
vn 0.572739 0.556175 -0.602196
vn 0.572744 0.556180 -0.602186
vn 0.572744 0.556180 -0.602186
vn 0.572739 0.556175 -0.602196
vn 0.572745 0.556183 -0.602183
vn 0.572745 0.556183 -0.602183
vn 0.572739 0.556175 -0.602196
vn 0.572739 0.556177 -0.602193
vn 0.572739 0.556177 -0.602193
vn 0.572739 0.556175 -0.602196
vn 0.414321 0.862730 0.289889
vn 0.414321 0.862730 0.289889
vn 0.414321 0.862730 0.289889
vn 0.414321 0.862730 0.289889
vn -0.310286 0.862730 -0.399274
vn -0.310286 0.862730 -0.399274
vn -0.310286 0.862730 -0.399274
vn -0.310286 0.862730 -0.399274
vn -0.724607 0.000000 -0.689162
vn -0.724607 0.000000 -0.689162
vn -0.724607 0.000000 -0.689162
vn -0.724607 0.000000 -0.689162
vn -0.414321 -0.862730 -0.289889
vn -0.414321 -0.862730 -0.289889
vn -0.414321 -0.862730 -0.289889
vn -0.414321 -0.862730 -0.289889
vn 0.310286 -0.862730 0.399274
vn 0.310286 -0.862730 0.399274
vn 0.310286 -0.862730 0.399274
vn 0.310286 -0.862730 0.399274
vn 0.724607 -0.000000 0.689162
vn 0.724607 -0.000000 0.689162
vn 0.724607 -0.000000 0.689162
vn 0.724607 -0.000000 0.689162
vn 0.686540 -0.087156 -0.721850
vn 0.686540 -0.087156 -0.721850
vn 0.686540 -0.087156 -0.721850
vn 0.686540 -0.087156 -0.721850
vn 0.686540 -0.087156 -0.721850
vn 0.686540 -0.087156 -0.721850
vn -0.044092 0.762083 0.645976
vn -0.044092 0.762083 0.645976
vn -0.044092 0.762083 0.645976
vn -0.044092 0.762083 0.645976
vn -0.642960 0.762080 0.076402
vn -0.642960 0.762080 0.076402
vn -0.642960 0.762080 0.076402
vn -0.642960 0.762080 0.076402
vn -0.985376 0.049068 -0.163177
vn -0.985376 0.049068 -0.163177
vn -0.985376 0.049068 -0.163177
vn -0.985376 0.049068 -0.163177
vn -0.728936 -0.663948 0.166811
vn -0.728936 -0.663948 0.166811
vn -0.728936 -0.663948 0.166811
vn -0.728936 -0.663948 0.166811
vn -0.130072 -0.663949 0.736378
vn -0.130072 -0.663949 0.736378
vn -0.130072 -0.663949 0.736378
vn -0.130072 -0.663949 0.736378
vn 0.212350 0.049063 0.975961
vn 0.212350 0.049063 0.975961
vn 0.212350 0.049063 0.975961
vn 0.212350 0.049063 0.975961
vn -0.686535 0.087133 0.721857
vn -0.686535 0.087133 0.721857
vn -0.686549 0.087138 0.721843
vn -0.686540 0.087136 0.721852
vn -0.686540 0.087136 0.721852
vn -0.686549 0.087138 0.721843
vn -0.686551 0.087163 0.721838
vn -0.686551 0.087163 0.721838
vn -0.686549 0.087138 0.721843
vn -0.686535 0.087123 0.721858
vn -0.686535 0.087123 0.721858
vn -0.686540 0.087156 0.721850
vn -0.686555 0.087181 0.721832
vn -0.686555 0.087181 0.721832
vn -0.686540 0.087156 0.721850
vn -0.686546 0.087174 0.721842
vn -0.686546 0.087174 0.721842
vn -0.686540 0.087156 0.721850
vn -0.049756 -0.856829 -0.513195
vn -0.049756 -0.856829 -0.513195
vn -0.049756 -0.856829 -0.513195
vn -0.049756 -0.856829 -0.513195
vn 0.515043 -0.856829 0.023977
vn 0.515043 -0.856829 0.023977
vn 0.515043 -0.856829 0.023977
vn 0.515043 -0.856829 0.023977
vn 0.091071 -0.831035 0.548714
vn 0.091071 -0.831035 0.548714
vn 0.091071 -0.831035 0.548714
vn 0.091071 -0.831035 0.548714
vn -0.552588 -0.831035 -0.063461
vn -0.552588 -0.831035 -0.063461
vn -0.552588 -0.831035 -0.063461
vn -0.552588 -0.831035 -0.063461
vn -0.894933 -0.331011 0.299211
vn -0.894933 -0.331011 0.299211
vn -0.894933 -0.331011 0.299211
vn -0.894933 -0.331011 0.299211
vn -0.253990 -0.331011 0.908802
vn -0.253990 -0.331011 0.908802
vn -0.253990 -0.331011 0.908802
vn -0.253990 -0.331011 0.908802
vn -0.253990 0.331011 0.908802
vn -0.253990 0.331011 0.908802
vn -0.253990 0.331011 0.908802
vn -0.253990 0.331011 0.908802
vn -0.894933 0.331011 0.299211
vn -0.894933 0.331011 0.299211
vn -0.894933 0.331011 0.299211
vn -0.894933 0.331011 0.299211
vn -0.552588 0.831035 -0.063461
vn -0.552588 0.831035 -0.063461
vn -0.552588 0.831035 -0.063461
vn -0.552588 0.831035 -0.063461
vn 0.091071 0.831035 0.548714
vn 0.091071 0.831035 0.548714
vn 0.091071 0.831035 0.548714
vn 0.091071 0.831035 0.548714
vn 0.515043 0.856829 0.023977
vn 0.515043 0.856829 0.023977
vn 0.515043 0.856829 0.023977
vn 0.515043 0.856829 0.023977
vn -0.049756 0.856829 -0.513194
vn -0.049756 0.856829 -0.513194
vn -0.049756 0.856829 -0.513194
vn -0.049756 0.856829 -0.513194
vn 0.864496 -0.237399 0.443044
vn 0.864496 -0.237399 0.443044
vn 0.864496 -0.237399 0.443044
vn 0.864496 -0.237399 0.443044
vn 0.864496 0.237399 0.443044
vn 0.864496 0.237399 0.443044
vn 0.864496 0.237399 0.443044
vn 0.864496 0.237399 0.443044
vn 0.475623 0.275532 0.835383
vn 0.475623 0.275532 0.835383
vn 0.475623 0.275532 0.835383
vn 0.475623 0.275532 0.835383
vn 0.475624 -0.275532 0.835383
vn 0.475624 -0.275532 0.835383
vn 0.475624 -0.275532 0.835383
vn 0.475624 -0.275532 0.835383
vn -0.485807 0.237399 -0.841209
vn -0.485807 0.237399 -0.841209
vn -0.485807 0.237399 -0.841209
vn -0.485807 0.237399 -0.841209
vn -0.485807 -0.237399 -0.841209
vn -0.485807 -0.237399 -0.841209
vn -0.485807 -0.237399 -0.841209
vn -0.485807 -0.237399 -0.841209
vn -0.858167 -0.275532 -0.433165
vn -0.858167 -0.275532 -0.433165
vn -0.858167 -0.275532 -0.433165
vn -0.858167 -0.275532 -0.433165
vn -0.858167 0.275532 -0.433165
vn -0.858167 0.275532 -0.433165
vn -0.858167 0.275532 -0.433165
vn -0.858167 0.275532 -0.433165
vn 0.689159 0.000001 -0.724610
vn 0.689159 0.000001 -0.724610
vn 0.689159 0.000001 -0.724610
vn 0.689166 0.000001 -0.724604
vn 0.689166 0.000001 -0.724604
vn 0.689166 0.000001 -0.724604
vn 0.689159 -0.000001 -0.724610
vn 0.689159 -0.000001 -0.724610
vn 0.689159 -0.000001 -0.724610
vn 0.689166 -0.000001 -0.724604
vn 0.689166 -0.000001 -0.724604
vn 0.689166 -0.000001 -0.724604
vn 0.689164 0.000003 -0.724606
vn 0.689164 0.000003 -0.724606
vn 0.689164 0.000003 -0.724606
vn 0.689164 -0.000003 -0.724606
vn 0.689164 -0.000003 -0.724606
vn 0.689164 -0.000003 -0.724606
vn 0.689161 0.000003 -0.724608
vn 0.689161 0.000003 -0.724608
vn 0.689161 0.000003 -0.724608
vn 0.689161 -0.000003 -0.724608
vn 0.689161 -0.000003 -0.724608
vn 0.689161 -0.000003 -0.724608
s off
f 1/1/1 2/2/2 8/3/3 7/4/4
f 2/2/5 3/5/6 9/6/7 8/3/8
f 3/5/9 4/7/10 10/8/11 9/6/12
f 4/7/13 5/9/14 11/10/15 10/8/16
f 5/9/17 6/11/18 12/12/19 11/10/20
f 6/11/21 1/1/22 7/4/23 12/12/24
f 7/4/25 8/3/26 13/13/27
f 8/3/28 9/6/29 13/13/30
f 9/6/31 10/8/32 13/13/33
f 10/8/34 11/10/35 13/13/36
f 11/10/37 12/12/38 13/13/39
f 12/12/40 7/4/41 13/13/42
f 1/1/43 6/11/44 14/14/45
f 6/11/46 5/9/47 14/14/48
f 5/9/49 4/7/50 14/14/51
f 4/7/52 3/5/53 14/14/54
f 3/5/55 2/2/56 14/14/57
f 2/2/58 1/1/59 14/14/60
f 15/15/61 16/16/62 22/17/63 21/18/64
f 16/16/65 17/19/66 23/20/67 22/17/68
f 17/19/69 18/21/70 24/22/71 23/20/72
f 18/21/73 19/23/74 25/24/75 24/22/76
f 19/23/77 20/25/78 26/26/79 25/24/80
f 20/25/81 15/15/82 21/18/83 26/26/84
f 21/18/85 22/17/86 27/27/87
f 22/17/88 23/20/89 27/27/90
f 23/20/91 24/22/92 27/27/93
f 24/22/94 25/24/95 27/27/96
f 25/24/97 26/26/98 27/27/99
f 26/26/100 21/18/101 27/27/102
f 15/15/103 20/25/104 28/28/105
f 20/25/106 19/23/107 28/28/108
f 19/23/109 18/21/110 28/28/111
f 18/21/112 17/19/113 28/28/114
f 17/19/115 16/16/116 28/28/117
f 16/16/118 15/15/119 28/28/120
f 29/29/121 30/30/122 36/31/123 35/32/124
f 30/30/125 31/33/126 37/34/127 36/31/128
f 31/33/129 32/35/130 38/36/131 37/34/132
f 32/35/133 33/37/134 39/38/135 38/36/136
f 33/37/137 34/39/138 40/40/139 39/38/140
f 34/39/141 29/29/142 35/32/143 40/40/144
f 29/29/145 34/39/146 33/37/147 32/35/148 31/33/149 30/30/150
f 35/32/151 36/31/152 42/41/153 41/42/154
f 36/31/155 37/34/156 43/43/157 42/41/158
f 37/34/159 38/36/160 44/44/161 43/43/162
f 38/36/163 39/38/164 45/45/165 44/44/166
f 39/38/167 40/40/168 46/46/169 45/45/170
f 40/40/171 35/32/172 41/42/173 46/46/174
f 41/42/175 42/41/176 47/47/177
f 42/41/178 43/43/179 47/47/180
f 46/46/181 41/42/182 47/47/183
f 43/43/184 44/44/185 47/47/186
f 44/44/187 45/45/188 47/47/189
f 45/45/190 46/46/191 47/47/192
f 48/48/193 62/49/194 68/50/195 65/51/196
f 62/49/197 49/52/198 63/53/199 68/50/200
f 68/50/201 63/53/202 51/54/203 64/55/204
f 65/51/205 68/50/206 64/55/207 50/56/208
f 50/56/209 64/55/210 69/57/211 56/58/212
f 64/55/213 51/54/214 66/59/215 69/57/216
f 69/57/217 66/59/218 53/60/219 67/61/220
f 56/58/221 69/57/222 67/61/223 52/62/224
f 52/62/225 67/61/226 70/63/227 59/64/228
f 67/61/229 53/60/230 57/65/231 70/63/232
f 70/63/233 57/65/234 55/66/235 58/67/236
f 59/64/237 70/63/238 58/67/239 54/68/240
f 49/52/241 60/69/242 71/70/243 63/53/244
f 60/69/245 55/66/246 57/65/247 71/70/248
f 71/70/249 57/65/250 53/60/251 66/59/252
f 63/53/253 71/70/254 66/59/255 51/54/256
f 54/68/257 61/71/258 72/72/259 59/64/260
f 61/71/261 48/48/262 65/51/263 72/72/264
f 72/72/265 65/51/266 50/56/267 56/58/268
f 59/64/269 72/72/270 56/58/271 52/62/272
f 62/49/273 48/48/274 73/73/275
f 49/52/276 62/49/277 73/73/278
f 54/68/279 58/67/280 73/73/281
f 58/67/282 55/66/283 73/73/284
f 61/71/285 54/68/286 73/73/287
f 48/48/288 61/71/289 73/73/290
f 55/66/291 60/69/292 73/73/293
f 60/69/294 49/52/295 73/73/296
