# This file uses centimeters as units for non-parametric coordinates.

v 0.000000 0.000000 15.000000
v 0.000000 0.000000 0.000122
v 249.999268 -0.000000 15.000000
v 249.999268 0.000000 0.000122
v 249.999268 299.700073 0.000122
v 249.999268 299.700073 15.000000
v 0.000000 299.700073 0.000122
v 0.000000 299.700073 15.000000
vt 0.002059 0.751591
vt 0.002036 0.751833
vt 0.002038 0.751844
vt 0.002061 0.751602
vt 0.001918 0.751610
vt 0.001917 0.751598
vt 0.001899 0.751840
vt 0.001901 0.751852
vt 0.248737 0.752547
vt 0.001595 0.752547
vt 0.248737 0.997796
vt 0.001595 0.997796
vn -1.000000 0.000000 0.000000
vn -1.000000 0.000000 0.000000
vn -1.000000 0.000000 0.000000
vn -1.000000 0.000000 0.000000
vn 0.000000 1.000000 0.000000
vn 0.000000 1.000000 0.000000
vn 0.000000 1.000000 0.000000
vn 0.000000 1.000000 0.000000
vn -0.000000 -1.000000 -0.000000
vn -0.000000 -1.000000 -0.000000
vn -0.000000 -1.000000 -0.000000
vn -0.000000 -1.000000 -0.000000
vn 0.000000 0.000000 1.000000
vn 0.000000 0.000000 1.000000
vn 0.000000 0.000000 1.000000
vn 0.000000 0.000000 1.000000
vn 1.000000 0.000000 0.000000
vn 1.000000 0.000000 0.000000
vn 1.000000 0.000000 0.000000
vn 1.000000 0.000000 0.000000
s off
f 7/1/1 2/2/2 1/3/3 8/4/4
f 7/1/5 8/4/6 6/5/7 5/6/8
f 1/3/9 2/2/10 4/7/11 3/8/12
f 6/11/13 8/12/14 1/10/15 3/9/16
f 5/6/17 6/5/18 3/8/19 4/7/20
