# This file uses centimeters as units for non-parametric coordinates.

v 487.970367 42.163239 5.075562
v 487.970367 51.797272 5.075562
v 487.970367 42.163239 0.000000
v 12.195831 51.797272 5.075562
v 12.458130 42.163239 5.075562
v 11.610748 42.163239 0.000000
v 12.195831 51.797272 0.000000
v 487.970367 51.797272 0.000000
v 0.000092 0.000000 17.343750
v 0.000092 0.000000 0.000000
v 250.000153 299.700012 7.694336
v 250.000153 299.700012 0.000122
v 250.000153 0.000000 7.694336
v 250.000153 0.000000 0.000122
v 0.000092 299.700134 17.343994
v 0.000153 299.700134 0.000122
v 13.966461 145.070602 7.694336
v 3.991028 0.000000 7.694336
v 13.966461 145.070602 0.000000
v 13.966461 157.127747 7.694336
v 13.966461 157.127747 0.000000
v 3.991028 299.700012 7.694336
v 3.991028 299.700012 17.343750
v 3.991028 0.000000 17.343750
v 13.966461 285.192291 7.694336
v 13.966461 285.192291 0.000000
v 13.966461 14.507085 7.694336
v 13.966461 14.507085 0.000000
v 243.118011 157.127747 7.694336
v 243.118011 145.070602 7.694336
v 241.954987 145.070602 0.000000
v 241.954987 157.127747 0.000000
v 243.118011 285.192291 7.694336
v 241.954987 285.192291 0.000000
v 243.118011 14.507085 7.694336
v 241.954987 14.507085 0.000000
v 250.000153 145.070602 7.694336
v 250.000153 157.127747 7.694336
v 500.000214 0.000000 17.343750
v 500.000214 0.000000 0.000000
v 500.000214 299.700134 17.343994
v 500.000214 299.700134 0.000122
v 486.033722 145.070602 7.694336
v 496.009186 0.000000 7.694336
v 486.033722 145.070602 0.000000
v 486.033722 157.127747 7.694336
v 486.033722 157.127747 0.000000
v 496.009186 299.700012 7.694336
v 496.009186 299.700012 17.343750
v 496.009186 0.000000 17.343750
v 486.033722 285.192291 7.694336
v 486.033722 285.192291 0.000000
v 486.033722 14.507085 7.694336
v 486.033722 14.507085 0.000000
v 256.882355 157.127747 7.694336
v 256.882355 145.070602 7.694336
v 258.045380 145.070602 0.000000
v 258.045380 157.127747 0.000000
v 256.882355 285.192291 7.694336
v 258.045380 285.192291 0.000000
v 256.882355 14.507085 7.694336
v 258.045380 14.507085 0.000000
v 487.970367 249.147812 5.075562
v 487.970367 258.781860 5.075562
v 487.970367 249.147812 0.000000
v 12.195831 258.781860 5.075562
v 12.458130 249.147812 5.075562
v 11.610748 249.147812 0.000000
v 12.195831 258.781860 0.000000
v 487.970367 258.781860 0.000000
v 176.912445 285.869965 7.694336
v 204.313751 285.869965 7.694336
v 191.534943 288.033051 7.694336
v 191.193329 285.869965 6.413696
v 277.275726 258.079407 5.075562
v 302.966827 258.079407 5.075562
v 286.455963 258.079407 4.083862
v 286.492950 256.069061 5.075562
v 461.339264 249.497360 5.075562
v 440.888031 249.497360 5.075562
v 455.149689 251.672333 5.075562
v 455.195709 249.497360 3.619385
v 243.615753 98.983437 7.694580
v 243.615814 131.207779 7.694336
v 246.392242 112.507622 7.694336
v 243.615814 112.348717 6.049072
v 341.044464 13.424151 7.694336
v 309.368134 13.424151 7.694336
v 318.377533 13.424151 5.300781
v 319.056610 10.929903 7.803711
v 12.994659 85.404533 7.694336
v 12.994659 58.671154 7.694336
v 10.336548 75.079536 7.694336
v 12.994659 75.746582 5.944702
vt 0.101685 0.278862
vt 0.102641 0.278615
vt 0.102657 0.278569
vt 0.101676 0.278814
vt 0.101688 0.278885
vt 0.102660 0.278630
vt 0.102676 0.278584
vt 0.101685 0.278836
vt 0.103040 0.279023
vt 0.103038 0.278904
vt 0.103032 0.278933
vt 0.103029 0.279036
vt 0.103074 0.278553
vt 0.103056 0.278569
vt 0.103036 0.279078
vt 0.103047 0.279065
vt 0.103042 0.278917
vt 0.103106 0.278544
vt 0.103069 0.278576
vt 0.103043 0.279084
vt 0.103065 0.279058
vt 0.103060 0.278560
vt 0.103042 0.278576
vt 0.103034 0.278848
vt 0.103049 0.278833
vt 0.103034 0.278867
vt 0.102704 0.278635
vt 0.102698 0.278614
vt 0.103048 0.278852
vt 0.102720 0.278626
vt 0.102715 0.278605
vt 0.103005 0.278554
vt 0.102963 0.278518
vt 0.102973 0.278527
vt 0.102599 0.278282
vt 0.102618 0.278271
vt 0.102753 0.278824
vt 0.102767 0.278815
vt 0.102747 0.278833
vt 0.102759 0.278823
vt 0.102692 0.278627
vt 0.102686 0.278606
vt 0.102624 0.278331
vt 0.102646 0.278321
vt 0.102739 0.278750
vt 0.102728 0.278727
vt 0.102728 0.278748
vt 0.102739 0.278772
vt 0.102431 0.278444
vt 0.102445 0.278435
vt 0.102526 0.278632
vt 0.102514 0.278640
vt 0.102270 0.278095
vt 0.102511 0.278650
vt 0.102499 0.278657
vt 0.102252 0.278102
vt 0.102421 0.278422
vt 0.102283 0.278084
vt 0.102246 0.278099
vt 0.102495 0.278654
vt 0.102518 0.278638
vt 0.102321 0.278134
vt 0.102436 0.278414
vt 0.102302 0.278143
vt 0.102674 0.278598
vt 0.102680 0.278619
vt 0.102693 0.278607
vt 0.102687 0.278585
vt 0.102596 0.278314
vt 0.102612 0.278302
vt 0.102647 0.278733
vt 0.102611 0.278715
vt 0.102641 0.278742
vt 0.102733 0.278808
vt 0.102743 0.278797
vt 0.101685 0.278862
vt 0.102269 0.278675
vt 0.102249 0.278671
vt 0.101676 0.278814
vt 0.101688 0.278885
vt 0.102660 0.278630
vt 0.102532 0.278652
vt 0.102676 0.278584
vt 0.102272 0.278670
vt 0.102294 0.278660
vt 0.102657 0.278569
vt 0.102928 0.278509
vt 0.102489 0.278654
vt 0.102525 0.278639
vt 0.102543 0.278640
vt 0.102641 0.278615
vt 0.101685 0.278836
vt 0.102653 0.278747
vt 0.103033 0.278895
vn 0.000000 0.000000 1.000000
vn 0.000000 0.000000 1.000000
vn 0.000000 0.000000 1.000000
vn 0.000000 0.000000 1.000000
vn 0.000000 -1.000000 0.000001
vn 0.000000 -1.000000 0.000001
vn 0.000000 -1.000000 0.000001
vn 0.000000 -1.000000 0.000001
vn 0.000000 1.000000 0.000000
vn 0.000000 1.000000 0.000000
vn 0.000000 1.000000 0.000000
vn 0.000000 1.000000 0.000000
vn 0.999403 0.016723 0.030237
vn 0.999403 0.016723 0.030237
vn 0.999403 0.016723 0.030237
vn 0.999403 0.016723 0.030237
vn 1.000000 0.000000 0.000000
vn 1.000000 0.000000 0.000000
vn 1.000000 0.000000 0.000000
vn 1.000000 0.000000 0.000000
vn 0.000000 0.000000 1.000000
vn 0.000000 0.000000 1.000000
vn 0.000000 0.000000 1.000000
vn 0.000031 1.000000 0.000000
vn 0.000031 1.000000 0.000000
vn 0.000031 1.000000 0.000000
vn 0.000031 1.000000 0.000000
vn 0.000000 -1.000000 0.000000
vn 0.000000 -1.000000 0.000000
vn 0.000000 -1.000000 0.000000
vn 0.000000 -1.000000 0.000000
vn 1.000000 0.000000 0.000000
vn 1.000000 0.000000 0.000000
vn 1.000000 0.000000 0.000000
vn 1.000000 0.000000 0.000000
vn 0.000000 0.000000 1.000000
vn 0.000000 0.000000 1.000000
vn 0.000000 0.000000 1.000000
vn 0.000000 0.000000 1.000000
vn 0.000000 -1.000000 -0.000002
vn 0.000000 -1.000000 -0.000002
vn 0.000000 -1.000000 -0.000002
vn 0.000000 -1.000000 -0.000002
vn 0.000000 1.000000 0.000000
vn 0.000000 1.000000 0.000000
vn 0.000000 1.000000 0.000000
vn 0.000000 1.000000 0.000000
vn 0.000000 0.000000 1.000000
vn 0.000000 0.000000 1.000000
vn 0.000000 0.000000 1.000000
vn 0.000000 0.000000 1.000000
vn 0.003868 -0.999974 0.006156
vn 0.003868 -0.999974 0.006156
vn 0.003868 -0.999974 0.006156
vn 0.003868 -0.999974 0.006156
vn 0.000000 1.000000 0.000008
vn 0.000000 1.000000 0.000008
vn 0.000000 1.000000 0.000008
vn 0.000000 1.000000 0.000008
vn 0.000000 1.000000 0.000000
vn 0.000000 1.000000 0.000000
vn 0.000000 1.000000 0.000000
vn 0.000000 1.000000 0.000000
vn 0.000000 0.000000 1.000000
vn 0.000000 0.000000 1.000000
vn 0.000000 0.000000 1.000000
vn 0.000000 0.000000 1.000000
vn 0.000000 -1.000000 0.000000
vn 0.000000 -1.000000 0.000000
vn 0.000000 -1.000000 0.000000
vn 0.000000 -1.000000 0.000000
vn 0.000000 0.000000 1.000000
vn 0.000000 0.000000 1.000000
vn 0.000000 0.000000 1.000000
vn 0.000000 0.000000 1.000000
vn 0.000000 0.000000 1.000000
vn 0.000000 0.000000 1.000000
vn 0.000000 0.000000 1.000000
vn 0.000000 0.000000 1.000000
vn -0.988769 0.000000 0.149456
vn -0.988769 0.000000 0.149456
vn -0.988769 0.000000 0.149456
vn -0.988769 0.000000 0.149456
vn -0.985125 -0.023545 0.170218
vn -0.985125 -0.023545 0.170218
vn -0.985125 -0.023545 0.170218
vn -0.985125 -0.023545 0.170218
vn 0.000025 -0.000001 1.000000
vn 0.000025 -0.000001 1.000000
vn 0.000025 -0.000001 1.000000
vn 0.000025 -0.000001 1.000000
vn 0.000031 -0.000000 1.000000
vn 0.000031 -0.000000 1.000000
vn 0.000031 -0.000000 1.000000
vn 0.000031 -0.000000 1.000000
vn 0.532563 0.086274 0.841982
vn 0.532563 0.086274 0.841982
vn 0.532563 0.086274 0.841982
vn -0.000000 0.000000 1.000000
vn -0.000000 0.000000 1.000000
vn -0.000000 0.000000 1.000000
vn -1.000000 0.000000 0.000000
vn -1.000000 0.000000 0.000000
vn -1.000000 0.000000 0.000000
vn -1.000000 0.000000 0.000000
vn -1.000000 0.000000 0.000000
vn -1.000000 0.000000 0.000000
vn -1.000000 0.000000 0.000000
vn -1.000000 0.000000 0.000000
vn 0.000000 0.000000 1.000000
vn 0.000000 0.000000 1.000000
vn 0.000000 0.000000 1.000000
vn 0.000000 0.000000 1.000000
vn -0.000031 1.000000 0.000000
vn -0.000031 1.000000 0.000000
vn -0.000031 1.000000 0.000000
vn -0.000031 1.000000 0.000000
vn 0.000000 -1.000000 0.000000
vn 0.000000 -1.000000 0.000000
vn 0.000000 -1.000000 0.000000
vn 0.000000 -1.000000 0.000000
vn -1.000000 0.000000 0.000000
vn -1.000000 0.000000 0.000000
vn -1.000000 0.000000 0.000000
vn -1.000000 0.000000 0.000000
vn 0.000000 0.000000 1.000000
vn 0.000000 0.000000 1.000000
vn 0.000000 0.000000 1.000000
vn 0.000000 0.000000 1.000000
vn 0.000000 -1.000000 -0.000002
vn 0.000000 -1.000000 -0.000002
vn 0.000000 -1.000000 -0.000002
vn 0.000000 -1.000000 -0.000002
vn 0.000000 1.000000 -0.000002
vn 0.000000 1.000000 -0.000002
vn 0.000000 1.000000 -0.000002
vn 0.000000 1.000000 -0.000002
vn 0.000000 0.000000 1.000000
vn 0.000000 0.000000 1.000000
vn 0.000000 0.000000 1.000000
vn 0.000000 0.000000 1.000000
vn 0.000000 -1.000000 -0.000002
vn 0.000000 -1.000000 -0.000002
vn 0.000000 -1.000000 -0.000002
vn 0.000000 -1.000000 -0.000002
vn -0.000000 1.000000 0.000007
vn -0.000000 1.000000 0.000007
vn -0.000000 1.000000 0.000007
vn -0.000000 1.000000 0.000007
vn -0.006672 0.999865 0.014993
vn -0.006672 0.999865 0.014993
vn -0.006672 0.999865 0.014993
vn -0.006672 0.999865 0.014993
vn 0.000000 -0.010006 0.999950
vn 0.000000 -0.010006 0.999950
vn 0.000000 -0.010006 0.999950
vn 0.000000 -1.000000 0.000000
vn 0.000000 -1.000000 0.000000
vn 0.000000 -1.000000 0.000000
vn 0.000000 -1.000000 0.000000
vn 0.000000 0.000000 1.000000
vn 0.000000 0.000000 1.000000
vn 0.000000 0.000000 1.000000
vn 0.000000 0.000000 1.000000
vn 0.000000 0.000000 1.000000
vn 0.000000 0.000000 1.000000
vn 0.000000 0.000000 1.000000
vn 0.000000 0.000000 1.000000
vn 0.988769 0.000000 0.149456
vn 0.988769 0.000000 0.149456
vn 0.988769 0.000000 0.149456
vn 0.988769 0.000000 0.149456
vn 0.988769 0.000000 0.149456
vn 0.988769 0.000000 0.149456
vn 0.988769 0.000000 0.149456
vn 0.988769 0.000000 0.149456
vn -0.000000 0.000000 1.000000
vn -0.000000 0.000000 1.000000
vn -0.000000 0.000000 1.000000
vn -0.000000 0.000000 1.000000
vn -0.000031 -0.000000 1.000000
vn -0.000031 -0.000000 1.000000
vn -0.000031 -0.000000 1.000000
vn -0.000031 -0.000000 1.000000
vn 0.000000 0.000000 1.000000
vn 0.000000 0.000000 1.000000
vn 0.000000 0.000000 1.000000
vn 0.000000 0.000000 1.000000
vn 0.000000 0.000000 1.000000
vn 0.000000 0.000000 1.000000
vn 0.000000 0.000000 1.000000
vn 0.000000 0.000000 1.000000
vn 0.000000 0.000000 1.000000
vn 0.000000 0.000000 1.000000
vn 0.000000 -0.995369 0.096132
vn 0.000000 -0.995369 0.096132
vn 0.000000 -0.995369 0.096132
vn -0.003533 0.999948 0.009617
vn -0.003533 0.999948 0.009617
vn -0.003533 0.999948 0.009617
vn -0.003533 0.999948 0.009617
vn 0.076461 -0.516876 0.852639
vn 0.076461 -0.516876 0.852639
vn 0.076461 -0.516876 0.852639
vn -0.013580 -0.999674 0.021613
vn -0.013580 -0.999674 0.021613
vn -0.013580 -0.999674 0.021613
vn -0.013580 -0.999674 0.021613
vn -0.084255 -0.497751 0.863218
vn -0.084255 -0.497751 0.863218
vn -0.084255 -0.497751 0.863218
vn 0.000000 0.000000 1.000000
vn 0.000000 0.000000 1.000000
vn 0.000000 0.000000 1.000000
vn 0.000000 0.000000 1.000000
vn 0.000000 0.000000 1.000000
vn 0.000000 0.000000 1.000000
vn 0.000000 0.000000 1.000000
vn 0.000000 -0.994464 0.105077
vn 0.000000 -0.994464 0.105077
vn 0.000000 -0.994464 0.105077
vn 0.096352 0.441765 0.891942
vn 0.096352 0.441765 0.891942
vn 0.096352 0.441765 0.891942
vn -0.053810 0.440953 0.895916
vn -0.053810 0.440953 0.895916
vn -0.053810 0.440953 0.895916
vn 0.084355 -0.553129 0.828814
vn 0.084355 -0.553129 0.828814
vn 0.084355 -0.553129 0.828814
vn -0.192813 -0.548715 0.813471
vn -0.192813 -0.548715 0.813471
vn -0.192813 -0.548715 0.813471
vn -0.011129 -0.999883 0.010471
vn -0.011129 -0.999883 0.010471
vn -0.011129 -0.999883 0.010471
vn -0.011129 -0.999883 0.010471
vn 0.000795 -0.999998 0.001636
vn 0.000795 -0.999998 0.001636
vn 0.000795 -0.999998 0.001636
vn 0.000795 -0.999998 0.001636
vn -0.000000 0.000000 1.000000
vn -0.000000 0.000000 1.000000
vn -0.000000 0.000000 1.000000
vn -0.000000 0.000000 1.000000
vn 0.000000 0.000000 1.000000
vn 0.000000 0.000000 1.000000
vn 0.000000 0.000000 1.000000
vn 0.000000 0.000000 1.000000
vn 0.000000 0.000000 1.000000
vn 0.000000 0.000000 1.000000
vn 0.000000 0.000000 1.000000
vn 0.000000 0.000000 1.000000
vn 0.002575 0.999989 0.003899
vn 0.002575 0.999989 0.003899
vn 0.002575 0.999989 0.003899
vn 0.002575 0.999989 0.003899
vn 0.000000 0.985528 0.169515
vn 0.000000 0.985528 0.169515
vn 0.000000 0.985528 0.169515
vn -0.505179 -0.075004 0.859749
vn -0.505179 -0.075004 0.859749
vn -0.505179 -0.075004 0.859749
vn -0.511419 0.105008 0.852892
vn -0.511419 0.105008 0.852892
vn -0.511419 0.105008 0.852892
vn 0.000000 0.000000 1.000000
vn 0.000000 0.000000 1.000000
vn 0.000000 0.000000 1.000000
vn 0.000000 0.000000 1.000000
vn 0.000000 0.000000 1.000000
vn 0.000000 0.000000 1.000000
vn 0.000000 0.000000 1.000000
vn -0.990978 0.007292 0.133828
vn -0.990978 0.007292 0.133828
vn -0.990978 0.007292 0.133828
vn -0.990978 0.007292 0.133828
vn -0.964314 0.000000 0.264761
vn -0.964314 0.000000 0.264761
vn -0.964314 0.000000 0.264761
vn 0.177989 0.720748 0.669956
vn 0.177989 0.720748 0.669956
vn 0.177989 0.720748 0.669956
vn -0.075402 0.696014 0.714058
vn -0.075402 0.696014 0.714058
vn -0.075402 0.696014 0.714058
vn 0.018323 0.999661 0.018477
vn 0.018323 0.999661 0.018477
vn 0.018323 0.999661 0.018477
vn 0.018323 0.999661 0.018477
vn 0.000000 0.979763 0.200163
vn 0.000000 0.979763 0.200163
vn 0.000000 0.979763 0.200163
vn 0.000525 0.006062 0.999981
vn 0.000525 0.006062 0.999981
vn 0.000525 0.006062 0.999982
vn 0.000525 0.006062 0.999981
vn -0.001402 0.006202 0.999980
vn -0.001402 0.006202 0.999980
vn -0.001402 0.006202 0.999980
vn -0.001402 0.006202 0.999980
vn 0.000000 0.000000 1.000000
vn 0.000000 0.000000 1.000000
vn 0.000000 0.000000 1.000000
vn 0.000000 0.000000 1.000000
vn 0.000000 0.000000 1.000000
vn 0.000000 0.000000 1.000000
vn 0.000000 0.000000 1.000000
vn 0.569269 -0.146555 0.808983
vn 0.569269 -0.146555 0.808983
vn 0.569269 -0.146555 0.808983
vn 0.999788 -0.014387 0.014713
vn 0.999788 -0.014387 0.014713
vn 0.999788 -0.014387 0.014713
vn 0.999788 -0.014387 0.014713
vn 0.986900 0.000000 0.161332
vn 0.986900 0.000000 0.161332
vn 0.986900 0.000000 0.161332
vn 0.000000 0.000000 1.000000
vn 0.000000 0.000000 1.000000
vn 0.000000 0.000000 1.000000
vn 0.000000 0.000000 1.000000
vn -1.000000 0.000000 -0.000002
vn -1.000000 0.000000 -0.000002
vn -1.000000 0.000000 -0.000002
vn -1.000000 0.000000 -0.000002
vn 1.000000 0.000000 0.000000
vn 1.000000 0.000000 0.000000
vn 1.000000 0.000000 0.000000
vn 1.000000 0.000000 0.000000
s off
f 5/1/1 1/2/2 2/3/3 4/4/4
f 6/5/5 3/6/6 1/2/7 5/1/8
f 4/4/9 2/3/10 8/7/11 7/8/12
f 28/9/13 94/10/14 92/11/15 27/12/16
f 22/13/17 23/14/18 24/15/19 18/16/20
f 22/13/21 18/16/22 93/17/23
f 16/18/24 15/19/25 23/14/26 22/13/27
f 9/20/28 10/21/29 18/16/30 24/15/31
f 26/22/32 25/23/33 20/24/34 21/25/35
f 20/24/36 17/26/37 30/27/38 29/28/39
f 17/26/40 19/29/41 31/30/42 30/27/43
f 21/25/44 20/24/45 29/28/46 32/31/47
f 22/13/48 25/23/49 71/32/50 73/33/51
f 25/23/52 26/22/53 74/34/54 71/32/55
f 16/18/56 22/13/57 11/35/58 12/36/59
f 28/9/60 27/12/61 35/37/62 36/38/63
f 27/12/64 18/16/65 13/39/66 35/37/67
f 18/16/68 10/21/69 14/40/70 13/39/71
f 37/41/72 38/42/73 29/28/74 30/27/75
f 38/42/76 11/35/77 33/43/78 29/28/79
f 29/28/80 33/43/81 34/44/82 32/31/83
f 31/30/84 86/45/85 84/46/86 30/27/87
f 13/39/88 85/47/89 83/48/90 35/37/91
f 9/20/92 24/15/93 23/14/94 15/19/95
f 94/10/96 93/17/97 92/11/98
f 22/13/99 20/24/100 25/23/101
f 43/49/102 45/50/103 54/51/104 53/52/105
f 48/53/106 44/54/107 50/55/108 49/56/109
f 48/53/110 46/57/111 43/49/112 44/54/113
f 42/58/114 48/53/115 49/56/116 41/59/117
f 39/60/118 50/55/119 44/54/120 40/61/121
f 52/62/122 47/63/123 46/57/124 51/64/125
f 46/57/126 55/65/127 56/66/128 43/49/129
f 43/49/130 56/66/131 57/67/132 45/50/133
f 47/63/134 58/68/135 55/65/136 46/57/137
f 48/53/138 11/35/139 59/69/140 51/64/141
f 51/64/142 59/69/143 60/70/144 52/62/145
f 42/58/146 12/36/147 11/35/148 48/53/149
f 54/51/150 89/71/151 87/72/152 53/52/153
f 44/54/154 90/73/155 13/39/156
f 44/54/157 13/39/158 14/40/159 40/61/160
f 37/41/161 56/66/162 55/65/163 38/42/164
f 38/42/165 55/65/166 59/69/167 11/35/168
f 55/65/169 58/68/170 60/70/171 59/69/172
f 57/67/173 56/66/174 61/74/175 62/75/176
f 56/66/177 37/41/178 13/39/179 61/74/180
f 39/60/181 41/59/182 49/56/183 50/55/184
f 43/49/185 53/52/186 44/54/187
f 48/53/188 51/64/189 46/57/190
f 67/76/191 78/77/192 75/78/193 66/79/194
f 68/80/195 65/81/196 82/82/197
f 70/83/198 77/84/199 76/85/200 64/86/201
f 71/32/202 74/34/203 73/33/204
f 74/34/205 34/44/206 33/43/207 72/87/208
f 73/33/209 74/34/210 72/87/211
f 22/13/212 73/33/213 11/35/214
f 11/35/215 73/33/216 72/87/217 33/43/218
f 74/34/219 26/22/220 34/44/221
f 75/78/222 78/77/223 77/84/224
f 77/84/225 78/77/226 76/85/227
f 80/88/228 82/82/229 81/89/230
f 81/89/231 82/82/232 79/90/233
f 82/82/234 65/81/235 63/91/236 79/90/237
f 68/80/238 82/82/239 80/88/240 67/76/241
f 78/77/242 81/89/243 64/86/244 76/85/245
f 67/76/246 80/88/247 81/89/248 78/77/249
f 64/86/250 81/89/251 79/90/252 63/91/253
f 66/79/254 75/78/255 77/84/256 69/92/257
f 69/92/258 77/84/259 70/83/260
f 86/45/261 85/47/262 84/46/263
f 83/48/264 85/47/265 86/45/266
f 30/27/267 84/46/268 85/47/269 37/41/270
f 37/41/271 85/47/272 13/39/273
f 86/45/274 36/38/275 35/37/276 83/48/277
f 31/30/278 36/38/279 86/45/280
f 90/73/281 89/71/282 88/93/283
f 87/72/284 89/71/285 90/73/286
f 89/71/287 62/75/288 61/74/289 88/93/290
f 54/51/291 62/75/292 89/71/293
f 53/52/294 87/72/295 90/73/296 44/54/297
f 13/39/298 90/73/299 88/93/300 61/74/301
f 17/26/302 93/17/303 91/94/304
f 92/11/305 93/17/306 18/16/307 27/12/308
f 91/94/309 93/17/310 94/10/311
f 17/26/312 91/94/313 94/10/314 19/29/315
f 19/29/316 94/10/317 28/9/318
f 22/13/319 93/17/320 17/26/321 20/24/322
f 9/20/323 15/19/324 16/18/325 10/21/326
f 41/59/327 39/60/328 40/61/329 42/58/330
v 486.033722 14.507024 2.913940
v 13.966461 14.507024 2.913940
v 486.033722 285.192291 2.913940
v 13.966461 285.192291 2.913940
vt 0.049354 0.180946
vt 0.049333 0.180407
vt 0.050331 0.180406
vt 0.050333 0.180945
vn 0.000000 0.000000 1.000000
vn 0.000000 0.000000 1.000000
vn 0.000000 0.000000 1.000000
vn 0.000000 0.000000 1.000000
s off
f 95/95/331 97/96/332 98/97/333 96/98/334
