# This file uses centimeters as units for non-parametric coordinates.

v -18.549072 19.398438 18.549316
v -18.549072 300.000092 18.549316
v -19.559326 21.685183 19.559326
v -19.559326 297.713379 19.559326
v -21.410156 13.978336 21.410034
v -21.410156 -0.000001 21.410034
v -21.410156 -0.000001 0.000000
v -18.549072 300.000092 0.000000
v -19.559326 297.713379 0.000000
v -19.559326 21.685183 0.000000
v -18.549072 19.398438 0.000000
v -21.410156 13.978336 0.000000
v 0.000244 19.398438 0.000000
v 0.000244 21.685183 0.000000
v 0.000244 297.713379 0.000000
v 0.000244 300.654175 0.000000
v 0.000244 300.000092 18.549316
v 0.000244 297.713379 19.559326
v 0.000244 21.685183 19.559326
v 0.000244 19.398438 18.549316
v 0.000244 13.978336 21.410034
v 0.000244 -0.000001 21.410034
v 0.000244 -0.000001 0.000000
v 0.000244 13.978336 0.000000
vt 0.010953 0.755932
vt 0.010942 0.755912
vt 0.010865 0.756800
vt 0.010873 0.756836
vt 0.010861 0.756806
vt 0.010868 0.756840
vt 0.010949 0.755922
vt 0.010939 0.755903
vt 0.010870 0.756821
vt 0.010878 0.756861
vt 0.010866 0.756860
vt 0.010874 0.756900
vt 0.010801 0.756798
vt 0.010800 0.756805
vt 0.010867 0.755911
vt 0.010868 0.755900
vt 0.010876 0.755931
vt 0.010876 0.755921
vt 0.010807 0.756834
vt 0.010806 0.756839
vt 0.010806 0.756859
vt 0.010803 0.756898
vt 0.010797 0.756858
vt 0.010799 0.756820
vt 0.124541 0.990773
vt 0.100316 0.990773
vt 0.100316 0.762267
vt 0.124541 0.762267
vt 0.100316 0.990773
vt 0.124541 0.990773
vt 0.124541 0.762267
vt 0.100316 0.762267
vn -1.000000 0.000000 0.000000
vn -1.000000 0.000000 0.000000
vn -1.000000 0.000000 0.000000
vn -1.000000 0.000000 0.000000
vn -0.914712 -0.404107 0.000000
vn -0.914712 -0.404107 0.000000
vn -0.914712 -0.404107 0.000000
vn -0.914712 -0.404107 0.000000
vn -0.914709 0.404112 0.000000
vn -0.914709 0.404112 0.000000
vn -0.914709 0.404112 0.000000
vn -0.914709 0.404112 0.000000
vn -0.884353 0.466819 0.000000
vn -0.884353 0.466819 0.000000
vn -0.884353 0.466819 0.000000
vn -0.884353 0.466819 0.000000
vn -1.000000 0.000000 0.000000
vn -1.000000 0.000000 0.000000
vn -1.000000 0.000000 0.000000
vn -1.000000 0.000000 0.000000
vn 0.000000 0.000000 -1.000000
vn 0.000000 0.000000 -1.000000
vn 0.000000 0.000000 -1.000000
vn 0.000000 0.000000 -1.000000
vn 0.000000 0.000000 -1.000000
vn 0.000000 0.000000 -1.000000
vn 0.000000 0.000000 -1.000000
vn 0.000000 0.000000 -1.000000
vn 0.000000 0.000000 -1.000000
vn 0.000000 0.000000 -1.000000
vn 0.000000 0.000000 -1.000000
vn 0.000000 0.000000 -1.000000
vn -0.035240 0.999379 0.000000
vn -0.035240 0.999379 0.000000
vn -0.035240 0.999379 0.000000
vn 0.000000 0.404033 0.914745
vn 0.000000 0.404033 0.914745
vn 0.000000 0.404033 0.914745
vn 0.000000 0.404033 0.914745
vn 0.000000 0.000000 1.000000
vn 0.000000 0.000000 1.000000
vn 0.000000 0.000000 1.000000
vn 0.000000 0.000000 1.000000
vn 0.000000 -0.404026 0.914748
vn 0.000000 -0.404026 0.914748
vn 0.000000 -0.404026 0.914748
vn 0.000000 -0.404026 0.914748
vn 0.000000 0.466772 0.884377
vn 0.000000 0.466772 0.884377
vn 0.000000 0.466772 0.884378
vn 0.000000 0.466772 0.884378
vn 0.000000 0.000000 1.000000
vn 0.000000 0.000000 1.000000
vn 0.000000 0.000000 1.000000
vn 0.000000 0.000000 1.000000
vn 0.000000 -1.000000 0.000000
vn 0.000000 -1.000000 0.000000
vn 0.000000 -1.000000 0.000000
vn 0.000000 -1.000000 0.000000
vn 0.000000 0.000000 -1.000000
vn 0.000000 0.000000 -1.000000
vn 0.000000 0.000000 -1.000000
vn 0.000000 0.000000 -1.000000
vn 0.000000 0.000000 -1.000000
vn 0.000000 0.000000 -1.000000
vn 0.000000 0.000000 -1.000000
vn 0.000000 0.000000 -1.000000
vn 1.000000 0.000000 0.000000
vn 1.000000 0.000000 0.000000
vn 1.000000 0.000000 0.000000
vn 1.000000 0.000000 0.000000
vn 1.000000 0.000000 0.000000
vn 1.000000 0.000000 0.000000
vn 1.000000 0.000000 0.000000
vn 1.000000 0.000000 0.000000
vn 1.000000 0.000000 0.000000
vn 1.000000 0.000000 0.000000
vn 1.000000 0.000000 0.000000
vn 1.000000 0.000000 0.000000
vn 1.000000 0.000000 0.000000
vn 1.000000 0.000000 0.000000
vn 1.000000 0.000000 0.000000
vn 1.000000 0.000000 0.000000
vn 1.000000 0.000000 0.000000
vn 1.000000 0.000000 0.000000
vn 1.000000 0.000000 0.000000
vn 1.000000 0.000000 0.000000
vn 0.000000 0.999379 0.035243
vn 0.000000 0.999379 0.035243
vn 0.000000 0.999379 0.035243
s off
f 4/29/1 9/30/2 10/31/3 3/32/4
f 10/3/5 11/5/6 1/6/7 3/4/8
f 2/7/9 8/8/10 9/2/11 4/1/12
f 1/6/13 11/5/14 12/9/15 5/10/16
f 5/10/17 12/9/18 7/11/19 6/12/20
f 14/13/21 13/14/22 11/5/23 10/3/24
f 14/13/25 10/3/26 9/2/27 15/15/28
f 16/16/29 15/15/30 9/2/31 8/8/32
f 2/7/33 16/16/34 8/8/35
f 18/17/36 17/18/37 2/7/38 4/1/39
f 18/25/40 4/26/41 3/27/42 19/28/43
f 1/6/44 20/20/45 19/19/46 3/4/47
f 21/21/48 20/20/49 1/6/50 5/10/51
f 22/22/52 21/21/53 5/10/54 6/12/55
f 7/11/56 23/23/57 22/22/58 6/12/59
f 24/24/60 23/23/61 7/11/62 12/9/63
f 13/14/64 24/24/65 12/9/66 11/5/67
f 18/17/68 15/15/69 16/16/70 17/18/71
f 18/17/72 19/19/73 14/13/74 15/15/75
f 14/13/76 19/19/77 20/20/78 13/14/79
f 13/14/80 20/20/81 21/21/82 24/24/83
f 24/24/84 21/21/85 22/22/86 23/23/87
f 2/7/88 17/18/89 16/16/90
