# This file uses centimeters as units for non-parametric coordinates.

v 5.765137 284.680664 5.551013
v 11.948242 284.680664 5.551013
v 5.765137 284.680664 14.470202
v 11.948242 284.680664 14.470202
v 5.765137 292.942017 14.470202
v 11.948242 292.942017 14.470202
v 5.765137 292.942017 5.551013
v 11.948242 292.942017 5.551013
v 4.683105 288.811340 15.905474
v 13.030273 294.387756 10.369421
v 8.856689 294.387756 5.550997
v 4.683105 294.387756 10.369421
v 13.030273 288.811340 5.550997
v 4.683105 288.811340 5.550997
v 8.856689 283.234924 5.550997
v 13.030273 283.234924 10.369421
v 8.856689 283.234924 15.905474
v 4.683105 283.234924 10.369421
v 13.030273 288.811340 15.905474
v 8.856689 294.387756 15.905474
v 8.856689 281.376099 10.369421
v 8.856689 288.811340 17.750826
v 8.856689 296.246582 10.369421
v 14.421631 288.811340 10.369421
v 3.291748 288.811340 10.369421
v 8.856689 288.811340 5.551004
v 10.361084 294.409851 7.884846
v 7.352295 294.409851 7.884846
v 5.847900 292.244324 6.435585
v 7.352295 290.078796 4.986340
v 10.361084 290.078796 4.986340
v 11.865479 292.244324 6.435585
v 10.361084 45.583862 379.693420
v 7.352295 45.583862 379.693420
v 5.847900 43.418335 378.244141
v 7.352295 41.252869 376.794861
v 10.361084 41.252869 376.794861
v 11.865479 43.418335 378.244141
v 8.856689 43.418335 378.244171
v 8.856689 292.244324 6.435591
v 11.670898 48.214905 375.058990
v 2.415527 44.710327 374.660095
v -0.812988 34.572815 375.719971
v 6.945801 28.649170 377.387756
v 16.140381 31.268188 377.572205
v 18.972656 40.331116 376.237244
v 11.023438 48.310669 381.049469
v 1.363281 45.941345 381.671143
v -0.930420 36.217834 382.499451
v 6.771729 29.231934 382.143494
v 14.835449 32.100769 382.866669
v 17.646729 41.363464 382.123413
v 8.749268 38.985474 387.310150
v 8.749268 37.504456 370.381836
v 14.723145 9.019958 6.141724
v 8.856689 12.393982 5.846531
v 2.990234 9.019958 6.141723
v 2.990234 2.271790 6.732108
v 8.856689 -1.102234 7.027301
v 14.723145 2.271790 6.732108
v 14.723145 42.602844 389.996033
v 8.856689 45.976868 389.700867
v 2.990234 42.602844 389.995972
v 2.990234 35.854675 390.586365
v 8.856689 32.480652 390.881531
v 14.723145 35.854675 390.586365
v 12.223877 41.485168 393.776611
v 8.856689 43.421814 393.607178
v 5.489502 41.485168 393.776550
v 5.489502 37.611877 394.115417
v 8.856689 35.675232 394.284851
v 12.223877 37.611877 394.115417
vt 0.058347 0.370180
vt 0.058077 0.370149
vt 0.058001 0.369889
vt 0.058368 0.369931
vt 0.057923 0.370065
vt 0.057790 0.369780
vt 0.057918 0.369523
vt 0.058073 0.369512
vt 0.058348 0.369630
vt 0.058292 0.369303
vt 0.058584 0.369487
vt 0.058006 0.369348
vt 0.058238 0.369385
vt 0.058503 0.369325
vt 0.058663 0.369487
vt 0.058570 0.369627
vt 0.058790 0.369730
vt 0.058220 0.369589
vt 0.058239 0.369916
vt 0.058500 0.369945
vt 0.058659 0.370026
vt 0.058010 0.369970
vt 0.057915 0.369659
vt 0.058580 0.370122
vt 0.058681 0.369854
vt 0.058292 0.370045
vt 0.060516 0.377074
vt 0.060526 0.377075
vt 0.059549 0.377024
vt 0.059541 0.377023
vt 0.060529 0.377088
vt 0.059552 0.377038
vt 0.060523 0.377100
vt 0.059547 0.377052
vt 0.060514 0.377099
vt 0.059539 0.377051
vt 0.060510 0.377086
vt 0.059536 0.377036
vt 0.059534 0.377037
vt 0.060520 0.377087
vt 0.060088 0.377645
vt 0.060075 0.378057
vt 0.059693 0.378019
vt 0.059769 0.377649
vt 0.060012 0.378608
vt 0.059649 0.378527
vt 0.059961 0.378645
vt 0.059713 0.378617
vt 0.059987 0.378278
vt 0.059711 0.378269
vt 0.060060 0.377809
vt 0.059751 0.377788
vt 0.059439 0.378140
vt 0.060329 0.378191
vt 0.103611 0.227012
vt 0.103620 0.227014
vt 0.102644 0.226962
vt 0.102636 0.226961
vt 0.103624 0.227027
vt 0.102646 0.226977
vt 0.103618 0.227039
vt 0.102641 0.226991
vt 0.103609 0.227037
vt 0.102634 0.226989
vt 0.103605 0.227024
vt 0.102631 0.226975
vt 0.102627 0.226967
vt 0.102631 0.226968
vt 0.102633 0.226976
vt 0.102624 0.226975
vt 0.102630 0.226984
vt 0.102625 0.226983
vn -0.389728 -0.856829 -0.337574
vn -0.389728 -0.856829 -0.337574
vn -0.389728 -0.856829 -0.337574
vn -0.389728 -0.856829 -0.337574
vn 0.389728 -0.856829 -0.337574
vn 0.389728 -0.856829 -0.337574
vn 0.389728 -0.856829 -0.337574
vn 0.389728 -0.856829 -0.337574
vn 0.444144 -0.831035 0.334839
vn 0.444144 -0.831035 0.334839
vn 0.444144 -0.831035 0.334839
vn 0.444144 -0.831035 0.334839
vn -0.444144 -0.831035 0.334839
vn -0.444144 -0.831035 0.334839
vn -0.444144 -0.831035 0.334839
vn -0.444144 -0.831035 0.334839
vn -0.442269 -0.331011 0.833564
vn -0.442269 -0.331011 0.833564
vn -0.442269 -0.331011 0.833564
vn -0.442269 -0.331011 0.833564
vn 0.442269 -0.331011 0.833564
vn 0.442269 -0.331011 0.833564
vn 0.442269 -0.331011 0.833564
vn 0.442269 -0.331011 0.833564
vn 0.442269 0.331011 0.833564
vn 0.442269 0.331011 0.833564
vn 0.442269 0.331011 0.833564
vn 0.442269 0.331011 0.833564
vn -0.442269 0.331011 0.833564
vn -0.442269 0.331011 0.833564
vn -0.442269 0.331011 0.833564
vn -0.442269 0.331011 0.833564
vn -0.444144 0.831035 0.334839
vn -0.444144 0.831035 0.334839
vn -0.444144 0.831035 0.334839
vn -0.444144 0.831035 0.334839
vn 0.444144 0.831035 0.334839
vn 0.444144 0.831035 0.334839
vn 0.444144 0.831035 0.334839
vn 0.444144 0.831035 0.334839
vn 0.389728 0.856829 -0.337574
vn 0.389728 0.856829 -0.337574
vn 0.389728 0.856829 -0.337574
vn 0.389728 0.856829 -0.337574
vn -0.389728 0.856829 -0.337574
vn -0.389728 0.856829 -0.337574
vn -0.389728 0.856829 -0.337574
vn -0.389728 0.856829 -0.337574
vn 0.931749 -0.237399 -0.274746
vn 0.931749 -0.237399 -0.274746
vn 0.931749 -0.237399 -0.274746
vn 0.931749 -0.237399 -0.274746
vn 0.931749 0.237399 -0.274746
vn 0.931749 0.237399 -0.274746
vn 0.931749 0.237399 -0.274746
vn 0.931749 0.237399 -0.274746
vn 0.920354 0.275532 0.277542
vn 0.920354 0.275532 0.277542
vn 0.920354 0.275532 0.277542
vn 0.920354 0.275532 0.277542
vn 0.920354 -0.275532 0.277542
vn 0.920354 -0.275532 0.277542
vn 0.920354 -0.275532 0.277542
vn 0.920354 -0.275532 0.277542
vn -0.931749 0.237399 -0.274746
vn -0.931749 0.237399 -0.274746
vn -0.931749 0.237399 -0.274746
vn -0.931749 0.237399 -0.274746
vn -0.931749 -0.237399 -0.274746
vn -0.931749 -0.237399 -0.274746
vn -0.931749 -0.237399 -0.274746
vn -0.931749 -0.237399 -0.274746
vn -0.920354 -0.275532 0.277542
vn -0.920354 -0.275532 0.277542
vn -0.920354 -0.275532 0.277542
vn -0.920354 -0.275532 0.277542
vn -0.920354 0.275532 0.277542
vn -0.920354 0.275532 0.277542
vn -0.920354 0.275532 0.277542
vn -0.920354 0.275532 0.277542
vn -0.000004 0.000001 -1.000000
vn -0.000004 0.000001 -1.000000
vn -0.000004 0.000001 -1.000000
vn 0.000004 0.000001 -1.000000
vn 0.000004 0.000001 -1.000000
vn 0.000004 0.000001 -1.000000
vn -0.000004 -0.000001 -1.000000
vn -0.000004 -0.000001 -1.000000
vn -0.000004 -0.000001 -1.000000
vn 0.000004 -0.000001 -1.000000
vn 0.000004 -0.000001 -1.000000
vn 0.000004 -0.000001 -1.000000
vn 0.000002 0.000003 -1.000000
vn 0.000002 0.000003 -1.000000
vn 0.000002 0.000003 -1.000000
vn 0.000002 -0.000003 -1.000000
vn 0.000002 -0.000003 -1.000000
vn 0.000002 -0.000003 -1.000000
vn -0.000002 0.000003 -1.000000
vn -0.000002 0.000003 -1.000000
vn -0.000002 0.000003 -1.000000
vn -0.000002 -0.000003 -1.000000
vn -0.000002 -0.000003 -1.000000
vn -0.000002 -0.000003 -1.000000
vn 0.000000 0.831065 0.556175
vn 0.000000 0.831065 0.556175
vn 0.000000 0.831065 0.556175
vn 0.000000 0.831065 0.556175
vn -0.866025 0.415533 0.278088
vn -0.866025 0.415533 0.278088
vn -0.866025 0.415533 0.278088
vn -0.866025 0.415533 0.278088
vn -0.866025 -0.415533 -0.278087
vn -0.866025 -0.415533 -0.278087
vn -0.866025 -0.415533 -0.278087
vn -0.866025 -0.415533 -0.278087
vn -0.000000 -0.831065 -0.556175
vn -0.000000 -0.831065 -0.556175
vn -0.000000 -0.831065 -0.556175
vn -0.000000 -0.831065 -0.556175
vn 0.866025 -0.415533 -0.278087
vn 0.866025 -0.415533 -0.278087
vn 0.866025 -0.415533 -0.278087
vn 0.866025 -0.415533 -0.278087
vn 0.866025 0.415533 0.278087
vn 0.866025 0.415533 0.278087
vn 0.866025 0.415533 0.278087
vn 0.866025 0.415533 0.278087
vn -0.000000 -0.556184 0.831059
vn -0.000000 -0.556184 0.831059
vn -0.000000 -0.556184 0.831059
vn -0.000024 -0.556193 0.831053
vn -0.000024 -0.556193 0.831053
vn -0.000024 -0.556193 0.831053
vn -0.000024 -0.556175 0.831065
vn -0.000024 -0.556175 0.831065
vn -0.000024 -0.556175 0.831065
vn -0.000000 -0.556193 0.831053
vn -0.000000 -0.556193 0.831053
vn -0.000000 -0.556193 0.831053
vn 0.000024 -0.556211 0.831041
vn 0.000024 -0.556211 0.831041
vn 0.000024 -0.556211 0.831041
vn 0.000024 -0.556157 0.831077
vn 0.000024 -0.556157 0.831077
vn 0.000024 -0.556157 0.831077
vn -0.000001 0.556179 -0.831062
vn -0.000001 0.556179 -0.831062
vn 0.000000 0.556175 -0.831065
vn -0.000002 0.556177 -0.831064
vn -0.000002 0.556177 -0.831064
vn 0.000000 0.556175 -0.831065
vn 0.000000 0.556178 -0.831063
vn 0.000000 0.556178 -0.831063
vn 0.000000 0.556175 -0.831065
vn 0.000002 0.556177 -0.831064
vn 0.000002 0.556177 -0.831064
vn 0.000000 0.556175 -0.831065
vn 0.000001 0.556180 -0.831062
vn 0.000001 0.556179 -0.831062
vn 0.000000 0.556175 -0.831065
vn 0.000000 0.556179 -0.831063
vn 0.000000 0.556179 -0.831063
vn 0.000000 0.556175 -0.831065
vn -0.034881 0.991372 -0.126349
vn -0.034881 0.991372 -0.126349
vn -0.034881 0.991372 -0.126349
vn -0.034881 0.991372 -0.126349
vn -0.859149 0.504167 -0.087627
vn -0.859149 0.504167 -0.087627
vn -0.859149 0.504167 -0.087627
vn -0.859149 0.504167 -0.087627
vn -0.815093 -0.554834 0.166683
vn -0.815093 -0.554834 0.166683
vn -0.815093 -0.554834 0.166683
vn -0.815093 -0.554834 0.166683
vn 0.033102 -0.985473 0.166573
vn 0.033102 -0.985473 0.166573
vn 0.033102 -0.985473 0.166573
vn 0.033102 -0.985473 0.166573
vn 0.838099 -0.500731 0.216469
vn 0.838099 -0.500731 0.216469
vn 0.838099 -0.500731 0.216469
vn 0.838099 -0.500731 0.216469
vn 0.884617 0.466107 0.014066
vn 0.884617 0.466107 0.014066
vn 0.884617 0.466107 0.014066
vn 0.884617 0.466107 0.014066
vn 0.111091 0.567903 0.815564
vn 0.111091 0.567903 0.815564
vn 0.111091 0.567903 0.815564
vn -0.387886 0.312288 0.867191
vn -0.387886 0.312288 0.867191
vn -0.387886 0.312288 0.867191
vn -0.381935 -0.307339 0.871589
vn -0.381935 -0.307339 0.871589
vn -0.381935 -0.307339 0.871589
vn 0.002557 -0.490742 0.871301
vn 0.002557 -0.490742 0.871301
vn 0.002557 -0.490742 0.871301
vn 0.497466 -0.218048 0.839632
vn 0.497466 -0.218048 0.839632
vn 0.497466 -0.218048 0.839632
vn 0.488244 0.335942 0.805457
vn 0.488244 0.335942 0.805457
vn 0.488244 0.335942 0.805457
vn 0.458386 0.158083 -0.874581
vn 0.458386 0.158083 -0.874581
vn 0.458386 0.158083 -0.874581
vn 0.419642 -0.423542 -0.802815
vn 0.419642 -0.423542 -0.802815
vn 0.419642 -0.423542 -0.802815
vn -0.020790 -0.659028 -0.751831
vn -0.020790 -0.659028 -0.751831
vn -0.020790 -0.659028 -0.751831
vn -0.427635 -0.456545 -0.780189
vn -0.427635 -0.456545 -0.780189
vn -0.427635 -0.456545 -0.780189
vn -0.482481 0.190551 -0.854928
vn -0.482481 0.190551 -0.854928
vn -0.482481 0.190551 -0.854928
vn -0.047095 0.444058 -0.894759
vn -0.047095 0.444058 -0.894759
vn -0.047095 0.444058 -0.894759
vn 0.500000 0.862730 -0.075479
vn 0.500000 0.862730 -0.075479
vn 0.500000 0.862730 -0.075479
vn 0.500000 0.862730 -0.075479
vn -0.500000 0.862730 -0.075479
vn -0.500000 0.862730 -0.075479
vn -0.500000 0.862730 -0.075479
vn -0.500000 0.862730 -0.075479
vn -1.000000 0.000000 -0.000000
vn -1.000000 0.000000 -0.000000
vn -1.000000 0.000000 -0.000000
vn -1.000000 0.000000 -0.000000
vn -0.500000 -0.862730 0.075479
vn -0.500000 -0.862730 0.075479
vn -0.500000 -0.862730 0.075479
vn -0.500000 -0.862730 0.075479
vn 0.500000 -0.862730 0.075479
vn 0.500000 -0.862730 0.075479
vn 0.500000 -0.862730 0.075479
vn 0.500000 -0.862730 0.075479
vn 1.000000 -0.000000 0.000000
vn 1.000000 -0.000000 0.000000
vn 1.000000 -0.000000 0.000000
vn 1.000000 -0.000000 0.000000
vn 0.000000 -0.087156 -0.996195
vn 0.000000 -0.087156 -0.996195
vn 0.000000 -0.087156 -0.996195
vn 0.000000 -0.087156 -0.996195
vn 0.000000 -0.087156 -0.996195
vn 0.000000 -0.087156 -0.996195
vn -0.000011 0.087138 0.996196
vn -0.000011 0.087138 0.996196
vn -0.000011 0.087138 0.996196
vn -0.000011 0.087138 0.996196
vn 0.413233 0.762083 0.498466
vn 0.413233 0.762083 0.498466
vn 0.413233 0.762083 0.498466
vn 0.413233 0.762083 0.498466
vn -0.413240 0.762080 0.498465
vn -0.413240 0.762080 0.498465
vn -0.413240 0.762080 0.498465
vn -0.413240 0.762080 0.498465
vn -0.826465 0.049068 0.560845
vn -0.826465 0.049068 0.560845
vn -0.826465 0.049068 0.560845
vn -0.826465 0.049068 0.560845
vn -0.413232 -0.663948 0.623228
vn -0.413232 -0.663948 0.623228
vn -0.413232 -0.663948 0.623228
vn -0.413232 -0.663948 0.623228
vn 0.413233 -0.663949 0.623226
vn 0.413233 -0.663949 0.623226
vn 0.413233 -0.663949 0.623226
vn 0.413233 -0.663949 0.623226
vn 0.826466 0.049063 0.560845
vn 0.826466 0.049063 0.560845
vn 0.826466 0.049063 0.560845
vn 0.826466 0.049063 0.560845
vn 0.000000 0.087156 0.996195
vn 0.000000 0.087156 0.996195
vn 0.000000 0.087156 0.996195
vn 0.000000 0.087156 0.996195
s off
f 1/1/1 15/2/2 21/3/3 18/4/4
f 15/2/5 2/5/6 16/6/7 21/3/8
f 21/3/9 16/6/10 4/7/11 17/8/12
f 18/4/13 21/3/14 17/8/15 3/9/16
f 3/9/17 17/8/18 22/10/19 9/11/20
f 17/8/21 4/7/22 19/12/23 22/10/24
f 22/10/25 19/12/26 6/13/27 20/14/28
f 9/11/29 22/10/30 20/14/31 5/15/32
f 5/15/33 20/14/34 23/16/35 12/17/36
f 20/14/37 6/13/38 10/18/39 23/16/40
f 23/16/41 10/18/42 8/19/43 11/20/44
f 12/17/45 23/16/46 11/20/47 7/21/48
f 2/5/49 13/22/50 24/23/51 16/6/52
f 13/22/53 8/19/54 10/18/55 24/23/56
f 24/23/57 10/18/58 6/13/59 19/12/60
f 16/6/61 24/23/62 19/12/63 4/7/64
f 7/21/65 14/24/66 25/25/67 12/17/68
f 14/24/69 1/1/70 18/4/71 25/25/72
f 25/25/73 18/4/74 3/9/75 9/11/76
f 12/17/77 25/25/78 9/11/79 5/15/80
f 15/2/81 1/1/82 26/26/83
f 2/5/84 15/2/85 26/26/86
f 7/21/87 11/20/88 26/26/89
f 11/20/90 8/19/91 26/26/92
f 14/24/93 7/21/94 26/26/95
f 1/1/96 14/24/97 26/26/98
f 8/19/99 13/22/100 26/26/101
f 13/22/102 2/5/103 26/26/104
f 27/27/105 28/28/106 34/29/107 33/30/108
f 28/28/109 29/31/110 35/32/111 34/29/112
f 29/31/113 30/33/114 36/34/115 35/32/116
f 30/33/117 31/35/118 37/36/119 36/34/120
f 31/35/121 32/37/122 38/38/123 37/36/124
f 32/37/125 27/27/126 33/30/127 38/38/128
f 33/30/129 34/29/130 39/39/131
f 34/29/132 35/32/133 39/39/134
f 35/32/135 36/34/136 39/39/137
f 36/34/138 37/36/139 39/39/140
f 37/36/141 38/38/142 39/39/143
f 38/38/144 33/30/145 39/39/146
f 27/27/147 32/37/148 40/40/149
f 32/37/150 31/35/151 40/40/152
f 31/35/153 30/33/154 40/40/155
f 30/33/156 29/31/157 40/40/158
f 29/31/159 28/28/160 40/40/161
f 28/28/162 27/27/163 40/40/164
f 41/41/165 42/42/166 48/43/167 47/44/168
f 42/42/169 43/45/170 49/46/171 48/43/172
f 43/45/173 44/47/174 50/48/175 49/46/176
f 44/47/177 45/49/178 51/50/179 50/48/180
f 45/49/181 46/51/182 52/52/183 51/50/184
f 46/51/185 41/41/186 47/44/187 52/52/188
f 47/44/189 48/43/190 53/53/191
f 48/43/192 49/46/193 53/53/194
f 49/46/195 50/48/196 53/53/197
f 50/48/198 51/50/199 53/53/200
f 51/50/201 52/52/202 53/53/203
f 52/52/204 47/44/205 53/53/206
f 41/41/207 46/51/208 54/54/209
f 46/51/210 45/49/211 54/54/212
f 45/49/213 44/47/214 54/54/215
f 44/47/216 43/45/217 54/54/218
f 43/45/219 42/42/220 54/54/221
f 42/42/222 41/41/223 54/54/224
f 55/55/225 56/56/226 62/57/227 61/58/228
f 56/56/229 57/59/230 63/60/231 62/57/232
f 57/59/233 58/61/234 64/62/235 63/60/236
f 58/61/237 59/63/238 65/64/239 64/62/240
f 59/63/241 60/65/242 66/66/243 65/64/244
f 60/65/245 55/55/246 61/58/247 66/66/248
f 55/55/249 60/65/250 59/63/251 58/61/252 57/59/253 56/56/254
f 67/67/255 68/68/256 69/69/257 72/70/258
f 61/58/259 62/57/260 68/68/261 67/67/262
f 62/57/263 63/60/264 69/69/265 68/68/266
f 63/60/267 64/62/268 70/71/269 69/69/270
f 64/62/271 65/64/272 71/72/273 70/71/274
f 65/64/275 66/66/276 72/70/277 71/72/278
f 66/66/279 61/58/280 67/67/281 72/70/282
f 72/70/283 69/69/284 70/71/285 71/72/286
