# This file uses centimeters as units for non-parametric coordinates.

v 0.000000 0.000000 130.452637
v 3.990967 0.000000 130.452637
v 0.000000 11.822266 130.452637
v 3.990967 11.822266 130.452637
v 0.000000 11.822266 17.343750
v 3.990967 11.822266 17.343750
v 0.000000 0.000000 17.343750
v 3.990967 0.000000 17.343750
v 0.000000 2.906494 134.866119
v 3.990967 2.906494 134.866119
v 3.990967 8.915710 134.866119
v 0.000000 8.915710 134.866119
v 249.365601 10.920288 120.679657
v 249.365601 0.924133 120.679657
v 249.365601 -4.073975 129.336578
v 249.365601 0.924072 137.993500
v 249.365601 10.920288 137.993500
v 249.365601 15.918335 129.336578
v 2.630127 10.920288 120.679657
v 2.630127 0.924133 120.679657
v 2.630127 -4.073975 129.336578
v 2.630127 0.924072 137.993500
v 2.630127 10.920288 137.993500
v 2.630127 15.918335 129.336578
v 3.990967 14.789185 129.762085
v 248.004639 14.789185 129.762085
v 3.990967 300.777344 21.977997
v 248.004639 300.777344 21.977997
v 3.990967 298.878418 16.939499
v 248.004639 298.878418 16.939499
v 3.990967 12.890320 124.723602
v 248.004639 12.890320 124.723602
v 2.630127 304.577881 8.344482
v 2.630127 295.422363 8.344482
v 2.630127 290.844604 16.273407
v 2.630127 295.422363 24.202332
v 2.630127 304.577881 24.202332
v 2.630127 309.155640 16.273407
v 249.365601 304.577881 8.344482
v 249.365601 295.422363 8.344482
v 249.365601 290.844604 16.273407
v 249.365601 295.422363 24.202332
v 249.365601 304.577881 24.202332
v 249.365601 309.155640 16.273407
v 248.004639 0.112183 129.902710
v 251.995605 0.112183 129.902710
v 248.004639 11.710083 129.902710
v 251.995605 11.710083 129.902710
v 248.004639 11.710083 7.694336
v 251.995605 11.710083 7.694336
v 248.004639 0.112183 7.694336
v 251.995605 0.112183 7.694336
v 248.004639 2.963501 134.316193
v 251.995605 2.963501 134.316193
v 251.995605 8.858704 134.316193
v 248.004639 8.858704 134.316193
v 7.865347 153.784698 74.346764
v 244.130264 161.479111 74.346764
v 244.130249 159.580200 69.308273
v 7.865347 151.885788 69.308273
vt 0.102970 0.280436
vt 0.102935 0.280437
vt 0.102944 0.280420
vt 0.102980 0.280419
vt 0.102980 0.280373
vt 0.102945 0.280374
vt 0.102839 0.279438
vt 0.102873 0.279437
vt 0.102821 0.279479
vt 0.102856 0.279478
vt 0.102926 0.280408
vt 0.102961 0.280407
vt 0.101980 0.280357
vt 0.101980 0.280370
vt 0.102966 0.280334
vt 0.102973 0.280321
vt 0.101982 0.280410
vt 0.102966 0.280374
vt 0.101983 0.280437
vt 0.102973 0.280401
vt 0.101983 0.280425
vt 0.102980 0.280388
vt 0.101982 0.280384
vt 0.102980 0.280348
vt 0.387120 0.443206
vt 0.386598 0.442959
vt 0.386773 0.442206
vt 0.387337 0.442295
vt 0.386782 0.442210
vt 0.387344 0.442298
vt 0.386608 0.442958
vt 0.387129 0.443204
vt 0.101985 0.280357
vt 0.101992 0.280372
vt 0.102978 0.280338
vt 0.102978 0.280322
vt 0.101995 0.280412
vt 0.102979 0.280377
vt 0.101990 0.280437
vt 0.102980 0.280402
vt 0.101983 0.280422
vt 0.102980 0.280386
vt 0.101980 0.280381
vt 0.102979 0.280346
vt 0.102980 0.280436
vt 0.102947 0.280437
vt 0.102947 0.280422
vt 0.102980 0.280420
vt 0.102979 0.280378
vt 0.102946 0.280379
vt 0.102908 0.279438
vt 0.102940 0.279437
vt 0.102909 0.279476
vt 0.102940 0.279475
vt 0.102946 0.280410
vt 0.102979 0.280409
vt 0.387236 0.442719
vt 0.386692 0.442557
vt 0.386701 0.442558
vt 0.387244 0.442720
vn 0.000000 0.000000 1.000000
vn 0.000000 0.000000 1.000000
vn 0.000000 0.000000 1.000000
vn 0.000000 0.000000 1.000000
vn 0.000000 1.000000 0.000000
vn 0.000000 1.000000 0.000000
vn 0.000000 1.000000 0.000000
vn 0.000000 1.000000 0.000000
vn 0.000000 0.000000 -1.000000
vn 0.000000 0.000000 -1.000000
vn 0.000000 0.000000 -1.000000
vn 0.000000 0.000000 -1.000000
vn 0.000000 -1.000000 0.000000
vn 0.000000 -1.000000 0.000000
vn 0.000000 -1.000000 0.000000
vn 0.000000 -1.000000 0.000000
vn 1.000000 0.000000 0.000000
vn 1.000000 0.000000 0.000000
vn 1.000000 0.000000 0.000000
vn 1.000000 0.000000 0.000000
vn -1.000000 0.000000 0.000000
vn -1.000000 0.000000 0.000000
vn -1.000000 0.000000 0.000000
vn -1.000000 0.000000 0.000000
vn 0.000000 -0.835166 0.549998
vn 0.000000 -0.835166 0.549998
vn 0.000000 -0.835166 0.549998
vn 0.000000 -0.835166 0.549998
vn 1.000000 0.000000 0.000000
vn 1.000000 0.000000 0.000000
vn 1.000000 0.000000 0.000000
vn 1.000000 0.000000 0.000000
vn 0.000000 0.835161 0.550006
vn 0.000000 0.835161 0.550006
vn 0.000000 0.835161 0.550006
vn 0.000000 0.835161 0.550006
vn -1.000000 0.000000 0.000000
vn -1.000000 0.000000 0.000000
vn -1.000000 0.000000 0.000000
vn -1.000000 0.000000 0.000000
vn 0.000000 0.000000 -1.000000
vn 0.000000 0.000000 -1.000000
vn 0.000000 0.000000 -1.000000
vn 0.000000 0.000000 -1.000000
vn 0.000000 -0.866024 -0.500002
vn 0.000000 -0.866024 -0.500002
vn 0.000000 -0.866024 -0.500002
vn 0.000000 -0.866024 -0.500002
vn 0.000000 -0.866027 0.499998
vn 0.000000 -0.866027 0.499998
vn 0.000000 -0.866027 0.499998
vn 0.000000 -0.866027 0.499998
vn 0.000000 0.000000 1.000000
vn 0.000000 0.000000 1.000000
vn 0.000000 0.000000 1.000000
vn 0.000000 0.000000 1.000000
vn 0.000000 0.866027 0.499998
vn 0.000000 0.866027 0.499998
vn 0.000000 0.866027 0.499998
vn 0.000000 0.866027 0.499998
vn 0.000000 0.866027 -0.499998
vn 0.000000 0.866027 -0.499998
vn 0.000000 0.866027 -0.499998
vn 0.000000 0.866027 -0.499998
vn 1.000000 0.000000 0.000000
vn 1.000000 0.000000 0.000000
vn 1.000000 0.000000 0.000000
vn 1.000000 0.000000 0.000000
vn 1.000000 0.000000 0.000000
vn 1.000000 0.000000 0.000000
vn -1.000000 0.000000 0.000000
vn -1.000000 0.000000 0.000000
vn -1.000000 0.000000 0.000000
vn -1.000000 0.000000 0.000000
vn -1.000000 0.000000 0.000000
vn -1.000000 0.000000 0.000000
vn -0.005653 0.352838 0.935667
vn -0.005647 0.352486 0.935800
vn -0.005504 0.343568 0.939112
vn -0.005504 0.343568 0.939112
vn 0.000000 0.935750 -0.352665
vn 0.000000 0.935750 -0.352665
vn 0.000000 0.935750 -0.352665
vn 0.000000 0.935750 -0.352665
vn 0.005504 -0.343568 -0.939112
vn 0.005504 -0.343568 -0.939112
vn 0.005647 -0.352486 -0.935800
vn 0.005653 -0.352838 -0.935667
vn 0.000000 -0.935752 0.352659
vn 0.000000 -0.935752 0.352659
vn 0.000000 -0.935752 0.352659
vn 0.000000 -0.935752 0.352659
vn 1.000000 -0.000001 -0.000001
vn 1.000000 -0.000000 -0.000001
vn 0.999661 -0.024355 0.009177
vn 0.999661 -0.024355 0.009177
vn -1.000000 -0.000006 0.000002
vn -1.000000 0.000006 -0.000002
vn -0.999692 -0.023230 0.008755
vn -0.999692 -0.023230 0.008755
vn 0.000000 0.000000 -1.000000
vn 0.000000 0.000000 -1.000000
vn 0.000000 0.000000 -1.000000
vn 0.000000 0.000000 -1.000000
vn 0.000000 -0.866025 -0.500001
vn 0.000000 -0.866025 -0.500001
vn 0.000000 -0.866025 -0.500001
vn 0.000000 -0.866025 -0.500001
vn 0.000000 -0.866025 0.500001
vn 0.000000 -0.866025 0.500001
vn 0.000000 -0.866025 0.500001
vn 0.000000 -0.866025 0.500001
vn 0.000000 0.000000 1.000000
vn 0.000000 0.000000 1.000000
vn 0.000000 0.000000 1.000000
vn 0.000000 0.000000 1.000000
vn 0.000000 0.866025 0.500001
vn 0.000000 0.866025 0.500001
vn 0.000000 0.866025 0.500001
vn 0.000000 0.866025 0.500001
vn 0.000000 0.866025 -0.500001
vn 0.000000 0.866025 -0.500001
vn 0.000000 0.866025 -0.500001
vn 0.000000 0.866025 -0.500001
vn -1.000000 0.000000 0.000000
vn -1.000000 0.000000 0.000000
vn -1.000000 0.000000 0.000000
vn -1.000000 0.000000 0.000000
vn -1.000000 0.000000 0.000000
vn -1.000000 0.000000 0.000000
vn 1.000000 0.000000 0.000000
vn 1.000000 0.000000 0.000000
vn 1.000000 0.000000 0.000000
vn 1.000000 0.000000 0.000000
vn 1.000000 0.000000 0.000000
vn 1.000000 0.000000 0.000000
vn 0.000000 0.000000 1.000000
vn 0.000000 0.000000 1.000000
vn 0.000000 0.000000 1.000000
vn 0.000000 0.000000 1.000000
vn 0.000000 1.000000 0.000000
vn 0.000000 1.000000 0.000000
vn 0.000000 1.000000 0.000000
vn 0.000000 1.000000 0.000000
vn 0.000000 0.000000 -1.000000
vn 0.000000 0.000000 -1.000000
vn 0.000000 0.000000 -1.000000
vn 0.000000 0.000000 -1.000000
vn 0.000000 -1.000000 0.000000
vn 0.000000 -1.000000 0.000000
vn 0.000000 -1.000000 0.000000
vn 0.000000 -1.000000 0.000000
vn 1.000000 0.000000 0.000000
vn 1.000000 0.000000 0.000000
vn 1.000000 0.000000 0.000000
vn 1.000000 0.000000 0.000000
vn -1.000000 0.000000 0.000000
vn -1.000000 0.000000 0.000000
vn -1.000000 0.000000 0.000000
vn -1.000000 0.000000 0.000000
vn 0.000000 -0.839957 0.542653
vn 0.000000 -0.839957 0.542653
vn 0.000000 -0.839957 0.542653
vn 0.000000 -0.839957 0.542653
vn 1.000000 0.000000 0.000000
vn 1.000000 0.000000 0.000000
vn 1.000000 0.000000 0.000000
vn 1.000000 0.000000 0.000000
vn 0.000000 0.839951 0.542661
vn 0.000000 0.839951 0.542661
vn 0.000000 0.839951 0.542661
vn 0.000000 0.839951 0.542661
vn -1.000000 0.000000 0.000000
vn -1.000000 0.000000 0.000000
vn -1.000000 0.000000 0.000000
vn -1.000000 0.000000 0.000000
vn -0.005794 0.361677 0.932285
vn -0.005794 0.361677 0.932286
vn -0.005647 0.352486 0.935800
vn -0.005653 0.352838 0.935667
vn 0.999695 0.023114 -0.008712
vn 0.999695 0.023114 -0.008712
vn 1.000000 -0.000000 -0.000001
vn 1.000000 -0.000001 -0.000001
vn 0.005653 -0.352838 -0.935667
vn 0.005647 -0.352486 -0.935800
vn 0.005794 -0.361677 -0.932285
vn 0.005794 -0.361677 -0.932285
vn -0.999665 0.024225 -0.009130
vn -0.999665 0.024225 -0.009130
vn -1.000000 0.000006 -0.000002
vn -1.000000 -0.000006 0.000002
s off
f 9/1/1 10/2/2 11/3/3 12/4/4
f 3/5/5 4/6/6 6/7/7 5/8/8
f 5/8/9 6/7/10 8/9/11 7/10/12
f 7/10/13 8/9/14 2/11/15 1/12/16
f 2/11/17 8/9/18 6/7/19 4/6/20
f 7/10/21 1/12/22 3/5/23 5/8/24
f 1/12/25 2/11/26 10/2/27 9/1/28
f 2/11/29 4/6/30 11/3/31 10/2/32
f 4/6/33 3/5/34 12/4/35 11/3/36
f 3/5/37 1/12/38 9/1/39 12/4/40
f 13/13/41 14/14/42 20/15/43 19/16/44
f 14/14/45 15/17/46 21/18/47 20/15/48
f 15/17/49 16/19/50 22/20/51 21/18/52
f 16/19/53 17/21/54 23/22/55 22/20/56
f 17/21/57 18/23/58 24/24/59 23/22/60
f 18/23/61 13/13/62 19/16/63 24/24/64
f 13/13/65 18/23/66 17/21/67 16/19/68 15/17/69 14/14/70
f 19/16/71 20/15/72 21/18/73 22/20/74 23/22/75 24/24/76
f 57/57/77 58/58/78 28/27/79 27/28/80
f 27/28/81 28/27/82 30/29/83 29/30/84
f 29/30/85 30/29/86 59/59/87 60/60/88
f 31/32/89 32/31/90 26/26/91 25/25/92
f 58/58/93 59/59/94 30/29/95 28/27/96
f 60/60/97 57/57/98 27/28/99 29/30/100
f 33/33/101 39/36/102 40/35/103 34/34/104
f 34/34/105 40/35/106 41/38/107 35/37/108
f 35/37/109 41/38/110 42/40/111 36/39/112
f 36/39/113 42/40/114 43/42/115 37/41/116
f 37/41/117 43/42/118 44/44/119 38/43/120
f 38/43/121 44/44/122 39/36/123 33/33/124
f 33/33/125 34/34/126 35/37/127 36/39/128 37/41/129 38/43/130
f 39/36/131 44/44/132 43/42/133 42/40/134 41/38/135 40/35/136
f 53/45/137 54/46/138 55/47/139 56/48/140
f 47/49/141 48/50/142 50/51/143 49/52/144
f 49/52/145 50/51/146 52/53/147 51/54/148
f 51/54/149 52/53/150 46/55/151 45/56/152
f 46/55/153 52/53/154 50/51/155 48/50/156
f 51/54/157 45/56/158 47/49/159 49/52/160
f 45/56/161 46/55/162 54/46/163 53/45/164
f 46/55/165 48/50/166 55/47/167 54/46/168
f 48/50/169 47/49/170 56/48/171 55/47/172
f 47/49/173 45/56/174 53/45/175 56/48/176
f 25/25/177 26/26/178 58/58/179 57/57/180
f 26/26/181 32/31/182 59/59/183 58/58/184
f 60/60/185 59/59/186 32/31/187 31/32/188
f 31/32/189 25/25/190 57/57/191 60/60/192
