# This file uses centimeters as units for non-parametric coordinates.

v 120.486328 229.383667 8.413330
v 120.486328 114.009293 8.413330
v 129.513428 114.009293 8.413330
v 129.437256 229.383667 8.413330
v 120.486328 229.383667 0.000000
v 120.486328 114.009293 0.000000
v 129.513428 114.009293 0.000000
v 129.437256 229.383667 0.000000
v 7.500183 102.560272 14.999878
v 242.499756 102.560272 14.999878
v 7.500183 239.307236 14.999878
v 242.499756 239.307236 14.999878
v 12.155823 107.211525 10.167480
v 237.843994 107.211525 10.167480
v 12.155823 234.655853 10.167480
v 237.843994 234.655853 10.167480
v 21.625427 156.395325 10.167480
v 21.625427 114.009293 10.167480
v 228.374329 156.395325 10.167480
v 228.374329 165.413406 10.167480
v 21.625427 165.337311 10.167480
v 228.374329 114.009293 10.167480
v 21.625427 227.858215 10.167480
v 228.374329 227.858215 10.167480
v 21.625427 156.395325 0.000000
v 21.625427 114.009293 0.000000
v 228.374329 156.395325 0.000000
v 228.374329 165.413406 0.000000
v 21.625427 165.337311 0.000000
v 228.374329 114.009293 0.000000
v 21.625427 227.858215 0.000000
v 228.374329 227.858215 0.000000
v 12.155823 107.211525 17.040527
v 237.843994 107.211525 17.040527
v 7.500366 102.560310 17.040527
v 242.499390 102.560310 17.040527
v 12.155823 234.655853 17.040527
v 7.500366 239.307205 17.040527
v 242.499390 239.307205 17.040527
v 237.843994 234.655853 17.040527
v 137.153992 228.866486 10.167603
v 161.692200 228.866486 10.167480
v 150.771240 231.001907 10.167480
v 151.270935 228.866486 8.739868
v 228.903687 184.122696 10.167480
v 231.286011 176.279724 10.167480
v 228.903687 176.153992 8.789429
v 67.679077 165.354141 10.167480
v 39.017883 165.343643 10.167480
v 49.951172 165.347672 8.484741
v 50.806763 163.601486 10.167480
v 121.005615 132.815781 8.413330
v 123.502319 124.962685 8.413330
v 121.005615 124.905121 6.448730
v 0.000000 0.000000 14.999878
v 0.000000 299.700073 14.999878
v 0.000000 299.700073 0.000000
v 0.000000 0.000000 0.000000
v 249.999268 299.700073 14.999878
v 249.999268 -0.000000 14.999878
v 249.999268 0.000000 0.000000
v 249.999268 299.700073 0.000000
vt 0.102815 0.253173
vt 0.102815 0.253173
vt 0.102815 0.253173
vt 0.102815 0.253173
vt 0.102815 0.253173
vt 0.102815 0.253173
vt 0.102815 0.253173
vt 0.102815 0.253173
vt 0.102815 0.253173
vt 0.102449 0.230527
vt 0.103315 0.230753
vt 0.103305 0.230767
vt 0.102433 0.230536
vt 0.103378 0.230141
vt 0.103368 0.230147
vt 0.102433 0.230037
vt 0.102415 0.230040
vt 0.103326 0.230794
vt 0.102419 0.230549
vt 0.103396 0.230125
vt 0.102399 0.230019
vt 0.102815 0.253173
vt 0.102815 0.253173
vt 0.102815 0.253173
vt 0.102815 0.253173
vt 0.102815 0.253173
vt 0.102815 0.253173
vt 0.102815 0.253173
vt 0.102815 0.253173
vt 0.102815 0.253173
vt 0.102815 0.253173
vt 0.102815 0.253173
vt 0.102815 0.253173
vt 0.102815 0.253173
vt 0.102815 0.253173
vt 0.102815 0.253173
vt 0.102815 0.253173
vt 0.102815 0.253173
vt 0.102815 0.253173
vt 0.102815 0.253173
vt 0.102815 0.253173
vt 0.102815 0.253173
vt 0.102815 0.253173
vt 0.102815 0.253173
vt 0.102815 0.253173
vt 0.102815 0.253173
vt 0.102815 0.253173
vt 0.102815 0.253173
vt 0.102815 0.253173
vt 0.103329 0.230790
vt 0.102424 0.230546
vt 0.103399 0.230123
vt 0.102405 0.230018
vt 0.102815 0.253173
vt 0.102815 0.253173
vt 0.102815 0.253173
vt 0.102815 0.253173
vt 0.102815 0.253173
vt 0.001595 0.752547
vt 0.001595 0.752547
vt 0.001595 0.752547
vt 0.001595 0.752547
vt 0.001595 0.752547
vt 0.001595 0.752547
vt 0.001595 0.752547
vt 0.001595 0.752547
vt 0.001595 0.752547
vt 0.001595 0.752547
vt 0.001595 0.752547
vt 0.001595 0.752547
vt 0.001595 0.752547
vt 0.248737 0.752547
vt 0.240961 0.836473
vt 0.009927 0.836473
vt 0.248737 0.997796
vt 0.240961 0.948375
vt 0.001595 0.997796
vt 0.009927 0.948375
vt 0.001595 0.752547
vt 0.001595 0.752547
vt 0.001595 0.752547
vt 0.001595 0.752547
vn 0.000000 0.000000 1.000000
vn 0.000000 0.000000 1.000000
vn 0.000000 0.000000 1.000000
vn -0.996774 0.000000 0.080266
vn -0.996774 0.000000 0.080266
vn -0.996773 0.000000 0.080266
vn 1.000000 0.000660 0.000000
vn 1.000000 0.000660 0.000000
vn 1.000000 0.000660 0.000000
vn 1.000000 0.000660 0.000000
vn 0.000000 1.000000 0.000000
vn 0.000000 1.000000 0.000000
vn 0.000000 1.000000 0.000000
vn 0.000000 1.000000 0.000000
vn 1.000000 0.000000 0.000000
vn 1.000000 0.000000 0.000000
vn 1.000000 0.000000 0.000000
vn 1.000000 0.000000 0.000000
vn -1.000000 0.000000 0.000000
vn -1.000000 0.000000 0.000000
vn -1.000000 0.000000 0.000000
vn -1.000000 0.000000 0.000000
vn 0.000000 -1.000000 0.000000
vn 0.000000 -1.000000 0.000000
vn 0.000000 -1.000000 0.000000
vn 0.000000 -1.000000 0.000000
vn 0.000000 0.000000 1.000000
vn 0.000000 0.000000 1.000000
vn 0.000000 0.000000 1.000000
vn 0.000000 0.000000 1.000000
vn -0.000000 0.000000 1.000000
vn -0.000000 0.000000 1.000000
vn -0.000000 0.000000 1.000000
vn -0.000000 0.000000 1.000000
vn 0.000000 0.000000 1.000000
vn 0.000000 0.000000 1.000000
vn 0.000000 0.000000 1.000000
vn 0.000000 0.000000 1.000000
vn 0.000000 0.000000 1.000000
vn 0.000000 0.000000 1.000000
vn 0.000000 0.000000 1.000000
vn 0.000000 0.000000 1.000000
vn -0.000000 0.000000 1.000000
vn -0.000000 0.000000 1.000000
vn -0.000000 0.000000 1.000000
vn -0.000000 0.000000 1.000000
vn -0.000000 0.000000 1.000000
vn -0.000000 0.000000 1.000000
vn 0.000000 0.000000 1.000000
vn 0.000000 0.000000 1.000000
vn 0.000000 0.000000 1.000000
vn 0.000000 0.000000 1.000000
vn -0.000000 0.000000 1.000000
vn -0.000000 0.000000 1.000000
vn -0.000000 0.000000 1.000000
vn -0.000000 0.000000 1.000000
vn -0.000000 0.000000 1.000000
vn 0.000000 0.000000 1.000000
vn 0.000000 0.000000 1.000000
vn 0.000000 0.000000 1.000000
vn 0.000000 0.000000 1.000000
vn -0.000000 0.000000 1.000000
vn -0.000000 0.000000 1.000000
vn -0.000000 0.000000 1.000000
vn -0.000000 0.000000 1.000000
vn -1.000000 0.000000 0.000000
vn -1.000000 0.000000 0.000000
vn -1.000000 0.000000 0.000000
vn -1.000000 0.000000 0.000000
vn 0.000000 1.000000 0.000000
vn 0.000000 1.000000 0.000000
vn 0.000000 1.000000 0.000000
vn 0.000000 1.000000 0.000000
vn 1.000000 0.000000 0.000000
vn 1.000000 0.000000 0.000000
vn 1.000000 0.000000 0.000000
vn 1.000000 0.000000 0.000000
vn 0.000000 -1.000000 0.000000
vn 0.000000 -1.000000 0.000000
vn 0.000000 -1.000000 0.000000
vn 0.000000 -1.000000 0.000000
vn 0.000000 -0.993412 0.114601
vn 0.000000 -0.993412 0.114601
vn 0.000000 -0.993412 0.114601
vn -0.998191 0.000000 0.060118
vn -0.998191 0.000000 0.060118
vn -0.998191 0.000000 0.060118
vn -0.000368 1.000000 0.000009
vn -0.000368 1.000000 0.000009
vn -0.000368 1.000000 0.000009
vn 1.000000 0.000000 0.000000
vn 1.000000 0.000000 0.000000
vn 1.000000 0.000000 0.000000
vn 1.000000 0.000000 0.000000
vn 0.000000 -1.000000 0.000015
vn 0.000000 -1.000000 0.000015
vn 0.000000 -1.000000 0.000015
vn 0.000000 -1.000000 0.000015
vn -1.000000 0.000000 0.000090
vn -1.000000 0.000000 0.000090
vn -1.000000 0.000000 0.000090
vn -1.000000 0.000000 0.000090
vn 1.000000 0.000000 0.000179
vn 1.000000 0.000000 0.000179
vn 1.000000 0.000000 0.000179
vn 1.000000 0.000000 0.000179
vn 0.000000 1.000000 0.000013
vn 0.000000 1.000000 0.000013
vn 0.000000 1.000000 0.000013
vn 0.000000 1.000000 0.000013
vn 0.084689 -0.540004 0.837391
vn 0.084689 -0.540004 0.837391
vn 0.084689 -0.540004 0.837391
vn -0.111496 -0.570209 0.813898
vn -0.111496 -0.570209 0.813898
vn -0.111496 -0.570209 0.813898
vn -0.489265 -0.148615 0.859380
vn -0.489265 -0.148615 0.859380
vn -0.489265 -0.148615 0.859380
vn -0.501475 0.134373 0.854674
vn -0.501475 0.134373 0.854674
vn -0.501475 0.134373 0.854674
vn 0.105872 0.716419 0.689590
vn 0.105872 0.716419 0.689590
vn 0.105872 0.716419 0.689590
vn -0.070034 0.674194 0.735226
vn -0.070034 0.674194 0.735226
vn -0.070034 0.674194 0.735226
vn -0.604133 -0.192070 0.773390
vn -0.604133 -0.192070 0.773390
vn -0.604133 -0.192070 0.773390
vn -0.611942 0.168497 0.772745
vn -0.611942 0.168497 0.772745
vn -0.611942 0.168497 0.772745
vn 0.000000 0.000000 1.000000
vn 0.000000 0.000000 1.000000
vn 0.000000 0.000000 1.000000
vn 0.000000 0.000000 1.000000
vn 0.000000 0.000000 1.000000
vn 0.000000 0.000000 1.000000
vn 0.000000 0.000000 1.000000
vn 0.000000 0.000000 1.000000
vn 0.000000 0.000000 1.000000
vn 0.000000 0.000000 1.000000
vn 0.000000 0.000000 1.000000
vn 0.000000 0.000000 1.000000
vn 0.000000 0.000000 1.000000
vn 0.000000 0.000000 1.000000
vn -0.000000 0.000014 1.000000
vn -0.000000 0.000014 1.000000
vn -0.000000 0.000014 1.000000
vn -0.000000 0.000014 1.000000
vn 0.000000 0.000000 1.000000
vn 0.000000 0.000000 1.000000
vn 0.000000 0.000000 1.000000
vn 0.000000 0.000000 1.000000
vn 0.000000 0.000000 1.000000
vn 0.000000 0.000000 1.000000
vn 0.000000 0.000000 1.000000
vn 0.000000 0.000000 1.000000
vn 0.000000 0.000000 1.000000
vn 0.000000 0.000000 1.000000
vn -0.000366 1.000000 0.000003
vn -0.000366 1.000000 0.000003
vn -0.000366 1.000000 0.000003
vn -0.000366 1.000000 0.000003
vn -0.000368 1.000000 0.000007
vn -0.000368 1.000000 0.000007
vn -0.000368 1.000000 0.000007
vn -0.000368 1.000000 0.000007
vn -0.998788 0.049227 0.000000
vn -0.998788 0.049227 0.000000
vn -0.998788 0.049227 0.000000
vn -0.999920 -0.010429 0.007198
vn -0.999920 -0.010429 0.007198
vn -0.999920 -0.010429 0.007198
vn -0.999920 -0.010429 0.007198
vn -0.013296 -0.999840 0.011950
vn -0.013296 -0.999840 0.011950
vn -0.013296 -0.999840 0.011950
vn -0.013296 -0.999840 0.011950
vn 0.007882 -0.999923 0.009597
vn 0.007882 -0.999923 0.009597
vn 0.007882 -0.999923 0.009597
vn 0.007882 -0.999923 0.009597
vn -0.998866 0.047605 0.000000
vn -0.998866 0.047605 0.000000
vn -0.998866 0.047605 0.000000
vn -0.999980 -0.005042 0.003844
vn -0.999980 -0.005042 0.003844
vn -0.999980 -0.005042 0.003844
vn -0.999980 -0.005042 0.003844
vn -1.000000 0.000000 0.000000
vn -1.000000 0.000000 0.000000
vn -1.000000 0.000000 0.000000
vn -1.000000 0.000000 0.000000
vn 0.000000 1.000000 0.000000
vn 0.000000 1.000000 0.000000
vn 0.000000 1.000000 0.000000
vn 0.000000 1.000000 0.000000
vn -0.000000 -1.000000 -0.000000
vn -0.000000 -1.000000 -0.000000
vn -0.000000 -1.000000 -0.000000
vn -0.000000 -1.000000 -0.000000
vn 0.000000 0.000000 1.000000
vn 0.000000 0.000000 1.000000
vn 0.000000 0.000000 1.000000
vn 0.000000 0.000000 1.000000
vn 0.000000 0.000000 1.000000
vn 0.000000 0.000000 1.000000
vn 0.000000 0.000000 1.000000
vn 0.000000 0.000000 1.000000
vn 0.000000 0.000000 1.000000
vn 0.000000 0.000000 1.000000
vn 0.000000 0.000000 1.000000
vn 0.000000 0.000000 1.000000
vn -0.000000 0.000000 1.000000
vn -0.000000 0.000000 1.000000
vn -0.000000 0.000000 1.000000
vn -0.000000 0.000000 1.000000
vn 1.000000 0.000000 0.000000
vn 1.000000 0.000000 0.000000
vn 1.000000 0.000000 0.000000
vn 1.000000 0.000000 0.000000
s off
f 3/1/1 53/2/2 2/3/3
f 6/4/4 54/5/5 5/6/6
f 4/7/7 3/1/8 7/8/9 8/9/10
f 14/10/11 13/11/12 33/12/13 34/13/14
f 13/11/15 15/14/16 37/15/17 33/12/18
f 16/16/19 14/10/20 34/13/21 40/17/22
f 15/14/23 16/16/24 40/17/25 37/15/26
f 34/13/27 33/12/28 35/18/29 36/19/30
f 33/12/31 37/15/32 38/20/33 35/18/34
f 36/19/35 39/21/36 40/17/37 34/13/38
f 39/21/39 38/20/40 37/15/41 40/17/42
f 15/22/43 13/23/44 18/24/45 17/25/46 21/26/47 23/27/48
f 18/24/49 13/23/50 14/28/51 22/29/52
f 20/30/53 19/31/54 22/29/55 14/28/56 46/32/57
f 16/33/58 43/34/59 42/35/60 24/36/61
f 17/25/62 51/37/63 49/38/64 21/26/65
f 22/29/66 19/31/67 27/39/68 30/40/69
f 18/24/70 22/29/71 30/40/72 26/41/73
f 17/25/74 18/24/75 26/41/76 25/42/77
f 27/39/78 19/31/79 17/25/80 25/42/81
f 31/43/82 32/44/83 44/45/84
f 28/46/85 47/47/86 32/44/87
f 29/48/88 50/49/89 28/46/90
f 23/27/91 21/26/92 29/48/93 31/43/94
f 9/50/95 10/51/96 36/19/97 35/18/98
f 11/52/99 9/50/100 35/18/101 38/20/102
f 10/51/103 12/53/104 39/21/105 36/19/106
f 12/53/107 11/52/108 38/20/109 39/21/110
f 44/45/111 43/34/112 41/54/113
f 42/35/114 43/34/115 44/45/116
f 47/47/117 46/32/118 45/55/119
f 20/30/120 46/32/121 47/47/122
f 49/38/123 51/37/124 50/49/125
f 50/49/126 51/37/127 48/56/128
f 54/5/129 53/2/130 52/57/131
f 2/3/132 53/2/133 54/5/134
f 20/30/135 48/56/136 51/37/137 19/31/138
f 19/31/139 51/37/140 17/25/141
f 46/32/142 16/33/143 24/36/144 45/55/145
f 46/32/146 14/28/147 16/33/148
f 15/22/149 23/27/150 41/54/151 43/34/152
f 15/22/153 43/34/154 16/33/155
f 53/2/156 4/7/157 1/58/158 52/57/159
f 3/1/160 4/7/161 53/2/162
f 21/26/163 49/38/164 50/49/165 29/48/166
f 28/46/167 50/49/168 48/56/169 20/30/170
f 20/30/171 47/47/172 28/46/173
f 32/44/174 47/47/175 45/55/176 24/36/177
f 44/45/178 32/44/179 24/36/180 42/35/181
f 31/43/182 44/45/183 41/54/184 23/27/185
f 6/4/186 2/3/187 54/5/188
f 5/6/189 54/5/190 52/57/191 1/58/192
f 57/59/193 58/60/194 55/61/195 56/62/196
f 57/63/197 56/64/198 59/65/199 62/66/200
f 55/67/201 58/68/202 61/69/203 60/70/204
f 55/71/205 60/72/206 10/73/207 9/74/208
f 60/72/209 59/75/210 12/76/211 10/73/212
f 59/75/213 56/77/214 11/78/215 12/76/216
f 56/77/217 55/71/218 9/74/219 11/78/220
f 60/79/221 61/80/222 62/81/223 59/82/224
v 21.625427 114.009293 2.033569
v 228.373535 114.009293 2.033569
v 21.625427 227.857971 2.033569
v 228.373535 227.857971 2.033569
vt 0.050563 0.181363
vt 0.050560 0.181784
vt 0.049569 0.181777
vt 0.049563 0.181356
vn 0.000000 0.000000 1.000000
vn 0.000000 0.000000 1.000000
vn 0.000000 0.000000 1.000000
vn 0.000000 0.000000 1.000000
s off
f 65/83/225 63/84/226 64/85/227 66/86/228
