# This file uses centimeters as units for non-parametric coordinates.

v 231.107468 288.715210 14.287842
v 232.518906 288.715210 14.287842
v 231.107468 288.715210 12.876587
v 232.518906 288.715210 12.876587
v 18.767059 245.100708 14.410889
v 20.206757 245.100708 14.410889
v 18.767059 288.715210 14.410889
v 20.206757 288.715210 14.410889
v 18.767059 288.715210 12.971069
v 20.206757 288.715210 12.971069
v 18.767059 245.100708 12.971069
v 20.206757 245.100708 12.971069
v 231.107468 127.598907 12.931030
v 232.518906 127.598907 12.931030
v 232.518906 127.598907 14.342407
v 231.107468 127.598907 14.342407
v 230.129150 127.232086 11.952759
v 233.497086 127.232086 11.952759
v 233.497086 127.232086 15.320679
v 230.129150 127.232086 15.320679
v 230.129150 122.967255 11.952759
v 233.497086 122.967255 11.952759
v 233.497086 122.967255 15.320679
v 230.129150 122.967255 15.320679
v 14.868454 247.715027 18.781982
v 235.280502 247.715027 18.781982
v 14.868454 251.552673 20.727783
v 235.280502 251.552673 20.727783
v 14.868454 263.087280 13.131958
v 235.280502 263.087280 13.131958
v 14.868454 259.249725 11.186646
v 235.280502 259.249725 11.186646
v 14.868454 270.455627 18.781982
v 235.280502 270.455627 18.781982
v 14.868454 274.293457 20.727783
v 235.280502 274.293457 20.727783
v 14.868454 285.827881 13.131958
v 235.280502 285.827881 13.131958
v 14.868454 281.990356 11.186646
v 235.280502 281.990356 11.186646
v 14.815277 259.769409 17.880859
v 235.216385 256.597961 19.682251
v 14.835419 263.606720 19.827026
v 235.236435 260.435272 21.628052
v 14.932648 275.139832 12.231812
v 235.333664 271.968384 14.033081
v 14.912521 271.302521 10.286377
v 235.313614 268.131073 12.087280
v 15.009888 240.164673 19.514404
v 235.376373 242.974731 18.046509
v 14.968781 244.000916 21.460205
v 235.335236 246.811188 19.992676
v 14.772552 255.529724 13.868164
v 235.138992 258.340057 12.400513
v 14.813660 251.693359 11.921875
v 235.180130 254.503540 10.453857
v 14.868454 252.773438 18.782104
v 235.280502 252.773438 18.782104
v 14.868454 256.611145 20.727783
v 235.280502 256.611145 20.727783
v 14.868454 268.145691 13.131958
v 235.280502 268.145691 13.131958
v 14.868454 264.308044 11.186646
v 235.280502 264.308044 11.186646
v 14.868454 264.507751 18.781982
v 235.280502 264.507751 18.781982
v 14.868454 268.345428 20.727783
v 235.280502 268.345428 20.727783
v 14.868454 279.880035 13.132080
v 235.280502 279.880035 13.132080
v 14.868454 276.042480 11.186646
v 235.280502 276.042480 11.186646
vt 0.298426 0.009109
vt 0.298426 0.009109
vt 0.298426 0.009109
vt 0.298426 0.009109
vt 0.298426 0.009109
vt 0.298426 0.009109
vt 0.298426 0.009109
vt 0.298426 0.009109
vt 0.298426 0.009109
vt 0.298426 0.009109
vt 0.298426 0.009109
vt 0.298426 0.009109
vt 0.298426 0.009109
vt 0.298426 0.009109
vt 0.298426 0.009109
vt 0.298426 0.009109
vt 0.298426 0.009109
vt 0.298426 0.009109
vt 0.298426 0.009109
vt 0.298426 0.009109
vt 0.298426 0.009109
vt 0.298426 0.009109
vt 0.298426 0.009109
vt 0.298426 0.009109
vt 0.418721 0.006079
vt 0.418721 0.006079
vt 0.418721 0.006079
vt 0.418721 0.006079
vt 0.418721 0.006079
vt 0.418721 0.006079
vt 0.418721 0.006079
vt 0.418721 0.006079
vt 0.418721 0.006079
vt 0.418721 0.006079
vt 0.418721 0.006079
vt 0.418721 0.006079
vt 0.357638 0.007603
vt 0.357638 0.007603
vt 0.357638 0.007603
vt 0.357638 0.007603
vt 0.357638 0.007603
vt 0.357638 0.007603
vt 0.357638 0.007603
vt 0.357638 0.007603
vt 0.357638 0.007603
vt 0.357638 0.007603
vt 0.357638 0.007603
vt 0.357638 0.007603
vt 0.357638 0.007603
vt 0.357638 0.007603
vt 0.357638 0.007603
vt 0.357638 0.007603
vt 0.357638 0.007603
vt 0.357638 0.007603
vt 0.357638 0.007603
vt 0.357638 0.007603
vt 0.357638 0.007603
vt 0.357638 0.007603
vt 0.357638 0.007603
vt 0.357638 0.007603
vt 0.357638 0.007603
vt 0.357638 0.007603
vt 0.357638 0.007603
vt 0.357638 0.007603
vt 0.357638 0.007603
vt 0.357638 0.007603
vt 0.357638 0.007603
vt 0.357638 0.007603
vt 0.357638 0.007603
vt 0.357638 0.007603
vt 0.357638 0.007603
vt 0.357638 0.007603
vt 0.357638 0.007603
vt 0.357638 0.007603
vt 0.357638 0.007603
vt 0.357638 0.007603
vt 0.357638 0.007603
vt 0.357638 0.007603
vt 0.357638 0.007603
vt 0.357638 0.007603
vt 0.357638 0.007603
vt 0.357638 0.007603
vt 0.357638 0.007603
vt 0.357638 0.007603
vt 0.300054 0.007603
vt 0.300054 0.007603
vt 0.300054 0.007603
vt 0.300054 0.007603
vt 0.300054 0.007603
vt 0.300054 0.007603
vt 0.300054 0.007603
vt 0.300054 0.007603
vt 0.300054 0.007603
vt 0.300054 0.007603
vt 0.300054 0.007603
vt 0.300054 0.007603
vt 0.300054 0.007603
vt 0.300054 0.007603
vt 0.300054 0.007603
vt 0.300054 0.007603
vt 0.300054 0.007603
vt 0.300054 0.007603
vt 0.300054 0.007603
vt 0.300054 0.007603
vt 0.300054 0.007603
vt 0.300054 0.007603
vt 0.300054 0.007603
vt 0.300054 0.007603
vt 0.300054 0.007603
vt 0.300054 0.007603
vt 0.300054 0.007603
vt 0.300054 0.007603
vt 0.300054 0.007603
vt 0.300054 0.007603
vt 0.300054 0.007603
vt 0.300054 0.007603
vt 0.300054 0.007603
vt 0.300054 0.007603
vt 0.300054 0.007603
vt 0.300054 0.007603
vt 0.300054 0.007603
vt 0.300054 0.007603
vt 0.300054 0.007603
vt 0.300054 0.007603
vt 0.300054 0.007603
vt 0.300054 0.007603
vt 0.300054 0.007603
vt 0.300054 0.007603
vt 0.300054 0.007603
vt 0.300054 0.007603
vt 0.300054 0.007603
vt 0.300054 0.007603
vt 0.331931 0.007603
vt 0.331931 0.007603
vt 0.331931 0.007603
vt 0.331931 0.007603
vt 0.331931 0.007603
vt 0.331931 0.007603
vt 0.331931 0.007603
vt 0.331931 0.007603
vt 0.331931 0.007603
vt 0.331931 0.007603
vt 0.331931 0.007603
vt 0.331931 0.007603
vt 0.331931 0.007603
vt 0.331931 0.007603
vt 0.331931 0.007603
vt 0.331931 0.007603
vt 0.331931 0.007603
vt 0.331931 0.007603
vt 0.331931 0.007603
vt 0.331931 0.007603
vt 0.331931 0.007603
vt 0.331931 0.007603
vt 0.331931 0.007603
vt 0.331931 0.007603
vt 0.331931 0.007603
vt 0.331931 0.007603
vt 0.331931 0.007603
vt 0.331931 0.007603
vn 0.000000 0.000339 1.000000
vn 0.000000 0.000339 1.000000
vn 0.000000 0.000339 1.000000
vn 0.000000 0.000339 1.000000
vn 0.000000 1.000000 0.000000
vn 0.000000 1.000000 0.000000
vn 0.000000 1.000000 0.000000
vn 0.000000 1.000000 0.000000
vn 0.000000 -0.000338 -1.000000
vn 0.000000 -0.000338 -1.000000
vn 0.000000 -0.000338 -1.000000
vn 0.000000 -0.000338 -1.000000
vn 0.000000 -1.000000 0.000000
vn 0.000000 -1.000000 0.000000
vn 0.000000 -1.000000 0.000000
vn 0.000000 -1.000000 0.000000
vn 1.000000 -0.000000 0.000000
vn 1.000000 -0.000000 0.000000
vn 1.000000 -0.000000 0.000000
vn 1.000000 -0.000000 0.000000
vn -1.000000 0.000000 0.000000
vn -1.000000 0.000000 0.000000
vn -1.000000 0.000000 0.000000
vn -1.000000 0.000000 0.000000
vn 0.000000 0.000000 1.000000
vn 0.000000 0.000000 1.000000
vn 0.000000 0.000000 1.000000
vn 0.000000 0.000000 1.000000
vn 0.000000 1.000000 0.000000
vn 0.000000 1.000000 0.000000
vn 0.000000 1.000000 0.000000
vn 0.000000 1.000000 0.000000
vn 0.000000 0.000000 -1.000000
vn 0.000000 0.000000 -1.000000
vn 0.000000 0.000000 -1.000000
vn 0.000000 0.000000 -1.000000
vn 0.000000 -1.000000 0.000000
vn 0.000000 -1.000000 0.000000
vn 0.000000 -1.000000 0.000000
vn 0.000000 -1.000000 0.000000
vn 1.000000 0.000000 0.000000
vn 1.000000 0.000000 0.000000
vn 1.000000 0.000000 0.000000
vn 1.000000 0.000000 0.000000
vn -1.000000 0.000000 0.000000
vn -1.000000 0.000000 0.000000
vn -1.000000 0.000000 0.000000
vn -1.000000 0.000000 0.000000
vn 0.000000 0.936342 -0.351091
vn 0.000000 0.936342 -0.351091
vn 0.000000 0.936341 -0.351091
vn 0.000000 0.936342 -0.351091
vn 0.351126 0.936328 0.000000
vn 0.351126 0.936328 0.000000
vn 0.351126 0.936328 0.000000
vn 0.351126 0.936328 0.000000
vn 0.000000 0.936339 0.351099
vn 0.000000 0.936339 0.351099
vn 0.000000 0.936339 0.351099
vn 0.000000 0.936339 0.351099
vn -0.351080 0.936346 0.000000
vn -0.351080 0.936346 0.000000
vn -0.351080 0.936346 0.000000
vn -0.351080 0.936346 0.000000
vn 0.000000 0.000000 -1.000000
vn 0.000000 0.000000 -1.000000
vn 0.000000 0.000000 -1.000000
vn 0.000000 0.000000 -1.000000
vn 1.000000 0.000000 0.000000
vn 1.000000 0.000000 0.000000
vn 1.000000 0.000000 0.000000
vn 1.000000 0.000000 0.000000
vn 0.000000 0.000000 1.000000
vn 0.000000 0.000000 1.000000
vn 0.000000 0.000000 1.000000
vn 0.000000 0.000000 1.000000
vn -1.000000 0.000000 0.000000
vn -1.000000 0.000000 0.000000
vn -1.000000 0.000000 0.000000
vn -1.000000 0.000000 0.000000
vn 0.000000 -0.452223 0.891905
vn 0.000000 -0.452223 0.891905
vn 0.000000 -0.452223 0.891905
vn 0.000000 -0.452223 0.891905
vn 0.000000 0.549984 0.835176
vn 0.000000 0.549984 0.835176
vn 0.000000 0.549984 0.835176
vn 0.000000 0.549984 0.835176
vn 0.000000 0.452141 -0.891947
vn 0.000000 0.452141 -0.891947
vn 0.000000 0.452141 -0.891947
vn 0.000000 0.452141 -0.891947
vn 0.000000 -0.549956 -0.835194
vn 0.000000 -0.549956 -0.835194
vn 0.000000 -0.549956 -0.835194
vn 0.000000 -0.549956 -0.835194
vn 1.000000 0.000001 0.000000
vn 1.000000 0.000001 0.000000
vn 1.000000 0.000001 0.000000
vn 1.000000 0.000001 0.000000
vn -1.000000 0.000000 0.000000
vn -1.000000 0.000000 0.000000
vn -1.000000 0.000000 0.000000
vn -1.000000 0.000000 0.000000
vn 0.000000 -0.452206 0.891914
vn 0.000000 -0.452206 0.891914
vn 0.000000 -0.452206 0.891914
vn 0.000000 -0.452206 0.891914
vn 0.000000 0.549989 0.835172
vn 0.000000 0.549989 0.835172
vn 0.000000 0.549989 0.835172
vn 0.000000 0.549989 0.835172
vn 0.000000 0.452142 -0.891946
vn 0.000000 0.452142 -0.891946
vn 0.000000 0.452142 -0.891946
vn 0.000000 0.452142 -0.891946
vn 0.000000 -0.549955 -0.835194
vn 0.000000 -0.549955 -0.835194
vn 0.000000 -0.549955 -0.835194
vn 0.000000 -0.549955 -0.835194
vn 1.000000 0.000001 0.000000
vn 1.000000 0.000001 0.000000
vn 1.000000 0.000001 0.000000
vn 1.000000 0.000001 0.000000
vn -1.000000 0.000000 0.000000
vn -1.000000 0.000000 0.000000
vn -1.000000 0.000000 0.000000
vn -1.000000 0.000000 0.000000
vn -0.013795 -0.452186 0.891817
vn -0.013795 -0.452186 0.891817
vn -0.013795 -0.452186 0.891817
vn -0.013795 -0.452186 0.891817
vn 0.001089 0.549990 0.835170
vn 0.001089 0.549990 0.835170
vn 0.001089 0.549990 0.835170
vn 0.001089 0.549990 0.835170
vn 0.013794 0.452119 -0.891851
vn 0.013794 0.452119 -0.891851
vn 0.013794 0.452119 -0.891851
vn 0.013794 0.452119 -0.891851
vn -0.001089 -0.549971 -0.835183
vn -0.001089 -0.549971 -0.835183
vn -0.001089 -0.549971 -0.835183
vn -0.001089 -0.549971 -0.835183
vn 0.999974 -0.006619 0.002750
vn 0.999974 -0.006619 0.002750
vn 0.999974 -0.006619 0.002750
vn 0.999974 -0.006619 0.002750
vn -0.999974 0.006632 -0.002732
vn -0.999974 0.006632 -0.002732
vn -0.999974 0.006632 -0.002732
vn -0.999974 0.006632 -0.002732
vn 0.011707 -0.452248 0.891816
vn 0.011707 -0.452248 0.891816
vn 0.011707 -0.452248 0.891816
vn 0.011707 -0.452248 0.891816
vn -0.001452 0.549970 0.835183
vn -0.001452 0.549970 0.835183
vn -0.001452 0.549970 0.835183
vn -0.001452 0.549970 0.835183
vn -0.011708 0.452330 -0.891774
vn -0.011708 0.452330 -0.891774
vn -0.011708 0.452330 -0.891774
vn -0.011708 0.452330 -0.891774
vn 0.001450 -0.549998 -0.835165
vn 0.001450 -0.549998 -0.835165
vn 0.001450 -0.549998 -0.835165
vn 0.001450 -0.549998 -0.835165
vn 0.999895 0.013459 -0.005402
vn 0.999895 0.013459 -0.005402
vn 0.999895 0.013459 -0.005402
vn 0.999895 0.013459 -0.005402
vn -0.999895 -0.013458 0.005408
vn -0.999895 -0.013458 0.005408
vn -0.999895 -0.013458 0.005408
vn -0.999895 -0.013458 0.005408
vn 0.000000 -0.452195 0.891919
vn 0.000000 -0.452195 0.891919
vn 0.000000 -0.452195 0.891919
vn 0.000000 -0.452195 0.891919
vn 0.000000 0.549986 0.835174
vn 0.000000 0.549986 0.835174
vn 0.000000 0.549986 0.835174
vn 0.000000 0.549986 0.835174
vn 0.000000 0.452132 -0.891951
vn 0.000000 0.452132 -0.891951
vn 0.000000 0.452132 -0.891951
vn 0.000000 0.452132 -0.891951
vn 0.000000 -0.549966 -0.835187
vn 0.000000 -0.549966 -0.835187
vn 0.000000 -0.549966 -0.835187
vn 0.000000 -0.549966 -0.835187
vn 1.000000 0.000000 0.000000
vn 1.000000 0.000000 0.000000
vn 1.000000 0.000000 0.000000
vn 1.000000 0.000000 0.000000
vn -1.000000 0.000000 0.000000
vn -1.000000 0.000000 0.000000
vn -1.000000 0.000000 0.000000
vn -1.000000 0.000000 0.000000
vn 0.000000 -0.452219 0.891907
vn 0.000000 -0.452219 0.891907
vn 0.000000 -0.452219 0.891907
vn 0.000000 -0.452219 0.891907
vn 0.000000 0.549977 0.835180
vn 0.000000 0.549977 0.835180
vn 0.000000 0.549977 0.835180
vn 0.000000 0.549977 0.835180
vn 0.000000 0.452163 -0.891935
vn 0.000000 0.452163 -0.891935
vn 0.000000 0.452163 -0.891935
vn 0.000000 0.452163 -0.891935
vn 0.000000 -0.549955 -0.835194
vn 0.000000 -0.549955 -0.835194
vn 0.000000 -0.549955 -0.835194
vn 0.000000 -0.549955 -0.835194
vn 1.000000 0.000001 0.000000
vn 1.000000 0.000001 0.000000
vn 1.000000 0.000001 0.000000
vn 1.000000 0.000001 0.000000
vn -1.000000 -0.000000 0.000000
vn -1.000000 -0.000000 0.000000
vn -1.000000 -0.000000 0.000000
vn -1.000000 -0.000000 0.000000
s off
f 2/2/1 1/1/2 16/24/3 15/23/4
f 1/1/5 2/2/6 4/4/7 3/3/8
f 3/3/9 4/4/10 14/22/11 13/21/12
f 21/25/13 22/26/14 23/27/15 24/28/16
f 4/5/17 2/2/18 15/23/19 14/22/20
f 1/1/21 3/6/22 13/21/23 16/24/24
f 5/7/25 6/8/26 8/9/27 7/10/28
f 7/10/29 8/9/30 10/11/31 9/12/32
f 9/12/33 10/11/34 12/13/35 11/14/36
f 11/14/37 12/13/38 6/15/39 5/16/40
f 6/8/41 12/17/42 10/18/43 8/9/44
f 11/19/45 5/7/46 7/10/47 9/20/48
f 13/29/49 14/30/50 18/31/51 17/32/52
f 14/30/53 15/33/54 19/34/55 18/31/56
f 15/33/57 16/35/58 20/36/59 19/34/60
f 16/35/61 13/29/62 17/32/63 20/36/64
f 17/32/65 18/31/66 22/26/67 21/25/68
f 18/31/69 19/34/70 23/27/71 22/26/72
f 19/34/73 20/36/74 24/28/75 23/27/76
f 20/36/77 17/32/78 21/25/79 24/28/80
f 25/37/81 26/38/82 28/39/83 27/40/84
f 27/41/85 28/42/86 30/43/87 29/44/88
f 29/45/89 30/46/90 32/47/91 31/48/92
f 31/49/93 32/50/94 26/51/95 25/52/96
f 26/53/97 32/54/98 30/55/99 28/56/100
f 31/57/101 25/58/102 27/59/103 29/60/104
f 33/61/105 34/62/106 36/63/107 35/64/108
f 35/65/109 36/66/110 38/67/111 37/68/112
f 37/69/113 38/70/114 40/71/115 39/72/116
f 39/73/117 40/74/118 34/75/119 33/76/120
f 34/77/121 40/78/122 38/79/123 36/80/124
f 39/81/125 33/82/126 35/83/127 37/84/128
f 41/85/129 42/86/130 44/87/131 43/88/132
f 43/89/133 44/90/134 46/91/135 45/92/136
f 45/93/137 46/94/138 48/95/139 47/96/140
f 47/97/141 48/98/142 42/99/143 41/100/144
f 42/101/145 48/102/146 46/103/147 44/104/148
f 47/105/149 41/106/150 43/107/151 45/108/152
f 49/109/153 50/110/154 52/111/155 51/112/156
f 51/113/157 52/114/158 54/115/159 53/116/160
f 53/117/161 54/118/162 56/119/163 55/120/164
f 55/121/165 56/122/166 50/123/167 49/124/168
f 50/125/169 56/126/170 54/127/171 52/128/172
f 55/129/173 49/130/174 51/131/175 53/132/176
f 57/133/177 58/134/178 60/135/179 59/136/180
f 59/136/181 60/135/182 62/137/183 61/138/184
f 61/138/185 62/137/186 64/139/187 63/140/188
f 63/140/189 64/139/190 58/141/191 57/142/192
f 58/134/193 64/143/194 62/144/195 60/135/196
f 63/145/197 57/133/198 59/136/199 61/146/200
f 65/147/201 66/148/202 68/149/203 67/150/204
f 67/150/205 68/149/206 70/151/207 69/152/208
f 69/152/209 70/151/210 72/153/211 71/154/212
f 71/154/213 72/153/214 66/155/215 65/156/216
f 66/148/217 72/157/218 70/158/219 68/149/220
f 71/159/221 65/147/222 67/150/223 69/160/224
