# This file uses centimeters as units for non-parametric coordinates.

v 141.251099 286.409607 7.694336
v 140.088135 286.409607 0.000000
v 141.251099 14.507080 7.694336
v 140.088135 14.507080 0.000000
v 155.015503 286.409607 7.694336
v 156.178467 286.409607 0.000000
v 155.015381 14.507080 7.694336
v 156.178467 14.507080 0.000000
v 141.251099 57.742340 7.694580
v 141.251099 84.912720 7.694336
v 143.404785 69.145447 7.694336
v 141.251099 69.011444 6.335449
v 358.748901 285.192291 7.694336
v 359.911865 285.192291 0.000000
v 358.748901 14.507080 7.694336
v 359.911865 14.507080 0.000000
v 344.984619 285.192291 7.694336
v 343.821533 285.192291 0.000000
v 344.984619 14.507080 7.694336
v 343.821533 14.507080 0.000000
v 358.749023 57.652100 7.694580
v 358.748901 85.002960 7.694336
v 356.603760 69.130920 7.694336
v 358.748901 68.996063 5.462158
v 487.970215 42.163208 5.075562
v 487.970215 51.797272 5.075562
v 487.970215 42.163208 0.000000
v 12.195679 51.797272 5.075562
v 12.458008 42.163208 5.075562
v 11.610596 42.163208 0.000000
v 12.195679 51.797272 0.000000
v 487.970215 51.797272 0.000000
v 0.000000 0.000000 17.343872
v 0.000000 0.000000 0.000000
v 496.009033 299.700012 7.694336
v 3.990967 0.000000 7.694336
v 0.000000 299.700134 17.343994
v 0.000000 299.700134 0.000122
v 13.966309 145.070618 7.694336
v 13.966309 145.070618 0.000000
v 13.966309 157.127747 7.694336
v 13.966309 157.127747 0.000000
v 3.990967 299.700012 7.694336
v 3.990967 299.700012 17.343872
v 3.990967 0.000000 17.343872
v 13.966309 285.192291 7.694336
v 13.966309 285.192291 0.000000
v 13.966309 14.507080 7.694336
v 13.966309 14.507080 0.000000
v 486.033569 285.192291 0.000000
v 500.000000 0.000000 17.343872
v 500.000000 0.000000 0.000000
v 500.000000 299.700134 17.343994
v 500.000000 299.700134 0.000122
v 486.033569 145.070618 7.694336
v 496.009033 0.000000 7.694336
v 486.033569 145.070618 0.000000
v 486.033569 157.127747 7.694336
v 486.033569 157.127747 0.000000
v 496.009033 299.700012 17.343872
v 496.009033 0.000000 17.343872
v 486.033569 285.192291 7.694336
v 486.033569 14.507080 7.694336
v 486.033569 14.507080 0.000000
v 487.970215 249.147827 5.075562
v 487.970215 258.781860 5.075562
v 487.970215 249.147827 0.000000
v 12.195679 258.781860 5.075562
v 12.458008 249.147827 5.075562
v 11.610596 249.147827 0.000000
v 12.195679 258.781860 0.000000
v 487.970215 258.781860 0.000000
v 69.989990 286.094055 7.694336
v 97.391235 286.094055 7.694336
v 84.612549 288.402344 7.694336
v 83.156982 286.094055 6.262695
v 277.775635 258.207428 5.075562
v 302.466431 258.207428 5.075562
v 286.598511 258.207428 3.797119
v 286.633911 256.620697 5.075562
v 417.758545 249.742004 5.075562
v 397.912842 249.742004 5.075562
v 411.752319 251.701965 5.075562
v 411.796875 249.742004 4.035156
v 471.485596 14.507080 7.694336
v 434.533691 14.507080 7.694336
v 445.043457 14.507080 6.179443
v 445.835815 12.192078 7.803711
v 13.487427 131.296509 7.694336
v 13.487427 95.119080 7.694336
v 10.995728 117.324036 7.694336
v 13.487427 118.226715 5.854126
v 141.251099 42.163208 0.000000
v 141.251099 42.163208 5.075562
v 141.251099 51.797272 5.075562
v 141.251099 51.797272 0.000122
v 358.748901 42.163116 0.000122
v 358.748901 42.163116 5.075562
v 358.748901 51.797272 5.075562
v 358.748901 51.797272 0.000122
v 358.748901 157.127747 0.000000
v 358.748901 157.127747 7.694336
v 358.748901 145.070618 7.694336
v 358.748901 145.070618 0.000000
v 141.251099 157.127747 0.000000
v 141.251099 157.127747 7.694336
v 141.251099 145.070618 7.694336
v 141.251099 145.070618 0.000000
v 345.539551 0.000000 0.000000
v 154.460449 0.000000 3.830322
v 155.015381 3.951355 7.694336
v 156.178467 3.951355 0.000000
v 344.984619 3.951355 7.694336
v 343.821533 3.951355 0.000122
v 155.015381 0.000000 7.694336
v 344.984619 0.000000 7.694336
v 155.560425 0.000000 3.830322
v 343.417114 0.000000 0.000000
v 250.000000 0.000000 1.915161
v 249.488770 0.000000 1.915161
v 250.000000 0.000000 7.694336
v 250.000000 3.951355 7.694336
v 250.000000 3.951355 0.000000
vt 0.102662 0.278478
vt 0.102720 0.278626
vt 0.102753 0.278824
vt 0.102767 0.278815
vt 0.102739 0.278750
vt 0.102728 0.278727
vt 0.102728 0.278748
vt 0.102739 0.278772
vt 0.102636 0.278461
vt 0.102693 0.278607
vt 0.102733 0.278808
vt 0.102743 0.278797
vt 0.102720 0.278626
vt 0.102739 0.278750
vt 0.102728 0.278727
vt 0.102662 0.278478
vt 0.102693 0.278607
vt 0.102636 0.278461
vt 0.102733 0.278808
vt 0.102743 0.278797
vt 0.102728 0.278748
vt 0.102739 0.278772
vt 0.102753 0.278824
vt 0.102767 0.278815
vt 0.101685 0.278862
vt 0.102641 0.278615
vt 0.102657 0.278569
vt 0.101676 0.278814
vt 0.101688 0.278885
vt 0.102660 0.278630
vt 0.102676 0.278584
vt 0.101685 0.278836
vt 0.102904 0.278919
vt 0.103038 0.278904
vt 0.103032 0.278933
vt 0.103029 0.279036
vt 0.103074 0.278553
vt 0.103056 0.278569
vt 0.103036 0.279078
vt 0.102897 0.278949
vt 0.103042 0.278917
vt 0.103106 0.278544
vt 0.103069 0.278576
vt 0.103043 0.279084
vt 0.103065 0.279058
vt 0.103060 0.278560
vt 0.103042 0.278576
vt 0.103034 0.278848
vt 0.103049 0.278833
vt 0.103034 0.278867
vt 0.102431 0.278444
vt 0.102421 0.278422
vt 0.103048 0.278852
vt 0.102445 0.278435
vt 0.102436 0.278414
vt 0.103005 0.278554
vt 0.102963 0.278518
vt 0.102973 0.278527
vt 0.102653 0.278747
vt 0.102647 0.278733
vt 0.102641 0.278742
vt 0.102526 0.278632
vt 0.102514 0.278640
vt 0.102434 0.278188
vt 0.102511 0.278650
vt 0.102499 0.278657
vt 0.102252 0.278102
vt 0.102283 0.278084
vt 0.102246 0.278099
vt 0.102495 0.278654
vt 0.102518 0.278638
vt 0.102467 0.278218
vt 0.102302 0.278143
vt 0.102611 0.278715
vt 0.101685 0.278862
vt 0.102269 0.278675
vt 0.102249 0.278671
vt 0.101676 0.278814
vt 0.101688 0.278885
vt 0.102660 0.278630
vt 0.102532 0.278652
vt 0.102676 0.278584
vt 0.102272 0.278670
vt 0.102294 0.278660
vt 0.102657 0.278569
vt 0.102928 0.278509
vt 0.102646 0.278321
vt 0.102489 0.278654
vt 0.102525 0.278639
vt 0.102543 0.278640
vt 0.102641 0.278615
vt 0.101685 0.278836
vt 0.103033 0.278895
vt 0.101927 0.278823
vt 0.101919 0.278802
vt 0.101916 0.278754
vt 0.101928 0.278774
vt 0.102405 0.278697
vt 0.102391 0.278679
vt 0.102399 0.278633
vt 0.102416 0.278650
vt 0.102602 0.278527
vt 0.102587 0.278537
vt 0.102594 0.278558
vt 0.102608 0.278548
vt 0.102892 0.278726
vt 0.102878 0.278739
vt 0.102880 0.278759
vt 0.102894 0.278746
vt 0.102621 0.278708
vt 0.102666 0.278752
vt 0.102701 0.278784
vt 0.102686 0.278762
vt 0.102917 0.278944
vt 0.102918 0.278950
vt 0.102831 0.278866
vt 0.102831 0.278866
vt 0.102918 0.278950
vt 0.102701 0.278784
vt 0.102686 0.278762
vt 0.102806 0.278877
vt 0.102647 0.278751
vt 0.102917 0.278944
vt 0.102666 0.278752
vt 0.102792 0.278848
vt 0.102792 0.278848
vt 0.102726 0.278814
vt 0.102810 0.278867
vt 0.102758 0.278814
vn -0.991670 -0.000805 0.128803
vn -0.991670 -0.000805 0.128803
vn -0.991670 -0.000805 0.128803
vn -0.991670 -0.000805 0.128803
vn 0.988769 -0.000000 0.149456
vn 0.988769 -0.000000 0.149456
vn 0.988769 -0.000000 0.149456
vn 0.988769 -0.000000 0.149456
vn -0.529004 -0.072257 0.845538
vn -0.529004 -0.072257 0.845538
vn -0.529004 -0.072257 0.845538
vn -0.535375 0.101133 0.838538
vn -0.535375 0.101133 0.838538
vn -0.535375 0.101133 0.838538
vn 0.000016 -0.000001 1.000000
vn 0.000016 -0.000001 1.000000
vn 0.000016 -0.000001 1.000000
vn 0.000016 -0.000001 1.000000
vn -0.991322 0.003277 0.131419
vn -0.991322 0.003277 0.131419
vn -0.991322 0.003277 0.131419
vn -0.991322 0.003277 0.131419
vn -0.983566 0.000000 0.180548
vn -0.983566 0.000000 0.180548
vn -0.983566 0.000000 0.180548
vn 0.000000 0.000000 1.000000
vn 0.000000 0.000000 1.000000
vn 0.000000 0.000000 1.000000
vn 0.000000 0.000000 1.000000
vn 0.000000 0.000000 1.000000
vn 0.000000 0.000000 1.000000
vn 0.000000 0.000000 1.000000
vn 0.992977 -0.001221 0.118304
vn 0.992977 -0.001221 0.118304
vn 0.992977 -0.001221 0.118304
vn 0.992977 -0.001221 0.118304
vn -0.988767 0.000000 0.149463
vn -0.988767 0.000000 0.149463
vn -0.988767 0.000000 0.149463
vn -0.988767 0.000000 0.149463
vn 0.714730 -0.096597 0.692698
vn 0.714730 -0.096597 0.692698
vn 0.714730 -0.096597 0.692698
vn 0.718533 0.134299 0.682403
vn 0.718533 0.134299 0.682403
vn 0.718533 0.134299 0.682403
vn -0.000016 -0.000001 1.000000
vn -0.000016 -0.000001 1.000000
vn -0.000016 -0.000001 1.000000
vn -0.000016 -0.000001 1.000000
vn 0.992521 0.004996 0.121976
vn 0.992520 0.004996 0.121976
vn 0.992520 0.004996 0.121976
vn 0.992521 0.004996 0.121976
vn 0.978077 0.000000 0.208245
vn 0.978077 0.000000 0.208245
vn 0.978077 0.000000 0.208245
vn 0.000000 0.000000 1.000000
vn 0.000000 0.000000 1.000000
vn 0.000000 0.000000 1.000000
vn 0.000000 0.000000 1.000000
vn 0.000000 0.000000 1.000000
vn 0.000000 0.000000 1.000000
vn 0.000000 0.000000 1.000000
vn 0.000000 0.000000 1.000000
vn 0.000000 0.000000 1.000000
vn 0.000000 0.000000 1.000000
vn 0.000000 0.000000 1.000000
vn 0.000000 -1.000000 0.000000
vn 0.000000 -1.000000 0.000000
vn 0.000000 -1.000000 0.000000
vn 0.000000 -1.000000 0.000000
vn 0.000000 1.000000 0.000000
vn 0.000000 1.000000 0.000000
vn 0.000000 1.000000 0.000000
vn 0.000000 1.000000 0.000000
vn 0.999920 0.004824 0.011692
vn 0.999920 0.004824 0.011692
vn 0.999920 0.004824 0.011692
vn 0.999920 0.004824 0.011692
vn 1.000000 0.000000 0.000000
vn 1.000000 0.000000 0.000000
vn 1.000000 0.000000 0.000000
vn 1.000000 0.000000 0.000000
vn 0.000000 0.000000 1.000000
vn 0.000000 0.000000 1.000000
vn 0.000000 0.000000 1.000000
vn 0.000031 1.000000 0.000000
vn 0.000031 1.000000 0.000000
vn 0.000031 1.000000 0.000000
vn 0.000031 1.000000 0.000000
vn 0.000000 -1.000000 0.000000
vn 0.000000 -1.000000 0.000000
vn 0.000000 -1.000000 0.000000
vn 0.000000 -1.000000 0.000000
vn 1.000000 0.000000 0.000000
vn 1.000000 0.000000 0.000000
vn 1.000000 0.000000 0.000000
vn 1.000000 0.000000 0.000000
vn 0.000000 0.000000 1.000000
vn 0.000000 0.000000 1.000000
vn 0.000000 0.000000 1.000000
vn 0.000000 0.000000 1.000000
vn 0.000000 -1.000000 0.000000
vn 0.000000 -1.000000 0.000000
vn 0.000000 -1.000000 0.000000
vn 0.000000 -1.000000 0.000000
vn 0.000000 1.000000 0.000000
vn 0.000000 1.000000 0.000000
vn 0.000000 1.000000 0.000000
vn 0.000000 1.000000 0.000000
vn 0.000000 0.000000 1.000000
vn 0.000000 0.000000 1.000000
vn 0.000000 0.000000 1.000000
vn 0.000000 0.000000 1.000000
vn 0.013430 -0.999722 0.019380
vn 0.013430 -0.999722 0.019380
vn 0.013430 -0.999722 0.019380
vn 0.013430 -0.999722 0.019380
vn 0.000000 1.000000 0.000000
vn 0.000000 1.000000 0.000000
vn 0.000000 1.000000 0.000000
vn 0.000000 1.000000 0.000000
vn 0.000000 0.000000 1.000000
vn 0.000000 0.000000 1.000000
vn 0.000000 0.000000 1.000000
vn 0.000016 -0.000000 1.000000
vn 0.000016 -0.000000 1.000000
vn 0.000016 -0.000000 1.000000
vn 0.000016 -0.000000 1.000000
vn 0.577535 0.064807 0.813789
vn 0.577535 0.064807 0.813789
vn 0.577535 0.064807 0.813789
vn -0.000000 0.000000 1.000000
vn -0.000000 0.000000 1.000000
vn -0.000000 0.000000 1.000000
vn -1.000000 0.000000 0.000000
vn -1.000000 0.000000 0.000000
vn -1.000000 0.000000 0.000000
vn -1.000000 0.000000 0.000000
vn -1.000000 0.000000 0.000000
vn -1.000000 0.000000 0.000000
vn -1.000000 0.000000 0.000000
vn -1.000000 0.000000 0.000000
vn 0.000000 0.000000 1.000000
vn 0.000000 0.000000 1.000000
vn 0.000000 0.000000 1.000000
vn 0.000000 0.000000 1.000000
vn -0.000031 1.000000 0.000000
vn -0.000031 1.000000 0.000000
vn -0.000031 1.000000 0.000000
vn -0.000031 1.000000 0.000000
vn 0.000000 -1.000000 0.000000
vn 0.000000 -1.000000 0.000000
vn 0.000000 -1.000000 0.000000
vn 0.000000 -1.000000 0.000000
vn -1.000000 0.000000 0.000000
vn -1.000000 0.000000 0.000000
vn -1.000000 0.000000 0.000000
vn -1.000000 0.000000 0.000000
vn 0.000000 1.000000 0.000012
vn 0.000000 1.000000 0.000012
vn 0.000000 1.000000 0.000012
vn 0.000000 1.000000 0.000012
vn 0.000000 1.000000 0.000000
vn 0.000000 1.000000 0.000000
vn 0.000000 1.000000 0.000000
vn 0.000000 1.000000 0.000000
vn 0.000000 -1.000000 0.000000
vn 0.000000 -1.000000 0.000000
vn 0.000000 -1.000000 0.000000
vn 0.000000 -1.000000 0.000000
vn 0.000000 -1.000000 0.000000
vn -0.000016 -0.000000 1.000000
vn -0.000016 -0.000000 1.000000
vn -0.000016 -0.000000 1.000000
vn -0.000016 -0.000000 1.000000
vn 0.000000 0.000000 1.000000
vn 0.000000 0.000000 1.000000
vn 0.000000 0.000000 1.000000
vn 0.000000 0.000000 1.000000
vn 0.000000 0.000000 1.000000
vn 0.000000 0.000000 1.000000
vn 0.000000 0.000000 1.000000
vn 0.000000 0.000000 1.000000
vn 0.000000 0.000000 1.000000
vn 0.000000 0.000000 1.000000
vn 0.000000 -0.989332 0.145682
vn 0.000000 -0.989332 0.145682
vn 0.000000 -0.989332 0.145682
vn -0.002898 0.999970 0.007240
vn -0.002898 0.999970 0.007240
vn -0.002898 0.999970 0.007240
vn -0.002898 0.999970 0.007240
vn 0.089187 -0.564980 0.820271
vn 0.089187 -0.564980 0.820271
vn 0.089187 -0.564980 0.820271
vn -0.002251 -0.999991 0.003513
vn -0.002251 -0.999991 0.003513
vn -0.002251 -0.999991 0.003513
vn -0.002251 -0.999991 0.003513
vn -0.087536 -0.484601 0.870344
vn -0.087536 -0.484601 0.870344
vn -0.087536 -0.484601 0.870344
vn 0.000000 0.000000 1.000000
vn 0.000000 0.000000 1.000000
vn 0.000000 0.000000 1.000000
vn 0.000000 0.000000 1.000000
vn 0.000000 0.000000 1.000000
vn 0.000000 0.000000 1.000000
vn 0.000000 0.000000 1.000000
vn 0.000000 -0.989791 0.142528
vn 0.000000 -0.989791 0.142528
vn 0.000000 -0.989791 0.142528
vn 0.111948 0.624971 0.772580
vn 0.111948 0.624971 0.772580
vn 0.111948 0.624971 0.772580
vn -0.062669 0.625319 0.777849
vn -0.062669 0.625319 0.777849
vn -0.062669 0.625319 0.777849
vn 0.066090 -0.466665 0.881961
vn 0.066090 -0.466665 0.881961
vn 0.066090 -0.466665 0.881961
vn -0.152101 -0.466107 0.871556
vn -0.152101 -0.466107 0.871556
vn -0.152101 -0.466107 0.871556
vn -0.007905 -0.999939 0.007701
vn -0.007905 -0.999939 0.007701
vn -0.007905 -0.999939 0.007701
vn -0.007905 -0.999939 0.007701
vn 0.001496 -0.999994 0.003196
vn 0.001496 -0.999994 0.003196
vn 0.001496 -0.999994 0.003196
vn 0.001496 -0.999994 0.003196
vn -0.000000 0.000000 1.000000
vn -0.000000 0.000000 1.000000
vn -0.000000 0.000000 1.000000
vn -0.000000 0.000000 1.000000
vn 0.000000 0.000000 1.000000
vn 0.000000 0.000000 1.000000
vn 0.000000 0.000000 1.000000
vn 0.000000 0.000000 1.000000
vn 0.000000 0.000000 1.000000
vn 0.000000 0.000000 1.000000
vn 0.000000 0.000000 1.000000
vn 0.000000 0.000000 1.000000
vn 0.002107 0.999994 0.002922
vn 0.002107 0.999994 0.002922
vn 0.002107 0.999994 0.002922
vn 0.002107 0.999994 0.002922
vn 0.000000 0.988748 0.149594
vn 0.000000 0.988748 0.149594
vn 0.000000 0.988748 0.149594
vn 0.114502 0.596545 0.794370
vn 0.114502 0.596545 0.794370
vn 0.114502 0.596545 0.794370
vn -0.047278 0.562819 0.825227
vn -0.047278 0.562819 0.825227
vn -0.047278 0.562819 0.825227
vn 0.000000 1.000000 -0.000000
vn 0.000000 1.000000 -0.000000
vn 0.000000 1.000000 -0.000000
vn 0.002480 0.004191 0.999988
vn 0.002480 0.004191 0.999988
vn 0.002480 0.004191 0.999988
vn 0.002480 0.004191 0.999988
vn -0.000001 0.000000 1.000000
vn -0.000001 0.000000 1.000000
vn -0.000001 0.000000 1.000000
vn 0.000000 0.000000 1.000000
vn 0.000000 0.000000 1.000000
vn 0.000000 0.000000 1.000000
vn 0.000000 0.000000 1.000000
vn 0.615929 -0.109838 0.780107
vn 0.615929 -0.109838 0.780107
vn 0.615929 -0.109838 0.780107
vn 0.999442 -0.019679 0.026975
vn 0.999442 -0.019679 0.026975
vn 0.999442 -0.019679 0.026975
vn 0.999442 -0.019679 0.026975
vn 0.996671 0.000000 0.081530
vn 0.996671 0.000000 0.081530
vn 0.996671 0.000000 0.081530
vn 0.000000 0.000000 1.000000
vn 0.000000 0.000000 1.000000
vn 0.000000 0.000000 1.000000
vn 0.000000 0.000000 1.000000
vn -1.000000 0.000000 0.000000
vn -1.000000 0.000000 0.000000
vn -1.000000 0.000000 0.000000
vn -1.000000 0.000000 0.000000
vn 1.000000 0.000000 0.000000
vn 1.000000 0.000000 0.000000
vn 1.000000 0.000000 0.000000
vn 1.000000 0.000000 0.000000
vn 0.000001 -1.000000 0.000000
vn 0.000001 -1.000000 0.000000
vn 0.000001 -1.000000 0.000000
vn 0.000001 -1.000000 0.000000
vn -0.000000 0.000000 1.000000
vn -0.000000 0.000000 1.000000
vn -0.000000 0.000000 1.000000
vn -0.000000 0.000000 1.000000
vn 0.000000 1.000000 0.000000
vn 0.000000 1.000000 0.000000
vn 0.000000 1.000000 0.000000
vn 0.000000 1.000000 0.000000
vn 0.000000 1.000000 0.000000
vn 0.000000 1.000000 0.000000
vn 0.000000 1.000000 0.000000
vn 0.000000 1.000000 0.000000
vn 0.000000 0.000000 1.000000
vn 0.000000 0.000000 1.000000
vn 0.000000 0.000000 1.000000
vn 0.000000 0.000000 1.000000
vn 0.000000 -1.000000 0.000000
vn 0.000000 -1.000000 0.000000
vn 0.000000 -1.000000 0.000000
vn 0.000000 -1.000000 0.000000
vn 0.000000 1.000000 0.000000
vn 0.000000 1.000000 0.000000
vn 0.000000 1.000000 0.000000
vn 0.000000 1.000000 0.000000
vn 0.000000 1.000000 -0.000000
vn 0.000000 1.000000 -0.000000
vn 0.000000 1.000000 -0.000000
vn 0.000000 1.000000 -0.000000
vn 0.000000 0.000000 1.000000
vn 0.000000 0.000000 1.000000
vn 0.000000 0.000000 1.000000
vn 0.000000 0.000000 1.000000
vn 0.000000 -1.000000 0.000000
vn 0.000000 -1.000000 0.000000
vn 0.000000 -1.000000 0.000000
vn 0.000000 -1.000000 0.000000
vn 0.988767 0.000000 0.149463
vn 0.988767 0.000000 0.149463
vn 0.988767 0.000000 0.149463
vn 0.988767 0.000000 0.149463
vn -0.988767 0.000000 0.149465
vn -0.988767 0.000000 0.149465
vn -0.988767 0.000000 0.149464
vn -0.988767 0.000000 0.149465
vn -0.000950 0.005864 0.999982
vn -0.000950 0.005864 0.999982
vn -0.000950 0.005864 0.999982
vn -0.000950 0.005864 0.999982
vn -0.000950 0.005864 0.999982
vn 0.000000 -1.000000 0.000000
vn 0.000000 -1.000000 0.000000
vn 0.000000 -1.000000 0.000000
vn 0.000000 -1.000000 0.000000
vn 0.000000 -1.000000 0.000000
vn 0.000000 -1.000000 0.000000
vn 0.000000 -1.000000 0.000000
vn 0.000000 -1.000000 0.000000
vn 0.000000 -1.000000 0.000000
vn 0.000000 -0.008971 0.999960
vn 0.000000 -0.008971 0.999960
vn 0.000000 -0.008971 0.999960
vn 0.000000 0.000000 1.000000
vn 0.000000 0.000000 1.000000
vn 0.000000 0.000000 1.000000
vn 0.000000 0.000000 1.000000
vn 0.000000 1.000000 0.000000
vn 0.000000 1.000000 0.000000
vn 0.000000 1.000000 0.000000
vn 0.000000 1.000000 0.000000
vn 0.000000 -1.000000 0.000000
vn 0.000000 -1.000000 0.000000
vn 0.000000 -1.000000 0.000000
vn 0.000000 -1.000000 0.000000
vn 0.000000 0.000000 1.000000
vn 0.000000 0.000000 1.000000
vn 0.000000 0.000000 1.000000
vn 0.000000 0.000000 1.000000
vn 0.000000 1.000000 -0.000000
vn 0.000000 1.000000 -0.000000
vn 0.000000 1.000000 -0.000000
vn 0.000000 1.000000 -0.000000
s off
f 2/2/1 12/5/2 10/6/3 1/1/4
f 6/10/5 5/9/6 7/11/7 8/12/8
f 12/5/9 11/7/10 10/6/11
f 9/8/12 11/7/13 12/5/14
f 7/11/15 11/7/16 9/8/17 3/3/18
f 12/5/19 4/4/20 3/3/21 9/8/22
f 2/2/23 4/4/24 12/5/25
f 1/1/26 10/6/27 11/7/28 5/9/29
f 5/9/30 11/7/31 7/11/32
f 14/13/33 13/16/34 22/15/35 24/14/36
f 18/17/37 20/20/38 19/19/39 17/18/40
f 24/14/41 22/15/42 23/21/43
f 21/22/44 24/14/45 23/21/46
f 19/19/47 15/23/48 21/22/49 23/21/50
f 24/14/51 21/22/52 15/23/53 16/24/54
f 14/13/55 24/14/56 16/24/57
f 13/16/58 17/18/59 23/21/60 22/15/61
f 17/18/62 19/19/63 23/21/64
f 29/25/65 94/95/66 95/96/67 28/28/68
f 30/29/69 93/94/70 94/95/71 29/25/72
f 28/28/73 95/96/74 96/97/75 31/32/76
f 49/33/77 92/34/78 90/35/79 48/36/80
f 43/37/81 44/38/82 45/39/83 36/40/84
f 43/37/85 36/40/86 91/41/87
f 38/42/88 37/43/89 44/38/90 43/37/91
f 33/44/92 34/45/93 36/40/94 45/39/95
f 47/46/96 46/47/97 41/48/98 42/49/99
f 102/103/100 103/104/101 55/51/102 58/52/103
f 103/104/104 104/105/105 57/54/106 55/51/107
f 59/55/108 101/102/109 102/103/110 58/52/111
f 43/37/112 46/47/113 73/56/114 75/57/115
f 46/47/116 47/46/117 76/58/118 73/56/119
f 49/33/120 48/36/121 7/115/122 8/116/123
f 115/121/124 48/36/125 36/40/126
f 33/44/127 45/39/128 44/38/129 37/43/130
f 92/34/131 91/41/132 90/35/133
f 43/37/134 41/48/135 46/47/136
f 55/51/137 57/54/138 64/62/139 63/63/140
f 35/64/141 56/65/142 61/66/143 60/67/144
f 35/64/145 58/52/146 55/51/147 56/65/148
f 54/68/149 35/64/150 60/67/151 53/69/152
f 51/70/153 61/66/154 56/65/155 52/71/156
f 50/72/157 59/55/158 58/52/159 62/73/160
f 35/64/161 54/68/162 38/42/163 43/37/164
f 64/62/165 87/60/166 85/74/167 63/63/168
f 36/40/169 34/45/170 110/114/171 117/123/172 115/121/173
f 51/70/174 53/69/175 60/67/176 61/66/177
f 55/51/178 63/63/179 56/65/180
f 35/64/181 62/73/182 58/52/183
f 69/75/184 80/76/185 77/77/186 68/78/187
f 70/79/188 67/80/189 84/81/190
f 72/82/191 79/83/192 78/84/193 66/85/194
f 73/56/195 76/58/196 75/57/197
f 62/73/198 74/86/199 76/58/200 50/72/201
f 75/57/202 76/58/203 74/86/204
f 43/37/205 75/57/206 35/64/207
f 35/64/208 75/57/209 74/86/210 62/73/211
f 76/58/212 47/46/213 50/87/214
f 77/77/215 80/76/216 79/83/217
f 79/83/218 80/76/219 78/84/220
f 82/88/221 84/81/222 83/89/223
f 83/89/224 84/81/225 81/90/226
f 84/81/227 67/80/228 65/91/229 81/90/230
f 70/79/231 84/81/232 82/88/233 69/75/234
f 80/76/235 83/89/236 66/85/237 78/84/238
f 69/75/239 82/88/240 83/89/241 80/76/242
f 66/85/243 83/89/244 81/90/245 65/91/246
f 68/78/247 77/77/248 79/83/249 71/92/250
f 71/92/251 79/83/252 72/82/253
f 88/61/254 87/60/255 86/59/256
f 85/74/257 87/60/258 88/61/259
f 64/62/260 20/110/261 87/60/262
f 63/63/263 85/74/264 88/61/265 56/65/266
f 39/50/267 91/41/268 89/93/269
f 90/35/270 91/41/271 36/40/272 48/36/273
f 89/93/274 91/41/275 92/34/276
f 39/50/277 89/93/278 92/34/279 40/53/280
f 40/53/281 92/34/282 49/33/283
f 43/37/284 91/41/285 39/50/286 41/48/287
f 33/44/288 37/43/289 38/42/290 34/45/291
f 53/69/292 51/70/293 52/71/294 54/68/295
f 98/99/296 97/98/297 27/30/298 25/26/299
f 99/100/300 98/99/301 25/26/302 26/27/303
f 100/101/304 99/100/305 26/27/306 32/31/307
f 106/107/308 105/106/309 42/49/310 41/48/311
f 41/48/312 39/50/313 107/108/314 106/107/315
f 39/50/316 40/53/317 108/109/318 107/108/319
f 20/113/320 19/112/321 86/59/322 87/60/323
f 112/117/324 111/118/325 122/128/326 123/129/327
f 111/118/328 115/121/329 121/127/330 122/128/331
f 115/121/332 117/123/333 120/126/334 121/127/335
f 8/116/336 7/115/337 111/118/338 112/117/339
f 19/112/340 20/113/341 114/120/342 113/119/343
f 19/112/344 113/119/345 116/122/346 88/61/347 86/59/348
f 110/114/349 119/125/350 120/126/351 117/123/352
f 56/65/353 116/122/354 118/124/355 109/111/356 52/71/357
f 88/61/358 116/122/359 56/65/360
f 7/115/361 48/36/362 115/121/363 111/118/364
f 120/126/365 119/125/366 109/111/367 118/124/368
f 121/127/369 120/126/370 118/124/371 116/122/372
f 122/128/373 121/127/374 116/122/375 113/119/376
f 123/129/377 122/128/378 113/119/379 114/120/380
v 486.033691 14.506958 2.913940
v 13.966309 14.506958 2.913940
v 486.033691 285.192291 2.913940
v 13.966309 285.192291 2.913940
v 147.857910 285.192291 2.913940
v 147.857910 14.506958 2.913940
v 352.142212 285.192291 2.913940
v 352.142212 14.506958 2.913940
v 486.033691 253.274902 2.913940
v 352.142212 253.274902 2.913940
v 147.857910 253.274902 2.913940
v 13.966309 253.274902 2.913940
vt 0.049361 0.180946
vt 0.049340 0.180342
vt 0.049687 0.180342
vt 0.049703 0.180946
vt 0.050030 0.180946
vt 0.050019 0.180342
vt 0.050327 0.180342
vt 0.050333 0.180946
vt 0.049333 0.180158
vt 0.049682 0.180158
vt 0.050016 0.180158
vt 0.050325 0.180158
vn 0.000000 0.000000 1.000000
vn 0.000000 0.000000 1.000000
vn 0.000000 0.000000 1.000000
vn 0.000000 0.000000 1.000000
vn 0.000000 0.000000 1.000000
vn 0.000000 0.000000 1.000000
vn 0.000000 0.000000 1.000000
vn 0.000000 0.000000 1.000000
vn 0.000000 0.000000 1.000000
vn 0.000000 0.000000 1.000000
vn 0.000000 0.000000 1.000000
vn 0.000000 0.000000 1.000000
vn 0.000000 0.000000 1.000000
vn 0.000000 0.000000 1.000000
vn 0.000000 0.000000 1.000000
vn 0.000000 0.000000 1.000000
vn 0.000000 0.000000 1.000000
vn 0.000000 0.000000 1.000000
vn 0.000000 0.000000 1.000000
vn 0.000000 0.000000 1.000000
s off
f 124/130/381 132/131/382 133/132/383 131/133/384
f 129/134/385 134/135/386 135/136/387 125/137/388
f 133/132/389 132/131/390 126/138/391 130/139/392
f 134/135/393 133/132/394 130/139/395 128/140/396
f 135/136/397 134/135/398 128/140/399 127/141/400
