# This file uses centimeters as units for non-parametric coordinates.

v -53.987183 -0.044647 -107.619263
v 53.835571 -0.003174 -106.472046
v 53.835571 -3.128632 -106.472046
v -53.987183 -3.153442 -107.619263
v -53.835571 0.000000 108.425415
v 53.987183 0.000000 108.425415
v -53.835571 -3.108734 108.425415
v 53.987183 -3.108734 108.425415
v -46.559448 -3.173889 -100.105103
v 46.427612 -3.173187 -96.666138
v 46.563599 -3.131104 102.530273
v -46.421265 -3.131165 101.236938
v 41.519897 -3.173828 -99.162109
v -46.436890 -3.135925 78.776245
v -46.452759 -3.140869 55.502441
v -44.382446 -3.138641 64.694580
v 46.484253 -3.155640 -13.155029
v 46.464478 -3.161713 -41.935181
v 44.424683 -3.159485 -28.697510
vt 0.384739 0.445921
vt 0.385353 0.445922
vt 0.384739 0.445921
vt 0.385353 0.445922
vt 0.385382 0.445908
vt 0.385382 0.445908
vt 0.384768 0.445908
vt 0.384768 0.445908
vt 0.386000 0.445177
vt 0.386000 0.445177
vt 0.386000 0.445177
vt 0.386000 0.445177
vt 0.004476 0.123783
vt 0.004349 0.123993
vt 0.004294 0.123947
vt 0.003939 0.123601
vt 0.004377 0.123673
vt 0.386000 0.445177
vt 0.004444 0.123742
vt 0.386000 0.445177
vt 0.004939 0.124248
vt 0.386000 0.445177
vt 0.004560 0.124190
vt 0.386000 0.445177
vt 0.386000 0.445177
vt 0.004532 0.124180
vt 0.386000 0.445177
vt 0.004378 0.124029
vt 0.004512 0.123812
vt 0.386000 0.445177
vn 0.010639 0.000000 -0.999943
vn 0.010639 0.000000 -0.999943
vn 0.010639 0.000000 -0.999943
vn 0.010639 0.000000 -0.999943
vn -1.000000 0.000000 0.000702
vn -1.000000 0.000000 0.000702
vn -1.000000 0.000000 0.000702
vn -1.000000 0.000000 0.000702
vn 0.000000 0.000000 1.000000
vn 0.000000 0.000000 1.000000
vn 0.000000 0.000000 1.000000
vn 0.000000 0.000000 1.000000
vn 1.000000 0.000000 -0.000706
vn 1.000000 0.000000 -0.000706
vn 1.000000 0.000000 -0.000706
vn 1.000000 0.000000 -0.000706
vn 0.000224 -0.999991 -0.004334
vn 0.001764 -0.999993 -0.003211
vn 0.000201 -0.999991 -0.004351
vn -0.000022 -0.999994 0.003424
vn -0.000022 -0.999994 0.003424
vn -0.000022 -0.999994 0.003424
vn -0.000022 -0.999994 0.003424
vn -0.000064 -1.000000 0.000214
vn -0.000338 -1.000000 0.000211
vn -0.000002 -1.000000 0.000213
vn 0.000387 -1.000000 0.000202
vn 0.000531 -1.000000 0.000202
vn -0.000002 -1.000000 0.000211
vn -0.000002 -1.000000 0.000213
vn -0.000002 -1.000000 0.000211
vn 0.000531 -1.000000 0.000202
vn -0.000001 -1.000000 0.000214
vn -0.000001 -1.000000 0.000214
vn -0.000064 -1.000000 0.000214
vn 0.000224 -0.999991 -0.004334
vn 0.000201 -0.999991 -0.004351
vn 0.000174 -0.999990 -0.004371
vn 0.000174 -0.999990 -0.004371
vn -0.000338 -1.000000 0.000211
vn -0.002871 -0.999996 0.000212
vn -0.002903 -0.999996 0.000211
vn -0.002903 -0.999996 0.000211
vn -0.000003 -1.000000 0.000211
vn -0.000003 -1.000000 0.000211
vn -0.000003 -1.000000 0.000211
vn 0.000387 -1.000000 0.000202
vn -0.000002 -1.000000 0.000211
vn -0.000002 -1.000000 0.000213
vn -0.000338 -1.000000 0.000211
vn 0.000531 -1.000000 0.000202
vn 0.003130 -0.999995 0.000196
vn 0.002846 -0.999996 0.000210
vn 0.005649 -0.999984 0.000155
vn 0.003130 -0.999995 0.000196
vn 0.000531 -1.000000 0.000202
vn 0.000387 -1.000000 0.000202
vn -0.000064 -1.000000 0.000214
vn -0.002817 -0.999996 0.000214
vn -0.002871 -0.999996 0.000212
vn -0.000338 -1.000000 0.000211
vn 0.005649 -0.999984 0.000155
vn 0.000387 -1.000000 0.000202
vn 0.006286 -0.999980 0.000205
s off
f 3/3/1 4/4/2 1/2/3 2/1/4
f 4/4/5 7/5/6 5/6/7 1/2/8
f 6/7/9 5/6/10 7/5/11 8/8/12
f 2/1/13 6/7/14 8/8/15 3/3/16
f 3/3/17 10/9/18 13/18/19
f 7/5/20 12/12/21 11/11/22 8/8/23
f 14/20/24 15/22/25 16/24/26
f 18/27/27 17/25/28 19/30/29
f 16/13/30 19/14/31 17/15/32 11/16/33 12/17/34 14/19/35
f 3/3/36 13/18/37 9/10/38 4/4/39
f 15/22/40 7/5/41 4/4/42 9/10/43
f 9/21/44 13/23/45 10/26/46 18/28/47 19/14/48 16/13/49 15/29/50
f 17/25/51 8/8/52 11/11/53
f 3/3/54 8/8/55 17/25/56 18/27/57
f 14/20/58 12/12/59 7/5/60 15/22/61
f 3/3/62 18/27/63 10/9/64
