# This file uses centimeters as units for non-parametric coordinates.

v 249.999176 -2.301605 125.000000
v 249.999176 0.000000 125.000000
v 250.000641 0.000000 0.000000
v 249.999176 -2.301605 0.000000
v 124.998810 -2.301605 125.000000
v 124.998810 -2.301605 0.000000
v 124.998688 0.000000 0.000000
v 247.457489 -2.301605 2.066162
v 127.119904 -2.301605 2.066162
v 127.119904 -2.301605 122.934082
v 247.457489 -2.301605 122.934082
v 244.875519 -3.915619 4.127319
v 128.907990 -3.914490 117.027588
v 244.127655 -3.915222 120.141357
v -0.000061 -2.301605 125.000000
v -0.000061 0.000000 125.000000
v -0.000061 0.000000 0.000000
v -0.000061 -2.301605 0.000000
v 2.541595 -2.301605 2.066162
v 122.879181 -2.301605 2.066162
v 122.879181 -2.301605 122.934082
v 2.541595 -2.301605 122.934082
v 7.034241 -3.914368 7.416809
v 120.843292 -3.881927 4.710327
v 121.099579 -3.915619 120.869629
v 5.871399 -3.915222 120.141357
v 249.999176 -2.301605 250.000000
v 249.999176 0.000000 250.000000
v 124.998810 -2.301605 250.000000
v 124.998688 0.000000 250.000000
v 247.457489 -2.301605 127.066162
v 127.119904 -2.301605 127.066162
v 127.119904 -2.301605 247.934082
v 247.457489 -2.301605 247.934082
v 244.875519 -3.915619 129.127319
v 129.155792 -3.881927 129.710327
v 128.899506 -3.915619 245.869629
v -0.000061 -2.301605 250.000000
v -0.000061 0.000000 250.000000
v 2.541595 -2.301605 127.066162
v 122.879181 -2.301605 127.066162
v 122.879181 -2.301605 247.934082
v 2.541595 -2.301605 247.934082
v 5.123535 -3.915619 129.127319
v 118.523529 -3.884308 131.395264
v 121.099579 -3.915619 245.869629
v 5.871399 -3.915222 245.141357
v 75.892670 -3.915466 245.583923
v 108.180450 -3.915558 245.787964
v 92.120148 -2.301605 247.934082
v 91.178864 -3.914673 243.797729
v 120.877655 -3.886444 139.845398
v 100.896454 -3.889740 129.575317
v 135.488373 -3.915588 120.828003
v 129.142242 -3.883698 10.853149
v 134.087433 -3.886597 4.629944
v 5.242737 -3.915527 15.098083
v 26.184540 -3.909485 4.233459
v 244.422150 -3.915375 74.457031
v 244.204437 -3.915253 108.234863
v 247.457489 -2.301605 91.974854
v 241.981506 -3.914185 93.910889
v 33.075317 -3.915314 120.313232
v 54.604065 -3.915375 120.449341
v 41.790985 -2.301605 122.934082
v 43.083923 -3.914520 119.021851
v 197.296051 -3.901764 129.367065
v 167.826569 -3.893188 129.515503
v 181.411285 -2.301605 127.066162
v 181.415497 -3.897125 131.437378
v 244.157806 -3.915253 241.661255
v 230.837311 -3.915283 245.202454
vt 0.386141 0.446363
vt 0.386141 0.446379
vt 0.385909 0.446361
vt 0.386146 0.446015
vt 0.386146 0.446030
vt 0.386334 0.469992
vt 0.386614 0.491335
vt 0.386334 0.469992
vt 0.386334 0.469992
vt 0.385914 0.446013
vt 0.385914 0.446028
vt 0.386137 0.446021
vt 0.385923 0.446019
vt 0.385919 0.446355
vt 0.386132 0.446357
vt 0.385678 0.446359
vt 0.385678 0.446375
vt 0.385682 0.446011
vt 0.385682 0.446026
vt 0.386334 0.469992
vt 0.386334 0.469992
vt 0.386334 0.469992
vt 0.385905 0.446019
vt 0.385691 0.446017
vt 0.385900 0.446355
vt 0.385687 0.446353
vt 0.386614 0.491334
vt 0.386334 0.469992
vt 0.386334 0.469992
vt 0.386334 0.469992
vt 0.386334 0.469992
vt 0.386334 0.469992
vt 0.386334 0.469992
vt 0.386334 0.469992
vt 0.386141 0.446363
vt 0.386141 0.446379
vt 0.385909 0.446377
vt 0.385909 0.446361
vt 0.386146 0.446015
vt 0.386146 0.446030
vt 0.386614 0.491335
vt 0.386334 0.469992
vt 0.386334 0.469992
vt 0.386334 0.469992
vt 0.386137 0.446021
vt 0.385923 0.446019
vt 0.385914 0.446013
vt 0.385919 0.446355
vt 0.386132 0.446357
vt 0.386334 0.469992
vt 0.386334 0.469992
vt 0.386334 0.469992
vt 0.385678 0.446359
vt 0.385678 0.446375
vt 0.385682 0.446011
vt 0.385682 0.446026
vt 0.386614 0.491334
vt 0.386334 0.469992
vt 0.386334 0.469992
vt 0.386334 0.469992
vt 0.385905 0.446019
vt 0.385691 0.446017
vt 0.385900 0.446355
vt 0.385687 0.446353
vt 0.386334 0.469992
vt 0.386334 0.469992
vt 0.386334 0.469992
vt 0.386334 0.469992
vt 0.386614 0.491335
vt 0.386334 0.469992
vt 0.385846 0.446355
vt 0.386334 0.469992
vt 0.386614 0.491335
vt 0.386334 0.469992
vt 0.386614 0.491334
vt 0.386334 0.469992
vt 0.386614 0.491334
vt 0.386334 0.469992
vt 0.386334 0.469992
vt 0.386614 0.491335
vt 0.386334 0.469992
vt 0.386334 0.469992
vt 0.386334 0.469992
vt 0.386133 0.446271
vt 0.386614 0.491335
vt 0.386334 0.469992
vt 0.386334 0.469992
vt 0.385757 0.446354
vt 0.386334 0.469992
vt 0.386614 0.491335
vt 0.386334 0.469992
vt 0.386334 0.469992
vt 0.386019 0.446020
vt 0.386334 0.469992
vt 0.386614 0.491334
vt 0.386334 0.469992
vt 0.386614 0.491335
vt 0.386614 0.491335
vt 0.386334 0.469992
vt 0.386334 0.469992
vt 0.386334 0.469992
vt 0.386614 0.491334
vt 0.386614 0.491334
vt 0.386614 0.491334
vt 0.386334 0.469992
vt 0.386614 0.491335
vt 0.386614 0.491335
vt 0.386614 0.491335
vt 0.386334 0.469992
vt 0.386614 0.491335
vt 0.386614 0.491335
vt 0.386334 0.469992
vt 0.386334 0.469992
vt 0.386334 0.469992
vt 0.386614 0.491335
vt 0.386614 0.491335
vt 0.386334 0.469992
vt 0.386614 0.491334
vt 0.386614 0.491335
vt 0.386614 0.491335
vt 0.386334 0.469992
vt 0.386334 0.469992
vt 0.386614 0.491334
vt 0.386334 0.469992
vt 0.386334 0.469992
vt 0.386614 0.491335
vt 0.386614 0.491335
vt 0.386614 0.491335
vt 0.386614 0.491335
vt 0.386614 0.491335
vt 0.386614 0.491335
vt 0.386614 0.491335
vn 1.000000 -0.000319 0.000006
vn 1.000000 -0.000319 0.000006
vn 1.000000 -0.000319 0.000006
vn 1.000000 -0.000319 0.000006
vn -0.000278 -1.000000 0.000022
vn -0.000278 -1.000000 0.000022
vn -0.000278 -1.000000 0.000022
vn -0.000278 -1.000000 0.000022
vn -0.000278 -1.000000 0.000022
vn 0.000000 0.000000 -1.000000
vn 0.000000 0.000000 -1.000000
vn 0.000000 0.000000 -1.000000
vn 0.000000 0.000000 -1.000000
vn 0.000000 -1.000000 0.000000
vn 0.000000 -1.000000 0.000000
vn 0.000000 -1.000000 0.000000
vn 0.000000 -1.000000 0.000000
vn 0.000000 -1.000000 0.000000
vn 0.000000 -1.000000 0.000000
vn 0.000000 -1.000000 0.000000
vn 0.000000 -1.000000 0.000000
vn 0.000000 -1.000000 -0.000000
vn 0.000000 -1.000000 -0.000000
vn 0.000000 -1.000000 -0.000000
vn 0.000000 -1.000000 -0.000000
vn 0.000000 -1.000000 0.000000
vn 0.000000 -1.000000 0.000000
vn 0.000000 -1.000000 0.000000
vn 0.000000 -1.000000 0.000000
vn -0.001339 -0.823024 -0.568005
vn -0.001339 -0.823024 -0.568005
vn -0.001339 -0.823024 -0.568005
vn -0.001339 -0.823024 -0.568005
vn -0.642172 -0.766560 -0.000767
vn -0.642172 -0.766560 -0.000767
vn -0.642172 -0.766560 -0.000767
vn -0.642172 -0.766560 -0.000767
vn 0.001655 -0.834265 0.551361
vn 0.001655 -0.834265 0.551361
vn 0.001655 -0.834265 0.551361
vn 0.001655 -0.834265 0.551361
vn 0.441504 -0.897259 0.000791
vn 0.441504 -0.897259 0.000791
vn 0.441504 -0.897259 0.000791
vn 0.441504 -0.897259 0.000791
vn -1.000000 0.000000 0.000000
vn -1.000000 0.000000 0.000000
vn -1.000000 0.000000 0.000000
vn -1.000000 0.000000 0.000000
vn 0.000155 -1.000000 -0.000181
vn 0.000155 -1.000000 -0.000181
vn 0.000155 -1.000000 -0.000181
vn 0.000155 -1.000000 -0.000181
vn 0.000155 -1.000000 -0.000181
vn 0.000000 0.000000 -1.000000
vn 0.000000 0.000000 -1.000000
vn 0.000000 0.000000 -1.000000
vn 0.000000 0.000000 -1.000000
vn 0.000000 -1.000000 0.000000
vn 0.000000 -1.000000 0.000000
vn 0.000000 -1.000000 0.000000
vn 0.000000 -1.000000 0.000000
vn 0.000000 -1.000000 0.000000
vn 0.000000 -1.000000 0.000000
vn 0.000000 -1.000000 0.000000
vn 0.000000 -1.000000 0.000000
vn 0.000000 -1.000000 -0.000000
vn 0.000000 -1.000000 -0.000000
vn 0.000000 -1.000000 -0.000000
vn 0.000000 -1.000000 -0.000000
vn 0.000000 -1.000000 0.000000
vn 0.000000 -1.000000 0.000000
vn 0.000000 -1.000000 0.000000
vn 0.000000 -1.000000 0.000000
vn 0.001341 -0.830818 -0.556543
vn 0.001341 -0.830818 -0.556543
vn 0.001341 -0.830817 -0.556543
vn 0.001341 -0.830818 -0.556543
vn 0.641861 -0.766821 -0.000803
vn 0.641861 -0.766821 -0.000803
vn 0.641861 -0.766821 -0.000803
vn 0.641861 -0.766821 -0.000803
vn -0.473583 -0.880748 0.001319
vn -0.473583 -0.880748 0.001319
vn -0.473583 -0.880748 0.001319
vn -0.473583 -0.880748 0.001319
vn 0.000000 0.000000 1.000000
vn 0.000000 0.000000 1.000000
vn 0.000000 0.000000 1.000000
vn 0.000000 0.000000 1.000000
vn 1.000000 0.000000 0.000000
vn 1.000000 0.000000 0.000000
vn 1.000000 0.000000 0.000000
vn 1.000000 0.000000 0.000000
vn -0.000243 -1.000000 -0.000026
vn -0.000243 -1.000000 -0.000026
vn -0.000243 -1.000000 -0.000026
vn -0.000243 -1.000000 -0.000026
vn -0.000243 -1.000000 -0.000026
vn 0.000000 -1.000000 0.000000
vn 0.000000 -1.000000 0.000000
vn 0.000000 -1.000000 -0.000000
vn 0.000000 -1.000000 0.000000
vn 0.000000 -1.000000 0.000000
vn 0.000000 -1.000000 0.000000
vn 0.000000 -1.000000 0.000000
vn 0.000000 -1.000000 -0.000000
vn 0.000000 -1.000000 -0.000000
vn 0.000000 -1.000000 -0.000000
vn 0.000000 -1.000000 -0.000000
vn 0.000000 -1.000000 0.000000
vn 0.000000 -1.000000 0.000000
vn 0.000000 -1.000000 0.000000
vn 0.000000 -1.000000 0.000000
vn -0.001344 -0.807007 -0.590541
vn -0.001344 -0.807007 -0.590541
vn -0.001344 -0.807007 -0.590541
vn -0.001344 -0.807007 -0.590541
vn -0.641862 -0.766820 -0.000803
vn -0.641861 -0.766820 -0.000803
vn -0.641861 -0.766820 -0.000803
vn -0.641862 -0.766820 -0.000803
vn 0.001666 -0.832003 0.554769
vn 0.001666 -0.832003 0.554769
vn 0.001666 -0.832003 0.554769
vn 0.001666 -0.832003 0.554769
vn 0.480275 -0.877117 0.001478
vn 0.480275 -0.877117 0.001478
vn 0.480275 -0.877117 0.001478
vn 0.480275 -0.877117 0.001478
vn 0.000000 0.000000 1.000000
vn 0.000000 0.000000 1.000000
vn 0.000000 0.000000 1.000000
vn 0.000000 0.000000 1.000000
vn -1.000000 0.000000 0.000000
vn -1.000000 0.000000 0.000000
vn -1.000000 0.000000 0.000000
vn -1.000000 0.000000 0.000000
vn 0.000000 -1.000000 0.000000
vn 0.000000 -1.000000 0.000000
vn 0.000000 -1.000000 0.000000
vn 0.000000 -1.000000 0.000000
vn 0.000000 -1.000000 0.000000
vn 0.000000 -1.000000 0.000000
vn 0.000000 -1.000000 0.000000
vn 0.000000 -1.000000 0.000000
vn 0.000000 -1.000000 0.000000
vn 0.000000 -1.000000 -0.000000
vn 0.000000 -1.000000 0.000000
vn 0.000000 -1.000000 0.000000
vn 0.000000 -1.000000 0.000000
vn 0.000000 -1.000000 0.000000
vn 0.000000 -1.000000 0.000000
vn 0.032711 -0.948863 -0.313989
vn 0.032711 -0.948863 -0.313989
vn 0.032711 -0.948863 -0.313989
vn 0.272734 -0.959065 -0.076224
vn 0.272734 -0.959065 -0.076224
vn 0.272734 -0.959065 -0.076224
vn -0.001483 -0.845342 0.534223
vn -0.001483 -0.845342 0.534223
vn -0.001483 -0.845342 0.534223
vn -0.001483 -0.845342 0.534223
vn -0.479056 -0.877783 0.001514
vn -0.479055 -0.877783 0.001514
vn -0.479055 -0.877783 0.001514
vn -0.479055 -0.877783 0.001514
vn -0.001134 -0.795472 0.605989
vn -0.001134 -0.795472 0.605989
vn -0.001134 -0.795472 0.605989
vn -0.001134 -0.795472 0.605989
vn 0.041507 -0.934021 0.354798
vn 0.041507 -0.934021 0.354798
vn 0.041507 -0.934021 0.354798
vn -0.043544 -0.927385 0.371565
vn -0.043544 -0.927385 0.371565
vn -0.043544 -0.927385 0.371565
vn 0.000112 -1.000000 -0.000245
vn 0.000112 -1.000000 -0.000245
vn 0.000112 -1.000000 -0.000245
vn 0.000112 -1.000000 -0.000245
vn 0.000112 -1.000000 -0.000245
vn 0.000112 -1.000000 -0.000245
vn 0.001280 -0.821531 -0.570163
vn 0.001280 -0.821530 -0.570163
vn 0.001280 -0.821530 -0.570163
vn 0.001280 -0.821530 -0.570163
vn 0.644670 -0.764460 -0.000729
vn 0.644670 -0.764460 -0.000729
vn 0.644671 -0.764460 -0.000729
vn 0.644671 -0.764460 -0.000729
vn -0.129785 -0.965806 0.224442
vn -0.129785 -0.965806 0.224442
vn -0.129785 -0.965806 0.224442
vn -0.171864 -0.975672 -0.136115
vn -0.171864 -0.975672 -0.136115
vn -0.171864 -0.975672 -0.136115
vn -0.042250 -0.965847 -0.255646
vn -0.042250 -0.965847 -0.255646
vn -0.042250 -0.965847 -0.255646
vn -0.269806 -0.960847 -0.063072
vn -0.269806 -0.960847 -0.063072
vn -0.269806 -0.960847 -0.063072
vn 0.495317 -0.868711 0.001403
vn 0.495317 -0.868711 0.001403
vn 0.495317 -0.868711 0.001403
vn 0.495317 -0.868711 0.001403
vn 0.294304 -0.954996 0.036981
vn 0.294304 -0.954996 0.036981
vn 0.294304 -0.954996 0.036981
vn 0.268628 -0.962338 -0.041760
vn 0.268628 -0.962338 -0.041760
vn 0.268628 -0.962339 -0.041760
vn -0.045647 -0.928774 0.367825
vn -0.045647 -0.928774 0.367825
vn -0.045647 -0.928774 0.367825
vn -0.001642 -0.817438 0.576014
vn -0.001642 -0.817438 0.576014
vn -0.001642 -0.817438 0.576014
vn -0.001642 -0.817438 0.576014
vn -0.001328 -0.858364 0.513039
vn -0.001328 -0.858364 0.513039
vn -0.001328 -0.858364 0.513039
vn -0.001328 -0.858364 0.513039
vn 0.051041 -0.917250 0.395028
vn 0.051041 -0.917250 0.395028
vn 0.051041 -0.917250 0.395028
vn 0.000112 -1.000000 -0.000035
vn 0.000112 -1.000000 -0.000035
vn 0.000112 -1.000000 -0.000035
vn 0.000112 -1.000000 -0.000035
vn 0.000112 -1.000000 -0.000035
vn 0.000112 -1.000000 -0.000035
vn -0.000046 -1.000000 -0.000241
vn -0.000046 -1.000000 -0.000241
vn -0.000046 -1.000000 -0.000241
vn -0.000046 -1.000000 -0.000241
vn -0.000046 -1.000000 -0.000241
vn -0.000046 -1.000000 -0.000241
vn 0.000145 -1.000000 -0.000103
vn 0.000145 -1.000000 -0.000103
vn 0.000145 -1.000000 -0.000103
vn 0.000145 -1.000000 -0.000103
vn 0.000145 -1.000000 -0.000103
vn -0.001215 -0.847623 -0.530598
vn -0.001215 -0.847622 -0.530598
vn -0.001215 -0.847622 -0.530599
vn -0.001215 -0.847622 -0.530598
vn 0.048171 -0.938274 -0.342522
vn 0.048171 -0.938274 -0.342522
vn 0.048171 -0.938274 -0.342522
vn -0.044924 -0.938445 -0.342495
vn -0.044924 -0.938445 -0.342495
vn -0.044924 -0.938445 -0.342495
vn 0.058427 -0.973801 0.219770
vn 0.058427 -0.973801 0.219770
vn 0.058427 -0.973801 0.219770
vn -0.000096 -1.000000 -0.000204
vn -0.000096 -1.000000 -0.000204
vn -0.000096 -1.000000 -0.000204
vn -0.000096 -1.000000 -0.000204
vn -0.000096 -1.000000 -0.000204
vn 0.000000 -1.000000 0.000000
vn 0.000000 -1.000000 -0.000000
vn 0.000000 -1.000000 -0.000000
vn 0.000000 -1.000000 -0.000000
vn 0.000000 -1.000000 0.000000
vn 0.000000 -1.000000 0.000000
vn 0.000000 -1.000000 0.000000
vn 0.000000 -1.000000 0.000000
vn 0.000000 -1.000000 0.000000
vn 0.000000 -1.000000 0.000000
vn 0.000000 -1.000000 0.000000
vn 0.000000 -1.000000 -0.000000
vn 0.000000 -1.000000 -0.000000
vn 0.000000 -1.000000 0.000000
s off
f 4/4/1 3/5/2 2/2/3 1/1/4
f 62/85/5 55/77/6 56/118/7 12/131/8 59/111/9
f 3/5/10 4/4/11 6/10/12 7/11/13
f 4/4/14 8/12/15 9/13/16 6/10/17
f 6/10/18 9/13/19 10/14/20 5/3/21
f 5/3/22 10/14/23 11/15/24 1/1/25
f 1/1/26 61/84/27 8/12/28 4/4/29
f 8/20/30 12/6/31 56/78/32 9/9/33
f 9/9/34 55/117/35 13/8/36 10/21/37
f 10/21/38 54/76/39 14/112/40 11/22/41
f 11/22/42 14/112/43 60/82/44 61/83/45
f 18/18/46 15/16/47 16/17/48 17/19/49
f 24/27/50 25/108/51 64/107/52 66/90/53 58/80/54
f 17/19/55 7/11/56 6/10/57 18/18/58
f 18/18/59 6/10/60 20/23/61 19/24/62
f 6/10/63 5/3/64 21/25/65 20/23/66
f 5/3/67 15/16/68 65/88/69 21/25/70
f 15/16/71 18/18/72 19/24/73 22/26/74
f 19/31/75 20/32/76 24/114/77 58/113/78
f 20/32/79 21/33/80 25/28/81 24/114/82
f 22/34/83 19/31/84 57/79/85 26/29/86
f 27/35/87 28/36/88 30/37/89 29/38/90
f 1/39/91 2/40/92 28/36/93 27/35/94
f 72/97/95 70/95/96 67/102/97 35/128/98 71/98/99
f 5/47/100 69/93/101 32/46/102
f 5/47/103 32/46/104 33/48/105 29/38/106
f 29/38/107 33/48/108 34/49/109 27/35/110
f 27/35/111 34/49/112 31/45/113 1/39/114
f 31/50/115 35/43/116 67/91/117 69/94/118
f 32/51/119 36/42/120 37/100/121 33/52/122
f 33/52/123 37/100/124 72/99/125 34/44/126
f 34/44/127 71/96/128 35/43/129 31/50/130
f 38/53/131 29/38/132 30/37/133 39/54/134
f 15/55/135 38/53/136 39/54/137 16/56/138
f 15/55/139 5/47/140 41/61/141 40/62/142
f 5/47/143 29/38/144 42/63/145 41/61/146
f 29/38/147 50/71/148 42/63/149
f 38/53/150 15/55/151 40/62/152 43/64/153
f 53/121/154 41/66/155 45/122/156
f 41/66/157 52/74/158 45/122/159
f 48/125/160 50/72/161 43/68/162 47/59/163
f 43/68/164 40/65/165 44/60/166 47/59/167
f 42/67/168 50/72/169 49/70/170 46/58/171
f 51/124/172 50/72/173 48/125/174
f 49/70/175 50/72/176 51/124/177
f 53/75/178 45/57/179 52/123/180 46/127/181 49/126/182 51/73/183
f 40/65/184 41/66/185 53/121/186 44/60/187
f 41/66/188 42/67/189 46/58/190 52/74/191
f 10/21/192 13/8/193 54/76/194
f 56/78/195 55/117/196 9/9/197
f 19/31/198 58/113/199 23/30/200
f 57/79/201 19/31/202 23/30/203
f 61/83/204 59/81/205 12/6/206 8/20/207
f 61/83/208 62/109/209 59/81/210
f 61/83/211 60/82/212 62/109/213
f 65/89/214 66/105/215 64/87/216
f 21/33/217 65/89/218 64/87/219 25/28/220
f 63/86/221 65/89/222 22/34/223 26/29/224
f 63/86/225 66/105/226 65/89/227
f 58/80/228 66/90/229 63/106/230 26/116/231 57/115/232 23/132/233
f 54/120/234 13/119/235 55/77/236 62/85/237 60/110/238 14/7/239
f 53/75/240 51/73/241 48/69/242 47/130/243 44/129/244
f 69/94/245 68/92/246 36/42/247 32/51/248
f 69/94/249 70/101/250 68/92/251
f 69/94/252 67/91/253 70/101/254
f 72/99/255 71/96/256 34/44/257
f 37/41/258 36/104/259 68/103/260 70/95/261 72/97/262
f 29/38/263 38/53/264 43/64/265 50/71/266
f 1/39/267 31/45/268 69/93/269 5/47/270
f 1/1/271 11/15/272 61/84/273
f 65/88/274 15/16/275 22/26/276
