# This file uses centimeters as units for non-parametric coordinates.

v 120.486511 229.383667 8.413330
v 120.486511 114.009277 8.413330
v 129.513611 114.009277 8.413330
v 129.437378 229.383667 8.413330
v 120.486511 229.383667 0.000000
v 120.486511 114.009277 0.000000
v 129.513611 114.009277 0.000000
v 129.437378 229.383667 0.000000
v 7.500122 102.560303 14.999878
v 242.499939 102.560303 14.999878
v 7.500122 239.307251 14.999878
v 242.499939 239.307251 14.999878
v 12.156006 107.211548 10.167480
v 237.844177 107.211548 10.167480
v 12.156006 234.655884 10.167480
v 237.844177 234.655884 10.167480
v 21.625610 156.395386 10.167480
v 21.625610 114.009277 10.167480
v 228.374512 156.395386 10.167480
v 228.374512 165.413452 10.167480
v 21.625610 165.337280 10.167480
v 228.374512 114.009277 10.167480
v 21.625610 227.858276 10.167480
v 228.374512 227.858276 10.167480
v 21.625610 156.395386 0.000000
v 21.625610 114.009277 0.000000
v 228.374512 156.395386 0.000000
v 228.374512 165.413452 0.000000
v 21.625610 165.337280 0.000000
v 228.374512 114.009277 0.000000
v 21.625610 227.858276 0.000000
v 228.374512 227.858276 0.000000
v 12.156006 107.211548 17.040527
v 237.844177 107.211548 17.040527
v 7.500549 102.560303 17.040527
v 242.499573 102.560303 17.040527
v 12.156006 234.655884 17.040527
v 7.500549 239.307251 17.040527
v 242.499573 239.307251 17.040527
v 237.844177 234.655884 17.040527
v 137.154175 228.866455 10.167603
v 161.692383 228.866455 10.167480
v 150.771362 231.001953 10.167480
v 151.271118 228.866455 8.739868
v 228.903870 184.122681 10.167480
v 231.286194 176.279663 10.167480
v 228.903870 176.154053 8.789429
v 67.679260 165.354126 10.167480
v 39.018066 165.343628 10.167480
v 49.951355 165.347656 8.484741
v 50.807007 163.601440 10.167480
v 121.005798 132.815796 8.413330
v 123.502563 124.962646 8.413330
v 121.005798 124.905151 6.448730
v 0.000000 0.000000 14.999878
v 0.000000 278.528320 14.999878
v 0.000000 278.528320 0.000000
v 0.000000 0.000000 0.000000
v 0.000000 8.723389 0.000000
v 0.000000 8.723389 14.999878
v 249.999268 278.528320 14.999878
v 249.999268 8.723389 14.999878
v 249.999268 0.000000 14.999878
v 249.999268 0.000000 0.000000
v 249.999268 6.545044 16.360474
v 249.999268 2.178345 16.360474
v 0.000000 6.545044 16.360474
v 0.000000 2.178345 16.360474
v 249.999268 299.700073 0.000000
v 249.999268 299.700073 14.999878
v 0.000000 299.700073 0.000000
v 0.000000 299.700073 14.999878
v 249.999268 280.571533 16.360474
v 249.999268 296.784180 16.360474
v 249.999268 2.178345 0.000000
v 249.999268 8.723389 0.000000
v 0.000000 280.571533 16.360474
v 0.000000 296.784180 16.360474
v 249.999268 278.528320 0.000000
vt 0.102815 0.253173
vt 0.102815 0.253173
vt 0.102815 0.253173
vt 0.102815 0.253173
vt 0.102815 0.253173
vt 0.102815 0.253173
vt 0.102815 0.253173
vt 0.102815 0.253173
vt 0.102815 0.253173
vt 0.062763 0.151154
vt 0.063628 0.151381
vt 0.063618 0.151394
vt 0.062746 0.151163
vt 0.063692 0.150768
vt 0.063681 0.150774
vt 0.062747 0.150664
vt 0.062728 0.150667
vt 0.063639 0.151421
vt 0.062733 0.151176
vt 0.063710 0.150752
vt 0.062713 0.150646
vt 0.102815 0.253173
vt 0.102815 0.253173
vt 0.102815 0.253173
vt 0.102815 0.253173
vt 0.102815 0.253173
vt 0.102815 0.253173
vt 0.102815 0.253173
vt 0.102815 0.253173
vt 0.102815 0.253173
vt 0.102815 0.253173
vt 0.102815 0.253173
vt 0.102815 0.253173
vt 0.102815 0.253173
vt 0.102815 0.253173
vt 0.102815 0.253173
vt 0.102815 0.253173
vt 0.102815 0.253173
vt 0.102815 0.253173
vt 0.102815 0.253173
vt 0.102815 0.253173
vt 0.102815 0.253173
vt 0.102815 0.253173
vt 0.102815 0.253173
vt 0.102815 0.253173
vt 0.102815 0.253173
vt 0.102815 0.253173
vt 0.102815 0.253173
vt 0.102815 0.253173
vt 0.063642 0.151417
vt 0.062738 0.151173
vt 0.063713 0.150750
vt 0.062718 0.150645
vt 0.102815 0.253173
vt 0.102815 0.253173
vt 0.102815 0.253173
vt 0.102815 0.253173
vt 0.102815 0.253173
vt 0.063215 0.173896
vt 0.063209 0.174661
vt 0.063213 0.174664
vt 0.063219 0.173897
vt 0.063124 0.151994
vt 0.063124 0.151994
vt 0.063124 0.151994
vt 0.063124 0.151994
vt 0.063381 0.150737
vt 0.063381 0.150737
vt 0.063381 0.150737
vt 0.063381 0.150737
vt 0.063124 0.151994
vt 0.063124 0.151994
vt 0.063124 0.151994
vt 0.063124 0.151994
vt 0.063124 0.151994
vt 0.063124 0.151994
vt 0.063124 0.151994
vt 0.063381 0.150737
vt 0.063381 0.150737
vt 0.063381 0.150737
vt 0.063381 0.150737
vt 0.063381 0.150737
vt 0.063381 0.150737
vt 0.063381 0.150737
vt 0.063124 0.151994
vt 0.062940 0.174675
vt 0.062940 0.174687
vt 0.062937 0.174684
vt 0.062937 0.174676
vt 0.062940 0.174693
vt 0.062937 0.174690
vt 0.062944 0.173882
vt 0.062941 0.173874
vt 0.062944 0.173874
vt 0.062940 0.174669
vt 0.062949 0.174414
vt 0.063207 0.174411
vt 0.062944 0.173898
vt 0.062951 0.174040
vt 0.063210 0.174038
vt 0.062944 0.173892
vt 0.062941 0.173897
vn 0.000000 0.000000 1.000000
vn 0.000000 0.000000 1.000000
vn 0.000000 0.000000 1.000000
vn -0.996774 0.000000 0.080266
vn -0.996774 0.000000 0.080266
vn -0.996773 0.000000 0.080266
vn 1.000000 0.000661 0.000000
vn 1.000000 0.000661 0.000000
vn 1.000000 0.000661 0.000000
vn 1.000000 0.000661 0.000000
vn 0.000000 1.000000 0.000000
vn 0.000000 1.000000 0.000000
vn 0.000000 1.000000 0.000000
vn 0.000000 1.000000 0.000000
vn 1.000000 0.000000 0.000000
vn 1.000000 0.000000 0.000000
vn 1.000000 0.000000 0.000000
vn 1.000000 0.000000 0.000000
vn -1.000000 0.000000 0.000000
vn -1.000000 0.000000 0.000000
vn -1.000000 0.000000 0.000000
vn -1.000000 0.000000 0.000000
vn 0.000000 -1.000000 0.000000
vn 0.000000 -1.000000 0.000000
vn 0.000000 -1.000000 0.000000
vn 0.000000 -1.000000 0.000000
vn 0.000000 0.000000 1.000000
vn 0.000000 0.000000 1.000000
vn 0.000000 0.000000 1.000000
vn 0.000000 0.000000 1.000000
vn -0.000000 0.000000 1.000000
vn -0.000000 0.000000 1.000000
vn -0.000000 0.000000 1.000000
vn -0.000000 0.000000 1.000000
vn 0.000000 0.000000 1.000000
vn 0.000000 0.000000 1.000000
vn 0.000000 0.000000 1.000000
vn 0.000000 0.000000 1.000000
vn 0.000000 0.000000 1.000000
vn 0.000000 0.000000 1.000000
vn 0.000000 0.000000 1.000000
vn 0.000000 0.000000 1.000000
vn 0.000000 0.000000 1.000000
vn 0.000000 0.000000 1.000000
vn 0.000000 0.000000 1.000000
vn 0.000000 0.000000 1.000000
vn 0.000000 0.000000 1.000000
vn 0.000000 0.000000 1.000000
vn 0.000000 0.000000 1.000000
vn 0.000000 0.000000 1.000000
vn 0.000000 0.000000 1.000000
vn 0.000000 0.000000 1.000000
vn -0.000000 0.000000 1.000000
vn -0.000000 0.000000 1.000000
vn -0.000000 0.000000 1.000000
vn -0.000000 0.000000 1.000000
vn -0.000000 0.000000 1.000000
vn 0.000000 0.000000 1.000000
vn 0.000000 0.000000 1.000000
vn 0.000000 0.000000 1.000000
vn 0.000000 0.000000 1.000000
vn -0.000000 0.000000 1.000000
vn -0.000000 0.000000 1.000000
vn -0.000000 0.000000 1.000000
vn -0.000000 0.000000 1.000000
vn -1.000000 0.000000 0.000000
vn -1.000000 0.000000 0.000000
vn -1.000000 0.000000 0.000000
vn -1.000000 0.000000 0.000000
vn 0.000000 1.000000 0.000000
vn 0.000000 1.000000 0.000000
vn 0.000000 1.000000 0.000000
vn 0.000000 1.000000 0.000000
vn 1.000000 0.000000 0.000000
vn 1.000000 0.000000 0.000000
vn 1.000000 0.000000 0.000000
vn 1.000000 0.000000 0.000000
vn 0.000000 -1.000000 0.000000
vn 0.000000 -1.000000 0.000000
vn 0.000000 -1.000000 0.000000
vn 0.000000 -1.000000 0.000000
vn 0.000000 -0.993413 0.114593
vn 0.000000 -0.993413 0.114593
vn 0.000000 -0.993413 0.114593
vn -0.998191 0.000000 0.060118
vn -0.998191 0.000000 0.060118
vn -0.998191 0.000000 0.060118
vn -0.000368 1.000000 0.000009
vn -0.000368 1.000000 0.000009
vn -0.000368 1.000000 0.000009
vn 1.000000 0.000000 0.000000
vn 1.000000 0.000000 0.000000
vn 1.000000 0.000000 0.000000
vn 1.000000 0.000000 0.000000
vn 0.000000 -1.000000 -0.000002
vn 0.000000 -1.000000 -0.000002
vn 0.000000 -1.000000 -0.000002
vn 0.000000 -1.000000 -0.000002
vn -1.000000 0.000000 0.000209
vn -1.000000 0.000000 0.000209
vn -1.000000 0.000000 0.000209
vn -1.000000 0.000000 0.000209
vn 1.000000 0.000000 0.000179
vn 1.000000 0.000000 0.000179
vn 1.000000 0.000000 0.000179
vn 1.000000 0.000000 0.000179
vn 0.000000 1.000000 0.000005
vn 0.000000 1.000000 0.000005
vn 0.000000 1.000000 0.000005
vn 0.000000 1.000000 0.000005
vn 0.084692 -0.539996 0.837396
vn 0.084692 -0.539996 0.837396
vn 0.084692 -0.539996 0.837396
vn -0.111496 -0.570196 0.813908
vn -0.111496 -0.570196 0.813908
vn -0.111496 -0.570196 0.813908
vn -0.489270 -0.148616 0.859377
vn -0.489270 -0.148616 0.859377
vn -0.489270 -0.148616 0.859377
vn -0.501471 0.134373 0.854676
vn -0.501471 0.134373 0.854676
vn -0.501471 0.134373 0.854676
vn 0.105872 0.716412 0.689598
vn 0.105872 0.716412 0.689598
vn 0.105872 0.716412 0.689598
vn -0.070034 0.674187 0.735233
vn -0.070034 0.674187 0.735233
vn -0.070034 0.674187 0.735233
vn -0.604128 -0.192071 0.773394
vn -0.604128 -0.192071 0.773394
vn -0.604128 -0.192071 0.773394
vn -0.611930 0.168497 0.772755
vn -0.611930 0.168497 0.772755
vn -0.611930 0.168497 0.772755
vn -0.000000 0.000000 1.000000
vn -0.000000 0.000000 1.000000
vn -0.000000 0.000000 1.000000
vn -0.000000 0.000000 1.000000
vn 0.000000 0.000000 1.000000
vn 0.000000 0.000000 1.000000
vn 0.000000 0.000000 1.000000
vn 0.000000 0.000000 1.000000
vn 0.000000 0.000000 1.000000
vn 0.000000 0.000000 1.000000
vn 0.000000 0.000000 1.000000
vn -0.000000 0.000000 1.000000
vn -0.000000 0.000000 1.000000
vn -0.000000 0.000000 1.000000
vn -0.000000 0.000014 1.000000
vn -0.000000 0.000014 1.000000
vn -0.000000 0.000014 1.000000
vn -0.000000 0.000014 1.000000
vn 0.000000 0.000000 1.000000
vn 0.000000 0.000000 1.000000
vn 0.000000 0.000000 1.000000
vn 0.000000 0.000000 1.000000
vn 0.000000 0.000000 1.000000
vn 0.000000 0.000000 1.000000
vn 0.000000 0.000000 1.000000
vn 0.000000 0.000000 1.000000
vn 0.000000 0.000000 1.000000
vn 0.000000 0.000000 1.000000
vn -0.000366 1.000000 0.000003
vn -0.000366 1.000000 0.000003
vn -0.000366 1.000000 0.000003
vn -0.000366 1.000000 0.000003
vn -0.000369 1.000000 0.000007
vn -0.000369 1.000000 0.000007
vn -0.000369 1.000000 0.000007
vn -0.000369 1.000000 0.000007
vn -0.998788 0.049227 0.000000
vn -0.998788 0.049227 0.000000
vn -0.998788 0.049227 0.000000
vn -0.999920 -0.010429 0.007198
vn -0.999920 -0.010429 0.007198
vn -0.999920 -0.010429 0.007198
vn -0.999920 -0.010429 0.007198
vn -0.013295 -0.999840 0.011948
vn -0.013295 -0.999840 0.011948
vn -0.013295 -0.999840 0.011948
vn -0.013295 -0.999840 0.011948
vn 0.007881 -0.999923 0.009597
vn 0.007881 -0.999923 0.009597
vn 0.007881 -0.999923 0.009597
vn 0.007881 -0.999923 0.009597
vn -0.998866 0.047605 0.000000
vn -0.998866 0.047605 0.000000
vn -0.998866 0.047605 0.000000
vn -0.999980 -0.005042 0.003844
vn -0.999980 -0.005042 0.003844
vn -0.999980 -0.005042 0.003844
vn -0.999980 -0.005042 0.003844
vn -1.000000 0.000000 0.000000
vn -1.000000 0.000000 0.000000
vn -1.000000 0.000000 0.000000
vn -1.000000 0.000000 0.000000
vn -1.000000 0.000000 0.000000
vn -1.000000 0.000000 0.000000
vn -1.000000 0.000000 0.000000
vn -1.000000 0.000000 0.000000
vn 0.000000 1.000000 0.000000
vn 0.000000 1.000000 0.000000
vn 0.000000 1.000000 0.000000
vn 0.000000 1.000000 0.000000
vn 0.000000 -1.000000 0.000000
vn 0.000000 -1.000000 0.000000
vn 0.000000 -1.000000 0.000000
vn 0.000000 -1.000000 0.000000
vn 0.000000 -0.529755 0.848150
vn 0.000000 -0.529755 0.848150
vn 0.000000 -0.529755 0.848150
vn 0.000000 -0.529755 0.848150
vn 0.000000 0.529755 0.848150
vn 0.000000 0.529755 0.848150
vn 0.000000 0.529755 0.848150
vn 0.000000 0.529755 0.848150
vn 0.000000 0.422847 0.906201
vn 0.000000 0.422847 0.906201
vn 0.000000 0.422847 0.906201
vn -1.000000 0.000000 0.000000
vn -1.000000 0.000000 0.000000
vn -1.000000 0.000000 0.000000
vn 0.000000 -0.554262 0.832342
vn 0.000000 -0.554262 0.832342
vn 0.000000 -0.554262 0.832342
vn 0.000000 -0.554262 0.832342
vn 0.000000 0.422847 0.906201
vn 0.000000 0.422847 0.906201
vn 0.000000 0.422847 0.906201
vn -1.000000 0.000000 0.000000
vn -1.000000 0.000000 0.000000
vn -1.000000 0.000000 0.000000
vn 0.000000 0.000000 1.000000
vn 0.000000 0.000000 1.000000
vn 0.000000 0.000000 1.000000
vn 0.000000 0.000000 1.000000
vn -1.000000 0.000000 0.000000
vn -1.000000 0.000000 0.000000
vn -1.000000 0.000000 0.000000
vn 1.000000 0.000000 0.000000
vn 1.000000 0.000000 0.000000
vn 1.000000 0.000000 0.000000
vn 1.000000 0.000000 0.000000
vn 1.000000 0.000000 0.000000
vn 1.000000 0.000000 0.000000
vn 1.000000 0.000000 0.000000
vn 1.000000 0.000000 0.000000
vn 1.000000 0.000000 0.000000
vn 0.000000 0.000000 1.000000
vn 0.000000 0.000000 1.000000
vn 0.000000 0.000000 1.000000
vn 0.000000 0.000000 1.000000
vn 0.000000 0.000000 1.000000
vn 0.000000 0.000000 1.000000
vn 0.000000 0.000000 1.000000
vn 0.000000 0.000000 1.000000
vn 0.000000 0.000000 1.000000
vn 0.000000 0.000000 1.000000
vn 0.000000 0.000000 1.000000
vn 0.000000 0.000000 1.000000
vn 0.000000 0.000000 1.000000
vn 0.000000 0.000000 1.000000
vn 0.000000 0.000000 1.000000
vn 0.000000 0.000000 1.000000
vn 0.000000 0.000000 1.000000
vn 0.000000 0.000000 1.000000
vn 0.000000 0.000000 1.000000
vn 0.000000 0.000000 1.000000
vn -1.000000 0.000000 0.000000
vn -1.000000 0.000000 0.000000
vn -1.000000 0.000000 0.000000
vn -1.000000 0.000000 0.000000
vn -1.000000 0.000000 0.000000
vn -1.000000 0.000000 0.000000
vn -1.000000 0.000000 0.000000
vn 1.000000 0.000000 0.000000
vn 1.000000 0.000000 0.000000
vn 1.000000 0.000000 0.000000
vn 1.000000 0.000000 0.000000
vn 1.000000 0.000000 0.000000
vn 1.000000 0.000000 0.000000
vn 1.000000 0.000000 0.000000
vn 1.000000 0.000000 0.000000
vn 1.000000 0.000000 0.000000
vn 1.000000 0.000000 0.000000
vn 1.000000 0.000000 0.000000
vn 1.000000 0.000000 0.000000
s off
f 3/1/1 53/2/2 2/3/3
f 6/4/4 54/5/5 5/6/6
f 4/7/7 3/1/8 7/8/9 8/9/10
f 14/10/11 13/11/12 33/12/13 34/13/14
f 13/11/15 15/14/16 37/15/17 33/12/18
f 16/16/19 14/10/20 34/13/21 40/17/22
f 15/14/23 16/16/24 40/17/25 37/15/26
f 34/13/27 33/12/28 35/18/29 36/19/30
f 33/12/31 37/15/32 38/20/33 35/18/34
f 36/19/35 39/21/36 40/17/37 34/13/38
f 39/21/39 38/20/40 37/15/41 40/17/42
f 15/22/43 13/23/44 18/24/45 17/25/46 21/26/47 23/27/48
f 18/24/49 13/23/50 14/28/51 22/29/52
f 20/30/53 19/31/54 22/29/55 14/28/56 46/32/57
f 16/33/58 43/34/59 42/35/60 24/36/61
f 17/25/62 51/37/63 49/38/64 21/26/65
f 22/29/66 19/31/67 27/39/68 30/40/69
f 18/24/70 22/29/71 30/40/72 26/41/73
f 17/25/74 18/24/75 26/41/76 25/42/77
f 27/39/78 19/31/79 17/25/80 25/42/81
f 31/43/82 32/44/83 44/45/84
f 28/46/85 47/47/86 32/44/87
f 29/48/88 50/49/89 28/46/90
f 23/27/91 21/26/92 29/48/93 31/43/94
f 9/50/95 10/51/96 36/19/97 35/18/98
f 11/52/99 9/50/100 35/18/101 38/20/102
f 10/51/103 12/53/104 39/21/105 36/19/106
f 12/53/107 11/52/108 38/20/109 39/21/110
f 44/45/111 43/34/112 41/54/113
f 42/35/114 43/34/115 44/45/116
f 47/47/117 46/32/118 45/55/119
f 20/30/120 46/32/121 47/47/122
f 49/38/123 51/37/124 50/49/125
f 50/49/126 51/37/127 48/56/128
f 54/5/129 53/2/130 52/57/131
f 2/3/132 53/2/133 54/5/134
f 20/30/135 48/56/136 51/37/137 19/31/138
f 19/31/139 51/37/140 17/25/141
f 46/32/142 16/33/143 24/36/144 45/55/145
f 46/32/146 14/28/147 16/33/148
f 15/22/149 23/27/150 41/54/151 43/34/152
f 15/22/153 43/34/154 16/33/155
f 53/2/156 4/7/157 1/58/158 52/57/159
f 3/1/160 4/7/161 53/2/162
f 21/26/163 49/38/164 50/49/165 29/48/166
f 28/46/167 50/49/168 48/56/169 20/30/170
f 20/30/171 47/47/172 28/46/173
f 32/44/174 47/47/175 45/55/176 24/36/177
f 44/45/178 32/44/179 24/36/180 42/35/181
f 31/43/182 44/45/183 41/54/184 23/27/185
f 6/4/186 2/3/187 54/5/188
f 5/6/189 54/5/190 52/57/191 1/58/192
f 57/59/193 59/60/194 60/61/195 56/62/196
f 58/63/197 55/64/198 60/65/199 59/66/200
f 71/67/201 72/68/202 70/69/203 69/70/204
f 55/64/205 58/63/206 64/71/207 63/72/208
f 55/64/209 63/72/210 66/73/211 68/74/212
f 67/75/213 65/76/214 62/77/215 60/65/216
f 78/78/217 74/79/218 72/68/219
f 57/80/220 56/81/221 77/82/222
f 56/81/223 61/83/224 73/84/225 77/82/226
f 70/69/227 72/68/228 74/79/229
f 60/65/230 55/64/231 67/75/232
f 65/85/233 67/75/234 68/74/235 66/73/236
f 67/75/237 55/64/238 68/74/239
f 61/98/240 70/94/241 74/92/242 73/101/243
f 76/89/244 62/95/245 63/90/246 64/91/247 75/88/248
f 60/61/249 62/95/250 10/96/251 9/97/252
f 62/95/253 61/98/254 12/99/255 10/96/256
f 61/98/257 56/62/258 11/100/259 12/99/260
f 56/62/261 60/61/262 9/97/263 11/100/264
f 73/84/265 74/79/266 78/78/267 77/82/268
f 57/80/269 77/82/270 78/78/271 71/67/272
f 71/67/273 78/78/274 72/68/275
f 62/95/276 76/89/277 79/102/278 61/98/279
f 63/90/280 62/95/281 65/86/282 66/87/283
f 69/93/284 70/94/285 61/98/286 79/102/287
v 21.625610 114.009277 2.033569
v 228.373718 114.009277 2.033569
v 21.625610 227.858032 2.033569
v 228.373718 227.858032 2.033569
vt 0.050563 0.181363
vt 0.050560 0.181784
vt 0.049569 0.181777
vt 0.049563 0.181356
vn 0.000000 0.000000 1.000000
vn 0.000000 0.000000 1.000000
vn 0.000000 0.000000 1.000000
vn 0.000000 0.000000 1.000000
s off
f 82/103/288 80/104/289 81/105/290 83/106/291
