# This file uses centimeters as units for non-parametric coordinates.

v 67.156250 6.160339 17.040771
v 67.156250 6.160339 10.167480
v 182.843811 6.160339 17.040771
v 182.843811 6.160339 10.167480
v 67.156250 293.539734 17.040771
v 67.156250 293.539734 10.167480
v 182.843811 293.539734 17.040771
v 182.843811 293.539734 10.167480
v 76.625854 235.633972 10.167480
v 76.625854 12.958130 10.167480
v 173.374207 235.633972 10.167480
v 173.374207 244.652039 10.167480
v 76.625854 244.575867 10.167480
v 173.374207 12.958130 10.167480
v 76.625854 286.741943 10.167480
v 173.374207 286.741943 10.167480
v 76.625854 235.633972 0.000000
v 76.625854 12.958130 0.000000
v 173.374207 235.633972 0.000000
v 173.374207 244.652039 0.000000
v 76.625854 244.575867 0.000000
v 173.374207 12.958130 0.000000
v 76.625854 286.741943 0.000000
v 173.374207 286.741943 0.000000
v 67.034119 239.666870 17.040771
v 67.034119 218.648254 17.040771
v 65.317871 233.019470 17.040771
v 67.034119 233.318848 15.820068
v 182.843811 76.443115 17.040771
v 182.843811 100.155518 17.040771
v 184.805603 90.476318 17.040771
v 182.843811 89.862000 14.806519
v 160.437561 243.628479 10.167480
v 135.730408 243.603455 10.167480
v 147.106201 243.617920 8.409424
v 147.798462 241.812378 10.167480
v 89.062561 287.606750 10.167480
v 116.760681 287.606750 10.167480
v 100.254150 289.206543 10.167480
v 99.713806 287.606750 7.738403
v 75.557617 94.120605 10.167603
v 75.557617 116.125549 10.167603
v 75.557617 103.618896 8.818726
v 73.486145 104.428711 10.167480
v 62.500000 1.508972 17.040771
v 187.500000 1.508972 17.040771
v 62.500000 298.191101 17.040771
v 187.500000 298.191101 17.040771
v 188.879333 0.000000 14.999878
v 61.120667 0.000000 14.999878
v 61.120667 299.700073 14.999878
v 188.879333 299.700073 14.999878
v 61.120667 299.700073 0.000000
v 61.120667 0.000000 0.000000
v 188.879333 0.000000 0.000000
v 188.879333 299.700073 0.000000
v 0.000000 0.000000 14.999878
v 0.000000 262.721741 14.999878
v 0.000000 262.721741 0.000000
v 0.000000 0.000000 0.000000
v 0.000000 68.373657 0.000000
v 0.000000 68.373657 14.999878
v 249.999268 262.721741 14.999878
v 249.999268 68.373657 14.999878
v 249.999268 0.000000 14.999878
v 249.999268 0.000000 0.000000
v 249.999268 66.195129 16.360474
v 249.999268 2.178345 16.360474
v 0.000000 66.195129 16.360474
v 0.000000 2.178345 16.360474
v 249.999268 299.700073 0.000000
v 249.999268 299.700073 14.999878
v 0.000000 299.700073 0.000000
v 0.000000 299.700073 14.999878
v 249.999268 264.765015 16.360474
v 249.999268 296.784302 16.360474
v 249.999268 2.178345 0.000000
v 249.999268 68.373657 0.000000
v 0.000000 264.765015 16.360474
v 0.000000 296.784302 16.360474
v 249.999268 262.721741 0.000000
v 61.120728 262.721741 14.999878
v 62.562500 264.765015 16.360474
v 62.562500 296.784302 16.360229
v 61.120728 299.700073 14.999878
v 61.120728 299.700073 0.000000
v 188.879333 262.721680 14.999878
v 187.437561 264.765015 16.360474
v 187.437561 296.784302 16.360229
v 188.879333 299.700073 14.999878
v 188.879333 299.700073 0.000000
v 61.120667 68.373657 14.999878
v 62.562439 66.194885 16.360474
v 62.562439 2.178284 16.360474
v 61.120667 0.000000 14.999878
v 61.120667 0.000000 0.000122
v 188.879333 68.373657 14.999878
v 187.437561 66.195129 16.360474
v 187.437561 2.178345 16.360474
v 188.879333 0.000061 14.999878
v 188.879333 0.000000 0.000000
vt 0.063445 0.150875
vt 0.063459 0.150890
vt 0.062734 0.151031
vt 0.062726 0.151014
vt 0.063446 0.150090
vt 0.063453 0.150193
vt 0.062718 0.150869
vt 0.062648 0.150174
vt 0.063461 0.150099
vt 0.062656 0.150185
vt 0.063484 0.150908
vt 0.062704 0.151062
vt 0.063467 0.150198
vt 0.063489 0.150062
vt 0.062616 0.150153
vt 0.062699 0.150865
vt 0.102815 0.253173
vt 0.102815 0.253173
vt 0.102815 0.253173
vt 0.102815 0.253173
vt 0.102815 0.253173
vt 0.102815 0.253173
vt 0.102815 0.253173
vt 0.102815 0.253173
vt 0.102815 0.253173
vt 0.102815 0.253173
vt 0.102815 0.253173
vt 0.102815 0.253173
vt 0.102815 0.253173
vt 0.102815 0.253173
vt 0.102815 0.253173
vt 0.102815 0.253173
vt 0.102815 0.253173
vt 0.102815 0.253173
vt 0.102815 0.253173
vt 0.102815 0.253173
vt 0.102815 0.253173
vt 0.102815 0.253173
vt 0.102815 0.253173
vt 0.102815 0.253173
vt 0.102815 0.253173
vt 0.102815 0.253173
vt 0.102815 0.253173
vt 0.102815 0.253173
vt 0.063461 0.150257
vt 0.063461 0.150159
vt 0.062715 0.150828
vt 0.062726 0.150945
vt 0.102815 0.253173
vt 0.102815 0.253173
vt 0.102815 0.253173
vt 0.102815 0.253173
vt 0.063330 0.151408
vt 0.063627 0.150873
vt 0.063638 0.150876
vt 0.063335 0.151408
vt 0.063570 0.150408
vt 0.063574 0.150410
vt 0.063415 0.150901
vt 0.063418 0.150902
vt 0.063786 0.149607
vt 0.063787 0.149564
vt 0.063330 0.149562
vt 0.063338 0.149605
vt 0.063794 0.150532
vt 0.063793 0.150562
vt 0.063200 0.150562
vt 0.063184 0.150531
vt 0.063217 0.173939
vt 0.063217 0.174494
vt 0.063218 0.174500
vt 0.063219 0.173943
vt 0.063124 0.151994
vt 0.063124 0.151994
vt 0.063124 0.151994
vt 0.063124 0.151994
vt 0.063381 0.150737
vt 0.063381 0.150737
vt 0.063381 0.150737
vt 0.063381 0.150737
vt 0.063124 0.151994
vt 0.063124 0.151994
vt 0.063124 0.151994
vt 0.063124 0.151994
vt 0.063124 0.151994
vt 0.063124 0.151994
vt 0.063124 0.151994
vt 0.063124 0.151994
vt 0.063124 0.151994
vt 0.063124 0.151994
vt 0.063381 0.150737
vt 0.063381 0.150737
vt 0.063381 0.150737
vt 0.063381 0.150737
vt 0.063381 0.150737
vt 0.063381 0.150737
vt 0.063124 0.151994
vt 0.063124 0.151994
vt 0.063124 0.151994
vt 0.063124 0.151994
vt 0.062941 0.174514
vt 0.062941 0.174687
vt 0.062940 0.174681
vt 0.062940 0.174513
vt 0.062941 0.174693
vt 0.062940 0.174687
vt 0.062939 0.173886
vt 0.062938 0.173874
vt 0.062939 0.173877
vt 0.062941 0.174508
vt 0.062939 0.173944
vt 0.062938 0.173945
vt 0.063381 0.150737
vt 0.062939 0.173949
vt 0.062761 0.173851
vt 0.062762 0.174830
vt 0.062541 0.174834
vt 0.062536 0.173855
vt 0.063166 0.174821
vt 0.063157 0.173846
vt 0.063366 0.173842
vt 0.063363 0.174817
vt 0.063381 0.150737
vt 0.063381 0.150737
vt 0.063381 0.150737
vt 0.063381 0.150737
vt 0.063381 0.150737
vt 0.063381 0.150737
vt 0.063381 0.150737
vt 0.063381 0.150737
vt 0.063381 0.150737
vt 0.063381 0.150737
vt 0.063124 0.151994
vt 0.063124 0.151994
vt 0.063124 0.151994
vt 0.063124 0.151994
vt 0.063124 0.151994
vt 0.063124 0.151994
vn 0.000000 1.000000 0.000000
vn 0.000000 1.000000 0.000000
vn 0.000000 1.000000 0.000000
vn 0.000000 1.000000 0.000000
vn 0.999767 0.000000 0.021601
vn 0.999767 0.000000 0.021601
vn 0.999767 0.000000 0.021601
vn -1.000000 0.000000 0.000000
vn -1.000000 0.000000 0.000000
vn -1.000000 0.000000 0.000000
vn 0.000000 -1.000000 0.000000
vn 0.000000 -1.000000 0.000000
vn 0.000000 -1.000000 0.000000
vn 0.000000 -1.000000 0.000000
vn 0.000000 0.000000 1.000000
vn 0.000000 0.000000 1.000000
vn 0.000000 0.000000 1.000000
vn 0.000000 0.000000 1.000000
vn 0.000000 0.000000 1.000000
vn 0.000000 0.000000 1.000000
vn 0.000000 0.000000 1.000000
vn 0.000000 0.000000 1.000000
vn 0.000000 0.000000 1.000000
vn 0.000000 0.000000 1.000000
vn 0.000000 0.000000 1.000000
vn 0.000000 0.000000 1.000000
vn 0.000000 0.000000 1.000000
vn 0.000000 0.000000 1.000000
vn 0.000000 0.000000 1.000000
vn 0.000000 0.000000 1.000000
vn 0.000000 0.000000 1.000000
vn 0.000000 0.000000 1.000000
vn 0.000000 0.000000 1.000000
vn 0.000000 0.000000 1.000000
vn 0.000000 0.000000 1.000000
vn -0.000000 0.000000 1.000000
vn -0.000000 0.000000 1.000000
vn -0.000000 0.000000 1.000000
vn -0.000000 0.000000 1.000000
vn -0.000000 0.000000 1.000000
vn -0.000000 0.000000 1.000000
vn 0.000000 0.000000 1.000000
vn 0.000000 0.000000 1.000000
vn 0.000000 0.000000 1.000000
vn 0.000000 0.000000 1.000000
vn 0.000000 0.000000 1.000000
vn 0.000000 0.000000 1.000000
vn -1.000000 0.000000 0.000000
vn -1.000000 0.000000 0.000000
vn -1.000000 0.000000 0.000000
vn -1.000000 0.000000 0.000000
vn 0.000000 1.000000 0.000000
vn 0.000000 1.000000 0.000000
vn 0.000000 1.000000 0.000000
vn 0.000000 1.000000 0.000000
vn 0.999881 0.011928 0.009838
vn 0.999880 0.011928 0.009838
vn 0.999881 0.011928 0.009838
vn 0.999881 0.011928 0.009838
vn 0.000000 -1.000000 0.000000
vn 0.000000 -1.000000 0.000000
vn 0.000000 -1.000000 0.000000
vn 0.000000 -1.000000 0.000000
vn 0.041055 -0.998554 0.034716
vn 0.041055 -0.998554 0.034716
vn 0.041055 -0.998554 0.034716
vn 0.041055 -0.998554 0.034716
vn -1.000000 0.000000 0.000000
vn -1.000000 0.000000 0.000000
vn -1.000000 0.000000 0.000000
vn -1.000000 0.000000 0.000000
vn -0.000782 0.992817 0.119645
vn -0.000782 0.992817 0.119645
vn -0.000782 0.992817 0.119645
vn 1.000000 0.000000 0.000000
vn 1.000000 0.000000 0.000000
vn 1.000000 0.000000 0.000000
vn 1.000000 0.000000 0.000000
vn 0.570343 0.068112 0.818578
vn 0.570343 0.068112 0.818578
vn 0.570343 0.068112 0.818577
vn 0.590352 -0.152419 0.792624
vn 0.590352 -0.152419 0.792624
vn 0.590352 -0.152419 0.792624
vn -0.723002 -0.146538 0.675126
vn -0.723002 -0.146538 0.675126
vn -0.723002 -0.146538 0.675126
vn -0.761498 0.106454 0.639365
vn -0.761498 0.106454 0.639365
vn -0.761498 0.106454 0.639365
vn 0.106006 0.714253 0.691814
vn 0.106006 0.714253 0.691814
vn 0.106006 0.714253 0.691814
vn -0.096989 0.674996 0.731418
vn -0.096989 0.674996 0.731418
vn -0.096989 0.674996 0.731418
vn 0.120242 -0.841167 0.527239
vn 0.120242 -0.841167 0.527239
vn 0.120242 -0.841167 0.527239
vn -0.079883 -0.824222 0.560603
vn -0.079883 -0.824222 0.560603
vn -0.079883 -0.824223 0.560603
vn 0.517910 -0.091729 0.850503
vn 0.517910 -0.091729 0.850503
vn 0.517910 -0.091729 0.850503
vn 0.573246 0.115207 0.811243
vn 0.573246 0.115207 0.811243
vn 0.573246 0.115207 0.811243
vn 0.999927 -0.008182 0.008886
vn 0.999927 -0.008182 0.008886
vn 0.999927 -0.008182 0.008886
vn 0.999927 -0.008182 0.008886
vn 0.992743 0.000000 0.120254
vn 0.992743 0.000000 0.120254
vn 0.992743 0.000000 0.120254
vn -0.000011 -0.000000 1.000000
vn -0.000011 -0.000000 1.000000
vn -0.000011 -0.000000 1.000000
vn -0.000011 -0.000000 1.000000
vn -0.000007 0.000000 1.000000
vn -0.000007 0.000000 1.000000
vn -0.000007 0.000000 1.000000
vn -0.000007 0.000000 1.000000
vn -0.000007 0.000000 1.000000
vn -0.000007 0.000000 1.000000
vn 0.999997 -0.002061 0.001616
vn 0.999997 -0.002061 0.001616
vn 0.999997 -0.002061 0.001616
vn 0.999997 -0.002061 0.001616
vn 0.999999 0.000543 0.000984
vn 0.999999 0.000543 0.000984
vn 0.999999 0.000543 0.000984
vn 0.999999 0.000543 0.000984
vn 0.000000 0.000000 1.000000
vn 0.000000 0.000000 1.000000
vn 0.000000 0.000000 1.000000
vn 0.000000 0.000000 1.000000
vn -0.000000 0.000000 1.000000
vn -0.000000 0.000000 1.000000
vn -0.000000 0.000000 1.000000
vn -0.000000 0.000000 1.000000
vn 0.000000 0.000000 1.000000
vn 0.000000 0.000000 1.000000
vn 0.000000 0.000000 1.000000
vn 0.000000 0.000000 1.000000
vn 0.000000 0.000000 1.000000
vn 0.000000 0.000000 1.000000
vn 0.000000 0.000000 1.000000
vn 0.000000 0.000000 1.000000
vn -0.012286 -0.999786 0.016628
vn -0.012286 -0.999786 0.016628
vn -0.012286 -0.999786 0.016628
vn -0.012286 -0.999786 0.016628
vn 0.000000 -0.993813 0.111063
vn 0.000000 -0.993813 0.111063
vn 0.000000 -0.993813 0.111063
vn 0.013951 0.999797 0.014517
vn 0.013951 0.999797 0.014517
vn 0.013951 0.999797 0.014517
vn 0.013951 0.999797 0.014517
vn -0.042403 0.998017 0.046518
vn -0.042403 0.998017 0.046518
vn -0.042403 0.998017 0.046518
vn -0.042403 0.998017 0.046518
vn -0.000000 0.000000 1.000000
vn -0.000000 0.000000 1.000000
vn -0.000000 0.000000 1.000000
vn -0.000000 0.000000 1.000000
vn 0.000000 0.000000 1.000000
vn 0.000000 0.000000 1.000000
vn 0.000000 0.000000 1.000000
vn 0.000000 0.000000 1.000000
vn -1.000000 -0.000000 0.000000
vn -1.000000 -0.000000 0.000000
vn -1.000000 -0.000000 0.000000
vn -1.000000 -0.000000 0.000000
vn -1.000000 0.000000 0.000000
vn -1.000000 0.000000 0.000000
vn -1.000000 0.000000 0.000000
vn -1.000000 0.000000 0.000000
vn 0.000000 0.000000 1.000000
vn 0.000000 0.000000 1.000000
vn 0.000000 0.000000 1.000000
vn 0.000000 0.000000 1.000000
vn -0.000000 0.000000 1.000000
vn -0.000000 0.000000 1.000000
vn -0.000000 0.000000 1.000000
vn -0.000000 0.000000 1.000000
vn 0.000000 -0.804085 0.594515
vn 0.000000 -0.804085 0.594515
vn 0.000000 -0.804085 0.594515
vn 0.000000 -0.804085 0.594515
vn -0.828523 0.000000 0.559955
vn -0.828523 0.000000 0.559955
vn -0.828523 0.000000 0.559955
vn -0.828523 0.000000 0.559955
vn 0.828523 0.000000 0.559955
vn 0.828523 0.000000 0.559955
vn 0.828523 0.000000 0.559955
vn 0.828523 0.000000 0.559955
vn 0.000000 0.804081 0.594519
vn 0.000000 0.804081 0.594519
vn 0.000000 0.804081 0.594519
vn 0.000000 0.804081 0.594519
vn 0.000000 1.000000 0.000000
vn 0.000000 1.000000 0.000000
vn 0.000000 1.000000 0.000000
vn 0.000000 1.000000 0.000000
vn 0.000000 -1.000000 0.000000
vn 0.000000 -1.000000 0.000000
vn 0.000000 -1.000000 0.000000
vn 0.000000 -1.000000 0.000000
vn -1.000000 0.000000 0.000000
vn -1.000000 0.000000 0.000000
vn -1.000000 0.000000 0.000000
vn -1.000000 0.000000 0.000000
vn -1.000000 0.000000 0.000000
vn -1.000000 0.000000 0.000000
vn -1.000000 0.000000 0.000000
vn -1.000000 0.000000 0.000000
vn 0.000000 1.000000 0.000000
vn 0.000000 1.000000 0.000000
vn 0.000000 1.000000 0.000000
vn 0.000000 1.000000 0.000000
vn -0.000000 -1.000000 0.000002
vn -0.000000 -1.000000 0.000002
vn -0.000000 -1.000000 0.000002
vn -0.000000 -1.000000 0.000002
vn -0.000000 -0.529761 0.848147
vn -0.000000 -0.529761 0.848147
vn -0.000000 -0.529761 0.848147
vn -0.000000 -0.529761 0.848147
vn 0.000000 0.529723 0.848171
vn 0.000000 0.529723 0.848171
vn 0.000000 0.529723 0.848171
vn 0.000000 0.529723 0.848171
vn -1.000000 0.000000 0.000000
vn -1.000000 0.000000 0.000000
vn -1.000000 0.000000 0.000000
vn -1.000000 0.000000 0.000000
vn 0.000000 -0.554253 0.832349
vn 0.000000 -0.554253 0.832349
vn 0.000000 -0.554253 0.832349
vn 0.000000 -0.554253 0.832349
vn 0.000002 0.422829 0.906210
vn 0.000002 0.422829 0.906210
vn 0.000002 0.422829 0.906209
vn 0.000002 0.422829 0.906210
vn -1.000000 0.000000 0.000000
vn -1.000000 0.000000 0.000000
vn -1.000000 0.000000 0.000000
vn 0.000000 0.000000 1.000000
vn 0.000000 0.000000 1.000000
vn 0.000000 0.000000 1.000000
vn 0.000000 0.000000 1.000000
vn -1.000000 0.000000 0.000000
vn -1.000000 0.000000 0.000000
vn -1.000000 0.000000 0.000000
vn 1.000000 0.000000 0.000000
vn 1.000000 0.000000 0.000000
vn 1.000000 0.000000 0.000000
vn 1.000000 0.000000 0.000000
vn 1.000000 0.000000 0.000000
vn 1.000000 0.000000 0.000000
vn 1.000000 0.000000 0.000000
vn 1.000000 0.000000 0.000000
vn 0.000002 0.000004 1.000000
vn 0.000002 0.000004 1.000000
vn 0.000002 0.000004 1.000000
vn 0.000002 0.000004 1.000000
vn 1.000000 0.000000 0.000000
vn 1.000000 0.000000 0.000000
vn 1.000000 0.000000 0.000000
vn 1.000000 0.000000 0.000000
vn -0.000000 0.000000 1.000000
vn -0.000000 0.000000 1.000000
vn -0.000000 0.000000 1.000000
vn -0.000000 0.000000 1.000000
vn 0.000000 0.000000 1.000000
vn 0.000000 0.000000 1.000000
vn 0.000000 0.000000 1.000000
vn 0.000000 0.000000 1.000000
vn 0.000000 -0.554248 0.832352
vn 0.000000 -0.554247 0.832352
vn 0.000000 -0.554248 0.832352
vn 0.000000 -0.554247 0.832352
vn -0.000002 0.000004 1.000000
vn -0.000002 0.000004 1.000000
vn -0.000002 0.000004 1.000000
vn -0.000002 0.000004 1.000000
vn -0.000002 0.422828 0.906210
vn -0.000002 0.422828 0.906210
vn -0.000002 0.422828 0.906210
vn -0.000002 0.422828 0.906210
vn 0.000000 1.000000 0.000000
vn 0.000000 1.000000 0.000000
vn 0.000000 1.000000 0.000000
vn 0.000000 1.000000 0.000000
vn 0.000001 0.529703 0.848183
vn 0.000001 0.529703 0.848183
vn 0.000001 0.529703 0.848183
vn 0.000001 0.529703 0.848183
vn 0.000000 0.000000 1.000000
vn 0.000000 0.000000 1.000000
vn 0.000000 0.000000 1.000000
vn 0.000000 0.000000 1.000000
vn -0.000000 -0.529761 0.848147
vn -0.000000 -0.529761 0.848147
vn -0.000000 -0.529761 0.848147
vn -0.000000 -0.529761 0.848147
vn 0.000000 -1.000000 0.000000
vn 0.000000 -1.000000 0.000000
vn 0.000000 -1.000000 0.000000
vn 0.000000 -1.000000 0.000000
vn 1.000000 0.000000 0.000000
vn 1.000000 0.000000 0.000000
vn 1.000000 0.000000 0.000000
vn 1.000000 0.000000 0.000000
vn 1.000000 0.000000 0.000000
vn -1.000000 0.000000 0.000000
vn -1.000000 0.000000 0.000000
vn -1.000000 0.000000 0.000000
vn -1.000000 0.000000 0.000000
vn 1.000000 0.000000 0.000000
vn 1.000000 0.000000 0.000000
vn 1.000000 0.000000 0.000000
vn 1.000000 0.000000 0.000000
s off
f 2/1/1 1/2/2 3/3/3 4/4/4
f 6/5/5 28/6/6 2/1/7
f 32/7/8 8/8/9 4/4/10
f 5/9/11 6/5/12 8/8/13 7/10/14
f 3/3/15 1/2/16 45/11/17 46/12/18
f 45/11/19 27/13/20 47/14/21
f 46/12/22 48/15/23 31/16/24
f 48/15/25 47/14/26 5/9/27 7/10/28
f 6/17/29 2/18/30 44/19/31
f 10/20/32 2/18/33 4/21/34 14/22/35
f 12/23/36 11/24/37 14/22/38 4/21/39 8/25/40 16/26/41
f 6/17/42 39/27/43 8/25/44
f 11/24/45 36/28/46 9/29/47
f 14/22/48 11/24/49 19/30/50 22/31/51
f 10/20/52 14/22/53 22/31/54 18/32/55
f 18/32/56 43/33/57 41/34/58 10/20/59
f 19/30/60 11/24/61 9/29/62 17/35/63
f 23/36/64 40/37/65 37/38/66 15/39/67
f 12/23/68 16/26/69 24/40/70 20/41/71
f 21/42/72 35/43/73 20/41/74
f 15/39/75 13/44/76 21/42/77 23/36/78
f 26/45/79 28/6/80 27/13/81
f 27/13/82 28/6/83 25/46/84
f 32/7/85 31/16/86 30/47/87
f 29/48/88 31/16/89 32/7/90
f 36/28/91 35/43/92 34/49/93
f 33/50/94 35/43/95 36/28/96
f 37/38/97 40/37/98 39/27/99
f 39/27/100 40/37/101 38/51/102
f 44/19/103 43/33/104 42/52/105
f 41/34/106 43/33/107 44/19/108
f 9/29/109 42/52/110 43/33/111 17/35/112
f 17/35/113 43/33/114 18/32/115
f 44/19/116 2/18/117 10/20/118 41/34/119
f 6/17/120 44/19/121 42/52/122 9/29/123 13/44/124 15/39/125
f 6/5/126 5/9/127 25/46/128 28/6/129
f 2/1/130 28/6/131 26/45/132 1/2/133
f 1/2/134 26/45/135 27/13/136 45/11/137
f 47/14/138 27/13/139 25/46/140 5/9/141
f 6/17/142 15/39/143 37/38/144 39/27/145
f 8/25/146 39/27/147 38/51/148 16/26/149
f 40/37/150 24/40/151 16/26/152 38/51/153
f 23/36/154 24/40/155 40/37/156
f 13/44/157 34/49/158 35/43/159 21/42/160
f 20/41/161 35/43/162 33/50/163 12/23/164
f 12/23/165 33/50/166 36/28/167 11/24/168
f 9/29/169 36/28/170 34/49/171 13/44/172
f 32/7/173 4/4/174 3/3/175 29/48/176
f 7/10/177 8/8/178 32/7/179 30/47/180
f 31/16/181 48/15/182 7/10/183 30/47/184
f 46/12/185 31/16/186 29/48/187 3/3/188
f 46/53/189 45/54/190 50/55/191 49/56/192
f 45/54/193 47/57/194 51/58/195 50/55/196
f 48/59/197 46/53/198 49/56/199 52/60/200
f 47/57/201 48/59/202 52/60/203 51/58/204
f 53/61/205 51/62/206 52/63/207 56/64/208
f 50/65/209 54/66/210 55/67/211 49/68/212
f 59/69/213 61/70/214 62/71/215 58/72/216
f 60/73/217 57/74/218 62/75/219 61/76/220
f 73/77/221 74/78/222 85/79/223 86/80/224
f 100/81/225 101/82/226 66/83/227 65/84/228
f 99/85/229 100/81/230 65/84/231 68/86/232
f 97/87/233 98/88/234 67/89/235 64/90/236
f 73/77/237 59/91/238 58/92/239 74/78/240
f 58/92/241 82/94/242 83/113/243 79/93/244
f 84/95/245 85/79/246 74/78/247 80/96/248
f 62/75/249 57/74/250 69/97/251
f 67/98/252 98/99/253 99/85/254 68/86/255
f 69/97/256 57/74/257 70/100/258
f 63/114/259 72/109/260 76/107/261 75/111/262
f 65/105/263 64/110/264 67/101/265 68/102/266
f 83/113/267 84/95/268 80/96/269 79/93/270
f 64/110/271 78/104/272 81/112/273 63/114/274
f 87/115/275 97/116/276 64/117/277 63/118/278
f 92/119/279 82/120/280 58/121/281 62/122/282
f 88/126/283 87/123/284 63/124/285 75/125/286
f 75/125/287 76/127/288 89/128/289 88/126/290
f 76/127/291 72/129/292 90/130/293 89/128/294
f 91/131/295 90/130/296 72/129/297 71/132/298
f 69/97/299 93/133/300 92/134/301 62/75/302
f 94/135/303 93/136/304 69/97/305 70/100/306
f 57/74/307 95/137/308 94/135/309 70/100/310
f 57/74/311 60/73/312 96/138/313 95/137/314
f 78/104/315 64/110/316 65/105/317 66/106/318 77/103/319
f 74/78/320 58/92/321 79/93/322 80/96/323
f 81/112/324 71/108/325 72/109/326 63/114/327
v 76.625854 286.741943 2.033569
v 76.625854 12.920105 2.033569
v 173.374207 12.996216 2.033569
v 173.374207 286.741943 2.033569
vt 0.050561 0.180885
vt 0.050562 0.181381
vt 0.049569 0.181374
vt 0.049563 0.180879
vn 0.000000 0.000000 1.000000
vn 0.000000 0.000000 1.000000
vn 0.000000 0.000000 1.000000
vn 0.000000 0.000000 1.000000
s off
f 102/139/328 103/140/329 104/141/330 105/142/331
