# This file uses centimeters as units for non-parametric coordinates.

v 0.000000 0.000000 15.000000
v 0.000000 264.764893 16.360596
v 0.000000 262.721558 0.000122
v 0.000000 0.000000 0.000122
v 0.000000 68.373535 0.000122
v 0.000000 68.373535 15.000000
v 249.999146 262.721497 15.000000
v 249.999146 68.373535 15.000000
v 249.999146 0.000000 15.000000
v 249.999146 0.000000 0.000122
v 249.999146 66.195129 16.360596
v 249.999146 2.178406 16.360596
v 0.000000 66.195129 16.360596
v 0.000000 2.178406 16.360596
v 249.999146 299.700073 0.000122
v 249.999146 299.700073 15.000000
v 0.000000 299.700073 0.000122
v 0.000000 299.700073 15.000000
v 249.999146 264.764893 16.360596
v 249.999146 296.784302 16.360596
v 249.999146 68.373535 0.000122
v 0.000000 262.721497 15.000000
v 0.000000 296.784302 16.360596
v 249.999146 262.721558 0.000122
vt 0.063214 0.173874
vt 0.063206 0.174477
vt 0.063351 0.151407
vt 0.063351 0.151407
vt 0.063351 0.151407
vt 0.063351 0.151407
vt 0.063340 0.151511
vt 0.063212 0.174483
vt 0.063340 0.151511
vt 0.063340 0.151511
vt 0.063340 0.151511
vt 0.063340 0.151511
vt 0.063351 0.151407
vt 0.063351 0.151407
vt 0.063351 0.151407
vt 0.063351 0.151407
vt 0.063351 0.151407
vt 0.063351 0.151407
vt 0.063351 0.151407
vt 0.063340 0.151511
vt 0.063340 0.151511
vt 0.063340 0.151511
vt 0.063340 0.151511
vt 0.063340 0.151511
vt 0.063351 0.151407
vt 0.063219 0.173878
vt 0.062909 0.174686
vt 0.062910 0.174486
vt 0.062915 0.174499
vt 0.062913 0.174687
vt 0.063340 0.151511
vt 0.063352 0.151471
vt 0.062915 0.174492
vt 0.062913 0.174693
vt 0.062920 0.173884
vt 0.062916 0.173880
vt 0.063352 0.151471
vt 0.063352 0.151471
vn -1.000000 0.000000 0.000000
vn -1.000000 0.000000 0.000000
vn -1.000000 0.000000 0.000000
vn -1.000000 0.000000 0.000000
vn -1.000000 0.000000 0.000000
vn -1.000000 0.000000 0.000000
vn -1.000000 0.000000 0.000000
vn 0.000000 1.000000 0.000000
vn 0.000000 1.000000 0.000000
vn 0.000000 1.000000 0.000000
vn 0.000000 1.000000 0.000000
vn 0.000000 -1.000000 0.000000
vn 0.000000 -1.000000 0.000000
vn 0.000000 -1.000000 0.000000
vn 0.000000 -1.000000 0.000000
vn 0.000000 -0.529745 0.848157
vn 0.000000 -0.529745 0.848157
vn 0.000000 -0.529745 0.848157
vn 0.000000 -0.529745 0.848157
vn 0.000000 0.529745 0.848157
vn 0.000000 0.529745 0.848157
vn 0.000000 0.529745 0.848157
vn 0.000000 0.529745 0.848157
vn -1.000000 0.000000 0.000000
vn -1.000000 0.000000 0.000000
vn -1.000000 0.000000 0.000000
vn -1.000000 0.000000 0.000000
vn 0.000000 0.422858 0.906196
vn 0.000000 0.422858 0.906196
vn 0.000000 0.422858 0.906196
vn 0.000000 0.422858 0.906196
vn 0.000000 0.000000 1.000000
vn 0.000000 0.000000 1.000000
vn 0.000000 0.000000 1.000000
vn 0.000000 0.000000 1.000000
vn 1.000000 0.000000 0.000000
vn 1.000000 0.000000 0.000000
vn 1.000000 0.000000 0.000000
vn 1.000000 0.000000 0.000000
vn 1.000000 -0.000003 0.000000
vn 1.000000 -0.000003 0.000000
vn 1.000000 -0.000003 0.000000
vn 1.000000 -0.000004 0.000000
vn 1.000000 -0.000004 0.000000
vn 1.000000 -0.000004 0.000000
vn 0.000000 -0.554226 0.832366
vn 0.000000 -0.554226 0.832366
vn 0.000000 -0.554226 0.832366
vn 0.000000 -0.554226 0.832366
vn 1.000000 0.000000 0.000000
vn 1.000000 0.000000 0.000000
vn 1.000000 0.000000 0.000000
vn 1.000000 0.000000 0.000000
vn 1.000000 0.000000 0.000000
vn 1.000000 0.000000 0.000000
vn 1.000000 0.000000 0.000000
vn 1.000000 0.000000 0.000000
vn 1.000000 0.000000 0.000000
vn 1.000000 0.000000 0.000000
vn -1.000000 0.000000 0.000000
vn -1.000000 0.000000 0.000000
vn -1.000000 0.000000 0.000000
vn -1.000000 0.000000 0.000000
vn -1.000000 0.000000 0.000000
vn -1.000000 0.000000 0.000000
vn -1.000000 0.000000 0.000000
vn 0.000000 0.000000 1.000000
vn 0.000000 0.000000 1.000000
vn 0.000000 0.000000 1.000000
vn 0.000000 0.000000 1.000000
vn 0.000000 0.000000 1.000000
vn 0.000000 0.000000 1.000000
vn 0.000000 0.000000 1.000000
vn 0.000000 0.000000 1.000000
vn -1.000000 0.000000 0.000000
vn -1.000000 0.000000 0.000000
vn -1.000000 0.000000 0.000000
vn -1.000000 0.000000 0.000000
vn -1.000000 0.000000 0.000000
vn -1.000000 0.000000 0.000000
vn 1.000000 0.000000 0.000000
vn 1.000000 0.000000 0.000000
vn 1.000000 0.000000 0.000000
vn 1.000000 0.000000 0.000000
s off
f 3/1/1 5/2/2 6/8/3 22/26/4
f 14/16/5 4/3/6 1/4/7
f 17/7/8 18/9/9 16/10/10 15/11/11
f 1/4/12 4/3/13 10/13/14 9/14/15
f 1/4/16 9/14/17 12/15/18 14/16/19
f 13/18/20 11/19/21 8/17/22 6/5/23
f 3/21/24 2/22/25 23/12/26 17/7/27
f 20/20/28 16/10/29 18/9/30 23/12/31
f 11/25/32 13/18/33 14/16/34 12/15/35
f 10/27/36 21/28/37 11/29/38 12/30/39
f 20/20/40 15/11/41 16/10/42
f 11/29/43 21/28/44 8/33/45
f 2/22/46 22/23/47 7/24/48 19/31/49
f 7/32/50 24/38/51 15/37/52
f 7/24/53 15/11/54 20/20/55 19/31/56
f 10/27/57 12/30/58 9/34/59
f 13/18/60 5/6/61 4/3/62 14/16/63
f 6/5/64 5/6/65 13/18/66
f 8/33/67 7/35/68 22/26/69 6/8/70
f 19/31/71 20/20/72 23/12/73 2/22/74
f 3/21/75 22/23/76 2/22/77
f 17/7/78 23/12/79 18/9/80
f 8/33/81 21/28/82 24/36/83 7/35/84
