# This file uses centimeters as units for non-parametric coordinates.

v 67.224380 122.873413 22.889893
v 182.063660 122.873413 22.889893
v 67.224380 126.993286 22.223877
v 182.063660 126.993286 22.223877
v 67.224380 127.070190 5.747070
v 182.063660 127.070190 5.747070
v 67.224380 122.950317 6.413086
v 182.063660 122.950317 6.413086
v 67.224380 140.743164 22.889526
v 182.063660 140.743164 22.889526
v 67.224380 144.863037 22.223877
v 182.063660 144.863037 22.223877
v 67.224380 144.939941 5.747070
v 182.063660 144.939941 5.747070
v 67.224380 140.820068 6.413086
v 182.063660 140.820068 6.413086
v 67.365814 153.093750 24.469360
v 182.159531 153.651367 21.302002
v 67.324707 157.213379 23.804932
v 182.118393 157.770752 20.637573
v 67.128479 157.289185 7.334961
v 181.922150 157.846802 4.167725
v 67.169586 153.169556 7.999023
v 181.963287 153.727173 4.832031
v 67.224380 166.338867 22.889648
v 182.063660 166.338867 22.889648
v 67.224380 170.458862 22.223633
v 182.063660 170.458862 22.223633
v 67.224380 170.535645 5.746826
v 182.063660 170.535645 5.746826
v 67.224380 166.415771 6.413086
v 182.063660 166.415771 6.413086
v 67.187744 180.497070 22.889526
v 181.979218 177.183838 22.889526
v 67.306595 184.615112 22.223633
v 182.098083 181.301880 22.223633
v 67.308823 184.691895 5.746826
v 182.100296 181.378784 5.746826
v 67.189957 180.573853 6.412842
v 181.981445 177.260742 6.412842
v 67.171204 193.764771 21.062012
v 181.999542 193.185791 24.715332
v 67.191345 197.884521 20.396484
v 182.019592 197.305786 24.049927
v 67.288574 197.961182 3.921387
v 182.116821 197.382324 7.574829
v 67.268448 193.841553 4.586914
v 182.096771 193.262451 8.240234
v 67.224380 207.072998 22.889526
v 182.063660 207.072998 22.889526
v 67.224380 211.192871 22.223633
v 182.063660 211.192871 22.223633
v 67.224380 211.269653 5.746826
v 182.063660 211.269653 5.746826
v 67.224380 207.149902 6.412842
v 182.063660 207.149902 6.412842
v 67.224380 222.980957 22.889648
v 182.063660 222.980957 22.889648
v 67.224380 227.100708 22.223511
v 182.063660 227.100708 22.223511
v 67.224380 227.177612 5.746826
v 182.063660 227.177612 5.746826
v 67.224380 223.057861 6.412842
v 182.063660 223.057861 6.412842
v 177.543732 236.647949 15.025391
v 179.649048 236.647949 15.025391
v 177.543732 236.647949 12.920288
v 179.649048 236.647949 12.920288
v 70.741882 123.930298 15.209473
v 72.943787 123.930298 15.209473
v 70.741882 236.647949 15.209473
v 72.943787 236.647949 15.209473
v 70.741882 236.647949 13.007202
v 72.943787 236.647949 13.007202
v 70.741882 123.930298 13.007202
v 72.943787 123.930298 13.007202
v 177.543732 116.800232 13.001465
v 179.649048 116.800232 13.001465
v 179.649048 116.800232 15.106689
v 177.543732 116.800232 15.106689
v 176.084442 116.406189 11.542236
v 181.108124 116.406189 11.542236
v 181.108124 116.406189 16.565918
v 176.084442 116.406189 16.565918
v 176.084442 111.825378 11.542236
v 181.108124 111.825378 11.542236
v 181.108124 111.825378 16.565918
v 176.084442 111.825378 16.565918
vt 0.331931 0.007603
vt 0.331931 0.007603
vt 0.331931 0.007603
vt 0.331931 0.007603
vt 0.331931 0.007603
vt 0.331931 0.007603
vt 0.331931 0.007603
vt 0.331931 0.007603
vt 0.331931 0.007603
vt 0.331931 0.007603
vt 0.331931 0.007603
vt 0.331931 0.007603
vt 0.331931 0.007603
vt 0.331931 0.007603
vt 0.331931 0.007603
vt 0.331931 0.007603
vt 0.331931 0.007603
vt 0.331931 0.007603
vt 0.331931 0.007603
vt 0.331931 0.007603
vt 0.331931 0.007603
vt 0.331931 0.007603
vt 0.331931 0.007603
vt 0.331931 0.007603
vt 0.331931 0.007603
vt 0.331931 0.007603
vt 0.331931 0.007603
vt 0.331931 0.007603
vt 0.300054 0.007603
vt 0.300054 0.007603
vt 0.300054 0.007603
vt 0.300054 0.007603
vt 0.300054 0.007603
vt 0.300054 0.007603
vt 0.300054 0.007603
vt 0.300054 0.007603
vt 0.300054 0.007603
vt 0.300054 0.007603
vt 0.300054 0.007603
vt 0.300054 0.007603
vt 0.300054 0.007603
vt 0.300054 0.007603
vt 0.300054 0.007603
vt 0.300054 0.007603
vt 0.300054 0.007603
vt 0.300054 0.007603
vt 0.300054 0.007603
vt 0.300054 0.007603
vt 0.300054 0.007603
vt 0.300054 0.007603
vt 0.300054 0.007603
vt 0.300054 0.007603
vt 0.357638 0.007603
vt 0.357638 0.007603
vt 0.357638 0.007603
vt 0.357638 0.007603
vt 0.357638 0.007603
vt 0.357638 0.007603
vt 0.357638 0.007603
vt 0.357638 0.007603
vt 0.357638 0.007603
vt 0.357638 0.007603
vt 0.357638 0.007603
vt 0.357638 0.007603
vt 0.357638 0.007603
vt 0.357638 0.007603
vt 0.357638 0.007603
vt 0.357638 0.007603
vt 0.357638 0.007603
vt 0.357638 0.007603
vt 0.357638 0.007603
vt 0.357638 0.007603
vt 0.357638 0.007603
vt 0.357638 0.007603
vt 0.357638 0.007603
vt 0.357638 0.007603
vt 0.331931 0.007603
vt 0.331931 0.007603
vt 0.331931 0.007603
vt 0.331931 0.007603
vt 0.331931 0.007603
vt 0.331931 0.007603
vt 0.331931 0.007603
vt 0.331931 0.007603
vt 0.331931 0.007603
vt 0.331931 0.007603
vt 0.331931 0.007603
vt 0.331931 0.007603
vt 0.331931 0.007603
vt 0.331931 0.007603
vt 0.300054 0.007603
vt 0.300054 0.007603
vt 0.300054 0.007603
vt 0.300054 0.007603
vt 0.300054 0.007603
vt 0.300054 0.007603
vt 0.300054 0.007603
vt 0.300054 0.007603
vt 0.300054 0.007603
vt 0.300054 0.007603
vt 0.300054 0.007603
vt 0.300054 0.007603
vt 0.300054 0.007603
vt 0.300054 0.007603
vt 0.300054 0.007603
vt 0.300054 0.007603
vt 0.300054 0.007603
vt 0.300054 0.007603
vt 0.300054 0.007603
vt 0.300054 0.007603
vt 0.300054 0.007603
vt 0.300054 0.007603
vt 0.300054 0.007603
vt 0.300054 0.007603
vt 0.331931 0.007603
vt 0.331931 0.007603
vt 0.331931 0.007603
vt 0.331931 0.007603
vt 0.331931 0.007603
vt 0.331931 0.007603
vt 0.331931 0.007603
vt 0.331931 0.007603
vt 0.331931 0.007603
vt 0.331931 0.007603
vt 0.331931 0.007603
vt 0.331931 0.007603
vt 0.331931 0.007603
vt 0.331931 0.007603
vt 0.357638 0.007603
vt 0.357638 0.007603
vt 0.357638 0.007603
vt 0.357638 0.007603
vt 0.357638 0.007603
vt 0.357638 0.007603
vt 0.357638 0.007603
vt 0.357638 0.007603
vt 0.357638 0.007603
vt 0.357638 0.007603
vt 0.357638 0.007603
vt 0.357638 0.007603
vt 0.357638 0.007603
vt 0.357638 0.007603
vt 0.357638 0.007603
vt 0.357638 0.007603
vt 0.357638 0.007603
vt 0.357638 0.007603
vt 0.357638 0.007603
vt 0.357638 0.007603
vt 0.357638 0.007603
vt 0.357638 0.007603
vt 0.357638 0.007603
vt 0.357638 0.007603
vt 0.298426 0.009109
vt 0.298426 0.009109
vt 0.298426 0.009109
vt 0.298426 0.009109
vt 0.298426 0.009109
vt 0.298426 0.009109
vt 0.298426 0.009109
vt 0.298426 0.009109
vt 0.418721 0.006079
vt 0.418721 0.006079
vt 0.418721 0.006079
vt 0.418721 0.006079
vt 0.298426 0.009109
vt 0.298426 0.009109
vt 0.298426 0.009109
vt 0.298426 0.009109
vt 0.298426 0.009109
vt 0.298426 0.009109
vt 0.298426 0.009109
vt 0.298426 0.009109
vt 0.298426 0.009109
vt 0.298426 0.009109
vt 0.298426 0.009109
vt 0.298426 0.009109
vt 0.298426 0.009109
vt 0.298426 0.009109
vt 0.298426 0.009109
vt 0.298426 0.009109
vt 0.418721 0.006079
vt 0.418721 0.006079
vt 0.418721 0.006079
vt 0.418721 0.006079
vt 0.418721 0.006079
vt 0.418721 0.006079
vt 0.418721 0.006079
vt 0.418721 0.006079
vn 0.000000 0.159587 0.987184
vn 0.000000 0.159587 0.987184
vn 0.000000 0.159587 0.987184
vn 0.000000 0.159587 0.987184
vn 0.000000 0.999989 0.004668
vn 0.000000 0.999989 0.004668
vn 0.000000 0.999989 0.004668
vn 0.000000 0.999989 0.004668
vn 0.000000 -0.159587 -0.987184
vn 0.000000 -0.159587 -0.987184
vn 0.000000 -0.159587 -0.987184
vn 0.000000 -0.159587 -0.987184
vn 0.000000 -0.999989 -0.004667
vn 0.000000 -0.999989 -0.004667
vn 0.000000 -0.999989 -0.004667
vn 0.000000 -0.999989 -0.004667
vn 1.000000 0.000001 0.000000
vn 1.000000 0.000001 0.000000
vn 1.000000 0.000001 0.000000
vn 1.000000 0.000001 0.000000
vn -1.000000 -0.000000 0.000000
vn -1.000000 -0.000000 0.000000
vn -1.000000 -0.000000 0.000000
vn -1.000000 -0.000000 0.000000
vn 0.000000 0.159502 0.987198
vn 0.000000 0.159502 0.987198
vn 0.000000 0.159502 0.987198
vn 0.000000 0.159502 0.987198
vn 0.000000 0.999989 0.004668
vn 0.000000 0.999989 0.004668
vn 0.000000 0.999989 0.004668
vn 0.000000 0.999989 0.004668
vn 0.000000 -0.159587 -0.987184
vn 0.000000 -0.159587 -0.987184
vn 0.000000 -0.159587 -0.987184
vn 0.000000 -0.159587 -0.987184
vn 0.000000 -0.999989 -0.004667
vn 0.000000 -0.999989 -0.004667
vn 0.000000 -0.999989 -0.004667
vn 0.000000 -0.999989 -0.004667
vn 1.000000 0.000002 0.000000
vn 1.000000 0.000002 0.000000
vn 1.000000 0.000002 0.000000
vn 1.000000 0.000002 0.000000
vn -1.000000 -0.000000 0.000000
vn -1.000000 -0.000000 0.000000
vn -1.000000 -0.000000 0.000000
vn -1.000000 -0.000000 0.000000
vn 0.026455 0.159432 0.986854
vn 0.026455 0.159432 0.986854
vn 0.026455 0.159432 0.986854
vn 0.026455 0.159432 0.986854
vn -0.004728 0.999978 0.004667
vn -0.004728 0.999978 0.004667
vn -0.004728 0.999978 0.004667
vn -0.004728 0.999978 0.004667
vn -0.026453 -0.159371 -0.986864
vn -0.026453 -0.159371 -0.986864
vn -0.026453 -0.159371 -0.986864
vn -0.026453 -0.159371 -0.986864
vn 0.004729 -0.999978 -0.004659
vn 0.004729 -0.999978 -0.004659
vn 0.004729 -0.999978 -0.004659
vn 0.004729 -0.999978 -0.004659
vn 0.999897 0.008068 -0.011877
vn 0.999897 0.008068 -0.011877
vn 0.999897 0.008068 -0.011877
vn 0.999897 0.008068 -0.011877
vn -0.999897 -0.008063 0.011876
vn -0.999897 -0.008063 0.011876
vn -0.999897 -0.008063 0.011876
vn -0.999897 -0.008063 0.011876
vn 0.000000 0.159583 0.987185
vn 0.000000 0.159583 0.987185
vn 0.000000 0.159583 0.987185
vn 0.000000 0.159583 0.987185
vn 0.000000 0.999989 0.004660
vn 0.000000 0.999989 0.004660
vn 0.000000 0.999989 0.004660
vn 0.000000 0.999989 0.004660
vn 0.000000 -0.159644 -0.987175
vn 0.000000 -0.159644 -0.987175
vn 0.000000 -0.159644 -0.987175
vn 0.000000 -0.159644 -0.987175
vn 0.000000 -0.999989 -0.004667
vn 0.000000 -0.999989 -0.004667
vn 0.000000 -0.999989 -0.004667
vn 0.000000 -0.999989 -0.004667
vn 1.000000 0.000001 0.000000
vn 1.000000 0.000001 0.000000
vn 1.000000 0.000001 0.000000
vn 1.000000 0.000001 0.000000
vn -1.000000 -0.000001 0.000000
vn -1.000000 -0.000001 0.000000
vn -1.000000 -0.000001 0.000000
vn -1.000000 -0.000001 0.000000
vn 0.004604 0.159497 0.987188
vn 0.004604 0.159497 0.987188
vn 0.004604 0.159497 0.987188
vn 0.004604 0.159497 0.987188
vn 0.028850 0.999573 0.004666
vn 0.028850 0.999573 0.004666
vn 0.028850 0.999573 0.004666
vn 0.028850 0.999573 0.004666
vn -0.004604 -0.159526 -0.987183
vn -0.004604 -0.159526 -0.987183
vn -0.004604 -0.159526 -0.987183
vn -0.004604 -0.159526 -0.987183
vn -0.028850 -0.999573 -0.004666
vn -0.028850 -0.999573 -0.004666
vn -0.028850 -0.999573 -0.004666
vn -0.028850 -0.999573 -0.004666
vn 0.999584 -0.028850 0.000000
vn 0.999584 -0.028850 0.000000
vn 0.999584 -0.028850 0.000000
vn 0.999584 -0.028850 0.000000
vn -0.999584 0.028851 -0.000000
vn -0.999584 0.028851 -0.000000
vn -0.999584 0.028851 -0.000000
vn -0.999584 0.028851 -0.000000
vn -0.030589 0.159530 0.986719
vn -0.030589 0.159529 0.986719
vn -0.030589 0.159530 0.986719
vn -0.030589 0.159530 0.986719
vn 0.004892 0.999977 0.004678
vn 0.004892 0.999977 0.004678
vn 0.004892 0.999977 0.004678
vn 0.004892 0.999977 0.004678
vn 0.030589 -0.159534 -0.986718
vn 0.030589 -0.159534 -0.986718
vn 0.030589 -0.159534 -0.986718
vn 0.030589 -0.159534 -0.986718
vn -0.004893 -0.999977 -0.004685
vn -0.004893 -0.999977 -0.004685
vn -0.004893 -0.999977 -0.004685
vn -0.004893 -0.999977 -0.004685
vn 0.999975 -0.003916 0.005883
vn 0.999975 -0.003916 0.005883
vn 0.999975 -0.003916 0.005883
vn 0.999975 -0.003916 0.005883
vn -0.999975 0.003935 -0.005884
vn -0.999975 0.003935 -0.005884
vn -0.999975 0.003935 -0.005884
vn -0.999975 0.003935 -0.005884
vn 0.000000 0.159559 0.987188
vn 0.000000 0.159559 0.987188
vn 0.000000 0.159559 0.987188
vn 0.000000 0.159559 0.987188
vn 0.000000 0.999989 0.004660
vn 0.000000 0.999989 0.004660
vn 0.000000 0.999989 0.004660
vn 0.000000 0.999989 0.004660
vn 0.000000 -0.159592 -0.987183
vn 0.000000 -0.159592 -0.987183
vn 0.000000 -0.159592 -0.987183
vn 0.000000 -0.159592 -0.987183
vn 0.000000 -0.999989 -0.004668
vn 0.000000 -0.999989 -0.004668
vn 0.000000 -0.999989 -0.004668
vn 0.000000 -0.999989 -0.004668
vn 1.000000 0.000001 0.000000
vn 1.000000 0.000001 0.000000
vn 1.000000 0.000001 0.000000
vn 1.000000 0.000001 0.000000
vn -1.000000 -0.000000 0.000000
vn -1.000000 -0.000000 0.000000
vn -1.000000 -0.000000 0.000000
vn -1.000000 -0.000000 0.000000
vn 0.000000 0.159620 0.987179
vn 0.000000 0.159620 0.987179
vn 0.000000 0.159620 0.987179
vn 0.000000 0.159620 0.987179
vn 0.000000 0.999989 0.004668
vn 0.000000 0.999989 0.004668
vn 0.000000 0.999989 0.004668
vn 0.000000 0.999989 0.004668
vn 0.000000 -0.159592 -0.987183
vn 0.000000 -0.159592 -0.987183
vn 0.000000 -0.159592 -0.987183
vn 0.000000 -0.159592 -0.987183
vn 0.000000 -0.999989 -0.004668
vn 0.000000 -0.999989 -0.004668
vn 0.000000 -0.999989 -0.004668
vn 0.000000 -0.999989 -0.004668
vn 1.000000 0.000001 0.000000
vn 1.000000 0.000001 0.000000
vn 1.000000 0.000001 0.000000
vn 1.000000 0.000001 0.000000
vn -1.000000 -0.000000 0.000000
vn -1.000000 -0.000000 0.000000
vn -1.000000 -0.000000 0.000000
vn -1.000000 -0.000000 0.000000
vn 0.000000 0.000678 1.000000
vn 0.000000 0.000678 1.000000
vn 0.000000 0.000678 1.000000
vn 0.000000 0.000678 1.000000
vn 0.000000 1.000000 0.000000
vn 0.000000 1.000000 0.000000
vn 0.000000 1.000000 0.000000
vn 0.000000 1.000000 0.000000
vn 0.000000 -0.000677 -1.000000
vn 0.000000 -0.000677 -1.000000
vn 0.000000 -0.000677 -1.000000
vn 0.000000 -0.000677 -1.000000
vn 0.000000 -1.000000 0.000000
vn 0.000000 -1.000000 0.000000
vn 0.000000 -1.000000 0.000000
vn 0.000000 -1.000000 0.000000
vn 1.000000 0.000000 0.000000
vn 1.000000 0.000000 0.000000
vn 1.000000 0.000000 0.000000
vn 1.000000 0.000000 0.000000
vn -1.000000 0.000000 0.000000
vn -1.000000 0.000000 0.000000
vn -1.000000 0.000000 0.000000
vn -1.000000 0.000000 0.000000
vn 0.000000 0.000000 1.000000
vn 0.000000 0.000000 1.000000
vn 0.000000 0.000000 1.000000
vn 0.000000 0.000000 1.000000
vn 0.000000 1.000000 0.000000
vn 0.000000 1.000000 0.000000
vn 0.000000 1.000000 0.000000
vn 0.000000 1.000000 0.000000
vn 0.000000 0.000000 -1.000000
vn 0.000000 0.000000 -1.000000
vn 0.000000 0.000000 -1.000000
vn 0.000000 0.000000 -1.000000
vn 0.000000 -1.000000 0.000000
vn 0.000000 -1.000000 0.000000
vn 0.000000 -1.000000 0.000000
vn 0.000000 -1.000000 0.000000
vn 1.000000 0.000000 0.000000
vn 1.000000 0.000000 0.000000
vn 1.000000 0.000000 0.000000
vn 1.000000 0.000000 0.000000
vn -1.000000 0.000000 0.000000
vn -1.000000 0.000000 0.000000
vn -1.000000 0.000000 0.000000
vn -1.000000 0.000000 0.000000
vn 0.000000 0.965421 -0.260696
vn 0.000000 0.965421 -0.260696
vn 0.000000 0.965421 -0.260696
vn 0.000000 0.965421 -0.260696
vn 0.260723 0.965414 0.000000
vn 0.260723 0.965414 0.000000
vn 0.260723 0.965414 0.000000
vn 0.260723 0.965414 0.000000
vn 0.000000 0.965422 0.260693
vn 0.000000 0.965422 0.260693
vn 0.000000 0.965422 0.260693
vn 0.000000 0.965422 0.260693
vn -0.260686 0.965424 0.000000
vn -0.260686 0.965424 0.000000
vn -0.260686 0.965424 0.000000
vn -0.260686 0.965424 0.000000
vn 0.000000 0.000000 -1.000000
vn 0.000000 0.000000 -1.000000
vn 0.000000 0.000000 -1.000000
vn 0.000000 0.000000 -1.000000
vn 1.000000 0.000000 0.000000
vn 1.000000 0.000000 0.000000
vn 1.000000 0.000000 0.000000
vn 1.000000 0.000000 0.000000
vn 0.000000 0.000000 1.000000
vn 0.000000 0.000000 1.000000
vn 0.000000 0.000000 1.000000
vn 0.000000 0.000000 1.000000
vn -1.000000 0.000000 0.000000
vn -1.000000 0.000000 0.000000
vn -1.000000 0.000000 0.000000
vn -1.000000 0.000000 0.000000
s off
f 1/1/1 2/2/2 4/3/3 3/4/4
f 3/4/5 4/3/6 6/5/7 5/6/8
f 5/6/9 6/5/10 8/7/11 7/8/12
f 7/8/13 8/7/14 2/9/15 1/10/16
f 2/2/17 8/11/18 6/12/19 4/3/20
f 7/13/21 1/1/22 3/4/23 5/14/24
f 9/15/25 10/16/26 12/17/27 11/18/28
f 11/18/29 12/17/30 14/19/31 13/20/32
f 13/20/33 14/19/34 16/21/35 15/22/36
f 15/22/37 16/21/38 10/23/39 9/24/40
f 10/16/41 16/25/42 14/26/43 12/17/44
f 15/27/45 9/15/46 11/18/47 13/28/48
f 17/29/49 18/30/50 20/31/51 19/32/52
f 19/33/53 20/34/54 22/35/55 21/36/56
f 21/37/57 22/38/58 24/39/59 23/40/60
f 23/41/61 24/42/62 18/43/63 17/44/64
f 18/45/65 24/46/66 22/47/67 20/48/68
f 23/49/69 17/50/70 19/51/71 21/52/72
f 25/53/73 26/54/74 28/55/75 27/56/76
f 27/57/77 28/58/78 30/59/79 29/60/80
f 29/61/81 30/62/82 32/63/83 31/64/84
f 31/65/85 32/66/86 26/67/87 25/68/88
f 26/69/89 32/70/90 30/71/91 28/72/92
f 31/73/93 25/74/94 27/75/95 29/76/96
f 33/77/97 34/78/98 36/79/99 35/80/100
f 35/80/101 36/79/102 38/81/103 37/82/104
f 37/82/105 38/81/106 40/83/107 39/84/108
f 39/84/109 40/83/110 34/85/111 33/86/112
f 34/78/113 40/87/114 38/88/115 36/79/116
f 39/89/117 33/77/118 35/80/119 37/90/120
f 41/91/121 42/92/122 44/93/123 43/94/124
f 43/95/125 44/96/126 46/97/127 45/98/128
f 45/99/129 46/100/130 48/101/131 47/102/132
f 47/103/133 48/104/134 42/105/135 41/106/136
f 42/107/137 48/108/138 46/109/139 44/110/140
f 47/111/141 41/112/142 43/113/143 45/114/144
f 49/115/145 50/116/146 52/117/147 51/118/148
f 51/118/149 52/117/150 54/119/151 53/120/152
f 53/120/153 54/119/154 56/121/155 55/122/156
f 55/122/157 56/121/158 50/123/159 49/124/160
f 50/116/161 56/125/162 54/126/163 52/117/164
f 55/127/165 49/115/166 51/118/167 53/128/168
f 57/129/169 58/130/170 60/131/171 59/132/172
f 59/133/173 60/134/174 62/135/175 61/136/176
f 61/137/177 62/138/178 64/139/179 63/140/180
f 63/141/181 64/142/182 58/143/183 57/144/184
f 58/145/185 64/146/186 62/147/187 60/148/188
f 63/149/189 57/150/190 59/151/191 61/152/192
f 66/153/193 65/154/194 80/155/195 79/156/196
f 65/154/197 66/153/198 68/157/199 67/158/200
f 67/158/201 68/157/202 78/159/203 77/160/204
f 85/161/205 86/162/206 87/163/207 88/164/208
f 68/165/209 66/153/210 79/156/211 78/159/212
f 65/154/213 67/166/214 77/160/215 80/155/216
f 69/167/217 70/168/218 72/169/219 71/170/220
f 71/170/221 72/169/222 74/171/223 73/172/224
f 73/172/225 74/171/226 76/173/227 75/174/228
f 75/174/229 76/173/230 70/175/231 69/176/232
f 70/168/233 76/177/234 74/178/235 72/169/236
f 75/179/237 69/167/238 71/170/239 73/180/240
f 77/181/241 78/182/242 82/183/243 81/184/244
f 78/182/245 79/185/246 83/186/247 82/183/248
f 79/185/249 80/187/250 84/188/251 83/186/252
f 80/187/253 77/181/254 81/184/255 84/188/256
f 81/184/257 82/183/258 86/162/259 85/161/260
f 82/183/261 83/186/262 87/163/263 86/162/264
f 83/186/265 84/188/266 88/164/267 87/163/268
f 84/188/269 81/184/270 85/161/271 88/164/272
