# This file uses centimeters as units for non-parametric coordinates.

v -3.450924 -2.501038 2.836594
v 4.754871 -1.889297 1.075722
v -4.458881 2.479210 -0.130440
v 3.746918 3.090927 -1.891312
v -4.781620 2.080246 -1.008209
v 3.738781 2.715454 -2.836594
v -3.735016 -3.090942 2.072586
v 4.785381 -2.455734 0.244179
v 5.116096 -1.674957 -0.200745
v 5.077000 -1.158173 0.656876
v 4.325554 2.024979 -2.599373
v 4.315651 2.405128 -1.653198
v -4.325550 -2.378876 1.825356
v -4.016029 -1.836075 2.608147
v -4.777382 1.727264 0.298065
v -5.116096 1.321098 -0.573303
vt 0.102079 0.016202
vt 0.134522 0.016180
vt 0.134521 0.039706
vt 0.102089 0.039922
vt 0.105908 0.035065
vt 0.105881 0.035066
vt 0.105882 0.035065
vt 0.105908 0.035065
vt 0.105882 0.035167
vt 0.105908 0.035168
vt 0.105882 0.035169
vt 0.105908 0.035170
vt 0.105882 0.035169
vt 0.105882 0.035167
vt 0.105882 0.035065
vt 0.105881 0.035066
vt 0.105908 0.035168
vt 0.105908 0.035170
vt 0.105908 0.035065
vt 0.105908 0.035065
vn 0.140368 0.527778 0.837704
vn 0.140461 0.527785 0.837684
vn 0.140461 0.527780 0.837687
vn 0.140370 0.527773 0.837706
vn -0.146694 0.919741 -0.364084
vn -0.146694 0.919741 -0.364084
vn -0.146694 0.919741 -0.364084
vn -0.146694 0.919741 -0.364084
vn -0.140461 -0.527783 -0.837685
vn -0.140368 -0.527776 -0.837705
vn -0.140370 -0.527772 -0.837707
vn -0.140461 -0.527779 -0.837688
vn 0.180177 -0.809848 0.558285
vn 0.180177 -0.809848 0.558285
vn 0.180177 -0.809848 0.558285
vn 0.180177 -0.809848 0.558285
vn 0.983343 0.171982 -0.058805
vn 0.983343 0.171982 -0.058805
vn 0.983343 0.171982 -0.058805
vn 0.983343 0.171982 -0.058805
vn -0.935976 0.027556 0.350984
vn -0.935976 0.027556 0.350984
vn -0.935976 0.027556 0.350984
vn -0.935976 0.027556 0.350984
vn 0.935160 -0.279418 0.217720
vn 0.935160 -0.279418 0.217720
vn 0.935160 -0.279418 0.217720
vn 0.935160 -0.279418 0.217720
vn -0.140370 -0.527772 -0.837707
vn -0.140368 -0.527776 -0.837705
vn -0.134745 -0.540762 -0.830314
vn -0.134745 -0.540762 -0.830314
vn 0.782985 0.577902 -0.230137
vn 0.782985 0.577902 -0.230137
vn 0.782985 0.577902 -0.230137
vn 0.782985 0.577902 -0.230137
vn 0.140461 0.527780 0.837687
vn 0.140461 0.527785 0.837684
vn 0.140655 0.541206 0.829043
vn 0.140655 0.541206 0.829043
vn -0.715577 -0.403579 0.570153
vn -0.715577 -0.403579 0.570153
vn -0.715577 -0.403579 0.570153
vn -0.715577 -0.403579 0.570153
vn 0.140368 0.527778 0.837704
vn 0.140370 0.527773 0.837706
vn 0.134758 0.540764 0.830310
vn 0.134758 0.540764 0.830310
vn -0.882666 0.452999 0.125273
vn -0.882666 0.452999 0.125273
vn -0.882666 0.452999 0.125273
vn -0.882666 0.452999 0.125273
vn -0.140461 -0.527783 -0.837685
vn -0.140461 -0.527779 -0.837688
vn -0.140659 -0.541205 -0.829043
vn -0.140659 -0.541205 -0.829043
s off
f 1/1/1 2/2/2 4/3/3 3/4/4
f 3/5/5 4/6/6 6/7/7 5/8/8
f 5/8/9 6/7/10 8/9/11 7/10/12
f 7/10/13 8/9/14 2/11/15 1/12/16
f 10/13/17 9/14/18 11/15/19 12/16/20
f 13/17/21 14/18/22 15/19/23 16/20/24
f 2/11/25 8/9/26 9/14/27 10/13/28
f 8/9/29 6/7/30 11/15/31 9/14/32
f 6/7/33 4/6/34 12/16/35 11/15/36
f 4/6/37 2/11/38 10/13/39 12/16/40
f 7/10/41 1/12/42 14/18/43 13/17/44
f 1/12/45 3/5/46 15/19/47 14/18/48
f 3/5/49 5/8/50 16/20/51 15/19/52
f 5/8/53 7/10/54 13/17/55 16/20/56
