# This file uses centimeters as units for non-parametric coordinates.

v 0.551846 -6.190533 -0.955825
v -0.551846 -6.190533 -0.955825
v -1.103693 -6.190533 -0.000000
v -0.551846 -6.190533 0.955825
v 0.551846 -6.190533 0.955825
v 1.103693 -6.190533 0.000000
v 0.551846 9.571609 -0.955825
v -0.551846 9.571609 -0.955825
v -1.103693 9.571609 -0.000000
v -0.551846 9.571609 0.955825
v 0.551846 9.571609 0.955825
v 1.103693 9.571609 0.000000
v 0.000000 -9.571608 -0.000000
v 0.000000 9.571609 -0.000000
v 0.551846 8.439228 -0.955825
v -0.551846 8.439228 -0.955825
v -1.103693 8.439228 -0.000000
v -0.551846 8.439228 0.955825
v 0.551846 8.439228 0.955825
v 1.103693 8.439228 0.000000
v 0.551846 7.413075 -0.955825
v -0.551846 7.413075 -0.955825
v -1.103693 7.413075 -0.000000
v -0.551846 7.413075 0.955825
v 0.551846 7.413075 0.955825
v 1.103693 7.413075 0.000000
vt 0.139456 0.469081
vt 0.139492 0.469081
vt 0.098428 0.489047
vt 0.098831 0.489047
vt 0.139505 0.469081
vt 0.098820 0.488072
vt 0.139480 0.469081
vt 0.098415 0.488072
vt 0.139443 0.469081
vt 0.099012 0.489058
vt 0.139432 0.469081
vt 0.099002 0.488071
vt 0.004779 0.375214
vt 0.004671 0.375209
vt 0.012641 0.376203
vt 0.004777 0.375204
vt 0.004997 0.375203
vt 0.005101 0.375208
vt 0.004990 0.375214
vt 0.098784 0.489069
vt 0.098772 0.488069
vt 0.098370 0.489069
vt 0.098356 0.488069
vt 0.098195 0.489058
vt 0.098181 0.488071
vt 0.098591 0.488071
vt 0.047473 0.210735
vt 0.047961 0.210735
vt 0.047952 0.209961
vt 0.047462 0.209961
vt 0.048179 0.210758
vt 0.048171 0.209974
vt 0.139457 0.468420
vt 0.139493 0.468416
vt 0.139505 0.468400
vt 0.139481 0.468388
vt 0.139443 0.468393
vt 0.139432 0.468409
vt 0.047903 0.210782
vt 0.047894 0.209988
vt 0.047403 0.210782
vt 0.047392 0.209988
vt 0.047191 0.210758
vt 0.047179 0.209974
vn 0.000000 0.000000 -1.000000
vn 0.000000 0.000000 -1.000000
vn 0.000000 0.000000 -1.000000
vn 0.000000 0.000000 -1.000000
vn -0.866025 0.000000 -0.500001
vn -0.866025 0.000000 -0.500001
vn -0.866025 0.000000 -0.500000
vn -0.866025 0.000000 -0.500000
vn -0.866025 0.000000 0.500000
vn -0.866025 0.000000 0.500000
vn -0.866025 0.000000 0.500000
vn -0.866025 0.000000 0.500000
vn 0.000000 0.000000 1.000000
vn 0.000000 0.000000 1.000000
vn 0.000000 0.000000 1.000000
vn 0.000000 0.000000 1.000000
vn 0.866025 0.000000 0.500000
vn 0.866025 0.000000 0.500000
vn 0.866025 0.000000 0.500000
vn 0.866025 0.000000 0.500000
vn 0.866025 0.000000 -0.500000
vn 0.866025 0.000000 -0.500000
vn 0.866025 0.000000 -0.500000
vn 0.866025 0.000000 -0.500000
vn 0.833365 -0.272037 -0.481144
vn 0.833365 -0.272037 -0.481144
vn 0.833365 -0.272037 -0.481144
vn 0.833365 -0.272037 0.481144
vn 0.833365 -0.272037 0.481144
vn 0.833365 -0.272037 0.481144
vn 0.000000 -0.272037 0.962287
vn 0.000000 -0.272037 0.962287
vn 0.000000 -0.272037 0.962287
vn -0.833365 -0.272037 0.481144
vn -0.833365 -0.272037 0.481144
vn -0.833365 -0.272037 0.481144
vn -0.833364 -0.272037 -0.481144
vn -0.833364 -0.272037 -0.481144
vn -0.833364 -0.272037 -0.481144
vn 0.000000 -0.272037 -0.962287
vn 0.000000 -0.272037 -0.962287
vn 0.000000 -0.272037 -0.962287
vn 0.000000 1.000000 0.000000
vn 0.000000 1.000000 0.000000
vn 0.000000 1.000000 0.000000
vn 0.000000 1.000000 0.000000
vn 0.000000 1.000000 0.000000
vn 0.000000 1.000000 0.000000
vn 0.000000 1.000000 0.000000
vn 0.000000 1.000000 0.000000
vn 0.000000 1.000000 0.000000
vn 0.000000 1.000000 0.000000
vn 0.000000 1.000000 0.000000
vn 0.000000 1.000000 0.000000
vn 0.000000 1.000000 0.000000
vn 0.000000 1.000000 0.000000
vn 0.000000 1.000000 0.000000
vn 0.000000 1.000000 0.000000
vn 0.000000 1.000000 0.000000
vn 0.000000 1.000000 0.000000
vn 0.000000 0.000000 -1.000000
vn 0.000000 0.000000 -1.000000
vn 0.000000 0.000000 -1.000000
vn 0.000000 0.000000 -1.000000
vn -0.866025 0.000000 -0.500001
vn -0.866025 0.000000 -0.500001
vn -0.866025 0.000000 -0.500001
vn -0.866025 0.000000 -0.500001
vn -0.866025 0.000000 0.500000
vn -0.866025 0.000000 0.500000
vn -0.866025 0.000000 0.500000
vn -0.866025 0.000000 0.500000
vn 0.000000 0.000000 1.000000
vn 0.000000 0.000000 1.000000
vn 0.000000 0.000000 1.000000
vn 0.000000 0.000000 1.000000
vn 0.866025 0.000000 0.500000
vn 0.866025 0.000000 0.500000
vn 0.866025 0.000000 0.500000
vn 0.866025 0.000000 0.500000
vn 0.866025 0.000000 -0.500000
vn 0.866025 0.000000 -0.500000
vn 0.866025 0.000000 -0.500000
vn 0.866025 0.000000 -0.500000
vn 0.000000 0.000000 -1.000000
vn 0.000000 0.000000 -1.000000
vn 0.000000 0.000000 -1.000000
vn 0.000000 0.000000 -1.000000
vn -0.866025 0.000000 -0.500001
vn -0.866025 0.000000 -0.500001
vn -0.866025 0.000000 -0.500001
vn -0.866025 0.000000 -0.500001
vn -0.866025 0.000000 0.500000
vn -0.866025 0.000000 0.500000
vn -0.866025 0.000000 0.500000
vn -0.866025 0.000000 0.500000
vn 0.000000 0.000000 1.000000
vn 0.000000 0.000000 1.000000
vn 0.000000 0.000000 1.000000
vn 0.000000 0.000000 1.000000
vn 0.866025 0.000000 0.500000
vn 0.866025 0.000000 0.500000
vn 0.866025 0.000000 0.500000
vn 0.866025 0.000000 0.500000
vn 0.866025 0.000000 -0.500000
vn 0.866025 0.000000 -0.500000
vn 0.866025 0.000000 -0.500000
vn 0.866025 0.000000 -0.500000
s off
f 15/3/1 16/4/2 8/6/3 7/8/4
f 16/4/5 17/10/6 9/12/7 8/6/8
f 17/10/9 18/20/10 10/21/11 9/12/12
f 18/20/13 19/22/14 11/23/15 10/21/16
f 19/22/17 20/24/18 12/25/19 11/23/20
f 20/24/21 15/3/22 7/8/23 12/25/24
f 1/13/25 6/14/26 13/15/27
f 6/14/28 5/16/29 13/15/30
f 5/16/31 4/17/32 13/15/33
f 4/17/34 3/18/35 13/15/36
f 3/18/37 2/19/38 13/15/39
f 2/19/40 1/13/41 13/15/42
f 7/8/43 8/6/44 14/26/45
f 8/6/46 9/12/47 14/26/48
f 9/12/49 10/21/50 14/26/51
f 10/21/52 11/23/53 14/26/54
f 11/23/55 12/25/56 14/26/57
f 12/25/58 7/8/59 14/26/60
f 21/27/61 22/28/62 16/29/63 15/30/64
f 22/28/65 23/31/66 17/32/67 16/29/68
f 23/31/69 24/39/70 18/40/71 17/32/72
f 24/39/73 25/41/74 19/42/75 18/40/76
f 25/41/77 26/43/78 20/44/79 19/42/80
f 26/43/81 21/27/82 15/30/83 20/44/84
f 1/1/85 2/2/86 22/34/87 21/33/88
f 2/2/89 3/5/90 23/35/91 22/34/92
f 3/5/93 4/7/94 24/36/95 23/35/96
f 4/7/97 5/9/98 25/37/99 24/36/100
f 5/9/101 6/11/102 26/38/103 25/37/104
f 6/11/105 1/1/106 21/33/107 26/38/108
