# This file uses centimeters as units for non-parametric coordinates.

v -6.592151 7.108914 10.758663
v 2.929402 7.108914 10.758663
v -6.592151 9.629510 10.758663
v 2.929402 9.629510 10.758663
v -6.592151 9.629510 -10.547890
v 2.929402 9.629510 -10.547890
v -6.592151 7.108914 -10.547890
v 2.929402 7.108914 -10.547890
v -6.757809 9.629510 9.337852
v 1.723132 9.629510 9.337852
v 1.723132 9.629510 -9.127079
v -6.757809 9.629510 -9.127079
v -6.757809 7.108914 -9.127079
v 1.723132 7.108914 -9.127079
v 1.723132 7.108914 9.337852
v -6.757809 7.108914 9.337852
v 4.541355 9.629510 5.644844
v 4.541355 9.629510 -5.434101
v 6.243937 9.629510 6.497353
v 6.243937 9.629510 -6.286579
v 6.243937 7.108914 -6.286579
v 6.243937 7.108914 6.497353
v 4.541355 7.108914 -5.434101
v 4.541355 7.108914 5.644844
v -7.859775 4.142441 10.474445
v 8.739695 4.142441 3.629917
v -7.859775 5.764277 10.474445
v 8.739695 5.764277 3.629917
v -0.905058 5.764277 -13.385201
v -0.905058 4.142441 -13.385201
v -1.884142 4.142441 -13.640411
v -8.838861 4.142441 10.219238
v -8.838861 5.764277 10.219238
v -1.884142 5.764277 -13.640411
v -6.631501 5.764314 13.415939
v 7.711657 5.764314 2.838802
v -6.631501 7.108908 13.415939
v 7.711657 7.108908 2.838802
v -4.334388 7.108908 -13.496300
v -4.334388 5.764314 -13.496300
v 1.827528 5.764314 7.177948
v 1.364133 7.108908 7.519703
v -5.302188 7.108908 -2.157967
v -5.288524 5.764314 -2.318062
v 2.188712 7.108906 -4.650620
v 2.096637 5.764314 -4.775486
v -7.054956 5.764318 -10.935249
v -7.539250 5.764297 -5.261440
v -7.546179 7.108889 -5.180199
v -7.054962 7.108912 -10.935253
v 2.235969 5.764277 -8.168022
v 2.282701 7.108871 -8.104664
v -1.028255 5.764352 -12.594490
v -1.028268 7.108946 -12.594505
v -7.969369 5.764317 1.679249
v -7.994305 7.108908 1.971272
v -8.329266 5.764299 10.723576
v -8.329266 7.108895 10.723576
v -3.321393 5.764303 13.640442
v 0.972201 5.764305 10.474174
v 0.737011 7.108901 10.647671
v -3.321383 7.108900 13.640457
v 4.879092 5.764314 8.426041
v 4.643877 7.108908 8.599468
v 7.865723 5.764314 6.223541
v 7.865723 7.108908 6.223541
v 5.988802 5.764357 -4.729034
v 8.838850 5.764282 -0.864235
v 6.035542 7.108948 -4.665665
v 8.838840 7.108878 -0.864246
v -5.248975 2.520598 11.501289
v 6.559740 2.520598 5.010815
v -5.248975 4.142441 11.501289
v 6.559740 4.142441 5.010815
v -6.485981 4.142441 -9.894154
v -6.485981 2.520598 -9.894154
v 2.511005 2.520598 11.073574
v 2.542111 4.142441 11.042465
v 3.071127 4.142441 -10.762573
v 3.036911 2.520598 -10.796776
v -7.377856 2.520598 -9.207397
v -6.372241 2.520598 11.574234
v -6.372241 4.142441 11.574234
v -7.377856 4.142441 -9.207397
v 6.877852 4.142441 -4.765472
v 6.867589 2.520598 -4.775753
v -6.592151 -0.000001 10.758663
v 2.929402 -0.000001 10.758663
v -6.592151 2.520598 10.758663
v 2.929402 2.520598 10.758663
v -6.592151 2.520598 -10.547890
v 2.929402 2.520598 -10.547890
v -6.592151 -0.000001 -10.547890
v 2.929402 -0.000001 -10.547890
v -6.757809 2.520598 9.337852
v 1.723132 2.520598 9.337852
v 1.723132 2.520598 -9.127079
v -6.757809 2.520598 -9.127079
v -6.757809 -0.000001 -9.127079
v 1.723132 -0.000001 -9.127079
v 1.723132 -0.000001 9.337852
v -6.757809 -0.000001 9.337852
v 4.541355 2.520598 5.644844
v 4.541355 2.520598 -5.434101
v 6.243937 2.520598 6.497353
v 6.243937 2.520598 -6.286579
v 6.243937 -0.000001 -6.286579
v 6.243937 -0.000001 6.497353
v 4.541355 -0.000001 -5.434101
v 4.541355 -0.000001 5.644844
vt 0.026940 0.329063
vt 0.026901 0.328648
vt 0.026896 0.328630
vt 0.026935 0.329051
vt 0.038330 0.379147
vt 0.038262 0.378826
vt 0.038395 0.378697
vt 0.038852 0.378617
vt 0.039033 0.378688
vt 0.039134 0.378997
vt 0.027896 0.328947
vt 0.027836 0.328530
vt 0.027826 0.328550
vt 0.027885 0.328960
vt 0.039124 0.379039
vt 0.039026 0.378732
vt 0.038847 0.378662
vt 0.038396 0.378742
vt 0.038265 0.378869
vt 0.038332 0.379187
vt 0.027070 0.328468
vt 0.027073 0.328488
vt 0.027623 0.328430
vt 0.027630 0.328409
vt 0.026964 0.328675
vt 0.027000 0.329052
vt 0.027115 0.328536
vt 0.027602 0.328485
vt 0.027833 0.328961
vt 0.027781 0.328589
vt 0.027772 0.328607
vt 0.027823 0.328975
vt 0.027596 0.328505
vt 0.027117 0.328556
vt 0.027004 0.329063
vt 0.026968 0.328693
vt 0.215590 0.473149
vt 0.215364 0.473072
vt 0.215362 0.473021
vt 0.215589 0.473080
vt 0.215992 0.472997
vt 0.215992 0.473040
vt 0.215992 0.473040
vt 0.215590 0.473149
vt 0.215589 0.473080
vt 0.215992 0.472997
vt 0.143110 0.304030
vt 0.142977 0.303995
vt 0.142982 0.303937
vt 0.143108 0.303960
vt 0.143108 0.303960
vt 0.142982 0.303937
vt 0.143314 0.303930
vt 0.143512 0.303945
vt 0.143177 0.303958
vt 0.143319 0.303986
vt 0.142884 0.303970
vt 0.143177 0.303958
vt 0.143171 0.303911
vt 0.142882 0.303919
vt 0.143512 0.303945
vt 0.143345 0.303980
vt 0.143342 0.303926
vt 0.143512 0.303902
vt 0.142982 0.303937
vt 0.142977 0.303995
vt 0.142884 0.303970
vt 0.142882 0.303919
vt 0.142882 0.303919
vt 0.143171 0.303911
vt 0.142977 0.303995
vt 0.143110 0.304030
vt 0.143257 0.303939
vt 0.143267 0.303997
vt 0.143110 0.304030
vt 0.143108 0.303960
vt 0.142884 0.303970
vt 0.143171 0.303911
vt 0.143177 0.303958
vt 0.143512 0.303945
vt 0.143512 0.303902
vt 0.143512 0.303902
vt 0.138032 0.493028
vt 0.137938 0.492831
vt 0.137938 0.492785
vt 0.138031 0.492982
vt 0.138794 0.492592
vt 0.138938 0.492817
vt 0.138933 0.492862
vt 0.138793 0.492636
vt 0.138502 0.492558
vt 0.138500 0.492601
vt 0.138923 0.492889
vt 0.138045 0.493058
vt 0.138045 0.493012
vt 0.138928 0.492845
vt 0.138126 0.492687
vt 0.138126 0.492643
vt 0.026940 0.329063
vt 0.026901 0.328648
vt 0.026896 0.328630
vt 0.026935 0.329051
vt 0.038330 0.379147
vt 0.038262 0.378826
vt 0.038395 0.378697
vt 0.038852 0.378617
vt 0.039033 0.378688
vt 0.039134 0.378997
vt 0.027896 0.328947
vt 0.027836 0.328530
vt 0.027826 0.328550
vt 0.027885 0.328960
vt 0.039124 0.379039
vt 0.039026 0.378732
vt 0.038847 0.378662
vt 0.038396 0.378742
vt 0.038265 0.378869
vt 0.038332 0.379187
vt 0.027070 0.328468
vt 0.027073 0.328488
vt 0.027623 0.328430
vt 0.027630 0.328409
vt 0.026964 0.328675
vt 0.027000 0.329052
vt 0.027115 0.328536
vt 0.027602 0.328485
vt 0.027833 0.328961
vt 0.027781 0.328589
vt 0.027772 0.328607
vt 0.027823 0.328975
vt 0.027596 0.328505
vt 0.027117 0.328556
vt 0.027004 0.329063
vt 0.026968 0.328693
vn 0.000000 0.000000 1.000000
vn 0.000000 0.000000 1.000000
vn 0.000000 0.000000 1.000000
vn 0.000000 0.000000 1.000000
vn 0.000000 1.000000 -0.000000
vn 0.000000 1.000000 -0.000000
vn 0.000000 1.000000 -0.000000
vn 0.000000 1.000000 -0.000000
vn 0.000000 1.000000 -0.000000
vn 0.000000 1.000000 -0.000000
vn 0.000000 0.000000 -1.000000
vn 0.000000 0.000000 -1.000000
vn 0.000000 0.000000 -1.000000
vn 0.000000 0.000000 -1.000000
vn 0.000000 -1.000000 0.000000
vn 0.000000 -1.000000 0.000000
vn 0.000000 -1.000000 0.000000
vn 0.000000 -1.000000 0.000000
vn 0.000000 -1.000000 0.000000
vn 0.000000 -1.000000 0.000000
vn 0.981613 0.000000 0.190880
vn 0.981613 0.000000 0.190880
vn 0.981613 0.000000 -0.190880
vn 0.981613 0.000000 -0.190880
vn -1.000000 0.000000 0.000000
vn -1.000000 0.000000 0.000000
vn -1.000000 0.000000 0.000000
vn -1.000000 0.000000 0.000000
vn 0.000000 1.000000 0.000000
vn 0.000000 1.000000 0.000000
vn 0.000000 1.000000 0.000000
vn 0.000000 1.000000 0.000000
vn 0.000000 1.000000 -0.000000
vn 0.000000 1.000000 -0.000000
vn 0.000000 1.000000 0.000000
vn 0.000000 1.000000 0.000000
vn 0.000000 1.000000 -0.000000
vn 0.000000 1.000000 -0.000000
vn 0.000000 1.000000 -0.000000
vn 0.000000 1.000000 -0.000000
vn 0.000000 -1.000000 0.000000
vn 0.000000 -1.000000 0.000000
vn 0.000000 -1.000000 0.000000
vn 0.000000 -1.000000 0.000000
vn 0.000000 -1.000000 -0.000000
vn 0.000000 -1.000000 -0.000000
vn 0.000000 -1.000000 0.000000
vn 0.000000 -1.000000 0.000000
vn 0.000000 -1.000000 -0.000000
vn 0.000000 -1.000000 -0.000000
vn 0.000000 -1.000000 -0.000000
vn 0.000000 -1.000000 -0.000000
vn -0.993271 0.000000 0.115809
vn -0.993271 0.000000 0.115809
vn -0.993271 0.000000 0.115809
vn -0.993271 0.000000 0.115809
vn -0.993271 0.000000 -0.115809
vn -0.993271 0.000000 -0.115809
vn -0.993271 0.000000 -0.115809
vn -0.993271 0.000000 -0.115809
vn 0.000000 1.000000 -0.000000
vn 0.000000 1.000000 -0.000000
vn 0.000000 1.000000 -0.000000
vn 0.000000 1.000000 -0.000000
vn 0.789336 0.000000 0.613962
vn 0.981613 0.000000 0.190880
vn 0.981613 0.000000 0.190880
vn 0.789336 0.000000 0.613962
vn 0.000000 -1.000000 0.000000
vn 0.000000 -1.000000 0.000000
vn 0.000000 -1.000000 0.000000
vn 0.000000 -1.000000 0.000000
vn 0.000000 -1.000000 -0.000000
vn 0.000000 -1.000000 -0.000000
vn 0.000000 -1.000000 -0.000000
vn 0.000000 -1.000000 -0.000000
vn 0.981613 0.000000 -0.190880
vn 0.981613 0.000000 -0.190880
vn 0.789336 0.000000 -0.613962
vn 0.789336 0.000000 -0.613962
vn 0.000000 1.000000 0.000000
vn 0.000000 1.000000 0.000000
vn 0.000000 1.000000 0.000000
vn 0.000000 1.000000 0.000000
vn 0.381200 0.000000 0.924493
vn 0.381200 0.000000 0.924493
vn 0.381200 0.000000 0.924493
vn 0.381200 0.000000 0.924493
vn 0.000000 1.000000 0.000000
vn 0.000000 1.000000 0.000000
vn 0.000000 1.000000 0.000000
vn 0.000000 -1.000000 0.000000
vn 0.000000 -1.000000 -0.000000
vn 0.000000 -1.000000 0.000000
vn 0.869960 0.000000 -0.493123
vn 0.869960 0.000000 -0.493123
vn 0.869960 0.000000 -0.493123
vn 0.869960 0.000000 -0.493123
vn -0.960047 0.000000 -0.279839
vn -0.960047 0.000000 -0.279839
vn -0.960047 0.000000 -0.279839
vn -0.960047 0.000000 -0.279839
vn 0.000000 -1.000000 0.000000
vn 0.000000 -1.000000 0.000000
vn 0.000000 -1.000000 0.000000
vn 0.000000 -1.000000 0.000000
vn -0.252231 0.000000 0.967667
vn -0.252231 0.000000 0.967667
vn -0.252231 0.000000 0.967667
vn -0.252231 0.000000 0.967667
vn 0.000000 1.000000 0.000000
vn 0.000000 1.000000 0.000000
vn 0.000000 1.000000 -0.000000
vn 0.000000 1.000000 -0.000000
vn 0.252234 0.000000 -0.967666
vn 0.252234 0.000000 -0.967666
vn 0.252234 0.000000 -0.967666
vn 0.252234 0.000000 -0.967666
vn 0.593509 -0.000024 0.804828
vn 0.593509 -0.000024 0.804828
vn 0.593509 -0.000024 0.804828
vn 0.593509 -0.000024 0.804828
vn -0.000000 1.000000 0.000000
vn 0.000000 1.000000 0.000000
vn -0.000000 1.000000 -0.000000
vn 0.000000 -1.000000 -0.000000
vn -0.000000 -1.000000 -0.000000
vn 0.000000 -1.000000 -0.000000
vn 0.804828 -0.000002 -0.593509
vn 0.804827 -0.000002 -0.593509
vn 0.804827 -0.000002 -0.593509
vn 0.804827 -0.000002 -0.593509
vn -0.996377 -0.000000 -0.085046
vn -0.996377 -0.000000 -0.085046
vn -0.996377 -0.000000 -0.085046
vn -0.996377 -0.000000 -0.085046
vn 0.593515 0.000009 0.804823
vn 0.593515 0.000009 0.804823
vn 0.593515 0.000009 0.804823
vn 0.593515 0.000009 0.804823
vn -0.000000 1.000000 -0.000000
vn 0.000000 1.000000 0.000000
vn 0.000000 1.000000 0.000000
vn 0.000000 1.000000 0.000000
vn 0.000000 -1.000000 -0.000000
vn -0.000000 -1.000000 -0.000000
vn 0.000000 -1.000000 -0.000001
vn -0.999226 -0.005029 -0.039014
vn -0.999226 -0.005029 -0.039014
vn -0.999226 -0.005029 -0.039014
vn -0.999226 -0.005029 -0.039014
vn 0.000000 -1.000000 -0.000000
vn -0.000000 -1.000000 -0.000000
vn -0.000000 -1.000000 -0.000001
vn -0.000000 -1.000000 -0.000000
vn 0.804828 -0.000002 -0.593508
vn 0.804828 -0.000002 -0.593508
vn 0.804828 -0.000002 -0.593508
vn 0.804828 -0.000002 -0.593508
vn -0.000000 1.000000 -0.000000
vn 0.000000 1.000000 0.000000
vn 0.000000 1.000000 0.000000
vn 0.000003 -1.000000 -0.000001
vn 0.000003 -1.000000 -0.000001
vn 0.000003 -1.000000 -0.000001
vn 0.000003 -1.000000 -0.000001
vn -0.797241 -0.060012 0.600671
vn -0.797241 -0.060012 0.600671
vn -0.797241 -0.060012 0.600671
vn -0.797241 -0.060012 0.600671
vn -0.000003 1.000000 0.000001
vn -0.000003 1.000000 0.000001
vn -0.000003 1.000000 0.000001
vn -0.000003 1.000000 0.000001
vn -0.685437 -0.000002 -0.728132
vn -0.685437 -0.000002 -0.728132
vn -0.685437 -0.000002 -0.728132
vn -0.685437 -0.000002 -0.728132
vn 0.997967 -0.053892 0.034010
vn 0.997967 -0.053892 0.034010
vn 0.997967 -0.053892 0.034010
vn 0.997967 -0.053892 0.034010
vn -0.000002 -1.000000 -0.000004
vn -0.000002 -1.000000 -0.000004
vn -0.000002 -1.000000 -0.000004
vn -0.000002 -1.000000 -0.000004
vn 0.263153 -0.000004 -0.964754
vn 0.263153 -0.000004 -0.964754
vn 0.263153 -0.000004 -0.964754
vn 0.263153 -0.000004 -0.964754
vn 0.000002 1.000000 0.000004
vn 0.000002 1.000000 0.000004
vn 0.000002 1.000000 0.000004
vn 0.000002 1.000000 0.000004
vn -0.831457 0.080488 -0.549728
vn -0.831457 0.080488 -0.549728
vn -0.831457 0.080488 -0.549728
vn -0.831457 0.080488 -0.549728
vn 0.000000 -1.000000 -0.000000
vn 0.000000 -1.000000 -0.000001
vn 0.000002 -1.000000 -0.000001
vn 0.000002 -1.000000 -0.000001
vn -0.845868 0.000000 0.533392
vn -0.845868 0.000000 0.533392
vn -0.845868 0.000000 0.533392
vn -0.845868 0.000000 0.533392
vn -0.000000 1.000000 0.000000
vn -0.000000 1.000000 -0.000000
vn -0.000003 1.000000 0.000000
vn -0.000003 1.000000 0.000000
vn 0.000000 -1.000000 -0.000001
vn -0.000000 -1.000000 -0.000000
vn -0.000003 -1.000000 -0.000004
vn -0.000003 -1.000000 -0.000004
vn 0.953585 0.205556 0.220050
vn 0.953585 0.205556 0.220050
vn 0.953585 0.205556 0.220050
vn 0.953585 0.205556 0.220050
vn 0.000000 1.000000 0.000000
vn -0.000000 1.000000 0.000000
vn 0.000002 1.000000 0.000003
vn 0.000002 1.000000 0.000003
vn -0.067670 -0.000005 0.997708
vn -0.067670 -0.000005 0.997708
vn -0.067670 -0.000005 0.997708
vn -0.067670 -0.000005 0.997708
vn -0.333204 -0.260176 0.906247
vn -0.333204 -0.260176 0.906247
vn -0.333204 -0.260176 0.906247
vn -0.333204 -0.260176 0.906247
vn -0.000000 -1.000000 -0.000000
vn -0.000000 -1.000000 -0.000001
vn 0.000000 -1.000000 0.000000
vn 0.000000 -1.000000 0.000000
vn 0.998966 0.000000 -0.045471
vn 0.998966 0.000000 -0.045471
vn 0.998966 0.000000 -0.045471
vn 0.998966 0.000000 -0.045471
vn 0.000000 1.000000 0.000000
vn 0.000000 1.000000 0.000000
vn 0.000000 1.000000 -0.000000
vn 0.000000 1.000000 -0.000000
vn -0.000000 -1.000000 -0.000001
vn -0.000000 -1.000000 -0.000000
vn -0.000002 -1.000000 -0.000005
vn -0.000002 -1.000000 -0.000005
vn 0.004048 0.069618 -0.997566
vn 0.004048 0.069618 -0.997566
vn 0.004048 0.069618 -0.997566
vn 0.004048 0.069618 -0.997566
vn 0.000000 1.000000 0.000000
vn 0.000000 1.000000 0.000000
vn 0.000001 1.000000 0.000005
vn 0.000001 1.000000 0.000005
vn 0.956661 0.000005 0.291203
vn 0.956661 0.000005 0.291203
vn 0.956661 0.000005 0.291203
vn 0.956661 0.000005 0.291203
vn 0.057910 0.007889 0.998291
vn 0.475143 0.003882 0.879900
vn 0.488159 0.003689 0.872747
vn 0.057910 0.007889 0.998291
vn 0.000000 1.000000 -0.000000
vn 0.000000 1.000000 -0.000000
vn 0.000000 1.000000 -0.000000
vn 0.000000 1.000000 -0.000000
vn 0.000000 -1.000000 0.000000
vn 0.000000 -1.000000 0.000000
vn 0.000000 -1.000000 0.000000
vn 0.000000 -1.000000 0.000000
vn 0.976530 -0.003829 -0.215350
vn 0.975914 -0.003834 -0.218122
vn 0.349598 0.005717 -0.936882
vn 0.366575 0.005451 -0.930372
vn -0.998831 0.000000 0.048333
vn -0.998831 0.000000 0.048333
vn -0.998831 0.000000 0.048333
vn -0.998831 0.000000 0.048333
vn 0.488159 0.003689 0.872747
vn 0.475143 0.003882 0.879900
vn 0.831939 -0.002656 0.554861
vn 0.831939 -0.002656 0.554861
vn 0.000000 1.000000 -0.000000
vn 0.000000 1.000000 -0.000000
vn 0.000000 1.000000 -0.000000
vn 0.000000 1.000000 -0.000000
vn 0.000000 -1.000000 0.000000
vn 0.000000 -1.000000 0.000000
vn 0.000000 -1.000000 0.000000
vn 0.000000 -1.000000 0.000000
vn 0.366575 0.005451 -0.930372
vn 0.349598 0.005717 -0.936882
vn -0.092419 0.011473 -0.995654
vn -0.092419 0.011473 -0.995654
vn 0.000000 -1.000000 0.000000
vn 0.000000 -1.000000 0.000000
vn 0.000000 -1.000000 0.000000
vn 0.000000 -1.000000 0.000000
vn 0.057910 0.007889 0.998291
vn 0.057910 0.007889 0.998291
vn 0.064804 0.000000 0.997898
vn 0.064804 0.000000 0.997898
vn 0.000000 1.000000 -0.000000
vn 0.000000 1.000000 -0.000000
vn 0.000000 1.000000 0.000000
vn 0.000000 1.000000 0.000000
vn -0.610100 0.000000 -0.792324
vn -0.610100 0.000000 -0.792324
vn -0.610100 0.000000 -0.792324
vn -0.610100 0.000000 -0.792324
vn 0.999483 -0.003264 0.031981
vn 0.975914 -0.003834 -0.218122
vn 0.976530 -0.003829 -0.215350
vn 0.999483 -0.003264 0.031981
vn 0.000000 0.000000 1.000000
vn 0.000000 0.000000 1.000000
vn 0.000000 0.000000 1.000000
vn 0.000000 0.000000 1.000000
vn 0.000000 1.000000 0.000000
vn 0.000000 1.000000 0.000000
vn 0.000000 1.000000 0.000000
vn 0.000000 1.000000 0.000000
vn 0.000000 1.000000 0.000000
vn 0.000000 1.000000 0.000000
vn 0.000000 0.000000 -1.000000
vn 0.000000 0.000000 -1.000000
vn 0.000000 0.000000 -1.000000
vn 0.000000 0.000000 -1.000000
vn 0.000000 -1.000000 -0.000000
vn 0.000000 -1.000000 -0.000000
vn 0.000000 -1.000000 -0.000000
vn 0.000000 -1.000000 -0.000000
vn 0.000000 -1.000000 -0.000000
vn 0.000000 -1.000000 -0.000000
vn 0.981613 0.000000 0.190880
vn 0.981613 0.000000 0.190880
vn 0.981613 0.000000 -0.190880
vn 0.981613 0.000000 -0.190880
vn -1.000000 0.000000 0.000000
vn -1.000000 0.000000 0.000000
vn -1.000000 0.000000 0.000000
vn -1.000000 0.000000 0.000000
vn 0.000000 1.000000 0.000000
vn 0.000000 1.000000 0.000000
vn 0.000000 1.000000 0.000000
vn 0.000000 1.000000 0.000000
vn 0.000000 1.000000 -0.000000
vn 0.000000 1.000000 -0.000000
vn 0.000000 1.000000 0.000000
vn 0.000000 1.000000 0.000000
vn 0.000000 1.000000 -0.000000
vn 0.000000 1.000000 -0.000000
vn 0.000000 1.000000 -0.000000
vn 0.000000 1.000000 -0.000000
vn 0.000000 -1.000000 0.000000
vn 0.000000 -1.000000 0.000000
vn 0.000000 -1.000000 0.000000
vn 0.000000 -1.000000 0.000000
vn 0.000000 -1.000000 0.000000
vn 0.000000 -1.000000 0.000000
vn 0.000000 -1.000000 0.000000
vn 0.000000 -1.000000 0.000000
vn 0.000000 -1.000000 0.000000
vn 0.000000 -1.000000 0.000000
vn 0.000000 -1.000000 0.000000
vn 0.000000 -1.000000 0.000000
vn -0.993271 0.000000 0.115809
vn -0.993271 0.000000 0.115809
vn -0.993271 0.000000 0.115809
vn -0.993271 0.000000 0.115809
vn -0.993271 0.000000 -0.115809
vn -0.993271 0.000000 -0.115809
vn -0.993271 0.000000 -0.115809
vn -0.993271 0.000000 -0.115809
vn 0.000000 1.000000 -0.000000
vn 0.000000 1.000000 -0.000000
vn 0.000000 1.000000 -0.000000
vn 0.000000 1.000000 -0.000000
vn 0.789336 0.000000 0.613962
vn 0.981613 0.000000 0.190880
vn 0.981613 0.000000 0.190880
vn 0.789336 0.000000 0.613962
vn 0.000000 -1.000000 0.000000
vn 0.000000 -1.000000 0.000000
vn 0.000000 -1.000000 0.000000
vn 0.000000 -1.000000 0.000000
vn 0.000000 -1.000000 0.000000
vn 0.000000 -1.000000 0.000000
vn 0.000000 -1.000000 0.000000
vn 0.000000 -1.000000 0.000000
vn 0.981613 0.000000 -0.190880
vn 0.981613 0.000000 -0.190880
vn 0.789336 0.000000 -0.613962
vn 0.789336 0.000000 -0.613962
vn 0.000000 1.000000 0.000000
vn 0.000000 1.000000 0.000000
vn 0.000000 1.000000 0.000000
vn 0.000000 1.000000 0.000000
s off
f 1/1/1 2/2/2 4/3/3 3/4/4
f 9/5/5 10/6/6 17/7/7 18/8/8 11/9/9 12/10/10
f 5/11/11 6/12/12 8/13/13 7/14/14
f 13/15/15 14/16/16 23/17/17 24/18/18 15/19/19 16/20/20
f 19/21/21 22/22/22 21/23/23 20/24/24
f 13/15/25 16/20/26 9/5/27 12/10/28
f 3/4/29 4/3/30 10/25/31 9/26/32
f 17/27/33 19/21/34 20/24/35 18/28/36
f 6/12/37 5/11/38 12/29/39 11/30/40
f 7/14/41 8/13/42 14/31/43 13/32/44
f 23/33/45 21/23/46 22/22/47 24/34/48
f 2/2/49 1/1/50 16/35/51 15/36/52
f 1/1/53 3/4/54 9/26/55 16/35/56
f 5/11/57 7/14/58 13/32/59 12/29/60
f 4/3/61 19/21/62 17/27/63 10/25/64
f 2/2/65 22/22/66 19/21/67 4/3/68
f 24/34/69 22/22/70 2/2/71 15/36/72
f 8/13/73 21/23/74 23/33/75 14/31/76
f 20/24/77 21/23/78 8/13/79 6/12/80
f 18/28/81 20/24/82 6/12/83 11/30/84
f 25/37/85 26/38/86 28/39/87 27/40/88
f 27/40/89 28/39/90 29/41/91
f 30/42/92 26/38/93 25/37/94
f 26/38/95 30/42/96 29/41/97 28/39/98
f 31/43/99 32/44/100 33/45/101 34/46/102
f 30/42/103 25/37/104 32/44/105 31/43/106
f 25/37/107 27/40/108 33/45/109 32/44/110
f 27/40/111 29/41/112 34/46/113 33/45/114
f 29/41/115 30/42/116 31/43/117 34/46/118
f 59/47/119 60/48/120 61/49/121 62/50/122
f 37/51/123 42/52/124 43/53/125
f 40/54/126 46/55/127 44/56/128
f 68/57/129 67/58/130 69/59/131 70/60/132
f 47/61/133 48/62/134 49/63/135 50/64/136
f 64/65/137 63/66/138 65/67/139 66/68/140
f 43/53/141 42/52/142 38/69/143 45/70/144
f 44/56/145 41/71/146 35/72/147
f 56/73/148 55/74/149 57/75/150 58/76/151
f 44/56/152 46/55/153 36/77/154 41/71/155
f 52/78/156 51/79/157 53/80/158 54/81/159
f 43/53/160 45/70/161 39/82/162
f 40/54/163 44/56/164 48/62/165 47/61/166
f 44/56/167 43/53/168 49/63/169 48/62/170
f 43/53/171 39/82/172 50/64/173 49/63/174
f 39/82/175 40/54/176 47/61/177 50/64/178
f 45/70/179 46/55/180 51/79/181 52/78/182
f 46/55/183 40/54/184 53/80/185 51/79/186
f 40/54/187 39/82/188 54/81/189 53/80/190
f 39/82/191 45/70/192 52/78/193 54/81/194
f 43/53/195 44/56/196 55/74/197 56/73/198
f 44/56/199 35/72/200 57/75/201 55/74/202
f 35/72/203 37/51/204 58/76/205 57/75/206
f 37/51/207 43/53/208 56/73/209 58/76/210
f 35/72/211 41/71/212 60/48/213 59/47/214
f 41/71/215 42/52/216 61/49/217 60/48/218
f 42/52/219 37/51/220 62/50/221 61/49/222
f 37/51/223 35/72/224 59/47/225 62/50/226
f 42/52/227 41/71/228 63/66/229 64/65/230
f 41/71/231 36/77/232 65/67/233 63/66/234
f 36/77/235 38/69/236 66/68/237 65/67/238
f 38/69/239 42/52/240 64/65/241 66/68/242
f 36/77/243 46/55/244 67/58/245 68/57/246
f 46/55/247 45/70/248 69/59/249 67/58/250
f 45/70/251 38/69/252 70/60/253 69/59/254
f 38/69/255 36/77/256 68/57/257 70/60/258
f 71/83/259 77/84/260 78/85/261 73/86/262
f 73/86/263 78/85/264 79/87/265 75/88/266
f 76/89/267 80/90/268 77/84/269 71/83/270
f 85/91/271 86/92/272 80/90/273 79/87/274
f 81/93/275 82/94/276 83/95/277 84/96/278
f 78/85/279 77/84/280 72/97/281 74/98/282
f 79/87/283 78/85/284 74/98/285 85/91/286
f 77/84/287 80/90/288 86/92/289 72/97/290
f 79/87/291 80/90/292 76/89/293 75/88/294
f 76/89/295 71/83/296 82/94/297 81/93/298
f 71/83/299 73/86/300 83/95/301 82/94/302
f 73/86/303 75/88/304 84/96/305 83/95/306
f 75/88/307 76/89/308 81/93/309 84/96/310
f 72/97/311 86/92/312 85/91/313 74/98/314
f 87/99/315 88/100/316 90/101/317 89/102/318
f 95/103/319 96/104/320 103/105/321 104/106/322 97/107/323 98/108/324
f 91/109/325 92/110/326 94/111/327 93/112/328
f 99/113/329 100/114/330 109/115/331 110/116/332 101/117/333 102/118/334
f 105/119/335 108/120/336 107/121/337 106/122/338
f 99/113/339 102/118/340 95/103/341 98/108/342
f 89/102/343 90/101/344 96/123/345 95/124/346
f 103/125/347 105/119/348 106/122/349 104/126/350
f 92/110/351 91/109/352 98/127/353 97/128/354
f 93/112/355 94/111/356 100/129/357 99/130/358
f 109/131/359 107/121/360 108/120/361 110/132/362
f 88/100/363 87/99/364 102/133/365 101/134/366
f 87/99/367 89/102/368 95/124/369 102/133/370
f 91/109/371 93/112/372 99/130/373 98/127/374
f 90/101/375 105/119/376 103/125/377 96/123/378
f 88/100/379 108/120/380 105/119/381 90/101/382
f 110/132/383 108/120/384 88/100/385 101/134/386
f 94/111/387 107/121/388 109/131/389 100/129/390
f 106/122/391 107/121/392 94/111/393 92/110/394
f 104/126/395 106/122/396 92/110/397 97/128/398
