# This file uses centimeters as units for non-parametric coordinates.

v -3.143798 0.000000 -3.143798
v 3.143798 0.000000 -3.143798
v 3.143798 0.000000 3.143798
v -3.143798 0.000000 3.143798
v -1.474734 1.549140 -1.268454
v 1.146008 1.549140 -1.268454
v -2.290312 1.549141 3.143798
v -1.882523 0.842830 3.143798
v -3.143798 2.980869 3.143798
v 3.143798 2.980869 3.143798
v 3.143798 1.502543 -3.143798
v -3.143798 1.502543 -3.143798
v -1.066946 0.842830 3.143798
v -1.882523 2.255451 3.143798
v -0.659157 1.549140 3.143798
v -1.066946 2.255451 3.143798
v 0.042315 1.549141 3.143798
v 0.594162 0.593315 3.143798
v 1.697855 0.593315 3.143798
v 0.594162 2.504966 3.143798
v 2.249701 1.549140 3.143798
v 1.697855 2.504966 3.143798
v 0.355888 1.502543 -3.143798
v 0.355888 2.980869 3.143798
v 2.296994 1.502543 -3.143798
v 2.296994 2.980869 3.143798
v -2.010171 1.502543 -3.143798
v -2.010171 2.980869 3.143798
v -0.322023 0.000000 3.143798
v -0.322023 0.000000 -3.143798
v -0.261354 1.502543 -3.143798
v -0.261354 2.980869 3.143798
v -2.010171 2.890391 2.758978
v -0.261354 2.890391 2.758978
v 0.355888 2.890391 2.758978
v 2.296994 2.890391 2.758978
v 0.355888 1.174047 -3.143798
v 0.355888 2.561895 2.758978
v -2.010171 1.174047 -3.143798
v -2.010171 2.561895 2.758978
vt 0.124356 0.380641
vt 0.123703 0.380522
vt 0.123384 0.380782
vt 0.124121 0.380945
vt 0.124090 0.380542
vt 0.123796 0.380490
vt 0.124025 0.380735
vt 0.123968 0.380810
vt 0.124150 0.380575
vt 0.123373 0.380434
vt 0.123706 0.380368
vt 0.124373 0.380480
vt 0.123867 0.380789
vt 0.123978 0.380637
vt 0.123820 0.380694
vt 0.123874 0.380617
vt 0.123735 0.380677
vt 0.123667 0.380776
vt 0.123541 0.380749
vt 0.123671 0.380547
vt 0.123477 0.380625
vt 0.123540 0.380523
vt 0.123976 0.380413
vt 0.123688 0.380491
vt 0.123758 0.380377
vt 0.123434 0.380445
vt 0.124243 0.380458
vt 0.123999 0.380547
vt 0.123789 0.380871
vt 0.124063 0.380587
vt 0.124074 0.380430
vt 0.123802 0.380512
vt 0.124014 0.380542
vt 0.123818 0.380507
vt 0.123705 0.380486
vt 0.123454 0.380441
vt 0.123980 0.380415
vt 0.123705 0.380486
vt 0.124247 0.380459
vt 0.124014 0.380542
vt 0.124246 0.380494
vt 0.123984 0.380449
vt 0.122088 0.268392
vt 0.122364 0.255712
vt 0.122730 0.256405
vt 0.122385 0.269123
vt 0.121730 0.268443
vt 0.121994 0.255763
vt 0.122272 0.256504
vt 0.121937 0.269223
vn 0.855138 0.493714 0.158067
vn 0.855138 0.493714 0.158067
vn 0.855138 0.493714 0.158067
vn 0.000000 0.987428 0.158067
vn 0.000000 0.987428 0.158067
vn 0.000000 0.987428 0.158067
vn 0.855138 -0.493715 0.158067
vn 0.855138 -0.493715 0.158067
vn 0.855138 -0.493715 0.158067
vn -0.855138 0.493715 0.158067
vn -0.855138 0.493715 0.158067
vn -0.855138 0.493715 0.158067
vn 0.000000 -0.987428 0.158067
vn 0.000000 -0.987428 0.158067
vn 0.000000 -0.987428 0.158067
vn -0.855138 -0.493715 0.158067
vn -0.855138 -0.493715 0.158067
vn -0.855138 -0.493715 0.158067
vn 0.846393 0.488666 0.211719
vn 0.846393 0.488666 0.211719
vn 0.846393 0.488666 0.211719
vn 0.000000 0.977331 0.211719
vn 0.000000 0.977331 0.211719
vn 0.000000 0.977331 0.211719
vn -0.000000 0.973455 -0.228877
vn -0.000000 0.973455 -0.228877
vn -0.000000 0.973455 -0.228877
vn -0.000000 0.973455 -0.228877
vn 0.846393 -0.488666 0.211719
vn 0.846393 -0.488666 0.211719
vn 0.846393 -0.488666 0.211719
vn -0.846393 0.488665 0.211719
vn -0.846393 0.488665 0.211719
vn -0.846393 0.488665 0.211719
vn 0.000000 -0.977331 0.211719
vn 0.000000 -0.977331 0.211719
vn 0.000000 -0.977331 0.211719
vn -0.846393 -0.488665 0.211719
vn -0.846393 -0.488665 0.211719
vn -0.846393 -0.488665 0.211719
vn 1.000000 0.000000 0.000000
vn 1.000000 0.000000 0.000000
vn 1.000000 0.000000 0.000000
vn 1.000000 0.000000 0.000000
vn 0.000000 0.000000 1.000000
vn 0.000000 0.000000 1.000000
vn 0.000000 0.000000 1.000000
vn 0.000000 0.000000 1.000000
vn 0.000000 0.000000 1.000000
vn 0.000000 0.000000 1.000000
vn -1.000000 0.000000 0.000000
vn -1.000000 0.000000 0.000000
vn -1.000000 0.000000 0.000000
vn -1.000000 0.000000 0.000000
vn 0.000000 0.000000 -1.000000
vn 0.000000 0.000000 -1.000000
vn 0.000000 0.000000 -1.000000
vn -0.000001 0.000000 -1.000000
vn -0.000001 0.000000 -1.000000
vn -0.000001 0.000000 -1.000000
vn -0.000001 0.000000 -1.000000
vn 0.000000 0.973455 -0.228877
vn 0.000000 0.973455 -0.228877
vn 0.000000 0.973455 -0.228877
vn 0.000000 0.973455 -0.228877
vn 0.000000 -1.000000 0.000000
vn 0.000000 -1.000000 0.000000
vn 0.000000 -1.000000 0.000000
vn 0.000000 -1.000000 0.000000
vn -0.000000 0.000000 -1.000000
vn -0.000000 0.000000 -1.000000
vn -0.000000 0.000000 -1.000000
vn -0.000000 0.000000 -1.000000
vn 0.000000 0.973455 -0.228877
vn 0.000000 0.973455 -0.228877
vn 0.000000 0.973455 -0.228877
vn 0.000000 0.973455 -0.228877
vn 0.000000 -1.000000 0.000000
vn 0.000000 -1.000000 0.000000
vn 0.000000 -1.000000 0.000000
vn 0.000000 -1.000000 0.000000
vn 0.000000 0.973455 -0.228877
vn 0.000000 0.973455 -0.228877
vn 0.000000 0.973455 -0.228877
vn 0.000000 0.973455 -0.228877
vn 0.000000 0.973455 -0.228877
vn 0.000000 0.973455 -0.228877
vn 0.000000 0.973455 -0.228877
vn 0.000000 0.973456 -0.228876
vn 0.000000 0.973456 -0.228876
vn 0.000000 0.973456 -0.228876
vn 0.000000 0.973456 -0.228876
vn 0.000000 0.973455 -0.228877
vn 0.000000 0.973455 -0.228877
vn 0.000000 0.973455 -0.228877
vn 0.000000 0.973455 -0.228877
vn -0.000000 0.973455 -0.228877
vn -0.000000 0.973455 -0.228877
vn -0.000000 0.973455 -0.228877
vn 1.000000 0.000000 0.000000
vn 1.000000 0.000000 0.000000
vn 1.000000 0.000000 0.000000
vn 1.000000 0.000000 0.000000
vn 0.000000 0.000000 -1.000000
vn 0.000000 0.000000 -1.000000
vn 0.000000 0.000000 -1.000000
vn -0.162548 0.960509 -0.225833
vn -0.162548 0.960509 -0.225833
vn -0.162548 0.960509 -0.225833
vn -0.162548 0.960509 -0.225833
vn 1.000000 0.000000 0.000000
vn 1.000000 0.000000 0.000000
vn 1.000000 0.000000 0.000000
vn 1.000000 0.000000 0.000000
vn 0.000000 0.000000 -1.000000
vn 0.000000 0.000000 -1.000000
vn 0.000000 0.000000 -1.000000
vn -0.179870 0.957579 -0.225144
vn -0.179870 0.957579 -0.225144
vn -0.179870 0.957579 -0.225144
vn -0.179870 0.957579 -0.225144
vn 0.000000 0.000000 -1.000000
vn 0.000000 0.000000 -1.000000
vn 0.000000 0.000000 -1.000000
vn 0.000000 0.000000 -1.000000
vn 0.000000 0.000000 -1.000000
vn 0.000000 0.000000 -1.000000
vn 0.000000 0.000000 -1.000000
vn 0.000000 0.000000 -1.000000
vn -0.000000 0.000000 1.000000
vn -0.000000 0.000000 1.000000
vn -0.000000 0.000000 1.000000
vn -0.000000 0.000000 1.000000
vn -0.000000 0.000000 1.000000
vn -0.000000 0.000000 1.000000
vn -0.000000 0.000000 1.000000
vn 0.000000 0.000000 1.000000
vn 0.000000 0.000000 1.000000
vn 0.000000 0.000000 1.000000
vn 0.000000 0.000000 1.000000
vn 0.000000 0.000000 1.000000
vn 0.000000 0.000000 1.000000
vn 0.000000 0.000000 1.000000
vn 0.000000 0.000000 1.000000
vn 0.000000 0.000000 1.000000
vn 0.000000 0.000000 1.000000
vn 0.000000 0.000000 1.000000
vn -0.000000 0.000000 1.000000
vn -0.000000 0.000000 1.000000
vn -0.000000 0.000000 1.000000
vn 0.000000 0.000000 1.000000
vn 0.000000 0.000000 1.000000
vn 0.000000 0.000000 1.000000
vn 0.000000 0.000000 1.000000
vn -0.000000 0.000000 1.000000
vn -0.000000 0.000000 1.000000
vn -0.000000 0.000000 1.000000
vn 0.000000 0.000000 1.000000
vn 0.000000 0.000000 1.000000
vn 0.000000 0.000000 1.000000
vn 0.000000 0.000000 1.000000
vn 0.000000 0.000000 1.000000
vn 0.000000 0.000000 1.000000
vn 0.000000 0.000000 1.000000
vn 0.000000 0.000000 1.000000
vn 0.000000 0.000000 1.000000
vn 0.000000 0.000000 1.000000
vn 0.000000 0.000000 1.000000
vn 0.000000 0.000000 1.000000
vn 0.000000 0.000000 1.000000
vn 0.000000 0.000000 1.000000
vn 0.000000 0.000000 1.000000
vn 0.000000 0.000000 1.000000
vn 0.000000 0.000000 1.000000
s off
f 5/5/1 7/7/2 8/8/3
f 5/5/4 8/8/5 13/13/6
f 5/5/7 14/14/8 7/7/9
f 5/5/10 13/13/11 15/15/12
f 5/5/13 16/16/14 14/14/15
f 5/5/16 15/15/17 16/16/18
f 6/6/19 17/17/20 18/18/21
f 6/6/22 18/18/23 19/19/24
f 25/25/25 36/36/26 10/10/27 11/11/28
f 6/6/29 20/20/30 17/17/31
f 6/6/32 19/19/33 21/21/34
f 6/6/35 22/22/36 20/20/37
f 6/6/38 21/21/39 22/22/40
f 3/3/41 2/2/42 11/11/43 10/10/44
f 4/4/45 8/8/46 7/7/47
f 21/21/48 10/10/49 22/22/50
f 1/1/51 4/4/52 9/9/53 12/12/54
f 2/2/55 25/25/56 11/11/57
f 30/30/58 31/31/59 23/23/60 37/42/61
f 31/31/62 34/34/63 35/35/64 23/23/65
f 2/2/66 3/3/67 29/29/68 30/30/69
f 12/12/70 27/27/71 39/41/72 1/1/73
f 9/9/74 33/33/75 27/27/76 12/12/77
f 30/30/78 29/29/79 4/4/80 1/1/81
f 9/9/82 28/28/83 33/33/84
f 34/34/85 33/33/86 28/28/87 32/32/88
f 35/35/89 34/34/90 32/32/91 24/24/92
f 36/36/93 35/35/94 24/24/95 26/26/96
f 10/10/97 36/36/98 26/26/99
f 23/23/100 35/35/101 38/38/102 37/37/103
f 35/35/104 36/36/105 38/38/106
f 38/43/107 36/44/108 25/45/109 37/46/110
f 27/27/111 33/33/112 40/40/113 39/39/114
f 33/33/115 34/34/116 40/40/117
f 40/47/118 34/48/119 31/49/120 39/50/121
f 39/41/122 31/31/123 30/30/124 1/1/125
f 37/42/126 25/25/127 2/2/128 30/30/129
f 20/20/130 16/16/131 15/15/132 17/17/133
f 14/14/134 9/9/135 7/7/136
f 20/20/137 24/24/138 32/32/139 16/16/140
f 13/13/141 18/18/142 17/17/143 15/15/144
f 3/3/145 21/21/146 19/19/147
f 13/13/148 29/29/149 18/18/150
f 18/18/151 29/29/152 3/3/153 19/19/154
f 3/3/155 10/10/156 21/21/157
f 22/22/158 10/10/159 26/26/160 24/24/161 20/20/162
f 4/4/163 7/7/164 9/9/165
f 4/4/166 29/29/167 13/13/168 8/8/169
f 16/16/170 32/32/171 28/28/172 9/9/173 14/14/174
