# This file uses centimeters as units for non-parametric coordinates.

v -9.887482 -9.887390 6.175434
v 9.887482 -9.887390 6.175434
v -9.887482 9.887562 6.175434
v 9.887482 9.887562 6.175434
v -9.887482 9.887562 0.000000
v 9.887482 9.887562 0.000000
v -9.887482 -9.887390 0.000000
v 9.887482 -9.887390 0.000000
v -8.305889 -7.187246 6.175434
v 8.305889 -7.187246 6.175434
v 8.305889 4.274744 6.175434
v -8.305889 4.274744 6.175434
v -8.305889 -7.187246 4.426403
v 8.305889 -7.187246 4.426403
v 8.305889 4.274744 4.426403
v -8.305889 4.274744 4.426403
v 5.710115 2.999983 4.426403
v -5.710115 2.999983 4.426403
v -5.710115 0.623658 4.426403
v 5.710115 0.623658 4.426403
v -1.255272 -5.912460 4.426403
v -1.255272 0.623658 4.426403
v 1.255272 0.623658 4.426403
v 1.255272 -5.912460 4.426403
v -5.456238 0.994154 5.356659
v -0.957239 0.994154 5.356659
v 0.957239 0.994154 5.356659
v 5.456238 0.994154 5.356659
v 5.456238 2.629492 5.356659
v -5.456238 2.629492 5.356659
v 0.957239 -4.401735 5.356659
v -0.957239 -4.401735 5.356659
vt 0.101310 0.378810
vt 0.100887 0.378775
vt 0.100751 0.378763
vt 0.100354 0.378730
vt 0.100353 0.378617
vt 0.101314 0.378691
vt 0.160360 0.191282
vt 0.159464 0.191230
vt 0.159575 0.191182
vt 0.160421 0.191227
vt 0.159584 0.191986
vt 0.160388 0.192075
vt 0.159479 0.192082
vt 0.160328 0.192182
vt 0.159542 0.191978
vt 0.160260 0.192057
vt 0.159535 0.191486
vt 0.160276 0.191542
vt 0.159572 0.191951
vt 0.160279 0.192027
vt 0.159567 0.191467
vt 0.160295 0.191521
vt 0.100748 0.379137
vt 0.100881 0.379150
vt 0.101346 0.378819
vt 0.100927 0.378784
vt 0.100752 0.378769
vt 0.100360 0.378736
vt 0.100358 0.378573
vt 0.101353 0.378647
vt 0.100748 0.379212
vt 0.100919 0.379231
vt 0.210310 0.196269
vt 0.154730 0.196269
vt 0.159175 0.178101
vt 0.205864 0.178101
vt 0.080603 0.279593
vt 0.079643 0.279483
vt 0.080036 0.279457
vt 0.080181 0.279473
vt 0.079633 0.278832
vt 0.079704 0.278912
vt 0.079705 0.279051
vt 0.080633 0.278901
vt 0.080551 0.278975
vt 0.080546 0.279122
vt 0.080039 0.279079
vt 0.080188 0.279092
vn 0.000000 0.000000 1.000000
vn 0.000000 0.000000 1.000000
vn 0.000000 0.000000 1.000000
vn 0.000000 0.000000 1.000000
vn 0.000000 0.000000 1.000000
vn 0.000000 0.000000 1.000000
vn 0.000000 1.000000 0.000000
vn 0.000000 1.000000 0.000000
vn 0.000000 1.000000 0.000000
vn 0.000000 1.000000 0.000000
vn 0.000000 0.000000 -1.000000
vn 0.000000 0.000000 -1.000000
vn 0.000000 0.000000 -1.000000
vn 0.000000 0.000000 -1.000000
vn 0.000000 -1.000000 0.000000
vn 0.000000 -1.000000 0.000000
vn 0.000000 -1.000000 0.000000
vn 0.000000 -1.000000 0.000000
vn 1.000000 0.000000 0.000000
vn 1.000000 0.000000 0.000000
vn 1.000000 0.000000 0.000000
vn 1.000000 0.000000 0.000000
vn -1.000000 0.000000 0.000000
vn -1.000000 0.000000 0.000000
vn -1.000000 0.000000 0.000000
vn -1.000000 0.000000 0.000000
vn 0.000000 0.000000 1.000000
vn 0.000000 0.000000 1.000000
vn 0.000000 0.000000 1.000000
vn 0.000000 0.000000 1.000000
vn 0.000000 0.000000 1.000000
vn 0.000000 0.000000 1.000000
vn 0.000000 0.000000 1.000000
vn 0.000000 0.000000 1.000000
vn 0.000000 0.000000 1.000000
vn 0.000000 0.000000 1.000000
vn 0.000000 0.000000 1.000000
vn 0.000000 0.000000 1.000000
vn -0.000000 0.000000 1.000000
vn -0.000000 0.000000 1.000000
vn -0.000000 0.000000 1.000000
vn -0.000000 0.000000 1.000000
vn 0.000000 1.000000 0.000000
vn 0.000000 1.000000 0.000000
vn 0.000000 1.000000 0.000000
vn 0.000000 1.000000 0.000000
vn -1.000000 0.000000 0.000000
vn -1.000000 0.000000 0.000000
vn -1.000000 0.000000 0.000000
vn -1.000000 0.000000 0.000000
vn 0.000000 -1.000000 0.000000
vn 0.000000 -1.000000 0.000000
vn 0.000000 -1.000000 0.000000
vn 0.000000 -1.000000 0.000000
vn 1.000000 0.000000 0.000000
vn 1.000000 0.000000 0.000000
vn 1.000000 0.000000 0.000000
vn 1.000000 0.000000 0.000000
vn 0.000000 0.000000 1.000000
vn 0.000000 0.000000 1.000000
vn 0.000000 0.000000 1.000000
vn 0.000000 0.000000 1.000000
vn 0.000000 0.000000 1.000000
vn 0.000000 0.000000 1.000000
vn 0.000000 0.000000 1.000000
vn 0.000000 0.000000 1.000000
vn 0.000000 0.000000 1.000000
vn 0.000000 0.000000 1.000000
vn 0.000000 0.000000 1.000000
vn 0.000000 0.000000 1.000000
vn 0.000000 0.000000 1.000000
vn 0.000000 0.000000 1.000000
vn 0.000000 0.000000 1.000000
vn 0.000000 0.000000 1.000000
vn 0.000000 0.000000 1.000000
vn 0.000000 0.000000 1.000000
vn 0.000000 0.000000 1.000000
vn 0.000000 0.000000 1.000000
vn 0.000000 0.000000 1.000000
vn 0.000000 0.000000 1.000000
vn 0.000000 0.000000 1.000000
vn 0.000000 0.000000 1.000000
vn 0.000000 0.000000 1.000000
vn 0.000000 0.000000 1.000000
vn 0.000000 0.000000 1.000000
vn 0.000000 0.000000 1.000000
vn 0.000000 -0.929029 0.370008
vn 0.000000 -0.929029 0.370008
vn 0.000000 -0.929029 0.370008
vn 0.000000 -0.929029 0.370008
vn 0.000000 -0.929029 0.370008
vn 0.000000 -0.929029 0.370008
vn 0.000000 -0.929029 0.370008
vn 0.000000 -0.929029 0.370008
vn 0.964719 0.000000 0.263283
vn 0.964719 0.000000 0.263283
vn 0.964719 0.000000 0.263283
vn 0.964719 0.000000 0.263283
vn 0.000000 0.929031 0.370003
vn 0.000000 0.929031 0.370003
vn 0.000000 0.929031 0.370003
vn 0.000000 0.929031 0.370003
vn -0.964719 0.000000 0.263283
vn -0.964719 0.000000 0.263283
vn -0.964719 0.000000 0.263283
vn -0.964719 0.000000 0.263283
vn 0.952320 0.000000 0.305102
vn 0.952320 0.000000 0.305102
vn 0.952320 0.000000 0.305102
vn 0.952320 0.000000 0.305102
vn -0.952320 0.000000 0.305102
vn -0.952320 0.000000 0.305102
vn -0.952320 0.000000 0.305102
vn -0.952320 0.000000 0.305102
vn 0.000000 -0.524334 0.851513
vn 0.000000 -0.524334 0.851513
vn 0.000000 -0.524334 0.851513
vn 0.000000 -0.524334 0.851513
s off
f 25/1/1 26/2/2 27/3/3 28/4/4 29/5/5 30/6/6
f 3/7/7 4/8/8 6/9/9 5/10/10
f 5/10/11 6/9/12 8/11/13 7/12/14
f 7/12/15 8/11/16 2/13/17 1/14/18
f 2/13/19 8/11/20 6/9/21 4/8/22
f 7/12/23 1/14/24 3/7/25 5/10/26
f 1/14/27 2/13/28 10/15/29 9/16/30
f 2/13/31 4/8/32 11/17/33 10/15/34
f 4/33/35 3/34/36 12/35/37 11/36/38
f 3/7/39 1/14/40 9/16/41 12/18/42
f 9/16/43 10/15/44 14/19/45 13/20/46
f 10/15/47 11/17/48 15/21/49 14/19/50
f 11/17/51 12/18/52 16/22/53 15/21/54
f 12/18/55 9/16/56 13/20/57 16/22/58
f 13/37/59 14/38/60 24/39/61 21/40/62
f 14/38/63 15/41/64 17/42/65 20/43/66
f 15/41/67 16/44/68 18/45/69 17/42/70
f 16/44/71 13/37/72 19/46/73 18/45/74
f 23/47/75 24/39/76 14/38/77 20/43/78
f 13/37/79 21/40/80 22/48/81 19/46/82
f 31/23/83 27/3/84 26/2/85 32/24/86
f 19/25/87 22/26/88 26/2/89 25/1/90
f 23/27/91 20/28/92 28/4/93 27/3/94
f 20/28/95 17/29/96 29/5/97 28/4/98
f 17/29/99 18/30/100 30/6/101 29/5/102
f 18/30/103 19/25/104 25/1/105 30/6/106
f 24/31/107 23/27/108 27/3/109 31/23/110
f 22/26/111 21/32/112 32/24/113 26/2/114
f 21/32/115 24/31/116 31/23/117 32/24/118
