# This file uses centimeters as units for non-parametric coordinates.

v 3.740814 -0.000000 -3.740906
v -0.000046 -0.000000 -5.290405
v -3.740997 -0.000000 -3.740906
v -5.290436 -0.000000 0.000122
v -3.740997 -0.000000 3.740845
v -0.000046 -0.000000 5.290466
v 3.740814 -0.000000 3.740845
v 5.290470 -0.000000 0.000122
v 5.785603 16.221388 -5.785522
v -0.000061 16.221388 -8.182007
v -5.785675 16.221388 -5.785522
v -8.182114 16.221388 0.000122
v -5.785675 16.221388 5.785583
v -0.000061 16.221388 8.182129
v 5.785603 16.221388 5.785583
v 8.182041 16.221388 0.000122
v -0.000046 -0.000000 0.000122
v 4.985508 16.221388 -4.985779
v -0.000061 16.221388 -7.050537
v -4.985596 16.221388 -4.985779
v -7.050766 16.221388 0.000122
v -4.985596 16.221388 4.985474
v -0.000061 16.221388 7.050781
v 4.985508 16.221388 4.985474
v 7.050709 16.221388 0.000122
v 4.531834 12.414498 -4.532044
v -0.000057 12.414498 -6.408972
v -4.531929 12.414498 -4.532044
v -6.409164 12.414498 0.000122
v -4.531929 12.414498 4.531833
v -0.000057 12.414498 6.409216
v 4.531834 12.414498 4.531833
v 6.409077 12.414498 0.000122
v 5.785603 18.243479 -5.785522
v -0.000061 18.243479 -8.182007
v -0.000061 18.243479 -7.050537
v 4.985508 18.243479 -4.985779
v -5.785675 18.243479 -5.785522
v -4.985596 18.243479 -4.985779
v -8.182114 18.243479 0.000122
v -7.050766 18.243479 0.000122
v -5.785675 18.243479 5.785583
v -4.985596 18.243479 4.985474
v -0.000061 18.243479 8.182129
v -0.000061 18.243479 7.050781
v 5.785603 18.243479 5.785583
v 4.985508 18.243479 4.985474
v 8.182041 18.243479 0.000122
v 7.050709 18.243479 0.000122
v 5.426426 16.046886 -5.426270
v -0.000061 16.046886 -7.674255
v -5.426605 16.046886 -5.426270
v -7.674240 16.046886 0.000122
v -5.426605 16.046886 5.426453
v -0.000061 16.046886 7.674316
v 5.426426 16.046886 5.426453
v 7.674290 16.046886 0.000122
v 3.733093 2.562927 -3.733154
v -0.000046 2.562927 -5.279297
v -3.733185 2.562927 -3.733154
v -5.279526 2.562927 0.000122
v -3.733185 2.562927 3.733154
v -0.000046 2.562927 5.279480
v 3.733093 2.562927 3.733154
v 5.279484 2.562927 0.000122
v 2.175358 7.778282 -5.298550
v -0.000046 5.899847 -5.817833
v -0.000061 12.770534 -7.146486
v 2.510429 10.916897 -5.729288
v -2.175472 7.778281 -5.298550
v -2.510567 10.916898 -5.729287
v -2.175472 7.778282 5.298641
v -0.000046 5.899841 5.818017
v -0.000061 12.770534 7.146538
v -2.510567 10.916897 5.729404
v 2.175358 7.778282 5.298642
v 2.510433 10.916895 5.729405
v -0.000049 12.414498 0.000019
vt 0.102807 0.375812
vt 0.102911 0.375729
vt 0.102900 0.375715
vt 0.102787 0.375803
vt 0.103116 0.375703
vt 0.103117 0.375687
vt 0.103313 0.375746
vt 0.103327 0.375733
vt 0.103396 0.375838
vt 0.103416 0.375830
vt 0.103305 0.375929
vt 0.103320 0.375928
vt 0.103082 0.375961
vt 0.103080 0.375962
vt 0.102871 0.375910
vt 0.102855 0.375907
vt 0.112884 0.208875
vt 0.112756 0.209060
vt 0.113040 0.209124
vt 0.113101 0.208835
vt 0.113283 0.208964
vt 0.113325 0.209188
vt 0.113198 0.209378
vt 0.112977 0.209419
vt 0.112793 0.209286
vt 0.102895 0.376420
vt 0.102961 0.376351
vt 0.103096 0.376329
vt 0.103225 0.376365
vt 0.103276 0.376441
vt 0.103215 0.376514
vt 0.103073 0.376539
vt 0.102938 0.376499
vt 0.102786 0.375708
vt 0.102900 0.375622
vt 0.102927 0.375635
vt 0.102830 0.375709
vt 0.103120 0.375595
vt 0.103117 0.375612
vt 0.103331 0.375639
vt 0.103301 0.375650
vt 0.103422 0.375734
vt 0.103378 0.375732
vt 0.103325 0.375829
vt 0.103293 0.375813
vt 0.103083 0.375862
vt 0.103086 0.375841
vt 0.102855 0.375809
vt 0.102890 0.375796
vt 0.102830 0.375805
vt 0.102926 0.375729
vt 0.103115 0.375705
vt 0.103296 0.375744
vt 0.103372 0.375828
vt 0.103288 0.375912
vt 0.103083 0.375941
vt 0.102890 0.375894
vt 0.112754 0.209057
vt 0.112883 0.208870
vt 0.112777 0.208671
vt 0.112556 0.208986
vt 0.113102 0.208830
vt 0.113146 0.208605
vt 0.113286 0.208960
vt 0.113457 0.208822
vt 0.113328 0.209187
vt 0.113530 0.209206
vt 0.113200 0.209379
vt 0.113315 0.209534
vt 0.112976 0.209420
vt 0.112932 0.209605
vt 0.112791 0.209286
vt 0.112617 0.209374
vt 0.112754 0.209057
vt 0.112883 0.208870
vt 0.112777 0.208671
vt 0.112556 0.208986
vt 0.113102 0.208830
vt 0.113146 0.208605
vt 0.113328 0.209187
vt 0.113200 0.209379
vt 0.113315 0.209534
vt 0.113530 0.209206
vt 0.112976 0.209420
vt 0.112932 0.209605
vt 0.102441 0.378814
vt 0.102237 0.379034
vt 0.102278 0.378384
vt 0.102491 0.378514
vt 0.102004 0.378850
vt 0.101979 0.378551
vt 0.101773 0.378536
vt 0.101959 0.378673
vt 0.101929 0.378034
vt 0.101731 0.378246
vt 0.102164 0.378508
vt 0.102185 0.378217
vt 0.018252 0.321722
vt 0.018408 0.321414
vt 0.018744 0.321287
vt 0.019084 0.321395
vt 0.019252 0.321693
vt 0.019129 0.322027
vt 0.018762 0.322185
vt 0.018389 0.322050
vt 0.019292 0.296893
vn 0.133397 -0.937284 -0.322032
vn 0.133397 -0.937284 -0.322032
vn 0.133397 -0.937284 -0.322032
vn 0.133397 -0.937284 -0.322032
vn -0.133401 -0.937279 -0.322044
vn -0.133401 -0.937279 -0.322044
vn -0.133401 -0.937279 -0.322044
vn -0.133401 -0.937279 -0.322044
vn -0.322042 -0.937281 -0.133392
vn -0.322042 -0.937281 -0.133392
vn -0.322042 -0.937281 -0.133392
vn -0.322042 -0.937281 -0.133392
vn -0.322055 -0.937275 0.133400
vn -0.322055 -0.937275 0.133400
vn -0.322055 -0.937275 0.133400
vn -0.322055 -0.937275 0.133400
vn -0.133407 -0.937272 0.322061
vn -0.133407 -0.937272 0.322061
vn -0.133407 -0.937272 0.322061
vn -0.133407 -0.937272 0.322061
vn 0.133402 -0.937277 0.322049
vn 0.133402 -0.937277 0.322049
vn 0.133402 -0.937277 0.322049
vn 0.133402 -0.937277 0.322049
vn 0.322057 -0.937273 0.133408
vn 0.322057 -0.937273 0.133408
vn 0.322057 -0.937273 0.133408
vn 0.322057 -0.937273 0.133408
vn 0.322044 -0.937279 -0.133400
vn 0.322044 -0.937279 -0.133400
vn 0.322044 -0.937279 -0.133400
vn 0.322044 -0.937279 -0.133400
vn 0.000000 -1.000000 0.000000
vn 0.000000 -1.000000 0.000000
vn 0.000000 -1.000000 0.000000
vn 0.000000 -1.000000 0.000000
vn 0.000000 -1.000000 0.000000
vn 0.000000 -1.000000 0.000000
vn 0.000000 -1.000000 0.000000
vn 0.000000 -1.000000 0.000000
vn 0.000000 -1.000000 0.000000
vn 0.000000 -1.000000 0.000000
vn 0.000000 -1.000000 0.000000
vn 0.000000 -1.000000 0.000000
vn 0.000000 -1.000000 0.000000
vn 0.000000 -1.000000 0.000000
vn 0.000000 -1.000000 0.000000
vn 0.000000 -1.000000 0.000000
vn 0.000000 -1.000000 0.000000
vn 0.000000 -1.000000 0.000000
vn 0.000000 -1.000000 0.000000
vn 0.000000 -1.000000 0.000000
vn 0.000000 -1.000000 0.000000
vn 0.000000 -1.000000 -0.000000
vn 0.000000 -1.000000 -0.000000
vn 0.000000 -1.000000 -0.000000
vn 0.000000 1.000000 -0.000001
vn 0.000000 1.000000 -0.000001
vn 0.000000 1.000000 -0.000001
vn 0.000000 1.000000 -0.000001
vn 0.000000 1.000000 0.000000
vn 0.000000 1.000000 0.000000
vn 0.000000 1.000000 0.000000
vn 0.000000 1.000000 0.000000
vn 0.000000 1.000000 -0.000000
vn 0.000000 1.000000 -0.000000
vn 0.000000 1.000000 -0.000000
vn 0.000000 1.000000 -0.000000
vn 0.000000 1.000000 0.000001
vn 0.000000 1.000000 0.000001
vn 0.000000 1.000000 0.000001
vn 0.000000 1.000000 0.000001
vn 0.000000 1.000000 0.000000
vn 0.000000 1.000000 0.000000
vn 0.000000 1.000000 0.000000
vn 0.000000 1.000000 0.000000
vn 0.000000 1.000000 0.000001
vn 0.000000 1.000000 0.000001
vn 0.000000 1.000000 0.000001
vn 0.000000 1.000000 0.000001
vn 0.000000 1.000000 0.000000
vn 0.000000 1.000000 0.000000
vn 0.000000 1.000000 0.000000
vn 0.000000 1.000000 0.000000
vn 0.000000 1.000000 -0.000001
vn 0.000000 1.000000 -0.000001
vn 0.000000 1.000000 -0.000001
vn 0.000000 1.000000 -0.000001
vn -0.378097 0.153855 0.912892
vn -0.378097 0.153855 0.912892
vn -0.378097 0.153855 0.912892
vn -0.378097 0.153855 0.912892
vn 0.378097 0.153856 0.912891
vn 0.378097 0.153856 0.912891
vn 0.378097 0.153856 0.912891
vn 0.378097 0.153856 0.912891
vn 0.912882 0.153855 0.378120
vn 0.912882 0.153855 0.378120
vn 0.912882 0.153855 0.378120
vn 0.912882 0.153855 0.378120
vn 0.912871 0.153850 -0.378149
vn 0.912871 0.153850 -0.378149
vn 0.912871 0.153850 -0.378149
vn 0.912871 0.153850 -0.378149
vn 0.378168 0.153845 -0.912864
vn 0.378168 0.153845 -0.912864
vn 0.378168 0.153845 -0.912864
vn 0.378168 0.153845 -0.912864
vn -0.378167 0.153844 -0.912865
vn -0.378167 0.153844 -0.912865
vn -0.378167 0.153844 -0.912865
vn -0.378167 0.153844 -0.912865
vn -0.912872 0.153854 -0.378146
vn -0.912872 0.153854 -0.378146
vn -0.912872 0.153854 -0.378146
vn -0.912872 0.153854 -0.378146
vn -0.912883 0.153859 0.378117
vn -0.912883 0.153859 0.378117
vn -0.912883 0.153859 0.378117
vn -0.912883 0.153859 0.378117
vn 0.382682 0.000000 -0.923880
vn 0.382682 0.000000 -0.923880
vn 0.382682 0.000000 -0.923880
vn 0.382682 0.000000 -0.923880
vn -0.382631 0.000000 0.923901
vn -0.382631 0.000000 0.923901
vn -0.382631 0.000000 0.923901
vn -0.382631 0.000000 0.923901
vn -0.382684 0.000000 -0.923879
vn -0.382684 0.000000 -0.923879
vn -0.382684 0.000000 -0.923879
vn -0.382684 0.000000 -0.923879
vn 0.382633 0.000000 0.923900
vn 0.382633 0.000000 0.923900
vn 0.382633 0.000000 0.923900
vn 0.382633 0.000000 0.923900
vn -0.923883 0.000000 -0.382676
vn -0.923883 0.000000 -0.382676
vn -0.923883 0.000000 -0.382676
vn -0.923883 0.000000 -0.382676
vn 0.923883 0.000000 0.382674
vn 0.923883 0.000000 0.382674
vn 0.923883 0.000000 0.382674
vn 0.923883 0.000000 0.382674
vn -0.923878 0.000000 0.382686
vn -0.923878 0.000000 0.382686
vn -0.923878 0.000000 0.382686
vn -0.923878 0.000000 0.382686
vn 0.923868 0.000000 -0.382711
vn 0.923868 0.000000 -0.382711
vn 0.923868 0.000000 -0.382711
vn 0.923868 0.000000 -0.382711
vn -0.382692 0.000000 0.923876
vn -0.382692 0.000000 0.923876
vn -0.382692 0.000000 0.923876
vn -0.382692 0.000000 0.923876
vn 0.382720 0.000000 -0.923864
vn 0.382720 0.000000 -0.923864
vn 0.382720 0.000000 -0.923864
vn 0.382720 0.000000 -0.923864
vn 0.382690 0.000000 0.923877
vn 0.382690 0.000000 0.923877
vn 0.382690 0.000000 0.923877
vn 0.382690 0.000000 0.923877
vn -0.382718 0.000000 -0.923865
vn -0.382718 0.000000 -0.923865
vn -0.382718 0.000000 -0.923865
vn -0.382718 0.000000 -0.923865
vn 0.923878 0.000000 0.382686
vn 0.923878 0.000000 0.382686
vn 0.923878 0.000000 0.382686
vn 0.923878 0.000000 0.382686
vn -0.923866 0.000000 -0.382715
vn -0.923866 0.000000 -0.382715
vn -0.923866 0.000000 -0.382715
vn -0.923866 0.000000 -0.382715
vn 0.923883 0.000000 -0.382676
vn 0.923883 0.000000 -0.382676
vn 0.923883 0.000000 -0.382676
vn 0.923883 0.000000 -0.382676
vn -0.923881 0.000000 0.382679
vn -0.923881 0.000000 0.382679
vn -0.923881 0.000000 0.382679
vn -0.923881 0.000000 0.382679
vn 0.376979 -0.172576 -0.910003
vn 0.376979 -0.172576 -0.910003
vn 0.376979 -0.172576 -0.910003
vn 0.376979 -0.172576 -0.910003
vn -0.376976 -0.172577 -0.910003
vn -0.376976 -0.172577 -0.910003
vn -0.376976 -0.172577 -0.910003
vn -0.376976 -0.172577 -0.910003
vn -0.911692 -0.161914 -0.377627
vn -0.911692 -0.161914 -0.377627
vn -0.911692 -0.161914 -0.377627
vn -0.911692 -0.161914 -0.377627
vn -0.911687 -0.161917 0.377637
vn -0.911687 -0.161917 0.377637
vn -0.911687 -0.161917 0.377637
vn -0.911687 -0.161917 0.377637
vn -0.376982 -0.172568 0.910003
vn -0.376982 -0.172568 0.910003
vn -0.376982 -0.172568 0.910003
vn -0.376982 -0.172568 0.910003
vn 0.376983 -0.172566 0.910002
vn 0.376983 -0.172566 0.910002
vn 0.376983 -0.172566 0.910002
vn 0.376983 -0.172566 0.910002
vn 0.911677 -0.161917 0.377661
vn 0.911677 -0.161917 0.377661
vn 0.911677 -0.161917 0.377661
vn 0.911677 -0.161917 0.377661
vn 0.911682 -0.161914 -0.377650
vn 0.911682 -0.161914 -0.377650
vn 0.911682 -0.161914 -0.377650
vn 0.911682 -0.161914 -0.377650
vn 0.382660 0.003976 -0.923881
vn 0.382660 0.003976 -0.923881
vn 0.382660 0.003976 -0.923881
vn 0.382660 0.003976 -0.923881
vn -0.382656 0.003983 -0.923882
vn -0.382656 0.003983 -0.923882
vn -0.382656 0.003983 -0.923882
vn -0.382656 0.003983 -0.923882
vn -0.923880 0.003953 -0.382662
vn -0.923880 0.003953 -0.382662
vn -0.923880 0.003953 -0.382662
vn -0.923880 0.003953 -0.382662
vn -0.923870 0.003949 0.382686
vn -0.923870 0.003949 0.382686
vn -0.923870 0.003949 0.382686
vn -0.923870 0.003949 0.382686
vn -0.382689 0.003950 0.923869
vn -0.382689 0.003950 0.923869
vn -0.382689 0.003950 0.923869
vn -0.382689 0.003950 0.923869
vn 0.382693 0.003943 0.923867
vn 0.382693 0.003943 0.923867
vn 0.382693 0.003943 0.923867
vn 0.382693 0.003943 0.923867
vn 0.923859 0.003946 0.382713
vn 0.923859 0.003946 0.382713
vn 0.923859 0.003946 0.382713
vn 0.923859 0.003946 0.382713
vn 0.923869 0.003950 -0.382689
vn 0.923869 0.003950 -0.382689
vn 0.923869 0.003950 -0.382689
vn 0.923869 0.003950 -0.382689
vn 0.370178 -0.157786 -0.915463
vn 0.370178 -0.157786 -0.915463
vn 0.370178 -0.157786 -0.915463
vn 0.370178 -0.157786 -0.915463
vn 0.383494 -0.157357 -0.910039
vn 0.383494 -0.157357 -0.910039
vn 0.383494 -0.157357 -0.910039
vn 0.383494 -0.157357 -0.910039
vn 0.377614 -0.162551 -0.911584
vn 0.377614 -0.162551 -0.911584
vn 0.377614 -0.162551 -0.911584
vn 0.377614 -0.162551 -0.911584
vn -0.370177 -0.157788 -0.915463
vn -0.370177 -0.157788 -0.915463
vn -0.370177 -0.157788 -0.915463
vn -0.370177 -0.157788 -0.915463
vn -0.377611 -0.162554 -0.911584
vn -0.377611 -0.162554 -0.911584
vn -0.377611 -0.162554 -0.911584
vn -0.377611 -0.162554 -0.911584
vn -0.383490 -0.157358 -0.910040
vn -0.383490 -0.157358 -0.910040
vn -0.383490 -0.157358 -0.910040
vn -0.383490 -0.157358 -0.910040
vn -0.370214 -0.157787 0.915448
vn -0.370214 -0.157787 0.915448
vn -0.370214 -0.157787 0.915448
vn -0.370214 -0.157787 0.915448
vn -0.383472 -0.157360 0.910048
vn -0.383472 -0.157360 0.910048
vn -0.383472 -0.157360 0.910048
vn -0.383472 -0.157360 0.910048
vn -0.377615 -0.162565 0.911581
vn -0.377615 -0.162565 0.911581
vn -0.377615 -0.162565 0.911581
vn -0.377615 -0.162565 0.911581
vn 0.370215 -0.157786 0.915448
vn 0.370215 -0.157786 0.915448
vn 0.370215 -0.157786 0.915448
vn 0.370215 -0.157786 0.915448
vn 0.377617 -0.162563 0.911580
vn 0.377617 -0.162563 0.911580
vn 0.377617 -0.162563 0.911580
vn 0.377617 -0.162563 0.911580
vn 0.383475 -0.157359 0.910047
vn 0.383475 -0.157359 0.910047
vn 0.383475 -0.157359 0.910047
vn 0.383475 -0.157359 0.910047
vn 0.000000 1.000000 -0.000001
vn 0.000000 1.000000 -0.000001
vn 0.000000 1.000000 0.000000
vn 0.000000 1.000000 0.000000
vn 0.000000 1.000000 0.000000
vn 0.000000 1.000000 0.000000
vn 0.000000 1.000000 -0.000000
vn 0.000000 1.000000 -0.000000
vn 0.000000 1.000000 0.000000
vn 0.000000 1.000000 0.000000
vn 0.000000 1.000000 0.000000
vn 0.000000 1.000000 0.000000
vn 0.000000 1.000000 0.000000
vn 0.000000 1.000000 0.000000
vn 0.000000 1.000000 0.000000
vn 0.000000 1.000000 0.000000
vn 0.000000 1.000000 0.000000
vn 0.000000 1.000000 0.000000
vn 0.000000 1.000000 -0.000000
vn 0.000000 1.000000 -0.000000
vn 0.000000 1.000000 0.000000
vn 0.000000 1.000000 0.000000
vn 0.000000 1.000000 0.000000
vn 0.000000 1.000000 0.000000
s off
f 50/1/1 51/2/2 10/3/3 9/4/4
f 51/2/5 52/5/6 11/6/7 10/3/8
f 52/5/9 53/7/10 12/8/11 11/6/12
f 53/7/13 54/9/14 13/10/15 12/8/16
f 54/9/17 55/11/18 14/12/19 13/10/20
f 55/11/21 56/13/22 15/14/23 14/12/24
f 56/13/25 57/15/26 16/16/27 15/14/28
f 57/15/29 50/1/30 9/4/31 16/16/32
f 2/17/33 1/18/34 17/19/35
f 3/20/36 2/17/37 17/19/38
f 4/21/39 3/20/40 17/19/41
f 5/22/42 4/21/43 17/19/44
f 6/23/45 5/22/46 17/19/47
f 7/24/48 6/23/49 17/19/50
f 8/25/51 7/24/52 17/19/53
f 1/18/54 8/25/55 17/19/56
f 34/34/57 35/35/58 36/36/59 37/37/60
f 35/35/61 38/38/62 39/39/63 36/36/64
f 38/38/65 40/40/66 41/41/67 39/39/68
f 40/40/69 42/42/70 43/43/71 41/41/72
f 42/42/73 44/44/74 45/45/75 43/43/76
f 44/44/77 46/46/78 47/47/79 45/45/80
f 46/46/81 48/48/82 49/49/83 47/47/84
f 48/48/85 34/34/86 37/37/87 49/49/88
f 18/50/89 19/51/90 27/27/91 26/26/92
f 19/51/93 20/52/94 28/28/95 27/27/96
f 20/52/97 21/53/98 29/29/99 28/28/100
f 21/53/101 22/54/102 30/30/103 29/29/104
f 22/54/105 23/55/106 31/31/107 30/30/108
f 23/55/109 24/56/110 32/32/111 31/31/112
f 24/56/113 25/57/114 33/33/115 32/32/116
f 25/57/117 18/50/118 26/26/119 33/33/120
f 9/4/121 10/3/122 35/35/123 34/34/124
f 19/51/125 18/50/126 37/37/127 36/36/128
f 10/3/129 11/6/130 38/38/131 35/35/132
f 20/52/133 19/51/134 36/36/135 39/39/136
f 11/6/137 12/8/138 40/40/139 38/38/140
f 21/53/141 20/52/142 39/39/143 41/41/144
f 12/8/145 13/10/146 42/42/147 40/40/148
f 22/54/149 21/53/150 41/41/151 43/43/152
f 13/10/153 14/12/154 44/44/155 42/42/156
f 23/55/157 22/54/158 43/43/159 45/45/160
f 14/12/161 15/14/162 46/46/163 44/44/164
f 24/56/165 23/55/166 45/45/167 47/47/168
f 15/14/169 16/16/170 48/48/171 46/46/172
f 25/57/173 24/56/174 47/47/175 49/49/176
f 16/16/177 9/4/178 34/34/179 48/48/180
f 18/50/181 25/57/182 49/49/183 37/37/184
f 66/86/185 67/87/186 68/88/187 69/89/188
f 67/87/189 70/90/190 71/91/191 68/88/192
f 60/62/193 61/64/194 53/65/195 52/63/196
f 61/64/197 62/66/198 54/67/199 53/65/200
f 72/92/201 73/93/202 74/94/203 75/95/204
f 73/93/205 76/96/206 77/97/207 74/94/208
f 64/70/209 65/72/210 57/73/211 56/71/212
f 65/72/213 58/58/214 50/61/215 57/73/216
f 1/18/217 2/17/218 59/59/219 58/58/220
f 2/17/221 3/20/222 60/62/223 59/59/224
f 3/20/225 4/21/226 61/64/227 60/62/228
f 4/21/229 5/22/230 62/66/231 61/64/232
f 5/22/233 6/23/234 63/68/235 62/66/236
f 6/23/237 7/24/238 64/70/239 63/68/240
f 7/24/241 8/25/242 65/72/243 64/70/244
f 8/25/245 1/18/246 58/58/247 65/72/248
f 58/58/249 59/59/250 67/75/251 66/74/252
f 51/60/253 50/61/254 69/77/255 68/76/256
f 50/61/257 58/58/258 66/74/259 69/77/260
f 59/59/261 60/62/262 70/78/263 67/75/264
f 60/62/265 52/63/266 71/79/267 70/78/268
f 52/63/269 51/60/270 68/76/271 71/79/272
f 62/66/273 63/68/274 73/81/275 72/80/276
f 55/69/277 54/67/278 75/83/279 74/82/280
f 54/67/281 62/66/282 72/80/283 75/83/284
f 63/68/285 64/70/286 76/84/287 73/81/288
f 64/70/289 56/71/290 77/85/291 76/84/292
f 56/71/293 55/69/294 74/82/295 77/85/296
f 33/98/297 26/99/298 78/106/299
f 26/99/300 27/100/301 78/106/302
f 27/100/303 28/101/304 78/106/305
f 28/101/306 29/102/307 78/106/308
f 29/102/309 30/103/310 78/106/311
f 30/103/312 31/104/313 78/106/314
f 31/104/315 32/105/316 78/106/317
f 32/105/318 33/98/319 78/106/320
