# This file uses centimeters as units for non-parametric coordinates.

v -13.309877 -3.380071 0.000000
v 13.309877 -3.380071 0.000000
v -13.309877 3.380071 0.000000
v 13.309877 3.380071 0.000000
v 10.647902 -3.380071 2.628907
v 10.647902 3.380071 2.628907
v -10.647902 -3.380071 2.628907
v -10.647902 3.380071 2.628907
v 10.647902 -3.380071 12.358659
v 10.647902 3.380071 12.358659
v 13.309877 -3.380071 12.358659
v 13.309877 3.380071 12.358659
v -13.309877 -3.380071 12.358659
v -10.647902 -3.380071 12.358659
v -10.647902 3.380071 12.358659
v -13.309877 3.380071 12.358659
v 10.647902 -1.403595 14.759900
v 10.647902 1.403595 14.759900
v 13.309877 -1.403595 14.759900
v 13.309877 1.403595 14.759900
v -13.309877 -1.403595 14.759900
v -10.647902 -1.403595 14.759900
v -10.647902 1.403595 14.759900
v -13.309877 1.403595 14.759900
v 9.322970 5.703987 5.827294
v 9.322970 0.000000 3.464625
v 9.322969 -5.703987 5.827294
v 9.322969 -8.066656 11.531281
v 9.322969 -5.703987 17.235268
v 9.322970 0.000000 19.597939
v 9.322970 5.703988 17.235270
v 9.322970 8.066657 11.531281
v -9.322969 5.703987 5.827294
v -9.322970 0.000000 3.464625
v -9.322970 -5.703987 5.827294
v -9.322970 -8.066656 11.531281
v -9.322970 -5.703987 17.235268
v -9.322970 0.000000 19.597939
v -9.322970 5.703988 17.235270
v -9.322970 8.066657 11.531281
v 9.322970 -11.789656 17.235268
v 9.322971 -11.789600 19.597939
v -9.322970 -11.789600 19.597939
v -9.322970 -11.789656 17.235268
v 9.322970 3.415773 11.531282
v 9.322970 2.415317 9.115966
v 9.322969 0.000000 8.115509
v 9.322969 -3.415772 11.531282
v 9.322969 -2.415316 9.115966
v 9.322970 2.415317 13.946598
v 9.322969 0.000000 14.947055
v 9.322969 -2.415316 13.946598
v -9.322969 3.415773 11.531282
v -9.322970 0.000000 14.947055
v -9.322970 2.415317 13.946598
v -9.322970 2.415317 9.115966
v -9.322970 0.000000 8.115509
v -9.322970 -2.415316 9.115966
v -9.322970 -3.415772 11.531282
v -9.322970 -2.415316 13.946598
v 9.322970 2.164402 11.531282
v 9.322970 1.530464 10.000818
v 9.322970 0.000000 11.531281
v 9.322970 0.000000 9.366880
v 9.322970 -2.164401 11.531281
v 9.322970 -1.530463 10.000818
v 9.322970 1.530464 13.061746
v 9.322970 0.000000 13.695683
v 9.322970 -1.530463 13.061745
v -9.322969 2.164402 11.531281
v -9.322970 0.000000 11.531281
v -9.322970 0.000000 13.695683
v -9.322970 1.530464 13.061746
v -9.322970 1.530464 10.000818
v -9.322970 0.000000 9.366880
v -9.322969 -1.530464 10.000818
v -9.322970 -2.164401 11.531281
v -9.322969 -1.530464 13.061745
v 11.418456 0.917108 9.942805
v 11.418456 -0.917107 9.942804
v 11.418457 -1.834215 11.531281
v 11.418457 -0.917108 13.119758
v 11.418456 0.917107 13.119758
v 11.418456 1.834215 11.531281
v -11.418456 0.917108 9.942805
v -11.418456 -0.917107 9.942804
v -11.418456 -1.834215 11.531281
v -11.418457 -0.917108 13.119758
v -11.418456 0.917107 13.119758
v -11.418457 1.834215 11.531281
vt 0.122059 0.377370
vt 0.122048 0.377204
vt 0.122650 0.377406
vt 0.122641 0.377574
vt 0.122021 0.377138
vt 0.122767 0.377384
vt 0.122033 0.377303
vt 0.122755 0.377552
vt 0.121840 0.377467
vt 0.121848 0.377537
vt 0.121776 0.377510
vt 0.121767 0.377440
vt 0.122543 0.377797
vt 0.122461 0.377766
vt 0.122462 0.377696
vt 0.122545 0.377726
vt 0.121896 0.377540
vt 0.121879 0.377372
vt 0.121825 0.377514
vt 0.121806 0.377346
vt 0.122498 0.377765
vt 0.122578 0.377795
vt 0.122502 0.377595
vt 0.122585 0.377625
vt 0.103693 0.377542
vt 0.103684 0.377734
vt 0.104364 0.377665
vt 0.104402 0.377482
vt 0.103712 0.377973
vt 0.104391 0.377892
vt 0.103763 0.378149
vt 0.104471 0.378053
vt 0.103814 0.378158
vt 0.104568 0.378055
vt 0.103822 0.378396
vt 0.103846 0.378445
vt 0.104598 0.378324
vt 0.104557 0.378280
vt 0.103831 0.377964
vt 0.103798 0.377679
vt 0.104588 0.377603
vt 0.104621 0.377868
vt 0.103739 0.377507
vt 0.104493 0.377445
vt 0.009189 0.008500
vt 0.009111 0.008470
vt 0.009112 0.008588
vt 0.009222 0.008581
vt 0.009857 0.008692
vt 0.009853 0.008864
vt 0.009701 0.008881
vt 0.009748 0.008753
vt 0.009960 0.008733
vt 0.010000 0.008848
vt 0.009954 0.008971
vt 0.009850 0.009034
vt 0.009744 0.008998
vt 0.009114 0.008705
vt 0.009191 0.008665
vt 0.009031 0.008510
vt 0.009000 0.008596
vt 0.009034 0.008677
vt 0.103746 0.377701
vt 0.103726 0.377711
vt 0.103722 0.377792
vt 0.103734 0.377898
vt 0.103757 0.377973
vt 0.103770 0.377775
vt 0.103783 0.377889
vt 0.103777 0.377971
vt 0.104525 0.377696
vt 0.104538 0.377803
vt 0.104487 0.377628
vt 0.104430 0.377717
vt 0.104448 0.377639
vt 0.104442 0.377817
vt 0.104477 0.377886
vt 0.104517 0.377882
vt 0.017733 0.382595
vt 0.017627 0.382540
vt 0.017627 0.382540
vt 0.017733 0.382595
vt 0.017777 0.382727
vt 0.017777 0.382727
vt 0.016777 0.382757
vt 0.016819 0.382609
vt 0.016819 0.382609
vt 0.016777 0.382757
vt 0.016925 0.382547
vt 0.016925 0.382547
vt 0.017037 0.382614
vt 0.017086 0.382774
vt 0.017086 0.382774
vt 0.017037 0.382614
vt 0.017039 0.382928
vt 0.017039 0.382928
vt 0.016927 0.382982
vt 0.016927 0.382982
vt 0.016820 0.382909
vt 0.016820 0.382909
vt 0.017626 0.382901
vt 0.017731 0.382855
vt 0.017731 0.382855
vt 0.017626 0.382901
vt 0.017525 0.382592
vt 0.017525 0.382592
vt 0.017484 0.382716
vt 0.017484 0.382716
vt 0.017524 0.382842
vt 0.017524 0.382842
vt 0.121847 0.377312
vt 0.121854 0.377376
vt 0.122765 0.377706
vt 0.122767 0.377641
vt 0.121817 0.377447
vt 0.122730 0.377783
vt 0.121774 0.377456
vt 0.122696 0.377797
vt 0.121767 0.377392
vt 0.122698 0.377732
vt 0.121804 0.377319
vt 0.122734 0.377653
vt 0.016925 0.382547
vt 0.017037 0.382614
vt 0.017037 0.382614
vt 0.016925 0.382547
vt 0.017086 0.382774
vt 0.017086 0.382774
vt 0.016927 0.382982
vt 0.016927 0.382982
vt 0.016777 0.382757
vt 0.016777 0.382757
vt 0.017731 0.382855
vt 0.017777 0.382727
vt 0.017777 0.382727
vt 0.017731 0.382855
vt 0.017627 0.382540
vt 0.017627 0.382540
vt 0.017626 0.382901
vt 0.017626 0.382901
vn 0.000000 0.000000 1.000000
vn 0.000000 0.000000 1.000000
vn 0.000000 0.000000 1.000000
vn 0.000000 0.000000 1.000000
vn 0.000000 1.000000 0.000000
vn 0.000000 1.000000 0.000000
vn 0.000000 1.000000 0.000000
vn 0.000000 1.000000 0.000000
vn 0.000000 0.000000 -1.000000
vn 0.000000 0.000000 -1.000000
vn 0.000000 0.000000 -1.000000
vn 0.000000 0.000000 -1.000000
vn 0.000000 -1.000000 0.000000
vn 0.000000 -1.000000 0.000000
vn 0.000000 -1.000000 0.000000
vn 0.000000 -1.000000 0.000000
vn 0.000000 0.000000 1.000000
vn 0.000000 0.000000 1.000000
vn 0.000000 0.000000 1.000000
vn 0.000000 0.000000 1.000000
vn 0.000000 0.000000 1.000000
vn 0.000000 0.000000 1.000000
vn 0.000000 0.000000 1.000000
vn 0.000000 0.000000 1.000000
vn -1.000000 0.000000 0.000000
vn -1.000000 0.000000 0.000000
vn -1.000000 0.000000 0.000000
vn -1.000000 0.000000 0.000000
vn 0.000000 -1.000000 0.000000
vn 0.000000 -1.000000 0.000000
vn 0.000000 -1.000000 0.000000
vn 0.000000 -1.000000 0.000000
vn 1.000000 0.000000 0.000000
vn 1.000000 0.000000 0.000000
vn 1.000000 0.000000 0.000000
vn 1.000000 0.000000 0.000000
vn 0.000000 1.000000 0.000000
vn 0.000000 1.000000 0.000000
vn 0.000000 1.000000 0.000000
vn 0.000000 1.000000 0.000000
vn 0.000000 -1.000000 0.000000
vn 0.000000 -1.000000 0.000000
vn 0.000000 -1.000000 0.000000
vn 0.000000 -1.000000 0.000000
vn 1.000000 0.000000 0.000000
vn 1.000000 0.000000 0.000000
vn 1.000000 0.000000 0.000000
vn 1.000000 0.000000 0.000000
vn 0.000000 1.000000 0.000000
vn 0.000000 1.000000 0.000000
vn 0.000000 1.000000 0.000000
vn 0.000000 1.000000 0.000000
vn -1.000000 0.000000 0.000000
vn -1.000000 0.000000 0.000000
vn -1.000000 0.000000 0.000000
vn -1.000000 0.000000 0.000000
vn -1.000000 0.000000 0.000000
vn -1.000000 0.000000 0.000000
vn -1.000000 0.000000 0.000000
vn -1.000000 0.000000 0.000000
vn 0.000000 -0.772091 0.635512
vn 0.000000 -0.772091 0.635512
vn 0.000000 -0.772091 0.635512
vn 0.000000 -0.772091 0.635512
vn 1.000000 0.000000 0.000000
vn 1.000000 0.000000 0.000000
vn 1.000000 0.000000 0.000000
vn 1.000000 0.000000 0.000000
vn 0.000000 0.772091 0.635512
vn 0.000000 0.772091 0.635512
vn 0.000000 0.772091 0.635512
vn 0.000000 0.772091 0.635512
vn 0.000000 -0.772091 0.635512
vn 0.000000 -0.772091 0.635512
vn 0.000000 -0.772091 0.635512
vn 0.000000 -0.772091 0.635512
vn 1.000000 0.000000 0.000000
vn 1.000000 0.000000 0.000000
vn 1.000000 0.000000 0.000000
vn 1.000000 0.000000 0.000000
vn 0.000000 0.772091 0.635512
vn 0.000000 0.772091 0.635512
vn 0.000000 0.772091 0.635512
vn 0.000000 0.772091 0.635512
vn -1.000000 0.000000 0.000000
vn -1.000000 0.000000 0.000000
vn -1.000000 0.000000 0.000000
vn -1.000000 0.000000 0.000000
vn -0.000000 0.382684 -0.923880
vn -0.000000 0.382684 -0.923880
vn -0.000000 0.382684 -0.923880
vn -0.000000 0.382684 -0.923880
vn 0.000000 -0.382684 -0.923880
vn 0.000000 -0.382684 -0.923880
vn 0.000000 -0.382684 -0.923880
vn 0.000000 -0.382684 -0.923880
vn 0.000000 -0.923880 -0.382683
vn 0.000000 -0.923880 -0.382683
vn 0.000000 -0.923880 -0.382683
vn 0.000000 -0.923880 -0.382683
vn 0.000000 -0.923880 0.382683
vn 0.000000 -0.923880 0.382683
vn 0.000000 -0.923880 0.382683
vn 0.000000 -0.923880 0.382683
vn 0.000000 -1.000000 0.000024
vn 0.000000 -1.000000 0.000024
vn 0.000000 -1.000000 0.000024
vn 0.000000 -1.000000 0.000024
vn -0.000000 0.382683 0.923880
vn -0.000000 0.382683 0.923880
vn -0.000000 0.382683 0.923880
vn -0.000000 0.382683 0.923880
vn -0.000000 0.923880 0.382683
vn -0.000000 0.923880 0.382683
vn -0.000000 0.923880 0.382683
vn -0.000000 0.923880 0.382683
vn -0.000000 0.923879 -0.382684
vn -0.000000 0.923879 -0.382684
vn -0.000000 0.923879 -0.382684
vn -0.000000 0.923879 -0.382684
vn 1.000000 0.000000 0.000000
vn 1.000000 0.000000 0.000000
vn 1.000000 0.000000 0.000000
vn 1.000000 0.000000 0.000000
vn -1.000000 -0.000000 0.000000
vn -1.000000 -0.000000 0.000000
vn -1.000000 -0.000000 0.000000
vn -1.000000 -0.000000 0.000000
vn 1.000000 0.000000 0.000000
vn 1.000000 0.000000 0.000000
vn 1.000000 0.000000 0.000000
vn 1.000000 0.000000 0.000000
vn 0.000000 0.000000 1.000000
vn 0.000000 0.000000 1.000000
vn 0.000000 0.000000 1.000000
vn 0.000000 0.000000 1.000000
vn -1.000000 -0.000000 0.000000
vn -1.000000 -0.000000 0.000000
vn -1.000000 -0.000000 0.000000
vn -1.000000 -0.000000 0.000000
vn 0.000000 0.000000 -1.000000
vn 0.000000 0.000000 -1.000000
vn 0.000000 0.000000 -1.000000
vn 0.000000 0.000000 -1.000000
vn -1.000000 -0.000000 -0.000000
vn -1.000000 -0.000000 -0.000000
vn -1.000000 -0.000000 -0.000000
vn -1.000000 -0.000000 -0.000000
vn -1.000000 -0.000000 0.000000
vn -1.000000 -0.000000 0.000000
vn -1.000000 -0.000000 0.000000
vn -1.000000 -0.000000 0.000000
vn -1.000000 -0.000000 -0.000000
vn -1.000000 -0.000000 -0.000000
vn -1.000000 -0.000000 -0.000000
vn -1.000000 -0.000000 -0.000000
vn 1.000000 0.000000 0.000000
vn 1.000000 0.000000 0.000000
vn 1.000000 0.000000 0.000000
vn 1.000000 0.000000 0.000000
vn 1.000000 0.000000 -0.000000
vn 1.000000 0.000000 -0.000000
vn 1.000000 0.000000 -0.000000
vn 1.000000 0.000000 -0.000000
vn 1.000000 0.000000 -0.000000
vn 1.000000 0.000000 -0.000000
vn 1.000000 0.000000 -0.000000
vn 1.000000 0.000000 -0.000000
vn 1.000000 0.000000 -0.000000
vn 1.000000 0.000000 -0.000000
vn 1.000000 0.000000 -0.000000
vn 1.000000 0.000000 -0.000000
vn 1.000000 0.000000 0.000000
vn 1.000000 0.000000 0.000000
vn 1.000000 0.000000 0.000000
vn 1.000000 0.000000 0.000000
vn 1.000000 0.000000 0.000000
vn 1.000000 0.000000 0.000000
vn 1.000000 0.000000 0.000000
vn 1.000000 0.000000 0.000000
vn 1.000000 0.000000 -0.000000
vn 1.000000 0.000000 -0.000000
vn 1.000000 0.000000 -0.000000
vn 1.000000 0.000000 -0.000000
vn 1.000000 0.000000 0.000000
vn 1.000000 0.000000 0.000000
vn 1.000000 0.000000 0.000000
vn 1.000000 0.000000 0.000000
vn 1.000000 0.000000 0.000000
vn 1.000000 0.000000 0.000000
vn 1.000000 0.000000 0.000000
vn 1.000000 0.000000 0.000000
vn 1.000000 0.000000 0.000000
vn 1.000000 0.000000 0.000000
vn 1.000000 0.000000 0.000000
vn 1.000000 0.000000 0.000000
vn 1.000000 0.000000 -0.000000
vn 1.000000 0.000000 -0.000000
vn 1.000000 0.000000 -0.000000
vn 1.000000 0.000000 -0.000000
vn -1.000000 -0.000000 0.000000
vn -1.000000 -0.000000 0.000000
vn -1.000000 -0.000000 0.000000
vn -1.000000 -0.000000 0.000000
vn -1.000000 -0.000000 0.000000
vn -1.000000 -0.000000 0.000000
vn -1.000000 -0.000000 0.000000
vn -1.000000 -0.000000 0.000000
vn -1.000000 -0.000000 0.000000
vn -1.000000 -0.000000 0.000000
vn -1.000000 -0.000000 0.000000
vn -1.000000 -0.000000 0.000000
vn -1.000000 -0.000000 -0.000000
vn -1.000000 -0.000000 -0.000000
vn -1.000000 -0.000000 -0.000000
vn -1.000000 -0.000000 -0.000000
vn -1.000000 -0.000000 -0.000000
vn -1.000000 -0.000000 -0.000000
vn -1.000000 -0.000000 -0.000000
vn -1.000000 -0.000000 -0.000000
vn -1.000000 -0.000000 0.000000
vn -1.000000 -0.000000 0.000000
vn -1.000000 -0.000000 0.000000
vn -1.000000 -0.000000 0.000000
vn -1.000000 -0.000000 -0.000000
vn -1.000000 -0.000000 -0.000000
vn -1.000000 -0.000000 -0.000000
vn -1.000000 -0.000000 -0.000000
vn -1.000000 -0.000000 0.000000
vn -1.000000 -0.000000 0.000000
vn -1.000000 -0.000000 0.000000
vn -1.000000 -0.000000 0.000000
vn 1.000000 0.000000 0.000000
vn 1.000000 0.000000 0.000000
vn 1.000000 0.000000 0.000000
vn 1.000000 0.000000 0.000000
vn 1.000000 0.000000 -0.000001
vn 1.000000 0.000000 -0.000001
vn 1.000000 0.000000 -0.000001
vn 1.000000 0.000000 -0.000001
vn 1.000000 0.000000 0.000001
vn 1.000000 0.000000 0.000001
vn 1.000000 0.000000 0.000001
vn 1.000000 0.000000 0.000001
vn 1.000000 0.000000 0.000000
vn 1.000000 0.000000 0.000000
vn 1.000000 0.000000 0.000000
vn 1.000000 0.000000 0.000000
vn 1.000000 0.000000 0.000000
vn 1.000000 0.000000 0.000000
vn 1.000000 0.000000 0.000000
vn 1.000000 0.000000 0.000000
vn 1.000000 0.000000 0.000000
vn 1.000000 0.000000 0.000000
vn 1.000000 0.000000 0.000000
vn 1.000000 0.000000 0.000000
vn 1.000000 0.000000 0.000000
vn 1.000000 0.000000 0.000000
vn 1.000000 0.000000 0.000000
vn 1.000000 0.000000 0.000000
vn 1.000000 0.000000 0.000000
vn 1.000000 0.000000 0.000000
vn 1.000000 0.000000 0.000000
vn 1.000000 0.000000 0.000000
vn -1.000000 -0.000000 0.000001
vn -1.000000 -0.000000 0.000001
vn -1.000000 -0.000000 0.000001
vn -1.000000 -0.000000 0.000001
vn -1.000000 -0.000000 -0.000000
vn -1.000000 -0.000000 -0.000000
vn -1.000000 -0.000000 -0.000000
vn -1.000000 -0.000000 -0.000000
vn -1.000000 -0.000000 0.000000
vn -1.000000 -0.000000 0.000000
vn -1.000000 -0.000000 0.000000
vn -1.000000 -0.000000 0.000000
vn -1.000000 -0.000000 0.000000
vn -1.000000 -0.000000 0.000000
vn -1.000000 -0.000000 0.000000
vn -1.000000 -0.000000 0.000000
vn -1.000000 -0.000000 -0.000000
vn -1.000000 -0.000000 -0.000000
vn -1.000000 -0.000000 -0.000000
vn -1.000000 -0.000000 -0.000000
vn -1.000000 -0.000000 0.000000
vn -1.000000 -0.000000 0.000000
vn -1.000000 -0.000000 0.000000
vn -1.000000 -0.000000 0.000000
vn -1.000000 -0.000000 -0.000001
vn -1.000000 -0.000000 -0.000001
vn -1.000000 -0.000000 -0.000001
vn -1.000000 -0.000000 -0.000001
vn -1.000000 -0.000000 0.000000
vn -1.000000 -0.000000 0.000000
vn -1.000000 -0.000000 0.000000
vn -1.000000 -0.000000 0.000000
vn 0.000000 0.000001 -1.000000
vn 0.000000 0.000001 -1.000000
vn 0.000000 0.000001 -1.000000
vn 0.000000 0.000001 -1.000000
vn 0.000000 -0.866025 -0.500000
vn 0.000000 -0.866026 -0.500000
vn 0.000000 -0.866026 -0.500000
vn 0.000000 -0.866026 -0.500000
vn 0.000000 -0.866025 0.500000
vn 0.000000 -0.866025 0.500000
vn 0.000000 -0.866025 0.500000
vn 0.000000 -0.866025 0.500000
vn 0.000000 0.000000 1.000000
vn 0.000000 0.000000 1.000000
vn 0.000000 0.000000 1.000000
vn 0.000000 0.000000 1.000000
vn 0.000000 0.866025 0.500000
vn 0.000000 0.866025 0.500000
vn 0.000000 0.866025 0.500000
vn 0.000000 0.866025 0.500000
vn 0.000000 0.866025 -0.500000
vn 0.000000 0.866025 -0.500000
vn 0.000000 0.866025 -0.500000
vn 0.000000 0.866025 -0.500000
vn 1.000000 0.000000 -0.000000
vn 1.000000 0.000000 -0.000000
vn 1.000000 0.000000 -0.000000
vn 1.000000 0.000000 -0.000000
vn 1.000000 0.000000 -0.000000
vn 1.000000 0.000000 -0.000000
vn -1.000000 0.000000 -0.000000
vn -1.000000 0.000000 -0.000000
vn -1.000000 0.000000 -0.000000
vn -1.000000 0.000000 -0.000000
vn -1.000000 0.000000 -0.000000
vn -1.000000 0.000000 -0.000000
s off
f 5/1/1 6/2/2 8/3/3 7/4/4
f 6/2/5 4/5/6 3/6/7 8/3/8
f 4/5/9 2/7/10 1/8/11 3/6/12
f 2/7/13 5/1/14 7/4/15 1/8/16
f 18/9/17 17/10/18 19/11/19 20/12/20
f 21/13/21 22/14/22 23/15/23 24/16/24
f 6/2/25 5/1/26 9/17/27 10/18/28
f 5/1/29 2/7/30 11/19/31 9/17/32
f 2/7/33 4/5/34 12/20/35 11/19/36
f 4/5/37 6/2/38 10/18/39 12/20/40
f 1/8/41 7/4/42 14/21/43 13/22/44
f 7/4/45 8/3/46 15/23/47 14/21/48
f 8/3/49 3/6/50 16/24/51 15/23/52
f 3/6/53 1/8/54 13/22/55 16/24/56
f 10/18/57 9/17/58 17/10/59 18/9/60
f 9/17/61 11/19/62 19/11/63 17/10/64
f 11/19/65 12/20/66 20/12/67 19/11/68
f 12/20/69 10/18/70 18/9/71 20/12/72
f 13/22/73 14/21/74 22/14/75 21/13/76
f 14/21/77 15/23/78 23/15/79 22/14/80
f 15/23/81 16/24/82 24/16/83 23/15/84
f 16/24/85 13/22/86 21/13/87 24/16/88
f 25/25/89 26/26/90 34/27/91 33/28/92
f 26/26/93 27/29/94 35/30/95 34/27/96
f 27/29/97 28/31/98 36/32/99 35/30/100
f 28/31/101 29/33/102 37/34/103 36/32/104
f 41/35/105 42/36/106 43/37/107 44/38/108
f 30/39/109 31/40/110 39/41/111 38/42/112
f 31/40/113 32/43/114 40/44/115 39/41/116
f 32/43/117 25/25/118 33/28/119 40/44/120
f 62/45/121 61/46/122 63/47/123 64/48/124
f 70/49/125 71/50/126 72/51/127 73/52/128
f 29/33/129 30/39/130 42/36/131 41/35/132
f 30/39/133 38/42/134 43/37/135 42/36/136
f 38/42/137 37/34/138 44/38/139 43/37/140
f 37/34/141 29/33/142 41/35/143 44/38/144
f 74/53/145 75/54/146 71/50/147 70/49/148
f 71/50/149 75/54/150 76/55/151 77/56/152
f 72/51/153 71/50/154 77/56/155 78/57/156
f 64/48/157 63/47/158 65/58/159 66/59/160
f 63/47/161 61/46/162 67/60/163 68/61/164
f 65/58/165 63/47/166 68/61/167 69/62/168
f 25/25/169 32/43/170 45/63/171 46/64/172
f 26/26/173 25/25/174 46/64/175 47/65/176
f 28/31/177 27/29/178 49/66/179 48/67/180
f 27/29/181 26/26/182 47/65/183 49/66/184
f 32/43/185 31/40/186 50/68/187 45/63/188
f 31/40/189 30/39/190 51/69/191 50/68/192
f 30/39/193 29/33/194 52/70/195 51/69/196
f 29/33/197 28/31/198 48/67/199 52/70/200
f 38/42/201 39/41/202 55/71/203 54/72/204
f 39/41/205 40/44/206 53/73/207 55/71/208
f 33/28/209 34/27/210 57/74/211 56/75/212
f 40/44/213 33/28/214 56/75/215 53/73/216
f 34/27/217 35/30/218 58/76/219 57/74/220
f 35/30/221 36/32/222 59/77/223 58/76/224
f 36/32/225 37/34/226 60/78/227 59/77/228
f 37/34/229 38/42/230 54/72/231 60/78/232
f 46/79/233 45/80/234 61/81/235 62/82/236
f 47/83/237 46/79/238 62/82/239 64/84/240
f 48/85/241 49/86/242 66/87/243 65/88/244
f 49/86/245 47/89/246 64/90/247 66/87/248
f 45/91/249 50/92/250 67/93/251 61/94/252
f 50/123/253 51/124/254 68/125/255 67/126/256
f 51/127/257 52/95/258 69/96/259 68/128/260
f 52/95/261 48/97/262 65/98/263 69/96/264
f 54/129/265 55/99/266 73/100/267 72/130/268
f 55/99/269 53/131/270 70/132/271 73/100/272
f 56/101/273 57/102/274 75/103/275 74/104/276
f 53/133/277 56/134/278 74/135/279 70/136/280
f 57/137/281 58/105/282 76/106/283 75/138/284
f 58/105/285 59/107/286 77/108/287 76/106/288
f 59/107/289 60/109/290 78/110/291 77/108/292
f 60/109/293 54/139/294 72/140/295 78/110/296
f 79/111/297 80/112/298 86/113/299 85/114/300
f 80/112/301 81/115/302 87/116/303 86/113/304
f 81/115/305 82/117/306 88/118/307 87/116/308
f 82/117/309 83/119/310 89/120/311 88/118/312
f 83/119/313 84/121/314 90/122/315 89/120/316
f 84/121/317 79/111/318 85/114/319 90/122/320
f 79/111/321 84/121/322 83/119/323 82/117/324 81/115/325 80/112/326
f 85/114/327 86/113/328 87/116/329 88/118/330 89/120/331 90/122/332
