# This file uses centimeters as units for non-parametric coordinates.

v -17.937775 8.028672 11.668839
v 17.937775 8.028672 11.668839
v -17.937775 8.028672 -17.453613
v 17.937775 8.028672 -17.453613
v -17.937775 2.848558 14.561218
v 17.937775 2.848558 14.561218
v 17.937775 2.848558 -14.561218
v -17.937775 2.848558 -14.561218
v -16.892731 0.000000 -13.712891
v 16.892731 0.000000 -13.712891
v 16.892731 0.000000 13.712891
v -16.892731 0.000000 13.712891
v 16.892731 2.848558 13.712891
v -16.892731 2.848558 13.712891
v 16.892731 2.848558 -13.712891
v -16.892731 2.848558 -13.712891
v -17.937775 5.956574 -16.296631
v -17.937775 4.920655 -15.718201
v 17.937775 4.920655 -15.718201
v 17.937775 5.956574 -16.296631
v 17.937775 4.920655 13.404236
v 17.937775 5.956574 12.825821
v -17.937775 4.920655 13.404236
v -17.937775 5.956574 12.825821
v -16.881989 5.956574 -15.422546
v -16.881989 4.920655 -14.878174
v -16.881989 4.920655 12.530167
v -16.881989 5.956574 11.985794
v 16.881989 5.956574 -15.422546
v 16.881989 4.920655 -14.878174
v 16.881989 5.956574 11.985794
v 16.881989 4.920655 12.530167
v 0.000000 8.028672 0.969849
v 0.000000 8.028672 -6.754623
v -11.900024 6.629886 12.449875
v -15.246429 6.629886 12.449875
v -11.900024 7.355360 12.044785
v -15.246429 7.355360 12.044785
v 5.563019 0.582672 13.712891
v 15.159973 0.582672 13.712891
v 15.159973 2.265886 13.712891
v 5.563019 2.265886 13.712891
v -3.233612 8.028672 -1.139603
v 3.233612 8.028672 -1.139603
v 3.233612 8.028672 -4.649170
v -3.233612 8.028672 -4.649170
v 0.000000 8.028672 -2.678879
vt 0.080455 0.249852
vt 0.079764 0.249787
vt 0.389335 0.006736
vt 0.079465 0.249966
vt 0.080338 0.250077
vt 0.079460 0.249878
vt 0.080342 0.249978
vt 0.079762 0.249717
vt 0.080460 0.249776
vt 0.388419 0.006520
vt 0.388824 0.006152
vt 0.389552 0.006294
vt 0.388462 0.006605
vt 0.389345 0.006707
vt 0.389302 0.006688
vt 0.388519 0.006600
vt 0.388768 0.006448
vt 0.388787 0.006456
vt 0.389448 0.006504
vt 0.389407 0.006508
vt 0.389432 0.006436
vt 0.389429 0.006459
vt 0.389327 0.006631
vt 0.389331 0.006599
vt 0.388791 0.006389
vt 0.388788 0.006410
vt 0.388514 0.006518
vt 0.388508 0.006546
vt 0.388474 0.006549
vt 0.389353 0.006641
vt 0.389454 0.006457
vt 0.388776 0.006405
vt 0.388780 0.006384
vt 0.389456 0.006433
vt 0.388480 0.006521
vt 0.389357 0.006609
vt 0.081327 0.242875
vt 0.081319 0.242901
vt 0.080805 0.242960
vt 0.080820 0.242923
vt 0.080790 0.242838
vt 0.080783 0.242856
vt 0.080338 0.242859
vt 0.080327 0.242882
vt 0.388493 0.006465
vt 0.389462 0.006387
vt 0.478584 0.006131
vt 0.169933 0.010123
vt 0.389357 0.006609
vt 0.388480 0.006521
vt 0.388493 0.006465
vt 0.389365 0.006544
vt 0.040953 0.123537
vt 0.039960 0.123535
vt 0.039953 0.123304
vt 0.040940 0.123306
vt 0.080338 0.250077
vt 0.079465 0.249966
vt 0.079460 0.249878
vt 0.080342 0.249978
vt 0.251361 0.270355
vt 0.299913 0.270355
vt 0.299913 0.278871
vt 0.251361 0.278871
vt 0.478007 0.005845
vt 0.389009 0.006467
vt 0.330192 0.008784
vt 0.388765 0.006481
vt 0.389038 0.006424
vt 0.169428 0.010419
vt 0.389272 0.006404
vt 0.168933 0.010107
vt 0.169438 0.009788
vt 0.330760 0.009142
vt 0.330185 0.009405
vt 0.330750 0.009784
vt 0.478596 0.005499
vt 0.477997 0.006499
vn 0.000000 1.000000 0.000000
vn 0.000000 1.000000 0.000000
vn 0.000000 1.000000 0.000000
vn 0.000000 1.000000 0.000000
vn 0.000000 -1.000000 0.000000
vn 0.000000 -1.000000 0.000000
vn 0.000000 -1.000000 0.000000
vn 0.000000 -1.000000 0.000000
vn -0.000000 0.000000 1.000000
vn 0.000000 0.000000 1.000000
vn 0.000000 0.000000 1.000000
vn -0.000000 0.000000 1.000000
vn 1.000000 0.000000 0.000000
vn 1.000000 0.000000 0.000000
vn 1.000000 0.000000 0.000000
vn 1.000000 0.000000 0.000000
vn 0.000000 0.000000 -1.000000
vn 0.000000 0.000000 -1.000000
vn 0.000000 0.000000 -1.000000
vn 0.000000 0.000000 -1.000000
vn -1.000000 0.000000 0.000000
vn -1.000000 0.000000 0.000000
vn -1.000000 0.000000 0.000000
vn -1.000000 0.000000 0.000000
vn 0.000000 -1.000000 -0.000000
vn 0.000000 -1.000000 -0.000000
vn 0.000000 -1.000000 -0.000000
vn 0.000000 -1.000000 -0.000000
vn 0.000000 -1.000000 0.000000
vn 0.000000 -1.000000 0.000000
vn 0.000000 -1.000000 0.000000
vn 0.000000 -1.000000 0.000000
vn 0.000000 -1.000000 0.000000
vn 0.000000 -1.000000 0.000000
vn 0.000000 -1.000000 0.000000
vn 0.000000 -1.000000 0.000000
vn 0.000000 -1.000000 0.000000
vn 0.000000 -1.000000 0.000000
vn 0.000000 -1.000000 0.000000
vn 0.000000 -1.000000 0.000000
vn -1.000000 0.000000 0.000000
vn -1.000000 0.000000 0.000000
vn -1.000000 0.000000 0.000000
vn -1.000000 0.000000 0.000000
vn 0.000000 -0.465179 -0.885217
vn 0.000000 -0.465179 -0.885217
vn 0.000000 -0.465179 -0.885217
vn 0.000000 -0.465179 -0.885217
vn 1.000000 0.000000 0.000000
vn 1.000000 0.000000 0.000000
vn 1.000000 0.000000 0.000000
vn 1.000000 0.000000 0.000000
vn 0.000000 0.465179 0.885217
vn 0.000000 0.465179 0.885217
vn 0.000000 0.465179 0.885217
vn 0.000000 0.465179 0.885217
vn 0.000000 0.487515 0.873115
vn 0.000000 0.487515 0.873115
vn 0.000000 0.487515 0.873115
vn 0.000000 0.487515 0.873115
vn 0.000000 -0.487515 -0.873115
vn 0.000000 -0.487515 -0.873115
vn 0.000000 -0.487515 -0.873115
vn 0.000000 -0.487515 -0.873115
vn 1.000000 -0.000000 0.000000
vn 1.000000 -0.000000 0.000000
vn 1.000000 -0.000000 0.000000
vn 1.000000 -0.000000 0.000000
vn -1.000000 -0.000000 0.000000
vn -1.000000 -0.000000 0.000000
vn -1.000000 -0.000000 0.000000
vn -1.000000 -0.000000 0.000000
vn 0.000000 -0.487515 -0.873115
vn 0.000000 -0.487515 -0.873115
vn 0.000000 -0.487515 -0.873115
vn 0.000000 -0.487515 -0.873115
vn 1.000000 -0.000000 0.000000
vn 1.000000 -0.000000 0.000000
vn 1.000000 -0.000000 0.000000
vn 1.000000 -0.000000 0.000000
vn 0.000000 0.487511 0.873117
vn -0.000000 0.487515 0.873115
vn -0.000000 0.487515 0.873115
vn 0.000000 0.487511 0.873117
vn -1.000000 -0.000000 0.000000
vn -1.000000 -0.000000 0.000000
vn -1.000000 -0.000000 0.000000
vn -1.000000 -0.000000 0.000000
vn 0.000000 1.000000 0.000000
vn 0.000000 1.000000 0.000000
vn 0.000000 1.000000 0.000000
vn 0.000000 1.000000 0.000000
vn 0.000000 -1.000000 0.000000
vn 0.000000 -1.000000 0.000000
vn 0.000000 -1.000000 0.000000
vn 0.000000 -1.000000 0.000000
vn 0.000000 -1.000000 0.000000
vn 0.000000 -1.000000 0.000000
vn 0.000000 -1.000000 0.000000
vn 0.000000 -1.000000 0.000000
vn 0.000000 1.000000 0.000000
vn 0.000000 1.000000 0.000000
vn 0.000000 1.000000 0.000000
vn 0.000000 1.000000 0.000000
vn 0.000000 -1.000000 0.000000
vn 0.000000 -1.000000 0.000000
vn 0.000000 -1.000000 0.000000
vn 0.000000 -1.000000 0.000000
vn 0.000000 1.000000 0.000000
vn 0.000000 1.000000 0.000000
vn 0.000000 1.000000 0.000000
vn 0.000000 1.000000 0.000000
vn 0.000000 -1.000000 -0.000000
vn 0.000000 -1.000000 -0.000000
vn 0.000000 -1.000000 -0.000000
vn 0.000000 -1.000000 -0.000000
vn 0.000000 1.000000 -0.000000
vn 0.000000 1.000000 -0.000000
vn 0.000000 1.000000 -0.000000
vn 0.000000 1.000000 -0.000000
vn 0.000000 1.000000 0.000000
vn 0.000000 1.000000 0.000000
vn 0.000000 1.000000 0.000000
vn 0.000000 1.000000 0.000000
vn 0.000000 1.000000 0.000000
vn 0.000000 1.000000 0.000000
vn 0.000000 1.000000 0.000000
vn 0.000000 0.487514 0.873115
vn -0.000000 0.487518 0.873113
vn -0.000000 0.487515 0.873115
vn 0.000000 0.487511 0.873117
vn -0.000000 0.487518 0.873113
vn -0.000000 0.487518 0.873113
vn -0.000000 0.487515 0.873115
vn -0.000000 0.487515 0.873115
vn -0.000000 0.487518 0.873113
vn 0.000000 0.487514 0.873115
vn 0.000000 0.487511 0.873117
vn -0.000000 0.487515 0.873115
vn 0.000000 0.487514 0.873115
vn 0.000000 0.487514 0.873115
vn 0.000000 0.487511 0.873117
vn 0.000000 0.487511 0.873117
vn -0.000000 0.000000 1.000000
vn 0.000000 0.000000 1.000000
vn 0.000000 0.000000 1.000000
vn -0.000000 0.000000 1.000000
vn 0.000000 0.000000 1.000000
vn 0.000000 0.000000 1.000000
vn 0.000000 0.000000 1.000000
vn 0.000000 0.000000 1.000000
vn 0.000000 0.000000 1.000000
vn -0.000000 0.000000 1.000000
vn -0.000000 0.000000 1.000000
vn 0.000000 0.000000 1.000000
vn -0.000000 0.000000 1.000000
vn -0.000000 0.000000 1.000000
vn -0.000000 0.000000 1.000000
vn -0.000000 0.000000 1.000000
vn 0.000000 1.000000 0.000000
vn 0.000000 1.000000 0.000000
vn 0.000000 1.000000 0.000000
vn 0.000000 1.000000 0.000000
vn 0.000000 1.000000 0.000000
vn 0.000000 1.000000 0.000000
vn 0.000000 1.000000 0.000000
vn 0.000000 1.000000 0.000000
vn 0.000000 1.000000 0.000000
vn 0.000000 1.000000 0.000000
vn 0.000000 1.000000 0.000000
vn 0.000000 1.000000 0.000000
vn 0.000000 1.000000 0.000000
vn 0.000000 1.000000 0.000000
vn 0.000000 1.000000 0.000000
vn 0.000000 1.000000 0.000000
vn 0.000000 1.000000 0.000000
vn 0.000000 1.000000 0.000000
vn 0.000000 1.000000 0.000000
vn 0.000000 1.000000 0.000000
vn 0.000000 1.000000 0.000000
vn 0.000000 1.000000 0.000000
vn 0.000000 1.000000 0.000000
vn 0.000000 1.000000 0.000000
vn 0.000000 1.000000 0.000000
vn 0.000000 1.000000 0.000000
vn 0.000000 1.000000 0.000000
s off
f 4/11/1 45/69/2 44/68/3 2/10/4
f 9/1/5 10/2/6 11/4/7 12/5/8
f 39/61/9 40/62/10 41/63/11 42/64/12
f 11/4/13 10/2/14 15/8/15 13/6/16
f 16/9/17 15/8/18 10/2/19 9/1/20
f 9/1/21 12/5/22 14/7/23 16/9/24
f 6/13/25 5/14/26 14/15/27 13/16/28
f 7/17/29 6/13/30 13/16/31 15/18/32
f 8/19/33 7/17/34 15/18/35 16/20/36
f 5/14/37 8/19/38 16/20/39 14/15/40
f 25/37/41 26/38/42 27/39/43 28/40/44
f 26/38/45 25/37/46 29/41/47 30/42/48
f 30/42/49 29/41/50 31/43/51 32/44/52
f 32/44/53 31/43/54 28/40/55 27/39/56
f 5/14/57 6/13/58 21/29/59 23/30/60
f 18/31/61 19/32/62 7/17/63 8/19/64
f 6/13/65 7/17/66 19/32/67 21/29/68
f 8/19/69 5/14/70 23/30/71 18/31/72
f 3/12/73 4/11/74 20/33/75 17/34/76
f 22/35/77 20/33/78 4/11/79 2/10/80
f 36/53/81 35/54/82 37/55/83 38/56/84
f 17/34/85 24/36/86 1/3/87 3/12/88
f 18/31/89 23/30/90 27/23/91 26/22/92
f 24/36/93 17/34/94 25/21/95 28/24/96
f 17/34/97 20/33/98 29/25/99 25/21/100
f 19/32/101 18/31/102 26/22/103 30/26/104
f 20/33/105 22/35/106 31/27/107 29/25/108
f 21/29/109 19/32/110 30/26/111 32/28/112
f 22/35/113 24/36/114 28/24/115 31/27/116
f 23/30/117 21/29/118 32/28/119 27/23/120
f 1/3/121 2/10/122 33/45/123
f 1/3/124 43/66/125 46/71/126 3/12/127
f 24/36/128 22/35/129 35/50/130 36/49/131
f 22/35/132 2/10/133 37/51/134 35/50/135
f 2/10/136 1/3/137 38/52/138 37/51/139
f 1/3/140 24/36/141 36/49/142 38/52/143
f 12/5/144 11/4/145 40/58/146 39/57/147
f 11/4/148 13/6/149 41/59/150 40/58/151
f 13/6/152 14/7/153 42/60/154 41/59/155
f 14/7/156 12/5/157 39/57/158 42/60/159
f 4/11/160 3/12/161 34/46/162
f 3/12/163 46/71/164 34/46/165
f 1/3/166 33/45/167 43/66/168
f 44/75/169 45/67/170 47/74/171 33/76/172
f 2/10/173 44/68/174 33/45/175
f 4/11/176 34/46/177 45/69/178
f 46/48/179 47/70/180 45/72/181 34/73/182
f 43/47/183 33/78/184 47/65/185 46/77/186
