# This file uses centimeters as units for non-parametric coordinates.

v -25.964790 2.800893 -14.786324
v 25.964790 2.800893 -14.786324
v -25.964790 0.501781 -14.284103
v 25.964790 0.501781 -14.284103
v -25.964790 2.800893 -12.153751
v 25.964790 2.800893 -12.153751
v 25.964790 0.000000 -12.153751
v -25.964790 0.000000 -12.153751
v -23.314478 2.800893 16.768780
v 23.314478 2.800893 16.768780
v 23.314478 2.800893 -5.190542
v -23.314478 2.800893 -5.190542
v -23.314478 5.343303 -12.902181
v 23.314478 5.343303 -12.902181
v 23.314478 34.476627 -21.478437
v -23.314478 34.476627 -21.478437
v -25.964790 0.000000 16.769041
v -23.314749 0.000000 19.419058
v -25.188608 0.000000 18.642893
v -25.964790 2.800893 16.769041
v -25.188608 2.800893 18.642893
v -23.314749 2.800893 19.419058
v 25.964790 0.000000 16.769041
v 25.188608 0.000000 18.642893
v 23.314749 0.000000 19.419058
v 23.314749 2.800893 19.419058
v 25.188608 2.800893 18.642893
v 25.964790 2.800893 16.769041
v 25.964790 34.476654 -21.478445
v 25.188677 36.274395 -22.007664
v 23.314983 37.019043 -22.226866
v 23.314983 36.228287 -24.737865
v 25.188677 35.484348 -24.516384
v 25.964790 33.688332 -23.981699
v -23.314983 37.019043 -22.226866
v -25.188677 36.274395 -22.007664
v -25.964790 34.476654 -21.478445
v -25.188677 35.484348 -24.516384
v -23.314983 36.228287 -24.737865
v -25.964790 33.688332 -23.981699
v -4.058336 21.657351 -20.399975
v -4.058336 17.371866 -19.124207
v 4.058336 21.662066 -20.401407
v 4.058336 17.367113 -19.122774
v 0.000000 24.236202 -21.167747
v 0.000000 14.792975 -18.356417
v 0.000000 19.175606 -19.661160
vt 0.493030 0.388469
vt 0.493756 0.388514
vt 0.493757 0.388632
vt 0.420616 0.360541
vt 0.481208 0.360541
vt 0.481208 0.389076
vt 0.420616 0.389076
vt 0.493021 0.388465
vt 0.000000 -0.000000
vt 1.000000 -0.000000
vt 1.000000 1.000000
vt 0.000000 1.000000
vt 0.493761 0.388510
vt 0.493750 0.388904
vt 0.493003 0.388583
vt 0.492940 0.388845
vt 0.493756 0.388540
vt 0.493021 0.388465
vt 0.493769 0.388920
vt 0.493731 0.388922
vt 0.492959 0.388895
vt 0.492919 0.388829
vt 0.493774 0.388890
vt 0.493727 0.388951
vt 0.493025 0.388494
vt 0.492924 0.388858
vt 0.492954 0.388866
vt 0.493770 0.388954
vt 0.493776 0.388925
vt 0.492915 0.388892
vt 0.492909 0.388862
vt 0.493027 0.387987
vt 0.493761 0.388510
vt 0.493790 0.388025
vt 0.493026 0.388437
vt 0.493044 0.387966
vt 0.493012 0.387991
vt 0.493812 0.388041
vt 0.493774 0.387994
vt 0.493004 0.388001
vt 0.493775 0.388001
vt 0.493054 0.387953
vt 0.493757 0.388488
vt 0.493809 0.388030
vt 0.493003 0.387964
vt 0.493011 0.387954
vt 0.493816 0.388003
vt 0.493813 0.387993
vt 0.301533 0.008382
vt 0.301537 0.007753
vt 0.302108 0.008076
vt 0.302094 0.008753
vt 0.493416 0.387974
vt 0.493776 0.387997
vt 0.493390 0.388463
vt 0.493024 0.388434
vt 0.493056 0.387950
vt 0.493755 0.388491
vt 0.454254 0.009496
vt 0.453675 0.009864
vt 0.453690 0.009177
vt 0.454277 0.008864
vt 0.166110 0.009809
vt 0.166601 0.010150
vt 0.166097 0.010419
vt 0.165601 0.010139
vn -0.016000 0.000000 0.999872
vn -0.016000 0.000000 0.999872
vn 0.016000 0.000000 0.999872
vn 0.016000 0.000000 0.999872
vn -0.016051 0.953699 -0.300336
vn -0.015922 0.953701 -0.300336
vn 0.015922 0.953701 -0.300336
vn 0.016051 0.953699 -0.300336
vn 0.000000 -0.213409 -0.976963
vn 0.000000 -0.213409 -0.976963
vn 0.000000 -0.213409 -0.976963
vn 0.000000 -0.213409 -0.976963
vn 0.000000 -0.973364 -0.229265
vn 0.000000 -0.973364 -0.229265
vn 0.000000 -0.999865 -0.016430
vn -0.000000 -0.999865 -0.016430
vn 1.000000 0.000000 0.000000
vn 1.000000 0.000000 0.000000
vn 1.000000 0.000000 0.000000
vn 1.000000 0.000000 0.000000
vn -1.000000 0.000000 0.000000
vn -1.000000 0.000000 0.000000
vn -1.000000 0.000000 0.000000
vn -1.000000 0.000000 0.000000
vn 1.000000 0.000000 0.000000
vn 1.000000 0.000000 0.000000
vn 0.999683 0.000000 0.025195
vn 0.999683 0.000000 0.025195
vn -0.999683 0.000000 0.025195
vn -0.999683 0.000000 0.025195
vn -1.000000 0.000000 0.000000
vn -1.000000 0.000000 0.000000
vn -0.000000 0.282397 0.959297
vn 0.000000 0.282397 0.959297
vn 0.000000 0.282397 0.959297
vn -0.000000 0.282397 0.959297
vn 1.000000 -0.000000 0.000000
vn 1.000000 -0.000000 0.000000
vn 0.999747 0.021477 -0.006764
vn 0.999725 0.022352 -0.007039
vn -1.000000 -0.000000 0.000000
vn -1.000000 -0.000000 0.000000
vn -0.999725 0.022352 -0.007039
vn -0.999746 0.021477 -0.006764
vn 0.000000 1.000000 0.000000
vn 0.000000 1.000000 0.000000
vn 0.000000 1.000000 0.000000
vn 0.000000 1.000000 0.000000
vn 0.000000 1.000000 0.000000
vn 0.000000 1.000000 0.000000
vn 0.000000 1.000000 0.000000
vn 0.000000 1.000000 0.000000
vn 0.000000 1.000000 0.000000
vn 0.000000 1.000000 0.000000
vn 0.000000 1.000000 0.000000
vn 0.000000 1.000000 0.000000
vn -0.000001 0.282397 0.959298
vn 0.000000 0.282397 0.959298
vn 0.000000 0.282397 0.959297
vn -0.000000 0.282397 0.959297
vn 0.000000 0.282397 0.959298
vn 0.000001 0.282398 0.959297
vn 0.000000 0.282397 0.959297
vn 0.000000 0.282397 0.959297
vn 0.000000 1.000000 0.000000
vn 0.000000 1.000000 0.000000
vn 0.000000 1.000000 0.000000
vn 0.000000 1.000000 0.000000
vn -0.999683 0.000000 0.025195
vn -0.923879 0.000000 0.382686
vn -0.923879 0.000000 0.382686
vn -0.999683 0.000000 0.025195
vn -0.382677 0.000000 0.923882
vn -0.016000 0.000000 0.999872
vn -0.016000 0.000000 0.999872
vn -0.382677 0.000000 0.923882
vn 0.016000 0.000000 0.999872
vn 0.382677 0.000000 0.923882
vn 0.382677 0.000000 0.923882
vn 0.016000 0.000000 0.999872
vn 0.923879 0.000000 0.382686
vn 0.999683 0.000000 0.025195
vn 0.999683 0.000000 0.025195
vn 0.923879 0.000000 0.382686
vn 0.000000 1.000000 0.000000
vn 0.000000 1.000000 0.000000
vn 0.000000 1.000000 0.000000
vn 0.000000 1.000000 0.000000
vn 0.000000 1.000000 0.000000
vn 0.000000 1.000000 0.000000
vn -0.000000 -1.000000 -0.000000
vn -0.000000 -1.000000 -0.000000
vn -0.000000 -1.000000 -0.000000
vn -0.000000 -0.999865 -0.016430
vn 0.000000 1.000000 0.000000
vn 0.000000 1.000000 0.000000
vn 0.000000 1.000000 0.000000
vn 0.000000 1.000000 0.000000
vn 0.000000 1.000000 0.000000
vn 0.000000 1.000000 0.000000
vn 0.000000 0.282397 0.959297
vn 0.000000 0.282396 0.959298
vn -0.000000 0.282396 0.959298
vn -0.000000 0.282397 0.959297
vn -0.000000 0.282397 0.959297
vn -0.000001 0.282398 0.959297
vn -0.000001 0.282397 0.959298
vn -0.000000 0.282397 0.959297
vn 0.015922 0.953701 -0.300336
vn 0.382682 0.881216 -0.277511
vn 0.382682 0.881216 -0.277511
vn 0.016051 0.953699 -0.300336
vn 0.923879 0.365013 -0.114950
vn 0.999725 0.022352 -0.007039
vn 0.999747 0.021477 -0.006764
vn 0.923879 0.365013 -0.114950
vn -0.999725 0.022352 -0.007039
vn -0.923878 0.365014 -0.114950
vn -0.923878 0.365014 -0.114950
vn -0.999746 0.021477 -0.006764
vn -0.382682 0.881216 -0.277511
vn -0.015922 0.953701 -0.300336
vn -0.016051 0.953699 -0.300336
vn -0.382682 0.881216 -0.277511
vn 0.000000 0.282397 0.959297
vn 0.000001 0.282398 0.959297
vn 0.000001 0.282397 0.959298
vn 0.000000 0.282397 0.959297
vn 0.000001 0.282397 0.959298
vn 0.000000 0.282396 0.959298
vn -0.000000 0.282397 0.959297
vn -0.000000 0.282396 0.959298
vn -0.000001 0.282397 0.959298
vn -0.000000 0.282397 0.959297
vn -0.000001 0.282397 0.959298
vn -0.000001 0.282398 0.959297
vn -0.000002 -0.285330 -0.958429
vn -0.000002 -0.285330 -0.958429
vn -0.000002 -0.285330 -0.958429
vn -0.000002 -0.285330 -0.958429
vn 0.000000 -1.000000 -0.000000
vn 0.000000 -0.999865 -0.016430
vn 0.000000 -1.000000 -0.000000
vn 0.000000 -1.000000 -0.000000
vn -0.000000 -1.000000 -0.000000
vn -0.000000 -0.999865 -0.016430
vn 0.000000 -0.999865 -0.016430
vn 0.000000 -1.000000 -0.000000
vn 0.000002 -0.285330 -0.958429
vn 0.000002 -0.285330 -0.958429
vn 0.000002 -0.285330 -0.958429
vn 0.000002 -0.285330 -0.958429
vn 0.000000 1.000000 0.000000
vn 0.000000 1.000000 0.000000
vn 0.000000 1.000000 0.000000
vn 0.000000 1.000000 0.000000
vn 0.000001 -0.285331 -0.958429
vn -0.000001 -0.285331 -0.958429
vn -0.000001 -0.285330 -0.958429
vn -0.000000 -0.285332 -0.958429
vn -0.000001 -0.285331 -0.958429
vn -0.000001 -0.285331 -0.958429
vn -0.000001 -0.285331 -0.958429
vn -0.000000 -0.285330 -0.958429
vn -0.000000 -0.285330 -0.958429
vn -0.000000 -0.285330 -0.958429
vn -0.000000 -0.285330 -0.958429
vn -0.000000 -0.285330 -0.958429
vn -0.000000 -0.285330 -0.958429
vn -0.000000 -0.285330 -0.958429
vn -0.000000 -0.285330 -0.958429
vn -0.000000 -0.285330 -0.958429
vn -0.000001 -0.285332 -0.958429
vn -0.000001 -0.285332 -0.958429
vn 0.000002 -0.285332 -0.958429
vn -0.000000 -0.285330 -0.958429
vn 0.000001 -0.285332 -0.958429
vn 0.000001 -0.285332 -0.958429
vn 0.000001 -0.285332 -0.958429
vn -0.000000 -0.285330 -0.958429
vn -0.000000 -0.285330 -0.958429
vn -0.000000 -0.285330 -0.958429
vn -0.000000 -0.285331 -0.958429
vn -0.000000 -0.285331 -0.958429
vn 0.000000 -0.285331 -0.958429
vn -0.000000 -0.285330 -0.958429
vn -0.000000 -0.285332 -0.958429
vn -0.000000 -0.285332 -0.958429
vn -0.000001 -0.285330 -0.958429
vn -0.000001 -0.285332 -0.958429
vn -0.000001 -0.285332 -0.958429
vn -0.000001 -0.285332 -0.958429
vn -0.000001 -0.285330 -0.958429
vn -0.000001 -0.285331 -0.958429
s off
f 22/20/1 18/24/2 25/21/3 26/27/4
f 39/39/5 35/41/6 31/36/7 32/42/8
f 1/43/9 2/35/10 4/1/11 3/2/12
f 3/2/13 4/1/14 7/25/15 8/17/16
f 6/18/17 7/25/18 4/1/19 2/35/20
f 3/2/21 8/17/22 5/13/23 1/43/24
f 7/25/25 6/18/26 28/22/27 23/26/28
f 17/19/29 20/23/30 5/13/31 8/17/32
f 13/9/33 14/10/34 15/11/35 16/12/36
f 6/18/37 2/35/38 34/37/39 29/40/40
f 1/43/41 5/13/42 37/38/43 40/44/44
f 6/18/45 11/15/46 10/16/47 28/22/48
f 12/3/49 5/13/50 20/23/51 9/14/52
f 9/4/53 10/5/54 11/6/55 12/7/56
f 5/13/57 6/18/58 14/8/59 13/33/60
f 6/18/61 29/40/62 15/32/63 14/8/64
f 9/14/65 22/20/66 26/27/67 10/16/68
f 17/19/69 19/28/70 21/29/71 20/23/72
f 19/28/73 18/24/74 22/20/75 21/29/76
f 25/21/77 24/30/78 27/31/79 26/27/80
f 24/30/81 23/26/82 28/22/83 27/31/84
f 9/14/85 20/23/86 21/29/87
f 9/14/88 21/29/89 22/20/90
f 18/24/91 19/28/92 17/19/93 8/17/94
f 10/16/95 26/27/96 27/31/97
f 10/16/98 27/31/99 28/22/100
f 15/32/101 31/36/102 35/41/103 16/34/104
f 16/34/105 37/38/106 5/13/107 13/33/108
f 31/36/109 30/45/110 33/46/111 32/42/112
f 30/45/113 29/40/114 34/37/115 33/46/116
f 37/38/117 36/47/118 38/48/119 40/44/120
f 36/47/121 35/41/122 39/39/123 38/48/124
f 15/32/125 29/40/126 30/45/127
f 15/32/128 30/45/129 31/36/130
f 16/34/131 35/41/132 36/47/133
f 16/34/134 36/47/135 37/38/136
f 38/48/137 39/39/138 1/43/139 40/44/140
f 25/21/141 7/25/142 23/26/143 24/30/144
f 18/24/145 8/17/146 7/25/147 25/21/148
f 2/35/149 32/42/150 33/46/151 34/37/152
f 11/15/153 6/18/154 5/13/155 12/3/156
f 42/49/157 41/50/158 47/51/159 46/52/160
f 39/39/161 45/53/162 41/54/163
f 2/35/164 46/55/165 44/56/166
f 45/53/167 32/42/168 43/57/169
f 39/39/170 32/42/171 45/53/172
f 2/35/173 44/56/174 43/57/175 32/42/176
f 46/55/177 1/43/178 42/58/179
f 2/35/180 1/43/181 46/55/182
f 39/39/183 41/54/184 42/58/185 1/43/186
f 44/59/187 46/60/188 47/61/189 43/62/190
f 45/63/191 43/64/192 47/65/193 41/66/194
