# This file uses centimeters as units for non-parametric coordinates.

v -39.037109 -95.930199 3.990112
v 37.156372 -94.513008 7.007202
v 39.037109 9.233521 3.990112
v -37.934692 7.883408 7.433441
v -21.144043 -95.930199 3.990112
v 39.037109 -76.158447 3.990112
v -20.446655 9.233521 3.990112
v -39.037109 -0.039742 3.990112
v -40.987549 -97.880684 0.000000
v -41.444946 0.383095 -0.318970
v -20.614868 11.716782 -0.278137
v 40.987671 11.184052 0.000000
v 41.444214 -78.160095 -0.324310
v -16.098633 -98.546242 -0.153839
v -21.153442 -98.012558 4.342041
v -40.726318 -97.619370 3.990112
v 38.859497 -98.524818 3.793304
v 41.473511 -76.312836 4.062805
v 38.826782 -96.301384 7.431885
v -20.442505 12.002754 4.257813
v 40.726318 10.922714 3.990112
v -41.596802 11.219131 4.845551
v -41.467529 -0.154839 4.305054
v -39.571655 9.425797 8.016113
vt 0.080930 0.279057
vt 0.080939 0.278547
vt 0.080845 0.278484
vt 0.080557 0.278486
vt 0.080566 0.278969
vt 0.080823 0.279064
vt 0.080848 0.279074
vt 0.080933 0.279063
vt 0.213078 0.109649
vt 0.304450 0.109649
vt 0.304450 0.216647
vt 0.213078 0.216647
vt 0.080580 0.279079
vt 0.080561 0.278965
vt 0.234019 0.109649
vt 0.080579 0.279074
vt 0.304450 0.129765
vt 0.080848 0.278478
vt 0.080557 0.278486
vt 0.080946 0.278486
vt 0.080948 0.278550
vt 0.234835 0.216647
vt 0.080940 0.278496
vt 0.213078 0.207212
vt 0.080848 0.279057
vt 0.080926 0.279054
vt 0.080577 0.278964
vt 0.080587 0.279063
vt 0.080847 0.278497
vt 0.080566 0.278496
vt 0.080933 0.278549
vt 0.080932 0.278505
vn 0.002868 0.000605 0.999996
vn -0.000910 0.002996 0.999995
vn -0.002788 0.007672 0.999967
vn -0.000551 -0.001524 0.999999
vn 0.001036 -0.001684 0.999998
vn 0.002678 -0.002966 0.999992
vn -0.000039 0.000106 -1.000000
vn -0.001935 0.003617 -0.999992
vn -0.000733 0.001391 -0.999999
vn -0.000039 0.000106 -1.000000
vn -0.000039 0.000106 -1.000000
vn -0.000039 0.000106 -1.000000
vn -0.024085 -0.996524 0.079752
vn -0.024085 -0.996524 0.079752
vn -0.024085 -0.996524 0.079752
vn -0.024085 -0.996524 0.079752
vn 0.991275 -0.117385 0.059961
vn 0.991275 -0.117385 0.059961
vn 0.991275 -0.117385 0.059961
vn 0.991275 -0.117385 0.059961
vn 0.013135 0.999910 -0.002752
vn 0.003357 0.999080 0.042751
vn 0.001938 0.998780 0.049344
vn 0.013135 0.999910 -0.002752
vn -0.969904 -0.022545 0.242442
vn -0.998910 -0.007546 0.046056
vn -0.998696 -0.007883 0.050435
vn -0.969904 -0.022545 0.242442
vn -0.002788 0.007672 0.999967
vn -0.000910 0.002996 0.999995
vn -0.053908 0.168821 0.984171
vn 0.070176 -0.206244 -0.975981
vn 0.070176 -0.206244 -0.975981
vn 0.070176 -0.206244 -0.975981
vn -0.005184 -0.948045 0.318093
vn -0.005184 -0.948045 0.318093
vn -0.005184 -0.948045 0.318093
vn -0.005184 -0.948045 0.318093
vn 0.999628 0.006777 0.026408
vn 0.999628 0.006777 0.026408
vn 0.999628 0.006777 0.026408
vn 0.999628 0.006777 0.026408
vn 0.002678 -0.002966 0.999992
vn 0.001036 -0.001684 0.999998
vn 0.184401 -0.306021 0.933996
vn -0.000733 0.001391 -0.999999
vn -0.001935 0.003617 -0.999992
vn -0.224968 0.416640 -0.880796
vn 0.001938 0.998780 0.049344
vn 0.003357 0.999080 0.042751
vn -0.030710 0.979254 0.200295
vn -0.030710 0.979254 0.200295
vn -0.998696 -0.007883 0.050435
vn -0.998910 -0.007546 0.046056
vn -0.999603 -0.006121 0.027497
vn -0.999603 -0.006121 0.027497
vn -0.000910 0.002996 0.999995
vn 0.002868 0.000605 0.999996
vn 0.063822 0.013704 0.997867
vn -0.044427 0.155713 0.986803
vn -0.002788 0.007672 0.999967
vn -0.053908 0.168821 0.984171
vn -0.051098 0.172235 0.983730
vn -0.021974 0.032794 0.999221
vn 0.001036 -0.001684 0.999998
vn -0.000551 -0.001524 0.999999
vn -0.009324 -0.026101 0.999616
vn 0.047591 -0.073115 0.996187
vn 0.002678 -0.002966 0.999992
vn 0.184401 -0.306021 0.933996
vn 0.157406 -0.212576 0.964383
vn 0.076452 -0.032981 0.996528
vn -0.053908 0.168821 0.984171
vn -0.000910 0.002996 0.999995
vn -0.044427 0.155713 0.986803
vn -0.051098 0.172235 0.983730
vn -0.000551 -0.001524 0.999999
vn -0.002788 0.007672 0.999967
vn -0.021974 0.032794 0.999221
vn -0.009324 -0.026101 0.999616
vn 0.184401 -0.306021 0.933996
vn 0.001036 -0.001684 0.999998
vn 0.047591 -0.073115 0.996187
vn 0.157406 -0.212576 0.964383
vn 0.002868 0.000605 0.999996
vn 0.002678 -0.002966 0.999992
vn 0.076452 -0.032981 0.996528
vn 0.063822 0.013704 0.997867
s off
f 1/9/1 5/15/2 6/17/3 3/11/4 7/22/5 8/24/6
f 9/1/7 10/2/8 11/3/9 12/4/10 13/5/11 14/6/12
f 9/1/13 14/6/14 15/7/15 16/8/16
f 17/13/17 13/5/18 18/14/19 19/16/20
f 12/4/21 11/3/22 20/18/23 21/19/24
f 22/20/25 10/2/26 23/21/27 24/23/28
f 6/17/29 5/15/30 2/10/31
f 14/6/32 13/5/33 17/13/34
f 15/7/35 14/6/36 17/13/37 19/16/38
f 18/14/39 13/5/40 12/4/41 21/19/42
f 8/24/43 7/22/44 4/12/45
f 11/3/46 10/2/47 22/20/48
f 20/18/49 11/3/50 22/20/51 24/23/52
f 23/21/53 10/2/54 9/1/55 16/8/56
f 5/25/57 1/26/58 16/8/59 15/7/60
f 6/27/61 2/28/62 19/16/63 18/14/64
f 7/29/65 3/30/66 21/19/67 20/18/68
f 8/31/69 4/32/70 24/23/71 23/21/72
f 2/28/73 5/25/74 15/7/75 19/16/76
f 3/30/77 6/27/78 18/14/79 21/19/80
f 4/32/81 7/29/82 20/18/83 24/23/84
f 1/26/85 8/31/86 23/21/87 16/8/88
