# This file uses centimeters as units for non-parametric coordinates.

v 0.000000 28.096958 37.646679
v 0.000000 -28.096817 37.646675
v 0.000000 -28.096817 -37.646675
v 0.000000 28.096962 -37.646675
v -100.000000 -28.096817 37.646675
v -100.000000 -28.096817 -37.646675
v -100.000000 28.096962 -37.646675
v -100.000000 28.096958 37.646679
v -50.000000 -34.236366 0.000004
v -50.000000 34.236351 0.000004
v -50.000000 -0.000011 44.878296
v -50.000000 -0.000008 -44.878296
v 5.000000 31.207066 -41.044079
v -5.000000 31.207066 -41.044079
v 5.000000 31.207066 41.044079
v -5.000000 31.207066 41.044079
v 5.000000 -31.207066 41.044079
v -5.000000 -31.207066 41.044079
v 5.000000 -31.207066 -41.044079
v -5.000000 -31.207066 -41.044079
v 3.572540 37.304699 -54.678043
v -3.572540 37.304699 -54.678043
v 3.572540 37.304695 54.678047
v -3.572540 37.304695 54.678047
v 3.572540 30.648079 61.141212
v -3.572540 30.648079 61.141212
v 3.572540 30.648079 -61.141212
v -3.572540 30.648079 -61.141212
v 3.572540 58.801960 54.678043
v -3.572540 58.801960 54.678043
v -3.572540 58.801960 61.141216
v 3.572540 58.801960 61.141216
v 3.572540 58.801960 -54.678043
v -3.572540 58.801960 -54.678043
v 3.572540 58.801964 -61.141212
v -3.572540 58.801964 -61.141212
v 7.978668 58.801960 50.692417
v -7.978668 58.801960 50.692417
v -7.978668 58.801960 65.126831
v 7.978668 58.801960 65.126831
v 7.978668 58.801960 -50.692417
v -7.978668 58.801960 -50.692417
v 7.978668 58.801956 -65.126831
v -7.978668 58.801956 -65.126831
v 7.978668 67.164200 50.692421
v -7.978668 67.164200 50.692421
v -7.978668 67.164200 65.126831
v 7.978668 67.164200 65.126831
v 7.978668 67.164200 -50.692417
v -7.978668 67.164200 -50.692417
v 7.978668 67.164200 -65.126831
v -7.978668 67.164200 -65.126831
vt 0.090981 0.282274
vt 0.090981 0.282274
vt 0.090981 0.282274
vt 0.090981 0.282274
vt 0.090981 0.282274
vt 0.090981 0.282274
vt 0.090981 0.282274
vt 0.090981 0.282274
vt 0.090981 0.282274
vt 0.090981 0.282274
vt 0.090981 0.282274
vt 0.090981 0.282274
vt 0.090981 0.282274
vt 0.090981 0.282274
vt 0.090981 0.282274
vt 0.090981 0.282274
vt 0.090981 0.282274
vt 0.090981 0.282274
vt 0.090981 0.282274
vt 0.090981 0.282274
vt 0.090981 0.282274
vt 0.090981 0.282274
vt 0.090998 0.227318
vt 0.090998 0.227318
vt 0.090998 0.227318
vt 0.090998 0.227318
vt 0.090998 0.227318
vt 0.090998 0.227318
vt 0.090998 0.227318
vt 0.090998 0.227318
vt 0.090998 0.227318
vt 0.090998 0.227318
vt 0.090998 0.227318
vt 0.090998 0.227318
vt 0.090998 0.227318
vt 0.090998 0.227318
vt 0.090998 0.227318
vt 0.090998 0.227318
vt 0.090998 0.227318
vt 0.090998 0.227318
vt 0.090998 0.227318
vt 0.090998 0.227318
vt 0.090998 0.227318
vt 0.090998 0.227318
vt 0.090998 0.227318
vt 0.090998 0.227318
vt 0.090998 0.227318
vt 0.090998 0.227318
vt 0.090998 0.227318
vt 0.090998 0.227318
vt 0.090998 0.227318
vt 0.090998 0.227318
vt 0.090998 0.227318
vt 0.090998 0.227318
vt 0.090998 0.227318
vt 0.090998 0.227318
vt 0.090998 0.227318
vt 0.090998 0.227318
vt 0.090998 0.227318
vt 0.090998 0.227318
vt 0.090981 0.282274
vt 0.090981 0.282274
vt 0.090981 0.282274
vt 0.090981 0.282274
vt 0.090981 0.282274
vt 0.090981 0.282274
vt 0.090981 0.282274
vt 0.090981 0.282274
vt 0.090981 0.282274
vt 0.090981 0.282274
vt 0.090981 0.282274
vt 0.090981 0.282274
vt 0.090981 0.282274
vt 0.090981 0.282274
vt 0.090981 0.282274
vt 0.090981 0.282274
vt 0.090981 0.282274
vt 0.090981 0.282274
vt 0.090981 0.282274
vt 0.090981 0.282274
vt 0.090981 0.282274
vt 0.090981 0.282274
vt 0.090981 0.282274
vt 0.090981 0.282274
vt 0.090981 0.282274
vt 0.090981 0.282274
vt 0.090981 0.282274
vt 0.090981 0.282274
vt 0.090981 0.282274
vt 0.090981 0.282274
vn 1.000000 0.000000 0.000000
vn 1.000000 0.000000 0.000000
vn 1.000000 0.000000 0.000000
vn 1.000000 0.000000 0.000000
vn 0.000000 -0.986961 0.160957
vn 0.000000 -0.986961 0.160957
vn 0.000000 -0.986961 0.160957
vn -0.121876 -0.992545 0.000000
vn -0.121876 -0.992545 0.000000
vn -0.121876 -0.992545 0.000000
vn 0.000000 -0.986961 -0.160957
vn 0.000000 -0.986961 -0.160957
vn 0.000000 -0.986961 -0.160957
vn 0.121876 -0.992545 0.000000
vn 0.121876 -0.992545 0.000000
vn 0.121876 -0.992545 0.000000
vn 0.000000 0.986962 -0.160953
vn 0.000000 0.986962 -0.160953
vn 0.000000 0.986962 -0.160953
vn -0.121873 0.992546 0.000000
vn -0.121873 0.992546 0.000000
vn -0.121873 0.992546 0.000000
vn 0.000000 0.986962 0.160953
vn 0.000000 0.986962 0.160953
vn 0.000000 0.986962 0.160953
vn 0.121873 0.992546 0.000000
vn 0.121873 0.992546 0.000000
vn 0.121873 0.992546 0.000000
vn 0.000000 0.249257 0.968437
vn 0.000000 0.249257 0.968437
vn 0.000000 0.249257 0.968437
vn -0.143143 -0.000000 0.989702
vn -0.143143 -0.000000 0.989702
vn -0.143143 -0.000000 0.989702
vn 0.000000 -0.249259 0.968437
vn 0.000000 -0.249259 0.968437
vn 0.000000 -0.249259 0.968437
vn 0.143143 -0.000000 0.989702
vn 0.143143 -0.000000 0.989702
vn 0.143143 -0.000000 0.989702
vn 0.000000 -0.249259 -0.968437
vn 0.000000 -0.249259 -0.968437
vn 0.000000 -0.249259 -0.968437
vn -0.143143 0.000000 -0.989702
vn -0.143143 0.000000 -0.989702
vn -0.143143 0.000000 -0.989702
vn 0.000000 0.249257 -0.968437
vn 0.000000 0.249257 -0.968437
vn 0.000000 0.249257 -0.968437
vn 0.143143 0.000000 -0.989702
vn 0.143143 0.000000 -0.989702
vn 0.143143 0.000000 -0.989702
vn 0.000000 1.000000 0.000000
vn 0.000000 1.000000 0.000000
vn 0.000000 1.000000 0.000000
vn 0.000000 1.000000 0.000000
vn 0.000000 0.000000 1.000000
vn 0.000000 0.000000 1.000000
vn 0.000000 0.000000 1.000000
vn 0.000000 0.000000 1.000000
vn 0.000000 -1.000000 0.000000
vn 0.000000 -1.000000 0.000000
vn 0.000000 -1.000000 0.000000
vn 0.000000 -1.000000 0.000000
vn 0.000000 0.000000 -1.000000
vn 0.000000 0.000000 -1.000000
vn 0.000000 0.000000 -1.000000
vn 0.000000 0.000000 -1.000000
vn -1.000000 0.000000 0.000000
vn -1.000000 0.000000 0.000000
vn -1.000000 0.000000 0.000000
vn -1.000000 0.000000 0.000000
vn 1.000000 0.000000 0.000000
vn 1.000000 0.000000 0.000000
vn 1.000000 0.000000 0.000000
vn 1.000000 0.000000 0.000000
vn 0.000000 1.000000 0.000000
vn 0.000000 1.000000 0.000000
vn 0.000000 1.000000 0.000000
vn 0.000000 1.000000 0.000000
vn 0.000000 -1.000000 0.000000
vn 0.000000 -1.000000 0.000000
vn 0.000000 -1.000000 0.000000
vn 0.000000 -1.000000 0.000000
vn -1.000000 0.000000 0.000000
vn -1.000000 0.000000 0.000000
vn -1.000000 0.000000 0.000000
vn -1.000000 0.000000 0.000000
vn 1.000000 0.000000 0.000000
vn 1.000000 0.000000 0.000000
vn 1.000000 0.000000 0.000000
vn 1.000000 0.000000 0.000000
vn 0.000000 1.000000 0.000000
vn 0.000000 1.000000 0.000000
vn 0.000000 1.000000 0.000000
vn 0.000000 1.000000 0.000000
vn 0.000000 1.000000 0.000000
vn 0.000000 1.000000 0.000000
vn 0.000000 1.000000 0.000000
vn 0.000000 1.000000 0.000000
vn 0.000000 -0.000000 -1.000000
vn 0.000000 -0.000000 -1.000000
vn 0.000000 -0.000000 -1.000000
vn 0.000000 -0.000000 -1.000000
vn -1.000000 0.000000 0.000000
vn -1.000000 0.000000 0.000000
vn -1.000000 0.000000 0.000000
vn -1.000000 0.000000 0.000000
vn 0.000000 -0.000000 1.000000
vn 0.000000 -0.000000 1.000000
vn 0.000000 -0.000000 1.000000
vn 0.000000 -0.000000 1.000000
vn 1.000000 0.000000 0.000000
vn 1.000000 0.000000 0.000000
vn 1.000000 0.000000 0.000000
vn 1.000000 0.000000 0.000000
vn 0.000000 0.000000 1.000000
vn 0.000000 0.000000 1.000000
vn 0.000000 0.000000 1.000000
vn 0.000000 0.000000 1.000000
vn 1.000000 0.000000 0.000000
vn 1.000000 0.000000 0.000000
vn 1.000000 0.000000 0.000000
vn 1.000000 0.000000 0.000000
vn 0.000000 0.000000 -1.000000
vn 0.000000 0.000000 -1.000000
vn 0.000000 0.000000 -1.000000
vn 0.000000 0.000000 -1.000000
vn -1.000000 0.000000 0.000000
vn -1.000000 0.000000 0.000000
vn -1.000000 0.000000 0.000000
vn -1.000000 0.000000 0.000000
vn 0.000000 -1.000000 0.000001
vn 0.000000 -1.000000 0.000001
vn 0.000000 -1.000000 0.000001
vn 0.000000 -1.000000 0.000001
vn 0.000000 -1.000000 0.000000
vn 0.000000 -1.000000 0.000000
vn 0.000000 -1.000000 0.000000
vn 0.000000 -1.000000 0.000000
vn 0.000000 -1.000000 -0.000001
vn 0.000000 -1.000000 -0.000001
vn 0.000000 -1.000000 -0.000001
vn 0.000000 -1.000000 -0.000001
vn 0.000000 -1.000000 0.000000
vn 0.000000 -1.000000 0.000000
vn 0.000000 -1.000000 0.000000
vn 0.000000 -1.000000 0.000000
vn 0.000000 -1.000000 -0.000001
vn 0.000000 -1.000000 -0.000001
vn 0.000000 -1.000000 -0.000001
vn 0.000000 -1.000000 -0.000001
vn 0.000000 -1.000000 -0.000001
vn 0.000000 -1.000000 -0.000001
vn 0.000000 -1.000000 -0.000001
vn 0.000000 -1.000000 -0.000001
vn 0.000000 -1.000000 0.000001
vn 0.000000 -1.000000 0.000001
vn 0.000000 -1.000000 0.000001
vn 0.000000 -1.000000 0.000001
vn -0.000000 -1.000000 -0.000001
vn -0.000000 -1.000000 -0.000001
vn -0.000000 -1.000000 -0.000001
vn -0.000000 -1.000000 -0.000001
vn 0.000000 0.000000 -1.000000
vn 0.000000 0.000000 -1.000000
vn 0.000000 0.000000 -1.000000
vn 0.000000 0.000000 -1.000000
vn -1.000000 0.000000 0.000000
vn -1.000000 0.000000 0.000000
vn -1.000000 0.000000 0.000000
vn -1.000000 0.000000 0.000000
vn 0.000000 0.000000 1.000000
vn 0.000000 0.000000 1.000000
vn 0.000000 0.000000 1.000000
vn 0.000000 0.000000 1.000000
vn 1.000000 0.000000 0.000000
vn 1.000000 0.000000 0.000000
vn 1.000000 0.000000 0.000000
vn 1.000000 0.000000 0.000000
vn 0.000000 0.000000 1.000000
vn 0.000000 0.000000 1.000000
vn 0.000000 0.000000 1.000000
vn 0.000000 0.000000 1.000000
vn 1.000000 0.000000 0.000000
vn 1.000000 0.000000 0.000000
vn 1.000000 0.000000 0.000000
vn 1.000000 0.000000 0.000000
vn 0.000000 0.000000 -1.000000
vn 0.000000 0.000000 -1.000000
vn 0.000000 0.000000 -1.000000
vn 0.000000 0.000000 -1.000000
vn -1.000000 0.000000 0.000000
vn -1.000000 0.000000 0.000000
vn -1.000000 0.000000 0.000000
vn -1.000000 0.000000 0.000000
vn -1.000000 0.000000 0.000000
vn -1.000000 0.000000 0.000000
vn -1.000000 0.000000 0.000000
vn -1.000000 0.000000 0.000000
s off
f 4/1/1 1/61/2 2/62/3 3/2/4
f 2/63/5 5/64/6 9/5/7
f 5/65/8 6/66/9 9/5/10
f 6/67/11 3/68/12 9/5/13
f 3/69/14 2/70/15 9/5/16
f 4/71/17 7/72/18 10/6/19
f 7/73/20 8/4/21 10/6/22
f 8/4/23 1/74/24 10/6/25
f 1/75/26 4/76/27 10/6/28
f 1/77/29 8/3/30 11/7/31
f 8/3/32 5/78/33 11/7/34
f 5/79/35 2/80/36 11/7/37
f 2/81/38 1/82/39 11/7/40
f 3/83/41 6/84/42 12/8/43
f 6/85/44 7/86/45 12/8/46
f 7/87/47 4/88/48 12/8/49
f 4/89/50 3/90/51 12/8/52
f 13/9/53 14/10/54 16/11/55 15/12/56
f 15/12/57 16/11/58 18/13/59 17/14/60
f 17/14/61 18/13/62 20/15/63 19/16/64
f 19/16/65 20/15/66 14/17/67 13/18/68
f 14/10/69 20/19/70 18/20/71 16/11/72
f 19/21/73 13/9/74 15/12/75 17/22/76
f 21/23/77 22/24/78 24/25/79 23/26/80
f 25/27/81 26/28/82 28/29/83 27/30/84
f 22/24/85 28/31/86 26/32/87 24/25/88
f 27/33/89 21/23/90 23/26/91 25/34/92
f 45/35/93 46/36/94 47/37/95 48/38/96
f 50/39/97 49/40/98 51/41/99 52/42/100
f 23/26/101 24/25/102 30/43/103 29/44/104
f 24/25/105 26/28/106 31/45/107 30/43/108
f 26/28/109 25/27/110 32/46/111 31/45/112
f 25/27/113 23/26/114 29/44/115 32/46/116
f 22/47/117 21/48/118 33/49/119 34/50/120
f 21/48/121 27/30/122 35/51/123 33/49/124
f 27/30/125 28/29/126 36/52/127 35/51/128
f 28/29/129 22/47/130 34/50/131 36/52/132
f 29/44/133 30/43/134 38/53/135 37/54/136
f 30/43/137 31/45/138 39/55/139 38/53/140
f 31/45/141 32/46/142 40/56/143 39/55/144
f 32/46/145 29/44/146 37/54/147 40/56/148
f 34/50/149 33/49/150 41/57/151 42/58/152
f 33/49/153 35/51/154 43/59/155 41/57/156
f 35/51/157 36/52/158 44/60/159 43/59/160
f 36/52/161 34/50/162 42/58/163 44/60/164
f 37/54/165 38/53/166 46/36/167 45/35/168
f 38/53/169 39/55/170 47/37/171 46/36/172
f 39/55/173 40/56/174 48/38/175 47/37/176
f 40/56/177 37/54/178 45/35/179 48/38/180
f 42/58/181 41/57/182 49/40/183 50/39/184
f 41/57/185 43/59/186 51/41/187 49/40/188
f 43/59/189 44/60/190 52/42/191 51/41/192
f 44/60/193 42/58/194 50/39/195 52/42/196
f 6/66/197 5/78/198 8/4/199 7/86/200
