# This file uses centimeters as units for non-parametric coordinates.

v -30.688721 -32.210892 2.343704
v 30.564331 -32.017231 5.016998
v -30.688721 9.997532 2.343704
v 29.820068 9.442791 4.238159
v 20.817505 9.193760 2.343704
v 30.688721 2.984707 2.343704
v 9.224609 -32.210892 2.343704
v 30.688721 -22.792273 2.343704
v -31.886963 11.214729 2.339325
v 20.660522 10.793781 2.655884
v 20.048096 10.936119 -0.240494
v -32.082275 11.413177 0.000000
v 32.425049 2.627979 -0.234879
v 32.401245 -23.517731 -0.255188
v 10.417969 -33.997963 -0.202026
v -32.094360 -33.616577 0.001694
v 9.200317 -33.990562 2.470352
v -31.906128 -33.428249 2.343704
v 32.343384 -34.076275 3.161087
v 31.753052 -33.189976 5.222824
v 32.778076 -22.757687 2.422867
v 30.852539 10.671070 4.651031
v 31.366577 12.167435 2.687225
v 32.773682 3.071640 2.440002
vt 0.305739 0.164709
vt 0.371711 0.164709
vt 0.371711 0.207329
vt 0.305739 0.207329
vt 0.080948 0.276982
vt 0.080533 0.276979
vt 0.080539 0.276985
vt 0.080947 0.276980
vt 0.361100 0.207329
vt 0.080443 0.277061
vt 0.371711 0.200248
vt 0.080444 0.277298
vt 0.348640 0.164709
vt 0.080614 0.277394
vt 0.371711 0.174219
vt 0.080947 0.277394
vt 0.080623 0.277403
vt 0.080947 0.277395
vt 0.080445 0.277392
vt 0.080441 0.277397
vt 0.080436 0.277293
vt 0.080452 0.276987
vt 0.080449 0.276974
vt 0.080436 0.277057
vt 0.080939 0.276993
vt 0.080532 0.277001
vt 0.080623 0.277381
vt 0.080938 0.277383
vt 0.080455 0.277294
vt 0.080454 0.277381
vt 0.080460 0.276998
vt 0.080455 0.277058
vn -0.000099 0.001504 0.999999
vn -0.001747 0.002852 0.999994
vn -0.003546 0.008037 0.999961
vn -0.001828 -0.002704 0.999995
vn -0.001313 -0.003385 0.999993
vn -0.000239 -0.004705 0.999989
vn 0.008515 0.997937 0.063641
vn -0.021131 0.992238 0.122547
vn -0.006169 0.995660 0.092862
vn 0.008515 0.997937 0.063641
vn -0.003960 0.000029 -0.999992
vn -0.002666 0.001919 -0.999995
vn -0.002080 0.002775 -0.999994
vn -0.000302 -0.007569 -0.999971
vn -0.002807 -0.002367 -0.999993
vn -0.003960 0.000029 -0.999992
vn -0.011244 -0.999263 0.036697
vn -0.010263 -0.994451 0.104696
vn -0.010715 -0.997215 0.073803
vn -0.011244 -0.999263 0.036697
vn 0.997776 -0.034605 0.056964
vn 0.997776 -0.034605 0.056964
vn 0.997201 -0.011203 -0.073928
vn 0.996139 -0.008779 -0.087346
vn -0.996660 0.000353 0.081658
vn -0.996660 0.000353 0.081658
vn -0.996660 0.000353 0.081658
vn -0.996660 0.000353 0.081658
vn -0.001313 -0.003385 0.999993
vn -0.001828 -0.002704 0.999995
vn -0.150967 -0.264389 0.952527
vn -0.006169 0.995660 0.092862
vn -0.021131 0.992238 0.122547
vn -0.121519 0.939818 0.319337
vn -0.121519 0.939818 0.319337
vn -0.002080 0.002775 -0.999994
vn -0.002666 0.001919 -0.999995
vn 0.206806 0.307460 -0.928816
vn 0.996255 0.045348 -0.073616
vn 0.994597 0.024991 -0.100762
vn 0.986148 0.150670 0.069357
vn 0.986148 0.150670 0.069357
vn -0.003546 0.008037 0.999961
vn -0.001747 0.002852 0.999994
vn -0.104275 0.217469 0.970481
vn -0.002807 -0.002367 -0.999993
vn -0.000302 -0.007569 -0.999971
vn 0.143307 -0.305376 -0.941386
vn -0.010715 -0.997215 0.073803
vn -0.010263 -0.994451 0.104696
vn -0.009078 -0.983230 0.182145
vn -0.009078 -0.983230 0.182145
vn 0.996139 -0.008779 -0.087346
vn 0.997201 -0.011203 -0.073928
vn 0.994597 0.024991 -0.100762
vn 0.996255 0.045348 -0.073616
vn -0.000239 -0.004705 0.999989
vn -0.001313 -0.003385 0.999993
vn -0.032255 -0.122182 0.991984
vn -0.003289 -0.064840 0.997890
vn -0.001747 0.002852 0.999994
vn -0.000099 0.001504 0.999999
vn -0.001516 0.023188 0.999730
vn -0.043693 0.049719 0.997807
vn -0.003546 0.008037 0.999961
vn -0.104275 0.217469 0.970481
vn -0.076350 0.137659 0.987533
vn -0.030588 0.060836 0.997679
vn -0.000099 0.001504 0.999999
vn -0.000239 -0.004705 0.999989
vn -0.003289 -0.064840 0.997890
vn -0.001516 0.023188 0.999730
vn -0.001313 -0.003385 0.999993
vn -0.150967 -0.264389 0.952527
vn -0.117980 -0.236034 0.964556
vn -0.032255 -0.122182 0.991984
vn -0.150967 -0.264389 0.952527
vn -0.001828 -0.002704 0.999995
vn -0.041104 -0.050023 0.997902
vn -0.117980 -0.236034 0.964556
vn -0.104275 0.217469 0.970481
vn -0.001747 0.002852 0.999994
vn -0.043693 0.049719 0.997807
vn -0.076350 0.137659 0.987533
vn -0.001828 -0.002704 0.999995
vn -0.003546 0.008037 0.999961
vn -0.030588 0.060836 0.997679
vn -0.041104 -0.050023 0.997902
s off
f 1/1/1 7/13/2 8/15/3 6/11/4 5/9/5 3/4/6
f 9/5/7 10/6/8 11/7/9 12/8/10
f 12/8/11 11/7/12 13/10/13 14/12/14 15/14/15 16/16/16
f 16/16/17 15/14/18 17/17/19 18/18/20
f 20/19/21 19/20/22 14/12/23 21/21/24
f 16/16/25 18/18/26 9/5/27 12/8/28
f 5/9/29 6/11/30 4/3/31
f 11/7/32 10/6/33 22/22/34 23/23/35
f 13/10/36 11/7/37 23/23/38
f 24/24/39 13/10/40 23/23/41 22/22/42
f 8/15/43 7/13/44 2/2/45
f 15/14/46 14/12/47 19/20/48
f 17/17/49 15/14/50 19/20/51 20/19/52
f 21/21/53 14/12/54 13/10/55 24/24/56
f 3/25/57 5/26/58 10/6/59 9/5/60
f 7/27/61 1/28/62 18/18/63 17/17/64
f 8/29/65 2/30/66 20/19/67 21/21/68
f 1/28/69 3/25/70 9/5/71 18/18/72
f 5/26/73 4/31/74 22/22/75 10/6/76
f 4/31/77 6/32/78 24/24/79 22/22/80
f 2/30/81 7/27/82 17/17/83 20/19/84
f 6/32/85 8/29/86 21/21/87 24/24/88
