# This file uses centimeters as units for non-parametric coordinates.

v 6.004633 0.000000 -6.004633
v 0.000000 0.000000 -8.491835
v -6.004633 0.000000 -6.004633
v -8.491835 0.000000 0.000000
v -6.004634 0.000000 6.004633
v -0.000001 0.000000 8.491835
v 6.004634 0.000000 6.004634
v 8.491835 0.000000 0.000000
v 0.000000 25.600519 0.000000
v -0.000001 3.591879 7.300389
v 4.623059 5.890287 4.623059
v 5.976430 7.583244 0.000000
v 3.917601 8.897983 -3.917601
v 1.433174 19.490238 -1.433174
v 0.000000 10.291058 -5.078234
v 0.000000 20.411491 -1.721230
v -3.277249 11.628099 -3.277249
v -1.005252 21.314667 -1.005252
v -4.175360 13.012972 0.000000
v -1.119761 22.224752 0.000000
v -2.615389 14.449913 2.615388
v -0.565411 23.189911 0.565411
v -0.000000 15.914593 3.212876
v 2.013545 17.015848 2.013545
v 2.537161 17.951685 0.000000
v 0.000000 23.804537 0.595738
v 0.291858 24.356197 0.291857
v 0.264246 24.803892 0.000000
v -4.466646 6.557150 -4.466646
v -5.878202 7.879374 0.000000
v -3.845182 9.206741 3.845181
v -0.000001 10.720672 4.935729
v 3.081040 12.464626 3.081040
v 3.944090 13.710184 0.000000
v 2.488467 14.991038 -2.488467
v 0.000000 16.271444 -3.094506
v -1.934676 17.352104 -1.934676
v -2.326173 18.587755 0.000000
v -1.372548 19.748713 1.372548
v -0.000000 20.576935 1.666352
v 0.996162 21.353422 0.996162
v 1.194045 22.000805 0.000000
v 0.586280 23.100937 -0.586280
v 0.000000 5.168253 -6.777496
v 5.091043 3.895056 -5.091043
v 7.617749 2.635124 0.000000
v -5.645095 1.532880 5.645094
v 7.152981 0.000000 0.000000
v 5.057921 0.000000 5.057921
v -0.000001 0.000000 7.152981
v 0.000000 0.000000 -7.152981
v -7.152981 0.000000 0.000000
v -5.057920 0.000000 -5.057920
v 5.057920 0.000000 -5.057920
v -5.057921 0.000000 5.057920
v -0.000000 14.991364 -0.000000
v 0.000000 14.991364 -0.000000
v 0.000000 14.991364 0.000000
v -0.000000 14.991364 0.000000
v -0.000000 14.991364 0.000000
v 0.000000 14.991364 -0.000000
v 0.000000 14.991364 0.000000
v 0.000000 14.991364 0.000000
v 0.000000 14.991364 0.000000
vt 0.139059 0.442328
vt 0.139416 0.442319
vt 0.139604 0.442396
vt 0.139042 0.442681
vt 0.138751 0.442570
vt 0.138890 0.442241
vt 0.139061 0.442416
vt 0.138784 0.442424
vt 0.218277 0.472361
vt 0.138927 0.442146
vt 0.139250 0.442480
vt 0.139751 0.442541
vt 0.139412 0.442554
vt 0.139133 0.441455
vt 0.139079 0.442098
vt 0.139116 0.441663
vt 0.139327 0.442047
vt 0.139185 0.441614
vt 0.139424 0.442035
vt 0.139200 0.441588
vt 0.139344 0.441966
vt 0.139169 0.441542
vt 0.139261 0.441959
vt 0.139148 0.441514
vt 0.139103 0.441863
vt 0.139033 0.441779
vt 0.139056 0.441712
vt 0.139128 0.441531
vt 0.139119 0.441502
vt 0.139125 0.441482
vt 0.139497 0.442183
vt 0.139419 0.442148
vt 0.139323 0.442203
vt 0.139085 0.442090
vt 0.138975 0.441968
vt 0.139003 0.441890
vt 0.139100 0.441841
vt 0.139243 0.441791
vt 0.139291 0.441771
vt 0.139241 0.441716
vt 0.139194 0.441696
vt 0.139117 0.441667
vt 0.139084 0.441615
vt 0.139097 0.441576
vt 0.139126 0.441540
vt 0.139369 0.442176
vt 0.139068 0.442223
vt 0.138834 0.442327
vt 0.218270 0.471458
vt 0.218296 0.471421
vt 0.218278 0.471332
vt 0.218276 0.471360
vt 0.217985 0.472035
vt 0.218144 0.472424
vt 0.217987 0.472248
vt 0.218458 0.471873
vt 0.218387 0.471879
vt 0.218415 0.472022
vt 0.218511 0.472031
vt 0.218470 0.472044
vt 0.218423 0.471868
vt 0.218309 0.471823
vt 0.218323 0.472040
vt 0.218204 0.471760
vt 0.218163 0.471996
vt 0.218163 0.471695
vt 0.218104 0.471881
vt 0.218194 0.471634
vt 0.218152 0.471784
vt 0.218262 0.471593
vt 0.218253 0.471727
vt 0.218350 0.471692
vt 0.218321 0.471545
vt 0.218391 0.471670
vt 0.218342 0.471523
vt 0.218323 0.471499
vt 0.218364 0.471651
vt 0.218287 0.471468
vt 0.218296 0.471613
vt 0.218262 0.471428
vt 0.218238 0.471564
vt 0.218256 0.471401
vt 0.218218 0.471523
vt 0.218265 0.471377
vt 0.218235 0.471485
vt 0.218046 0.472159
vt 0.218095 0.471988
vt 0.218242 0.471908
vt 0.218233 0.472044
vt 0.139394 0.442482
vt 0.218582 0.472778
vt 0.139527 0.442409
vt 0.138784 0.442424
vt 0.138751 0.442570
vt 0.139042 0.442681
vt 0.139751 0.442541
vt 0.139604 0.442396
vt 0.139416 0.442319
vt 0.139059 0.442328
vt 0.139412 0.442554
vt 0.138784 0.442424
vt 0.138751 0.442570
vt 0.139042 0.442681
vt 0.139751 0.442541
vt 0.139604 0.442396
vt 0.139416 0.442319
vt 0.139059 0.442328
vt 0.139412 0.442554
vn 0.365888 0.293006 -0.883331
vn 0.365888 0.293006 -0.883331
vn 0.365887 0.293006 -0.883331
vn 0.365888 0.293006 -0.883331
vn -0.365888 0.293006 -0.883331
vn -0.365888 0.293006 -0.883331
vn -0.365888 0.293006 -0.883331
vn -0.883331 0.293006 -0.365888
vn -0.883331 0.293006 -0.365888
vn -0.883331 0.293006 -0.365888
vn -0.883331 0.293006 0.365888
vn -0.883331 0.293006 0.365888
vn -0.883331 0.293006 0.365888
vn -0.365888 0.293006 0.883331
vn -0.365889 0.293006 0.883331
vn -0.365889 0.293006 0.883331
vn 0.883331 0.293006 -0.365888
vn 0.883331 0.293006 -0.365888
vn 0.883331 0.293006 -0.365887
vn 0.883331 0.293006 -0.365887
vn -0.000000 -1.000000 0.000000
vn -0.000000 -1.000000 0.000000
vn -0.000000 -1.000000 0.000000
vn -0.000000 -1.000000 0.000000
vn 0.000000 -1.000000 0.000000
vn 0.000000 -1.000000 0.000000
vn 0.000000 -1.000000 0.000000
vn 0.000000 -1.000000 0.000000
vn 0.000000 -1.000000 0.000000
vn 0.000000 -1.000000 0.000000
vn 0.000000 -1.000000 0.000000
vn 0.000000 -1.000000 0.000000
vn 0.365888 0.293006 0.883331
vn 0.365888 0.293006 0.883331
vn 0.365888 0.293006 0.883331
vn 0.883331 0.293006 0.365888
vn 0.883331 0.293006 0.365887
vn 0.883332 0.293006 0.365886
vn -0.000000 -1.000000 0.000000
vn -0.000000 -1.000000 0.000000
vn -0.000000 -1.000000 0.000000
vn -0.000000 -1.000000 0.000000
vn 0.365888 0.293006 -0.883331
vn 0.365888 0.293006 -0.883331
vn 0.365888 0.293006 -0.883331
vn 0.365888 0.293006 -0.883331
vn -0.365888 0.293006 -0.883331
vn -0.365888 0.293006 -0.883331
vn -0.365888 0.293006 -0.883331
vn -0.365888 0.293006 -0.883331
vn -0.883331 0.293006 -0.365888
vn -0.883331 0.293006 -0.365888
vn -0.883331 0.293006 -0.365888
vn -0.883331 0.293006 -0.365888
vn -0.883331 0.293006 0.365888
vn -0.883331 0.293006 0.365888
vn -0.883331 0.293006 0.365888
vn -0.883331 0.293006 0.365888
vn -0.365888 0.293006 0.883331
vn -0.365888 0.293006 0.883331
vn -0.365888 0.293006 0.883331
vn -0.365888 0.293006 0.883331
vn 0.365888 0.293006 0.883331
vn 0.365888 0.293006 0.883331
vn 0.365888 0.293006 0.883331
vn 0.365888 0.293006 0.883331
vn 0.883331 0.293006 0.365888
vn 0.883331 0.293006 0.365888
vn 0.883331 0.293006 0.365888
vn 0.883331 0.293006 0.365888
vn 0.883331 0.293006 -0.365888
vn 0.883331 0.293006 -0.365888
vn 0.883331 0.293006 -0.365888
vn 0.883331 0.293006 -0.365888
vn 0.365888 0.293006 -0.883331
vn 0.365888 0.293006 -0.883331
vn 0.365888 0.293006 -0.883331
vn 0.365888 0.293006 -0.883331
vn -0.365888 0.293006 -0.883331
vn -0.365888 0.293006 -0.883331
vn -0.365888 0.293006 -0.883331
vn -0.365888 0.293006 -0.883331
vn -0.883331 0.293006 -0.365888
vn -0.883331 0.293006 -0.365888
vn -0.883331 0.293006 -0.365888
vn -0.883331 0.293006 -0.365888
vn -0.883331 0.293006 0.365888
vn -0.883331 0.293006 0.365888
vn -0.883331 0.293006 0.365888
vn -0.883331 0.293006 0.365888
vn -0.365889 0.293006 0.883331
vn -0.365889 0.293006 0.883331
vn -0.365888 0.293006 0.883331
vn -0.365888 0.293006 0.883331
vn 0.365888 0.293006 0.883331
vn 0.365888 0.293006 0.883331
vn 0.365888 0.293006 0.883331
vn 0.365888 0.293006 0.883331
vn 0.883332 0.293006 0.365886
vn 0.883331 0.293006 0.365887
vn 0.883331 0.293006 0.365888
vn 0.883331 0.293006 0.365888
vn 0.365888 0.293006 0.883331
vn 0.365888 0.293006 0.883331
vn 0.365888 0.293006 0.883331
vn 0.365888 0.293006 0.883331
vn 0.883331 0.293006 0.365888
vn 0.883331 0.293006 0.365888
vn 0.883331 0.293006 0.365888
vn 0.883331 0.293006 -0.365888
vn 0.883331 0.293006 -0.365888
vn 0.883331 0.293006 -0.365888
vn 0.883331 0.293006 -0.365888
vn 0.365888 0.293006 -0.883331
vn 0.365888 0.293006 -0.883331
vn 0.365888 0.293006 -0.883331
vn 0.365888 0.293006 -0.883331
vn -0.365888 0.293006 -0.883331
vn -0.365888 0.293006 -0.883331
vn -0.365888 0.293006 -0.883331
vn -0.365888 0.293006 -0.883331
vn -0.883331 0.293006 -0.365888
vn -0.883331 0.293006 -0.365888
vn -0.883331 0.293006 -0.365888
vn -0.883331 0.293006 -0.365888
vn -0.883331 0.293006 0.365888
vn -0.883331 0.293006 0.365888
vn -0.883331 0.293006 0.365888
vn -0.365888 0.293006 0.883331
vn -0.365888 0.293006 0.883331
vn -0.365888 0.293006 0.883331
vn -0.365888 0.293006 0.883331
vn 0.365888 0.293006 0.883331
vn 0.365888 0.293006 0.883331
vn 0.365888 0.293006 0.883331
vn 0.365888 0.293006 0.883331
vn 0.883331 0.293006 0.365888
vn 0.883331 0.293006 0.365888
vn 0.883331 0.293006 0.365888
vn 0.883331 0.293006 0.365888
vn 0.883331 0.293006 -0.365888
vn 0.883331 0.293006 -0.365888
vn 0.883331 0.293006 -0.365888
vn 0.883331 0.293006 -0.365888
vn 0.365888 0.293006 -0.883331
vn 0.365888 0.293006 -0.883331
vn 0.365888 0.293006 -0.883331
vn 0.365888 0.293006 -0.883331
vn -0.365888 0.293006 -0.883331
vn -0.365888 0.293006 -0.883331
vn -0.365888 0.293006 -0.883331
vn -0.365888 0.293006 -0.883331
vn -0.883331 0.293006 -0.365888
vn -0.883331 0.293006 -0.365888
vn -0.883331 0.293006 -0.365888
vn -0.883331 0.293006 -0.365888
vn -0.883331 0.293006 0.365888
vn -0.883331 0.293006 0.365888
vn -0.883331 0.293006 0.365888
vn -0.883331 0.293006 0.365888
vn -0.365888 0.293006 0.883331
vn -0.365888 0.293006 0.883331
vn -0.365888 0.293006 0.883331
vn -0.365888 0.293006 0.883331
vn 0.365888 0.293006 0.883331
vn 0.365888 0.293006 0.883331
vn 0.365888 0.293006 0.883331
vn 0.365888 0.293006 0.883331
vn 0.883331 0.293006 0.365888
vn 0.883331 0.293006 0.365888
vn 0.883331 0.293006 0.365888
vn 0.883331 0.293006 0.365888
vn 0.883331 0.293006 -0.365888
vn 0.883331 0.293006 -0.365888
vn 0.883331 0.293006 -0.365888
vn 0.883331 0.293006 -0.365888
vn 0.883331 0.293006 -0.365888
vn 0.883331 0.293006 -0.365888
vn 0.883331 0.293006 -0.365888
vn 0.883331 0.293006 -0.365888
vn 0.883331 0.293006 0.365888
vn 0.883331 0.293006 0.365888
vn 0.883331 0.293006 0.365888
vn 0.883331 0.293006 0.365888
vn -0.365888 0.293006 0.883331
vn -0.365888 0.293006 0.883331
vn -0.365888 0.293006 0.883331
vn -0.365888 0.293006 0.883331
vn -0.883331 0.293006 0.365888
vn -0.883331 0.293006 0.365888
vn -0.883331 0.293006 0.365888
vn -0.883331 0.293006 0.365888
vn -0.000000 -1.000000 -0.000000
vn -0.000000 -1.000000 -0.000000
vn -0.000000 -1.000000 0.000000
vn -0.000000 -1.000000 0.000000
vn -0.000000 -1.000000 0.000000
vn -0.000000 -1.000000 0.000000
vn -0.000000 -1.000000 0.000000
vn -0.000000 -1.000000 0.000000
vn 0.000000 -1.000000 0.000000
vn 0.000000 -1.000000 0.000000
vn 0.000000 -1.000000 0.000000
vn 0.000000 -1.000000 0.000000
vn 0.000000 -1.000000 0.000000
vn 0.000000 -1.000000 0.000000
vn 0.000000 -1.000000 0.000000
vn 0.000000 -1.000000 0.000000
vn -0.000000 -1.000000 0.000000
vn -0.000000 -1.000000 0.000000
vn 0.000000 -1.000000 0.000000
vn 0.000000 -1.000000 0.000000
vn -0.000000 -1.000000 0.000000
vn -0.000000 -1.000000 0.000000
vn 0.000000 -1.000000 0.000000
vn 0.000000 -1.000000 0.000000
vn 0.000000 -1.000000 0.000000
vn 0.000000 -1.000000 0.000000
vn -0.000000 -1.000000 0.000000
vn -0.000000 -1.000000 0.000000
vn -0.000000 -1.000000 0.000000
vn -0.000000 -1.000000 0.000000
vn -0.000000 -1.000000 0.000000
vn -0.000000 -1.000000 0.000000
vn -0.845385 -0.403367 -0.350170
vn -0.845385 -0.403367 -0.350170
vn -0.000000 -1.000000 0.000000
vn -0.000000 -1.000000 0.000000
vn -0.350170 -0.403367 -0.845385
vn -0.350170 -0.403367 -0.845385
vn -0.000000 -1.000000 0.000000
vn -0.000000 -1.000000 0.000000
vn 0.845385 -0.403367 0.350170
vn 0.845385 -0.403367 0.350170
vn 0.000000 -1.000000 0.000000
vn 0.000000 -1.000000 0.000000
vn 0.350170 -0.403367 0.845385
vn 0.350170 -0.403367 0.845385
vn 0.000000 -1.000000 0.000000
vn 0.000000 -1.000000 0.000000
vn -0.845385 -0.403367 0.350170
vn -0.845385 -0.403367 0.350170
vn 0.000000 -1.000000 0.000000
vn 0.000000 -1.000000 0.000000
vn -0.350170 -0.403367 0.845385
vn -0.350170 -0.403367 0.845385
vn 0.000000 -1.000000 0.000000
vn 0.000000 -1.000000 0.000000
vn 0.845385 -0.403367 -0.350170
vn 0.845385 -0.403367 -0.350170
vn -0.000000 -1.000000 0.000000
vn -0.000000 -1.000000 0.000000
vn 0.350170 -0.403367 -0.845385
vn 0.350170 -0.403367 -0.845385
vn -0.000000 -1.000000 0.000000
vn -0.000000 -1.000000 0.000000
s off
f 14/16/1 16/18/2 9/14/3 43/45/4
f 9/14/5 16/18/6 18/20/7
f 9/14/8 18/20/9 20/22/10
f 9/14/11 20/22/12 22/24/13
f 9/14/14 22/24/15 26/28/16
f 42/49/17 43/50/18 9/51/19 28/52/20
f 56/11/21 57/101/22 58/102/23 59/103/24
f 60/106/25 56/11/26 61/104/27 62/105/28
f 63/107/29 57/101/30 56/11/31 60/106/32
f 9/14/33 26/28/34 27/29/35
f 9/14/36 27/29/37 28/30/38
f 64/108/39 61/104/40 56/11/41 59/103/42
f 15/56/43 13/57/44 45/58/45 44/59/46
f 29/60/47 17/61/48 15/56/49 44/59/50
f 19/62/51 17/61/52 29/60/53 30/63/54
f 21/64/55 19/62/56 30/63/57 31/65/58
f 23/66/59 21/64/60 31/65/61 32/67/62
f 24/68/63 23/66/64 32/67/65 33/69/66
f 25/70/67 24/68/68 33/69/69 34/71/70
f 34/71/71 35/72/72 14/73/73 25/70/74
f 35/72/75 36/74/76 16/75/77 14/73/78
f 18/76/79 16/75/80 36/74/81 37/77/82
f 20/78/83 18/76/84 37/77/85 38/79/86
f 22/80/87 20/78/88 38/79/89 39/81/90
f 26/82/91 22/80/92 39/81/93 40/83/94
f 27/84/95 26/82/96 40/83/97 41/85/98
f 28/52/99 27/84/100 41/85/101 42/49/102
f 6/55/103 7/86/104 11/87/105 10/53/106
f 7/5/107 8/8/108 46/48/109
f 45/47/110 46/48/111 8/8/112 1/1/113
f 1/1/114 2/2/115 44/46/116 45/47/117
f 29/31/118 44/46/119 2/2/120 3/3/121
f 30/32/122 29/31/123 3/3/124 4/92/125
f 47/9/126 4/91/127 5/54/128
f 10/53/129 47/9/130 5/54/131 6/55/132
f 33/35/133 32/34/134 10/7/135 11/6/136
f 34/36/137 33/35/138 11/6/139 12/10/140
f 12/10/141 13/15/142 35/37/143 34/36/144
f 13/15/145 15/17/146 36/38/147 35/37/148
f 37/39/149 36/38/150 15/17/151 17/19/152
f 38/40/153 37/39/154 17/19/155 19/21/156
f 39/41/157 38/40/158 19/21/159 21/23/160
f 40/42/161 39/41/162 21/23/163 23/25/164
f 41/43/165 40/42/166 23/25/167 24/26/168
f 42/44/169 41/43/170 24/26/171 25/27/172
f 25/27/173 14/16/174 43/45/175 42/44/176
f 12/88/177 46/89/178 45/58/179 13/57/180
f 7/86/181 46/89/182 12/88/183 11/87/184
f 32/34/185 31/33/186 47/90/187 10/7/188
f 31/33/189 30/32/190 4/92/191 47/90/192
f 8/8/193 7/5/194 49/94/195 48/93/196
f 7/5/197 6/4/198 50/95/199 49/94/200
f 4/12/201 3/3/202 53/97/203 52/96/204
f 3/3/205 2/2/206 51/98/207 53/97/208
f 1/1/209 8/8/210 48/93/211 54/99/212
f 2/2/213 1/1/214 54/99/215 51/98/216
f 5/13/217 4/12/218 52/96/219 55/100/220
f 6/4/221 5/13/222 55/100/223 50/95/224
f 48/93/225 49/94/226 58/102/227 57/101/228
f 49/94/229 50/95/230 59/103/231 58/102/232
f 52/96/233 53/97/234 62/105/235 61/104/236
f 53/97/237 51/98/238 60/106/239 62/105/240
f 54/99/241 48/93/242 57/101/243 63/107/244
f 51/98/245 54/99/246 63/107/247 60/106/248
f 55/100/249 52/96/250 61/104/251 64/108/252
f 50/95/253 55/100/254 64/108/255 59/103/256
