# This file uses centimeters as units for non-parametric coordinates.

v -3.915472 0.000000 14.106094
v 3.915472 0.000000 14.106094
v -3.661724 2.220095 12.388327
v 3.661724 2.220095 12.388327
v -3.661724 2.220095 -13.277052
v 3.661724 2.220095 -13.277052
v -3.915472 0.000000 -14.351166
v 3.915472 0.000000 -14.351166
v -4.017924 0.767928 14.163490
v 4.017924 0.767928 14.163490
v 4.017924 0.767928 -14.385120
v -4.017924 0.767928 -14.385120
v 3.661724 2.220095 -0.620526
v -3.661724 2.220095 -0.620526
v -4.017924 0.767928 -0.110815
v -3.915472 0.000000 -0.122536
v 3.915472 0.000000 -0.122536
v 4.017924 0.767928 -0.110815
v -1.841446 2.220095 10.015252
v 1.841446 2.220095 10.015252
v 1.841446 2.220095 6.318028
v -1.841446 2.220095 6.318028
v -1.082940 2.220095 9.469699
v 1.082940 2.220095 9.469699
v 1.082940 2.220095 8.657498
v -1.082940 2.220095 8.657498
v 0.280677 2.220095 7.736217
v -0.280677 2.220095 7.736217
v 1.532992 2.220095 7.736222
v 1.532992 2.220095 6.902509
v -1.532992 2.220095 6.902509
v -1.532992 2.220095 7.736222
v 0.280678 2.220095 6.902509
v -0.280677 2.220095 6.902509
v 2.334414 2.220095 -4.306846
v -2.334414 2.220095 -4.306846
v 2.334414 2.220095 -11.757732
v -2.334414 2.220095 -11.757732
v 1.837238 2.842464 -4.718547
v -1.837238 2.842464 -4.718547
v 1.837238 2.842464 -11.346031
v -1.837238 2.842464 -11.346031
v 1.837238 4.401667 -4.718547
v -1.837238 4.401667 -4.718547
v 1.837238 4.401666 -11.346031
v -1.837238 4.401666 -11.346031
vt 0.082172 0.302089
vt 0.082109 0.302281
vt 0.137438 0.417750
vt 0.137468 0.417754
vt 0.137399 0.417687
vt 0.137381 0.417692
vt 0.081187 0.302221
vt 0.081172 0.302017
vt 0.081188 0.302214
vt 0.081172 0.302006
vt 0.082107 0.302275
vt 0.136499 0.417690
vt 0.082171 0.302078
vt 0.136586 0.417694
vt 0.136468 0.417752
vt 0.136567 0.417748
vt 0.136949 0.417688
vt 0.136983 0.417693
vt 0.137003 0.417749
vt 0.081672 0.302042
vt 0.081672 0.302053
vt 0.081648 0.302251
vt 0.136968 0.417753
vt 0.081648 0.302244
vt 0.137381 0.417692
vt 0.137399 0.417687
vt 0.136949 0.417688
vt 0.136983 0.417693
vt 0.124458 0.374854
vt 0.124384 0.375468
vt 0.123457 0.375313
vt 0.123581 0.374716
vt 0.124458 0.374854
vt 0.124384 0.375468
vt 0.123457 0.375313
vt 0.123581 0.374716
vt 0.125271 0.298302
vt 0.124734 0.299029
vt 0.124271 0.298891
vt 0.124825 0.298177
vt 0.123581 0.374716
vt 0.123457 0.375313
vt 0.124384 0.375468
vt 0.123457 0.375313
vt 0.123581 0.374716
vt 0.124458 0.374854
vt 0.123501 0.375104
vt 0.123538 0.374925
vt 0.125673 0.301452
vt 0.125685 0.301197
vt 0.126084 0.301213
vt 0.126081 0.301468
vt 0.125507 0.301190
vt 0.125490 0.301445
vt 0.125084 0.301429
vt 0.125110 0.301175
vt 0.136983 0.417693
vt 0.136949 0.417688
vt 0.136499 0.417690
vt 0.136586 0.417694
vt 0.136983 0.417693
vt 0.136949 0.417688
vt 0.136499 0.417690
vt 0.136586 0.417694
vt 0.136983 0.417693
vt 0.136949 0.417688
vt 0.136499 0.417690
vt 0.136586 0.417694
vn 0.000000 0.774009 0.633175
vn 0.000000 0.774009 0.633175
vn 0.000000 0.774009 0.633175
vn 0.000000 0.774009 0.633175
vn 0.000000 1.000000 0.000000
vn 0.000000 1.000000 0.000000
vn 0.000000 1.000000 0.000000
vn 0.000000 1.000000 0.000000
vn 0.000000 0.606616 -0.794995
vn 0.000000 0.606616 -0.794995
vn 0.000000 0.606616 -0.794995
vn 0.000000 0.606616 -0.794995
vn 0.000000 -1.000000 0.000000
vn 0.000000 -1.000000 0.000000
vn 0.000000 -1.000000 0.000000
vn 0.000000 -1.000000 0.000000
vn 0.971210 0.238226 0.000000
vn 0.971210 0.238226 0.000000
vn 0.971210 0.238226 0.000000
vn 0.971210 0.238226 0.000000
vn -0.971210 0.238226 0.000000
vn -0.971210 0.238226 0.000000
vn -0.971210 0.238226 0.000000
vn -0.971210 0.238226 0.000000
vn 0.000000 -0.074535 0.997218
vn 0.000000 -0.074535 0.997218
vn 0.000000 -0.074535 0.997218
vn 0.000000 -0.074535 0.997218
vn 0.991217 -0.132242 0.000000
vn 0.991217 -0.132242 0.000000
vn 0.991217 -0.132242 0.000000
vn 0.991217 -0.132242 0.000000
vn 0.000000 -0.044173 -0.999024
vn 0.000000 -0.044173 -0.999024
vn 0.000000 -0.044173 -0.999024
vn 0.000000 -0.044173 -0.999024
vn -0.991217 -0.132242 0.000000
vn -0.991217 -0.132242 0.000000
vn -0.991217 -0.132242 0.000000
vn -0.991217 -0.132242 0.000000
vn 0.000000 1.000000 0.000000
vn 0.000000 1.000000 0.000000
vn 0.000000 1.000000 0.000000
vn 0.000000 1.000000 0.000000
vn -0.971210 0.238226 0.000000
vn -0.971210 0.238226 0.000000
vn -0.971210 0.238226 0.000000
vn -0.971210 0.238226 0.000000
vn -0.991217 -0.132242 0.000000
vn -0.991217 -0.132242 0.000000
vn -0.991217 -0.132242 0.000000
vn -0.991217 -0.132242 0.000000
vn 0.000000 -1.000000 0.000000
vn 0.000000 -1.000000 0.000000
vn 0.000000 -1.000000 0.000000
vn 0.000000 -1.000000 0.000000
vn 0.991217 -0.132242 0.000000
vn 0.991217 -0.132242 0.000000
vn 0.991217 -0.132242 0.000000
vn 0.991217 -0.132242 0.000000
vn 0.971210 0.238226 0.000000
vn 0.971210 0.238226 0.000000
vn 0.971210 0.238226 0.000000
vn 0.971210 0.238226 0.000000
vn 0.000000 1.000000 0.000000
vn 0.000000 1.000000 0.000000
vn 0.000000 1.000000 0.000000
vn 0.000000 1.000000 0.000000
vn 0.000000 1.000000 0.000000
vn 0.000000 1.000000 0.000000
vn 0.000000 1.000000 0.000000
vn 0.000000 1.000000 0.000000
vn 0.000000 1.000000 0.000000
vn 0.000000 1.000000 0.000000
vn 0.000000 1.000000 0.000000
vn 0.000000 1.000000 0.000000
vn 0.000000 1.000000 0.000000
vn 0.000000 1.000000 0.000000
vn 0.000000 1.000000 0.000000
vn 0.000000 1.000000 0.000000
vn 0.000000 1.000000 0.000000
vn 0.000000 1.000000 0.000000
vn 0.000000 1.000000 0.000000
vn 0.000000 1.000000 0.000000
vn 0.000000 1.000000 0.000000
vn 0.000000 1.000000 0.000000
vn 0.000000 1.000000 0.000000
vn 0.000000 1.000000 0.000000
vn 0.000000 1.000000 -0.000000
vn 0.000000 1.000000 -0.000000
vn 0.000000 1.000000 -0.000000
vn 0.000000 1.000000 -0.000000
vn 0.000000 1.000000 0.000000
vn 0.000000 1.000000 0.000000
vn 0.000000 1.000000 0.000000
vn 0.000000 1.000000 0.000000
vn 0.000000 1.000000 0.000000
vn 0.000000 1.000000 0.000000
vn 0.000000 1.000000 0.000000
vn 0.000000 1.000000 0.000000
vn 0.000000 1.000000 0.000000
vn 0.000000 1.000000 0.000000
vn 0.000000 1.000000 0.000000
vn 0.000000 1.000000 0.000000
vn 0.000000 1.000000 0.000000
vn 0.000000 1.000000 0.000000
vn 0.000000 1.000000 -0.000000
vn 0.000000 1.000000 -0.000000
vn 0.000000 1.000000 -0.000000
vn 0.000000 1.000000 -0.000000
vn 0.000000 1.000000 0.000000
vn 0.000000 1.000000 0.000000
vn 0.000000 1.000000 0.000000
vn 0.000000 1.000000 -0.000000
vn 0.000000 1.000000 -0.000000
vn 0.000000 1.000000 -0.000000
vn 0.000000 1.000000 -0.000000
vn 0.000000 1.000000 0.000000
vn 0.000000 1.000000 0.000000
vn 0.000000 1.000000 0.000000
vn 0.000000 1.000000 0.000000
vn 0.000000 1.000000 0.000000
vn 0.000000 1.000000 0.000000
vn 0.000000 1.000000 0.000000
vn 0.000000 1.000000 0.000000
vn 0.000000 1.000000 -0.000000
vn 0.000000 1.000000 -0.000000
vn 0.000000 1.000000 -0.000000
vn 0.000000 1.000000 -0.000000
vn 0.000000 1.000000 0.000000
vn 0.000000 1.000000 0.000000
vn 0.000000 1.000000 0.000000
vn 0.000000 1.000000 -0.000000
vn 0.000000 1.000000 -0.000000
vn 0.000000 1.000000 -0.000000
vn 0.000000 1.000000 -0.000000
vn 0.000000 1.000000 0.000000
vn 0.000000 1.000000 0.000000
vn 0.000000 1.000000 0.000000
vn 0.000000 1.000000 0.000000
vn 0.000000 1.000000 0.000000
vn 0.000000 1.000000 0.000000
vn 0.000000 1.000000 0.000000
vn 0.000000 1.000000 0.000000
vn 0.000000 1.000000 0.000000
vn 0.000000 1.000000 0.000000
vn 0.000000 1.000000 0.000000
vn 0.000000 1.000000 0.000000
vn 0.000000 0.551717 0.834031
vn 0.000000 0.551717 0.834031
vn 0.000000 0.551717 0.834031
vn 0.000000 0.551717 0.834031
vn 0.781309 0.624144 0.000000
vn 0.781309 0.624144 0.000000
vn 0.781309 0.624144 0.000000
vn 0.781309 0.624144 0.000000
vn 0.000000 0.551716 -0.834032
vn 0.000000 0.551716 -0.834032
vn 0.000000 0.551716 -0.834032
vn 0.000000 0.551716 -0.834032
vn -0.781309 0.624144 0.000000
vn -0.781309 0.624144 0.000000
vn -0.781309 0.624144 0.000000
vn -0.781309 0.624144 0.000000
vn 0.000000 0.000000 1.000000
vn 0.000000 0.000000 1.000000
vn 0.000000 0.000000 1.000000
vn 0.000000 0.000000 1.000000
vn 1.000000 0.000000 0.000000
vn 1.000000 0.000000 0.000000
vn 1.000000 0.000000 0.000000
vn 1.000000 0.000000 0.000000
vn 0.000000 0.000000 -1.000000
vn 0.000000 0.000000 -1.000000
vn 0.000000 0.000000 -1.000000
vn 0.000000 0.000000 -1.000000
vn -1.000000 0.000000 0.000000
vn -1.000000 0.000000 0.000000
vn -1.000000 0.000000 0.000000
vn -1.000000 0.000000 0.000000
s off
f 9/3/1 10/4/2 4/5/3 3/6/4
f 23/37/5 24/38/6 25/39/7 26/40/8
f 5/14/9 6/12/10 11/15/11 12/16/12
f 16/21/13 17/22/14 2/7/15 1/8/16
f 10/4/17 18/23/18 13/17/19 4/5/20
f 15/19/21 9/3/22 3/6/23 14/18/24
f 1/8/25 2/7/26 10/9/27 9/10/28
f 2/7/29 17/22/30 18/24/31 10/9/32
f 12/13/33 11/11/34 8/2/35 7/1/36
f 16/21/37 1/8/38 9/10/39 15/20/40
f 44/65/41 43/66/42 45/67/43 46/68/44
f 12/16/45 15/19/46 14/18/47 5/14/48
f 7/1/49 16/21/50 15/20/51 12/13/52
f 7/1/53 8/2/54 17/22/55 16/21/56
f 18/24/57 17/22/58 8/2/59 11/11/60
f 13/17/61 18/23/62 11/15/63 6/12/64
f 3/6/65 4/5/66 20/26/67 19/25/68
f 4/5/69 13/17/70 21/27/71 20/26/72
f 13/17/73 14/18/74 22/28/75 21/27/76
f 14/18/77 3/6/78 19/25/79 22/28/80
f 19/29/81 20/30/82 24/34/83 23/33/84
f 28/49/85 34/50/86 31/51/87 32/52/88
f 26/36/89 25/35/90 27/42/91 28/41/92
f 27/42/93 25/35/94 29/43/95
f 20/30/96 21/31/97 30/44/98 29/43/99
f 34/48/100 22/32/101 31/45/102
f 22/32/103 19/29/104 32/46/105 31/45/106
f 32/46/107 19/29/108 23/33/109 26/36/110
f 32/46/111 26/36/112 28/41/113
f 29/43/114 25/35/115 24/34/116 20/30/117
f 33/53/118 27/54/119 29/55/120 30/56/121
f 28/41/122 27/42/123 33/47/124 34/48/125
f 21/31/126 22/32/127 34/48/128 33/47/129
f 21/31/130 33/47/131 30/44/132
f 14/18/133 13/17/134 35/58/135 36/57/136
f 13/17/137 6/12/138 37/59/139 35/58/140
f 6/12/141 5/14/142 38/60/143 37/59/144
f 5/14/145 14/18/146 36/57/147 38/60/148
f 36/57/149 35/58/150 39/62/151 40/61/152
f 35/58/153 37/59/154 41/63/155 39/62/156
f 37/59/157 38/60/158 42/64/159 41/63/160
f 38/60/161 36/57/162 40/61/163 42/64/164
f 40/61/165 39/62/166 43/66/167 44/65/168
f 39/62/169 41/63/170 45/67/171 43/66/172
f 41/63/173 42/64/174 46/68/175 45/67/176
f 42/64/177 40/61/178 44/65/179 46/68/180
v -1.381995 3.979043 9.699946
v 1.381995 3.979043 9.699946
v -1.381995 6.385845 9.699946
v 1.381995 6.385845 9.699946
v -1.381995 6.385845 -5.927774
v 1.381995 6.385845 -5.927774
v -1.381995 3.979043 -5.927775
v 1.381995 3.979043 -5.927775
v -3.095838 6.398485 12.136237
v 3.095838 6.398485 12.136237
v -2.422201 5.979701 -11.468775
v 2.422201 5.979701 -11.468775
v -3.095838 3.979043 -12.517941
v 3.095838 3.979043 -12.517941
v -2.422201 7.508291 -7.469928
v 2.422201 7.508291 -7.469928
v 3.095838 3.979043 -4.679588
v -3.095838 3.979043 -4.679588
v -2.422201 9.724568 7.443472
v -2.945978 8.431784 10.924791
v 2.422201 9.724568 7.443472
v 2.945978 8.431784 10.924791
v -2.967026 5.667928 -6.014876
v 2.942039 5.808060 -6.125669
vt 0.124442 0.377833
vt 0.124344 0.377908
vt 0.124357 0.377764
vt 0.124458 0.377694
vt 0.123457 0.377411
vt 0.123568 0.377370
vt 0.123465 0.377528
vt 0.123573 0.377484
vt 0.138282 0.416819
vt 0.138273 0.416879
vt 0.138224 0.416807
vt 0.138236 0.416751
vt 0.137525 0.416745
vt 0.137468 0.416798
vt 0.137317 0.416846
vt 0.137382 0.416792
vt 0.137282 0.416919
vt 0.137348 0.416860
vt 0.137580 0.416940
vt 0.137630 0.416880
vt 0.138097 0.416693
vt 0.138076 0.416745
vt 0.137579 0.416815
vt 0.137522 0.416867
vn 0.000000 0.000000 1.000000
vn 0.000000 0.000000 1.000000
vn 0.000000 0.000000 1.000000
vn 0.000000 0.000000 1.000000
vn 0.000000 1.000000 0.000000
vn 0.000000 1.000000 0.000000
vn 0.000000 1.000000 0.000000
vn 0.000000 1.000000 0.000000
vn 0.000000 0.000000 -1.000000
vn 0.000000 0.000000 -1.000000
vn 0.000000 0.000000 -1.000000
vn 0.000000 0.000000 -1.000000
vn 0.000000 -1.000000 0.000000
vn 0.000000 -1.000000 0.000000
vn 0.000000 -1.000000 0.000000
vn 0.000000 -1.000000 0.000000
vn 1.000000 0.000000 0.000000
vn 1.000000 0.000000 0.000000
vn 1.000000 0.000000 0.000000
vn 1.000000 0.000000 0.000000
vn -1.000000 0.000000 0.000000
vn -1.000000 0.000000 0.000000
vn -1.000000 0.000000 0.000000
vn -1.000000 0.000000 0.000000
vn 0.000000 0.583930 0.811804
vn 0.000000 0.583930 0.811804
vn 0.000000 0.583930 0.811804
vn 0.000000 0.583930 0.811804
vn 0.000000 0.934082 -0.357060
vn 0.000000 0.934082 -0.357060
vn 0.000000 0.934082 -0.357060
vn 0.000000 0.934082 -0.357060
vn 0.000000 0.464425 -0.885613
vn 0.000000 0.464425 -0.885613
vn 0.000000 0.464425 -0.885613
vn 0.000000 0.464425 -0.885613
vn 0.000000 -1.000000 0.000000
vn 0.000000 -1.000000 0.000000
vn 0.000000 -1.000000 0.000000
vn 0.000000 -1.000000 0.000000
vn 0.950376 0.299876 -0.082830
vn 0.950376 0.299876 -0.082830
vn 0.950376 0.299876 -0.082830
vn 0.950376 0.299876 -0.082830
vn -0.997104 0.076049 0.000000
vn -0.997104 0.076049 0.000000
vn -0.997104 0.076049 0.000000
vn 0.000000 0.989137 -0.146995
vn 0.000000 0.989137 -0.146995
vn 0.000000 0.989137 -0.146995
vn 0.000000 0.989137 -0.146995
vn 0.962132 0.269496 -0.040926
vn 0.962132 0.269496 -0.040926
vn 0.962132 0.269496 -0.040926
vn 0.962132 0.269496 -0.040926
vn 0.000000 -0.986717 0.162452
vn 0.000000 -0.986717 0.162452
vn 0.000000 -0.986717 0.162452
vn 0.000000 -0.986717 0.162452
vn -0.997212 0.073731 -0.011462
vn -0.997212 0.073731 -0.011462
vn -0.997212 0.073731 -0.011462
vn -0.997212 0.073731 -0.011462
vn 0.000000 0.937450 0.348121
vn 0.000000 0.937450 0.348121
vn 0.000000 0.937450 0.348121
vn 0.000000 0.937450 0.348121
vn -0.963531 0.264479 -0.040714
vn -0.963531 0.264479 -0.040714
vn -0.963531 0.264479 -0.040714
vn -0.963531 0.264479 -0.040714
vn 0.996968 0.076830 -0.012349
vn 0.996968 0.076830 -0.012349
vn 0.996968 0.076830 -0.012349
vn 0.996968 0.076830 -0.012349
vn 0.996483 0.083792 0.000000
vn 0.996483 0.083792 0.000000
vn 0.996483 0.083792 0.000000
vn -0.952615 0.293911 -0.078361
vn -0.952615 0.293911 -0.078361
vn -0.952615 0.293911 -0.078361
vn -0.952615 0.293911 -0.078361
s off
f 47/69/181 48/70/182 50/71/183 49/72/184
f 49/72/185 50/71/186 52/73/187 51/74/188
f 51/74/189 52/73/190 54/75/191 53/76/192
f 53/76/193 54/75/194 48/70/195 47/69/196
f 48/70/197 54/75/198 52/73/199 50/71/200
f 53/76/201 47/69/202 49/72/203 51/74/204
f 55/77/205 56/78/206 68/79/207 66/80/208
f 61/81/209 62/82/210 58/83/211 57/84/212
f 57/84/213 58/83/214 60/85/215 59/86/216
f 59/86/217 60/85/218 63/87/219 64/88/220
f 58/83/221 62/82/222 70/92/223 60/85/224
f 59/86/225 64/88/226 69/91/227
f 65/89/228 67/90/229 62/82/230 61/81/231
f 68/79/232 70/92/233 62/82/234 67/90/235
f 64/88/236 63/87/237 56/78/238 55/77/239
f 64/88/240 55/77/241 66/80/242 69/91/243
f 65/89/244 66/80/245 68/79/246 67/90/247
f 69/91/248 66/80/249 65/89/250 61/81/251
f 63/87/252 70/92/253 68/79/254 56/78/255
f 60/85/256 70/92/257 63/87/258
f 57/84/259 59/86/260 69/91/261 61/81/262
