# This file uses centimeters as units for non-parametric coordinates.

v 12.085855 -0.274960 -12.881067
v 12.085855 -0.274960 11.168772
v 22.396606 25.661461 -12.881067
v 22.396606 25.661461 11.168772
v 16.623312 27.954002 -12.881067
v 16.623312 27.954002 11.168772
v 6.312574 2.017582 -12.881067
v 6.312574 2.017582 11.168772
v 21.533522 26.004181 -12.881067
v 17.486195 27.611376 -12.881067
v 17.486195 27.611376 9.775267
v 21.533522 26.004181 9.775368
v -32.606869 0.000000 -12.881067
v -32.606869 0.000000 11.168772
v -32.606869 27.908623 -12.881067
v -32.606869 27.908623 11.168772
v -39.744320 27.908623 -12.881067
v -39.744320 27.908623 11.168772
v -39.744320 0.000000 -12.881067
v -39.744320 0.000000 11.168772
v -33.673782 27.908623 -12.881067
v -38.677505 27.908623 -12.881067
v -38.677505 27.908623 9.775267
v -33.673782 27.908623 9.775368
v -39.962799 0.000000 -11.168671
v -39.962799 0.000000 12.881065
v -39.962799 25.314844 -11.168671
v -39.962799 25.314844 12.881065
v -45.294201 25.314844 -11.168671
v -45.294201 25.314844 12.881065
v -45.294201 0.000000 -11.168671
v -45.294201 0.000000 12.881065
v -40.759815 25.314844 -11.168671
v -44.497395 25.314844 -11.168671
v -44.497395 25.314844 11.487562
v -40.759815 25.314844 11.487766
v 20.703327 -0.265518 -11.296431
v 20.703327 -0.265518 12.753510
v 29.222961 26.312405 -11.296431
v 29.222961 26.312405 12.753510
v 23.306999 28.206720 -11.296431
v 23.306999 28.206720 12.753510
v 14.787248 1.628799 -11.296431
v 14.787248 1.628799 12.753510
v 28.338577 26.595594 -11.296431
v 24.191175 27.923615 -11.296431
v 24.191175 27.923615 11.360004
v 28.338577 26.595594 11.360004
v 28.866711 -0.118290 -12.881067
v 28.866711 -0.118290 11.168772
v 35.805435 26.915005 -12.881067
v 35.805435 26.915005 11.168772
v 29.788073 28.457788 -12.881067
v 29.788073 28.457788 11.168772
v 22.849342 1.424490 -12.881067
v 22.849342 1.424490 11.168772
v 34.905891 27.145641 -12.881067
v 30.687405 28.227209 -12.881067
v 30.687405 28.227209 9.775267
v 34.905891 27.145641 9.775368
v 35.180943 -0.088226 -12.339821
v 35.180943 -0.088226 11.710018
v 45.294201 25.923523 -12.339821
v 45.294201 25.923523 11.710018
v 39.961597 27.996841 -12.339821
v 39.961597 27.996841 11.710018
v 29.848373 1.985093 -12.339821
v 29.848373 1.985093 11.710018
v 44.496929 26.233541 -12.339821
v 40.758591 27.687014 -12.339821
v 40.758591 27.687014 10.316412
v 44.496929 26.233541 10.316616
v 43.486347 21.273771 11.710018
v 38.153786 23.347013 11.710018
v 36.933838 20.209251 11.710018
v 42.266430 18.135996 11.710018
vt 0.091897 0.327498
vt 0.091897 0.327498
vt 0.091897 0.327498
vt 0.091897 0.327498
vt 0.091897 0.327498
vt 0.091897 0.327498
vt 0.091897 0.327498
vt 0.091897 0.327498
vt 0.037598 0.374821
vt 0.037598 0.374821
vt 0.091897 0.327498
vt 0.091897 0.327498
vt 0.091897 0.327498
vt 0.091897 0.327498
vt 0.091897 0.327498
vt 0.091897 0.327498
vt 0.091897 0.327498
vt 0.091897 0.327498
vt 0.091897 0.327498
vt 0.091897 0.327498
vt 0.039307 0.372169
vt 0.039307 0.372169
vt 0.039307 0.372169
vt 0.039307 0.372169
vt 0.037598 0.374821
vt 0.037598 0.374821
vt 0.037598 0.374821
vt 0.037598 0.374821
vt 0.202291 0.420196
vt 0.202291 0.420196
vt 0.202291 0.420196
vt 0.202291 0.420196
vt 0.202291 0.420196
vt 0.202291 0.420196
vt 0.202291 0.420196
vt 0.202291 0.420196
vt 0.202291 0.420196
vt 0.202291 0.420196
vt 0.037598 0.374821
vt 0.037598 0.374821
vt 0.037598 0.374821
vt 0.037598 0.374821
vt 0.202291 0.420196
vt 0.202291 0.420196
vt 0.037598 0.374821
vt 0.037598 0.374821
vt 0.202291 0.420196
vt 0.202291 0.420196
vt 0.202291 0.420196
vt 0.202291 0.420196
vt 0.202291 0.420196
vt 0.202291 0.420196
vt 0.039307 0.372169
vt 0.039307 0.372169
vt 0.039307 0.372169
vt 0.039307 0.372169
vt 0.308229 0.450731
vt 0.308229 0.450731
vt 0.308229 0.450731
vt 0.308229 0.450731
vt 0.308229 0.450731
vt 0.308229 0.450731
vt 0.308229 0.450731
vt 0.308229 0.450731
vt 0.308229 0.450731
vt 0.308229 0.450731
vt 0.037598 0.374821
vt 0.037598 0.374821
vt 0.037598 0.374821
vt 0.037598 0.374821
vt 0.308229 0.450731
vt 0.308229 0.450731
vt 0.037598 0.374821
vt 0.037598 0.374821
vt 0.308229 0.450731
vt 0.308229 0.450731
vt 0.308229 0.450731
vt 0.308229 0.450731
vt 0.308229 0.450731
vt 0.308229 0.450731
vt 0.039307 0.372169
vt 0.039307 0.372169
vt 0.039307 0.372169
vt 0.039307 0.372169
vt 0.038070 0.277462
vt 0.038070 0.277462
vt 0.038070 0.277462
vt 0.038070 0.277462
vt 0.038070 0.277462
vt 0.038070 0.277462
vt 0.038070 0.277462
vt 0.038070 0.277462
vt 0.038070 0.277462
vt 0.038070 0.277462
vt 0.037598 0.374821
vt 0.037598 0.374821
vt 0.037598 0.374821
vt 0.037598 0.374821
vt 0.038070 0.277462
vt 0.038070 0.277462
vt 0.037598 0.374821
vt 0.037598 0.374821
vt 0.038070 0.277462
vt 0.038070 0.277462
vt 0.038070 0.277462
vt 0.038070 0.277462
vt 0.038070 0.277462
vt 0.038070 0.277462
vt 0.039307 0.372169
vt 0.039307 0.372169
vt 0.039307 0.372169
vt 0.039307 0.372169
vt 0.367503 0.399389
vt 0.367503 0.399389
vt 0.367503 0.399389
vt 0.367503 0.399389
vt 0.367503 0.399389
vt 0.367503 0.399389
vt 0.367503 0.399389
vt 0.367503 0.399389
vt 0.367503 0.399389
vt 0.367503 0.399389
vt 0.037598 0.374821
vt 0.037598 0.374821
vt 0.037598 0.374821
vt 0.037598 0.374821
vt 0.367503 0.399389
vt 0.367503 0.399389
vt 0.037598 0.374821
vt 0.037598 0.374821
vt 0.367503 0.399389
vt 0.367503 0.399389
vt 0.367503 0.399389
vt 0.367503 0.399389
vt 0.367503 0.399389
vt 0.367503 0.399389
vt 0.039307 0.372169
vt 0.039307 0.372169
vt 0.039307 0.372169
vt 0.039307 0.372169
vt 0.340100 0.490394
vt 0.340100 0.490394
vt 0.340100 0.490394
vt 0.340100 0.490394
vt 0.340100 0.490394
vt 0.340100 0.490394
vt 0.340100 0.490394
vt 0.340100 0.490394
vt 0.340100 0.490394
vt 0.340100 0.490394
vt 0.340100 0.490394
vt 0.037598 0.374821
vt 0.037598 0.374821
vt 0.037598 0.374821
vt 0.037598 0.374821
vt 0.340100 0.490394
vt 0.340100 0.490394
vt 0.037598 0.374821
vt 0.037598 0.374821
vt 0.340100 0.490394
vt 0.340100 0.490394
vt 0.340100 0.490394
vt 0.340100 0.490394
vt 0.340100 0.490394
vt 0.340100 0.490394
vt 0.340100 0.490394
vt 0.039307 0.372169
vt 0.039307 0.372169
vt 0.039307 0.372169
vt 0.039307 0.372169
vt 0.340100 0.490394
vt 0.340100 0.490394
vt 0.340100 0.490394
vt 0.112464 0.400771
vt 0.112464 0.400771
vt 0.112464 0.400771
vt 0.112464 0.400771
vt 0.340100 0.490394
vn 0.929263 -0.369419 0.000000
vn 0.929263 -0.369419 0.000000
vn 0.929263 -0.369419 0.000000
vn 0.929263 -0.369419 0.000000
vn 0.369064 0.929404 0.000000
vn 0.369064 0.929404 0.000000
vn 0.369064 0.929404 0.000000
vn 0.369064 0.929404 0.000000
vn -0.929263 0.369419 0.000000
vn -0.929263 0.369419 0.000000
vn -0.929263 0.369419 0.000000
vn -0.929263 0.369419 0.000000
vn -0.369062 -0.929405 0.000000
vn -0.369062 -0.929405 0.000000
vn -0.369062 -0.929405 0.000000
vn -0.369062 -0.929405 0.000000
vn 0.000000 0.000000 1.000000
vn 0.000000 0.000000 1.000000
vn 0.000000 0.000000 1.000000
vn 0.000000 0.000000 1.000000
vn -0.000000 0.000000 -1.000000
vn -0.000000 0.000000 -1.000000
vn -0.000000 0.000000 -1.000000
vn -0.000000 0.000000 -1.000000
vn 0.369052 0.929409 0.000000
vn 0.369052 0.929409 0.000000
vn 0.369052 0.929409 0.000000
vn 0.369052 0.929409 0.000000
vn 0.369051 0.929409 0.000000
vn 0.369051 0.929409 0.000000
vn 0.369051 0.929409 0.000000
vn 0.369051 0.929409 0.000000
vn 0.000002 0.000000 -1.000000
vn 0.000002 0.000000 -1.000000
vn 0.000002 0.000000 -1.000000
vn -0.000000 0.000000 -1.000000
vn -0.000000 0.000000 -1.000000
vn -0.000000 0.000000 -1.000000
vn 0.369066 0.929403 0.000000
vn 0.369066 0.929403 0.000000
vn 0.369066 0.929403 0.000000
vn 0.369066 0.929403 0.000000
vn 1.000000 0.000000 0.000000
vn 1.000000 0.000000 0.000000
vn 1.000000 0.000000 0.000000
vn 1.000000 0.000000 0.000000
vn 0.000000 1.000000 0.000000
vn 0.000000 1.000000 0.000000
vn 0.000000 1.000000 0.000000
vn 0.000000 1.000000 0.000000
vn -1.000000 0.000000 0.000000
vn -1.000000 0.000000 0.000000
vn -1.000000 0.000000 0.000000
vn -1.000000 0.000000 0.000000
vn 0.000000 -1.000000 0.000000
vn 0.000000 -1.000000 0.000000
vn 0.000000 -1.000000 0.000000
vn 0.000000 -1.000000 0.000000
vn 0.000000 0.000000 1.000000
vn 0.000000 0.000000 1.000000
vn 0.000000 0.000000 1.000000
vn 0.000000 0.000000 1.000000
vn 0.000000 0.000000 -1.000000
vn 0.000000 0.000000 -1.000000
vn 0.000000 0.000000 -1.000000
vn 0.000000 0.000000 -1.000000
vn 0.000000 1.000000 0.000000
vn 0.000000 1.000000 0.000000
vn 0.000000 1.000000 0.000000
vn 0.000000 1.000000 0.000000
vn 0.000000 1.000000 0.000000
vn 0.000000 1.000000 0.000000
vn 0.000000 1.000000 0.000000
vn 0.000000 1.000000 0.000000
vn 0.000000 0.000000 -1.000000
vn 0.000000 0.000000 -1.000000
vn 0.000000 0.000000 -1.000000
vn 0.000000 0.000000 -1.000000
vn 0.000000 0.000000 -1.000000
vn 0.000000 0.000000 -1.000000
vn 0.000000 1.000000 0.000000
vn 0.000000 1.000000 0.000000
vn 0.000000 1.000000 0.000000
vn 0.000000 1.000000 0.000000
vn 1.000000 0.000000 0.000000
vn 1.000000 0.000000 0.000000
vn 1.000000 0.000000 0.000000
vn 1.000000 0.000000 0.000000
vn 0.000000 1.000000 -0.000002
vn 0.000000 1.000000 -0.000002
vn 0.000000 1.000000 -0.000002
vn 0.000000 1.000000 -0.000002
vn -1.000000 0.000000 0.000000
vn -1.000000 0.000000 0.000000
vn -1.000000 0.000000 0.000000
vn -1.000000 0.000000 0.000000
vn 0.000000 -1.000000 0.000000
vn 0.000000 -1.000000 0.000000
vn 0.000000 -1.000000 0.000000
vn 0.000000 -1.000000 0.000000
vn 0.000000 0.000000 1.000000
vn 0.000000 0.000000 1.000000
vn 0.000000 0.000000 1.000000
vn 0.000000 0.000000 1.000000
vn 0.000000 0.000000 -1.000000
vn 0.000000 0.000000 -1.000000
vn 0.000000 0.000000 -1.000000
vn 0.000000 0.000000 -1.000000
vn 0.000000 1.000000 0.000000
vn 0.000000 1.000000 0.000000
vn 0.000000 1.000000 0.000000
vn 0.000000 1.000000 0.000000
vn 0.000000 1.000000 0.000000
vn 0.000000 1.000000 0.000000
vn 0.000000 1.000000 0.000000
vn 0.000000 1.000000 0.000000
vn 0.000000 0.000000 -1.000000
vn 0.000000 0.000000 -1.000000
vn 0.000000 0.000000 -1.000000
vn 0.000000 0.000000 -1.000000
vn 0.000000 0.000000 -1.000000
vn 0.000000 0.000000 -1.000000
vn 0.000000 1.000000 0.000000
vn 0.000000 1.000000 0.000000
vn 0.000000 1.000000 0.000000
vn 0.000000 1.000000 0.000000
vn 0.952271 -0.305254 0.000000
vn 0.952271 -0.305254 0.000000
vn 0.952271 -0.305254 0.000000
vn 0.952271 -0.305254 0.000000
vn 0.304952 0.952368 0.000003
vn 0.304952 0.952368 0.000003
vn 0.304952 0.952368 0.000003
vn 0.304952 0.952368 0.000003
vn -0.952270 0.305257 0.000000
vn -0.952270 0.305257 0.000000
vn -0.952270 0.305257 0.000000
vn -0.952270 0.305257 0.000000
vn -0.304947 -0.952369 0.000000
vn -0.304947 -0.952369 0.000000
vn -0.304947 -0.952369 0.000000
vn -0.304947 -0.952369 0.000000
vn 0.000000 0.000000 1.000000
vn 0.000000 0.000000 1.000000
vn 0.000000 0.000000 1.000000
vn 0.000000 0.000000 1.000000
vn -0.000000 0.000000 -1.000000
vn -0.000000 0.000000 -1.000000
vn -0.000000 0.000000 -1.000000
vn -0.000000 0.000000 -1.000000
vn 0.304956 0.952367 0.000000
vn 0.304956 0.952367 0.000000
vn 0.304956 0.952367 0.000000
vn 0.304956 0.952367 0.000000
vn 0.304945 0.952370 0.000000
vn 0.304945 0.952370 0.000000
vn 0.304945 0.952370 0.000000
vn 0.304945 0.952370 0.000000
vn 0.000002 0.000000 -1.000000
vn 0.000002 0.000000 -1.000000
vn 0.000002 0.000000 -1.000000
vn -0.000001 0.000000 -1.000000
vn -0.000001 0.000000 -1.000000
vn -0.000001 0.000000 -1.000000
vn 0.304952 0.952368 0.000000
vn 0.304952 0.952368 0.000000
vn 0.304952 0.952368 0.000000
vn 0.304952 0.952368 0.000000
vn 0.968602 -0.248615 0.000000
vn 0.968602 -0.248615 0.000000
vn 0.968602 -0.248615 0.000000
vn 0.968602 -0.248615 0.000000
vn 0.248355 0.968669 -0.000000
vn 0.248355 0.968669 -0.000000
vn 0.248355 0.968669 -0.000000
vn 0.248355 0.968669 -0.000000
vn -0.968602 0.248615 0.000000
vn -0.968602 0.248615 0.000000
vn -0.968602 0.248615 0.000000
vn -0.968602 0.248615 0.000000
vn -0.248355 -0.968669 0.000000
vn -0.248355 -0.968669 0.000000
vn -0.248355 -0.968669 0.000000
vn -0.248355 -0.968669 0.000000
vn -0.000000 0.000000 1.000000
vn -0.000000 0.000000 1.000000
vn -0.000000 0.000000 1.000000
vn -0.000000 0.000000 1.000000
vn 0.000000 0.000000 -1.000000
vn 0.000000 0.000000 -1.000000
vn 0.000000 0.000000 -1.000000
vn 0.000000 0.000000 -1.000000
vn 0.248357 0.968669 0.000000
vn 0.248357 0.968669 0.000000
vn 0.248357 0.968669 0.000000
vn 0.248357 0.968669 0.000000
vn 0.248352 0.968670 0.000000
vn 0.248352 0.968670 0.000000
vn 0.248352 0.968670 0.000000
vn 0.248352 0.968670 0.000000
vn -0.000002 0.000000 -1.000000
vn -0.000002 0.000000 -1.000000
vn -0.000002 0.000000 -1.000000
vn -0.000000 0.000000 -1.000000
vn -0.000000 0.000000 -1.000000
vn -0.000000 0.000000 -1.000000
vn 0.248355 0.968669 0.000000
vn 0.248355 0.968669 0.000000
vn 0.248355 0.968669 0.000000
vn 0.248355 0.968669 0.000000
vn 1.000000 0.000000 0.000000
vn 1.000000 0.000000 0.000000
vn 1.000000 0.000000 0.000000
vn 1.000000 0.000000 0.000000
vn 0.000000 1.000000 -0.000001
vn 0.000000 1.000000 -0.000001
vn 0.000000 1.000000 -0.000001
vn 0.000000 1.000000 -0.000001
vn -1.000000 0.000000 0.000000
vn -1.000000 0.000000 0.000000
vn -1.000000 0.000000 0.000000
vn 0.000000 -1.000000 0.000000
vn 0.000000 -1.000000 0.000000
vn 0.000000 -1.000000 0.000000
vn 0.000000 -1.000000 0.000000
vn 0.000000 0.000000 1.000000
vn 0.000000 0.000000 1.000000
vn 0.000000 0.000000 1.000000
vn 0.000000 0.000000 1.000000
vn 0.000000 0.000000 -1.000000
vn 0.000000 0.000000 -1.000000
vn 0.000000 0.000000 -1.000000
vn 0.000000 0.000000 -1.000000
vn 0.000000 1.000000 0.000000
vn 0.000000 1.000000 0.000000
vn 0.000000 1.000000 0.000000
vn 0.000000 1.000000 0.000000
vn 0.000000 1.000000 0.000000
vn 0.000000 1.000000 0.000000
vn 0.000000 1.000000 0.000000
vn 0.000000 1.000000 0.000000
vn 0.000000 0.000000 -1.000000
vn 0.000000 0.000000 -1.000000
vn 0.000000 0.000000 -1.000000
vn 0.000000 0.000000 -1.000000
vn 0.000000 0.000000 -1.000000
vn 0.000000 0.000000 -1.000000
vn 0.000000 1.000000 0.000000
vn 0.000000 1.000000 0.000000
vn 0.000000 1.000000 0.000000
vn 0.000000 1.000000 0.000000
vn 0.000000 0.000000 1.000000
vn 0.000000 0.000000 1.000000
vn 0.000000 0.000000 1.000000
vn 0.000000 0.000000 1.000000
vn 0.000000 0.000000 1.000000
vn 0.000000 0.000000 1.000000
vn 0.000000 0.000000 1.000000
vn 0.000000 0.000000 1.000000
vn -1.000000 0.000000 0.000000
vn -1.000000 0.000000 0.000000
vn -1.000000 0.000000 0.000000
vn -1.000000 0.000000 0.000000
vn -1.000000 0.000000 0.000000
vn -1.000000 0.000000 0.000000
vn -1.000000 0.000000 0.000000
vn 1.000000 0.000000 0.000000
vn 1.000000 0.000000 0.000000
vn 1.000000 0.000000 0.000000
vn 1.000000 0.000000 0.000000
vn 1.000000 0.000000 0.000000
vn 1.000000 0.000000 0.000000
s off
f 1/1/1 3/3/2 4/4/3 2/2/4
f 11/19/5 6/6/6 4/4/7 12/20/8
f 5/5/9 7/7/10 8/8/11 6/6/12
f 7/9/13 1/26/14 2/25/15 8/10/16
f 2/2/17 4/4/18 6/12/19 8/11/20
f 7/9/21 10/28/22 9/27/23 1/26/24
f 3/3/25 9/16/26 12/20/27 4/4/28
f 10/18/29 5/5/30 6/6/31 11/19/32
f 7/13/33 5/14/34 10/17/35
f 9/15/36 3/3/37 1/1/38
f 9/21/39 10/24/40 11/23/41 12/22/42
f 13/29/43 15/32/44 16/31/45 14/30/46
f 23/33/47 18/35/48 16/31/49 24/34/50
f 17/36/51 19/38/52 20/37/53 18/35/54
f 19/39/55 13/42/56 14/41/57 20/40/58
f 14/30/59 16/31/60 18/44/61 20/43/62
f 19/39/63 22/46/64 21/45/65 13/42/66
f 15/32/67 21/47/68 24/34/69 16/31/70
f 22/48/71 17/36/72 18/35/73 23/33/74
f 19/49/75 17/51/76 22/50/77
f 21/52/78 15/32/79 13/29/80
f 21/53/81 22/56/82 23/55/83 24/54/84
f 25/57/85 27/60/86 28/59/87 26/58/88
f 35/61/89 30/63/90 28/59/91 36/62/92
f 29/64/93 31/66/94 32/65/95 30/63/96
f 31/67/97 25/70/98 26/69/99 32/68/100
f 26/58/101 28/59/102 30/72/103 32/71/104
f 31/67/105 34/74/106 33/73/107 25/70/108
f 27/60/109 33/75/110 36/62/111 28/59/112
f 34/76/113 29/64/114 30/63/115 35/61/116
f 31/77/117 29/79/118 34/78/119
f 33/80/120 27/60/121 25/57/122
f 33/81/123 34/84/124 35/83/125 36/82/126
f 37/85/127 39/88/128 40/87/129 38/86/130
f 47/89/131 42/91/132 40/87/133 48/90/134
f 41/92/135 43/94/136 44/93/137 42/91/138
f 43/95/139 37/98/140 38/97/141 44/96/142
f 38/86/143 40/87/144 42/100/145 44/99/146
f 43/95/147 46/102/148 45/101/149 37/98/150
f 39/88/151 45/103/152 48/90/153 40/87/154
f 46/104/155 41/92/156 42/91/157 47/89/158
f 43/105/159 41/107/160 46/106/161
f 45/108/162 39/88/163 37/85/164
f 45/109/165 46/112/166 47/111/167 48/110/168
f 49/113/169 51/116/170 52/115/171 50/114/172
f 59/117/173 54/119/174 52/115/175 60/118/176
f 53/120/177 55/122/178 56/121/179 54/119/180
f 55/123/181 49/126/182 50/125/183 56/124/184
f 50/114/185 52/115/186 54/128/187 56/127/188
f 55/123/189 58/130/190 57/129/191 49/126/192
f 51/116/193 57/131/194 60/118/195 52/115/196
f 58/132/197 53/120/198 54/119/199 59/117/200
f 55/133/201 53/135/202 58/134/203
f 57/136/204 51/116/205 49/113/206
f 57/137/207 58/140/208 59/139/209 60/138/210
f 61/141/211 63/144/212 73/143/213 76/142/214
f 71/145/215 66/148/216 64/147/217 72/146/218
f 67/149/219 68/151/220 75/150/221
f 67/152/222 61/155/223 62/154/224 68/153/225
f 73/143/226 64/147/227 66/157/228 74/156/229
f 67/152/230 70/159/231 69/158/232 61/155/233
f 63/144/234 69/160/235 72/146/236 64/147/237
f 70/161/238 65/162/239 66/148/240 71/145/241
f 67/163/242 65/165/243 70/164/244
f 69/166/245 63/144/246 61/141/247
f 69/167/248 70/170/249 71/169/250 72/168/251
f 62/171/252 76/142/253 75/173/254 68/172/255
f 76/174/256 73/177/257 74/176/258 75/175/259
f 65/162/260 74/178/261 66/148/262
f 65/162/263 67/149/264 75/150/265 74/178/266
f 61/141/267 76/142/268 62/171/269
f 63/144/270 64/147/271 73/143/272
