# This file uses centimeters as units for non-parametric coordinates.

v -4.220184 0.000000 16.428528
v 4.962067 0.000000 16.428528
v -4.220184 14.089269 16.428528
v 4.962067 14.089264 16.428528
v -4.220184 35.556934 -16.428528
v 4.962067 35.556934 -16.428528
v -4.220184 0.000000 -16.428528
v 4.962067 0.000000 -16.428528
v 4.962067 35.556934 -3.253510
v -4.220184 35.556934 -3.253510
v 3.710052 35.556934 -3.253510
v -2.968262 35.556934 -3.253510
v 3.710052 35.556934 -15.063812
v -2.968262 35.556934 -15.063812
v -2.968262 15.379794 15.354004
v 3.710052 15.379793 15.354004
v -2.968262 0.960238 15.354004
v 3.710052 0.960236 15.354004
v 3.710052 0.960249 -15.063782
v -2.968262 0.960249 -15.063782
v -2.801636 1.505707 16.428528
v 3.543488 1.505707 16.428528
v 3.543488 12.583559 16.428528
v -2.801636 12.583563 16.428528
v 3.776337 42.190620 12.118591
v 3.057831 42.244698 12.118591
v 3.865936 43.381355 -13.400330
v 3.147400 43.435432 -13.400330
v 0.796539 2.580513 -12.459503
v 0.838928 3.144173 14.516235
v 0.120422 3.198250 14.516235
v 0.078003 2.634590 -12.459503
v 4.682373 41.728706 -14.754456
v 1.814514 3.606575 -14.754456
v 4.682373 41.728706 13.374634
v 1.814514 3.606575 13.374634
v 3.805939 30.078438 13.374634
v 4.630249 41.035591 15.337494
v 3.858093 30.771553 15.337494
v 2.117706 41.921638 -14.754456
v 1.241272 30.271370 13.034332
v -0.750183 3.799507 -14.754456
v -0.750183 3.799507 13.034332
v 2.037994 30.211433 13.034332
v 0.046539 3.739571 13.034332
v 1.007507 3.667305 13.374634
v 2.998962 30.139168 13.374634
v 3.051086 30.832283 15.337494
v 3.823242 41.096321 15.337494
v 3.875397 41.789436 13.374603
v 3.875397 41.789436 -13.503296
v 1.007507 3.667305 -13.503265
v 2.914398 41.861702 -13.503265
v 0.046539 3.739571 -13.503296
v 3.394897 41.825569 -13.972229
v 0.527008 3.703438 -13.972229
v 0.527008 3.703438 -15.325897
v 3.394897 41.825569 -15.325897
v 0.303467 17.805611 5.979736
v -0.636658 5.308418 5.979736
v -0.636658 5.308418 11.192383
v 0.303467 17.805611 11.192383
v 1.294769 30.982857 11.421997
v 2.117706 41.921638 11.421997
v 2.914398 41.861702 11.421997
v 2.091492 30.922920 11.421997
v 3.174316 32.470222 12.901001
v 3.732788 39.894051 12.901001
v 3.732788 39.894051 14.681976
v 3.174316 32.470222 14.681976
v -0.120239 6.060097 -13.651062
v -0.120239 6.060097 8.463043
v -1.744934 39.368599 -13.651062
v -3.774384 38.600716 8.278412
v -1.307892 6.002174 -13.651062
v -1.307892 6.002174 8.463043
v -4.962036 38.542793 8.278412
v -2.932587 39.310677 -13.651062
v -1.291870 30.080208 8.463043
v -1.744934 39.368599 -3.555817
v -2.512177 30.692268 8.463043
v -2.932587 39.310677 -2.688934
vt 0.132468 0.183916
vt 0.132320 0.183871
vt 0.132527 0.183453
vt 0.132669 0.183493
vt 0.132742 0.183011
vt 0.132532 0.182955
vt 0.132510 0.183436
vt 0.132705 0.183492
vt 0.132283 0.183893
vt 0.132487 0.183955
vt 0.132492 0.183833
vt 0.132663 0.183170
vt 0.132284 0.183771
vt 0.132449 0.183112
vt 0.132478 0.183120
vt 0.132321 0.183744
vt 0.132473 0.183790
vt 0.132634 0.183162
vt 0.132549 0.182984
vt 0.132703 0.183025
vt 0.132487 0.183955
vt 0.132283 0.183893
vt 0.132284 0.183771
vt 0.132492 0.183833
vt 0.338736 0.325973
vt 0.361977 0.325973
vt 0.361977 0.355148
vt 0.338736 0.355148
vt 0.101232 0.378797
vt 0.101308 0.379324
vt 0.101313 0.379317
vt 0.101236 0.378788
vt 0.100313 0.379192
vt 0.100368 0.378665
vt 0.100369 0.378657
vt 0.100314 0.379184
vt 0.003669 0.326203
vt 0.003669 0.326203
vt 0.003669 0.326203
vt 0.337622 0.337214
vt 0.361866 0.337214
vt 0.361866 0.349121
vt 0.337622 0.349121
vt 0.003669 0.326203
vt 0.003669 0.326203
vt 0.003669 0.326203
vt 0.003669 0.326203
vt 0.003669 0.326203
vt 0.003669 0.326203
vt 0.003669 0.326203
vt 0.003669 0.326203
vt 0.003669 0.326203
vt 0.003669 0.326203
vt 0.003669 0.326203
vt 0.003669 0.326203
vt 0.003669 0.326203
vt 0.003669 0.326203
vt 0.003669 0.326203
vt 0.003669 0.326203
vt 0.003669 0.326203
vt 0.003669 0.326203
vt 0.003669 0.326203
vt 0.003669 0.326203
vt 0.003669 0.326203
vt 0.003669 0.326203
vt 0.003669 0.326203
vt 0.003669 0.326203
vt 0.003669 0.326203
vt 0.003669 0.326203
vt 0.003669 0.326203
vt 0.003669 0.326203
vt 0.003669 0.326203
vt 0.003669 0.326203
vt 0.003669 0.326203
vt 0.003669 0.326203
vt 0.003669 0.326203
vt 0.003669 0.326203
vt 0.003669 0.326203
vt 0.003669 0.326203
vt 0.003669 0.326203
vt 0.003669 0.326203
vt 0.003669 0.326203
vt 0.003669 0.326203
vt 0.003669 0.326203
vt 0.003669 0.326203
vt 0.003669 0.326203
vt 0.003669 0.326203
vt 0.003669 0.326203
vt 0.003669 0.326203
vt 0.003669 0.326203
vt 0.003669 0.326203
vt 0.003669 0.326203
vt 0.003669 0.326203
vt 0.003669 0.326203
vt 0.003669 0.326203
vt 0.003669 0.326203
vt 0.003669 0.326203
vt 0.103762 0.205514
vt 0.103985 0.205445
vt 0.104283 0.206374
vt 0.104059 0.206445
vt 0.003669 0.326203
vt 0.390063 0.325850
vt 0.415949 0.325850
vt 0.415949 0.349350
vt 0.402894 0.357552
vt 0.390063 0.357552
vt 0.390063 0.325850
vt 0.390063 0.357552
vt 0.401880 0.357552
vt 0.415949 0.348712
vt 0.415949 0.325850
vt 0.390063 0.325850
vt 0.415949 0.325850
vt 0.415949 0.348712
vt 0.415949 0.357552
vt 0.401880 0.357552
vt 0.415949 0.357552
vt 0.390063 0.357552
vt 0.415949 0.357552
vn 0.000000 1.000000 0.000000
vn 0.000000 1.000000 0.000000
vn 0.000000 0.660294 0.751007
vn 0.000000 0.660294 0.751007
vn 0.000000 0.000000 -1.000000
vn 0.000000 0.000000 -1.000000
vn 0.000000 0.000000 -1.000000
vn 0.000000 0.000000 -1.000000
vn 0.000000 -1.000000 0.000000
vn 0.000000 -1.000000 0.000000
vn 0.000000 -1.000000 0.000000
vn 0.000000 -1.000000 0.000000
vn -1.000000 -0.000000 0.000000
vn -1.000000 -0.000000 0.000000
vn -1.000000 -0.000000 0.000000
vn -1.000000 -0.000000 0.000000
vn -1.000000 -0.000000 0.000000
vn 0.000000 0.000000 1.000000
vn 0.000000 0.000000 1.000000
vn 0.000000 0.000000 1.000000
vn 0.000000 0.000000 1.000000
vn 1.000000 -0.000000 0.000000
vn 1.000000 -0.000000 0.000000
vn 1.000000 -0.000000 0.000000
vn 1.000000 -0.000000 0.000000
vn 1.000000 -0.000000 0.000000
vn 0.021323 0.663827 0.747582
vn 0.032917 0.676463 0.735741
vn 0.032917 0.676463 0.735741
vn 0.024710 0.667547 0.744157
vn -0.032918 0.676463 0.735740
vn -0.021322 0.663825 0.747584
vn -0.024710 0.667547 0.744157
vn -0.032918 0.676463 0.735740
vn 0.000000 1.000000 0.000000
vn 0.000000 1.000000 0.000000
vn 0.000000 1.000000 0.000000
vn 0.000000 1.000000 0.000000
vn 0.000000 1.000000 0.000002
vn 0.000000 1.000000 0.000002
vn 0.000000 1.000000 0.000002
vn 0.000000 1.000000 0.000002
vn 0.000000 1.000000 0.000000
vn 0.000000 1.000000 0.000000
vn 0.000000 1.000000 0.000000
vn 0.000000 1.000000 0.000000
vn 0.021323 0.663827 0.747582
vn 0.024710 0.667547 0.744157
vn -0.024710 0.667547 0.744157
vn -0.021322 0.663825 0.747584
vn 0.000000 0.000000 -1.000000
vn 0.000000 0.000000 -1.000000
vn 0.000000 0.000000 -1.000000
vn 0.000000 0.000000 -1.000000
vn -1.000000 0.000000 0.000000
vn -1.000000 0.000000 0.000000
vn -1.000000 0.000000 0.000000
vn -1.000000 0.000000 0.000000
vn 1.000000 0.000000 0.000000
vn 1.000000 0.000000 0.000000
vn 1.000000 0.000000 0.000000
vn 1.000000 0.000000 0.000000
vn -1.000000 0.000000 0.000000
vn -1.000000 0.000000 0.000000
vn -1.000000 0.000000 0.000000
vn 0.000000 0.000001 1.000000
vn 0.000000 0.000001 1.000000
vn 0.000000 0.660294 0.751007
vn 0.000000 0.660294 0.751007
vn 1.000000 -0.000000 0.000000
vn 1.000000 -0.000000 0.000000
vn 1.000000 -0.000000 0.000000
vn 0.000000 0.000000 1.000000
vn 0.000000 0.000000 1.000000
vn 0.000000 0.000000 1.000000
vn 0.000000 0.000000 1.000000
vn -0.000001 0.000000 1.000000
vn -0.000001 0.000000 1.000000
vn -0.000001 0.000000 1.000000
vn -0.000001 0.000000 1.000000
vn 0.000000 0.000000 1.000000
vn 0.000000 0.000000 1.000000
vn 0.000000 0.000000 1.000000
vn 0.000000 0.000000 1.000000
vn -0.000000 0.000000 1.000000
vn -0.000000 0.000000 1.000000
vn -0.000000 0.000000 1.000000
vn -0.000000 0.000000 1.000000
vn 0.074845 0.994901 0.067604
vn 0.074845 0.994901 0.067604
vn 0.074845 0.994901 0.067604
vn 0.074845 0.994901 0.067604
vn -0.075015 -0.997167 0.005629
vn -0.075015 -0.997167 0.005629
vn -0.075015 -0.997167 0.005629
vn -0.075015 -0.997167 0.005629
vn -0.001584 -0.021061 0.999777
vn -0.001584 -0.021061 0.999777
vn -0.001584 -0.021061 0.999777
vn -0.001584 -0.021061 0.999777
vn 0.001866 0.024810 -0.999690
vn 0.001866 0.024810 -0.999690
vn 0.001866 0.024810 -0.999690
vn 0.001866 0.024810 -0.999690
vn 0.997182 -0.075017 0.000000
vn 0.997182 -0.075017 0.000000
vn 0.997182 -0.075017 -0.000000
vn 0.997182 -0.075017 0.000000
vn -0.997182 0.075017 -0.000000
vn -0.997182 0.075017 -0.000000
vn -0.997182 0.075017 -0.000000
vn -0.997182 0.075017 -0.000000
vn -0.997182 0.075019 0.000000
vn -0.997182 0.075019 0.000000
vn -0.997182 0.075019 0.000000
vn -0.997182 0.075015 0.000000
vn -0.997182 0.075015 0.000000
vn -0.997182 0.075015 0.000000
vn -0.997182 0.075015 0.000000
vn 0.997182 -0.075017 0.000000
vn 0.997182 -0.075017 0.000000
vn 0.997182 -0.075017 0.000000
vn 0.997182 -0.075016 0.000000
vn 0.997182 -0.075016 0.000000
vn 0.997182 -0.075016 0.000000
vn 0.997182 -0.075016 0.000000
vn 0.997182 -0.075017 -0.000008
vn 0.997182 -0.075017 -0.000008
vn 0.997182 -0.075017 -0.000008
vn 0.997182 -0.075017 -0.000008
vn 0.075020 0.997182 0.000000
vn 0.075020 0.997182 0.000000
vn 0.075020 0.997182 0.000000
vn 0.075020 0.997182 0.000000
vn 0.000001 0.000000 1.000000
vn 0.000001 0.000000 1.000000
vn 0.000001 0.000000 1.000000
vn 0.000001 0.000000 1.000000
vn -0.075017 -0.997182 0.000000
vn -0.075017 -0.997182 0.000000
vn -0.075017 -0.997182 0.000000
vn -0.075017 -0.997182 0.000000
vn -0.075041 -0.997181 0.000000
vn -0.075041 -0.997180 0.000000
vn -0.075041 -0.997180 0.000000
vn -0.075041 -0.997180 0.000000
vn -0.000001 0.000000 1.000000
vn -0.000001 0.000000 1.000000
vn -0.000001 0.000000 1.000000
vn -0.000001 0.000000 1.000000
vn -0.070739 -0.939985 0.333802
vn -0.070739 -0.939985 0.333802
vn -0.070739 -0.939985 0.333802
vn -0.070739 -0.939985 0.333802
vn 0.000000 0.000000 1.000000
vn 0.000000 0.000000 1.000000
vn 0.000000 0.000000 1.000000
vn 0.000000 0.000000 1.000000
vn 0.070731 0.939986 0.333801
vn 0.070731 0.939986 0.333801
vn 0.070731 0.939986 0.333801
vn 0.070731 0.939986 0.333801
vn 0.075044 0.997180 0.000000
vn 0.075044 0.997180 0.000000
vn 0.075044 0.997180 0.000000
vn 0.075044 0.997180 0.000000
vn -0.997182 0.075017 -0.000000
vn -0.997182 0.075017 -0.000000
vn -0.997182 0.075017 0.000000
vn -0.997182 0.075017 0.000000
vn -0.997182 0.075027 -0.000001
vn -0.997182 0.075017 -0.000000
vn -0.997182 0.075017 -0.000000
vn -0.997182 0.075023 -0.000001
vn 0.695488 -0.052321 0.716630
vn 0.695488 -0.052321 0.716630
vn 0.695488 -0.052321 0.716630
vn 0.695488 -0.052321 0.716630
vn -0.075005 -0.997183 -0.000004
vn -0.075005 -0.997183 -0.000004
vn -0.075005 -0.997183 -0.000004
vn -0.075005 -0.997183 -0.000004
vn -0.406298 0.030565 -0.913229
vn -0.406298 0.030565 -0.913229
vn -0.406298 0.030565 -0.913229
vn -0.406298 0.030565 -0.913229
vn 0.075005 0.997183 0.000006
vn 0.075005 0.997183 0.000006
vn 0.075005 0.997183 0.000006
vn 0.075005 0.997183 0.000006
vn -0.075016 -0.997182 0.000008
vn -0.075016 -0.997182 0.000008
vn -0.075016 -0.997182 0.000008
vn -0.075016 -0.997182 0.000008
vn -0.695477 0.052320 0.716641
vn -0.695477 0.052321 0.716641
vn -0.695477 0.052321 0.716641
vn -0.695477 0.052320 0.716641
vn 0.075018 0.997182 -0.000008
vn 0.075018 0.997182 -0.000008
vn 0.075018 0.997182 -0.000008
vn 0.075018 0.997182 -0.000008
vn 0.403582 -0.030361 -0.914440
vn 0.403582 -0.030361 -0.914440
vn 0.403582 -0.030361 -0.914440
vn 0.403582 -0.030361 -0.914440
vn -0.997182 0.075016 -0.000000
vn -0.997182 0.075016 -0.000000
vn -0.997182 0.075016 -0.000000
vn -0.997182 0.075016 -0.000000
vn -0.997182 0.075025 0.000000
vn -0.997182 0.075025 0.000000
vn -0.997182 0.075025 0.000000
vn -0.997182 0.075025 0.000000
vn -0.997182 0.075016 0.000004
vn -0.997182 0.075016 0.000004
vn -0.997182 0.075016 0.000004
vn -0.997182 0.075016 0.000004
vn -0.997182 0.075016 0.000004
vn -0.997182 0.075017 -0.000000
vn -0.997182 0.075017 -0.000000
vn -0.997182 0.075016 0.000004
vn 0.997182 -0.075016 0.000000
vn 0.997182 -0.075016 -0.000000
vn 0.997182 -0.075016 -0.000000
vn 0.997182 -0.075016 0.000000
vn 0.997182 -0.075016 -0.000000
vn 0.997182 -0.075016 0.000000
vn 0.068600 0.911886 0.404671
vn 0.068600 0.911886 0.404671
vn 0.010256 0.136327 0.990611
vn 0.010256 0.136325 0.990611
vn 0.010256 0.136325 0.990611
vn 0.010256 0.136327 0.990611
vn 0.000000 0.000000 1.000000
vn 0.000000 0.000000 1.000000
vn -0.997182 0.075017 -0.000000
vn -0.997182 0.075017 -0.000000
vn -0.997182 0.075017 -0.000001
vn 0.997182 -0.075016 -0.000000
vn 0.997182 -0.075016 -0.000000
vn 0.997182 -0.075016 -0.000001
vn 0.997182 -0.075016 -0.000001
vn -0.997182 0.075015 -0.000001
vn -0.997182 0.075016 -0.000001
vn -0.997182 0.075017 -0.000000
vn -0.997182 0.075017 -0.000000
vn -0.997182 0.075017 -0.000000
vn -0.997182 0.075017 -0.000000
vn -0.997181 0.075028 0.000000
vn -0.997182 0.075017 -0.000000
vn -0.997182 0.075017 -0.000000
vn -0.997182 0.075017 -0.000000
vn -0.997182 0.075017 -0.000000
vn -0.997182 0.075016 -0.000004
vn -0.997182 0.075016 -0.000001
vn -0.997182 0.075015 -0.000001
vn -0.997182 0.075016 -0.000005
vn -0.997182 0.075023 -0.000001
vn -0.997182 0.075017 -0.000000
vn -0.997182 0.075016 -0.000001
vn -0.997182 0.075016 -0.000004
vn -0.998812 -0.048719 0.000000
vn -0.998812 -0.048719 0.000000
vn -0.998452 -0.055388 -0.005167
vn -0.998598 -0.052834 -0.003188
vn -0.998812 -0.048719 0.000000
vn 0.998812 0.048719 -0.000000
vn 0.998812 0.048719 -0.000000
vn 0.998578 0.053198 0.003470
vn 0.998419 0.055940 0.005595
vn 0.998812 0.048719 -0.000000
vn 0.048713 -0.998813 0.000000
vn 0.048713 -0.998813 0.000000
vn -0.998812 -0.048719 0.000000
vn -0.998812 -0.048719 0.000000
vn 0.000000 0.000000 1.000000
vn 0.000619 0.002690 0.999996
vn 0.002296 0.009976 0.999948
vn -0.998812 -0.048719 0.000000
vn -0.025811 0.997705 0.062604
vn -0.042737 0.998952 0.016392
vn -0.032241 0.998463 0.045085
vn -0.998812 -0.048719 0.000000
vn -0.000000 0.000000 -1.000000
vn -0.000000 0.000000 -1.000000
vn -0.998812 -0.048719 0.000000
vn -0.998812 -0.048719 0.000000
vn -0.998598 -0.052834 -0.003188
vn -0.998452 -0.055388 -0.005167
vn -0.998812 -0.048719 0.000000
vn 0.998419 0.055940 0.005595
vn 0.998578 0.053198 0.003470
vn 0.998812 0.048719 -0.000000
vn 0.002296 0.009976 0.999948
vn 0.000619 0.002690 0.999996
vn 0.005576 0.024229 0.999691
vn -0.998812 -0.048719 0.000000
vn -0.032241 0.998463 0.045085
vn -0.042737 0.998952 0.016392
vn -0.048713 0.998813 0.000000
vn -0.998812 -0.048719 0.000000
s off
f 17/1/1 18/2/2 19/3/3 20/4/4
f 5/5/5 6/6/6 8/7/7 7/8/8
f 7/8/9 8/7/10 2/9/11 1/10/12
f 7/8/13 1/10/14 3/11/15 10/12/16 5/5/17
f 21/25/18 22/26/19 23/27/20 24/28/21
f 2/9/22 8/7/23 6/6/24 9/14/25 4/13/26
f 4/13/27 9/14/28 11/15/29 16/16/30
f 10/12/31 3/11/32 15/17/33 12/18/34
f 9/14/35 6/6/36 13/19/37 11/15/38
f 6/6/39 5/5/40 14/20/41 13/19/42
f 5/5/43 10/12/44 12/18/45 14/20/46
f 4/13/47 16/16/48 15/17/49 3/11/50
f 15/17/51 16/16/52 18/2/53 17/1/54
f 16/16/55 11/15/56 19/3/57 18/2/58
f 12/18/59 15/17/60 17/1/61 20/4/62
f 11/15/63 13/19/64 19/3/65
f 13/19/66 14/20/67 20/4/68 19/3/69
f 14/20/70 12/18/71 20/4/72
f 1/10/73 2/9/74 22/22/75 21/21/76
f 2/9/77 4/13/78 23/23/79 22/22/80
f 4/13/81 3/11/82 24/24/83 23/23/84
f 3/11/85 1/10/86 21/21/87 24/24/88
f 25/29/89 27/30/90 28/31/91 26/32/92
f 29/33/93 30/34/94 31/35/95 32/36/96
f 30/34/97 25/29/98 26/32/99 31/35/100
f 28/31/101 27/30/102 29/33/103 32/36/104
f 30/34/105 29/33/106 27/30/107 25/29/108
f 28/31/109 32/36/110 31/35/111 26/32/112
f 40/37/113 63/38/114 64/39/115
f 59/40/116 60/41/117 61/42/118 62/43/119
f 33/44/120 35/45/121 37/46/122
f 33/44/123 37/46/124 36/47/125 34/48/126
f 35/49/127 38/50/128 39/51/129 37/52/130
f 64/39/131 65/53/132 53/54/133 40/37/134
f 45/55/135 44/56/136 41/57/137 43/58/138
f 42/59/139 54/60/140 45/55/141 43/58/142
f 34/61/143 36/62/144 46/63/145 52/64/146
f 36/62/147 37/65/148 47/66/149 46/63/150
f 37/67/151 39/68/152 48/69/153 47/70/154
f 39/68/155 38/71/156 49/72/157 48/69/158
f 38/71/159 35/73/160 50/74/161 49/72/162
f 35/75/163 33/76/164 51/77/165 50/78/166
f 67/79/167 52/64/168 46/63/169 47/70/170
f 50/78/171 68/80/172 69/81/173 49/72/174
f 53/82/175 54/60/176 56/83/177 55/84/178
f 54/60/179 42/59/180 57/85/181 56/83/182
f 42/59/183 40/37/184 58/86/185 57/85/186
f 40/37/187 53/82/188 55/84/189 58/86/190
f 34/61/191 52/64/192 56/87/193 57/88/194
f 52/64/195 51/77/196 55/89/197 56/87/198
f 51/77/199 33/76/200 58/90/201 55/89/202
f 33/76/203 34/61/204 57/88/205 58/90/206
f 40/37/207 42/59/208 60/91/209 59/92/210
f 42/59/211 43/58/212 61/93/213 60/91/214
f 43/58/215 41/57/216 62/94/217 61/93/218
f 41/57/219 63/95/220 59/92/221 62/94/222
f 53/82/223 66/96/224 54/60/225
f 65/97/226 66/96/227 53/82/228
f 41/57/229 44/56/230 66/96/231 63/95/232
f 63/95/233 66/96/234 65/53/235 64/39/236
f 59/92/237 63/95/238 40/37/239
f 54/60/240 66/96/241 44/56/242 45/55/243
f 67/98/244 70/99/245 69/100/246 68/101/247
f 51/77/248 68/80/249 50/78/250
f 51/77/251 52/64/252 67/79/253 68/80/254
f 48/69/255 70/102/256 67/79/257 47/70/258
f 49/72/259 69/81/260 70/102/261 48/69/262
f 75/103/263 76/104/264 81/105/265 82/106/266 78/107/267
f 71/108/268 73/109/269 80/110/270 79/111/271 72/112/272
f 71/113/273 72/114/274 76/104/275 75/103/276
f 72/114/277 79/115/278 81/105/279 76/104/280
f 74/116/281 80/117/282 82/106/283 77/118/284
f 73/119/285 71/113/286 75/103/287 78/107/288
f 82/106/289 81/105/290 77/118/291
f 79/111/292 80/110/293 74/120/294
f 81/105/295 79/115/296 74/116/297 77/118/298
f 82/106/299 80/117/300 73/119/301 78/107/302
