# This file uses centimeters as units for non-parametric coordinates.

v -31.200878 11.437031 23.775517
v 31.200850 11.437031 23.775517
v -31.200878 85.782242 23.775517
v 31.200850 85.782242 23.775517
v -31.200878 85.782242 -23.775505
v 31.200850 85.782242 -23.775505
v -31.200878 11.437031 -23.775505
v 31.200850 11.437031 -23.775505
v -27.680286 85.782242 20.254461
v 27.678982 85.782242 20.254461
v 27.678982 85.782242 -20.253521
v -27.680286 85.782242 -20.253521
v -27.680286 113.727158 20.254461
v 27.678982 113.727158 20.254461
v 27.678982 106.525589 -20.253521
v -27.680286 106.525589 -20.253521
v -23.930645 91.980095 20.254461
v 23.929459 91.980095 20.254461
v 23.929459 106.064072 20.254461
v -23.930645 106.064072 20.254461
v -23.930645 91.980095 16.959959
v 23.929459 91.980095 16.959959
v -23.930645 88.974792 -12.743097
v 23.929459 88.974792 -12.743097
v 23.929459 98.862511 -12.743097
v -23.930645 98.862511 -12.743097
v -23.930645 48.280800 16.959959
v 23.929459 48.280800 16.959959
v 23.929459 48.280800 -12.743097
v -23.930645 48.280800 -12.743097
v -26.178642 11.437031 -18.753096
v 26.178383 11.437031 -18.753096
v 26.178383 11.437031 18.753283
v -26.178642 11.437031 18.753283
v -26.178642 0.000000 -18.753096
v 26.178383 0.000000 -18.753096
v 26.178383 0.000000 18.753283
v -26.178642 0.000000 18.753283
v -31.200878 32.788662 23.775517
v -31.200878 78.300583 23.775517
v -28.646038 65.368484 23.775517
v -31.200851 68.303894 19.430153
v 31.200850 20.400831 23.775517
v 31.200850 71.036781 23.775517
v 31.200878 24.477379 20.921724
v 26.047466 27.612875 23.775517
v 31.200850 70.404602 -23.775505
v 31.200850 41.552269 -23.775505
v 27.621565 52.219418 -23.775517
v 31.200853 50.492565 -17.672848
vt 0.080369 0.306409
vt 0.080369 0.306409
vt 0.080369 0.306409
vt 0.080369 0.306409
vt 0.080369 0.306409
vt 0.080369 0.306409
vt 0.080369 0.306409
vt 0.080369 0.306409
vt 0.080369 0.306409
vt 0.080369 0.306409
vt 0.080369 0.306409
vt 0.080369 0.306409
vt 0.080369 0.306409
vt 0.080369 0.306409
vt 0.080369 0.306409
vt 0.080369 0.306409
vt 0.080369 0.306409
vt 0.080369 0.306409
vt 0.089966 0.326500
vt 0.089966 0.326500
vt 0.089966 0.326500
vt 0.089966 0.326500
vt 0.080369 0.306409
vt 0.080369 0.306409
vt 0.080369 0.306409
vt 0.080369 0.306409
vt 0.080369 0.306409
vt 0.080369 0.306409
vt 0.080369 0.306409
vt 0.080369 0.306409
vt 0.080369 0.306409
vt 0.080369 0.306409
vt 0.080369 0.306409
vt 0.080369 0.306409
vt 0.080369 0.306409
vt 0.080369 0.306409
vt 0.080369 0.306409
vt 0.080369 0.306409
vt 0.080369 0.306409
vt 0.080369 0.306409
vt 0.080369 0.306409
vt 0.080369 0.306409
vt 0.080369 0.306409
vt 0.080369 0.306409
vt 0.089966 0.326500
vt 0.089966 0.326500
vt 0.089966 0.326500
vt 0.089966 0.326500
vt 0.089966 0.326500
vt 0.089966 0.326500
vt 0.089966 0.326500
vt 0.089966 0.326500
vt 0.080369 0.306409
vt 0.080369 0.306409
vt 0.080369 0.306409
vt 0.080369 0.306409
vt 0.080369 0.306409
vt 0.080369 0.306409
vt 0.080369 0.306409
vt 0.080369 0.306409
vt 0.080369 0.306409
vt 0.080369 0.306409
vt 0.080369 0.306409
vt 0.080369 0.306409
vt 0.080369 0.306409
vt 0.080369 0.306409
vt 0.080369 0.306409
vn 0.000000 0.000000 1.000000
vn 0.000000 0.000000 1.000000
vn 0.000000 0.000000 1.000000
vn 0.000000 0.000000 1.000000
vn 0.000000 0.000000 1.000000
vn 0.000000 0.000000 1.000000
vn 0.000000 0.000000 1.000000
vn 0.000000 0.000000 1.000000
vn 0.000000 0.000000 1.000000
vn 0.000000 0.000000 1.000000
vn 0.000000 0.000000 1.000000
vn 0.000000 0.000000 1.000000
vn 0.000000 0.000000 1.000000
vn 0.000000 0.000000 1.000000
vn 0.000000 0.000000 1.000000
vn 0.000000 0.000000 1.000000
vn 0.000000 0.000000 1.000000
vn 0.000000 0.000000 1.000000
vn 0.000000 0.000000 1.000000
vn 0.000000 0.000000 1.000000
vn 0.000000 0.000000 1.000000
vn 0.000000 0.000000 1.000000
vn 0.000000 0.000000 1.000000
vn 0.000000 0.000000 1.000000
vn 0.000000 0.984562 -0.175037
vn 0.000000 0.984562 -0.175037
vn 0.000000 0.984562 -0.175037
vn 0.000000 0.984562 -0.175037
vn 0.000000 0.000000 -1.000000
vn 0.000000 0.000000 -1.000000
vn 0.000000 0.000000 -1.000000
vn 0.000000 0.000000 -1.000000
vn 0.000000 0.000000 -1.000000
vn 0.000000 0.000000 -1.000000
vn -0.000001 0.000001 -1.000000
vn -0.000001 0.000001 -1.000000
vn -0.000001 0.000001 -1.000000
vn 0.000000 -0.000001 -1.000000
vn 0.000000 -0.000001 -1.000000
vn 0.000000 -0.000001 -1.000000
vn 0.000000 0.000000 -1.000000
vn 0.000000 0.000000 -1.000000
vn 0.000000 0.000000 -1.000000
vn 0.000000 -1.000000 0.000000
vn 0.000000 -1.000000 0.000000
vn 0.000000 -1.000000 0.000000
vn 0.000000 -1.000000 0.000000
vn 1.000000 0.000000 0.000000
vn 1.000000 0.000000 0.000000
vn 1.000000 0.000000 0.000000
vn 1.000000 -0.000005 0.000001
vn 1.000000 -0.000005 0.000001
vn 1.000000 -0.000005 0.000001
vn 1.000000 0.000000 0.000000
vn 1.000000 0.000000 0.000000
vn 1.000000 0.000000 0.000000
vn 1.000000 0.000001 0.000000
vn 1.000000 0.000001 0.000000
vn 1.000000 0.000001 0.000000
vn 1.000000 0.000000 -0.000001
vn 1.000000 0.000000 -0.000001
vn 1.000000 0.000000 -0.000001
vn 1.000000 -0.000001 -0.000001
vn 1.000000 -0.000001 -0.000001
vn 1.000000 -0.000001 -0.000001
vn 1.000000 0.000000 -0.000001
vn 1.000000 0.000000 -0.000001
vn 1.000000 0.000000 -0.000001
vn 1.000000 0.000001 -0.000001
vn 1.000000 0.000001 -0.000001
vn 1.000000 0.000001 -0.000001
vn -1.000000 0.000000 0.000000
vn -1.000000 0.000000 0.000000
vn -1.000000 0.000000 0.000000
vn -1.000000 0.000000 0.000000
vn -1.000000 0.000000 0.000000
vn -1.000000 0.000000 0.000000
vn -1.000000 0.000001 0.000001
vn -1.000000 0.000001 0.000001
vn -1.000000 0.000001 0.000001
vn -1.000000 0.000000 0.000000
vn -1.000000 0.000000 0.000000
vn -1.000000 0.000000 0.000000
vn -1.000000 -0.000003 -0.000000
vn -1.000000 -0.000003 -0.000000
vn -1.000000 -0.000003 -0.000000
vn 0.000000 1.000000 0.000000
vn 0.000000 1.000000 0.000000
vn 0.000000 1.000000 0.000000
vn 0.000000 1.000000 0.000000
vn 0.000000 1.000000 0.000000
vn 0.000000 1.000000 0.000000
vn 0.000000 1.000000 0.000000
vn 0.000000 1.000000 0.000000
vn 0.000000 1.000000 -0.000001
vn 0.000000 1.000000 -0.000001
vn 0.000000 1.000000 -0.000001
vn 0.000000 1.000000 -0.000001
vn 0.000000 1.000000 0.000000
vn 0.000000 1.000000 0.000000
vn 0.000000 1.000000 0.000000
vn 0.000000 1.000000 0.000000
vn 0.000000 0.000000 1.000000
vn 0.000000 0.000000 1.000000
vn 0.000000 0.000000 1.000000
vn 0.000000 0.000000 1.000000
vn 1.000000 0.000000 0.000000
vn 1.000000 0.000000 0.000000
vn 1.000000 0.000000 0.000000
vn 1.000000 0.000000 0.000000
vn 0.000000 0.000000 -1.000000
vn 0.000000 0.000000 -1.000000
vn 0.000000 0.000000 -1.000000
vn 0.000000 0.000000 -1.000000
vn -1.000000 0.000000 0.000000
vn -1.000000 0.000000 0.000000
vn -1.000000 0.000000 0.000000
vn -1.000000 0.000000 0.000000
vn 0.000000 0.000000 1.000000
vn 0.000000 0.000000 1.000000
vn 0.000000 0.000000 1.000000
vn 0.000000 0.000000 1.000000
vn 0.000000 0.000000 1.000000
vn 0.000000 0.000000 1.000000
vn 0.000000 0.000000 1.000000
vn 0.000000 0.000000 1.000000
vn 0.000000 0.000000 1.000000
vn 0.000000 0.000000 1.000000
vn 0.000000 0.000000 1.000000
vn 0.000000 0.000000 1.000000
vn 0.000000 0.000000 1.000000
vn 0.000000 0.000000 1.000000
vn 0.000000 0.000000 1.000000
vn 0.000000 0.000000 1.000000
vn 0.000000 1.000000 0.000000
vn 0.000000 1.000000 0.000000
vn 0.000000 1.000000 0.000000
vn 0.000000 1.000000 0.000000
vn -1.000000 0.000000 0.000000
vn -1.000000 0.000000 0.000000
vn -1.000000 0.000000 0.000000
vn 1.000000 0.000000 0.000000
vn 1.000000 0.000000 0.000000
vn 1.000000 0.000000 0.000000
vn 0.000000 1.000000 0.000000
vn 0.000000 1.000000 0.000000
vn 0.000000 1.000000 0.000000
vn 0.000000 1.000000 0.000000
vn -1.000000 -0.000000 0.000000
vn -1.000000 -0.000000 0.000000
vn -1.000000 -0.000000 0.000000
vn -1.000000 -0.000000 0.000000
vn 0.000000 -0.977003 0.213226
vn 0.000000 -0.977003 0.213226
vn 0.000000 -0.977003 0.213226
vn 0.000000 -0.977003 0.213226
vn 1.000000 0.000000 0.000000
vn 1.000000 0.000000 0.000000
vn 1.000000 0.000000 0.000000
vn 1.000000 0.000000 0.000000
vn 0.000000 0.000000 -1.000000
vn 0.000000 0.000000 -1.000000
vn 0.000000 0.000000 -1.000000
vn 0.000000 0.000000 -1.000000
vn -1.000000 0.000000 0.000000
vn -1.000000 0.000000 0.000000
vn -1.000000 0.000000 0.000000
vn -1.000000 0.000000 0.000000
vn 0.000000 0.000000 1.000000
vn 0.000000 0.000000 1.000000
vn 0.000000 0.000000 1.000000
vn 0.000000 0.000000 1.000000
vn 1.000000 0.000000 0.000000
vn 1.000000 0.000000 0.000000
vn 1.000000 0.000000 0.000000
vn 1.000000 0.000000 0.000000
vn 0.000000 -1.000000 -0.000000
vn 0.000000 -1.000000 -0.000000
vn 0.000000 -1.000000 -0.000000
vn 0.000000 -1.000000 -0.000000
vn 0.000000 -1.000000 0.000000
vn 0.000000 -1.000000 0.000000
vn 0.000000 -1.000000 0.000000
vn 0.000000 -1.000000 0.000000
vn 0.000000 -1.000000 0.000000
vn 0.000000 -1.000000 0.000000
vn 0.000000 -1.000000 0.000000
vn 0.000000 -1.000000 0.000000
vn 0.000000 -1.000000 0.000000
vn 0.000000 -1.000000 0.000000
vn 0.000000 -1.000000 0.000000
vn 0.000000 -1.000000 0.000000
vn 0.000000 0.000000 -1.000000
vn 0.000000 0.000000 -1.000000
vn 0.000000 0.000000 -1.000000
vn 0.000000 0.000000 -1.000000
vn 1.000000 0.000000 0.000000
vn 1.000000 0.000000 0.000000
vn 1.000000 0.000000 0.000000
vn 1.000000 0.000000 0.000000
vn 0.000000 0.000000 1.000000
vn 0.000000 0.000000 1.000000
vn 0.000000 0.000000 1.000000
vn 0.000000 0.000000 1.000000
vn -1.000000 0.000000 0.000000
vn -1.000000 0.000000 0.000000
vn -1.000000 0.000000 0.000000
vn -1.000000 0.000000 0.000000
vn -0.896011 -0.177014 0.407223
vn -0.896011 -0.177014 0.407223
vn -0.896011 -0.177014 0.407223
vn -0.840093 0.065878 0.538427
vn -0.840093 0.065878 0.538427
vn -0.840093 0.065878 0.538427
vn 0.458206 -0.054378 0.887181
vn 0.458206 -0.054378 0.887181
vn 0.458206 -0.054378 0.887181
vn 0.625921 0.447254 0.638894
vn 0.625921 0.447254 0.638894
vn 0.625922 0.447254 0.638894
vn 0.830120 -0.163387 -0.533109
vn 0.830120 -0.163387 -0.533109
vn 0.830120 -0.163387 -0.533109
vn 0.859320 0.288338 -0.422411
vn 0.859320 0.288338 -0.422411
vn 0.859320 0.288338 -0.422411
s off
f 1/1/1 2/2/2 39/53/3
f 2/2/4 43/57/5 39/53/6
f 43/57/7 46/60/8 39/53/9
f 4/4/10 3/3/11 44/58/12
f 3/3/13 40/54/14 44/58/15
f 40/54/16 41/55/17 44/58/18
f 44/58/19 41/55/20 46/60/21
f 46/60/22 41/55/23 39/53/24
f 13/19/25 14/20/26 15/21/27 16/22/28
f 5/5/29 6/6/30 7/7/31
f 6/6/32 47/61/33 7/7/34
f 47/61/35 49/65/36 7/7/37
f 49/65/38 48/63/39 7/7/40
f 48/63/41 8/8/42 7/7/43
f 35/41/44 36/42/45 37/43/46 38/44/47
f 2/2/48 8/11/49 43/57/50
f 43/57/51 8/11/52 45/59/53
f 4/4/54 44/58/55 6/12/56
f 44/58/57 45/59/58 6/12/59
f 8/11/60 48/64/61 45/59/62
f 48/64/63 50/66/64 45/59/65
f 6/12/66 45/59/67 47/62/68
f 50/66/69 47/62/70 45/59/71
f 7/13/72 1/1/73 5/14/74
f 1/1/75 39/53/76 5/14/77
f 39/53/78 42/56/79 5/14/80
f 3/3/81 5/14/82 40/54/83
f 42/56/84 40/54/85 5/14/86
f 3/3/87 4/4/88 10/16/89 9/15/90
f 4/4/91 6/6/92 11/17/93 10/16/94
f 6/6/95 5/5/96 12/18/97 11/17/98
f 5/5/99 3/3/100 9/15/101 12/18/102
f 23/29/103 24/30/104 25/31/105 26/32/106
f 10/45/107 11/46/108 15/21/109 14/20/110
f 11/46/111 12/47/112 16/22/113 15/21/114
f 12/47/115 9/48/116 13/19/117 16/22/118
f 9/48/119 10/45/120 18/49/121 17/50/122
f 10/45/123 14/20/124 19/51/125 18/49/126
f 14/20/127 13/19/128 20/52/129 19/51/130
f 13/19/131 9/48/132 17/50/133 20/52/134
f 17/23/135 18/24/136 22/28/137 21/27/138
f 18/24/139 19/25/140 22/28/141
f 20/26/142 17/23/143 21/27/144
f 27/33/145 28/34/146 29/35/147 30/36/148
f 22/28/149 19/25/150 25/31/151 24/30/152
f 19/25/153 20/26/154 26/32/155 25/31/156
f 20/26/157 21/27/158 23/29/159 26/32/160
f 21/27/161 22/28/162 28/34/163 27/33/164
f 22/28/165 24/30/166 29/35/167 28/34/168
f 24/30/169 23/29/170 30/36/171 29/35/172
f 23/29/173 21/27/174 27/33/175 30/36/176
f 7/7/177 8/8/178 32/38/179 31/37/180
f 8/8/181 2/10/182 33/39/183 32/38/184
f 2/10/185 1/9/186 34/40/187 33/39/188
f 1/9/189 7/7/190 31/37/191 34/40/192
f 31/37/193 32/38/194 36/42/195 35/41/196
f 32/38/197 33/39/198 37/43/199 36/42/200
f 33/39/201 34/40/202 38/44/203 37/43/204
f 34/40/205 31/37/206 35/41/207 38/44/208
f 42/56/209 41/55/210 40/54/211
f 39/53/212 41/55/213 42/56/214
f 44/58/215 46/60/216 45/59/217
f 45/59/218 46/60/219 43/57/220
f 47/62/221 50/66/222 49/67/223
f 49/67/224 50/66/225 48/64/226
