# This file uses centimeters as units for non-parametric coordinates.

v -17.208683 -23.696266 2.491734
v 16.057531 -22.447088 5.048677
v -16.307764 22.738363 4.144074
v 16.364779 22.649559 4.134701
v -17.222548 23.432699 1.932781
v 17.165531 23.521502 1.942155
v -17.208683 -23.696266 0.000000
v 16.971064 -23.430090 2.949176
v -2.942783 -23.696266 2.491734
v -2.437519 -23.696266 -0.000000
v 17.208683 -15.809907 2.491734
v 17.208683 -16.007641 0.000000
v 3.468837 23.696266 2.491734
v 2.571418 23.696266 0.000000
v 17.208683 14.855644 -0.000000
v 17.208683 15.397670 2.491734
v -12.199879 23.696266 2.491734
v -12.019853 23.696266 0.000000
v -17.208683 14.312103 2.491734
v -17.208683 13.974820 0.000000
vt 0.500896 0.134792
vt 0.568191 0.134792
vt 0.568191 0.216415
vt 0.500896 0.216415
vt 0.568191 0.216415
vt 0.500896 0.216415
vt 0.568191 0.134792
vt 0.500896 0.134792
vt 0.503372 0.136743
vt 0.502892 0.136751
vt 0.502926 0.137233
vt 0.503339 0.137224
vt 0.528790 0.134792
vt 0.529778 0.134792
vt 0.503162 0.137228
vt 0.568191 0.148374
vt 0.502920 0.137155
vt 0.568191 0.148034
vt 0.541326 0.216415
vt 0.503096 0.136748
vt 0.539571 0.216415
vt 0.502898 0.136841
vt 0.568191 0.201189
vt 0.568191 0.202123
vt 0.510690 0.216415
vt 0.503300 0.136744
vt 0.511042 0.216415
vt 0.500896 0.200253
vt 0.500896 0.199672
vt 0.503365 0.136842
vn 0.000000 0.000000 1.000000
vn 0.000000 0.000000 1.000000
vn 0.000000 0.000000 1.000000
vn 0.000000 0.000000 1.000000
vn 0.000000 0.000000 1.000000
vn 0.000000 0.000000 1.000000
vn 0.000000 0.000000 1.000000
vn -0.069093 0.985296 0.156260
vn -0.069093 0.985296 0.156260
vn -0.069093 0.985296 0.156260
vn -0.069093 0.985296 0.156260
vn -0.350409 0.187031 -0.917732
vn -0.350409 0.187031 -0.917732
vn -0.350409 0.187031 -0.917733
vn 0.000000 -1.000000 0.000000
vn 0.000000 -1.000000 0.000000
vn 0.000000 -1.000000 0.000000
vn 0.000000 -1.000000 0.000000
vn 0.979681 -0.018561 0.199703
vn 0.979681 -0.018561 0.199703
vn 0.979681 -0.018561 0.199703
vn 0.979681 -0.018561 0.199703
vn -1.000000 0.000000 0.000000
vn -1.000000 0.000000 0.000000
vn -1.000000 0.000000 0.000000
vn -1.000000 0.000000 0.000000
vn -0.147840 0.377764 0.914023
vn -0.147840 0.377764 0.914023
vn -0.147840 0.377764 0.914023
vn 0.144553 -0.369367 -0.917972
vn 0.144553 -0.369367 -0.917972
vn 0.144553 -0.369367 -0.917972
vn 0.008198 -0.977284 0.211774
vn 0.008198 -0.977284 0.211774
vn 0.008198 -0.977284 0.211774
vn 0.008198 -0.977284 0.211774
vn 1.000000 0.000000 0.000000
vn 1.000000 0.000000 0.000000
vn 1.000000 0.000000 0.000000
vn 1.000000 0.000000 0.000000
vn -0.141556 -0.234372 0.961786
vn -0.141556 -0.234372 0.961786
vn -0.141556 -0.234372 0.961786
vn 0.019868 0.982993 0.182566
vn 0.019868 0.982993 0.182566
vn 0.019868 0.982993 0.182566
vn 0.019868 0.982993 0.182566
vn 0.131317 0.217420 -0.967205
vn 0.131317 0.217420 -0.967204
vn 0.131317 0.217420 -0.967204
vn 0.985368 0.016709 0.169620
vn 0.985368 0.016709 0.169620
vn 0.985368 0.016709 0.169620
vn 0.985368 0.016709 0.169620
vn 0.407475 -0.217490 0.886940
vn 0.407475 -0.217490 0.886940
vn 0.407475 -0.217490 0.886940
vn 0.000000 1.000000 0.000000
vn 0.000000 1.000000 0.000000
vn 0.000000 1.000000 0.000000
vn 0.000000 1.000000 0.000000
vn -0.000000 0.000000 -1.000000
vn -0.000000 0.000000 -1.000000
vn -0.000000 0.000000 -1.000000
vn -0.000000 0.000000 -1.000000
vn -0.000000 0.000000 -1.000000
vn -0.000000 0.000000 -1.000000
vn -0.000000 0.000000 -1.000000
vn -0.981406 0.010255 0.191671
vn -0.981406 0.010255 0.191671
vn -0.981406 0.010255 0.191671
vn -0.981406 0.010255 0.191671
s off
f 1/1/1 9/13/2 11/16/3 16/24/4 13/19/5 17/25/6 19/28/7
f 3/4/8 17/25/9 18/27/10 5/6/11
f 5/9/12 18/26/13 20/30/14
f 7/8/15 10/14/16 9/13/17 1/1/18
f 2/2/19 8/7/20 12/18/21 11/16/22
f 7/8/23 1/1/24 19/28/25 20/29/26
f 11/16/27 9/13/28 2/2/29
f 10/15/30 12/17/31 8/11/32
f 9/13/33 10/14/34 8/7/35 2/2/36
f 11/16/37 12/18/38 15/23/39 16/24/40
f 13/19/41 16/24/42 4/3/43
f 14/21/44 13/19/45 4/3/46 6/5/47
f 15/22/48 14/20/49 6/10/50
f 16/24/51 15/23/52 6/5/53 4/3/54
f 19/28/55 17/25/56 3/4/57
f 18/27/58 17/25/59 13/19/60 14/21/61
f 20/30/62 18/26/63 14/20/64 15/22/65 12/17/66 10/15/67 7/12/68
f 20/29/69 19/28/70 3/4/71 5/6/72
