# This file uses centimeters as units for non-parametric coordinates.

v -1.145279 -0.232195 -11.241348
v 8.900299 3.334053 -8.739944
v -5.282349 20.666094 3.416855
v 0.348175 20.666094 3.416855
v -5.282349 21.045813 1.983841
v 0.348175 21.045813 1.983841
v -1.145279 0.147530 -12.674362
v 8.900299 3.713777 -10.172974
v 5.615845 0.147530 -12.674362
v 5.615845 -0.232195 -11.241348
v -18.040604 0.886992 12.674362
v 18.040588 0.886992 12.674362
v -18.040604 28.167446 5.498734
v 18.040588 28.167446 5.498734
v -18.040604 26.932211 0.802582
v 18.040588 26.932211 0.802582
v -18.040604 -0.348245 7.978210
v 18.040588 -0.348245 7.978210
v -15.254913 3.532211 11.978592
v 15.254883 3.532211 11.978592
v 15.254883 25.522228 6.194504
v -15.254913 25.522228 6.194504
v -15.032303 3.004194 9.515640
v 15.032303 3.004194 9.515640
v 15.032303 24.770086 3.790527
v -15.032303 24.770086 3.790527
vt 0.079182 0.274830
vt 0.079266 0.274881
vt 0.079371 0.274799
vt 0.079540 0.274240
vt 0.079464 0.274219
vt 0.079517 0.274221
vt 0.079441 0.274200
vt 0.079345 0.274784
vt 0.079239 0.274868
vt 0.079156 0.274817
vt 0.445106 0.273154
vt 0.499029 0.273154
vt 0.499029 0.317186
vt 0.445106 0.317186
vt 0.079316 0.274036
vt 0.080069 0.274203
vt 0.080010 0.274216
vt 0.079261 0.274043
vt 0.079961 0.275036
vt 0.079294 0.274693
vt 0.080014 0.275012
vt 0.079343 0.274678
vt 0.079968 0.274948
vt 0.079372 0.274660
vt 0.080010 0.274242
vt 0.079350 0.274083
vt 0.079950 0.274949
vt 0.079361 0.274662
vt 0.079990 0.274248
vt 0.079338 0.274089
vn -0.000001 -0.574235 0.818690
vn -0.000001 -0.574235 0.818690
vn -0.000001 -0.574235 0.818690
vn -0.000001 -0.574235 0.818690
vn -0.000001 -0.574235 0.818690
vn 0.000000 0.966640 0.256139
vn 0.000000 0.966640 0.256139
vn 0.000000 0.966640 0.256139
vn 0.000000 0.966640 0.256139
vn -0.000000 0.574235 -0.818690
vn -0.000000 0.574235 -0.818690
vn -0.000000 0.574235 -0.818690
vn -0.000000 0.574235 -0.818690
vn -0.000000 0.574235 -0.818690
vn 0.000000 -0.966639 -0.256143
vn 0.334730 -0.910877 -0.241367
vn 0.412624 -0.880513 -0.233321
vn 0.000000 -0.966639 -0.256143
vn 0.918518 0.382190 0.101273
vn 0.918518 0.382190 0.101273
vn 0.918518 0.382190 0.101273
vn 0.918518 0.382190 0.101273
vn -0.985413 -0.164500 -0.043590
vn -0.985413 -0.164501 -0.043590
vn -0.985413 -0.164501 -0.043590
vn -0.985413 -0.164501 -0.043590
vn 0.412624 -0.880513 -0.233321
vn 0.334730 -0.910877 -0.241367
vn 0.779559 -0.605434 -0.160429
vn 0.779559 -0.605434 -0.160429
vn 0.000000 0.254379 0.967105
vn 0.000000 0.254379 0.967105
vn 0.000000 0.254379 0.967105
vn 0.000000 0.254379 0.967105
vn 0.000000 0.967105 -0.254379
vn 0.000000 0.967105 -0.254379
vn 0.000000 0.967105 -0.254379
vn 0.000000 0.967105 -0.254379
vn 0.000000 -0.254379 -0.967105
vn 0.000000 -0.254379 -0.967105
vn 0.000000 -0.254379 -0.967105
vn 0.000000 -0.254379 -0.967105
vn 0.000000 -0.967104 0.254379
vn 0.000000 -0.967104 0.254379
vn 0.000000 -0.967104 0.254379
vn 0.000000 -0.967104 0.254379
vn 1.000000 0.000000 0.000000
vn 1.000000 0.000000 0.000000
vn 1.000000 0.000000 0.000000
vn 1.000000 0.000000 0.000000
vn -1.000000 0.000000 0.000000
vn -1.000000 0.000000 0.000000
vn -1.000000 0.000000 0.000000
vn -1.000000 0.000000 0.000000
vn 0.000000 0.254377 0.967105
vn 0.000000 0.254377 0.967105
vn 0.000000 0.254377 0.967105
vn 0.000000 0.254377 0.967105
vn 0.000000 0.254379 0.967104
vn 0.000000 0.254379 0.967104
vn 0.000000 0.254379 0.967104
vn 0.000000 0.254379 0.967104
vn 0.000000 0.254377 0.967105
vn 0.000000 0.254377 0.967105
vn 0.000000 0.254377 0.967105
vn 0.000000 0.254377 0.967105
vn -0.000000 0.254379 0.967104
vn -0.000000 0.254379 0.967104
vn -0.000000 0.254379 0.967105
vn -0.000000 0.254379 0.967105
vn -0.000000 0.977783 -0.209621
vn -0.000000 0.977783 -0.209621
vn -0.000000 0.977783 -0.209621
vn -0.000000 0.977783 -0.209621
vn -0.996110 0.022414 0.085215
vn -0.996110 0.022414 0.085215
vn -0.996110 0.022414 0.085215
vn -0.996110 0.022414 0.085215
vn 0.000000 -0.954378 0.298600
vn 0.000000 -0.954378 0.298600
vn 0.000000 -0.954378 0.298600
vn 0.000000 -0.954378 0.298600
vn 0.996109 0.022417 0.085226
vn 0.996109 0.022417 0.085226
vn 0.996109 0.022417 0.085226
vn 0.996109 0.022417 0.085226
s off
f 1/1/1 10/2/2 2/3/3 4/4/4 3/5/5
f 3/5/6 4/4/7 6/6/8 5/7/9
f 5/7/10 6/6/11 8/8/12 9/9/13 7/10/14
f 7/10/15 9/9/16 10/2/17 1/1/18
f 2/3/19 8/8/20 6/6/21 4/4/22
f 7/10/23 1/1/24 3/5/25 5/7/26
f 10/2/27 9/9/28 8/8/29 2/3/30
f 23/11/31 24/12/32 25/13/33 26/14/34
f 13/15/35 14/16/36 16/17/37 15/18/38
f 15/18/39 16/17/40 18/19/41 17/20/42
f 17/20/43 18/19/44 12/21/45 11/22/46
f 12/21/47 18/19/48 16/17/49 14/16/50
f 17/20/51 11/22/52 13/15/53 15/18/54
f 11/22/55 12/21/56 20/23/57 19/24/58
f 12/21/59 14/16/60 21/25/61 20/23/62
f 14/16/63 13/15/64 22/26/65 21/25/66
f 13/15/67 11/22/68 19/24/69 22/26/70
f 19/24/71 20/23/72 24/27/73 23/28/74
f 20/23/75 21/25/76 25/29/77 24/27/78
f 21/25/79 22/26/80 26/30/81 25/29/82
f 22/26/83 19/24/84 23/28/85 26/30/86
