# This file uses centimeters as units for non-parametric coordinates.

v 6.356213 -0.923796 -6.356154
v -0.000025 -0.923796 -8.988974
v -6.356213 -0.923796 -6.356154
v -8.988986 -0.923796 0.000067
v -6.356213 -0.923796 6.356085
v -0.000025 -0.923796 8.988979
v 6.356213 -0.923796 6.356085
v 8.988982 -0.923796 0.000067
v 5.284636 3.873657 -5.284943
v -0.000024 3.873657 -7.473567
v -5.284650 3.873657 -5.284943
v -7.473708 3.873657 0.000067
v -5.284650 3.873657 5.284492
v -0.000024 3.873657 7.473696
v 5.284636 3.873657 5.284492
v 7.473727 3.873657 0.000067
v 6.356213 1.098295 -6.356154
v -0.000025 1.098295 -8.988974
v -0.000025 1.098295 -7.745924
v 5.477213 1.098295 -5.477543
v -6.356213 1.098295 -6.356154
v -5.477230 1.098295 -5.477543
v -8.988986 1.098295 0.000067
v -7.746066 1.098295 0.000067
v -6.356213 1.098295 6.356085
v -5.477230 1.098295 5.477067
v -0.000025 1.098295 8.988979
v -0.000025 1.098295 7.746056
v 6.356213 1.098295 6.356085
v 5.477213 1.098295 5.477067
v 8.988982 1.098295 0.000067
v 7.746083 1.098295 0.000067
v 5.769586 -1.098297 -5.769448
v -0.000022 -1.098297 -8.159576
v -5.769693 -1.098297 -5.769448
v -8.159451 -1.098297 0.000064
v -5.769693 -1.098297 5.769506
v -0.000022 -1.098297 8.159510
v 5.769586 -1.098297 5.769506
v 8.159586 -1.098297 0.000064
v 3.616173 3.873657 -3.616359
v -0.000014 3.873657 -5.113989
v -3.616176 3.873657 -3.616359
v -5.114106 3.873657 0.000067
v -3.616176 3.873657 3.616094
v -0.000014 3.873657 5.114121
v 3.616173 3.873657 3.616094
v 5.114123 3.873657 0.000067
v 3.453552 3.508480 -3.453726
v -0.000013 3.508480 -4.884007
v -3.453553 3.508480 -3.453726
v -4.884120 3.508480 0.000067
v -3.453553 3.508480 3.453479
v -0.000013 3.508480 4.884139
v 3.453552 3.508480 3.453479
v 4.884138 3.508480 0.000067
v -0.000011 3.508480 0.000067
v 5.268875 1.028671 -5.268747
v -0.000014 1.028671 -7.451447
v -5.268961 1.028671 -5.268747
v -7.451322 1.028671 0.000055
v -5.268961 1.028671 5.268793
v -0.000014 1.028671 7.451377
v 5.268875 1.028671 5.268793
v 7.451457 1.028671 0.000055
v 3.828410 3.147551 -3.828309
v 0.000008 3.147551 -5.414270
v -3.828437 3.147551 -3.828309
v -5.414151 3.147551 0.000031
v -3.828437 3.147551 3.828323
v 0.000008 3.147551 5.414200
v 3.828410 3.147551 3.828323
v 5.414286 3.147551 0.000031
v 0.000008 3.147551 0.000031
vt 0.102702 0.375827
vt 0.102844 0.375967
vt 0.102900 0.375715
vt 0.102787 0.375803
vt 0.103140 0.376015
vt 0.103117 0.375687
vt 0.103402 0.375943
vt 0.103327 0.375733
vt 0.103486 0.375814
vt 0.103416 0.375830
vt 0.103353 0.375704
vt 0.103320 0.375928
vt 0.103073 0.375658
vt 0.103080 0.375962
vt 0.102801 0.375700
vt 0.102855 0.375907
vt 0.102786 0.375708
vt 0.102900 0.375622
vt 0.102927 0.375635
vt 0.102830 0.375709
vt 0.103120 0.375595
vt 0.103117 0.375612
vt 0.103331 0.375639
vt 0.103301 0.375650
vt 0.103422 0.375734
vt 0.103378 0.375732
vt 0.103325 0.375829
vt 0.103293 0.375813
vt 0.103083 0.375862
vt 0.103086 0.375841
vt 0.102855 0.375809
vt 0.102890 0.375796
vt 0.102781 0.375864
vt 0.102997 0.375710
vt 0.103270 0.375627
vt 0.103419 0.375667
vt 0.103388 0.375789
vt 0.103208 0.375921
vt 0.102961 0.375998
vt 0.102776 0.375980
vt 0.103080 0.375740
vt 0.102858 0.375891
vt 0.103316 0.375644
vt 0.103403 0.375666
vt 0.103315 0.375773
vt 0.103121 0.375901
vt 0.102917 0.375989
vt 0.102801 0.375991
vt 0.103068 0.375721
vt 0.102858 0.375866
vt 0.103292 0.375631
vt 0.103377 0.375652
vt 0.103294 0.375756
vt 0.103109 0.375879
vt 0.102914 0.375962
vt 0.102804 0.375962
vt 0.103090 0.375807
vt 0.102649 0.375868
vt 0.102802 0.376177
vt 0.103131 0.376281
vt 0.103414 0.376123
vt 0.103490 0.375822
vt 0.103339 0.375551
vt 0.103048 0.375445
vt 0.102762 0.375566
vt 0.102770 0.375887
vt 0.102874 0.376094
vt 0.103095 0.376165
vt 0.103290 0.376061
vt 0.103347 0.375853
vt 0.103244 0.375664
vt 0.103040 0.375592
vt 0.102844 0.375679
vt 0.103067 0.375869
vn 0.084962 -0.975045 -0.205108
vn 0.084962 -0.975045 -0.205108
vn 0.084962 -0.975045 -0.205108
vn 0.084962 -0.975045 -0.205108
vn -0.084964 -0.975044 -0.205112
vn -0.084964 -0.975044 -0.205112
vn -0.084964 -0.975044 -0.205112
vn -0.084964 -0.975044 -0.205112
vn -0.205111 -0.975044 -0.084959
vn -0.205111 -0.975044 -0.084959
vn -0.205111 -0.975044 -0.084959
vn -0.205111 -0.975044 -0.084959
vn -0.205116 -0.975043 0.084962
vn -0.205116 -0.975043 0.084962
vn -0.205116 -0.975043 0.084962
vn -0.205116 -0.975043 0.084962
vn -0.084966 -0.975042 0.205119
vn -0.084966 -0.975042 0.205119
vn -0.084966 -0.975042 0.205119
vn -0.084966 -0.975042 0.205119
vn 0.084964 -0.975043 0.205115
vn 0.084964 -0.975043 0.205115
vn 0.084964 -0.975043 0.205115
vn 0.084964 -0.975043 0.205115
vn 0.205118 -0.975042 0.084966
vn 0.205118 -0.975042 0.084966
vn 0.205118 -0.975042 0.084966
vn 0.205118 -0.975042 0.084966
vn 0.205113 -0.975044 -0.084962
vn 0.205113 -0.975044 -0.084962
vn 0.205113 -0.975044 -0.084962
vn 0.205113 -0.975044 -0.084962
vn 0.000000 1.000000 -0.000001
vn 0.000000 1.000000 -0.000001
vn 0.000000 1.000000 -0.000001
vn 0.000000 1.000000 -0.000001
vn 0.000000 1.000000 0.000000
vn 0.000000 1.000000 0.000000
vn 0.000000 1.000000 0.000000
vn 0.000000 1.000000 0.000000
vn 0.000000 1.000000 -0.000000
vn 0.000000 1.000000 -0.000000
vn 0.000000 1.000000 -0.000000
vn 0.000000 1.000000 -0.000000
vn 0.000000 1.000000 0.000001
vn 0.000000 1.000000 0.000001
vn 0.000000 1.000000 0.000001
vn 0.000000 1.000000 0.000001
vn 0.000000 1.000000 0.000000
vn 0.000000 1.000000 0.000000
vn 0.000000 1.000000 0.000000
vn 0.000000 1.000000 0.000000
vn 0.000000 1.000000 0.000001
vn 0.000000 1.000000 0.000001
vn 0.000000 1.000000 0.000001
vn 0.000000 1.000000 0.000001
vn 0.000000 1.000000 0.000000
vn 0.000000 1.000000 0.000000
vn 0.000000 1.000000 0.000000
vn 0.000000 1.000000 0.000000
vn 0.000000 1.000000 -0.000000
vn 0.000000 1.000000 -0.000000
vn 0.000000 1.000000 -0.000000
vn 0.000000 1.000000 -0.000000
vn 0.382681 0.000000 -0.923881
vn 0.382681 0.000000 -0.923881
vn 0.382681 0.000000 -0.923881
vn 0.382681 0.000000 -0.923881
vn 0.381068 0.090295 -0.920127
vn 0.381068 0.090295 -0.920127
vn 0.381068 0.090295 -0.920127
vn 0.381068 0.090295 -0.920127
vn -0.382684 0.000000 -0.923880
vn -0.382684 0.000000 -0.923880
vn -0.382684 0.000000 -0.923880
vn -0.382684 0.000000 -0.923880
vn -0.381070 0.090296 -0.920126
vn -0.381070 0.090296 -0.920126
vn -0.381070 0.090296 -0.920126
vn -0.381070 0.090296 -0.920126
vn -0.923883 0.000000 -0.382676
vn -0.923883 0.000000 -0.382676
vn -0.923883 0.000000 -0.382676
vn -0.923883 0.000000 -0.382676
vn -0.920110 0.090294 -0.381111
vn -0.920110 0.090294 -0.381111
vn -0.920110 0.090294 -0.381111
vn -0.920110 0.090294 -0.381111
vn -0.923878 0.000000 0.382686
vn -0.923878 0.000000 0.382686
vn -0.923878 0.000000 0.382686
vn -0.923878 0.000000 0.382686
vn -0.920095 0.090292 0.381147
vn -0.920095 0.090292 0.381147
vn -0.920095 0.090292 0.381147
vn -0.920095 0.090292 0.381147
vn -0.382693 0.000000 0.923876
vn -0.382693 0.000000 0.923876
vn -0.382693 0.000000 0.923876
vn -0.382693 0.000000 0.923876
vn -0.381157 0.090292 0.920091
vn -0.381157 0.090292 0.920091
vn -0.381157 0.090292 0.920091
vn -0.381157 0.090292 0.920091
vn 0.382690 0.000000 0.923877
vn 0.382690 0.000000 0.923877
vn 0.382690 0.000000 0.923877
vn 0.382690 0.000000 0.923877
vn 0.381154 0.090292 0.920092
vn 0.381154 0.090292 0.920092
vn 0.381154 0.090292 0.920092
vn 0.381154 0.090292 0.920092
vn 0.923878 0.000000 0.382686
vn 0.923878 0.000000 0.382686
vn 0.923878 0.000000 0.382686
vn 0.923878 0.000000 0.382686
vn 0.920093 0.090291 0.381152
vn 0.920093 0.090291 0.381152
vn 0.920093 0.090291 0.381152
vn 0.920093 0.090291 0.381152
vn 0.923883 0.000000 -0.382676
vn 0.923883 0.000000 -0.382676
vn 0.923883 0.000000 -0.382676
vn 0.923883 0.000000 -0.382676
vn 0.920108 0.090293 -0.381115
vn 0.920108 0.090293 -0.381115
vn 0.920108 0.090293 -0.381115
vn 0.920108 0.090293 -0.381115
vn 0.000000 1.000000 0.000000
vn 0.000000 1.000000 0.000000
vn 0.000000 1.000000 0.000000
vn 0.000000 1.000000 0.000000
vn 0.000000 1.000000 -0.000000
vn 0.000000 1.000000 -0.000000
vn 0.000000 1.000000 -0.000000
vn 0.000000 1.000000 -0.000000
vn 0.000000 1.000000 0.000000
vn 0.000000 1.000000 0.000000
vn 0.000000 1.000000 0.000000
vn 0.000000 1.000000 0.000000
vn 0.000000 1.000000 -0.000000
vn 0.000000 1.000000 -0.000000
vn 0.000000 1.000000 -0.000000
vn 0.000000 1.000000 -0.000000
vn 0.000000 1.000000 -0.000000
vn 0.000000 1.000000 -0.000000
vn 0.000000 1.000000 -0.000000
vn 0.000000 1.000000 -0.000000
vn 0.000000 1.000000 -0.000001
vn 0.000000 1.000000 -0.000001
vn 0.000000 1.000000 -0.000001
vn 0.000000 1.000000 -0.000001
vn 0.000000 1.000000 0.000000
vn 0.000000 1.000000 0.000000
vn 0.000000 1.000000 0.000000
vn 0.000000 1.000000 0.000000
vn 0.000000 1.000000 0.000000
vn 0.000000 1.000000 0.000000
vn 0.000000 1.000000 0.000000
vn 0.000000 1.000000 0.000000
vn -0.330722 0.502920 0.798558
vn -0.330722 0.502920 0.798558
vn -0.330722 0.502920 0.798558
vn -0.330722 0.502920 0.798558
vn 0.330721 0.502918 0.798559
vn 0.330721 0.502918 0.798559
vn 0.330721 0.502918 0.798559
vn 0.330721 0.502918 0.798559
vn 0.798545 0.502917 0.330758
vn 0.798545 0.502917 0.330758
vn 0.798545 0.502917 0.330758
vn 0.798545 0.502917 0.330758
vn 0.798535 0.502911 -0.330790
vn 0.798535 0.502911 -0.330790
vn 0.798535 0.502911 -0.330790
vn 0.798535 0.502911 -0.330790
vn 0.330799 0.502904 -0.798536
vn 0.330799 0.502904 -0.798536
vn 0.330799 0.502904 -0.798536
vn 0.330799 0.502904 -0.798536
vn -0.330799 0.502904 -0.798536
vn -0.330799 0.502904 -0.798536
vn -0.330799 0.502904 -0.798536
vn -0.330799 0.502904 -0.798536
vn -0.798535 0.502909 -0.330795
vn -0.798535 0.502909 -0.330795
vn -0.798535 0.502909 -0.330795
vn -0.798535 0.502909 -0.330795
vn -0.798544 0.502915 0.330762
vn -0.798544 0.502915 0.330762
vn -0.798544 0.502915 0.330762
vn -0.798544 0.502915 0.330762
vn 0.000000 1.000000 -0.000000
vn 0.000000 1.000000 -0.000000
vn 0.000000 1.000000 -0.000000
vn 0.000000 1.000000 -0.000000
vn 0.000000 1.000000 0.000000
vn 0.000000 1.000000 0.000000
vn 0.000000 1.000000 0.000000
vn 0.000000 1.000000 0.000000
vn 0.000000 1.000000 0.000000
vn 0.000000 1.000000 0.000000
vn 0.000000 1.000000 0.000000
vn 0.000000 1.000000 0.000000
vn 0.000000 1.000000 -0.000000
vn 0.000000 1.000000 -0.000000
vn 0.000000 1.000000 -0.000000
vn 0.000000 1.000000 -0.000000
vn -0.365809 -0.293988 0.883038
vn -0.365809 -0.293988 0.883038
vn -0.365809 -0.293988 0.883038
vn -0.365809 -0.293988 0.883038
vn 0.365805 -0.293991 0.883038
vn 0.365805 -0.293991 0.883038
vn 0.365805 -0.293991 0.883038
vn 0.365805 -0.293991 0.883038
vn 0.883054 -0.293992 0.365765
vn 0.883054 -0.293992 0.365765
vn 0.883054 -0.293992 0.365765
vn 0.883054 -0.293992 0.365765
vn 0.883052 -0.293995 -0.365769
vn 0.883052 -0.293995 -0.365769
vn 0.883052 -0.293995 -0.365769
vn 0.883052 -0.293995 -0.365769
vn 0.365788 -0.293993 -0.883044
vn 0.365788 -0.293993 -0.883044
vn 0.365788 -0.293993 -0.883044
vn 0.365788 -0.293993 -0.883044
vn -0.365792 -0.293990 -0.883044
vn -0.365792 -0.293990 -0.883044
vn -0.365792 -0.293990 -0.883044
vn -0.365792 -0.293990 -0.883044
vn -0.883040 -0.293991 -0.365800
vn -0.883040 -0.293991 -0.365800
vn -0.883040 -0.293991 -0.365800
vn -0.883040 -0.293991 -0.365800
vn -0.883042 -0.293989 0.365797
vn -0.883042 -0.293989 0.365797
vn -0.883042 -0.293989 0.365797
vn -0.883042 -0.293989 0.365797
vn -0.286142 -0.664091 0.690728
vn -0.286142 -0.664091 0.690728
vn -0.286142 -0.664091 0.690728
vn -0.286142 -0.664091 0.690728
vn 0.286138 -0.664095 0.690726
vn 0.286138 -0.664095 0.690726
vn 0.286138 -0.664095 0.690726
vn 0.286138 -0.664095 0.690726
vn 0.690737 -0.664097 0.286106
vn 0.690737 -0.664097 0.286106
vn 0.690737 -0.664097 0.286106
vn 0.690737 -0.664097 0.286106
vn 0.690733 -0.664100 -0.286108
vn 0.690733 -0.664100 -0.286108
vn 0.690733 -0.664100 -0.286108
vn 0.690733 -0.664100 -0.286108
vn 0.286124 -0.664098 -0.690729
vn 0.286124 -0.664098 -0.690729
vn 0.286124 -0.664098 -0.690729
vn 0.286124 -0.664098 -0.690729
vn -0.286128 -0.664094 -0.690731
vn -0.286128 -0.664094 -0.690731
vn -0.286128 -0.664094 -0.690731
vn -0.286128 -0.664094 -0.690731
vn -0.690728 -0.664095 -0.286135
vn -0.690728 -0.664095 -0.286135
vn -0.690728 -0.664095 -0.286135
vn -0.690728 -0.664095 -0.286135
vn -0.690731 -0.664092 0.286133
vn -0.690731 -0.664092 0.286133
vn -0.690731 -0.664092 0.286133
vn -0.690731 -0.664092 0.286133
vn 0.000000 -1.000000 0.000000
vn 0.000000 -1.000000 0.000000
vn 0.000000 -1.000000 0.000000
vn 0.000000 -1.000000 0.000000
vn 0.000000 -1.000000 0.000000
vn 0.000000 -1.000000 0.000000
vn 0.000000 -1.000000 0.000000
vn 0.000000 -1.000000 0.000000
vn 0.000000 -1.000000 -0.000000
vn 0.000000 -1.000000 -0.000000
vn 0.000000 -1.000000 -0.000000
vn 0.000000 -1.000000 -0.000000
vn 0.000000 -1.000000 0.000000
vn 0.000000 -1.000000 0.000000
vn 0.000000 -1.000000 0.000000
vn 0.000000 -1.000000 0.000000
s off
f 33/1/1 34/2/2 2/3/3 1/4/4
f 34/2/5 35/5/6 3/6/7 2/3/8
f 35/5/9 36/7/10 4/8/11 3/6/12
f 36/7/13 37/9/14 5/10/15 4/8/16
f 37/9/17 38/11/18 6/12/19 5/10/20
f 38/11/21 39/13/22 7/14/23 6/12/24
f 39/13/25 40/15/26 8/16/27 7/14/28
f 40/15/29 33/1/30 1/4/31 8/16/32
f 17/17/33 18/18/34 19/19/35 20/20/36
f 18/18/37 21/21/38 22/22/39 19/19/40
f 21/21/41 23/23/42 24/24/43 22/22/44
f 23/23/45 25/25/46 26/26/47 24/24/48
f 25/25/49 27/27/50 28/28/51 26/26/52
f 27/27/53 29/29/54 30/30/55 28/28/56
f 29/29/57 31/31/58 32/32/59 30/30/60
f 31/31/61 17/17/62 20/20/63 32/32/64
f 1/4/65 2/3/66 18/18/67 17/17/68
f 10/34/69 9/33/70 20/20/71 19/19/72
f 2/3/73 3/6/74 21/21/75 18/18/76
f 11/35/77 10/34/78 19/19/79 22/22/80
f 3/6/81 4/8/82 23/23/83 21/21/84
f 12/36/85 11/35/86 22/22/87 24/24/88
f 4/8/89 5/10/90 25/25/91 23/23/92
f 13/37/93 12/36/94 24/24/95 26/26/96
f 5/10/97 6/12/98 27/27/99 25/25/100
f 14/38/101 13/37/102 26/26/103 28/28/104
f 6/12/105 7/14/106 29/29/107 27/27/108
f 15/39/109 14/38/110 28/28/111 30/30/112
f 7/14/113 8/16/114 31/31/115 29/29/116
f 16/40/117 15/39/118 30/30/119 32/32/120
f 8/16/121 1/4/122 17/17/123 31/31/124
f 9/33/125 16/40/126 32/32/127 20/20/128
f 9/33/129 10/34/130 42/41/131 41/42/132
f 10/34/133 11/35/134 43/43/135 42/41/136
f 11/35/137 12/36/138 44/44/139 43/43/140
f 12/36/141 13/37/142 45/45/143 44/44/144
f 13/37/145 14/38/146 46/46/147 45/45/148
f 14/38/149 15/39/150 47/47/151 46/46/152
f 15/39/153 16/40/154 48/48/155 47/47/156
f 16/40/157 9/33/158 41/42/159 48/48/160
f 41/42/161 42/41/162 50/49/163 49/50/164
f 42/41/165 43/43/166 51/51/167 50/49/168
f 43/43/169 44/44/170 52/52/171 51/51/172
f 44/44/173 45/45/174 53/53/175 52/52/176
f 45/45/177 46/46/178 54/54/179 53/53/180
f 46/46/181 47/47/182 55/55/183 54/54/184
f 47/47/185 48/48/186 56/56/187 55/55/188
f 48/48/189 41/42/190 49/50/191 56/56/192
f 56/56/193 57/57/194 54/54/195 55/55/196
f 50/49/197 57/57/198 56/56/199 49/50/200
f 50/49/201 51/51/202 52/52/203 57/57/204
f 54/54/205 57/57/206 52/52/207 53/53/208
f 34/2/209 33/1/210 58/58/211 59/59/212
f 35/5/213 34/2/214 59/59/215 60/60/216
f 36/7/217 35/5/218 60/60/219 61/61/220
f 37/9/221 36/7/222 61/61/223 62/62/224
f 38/11/225 37/9/226 62/62/227 63/63/228
f 39/13/229 38/11/230 63/63/231 64/64/232
f 40/15/233 39/13/234 64/64/235 65/65/236
f 33/1/237 40/15/238 65/65/239 58/58/240
f 59/59/241 58/58/242 66/66/243 67/67/244
f 60/60/245 59/59/246 67/67/247 68/68/248
f 61/61/249 60/60/250 68/68/251 69/69/252
f 62/62/253 61/61/254 69/69/255 70/70/256
f 63/63/257 62/62/258 70/70/259 71/71/260
f 64/64/261 63/63/262 71/71/263 72/72/264
f 65/65/265 64/64/266 72/72/267 73/73/268
f 58/58/269 65/65/270 73/73/271 66/66/272
f 69/69/273 74/74/274 71/71/275 70/70/276
f 74/74/277 73/73/278 72/72/279 71/71/280
f 67/67/281 74/74/282 69/69/283 68/68/284
f 67/67/285 66/66/286 73/73/287 74/74/288
