# This file uses centimeters as units for non-parametric coordinates.

v 17.464005 0.000000 -19.779505
v 12.993111 0.000000 -19.779505
v 17.464005 29.521721 -19.779505
v 12.993111 29.521721 -19.779505
v 17.464005 29.521721 -24.250401
v 12.993111 29.521721 -24.250401
v 17.464005 0.000000 -24.250401
v 12.993111 0.000000 -24.250401
v -17.464005 0.000000 -19.779505
v -12.993111 0.000000 -19.779505
v -17.464005 29.521721 -19.779505
v -12.993111 29.521721 -19.779505
v -17.464005 29.521721 -24.250401
v -12.993111 29.521721 -24.250401
v -17.464005 0.000000 -24.250401
v -12.993111 0.000000 -24.250401
v -17.464005 0.000000 15.526222
v -15.101777 0.000000 15.526222
v -17.464005 29.521721 15.526222
v -15.101777 29.521721 15.526222
v -17.464005 29.521721 11.055330
v -15.101777 29.521721 11.055330
v -17.464005 0.000000 11.055330
v -15.101777 0.000000 11.055330
v 17.464005 0.000000 15.526222
v 15.101777 0.000000 15.526222
v 17.464005 29.521721 15.526222
v 15.101777 29.521721 15.526222
v 17.464005 29.521721 11.055330
v 15.101777 29.521721 11.055330
v 17.464005 0.000000 11.055330
v 15.101777 0.000000 11.055330
v -15.228558 3.191580 21.308468
v 15.228558 3.191580 21.308468
v -15.228558 13.191580 13.203365
v 15.228558 13.191580 13.203365
v -15.228558 13.191580 -21.308468
v 15.228558 13.191580 -21.308468
v -15.228558 3.191580 -21.308468
v 15.228558 3.191580 -21.308468
v -12.728559 13.191580 -18.808470
v 12.728559 13.191580 -18.808470
v 12.728559 5.691580 -18.808470
v -12.728559 5.691580 -18.808470
v 12.728559 5.691580 19.199686
v -12.728559 5.691580 19.199686
v 12.728559 13.191580 13.203365
v -12.728559 13.191580 13.203365
v -15.228558 20.714346 21.308468
v 15.228558 20.714346 21.308468
v -15.228558 30.714346 13.203365
v 15.228558 30.714346 13.203365
v -15.228558 30.714346 -21.308468
v 15.228558 30.714346 -21.308468
v -15.228558 20.714346 -21.308468
v 15.228558 20.714346 -21.308468
v -12.728559 30.714346 -18.808470
v 12.728559 30.714346 -18.808470
v 12.728559 23.214346 -18.808470
v -12.728559 23.214346 -18.808470
v 12.728559 23.214346 19.199686
v -12.728559 23.214346 19.199686
v 12.728559 30.714346 13.203365
v -12.728559 30.714346 13.203365
vt 0.401486 0.470073
vt 0.401615 0.470084
vt 0.401597 0.469131
vt 0.401459 0.469123
vt 0.401631 0.469092
vt 0.401495 0.469084
vt 0.401646 0.470031
vt 0.401519 0.470020
vt 0.401583 0.470084
vt 0.401450 0.470072
vt 0.401488 0.469124
vt 0.401631 0.469133
vt 0.401506 0.469084
vt 0.401646 0.469092
vt 0.401468 0.470018
vt 0.401599 0.470029
vt 0.401589 0.470084
vt 0.401518 0.470077
vt 0.401549 0.469133
vt 0.401627 0.469139
vt 0.401570 0.469084
vt 0.401646 0.469090
vt 0.401538 0.470012
vt 0.401608 0.470019
vt 0.401539 0.470077
vt 0.401608 0.470084
vt 0.401562 0.469137
vt 0.401488 0.469131
vt 0.401605 0.469089
vt 0.401532 0.469084
vt 0.401646 0.470021
vt 0.401579 0.470014
vt 0.340850 0.421768
vt 0.340840 0.421962
vt 0.340149 0.421933
vt 0.340148 0.421741
vt 0.340819 0.422421
vt 0.340008 0.422382
vt 0.340030 0.422088
vt 0.340834 0.422123
vt 0.340921 0.421746
vt 0.340089 0.421715
vt 0.340091 0.421968
vt 0.340906 0.422002
vt 0.339921 0.422479
vt 0.340894 0.422528
vt 0.339952 0.422084
vt 0.340914 0.422126
vt 0.340850 0.421768
vt 0.340840 0.421962
vt 0.340149 0.421933
vt 0.340148 0.421741
vt 0.340819 0.422421
vt 0.340008 0.422382
vt 0.340030 0.422088
vt 0.340834 0.422123
vt 0.340921 0.421746
vt 0.340089 0.421715
vt 0.340091 0.421968
vt 0.340906 0.422002
vt 0.339921 0.422479
vt 0.340894 0.422528
vt 0.339952 0.422084
vt 0.340914 0.422126
vn 0.000000 0.000000 1.000000
vn 0.000000 0.000000 1.000000
vn 0.000000 0.000000 1.000000
vn 0.000000 0.000000 1.000000
vn 0.000000 1.000000 0.000000
vn 0.000000 1.000000 0.000000
vn 0.000000 1.000000 0.000000
vn 0.000000 1.000000 0.000000
vn 0.000000 0.000000 -1.000000
vn 0.000000 0.000000 -1.000000
vn 0.000000 0.000000 -1.000000
vn 0.000000 0.000000 -1.000000
vn 0.000000 -1.000000 0.000000
vn 0.000000 -1.000000 0.000000
vn 0.000000 -1.000000 0.000000
vn 0.000000 -1.000000 0.000000
vn -1.000000 0.000000 0.000000
vn -1.000000 0.000000 0.000000
vn -1.000000 0.000000 0.000000
vn -1.000000 0.000000 0.000000
vn 1.000000 0.000000 0.000000
vn 1.000000 0.000000 0.000000
vn 1.000000 0.000000 0.000000
vn 1.000000 0.000000 0.000000
vn 0.000000 0.000000 1.000000
vn 0.000000 0.000000 1.000000
vn 0.000000 0.000000 1.000000
vn 0.000000 0.000000 1.000000
vn 0.000000 1.000000 0.000000
vn 0.000000 1.000000 0.000000
vn 0.000000 1.000000 0.000000
vn 0.000000 1.000000 0.000000
vn 0.000000 0.000000 -1.000000
vn 0.000000 0.000000 -1.000000
vn 0.000000 0.000000 -1.000000
vn 0.000000 0.000000 -1.000000
vn 0.000000 -1.000000 0.000000
vn 0.000000 -1.000000 0.000000
vn 0.000000 -1.000000 0.000000
vn 0.000000 -1.000000 0.000000
vn 1.000000 0.000000 0.000000
vn 1.000000 0.000000 0.000000
vn 1.000000 0.000000 0.000000
vn 1.000000 0.000000 0.000000
vn -1.000000 0.000000 0.000000
vn -1.000000 0.000000 0.000000
vn -1.000000 0.000000 0.000000
vn -1.000000 0.000000 0.000000
vn 0.000000 0.000000 1.000000
vn 0.000000 0.000000 1.000000
vn 0.000000 0.000000 1.000000
vn 0.000000 0.000000 1.000000
vn 0.000000 1.000000 0.000000
vn 0.000000 1.000000 0.000000
vn 0.000000 1.000000 0.000000
vn 0.000000 1.000000 0.000000
vn 0.000000 0.000000 -1.000000
vn 0.000000 0.000000 -1.000000
vn 0.000000 0.000000 -1.000000
vn 0.000000 0.000000 -1.000000
vn 0.000000 -1.000000 0.000000
vn 0.000000 -1.000000 0.000000
vn 0.000000 -1.000000 0.000000
vn 0.000000 -1.000000 0.000000
vn 1.000000 0.000000 0.000000
vn 1.000000 0.000000 0.000000
vn 1.000000 0.000000 0.000000
vn 1.000000 0.000000 0.000000
vn -1.000000 0.000000 0.000000
vn -1.000000 0.000000 0.000000
vn -1.000000 0.000000 0.000000
vn -1.000000 0.000000 0.000000
vn 0.000000 0.000000 1.000000
vn 0.000000 0.000000 1.000000
vn 0.000000 0.000000 1.000000
vn 0.000000 0.000000 1.000000
vn 0.000000 1.000000 0.000000
vn 0.000000 1.000000 0.000000
vn 0.000000 1.000000 0.000000
vn 0.000000 1.000000 0.000000
vn 0.000000 0.000000 -1.000000
vn 0.000000 0.000000 -1.000000
vn 0.000000 0.000000 -1.000000
vn 0.000000 0.000000 -1.000000
vn 0.000000 -1.000000 0.000000
vn 0.000000 -1.000000 0.000000
vn 0.000000 -1.000000 0.000000
vn 0.000000 -1.000000 0.000000
vn -1.000000 0.000000 0.000000
vn -1.000000 0.000000 0.000000
vn -1.000000 0.000000 0.000000
vn -1.000000 0.000000 0.000000
vn 1.000000 0.000000 0.000000
vn 1.000000 0.000000 0.000000
vn 1.000000 0.000000 0.000000
vn 1.000000 0.000000 0.000000
vn 0.000000 0.000000 1.000000
vn 0.000000 0.000000 1.000000
vn 0.000000 0.000000 1.000000
vn 0.000000 0.000000 1.000000
vn 0.000000 1.000000 0.000000
vn 0.000000 1.000000 0.000000
vn 0.000000 1.000000 0.000000
vn 0.000000 1.000000 0.000000
vn -1.000000 0.000000 0.000000
vn -1.000000 0.000000 0.000000
vn -1.000000 0.000000 0.000000
vn -1.000000 0.000000 0.000000
vn 1.000000 0.000000 0.000000
vn 1.000000 0.000000 0.000000
vn 1.000000 0.000000 0.000000
vn 1.000000 0.000000 0.000000
vn 0.000000 0.000000 -1.000000
vn 0.000000 0.000000 -1.000000
vn 0.000000 0.000000 -1.000000
vn 0.000000 0.000000 -1.000000
vn 0.000000 -1.000000 0.000000
vn 0.000000 -1.000000 0.000000
vn 0.000000 -1.000000 0.000000
vn 0.000000 -1.000000 0.000000
vn 1.000000 0.000000 0.000000
vn 1.000000 0.000000 0.000000
vn 1.000000 0.000000 0.000000
vn 1.000000 0.000000 0.000000
vn -1.000000 0.000000 0.000000
vn -1.000000 0.000000 0.000000
vn -1.000000 0.000000 0.000000
vn -1.000000 0.000000 0.000000
vn 0.000000 1.000000 0.000000
vn 0.000000 1.000000 0.000000
vn 0.000000 1.000000 0.000000
vn 0.000000 1.000000 0.000000
vn 0.000000 0.644765 0.764381
vn 0.000000 0.644765 0.764381
vn 0.000000 0.644765 0.764381
vn 0.000000 0.644765 0.764381
vn 0.000000 1.000000 0.000000
vn 0.000000 1.000000 0.000000
vn 0.000000 1.000000 0.000000
vn 0.000000 1.000000 0.000000
vn -0.014683 0.627375 0.778579
vn -0.014683 0.627375 0.778579
vn -0.014683 0.627375 0.778579
vn -0.014683 0.627375 0.778579
vn 0.014683 0.627375 0.778579
vn 0.014683 0.627375 0.778579
vn 0.014683 0.627375 0.778579
vn 0.014683 0.627375 0.778579
vn 0.000000 1.000000 0.000000
vn 0.000000 1.000000 0.000000
vn 0.000000 1.000000 0.000000
vn 0.000000 1.000000 0.000000
vn 0.000000 0.000000 1.000000
vn 0.000000 0.000000 1.000000
vn 0.000000 0.000000 1.000000
vn 0.000000 0.000000 1.000000
vn 0.000000 1.000000 0.000000
vn 0.000000 1.000000 0.000000
vn 0.000000 1.000000 0.000000
vn 0.000000 1.000000 0.000000
vn -1.000000 0.000000 0.000000
vn -1.000000 0.000000 0.000000
vn -1.000000 0.000000 0.000000
vn -1.000000 0.000000 0.000000
vn 1.000000 0.000000 0.000000
vn 1.000000 0.000000 0.000000
vn 1.000000 0.000000 0.000000
vn 1.000000 0.000000 0.000000
vn 0.000000 0.000000 -1.000000
vn 0.000000 0.000000 -1.000000
vn 0.000000 0.000000 -1.000000
vn 0.000000 0.000000 -1.000000
vn 0.000000 -1.000000 0.000000
vn 0.000000 -1.000000 0.000000
vn 0.000000 -1.000000 0.000000
vn 0.000000 -1.000000 0.000000
vn 1.000000 0.000000 0.000000
vn 1.000000 0.000000 0.000000
vn 1.000000 0.000000 0.000000
vn 1.000000 0.000000 0.000000
vn -1.000000 0.000000 0.000000
vn -1.000000 0.000000 0.000000
vn -1.000000 0.000000 0.000000
vn -1.000000 0.000000 0.000000
vn 0.000000 1.000000 0.000000
vn 0.000000 1.000000 0.000000
vn 0.000000 1.000000 0.000000
vn 0.000000 1.000000 0.000000
vn 0.000000 0.644765 0.764381
vn 0.000000 0.644765 0.764381
vn 0.000000 0.644765 0.764381
vn 0.000000 0.644765 0.764381
vn 0.000000 1.000000 0.000000
vn 0.000000 1.000000 0.000000
vn 0.000000 1.000000 0.000000
vn 0.000000 1.000000 0.000000
vn -0.014683 0.627375 0.778579
vn -0.014683 0.627375 0.778579
vn -0.014683 0.627375 0.778579
vn -0.014683 0.627375 0.778579
vn 0.014683 0.627375 0.778579
vn 0.014683 0.627375 0.778579
vn 0.014683 0.627375 0.778579
vn 0.014683 0.627375 0.778579
vn 0.000000 1.000000 0.000000
vn 0.000000 1.000000 0.000000
vn 0.000000 1.000000 0.000000
vn 0.000000 1.000000 0.000000
s off
f 1/1/1 3/4/2 4/3/3 2/2/4
f 3/4/5 5/6/6 6/5/7 4/3/8
f 5/6/9 7/8/10 8/7/11 6/5/12
f 7/8/13 1/1/14 2/2/15 8/7/16
f 2/2/17 4/3/18 6/5/19 8/7/20
f 7/8/21 5/6/22 3/4/23 1/1/24
f 9/9/25 10/10/26 12/11/27 11/12/28
f 11/12/29 12/11/30 14/13/31 13/14/32
f 13/14/33 14/13/34 16/15/35 15/16/36
f 15/16/37 16/15/38 10/10/39 9/9/40
f 10/10/41 16/15/42 14/13/43 12/11/44
f 15/16/45 9/9/46 11/12/47 13/14/48
f 17/17/49 18/18/50 20/19/51 19/20/52
f 19/20/53 20/19/54 22/21/55 21/22/56
f 21/22/57 22/21/58 24/23/59 23/24/60
f 23/24/61 24/23/62 18/18/63 17/17/64
f 18/18/65 24/23/66 22/21/67 20/19/68
f 23/24/69 17/17/70 19/20/71 21/22/72
f 25/25/73 27/28/74 28/27/75 26/26/76
f 27/28/77 29/30/78 30/29/79 28/27/80
f 29/30/81 31/32/82 32/31/83 30/29/84
f 31/32/85 25/25/86 26/26/87 32/31/88
f 26/26/89 28/27/90 30/29/91 32/31/92
f 31/32/93 29/30/94 27/28/95 25/25/96
f 41/33/97 44/34/98 43/35/99 42/36/100
f 44/34/101 46/37/102 45/38/103 43/35/104
f 45/38/105 47/39/106 42/36/107 43/35/108
f 44/34/109 41/33/110 48/40/111 46/37/112
f 37/41/113 38/42/114 40/43/115 39/44/116
f 39/44/117 40/43/118 34/45/119 33/46/120
f 34/45/121 40/43/122 38/42/123 36/47/124
f 39/44/125 33/46/126 35/48/127 37/41/128
f 37/41/129 41/33/130 42/36/131 38/42/132
f 34/45/133 45/38/134 46/37/135 33/46/136
f 38/42/137 42/36/138 47/39/139 36/47/140
f 36/47/141 47/39/142 45/38/143 34/45/144
f 33/46/145 46/37/146 48/40/147 35/48/148
f 35/48/149 48/40/150 41/33/151 37/41/152
f 57/49/153 60/50/154 59/51/155 58/52/156
f 60/50/157 62/53/158 61/54/159 59/51/160
f 61/54/161 63/55/162 58/52/163 59/51/164
f 60/50/165 57/49/166 64/56/167 62/53/168
f 53/57/169 54/58/170 56/59/171 55/60/172
f 55/60/173 56/59/174 50/61/175 49/62/176
f 50/61/177 56/59/178 54/58/179 52/63/180
f 55/60/181 49/62/182 51/64/183 53/57/184
f 53/57/185 57/49/186 58/52/187 54/58/188
f 50/61/189 61/54/190 62/53/191 49/62/192
f 54/58/193 58/52/194 63/55/195 52/63/196
f 52/63/197 63/55/198 61/54/199 50/61/200
f 49/62/201 62/53/202 64/56/203 51/64/204
f 51/64/205 64/56/206 57/49/207 53/57/208
