# This file uses centimeters as units for non-parametric coordinates.

v -36.517906 -6.203348 36.517944
v 36.517910 -6.203348 36.517944
v -36.517906 0.000000 36.517944
v 36.517910 0.000000 36.517944
v -36.517906 0.000000 -36.517944
v 36.517910 0.000000 -36.517944
v -36.517906 -6.203348 -36.517944
v 36.517910 -6.203348 -36.517944
v -39.963024 -6.203348 39.963074
v 39.963032 -6.203348 39.963074
v 39.963032 0.000000 39.963074
v -39.963024 -0.000000 39.963074
v 39.963032 0.000000 -39.963043
v -39.963024 -0.000000 -39.963043
v 39.963032 -6.203348 -39.963043
v -39.963024 -6.203348 -39.963043
v 39.316448 9.939270 39.316498
v -39.316448 9.939270 39.316498
v 39.316448 9.939270 -39.316498
v -39.316448 9.939270 -39.316498
v 39.316448 6.252499 39.316498
v 39.316448 6.252499 -39.316498
v -39.316448 6.252499 -39.316498
v -39.316448 6.252499 39.316498
vt 0.004923 0.124248
vt 0.004078 0.124065
vt 0.099672 0.378636
vt 0.098859 0.378621
vt 0.099211 0.378592
vt 0.099859 0.378600
vt 0.004053 0.123248
vt 0.004939 0.123450
vt 0.113310 0.331123
vt 0.112568 0.330857
vt 0.112552 0.330814
vt 0.113316 0.331082
vt 0.113552 0.330567
vt 0.112935 0.330410
vt 0.112939 0.330453
vt 0.113541 0.330610
vt 0.113287 0.331082
vt 0.112616 0.330845
vt 0.112602 0.330801
vt 0.113293 0.331040
vt 0.113515 0.330576
vt 0.112946 0.330430
vt 0.112950 0.330473
vt 0.113505 0.330620
vt 0.099671 0.378762
vt 0.098863 0.378736
vt 0.099212 0.378681
vt 0.099857 0.378697
vt 0.098860 0.378660
vt 0.099211 0.378621
vt 0.099859 0.378632
vt 0.099672 0.378678
vn 0.000000 0.000000 1.000000
vn 0.000000 0.000000 1.000000
vn 0.000000 0.000000 1.000000
vn 0.000000 0.000000 1.000000
vn 0.000000 1.000000 0.000000
vn 0.000000 1.000000 0.000000
vn 0.000000 1.000000 0.000000
vn 0.000000 1.000000 0.000000
vn 0.000000 0.000000 -1.000000
vn 0.000000 0.000000 -1.000000
vn 0.000000 0.000000 -1.000000
vn 0.000000 0.000000 -1.000000
vn 0.000000 -1.000000 0.000000
vn 0.000000 -1.000000 0.000000
vn 0.000000 -1.000000 0.000000
vn 0.000000 -1.000000 0.000000
vn 1.000000 0.000000 0.000000
vn 1.000000 0.000000 0.000000
vn 1.000000 0.000000 0.000000
vn 1.000000 0.000000 0.000000
vn -1.000000 0.000000 0.000000
vn -1.000000 0.000000 0.000000
vn -1.000000 0.000000 0.000000
vn -1.000000 0.000000 0.000000
vn 0.000000 -1.000000 -0.000000
vn 0.000000 -1.000000 -0.000000
vn 0.000000 -1.000000 -0.000000
vn 0.000000 -1.000000 -0.000000
vn -0.000000 1.000000 0.000000
vn -0.000000 1.000000 0.000000
vn -0.000000 1.000000 0.000000
vn -0.000000 1.000000 0.000000
vn -0.000000 1.000000 0.000000
vn -0.000000 1.000000 0.000000
vn -0.000000 1.000000 0.000000
vn -0.000000 1.000000 0.000000
vn 0.000000 -1.000000 0.000000
vn 0.000000 -1.000000 0.000000
vn 0.000000 -1.000000 0.000000
vn 0.000000 -1.000000 0.000000
vn 0.000000 -1.000000 0.000000
vn 0.000000 -1.000000 0.000000
vn 0.000000 -1.000000 0.000000
vn 0.000000 -1.000000 0.000000
vn -0.000000 1.000000 0.000000
vn -0.000000 1.000000 0.000000
vn -0.000000 1.000000 0.000000
vn -0.000000 1.000000 0.000000
vn 0.000000 -1.000000 0.000000
vn 0.000000 -1.000000 0.000000
vn 0.000000 -1.000000 0.000000
vn 0.000000 -1.000000 0.000000
vn -0.000000 1.000000 0.000000
vn -0.000000 1.000000 0.000000
vn -0.000000 1.000000 0.000000
vn -0.000000 1.000000 0.000000
vn 0.000000 0.000000 1.000000
vn 0.000000 0.000000 1.000000
vn 0.000000 0.000000 1.000000
vn 0.000000 0.000000 1.000000
vn 1.000000 0.000000 0.000000
vn 1.000000 0.000000 0.000000
vn 1.000000 0.000000 0.000000
vn 1.000000 0.000000 0.000000
vn 0.000000 0.000000 -1.000000
vn 0.000000 0.000000 -1.000000
vn 0.000000 0.000000 -1.000000
vn 0.000000 0.000000 -1.000000
vn -1.000000 0.000000 0.000000
vn -1.000000 0.000000 0.000000
vn -1.000000 0.000000 0.000000
vn -1.000000 0.000000 0.000000
vn 0.912744 -0.408532 0.000000
vn 0.912744 -0.408532 0.000000
vn 0.912744 -0.408532 0.000000
vn 0.912744 -0.408532 0.000000
vn 0.000000 -0.408534 -0.912743
vn 0.000000 -0.408534 -0.912743
vn 0.000000 -0.408534 -0.912743
vn 0.000000 -0.408534 -0.912743
vn -0.912744 -0.408533 0.000000
vn -0.912744 -0.408533 0.000000
vn -0.912744 -0.408533 0.000000
vn -0.912744 -0.408533 0.000000
vn 0.000000 -0.408534 0.912743
vn 0.000000 -0.408534 0.912743
vn 0.000000 -0.408534 0.912743
vn 0.000000 -0.408534 0.912743
s off
f 9/9/1 10/10/2 11/11/3 12/12/4
f 18/3/5 17/4/6 19/5/7 20/6/8
f 14/13/9 13/14/10 15/15/11 16/16/12
f 7/1/13 8/2/14 2/7/15 1/8/16
f 10/10/17 15/15/18 13/14/19 11/11/20
f 16/16/21 9/9/22 12/12/23 14/13/24
f 1/17/25 2/18/26 10/10/27 9/9/28
f 4/19/29 3/20/30 12/12/31 11/11/32
f 5/21/33 6/22/34 13/14/35 14/13/36
f 8/23/37 7/24/38 16/16/39 15/15/40
f 2/18/41 8/23/42 15/15/43 10/10/44
f 6/22/45 4/19/46 11/11/47 13/14/48
f 7/24/49 1/17/50 9/9/51 16/16/52
f 3/20/53 5/21/54 14/13/55 12/12/56
f 24/32/57 21/29/58 17/4/59 18/3/60
f 21/29/61 22/30/62 19/5/63 17/4/64
f 22/30/65 23/31/66 20/6/67 19/5/68
f 23/31/69 24/32/70 18/3/71 20/6/72
f 4/26/73 6/27/74 22/30/75 21/29/76
f 6/27/77 5/28/78 23/31/79 22/30/80
f 5/28/81 3/25/82 24/32/83 23/31/84
f 3/25/85 4/26/86 21/29/87 24/32/88
