# This file uses centimeters as units for non-parametric coordinates.

v 6.102692 30.194023 8.277130
v 8.287231 30.194023 6.092560
v 7.132477 29.381840 4.937714
v 4.947815 29.381840 7.122284
v 6.095520 36.373062 3.900665
v 3.910797 36.373062 6.085297
v 3.225403 34.763454 5.399841
v 5.410034 34.763454 3.215210
v 8.600830 23.197737 6.542389
v 7.062225 23.197737 5.003723
v 5.036255 23.197737 7.029723
v 6.574860 23.197737 8.568298
v 1.969086 35.281940 -0.225678
v 2.426819 36.891544 0.232086
v 0.242188 36.891544 2.416687
v -0.215515 35.281940 1.958954
v -0.000031 36.966202 3.653290
v 3.653381 36.966202 -0.000122
v -0.000031 36.966202 -3.653442
v -6.795715 29.227947 8.702270
v -5.680756 0.000011 7.274597
v 5.680756 0.000011 7.274597
v -3.653412 36.966202 -0.000092
v -8.702423 29.227947 7.172180
v -8.702423 29.227947 -7.172363
v -7.274597 0.000011 -5.995606
v -7.274597 0.000011 5.995422
v -7.126556 29.227947 -8.702423
v 7.126678 29.227947 -8.702423
v -5.957336 0.000011 -7.274659
v 5.957397 0.000011 -7.274659
v 8.702393 29.227947 -6.783569
v 7.274597 0.000011 -5.670532
v 7.274597 0.000011 5.670410
v -6.795715 3.281034 8.702270
v 6.795685 3.281044 8.702270
v 8.702393 3.281034 6.783418
v 8.702393 3.281044 -6.783569
v 7.126678 3.281034 -8.702423
v -7.126556 3.281044 -8.702423
v -8.702423 3.281034 -7.172363
v -8.702423 3.281044 7.172180
v -7.563995 32.892006 5.737701
v -5.436615 32.892006 7.563904
v 7.563995 32.892006 -5.426880
v 5.701355 32.892006 -7.564087
v -5.701294 32.892006 -7.564117
v -7.563995 32.892006 -5.737854
v -2.331604 38.524776 2.331543
v -0.000031 38.524776 3.229858
v 2.331604 38.524776 2.331512
v 3.229919 38.524776 -0.000092
v 2.331604 38.524776 -2.331726
v -0.000031 38.524776 -3.230011
v -2.331604 38.524776 -2.331726
v -3.229919 38.524776 -0.000092
v -2.153351 41.240356 2.153351
v -0.000031 41.240356 2.983002
v 2.153473 41.240356 2.153351
v 2.983032 41.240356 -0.000092
v 2.153473 41.240356 -2.153534
v -0.000031 41.240356 -2.983124
v -2.153351 41.240356 -2.153534
v -2.983032 41.240356 -0.000092
v -2.661774 37.726738 2.661652
v -0.000031 37.726738 3.687073
v 2.661743 37.726738 2.661652
v 3.687164 37.726738 -0.000092
v 2.661743 37.726738 -2.661865
v -0.000031 37.726738 -3.687256
v -2.661774 37.726738 -2.661865
v -3.687134 37.726738 -0.000122
v -5.436615 29.227947 8.702241
v 8.702393 29.227947 -5.426910
v 6.795685 23.747442 8.702270
v 8.702393 23.747442 6.783418
v -3.432587 24.375240 8.702241
v 8.702393 24.375240 -3.426483
v 4.985626 32.892006 0.289154
v 0.289124 32.892006 4.985565
v 0.406952 29.581697 5.558746
v 5.558838 29.581697 0.406891
v 6.432739 25.176846 1.896637
v 1.896759 25.176846 6.432587
v 2.637451 32.892006 2.637268
v 5.963440 23.197737 8.137848
v 8.148041 23.197737 5.953217
v 4.304352 23.197737 6.478728
v 6.488953 23.197737 4.294128
v 5.277039 7.975187 -8.702423
v -5.271973 7.975190 -8.702423
v -5.271973 24.533789 -8.702423
v 5.277039 24.533789 -8.702423
v -5.308838 20.765356 8.702270
v -5.308838 7.118188 8.702270
v 4.750366 7.118200 8.702270
v 4.750366 20.765347 8.702270
vt 0.400372 0.492363
vt 0.400345 0.491987
vt 0.400398 0.491792
vt 0.400222 0.491878
vt 0.400255 0.492247
vt 0.400420 0.492154
vt 0.400540 0.492263
vt 0.400525 0.491893
vt 0.400387 0.492565
vt 0.400273 0.492446
vt 0.400432 0.492350
vt 0.400548 0.492462
vt 0.400201 0.491648
vt 0.400329 0.491752
vt 0.400515 0.491662
vt 0.400384 0.491565
vt 0.400479 0.491934
vt 0.400884 0.491354
vt 0.400335 0.491197
vt 0.399884 0.491747
vt 0.339682 0.446964
vt 0.339314 0.446976
vt 0.338923 0.446967
vt 0.338775 0.446942
vt 0.338908 0.446919
vt 0.339244 0.446909
vt 0.339597 0.446917
vt 0.339775 0.446939
vt 0.400323 0.491769
vt 0.400129 0.491720
vt 0.400126 0.491022
vt 0.400334 0.491045
vt 0.400159 0.491774
vt 0.400319 0.491816
vt 0.400401 0.491805
vt 0.400472 0.491732
vt 0.400442 0.491698
vt 0.400292 0.491663
vt 0.400218 0.491672
vt 0.400137 0.491737
vt 0.400099 0.491002
vt 0.400103 0.491678
vt 0.400202 0.491603
vt 0.400204 0.490968
vt 0.400270 0.490832
vt 0.400325 0.490956
vt 0.400158 0.490941
vt 0.400259 0.490823
vt 0.400131 0.490924
vt 0.400215 0.490900
vt 0.400297 0.490963
vt 0.400290 0.491593
vt 0.400339 0.490821
vt 0.400306 0.490896
vt 0.400422 0.491756
vt 0.400439 0.491039
vt 0.400357 0.490833
vt 0.400427 0.490951
vt 0.400469 0.491632
vt 0.400506 0.491672
vt 0.400461 0.491029
vt 0.400295 0.490819
vt 0.400344 0.490820
vt 0.400344 0.490820
vt 0.400295 0.490819
vt 0.400378 0.490824
vt 0.400378 0.490824
vt 0.400375 0.490831
vt 0.400375 0.490831
vt 0.400338 0.490835
vt 0.400338 0.490835
vt 0.400287 0.490834
vt 0.400287 0.490834
vt 0.400253 0.490829
vt 0.400253 0.490829
vt 0.400259 0.490823
vt 0.400259 0.490823
vt 0.339677 0.447360
vt 0.339313 0.447380
vt 0.338925 0.447364
vt 0.338778 0.447321
vt 0.338909 0.447280
vt 0.339243 0.447264
vt 0.339593 0.447277
vt 0.339771 0.447316
vt 0.400354 0.490969
vt 0.400482 0.491177
vt 0.400375 0.491128
vt 0.400521 0.491194
vt 0.400465 0.491194
vt 0.400438 0.491175
vt 0.400402 0.491148
vt 0.400429 0.491011
vt 0.400367 0.490924
vt 0.400386 0.490987
vt 0.400342 0.490913
vt 0.400391 0.490935
vt 0.400432 0.492350
vt 0.400273 0.492446
vt 0.400387 0.492565
vt 0.400467 0.492514
vt 0.400548 0.492462
vt 0.400323 0.491769
vt 0.400129 0.491720
vt 0.400126 0.491022
vt 0.400334 0.491045
vt 0.400325 0.490966
vt 0.400290 0.491593
vt 0.400469 0.491632
vt 0.400482 0.491177
vt 0.400375 0.491128
vt 0.370783 0.418481
vt 0.370784 0.419481
vt 0.370052 0.419479
vt 0.370054 0.418481
vt 0.371009 0.418876
vt 0.370544 0.418981
vt 0.370546 0.418014
vt 0.371021 0.417981
vn 0.632033 0.448394 0.632042
vn 0.632033 0.448394 0.632042
vn 0.632033 0.448394 0.632042
vn 0.632033 0.448394 0.632042
vn -0.644182 -0.412361 -0.644196
vn -0.644182 -0.412361 -0.644196
vn -0.644182 -0.412361 -0.644196
vn -0.644182 -0.412361 -0.644196
vn 0.707121 -0.000005 -0.707092
vn 0.707122 -0.000005 -0.707092
vn 0.707121 -0.000005 -0.707092
vn 0.707121 -0.000005 -0.707092
vn -0.707110 -0.000004 0.707103
vn -0.707110 -0.000004 0.707103
vn -0.707110 -0.000004 0.707103
vn -0.707110 -0.000004 0.707103
vn 0.705009 0.076926 0.705014
vn 0.705009 0.076926 0.705014
vn 0.705009 0.076926 0.705014
vn 0.705009 0.076926 0.705014
vn 0.709234 -0.014490 -0.704825
vn 0.709234 -0.014490 -0.704825
vn 0.709234 -0.014490 -0.704825
vn 0.709234 -0.014490 -0.704825
vn -0.707102 0.000478 -0.707112
vn -0.707102 0.000478 -0.707112
vn -0.707102 0.000478 -0.707112
vn -0.707102 0.000478 -0.707112
vn -0.704059 -0.019249 0.709880
vn -0.704059 -0.019249 0.709880
vn -0.704059 -0.019249 0.709880
vn -0.704059 -0.019249 0.709880
vn 0.707099 0.000006 -0.707114
vn 0.707099 0.000006 -0.707114
vn 0.707099 0.000006 -0.707114
vn 0.707099 0.000006 -0.707114
vn 0.070313 0.995044 0.070314
vn 0.070313 0.995044 0.070314
vn 0.070313 0.995044 0.070314
vn 0.070313 0.995044 0.070314
vn -0.707107 -0.000020 0.707107
vn -0.707107 -0.000020 0.707107
vn -0.707107 -0.000020 0.707107
vn -0.707107 -0.000020 0.707107
vn -0.074918 -0.994372 -0.074917
vn -0.074918 -0.994372 -0.074917
vn -0.074918 -0.994372 -0.074917
vn -0.074918 -0.994372 -0.074917
vn 0.000000 1.000000 0.000000
vn 0.000000 1.000000 0.000000
vn 0.000000 1.000000 0.000000
vn 0.000000 1.000000 0.000000
vn 0.000000 1.000000 0.000000
vn 0.000000 1.000000 0.000000
vn 0.000000 1.000000 0.000000
vn 0.000000 1.000000 0.000000
vn 0.000000 0.000000 -1.000000
vn 0.000000 0.000000 -1.000000
vn 0.000000 0.000000 -1.000000
vn 0.000000 0.000000 -1.000000
vn 0.000000 -1.000000 0.000000
vn 0.000000 -1.000000 0.000000
vn 0.000000 -1.000000 0.000000
vn 0.000000 -1.000000 0.000000
vn 0.000000 -1.000000 0.000000
vn 0.000000 -1.000000 0.000000
vn 0.000000 -1.000000 0.000000
vn 0.000000 -1.000000 0.000000
vn -1.000000 0.000000 0.000000
vn -1.000000 0.000000 0.000000
vn -1.000000 0.000000 0.000000
vn -1.000000 0.000000 0.000000
vn 0.000002 0.692479 -0.721438
vn 0.000002 0.692479 -0.721438
vn 0.000002 0.692479 -0.721438
vn -0.721444 0.692472 0.000000
vn -0.721444 0.692472 0.000000
vn -0.721444 0.692472 0.000000
vn -0.696603 0.000000 -0.717457
vn -0.696603 0.000000 -0.717457
vn -0.696603 0.000000 -0.717457
vn -0.696603 0.000000 -0.717457
vn -0.625872 0.000000 0.779926
vn -0.625872 0.000000 0.779926
vn -0.625872 0.000000 0.779926
vn -0.625872 0.000000 0.779926
vn -0.356798 0.854992 0.376409
vn -0.356799 0.854992 0.376409
vn -0.356798 0.854992 0.376409
vn -0.356798 0.854992 0.376409
vn 0.772822 0.000000 -0.634622
vn 0.772822 0.000000 -0.634622
vn 0.772822 0.000000 -0.634622
vn 0.772822 0.000000 -0.634622
vn -0.361842 0.858133 -0.364249
vn -0.361842 0.858134 -0.364249
vn -0.361842 0.858133 -0.364249
vn -0.361842 0.858133 -0.364249
vn 0.376198 0.854429 -0.358366
vn 0.376198 0.854429 -0.358366
vn 0.376198 0.854429 -0.358366
vn 0.376198 0.854429 -0.358366
vn 0.000000 -0.187983 0.982172
vn 0.000000 -0.189151 0.981948
vn 0.000000 -0.398994 0.916954
vn 0.000000 -0.398994 0.916954
vn 0.622143 -0.480416 0.618173
vn 0.622143 -0.480416 0.618173
vn 0.622143 -0.480416 0.618173
vn 0.622143 -0.480416 0.618173
vn 0.916941 -0.399023 -0.000000
vn 0.916941 -0.399023 -0.000000
vn 0.916941 -0.399023 -0.000000
vn 0.916941 -0.399023 -0.000000
vn 0.676713 -0.482983 -0.555685
vn 0.676713 -0.482983 -0.555685
vn 0.676713 -0.482983 -0.555685
vn 0.676713 -0.482983 -0.555685
vn -0.000000 -0.399015 -0.916944
vn -0.000000 -0.167199 -0.985923
vn -0.000000 -0.167224 -0.985919
vn -0.000000 -0.399015 -0.916944
vn -0.607680 -0.488906 -0.625856
vn -0.607680 -0.488906 -0.625856
vn -0.607680 -0.488906 -0.625856
vn -0.607680 -0.488906 -0.625856
vn -0.916938 -0.399030 0.000000
vn -0.916938 -0.399030 0.000000
vn -0.916938 -0.399030 0.000000
vn -0.916938 -0.399030 0.000000
vn -0.547938 -0.483311 0.682769
vn -0.547938 -0.483311 0.682769
vn -0.547938 -0.483311 0.682769
vn -0.547938 -0.483311 0.682769
vn -0.574812 0.438472 0.690894
vn -0.574812 0.438471 0.690894
vn -0.574812 0.438472 0.690894
vn -0.574812 0.438471 0.690894
vn 0.954970 0.296702 0.000000
vn 0.954970 0.296702 0.000000
vn 0.954970 0.296702 0.000000
vn 0.685793 0.437857 -0.581352
vn 0.685793 0.437857 -0.581352
vn 0.685793 0.437857 -0.581352
vn 0.685793 0.437857 -0.581352
vn 0.000001 0.296684 -0.954976
vn 0.000001 0.296684 -0.954976
vn 0.000001 0.124457 -0.992225
vn 0.000001 0.124438 -0.992227
vn -0.625850 0.444062 -0.641186
vn -0.625850 0.444063 -0.641186
vn -0.625850 0.444062 -0.641186
vn -0.625850 0.444062 -0.641186
vn -0.954968 0.296710 0.000000
vn -0.954968 0.296710 0.000000
vn -0.954968 0.296710 0.000000
vn -0.954968 0.296710 0.000000
vn -0.317033 0.471509 0.822903
vn -0.317033 0.471509 0.822903
vn -0.317033 0.471509 0.822903
vn -0.317033 0.471509 0.822903
vn 0.317031 0.471516 0.822900
vn 0.317031 0.471516 0.822900
vn 0.317031 0.471516 0.822900
vn 0.317031 0.471516 0.822900
vn 0.822893 0.471529 0.317029
vn 0.822893 0.471529 0.317029
vn 0.822893 0.471529 0.317029
vn 0.822893 0.471529 0.317029
vn 0.822895 0.471529 -0.317025
vn 0.822895 0.471529 -0.317025
vn 0.822895 0.471529 -0.317025
vn 0.822895 0.471529 -0.317026
vn 0.317016 0.471529 -0.822898
vn 0.317016 0.471529 -0.822898
vn 0.317016 0.471529 -0.822898
vn 0.317016 0.471529 -0.822898
vn -0.317020 0.471533 -0.822894
vn -0.317020 0.471533 -0.822894
vn -0.317020 0.471533 -0.822894
vn -0.317020 0.471533 -0.822894
vn -0.822895 0.471533 -0.317018
vn -0.822895 0.471533 -0.317018
vn -0.822895 0.471533 -0.317018
vn -0.822895 0.471533 -0.317018
vn -0.822903 0.471519 0.317019
vn -0.822903 0.471519 0.317019
vn -0.822903 0.471519 0.317019
vn -0.822903 0.471519 0.317019
vn -0.358238 0.084525 0.929796
vn -0.358238 0.084525 0.929796
vn -0.358238 0.084525 0.929796
vn -0.358238 0.084525 0.929797
vn 0.358227 0.084511 0.929802
vn 0.358227 0.084511 0.929802
vn 0.358227 0.084511 0.929802
vn 0.358227 0.084511 0.929802
vn 0.929808 0.084513 0.358211
vn 0.929808 0.084513 0.358211
vn 0.929808 0.084513 0.358211
vn 0.929808 0.084513 0.358211
vn 0.929809 0.084515 -0.358209
vn 0.929809 0.084515 -0.358209
vn 0.929809 0.084515 -0.358209
vn 0.929808 0.084515 -0.358209
vn 0.358204 0.084522 -0.929810
vn 0.358204 0.084522 -0.929810
vn 0.358204 0.084522 -0.929810
vn 0.358204 0.084522 -0.929810
vn -0.358221 0.084530 -0.929802
vn -0.358221 0.084530 -0.929802
vn -0.358221 0.084530 -0.929802
vn -0.358221 0.084530 -0.929802
vn -0.929798 0.084536 -0.358230
vn -0.929798 0.084536 -0.358230
vn -0.929798 0.084536 -0.358230
vn -0.929798 0.084536 -0.358230
vn -0.929798 0.084536 0.358230
vn -0.929798 0.084536 0.358230
vn -0.929798 0.084536 0.358230
vn -0.929798 0.084536 0.358230
vn -0.359182 -0.041415 0.932348
vn -0.359182 -0.041415 0.932348
vn -0.359182 -0.041415 0.932348
vn 0.359179 -0.041415 0.932349
vn 0.359179 -0.041415 0.932349
vn 0.359179 -0.041415 0.932349
vn 0.382852 -0.840743 0.382852
vn 0.382852 -0.840743 0.382852
vn 0.382852 -0.840743 0.382852
vn 0.932351 -0.041400 -0.359177
vn 0.932351 -0.041400 -0.359177
vn 0.932351 -0.041400 -0.359177
vn 0.382845 -0.840745 -0.382854
vn 0.382845 -0.840745 -0.382854
vn 0.382845 -0.840745 -0.382854
vn -0.359172 -0.041452 -0.932350
vn -0.359172 -0.041452 -0.932350
vn -0.359172 -0.041452 -0.932350
vn -0.382848 -0.840745 -0.382850
vn -0.382848 -0.840745 -0.382850
vn -0.382848 -0.840745 -0.382850
vn -0.932361 -0.041326 0.359158
vn -0.932361 -0.041326 0.359158
vn -0.932361 -0.041326 0.359158
vn 0.291556 0.192807 0.936921
vn 0.000021 0.296688 0.954974
vn 0.000015 0.058592 0.998282
vn 0.000000 0.000001 1.000000
vn 0.000000 0.000000 1.000000
vn 0.000000 0.000000 1.000000
vn -0.000000 0.000001 1.000000
vn 0.709348 0.000000 0.704859
vn 0.709348 0.000000 0.704859
vn 0.709348 0.000000 0.704859
vn 0.709348 0.000000 0.704859
vn 1.000000 0.000000 0.000000
vn 1.000000 0.000000 0.000000
vn 1.000000 0.000000 0.000000
vn 1.000000 0.000000 0.000000
vn 1.000000 0.000000 0.000000
vn 1.000000 0.000000 0.000000
vn 0.192244 0.962405 0.191884
vn 0.192244 0.962405 0.191884
vn 0.192244 0.962405 0.191884
vn 0.192244 0.962405 0.191884
vn 0.699526 0.146020 0.699530
vn 0.699526 0.146020 0.699530
vn 0.699526 0.146020 0.699530
vn 0.661114 0.354755 0.661118
vn 0.661114 0.354755 0.661118
vn 0.661114 0.354755 0.661118
vn 0.661114 0.354755 0.661118
vn 0.390227 0.311069 0.866579
vn 0.390227 0.311070 0.866579
vn 0.390227 0.311069 0.866579
vn 0.426750 0.222332 0.876615
vn 0.426749 0.222332 0.876615
vn 0.426749 0.222332 0.876615
vn 0.426749 0.222332 0.876615
vn 0.403851 0.235848 0.883900
vn 0.403851 0.235848 0.883901
vn 0.291556 0.192807 0.936921
vn 0.160897 0.093966 0.982488
vn 0.054874 0.894042 0.444610
vn 0.054874 0.894042 0.444610
vn 0.054874 0.894042 0.444610
vn 0.444675 0.894004 0.054972
vn 0.444675 0.894004 0.054972
vn 0.444675 0.894004 0.054972
vn 0.883681 0.235853 0.404328
vn 0.883681 0.235853 0.404328
vn 0.883681 0.235853 0.404328
vn 0.883681 0.235853 0.404328
vn 0.876340 0.222279 0.427341
vn 0.876340 0.222279 0.427341
vn 0.876340 0.222279 0.427341
vn 0.876340 0.222279 0.427341
vn 0.866340 0.311036 0.390785
vn 0.866339 0.311036 0.390785
vn 0.866340 0.311036 0.390785
vn 0.680663 0.270897 0.680670
vn 0.680663 0.270897 0.680670
vn 0.680664 0.270897 0.680670
vn 0.680663 0.270897 0.680670
vn 0.680664 0.270890 0.680673
vn 0.680664 0.270890 0.680673
vn 0.680664 0.270890 0.680673
vn 0.699523 0.146023 0.699532
vn 0.699523 0.146023 0.699532
vn 0.699523 0.146023 0.699532
vn 0.699519 0.146009 0.699538
vn 0.699519 0.146009 0.699538
vn 0.699519 0.146009 0.699538
vn 0.068215 -0.995336 0.068214
vn 0.068215 -0.995336 0.068214
vn 0.068215 -0.995336 0.068214
vn 0.068215 -0.995336 0.068214
vn 0.068215 -0.995336 0.068214
vn -0.382857 -0.840739 0.382856
vn -0.382858 -0.840739 0.382856
vn -0.382858 -0.840739 0.382856
vn -0.932359 -0.041354 -0.359161
vn -0.932359 -0.041354 -0.359161
vn -0.932359 -0.041354 -0.359161
vn 0.359169 -0.041453 -0.932351
vn 0.359169 -0.041453 -0.932351
vn 0.359169 -0.041453 -0.932351
vn 0.932348 -0.041428 0.359181
vn 0.932348 -0.041428 0.359181
vn 0.932348 -0.041428 0.359181
vn -0.000000 -0.167224 -0.985919
vn -0.000000 -0.167199 -0.985923
vn 0.000000 0.000000 -1.000000
vn 0.000000 0.000000 -1.000000
vn -0.000000 -0.167199 -0.985923
vn 0.000001 0.124438 -0.992227
vn 0.000000 0.000000 -1.000000
vn 0.000000 0.000000 -1.000000
vn 0.000001 0.124438 -0.992227
vn 0.000001 0.124457 -0.992225
vn 0.000000 0.000000 -1.000000
vn 0.000000 0.000000 -1.000000
vn 0.000001 0.124457 -0.992225
vn -0.000000 -0.167224 -0.985919
vn 0.000000 0.000000 -1.000000
vn 0.000000 0.000000 -1.000000
vn 0.000015 0.058592 0.998282
vn 0.000000 -0.189151 0.981948
vn 0.000000 0.000000 1.000000
vn 0.000000 0.000001 1.000000
vn 0.000000 -0.189151 0.981948
vn 0.000000 -0.187983 0.982172
vn 0.000000 0.000000 1.000000
vn 0.000000 0.000000 1.000000
vn 0.000000 -0.187983 0.982172
vn -0.000001 0.000003 1.000000
vn -0.000000 0.000001 1.000000
vn 0.000000 0.000000 1.000000
vn -0.000001 0.000003 1.000000
vn 0.160897 0.093966 0.982488
vn 0.000000 0.000001 1.000000
vn -0.000000 0.000001 1.000000
vn 0.160897 0.093966 0.982488
vn 0.291556 0.192807 0.936921
vn 0.000000 0.000001 1.000000
vn 0.291556 0.192807 0.936921
vn 0.000015 0.058592 0.998282
vn 0.000000 0.000001 1.000000
s off
f 2/1/1 5/2/2 6/8/3 1/7/4
f 7/3/5 8/4/6 3/5/7 4/6/8
f 2/1/9 3/5/10 8/4/11 5/2/12
f 4/6/13 1/7/14 6/8/15 7/3/16
f 12/12/17 9/9/18 2/1/19 1/7/20
f 9/9/21 10/10/22 3/5/23 2/1/24
f 4/6/25 3/5/26 10/10/27 11/11/28
f 11/11/29 12/12/30 1/7/31 4/6/32
f 5/2/33 8/4/34 13/13/35 14/14/36
f 5/2/37 14/14/38 15/15/39 6/8/40
f 7/3/41 6/8/42 15/15/43 16/16/44
f 13/17/45 8/18/46 7/19/47 16/20/48
f 57/21/49 58/22/50 59/23/51 60/24/52 61/25/53 62/26/54 63/27/55 64/28/56
f 90/116/57 91/117/58 92/118/59 93/119/60
f 30/33/61 31/34/62 33/35/63 34/36/64 22/37/65 21/38/66 27/39/67 26/40/68
f 25/41/69 41/42/70 42/43/71 24/44/72
f 19/45/73 46/46/74 47/47/75
f 23/48/76 48/49/77 43/50/78
f 40/30/79 41/42/80 25/41/81 28/31/82
f 20/51/83 24/44/84 42/43/85 35/52/86
f 17/53/87 23/48/88 43/50/89 44/54/90
f 38/55/91 39/29/92 29/32/93 32/56/94
f 19/45/95 47/47/96 48/49/97 23/48/98
f 18/57/99 45/58/100 46/46/101 19/45/102
f 36/59/103 35/52/104 21/38/105 22/37/106
f 36/59/107 22/37/108 34/36/109 37/60/110
f 38/55/111 37/60/112 34/36/113 33/35/114
f 33/35/115 31/34/116 39/29/117 38/55/118
f 30/33/119 40/30/120 39/29/121 31/34/122
f 30/33/123 26/40/124 41/42/125 40/30/126
f 42/43/127 41/42/128 26/40/129 27/39/130
f 35/52/131 42/43/132 27/39/133 21/38/134
f 43/50/135 24/44/136 20/51/137 44/54/138
f 45/58/139 74/61/140 32/56/141
f 45/58/142 32/56/143 29/32/144 46/46/145
f 47/47/146 46/46/147 29/32/148 28/31/149
f 47/47/150 28/31/151 25/41/152 48/49/153
f 43/50/154 48/49/155 25/41/156 24/44/157
f 65/62/158 66/63/159 50/64/160 49/65/161
f 66/63/162 67/66/163 51/67/164 50/64/165
f 67/66/166 68/68/167 52/69/168 51/67/169
f 68/68/170 69/70/171 53/71/172 52/69/173
f 69/70/174 70/72/175 54/73/176 53/71/177
f 70/72/178 71/74/179 55/75/180 54/73/181
f 71/74/182 72/76/183 56/77/184 55/75/185
f 72/76/186 65/62/187 49/65/188 56/77/189
f 49/78/190 50/79/191 58/22/192 57/21/193
f 50/79/194 51/80/195 59/23/196 58/22/197
f 51/80/198 52/81/199 60/24/200 59/23/201
f 52/81/202 53/82/203 61/25/204 60/24/205
f 53/82/206 54/83/207 62/26/208 61/25/209
f 54/83/210 55/84/211 63/27/212 62/26/213
f 55/84/214 56/85/215 64/28/216 63/27/217
f 56/85/218 49/78/219 57/21/220 64/28/221
f 17/53/222 66/63/223 65/62/224
f 17/53/225 67/66/226 66/63/227
f 17/53/228 18/57/229 67/66/230
f 18/57/231 69/70/232 68/68/233
f 18/57/234 19/45/235 69/70/236
f 19/45/237 71/74/238 70/72/239
f 19/45/240 23/48/241 71/74/242
f 23/48/243 65/62/244 72/76/245
f 73/86/246 44/54/247 20/51/248
f 94/112/249 95/113/250 96/114/251 97/115/252
f 76/89/253 75/87/254 36/59/255 37/60/256
f 74/61/257 78/90/258 76/89/259 37/60/260 38/55/261 32/56/262
f 76/89/263 83/91/264 84/92/265 75/87/266
f 82/93/267 85/94/268 81/95/269
f 83/91/270 82/93/271 81/95/272 84/92/273
f 80/96/274 17/53/275 44/54/276
f 81/95/277 80/96/278 44/54/279 73/86/280
f 84/92/281 81/95/282 73/86/283 77/88/284
f 75/87/285 84/92/286 77/88/287
f 78/90/288 83/91/289 76/89/290
f 74/61/291 82/93/292 83/91/293 78/90/294
f 45/58/295 79/97/296 82/93/297 74/61/298
f 18/57/299 79/97/300 45/58/301
f 79/97/302 18/57/303 17/53/304 85/94/305
f 85/94/306 17/53/307 80/96/308
f 81/95/309 85/94/310 80/96/311
f 82/93/312 79/97/313 85/94/314
f 88/98/315 89/99/316 87/100/317 76/101/318 86/102/319
f 23/48/320 17/53/321 65/62/322
f 71/74/323 23/48/324 72/76/325
f 69/70/326 19/45/327 70/72/328
f 67/66/329 18/57/330 68/68/331
f 39/29/332 40/30/333 91/104/334 90/103/335
f 40/30/336 28/31/337 92/105/338 91/104/339
f 28/31/340 29/32/341 93/106/342 92/105/343
f 29/32/344 39/29/345 90/103/346 93/106/347
f 20/51/348 35/52/349 95/108/350 94/107/351
f 35/52/352 36/59/353 96/109/354 95/108/355
f 36/59/356 75/87/357 97/110/358 96/109/359
f 75/87/360 77/88/361 94/111/362 97/110/363
f 77/88/364 73/86/365 94/107/366
f 73/86/367 20/51/368 94/107/369
