# This file uses centimeters as units for non-parametric coordinates.

v 0.000000 28.096958 37.646679
v 0.000000 -28.096817 37.646675
v 0.000000 -28.096817 -37.646675
v 0.000000 28.096962 -37.646675
v -50.000000 -28.096817 37.646675
v -50.000000 -28.096817 -37.646675
v -50.000000 28.096962 -37.646675
v -50.000000 28.096958 37.646679
v 5.000000 31.207066 -41.044079
v -5.000000 31.207066 -41.044079
v 5.000000 31.207066 41.044079
v -5.000000 31.207066 41.044079
v 5.000000 -31.207066 41.044079
v -5.000000 -31.207066 41.044079
v 5.000000 -31.207066 -41.044079
v -5.000000 -31.207066 -41.044079
v 3.572540 37.304699 -54.678043
v -3.572540 37.304699 -54.678043
v 3.572540 37.304695 54.678047
v -3.572540 37.304695 54.678047
v 3.572540 30.648079 61.141212
v -3.572540 30.648079 61.141212
v 3.572540 30.648079 -61.141212
v -3.572540 30.648079 -61.141212
v 3.572540 58.801960 54.678043
v -3.572540 58.801960 54.678043
v -3.572540 58.801960 61.141216
v 3.572540 58.801960 61.141216
v 3.572540 58.801960 -54.678043
v -3.572540 58.801960 -54.678043
v 3.572540 58.801964 -61.141212
v -3.572540 58.801964 -61.141212
v 7.978668 58.801960 50.692417
v -7.978668 58.801960 50.692417
v -7.978668 58.801960 65.126831
v 7.978668 58.801960 65.126831
v 7.978668 58.801960 -50.692417
v -7.978668 58.801960 -50.692417
v 7.978668 58.801964 -65.126831
v -7.978668 58.801964 -65.126831
v 7.978668 67.164200 50.692421
v -7.978668 67.164200 50.692421
v -7.978668 67.164200 65.126831
v 7.978668 67.164200 65.126831
v 7.978668 67.164200 -50.692417
v -7.978668 67.164200 -50.692417
v 7.978668 67.164200 -65.126831
v -7.978668 67.164200 -65.126831
vt 0.090981 0.282274
vt 0.090981 0.282274
vt 0.090981 0.282274
vt 0.090981 0.282274
vt 0.090981 0.282274
vt 0.090981 0.282274
vt 0.090981 0.282274
vt 0.090981 0.282274
vt 0.090981 0.282274
vt 0.090981 0.282274
vt 0.090981 0.282274
vt 0.090981 0.282274
vt 0.090981 0.282274
vt 0.090981 0.282274
vt 0.090981 0.282274
vt 0.090981 0.282274
vt 0.090981 0.282274
vt 0.090981 0.282274
vt 0.090998 0.227318
vt 0.090998 0.227318
vt 0.090998 0.227318
vt 0.090998 0.227318
vt 0.090998 0.227318
vt 0.090998 0.227318
vt 0.090998 0.227318
vt 0.090998 0.227318
vt 0.090998 0.227318
vt 0.090998 0.227318
vt 0.090998 0.227318
vt 0.090998 0.227318
vt 0.090998 0.227318
vt 0.090998 0.227318
vt 0.090998 0.227318
vt 0.090998 0.227318
vt 0.090998 0.227318
vt 0.090998 0.227318
vt 0.090998 0.227318
vt 0.090998 0.227318
vt 0.090998 0.227318
vt 0.090998 0.227318
vt 0.090998 0.227318
vt 0.090998 0.227318
vt 0.090998 0.227318
vt 0.090998 0.227318
vt 0.090998 0.227318
vt 0.090998 0.227318
vt 0.090998 0.227318
vt 0.090998 0.227318
vt 0.090998 0.227318
vt 0.090998 0.227318
vt 0.090998 0.227318
vt 0.090998 0.227318
vt 0.090998 0.227318
vt 0.090998 0.227318
vt 0.090998 0.227318
vt 0.090998 0.227318
vt 0.090981 0.282274
vt 0.090981 0.282274
vt 0.090981 0.282274
vt 0.090981 0.282274
vt 0.090981 0.282274
vt 0.090981 0.282274
vt 0.090981 0.282274
vt 0.090981 0.282274
vt 0.090981 0.282274
vt 0.090981 0.282274
vt 0.090981 0.282274
vt 0.090981 0.282274
vt 0.090981 0.282274
vt 0.090981 0.282274
vt 0.090981 0.282274
vt 0.090981 0.282274
vt 0.090981 0.282274
vt 0.090981 0.282274
vt 0.090981 0.282274
vn 1.000000 0.000000 0.000000
vn 1.000000 0.000000 0.000000
vn 1.000000 0.000000 0.000000
vn 1.000000 0.000000 0.000000
vn 0.121876 -0.992545 0.000000
vn 0.000000 -0.986961 0.160957
vn -0.121876 -0.992545 0.000000
vn 0.000000 -0.986961 -0.160957
vn 0.121873 0.992546 0.000000
vn 0.000000 0.986962 -0.160953
vn -0.121873 0.992546 0.000000
vn 0.000000 0.986962 0.160953
vn 0.143143 -0.000000 0.989702
vn 0.000000 0.249257 0.968437
vn -0.143143 -0.000000 0.989702
vn 0.000000 -0.249259 0.968437
vn 0.143143 0.000000 -0.989702
vn 0.000000 -0.249259 -0.968437
vn -0.143143 0.000000 -0.989702
vn 0.000000 0.249257 -0.968437
vn 0.000000 1.000000 0.000000
vn 0.000000 1.000000 0.000000
vn 0.000000 1.000000 0.000000
vn 0.000000 1.000000 0.000000
vn 0.000000 0.000000 1.000000
vn 0.000000 0.000000 1.000000
vn 0.000000 0.000000 1.000000
vn 0.000000 0.000000 1.000000
vn 0.000000 -1.000000 0.000000
vn 0.000000 -1.000000 0.000000
vn 0.000000 -1.000000 0.000000
vn 0.000000 -1.000000 0.000000
vn 0.000000 0.000000 -1.000000
vn 0.000000 0.000000 -1.000000
vn 0.000000 0.000000 -1.000000
vn 0.000000 0.000000 -1.000000
vn -1.000000 0.000000 0.000000
vn -1.000000 0.000000 0.000000
vn -1.000000 0.000000 0.000000
vn -1.000000 0.000000 0.000000
vn 1.000000 0.000000 0.000000
vn 1.000000 0.000000 0.000000
vn 1.000000 0.000000 0.000000
vn 1.000000 0.000000 0.000000
vn 0.000000 1.000000 0.000000
vn 0.000000 1.000000 0.000000
vn 0.000000 1.000000 0.000000
vn 0.000000 1.000000 0.000000
vn 0.000000 -1.000000 0.000000
vn 0.000000 -1.000000 0.000000
vn 0.000000 -1.000000 0.000000
vn 0.000000 -1.000000 0.000000
vn -1.000000 0.000000 0.000000
vn -1.000000 0.000000 0.000000
vn -1.000000 0.000000 0.000000
vn -1.000000 0.000000 0.000000
vn 1.000000 0.000000 0.000000
vn 1.000000 0.000000 0.000000
vn 1.000000 0.000000 0.000000
vn 1.000000 0.000000 0.000000
vn 0.000000 1.000000 0.000000
vn 0.000000 1.000000 0.000000
vn 0.000000 1.000000 0.000000
vn 0.000000 1.000000 0.000000
vn 0.000000 1.000000 0.000000
vn 0.000000 1.000000 0.000000
vn 0.000000 1.000000 0.000000
vn 0.000000 1.000000 0.000000
vn 0.000000 -0.000000 -1.000000
vn 0.000000 -0.000000 -1.000000
vn 0.000000 -0.000000 -1.000000
vn 0.000000 -0.000000 -1.000000
vn -1.000000 0.000000 0.000000
vn -1.000000 0.000000 0.000000
vn -1.000000 0.000000 0.000000
vn -1.000000 0.000000 0.000000
vn 0.000000 -0.000000 1.000000
vn 0.000000 -0.000000 1.000000
vn 0.000000 -0.000000 1.000000
vn 0.000000 -0.000000 1.000000
vn 1.000000 0.000000 0.000000
vn 1.000000 0.000000 0.000000
vn 1.000000 0.000000 0.000000
vn 1.000000 0.000000 0.000000
vn 0.000000 0.000000 1.000000
vn 0.000000 0.000000 1.000000
vn 0.000000 0.000000 1.000000
vn 0.000000 0.000000 1.000000
vn 1.000000 0.000000 0.000000
vn 1.000000 0.000000 0.000000
vn 1.000000 0.000000 0.000000
vn 1.000000 0.000000 0.000000
vn 0.000000 0.000000 -1.000000
vn 0.000000 0.000000 -1.000000
vn 0.000000 0.000000 -1.000000
vn 0.000000 0.000000 -1.000000
vn -1.000000 0.000000 0.000000
vn -1.000000 0.000000 0.000000
vn -1.000000 0.000000 0.000000
vn -1.000000 0.000000 0.000000
vn 0.000000 -1.000000 0.000001
vn 0.000000 -1.000000 0.000001
vn 0.000000 -1.000000 0.000001
vn 0.000000 -1.000000 0.000001
vn 0.000000 -1.000000 0.000000
vn 0.000000 -1.000000 0.000000
vn 0.000000 -1.000000 0.000000
vn 0.000000 -1.000000 0.000000
vn 0.000000 -1.000000 -0.000001
vn 0.000000 -1.000000 -0.000001
vn 0.000000 -1.000000 -0.000001
vn 0.000000 -1.000000 -0.000001
vn 0.000000 -1.000000 0.000000
vn 0.000000 -1.000000 0.000000
vn 0.000000 -1.000000 0.000000
vn 0.000000 -1.000000 0.000000
vn 0.000000 -1.000000 -0.000001
vn 0.000000 -1.000000 -0.000001
vn 0.000000 -1.000000 -0.000001
vn 0.000000 -1.000000 -0.000001
vn 0.000000 -1.000000 -0.000001
vn 0.000000 -1.000000 -0.000001
vn 0.000000 -1.000000 -0.000001
vn 0.000000 -1.000000 -0.000001
vn 0.000000 -1.000000 0.000001
vn 0.000000 -1.000000 0.000001
vn 0.000000 -1.000000 0.000001
vn 0.000000 -1.000000 0.000001
vn -0.000000 -1.000000 -0.000001
vn -0.000000 -1.000000 -0.000001
vn -0.000000 -1.000000 -0.000001
vn -0.000000 -1.000000 -0.000001
vn 0.000000 0.000000 -1.000000
vn 0.000000 0.000000 -1.000000
vn 0.000000 0.000000 -1.000000
vn 0.000000 0.000000 -1.000000
vn -1.000000 0.000000 0.000000
vn -1.000000 0.000000 0.000000
vn -1.000000 0.000000 0.000000
vn -1.000000 0.000000 0.000000
vn 0.000000 0.000000 1.000000
vn 0.000000 0.000000 1.000000
vn 0.000000 0.000000 1.000000
vn 0.000000 0.000000 1.000000
vn 1.000000 0.000000 0.000000
vn 1.000000 0.000000 0.000000
vn 1.000000 0.000000 0.000000
vn 1.000000 0.000000 0.000000
vn 0.000000 0.000000 1.000000
vn 0.000000 0.000000 1.000000
vn 0.000000 0.000000 1.000000
vn 0.000000 0.000000 1.000000
vn 1.000000 0.000000 0.000000
vn 1.000000 0.000000 0.000000
vn 1.000000 0.000000 0.000000
vn 1.000000 0.000000 0.000000
vn 0.000000 0.000000 -1.000000
vn 0.000000 0.000000 -1.000000
vn 0.000000 0.000000 -1.000000
vn 0.000000 0.000000 -1.000000
vn -1.000000 0.000000 0.000000
vn -1.000000 0.000000 0.000000
vn -1.000000 0.000000 0.000000
vn -1.000000 0.000000 0.000000
vn -1.000000 0.000000 0.000000
vn -1.000000 0.000000 0.000000
vn -1.000000 0.000000 0.000000
vn -1.000000 0.000000 0.000000
s off
f 4/1/1 1/57/2 2/58/3 3/2/4
f 3/63/5 2/59/6 5/60/7 6/62/8
f 1/66/9 4/64/10 7/65/11 8/4/12
f 2/70/13 1/67/14 8/3/15 5/69/16
f 4/75/17 3/71/18 6/72/19 7/74/20
f 9/5/21 10/6/22 12/7/23 11/8/24
f 11/8/25 12/7/26 14/9/27 13/10/28
f 13/10/29 14/9/30 16/11/31 15/12/32
f 15/12/33 16/11/34 10/13/35 9/14/36
f 10/6/37 16/15/38 14/16/39 12/7/40
f 15/17/41 9/5/42 11/8/43 13/18/44
f 17/19/45 18/20/46 20/21/47 19/22/48
f 21/23/49 22/24/50 24/25/51 23/26/52
f 18/20/53 24/27/54 22/28/55 20/21/56
f 23/29/57 17/19/58 19/22/59 21/30/60
f 41/31/61 42/32/62 43/33/63 44/34/64
f 46/35/65 45/36/66 47/37/67 48/38/68
f 19/22/69 20/21/70 26/39/71 25/40/72
f 20/21/73 22/24/74 27/41/75 26/39/76
f 22/24/77 21/23/78 28/42/79 27/41/80
f 21/23/81 19/22/82 25/40/83 28/42/84
f 18/43/85 17/44/86 29/45/87 30/46/88
f 17/44/89 23/26/90 31/47/91 29/45/92
f 23/26/93 24/25/94 32/48/95 31/47/96
f 24/25/97 18/43/98 30/46/99 32/48/100
f 25/40/101 26/39/102 34/49/103 33/50/104
f 26/39/105 27/41/106 35/51/107 34/49/108
f 27/41/109 28/42/110 36/52/111 35/51/112
f 28/42/113 25/40/114 33/50/115 36/52/116
f 30/46/117 29/45/118 37/53/119 38/54/120
f 29/45/121 31/47/122 39/55/123 37/53/124
f 31/47/125 32/48/126 40/56/127 39/55/128
f 32/48/129 30/46/130 38/54/131 40/56/132
f 33/50/133 34/49/134 42/32/135 41/31/136
f 34/49/137 35/51/138 43/33/139 42/32/140
f 35/51/141 36/52/142 44/34/143 43/33/144
f 36/52/145 33/50/146 41/31/147 44/34/148
f 38/54/149 37/53/150 45/36/151 46/35/152
f 37/53/153 39/55/154 47/37/155 45/36/156
f 39/55/157 40/56/158 48/38/159 47/37/160
f 40/56/161 38/54/162 46/35/163 48/38/164
f 6/61/165 5/68/166 8/4/167 7/73/168
