# This file uses centimeters as units for non-parametric coordinates.

v -87.385391 -48.302589 0.734198
v -92.287277 -25.030462 0.734198
v -71.708817 -30.417807 0.734198
v -92.287277 -25.030462 -0.734198
v -71.708817 -30.417807 -0.734198
v -87.385391 -48.302589 -0.734198
v -38.741085 -58.221985 0.734198
v -46.557568 -35.760399 0.734198
v -25.461704 -38.491852 0.734198
v -46.557568 -35.760399 -0.734198
v -25.461704 -38.491852 -0.734198
v -38.741085 -58.221985 -0.734198
v -112.482872 -39.243103 0.734198
v -112.924904 -15.464440 0.734198
v -93.725166 -24.622280 0.734198
v -112.924904 -15.464440 -0.734198
v -93.725166 -24.622280 -0.734198
v -112.482872 -39.243103 -0.734198
v -139.712418 0.000000 -1.295224
v -99.684647 -23.521057 -1.295224
v -43.173592 -38.057838 -1.295730
v 43.173382 -38.057838 -1.295224
v 99.684273 -23.521057 -1.295730
v 139.712265 0.000000 -1.295477
v -139.712509 0.000000 1.295224
v -99.684753 -23.521057 1.295224
v -43.173592 -38.057838 1.294971
v 43.173325 -38.057838 1.295224
v 99.684387 -23.521057 1.295224
v 139.712265 0.000000 1.295224
v -138.243362 2.500308 -1.295224
v -98.567352 -20.814030 -1.294971
v -98.567139 -20.814091 1.295224
v -138.243576 2.500308 1.295224
v -42.806599 -35.157845 -1.295477
v -42.806541 -35.157845 1.294971
v 42.806278 -35.157845 -1.294971
v 42.806171 -35.157845 1.295477
v 98.567032 -20.814045 -1.295224
v 98.566925 -20.814106 1.294971
v 138.242889 2.500293 -1.295224
v 138.243103 2.500293 1.294971
v -0.000105 -40.149918 -1.295477
v -0.000160 -37.249924 -1.295224
v -0.000185 -37.249924 1.295224
v -0.000134 -40.149918 1.295097
v 133.305450 -27.785564 -0.734198
v 131.626724 -4.062113 -0.734198
v 113.319458 -14.894474 -0.734198
v 131.626724 -4.062113 0.734198
v 113.319458 -14.894474 0.734198
v 133.305450 -27.785564 0.734198
v 111.393944 -39.762497 -0.734198
v 111.835976 -15.983832 -0.734198
v 92.636238 -25.141670 -0.734198
v 111.835976 -15.983832 0.734198
v 92.636238 -25.141670 0.734198
v 111.393944 -39.762497 0.734198
v -13.592135 -60.073494 0.734198
v -23.072136 -38.261803 0.734198
v -1.830783 -39.402481 0.734198
v -23.072136 -38.261803 -0.734198
v -1.830783 -39.402481 -0.734198
v -13.592135 -60.073494 -0.734198
v 86.218277 -48.608131 -0.734198
v 91.120163 -25.336008 -0.734198
v 70.541702 -30.723352 -0.734198
v 91.120163 -25.336008 0.734198
v 70.541702 -30.723352 0.734198
v 86.218277 -48.608131 0.734198
v 62.534676 -54.575409 -0.734198
v 67.763031 -31.374451 -0.734198
v 47.110920 -36.472153 -0.734198
v 67.763031 -31.374451 0.734198
v 47.110920 -36.472153 0.734198
v 62.534676 -54.575409 0.734198
v 12.266853 -60.144661 -0.734198
v 21.746853 -38.332970 -0.734198
v 0.505501 -39.473648 -0.734198
v 21.746853 -38.332970 0.734198
v 0.505501 -39.473648 0.734198
v 12.266853 -60.144661 0.734198
v 37.699299 -58.356880 -0.734198
v 45.515781 -35.895290 -0.734198
v 24.419918 -38.626743 -0.734198
v 45.515781 -35.895290 0.734198
v 24.419918 -38.626743 0.734198
v 37.699299 -58.356880 0.734198
v -134.343765 -27.171200 0.734198
v -132.665039 -3.447750 0.734198
v -114.357765 -14.280111 0.734198
v -132.665039 -3.447750 -0.734198
v -114.357765 -14.280111 -0.734198
v -134.343765 -27.171200 -0.734198
v -63.705971 -54.286293 0.734198
v -68.934326 -31.085331 0.734198
v -48.282215 -36.183033 0.734198
v -68.934326 -31.085331 -0.734198
v -48.282215 -36.183033 -0.734198
v -63.705971 -54.286293 -0.734198
vt 0.138069 0.448485
vt 0.137571 0.447486
vt 0.138569 0.447487
vt 0.137576 0.447485
vt 0.138571 0.447486
vt 0.138073 0.448479
vt 0.264895 0.455104
vt 0.264396 0.454106
vt 0.265395 0.454107
vt 0.264402 0.454105
vt 0.265396 0.454106
vt 0.264898 0.455099
vt 0.264312 0.444844
vt 0.263813 0.443845
vt 0.264812 0.443846
vt 0.263819 0.443844
vt 0.264813 0.443845
vt 0.264315 0.444838
vt 0.048408 0.355103
vt 0.048406 0.355102
vt 0.048236 0.355206
vt 0.048239 0.355207
vt 0.048017 0.355268
vt 0.048020 0.355269
vt 0.047870 0.355270
vt 0.047866 0.355270
vt 0.047715 0.355271
vt 0.047719 0.355272
vt 0.047537 0.355222
vt 0.047542 0.355222
vt 0.047419 0.355143
vt 0.047424 0.355144
vt 0.048414 0.355114
vt 0.048243 0.355218
vt 0.048241 0.355218
vt 0.048413 0.355113
vt 0.048021 0.355280
vt 0.048018 0.355280
vt 0.047866 0.355281
vt 0.047870 0.355281
vt 0.047718 0.355282
vt 0.047714 0.355282
vt 0.047539 0.355232
vt 0.047534 0.355232
vt 0.047420 0.355152
vt 0.047414 0.355152
vt 0.139628 0.442672
vt 0.139129 0.441673
vt 0.140128 0.441674
vt 0.139135 0.441672
vt 0.140129 0.441673
vt 0.139631 0.442666
vt 0.261010 0.451011
vt 0.260512 0.450013
vt 0.261511 0.450013
vt 0.260518 0.450011
vt 0.261512 0.450012
vt 0.261014 0.451005
vt 0.139628 0.442672
vt 0.139129 0.441673
vt 0.140128 0.441674
vt 0.139135 0.441672
vt 0.140129 0.441673
vt 0.139631 0.442666
vt 0.368031 0.491317
vt 0.367532 0.490319
vt 0.368531 0.490320
vt 0.367538 0.490318
vt 0.368532 0.490319
vt 0.368034 0.491312
vt 0.140091 0.449158
vt 0.139593 0.448159
vt 0.140592 0.448160
vt 0.139598 0.448158
vt 0.140593 0.448159
vt 0.140095 0.449152
vt 0.370811 0.492707
vt 0.370312 0.491709
vt 0.371311 0.491710
vt 0.370318 0.491708
vt 0.371312 0.491709
vt 0.370814 0.492701
vt 0.262864 0.446841
vt 0.262365 0.445843
vt 0.263364 0.445844
vt 0.262371 0.445842
vt 0.263365 0.445843
vt 0.262867 0.446836
vt 0.369479 0.493026
vt 0.368980 0.492028
vt 0.369979 0.492029
vt 0.368986 0.492027
vt 0.369980 0.492027
vt 0.369482 0.493020
vt 0.369932 0.490834
vt 0.369433 0.489836
vt 0.370432 0.489837
vt 0.369439 0.489835
vt 0.370433 0.489836
vt 0.369936 0.490828
vn 0.000000 0.000000 1.000000
vn 0.000000 0.000000 1.000000
vn 0.000000 0.000000 1.000000
vn 0.253260 0.967398 0.000000
vn 0.253260 0.967398 0.000000
vn 0.253260 0.967398 0.000000
vn 0.253260 0.967398 0.000000
vn 0.000000 0.000000 -1.000000
vn 0.000000 0.000000 -1.000000
vn 0.000000 0.000000 -1.000000
vn 0.752006 -0.659157 0.000000
vn 0.752006 -0.659157 0.000000
vn 0.752006 -0.659157 0.000000
vn 0.752006 -0.659157 0.000000
vn -0.978529 -0.206111 0.000000
vn -0.978529 -0.206111 0.000000
vn -0.978529 -0.206111 0.000000
vn -0.978529 -0.206111 0.000000
vn -0.000000 0.000000 1.000000
vn -0.000000 0.000000 1.000000
vn -0.000000 0.000000 1.000000
vn 0.128406 0.991722 0.000000
vn 0.128406 0.991722 0.000000
vn 0.128406 0.991722 0.000000
vn 0.128406 0.991722 0.000000
vn -0.000000 0.000000 -1.000000
vn -0.000000 0.000000 -1.000000
vn -0.000000 0.000000 -1.000000
vn 0.829598 -0.558361 0.000000
vn 0.829598 -0.558361 0.000000
vn 0.829598 -0.558361 0.000000
vn 0.829598 -0.558361 0.000000
vn -0.944448 -0.328662 0.000000
vn -0.944448 -0.328662 0.000000
vn -0.944448 -0.328662 0.000000
vn -0.944448 -0.328662 0.000000
vn 0.000000 0.000000 1.000000
vn 0.000000 0.000000 1.000000
vn 0.000000 0.000000 1.000000
vn 0.430512 0.902585 0.000000
vn 0.430512 0.902585 0.000000
vn 0.430512 0.902585 0.000000
vn 0.430512 0.902585 0.000000
vn 0.000000 0.000000 -1.000000
vn 0.000000 0.000000 -1.000000
vn 0.000000 0.000000 -1.000000
vn 0.614765 -0.788710 0.000000
vn 0.614765 -0.788710 0.000000
vn 0.614765 -0.788710 0.000000
vn 0.614765 -0.788710 0.000000
vn -0.999827 -0.018586 0.000000
vn -0.999827 -0.018586 0.000000
vn -0.999827 -0.018586 0.000000
vn -0.999827 -0.018586 0.000000
vn 0.506623 0.862168 0.000010
vn 0.506623 0.862168 0.000010
vn 0.506623 0.862168 0.000010
vn 0.506623 0.862168 0.000010
vn 0.249128 0.968471 -0.000002
vn 0.249128 0.968471 -0.000002
vn 0.249128 0.968471 -0.000002
vn 0.249128 0.968471 -0.000002
vn -0.000000 1.000000 0.000001
vn 0.000000 1.000000 0.000001
vn -0.048815 0.998808 0.000000
vn -0.048815 0.998808 0.000000
vn -0.249127 0.968471 0.000001
vn -0.249127 0.968471 0.000001
vn -0.249127 0.968471 0.000001
vn -0.249127 0.968471 0.000001
vn -0.506625 0.862166 0.000021
vn -0.506625 0.862166 0.000021
vn -0.506625 0.862166 0.000021
vn -0.506625 0.862166 0.000021
vn -0.506625 -0.862167 -0.000019
vn -0.506625 -0.862166 -0.000019
vn -0.506625 -0.862166 -0.000019
vn -0.506625 -0.862167 -0.000019
vn -0.249127 -0.968471 -0.000005
vn -0.249127 -0.968471 -0.000005
vn -0.249127 -0.968471 -0.000005
vn -0.249127 -0.968471 -0.000005
vn -0.000001 -1.000000 0.000000
vn -0.000001 -1.000000 0.000000
vn 0.048401 -0.998828 0.000000
vn 0.048401 -0.998828 0.000000
vn 0.249128 -0.968471 -0.000003
vn 0.249128 -0.968471 -0.000003
vn 0.249128 -0.968471 -0.000003
vn 0.249128 -0.968471 -0.000003
vn 0.506623 -0.862167 -0.000011
vn 0.506624 -0.862167 -0.000011
vn 0.506624 -0.862167 -0.000011
vn 0.506624 -0.862167 -0.000011
vn 0.000025 0.000036 -1.000000
vn 0.000025 0.000036 -1.000000
vn 0.000018 0.000064 -1.000000
vn 0.000018 0.000064 -1.000000
vn 0.000002 -0.000001 1.000000
vn 0.000002 -0.000001 1.000000
vn 0.000000 0.000000 1.000000
vn 0.000000 0.000000 1.000000
vn -0.862201 0.506566 -0.000051
vn -0.862201 0.506566 -0.000051
vn -0.862201 0.506566 -0.000051
vn -0.862201 0.506566 -0.000051
vn 0.000018 0.000064 -1.000000
vn 0.000018 0.000064 -1.000000
vn 0.000012 0.000087 -1.000000
vn 0.000012 0.000087 -1.000000
vn 0.000000 -0.000010 1.000000
vn 0.000000 -0.000010 1.000000
vn 0.000002 -0.000001 1.000000
vn 0.000002 -0.000001 1.000000
vn 0.000006 0.000087 -1.000000
vn 0.000006 0.000087 -1.000000
vn -0.000022 0.000109 -1.000000
vn -0.000021 0.000109 -1.000000
vn 0.000002 -0.000028 1.000000
vn 0.000002 -0.000027 1.000000
vn -0.000003 -0.000043 1.000000
vn -0.000003 -0.000043 1.000000
vn -0.000021 0.000109 -1.000000
vn -0.000022 0.000109 -1.000000
vn -0.000050 0.000120 -1.000000
vn -0.000050 0.000120 -1.000000
vn -0.000017 0.000034 1.000000
vn -0.000017 0.000034 1.000000
vn 0.000002 -0.000027 1.000000
vn 0.000002 -0.000028 1.000000
vn -0.000050 0.000120 -1.000000
vn -0.000050 0.000120 -1.000000
vn -0.000064 0.000114 -1.000000
vn -0.000064 0.000114 -1.000000
vn 0.862159 0.506638 -0.000036
vn 0.862159 0.506638 -0.000036
vn 0.862159 0.506638 -0.000036
vn 0.862159 0.506638 -0.000036
vn -0.000044 0.000075 1.000000
vn -0.000044 0.000075 1.000000
vn -0.000017 0.000034 1.000000
vn -0.000017 0.000034 1.000000
vn 0.000012 0.000087 -1.000000
vn 0.000012 0.000087 -1.000000
vn 0.000006 0.000087 -1.000000
vn 0.000006 0.000087 -1.000000
vn 0.048815 0.998808 0.000001
vn 0.048815 0.998808 0.000001
vn 0.000000 1.000000 0.000001
vn -0.000000 1.000000 0.000001
vn -0.000003 -0.000043 1.000000
vn -0.000003 -0.000043 1.000000
vn 0.000000 -0.000010 1.000000
vn 0.000000 -0.000010 1.000000
vn -0.048401 -0.998828 0.000000
vn -0.000001 -1.000000 0.000000
vn -0.000001 -1.000000 0.000000
vn -0.048401 -0.998828 0.000000
vn 0.000000 0.000000 -1.000000
vn 0.000000 0.000000 -1.000000
vn 0.000000 0.000000 -1.000000
vn -0.509232 0.860629 0.000000
vn -0.509232 0.860629 0.000000
vn -0.509232 0.860629 0.000000
vn -0.509232 0.860629 0.000000
vn 0.000000 0.000000 1.000000
vn 0.000000 0.000000 1.000000
vn 0.000000 0.000000 1.000000
vn -0.542035 -0.840356 0.000000
vn -0.542035 -0.840356 0.000000
vn -0.542035 -0.840356 0.000000
vn -0.542035 -0.840356 0.000000
vn 0.997506 0.070586 0.000000
vn 0.997506 0.070586 0.000000
vn 0.997506 0.070586 0.000000
vn 0.997506 0.070586 0.000000
vn 0.000000 0.000000 -1.000000
vn 0.000000 0.000000 -1.000000
vn 0.000000 0.000000 -1.000000
vn -0.430513 0.902585 0.000000
vn -0.430513 0.902585 0.000000
vn -0.430513 0.902585 0.000000
vn -0.430513 0.902585 0.000000
vn 0.000000 0.000000 1.000000
vn 0.000000 0.000000 1.000000
vn 0.000000 0.000000 1.000000
vn -0.614766 -0.788710 0.000000
vn -0.614766 -0.788710 0.000000
vn -0.614766 -0.788710 0.000000
vn -0.614766 -0.788710 0.000000
vn 0.999827 -0.018586 0.000000
vn 0.999827 -0.018586 0.000000
vn 0.999827 -0.018586 0.000000
vn 0.999827 -0.018586 0.000000
vn 0.000000 0.000000 1.000000
vn 0.000000 0.000000 1.000000
vn 0.000000 0.000000 1.000000
vn 0.053624 0.998561 0.000000
vn 0.053624 0.998561 0.000000
vn 0.053624 0.998561 0.000000
vn 0.053624 0.998561 0.000000
vn 0.000000 0.000000 -1.000000
vn 0.000000 0.000000 -1.000000
vn 0.000000 0.000000 -1.000000
vn 0.869159 -0.494532 0.000000
vn 0.869159 -0.494532 0.000000
vn 0.869159 -0.494532 0.000000
vn 0.869159 -0.494532 0.000000
vn -0.917122 -0.398608 0.000000
vn -0.917122 -0.398608 0.000000
vn -0.917122 -0.398608 0.000000
vn -0.917122 -0.398608 0.000000
vn 0.000000 0.000000 -1.000000
vn 0.000000 0.000000 -1.000000
vn 0.000000 0.000000 -1.000000
vn -0.253260 0.967398 0.000000
vn -0.253260 0.967398 0.000000
vn -0.253260 0.967398 0.000000
vn -0.253260 0.967398 0.000000
vn 0.000000 0.000000 1.000000
vn 0.000000 0.000000 1.000000
vn 0.000000 0.000000 1.000000
vn -0.752006 -0.659157 0.000000
vn -0.752006 -0.659157 0.000000
vn -0.752006 -0.659157 0.000000
vn -0.752006 -0.659157 0.000000
vn 0.978529 -0.206111 0.000000
vn 0.978529 -0.206111 0.000000
vn 0.978529 -0.206111 0.000000
vn 0.978529 -0.206111 0.000000
vn 0.000000 0.000000 -1.000000
vn 0.000000 0.000000 -1.000000
vn 0.000000 0.000000 -1.000000
vn -0.239644 0.970861 0.000000
vn -0.239644 0.970861 0.000000
vn -0.239644 0.970861 0.000000
vn -0.239644 0.970861 0.000000
vn 0.000000 0.000000 1.000000
vn 0.000000 0.000000 1.000000
vn 0.000000 0.000000 1.000000
vn -0.761192 -0.648526 0.000000
vn -0.761192 -0.648526 0.000000
vn -0.761192 -0.648526 0.000000
vn -0.761192 -0.648526 0.000000
vn 0.975536 -0.219838 0.000000
vn 0.975536 -0.219838 0.000000
vn 0.975536 -0.219838 0.000000
vn 0.975536 -0.219838 0.000000
vn 0.000000 0.000000 -1.000000
vn 0.000000 0.000000 -1.000000
vn 0.000000 0.000000 -1.000000
vn -0.053624 0.998561 0.000000
vn -0.053624 0.998561 0.000000
vn -0.053624 0.998561 0.000000
vn -0.053624 0.998561 0.000000
vn 0.000000 0.000000 1.000000
vn 0.000000 0.000000 1.000000
vn 0.000000 0.000000 1.000000
vn -0.869159 -0.494532 0.000000
vn -0.869159 -0.494532 0.000000
vn -0.869159 -0.494532 0.000000
vn -0.869159 -0.494532 0.000000
vn 0.917122 -0.398608 0.000000
vn 0.917122 -0.398608 0.000000
vn 0.917122 -0.398608 0.000000
vn 0.917122 -0.398608 0.000000
vn 0.000000 0.000000 -1.000000
vn 0.000000 0.000000 -1.000000
vn 0.000000 0.000000 -1.000000
vn -0.128406 0.991722 0.000000
vn -0.128406 0.991722 0.000000
vn -0.128406 0.991722 0.000000
vn -0.128406 0.991722 0.000000
vn 0.000000 0.000000 1.000000
vn 0.000000 0.000000 1.000000
vn 0.000000 0.000000 1.000000
vn -0.829598 -0.558361 0.000000
vn -0.829598 -0.558361 0.000000
vn -0.829598 -0.558361 0.000000
vn -0.829598 -0.558361 0.000000
vn 0.944448 -0.328661 0.000000
vn 0.944448 -0.328661 0.000000
vn 0.944448 -0.328661 0.000000
vn 0.944448 -0.328661 0.000000
vn 0.000000 0.000000 1.000000
vn 0.000000 0.000000 1.000000
vn 0.000000 0.000000 1.000000
vn 0.509232 0.860629 0.000000
vn 0.509232 0.860629 0.000000
vn 0.509232 0.860629 0.000000
vn 0.509232 0.860629 0.000000
vn 0.000000 0.000000 -1.000000
vn 0.000000 0.000000 -1.000000
vn 0.000000 0.000000 -1.000000
vn 0.542035 -0.840356 0.000000
vn 0.542035 -0.840356 0.000000
vn 0.542035 -0.840356 0.000000
vn 0.542035 -0.840356 0.000000
vn -0.997506 0.070586 0.000000
vn -0.997506 0.070586 0.000000
vn -0.997506 0.070586 0.000000
vn -0.997506 0.070586 0.000000
vn 0.000000 0.000000 1.000000
vn 0.000000 0.000000 1.000000
vn 0.000000 0.000000 1.000000
vn 0.239644 0.970861 0.000000
vn 0.239644 0.970861 0.000000
vn 0.239644 0.970861 0.000000
vn 0.239644 0.970861 0.000000
vn 0.000000 0.000000 -1.000000
vn 0.000000 0.000000 -1.000000
vn 0.000000 0.000000 -1.000000
vn 0.761192 -0.648526 0.000000
vn 0.761192 -0.648526 0.000000
vn 0.761192 -0.648526 0.000000
vn 0.761192 -0.648526 0.000000
vn -0.975536 -0.219838 0.000000
vn -0.975536 -0.219838 0.000000
vn -0.975536 -0.219838 0.000000
vn -0.975536 -0.219838 0.000000
s off
f 1/1/1 3/2/2 2/3/3
f 2/3/4 3/2/5 5/4/6 4/5/7
f 4/5/8 5/4/9 6/6/10
f 1/1/11 6/6/12 5/4/13 3/2/14
f 6/6/15 1/1/16 2/3/17 4/5/18
f 7/7/19 9/8/20 8/9/21
f 8/9/22 9/8/23 11/10/24 10/11/25
f 10/11/26 11/10/27 12/12/28
f 7/7/29 12/12/30 11/10/31 9/8/32
f 12/12/33 7/7/34 8/9/35 10/11/36
f 13/13/37 15/14/38 14/15/39
f 14/15/40 15/14/41 17/16/42 16/17/43
f 16/17/44 17/16/45 18/18/46
f 13/13/47 18/18/48 17/16/49 15/14/50
f 18/18/51 13/13/52 14/15/53 16/17/54
f 31/19/55 34/20/56 33/21/57 32/22/58
f 32/22/59 33/21/60 36/23/61 35/24/62
f 44/25/63 45/26/64 38/27/65 37/28/66
f 37/28/67 38/27/68 40/29/69 39/30/70
f 39/30/71 40/29/72 42/31/73 41/32/74
f 19/33/75 20/34/76 26/35/77 25/36/78
f 20/34/79 21/37/80 27/38/81 26/35/82
f 46/39/83 43/40/84 22/41/85 28/42/86
f 22/41/87 23/43/88 29/44/89 28/42/90
f 23/43/91 24/45/92 30/46/93 29/44/94
f 19/33/95 31/19/96 32/22/97 20/34/98
f 26/35/99 33/21/100 34/20/101 25/36/102
f 25/36/103 34/20/104 31/19/105 19/33/106
f 20/34/107 32/22/108 35/24/109 21/37/110
f 27/38/111 36/23/112 33/21/113 26/35/114
f 43/40/115 44/25/116 37/28/117 22/41/118
f 28/42/119 38/27/120 45/26/121 46/39/122
f 22/41/123 37/28/124 39/30/125 23/43/126
f 29/44/127 40/29/128 38/27/129 28/42/130
f 23/43/131 39/30/132 41/32/133 24/45/134
f 24/45/135 41/32/136 42/31/137 30/46/138
f 30/46/139 42/31/140 40/29/141 29/44/142
f 21/37/143 35/24/144 44/25/145 43/40/146
f 35/24/147 36/23/148 45/26/149 44/25/150
f 46/39/151 45/26/152 36/23/153 27/38/154
f 21/37/155 43/40/156 46/39/157 27/38/158
f 47/47/159 49/48/160 48/49/161
f 48/49/162 49/48/163 51/50/164 50/51/165
f 50/51/166 51/50/167 52/52/168
f 47/47/169 52/52/170 51/50/171 49/48/172
f 52/52/173 47/47/174 48/49/175 50/51/176
f 53/53/177 55/54/178 54/55/179
f 54/55/180 55/54/181 57/56/182 56/57/183
f 56/57/184 57/56/185 58/58/186
f 53/53/187 58/58/188 57/56/189 55/54/190
f 58/58/191 53/53/192 54/55/193 56/57/194
f 59/59/195 61/60/196 60/61/197
f 60/61/198 61/60/199 63/62/200 62/63/201
f 62/63/202 63/62/203 64/64/204
f 59/59/205 64/64/206 63/62/207 61/60/208
f 64/64/209 59/59/210 60/61/211 62/63/212
f 65/65/213 67/66/214 66/67/215
f 66/67/216 67/66/217 69/68/218 68/69/219
f 68/69/220 69/68/221 70/70/222
f 65/65/223 70/70/224 69/68/225 67/66/226
f 70/70/227 65/65/228 66/67/229 68/69/230
f 71/71/231 73/72/232 72/73/233
f 72/73/234 73/72/235 75/74/236 74/75/237
f 74/75/238 75/74/239 76/76/240
f 71/71/241 76/76/242 75/74/243 73/72/244
f 76/76/245 71/71/246 72/73/247 74/75/248
f 77/77/249 79/78/250 78/79/251
f 78/79/252 79/78/253 81/80/254 80/81/255
f 80/81/256 81/80/257 82/82/258
f 77/77/259 82/82/260 81/80/261 79/78/262
f 82/82/263 77/77/264 78/79/265 80/81/266
f 83/83/267 85/84/268 84/85/269
f 84/85/270 85/84/271 87/86/272 86/87/273
f 86/87/274 87/86/275 88/88/276
f 83/83/277 88/88/278 87/86/279 85/84/280
f 88/88/281 83/83/282 84/85/283 86/87/284
f 89/89/285 91/90/286 90/91/287
f 90/91/288 91/90/289 93/92/290 92/93/291
f 92/93/292 93/92/293 94/94/294
f 89/89/295 94/94/296 93/92/297 91/90/298
f 94/94/299 89/89/300 90/91/301 92/93/302
f 95/95/303 97/96/304 96/97/305
f 96/97/306 97/96/307 99/98/308 98/99/309
f 98/99/310 99/98/311 100/100/312
f 95/95/313 100/100/314 99/98/315 97/96/316
f 100/100/317 95/95/318 96/97/319 98/99/320
