# This file uses centimeters as units for non-parametric coordinates.

v 1.841484 -3.584450 -1.841469
v 0.000000 -3.584450 -2.604264
v -1.841484 -3.584450 -1.841469
v -2.604257 -3.584450 0.000000
v -1.841484 -3.584450 1.841500
v 0.000000 -3.584450 2.604234
v 1.841484 -3.584450 1.841500
v 2.604249 -3.584450 0.000000
v 2.979589 -1.369137 -2.979566
v 0.000000 -1.369137 -4.213752
v -2.979589 -1.369137 -2.979566
v -4.213775 -1.369137 0.000000
v -2.979589 -1.369137 2.979597
v 0.000000 -1.369137 4.213782
v 2.979589 -1.369137 2.979597
v 4.213767 -1.369137 0.000000
v 2.979589 1.369140 -2.979566
v 0.000000 1.369140 -4.213752
v -2.979589 1.369140 -2.979566
v -4.213775 1.369140 0.000000
v -2.979589 1.369140 2.979597
v 0.000000 1.369140 4.213782
v 2.979589 1.369140 2.979597
v 4.213767 1.369140 0.000000
v 1.841484 3.584450 -1.841469
v 0.000000 3.584450 -2.604264
v -1.841484 3.584450 -1.841469
v -2.604257 3.584450 0.000000
v -1.841484 3.584450 1.841500
v 0.000000 3.584450 2.604234
v 1.841484 3.584450 1.841500
v 2.604249 3.584450 0.000000
v 0.000000 -4.430618 0.000000
v 0.000000 4.430622 0.000000
vt 0.103927 0.180710
vt 0.104141 0.180702
vt 0.104192 0.180417
vt 0.103849 0.180429
vt 0.104311 0.180767
vt 0.104471 0.180511
vt 0.104341 0.180874
vt 0.104530 0.180673
vt 0.104198 0.180962
vt 0.104297 0.180812
vt 0.103964 0.180972
vt 0.103898 0.180829
vt 0.103790 0.180897
vt 0.103610 0.180709
vt 0.103781 0.180788
vt 0.103606 0.180543
vt 0.104196 0.180144
vt 0.103844 0.180155
vt 0.104481 0.180230
vt 0.104542 0.180378
vt 0.104304 0.180505
vt 0.103894 0.180520
vt 0.103598 0.180411
vt 0.103595 0.180260
vt 0.104147 0.179972
vt 0.103919 0.179978
vt 0.104328 0.180022
vt 0.104360 0.180106
vt 0.104208 0.180175
vt 0.103957 0.180183
vt 0.103772 0.180124
vt 0.103763 0.180039
vt 0.403619 0.491627
vt 0.403415 0.491641
vt 0.403578 0.491796
vt 0.403803 0.491657
vt 0.403871 0.491717
vt 0.403762 0.491777
vt 0.403529 0.491795
vt 0.403330 0.491757
vt 0.403292 0.491692
vt 0.403409 0.490880
vt 0.403621 0.490876
vt 0.403578 0.490796
vt 0.403812 0.490884
vt 0.403883 0.490899
vt 0.403771 0.490914
vt 0.403527 0.490918
vt 0.403319 0.490909
vt 0.403280 0.490892
vt 0.397721 0.492561
vt 0.396758 0.492499
vt 0.396774 0.491709
vt 0.397758 0.491753
vn 0.317740 -0.557325 -0.767092
vn 0.317740 -0.557325 -0.767092
vn 0.317740 -0.557325 -0.767092
vn 0.317740 -0.557325 -0.767092
vn -0.317740 -0.557325 -0.767092
vn -0.317740 -0.557325 -0.767092
vn -0.317740 -0.557325 -0.767092
vn -0.317740 -0.557325 -0.767092
vn -0.767092 -0.557325 -0.317740
vn -0.767092 -0.557325 -0.317740
vn -0.767092 -0.557325 -0.317740
vn -0.767092 -0.557325 -0.317740
vn -0.767092 -0.557325 0.317740
vn -0.767092 -0.557325 0.317740
vn -0.767092 -0.557325 0.317740
vn -0.767092 -0.557325 0.317740
vn -0.317740 -0.557325 0.767092
vn -0.317740 -0.557325 0.767092
vn -0.317740 -0.557325 0.767092
vn -0.317740 -0.557325 0.767092
vn 0.317740 -0.557325 0.767092
vn 0.317740 -0.557325 0.767092
vn 0.317740 -0.557325 0.767092
vn 0.317740 -0.557325 0.767092
vn 0.767092 -0.557325 0.317740
vn 0.767092 -0.557325 0.317740
vn 0.767092 -0.557325 0.317740
vn 0.767092 -0.557325 0.317740
vn 0.767092 -0.557325 -0.317740
vn 0.767092 -0.557325 -0.317740
vn 0.767092 -0.557325 -0.317740
vn 0.767092 -0.557325 -0.317740
vn 0.382683 0.000000 -0.923880
vn 0.382683 0.000000 -0.923880
vn 0.382683 0.000000 -0.923880
vn 0.382683 0.000000 -0.923880
vn -0.382683 0.000000 -0.923880
vn -0.382683 0.000000 -0.923880
vn -0.382683 0.000000 -0.923880
vn -0.382683 0.000000 -0.923880
vn -0.923880 0.000000 -0.382683
vn -0.923880 0.000000 -0.382683
vn -0.923880 0.000000 -0.382683
vn -0.923880 0.000000 -0.382683
vn -0.923880 0.000000 0.382683
vn -0.923880 0.000000 0.382683
vn -0.923880 0.000000 0.382683
vn -0.923880 0.000000 0.382683
vn -0.382683 0.000000 0.923880
vn -0.382683 0.000000 0.923880
vn -0.382683 0.000000 0.923880
vn -0.382683 0.000000 0.923880
vn 0.382683 0.000000 0.923880
vn 0.382683 0.000000 0.923880
vn 0.382683 0.000000 0.923880
vn 0.382683 0.000000 0.923880
vn 0.923880 0.000000 0.382683
vn 0.923880 0.000000 0.382683
vn 0.923880 0.000000 0.382683
vn 0.923880 0.000000 0.382683
vn 0.923879 0.000000 -0.382684
vn 0.923879 0.000000 -0.382684
vn 0.923879 0.000000 -0.382684
vn 0.923879 0.000000 -0.382684
vn 0.317740 0.557325 -0.767092
vn 0.317740 0.557325 -0.767092
vn 0.317740 0.557325 -0.767092
vn 0.317740 0.557325 -0.767092
vn -0.317740 0.557325 -0.767092
vn -0.317740 0.557325 -0.767092
vn -0.317740 0.557325 -0.767092
vn -0.317740 0.557325 -0.767092
vn -0.767092 0.557325 -0.317740
vn -0.767092 0.557325 -0.317740
vn -0.767092 0.557325 -0.317740
vn -0.767092 0.557325 -0.317740
vn -0.767092 0.557325 0.317740
vn -0.767092 0.557325 0.317740
vn -0.767092 0.557325 0.317740
vn -0.767092 0.557325 0.317740
vn -0.317740 0.557325 0.767092
vn -0.317740 0.557325 0.767092
vn -0.317740 0.557325 0.767092
vn -0.317740 0.557325 0.767092
vn 0.317740 0.557325 0.767092
vn 0.317740 0.557325 0.767092
vn 0.317740 0.557325 0.767092
vn 0.317740 0.557325 0.767092
vn 0.767092 0.557325 0.317740
vn 0.767092 0.557325 0.317740
vn 0.767092 0.557325 0.317740
vn 0.767092 0.557325 0.317740
vn 0.767092 0.557325 -0.317740
vn 0.767092 0.557325 -0.317740
vn 0.767092 0.557325 -0.317740
vn 0.767092 0.557325 -0.317740
vn 0.126963 -0.943360 -0.306516
vn 0.126963 -0.943360 -0.306516
vn 0.126963 -0.943360 -0.306516
vn -0.126963 -0.943360 -0.306516
vn -0.126963 -0.943360 -0.306516
vn -0.126963 -0.943360 -0.306516
vn -0.306516 -0.943360 -0.126963
vn -0.306516 -0.943360 -0.126963
vn -0.306516 -0.943360 -0.126963
vn -0.306516 -0.943360 0.126963
vn -0.306516 -0.943360 0.126963
vn -0.306516 -0.943360 0.126963
vn -0.126963 -0.943360 0.306516
vn -0.126963 -0.943360 0.306516
vn -0.126963 -0.943360 0.306516
vn 0.126963 -0.943360 0.306516
vn 0.126963 -0.943360 0.306516
vn 0.126963 -0.943360 0.306516
vn 0.306516 -0.943360 0.126963
vn 0.306516 -0.943360 0.126963
vn 0.306516 -0.943360 0.126963
vn 0.306516 -0.943360 -0.126963
vn 0.306516 -0.943360 -0.126963
vn 0.306516 -0.943360 -0.126963
vn 0.126963 0.943360 -0.306516
vn 0.126963 0.943360 -0.306516
vn 0.126963 0.943360 -0.306516
vn -0.126963 0.943360 -0.306516
vn -0.126963 0.943360 -0.306516
vn -0.126963 0.943360 -0.306516
vn -0.306516 0.943360 -0.126963
vn -0.306516 0.943360 -0.126963
vn -0.306516 0.943360 -0.126963
vn -0.306516 0.943360 0.126963
vn -0.306516 0.943360 0.126963
vn -0.306516 0.943360 0.126963
vn -0.126963 0.943360 0.306516
vn -0.126963 0.943360 0.306516
vn -0.126963 0.943360 0.306516
vn 0.126963 0.943360 0.306516
vn 0.126963 0.943360 0.306516
vn 0.126963 0.943360 0.306516
vn 0.306516 0.943360 0.126963
vn 0.306516 0.943360 0.126963
vn 0.306516 0.943360 0.126963
vn 0.306516 0.943360 -0.126963
vn 0.306516 0.943360 -0.126963
vn 0.306516 0.943360 -0.126963
s off
f 1/1/1 2/2/2 10/3/3 9/4/4
f 2/2/5 3/5/6 11/6/7 10/3/8
f 3/5/9 4/7/10 12/8/11 11/6/12
f 4/7/13 5/9/14 13/10/15 12/8/16
f 5/9/17 6/11/18 14/12/19 13/10/20
f 6/11/21 7/13/22 15/14/23 14/12/24
f 7/13/25 8/15/26 16/16/27 15/14/28
f 8/15/29 1/1/30 9/4/31 16/16/32
f 9/4/33 10/3/34 18/17/35 17/18/36
f 10/3/37 11/6/38 19/19/39 18/17/40
f 11/6/41 12/8/42 20/20/43 19/19/44
f 12/8/45 13/10/46 21/21/47 20/20/48
f 13/10/49 14/12/50 22/22/51 21/21/52
f 14/12/53 15/14/54 23/23/55 22/22/56
f 15/51/57 16/52/58 24/53/59 23/54/60
f 16/16/61 9/4/62 17/18/63 24/24/64
f 17/18/65 18/17/66 26/25/67 25/26/68
f 18/17/69 19/19/70 27/27/71 26/25/72
f 19/19/73 20/20/74 28/28/75 27/27/76
f 20/20/77 21/21/78 29/29/79 28/28/80
f 21/21/81 22/22/82 30/30/83 29/29/84
f 22/22/85 23/23/86 31/31/87 30/30/88
f 23/23/89 24/24/90 32/32/91 31/31/92
f 24/24/93 17/18/94 25/26/95 32/32/96
f 2/33/97 1/34/98 33/35/99
f 3/36/100 2/33/101 33/35/102
f 4/37/103 3/36/104 33/35/105
f 5/38/106 4/37/107 33/35/108
f 6/39/109 5/38/110 33/35/111
f 7/40/112 6/39/113 33/35/114
f 8/41/115 7/40/116 33/35/117
f 1/34/118 8/41/119 33/35/120
f 25/42/121 26/43/122 34/44/123
f 26/43/124 27/45/125 34/44/126
f 27/45/127 28/46/128 34/44/129
f 28/46/130 29/47/131 34/44/132
f 29/47/133 30/48/134 34/44/135
f 30/48/136 31/49/137 34/44/138
f 31/49/139 32/50/140 34/44/141
f 32/50/142 25/42/143 34/44/144
