# This file uses centimeters as units for non-parametric coordinates.

v -50.730572 0.000000 -109.697510
v -50.730679 0.000000 91.743942
v -48.587040 0.000000 107.449707
v 49.470074 0.000000 109.570297
v 50.730675 0.000000 -109.697510
v -50.730572 1.515945 -109.697510
v -50.730679 1.515945 91.743942
v -48.587040 1.515945 107.449707
v 49.470074 1.515945 109.570297
v 50.730675 1.515945 -109.697510
v -50.730679 0.000000 74.257187
v 50.730675 0.000000 76.761139
v -50.730679 1.515945 74.017258
v 50.730671 1.515945 76.521225
v -50.730679 2.824623 103.031067
v 49.758675 0.000000 89.618607
v -50.730679 4.340569 103.035736
v 49.678070 1.515945 89.653748
v 22.202457 1.515945 91.757080
v 15.183372 0.000000 94.209534
v 11.893589 1.515945 109.697510
v 12.574476 0.000000 109.697495
v 52.329185 0.000000 -8.004944
v -49.105968 0.000000 -5.312695
v -49.111343 1.515945 -5.446080
v 52.323803 1.515945 -8.138304
v -11.386971 1.515945 89.821625
v 4.002542 1.515945 72.306137
v 5.616262 1.515945 -6.686935
v 4.002596 1.515945 -109.697510
v 4.002596 0.000000 -109.697510
v 5.621429 0.000000 -6.558880
v 4.002548 0.000000 72.536484
v -15.173409 0.000000 91.091843
v -22.576084 1.618111 99.263031
v -35.542709 0.000000 90.155640
v -27.351871 0.000000 73.750275
v -25.754087 0.000000 -6.451599
v -27.351791 0.000000 -109.697510
v -27.351791 1.515945 -109.697510
v -27.638353 1.515945 -5.549218
v -27.351875 1.515945 73.512009
v -33.925365 1.515945 89.594452
v -19.577944 3.134056 98.218155
vt 0.337181 0.694667
vt 0.337181 0.694667
vt 0.337181 0.629110
vt 0.337181 0.629195
vt 0.337181 0.565630
vt 0.337181 0.558400
vt 0.337181 0.558397
vt 0.337181 0.565630
vt 0.377297 0.554129
vt 0.377733 0.554129
vt 0.402175 0.554129
vt 0.402175 0.554129
vt 0.402175 0.566991
vt 0.402175 0.566969
vt 0.372242 0.694667
vt 0.372242 0.694667
vt 0.352157 0.694667
vt 0.352157 0.694667
vt 0.372242 0.628578
vt 0.350928 0.628708
vt 0.337181 0.576985
vt 0.337181 0.576831
vt 0.402175 0.694667
vt 0.402175 0.694667
vt 0.402175 0.628303
vt 0.402175 0.628218
vt 0.372242 0.577934
vt 0.359958 0.566048
vt 0.346910 0.566647
vt 0.352157 0.577156
vt 0.383900 0.565621
vt 0.362384 0.566861
vt 0.347946 0.567007
vt 0.357137 0.561483
vt 0.337181 0.554129
vt 0.337181 0.554129
vt 0.402175 0.575227
vt 0.402175 0.575381
vt 0.379404 0.564050
vt 0.372242 0.578081
vt 0.352157 0.577309
vt 0.355216 0.560813
vt 0.372242 0.628496
vt 0.352157 0.629237
vn -1.000000 -0.000004 -0.000001
vn -1.000000 -0.000004 -0.000001
vn -0.999996 -0.002560 -0.000994
vn -0.999997 -0.002385 0.000978
vn -1.000000 0.000003 0.000000
vn -1.000000 0.000003 0.000000
vn -1.000000 0.000003 0.000000
vn -1.000000 0.000003 0.000000
vn 0.051377 0.011530 0.998613
vn 0.051377 0.011530 0.998613
vn 0.051377 0.011530 0.998613
vn 0.051377 0.011530 0.998613
vn 0.999573 0.026433 0.012451
vn 0.999573 0.026433 0.012451
vn 0.999573 0.026433 0.012451
vn 0.999573 0.026433 0.012451
vn 0.000000 0.000000 -1.000000
vn 0.000000 0.000000 -1.000000
vn 0.000000 0.000000 -1.000000
vn 0.000000 0.000000 -1.000000
vn 0.000000 1.000000 0.000000
vn 0.000000 1.000000 0.000000
vn 0.000000 1.000000 0.000000
vn 0.000000 1.000000 0.000000
vn -1.000000 -0.000002 -0.000000
vn -1.000000 -0.000002 -0.000000
vn -1.000000 -0.000002 -0.000000
vn -1.000000 -0.000002 -0.000000
vn 1.000000 0.000000 0.000000
vn 1.000000 0.000000 0.000000
vn 0.999997 0.002373 -0.000952
vn 0.999996 0.002540 0.000961
vn 0.000000 -1.000000 0.000000
vn 0.000000 -1.000000 0.000000
vn 0.000000 -1.000000 0.000000
vn 0.000000 -1.000000 0.000000
vn -0.029467 0.931435 -0.362712
vn 0.007036 0.983161 -0.182603
vn -0.004160 0.978079 -0.208192
vn 0.003814 0.981780 -0.189984
vn -0.899790 -0.000672 0.436322
vn -0.899790 -0.000672 0.436322
vn -0.899790 -0.000672 0.436322
vn -0.899790 -0.000672 0.436322
vn 0.996477 0.031735 0.077625
vn 0.996477 0.031735 0.077625
vn 0.996477 0.031735 0.077625
vn 0.996477 0.031735 0.077625
vn 0.000000 -1.000000 0.000000
vn 0.000000 -1.000000 0.000000
vn 0.000000 -1.000000 0.000000
vn 0.000000 -1.000000 0.000000
vn 0.000000 1.000000 0.000000
vn 0.000000 1.000000 0.000000
vn 0.000000 1.000000 0.000000
vn 0.000000 1.000000 0.000000
vn 0.157828 0.864763 0.476735
vn 0.157828 0.864763 0.476735
vn 0.110219 0.860608 0.497199
vn 0.157828 0.864763 0.476735
vn 0.000000 1.000000 -0.000000
vn 0.000000 1.000000 -0.000000
vn 0.000000 1.000000 0.000000
vn 0.000000 1.000000 0.000000
vn -0.156395 -0.864876 -0.477001
vn -0.103707 -0.860085 -0.499499
vn -0.156395 -0.864876 -0.477001
vn -0.156395 -0.864876 -0.477001
vn -0.011015 -0.981778 0.189714
vn -0.003297 -0.978200 0.207639
vn -0.014510 -0.983271 0.181568
vn 0.013426 -0.931677 0.363040
vn 0.000000 1.000000 0.000000
vn 0.000000 1.000000 0.000000
vn 0.000000 1.000000 0.000000
vn -0.107175 -0.024076 0.993949
vn -0.107175 -0.024076 0.993949
vn -0.107175 -0.024076 0.993949
vn -0.107175 -0.024076 0.993949
vn 0.000000 -1.000000 0.000000
vn 0.000000 -1.000000 0.000000
vn 0.000000 -1.000000 0.000000
vn 0.000000 -1.000000 0.000000
vn 0.000000 -1.000000 0.000000
vn 0.000000 -1.000000 0.000000
vn 0.000000 -1.000000 0.000000
vn 0.000000 -1.000000 0.000000
vn 0.000000 -1.000000 0.000000
vn 0.000000 -1.000000 0.000000
vn 0.000000 1.000000 0.000000
vn 0.000000 1.000000 0.000000
vn 0.000000 1.000000 0.000000
vn 0.000000 -1.000000 0.000000
vn 0.000000 -1.000000 0.000000
vn 0.000000 -1.000000 0.000000
vn 0.000000 -1.000000 0.000000
vn -0.999997 -0.002385 0.000978
vn -0.999996 -0.002560 -0.000994
vn -1.000000 -0.000004 -0.000001
vn -1.000000 -0.000004 -0.000001
vn 0.000000 1.000000 0.000000
vn 0.000000 1.000000 0.000000
vn 0.000000 1.000000 0.000000
vn 0.000000 1.000000 -0.000000
vn 1.000000 0.000000 0.000000
vn 0.999996 0.002540 0.000961
vn 0.999997 0.002373 -0.000952
vn 1.000000 0.000000 0.000000
vn 0.000000 1.000000 0.000000
vn 0.000000 1.000000 -0.000000
vn 0.000000 1.000000 -0.000000
vn 0.000000 1.000000 0.000000
vn 0.000000 1.000000 0.000000
vn 0.000000 1.000000 0.000000
vn 0.000000 1.000000 0.000000
vn 0.000000 1.000000 0.000000
vn 0.000000 1.000000 0.000000
vn 0.000000 1.000000 0.000000
vn 0.000000 1.000000 0.000000
vn 0.000000 1.000000 0.000000
vn 0.000000 0.000000 -1.000000
vn 0.000000 0.000000 -1.000000
vn 0.000000 0.000000 -1.000000
vn 0.000000 0.000000 -1.000000
vn 0.000000 -1.000000 0.000000
vn 0.000000 -1.000000 0.000000
vn 0.000000 -1.000000 0.000000
vn 0.000000 -1.000000 0.000000
vn 0.000000 -1.000000 0.000000
vn 0.000000 -1.000000 0.000000
vn 0.000000 -1.000000 0.000000
vn 0.000000 -1.000000 0.000000
vn 0.000000 -1.000000 0.000000
vn 0.000000 -1.000000 0.000000
vn 0.000000 -1.000000 0.000000
vn 0.000000 -1.000000 0.000000
vn 0.013426 -0.931677 0.363040
vn -0.003297 -0.978200 0.207639
vn -0.011015 -0.981778 0.189714
vn 0.013426 -0.931677 0.363040
vn 0.000000 -1.000000 0.000000
vn 0.000000 -1.000000 0.000000
vn 0.000000 -1.000000 -0.000000
vn 0.000000 -1.000000 -0.000000
vn 0.000000 -1.000000 0.000000
vn 0.000000 -1.000000 0.000000
vn 0.000000 -1.000000 0.000000
vn 0.000000 -1.000000 0.000000
vn 0.000000 -1.000000 0.000000
vn 0.000000 -1.000000 0.000000
vn 0.000000 -1.000000 0.000000
vn 0.000000 -1.000000 0.000000
vn 0.000000 0.000000 -1.000000
vn 0.000000 0.000000 -1.000000
vn 0.000000 0.000000 -1.000000
vn 0.000000 0.000000 -1.000000
vn 0.000000 1.000000 0.000000
vn 0.000000 1.000000 -0.000000
vn 0.000000 1.000000 0.000000
vn 0.000000 1.000000 0.000000
vn 0.000000 1.000000 0.000000
vn 0.000000 1.000000 -0.000000
vn 0.000000 1.000000 0.000000
vn 0.000000 1.000000 -0.000000
vn 0.000000 1.000000 0.000000
vn 0.000000 1.000000 0.000000
vn 0.000000 1.000000 -0.000000
vn 0.000000 1.000000 -0.000000
vn 0.003814 0.981780 -0.189984
vn -0.004160 0.978079 -0.208192
vn -0.029467 0.931435 -0.362712
vn -0.029467 0.931435 -0.362712
s off
f 6/1/1 1/2/2 24/3/3 25/4/4
f 2/5/5 15/6/6 17/7/7 7/8/8
f 21/9/9 22/10/10 4/11/11 9/12/12
f 9/12/13 4/11/14 16/13/15 18/14/16
f 30/15/17 31/16/18 39/17/19 40/18/20
f 29/19/21 30/15/22 40/18/23 41/20/24
f 13/21/25 11/22/26 2/5/27 7/8/28
f 5/23/29 10/24/30 26/25/31 23/26/32
f 33/27/33 34/28/34 36/29/35 37/30/36
f 19/31/37 27/32/38 43/33/39 44/34/40
f 17/7/41 15/6/42 3/35/43 8/36/44
f 18/14/45 16/13/46 12/37/47 14/38/48
f 16/13/49 4/11/50 22/10/51 20/39/52
f 19/31/53 21/9/54 9/12/55 18/14/56
f 8/36/57 19/31/58 44/34/59 17/7/60
f 27/32/61 28/40/62 42/41/63 43/33/64
f 15/6/65 35/42/66 20/39/67 3/35/68
f 35/42/69 36/29/70 34/28/71 20/39/72
f 21/9/73 19/31/74 8/36/75
f 3/35/76 22/10/77 21/9/78 8/36/79
f 3/35/80 20/39/81 22/10/82
f 31/16/83 32/43/84 38/44/85 39/17/86
f 20/39/87 12/37/88 16/13/89
f 14/38/90 19/31/91 18/14/92
f 37/30/93 38/44/94 32/43/95 33/27/96
f 25/4/97 24/3/98 11/22/99 13/21/100
f 28/40/101 29/19/102 41/20/103 42/41/104
f 12/37/105 23/26/106 26/25/107 14/38/108
f 14/38/109 28/40/110 27/32/111 19/31/112
f 14/38/113 26/25/114 29/19/115 28/40/116
f 26/25/117 10/24/118 30/15/119 29/19/120
f 10/24/121 5/23/122 31/16/123 30/15/124
f 5/23/125 23/26/126 32/43/127 31/16/128
f 32/43/129 23/26/130 12/37/131 33/27/132
f 20/39/133 34/28/134 33/27/135 12/37/136
f 2/5/137 36/29/138 35/42/139 15/6/140
f 37/30/141 36/29/142 2/5/143 11/22/144
f 11/22/145 24/3/146 38/44/147 37/30/148
f 24/3/149 1/2/150 39/17/151 38/44/152
f 40/18/153 39/17/154 1/2/155 6/1/156
f 6/1/157 25/4/158 41/20/159 40/18/160
f 41/20/161 25/4/162 13/21/163 42/41/164
f 43/33/165 42/41/166 13/21/167 7/8/168
f 44/34/169 43/33/170 7/8/171 17/7/172
