# This file uses centimeters as units for non-parametric coordinates.

v -20.525764 17.753807 13.849555
v 20.525764 17.753807 13.849555
v -20.525764 48.542454 13.849555
v 20.525764 48.542454 13.849555
v -25.299999 53.448147 13.482330
v 25.299999 53.448147 13.482330
v 23.620857 51.869778 -1.450445
v -23.620857 51.869778 -1.450445
v 23.620857 7.463369 -1.450445
v -23.620857 7.463369 -1.450445
v 25.299999 5.885002 13.482330
v -25.299999 5.885002 13.482330
v -16.554934 45.311371 -10.700482
v 16.554934 45.311371 -10.700482
v 16.554934 11.876451 -10.700482
v -16.554934 11.876451 -10.700482
v -12.026413 40.971191 -37.590336
v 12.026413 40.971191 -37.590336
v 12.026413 18.361958 -37.590336
v -12.026413 18.361958 -37.590336
v -13.386013 42.754723 -23.615948
v 13.386013 42.754723 -23.615948
v 13.386013 16.934771 -23.615948
v -13.386013 16.934771 -23.615948
v -19.553066 6.917349 -1.450445
v 19.553066 6.917349 -1.450445
v -12.639184 11.167347 -9.133292
v 12.639184 11.167347 -9.133292
v 9.229865 16.742790 -22.976303
v -9.229865 16.742790 -22.976303
v -8.213299 17.935236 -33.412071
v 8.213299 17.935236 -33.412071
v -12.639184 7.928944 -9.133292
v 12.639184 7.928944 -9.133292
v 9.229865 9.491268 -22.976303
v -9.229865 9.491268 -22.976303
v -8.213299 10.707609 -33.412071
v 8.213299 10.707609 -33.412071
v -20.525764 17.753807 10.286909
v 20.525764 17.753807 10.286909
v 20.525764 48.542454 10.286909
v -20.525764 48.542454 10.286909
v 0.000000 53.448147 15.450289
v 0.000000 5.885002 15.450289
v 0.000000 17.753807 15.450289
v 0.000000 17.753807 13.349931
v 0.000000 48.542454 13.349931
v 0.000000 48.542454 15.450289
v -6.175364 17.038557 -33.412071
v -6.175364 11.604294 -33.412071
v 6.175364 17.038557 -33.412071
v 6.175364 11.604294 -33.412071
v 0.000000 8.625391 15.450289
v -20.525764 8.625396 13.849555
v 20.526173 8.528952 13.854757
v 12.133104 0.000000 -12.133103
v -0.000001 0.000000 -17.158802
v -12.133104 0.000000 -12.133103
v -17.158802 0.000000 -0.000002
v -12.133104 0.000000 12.133102
v -0.000001 0.000000 17.158800
v 12.133104 0.000000 12.133102
v 17.158802 0.000000 -0.000002
v 12.133104 2.598261 -12.133103
v -0.000001 2.598261 -17.158802
v -12.133104 2.598261 -12.133103
v -17.158802 2.598261 -0.000002
v -12.133104 2.598261 12.133102
v -0.000001 2.598261 17.158800
v 12.133104 2.598261 12.133102
v 17.158802 2.598261 -0.000002
v 7.425672 3.223156 -7.425672
v -0.000000 3.223156 -10.501489
v -7.425672 3.223156 -7.425672
v -10.501487 3.223156 -0.000002
v -7.425672 3.223156 7.425669
v -0.000000 3.223156 10.501485
v 7.425672 3.223156 7.425669
v 10.501487 3.223156 -0.000002
v 4.005834 5.435163 -4.005836
v -0.000000 5.435163 -5.665109
v -4.005834 5.435163 -4.005836
v -5.665107 5.435163 -0.000002
v -4.005834 5.435163 4.005831
v -0.000000 5.435163 5.665104
v 4.005834 5.435163 4.005831
v 5.665107 5.435163 -0.000002
v 4.005834 7.970448 -4.005836
v -0.000000 7.970448 -5.665109
v -4.005834 7.970448 -4.005836
v -5.665107 7.970448 -0.000002
v -4.005834 7.970448 4.005831
v -0.000000 7.970448 5.665104
v 4.005834 7.970448 4.005831
v 5.665107 7.970448 -0.000002
v 0.000000 0.000000 -0.000002
v -0.000000 7.970448 -0.000002
vt 0.279904 0.306264
vt 0.279393 0.306246
vt 0.279883 0.306149
vt 0.279718 0.306031
vt 0.279707 0.306340
vt 0.263455 0.307569
vt 0.279063 0.306753
vt 0.279015 0.306095
vt 0.278908 0.306199
vt 0.279844 0.306818
vt 0.295057 0.310166
vt 0.279803 0.306343
vt 0.279394 0.306331
vt 0.279402 0.306818
vt 0.292708 0.302170
vt 0.279251 0.308876
vt 0.279006 0.306289
vt 0.267059 0.300064
vt 0.279759 0.306170
vt 0.279205 0.306616
vt 0.279182 0.306134
vt 0.279775 0.306819
vt 0.279672 0.306720
vt 0.279740 0.306658
vt 0.279721 0.306105
vt 0.279279 0.306078
vt 0.279291 0.306441
vt 0.279349 0.306316
vt 0.279342 0.306008
vt 0.279640 0.306570
vt 0.279830 0.306340
vt 0.279709 0.306472
vt 0.279129 0.306766
vt 0.279673 0.306677
vt 0.279263 0.306645
vt 0.279828 0.306521
vt 0.279642 0.306475
vt 0.279354 0.306454
vt 0.279204 0.306490
vt 0.279265 0.306688
vt 0.279356 0.306549
vt 0.279214 0.306297
vt 0.279411 0.306783
vt 0.279784 0.306796
vt 0.279021 0.306259
vt 0.279056 0.306737
vt 0.279807 0.306311
vt 0.279404 0.306300
vt -0.000000 0.004736
vt 0.500000 0.004736
vt 1.000000 0.004736
vt 1.000000 0.995264
vt 0.500000 0.995264
vt -0.000000 0.995264
vt 0.300575 0.287295
vt 0.303394 0.312256
vt 0.247891 0.312256
vt 0.250709 0.287295
vt 0.303693 0.312622
vt 0.247591 0.312622
vt 0.279895 0.306606
vt 0.279901 0.306260
vt 0.248258 0.258954
vt 0.248258 0.283249
vt 0.303473 0.283249
vt 0.303473 0.258954
vt 0.279145 0.306569
vt 0.279157 0.306211
vt 0.275622 0.323508
vt 0.300987 0.323508
vt 0.279388 0.307225
vt 0.304672 0.309301
vt 0.254100 0.305274
vt 0.300985 0.313612
vt 0.275622 0.313737
vt 0.250253 0.313737
vt 0.250257 0.323508
vt 0.284785 0.309469
vt 0.285128 0.309483
vt 0.285128 0.309413
vt 0.284785 0.309400
vt 0.285326 0.309531
vt 0.285327 0.309457
vt 0.285244 0.309591
vt 0.285245 0.309511
vt 0.284888 0.309624
vt 0.284888 0.309542
vt 0.284491 0.309605
vt 0.284490 0.309524
vt 0.284328 0.309548
vt 0.284327 0.309472
vt 0.284464 0.309494
vt 0.284463 0.309423
vt 0.284815 0.309290
vt 0.284935 0.309293
vt 0.284997 0.309306
vt 0.284963 0.309320
vt 0.284849 0.309327
vt 0.284724 0.309323
vt 0.284665 0.309310
vt 0.284705 0.309296
vt 0.285018 0.309415
vt 0.284802 0.309406
vt 0.285136 0.309442
vt 0.285079 0.309474
vt 0.284865 0.309491
vt 0.284629 0.309481
vt 0.284524 0.309451
vt 0.284601 0.309421
vt 0.284934 0.309366
vt 0.284815 0.309362
vt 0.284997 0.309380
vt 0.284963 0.309395
vt 0.284849 0.309403
vt 0.284724 0.309399
vt 0.284666 0.309384
vt 0.284705 0.309369
vt 0.284854 0.309542
vt 0.284829 0.309308
vn 0.000000 0.995667 -0.092986
vn 0.000000 0.995667 -0.092986
vn 0.000000 0.995667 -0.092986
vn 0.000000 0.000000 -1.000000
vn 0.000000 0.000000 -1.000000
vn 0.000000 0.000000 -1.000000
vn 0.000000 0.000000 -1.000000
vn 0.993737 0.000000 -0.111743
vn 0.993737 0.000000 -0.111743
vn 0.993737 0.000000 -0.111743
vn 0.993737 0.000000 -0.111743
vn -0.993737 0.000000 -0.111743
vn -0.993737 0.000000 -0.111743
vn -0.993737 0.000000 -0.111743
vn -0.993737 0.000000 -0.111743
vn -0.077640 -0.000464 0.996981
vn -0.077640 -0.000464 0.996981
vn -0.077640 -0.000464 0.996981
vn -0.077640 -0.000464 0.996981
vn -0.077751 0.000000 0.996973
vn -0.077751 0.000000 0.996973
vn -0.077751 0.000000 0.996973
vn -0.077751 0.000000 0.996973
vn 0.076692 0.000000 0.997055
vn 0.076692 0.000000 0.997055
vn 0.076692 0.000000 0.997055
vn 0.076692 0.000000 0.997055
vn -0.076692 0.000000 0.997055
vn -0.076692 0.000000 0.997055
vn -0.076692 0.000000 0.997055
vn -0.076692 0.000000 0.997055
vn 0.000000 0.815762 -0.578387
vn 0.000000 0.815762 -0.578387
vn 0.000000 0.815762 -0.578387
vn 0.000000 0.815762 -0.578387
vn 0.794674 0.000000 -0.607036
vn 0.794674 0.000000 -0.607036
vn 0.794674 0.000000 -0.607036
vn 0.794674 0.000000 -0.607036
vn 0.000000 -0.991443 -0.130542
vn 0.000000 -0.991443 -0.130542
vn 0.000000 -0.991443 -0.130542
vn 0.000000 -0.991443 -0.130542
vn -0.794674 0.000000 -0.607036
vn -0.794674 0.000000 -0.607036
vn -0.794674 0.000000 -0.607036
vn -0.794674 0.000000 -0.607036
vn 0.000000 0.991954 -0.126601
vn 0.000000 0.991954 -0.126601
vn 0.000000 0.991954 -0.126601
vn 0.000000 0.991954 -0.126601
vn 0.995300 0.000000 -0.096835
vn 0.995300 0.000000 -0.096835
vn 0.995300 0.000000 -0.096835
vn 0.995300 0.000000 -0.096835
vn 0.000000 -0.993276 -0.115771
vn 0.000000 -0.993276 -0.115771
vn 0.000000 -0.993276 -0.115771
vn 0.000000 -0.993276 -0.115771
vn -0.995300 0.000000 -0.096835
vn -0.995300 0.000000 -0.096835
vn -0.995300 0.000000 -0.096835
vn -0.995300 0.000000 -0.096835
vn 0.000000 0.980965 -0.194184
vn 0.000000 0.980965 -0.194184
vn 0.000000 0.980965 -0.194184
vn 0.000000 0.980965 -0.194184
vn 0.971194 0.000000 -0.238291
vn 0.971194 0.000000 -0.238291
vn 0.971194 0.000000 -0.238291
vn 0.971194 0.000000 -0.238291
vn 0.000000 -0.993692 -0.112148
vn 0.000000 -0.993692 -0.112148
vn 0.000000 -0.993692 -0.112148
vn 0.000000 -0.993692 -0.112148
vn -0.971194 0.000000 -0.238291
vn -0.971194 0.000000 -0.238291
vn -0.971194 0.000000 -0.238291
vn -0.971194 0.000000 -0.238291
vn 0.132094 -0.984084 -0.118869
vn 0.132094 -0.984084 -0.118869
vn 0.132094 -0.984084 -0.118869
vn 0.005209 -0.997741 -0.066972
vn 0.005209 -0.997741 -0.066972
vn 0.005209 -0.997741 -0.066972
vn -0.132094 -0.984084 -0.118869
vn -0.132094 -0.984084 -0.118869
vn -0.132094 -0.984084 -0.118869
vn -0.042741 -0.874692 -0.482791
vn -0.042741 -0.874692 -0.482791
vn -0.042741 -0.874692 -0.482791
vn -0.042741 -0.874692 -0.482791
vn 0.042741 -0.874692 -0.482791
vn 0.042741 -0.874692 -0.482791
vn 0.042741 -0.874692 -0.482791
vn 0.042741 -0.874692 -0.482791
vn -0.011976 -0.994095 -0.107850
vn -0.011976 -0.994095 -0.107850
vn -0.011976 -0.994095 -0.107850
vn -0.011976 -0.994095 -0.107850
vn 0.000000 -0.994825 -0.101601
vn 0.000000 -0.994825 -0.101601
vn 0.000000 -0.994825 -0.101601
vn 0.000000 -0.994825 -0.101601
vn 0.011976 -0.994095 -0.107850
vn 0.011976 -0.994095 -0.107850
vn 0.011976 -0.994095 -0.107850
vn 0.011976 -0.994095 -0.107850
vn -0.002599 -0.929086 -0.369856
vn -0.002599 -0.929086 -0.369856
vn -0.002599 -0.929086 -0.369856
vn -0.002599 -0.929086 -0.369856
vn 0.002599 -0.929086 -0.369855
vn 0.002599 -0.929086 -0.369855
vn 0.002599 -0.929086 -0.369855
vn 0.002599 -0.929086 -0.369855
vn -0.743327 0.000000 -0.668928
vn -0.743327 0.000000 -0.668928
vn -0.743327 0.000000 -0.668928
vn 0.743327 0.000000 -0.668928
vn 0.743327 0.000000 -0.668928
vn 0.743327 0.000000 -0.668928
vn -0.995289 0.000000 -0.096953
vn -0.995289 0.000000 -0.096953
vn -0.995289 0.000000 -0.096953
vn -0.995289 0.000000 -0.096953
vn 0.000000 0.000000 -1.000000
vn 0.000000 0.000000 -1.000000
vn 0.000000 0.000000 -1.000000
vn 0.000000 0.000000 -1.000000
vn 0.995289 0.000000 -0.096953
vn 0.995289 0.000000 -0.096953
vn 0.995289 0.000000 -0.096953
vn 0.995289 0.000000 -0.096953
vn -0.970985 0.000000 -0.239139
vn -0.970985 0.000000 -0.239139
vn -0.970985 0.000000 -0.239139
vn -0.970985 0.000000 -0.239139
vn 0.970985 0.000000 -0.239139
vn 0.970985 0.000000 -0.239139
vn 0.970985 0.000000 -0.239139
vn 0.970985 0.000000 -0.239139
vn 0.000000 1.000000 0.000000
vn 0.000000 1.000000 0.000000
vn 0.000000 1.000000 0.000000
vn 0.000000 1.000000 0.000000
vn -1.000000 0.000000 0.000000
vn -1.000000 0.000000 0.000000
vn -1.000000 0.000000 0.000000
vn -1.000000 0.000000 0.000000
vn 0.000000 -1.000000 0.000000
vn 0.000000 -1.000000 0.000000
vn 0.000000 -1.000000 0.000000
vn 0.000000 -1.000000 0.000000
vn 1.000000 0.000000 0.000000
vn 1.000000 0.000000 0.000000
vn 1.000000 0.000000 0.000000
vn 1.000000 0.000000 0.000000
vn -0.147594 0.000000 0.989048
vn -0.147594 0.000000 0.989048
vn -0.147594 0.000000 0.989048
vn -0.147594 0.000000 0.989048
vn -0.005209 -0.997741 -0.066972
vn -0.005209 -0.997741 -0.066972
vn -0.005209 -0.997741 -0.066972
vn 0.078089 0.000566 0.996946
vn 0.078089 0.000566 0.996946
vn 0.078089 0.000566 0.996946
vn 0.000000 1.000000 0.000000
vn 0.000000 1.000000 0.000000
vn 0.000000 1.000000 0.000000
vn 0.000000 1.000000 0.000000
vn 0.147594 0.000000 0.989048
vn 0.147594 0.000000 0.989048
vn 0.147594 0.000000 0.989048
vn 0.147594 0.000000 0.989048
vn 0.000000 -1.000000 0.000000
vn 0.000000 -1.000000 0.000000
vn 0.000000 -1.000000 0.000000
vn 0.000000 -1.000000 0.000000
vn 0.077640 -0.000464 0.996981
vn 0.077640 -0.000464 0.996981
vn 0.077640 -0.000464 0.996981
vn 0.077640 -0.000464 0.996981
vn 0.008106 0.994523 -0.104208
vn 0.008106 0.994523 -0.104208
vn 0.008106 0.994523 -0.104208
vn -0.008106 0.994523 -0.104208
vn -0.008106 0.994523 -0.104208
vn -0.008106 0.994523 -0.104208
vn 0.000000 -0.998140 -0.060969
vn 0.000000 -0.998140 -0.060969
vn 0.000000 -0.998140 -0.060969
vn -0.000001 0.000000 -1.000000
vn -0.000001 0.000000 -1.000000
vn -0.000001 0.000000 -1.000000
vn -0.000001 0.000000 -1.000000
vn 0.000000 0.000000 -1.000000
vn 0.000000 0.000000 -1.000000
vn 0.000000 0.000000 -1.000000
vn 0.000000 0.000000 -1.000000
vn 0.000001 0.000000 -1.000000
vn 0.000001 0.000000 -1.000000
vn 0.000001 0.000000 -1.000000
vn 0.000001 0.000000 -1.000000
vn 0.000000 0.000000 -1.000000
vn 0.000000 0.000000 -1.000000
vn 0.000000 0.000000 -1.000000
vn 0.000000 0.000000 -1.000000
vn -0.077640 0.000831 0.996981
vn -0.077640 0.000831 0.996981
vn -0.077640 0.000831 0.996981
vn -0.077640 0.000831 0.996981
vn 0.077625 0.000284 0.996983
vn 0.077625 0.000284 0.996983
vn 0.077625 0.000284 0.996983
vn 0.077625 0.000284 0.996983
vn 0.077527 -0.000224 0.996990
vn 0.077527 -0.000224 0.996990
vn 0.077527 -0.000224 0.996990
vn 0.077527 -0.000224 0.996990
vn -0.076691 0.000000 0.997055
vn -0.076691 0.000000 0.997055
vn -0.076691 0.000000 0.997055
vn 0.382684 0.000000 -0.923879
vn 0.382684 0.000000 -0.923879
vn 0.382684 0.000000 -0.923879
vn 0.382684 0.000000 -0.923879
vn -0.382684 0.000000 -0.923880
vn -0.382684 0.000000 -0.923880
vn -0.382684 0.000000 -0.923880
vn -0.382684 0.000000 -0.923880
vn -0.923879 0.000000 -0.382684
vn -0.923879 0.000000 -0.382684
vn -0.923879 0.000000 -0.382684
vn -0.923879 0.000000 -0.382684
vn -0.923880 0.000000 0.382684
vn -0.923880 0.000000 0.382684
vn -0.923880 0.000000 0.382684
vn -0.923880 0.000000 0.382684
vn -0.382683 0.000000 0.923880
vn -0.382683 0.000000 0.923880
vn -0.382683 0.000000 0.923880
vn -0.382683 0.000000 0.923880
vn 0.382683 0.000000 0.923880
vn 0.382683 0.000000 0.923880
vn 0.382683 0.000000 0.923880
vn 0.382683 0.000000 0.923880
vn 0.923880 0.000000 0.382684
vn 0.923880 0.000000 0.382684
vn 0.923880 0.000000 0.382684
vn 0.923880 0.000000 0.382684
vn 0.923879 0.000000 -0.382684
vn 0.923879 0.000000 -0.382684
vn 0.923879 0.000000 -0.382684
vn 0.923879 0.000000 -0.382684
vn 0.000000 -1.000000 0.000000
vn 0.000000 -1.000000 0.000000
vn 0.000000 -1.000000 0.000000
vn 0.000000 -1.000000 0.000000
vn 0.000000 1.000000 0.000000
vn 0.000000 1.000000 0.000000
vn 0.000000 1.000000 0.000000
vn 0.000000 1.000000 0.000000
vn 0.038681 0.994878 -0.093385
vn 0.038681 0.994878 -0.093385
vn 0.038681 0.994878 -0.093385
vn 0.038681 0.994878 -0.093385
vn -0.038681 0.994878 -0.093385
vn -0.038681 0.994878 -0.093385
vn -0.038681 0.994878 -0.093385
vn -0.038681 0.994878 -0.093385
vn -0.093385 0.994878 -0.038681
vn -0.093385 0.994878 -0.038681
vn -0.093385 0.994878 -0.038681
vn -0.093385 0.994878 -0.038681
vn -0.093385 0.994878 0.038681
vn -0.093385 0.994878 0.038681
vn -0.093385 0.994878 0.038681
vn -0.093385 0.994878 0.038681
vn -0.038681 0.994878 0.093385
vn -0.038681 0.994878 0.093385
vn -0.038681 0.994878 0.093385
vn -0.038681 0.994878 0.093385
vn 0.038681 0.994878 0.093385
vn 0.038681 0.994878 0.093385
vn 0.038681 0.994878 0.093385
vn 0.038681 0.994878 0.093385
vn 0.093385 0.994878 0.038681
vn 0.093385 0.994878 0.038681
vn 0.093385 0.994878 0.038681
vn 0.093385 0.994878 0.038681
vn 0.093385 0.994878 -0.038681
vn 0.093385 0.994878 -0.038681
vn 0.093385 0.994878 -0.038681
vn 0.093385 0.994878 -0.038681
vn 0.169782 0.896194 -0.409891
vn 0.169782 0.896194 -0.409891
vn 0.169782 0.896194 -0.409891
vn 0.169782 0.896194 -0.409891
vn -0.169782 0.896194 -0.409891
vn -0.169782 0.896194 -0.409891
vn -0.169782 0.896194 -0.409891
vn -0.169782 0.896194 -0.409891
vn -0.409891 0.896194 -0.169782
vn -0.409891 0.896194 -0.169782
vn -0.409891 0.896194 -0.169782
vn -0.409891 0.896194 -0.169782
vn -0.409891 0.896194 0.169782
vn -0.409891 0.896194 0.169782
vn -0.409891 0.896194 0.169782
vn -0.409891 0.896194 0.169782
vn -0.169782 0.896194 0.409891
vn -0.169782 0.896194 0.409891
vn -0.169782 0.896194 0.409891
vn -0.169782 0.896194 0.409891
vn 0.169782 0.896194 0.409891
vn 0.169782 0.896194 0.409891
vn 0.169782 0.896194 0.409891
vn 0.169782 0.896194 0.409891
vn 0.409891 0.896194 0.169782
vn 0.409891 0.896194 0.169782
vn 0.409891 0.896194 0.169782
vn 0.409891 0.896194 0.169782
vn 0.409891 0.896194 -0.169782
vn 0.409891 0.896194 -0.169782
vn 0.409891 0.896194 -0.169782
vn 0.409891 0.896194 -0.169782
vn 0.382684 0.000000 -0.923879
vn 0.382684 0.000000 -0.923879
vn 0.382684 0.000000 -0.923879
vn 0.382684 0.000000 -0.923879
vn -0.382684 0.000000 -0.923879
vn -0.382684 0.000000 -0.923879
vn -0.382684 0.000000 -0.923879
vn -0.382684 0.000000 -0.923879
vn -0.923879 0.000000 -0.382684
vn -0.923879 0.000000 -0.382684
vn -0.923879 0.000000 -0.382684
vn -0.923879 0.000000 -0.382684
vn -0.923879 0.000000 0.382684
vn -0.923879 0.000000 0.382684
vn -0.923879 0.000000 0.382684
vn -0.923879 0.000000 0.382684
vn -0.382684 0.000000 0.923879
vn -0.382684 0.000000 0.923879
vn -0.382684 0.000000 0.923879
vn -0.382684 0.000000 0.923879
vn 0.382684 0.000000 0.923879
vn 0.382684 0.000000 0.923879
vn 0.382684 0.000000 0.923879
vn 0.382684 0.000000 0.923879
vn 0.923879 0.000000 0.382684
vn 0.923879 0.000000 0.382684
vn 0.923879 0.000000 0.382684
vn 0.923879 0.000000 0.382684
vn 0.923879 0.000000 -0.382684
vn 0.923879 0.000000 -0.382684
vn 0.923879 0.000000 -0.382684
vn 0.923879 0.000000 -0.382684
vn 0.000000 -1.000000 0.000000
vn 0.000000 -1.000000 0.000000
vn 0.000000 -1.000000 0.000000
vn 0.000000 -1.000000 0.000000
vn 0.000000 -1.000000 0.000000
vn 0.000000 -1.000000 0.000000
vn 0.000000 -1.000000 0.000000
vn 0.000000 -1.000000 0.000000
vn 0.000000 -1.000000 0.000000
vn 0.000000 -1.000000 0.000000
vn 0.000000 -1.000000 0.000000
vn 0.000000 -1.000000 0.000000
vn 0.000000 1.000000 0.000000
vn 0.000000 1.000000 0.000000
vn 0.000000 1.000000 0.000000
vn 0.000000 1.000000 0.000000
vn 0.000000 1.000000 0.000000
vn 0.000000 1.000000 0.000000
vn 0.000000 1.000000 0.000000
vn 0.000000 1.000000 0.000000
vn 0.000000 1.000000 0.000000
vn 0.000000 1.000000 0.000000
vn 0.000000 1.000000 0.000000
vn 0.000000 1.000000 0.000000
s off
f 8/3/1 43/2/2 7/8/3
f 20/5/4 17/4/5 18/29/6 19/28/7
f 11/6/8 9/7/9 7/8/10 6/9/11
f 10/10/12 12/11/13 5/1/14 8/3/15
f 3/12/16 48/13/17 43/2/18 5/1/19
f 45/69/20 1/77/21 54/76/22 53/75/23
f 4/17/24 2/18/25 11/6/26 6/9/27
f 1/15/28 3/12/29 5/1/30 12/11/31
f 13/19/32 8/3/33 7/8/34 14/21/35
f 7/8/36 9/7/37 15/20/38 14/21/39
f 25/22/40 33/23/41 34/40/42 26/33/43
f 10/10/44 8/3/45 13/19/46 16/24/47
f 17/55/48 21/56/49 22/57/50 18/58/51
f 22/26/52 23/27/53 19/28/54 18/29/55
f 36/30/56 37/31/57 38/42/58 35/41/59
f 24/32/60 21/25/61 17/4/62 20/5/63
f 21/56/64 13/59/65 14/60/66 22/57/67
f 14/21/68 15/20/69 23/27/70 22/26/71
f 33/23/72 36/30/73 35/41/74 34/40/75
f 16/24/76 13/19/77 21/25/78 24/32/79
f 9/7/80 11/6/81 26/33/82
f 44/16/83 12/11/84 25/22/85
f 12/11/86 10/10/87 25/22/88
f 10/10/89 16/24/90 27/34/91 25/22/92
f 15/20/93 9/7/94 26/33/95 28/35/96
f 24/32/97 20/5/98 31/36/99 30/37/100
f 31/36/101 20/5/102 19/28/103 32/39/104
f 19/28/105 23/27/106 29/38/107 32/39/108
f 16/24/109 24/32/110 30/37/111 27/34/112
f 23/27/113 15/20/114 28/35/115 29/38/116
f 25/22/117 27/34/118 33/23/119
f 28/35/120 26/33/121 34/40/122
f 30/37/123 31/36/124 37/31/125 36/30/126
f 50/63/127 49/64/128 51/65/129 52/66/130
f 32/39/131 29/38/132 35/41/133 38/42/134
f 27/34/135 30/37/136 36/30/137 33/23/138
f 29/38/139 28/35/140 34/40/141 35/41/142
f 1/15/143 45/14/144 46/43/145 39/44/146
f 2/18/147 4/17/148 41/45/149 40/46/150
f 48/13/151 3/12/152 42/47/153 47/48/154
f 3/12/155 1/15/156 39/44/157 42/47/158
f 46/50/159 47/53/160 42/54/161 39/49/162
f 11/6/163 44/16/164 26/33/165
f 2/18/166 55/73/167 11/6/168
f 46/43/169 45/14/170 2/18/171 40/46/172
f 46/50/173 40/51/174 41/52/175 47/53/176
f 4/17/177 48/13/178 47/48/179 41/45/180
f 43/2/181 48/13/182 4/17/183 6/9/184
f 5/1/185 43/2/186 8/3/187
f 43/2/188 6/9/189 7/8/190
f 44/16/191 25/22/192 26/33/193
f 37/31/194 31/36/195 49/61/196 50/62/197
f 31/36/198 32/39/199 51/67/200 49/61/201
f 32/39/202 38/42/203 52/68/204 51/67/205
f 38/42/206 37/31/207 50/62/208 52/68/209
f 53/71/210 54/72/211 12/11/212 44/16/213
f 2/70/214 45/69/215 53/75/216 55/74/217
f 11/6/218 55/73/219 53/71/220 44/16/221
f 12/11/222 54/72/223 1/15/224
f 56/78/225 57/79/226 65/80/227 64/81/228
f 57/79/229 58/82/230 66/83/231 65/80/232
f 58/82/233 59/84/234 67/85/235 66/83/236
f 59/84/237 60/86/238 68/87/239 67/85/240
f 60/86/241 61/88/242 69/89/243 68/87/244
f 61/88/245 62/90/246 70/91/247 69/89/248
f 62/90/249 63/92/250 71/93/251 70/91/252
f 63/92/253 56/78/254 64/81/255 71/93/256
f 61/88/257 96/118/258 63/92/259 62/90/260
f 91/97/261 97/119/262 89/95/263 90/96/264
f 64/81/265 65/80/266 73/102/267 72/103/268
f 65/80/269 66/83/270 74/104/271 73/102/272
f 66/83/273 67/85/274 75/105/275 74/104/276
f 67/85/277 68/87/278 76/106/279 75/105/280
f 68/87/281 69/89/282 77/107/283 76/106/284
f 69/89/285 70/91/286 78/108/287 77/107/288
f 70/91/289 71/93/290 79/109/291 78/108/292
f 71/93/293 64/81/294 72/103/295 79/109/296
f 72/103/297 73/102/298 81/110/299 80/111/300
f 73/102/301 74/104/302 82/112/303 81/110/304
f 74/104/305 75/105/306 83/113/307 82/112/308
f 75/105/309 76/106/310 84/114/311 83/113/312
f 76/106/313 77/107/314 85/115/315 84/114/316
f 77/107/317 78/108/318 86/116/319 85/115/320
f 78/108/321 79/109/322 87/117/323 86/116/324
f 79/109/325 72/103/326 80/111/327 87/117/328
f 80/111/329 81/110/330 89/95/331 88/94/332
f 81/110/333 82/112/334 90/96/335 89/95/336
f 82/112/337 83/113/338 91/97/339 90/96/340
f 83/113/341 84/114/342 92/98/343 91/97/344
f 84/114/345 85/115/346 93/99/347 92/98/348
f 85/115/349 86/116/350 94/100/351 93/99/352
f 86/116/353 87/117/354 95/101/355 94/100/356
f 87/117/357 80/111/358 88/94/359 95/101/360
f 56/78/361 63/92/362 96/118/363 57/79/364
f 59/84/365 96/118/366 61/88/367 60/86/368
f 57/79/369 96/118/370 59/84/371 58/82/372
f 88/94/373 89/95/374 97/119/375 95/101/376
f 93/99/377 97/119/378 91/97/379 92/98/380
f 95/101/381 97/119/382 93/99/383 94/100/384
