# This file uses centimeters as units for non-parametric coordinates.

v 2.057802 -102.268669 -0.567913
v 2.057801 -99.219521 -0.567913
v 0.506108 -99.744102 -2.073868
v 0.506108 -96.657158 -2.073868
v -1.564863 -97.147942 -1.451991
v -1.564863 -94.014732 -1.451991
v -2.030252 -94.464775 0.659659
v -2.030252 -91.277382 0.659659
v -0.412560 -91.680313 2.094485
v -0.412560 -88.431557 2.094485
v 1.628427 -88.781555 1.380325
v 1.628427 -85.395828 1.380325
v 1.998614 -85.670074 -0.750077
v 1.998614 -82.080269 -0.750077
v 0.318181 -82.240715 -2.110885
v 0.318181 -78.434814 -2.110884
v -1.688712 -78.475174 -1.305881
v -1.688712 -74.445381 -1.305881
v -1.962951 -74.361458 0.838984
v -1.962951 -70.105446 0.838984
v -0.223162 -69.895676 2.123034
v -0.223162 -65.419571 2.123034
v 1.745597 -65.093643 1.228806
v 1.745597 -60.469955 1.228806
v 1.923336 -60.113670 -0.926202
v 1.923336 -55.412895 -0.926202
v 0.127689 -55.035969 -2.130908
v 0.127689 -50.287743 -2.130908
v -1.798969 -49.900547 -1.149254
v -1.798968 -45.135925 -1.149254
v -1.879847 -44.749165 1.011558
v -1.879846 -39.999729 1.011558
v -0.031963 -39.624107 2.134491
v -0.031963 -34.920940 2.134491
v 1.848716 -34.566807 1.067391
v 1.848715 -29.939571 1.067391
v 1.832573 -29.616623 -1.094874
v 1.832573 -25.092590 -1.094874
v -0.063828 -24.809555 -2.133776
v -0.063828 -20.412783 -2.133776
v -1.894740 -20.177153 -0.983379
v -1.894740 -15.927719 -0.983379
v -1.781609 -15.745520 1.175985
v -1.781609 -11.658919 1.175985
v 0.159490 -11.534527 2.128764
v 0.159490 -7.621164 2.128764
v 1.936949 -7.548703 0.897386
v 1.936949 -3.794358 0.897386
v 1.727058 -3.754345 -1.254728
v 1.727058 0.000000 -1.254728
v 3.172121 -102.268669 -1.716083
v 3.172120 -99.219521 -1.716083
v 0.946033 -96.657158 -3.876549
v 0.946033 -99.744102 -3.876549
v -2.925099 -94.014732 -2.714114
v -2.925098 -97.147942 -2.714114
v -3.795022 -91.277382 1.233059
v -3.795022 -94.464775 1.233059
v -0.771172 -88.431557 3.915088
v -0.771172 -91.680313 3.915088
v 3.043916 -85.395828 2.580155
v 3.043916 -88.781555 2.580155
v 3.735882 -82.011116 -1.402071
v 3.735883 -85.623009 -1.402071
v 0.594757 -78.311493 -3.945743
v 0.594757 -82.153732 -3.945743
v -3.156603 -74.289658 -2.441001
v -3.156603 -78.351128 -2.441000
v -3.669221 -69.923698 1.568260
v -3.669221 -74.204239 1.568260
v -0.417142 -65.216034 3.968452
v -0.417142 -69.710175 3.968452
v 3.262933 -60.248390 2.296930
v 3.262933 -64.885529 2.296930
v 3.595171 -55.176155 -1.731292
v 3.595171 -59.886536 -1.731292
v 0.238680 -50.043163 -3.983172
v 0.238680 -54.795742 -3.983171
v -3.362698 -44.891090 -2.148228
v -3.362698 -49.654579 -2.148228
v -3.513878 -39.762253 1.890842
v -3.513878 -44.505035 1.890842
v -0.059746 -34.698204 3.989868
v -0.059745 -39.389351 3.989869
v 3.455687 -29.738501 1.995207
v 3.455687 -34.348694 1.995207
v 3.425512 -24.919436 -2.046579
v 3.425513 -29.421907 -2.046579
v -0.119309 -20.272930 -3.988532
v -0.119309 -24.644274 -3.988532
v -3.541717 -15.825526 -1.838168
v -3.541718 -20.046434 -1.838168
v -3.330249 -11.597560 2.198195
v -3.330249 -15.653422 2.198195
v 0.298124 -7.588717 3.979163
v 0.298123 -11.483900 3.979164
v 3.620616 -3.794358 1.677428
v 3.620616 -7.548703 1.677428
v 3.319503 0.000000 -1.410036
v 3.319503 -3.754345 -1.410036
vt 0.132627 0.134892
vt 0.132627 0.134914
vt 0.132654 0.134864
vt 0.132654 0.134887
vt 0.132681 0.134853
vt 0.132681 0.134876
vt 0.132681 0.134850
vt 0.132681 0.134874
vt 0.132654 0.134837
vt 0.132654 0.134861
vt 0.132628 0.134805
vt 0.132627 0.134830
vt 0.132629 0.134764
vt 0.132629 0.134790
vt 0.132657 0.134732
vt 0.132657 0.134758
vt 0.132683 0.134715
vt 0.132683 0.134743
vt 0.132681 0.134705
vt 0.132681 0.134733
vt 0.132652 0.134683
vt 0.132652 0.134712
vt 0.132627 0.134643
vt 0.132627 0.134673
vt 0.132631 0.134597
vt 0.132631 0.134626
vt 0.132661 0.134561
vt 0.132661 0.134590
vt 0.132686 0.134541
vt 0.132686 0.134571
vt 0.132681 0.134527
vt 0.132680 0.134557
vt 0.132650 0.134501
vt 0.132650 0.134532
vt 0.132626 0.134459
vt 0.132626 0.134490
vt 0.132633 0.134412
vt 0.132633 0.134443
vt 0.132665 0.134377
vt 0.132665 0.134408
vt 0.132688 0.134357
vt 0.132688 0.134388
vt 0.132680 0.134340
vt 0.132680 0.134372
vt 0.132648 0.134312
vt 0.132648 0.134343
vt 0.132626 0.134268
vt 0.132626 0.134300
vt 0.132636 0.134221
vt 0.132636 0.134253
vt 0.132627 0.134914
vt 0.132627 0.134892
vt 0.132654 0.134864
vt 0.132654 0.134887
vt 0.132681 0.134853
vt 0.132681 0.134876
vt 0.132681 0.134850
vt 0.132681 0.134874
vt 0.132654 0.134837
vt 0.132654 0.134861
vt 0.132628 0.134805
vt 0.132627 0.134830
vt 0.132629 0.134764
vt 0.132629 0.134790
vt 0.132657 0.134732
vt 0.132657 0.134758
vt 0.132683 0.134715
vt 0.132683 0.134743
vt 0.132681 0.134705
vt 0.132681 0.134733
vt 0.132652 0.134683
vt 0.132652 0.134712
vt 0.132627 0.134643
vt 0.132627 0.134673
vt 0.132631 0.134597
vt 0.132631 0.134626
vt 0.132661 0.134561
vt 0.132661 0.134590
vt 0.132686 0.134541
vt 0.132686 0.134571
vt 0.132681 0.134527
vt 0.132680 0.134557
vt 0.132650 0.134501
vt 0.132650 0.134532
vt 0.132626 0.134459
vt 0.132626 0.134490
vt 0.132633 0.134412
vt 0.132633 0.134443
vt 0.132665 0.134377
vt 0.132665 0.134408
vt 0.132688 0.134357
vt 0.132688 0.134388
vt 0.132680 0.134340
vt 0.132680 0.134372
vt 0.132648 0.134312
vt 0.132648 0.134343
vt 0.132626 0.134268
vt 0.132626 0.134300
vt 0.132636 0.134221
vt 0.132636 0.134253
vt 0.132627 0.134914
vt 0.132627 0.134892
vt 0.132654 0.134864
vt 0.132654 0.134887
vt 0.132681 0.134853
vt 0.132681 0.134876
vt 0.132681 0.134850
vt 0.132681 0.134874
vt 0.132654 0.134837
vt 0.132654 0.134861
vt 0.132628 0.134805
vt 0.132627 0.134830
vt 0.132629 0.134764
vt 0.132629 0.134790
vt 0.132657 0.134732
vt 0.132657 0.134758
vt 0.132683 0.134715
vt 0.132683 0.134743
vt 0.132681 0.134705
vt 0.132681 0.134733
vt 0.132652 0.134683
vt 0.132652 0.134712
vt 0.132627 0.134643
vt 0.132627 0.134673
vt 0.132631 0.134597
vt 0.132631 0.134626
vt 0.132661 0.134561
vt 0.132661 0.134590
vt 0.132686 0.134541
vt 0.132686 0.134571
vt 0.132681 0.134527
vt 0.132680 0.134557
vt 0.132650 0.134501
vt 0.132650 0.134532
vt 0.132626 0.134459
vt 0.132626 0.134490
vt 0.132633 0.134412
vt 0.132633 0.134443
vt 0.132665 0.134377
vt 0.132665 0.134408
vt 0.132688 0.134357
vt 0.132688 0.134388
vt 0.132680 0.134340
vt 0.132680 0.134372
vt 0.132648 0.134312
vt 0.132648 0.134343
vt 0.132626 0.134268
vt 0.132626 0.134300
vt 0.132636 0.134221
vt 0.132636 0.134253
vn 0.696452 -0.000000 -0.717604
vn 0.696452 -0.000000 -0.717604
vn 0.696452 -0.000000 -0.717604
vn 0.696452 -0.000000 -0.717604
vn -0.287597 0.000000 -0.957752
vn -0.287597 0.000000 -0.957752
vn -0.287597 0.000000 -0.957752
vn -0.287597 0.000000 -0.957752
vn -0.976564 0.000000 -0.215227
vn -0.976564 0.000000 -0.215227
vn -0.976564 0.000000 -0.215227
vn -0.976564 0.000000 -0.215227
vn -0.663556 0.000000 0.748126
vn -0.663556 0.000000 0.748126
vn -0.663556 0.000000 0.748126
vn -0.663556 0.000000 0.748126
vn 0.330273 0.000000 0.943885
vn 0.330273 0.000000 0.943885
vn 0.330273 0.000000 0.943885
vn 0.330273 0.000000 0.943885
vn 0.985237 0.000000 0.171198
vn 0.985237 0.000000 0.171198
vn 0.985237 0.000000 0.171198
vn 0.985237 0.000000 0.171198
vn 0.629327 0.000000 -0.777141
vn 0.629327 0.000000 -0.777141
vn 0.629327 0.000000 -0.777141
vn 0.629327 0.000000 -0.777141
vn -0.372286 0.000000 -0.928118
vn -0.372286 0.000000 -0.928118
vn -0.372286 0.000000 -0.928118
vn -0.372286 0.000000 -0.928118
vn -0.991925 -0.000000 -0.126826
vn -0.991925 -0.000000 -0.126826
vn -0.991925 -0.000000 -0.126826
vn -0.991925 -0.000000 -0.126826
vn -0.593828 0.000000 0.804592
vn -0.593828 0.000000 0.804592
vn -0.593828 0.000000 0.804592
vn -0.593828 0.000000 0.804592
vn 0.413549 -0.000000 0.910482
vn 0.413549 -0.000000 0.910482
vn 0.413549 -0.000000 0.910482
vn 0.413549 -0.000000 0.910482
vn 0.996616 0.000000 0.082198
vn 0.996616 0.000000 0.082198
vn 0.996616 0.000000 0.082198
vn 0.996616 0.000000 0.082198
vn 0.557134 0.000000 -0.830423
vn 0.557134 0.000000 -0.830423
vn 0.557134 0.000000 -0.830423
vn 0.557134 0.000000 -0.830423
vn -0.453981 -0.000000 -0.891011
vn -0.453981 -0.000000 -0.891011
vn -0.453981 -0.000000 -0.891011
vn -0.453981 -0.000000 -0.891011
vn -0.999300 0.000000 -0.037403
vn -0.999300 0.000000 -0.037403
vn -0.999300 0.000000 -0.037403
vn -0.999300 0.000000 -0.037403
vn -0.519317 0.000000 0.854582
vn -0.519317 0.000000 0.854582
vn -0.519317 0.000000 0.854582
vn -0.519317 0.000000 0.854582
vn 0.493496 0.000000 0.869748
vn 0.493496 0.000000 0.869748
vn 0.493496 0.000000 0.869748
vn 0.493496 0.000000 0.869748
vn 0.999972 0.000000 -0.007465
vn 0.999972 0.000000 -0.007465
vn 0.999972 0.000000 -0.007465
vn 0.999972 0.000000 -0.007465
vn 0.480456 -0.000000 -0.877019
vn 0.480456 -0.000000 -0.877019
vn 0.480456 -0.000000 -0.877019
vn 0.480456 -0.000000 -0.877019
vn -0.532018 0.000000 -0.846733
vn -0.532018 0.000000 -0.846733
vn -0.532018 0.000000 -0.846733
vn -0.532018 0.000000 -0.846733
vn -0.998630 0.000000 0.052319
vn -0.998630 0.000000 0.052319
vn -0.998630 0.000000 0.052319
vn -0.998630 0.000000 0.052319
vn -0.440627 0.000000 0.897690
vn -0.440627 0.000000 0.897690
vn -0.440627 0.000000 0.897690
vn -0.440627 0.000000 0.897690
vn 0.569469 0.000000 0.822013
vn 0.569469 0.000000 0.822013
vn 0.569469 0.000000 0.822013
vn 0.569469 0.000000 0.822013
vn 0.995278 0.000000 -0.097067
vn 0.995278 0.000000 -0.097067
vn 0.995278 0.000000 -0.097067
vn 0.995278 0.000000 -0.097067
vn -0.696449 0.000000 0.717606
vn -0.696449 0.000000 0.717606
vn -0.696449 0.000000 0.717606
vn -0.696449 0.000000 0.717606
vn 0.287597 -0.000000 0.957752
vn 0.287597 -0.000000 0.957752
vn 0.287597 -0.000000 0.957752
vn 0.287597 -0.000000 0.957752
vn 0.976564 0.000000 0.215226
vn 0.976564 0.000000 0.215226
vn 0.976564 0.000000 0.215226
vn 0.976564 0.000000 0.215226
vn 0.663557 -0.000000 -0.748126
vn 0.663557 -0.000000 -0.748126
vn 0.663557 -0.000000 -0.748126
vn 0.663557 -0.000000 -0.748126
vn -0.330274 -0.000000 -0.943885
vn -0.330274 -0.000000 -0.943885
vn -0.330274 -0.000000 -0.943885
vn -0.330274 -0.000000 -0.943885
vn -0.985237 0.000000 -0.171198
vn -0.985237 0.000000 -0.171198
vn -0.985237 0.000000 -0.171198
vn -0.985237 0.000000 -0.171198
vn -0.629327 -0.000000 0.777141
vn -0.629327 -0.000000 0.777141
vn -0.629327 -0.000000 0.777141
vn -0.629327 -0.000000 0.777141
vn 0.372286 -0.000000 0.928118
vn 0.372286 -0.000000 0.928118
vn 0.372286 -0.000000 0.928118
vn 0.372286 -0.000000 0.928118
vn 0.991925 -0.000000 0.126826
vn 0.991925 -0.000000 0.126826
vn 0.991925 -0.000000 0.126826
vn 0.991925 -0.000000 0.126826
vn 0.593828 -0.000000 -0.804592
vn 0.593828 -0.000000 -0.804592
vn 0.593828 -0.000000 -0.804592
vn 0.593828 -0.000000 -0.804592
vn -0.413549 -0.000000 -0.910482
vn -0.413549 -0.000000 -0.910482
vn -0.413549 -0.000000 -0.910482
vn -0.413549 -0.000000 -0.910482
vn -0.996616 -0.000000 -0.082198
vn -0.996616 -0.000000 -0.082198
vn -0.996616 -0.000000 -0.082198
vn -0.996616 -0.000000 -0.082198
vn -0.557133 -0.000000 0.830423
vn -0.557133 -0.000000 0.830423
vn -0.557133 -0.000000 0.830423
vn -0.557133 -0.000000 0.830423
vn 0.453981 -0.000000 0.891011
vn 0.453981 -0.000000 0.891011
vn 0.453981 -0.000000 0.891011
vn 0.453981 -0.000000 0.891011
vn 0.999300 -0.000000 0.037403
vn 0.999300 -0.000000 0.037403
vn 0.999300 -0.000000 0.037403
vn 0.999300 -0.000000 0.037403
vn 0.519317 -0.000000 -0.854582
vn 0.519317 -0.000000 -0.854582
vn 0.519317 -0.000000 -0.854582
vn 0.519317 -0.000000 -0.854582
vn -0.493496 -0.000000 -0.869748
vn -0.493496 -0.000000 -0.869748
vn -0.493496 -0.000000 -0.869748
vn -0.493496 -0.000000 -0.869748
vn -0.999972 -0.000000 0.007465
vn -0.999972 -0.000000 0.007465
vn -0.999972 -0.000000 0.007465
vn -0.999972 -0.000000 0.007465
vn -0.480456 -0.000000 0.877019
vn -0.480456 -0.000000 0.877019
vn -0.480456 -0.000000 0.877019
vn -0.480456 -0.000000 0.877019
vn 0.532018 -0.000000 0.846733
vn 0.532018 -0.000000 0.846733
vn 0.532018 -0.000000 0.846733
vn 0.532018 -0.000000 0.846733
vn 0.998630 -0.000000 -0.052319
vn 0.998630 -0.000000 -0.052319
vn 0.998630 -0.000000 -0.052319
vn 0.998630 -0.000000 -0.052319
vn 0.440627 -0.000000 -0.897690
vn 0.440627 -0.000000 -0.897690
vn 0.440627 -0.000000 -0.897690
vn 0.440627 -0.000000 -0.897690
vn -0.569469 -0.000000 -0.822013
vn -0.569469 -0.000000 -0.822013
vn -0.569469 -0.000000 -0.822013
vn -0.569469 -0.000000 -0.822013
vn -0.995278 -0.000000 0.097067
vn -0.995278 -0.000000 0.097067
vn -0.995278 -0.000000 0.097067
vn -0.995278 -0.000000 0.097067
vn 0.717606 0.000000 0.696449
vn 0.717606 0.000000 0.696449
vn 0.717606 0.000000 0.696449
vn 0.717606 0.000000 0.696449
vn 0.630140 0.701973 0.331898
vn 0.630140 0.701973 0.331898
vn 0.630140 0.701973 0.331898
vn 0.630140 0.701973 0.331898
vn -0.625507 -0.707244 -0.329464
vn -0.625507 -0.707244 -0.329464
vn -0.625507 -0.707244 -0.329464
vn -0.625507 -0.707244 -0.329464
vn 0.621054 0.761257 -0.186493
vn 0.621054 0.761257 -0.186493
vn 0.621054 0.761257 -0.186493
vn 0.621054 0.761257 -0.186493
vn -0.614683 -0.766873 0.184582
vn -0.614683 -0.766873 0.184582
vn -0.614683 -0.766873 0.184582
vn -0.614683 -0.766873 0.184582
vn 0.142404 0.749814 -0.646142
vn 0.142404 0.749814 -0.646142
vn 0.142404 0.749814 -0.646142
vn 0.142404 0.749814 -0.646142
vn -0.140798 -0.756332 0.638857
vn -0.140798 -0.756332 0.638857
vn -0.140798 -0.756332 0.638857
vn -0.140798 -0.756332 0.638857
vn -0.505742 0.736892 -0.448571
vn -0.505742 0.736892 -0.448571
vn -0.505742 0.736892 -0.448571
vn -0.505742 0.736892 -0.448571
vn 0.499732 -0.744181 0.443240
vn 0.499732 -0.744181 0.443240
vn 0.499732 -0.744181 0.443240
vn 0.499732 -0.744181 0.443240
vn -0.652356 0.722721 0.228268
vn -0.652356 0.722721 0.228268
vn -0.652356 0.722721 0.228268
vn -0.652356 0.722721 0.228268
vn 0.644440 -0.730649 -0.225495
vn 0.644440 -0.730649 -0.225495
vn 0.644440 -0.730649 -0.225495
vn 0.644440 -0.730649 -0.225495
vn -0.120974 0.707585 0.696196
vn -0.120974 0.707585 0.696196
vn -0.120974 0.707585 0.696196
vn -0.120974 0.707585 0.696196
vn 0.119514 -0.715998 -0.687796
vn 0.119514 -0.715998 -0.687796
vn 0.119514 -0.715998 -0.687796
vn 0.119514 -0.715998 -0.687796
vn 0.561193 0.691764 0.454451
vn 0.561193 0.691764 0.454451
vn 0.561193 0.691764 0.454451
vn 0.561193 0.691764 0.454451
vn -0.554603 -0.700507 -0.449116
vn -0.554603 -0.700507 -0.449116
vn -0.554603 -0.700507 -0.449116
vn -0.554603 -0.700507 -0.449116
vn 0.684317 0.675547 -0.274494
vn 0.684317 0.675547 -0.274494
vn 0.684317 0.675547 -0.274494
vn 0.684317 0.675547 -0.274494
vn -0.676642 -0.684463 0.271416
vn -0.676642 -0.684463 0.271416
vn -0.676642 -0.684463 0.271416
vn -0.676642 -0.684463 0.271416
vn 0.095367 0.659215 -0.745883
vn 0.095367 0.659215 -0.745883
vn 0.095367 0.659215 -0.745883
vn 0.095367 0.659215 -0.745883
vn -0.094362 -0.668154 0.738015
vn -0.094362 -0.668154 0.738015
vn -0.094362 -0.668154 0.738015
vn -0.094362 -0.668154 0.738015
vn -0.616091 0.643175 -0.454705
vn -0.616091 0.643175 -0.454705
vn -0.616091 0.643175 -0.454705
vn -0.616091 0.643175 -0.454705
vn 0.610160 -0.651851 0.450328
vn 0.610160 -0.651851 0.450328
vn 0.610160 -0.651851 0.450328
vn 0.610160 -0.651851 0.450328
vn -0.704890 0.632948 0.320167
vn -0.704890 0.632948 0.320167
vn -0.704890 0.632948 0.320167
vn -0.704890 0.632948 0.320167
vn 0.702149 -0.636613 -0.318923
vn 0.702149 -0.636613 -0.318923
vn 0.702149 -0.636613 -0.318923
vn 0.702149 -0.636613 -0.318923
vn -0.063637 0.632948 0.771574
vn -0.063637 0.632948 0.771574
vn -0.063637 0.632948 0.771574
vn -0.063637 0.632948 0.771574
vn 0.063637 -0.632949 -0.771574
vn 0.063637 -0.632949 -0.771574
vn 0.063637 -0.632949 -0.771574
vn 0.063637 -0.632949 -0.771574
vn 0.642908 0.632950 0.431327
vn 0.642908 0.632950 0.431327
vn 0.642908 0.632950 0.431327
vn 0.642908 0.632950 0.431327
vn -0.642908 -0.632949 -0.431328
vn -0.642908 -0.632949 -0.431328
vn -0.642908 -0.632949 -0.431328
vn -0.642908 -0.632949 -0.431328
vn 0.689816 0.632948 -0.351470
vn 0.689816 0.632948 -0.351470
vn 0.689816 0.632948 -0.351470
vn 0.689816 0.632948 -0.351470
vn -0.689816 -0.632949 0.351468
vn -0.689816 -0.632949 0.351468
vn -0.689816 -0.632949 0.351468
vn -0.689816 -0.632949 0.351468
vn 0.028957 0.632949 -0.773652
vn 0.028957 0.632949 -0.773652
vn 0.028957 0.632949 -0.773652
vn 0.028957 0.632949 -0.773652
vn -0.028957 -0.632948 0.773652
vn -0.028957 -0.632948 0.773652
vn -0.028957 -0.632948 0.773652
vn -0.028957 -0.632948 0.773652
vn -0.661612 0.632948 -0.402052
vn -0.661612 0.632948 -0.402052
vn -0.661612 0.632948 -0.402052
vn -0.661612 0.632948 -0.402052
vn 0.661611 -0.632949 0.402053
vn 0.661611 -0.632949 0.402053
vn 0.661611 -0.632949 0.402053
vn 0.661611 -0.632949 0.402053
vn -0.673353 0.632949 0.382062
vn -0.673353 0.632949 0.382062
vn -0.673353 0.632949 0.382062
vn -0.673353 0.632949 0.382062
vn 0.673354 -0.632949 -0.382062
vn 0.673354 -0.632949 -0.382062
vn 0.673354 -0.632949 -0.382062
vn 0.673354 -0.632949 -0.382062
vn 0.005780 0.632949 0.774172
vn 0.005780 0.632949 0.774172
vn 0.005780 0.632949 0.774172
vn 0.005780 0.632949 0.774172
vn -0.005780 -0.632949 -0.774172
vn -0.005780 -0.632949 -0.774172
vn -0.005780 -0.632949 -0.774172
vn -0.005780 -0.632949 -0.774172
vn 0.678982 0.632949 0.371966
vn 0.678982 0.632949 0.371966
vn 0.678982 0.632949 0.371966
vn 0.678982 0.632949 0.371966
vn -0.678982 -0.632949 -0.371966
vn -0.678982 -0.632949 -0.371966
vn -0.678982 -0.632949 -0.371966
vn -0.678982 -0.632949 -0.371966
vn 0.655535 0.632949 -0.411885
vn 0.655535 0.632949 -0.411885
vn 0.655535 0.632949 -0.411885
vn 0.655535 0.632949 -0.411885
vn -0.655535 -0.632949 0.411885
vn -0.655535 -0.632949 0.411885
vn -0.655535 -0.632949 0.411885
vn -0.655535 -0.632949 0.411885
vn -0.040505 0.632949 -0.773133
vn -0.040505 0.632949 -0.773133
vn -0.040505 0.632949 -0.773133
vn -0.040505 0.632949 -0.773133
vn 0.040505 -0.632949 0.773133
vn 0.040505 -0.632949 0.773133
vn 0.040505 -0.632949 0.773133
vn 0.040505 -0.632949 0.773133
vn -0.694986 0.632949 -0.341130
vn -0.694986 0.632949 -0.341130
vn -0.694986 0.632949 -0.341130
vn -0.694986 0.632949 -0.341130
vn 0.694986 -0.632949 0.341131
vn 0.694986 -0.632949 0.341131
vn 0.694986 -0.632949 0.341131
vn 0.694986 -0.632949 0.341131
vn -0.636397 0.632949 0.440879
vn -0.636397 0.632949 0.440879
vn -0.636397 0.632949 0.440879
vn -0.636397 0.632949 0.440879
vn 0.636397 -0.632949 -0.440879
vn 0.636397 -0.632949 -0.440879
vn 0.636397 -0.632949 -0.440879
vn 0.636397 -0.632949 -0.440879
vn -0.155934 0.554090 0.817722
vn -0.155934 0.554090 0.817722
vn -0.155934 0.554090 0.817722
vn -0.155934 0.554090 0.817722
vn -0.097067 -0.000000 -0.995278
vn -0.097067 -0.000000 -0.995278
vn -0.097067 -0.000000 -0.995278
vn -0.097067 -0.000000 -0.995278
vn 0.155934 -0.554090 -0.817721
vn 0.155934 -0.554090 -0.817721
vn 0.155934 -0.554090 -0.817721
vn 0.155934 -0.554090 -0.817721
s off
f 51/101/1 54/104/2 53/103/3 52/102/4
f 54/104/5 56/106/6 55/105/7 53/103/8
f 56/106/9 58/108/10 57/107/11 55/105/12
f 58/108/13 60/110/14 59/109/15 57/107/16
f 60/110/17 62/112/18 61/111/19 59/109/20
f 62/112/21 64/114/22 63/113/23 61/111/24
f 64/114/25 66/116/26 65/115/27 63/113/28
f 66/116/29 68/118/30 67/117/31 65/115/32
f 68/118/33 70/120/34 69/119/35 67/117/36
f 70/120/37 72/122/38 71/121/39 69/119/40
f 72/122/41 74/124/42 73/123/43 71/121/44
f 74/124/45 76/126/46 75/125/47 73/123/48
f 76/126/49 78/128/50 77/127/51 75/125/52
f 78/128/53 80/130/54 79/129/55 77/127/56
f 80/130/57 82/132/58 81/131/59 79/129/60
f 82/132/61 84/134/62 83/133/63 81/131/64
f 84/134/65 86/136/66 85/135/67 83/133/68
f 86/136/69 88/138/70 87/137/71 85/135/72
f 88/138/73 90/140/74 89/139/75 87/137/76
f 90/140/77 92/142/78 91/141/79 89/139/80
f 92/142/81 94/144/82 93/143/83 91/141/84
f 94/144/85 96/146/86 95/145/87 93/143/88
f 96/146/89 98/148/90 97/147/91 95/145/92
f 98/148/93 100/150/94 99/149/95 97/147/96
f 1/51/97 2/52/98 4/53/99 3/54/100
f 3/54/101 4/53/102 6/55/103 5/56/104
f 5/56/105 6/55/106 8/57/107 7/58/108
f 7/58/109 8/57/110 10/59/111 9/60/112
f 9/60/113 10/59/114 12/61/115 11/62/116
f 11/62/117 12/61/118 14/63/119 13/64/120
f 13/64/121 14/63/122 16/65/123 15/66/124
f 15/66/125 16/65/126 18/67/127 17/68/128
f 17/68/129 18/67/130 20/69/131 19/70/132
f 19/70/133 20/69/134 22/71/135 21/72/136
f 21/72/137 22/71/138 24/73/139 23/74/140
f 23/74/141 24/73/142 26/75/143 25/76/144
f 25/76/145 26/75/146 28/77/147 27/78/148
f 27/78/149 28/77/150 30/79/151 29/80/152
f 29/80/153 30/79/154 32/81/155 31/82/156
f 31/82/157 32/81/158 34/83/159 33/84/160
f 33/84/161 34/83/162 36/85/163 35/86/164
f 35/86/165 36/85/166 38/87/167 37/88/168
f 37/88/169 38/87/170 40/89/171 39/90/172
f 39/90/173 40/89/174 42/91/175 41/92/176
f 41/92/177 42/91/178 44/93/179 43/94/180
f 43/94/181 44/93/182 46/95/183 45/96/184
f 45/96/185 46/95/186 48/97/187 47/98/188
f 47/98/189 48/97/190 50/99/191 49/100/192
f 1/2/193 51/101/194 52/102/195 2/1/196
f 2/1/197 52/102/198 53/103/199 4/3/200
f 3/4/201 54/104/202 51/101/203 1/2/204
f 4/3/205 53/103/206 55/105/207 6/5/208
f 5/6/209 56/106/210 54/104/211 3/4/212
f 6/5/213 55/105/214 57/107/215 8/7/216
f 7/8/217 58/108/218 56/106/219 5/6/220
f 8/7/221 57/107/222 59/109/223 10/9/224
f 9/10/225 60/110/226 58/108/227 7/8/228
f 10/9/229 59/109/230 61/111/231 12/11/232
f 11/12/233 62/112/234 60/110/235 9/10/236
f 12/11/237 61/111/238 63/113/239 14/13/240
f 13/14/241 64/114/242 62/112/243 11/12/244
f 14/13/245 63/113/246 65/115/247 16/15/248
f 15/16/249 66/116/250 64/114/251 13/14/252
f 16/15/253 65/115/254 67/117/255 18/17/256
f 17/18/257 68/118/258 66/116/259 15/16/260
f 18/17/261 67/117/262 69/119/263 20/19/264
f 19/20/265 70/120/266 68/118/267 17/18/268
f 20/19/269 69/119/270 71/121/271 22/21/272
f 21/22/273 72/122/274 70/120/275 19/20/276
f 22/21/277 71/121/278 73/123/279 24/23/280
f 23/24/281 74/124/282 72/122/283 21/22/284
f 24/23/285 73/123/286 75/125/287 26/25/288
f 25/26/289 76/126/290 74/124/291 23/24/292
f 26/25/293 75/125/294 77/127/295 28/27/296
f 27/28/297 78/128/298 76/126/299 25/26/300
f 28/27/301 77/127/302 79/129/303 30/29/304
f 29/30/305 80/130/306 78/128/307 27/28/308
f 30/29/309 79/129/310 81/131/311 32/31/312
f 31/32/313 82/132/314 80/130/315 29/30/316
f 32/31/317 81/131/318 83/133/319 34/33/320
f 33/34/321 84/134/322 82/132/323 31/32/324
f 34/33/325 83/133/326 85/135/327 36/35/328
f 35/36/329 86/136/330 84/134/331 33/34/332
f 36/35/333 85/135/334 87/137/335 38/37/336
f 37/38/337 88/138/338 86/136/339 35/36/340
f 38/37/341 87/137/342 89/139/343 40/39/344
f 39/40/345 90/140/346 88/138/347 37/38/348
f 40/39/349 89/139/350 91/141/351 42/41/352
f 41/42/353 92/142/354 90/140/355 39/40/356
f 42/41/357 91/141/358 93/143/359 44/43/360
f 43/44/361 94/144/362 92/142/363 41/42/364
f 44/43/365 93/143/366 95/145/367 46/45/368
f 45/46/369 96/146/370 94/144/371 43/44/372
f 46/45/373 95/145/374 97/147/375 48/47/376
f 47/48/377 98/148/378 96/146/379 45/46/380
f 48/47/381 97/147/382 99/149/383 50/49/384
f 50/49/385 99/149/386 100/150/387 49/50/388
f 49/50/389 100/150/390 98/148/391 47/48/392
