# This file uses centimeters as units for non-parametric coordinates.

v 18.618530 0.000000 -18.618744
v 23.431274 0.000000 -18.618744
v 18.618530 46.293465 -18.618744
v 23.431274 46.293465 -18.618744
v 18.618530 46.293465 -23.431656
v 23.431274 46.293465 -23.431656
v 18.618530 0.000000 -23.431656
v 23.431274 0.000000 -23.431656
v -23.431641 0.000000 -18.618744
v -18.618896 0.000000 -18.618744
v -23.431641 46.293465 -18.618744
v -18.618896 46.293465 -18.618744
v -23.431641 46.293465 -23.431656
v -18.618896 46.293465 -23.431656
v -23.431641 0.000000 -23.431656
v -18.618896 0.000000 -23.431656
v -23.431641 0.000000 23.431671
v -18.618896 0.000000 23.431671
v -23.431641 46.293465 23.431671
v -18.618896 46.293465 23.431671
v -23.431641 46.293465 18.618774
v -18.618896 46.293465 18.618774
v -23.431641 0.000000 18.618774
v -18.618896 0.000000 18.618774
v 18.618530 0.000000 23.431671
v 23.431274 0.000000 23.431671
v 18.618530 46.293465 23.431671
v 23.431274 46.293465 23.431671
v 18.618530 46.293465 18.618774
v 23.431274 46.293465 18.618774
v 18.618530 0.000000 18.618774
v 23.431274 0.000000 18.618774
v -25.586914 28.619974 25.586792
v 25.586670 28.619974 25.586792
v -25.586914 33.887222 25.586792
v 25.586670 33.887222 25.586792
v -25.586914 33.887222 -25.586761
v 25.586670 33.887222 -25.586761
v -25.586914 28.619974 -25.586761
v 25.586670 28.619974 -25.586761
v -26.841675 53.282143 -34.730133
v -26.841675 53.282143 34.730164
v -25.460083 45.563210 32.942474
v -25.460083 45.563210 -32.942459
v 24.669922 45.563210 32.942474
v 26.008667 53.282143 34.730164
v 26.008667 53.282143 -34.730164
v 24.669922 45.563210 -32.942490
v -34.730225 53.282143 24.164001
v 34.729858 53.282143 24.164001
v 32.942383 45.563210 22.920197
v -32.942505 45.563210 22.920197
v 32.942383 45.563210 -25.386063
v 34.730103 53.282143 -26.763641
v -34.730225 53.282143 -26.763641
v -32.942505 45.563210 -25.386063
v 20.298584 33.887222 20.298737
v -20.298828 33.887222 20.298737
v 20.298584 33.887222 -20.298706
v -20.298828 33.887222 -20.298706
v 20.298584 28.619974 -20.298706
v -20.298828 28.619974 -20.298706
v 20.298584 28.619974 20.298737
v -20.298828 28.619974 20.298737
v 20.298584 33.887222 20.298737
v -20.298828 33.887222 20.298737
v 20.298584 33.887222 -20.298706
v -20.298828 33.887222 -20.298706
v 20.298584 33.887222 -20.298706
v -20.298828 33.887222 -20.298706
v 20.298584 33.887222 20.298737
v -20.298828 33.887222 20.298737
v -25.460083 48.968555 32.942474
v -32.942505 48.968555 22.920197
v -32.942505 48.968555 -25.386063
v -25.460083 48.968555 -32.942459
v 24.669922 48.968555 -32.942490
v 32.942383 48.968555 -25.386063
v 32.942261 48.968555 22.920197
v 24.669922 48.968555 32.942474
v -26.841675 49.611546 34.730164
v -34.730225 49.611546 24.164001
v -34.730225 49.611546 -26.763672
v -26.841675 49.611546 -34.730133
v 26.008667 49.611546 -34.730164
v 34.730103 49.611546 -26.763657
v 34.729980 49.611546 24.164001
v 26.008667 49.611546 34.730164
vt 0.080674 0.275740
vt 0.080623 0.275765
vt 0.080529 0.275459
vt 0.080589 0.275433
vt 0.080506 0.275413
vt 0.080566 0.275388
vt 0.080602 0.275722
vt 0.080653 0.275698
vt 0.081095 0.275539
vt 0.081050 0.275561
vt 0.081025 0.275243
vt 0.081078 0.275221
vt 0.080998 0.275204
vt 0.081051 0.275181
vt 0.081026 0.275523
vt 0.081071 0.275501
vt 0.081332 0.275905
vt 0.081283 0.275932
vt 0.081295 0.275639
vt 0.081352 0.275610
vt 0.081261 0.275589
vt 0.081318 0.275561
vt 0.081254 0.275886
vt 0.081302 0.275860
vt 0.080879 0.276151
vt 0.080824 0.276181
vt 0.080754 0.275911
vt 0.080820 0.275878
vt 0.080725 0.275853
vt 0.080791 0.275821
vt 0.080799 0.276129
vt 0.080854 0.276100
vt 0.081408 0.275749
vt 0.080758 0.276092
vt 0.080749 0.276060
vt 0.081412 0.275714
vt 0.080476 0.275491
vt 0.081074 0.275231
vt 0.080489 0.275528
vt 0.081076 0.275270
vt 0.037151 0.350377
vt 0.080914 0.275724
vt 0.081274 0.275566
vt 0.036515 0.350258
vt 0.081274 0.275615
vt 0.037409 0.349821
vt 0.036846 0.349730
vt 0.080912 0.275763
vt 0.036472 0.350150
vt 0.081891 0.275765
vt 0.081888 0.275727
vt 0.036721 0.349769
vt 0.037470 0.349892
vt 0.081483 0.275826
vt 0.081484 0.275858
vt 0.037291 0.350300
vt 0.081412 0.275714
vt 0.080749 0.276060
vt 0.080476 0.275491
vt 0.081074 0.275231
vt 0.081076 0.275270
vt 0.080489 0.275528
vt 0.080758 0.276092
vt 0.081408 0.275749
vt 0.081412 0.275714
vt 0.080749 0.276060
vt 0.080476 0.275491
vt 0.081074 0.275231
vt 0.081076 0.275270
vt 0.080489 0.275528
vt 0.080758 0.276092
vt 0.081408 0.275749
vt 0.037154 0.350401
vt 0.037293 0.350324
vt 0.037471 0.349915
vt 0.037410 0.349844
vt 0.036849 0.349753
vt 0.036725 0.349792
vt 0.036477 0.350173
vt 0.036521 0.350282
vt 0.037153 0.350398
vt 0.037293 0.350320
vt 0.037471 0.349912
vt 0.037410 0.349841
vt 0.036849 0.349750
vt 0.036724 0.349788
vt 0.036476 0.350170
vt 0.036520 0.350278
vt 0.081376 0.275862
vt 0.080968 0.275797
vt 0.081465 0.275616
vt 0.081912 0.275733
vt 0.081376 0.275830
vt 0.080970 0.275761
vt 0.081463 0.275567
vt 0.081908 0.275692
vn 0.000000 0.000000 1.000000
vn 0.000000 0.000000 1.000000
vn 0.000000 0.000000 1.000000
vn 0.000000 0.000000 1.000000
vn 0.000000 1.000000 0.000000
vn 0.000000 1.000000 0.000000
vn 0.000000 1.000000 0.000000
vn 0.000000 1.000000 0.000000
vn 0.000000 0.000000 -1.000000
vn 0.000000 0.000000 -1.000000
vn 0.000000 0.000000 -1.000000
vn 0.000000 0.000000 -1.000000
vn 0.000000 -1.000000 0.000000
vn 0.000000 -1.000000 0.000000
vn 0.000000 -1.000000 0.000000
vn 0.000000 -1.000000 0.000000
vn 1.000000 0.000000 0.000000
vn 1.000000 0.000000 0.000000
vn 1.000000 0.000000 0.000000
vn 1.000000 0.000000 0.000000
vn -1.000000 0.000000 0.000000
vn -1.000000 0.000000 0.000000
vn -1.000000 0.000000 0.000000
vn -1.000000 0.000000 0.000000
vn 0.000000 0.000000 1.000000
vn 0.000000 0.000000 1.000000
vn 0.000000 0.000000 1.000000
vn 0.000000 0.000000 1.000000
vn 0.000000 1.000000 0.000000
vn 0.000000 1.000000 0.000000
vn 0.000000 1.000000 0.000000
vn 0.000000 1.000000 0.000000
vn 0.000000 0.000000 -1.000000
vn 0.000000 0.000000 -1.000000
vn 0.000000 0.000000 -1.000000
vn 0.000000 0.000000 -1.000000
vn 0.000000 -1.000000 0.000000
vn 0.000000 -1.000000 0.000000
vn 0.000000 -1.000000 0.000000
vn 0.000000 -1.000000 0.000000
vn 1.000000 0.000000 0.000000
vn 1.000000 0.000000 0.000000
vn 1.000000 0.000000 0.000000
vn 1.000000 0.000000 0.000000
vn -1.000000 0.000000 0.000000
vn -1.000000 0.000000 0.000000
vn -1.000000 0.000000 0.000000
vn -1.000000 0.000000 0.000000
vn 0.000000 0.000000 1.000000
vn 0.000000 0.000000 1.000000
vn 0.000000 0.000000 1.000000
vn 0.000000 0.000000 1.000000
vn 0.000000 1.000000 0.000000
vn 0.000000 1.000000 0.000000
vn 0.000000 1.000000 0.000000
vn 0.000000 1.000000 0.000000
vn 0.000000 0.000000 -1.000000
vn 0.000000 0.000000 -1.000000
vn 0.000000 0.000000 -1.000000
vn 0.000000 0.000000 -1.000000
vn 0.000000 -1.000000 0.000000
vn 0.000000 -1.000000 0.000000
vn 0.000000 -1.000000 0.000000
vn 0.000000 -1.000000 0.000000
vn 1.000000 0.000000 0.000000
vn 1.000000 0.000000 0.000000
vn 1.000000 0.000000 0.000000
vn 1.000000 0.000000 0.000000
vn -1.000000 0.000000 0.000000
vn -1.000000 0.000000 0.000000
vn -1.000000 0.000000 0.000000
vn -1.000000 0.000000 0.000000
vn 0.000000 0.000000 1.000000
vn 0.000000 0.000000 1.000000
vn 0.000000 0.000000 1.000000
vn 0.000000 0.000000 1.000000
vn 0.000000 1.000000 0.000000
vn 0.000000 1.000000 0.000000
vn 0.000000 1.000000 0.000000
vn 0.000000 1.000000 0.000000
vn 0.000000 0.000000 -1.000000
vn 0.000000 0.000000 -1.000000
vn 0.000000 0.000000 -1.000000
vn 0.000000 0.000000 -1.000000
vn 0.000000 -1.000000 0.000000
vn 0.000000 -1.000000 0.000000
vn 0.000000 -1.000000 0.000000
vn 0.000000 -1.000000 0.000000
vn 1.000000 0.000000 0.000000
vn 1.000000 0.000000 0.000000
vn 1.000000 0.000000 0.000000
vn 1.000000 0.000000 0.000000
vn -1.000000 0.000000 0.000000
vn -1.000000 0.000000 0.000000
vn -1.000000 0.000000 0.000000
vn -1.000000 0.000000 0.000000
vn 0.000000 0.000000 1.000000
vn 0.000000 0.000000 1.000000
vn 0.000000 0.000000 1.000000
vn 0.000000 0.000000 1.000000
vn 0.000000 0.000000 -1.000000
vn 0.000000 0.000000 -1.000000
vn 0.000000 0.000000 -1.000000
vn 0.000000 0.000000 -1.000000
vn 1.000000 0.000000 0.000000
vn 1.000000 0.000000 0.000000
vn 1.000000 0.000000 0.000000
vn 1.000000 0.000000 0.000000
vn -1.000000 0.000000 0.000000
vn -1.000000 0.000000 0.000000
vn -1.000000 0.000000 0.000000
vn -1.000000 0.000000 0.000000
vn 0.000000 -0.508545 0.861036
vn 0.000000 -0.510564 0.859840
vn 0.000000 0.000000 1.000000
vn 0.000000 0.000000 1.000000
vn 0.000000 1.000000 0.000000
vn 0.000000 1.000000 0.000000
vn 0.000000 1.000000 0.000000
vn 0.000000 1.000000 0.000001
vn 0.000000 1.000000 -0.000000
vn 0.000000 1.000000 0.000000
vn 0.000000 1.000000 0.000000
vn 0.000000 1.000000 0.000000
vn -0.000000 0.000000 -1.000000
vn -0.000001 -0.510561 -0.859841
vn -0.000001 -0.508542 -0.861037
vn -0.000000 0.000000 -1.000000
vn 0.000000 -1.000000 0.000000
vn 0.000000 -1.000000 0.000000
vn -0.000000 -1.000000 0.000000
vn 0.000000 -1.000000 0.000000
vn 0.000000 -1.000000 0.000000
vn 0.000000 -1.000000 0.000000
vn 0.000000 -1.000000 0.000000
vn 0.000000 -1.000000 0.000000
vn 0.859952 -0.510375 0.000001
vn 0.863787 -0.503857 0.000001
vn 1.000000 0.000020 0.000002
vn 1.000000 0.000020 0.000002
vn -0.863782 -0.503866 0.000000
vn -0.859947 -0.510384 0.000000
vn -1.000000 -0.000001 0.000000
vn -1.000000 -0.000001 0.000000
vn 0.669686 -0.495961 0.552759
vn 0.657345 -0.522984 0.542573
vn 0.771224 0.000015 0.636564
vn 0.771224 0.000015 0.636564
vn 0.674432 0.000002 -0.738337
vn 0.674432 0.000002 -0.738337
vn 0.581043 -0.507704 -0.636102
vn 0.575559 -0.521255 -0.630099
vn -0.679708 -0.529609 0.507456
vn -0.699376 -0.488101 0.522140
vn -0.801309 0.000000 0.598251
vn -0.801309 0.000000 0.598251
vn -0.710571 0.000001 -0.703625
vn -0.710571 0.000001 -0.703625
vn -0.608965 -0.515314 -0.603004
vn -0.608323 -0.516813 -0.602368
vn 0.000000 1.000000 -0.000000
vn 0.000000 1.000000 -0.000000
vn 0.000000 1.000000 0.000000
vn 0.000000 1.000000 0.000000
vn 0.000000 1.000000 0.000000
vn 0.000000 1.000000 0.000000
vn 0.000000 1.000000 0.000000
vn 0.000000 1.000000 0.000000
vn 0.000000 1.000000 0.000000
vn 0.000000 1.000000 0.000000
vn 0.000000 1.000000 0.000000
vn 0.000000 1.000000 0.000000
vn 0.000000 1.000000 0.000000
vn 0.000000 1.000000 0.000000
vn 0.000000 1.000000 0.000000
vn 0.000000 1.000000 0.000000
vn 0.000000 -1.000000 -0.000000
vn 0.000000 -1.000000 -0.000000
vn 0.000000 -1.000000 0.000000
vn 0.000000 -1.000000 0.000000
vn 0.000000 -1.000000 0.000000
vn 0.000000 -1.000000 0.000000
vn 0.000000 -1.000000 0.000000
vn 0.000000 -1.000000 0.000000
vn 0.000000 -1.000000 0.000000
vn 0.000000 -1.000000 0.000000
vn 0.000000 -1.000000 0.000000
vn 0.000000 -1.000000 0.000000
vn 0.000000 -1.000000 0.000000
vn 0.000000 -1.000000 0.000000
vn 0.000000 -1.000000 0.000000
vn 0.000000 -1.000000 0.000000
vn 0.000000 0.000000 0.000000
vn 0.000000 0.000000 0.000000
vn 0.000000 1.000000 0.000000
vn 0.000000 1.000000 0.000000
vn 0.000000 0.000000 0.000000
vn 0.000000 0.000000 0.000000
vn 0.000000 1.000000 0.000000
vn 0.000000 1.000000 0.000000
vn 0.000000 0.000000 0.000000
vn 0.000000 0.000000 0.000000
vn 0.000000 1.000000 0.000000
vn 0.000000 1.000000 0.000000
vn 0.000000 0.000000 0.000000
vn 0.000000 0.000000 0.000000
vn 0.000000 1.000000 0.000000
vn 0.000000 1.000000 0.000000
vn 0.000000 0.000000 1.000000
vn 0.000000 0.000000 1.000000
vn 0.000000 -1.000000 0.000000
vn 0.000000 -1.000000 0.000000
vn -1.000000 0.000000 0.000000
vn -1.000000 0.000000 0.000000
vn 0.000000 -1.000000 0.000000
vn 0.000000 -1.000000 0.000000
vn 0.000000 0.000000 -1.000000
vn 0.000000 0.000000 -1.000000
vn 0.000000 -1.000000 0.000000
vn 0.000000 -1.000000 0.000000
vn 1.000000 0.000000 0.000000
vn 1.000000 0.000000 0.000000
vn 0.000000 -1.000000 0.000000
vn 0.000000 -1.000000 0.000000
vn -0.738335 -0.388594 0.551231
vn -0.721027 -0.436284 0.538309
vn -0.699376 -0.488101 0.522140
vn -0.679708 -0.529609 0.507456
vn -0.965358 -0.260929 0.000000
vn -0.968178 -0.250264 0.000000
vn -0.859947 -0.510384 0.000000
vn -0.863782 -0.503866 0.000000
vn -0.608323 -0.516813 -0.602368
vn -0.608965 -0.515314 -0.603004
vn -0.641969 -0.428690 -0.635690
vn -0.642537 -0.427000 -0.636252
vn -0.000001 -0.508542 -0.861037
vn -0.000001 -0.510561 -0.859841
vn -0.000001 -0.249945 -0.968260
vn -0.000001 -0.253300 -0.967388
vn 0.575559 -0.521255 -0.630099
vn 0.581043 -0.507704 -0.636102
vn 0.608465 -0.431335 -0.666124
vn 0.613319 -0.415945 -0.671438
vn 0.968181 -0.250250 0.000003
vn 0.965362 -0.260916 0.000003
vn 0.863787 -0.503857 0.000001
vn 0.859952 -0.510375 0.000001
vn 0.697744 -0.425999 0.575915
vn 0.708598 -0.394731 0.584873
vn 0.657345 -0.522984 0.542573
vn 0.669686 -0.495961 0.552759
vn 0.000000 -0.253303 0.967387
vn 0.000000 -0.249947 0.968259
vn 0.000000 -0.510564 0.859840
vn 0.000000 -0.508545 0.861036
vn -0.801309 0.000000 0.598251
vn -0.801309 0.000000 0.598251
vn -0.721027 -0.436284 0.538309
vn -0.738335 -0.388594 0.551231
vn -1.000000 -0.000001 0.000000
vn -0.968178 -0.250264 0.000000
vn -0.965358 -0.260929 0.000000
vn -1.000000 -0.000001 0.000000
vn -0.642537 -0.427000 -0.636252
vn -0.641969 -0.428690 -0.635690
vn -0.710571 0.000001 -0.703625
vn -0.710571 0.000001 -0.703625
vn -0.000001 -0.253300 -0.967388
vn -0.000001 -0.249945 -0.968260
vn -0.000000 0.000000 -1.000000
vn -0.000000 0.000000 -1.000000
vn 0.613319 -0.415945 -0.671438
vn 0.608465 -0.431335 -0.666124
vn 0.674432 0.000002 -0.738337
vn 0.674433 0.000002 -0.738337
vn 1.000000 0.000020 0.000002
vn 0.965362 -0.260916 0.000003
vn 0.968181 -0.250250 0.000003
vn 1.000000 0.000020 0.000002
vn 0.771224 0.000015 0.636564
vn 0.771224 0.000015 0.636564
vn 0.708598 -0.394731 0.584873
vn 0.697744 -0.425999 0.575915
vn 0.000000 0.000000 1.000000
vn 0.000000 -0.249947 0.968259
vn 0.000000 -0.253303 0.967387
vn 0.000000 0.000000 1.000000
s off
f 1/1/1 2/2/2 4/3/3 3/4/4
f 3/4/5 4/3/6 6/5/7 5/6/8
f 5/6/9 6/5/10 8/7/11 7/8/12
f 7/8/13 8/7/14 2/2/15 1/1/16
f 2/2/17 8/7/18 6/5/19 4/3/20
f 7/8/21 1/1/22 3/4/23 5/6/24
f 9/9/25 10/10/26 12/11/27 11/12/28
f 11/12/29 12/11/30 14/13/31 13/14/32
f 13/14/33 14/13/34 16/15/35 15/16/36
f 15/16/37 16/15/38 10/10/39 9/9/40
f 10/10/41 16/15/42 14/13/43 12/11/44
f 15/16/45 9/9/46 11/12/47 13/14/48
f 17/17/49 18/18/50 20/19/51 19/20/52
f 19/20/53 20/19/54 22/21/55 21/22/56
f 21/22/57 22/21/58 24/23/59 23/24/60
f 23/24/61 24/23/62 18/18/63 17/17/64
f 18/18/65 24/23/66 22/21/67 20/19/68
f 23/24/69 17/17/70 19/20/71 21/22/72
f 25/25/73 26/26/74 28/27/75 27/28/76
f 27/28/77 28/27/78 30/29/79 29/30/80
f 29/30/81 30/29/82 32/31/83 31/32/84
f 31/32/85 32/31/86 26/26/87 25/25/88
f 26/26/89 32/31/90 30/29/91 28/27/92
f 31/32/93 25/25/94 27/28/95 29/30/96
f 33/33/97 34/34/98 36/35/99 35/36/100
f 37/38/101 38/37/102 40/39/103 39/40/104
f 34/34/105 40/39/106 38/37/107 36/35/108
f 39/40/109 33/33/110 35/36/111 37/38/112
f 80/42/113 73/43/114 43/45/115 45/48/116
f 50/49/117 54/52/118 47/47/119 41/46/120 55/53/121 49/56/122 42/41/123 46/44/124
f 44/50/125 76/51/126 77/54/127 48/55/128
f 53/89/129 51/90/130 45/48/131 43/45/132 52/91/133 56/92/134 44/50/135 48/55/136
f 78/93/137 79/94/138 51/90/139 53/89/140
f 74/95/141 75/96/142 56/92/143 52/91/144
f 79/94/145 80/42/146 45/48/147 51/90/148
f 53/89/149 48/55/150 77/54/151 78/93/152
f 73/43/153 74/95/154 52/91/155 43/45/156
f 44/50/157 56/92/158 75/96/159 76/51/160
f 35/36/161 36/35/162 57/58/163 58/57/164
f 36/35/165 38/37/166 59/59/167 57/58/168
f 38/37/169 37/38/170 60/60/171 59/59/172
f 37/38/173 35/36/174 58/57/175 60/60/176
f 39/40/177 40/39/178 61/62/179 62/61/180
f 40/39/181 34/34/182 63/63/183 61/62/184
f 34/34/185 33/33/186 64/64/187 63/63/188
f 33/33/189 39/40/190 62/61/191 64/64/192
f 58/57/193 57/58/194 65/66/195 66/65/196
f 57/58/197 59/59/198 67/67/199 65/66/200
f 59/59/201 60/60/202 68/68/203 67/67/204
f 60/60/205 58/57/206 66/65/207 68/68/208
f 62/61/209 61/62/210 69/70/211 70/69/212
f 61/62/213 63/63/214 71/71/215 69/70/216
f 63/63/217 64/64/218 72/72/219 71/71/220
f 64/64/221 62/61/222 70/69/223 72/72/224
f 81/81/225 82/82/226 74/74/227 73/73/228
f 82/82/229 83/83/230 75/75/231 74/74/232
f 76/76/233 75/75/234 83/83/235 84/84/236
f 77/77/237 76/76/238 84/84/239 85/85/240
f 78/78/241 77/77/242 85/85/243 86/86/244
f 86/86/245 87/87/246 79/79/247 78/78/248
f 87/87/249 88/88/250 80/80/251 79/79/252
f 88/88/253 81/81/254 73/73/255 80/80/256
f 42/41/257 49/56/258 82/82/259 81/81/260
f 55/53/261 83/83/262 82/82/263 49/56/264
f 84/84/265 83/83/266 55/53/267 41/46/268
f 85/85/269 84/84/270 41/46/271 47/47/272
f 86/86/273 85/85/274 47/47/275 54/52/276
f 50/49/277 87/87/278 86/86/279 54/52/280
f 50/49/281 46/44/282 88/88/283 87/87/284
f 42/41/285 81/81/286 88/88/287 46/44/288
