# This file uses centimeters as units for non-parametric coordinates.

v 65.058838 0.000000 53.085594
v 65.058838 0.000000 62.325790
v 65.058838 62.497063 53.085594
v 57.184570 62.497063 53.085594
v 57.184570 62.497063 62.325790
v 57.184570 0.000000 53.085594
v 57.184570 0.000000 62.325790
v 65.058838 62.497063 62.325790
v 65.058838 0.000000 -62.325768
v 65.058838 0.000000 -53.085575
v 65.058838 62.497063 -53.085575
v 57.184570 62.497063 -62.325768
v 57.184570 62.497063 -53.085575
v 57.184570 0.000000 -62.325768
v 57.184570 0.000000 -53.085575
v 65.058838 62.497063 -62.325768
v -57.184692 0.000000 -62.325768
v -57.184692 0.000000 -53.085575
v -57.184692 62.497063 -62.325768
v -57.184692 62.497063 -53.085575
v -65.058716 62.497063 -53.085575
v -65.058716 0.000000 -62.325768
v -65.058716 0.000000 -53.085575
v -65.058716 62.497063 -62.325768
v -57.184692 0.000000 53.085594
v -57.184692 0.000000 62.325790
v -57.184692 62.497063 53.085594
v -57.184692 62.497063 62.325790
v -65.058716 62.497063 53.085594
v -65.058716 0.000000 53.085594
v -65.058716 0.000000 62.325790
v -65.058716 62.497063 62.325790
v -66.349365 62.497063 63.376724
v -66.349365 62.497063 -63.376705
v 66.349365 62.497063 -63.376705
v 66.349365 62.497063 63.376724
v 65.650513 75.000000 -62.674557
v 65.650513 75.000000 62.674568
v -65.650513 75.000000 -62.674557
v -65.650513 75.000000 62.674568
v -66.349365 68.594055 -63.376705
v -66.349365 68.594055 63.376724
v 66.349365 68.594055 63.376724
v 66.349365 68.594055 -63.376705
v -65.210327 69.676392 -62.688965
v -65.210327 69.676392 62.688965
v 65.210327 69.676392 62.688965
v 65.210327 69.676392 -62.688965
v -66.349365 70.562637 -63.376705
v -66.349365 70.562637 63.376724
v 66.349365 70.562637 63.376724
v 66.349365 70.562637 -63.376705
v -27.954346 75.000000 62.674568
v -53.968994 75.000000 62.674568
v -42.427490 75.000000 58.561287
v -40.668945 73.145355 63.376724
v -3.910767 75.000000 62.674568
v -15.223999 75.000000 62.674568
v -9.242920 75.000000 60.746590
v -9.556030 73.763535 63.376724
v 20.010132 75.000000 -62.674557
v -19.181274 75.000000 -62.674557
v 1.148193 75.000000 -58.768547
v 1.709717 73.750046 -63.376705
v 65.650513 75.000000 24.740971
v 65.650513 75.000000 46.042000
v 63.047485 75.000000 36.150398
v 66.349365 73.526161 34.831551
vt 0.080717 0.302133
vt 0.080717 0.302133
vt 0.080717 0.302133
vt 0.080717 0.302133
vt 0.080717 0.302133
vt 0.080717 0.302133
vt 0.080717 0.302133
vt 0.080717 0.302133
vt 0.080717 0.302133
vt 0.080717 0.302133
vt 0.080717 0.302133
vt 0.080717 0.302133
vt 0.080717 0.302133
vt 0.080717 0.302133
vt 0.080717 0.302133
vt 0.080717 0.302133
vt 0.080717 0.302133
vt 0.080717 0.302133
vt 0.080717 0.302133
vt 0.080717 0.302133
vt 0.080717 0.302133
vt 0.080717 0.302133
vt 0.080717 0.302133
vt 0.080717 0.302133
vt 0.080717 0.302133
vt 0.080717 0.302133
vt 0.080717 0.302133
vt 0.080717 0.302133
vt 0.080717 0.302133
vt 0.080717 0.302133
vt 0.080717 0.302133
vt 0.080717 0.302133
vt 0.080717 0.302133
vt 0.080717 0.302133
vt 0.080717 0.302133
vt 0.080717 0.302133
vt 0.080717 0.302133
vt 0.080717 0.302133
vt 0.080717 0.302133
vt 0.080717 0.302133
vt 0.080717 0.302133
vt 0.080717 0.302133
vt 0.080717 0.302133
vt 0.080717 0.302133
vt 0.080717 0.302133
vt 0.080717 0.302133
vt 0.080717 0.302133
vt 0.080717 0.302133
vt 0.080717 0.302133
vt 0.080717 0.302133
vt 0.080717 0.302133
vt 0.080717 0.302133
vt 0.080717 0.302133
vt 0.080717 0.302133
vt 0.080717 0.302133
vt 0.080717 0.302133
vt 0.080717 0.302133
vt 0.080717 0.302133
vt 0.080717 0.302133
vt 0.080717 0.302133
vt 0.080717 0.302133
vt 0.080717 0.302133
vt 0.080717 0.302133
vt 0.080717 0.302133
vt 0.080717 0.302133
vt 0.080717 0.302133
vt 0.080717 0.302133
vt 0.080717 0.302133
vt 0.080717 0.302133
vt 0.080717 0.302133
vt 0.080717 0.302133
vt 0.080717 0.302133
vt 0.080717 0.302133
vt 0.080717 0.302133
vt 0.081264 0.327278
vt 0.081264 0.327278
vt 0.081264 0.327278
vt 0.081264 0.327278
vt 0.081264 0.327278
vt 0.081264 0.327278
vt 0.081264 0.327278
vt 0.081264 0.327278
vt 0.081264 0.327278
vt 0.081264 0.327278
vt 0.081264 0.327278
vt 0.081264 0.327278
vt 0.081264 0.327278
vt 0.081264 0.327278
vt 0.081264 0.327278
vt 0.081264 0.327278
vt 0.081264 0.279600
vt 0.081264 0.279600
vt 0.081264 0.279600
vt 0.081264 0.279600
vt 0.081264 0.279600
vt 0.081264 0.279600
vt 0.081264 0.279600
vt 0.081264 0.279600
vt 0.080717 0.302133
vt 0.080717 0.302133
vt 0.080717 0.302133
vt 0.080717 0.302133
vt 0.080717 0.302133
vt 0.080717 0.302133
vt 0.080717 0.302133
vt 0.080717 0.302133
vt 0.080717 0.302133
vt 0.080717 0.302133
vt 0.080717 0.328911
vt 0.080717 0.328911
vt 0.080717 0.328911
vt 0.080717 0.328911
vt 0.080717 0.328911
vt 0.080717 0.328911
vt 0.080717 0.328911
vt 0.080717 0.328911
vt 0.080717 0.328911
vt 0.080717 0.328911
vt 0.080717 0.328911
vt 0.080717 0.328911
vt 0.080717 0.328911
vt 0.080717 0.328911
vt 0.080717 0.328911
vt 0.080717 0.328911
vt 0.080717 0.328911
vt 0.080717 0.328911
vt 0.080717 0.328911
vt 0.080717 0.328911
vt 0.080717 0.328911
vt 0.080717 0.328911
vt 0.080717 0.328911
vt 0.080717 0.328911
vt 0.080717 0.302133
vt 0.080717 0.302133
vt 0.080717 0.302133
vt 0.080717 0.302133
vt 0.080717 0.302133
vt 0.080717 0.302133
vt 0.080717 0.302133
vt 0.080717 0.302133
vt 0.080717 0.302133
vt 0.080717 0.302133
vt 0.080717 0.302133
vt 0.080717 0.302133
vt 0.080717 0.302133
vt 0.080717 0.302133
vt 0.080717 0.302133
vt 0.080717 0.302133
vt 0.080717 0.302133
vt 0.080717 0.302133
vt 0.080717 0.302133
vt 0.080717 0.302133
vn 1.000000 -0.000000 -0.000002
vn 1.000000 -0.000000 -0.000002
vn 1.000000 -0.000000 -0.000002
vn 1.000000 -0.000000 -0.000002
vn -1.000000 0.000000 0.000000
vn -1.000000 0.000000 0.000000
vn -1.000000 0.000000 0.000000
vn -1.000000 0.000000 0.000000
vn 0.000000 -1.000000 0.000000
vn 0.000000 -1.000000 0.000000
vn 0.000000 -1.000000 0.000000
vn 0.000000 -1.000000 0.000000
vn 0.000000 0.000000 1.000000
vn 0.000000 0.000000 1.000000
vn 0.000000 0.000000 1.000000
vn 0.000000 0.000000 1.000000
vn 0.000000 0.000000 -1.000000
vn 0.000000 0.000000 -1.000000
vn 0.000000 0.000000 -1.000000
vn 0.000000 0.000000 -1.000000
vn 1.000000 -0.000000 0.000002
vn 1.000000 -0.000000 0.000002
vn 1.000000 -0.000000 0.000002
vn 1.000000 -0.000000 0.000002
vn -1.000000 0.000000 0.000000
vn -1.000000 0.000000 0.000000
vn -1.000000 0.000000 0.000000
vn -1.000000 0.000000 0.000000
vn 0.000000 -1.000000 0.000000
vn 0.000000 -1.000000 0.000000
vn 0.000000 -1.000000 0.000000
vn 0.000000 -1.000000 0.000000
vn 0.000000 0.000000 1.000000
vn 0.000000 0.000000 1.000000
vn 0.000000 0.000000 1.000000
vn 0.000000 0.000000 1.000000
vn 0.000000 0.000000 -1.000000
vn 0.000000 0.000000 -1.000000
vn 0.000000 0.000000 -1.000000
vn 0.000000 0.000000 -1.000000
vn 1.000000 0.000000 0.000000
vn 1.000000 0.000000 0.000000
vn 1.000000 0.000000 0.000000
vn 1.000000 0.000000 0.000000
vn -1.000000 0.000000 -0.000002
vn -1.000000 0.000000 -0.000002
vn -1.000000 0.000000 -0.000002
vn -1.000000 0.000000 -0.000002
vn 0.000000 -1.000000 0.000000
vn 0.000000 -1.000000 0.000000
vn 0.000000 -1.000000 0.000000
vn 0.000000 -1.000000 0.000000
vn 0.000000 0.000000 1.000000
vn 0.000000 0.000000 1.000000
vn 0.000000 0.000000 1.000000
vn 0.000000 0.000000 1.000000
vn 0.000000 0.000000 -1.000000
vn 0.000000 0.000000 -1.000000
vn 0.000000 0.000000 -1.000000
vn 0.000000 0.000000 -1.000000
vn 1.000000 0.000000 0.000000
vn 1.000000 0.000000 0.000000
vn 1.000000 0.000000 0.000000
vn 1.000000 0.000000 0.000000
vn -1.000000 0.000000 0.000002
vn -1.000000 0.000000 0.000002
vn -1.000000 0.000000 0.000002
vn -1.000000 0.000000 0.000002
vn 0.000000 -1.000000 0.000000
vn 0.000000 -1.000000 0.000000
vn 0.000000 -1.000000 0.000000
vn 0.000000 -1.000000 0.000000
vn 0.000000 0.000000 1.000000
vn 0.000000 0.000000 1.000000
vn 0.000000 0.000000 1.000000
vn 0.000000 0.000000 1.000000
vn 0.000000 0.000000 -1.000000
vn 0.000000 0.000000 -1.000000
vn 0.000000 0.000000 -1.000000
vn 0.000000 0.000000 -1.000000
vn 1.000000 0.000000 0.000000
vn 1.000000 0.000000 0.000000
vn 1.000000 0.000000 0.000000
vn 1.000000 0.000000 0.000000
vn 0.000000 1.000000 0.000000
vn 0.000000 1.000000 0.000000
vn 0.000000 1.000000 0.000000
vn 0.000000 1.000000 0.000000
vn -1.000000 0.000000 0.000000
vn -1.000000 0.000000 0.000000
vn -1.000000 0.000000 0.000000
vn -1.000000 0.000000 0.000000
vn 0.000000 -1.000000 0.000000
vn 0.000000 -1.000000 0.000000
vn 0.000000 -1.000000 0.000000
vn 0.000000 -1.000000 0.000000
vn 0.000000 0.000000 1.000000
vn 0.000000 0.000000 1.000000
vn 0.000000 0.000000 1.000000
vn 0.000000 0.000000 1.000000
vn 0.000000 0.000000 -1.000000
vn 0.000000 0.000000 -1.000000
vn 0.000000 0.000000 -1.000000
vn 0.000000 0.000000 -1.000000
vn -0.566739 0.823898 0.000000
vn -0.566739 0.823898 0.000000
vn -0.566739 0.823898 0.000000
vn -0.566739 0.823898 0.000000
vn 0.000000 0.659664 0.751561
vn 0.000000 0.659664 0.751561
vn 0.000000 0.659664 0.751561
vn 0.000000 0.659664 0.751561
vn 0.566739 0.823898 0.000000
vn 0.566739 0.823898 0.000000
vn 0.566739 0.823898 0.000000
vn 0.566739 0.823898 0.000000
vn 0.000000 0.659664 -0.751561
vn 0.000000 0.659664 -0.751561
vn 0.000000 0.659664 -0.751561
vn 0.000000 0.659664 -0.751561
vn -0.490779 -0.871284 0.000000
vn -0.490779 -0.871284 0.000000
vn -0.490779 -0.871284 0.000000
vn -0.490779 -0.871284 0.000000
vn 0.000000 -0.731192 0.682172
vn 0.000000 -0.731192 0.682172
vn 0.000000 -0.731192 0.682172
vn 0.000000 -0.731192 0.682172
vn 0.490769 -0.871290 0.000000
vn 0.490769 -0.871290 0.000000
vn 0.490769 -0.871290 0.000000
vn 0.490769 -0.871290 0.000000
vn 0.000000 -0.731194 -0.682169
vn 0.000000 -0.731194 -0.682169
vn 0.000000 -0.731194 -0.682169
vn 0.000000 -0.731194 -0.682169
vn -0.977144 0.212581 0.000000
vn -0.977143 0.212581 0.000000
vn -0.977143 0.212581 0.000000
vn -0.977144 0.212581 0.000000
vn 0.000000 0.000000 1.000000
vn 0.000000 0.000000 1.000000
vn 0.000000 0.000000 1.000000
vn 0.000000 0.000000 1.000000
vn 1.000000 0.000022 0.000000
vn 1.000000 0.000022 0.000000
vn 1.000000 0.000022 0.000000
vn 0.000000 0.000000 -1.000000
vn 0.000000 0.000000 -1.000000
vn 0.000000 0.000000 -1.000000
vn -0.084130 0.951469 0.296023
vn -0.084130 0.951469 0.296023
vn -0.084130 0.951469 0.296023
vn 0.085060 0.967368 0.238671
vn 0.085060 0.967368 0.238671
vn 0.085060 0.967368 0.238671
vn -0.111466 0.944742 0.308282
vn -0.111466 0.944742 0.308282
vn -0.111466 0.944742 0.308282
vn 0.106936 0.937289 0.331745
vn 0.106936 0.937289 0.331745
vn 0.106936 0.937289 0.331745
vn 0.036183 0.981441 -0.188322
vn 0.036183 0.981441 -0.188322
vn 0.036183 0.981441 -0.188322
vn -0.040862 0.979487 -0.197322
vn -0.040862 0.979487 -0.197322
vn -0.040862 0.979487 -0.197322
vn 0.334034 0.939475 0.076209
vn 0.334034 0.939475 0.076209
vn 0.334034 0.939475 0.076209
vn 0.279904 0.957198 -0.073658
vn 0.279904 0.957198 -0.073658
vn 0.279904 0.957198 -0.073658
vn 0.000000 1.000000 0.000000
vn 0.000000 1.000000 0.000000
vn 0.000000 1.000000 0.000000
vn 0.000000 1.000000 0.000000
vn 0.000000 1.000000 0.000000
vn 0.000000 1.000000 0.000000
vn 0.000000 1.000000 0.000000
vn 0.000000 1.000000 0.000000
vn 0.000000 1.000000 0.000000
vn 0.000000 1.000000 0.000000
vn 0.000000 1.000000 0.000000
vn 0.000000 1.000000 0.000000
vn 0.000000 1.000000 -0.000000
vn 0.000000 1.000000 -0.000000
vn 0.000000 1.000000 -0.000000
vn 0.000000 1.000000 -0.000000
vn 0.000000 1.000000 -0.000000
vn 0.000000 1.000000 -0.000000
vn 0.000000 1.000000 -0.000000
vn 0.000000 1.000000 -0.000000
vn 0.000000 1.000000 -0.000000
vn 0.000000 1.000000 -0.000000
vn 0.006251 0.298756 -0.954309
vn 0.006251 0.298756 -0.954309
vn 0.006251 0.298756 -0.954309
vn 0.006251 0.298756 -0.954309
vn -0.002668 0.311056 -0.950388
vn -0.002668 0.311057 -0.950388
vn -0.002668 0.311056 -0.950388
vn -0.002668 0.311057 -0.950388
vn -0.013080 0.261360 0.965153
vn -0.013080 0.261360 0.965153
vn -0.013080 0.261360 0.965153
vn -0.013080 0.261360 0.965153
vn -0.005553 0.544007 0.839062
vn -0.005553 0.544007 0.839062
vn -0.005553 0.544007 0.839062
vn -0.005553 0.544007 0.839062
vn 0.002479 0.320816 0.947138
vn 0.002479 0.320816 0.947138
vn 0.002479 0.320816 0.947138
vn 0.002479 0.320816 0.947138
vn 0.959695 0.280727 0.013331
vn 0.959695 0.280727 0.013331
vn 0.959695 0.280727 0.013331
vn 0.959695 0.280727 0.013331
vn 0.952819 0.303519 -0.003508
vn 0.952819 0.303519 -0.003508
vn 0.952819 0.303519 -0.003508
vn 0.952819 0.303519 -0.003508
s off
f 1/1/1 3/4/2 8/3/3 2/2/4
f 4/5/5 6/8/6 7/7/7 5/6/8
f 6/8/9 1/10/10 2/9/11 7/7/12
f 2/2/13 8/3/14 5/12/15 7/11/16
f 6/13/17 4/14/18 3/4/19 1/1/20
f 9/15/21 16/18/22 11/17/23 10/16/24
f 12/19/25 14/22/26 15/21/27 13/20/28
f 14/22/29 9/24/30 10/23/31 15/21/32
f 10/16/33 11/17/34 13/26/35 15/25/36
f 14/27/37 12/28/38 16/18/39 9/15/40
f 17/29/41 19/32/42 20/31/43 18/30/44
f 24/33/45 22/36/46 23/35/47 21/34/48
f 22/36/49 17/38/50 18/37/51 23/35/52
f 18/30/53 20/31/54 21/40/55 23/39/56
f 22/41/57 24/42/58 19/32/59 17/29/60
f 25/43/61 27/46/62 28/45/63 26/44/64
f 29/47/65 30/50/66 31/49/67 32/48/68
f 30/50/69 25/52/70 26/51/71 31/49/72
f 26/44/73 28/45/74 32/54/75 31/53/76
f 30/55/77 29/56/78 27/46/79 25/43/80
f 35/57/81 44/60/82 43/59/83 36/58/84
f 39/61/85 40/64/86 54/63/87 55/62/88
f 41/65/89 34/68/90 33/67/91 42/66/92
f 34/68/93 35/70/94 36/69/95 33/67/96
f 36/58/97 43/59/98 42/72/99 33/71/100
f 34/73/101 41/74/102 44/60/103 35/57/104
f 45/75/105 41/78/106 42/77/107 46/76/108
f 43/79/109 47/82/110 46/81/111 42/80/112
f 44/83/113 48/86/114 47/85/115 43/84/116
f 41/87/117 45/90/118 48/89/119 44/88/120
f 49/91/121 45/94/122 46/93/123 50/92/124
f 47/95/125 51/96/126 50/92/127 46/93/128
f 48/97/129 52/98/130 51/96/131 47/95/132
f 45/94/133 49/91/134 52/98/135 48/97/136
f 39/61/137 49/100/138 50/99/139 40/64/140
f 51/101/141 60/104/142 56/103/143 50/102/144
f 52/105/145 68/106/146 51/101/147
f 49/107/148 64/108/149 52/105/150
f 53/109/151 55/111/152 56/110/153
f 55/112/154 54/114/155 56/113/156
f 57/115/157 59/117/158 60/116/159
f 59/118/160 58/120/161 60/119/162
f 62/121/163 63/123/164 64/122/165
f 63/124/166 61/126/167 64/125/168
f 65/127/169 67/129/170 68/128/171
f 67/130/172 66/132/173 68/131/174
f 63/133/175 59/135/176 67/134/177
f 63/133/178 62/136/179 39/61/180 59/135/181
f 37/137/182 61/139/183 63/133/184 67/134/185 65/138/186
f 59/135/187 57/142/188 38/141/189 66/140/190 67/134/191
f 39/61/192 55/62/193 53/144/194 58/143/195 59/135/196
f 64/108/197 61/145/198 37/137/199 52/105/200
f 49/107/201 39/147/202 62/146/203 64/108/204
f 56/103/205 54/149/206 40/148/207 50/102/208
f 60/104/209 58/151/210 53/150/211 56/103/212
f 51/101/213 38/141/214 57/152/215 60/104/216
f 68/106/217 66/140/218 38/141/219 51/101/220
f 52/105/221 37/137/222 65/138/223 68/106/224
