# This file uses centimeters as units for non-parametric coordinates.

v 6.522433 -0.000011 -6.522418
v -0.000000 -0.000011 -9.224094
v -6.522409 -0.000011 -6.522418
v -9.224094 -0.000011 -0.000000
v -6.522409 -0.000011 6.522419
v -0.000000 -0.000011 9.224094
v 6.522433 -0.000011 6.522420
v 9.224102 -0.000011 -0.000000
v 4.546315 26.149872 -4.546303
v 0.000001 26.149872 -6.429447
v -4.546295 26.149872 -4.546303
v -6.429448 26.149872 -0.000000
v -4.546295 26.149872 4.546301
v 0.000001 26.149872 6.429447
v 4.546315 26.149872 4.546302
v 6.429455 26.149872 -0.000000
v -0.000001 -0.000011 -0.000000
v 7.136847 1.586131 -7.136826
v -0.000001 1.586131 -10.092997
v -7.136818 1.586131 -7.136826
v -10.093002 1.586131 -0.000000
v -7.136818 1.586131 7.136830
v -0.000001 1.586131 10.093001
v 7.136847 1.586131 7.136831
v 10.093014 1.586131 -0.000000
v 7.136847 21.921951 -7.136826
v 10.093014 21.921951 -0.000000
v 7.136847 21.921951 7.136831
v -0.000001 21.921951 10.093004
v -7.136818 21.921951 7.136830
v -10.093002 21.921951 -0.000000
v -7.136818 21.921951 -7.136826
v -0.000001 21.921951 -10.092998
v 6.499418 24.790775 -6.499403
v 9.191553 24.790775 -0.000000
v 6.499418 24.790775 6.499403
v -0.000000 24.790775 9.191545
v -6.499393 24.790775 6.499401
v -9.191545 24.790775 -0.000000
v -6.499393 24.790775 -6.499403
v -0.000000 24.790775 -9.191541
v 5.122659 27.116302 -5.122647
v 0.000001 27.116302 -7.244519
v -5.122638 27.116302 -5.122647
v -7.244521 27.116302 -0.000000
v -5.122638 27.116302 5.122644
v 0.000001 27.116302 7.244520
v 5.122659 27.116302 5.122646
v 7.244530 27.116302 -0.000000
v 4.616402 28.881996 -4.564932
v 0.000001 28.881996 -6.455790
v 0.000001 28.881996 -0.000000
v -4.616380 28.881996 -4.564932
v -6.528564 28.881996 -0.000000
v -4.616380 28.881996 4.564930
v 0.000001 28.881996 6.455792
v 4.616402 28.881996 4.564931
v 6.528572 28.881996 -0.000000
v 7.136847 9.454535 -7.136826
v -0.000001 9.454535 -10.092997
v -0.000001 18.247141 -10.092998
v 7.136847 18.247141 -7.136826
v -7.136818 9.454535 7.136830
v -7.136818 18.247141 7.136830
v -0.000001 9.454535 10.093001
v -0.000001 18.247141 10.093004
v -9.206147 18.247141 2.141048
v -9.206147 9.454535 2.141048
v 4.995792 18.247141 8.023683
v 4.995792 9.454535 8.023682
v 9.206163 18.247141 -2.141048
v 9.206163 9.454535 -2.141048
v -4.995773 18.247141 -8.023678
v -4.995773 9.454535 -8.023678
vt 0.133828 0.301772
vt 0.133828 0.301772
vt 0.133828 0.301772
vt 0.133828 0.301772
vt 0.133828 0.301772
vt 0.133828 0.301772
vt 0.133828 0.301772
vt 0.133828 0.301772
vt 0.133828 0.301772
vt 0.133828 0.301772
vt 0.133828 0.301772
vt 0.133828 0.301772
vt 0.133828 0.301772
vt 0.133828 0.301772
vt 0.133828 0.301772
vt 0.133828 0.301772
vt 0.133828 0.301772
vt 0.091200 0.227941
vt 0.133828 0.301772
vt 0.133828 0.301772
vt 0.133828 0.301772
vt 0.133828 0.301772
vt 0.133828 0.301772
vt 0.133828 0.301772
vt 0.133828 0.301772
vt 0.133828 0.301772
vt 0.133828 0.301772
vt 0.133828 0.301772
vt 0.133828 0.301772
vt 0.133828 0.301772
vt 0.133828 0.301772
vt 0.133828 0.301772
vt 0.133828 0.301772
vt 0.133828 0.301772
vt 0.133828 0.301772
vt 0.133828 0.301772
vt 0.133828 0.301772
vt 0.133828 0.301772
vt 0.133828 0.301772
vt 0.133828 0.301772
vt 0.133828 0.301772
vt 0.133828 0.301772
vt 0.091200 0.227941
vt 0.091200 0.227941
vt 0.091200 0.227941
vt 0.091200 0.227941
vt 0.091200 0.227941
vt 0.091200 0.227941
vt 0.091200 0.227941
vt 0.091200 0.227941
vt 0.091200 0.227941
vt 0.091200 0.227941
vt 0.091200 0.227941
vt 0.091200 0.227941
vt 0.091200 0.227941
vt 0.091200 0.227941
vt 0.091200 0.227941
vt 0.091200 0.227941
vt 0.091200 0.227941
vt 0.091200 0.227941
vt 0.091200 0.227941
vt 0.091200 0.227941
vt 0.091200 0.227941
vt 0.091200 0.227941
vt 0.091200 0.227941
vt 0.091200 0.227941
vt 0.133828 0.301772
vt 0.133828 0.301772
vt 0.133828 0.301772
vt 0.133828 0.301772
vt 0.133828 0.301772
vt 0.133828 0.301772
vt 0.133828 0.301772
vt 0.133828 0.301772
vt 0.133828 0.301772
vt 0.133828 0.301772
vt 0.133828 0.301772
vt 0.133828 0.301772
vt 0.133828 0.301772
vt 0.133828 0.301772
vt 0.133828 0.301772
vt 0.133828 0.301772
vt 0.133828 0.301772
vt 0.133828 0.301772
vt 0.133828 0.301772
vt 0.038881 0.326805
vt 0.038882 0.326805
vt 0.038882 0.326805
vt 0.038881 0.326805
vt 0.038881 0.326805
vt 0.038881 0.326805
vt 0.038881 0.326805
vt 0.038881 0.326805
vt 0.038882 0.326805
vt 0.038882 0.326805
vt 0.038881 0.326805
vt 0.038881 0.326805
vt 0.038882 0.326805
vt 0.038882 0.326805
vt 0.038882 0.326805
vt 0.038882 0.326805
vt 0.133828 0.301772
vt 0.133828 0.301772
vt 0.133828 0.301772
vt 0.133828 0.301772
vt 0.133828 0.301772
vt 0.133828 0.301772
vt 0.133828 0.301772
vt 0.133828 0.301772
vt 0.133828 0.301772
vt 0.133828 0.301772
vt 0.133828 0.301772
vt 0.133828 0.301772
vt 0.133828 0.301772
vt 0.133828 0.301772
vt 0.133828 0.301772
vt 0.133828 0.301772
vt 0.133828 0.301772
vt 0.133828 0.301772
vt 0.133828 0.301772
vt 0.133828 0.301772
vt 0.133828 0.301772
vt 0.133828 0.301772
vt 0.133828 0.301772
vt 0.133828 0.301772
vt 0.133828 0.301772
vt 0.133828 0.301772
vn 0.382682 -0.000000 -0.923880
vn 0.382682 -0.000000 -0.923880
vn 0.382682 -0.000000 -0.923880
vn 0.382682 -0.000000 -0.923880
vn -0.382684 -0.000000 -0.923879
vn -0.382684 -0.000000 -0.923879
vn -0.382684 0.000000 -0.923879
vn -0.382684 0.000000 -0.923879
vn -0.923879 0.000000 -0.382685
vn -0.923879 0.000000 -0.382685
vn -0.923879 0.000000 -0.382685
vn -0.923879 0.000000 -0.382685
vn -0.923879 0.000000 0.382685
vn -0.923879 0.000000 0.382685
vn -0.923879 0.000000 0.382685
vn -0.923879 0.000000 0.382685
vn -0.382684 -0.000000 0.923879
vn -0.382684 -0.000000 0.923879
vn -0.382684 -0.000000 0.923879
vn -0.382684 -0.000000 0.923879
vn 0.382683 -0.000000 0.923880
vn 0.382683 -0.000000 0.923880
vn 0.382682 -0.000000 0.923880
vn 0.382682 -0.000000 0.923880
vn 0.923880 0.000000 0.382683
vn 0.923880 0.000000 0.382683
vn 0.923880 0.000000 0.382683
vn 0.923880 0.000000 0.382683
vn 0.923880 0.000000 -0.382683
vn 0.923880 0.000000 -0.382683
vn 0.923880 0.000000 -0.382683
vn 0.923880 0.000000 -0.382683
vn 0.000000 -1.000000 -0.000000
vn 0.000000 -1.000000 -0.000000
vn 0.000000 -1.000000 -0.000000
vn 0.000000 -1.000000 0.000000
vn 0.000000 -1.000000 0.000000
vn 0.000000 -1.000000 0.000000
vn 0.000000 -1.000000 0.000000
vn 0.000000 -1.000000 0.000000
vn 0.000000 -1.000000 0.000000
vn 0.000000 -1.000000 0.000000
vn 0.000000 -1.000000 0.000000
vn 0.000000 -1.000000 0.000000
vn 0.000000 -1.000000 -0.000000
vn 0.000000 -1.000000 -0.000000
vn 0.000000 -1.000000 -0.000000
vn 0.000000 -1.000000 0.000000
vn 0.000000 -1.000000 0.000000
vn 0.000000 -1.000000 0.000000
vn 0.000000 -1.000000 0.000000
vn 0.000000 -1.000000 0.000000
vn 0.000000 -1.000000 0.000000
vn 0.000000 -1.000000 0.000000
vn 0.000000 -1.000000 0.000000
vn 0.000000 -1.000000 0.000000
vn 0.000000 1.000000 0.000000
vn 0.000000 1.000000 0.000000
vn 0.000000 1.000000 0.000000
vn 0.000000 1.000000 0.000000
vn 0.000000 1.000000 0.000000
vn 0.000000 1.000000 0.000000
vn 0.000000 1.000000 0.000001
vn 0.000000 1.000000 0.000001
vn 0.000000 1.000000 0.000001
vn 0.000000 1.000000 -0.000001
vn 0.000000 1.000000 -0.000001
vn 0.000000 1.000000 -0.000001
vn 0.000000 1.000000 0.000000
vn 0.000000 1.000000 0.000000
vn 0.000000 1.000000 0.000000
vn 0.000000 1.000000 0.000000
vn 0.000000 1.000000 0.000000
vn 0.000000 1.000000 0.000000
vn 0.000000 1.000000 0.000000
vn 0.000000 1.000000 0.000000
vn 0.000000 1.000000 0.000000
vn 0.000000 1.000000 0.000000
vn 0.000000 1.000000 0.000000
vn 0.000000 1.000000 0.000000
vn 0.341443 -0.451570 -0.824319
vn 0.341443 -0.451570 -0.824319
vn 0.341443 -0.451570 -0.824319
vn 0.341443 -0.451570 -0.824319
vn -0.341444 -0.451569 -0.824318
vn -0.341444 -0.451569 -0.824318
vn -0.341444 -0.451569 -0.824318
vn -0.341444 -0.451569 -0.824318
vn -0.824318 -0.451571 -0.341445
vn -0.824318 -0.451571 -0.341445
vn -0.824317 -0.451571 -0.341445
vn -0.824318 -0.451571 -0.341445
vn -0.824317 -0.451571 0.341445
vn -0.824318 -0.451571 0.341445
vn -0.824318 -0.451571 0.341445
vn -0.824317 -0.451571 0.341445
vn -0.341444 -0.451571 0.824318
vn -0.341444 -0.451571 0.824318
vn -0.341444 -0.451571 0.824318
vn -0.341444 -0.451571 0.824318
vn 0.341443 -0.451571 0.824318
vn 0.341443 -0.451571 0.824318
vn 0.341443 -0.451571 0.824318
vn 0.341443 -0.451571 0.824318
vn 0.824317 -0.451573 0.341443
vn 0.824317 -0.451573 0.341443
vn 0.824317 -0.451573 0.341443
vn 0.824317 -0.451573 0.341443
vn 0.824317 -0.451572 -0.341443
vn 0.824317 -0.451572 -0.341443
vn 0.824317 -0.451572 -0.341443
vn 0.824317 -0.451572 -0.341443
vn 0.887248 0.278796 -0.367509
vn 0.887248 0.278796 -0.367509
vn 0.887248 0.278796 -0.367509
vn 0.887248 0.278796 -0.367509
vn 0.887248 0.278797 0.367509
vn 0.887248 0.278797 0.367509
vn 0.887248 0.278797 0.367509
vn 0.887248 0.278797 0.367509
vn 0.367510 0.278796 0.887248
vn 0.367510 0.278796 0.887248
vn 0.367510 0.278796 0.887248
vn 0.367510 0.278796 0.887248
vn -0.367511 0.278796 0.887248
vn -0.367511 0.278796 0.887248
vn -0.367511 0.278796 0.887248
vn -0.367511 0.278796 0.887248
vn -0.887248 0.278796 0.367512
vn -0.887248 0.278796 0.367512
vn -0.887248 0.278796 0.367512
vn -0.887248 0.278796 0.367512
vn -0.887248 0.278795 -0.367512
vn -0.887248 0.278795 -0.367512
vn -0.887248 0.278795 -0.367512
vn -0.887248 0.278795 -0.367512
vn -0.367510 0.278795 -0.887248
vn -0.367510 0.278795 -0.887248
vn -0.367510 0.278795 -0.887248
vn -0.367510 0.278795 -0.887248
vn 0.367509 0.278795 -0.887249
vn 0.367509 0.278795 -0.887249
vn 0.367509 0.278795 -0.887249
vn 0.367509 0.278795 -0.887249
vn 0.434297 0.882624 -0.179892
vn 0.434297 0.882624 -0.179892
vn 0.434297 0.882624 -0.179892
vn 0.434297 0.882624 -0.179892
vn 0.434297 0.882624 0.179892
vn 0.434297 0.882624 0.179892
vn 0.434297 0.882624 0.179892
vn 0.434297 0.882624 0.179892
vn 0.179891 0.882624 0.434297
vn 0.179891 0.882624 0.434297
vn 0.179891 0.882624 0.434297
vn 0.179891 0.882624 0.434297
vn -0.179892 0.882624 0.434297
vn -0.179892 0.882624 0.434297
vn -0.179892 0.882624 0.434297
vn -0.179892 0.882624 0.434297
vn -0.434297 0.882624 0.179892
vn -0.434297 0.882624 0.179892
vn -0.434297 0.882624 0.179892
vn -0.434297 0.882624 0.179892
vn -0.434297 0.882624 -0.179892
vn -0.434297 0.882624 -0.179892
vn -0.434297 0.882624 -0.179892
vn -0.434297 0.882624 -0.179892
vn -0.179892 0.882624 -0.434297
vn -0.179892 0.882624 -0.434297
vn -0.179892 0.882624 -0.434297
vn -0.179892 0.882624 -0.434297
vn 0.179891 0.882624 -0.434297
vn 0.179891 0.882624 -0.434297
vn 0.179891 0.882624 -0.434297
vn 0.179891 0.882624 -0.434297
vn 0.301866 -0.614634 -0.728768
vn 0.301866 -0.614634 -0.728768
vn 0.301866 -0.614634 -0.728768
vn 0.301866 -0.614634 -0.728768
vn -0.301867 -0.614633 -0.728768
vn -0.301867 -0.614633 -0.728768
vn -0.301867 -0.614633 -0.728768
vn -0.301867 -0.614633 -0.728768
vn -0.728768 -0.614633 -0.301868
vn -0.728768 -0.614633 -0.301868
vn -0.728768 -0.614633 -0.301868
vn -0.728768 -0.614633 -0.301868
vn -0.728768 -0.614632 0.301867
vn -0.728768 -0.614632 0.301867
vn -0.728768 -0.614632 0.301867
vn -0.728768 -0.614632 0.301867
vn -0.301867 -0.614632 0.728769
vn -0.301867 -0.614632 0.728769
vn -0.301867 -0.614632 0.728769
vn -0.301867 -0.614632 0.728769
vn 0.301866 -0.614633 0.728768
vn 0.301866 -0.614633 0.728768
vn 0.301866 -0.614633 0.728768
vn 0.301866 -0.614633 0.728768
vn 0.728769 -0.614633 0.301865
vn 0.728769 -0.614633 0.301865
vn 0.728769 -0.614633 0.301865
vn 0.728769 -0.614633 0.301865
vn 0.728769 -0.614633 -0.301865
vn 0.728769 -0.614633 -0.301865
vn 0.728769 -0.614633 -0.301865
vn 0.728769 -0.614633 -0.301865
vn 0.352832 0.377085 -0.856339
vn 0.352832 0.377085 -0.856339
vn 0.352832 0.377085 -0.856339
vn 0.352832 0.377085 -0.856339
vn -0.352834 0.377086 -0.856338
vn -0.352834 0.377086 -0.856338
vn -0.352834 0.377086 -0.856338
vn -0.352834 0.377086 -0.856338
vn -0.862892 0.355395 -0.359322
vn -0.862892 0.355395 -0.359322
vn -0.862891 0.355395 -0.359322
vn -0.862891 0.355395 -0.359322
vn -0.862892 0.355395 0.359322
vn -0.862892 0.355395 0.359322
vn -0.862892 0.355395 0.359322
vn -0.862892 0.355395 0.359322
vn -0.352834 0.377086 0.856338
vn -0.352834 0.377086 0.856338
vn -0.352834 0.377086 0.856338
vn -0.352834 0.377085 0.856338
vn 0.352832 0.377085 0.856339
vn 0.352832 0.377085 0.856339
vn 0.352832 0.377085 0.856339
vn 0.352832 0.377085 0.856339
vn 0.862892 0.355395 0.359320
vn 0.862892 0.355395 0.359320
vn 0.862893 0.355395 0.359320
vn 0.862892 0.355395 0.359320
vn 0.862893 0.355395 -0.359320
vn 0.862892 0.355395 -0.359320
vn 0.862892 0.355395 -0.359320
vn 0.862893 0.355395 -0.359320
vn 0.382682 0.000000 -0.923880
vn 0.382682 0.000000 -0.923880
vn 0.382682 0.000000 -0.923880
vn 0.382682 0.000000 -0.923880
vn 0.382683 0.000000 -0.923880
vn 0.382683 0.000000 -0.923880
vn 0.382683 0.000000 -0.923880
vn 0.382683 0.000000 -0.923880
vn -0.382684 -0.000000 -0.923879
vn -0.382684 -0.000000 -0.923879
vn -0.382684 -0.000000 -0.923879
vn -0.382684 -0.000000 -0.923879
vn -0.382684 0.000000 -0.923879
vn -0.382684 0.000000 -0.923879
vn -0.382684 0.000000 -0.923879
vn -0.382684 0.000000 -0.923879
vn 0.923880 0.000000 -0.382683
vn 0.923880 0.000000 -0.382683
vn 0.923880 0.000000 -0.382683
vn 0.923880 0.000000 -0.382683
vn 0.923880 0.000000 -0.382683
vn 0.923880 0.000000 -0.382683
vn 0.923880 0.000000 -0.382683
vn 0.923880 0.000000 -0.382683
vn -0.923879 0.000000 0.382685
vn -0.923879 0.000000 0.382685
vn -0.923879 0.000000 0.382685
vn -0.923879 0.000000 0.382685
vn -0.923879 -0.000000 0.382685
vn -0.923879 -0.000000 0.382685
vn -0.923879 -0.000000 0.382685
vn -0.923879 -0.000000 0.382685
vn -0.382684 0.000000 0.923879
vn -0.382684 0.000000 0.923879
vn -0.382684 0.000000 0.923879
vn -0.382684 0.000000 0.923879
vn -0.382684 0.000000 0.923879
vn -0.382684 0.000000 0.923879
vn -0.382684 0.000000 0.923879
vn -0.382684 0.000000 0.923879
vn 0.382683 0.000000 0.923880
vn 0.382683 0.000000 0.923880
vn 0.382683 0.000000 0.923880
vn 0.382683 0.000000 0.923880
vn 0.382683 -0.000000 0.923880
vn 0.382683 -0.000000 0.923880
vn 0.382683 -0.000000 0.923880
vn 0.382683 -0.000000 0.923880
vn -0.923879 0.000000 0.382685
vn -0.923879 0.000000 0.382685
vn -0.923879 0.000000 0.382685
vn -0.923879 0.000000 0.382685
vn 0.382683 -0.000000 0.923880
vn 0.382683 -0.000000 0.923880
vn 0.382683 -0.000000 0.923880
vn 0.382683 -0.000000 0.923880
vn 0.923880 0.000000 -0.382683
vn 0.923880 0.000000 -0.382683
vn 0.923880 0.000000 -0.382683
vn 0.923880 0.000000 -0.382683
vn -0.382684 -0.000000 -0.923879
vn -0.382684 -0.000000 -0.923879
vn -0.382684 -0.000000 -0.923879
vn -0.382684 -0.000000 -0.923879
s off
f 59/86/1 60/87/2 61/88/3 62/89/4
f 73/84/5 74/85/6 20/21/7 32/33/8
f 20/21/9 21/22/10 31/32/11 32/33/12
f 67/90/13 68/91/14 63/92/15 64/93/16
f 63/92/17 65/94/18 66/95/19 64/93/20
f 69/76/21 70/78/22 24/25/23 28/70/24
f 24/25/25 25/26/26 27/28/27 28/29/28
f 71/96/29 72/97/30 59/86/31 62/89/32
f 2/2/33 1/1/34 17/17/35
f 3/5/36 2/2/37 17/17/38
f 4/7/39 3/5/40 17/17/41
f 5/9/42 4/7/43 17/17/44
f 6/11/45 5/9/46 17/17/47
f 7/13/48 6/11/49 17/17/50
f 8/15/51 7/13/52 17/17/53
f 1/1/54 8/15/55 17/17/56
f 50/18/57 51/43/58 52/44/59
f 51/43/60 53/45/61 52/44/62
f 53/45/63 54/46/64 52/44/65
f 54/46/66 55/47/67 52/44/68
f 55/47/69 56/48/70 52/44/71
f 56/48/72 57/49/73 52/44/74
f 57/49/75 58/50/76 52/44/77
f 58/50/78 50/18/79 52/44/80
f 1/1/81 2/2/82 19/20/83 18/19/84
f 2/2/85 3/5/86 20/21/87 19/20/88
f 3/5/89 4/7/90 21/22/91 20/21/92
f 4/7/93 5/9/94 22/23/95 21/22/96
f 5/9/97 6/11/98 23/24/99 22/23/100
f 6/11/101 7/13/102 24/25/103 23/24/104
f 7/13/105 8/15/106 25/26/107 24/25/108
f 8/15/109 1/1/110 18/19/111 25/26/112
f 27/28/113 26/27/114 34/35/115 35/36/116
f 28/29/117 27/28/118 35/36/119 36/37/120
f 29/30/121 28/29/122 36/37/123 37/38/124
f 30/31/125 29/30/126 37/38/127 38/39/128
f 31/32/129 30/31/130 38/39/131 39/40/132
f 32/33/133 31/32/134 39/40/135 40/41/136
f 33/34/137 32/33/138 40/41/139 41/42/140
f 26/27/141 33/34/142 41/42/143 34/35/144
f 35/36/145 34/35/146 9/4/147 16/16/148
f 36/37/149 35/36/150 16/16/151 15/14/152
f 37/38/153 36/37/154 15/14/155 14/12/156
f 38/39/157 37/38/158 14/12/159 13/10/160
f 39/40/161 38/39/162 13/10/163 12/8/164
f 40/41/165 39/40/166 12/8/167 11/6/168
f 41/42/169 40/41/170 11/6/171 10/3/172
f 34/35/173 41/42/174 10/3/175 9/4/176
f 9/51/177 10/52/178 43/53/179 42/54/180
f 10/52/181 11/55/182 44/56/183 43/53/184
f 11/55/185 12/57/186 45/58/187 44/56/188
f 12/57/189 13/59/190 46/60/191 45/58/192
f 13/59/193 14/61/194 47/62/195 46/60/196
f 14/61/197 15/63/198 48/64/199 47/62/200
f 15/63/201 16/65/202 49/66/203 48/64/204
f 16/65/205 9/51/206 42/54/207 49/66/208
f 42/54/209 43/53/210 51/43/211 50/18/212
f 43/53/213 44/56/214 53/45/215 51/43/216
f 44/56/217 45/58/218 54/46/219 53/45/220
f 45/58/221 46/60/222 55/47/223 54/46/224
f 46/60/225 47/62/226 56/48/227 55/47/228
f 47/62/229 48/64/230 57/49/231 56/48/232
f 48/64/233 49/66/234 58/50/235 57/49/236
f 49/66/237 42/54/238 50/18/239 58/50/240
f 18/19/241 19/20/242 60/67/243 59/102/244
f 33/34/245 26/27/246 62/103/247 61/68/248
f 19/20/249 20/21/250 74/85/251 60/67/252
f 32/33/253 33/34/254 61/68/255 73/84/256
f 25/104/257 18/105/258 59/106/259 72/83/260
f 26/107/261 27/108/262 71/81/263 62/109/264
f 21/110/265 22/111/266 63/112/267 68/75/268
f 30/113/269 31/114/270 67/73/271 64/69/272
f 22/115/273 23/116/274 65/117/275 63/118/276
f 29/119/277 30/120/278 64/69/279 66/121/280
f 23/122/281 24/123/282 70/79/283 65/71/284
f 28/124/285 29/125/286 66/126/287 69/77/288
f 21/22/289 68/74/290 67/72/291 31/32/292
f 65/94/293 70/98/294 69/99/295 66/95/296
f 25/127/297 72/82/298 71/80/299 27/28/300
f 60/87/301 74/100/302 73/101/303 61/88/304
