# This file uses centimeters as units for non-parametric coordinates.

v 0.854250 -0.588383 -8.986771
v 9.581758 3.420656 -7.053123
v -2.740015 22.904678 2.344418
v 2.151742 22.904678 2.344418
v -2.740015 23.471519 1.037108
v 2.151742 23.471519 1.037108
v 0.854250 -0.021540 -10.294094
v 9.581758 3.987499 -8.360447
v 6.728260 -0.021540 -10.294094
v 6.728260 -0.588383 -8.986771
v -21.395844 0.454712 10.294114
v 21.395844 0.454712 10.294114
v -21.395844 38.251266 0.352418
v 21.395844 38.251266 0.352418
v -21.395844 37.541779 -2.344941
v 21.395844 37.541779 -2.344941
v -21.395844 -0.254777 7.596755
v 21.395844 -0.254777 7.596755
v -18.975655 2.592391 9.731828
v 18.975655 2.592391 9.731828
v 18.975655 36.113590 0.914689
v -18.975655 36.113590 0.914689
v -18.782265 2.570798 8.955363
v 18.782257 2.570798 8.955363
v 18.782257 35.750343 0.228084
v -18.782265 35.750343 0.228084
v -14.131290 7.932253 7.545131
v 14.131283 7.932253 7.545131
v 14.131283 30.388893 1.638317
v -14.131290 30.388893 1.638317
vt 0.079182 0.274830
vt 0.079266 0.274881
vt 0.079371 0.274799
vt 0.079540 0.274240
vt 0.079464 0.274219
vt 0.079517 0.274221
vt 0.079441 0.274200
vt 0.079345 0.274784
vt 0.079239 0.274868
vt 0.079156 0.274817
vt 0.306350 0.256100
vt 0.385413 0.256100
vt 0.385413 0.323225
vt 0.306350 0.323225
vt 0.079316 0.274036
vt 0.080069 0.274203
vt 0.080010 0.274216
vt 0.079261 0.274043
vt 0.079961 0.275036
vt 0.079294 0.274693
vt 0.080014 0.275012
vt 0.079343 0.274678
vt 0.079968 0.274948
vt 0.079372 0.274660
vt 0.080010 0.274242
vt 0.079350 0.274083
vt 0.079950 0.274949
vt 0.079361 0.274662
vt 0.079990 0.274248
vt 0.079338 0.274089
vt 0.101940 0.380657
vt 0.101047 0.380734
vt 0.101155 0.380637
vt 0.101839 0.380581
vt 0.100992 0.380138
vt 0.101127 0.380236
vt 0.101992 0.380077
vt 0.101865 0.380187
vn -0.000000 -0.434429 0.900706
vn -0.000000 -0.434429 0.900706
vn -0.000000 -0.434429 0.900706
vn -0.000000 -0.434429 0.900706
vn -0.000000 -0.434429 0.900706
vn 0.000000 0.917469 0.397808
vn 0.000000 0.917469 0.397808
vn 0.000000 0.917469 0.397808
vn 0.000000 0.917469 0.397808
vn 0.000000 0.434430 -0.900706
vn 0.000000 0.434430 -0.900706
vn 0.000000 0.434430 -0.900706
vn 0.000000 0.434430 -0.900706
vn 0.000000 0.434430 -0.900706
vn 0.000000 -0.917470 -0.397806
vn 0.448733 -0.819911 -0.355506
vn 0.459208 -0.815015 -0.353383
vn 0.000000 -0.917470 -0.397806
vn 0.945686 0.298253 0.129320
vn 0.945686 0.298253 0.129320
vn 0.945686 0.298253 0.129320
vn 0.945686 0.298253 0.129320
vn -0.990624 -0.125345 -0.054348
vn -0.990624 -0.125345 -0.054348
vn -0.990624 -0.125345 -0.054348
vn -0.990624 -0.125345 -0.054348
vn 0.459208 -0.815015 -0.353383
vn 0.448733 -0.819911 -0.355506
vn 0.841655 -0.495448 -0.214822
vn 0.841655 -0.495448 -0.214822
vn 0.000000 0.254379 0.967104
vn 0.000000 0.254379 0.967104
vn 0.000000 0.254379 0.967104
vn 0.000000 0.254379 0.967104
vn 0.000000 0.967105 -0.254378
vn 0.000000 0.967105 -0.254378
vn 0.000000 0.967105 -0.254378
vn 0.000000 0.967105 -0.254378
vn 0.000000 -0.254379 -0.967105
vn 0.000000 -0.254379 -0.967105
vn 0.000000 -0.254379 -0.967105
vn 0.000000 -0.254379 -0.967105
vn 0.000000 -0.967105 0.254378
vn 0.000000 -0.967105 0.254378
vn 0.000000 -0.967105 0.254378
vn 0.000000 -0.967105 0.254378
vn 1.000000 0.000000 0.000000
vn 1.000000 0.000000 0.000000
vn 1.000000 0.000000 0.000000
vn 1.000000 0.000000 0.000000
vn -1.000000 0.000000 0.000000
vn -1.000000 0.000000 0.000000
vn -1.000000 0.000000 0.000000
vn -1.000000 0.000000 0.000000
vn 0.000000 0.254383 0.967104
vn 0.000000 0.254383 0.967104
vn 0.000000 0.254383 0.967104
vn 0.000000 0.254383 0.967104
vn -0.000003 0.254379 0.967105
vn -0.000003 0.254379 0.967105
vn -0.000003 0.254379 0.967105
vn -0.000003 0.254379 0.967105
vn 0.000000 0.254377 0.967105
vn 0.000000 0.254377 0.967105
vn 0.000000 0.254377 0.967105
vn 0.000000 0.254377 0.967105
vn 0.000003 0.254379 0.967105
vn 0.000003 0.254379 0.967105
vn 0.000003 0.254379 0.967105
vn 0.000003 0.254379 0.967105
vn 0.000000 0.999614 -0.027798
vn 0.000000 0.999614 -0.027798
vn 0.000000 0.999614 -0.027798
vn 0.000000 0.999614 -0.027798
vn -0.968835 0.063011 0.239559
vn -0.968835 0.063011 0.239559
vn -0.968835 0.063011 0.239559
vn -0.968835 0.063011 0.239559
vn 0.000000 -0.883922 0.467635
vn 0.000000 -0.883922 0.467635
vn 0.000000 -0.883922 0.467635
vn 0.000000 -0.883922 0.467635
vn 0.968837 0.063009 0.239550
vn 0.968837 0.063009 0.239550
vn 0.968837 0.063009 0.239550
vn 0.968837 0.063009 0.239550
vn 0.000000 0.254379 0.967105
vn 0.000000 0.254379 0.967105
vn 0.000000 0.254379 0.967105
vn 0.000000 0.254379 0.967105
vn 0.000000 0.254380 0.967104
vn 0.000000 0.254379 0.967104
vn 0.000000 0.254380 0.967105
vn 0.000000 0.254380 0.967105
vn 0.000000 0.254379 0.967105
vn 0.000000 0.254379 0.967105
vn 0.000000 0.254379 0.967104
vn 0.000000 0.254379 0.967104
vn -0.000000 0.254379 0.967104
vn -0.000000 0.254380 0.967104
vn -0.000000 0.254380 0.967105
vn -0.000000 0.254380 0.967105
s off
f 1/1/1 10/2/2 2/3/3 4/4/4 3/5/5
f 3/5/6 4/4/7 6/6/8 5/7/9
f 5/7/10 6/6/11 8/8/12 9/9/13 7/10/14
f 7/10/15 9/9/16 10/2/17 1/1/18
f 2/3/19 8/8/20 6/6/21 4/4/22
f 7/10/23 1/1/24 3/5/25 5/7/26
f 10/2/27 9/9/28 8/8/29 2/3/30
f 27/11/31 28/12/32 29/13/33 30/14/34
f 13/15/35 14/16/36 16/17/37 15/18/38
f 15/18/39 16/17/40 18/19/41 17/20/42
f 17/20/43 18/19/44 12/21/45 11/22/46
f 12/21/47 18/19/48 16/17/49 14/16/50
f 17/20/51 11/22/52 13/15/53 15/18/54
f 11/22/55 12/21/56 20/23/57 19/24/58
f 12/21/59 14/16/60 21/25/61 20/23/62
f 14/16/63 13/15/64 22/26/65 21/25/66
f 13/15/67 11/22/68 19/24/69 22/26/70
f 19/24/71 20/23/72 24/27/73 23/28/74
f 20/23/75 21/25/76 25/29/77 24/27/78
f 21/25/79 22/26/80 26/30/81 25/29/82
f 22/26/83 19/24/84 23/28/85 26/30/86
f 23/31/87 24/32/88 28/33/89 27/34/90
f 24/32/91 25/35/92 29/36/93 28/33/94
f 25/35/95 26/37/96 30/38/97 29/36/98
f 26/37/99 23/31/100 27/34/101 30/38/102
