# This file uses centimeters as units for non-parametric coordinates.

v -21.124557 0.907379 -5.833809
v -7.643754 0.907379 9.639786
v -3.804985 0.907379 -24.641800
v 10.591156 0.907379 -12.728237
v -12.818748 0.907379 -11.889710
v -5.355438 0.907379 8.401329
v -29.654329 0.612760 2.641563
v -10.967926 0.612760 2.641563
v -29.654329 0.612760 -27.378325
v -10.967926 0.612760 -27.378325
v 17.665733 0.612760 5.611221
v 29.112595 0.612760 -9.158730
v -7.258507 0.612760 -11.806671
v 8.811234 0.612760 -21.343191
v -45.516190 0.445845 -25.047619
v -37.552628 0.445845 -8.143082
v -39.274979 0.445845 -27.987789
v -23.866920 0.445845 -14.590283
v 34.829437 0.612760 -37.818428
v 16.966507 0.612760 -32.332352
v 31.870852 0.612760 -47.451721
v 15.464622 0.612760 -45.305092
v 9.730499 0.612760 36.247849
v 2.469063 0.612760 21.120216
v -4.422470 0.612760 47.451714
v -14.274864 0.612760 31.573593
v 85.195770 0.612760 40.381470
v 80.937759 0.612760 24.624580
v 61.097168 0.612760 43.970718
v 58.492706 0.612760 26.484167
v 79.442307 2.651407 41.238396
v 69.996078 2.651407 25.529158
v 73.113998 0.406541 10.729317
v 66.953308 0.406541 26.011482
v 69.122070 0.406541 15.285027
v 72.925827 0.406541 30.143951
v 79.508728 0.406541 16.301727
v -82.799011 0.406541 10.797569
v -68.786690 0.406541 3.268120
v -76.983963 0.406541 9.101929
v -71.601486 0.406541 -3.427048
v -85.195778 0.406541 2.661247
vt 0.363029 0.325862
vt 0.388709 0.325862
vt 0.363029 0.357055
vt 0.388709 0.357055
vt 0.363029 0.341546
vt 0.388709 0.330247
vt 0.390193 0.325571
vt 0.415691 0.325571
vt 0.415691 0.357166
vt 0.390193 0.357166
vt 0.390193 0.325571
vt 0.415691 0.325571
vt 0.415691 0.357166
vt 0.390193 0.357166
vt 0.363029 0.325862
vt 0.388709 0.325862
vt 0.388709 0.341582
vt 0.363029 0.333031
vt 0.363029 0.346584
vt 0.388709 0.340533
vt 0.388709 0.357055
vt 0.363029 0.357055
vt 0.390193 0.325571
vt 0.415691 0.325571
vt 0.415691 0.346346
vt 0.390193 0.346399
vt 0.363029 0.325862
vt 0.388709 0.325862
vt 0.388709 0.341109
vt 0.363029 0.334810
vt 0.388709 0.357055
vt 0.363029 0.357055
vt 0.390193 0.329424
vt 0.415691 0.336034
vt 0.415691 0.346346
vt 0.406144 0.346366
vt 0.390193 0.339104
vt 0.390193 0.329424
vt 0.415691 0.336034
vt 0.415691 0.346346
vt 0.406144 0.346366
vt 0.390193 0.339104
vn 0.000000 1.000000 0.000000
vn 0.000000 1.000000 0.000000
vn 0.000000 1.000000 0.000000
vn 0.000000 1.000000 0.000000
vn 0.000000 1.000000 0.000000
vn 0.000000 1.000000 0.000000
vn 0.000000 1.000000 0.000000
vn 0.000000 1.000000 0.000000
vn 0.000000 1.000000 0.000000
vn 0.000000 1.000000 0.000000
vn 0.000000 1.000000 0.000000
vn 0.000000 1.000000 0.000000
vn 0.000000 1.000000 0.000000
vn 0.000000 1.000000 0.000000
vn 0.000000 1.000000 -0.000000
vn 0.000000 1.000000 -0.000000
vn 0.000000 1.000000 -0.000000
vn 0.000000 1.000000 -0.000000
vn 0.000000 1.000000 -0.000000
vn 0.000000 1.000000 -0.000000
vn 0.000000 1.000000 -0.000000
vn 0.000000 1.000000 -0.000000
vn 0.000000 1.000000 0.000000
vn 0.000000 1.000000 0.000000
vn 0.000000 1.000000 0.000000
vn 0.000000 1.000000 0.000000
vn 0.226268 0.969067 -0.098545
vn 0.226268 0.969067 -0.098545
vn -0.047912 0.998760 0.013551
vn 0.039016 0.998995 -0.022047
vn -0.129490 0.990466 0.047007
vn -0.129490 0.990466 0.047007
vn 0.000000 1.000000 0.000000
vn 0.000000 1.000000 0.000000
vn 0.000000 1.000000 0.000000
vn 0.000000 1.000000 0.000000
vn 0.000000 1.000000 0.000000
vn 0.000000 1.000000 0.000000
vn 0.000000 1.000000 0.000000
vn 0.000000 1.000000 0.000000
vn 0.000000 1.000000 0.000000
vn 0.000000 1.000000 0.000000
s 1
f 1/1/1 2/2/2 6/6/3 5/5/4
f 5/5/4 6/6/3 4/4/5 3/3/6
s off
f 7/7/7 8/8/8 10/9/9 9/10/10
f 11/11/11 12/12/12 14/13/13 13/14/14
f 15/15/15 16/16/16 18/17/17 17/18/18
f 21/19/19 22/20/20 20/21/21 19/22/22
f 23/23/23 24/24/24 26/25/25 25/26/26
s 2
f 27/27/27 28/28/28 32/29/29 31/30/30
f 31/30/30 32/29/29 30/31/31 29/32/32
s off
f 36/33/33 37/34/34 33/35/35 35/36/36 34/37/37
f 41/38/38 42/39/39 38/40/40 40/41/41 39/42/42
