# This file uses centimeters as units for non-parametric coordinates.

v -16.373444 27.538294 -23.584167
v -16.479218 27.538294 23.510376
v 16.478943 27.538294 -23.510376
v 16.373383 27.538294 23.584106
v 16.478943 21.631977 -23.510376
v 16.373383 21.631977 23.584106
v -16.479218 21.631987 23.510376
v -16.373444 21.631987 -23.584167
v -15.437073 0.000000 -22.235291
v -15.536713 0.000000 22.165833
v -15.536713 21.631987 22.165833
v -15.437073 21.631987 -22.235291
v 15.536438 21.631977 -22.165771
v 15.436829 21.631977 22.235413
v 15.436829 0.000000 22.235413
v 15.536438 0.000000 -22.165771
v 6.144806 21.631977 22.214233
v -6.244476 21.631977 22.186584
v 6.144806 17.513323 22.214233
v -6.244476 17.513327 22.186584
v -6.145020 21.631977 -22.214600
v 6.244415 21.631977 -22.186462
v -6.145020 17.513327 -22.214600
v 6.244415 17.513317 -22.186462
v -6.240723 17.513327 20.482971
v -6.240723 21.631977 20.482971
v 6.148560 17.513323 20.510681
v 6.148560 21.631977 20.510681
v 6.240662 17.513317 -20.482788
v 6.240662 21.631977 -20.482788
v -6.148865 17.513327 -20.510498
v -6.148865 21.631977 -20.510498
v -7.757751 13.305399 22.183228
v -7.757935 5.172138 22.183228
v 7.658020 5.172138 22.217957
v 7.658020 13.305399 22.217957
vt 0.048683 0.327802
vt 0.048860 0.328007
vt 0.048869 0.327848
vt 0.048686 0.327654
vt 0.048160 0.302056
vt 0.048629 0.302164
vt 0.047882 0.302216
vt 0.047629 0.302079
vt 0.048451 0.327711
vt 0.048611 0.327919
vt 0.048610 0.328083
vt 0.048454 0.327863
vt 0.361325 0.325819
vt 0.324438 0.325819
vt 0.324438 0.355275
vt 0.361325 0.355275
vt 0.048617 0.327700
vt 0.048617 0.327671
vt 0.047883 0.302374
vt 0.047631 0.302183
vt 0.048624 0.302302
vt 0.048160 0.302151
vt 0.048155 0.302155
vt 0.048586 0.302298
vt 0.047896 0.302363
vt 0.047653 0.302185
vt 0.048398 0.302316
vt 0.048123 0.302342
vt 0.047813 0.302176
vt 0.048014 0.302163
vt 0.080879 0.230358
vt 0.080879 0.230698
vt 0.079879 0.230678
vt 0.079879 0.230330
vt 0.083336 0.230976
vt 0.083334 0.231311
vt 0.082336 0.231312
vt 0.082336 0.230973
vt 0.048794 0.327869
vt 0.048792 0.327900
vt 0.048785 0.327892
vt 0.048786 0.327860
vt 0.048690 0.327929
vt 0.048683 0.327920
vt 0.048691 0.327897
vt 0.048683 0.327889
vt 0.048523 0.327693
vt 0.048523 0.327723
vt 0.048529 0.327730
vt 0.048529 0.327700
vt 0.048623 0.327707
vt 0.048624 0.327677
vt 0.048803 0.327928
vt 0.048675 0.328025
vt 0.048800 0.327988
vt 0.048676 0.327965
vn -0.999997 0.000000 -0.002244
vn -0.999997 0.000000 -0.002244
vn -0.999997 0.000000 -0.002244
vn -0.999997 0.000000 -0.002244
vn 0.000000 1.000000 0.000000
vn 0.000000 1.000000 0.000000
vn 0.000000 1.000000 0.000000
vn 0.000000 1.000000 0.000000
vn 0.999997 0.000000 0.002243
vn 0.999997 0.000000 0.002243
vn 0.999997 0.000000 0.002243
vn 0.999997 0.000000 0.002243
vn 0.000000 -1.000000 0.000000
vn 0.000000 -1.000000 0.000000
vn 0.000000 -1.000000 0.000000
vn 0.000000 -1.000000 0.000000
vn -0.002253 0.000000 0.999997
vn -0.002253 0.000000 0.999998
vn -0.002253 0.000000 0.999998
vn -0.002253 0.000000 0.999997
vn 0.002227 0.000000 -0.999997
vn 0.002227 0.000000 -0.999998
vn 0.002227 0.000000 -0.999998
vn 0.002227 0.000000 -0.999997
vn 0.999998 0.000000 0.002241
vn 0.999998 0.000000 0.002241
vn 0.999998 0.000000 0.002241
vn 0.999998 0.000000 0.002241
vn -0.002244 0.000000 0.999997
vn -0.002244 0.000000 0.999997
vn -0.002244 0.000000 0.999997
vn -0.002244 0.000000 0.999997
vn -0.999998 0.000000 -0.002246
vn -0.999998 0.000000 -0.002246
vn -0.999998 0.000000 -0.002246
vn -0.999998 0.000000 -0.002246
vn 0.002246 0.000000 -0.999997
vn 0.002246 0.000000 -0.999997
vn 0.002246 0.000000 -0.999998
vn 0.002246 0.000000 -0.999998
vn 0.000000 -1.000000 -0.000000
vn 0.000000 -1.000000 -0.000000
vn 0.000000 -1.000000 -0.000000
vn 0.000000 -1.000000 -0.000000
vn 0.000000 -1.000000 0.000000
vn 0.000000 -1.000000 0.000000
vn 0.000000 -1.000000 0.000000
vn 0.000000 -1.000000 0.000000
vn -0.000000 -1.000000 0.000002
vn -0.000000 -1.000000 0.000002
vn -0.000000 -1.000000 0.000002
vn -0.000000 -1.000000 0.000002
vn -0.000000 -1.000000 0.000002
vn -0.000000 -1.000000 0.000002
vn -0.000000 -1.000000 -0.000001
vn -0.000000 -1.000000 -0.000001
vn -0.000000 -1.000000 -0.000001
vn -0.000000 -1.000000 -0.000001
vn -0.000000 -1.000000 -0.000001
vn -0.000000 -1.000000 -0.000001
vn -0.002237 0.000000 0.999997
vn -0.002237 0.000000 0.999998
vn -0.002237 0.000000 0.999998
vn -0.002237 0.000000 0.999997
vn 0.002237 0.000000 -0.999997
vn 0.002237 0.000000 -0.999998
vn 0.002237 0.000000 -0.999997
vn 0.002237 0.000000 -0.999997
vn 0.999998 0.000000 0.002203
vn 0.999998 0.000000 0.002203
vn 0.999998 0.000000 0.002203
vn 0.999998 0.000000 0.002203
vn 0.000000 1.000000 0.000000
vn 0.000000 1.000000 0.000000
vn 0.000000 1.000000 0.000000
vn 0.000000 1.000000 0.000000
vn -0.999998 0.000000 -0.002203
vn -0.999998 0.000000 -0.002203
vn -0.999998 0.000000 -0.002203
vn -0.999998 0.000000 -0.002203
vn 0.000000 -1.000000 -0.000000
vn 0.000000 -1.000000 -0.000000
vn 0.000000 -1.000000 -0.000000
vn 0.000000 -1.000000 -0.000000
vn -0.999998 0.000000 -0.002203
vn -0.999998 0.000000 -0.002203
vn -0.999998 0.000000 -0.002203
vn -0.999998 0.000000 -0.002203
vn 0.000001 1.000000 -0.000000
vn 0.000001 1.000000 -0.000000
vn 0.000001 1.000000 -0.000000
vn 0.000001 1.000000 -0.000000
vn 0.999997 0.000000 0.002256
vn 0.999997 0.000000 0.002256
vn 0.999997 0.000000 0.002256
vn 0.999997 0.000000 0.002256
vn 0.000000 -1.000000 0.000001
vn 0.000000 -1.000000 0.000001
vn 0.000000 -1.000000 0.000001
vn 0.000000 -1.000000 0.000001
vn -0.002232 0.000003 0.999998
vn -0.002232 0.000003 0.999998
vn -0.002232 0.000003 0.999998
vn -0.002232 0.000003 0.999998
vn -0.002249 0.000006 0.999997
vn -0.002249 0.000006 0.999997
vn -0.002249 0.000006 0.999997
vn -0.002249 0.000006 0.999998
vn -0.002293 0.000030 0.999997
vn -0.002293 0.000030 0.999997
vn -0.002293 0.000030 0.999997
vn -0.002293 0.000030 0.999997
vn -0.002243 0.000044 0.999997
vn -0.002243 0.000044 0.999998
vn -0.002243 0.000044 0.999997
vn -0.002243 0.000044 0.999997
vn -0.002236 0.000000 0.999998
vn -0.002236 0.000000 0.999998
vn -0.002236 0.000000 0.999998
vn -0.002236 0.000000 0.999998
vn -0.002244 0.000000 0.999997
vn -0.002244 0.000000 0.999997
vn -0.002244 0.000000 0.999998
vn -0.002244 0.000000 0.999997
vn 0.002227 0.000000 -0.999998
vn 0.002227 0.000000 -0.999997
vn 0.002227 0.000000 -0.999998
vn 0.002227 0.000000 -0.999998
vn 0.002252 -0.000000 -0.999997
vn 0.002252 -0.000000 -0.999997
vn 0.002252 -0.000000 -0.999997
vn 0.002252 -0.000000 -0.999997
s off
f 9/1/1 10/2/2 11/3/3 12/4/4
f 1/5/5 2/6/6 4/7/7 3/8/8
f 13/9/9 14/10/10 15/11/11 16/12/12
f 16/12/13 15/11/14 10/2/15 9/1/16
f 34/13/17 35/14/18 36/15/19 33/16/20
f 23/17/21 9/1/22 12/4/23 21/18/24
f 3/8/25 4/7/26 6/19/27 5/20/28
f 7/21/29 6/19/30 4/7/31 2/6/32
f 8/22/33 7/21/34 2/6/35 1/5/36
f 5/20/37 8/22/38 1/5/39 3/8/40
f 7/21/41 8/22/42 12/23/43 11/24/44
f 5/20/45 6/19/46 14/25/47 13/26/48
f 6/19/49 7/21/50 11/24/51 18/27/52 17/28/53 14/25/54
f 8/22/55 5/20/56 13/26/57 22/29/58 21/30/59 12/23/60
f 26/31/61 25/32/62 27/33/63 28/34/64
f 30/35/65 29/36/66 31/37/67 32/38/68
f 18/39/69 20/40/70 25/41/71 26/42/72
f 20/40/73 19/43/74 27/44/75 25/41/76
f 19/43/77 17/45/78 28/46/79 27/44/80
f 17/45/81 18/39/82 26/42/83 28/46/84
f 22/47/85 24/48/86 29/49/87 30/50/88
f 24/48/89 23/17/90 31/51/91 29/49/92
f 23/17/93 21/18/94 32/52/95 31/51/96
f 21/18/97 22/47/98 30/50/99 32/52/100
f 11/3/101 33/53/102 20/40/103 18/39/104
f 10/2/105 15/11/106 35/54/107 34/55/108
f 19/43/109 36/56/110 14/10/111 17/45/112
f 33/53/113 36/56/114 19/43/115 20/40/116
f 10/2/117 34/55/118 33/53/119 11/3/120
f 14/10/121 36/56/122 35/54/123 15/11/124
f 16/12/125 24/48/126 22/47/127 13/9/128
f 16/12/129 9/1/130 23/17/131 24/48/132
