# This file uses centimeters as units for non-parametric coordinates.

v 1.841484 -3.584450 -1.841469
v 0.000000 -3.584450 -2.604265
v -1.841484 -3.584450 -1.841469
v -2.604257 -3.584450 0.000000
v -1.841484 -3.584450 1.841500
v 0.000000 -3.584450 2.604234
v 1.841484 -3.584450 1.841500
v 2.604249 -3.584450 0.000000
v 2.979589 -1.369137 -2.979566
v 0.000000 -1.369137 -4.213752
v -2.979589 -1.369137 -2.979566
v -4.213775 -1.369137 0.000000
v -2.979589 -1.369137 2.979597
v 0.000000 -1.369137 4.213782
v 2.979589 -1.369137 2.979597
v 4.213767 -1.369137 0.000000
v 2.979589 1.369140 -2.979566
v 0.000000 1.369140 -4.213752
v -2.979589 1.369140 -2.979566
v -4.213775 1.369140 0.000000
v -2.979589 1.369140 2.979597
v 0.000000 1.369140 4.213782
v 2.979589 1.369140 2.979597
v 4.213767 1.369140 0.000000
v 1.841484 3.584450 -1.841469
v 0.000000 3.584450 -2.604265
v -1.841484 3.584450 -1.841469
v -2.604257 3.584450 0.000000
v -1.841484 3.584450 1.841500
v 0.000000 3.584450 2.604234
v 1.841484 3.584450 1.841500
v 2.604249 3.584450 0.000000
v 0.000000 -4.430618 0.000000
v 0.000000 4.430622 0.000000
vt 0.103915 0.180730
vt 0.104124 0.180730
vt 0.104192 0.180417
vt 0.103849 0.180429
vt 0.104299 0.180787
vt 0.104471 0.180511
vt 0.104344 0.180874
vt 0.104530 0.180673
vt 0.104216 0.180942
vt 0.104297 0.180812
vt 0.103982 0.180943
vt 0.103898 0.180829
vt 0.103798 0.180877
vt 0.103610 0.180709
vt 0.103778 0.180788
vt 0.103606 0.180543
vt 0.104196 0.180144
vt 0.103844 0.180155
vt 0.104481 0.180230
vt 0.104542 0.180378
vt 0.104304 0.180505
vt 0.103894 0.180520
vt 0.103598 0.180411
vt 0.103595 0.180260
vt 0.104124 0.180016
vt 0.103905 0.180010
vt 0.104310 0.180054
vt 0.104360 0.180107
vt 0.104228 0.180144
vt 0.103981 0.180138
vt 0.103785 0.180093
vt 0.103762 0.180040
vt 0.104047 0.180921
vt 0.104067 0.179975
vt 0.400055 0.493327
vt 0.399073 0.493319
vt 0.399055 0.492477
vt 0.400044 0.492482
vn 0.317740 -0.557325 -0.767092
vn 0.317740 -0.557325 -0.767092
vn 0.317740 -0.557325 -0.767092
vn 0.317740 -0.557325 -0.767092
vn -0.317740 -0.557325 -0.767092
vn -0.317740 -0.557325 -0.767092
vn -0.317740 -0.557325 -0.767092
vn -0.317740 -0.557325 -0.767092
vn -0.767092 -0.557325 -0.317740
vn -0.767092 -0.557325 -0.317740
vn -0.767092 -0.557325 -0.317740
vn -0.767092 -0.557325 -0.317740
vn -0.767092 -0.557325 0.317740
vn -0.767092 -0.557325 0.317740
vn -0.767092 -0.557325 0.317740
vn -0.767092 -0.557325 0.317740
vn -0.317740 -0.557325 0.767092
vn -0.317740 -0.557325 0.767092
vn -0.317740 -0.557325 0.767092
vn -0.317740 -0.557325 0.767092
vn 0.317740 -0.557325 0.767092
vn 0.317740 -0.557325 0.767092
vn 0.317740 -0.557325 0.767092
vn 0.317740 -0.557325 0.767092
vn 0.767092 -0.557325 0.317740
vn 0.767092 -0.557325 0.317740
vn 0.767092 -0.557325 0.317740
vn 0.767092 -0.557325 0.317740
vn 0.767092 -0.557325 -0.317740
vn 0.767092 -0.557325 -0.317740
vn 0.767092 -0.557325 -0.317740
vn 0.767092 -0.557325 -0.317740
vn 0.382683 0.000000 -0.923880
vn 0.382683 0.000000 -0.923880
vn 0.382683 0.000000 -0.923880
vn 0.382683 0.000000 -0.923880
vn -0.382683 0.000000 -0.923880
vn -0.382683 0.000000 -0.923880
vn -0.382683 0.000000 -0.923880
vn -0.382683 0.000000 -0.923880
vn -0.923880 0.000000 -0.382683
vn -0.923880 0.000000 -0.382683
vn -0.923880 0.000000 -0.382683
vn -0.923880 0.000000 -0.382683
vn -0.923880 0.000000 0.382683
vn -0.923880 0.000000 0.382683
vn -0.923880 0.000000 0.382683
vn -0.923880 0.000000 0.382683
vn -0.382683 0.000000 0.923880
vn -0.382683 0.000000 0.923880
vn -0.382683 0.000000 0.923880
vn -0.382683 0.000000 0.923880
vn 0.382683 0.000000 0.923880
vn 0.382683 0.000000 0.923880
vn 0.382683 0.000000 0.923880
vn 0.382683 0.000000 0.923880
vn 0.923880 0.000000 0.382683
vn 0.923880 0.000000 0.382683
vn 0.923880 0.000000 0.382683
vn 0.923880 0.000000 0.382683
vn 0.923879 0.000000 -0.382684
vn 0.923879 0.000000 -0.382684
vn 0.923879 0.000000 -0.382684
vn 0.923879 0.000000 -0.382684
vn 0.317740 0.557325 -0.767092
vn 0.317740 0.557325 -0.767092
vn 0.317740 0.557325 -0.767092
vn 0.317740 0.557325 -0.767092
vn -0.317740 0.557325 -0.767092
vn -0.317740 0.557325 -0.767092
vn -0.317740 0.557325 -0.767092
vn -0.317740 0.557325 -0.767092
vn -0.767092 0.557325 -0.317740
vn -0.767092 0.557325 -0.317740
vn -0.767092 0.557325 -0.317740
vn -0.767092 0.557325 -0.317740
vn -0.767092 0.557325 0.317740
vn -0.767092 0.557325 0.317740
vn -0.767092 0.557325 0.317740
vn -0.767092 0.557325 0.317740
vn -0.317740 0.557325 0.767092
vn -0.317740 0.557325 0.767092
vn -0.317740 0.557325 0.767092
vn -0.317740 0.557325 0.767092
vn 0.317740 0.557325 0.767092
vn 0.317740 0.557325 0.767092
vn 0.317740 0.557325 0.767092
vn 0.317740 0.557325 0.767092
vn 0.767092 0.557325 0.317740
vn 0.767092 0.557325 0.317740
vn 0.767092 0.557325 0.317740
vn 0.767092 0.557325 0.317740
vn 0.767092 0.557325 -0.317740
vn 0.767092 0.557325 -0.317740
vn 0.767092 0.557325 -0.317740
vn 0.767092 0.557325 -0.317740
vn 0.126963 -0.943360 -0.306516
vn 0.126963 -0.943360 -0.306516
vn 0.126963 -0.943360 -0.306516
vn -0.126963 -0.943360 -0.306516
vn -0.126963 -0.943360 -0.306516
vn -0.126963 -0.943360 -0.306516
vn -0.306516 -0.943360 -0.126963
vn -0.306516 -0.943360 -0.126963
vn -0.306516 -0.943360 -0.126963
vn -0.306516 -0.943360 0.126963
vn -0.306516 -0.943360 0.126963
vn -0.306516 -0.943360 0.126963
vn -0.126963 -0.943360 0.306516
vn -0.126963 -0.943360 0.306516
vn -0.126963 -0.943360 0.306516
vn 0.126963 -0.943360 0.306516
vn 0.126963 -0.943360 0.306516
vn 0.126963 -0.943360 0.306516
vn 0.306516 -0.943360 0.126963
vn 0.306516 -0.943360 0.126963
vn 0.306516 -0.943360 0.126963
vn 0.306516 -0.943360 -0.126963
vn 0.306516 -0.943360 -0.126963
vn 0.306516 -0.943360 -0.126963
vn 0.126963 0.943360 -0.306516
vn 0.126963 0.943360 -0.306516
vn 0.126963 0.943360 -0.306516
vn -0.126963 0.943360 -0.306516
vn -0.126963 0.943360 -0.306516
vn -0.126963 0.943360 -0.306516
vn -0.306516 0.943360 -0.126963
vn -0.306516 0.943360 -0.126963
vn -0.306516 0.943360 -0.126963
vn -0.306516 0.943360 0.126963
vn -0.306516 0.943360 0.126963
vn -0.306516 0.943360 0.126963
vn -0.126963 0.943360 0.306516
vn -0.126963 0.943360 0.306516
vn -0.126963 0.943360 0.306516
vn 0.126963 0.943360 0.306516
vn 0.126963 0.943360 0.306516
vn 0.126963 0.943360 0.306516
vn 0.306516 0.943360 0.126963
vn 0.306516 0.943360 0.126963
vn 0.306516 0.943360 0.126963
vn 0.306516 0.943360 -0.126963
vn 0.306516 0.943360 -0.126963
vn 0.306516 0.943360 -0.126963
s off
f 1/1/1 2/2/2 10/3/3 9/4/4
f 2/2/5 3/5/6 11/6/7 10/3/8
f 3/5/9 4/7/10 12/8/11 11/6/12
f 4/7/13 5/9/14 13/10/15 12/8/16
f 5/9/17 6/11/18 14/12/19 13/10/20
f 6/11/21 7/13/22 15/14/23 14/12/24
f 7/13/25 8/15/26 16/16/27 15/14/28
f 8/15/29 1/1/30 9/4/31 16/16/32
f 9/4/33 10/3/34 18/17/35 17/18/36
f 10/3/37 11/6/38 19/19/39 18/17/40
f 11/6/41 12/8/42 20/20/43 19/19/44
f 12/8/45 13/10/46 21/21/47 20/20/48
f 13/10/49 14/12/50 22/22/51 21/21/52
f 14/12/53 15/14/54 23/23/55 22/22/56
f 15/35/57 16/36/58 24/37/59 23/38/60
f 16/16/61 9/4/62 17/18/63 24/24/64
f 17/18/65 18/17/66 26/25/67 25/26/68
f 18/17/69 19/19/70 27/27/71 26/25/72
f 19/19/73 20/20/74 28/28/75 27/27/76
f 20/20/77 21/21/78 29/29/79 28/28/80
f 21/21/81 22/22/82 30/30/83 29/29/84
f 22/22/85 23/23/86 31/31/87 30/30/88
f 23/23/89 24/24/90 32/32/91 31/31/92
f 24/24/93 17/18/94 25/26/95 32/32/96
f 2/2/97 1/1/98 33/33/99
f 3/5/100 2/2/101 33/33/102
f 4/7/103 3/5/104 33/33/105
f 5/9/106 4/7/107 33/33/108
f 6/11/109 5/9/110 33/33/111
f 7/13/112 6/11/113 33/33/114
f 8/15/115 7/13/116 33/33/117
f 1/1/118 8/15/119 33/33/120
f 25/26/121 26/25/122 34/34/123
f 26/25/124 27/27/125 34/34/126
f 27/27/127 28/28/128 34/34/129
f 28/28/130 29/29/131 34/34/132
f 29/29/133 30/30/134 34/34/135
f 30/30/136 31/31/137 34/34/138
f 31/31/139 32/32/140 34/34/141
f 32/32/142 25/26/143 34/34/144
