# This file uses centimeters as units for non-parametric coordinates.

v -12.736572 0.000000 8.208481
v -12.736572 0.000000 -11.742592
v -15.004349 4.784054 -11.742592
v -15.004349 4.784054 11.578979
v 12.736572 0.000000 8.208481
v 15.004364 4.784054 11.578979
v 15.004364 4.784054 -11.742592
v 12.736572 0.000000 -11.742592
v 15.004364 5.876465 10.873718
v 15.004364 5.876465 -11.196625
v -15.004349 5.876465 -11.196625
v -15.004349 5.876465 10.873718
v 10.433960 4.225482 -11.742592
v 10.433960 0.808504 -11.742592
v -10.433960 0.808504 -11.742592
v -10.433960 4.225482 -11.742592
v 10.202484 3.999103 -10.943687
v 10.202484 0.991892 -10.943687
v -10.202484 0.991892 -10.943687
v -10.202484 3.999103 -10.943687
v 12.003479 4.784054 -11.742592
v 10.189240 0.000000 -11.742592
v 10.189240 0.000000 10.132713
v 12.003479 4.784054 13.503212
v 12.003479 7.066666 12.797966
v 12.003479 7.066666 -11.133591
v -12.003479 4.784054 -11.742592
v -12.003479 7.066666 -11.133591
v -12.003479 7.066666 12.797966
v -12.003479 4.784054 13.503212
v -10.189240 0.000000 10.132713
v -10.189240 0.000000 -11.742592
v -13.250626 1.084435 6.825470
v -13.250626 1.084435 -10.039871
v -14.546646 3.818455 6.825470
v -14.546646 3.818455 -10.039871
v 13.250610 1.084435 6.825470
v 14.546631 3.818455 6.825470
v 13.250610 1.084435 -10.039871
v 14.546631 3.818455 -10.039871
v -10.340271 4.007916 -13.206642
v -11.506653 3.961290 -12.827248
v -11.506653 3.961290 -11.599495
v -10.340271 4.007916 -11.220100
v -9.619446 4.036732 -12.213371
v -11.554321 24.552641 -12.885162
v -12.343170 24.521105 -12.628563
v -12.343170 24.521105 -11.798187
v -11.554321 24.552641 -11.541580
v -11.066772 24.572126 -12.213371
v -10.644104 3.661022 -12.213371
v -11.786377 24.796188 -12.213371
vt 0.133552 0.377861
vt 0.134005 0.377742
vt 0.218708 0.282072
vt 0.218695 0.282175
vt 0.218607 0.282173
vt 0.218269 0.282277
vt 0.218908 0.282443
vt 0.219222 0.282307
vt 0.219063 0.282254
vt 0.219078 0.282142
vt 0.134015 0.377783
vt 0.218621 0.282021
vt 0.219243 0.282135
vt 0.218733 0.282064
vt 0.218721 0.282167
vt 0.219102 0.282134
vt 0.219087 0.282244
vt 0.217956 0.230788
vt 0.217945 0.230470
vt 0.218945 0.230676
vt 0.218944 0.231076
vt 0.204275 0.289561
vt 0.198267 0.289561
vt 0.198267 0.316771
vt 0.204275 0.316771
vt 0.218882 0.230994
vt 0.219354 0.231014
vt 0.219322 0.230973
vt 0.133541 0.377915
vt 0.218922 0.230957
vt 0.219444 0.230842
vt 0.219326 0.230873
vt 0.218886 0.230824
vt 0.218925 0.230860
vt 0.134468 0.377890
vt 0.134463 0.377844
vt 0.134023 0.378010
vt 0.134008 0.378076
vt 0.133549 0.377861
vt 0.218684 0.282032
vt 0.218668 0.282186
vt 0.218055 0.230817
vt 0.218333 0.282294
vt 0.133536 0.377888
vt 0.218045 0.230491
vt 0.133958 0.377755
vt 0.133967 0.377772
vt 0.219180 0.282124
vt 0.134536 0.377906
vt 0.134529 0.377887
vt 0.134138 0.378049
vt 0.218845 0.230656
vt 0.218845 0.231047
vt 0.218844 0.282426
vt 0.219161 0.282293
vt 0.134122 0.378082
vt 0.194273 0.219894
vt 0.243449 0.219894
vt 0.243461 0.231402
vt 0.194273 0.231402
vt 0.243461 0.231402
vt 0.243449 0.219894
vt 0.194273 0.219894
vt 0.194273 0.231402
vt 0.219307 0.231148
vt 0.219208 0.231328
vt 0.219152 0.231285
vt 0.219131 0.231179
vt 0.218536 0.231286
vt 0.218573 0.231251
vt 0.218444 0.231104
vt 0.218522 0.231147
vt 0.230626 0.258808
vt 0.233658 0.266248
vt 0.193537 0.266248
vt 0.196569 0.258808
vt 0.136321 0.352218
vt 0.136378 0.352225
vt 0.136432 0.351262
vt 0.136391 0.351258
vt 0.136384 0.352247
vt 0.136436 0.351270
vt 0.136329 0.352253
vt 0.136398 0.351272
vt 0.136291 0.352234
vt 0.136370 0.351264
vt 0.136340 0.352250
vt 0.136406 0.351253
vn 0.000000 -0.575944 0.817489
vn 0.000000 -0.575944 0.817489
vn 0.000000 -0.575944 0.817489
vn 0.000000 -0.575944 0.817489
vn 0.000000 1.000000 0.000000
vn 0.000000 1.000000 0.000000
vn 0.000000 1.000000 0.000000
vn 0.000000 1.000000 0.000000
vn 0.000000 0.000000 -1.000000
vn 0.000000 0.000000 -1.000000
vn 0.000000 0.000000 -1.000000
vn 0.000000 0.000000 -1.000000
vn -0.000000 -1.000000 -0.000000
vn -0.000000 -1.000000 -0.000000
vn -0.000000 -1.000000 -0.000000
vn -0.000000 -1.000000 -0.000000
vn 0.000000 0.257783 -0.966203
vn 0.000000 0.257783 -0.966203
vn 0.000000 0.257783 -0.966203
vn 0.000000 0.257783 -0.966203
vn 0.000000 0.295196 0.955437
vn 0.000000 0.295196 0.955437
vn 0.000000 0.295196 0.955437
vn 0.000000 0.295196 0.955437
vn 0.000000 0.000000 -1.000000
vn 0.000000 0.000000 -1.000000
vn 0.000000 0.000000 -1.000000
vn 0.000000 0.000000 -1.000000
vn 0.000000 0.000000 -1.000000
vn 0.000000 0.000000 -1.000000
vn 0.000000 0.000000 -1.000000
vn 0.000000 0.000000 -1.000000
vn -0.000000 0.000000 -1.000000
vn -0.000000 0.000000 -1.000000
vn -0.000000 0.000000 -1.000000
vn -0.000000 0.000000 -1.000000
vn 0.000000 0.000000 -1.000000
vn 0.000000 0.000000 -1.000000
vn 0.000000 0.000000 -1.000000
vn 0.000000 0.000000 -1.000000
vn -0.960496 0.000000 -0.278295
vn -0.960496 0.000000 -0.278295
vn -0.960496 0.000000 -0.278295
vn -0.960496 0.000000 -0.278295
vn 0.000000 0.974651 -0.223731
vn 0.000000 0.974651 -0.223731
vn 0.000000 0.974651 -0.223731
vn 0.000000 0.974651 -0.223731
vn 0.960496 0.000000 -0.278295
vn 0.960496 0.000000 -0.278295
vn 0.960496 0.000000 -0.278295
vn 0.960496 0.000000 -0.278295
vn 0.000000 -0.962120 -0.272627
vn 0.000000 -0.962120 -0.272627
vn 0.000000 -0.962120 -0.272627
vn 0.000000 -0.962120 -0.272627
vn -0.903615 -0.428345 0.000000
vn -0.903615 -0.428345 0.000000
vn -0.903615 -0.428345 0.000000
vn -0.903615 -0.428345 0.000000
vn 0.903615 -0.428345 0.000000
vn 0.903615 -0.428345 0.000000
vn 0.903615 -0.428345 0.000000
vn 0.903615 -0.428345 0.000000
vn 0.000000 0.000000 -1.000000
vn 0.000000 0.000000 -1.000000
vn 0.000000 0.000000 -1.000000
vn 0.000000 0.000000 -1.000000
vn 0.000000 0.000000 -1.000000
vn 0.000000 0.000000 -1.000000
vn 0.000000 -1.000000 -0.000000
vn 0.000000 -1.000000 -0.000000
vn 0.000000 -1.000000 -0.000000
vn 0.000000 -1.000000 -0.000000
vn 0.440280 -0.635027 0.634739
vn 0.440280 -0.635027 0.634739
vn 0.440280 -0.635027 0.634739
vn 0.440280 -0.635027 0.634739
vn 0.555527 0.320630 0.767194
vn 0.555527 0.320630 0.767194
vn 0.555527 0.320630 0.767194
vn 0.555527 0.320630 0.767194
vn 0.368678 0.929557 0.000000
vn 0.368678 0.929557 0.000000
vn 0.368678 0.929557 0.000000
vn 0.368678 0.929557 0.000000
vn 0.054191 0.323301 -0.944743
vn 0.054191 0.323301 -0.944743
vn 0.054191 0.323301 -0.944743
vn 0.054191 0.323301 -0.944743
vn -0.054191 0.323301 -0.944743
vn -0.054191 0.323301 -0.944743
vn -0.054191 0.323301 -0.944743
vn -0.054191 0.323301 -0.944743
vn -0.368679 0.929557 0.000000
vn -0.368679 0.929557 0.000000
vn -0.368679 0.929557 0.000000
vn -0.368679 0.929557 0.000000
vn -0.555529 0.320629 0.767193
vn -0.555529 0.320629 0.767193
vn -0.555529 0.320629 0.767193
vn -0.555529 0.320629 0.767193
vn -0.440281 -0.635027 0.634739
vn -0.440281 -0.635027 0.634739
vn -0.440281 -0.635027 0.634739
vn -0.440281 -0.635027 0.634739
vn 0.000000 -1.000000 -0.000000
vn 0.000000 -1.000000 -0.000000
vn 0.000000 -1.000000 -0.000000
vn 0.000000 -1.000000 -0.000000
vn 0.000000 0.000000 -1.000000
vn 0.000000 0.000000 -1.000000
vn 0.000000 0.000000 -1.000000
vn 0.000000 0.000000 -1.000000
vn 0.000000 0.000000 -1.000000
vn 0.000000 0.000000 -1.000000
vn -1.000000 0.000001 0.000000
vn -1.000000 0.000001 0.000000
vn -1.000000 0.000001 0.000000
vn -1.000000 0.000001 0.000000
vn 1.000000 0.000000 0.000000
vn 1.000000 0.000000 0.000000
vn 1.000000 0.000000 0.000000
vn 1.000000 0.000000 0.000000
vn -0.903617 -0.428341 0.000000
vn -0.903617 -0.428341 0.000000
vn -0.903617 -0.428341 0.000000
vn -0.903617 -0.428341 0.000000
vn -0.903616 -0.428343 0.000003
vn -0.903616 -0.428343 0.000003
vn -0.903616 -0.428343 0.000003
vn -0.903616 -0.428343 0.000003
vn -0.903624 -0.428326 0.000000
vn -0.903624 -0.428326 0.000000
vn -0.903624 -0.428326 0.000000
vn -0.903624 -0.428326 0.000000
vn -0.903617 -0.428342 -0.000005
vn -0.903617 -0.428342 -0.000005
vn -0.903617 -0.428342 -0.000005
vn -0.903617 -0.428342 -0.000005
vn 0.903617 -0.428342 -0.000004
vn 0.903617 -0.428342 -0.000004
vn 0.903617 -0.428342 -0.000004
vn 0.903617 -0.428342 -0.000004
vn 0.903623 -0.428330 0.000000
vn 0.903623 -0.428330 0.000000
vn 0.903623 -0.428330 0.000000
vn 0.903623 -0.428330 0.000000
vn 0.903616 -0.428343 0.000007
vn 0.903616 -0.428343 0.000007
vn 0.903616 -0.428343 0.000007
vn 0.903616 -0.428343 0.000007
vn 0.903613 -0.428349 0.000000
vn 0.903613 -0.428349 0.000000
vn 0.903613 -0.428349 0.000000
vn 0.903613 -0.428349 0.000000
vn -0.309199 -0.003391 -0.950991
vn -0.309199 -0.003391 -0.950991
vn -0.309199 -0.003391 -0.950991
vn -0.309199 -0.003391 -0.950991
vn -0.999173 -0.040653 0.000000
vn -0.999173 -0.040653 0.000000
vn -0.999173 -0.040653 0.000000
vn -0.999173 -0.040653 0.000000
vn -0.309205 -0.003391 0.950990
vn -0.309205 -0.003391 0.950989
vn -0.309205 -0.003391 0.950990
vn -0.309205 -0.003391 0.950989
vn 0.807236 0.056894 0.587480
vn 0.807236 0.056894 0.587480
vn 0.807236 0.056894 0.587480
vn 0.807236 0.056894 0.587480
vn 0.807236 0.056894 -0.587481
vn 0.807236 0.056894 -0.587480
vn 0.807236 0.056894 -0.587480
vn 0.807236 0.056894 -0.587480
vn -0.076350 -0.933825 -0.349488
vn -0.076350 -0.933825 -0.349488
vn -0.076350 -0.933825 -0.349488
vn -0.328767 -0.944411 0.000000
vn -0.328767 -0.944411 0.000000
vn -0.328767 -0.944411 0.000000
vn -0.076350 -0.933825 0.349489
vn -0.076350 -0.933825 0.349489
vn -0.076350 -0.933825 0.349489
vn 0.336033 -0.916446 0.217275
vn 0.336033 -0.916446 0.217275
vn 0.336033 -0.916446 0.217275
vn 0.336032 -0.916447 -0.217275
vn 0.336032 -0.916447 -0.217275
vn 0.336032 -0.916447 -0.217275
vn -0.161627 0.908563 -0.385215
vn -0.161627 0.908563 -0.385215
vn -0.161627 0.908563 -0.385215
vn -0.442942 0.896550 0.000000
vn -0.442942 0.896550 0.000000
vn -0.442942 0.896550 0.000000
vn -0.161630 0.908562 0.385216
vn -0.161630 0.908562 0.385216
vn -0.161630 0.908562 0.385216
vn 0.288853 0.927692 0.236541
vn 0.288853 0.927692 0.236541
vn 0.288853 0.927692 0.236541
vn 0.288853 0.927691 -0.236544
vn 0.288853 0.927691 -0.236544
vn 0.288853 0.927691 -0.236544
s off
f 23/73/1 24/74/2 30/75/3 31/76/4
f 25/1/5 26/2/6 28/36/7 29/37/8
f 20/25/9 17/22/10 18/23/11 19/24/12
f 22/41/13 23/43/14 31/54/15 32/55/16
f 26/2/17 21/11/18 27/35/19 28/36/20
f 24/29/21 25/1/22 29/37/23 30/38/24
f 7/12/25 8/5/26 14/15/27 13/14/28
f 15/17/29 14/15/30 22/41/31 32/55/32
f 2/8/33 3/13/34 16/16/35 15/17/36
f 21/40/37 13/14/38 16/16/39 27/48/40
f 13/14/41 14/15/42 18/4/43 17/3/44
f 19/9/45 18/4/46 14/15/47 15/17/48
f 15/17/49 16/16/50 20/10/51 19/9/52
f 16/16/53 13/14/54 17/3/55 20/10/56
f 34/57/57 33/58/58 35/59/59 36/60/60
f 38/61/61 37/62/62 39/63/63 40/64/64
f 13/14/65 21/40/66 7/12/67
f 14/15/68 8/5/69 22/41/70
f 8/5/71 5/6/72 23/43/73 22/41/74
f 5/18/75 6/19/76 24/45/77 23/42/78
f 9/39/79 25/1/80 24/29/81 6/44/82
f 9/39/83 10/46/84 26/2/85 25/1/86
f 10/46/87 7/47/88 21/11/89 26/2/90
f 28/36/91 27/35/92 3/49/93 11/50/94
f 29/37/95 28/36/96 11/50/97 12/51/98
f 30/38/99 29/37/100 12/51/101 4/56/102
f 31/53/103 30/52/104 4/20/105 1/21/106
f 32/55/107 31/54/108 1/7/109 2/8/110
f 15/17/111 32/55/112 2/8/113
f 16/16/114 3/13/115 27/48/116
f 3/49/117 4/56/118 12/51/119 11/50/120
f 6/44/121 7/47/122 10/46/123 9/39/124
f 2/26/125 1/27/126 33/28/127 34/30/128
f 1/27/129 4/31/130 35/32/131 33/28/132
f 4/31/133 3/33/134 36/34/135 35/32/136
f 3/33/137 2/26/138 34/30/139 36/34/140
f 6/65/141 5/66/142 37/67/143 38/68/144
f 5/66/145 8/69/146 39/70/147 37/67/148
f 8/69/149 7/71/150 40/72/151 39/70/152
f 7/71/153 6/65/154 38/68/155 40/72/156
f 41/77/157 42/78/158 47/79/159 46/80/160
f 42/78/161 43/81/162 48/82/163 47/79/164
f 43/81/165 44/83/166 49/84/167 48/82/168
f 44/83/169 45/85/170 50/86/171 49/84/172
f 45/85/173 41/77/174 46/80/175 50/86/176
f 42/78/177 41/77/178 51/87/179
f 43/81/180 42/78/181 51/87/182
f 44/83/183 43/81/184 51/87/185
f 45/85/186 44/83/187 51/87/188
f 41/77/189 45/85/190 51/87/191
f 46/80/192 47/79/193 52/88/194
f 47/79/195 48/82/196 52/88/197
f 48/82/198 49/84/199 52/88/200
f 49/84/201 50/86/202 52/88/203
f 50/86/204 46/80/205 52/88/206
