# This file uses centimeters as units for non-parametric coordinates.

v -33.281517 0.000000 -36.436745
v -35.890888 0.000000 -33.827305
v -33.281517 70.954178 -39.684296
v -37.095238 70.954178 -33.827305
v -26.478840 70.954178 -33.827305
v -33.281517 70.954178 -28.948402
v -30.672169 0.000000 -33.827305
v -33.281517 0.000000 -31.218052
v 35.742783 0.000000 -33.806992
v 33.133339 0.000000 -36.416245
v 37.898872 70.954178 -33.806992
v 33.133339 70.954178 -39.415932
v 33.133339 70.954178 -29.031467
v 25.983500 70.954178 -33.806992
v 33.133339 0.000000 -31.197548
v 30.523968 0.000000 -33.806992
v 33.688782 0.000000 36.029625
v 36.298203 0.000000 33.420372
v 33.688786 70.954178 39.123917
v 36.356735 70.954178 33.420372
v 28.930832 70.954178 33.420372
v 33.688786 70.954178 26.770401
v 31.079388 0.000000 33.420372
v 33.688786 0.000000 30.810928
v -36.298061 0.000000 33.256531
v -33.688614 0.000000 35.865974
v -38.379047 70.954178 33.256531
v -33.688614 70.954178 38.685131
v -33.688618 70.954178 26.305008
v -29.271721 70.954178 33.256531
v -33.688614 0.000000 30.647182
v -31.079245 0.000000 33.256531
v 26.034428 70.052040 54.061222
v 44.426132 70.857475 37.411404
v 55.398438 70.857475 13.352013
v 55.398441 70.857475 -13.351917
v 44.426132 70.857475 -37.411308
v 26.034496 70.052040 -54.060841
v -12.943101 70.968750 -59.161854
v -26.034260 70.052040 -54.060841
v -44.425987 70.857475 -37.411308
v -55.398273 70.857475 -13.351917
v -55.398270 70.857475 13.352013
v -44.425987 70.857475 37.411404
v -26.034355 70.052040 54.060936
v -12.943101 70.968750 59.161949
v 26.034428 75.000008 54.061222
v 44.426132 74.194580 37.411404
v 55.398438 74.194580 13.352013
v 55.398441 74.194580 -13.351917
v 44.426132 74.194580 -37.411308
v 26.034496 75.000008 -54.060841
v -12.943101 74.083313 -59.161854
v -26.034260 75.000008 -54.060841
v -44.425987 74.194580 -37.411308
v -55.398273 74.194580 -13.351917
v -55.398270 74.194580 13.352013
v -44.425987 74.194580 37.411404
v -26.034355 75.000008 54.060936
v -12.943101 74.083313 59.161949
v 47.329258 75.000008 -36.545467
v -47.329117 75.000008 -36.545467
v -47.329117 70.052040 -36.545467
v 47.329258 70.052040 -36.545467
v -57.906387 70.052040 -14.581776
v -57.906387 75.000008 -14.581776
v 57.906532 75.000008 -14.581776
v 57.906532 70.052040 -14.581776
v 58.498814 75.000008 -11.879063
v -58.498646 75.000008 -11.879063
v -58.498646 70.052040 -11.879063
v 58.498814 70.052040 -11.879063
v -58.498646 70.052040 11.723043
v -58.498646 75.000008 11.723043
v 58.498810 75.000008 11.723043
v 58.498810 70.052040 11.723043
v 57.711960 75.000008 14.985847
v -57.711914 75.000008 14.985847
v -57.711914 70.052040 14.985847
v 57.711960 70.052040 14.985847
v -47.507523 70.052040 36.175442
v -47.507523 75.000008 36.175442
v 47.507668 75.000008 36.175438
v 47.507668 70.052040 36.175438
v -45.447800 75.000008 -38.579273
v -45.447800 70.052040 -38.579273
v -45.339657 75.000008 38.665485
v -45.339657 70.052040 38.665485
v 45.456341 75.000008 38.572594
v 45.456341 70.052040 38.572594
v 45.436310 75.000008 -38.588428
v 45.436310 70.052040 -38.588428
v 14.743876 70.555984 -58.988762
v 14.743876 74.496040 -58.988762
v 14.743876 70.699219 58.599854
v 14.743876 74.352852 58.599854
vt 0.038141 0.303969
vt 0.038129 0.303985
vt 0.038170 0.303520
vt 0.038205 0.303494
vt 0.038145 0.303467
vt 0.038125 0.303507
vt 0.038105 0.303975
vt 0.038118 0.303959
vt 0.037989 0.303647
vt 0.038010 0.303655
vt 0.038056 0.303190
vt 0.038008 0.303175
vt 0.037984 0.303200
vt 0.038031 0.303226
vt 0.037998 0.303669
vt 0.037977 0.303661
vt 0.037540 0.303730
vt 0.037554 0.303715
vt 0.037537 0.303250
vt 0.037500 0.303268
vt 0.037548 0.303283
vt 0.037589 0.303255
vt 0.037575 0.303724
vt 0.037561 0.303739
vt 0.037662 0.304071
vt 0.037639 0.304060
vt 0.037608 0.303591
vt 0.037659 0.303609
vt 0.037704 0.303576
vt 0.037643 0.303562
vt 0.037654 0.304043
vt 0.037676 0.304054
vt 0.037486 0.327743
vt 0.037488 0.327793
vt 0.037497 0.327788
vt 0.037496 0.327755
vt 0.037500 0.327732
vt 0.037502 0.327782
vt 0.037635 0.327718
vt 0.037635 0.327668
vt 0.037656 0.327662
vt 0.037657 0.327712
vt 0.037819 0.327689
vt 0.037819 0.327639
vt 0.037839 0.327639
vt 0.037838 0.327688
vt 0.038007 0.327710
vt 0.038010 0.327661
vt 0.038027 0.327666
vt 0.038025 0.327716
vt 0.038171 0.327782
vt 0.038175 0.327732
vt 0.038231 0.327821
vt 0.038235 0.327781
vt 0.038298 0.327941
vt 0.038292 0.328019
vt 0.038298 0.327968
vt 0.038301 0.327910
vt 0.038230 0.328083
vt 0.038225 0.328134
vt 0.038215 0.328122
vt 0.038218 0.328088
vt 0.038219 0.328095
vt 0.038215 0.328146
vt 0.038071 0.328230
vt 0.038075 0.328178
vt 0.038055 0.328185
vt 0.038052 0.328236
vt 0.037867 0.328267
vt 0.037868 0.328215
vt 0.037840 0.328215
vt 0.037839 0.328267
vt 0.037652 0.328239
vt 0.037651 0.328187
vt 0.037627 0.328179
vt 0.037628 0.328230
vt 0.037476 0.328148
vt 0.037474 0.328097
vt 0.037417 0.328078
vt 0.037415 0.328046
vt 0.037383 0.327946
vt 0.037381 0.327909
vt 0.038021 0.327680
vt 0.037636 0.328181
vt 0.037637 0.328215
vt 0.038019 0.327713
vt 0.038057 0.328209
vt 0.038059 0.328175
vt 0.037835 0.327658
vt 0.037834 0.327692
vt 0.037847 0.328244
vt 0.037848 0.328209
vt 0.037650 0.327685
vt 0.037650 0.327718
vt 0.037402 0.327895
vt 0.037399 0.327845
vn -0.796568 -0.016656 -0.604319
vn -0.796568 -0.016656 -0.604319
vn -0.796568 -0.016656 -0.604319
vn -0.796568 -0.016656 -0.604319
vn 0.622396 -0.025000 0.782303
vn 0.622396 -0.025000 0.782303
vn 0.622396 -0.025000 0.782303
vn 0.622396 -0.025000 0.782303
vn 0.000000 -1.000000 0.000000
vn 0.000000 -1.000000 0.000000
vn 0.000000 -1.000000 0.000000
vn 0.000000 -1.000000 0.000000
vn -0.758952 -0.013633 0.651004
vn -0.758952 -0.013633 0.651004
vn -0.758952 -0.013633 0.651004
vn -0.758952 -0.013633 0.651004
vn 0.668477 -0.029737 -0.743138
vn 0.668477 -0.029737 -0.743138
vn 0.668477 -0.029737 -0.743138
vn 0.668477 -0.029737 -0.743138
vn 0.744100 -0.020564 -0.667752
vn 0.744100 -0.020564 -0.667752
vn 0.744100 -0.020564 -0.667752
vn 0.744100 -0.020564 -0.667752
vn -0.603227 -0.025457 0.797163
vn -0.603227 -0.025457 0.797163
vn -0.603227 -0.025457 0.797163
vn -0.603227 -0.025457 0.797163
vn 0.000000 -1.000000 0.000000
vn 0.000000 -1.000000 0.000000
vn 0.000000 -1.000000 0.000000
vn 0.000000 -1.000000 0.000000
vn -0.643847 -0.029739 -0.764576
vn -0.643847 -0.029739 -0.764576
vn -0.643847 -0.029739 -0.764576
vn -0.643847 -0.029739 -0.764576
vn 0.707478 -0.017420 0.706521
vn 0.707478 -0.017420 0.706521
vn 0.707478 -0.017420 0.706521
vn 0.707478 -0.017420 0.706521
vn 0.844200 -0.009735 0.535940
vn 0.844200 -0.009735 0.535940
vn 0.844200 -0.009735 0.535940
vn 0.844200 -0.009735 0.535940
vn -0.782299 -0.023918 -0.622444
vn -0.782299 -0.023918 -0.622444
vn -0.782299 -0.023918 -0.622444
vn -0.782299 -0.023918 -0.622444
vn 0.000000 -1.000000 0.000000
vn 0.000000 -1.000000 0.000000
vn 0.000000 -1.000000 0.000000
vn 0.000000 -1.000000 0.000000
vn 0.868738 -0.011694 -0.495134
vn 0.868738 -0.011694 -0.495134
vn 0.868738 -0.011694 -0.495134
vn 0.868738 -0.011694 -0.495134
vn -0.748220 -0.020861 0.663122
vn -0.748220 -0.020861 0.663122
vn -0.748220 -0.020861 0.663122
vn -0.748220 -0.020861 0.663122
vn -0.740139 -0.019582 0.672169
vn -0.740139 -0.019582 0.672169
vn -0.740139 -0.019582 0.672169
vn -0.740139 -0.019582 0.672169
vn 0.805591 -0.022955 -0.592027
vn 0.805591 -0.022955 -0.592027
vn 0.805591 -0.022955 -0.592027
vn 0.805591 -0.022955 -0.592027
vn 0.000000 -1.000000 0.000000
vn 0.000000 -1.000000 0.000000
vn 0.000000 -1.000000 0.000000
vn 0.000000 -1.000000 0.000000
vn 0.752776 -0.018331 0.658021
vn 0.752776 -0.018331 0.658021
vn 0.752776 -0.018331 0.658021
vn 0.752776 -0.018331 0.658021
vn -0.794577 -0.024443 -0.606672
vn -0.794577 -0.024443 -0.606672
vn -0.794577 -0.024443 -0.606672
vn -0.794577 -0.024443 -0.606672
vn 0.748035 0.000000 -0.663659
vn 0.748035 0.000000 -0.663659
vn 0.748035 0.000000 -0.663659
vn 0.748035 0.000000 -0.663659
vn 0.900970 0.000000 0.433881
vn 0.900970 0.000000 0.433881
vn 0.900970 0.000000 0.433881
vn 0.900970 0.000000 0.433881
vn 1.000000 0.000000 0.000000
vn 1.000000 0.000000 0.000000
vn 1.000000 0.000000 0.000000
vn 1.000000 0.000000 0.000000
vn 0.900967 0.000000 -0.433888
vn 0.900967 0.000000 -0.433888
vn 0.900967 0.000000 -0.433888
vn 0.900967 0.000000 -0.433888
vn 0.623489 0.000000 -0.781832
vn 0.623489 0.000000 -0.781832
vn 0.623489 0.000000 -0.781832
vn 0.623489 0.000000 -0.781832
vn 0.400020 0.000000 -0.916507
vn 0.400019 0.000000 -0.916507
vn 0.400020 0.000000 -0.916507
vn 0.400020 0.000000 -0.916507
vn -0.363065 0.000000 -0.931764
vn -0.363065 0.000000 -0.931764
vn -0.363065 0.000000 -0.931764
vn -0.363065 0.000000 -0.931764
vn -0.752627 0.000000 0.658447
vn -0.752627 0.000000 0.658447
vn -0.752627 0.000000 0.658447
vn -0.752627 0.000000 0.658447
vn -0.900967 0.000000 -0.433888
vn -0.900967 0.000000 -0.433888
vn -0.900967 0.000000 -0.433888
vn -0.900967 0.000000 -0.433888
vn -1.000000 0.000000 0.000000
vn -1.000000 0.000000 0.000000
vn -1.000000 0.000000 0.000000
vn -1.000000 0.000000 0.000000
vn -0.900968 0.000000 0.433885
vn -0.900968 0.000000 0.433885
vn -0.900968 0.000000 0.433885
vn -0.900968 0.000000 0.433885
vn -0.623490 0.000000 0.781832
vn -0.623490 0.000000 0.781832
vn -0.623490 0.000000 0.781832
vn -0.623490 0.000000 0.781832
vn -0.363062 0.000000 0.931765
vn -0.363062 0.000000 0.931765
vn -0.363062 0.000000 0.931765
vn -0.363062 0.000000 0.931765
vn 0.020298 0.000000 0.999794
vn 0.020298 0.000000 0.999794
vn 0.020298 0.000000 0.999794
vn 0.020298 0.000000 0.999794
vn 0.000000 -1.000000 0.000000
vn 0.000000 -1.000000 0.000000
vn 0.000000 -1.000000 0.000000
vn 0.000000 -1.000000 0.000000
vn 0.000000 1.000000 0.000000
vn 0.000000 1.000000 0.000000
vn 0.000000 1.000000 0.000000
vn 0.000000 1.000000 0.000000
vn 0.000036 0.710783 0.703411
vn 0.000036 0.710783 0.703411
vn 0.000036 0.710783 0.703411
vn 0.000036 0.710783 0.703411
vn 0.000000 1.000000 0.000000
vn 0.000000 1.000000 0.000000
vn 0.000000 1.000000 0.000000
vn 0.000000 1.000000 0.000000
vn -0.000358 0.721084 -0.692848
vn -0.000358 0.721084 -0.692848
vn -0.000358 0.721084 -0.692848
vn -0.000358 0.721084 -0.692848
vn 0.000000 1.000000 -0.000000
vn 0.000000 1.000000 -0.000000
vn 0.000000 1.000000 -0.000000
vn 0.000000 1.000000 -0.000000
vn 0.000000 -1.000000 -0.000000
vn 0.000000 -1.000000 -0.000000
vn 0.000000 -1.000000 -0.000000
vn 0.000000 -1.000000 -0.000000
vn 0.000000 -1.000000 0.000000
vn 0.000000 -1.000000 0.000000
vn 0.000000 -1.000000 0.000000
vn 0.000000 -1.000000 0.000000
vn 0.000000 -1.000000 0.000000
vn 0.000000 -1.000000 0.000000
vn 0.000000 -1.000000 0.000000
vn 0.000000 -1.000000 0.000000
vn -0.000358 -0.721081 -0.692851
vn -0.000358 -0.721081 -0.692851
vn -0.000358 -0.721081 -0.692851
vn -0.000358 -0.721081 -0.692851
vn 0.000000 0.598036 -0.801469
vn 0.000000 0.598036 -0.801469
vn 0.000000 0.598036 -0.801469
vn 0.000000 0.598036 -0.801469
vn -0.285804 0.000000 -0.958288
vn -0.285804 0.000000 -0.958288
vn -0.285804 0.000000 -0.958288
vn -0.285804 0.000000 -0.958288
vn 0.000000 -0.598029 -0.801474
vn 0.000000 -0.598029 -0.801474
vn 0.000000 -0.598029 -0.801474
vn 0.000000 -0.598029 -0.801474
vn 0.285804 0.000000 -0.958288
vn 0.285804 0.000000 -0.958288
vn 0.285804 0.000000 -0.958288
vn 0.285804 0.000000 -0.958288
vn -0.440270 0.000000 0.897865
vn -0.440270 0.000000 0.897865
vn -0.440270 0.000000 0.897865
vn -0.440270 0.000000 0.897865
vn 0.000000 0.727355 0.686261
vn 0.000000 0.727355 0.686261
vn 0.000000 0.727355 0.686261
vn 0.000000 0.727355 0.686261
vn 0.440273 0.000000 0.897864
vn 0.440273 0.000000 0.897864
vn 0.440273 0.000000 0.897864
vn 0.440273 0.000000 0.897864
vn 0.000000 -0.727352 0.686265
vn 0.000000 -0.727352 0.686264
vn 0.000000 -0.727352 0.686264
vn 0.000000 -0.727352 0.686265
vn 0.000000 0.785505 -0.618856
vn 0.000000 0.785505 -0.618856
vn 0.000000 0.785505 -0.618856
vn 0.000000 0.785505 -0.618856
vn -0.429099 0.000000 -0.903258
vn -0.429099 0.000000 -0.903258
vn -0.429099 0.000000 -0.903258
vn -0.429099 0.000000 -0.903258
vn 0.000000 -0.785503 -0.618857
vn 0.000000 -0.785503 -0.618857
vn 0.000000 -0.785503 -0.618857
vn 0.000000 -0.785503 -0.618857
vn 0.429099 0.000000 -0.903258
vn 0.429099 0.000000 -0.903258
vn 0.429099 0.000000 -0.903258
vn 0.429099 0.000000 -0.903258
vn -0.465119 0.000000 0.885248
vn -0.465119 0.000000 0.885248
vn -0.465119 0.000000 0.885248
vn -0.465119 0.000000 0.885248
vn 0.000000 0.814483 0.580188
vn 0.000000 0.814483 0.580188
vn 0.000000 0.814483 0.580188
vn 0.000000 0.814483 0.580188
vn 0.465119 0.000000 0.885248
vn 0.465119 0.000000 0.885248
vn 0.465119 0.000000 0.885248
vn 0.465119 0.000000 0.885248
vn 0.000000 -0.814479 0.580193
vn 0.000000 -0.814479 0.580193
vn 0.000000 -0.814479 0.580193
vn 0.000000 -0.814479 0.580193
vn 0.000000 0.815299 -0.579040
vn 0.000000 0.815299 -0.579040
vn 0.000000 0.815299 -0.579040
vn 0.000000 0.815299 -0.579040
vn -0.576842 0.000000 -0.816856
vn -0.576842 0.000000 -0.816856
vn -0.576842 0.000000 -0.816856
vn -0.576842 0.000000 -0.816856
vn 0.000000 -0.815297 -0.579042
vn 0.000000 -0.815298 -0.579042
vn 0.000000 -0.815298 -0.579042
vn 0.000000 -0.815298 -0.579042
vn 0.576862 0.000000 -0.816842
vn 0.576862 0.000000 -0.816842
vn 0.576862 0.000000 -0.816842
vn 0.576862 0.000000 -0.816842
vn -0.372260 0.000000 0.928128
vn -0.372260 0.000000 0.928128
vn -0.372260 0.000000 0.928128
vn -0.372260 0.000000 0.928128
vn 0.000000 0.729048 0.684463
vn 0.000000 0.729048 0.684463
vn 0.000000 0.729048 0.684463
vn 0.000000 0.729048 0.684462
vn 0.372261 0.000000 0.928128
vn 0.372261 0.000000 0.928128
vn 0.372261 0.000000 0.928128
vn 0.372261 0.000000 0.928128
vn 0.000000 -0.729045 0.684466
vn 0.000000 -0.729045 0.684466
vn 0.000000 -0.729045 0.684466
vn 0.000000 -0.729045 0.684466
vn -0.623484 0.000000 -0.781836
vn -0.623484 0.000000 -0.781836
vn -0.623484 0.000000 -0.781836
vn -0.623484 0.000000 -0.781836
vn -0.808242 0.000000 -0.588850
vn -0.808242 0.000000 -0.588850
vn -0.808242 0.000000 -0.588850
vn -0.808242 0.000000 -0.588850
vn 0.623494 0.000000 0.781828
vn 0.623494 0.000000 0.781828
vn 0.623494 0.000000 0.781828
vn 0.623494 0.000000 0.781828
vn 0.758868 0.000000 0.651245
vn 0.758868 0.000000 0.651245
vn 0.758868 0.000000 0.651245
vn 0.758868 0.000000 0.651245
vn -0.006867 0.979538 -0.201140
vn -0.006867 0.979538 -0.201140
vn -0.006867 0.979539 -0.201140
vn -0.006867 0.979539 -0.201140
vn 0.000000 1.000000 0.000000
vn 0.000000 1.000000 0.000000
vn 0.000000 1.000000 0.000000
vn 0.000000 1.000000 0.000000
vn 0.000036 -0.710783 0.703412
vn 0.000036 -0.710783 0.703412
vn 0.000036 -0.710783 0.703412
vn 0.000036 -0.710783 0.703412
vn -0.003133 -0.973621 0.228149
vn -0.003133 -0.973621 0.228149
vn -0.003133 -0.973621 0.228149
vn -0.003133 -0.973621 0.228149
vn -0.003133 0.973621 0.228149
vn -0.003133 0.973621 0.228149
vn -0.003133 0.973621 0.228149
vn -0.003133 0.973621 0.228149
vn 0.000000 -1.000000 0.000000
vn 0.000000 -1.000000 0.000000
vn 0.000000 -1.000000 0.000000
vn 0.000000 -1.000000 0.000000
vn 0.000000 1.000000 0.000000
vn 0.000000 1.000000 0.000000
vn 0.000000 1.000000 0.000000
vn 0.000000 1.000000 0.000000
vn -0.006867 -0.979539 -0.201139
vn -0.006867 -0.979539 -0.201139
vn -0.006867 -0.979539 -0.201139
vn -0.006867 -0.979539 -0.201139
vn 0.006252 0.000000 -0.999980
vn 0.006252 0.000000 -0.999980
vn 0.006252 0.000000 -0.999980
vn 0.006252 0.000000 -0.999980
vn 0.372978 0.000000 0.927840
vn 0.372978 0.000000 0.927840
vn 0.372978 0.000000 0.927840
vn 0.372978 0.000000 0.927840
s off
f 1/1/1 2/2/2 4/3/3 3/4/4
f 5/5/5 6/6/6 8/7/7 7/8/8
f 7/8/9 8/7/10 2/2/11 1/1/12
f 2/2/13 8/7/14 6/6/15 4/3/16
f 7/8/17 1/1/18 3/4/19 5/5/20
f 9/9/21 10/10/22 12/11/23 11/12/24
f 13/13/25 14/14/26 16/15/27 15/16/28
f 15/16/29 16/15/30 10/10/31 9/9/32
f 10/10/33 16/15/34 14/14/35 12/11/36
f 15/16/37 9/9/38 11/12/39 13/13/40
f 17/17/41 18/18/42 20/19/43 19/20/44
f 21/21/45 22/22/46 24/23/47 23/24/48
f 23/24/49 24/23/50 18/18/51 17/17/52
f 18/18/53 24/23/54 22/22/55 20/19/56
f 23/24/57 17/17/58 19/20/59 21/21/60
f 25/25/61 26/26/62 28/27/63 27/28/64
f 29/29/65 30/30/66 32/31/67 31/32/68
f 31/32/69 32/31/70 26/26/71 25/25/72
f 26/26/73 32/31/74 30/30/75 28/27/76
f 31/32/77 25/25/78 27/28/79 29/29/80
f 89/33/81 90/34/82 34/35/83 48/36/84
f 83/37/85 84/38/86 80/39/87 77/40/88
f 75/41/89 76/42/90 72/43/91 69/44/92
f 67/45/93 68/46/94 64/47/95 61/48/96
f 91/49/97 92/50/98 38/51/99 52/52/100
f 38/51/101 93/53/102 94/54/103 52/52/104
f 39/55/105 40/56/106 54/57/107 53/58/108
f 85/59/109 86/60/110 41/61/111 55/62/112
f 62/63/113 63/64/114 65/65/115 66/66/116
f 70/67/117 71/68/118 73/69/119 74/70/120
f 78/71/121 79/72/122 81/73/123 82/74/124
f 87/75/125 88/76/126 45/77/127 59/78/128
f 45/77/129 46/79/130 60/80/131 59/78/132
f 46/79/133 95/81/134 96/82/135 60/80/136
f 92/50/137 86/60/138 40/56/139 38/51/140
f 82/74/141 83/37/142 77/40/143 78/71/144
f 55/62/145 51/83/146 91/49/147 85/59/148
f 74/70/149 75/41/150 69/44/151 70/67/152
f 87/75/153 89/33/154 48/36/155 58/84/156
f 66/66/157 67/45/158 61/48/159 62/63/160
f 76/42/161 73/69/162 71/68/163 72/43/164
f 84/38/165 81/73/166 79/72/167 80/39/168
f 68/46/169 65/65/170 63/64/171 64/47/172
f 90/34/173 88/76/174 44/85/175 34/35/176
f 62/63/177 61/48/178 51/83/179 55/62/180
f 41/61/181 63/64/182 62/63/183 55/62/184
f 64/47/185 63/64/186 41/61/187 37/86/188
f 61/48/189 64/47/190 37/86/191 51/83/192
f 66/66/193 65/65/194 42/87/195 56/88/196
f 56/88/197 50/89/198 67/45/199 66/66/200
f 36/90/201 68/46/202 67/45/203 50/89/204
f 36/90/205 42/87/206 65/65/207 68/46/208
f 70/67/209 69/44/210 50/89/211 56/88/212
f 42/87/213 71/68/214 70/67/215 56/88/216
f 72/43/217 71/68/218 42/87/219 36/90/220
f 69/44/221 72/43/222 36/90/223 50/89/224
f 74/70/225 73/69/226 43/91/227 57/92/228
f 57/92/229 49/93/230 75/41/231 74/70/232
f 35/94/233 76/42/234 75/41/235 49/93/236
f 35/94/237 43/91/238 73/69/239 76/42/240
f 78/71/241 77/40/242 49/93/243 57/92/244
f 43/91/245 79/72/246 78/71/247 57/92/248
f 80/39/249 79/72/250 43/91/251 35/94/252
f 77/40/253 80/39/254 35/94/255 49/93/256
f 82/74/257 81/73/258 44/85/259 58/84/260
f 58/84/261 48/36/262 83/37/263 82/74/264
f 34/35/265 84/38/266 83/37/267 48/36/268
f 34/35/269 44/85/270 81/73/271 84/38/272
f 40/56/273 86/60/274 85/59/275 54/57/276
f 44/85/277 88/76/278 87/75/279 58/84/280
f 33/95/281 90/34/282 89/33/283 47/96/284
f 37/86/285 92/50/286 91/49/287 51/83/288
f 54/57/289 52/52/290 94/54/291 53/58/292
f 59/78/293 47/96/294 89/33/295 87/75/296
f 37/86/297 41/61/298 86/60/299 92/50/300
f 45/77/301 33/95/302 95/81/303 46/79/304
f 60/80/305 96/82/306 47/96/307 59/78/308
f 45/77/309 88/76/310 90/34/311 33/95/312
f 85/59/313 91/49/314 52/52/315 54/57/316
f 38/51/317 40/56/318 39/55/319 93/53/320
f 94/54/321 93/53/322 39/55/323 53/58/324
f 96/82/325 95/81/326 33/95/327 47/96/328
