# This file uses centimeters as units for non-parametric coordinates.

v -35.551388 12.397941 3.239172
v 35.551395 12.397941 3.239172
v -35.551388 57.061054 3.239172
v 35.551395 57.061054 3.239172
v 34.049625 58.451565 3.239172
v 34.049625 11.007438 3.239172
v -34.049377 58.451565 3.239172
v -34.049377 11.007438 3.239172
v 34.049625 11.007438 1.231969
v 35.551395 12.397941 1.231969
v 35.551395 57.061054 1.231969
v 34.049625 58.451565 1.231969
v -34.049377 11.007438 1.231969
v -34.049377 58.451565 1.231969
v -35.551388 12.397941 1.231969
v -35.551388 57.061054 1.231969
v 33.484642 57.652763 3.239172
v 33.490009 14.536467 3.239172
v 34.712730 56.380920 3.239172
v 34.712730 15.488238 3.239172
v -33.484203 57.652763 3.239172
v -33.489574 14.536467 3.239172
v -34.712292 15.488238 3.239172
v -34.712292 56.380920 3.239172
v 32.990314 57.221802 2.743200
v 32.995628 14.967430 2.743200
v 34.200241 55.968567 2.743200
v 34.200241 15.902594 2.743200
v -32.989880 57.221802 2.743200
v -32.995186 14.967430 2.743200
v -34.199810 15.902594 2.743200
v -34.199810 55.968567 2.743200
v -15.606197 29.278421 1.231969
v 15.606266 29.278421 1.231969
v 15.606266 40.180580 1.231969
v -15.606197 40.180580 1.231969
v -13.531773 30.735468 -2.582118
v 13.531841 30.735468 -2.582118
v 13.531841 38.723534 -2.582118
v -13.531773 38.723534 -2.582118
v -19.240353 0.000000 10.730505
v 19.240360 0.000000 10.730505
v -18.408195 1.776713 10.266394
v 18.408205 1.776713 10.266394
v -18.408195 1.776713 -10.266443
v 18.408205 1.776713 -10.266443
v -19.240353 0.000000 -10.730556
v 19.240360 0.000000 -10.730556
v -3.630733 1.776713 -4.605799
v 3.630558 1.776713 -4.605799
v 3.630558 1.776713 -8.121670
v -3.630733 1.776713 -8.121670
v -3.630733 37.604294 -1.215418
v 3.630558 37.604294 -1.215418
v 3.630558 37.604294 -3.229945
v -3.630733 37.604294 -3.229945
v 1.545002 13.657378 3.239172
v 1.614590 11.886526 3.239172
v -1.544748 13.657378 3.239172
v -1.614338 11.886526 3.239172
v 3.630558 19.961182 -4.605799
v -3.630733 19.961182 -4.605799
v -3.630733 19.961182 -8.121670
v 3.630558 19.961182 -8.121670
vt 0.103078 0.380988
vt 0.103078 0.380988
vt 0.103078 0.380988
vt 0.103078 0.380988
vt 0.103078 0.380988
vt 0.103078 0.380988
vt 0.103078 0.380988
vt 0.103078 0.380988
vt 0.103078 0.380988
vt 0.103078 0.380988
vt 0.103078 0.380988
vt 0.103078 0.380988
vt 0.103078 0.380988
vt 0.103078 0.380988
vt 0.103078 0.380988
vt 0.103078 0.380988
vt 0.103078 0.380988
vt 0.103078 0.380988
vt 0.982389 0.000000
vt 1.000000 0.022132
vt 1.000000 0.970341
vt 0.982311 1.000000
vt 0.017612 0.000000
vt 0.017689 1.000000
vt 0.000000 0.022132
vt 0.000000 0.970341
vt 0.103078 0.380988
vt 0.103078 0.380988
vt 0.103078 0.380988
vt 0.103078 0.380988
vt 0.103078 0.380988
vt 0.103078 0.380988
vt 0.103078 0.380988
vt 0.103078 0.380988
vt 0.103078 0.380988
vt 0.103078 0.380988
vt 0.103078 0.380988
vt 0.103078 0.380988
vt 0.103078 0.380988
vt 0.103078 0.380988
vt 0.103078 0.380988
vt 0.103078 0.380988
vt 0.103078 0.380988
vt 0.103078 0.380988
vt 0.103078 0.380988
vt 0.103078 0.380988
vt 0.103078 0.380988
vt 0.103078 0.380988
vt 0.103078 0.380988
vt 0.103078 0.380988
vt 0.103078 0.380988
vt 0.103078 0.380988
vt 0.103078 0.380988
vt 0.103078 0.380988
vt 0.103078 0.380988
vt 0.103078 0.380988
vt 0.103078 0.380988
vt 0.103078 0.380988
vt 0.103078 0.380988
vt 0.103078 0.380988
vt 0.103078 0.380988
vt 0.103078 0.380988
vt 0.103078 0.380988
vt 0.103078 0.380988
vt 0.103078 0.380988
vt 0.103078 0.380988
vt 0.103078 0.380988
vt 0.103078 0.380988
vt 0.103078 0.380988
vt 0.103078 0.380988
vt 0.103078 0.380988
vt 0.103078 0.380988
vt 0.103078 0.380988
vt 0.103078 0.380988
vt 0.103078 0.380988
vt 0.103078 0.380988
vt 0.103078 0.380988
vt 0.103078 0.380988
vt 0.103078 0.380988
vt 0.103078 0.380988
vt 0.103078 0.380988
vt 0.103078 0.380988
vt 0.111620 0.325469
vt 0.111627 0.324974
vt 0.112592 0.325025
vt 0.112620 0.325525
vt 0.103078 0.380988
vt 0.103078 0.380988
vt 0.103078 0.380988
vt 0.103078 0.380988
vn -0.000000 0.000000 -1.000000
vn -0.000000 0.000000 -1.000000
vn -0.000000 0.000000 -1.000000
vn -0.000000 0.000000 -1.000000
vn 0.000000 0.000000 -1.000000
vn 0.000000 0.000000 -1.000000
vn 0.000000 0.000000 -1.000000
vn 0.000000 0.000000 -1.000000
vn 0.000000 0.000000 -1.000000
vn 0.000000 0.000000 -1.000000
vn 0.000000 0.000000 -1.000000
vn 0.000000 0.000000 -1.000000
vn 0.000000 0.000000 1.000000
vn 0.000000 0.000000 1.000000
vn 0.000000 0.000000 1.000000
vn 0.000000 0.000000 1.000000
vn 0.000000 0.000000 1.000000
vn 0.000000 0.000000 1.000000
vn 0.000000 0.000000 1.000000
vn 0.000000 0.000000 1.000000
vn -0.000000 0.000000 1.000000
vn -0.000000 0.000000 1.000000
vn -0.000000 0.000000 1.000000
vn -0.000000 0.000000 1.000000
vn 0.679401 -0.733767 0.000000
vn 0.679401 -0.733767 0.000000
vn 0.679401 -0.733767 0.000000
vn 0.679401 -0.733767 0.000000
vn 1.000000 0.000000 0.000000
vn 1.000000 0.000000 0.000000
vn 1.000000 0.000000 0.000000
vn 1.000000 0.000000 0.000000
vn 0.679403 0.733765 0.000000
vn 0.679403 0.733765 0.000000
vn 0.679403 0.733765 0.000000
vn 0.679403 0.733765 0.000000
vn 0.000000 -1.000000 0.000000
vn 0.000000 -1.000000 0.000000
vn 0.000000 -1.000000 0.000000
vn 0.000000 -1.000000 0.000000
vn 0.000000 1.000000 0.000000
vn 0.000000 1.000000 0.000000
vn 0.000000 1.000000 0.000000
vn 0.000000 1.000000 0.000000
vn -0.679343 -0.733821 0.000000
vn -0.679343 -0.733821 0.000000
vn -0.679343 -0.733821 0.000000
vn -0.679343 -0.733821 0.000000
vn -0.679345 0.733819 0.000000
vn -0.679345 0.733819 0.000000
vn -0.679345 0.733819 0.000000
vn -0.679345 0.733819 0.000000
vn -1.000000 0.000000 0.000000
vn -1.000000 0.000000 0.000000
vn -1.000000 0.000000 0.000000
vn -1.000000 0.000000 0.000000
vn 0.000000 0.000000 1.000000
vn 0.000000 0.000000 1.000000
vn 0.000000 0.000000 1.000000
vn 0.000000 0.000000 1.000000
vn 0.000000 0.000000 1.000000
vn 0.000000 0.000000 1.000000
vn 0.000000 0.000000 1.000000
vn 0.000000 0.000000 1.000000
vn -0.000000 0.000000 1.000000
vn -0.000000 0.000000 1.000000
vn -0.000000 0.000000 1.000000
vn -0.000000 0.000000 1.000000
vn 0.000000 0.000000 1.000000
vn 0.000000 0.000000 1.000000
vn 0.000000 0.000000 1.000000
vn 0.000000 0.000000 1.000000
vn 0.000000 0.000000 1.000000
vn 0.000000 0.000000 1.000000
vn 0.000000 0.000000 1.000000
vn 0.000000 0.000000 1.000000
vn 0.000000 0.000000 1.000000
vn 0.000000 0.000000 1.000000
vn 0.000000 0.000000 1.000000
vn 0.000000 0.000000 1.000000
vn 0.000000 0.000000 1.000000
vn 0.000000 0.000000 1.000000
vn 0.000000 0.000000 1.000000
vn 0.000000 0.000000 1.000000
vn 0.000000 0.000000 1.000000
vn 0.000000 0.000000 1.000000
vn 0.000000 0.000000 1.000000
vn 0.000000 0.000000 1.000000
vn -0.434268 -0.419295 0.797247
vn -0.434268 -0.419295 0.797247
vn -0.434268 -0.419295 0.797247
vn -0.434268 -0.419295 0.797247
vn -0.695432 0.000000 0.718592
vn -0.695432 0.000000 0.718592
vn -0.695432 0.000000 0.718592
vn -0.695432 0.000000 0.718592
vn -0.374968 0.482354 0.791665
vn -0.374968 0.482354 0.791665
vn -0.374968 0.482354 0.791665
vn -0.374968 0.482354 0.791665
vn 0.000000 -0.754848 0.655900
vn 0.000000 -0.754848 0.655900
vn 0.000000 -0.754848 0.655900
vn 0.000000 -0.754848 0.655900
vn 0.000000 0.754844 0.655905
vn 0.000000 0.754844 0.655905
vn 0.000000 0.754844 0.655905
vn 0.000000 0.754844 0.655905
vn 0.695437 0.000000 0.718587
vn 0.695437 0.000000 0.718587
vn 0.695437 0.000000 0.718587
vn 0.695437 0.000000 0.718587
vn 0.434268 -0.419296 0.797247
vn 0.434268 -0.419296 0.797247
vn 0.434268 -0.419296 0.797247
vn 0.434268 -0.419296 0.797247
vn 0.374967 0.482356 0.791665
vn 0.374966 0.482355 0.791665
vn 0.374967 0.482355 0.791665
vn 0.374966 0.482355 0.791665
vn 0.000000 0.000000 -1.000000
vn 0.000000 0.000000 -1.000000
vn 0.000000 0.000000 -1.000000
vn 0.000000 0.000000 -1.000000
vn 0.000000 0.000000 -1.000000
vn 0.000000 0.000000 -1.000000
vn 0.000000 0.000000 -1.000000
vn 0.000000 0.000000 -1.000000
vn 0.000000 0.000000 -1.000000
vn 0.000000 0.000000 -1.000000
vn 0.000000 0.000000 -1.000000
vn 0.000000 0.000000 -1.000000
vn 0.000000 0.000000 -1.000000
vn 0.000000 0.000000 -1.000000
vn 0.000000 0.000000 -1.000000
vn 0.000000 0.000000 -1.000000
vn 0.000000 -0.934157 -0.356863
vn 0.000000 -0.934157 -0.356863
vn 0.000000 -0.934157 -0.356863
vn 0.000000 -0.934157 -0.356863
vn 0.878475 0.000000 -0.477789
vn 0.878474 0.000000 -0.477789
vn 0.878474 0.000000 -0.477789
vn 0.878475 0.000000 -0.477789
vn 0.000000 0.934157 -0.356863
vn 0.000000 0.934157 -0.356863
vn 0.000000 0.934157 -0.356863
vn 0.000000 0.934157 -0.356863
vn -0.878475 0.000000 -0.477789
vn -0.878474 0.000000 -0.477789
vn -0.878474 0.000000 -0.477789
vn -0.878475 0.000000 -0.477789
vn 0.000000 0.252739 0.967535
vn 0.000000 0.252739 0.967535
vn 0.000000 0.252739 0.967535
vn 0.000000 0.252739 0.967535
vn 0.000000 1.000000 0.000000
vn 0.000000 1.000000 0.000000
vn 0.000000 1.000000 0.000000
vn 0.000000 1.000000 0.000000
vn 0.000000 0.252740 -0.967534
vn 0.000000 0.252740 -0.967534
vn 0.000000 0.252740 -0.967534
vn 0.000000 0.252740 -0.967534
vn 0.000000 -1.000000 0.000000
vn 0.000000 -1.000000 0.000000
vn 0.000000 -1.000000 0.000000
vn 0.000000 -1.000000 0.000000
vn 0.905592 0.424150 0.000000
vn 0.905592 0.424150 0.000000
vn 0.905592 0.424150 0.000000
vn 0.905592 0.424150 0.000000
vn -0.905592 0.424151 0.000000
vn -0.905592 0.424151 0.000000
vn -0.905592 0.424151 0.000000
vn -0.905592 0.424151 0.000000
vn 0.000000 1.000000 -0.000000
vn 0.000000 1.000000 -0.000000
vn 0.000000 1.000000 -0.000000
vn 0.000000 1.000000 -0.000000
vn 0.000000 1.000000 0.000000
vn 0.000000 1.000000 0.000000
vn 0.000000 1.000000 0.000000
vn 0.000000 1.000000 0.000000
vn 0.000000 1.000000 0.000000
vn 0.000000 1.000000 0.000000
vn 0.000000 1.000000 0.000000
vn 0.000000 1.000000 0.000000
vn 0.000000 1.000000 0.000000
vn 0.000000 1.000000 0.000000
vn 0.000000 1.000000 0.000000
vn 0.000000 1.000000 0.000000
vn 0.000000 0.000000 1.000000
vn 0.000000 0.000000 1.000000
vn 0.000000 -0.094210 0.995552
vn 0.000000 -0.094210 0.995552
vn 1.000000 0.000000 0.000000
vn 1.000000 0.000000 0.000000
vn 1.000000 0.000000 0.000000
vn 1.000000 0.000000 0.000000
vn 0.000000 0.000000 -1.000000
vn 0.000000 0.000000 -1.000000
vn 0.000000 0.135280 -0.990807
vn 0.000000 0.135280 -0.990807
vn -1.000000 0.000000 0.000000
vn -1.000000 0.000000 0.000000
vn -1.000000 0.000000 0.000000
vn -1.000000 0.000000 0.000000
vn 0.000000 0.000000 1.000000
vn 0.000000 0.000000 1.000000
vn 0.000000 0.000000 1.000000
vn 0.000000 0.000000 1.000000
vn 0.000000 0.000000 1.000000
vn 0.000000 0.000000 1.000000
vn 0.000000 0.000000 1.000000
vn 0.000000 0.000000 1.000000
vn -0.000000 0.000000 1.000000
vn -0.000000 0.000000 1.000000
vn -0.000000 0.000000 1.000000
vn -0.000000 0.000000 1.000000
vn 0.000000 0.000000 1.000000
vn 0.000000 0.000000 1.000000
vn 0.000000 0.000000 1.000000
vn 0.000000 0.000000 1.000000
vn 0.000000 -0.094210 0.995552
vn 0.000000 -0.094210 0.995552
vn 0.000000 -0.188712 0.982033
vn 0.000000 -0.188712 0.982033
vn -1.000000 0.000000 0.000000
vn -1.000000 0.000000 0.000000
vn -1.000000 0.000000 0.000000
vn -1.000000 0.000000 0.000000
vn 0.000000 0.135280 -0.990807
vn 0.000000 0.135280 -0.990807
vn 0.000000 0.267180 -0.963647
vn 0.000000 0.267180 -0.963647
vn 1.000000 0.000000 0.000000
vn 1.000000 0.000000 0.000000
vn 1.000000 0.000000 0.000000
vn 1.000000 0.000000 0.000000
s off
f 9/7/1 12/8/2 11/9/3 10/10/4
f 37/11/5 40/12/6 39/13/7 38/14/8
f 15/15/9 16/16/10 14/17/11 13/18/12
f 26/19/13 28/20/14 27/21/15 25/22/16
f 30/23/17 26/19/18 25/22/19 29/24/20
f 31/25/21 30/23/22 29/24/23 32/26/24
f 6/27/25 9/7/26 10/10/27 2/28/28
f 2/28/29 10/10/30 11/9/31 4/29/32
f 4/29/33 11/9/34 12/8/35 5/30/36
f 8/31/37 13/18/38 9/7/39 6/27/40
f 5/30/41 12/8/42 14/17/43 7/32/44
f 1/33/45 15/15/46 13/18/47 8/31/48
f 7/32/49 14/17/50 16/16/51 3/34/52
f 3/34/53 16/16/54 15/15/55 1/33/56
f 5/35/57 17/36/58 19/37/59 4/38/60
f 4/38/61 19/37/62 20/39/63 2/40/64
f 2/40/65 20/39/66 18/41/67 6/42/68
f 7/43/69 21/44/70 17/36/71 5/35/72
f 58/83/73 57/84/74 59/85/75 60/86/76
f 1/47/77 23/48/78 24/49/79 3/50/80
f 3/50/81 24/49/82 21/44/83 7/43/84
f 8/46/85 22/45/86 23/48/87 1/47/88
f 17/36/89 25/51/90 27/52/91 19/37/92
f 19/37/93 27/52/94 28/53/95 20/39/96
f 20/39/97 28/53/98 26/54/99 18/41/100
f 21/44/101 29/55/102 25/51/103 17/36/104
f 18/41/105 26/54/106 30/56/107 22/45/108
f 23/48/109 31/57/110 32/58/111 24/49/112
f 24/49/113 32/58/114 29/55/115 21/44/116
f 22/45/117 30/56/118 31/57/119 23/48/120
f 13/18/121 33/59/122 34/60/123 9/7/124
f 9/7/125 34/60/126 35/61/127 12/8/128
f 12/8/129 35/61/130 36/62/131 14/17/132
f 14/17/133 36/62/134 33/59/135 13/18/136
f 33/59/137 37/11/138 38/14/139 34/60/140
f 34/60/141 38/14/142 39/13/143 35/61/144
f 35/61/145 39/13/146 40/12/147 36/62/148
f 36/62/149 40/12/150 37/11/151 33/59/152
f 41/63/153 42/64/154 44/65/155 43/66/156
f 53/67/157 54/68/158 55/69/159 56/70/160
f 45/71/161 46/72/162 48/73/163 47/74/164
f 47/74/165 48/73/166 42/75/167 41/76/168
f 42/64/169 48/77/170 46/78/171 44/65/172
f 47/6/173 41/63/174 43/66/175 45/5/176
f 43/66/177 44/65/178 50/4/179 49/3/180
f 44/65/181 46/72/182 51/2/183 50/4/184
f 46/72/185 45/71/186 52/1/187 51/2/188
f 45/71/189 43/66/190 49/3/191 52/1/192
f 49/3/193 50/4/194 61/87/195 62/88/196
f 50/4/197 51/2/198 64/90/199 61/87/200
f 51/2/201 52/1/202 63/89/203 64/90/204
f 52/1/205 49/3/206 62/88/207 63/89/208
f 6/42/209 18/41/210 57/80/211 58/79/212
f 18/41/213 22/45/214 59/81/215 57/80/216
f 22/45/217 8/46/218 60/82/219 59/81/220
f 8/46/221 6/42/222 58/79/223 60/82/224
f 62/88/225 61/87/226 54/68/227 53/67/228
f 63/89/229 62/88/230 53/67/231 56/70/232
f 64/90/233 63/89/234 56/70/235 55/69/236
f 61/87/237 64/90/238 55/69/239 54/68/240
