# This file uses centimeters as units for non-parametric coordinates.

v -33.374039 -0.129004 36.247116
v -19.268509 -1.463341 41.345581
v 0.000006 -3.220296 43.653397
v 19.268509 -1.494146 41.345581
v 33.374046 -0.129004 36.247116
v -38.537022 8.747782 40.939827
v -23.599012 7.024237 48.851295
v 0.000006 5.260481 52.884293
v 23.599024 6.992722 48.851295
v 38.537033 8.747782 40.941071
v -40.874687 26.255539 40.646015
v -25.851423 27.686504 48.384560
v 0.000006 24.220531 51.466175
v 25.851425 27.508717 48.384560
v 40.874699 26.130199 40.653770
v -38.537022 37.592400 33.070606
v -23.599012 33.904209 33.880672
v 0.000006 26.419090 32.021065
v 23.631649 33.990807 34.117352
v 38.537033 37.959091 33.300457
v -31.061687 43.176872 16.837265
v -16.793346 34.882793 11.435459
v 1.119210 31.539497 10.880717
v 18.816202 38.155518 16.068037
v 31.402027 44.020012 20.840923
v -26.670736 46.426804 3.659349
v -14.810324 41.971924 -1.294019
v 2.548032 42.734142 -3.518577
v 19.278091 46.187061 3.566901
v 30.122311 49.978523 9.975934
v -27.034954 54.763855 -5.175471
v -18.528761 60.056076 -6.933101
v 5.214193 64.724846 -5.007356
v 28.644667 62.970451 -5.921881
v 36.243439 56.646114 -3.587991
v -30.124411 66.370331 -17.478045
v -11.823433 74.488647 -15.457243
v 7.340062 80.396141 -13.255645
v 29.830334 76.592262 -14.465234
v 39.602318 65.681351 -17.244629
v -26.964485 71.065193 -29.119194
v -9.770721 78.688690 -32.726692
v 6.709413 83.395706 -33.175781
v 25.379704 79.968880 -32.218727
v 37.370560 70.721291 -28.612392
v -32.518440 54.274483 -36.724342
v -18.064335 58.957306 -42.642452
v 4.823459 62.780159 -47.096878
v 26.669022 59.073608 -42.435608
v 38.794357 53.581524 -36.704323
v -40.379173 25.163338 -37.959602
v -24.283447 29.303562 -48.816341
v 1.741852 32.075047 -52.884293
v 27.921537 29.160542 -48.716240
v 42.368904 25.003345 -37.865021
v -38.537022 6.952030 -35.663952
v -23.599012 5.296068 -44.324951
v 0.000006 4.656242 -48.829773
v 23.599024 5.337351 -44.324951
v 38.537033 6.973297 -35.663952
v -33.374039 -0.370989 -30.500965
v -19.268509 -1.363317 -35.663952
v 0.000006 -1.716496 -38.001617
v 19.268509 -1.176400 -35.663952
v 33.374046 -0.298229 -30.500965
v -38.537022 -2.460968 -16.395439
v -23.599012 -5.556120 -20.725937
v 0.000006 -4.622953 -22.978348
v 23.599024 -5.465599 -20.725937
v 38.537033 -2.422692 -16.395439
v -40.874687 -3.284925 2.873075
v -25.851423 -5.362370 2.873075
v 0.000006 -5.497763 2.873075
v 25.851425 -5.435467 2.873075
v 40.874699 -3.284925 2.873075
v -38.537022 -2.450316 22.141590
v -23.599012 -5.621805 26.472088
v 0.000006 -6.094930 28.724499
v 23.599024 -5.667288 26.472088
v 38.537033 -2.450316 22.141590
v 47.198021 3.899858 -20.725937
v 51.702843 2.529539 2.873075
v 47.198021 3.899858 26.472088
v 52.007713 22.951447 -22.910921
v 56.717316 23.065468 2.873075
v 51.702843 23.030666 28.073719
v 40.551872 50.105137 -23.235653
v 40.874496 48.811569 4.114251
v 44.756779 45.553257 21.454762
v -47.198021 3.893263 -20.725937
v -51.702843 2.529539 2.873075
v -47.198021 3.899858 26.472088
v -51.256664 23.065468 -22.978348
v -56.717316 23.065468 2.873075
v -51.702843 23.065468 28.061697
v -36.177895 51.664486 -24.825811
v -36.680401 51.174080 -2.387792
v -43.919582 43.668610 19.591957
v -49.526085 42.309925 -0.813456
v -43.899158 43.722389 -26.211912
v 49.472870 41.430153 3.120877
v 46.323544 44.558495 -23.551853
vt 0.132642 0.202570
vt 0.132518 0.202632
vt 0.132528 0.202596
vt 0.132668 0.202516
vt 0.132350 0.202658
vt 0.132314 0.202635
vt 0.132184 0.202626
vt 0.132109 0.202588
vt 0.132064 0.202560
vt 0.131987 0.202504
vt 0.132517 0.202474
vt 0.132669 0.202407
vt 0.132269 0.202510
vt 0.132043 0.202466
vt 0.131929 0.202395
vt 0.132476 0.202287
vt 0.132632 0.202264
vt 0.132244 0.202296
vt 0.132035 0.202279
vt 0.131923 0.202252
vt 0.132431 0.202127
vt 0.132577 0.202133
vt 0.132243 0.202122
vt 0.132069 0.202121
vt 0.131957 0.202123
vt 0.132485 0.201974
vt 0.132639 0.202012
vt 0.132255 0.201952
vt 0.132045 0.201967
vt 0.131931 0.202001
vt 0.132535 0.201805
vt 0.132682 0.201884
vt 0.132292 0.201757
vt 0.132065 0.201798
vt 0.131947 0.201873
vt 0.132553 0.201707
vt 0.132687 0.201793
vt 0.132343 0.201660
vt 0.132137 0.201701
vt 0.132010 0.201783
vt 0.132544 0.201688
vt 0.132664 0.201753
vt 0.132379 0.201657
vt 0.132213 0.201683
vt 0.132090 0.201744
vt 0.132606 0.201746
vt 0.132725 0.201822
vt 0.132412 0.201705
vt 0.132210 0.201740
vt 0.132076 0.201812
vt 0.132651 0.201877
vt 0.132763 0.201936
vt 0.132448 0.201843
vt 0.132229 0.201871
vt 0.132088 0.201925
vt 0.132647 0.202048
vt 0.132755 0.202069
vt 0.132466 0.202036
vt 0.132269 0.202042
vt 0.132129 0.202059
vt 0.132616 0.202184
vt 0.132719 0.202183
vt 0.132467 0.202183
vt 0.132308 0.202179
vt 0.132181 0.202174
vt 0.132640 0.202317
vt 0.132750 0.202292
vt 0.132458 0.202328
vt 0.132261 0.202311
vt 0.132122 0.202281
vt 0.132635 0.202478
vt 0.132751 0.202416
vt 0.132429 0.202510
vt 0.132211 0.202470
vt 0.132073 0.202404
vt 0.132583 0.202591
vt 0.132708 0.202515
vt 0.132386 0.202628
vt 0.132184 0.202584
vt 0.132054 0.202504
vt 0.132038 0.202165
vt 0.131960 0.202311
vt 0.131948 0.202438
vt 0.131970 0.202004
vt 0.131866 0.202147
vt 0.131865 0.202300
vt 0.131967 0.201861
vt 0.131876 0.201976
vt 0.131869 0.202130
vt 0.132814 0.202178
vt 0.132830 0.202326
vt 0.132765 0.202452
vt 0.132838 0.202018
vt 0.132864 0.202163
vt 0.132784 0.202316
vt 0.132780 0.201873
vt 0.132792 0.201990
vt 0.132726 0.202144
vt 0.132826 0.202071
vt 0.132802 0.201929
vt 0.131872 0.202052
vt 0.131968 0.201913
vn -0.416993 -0.554433 0.720223
vn -0.416993 -0.554433 0.720223
vn -0.416993 -0.554433 0.720223
vn -0.416993 -0.554433 0.720223
vn -0.153643 -0.609190 0.777998
vn -0.153643 -0.609190 0.777998
vn -0.153643 -0.609190 0.777998
vn -0.153643 -0.609190 0.777998
vn 0.153643 -0.609190 0.777998
vn 0.153643 -0.609190 0.777998
vn 0.153643 -0.609190 0.777998
vn 0.153643 -0.609190 0.777998
vn 0.416965 -0.554459 0.720219
vn 0.416965 -0.554459 0.720219
vn 0.416965 -0.554459 0.720219
vn 0.416965 -0.554459 0.720219
vn -0.463321 -0.032585 0.885591
vn -0.463321 -0.032585 0.885591
vn -0.463321 -0.032585 0.885591
vn -0.463321 -0.032585 0.885591
vn -0.139689 0.032331 0.989668
vn -0.139689 0.032331 0.989668
vn -0.139689 0.032331 0.989668
vn -0.139689 0.032331 0.989668
vn 0.139689 0.032331 0.989668
vn 0.139689 0.032331 0.989668
vn 0.139689 0.032331 0.989668
vn 0.139689 0.032331 0.989668
vn 0.463125 -0.032682 0.885690
vn 0.463125 -0.032682 0.885690
vn 0.463125 -0.032682 0.885690
vn 0.463125 -0.032682 0.885690
vn -0.182739 0.769690 0.611706
vn -0.182739 0.769690 0.611706
vn -0.182739 0.769690 0.611706
vn -0.182739 0.769690 0.611706
vn 0.143308 0.927417 0.345486
vn 0.143308 0.927417 0.345486
vn 0.143308 0.927417 0.345486
vn 0.143308 0.927417 0.345486
vn -0.152043 0.921076 0.358472
vn -0.152043 0.921076 0.358472
vn -0.152043 0.921076 0.358472
vn -0.152043 0.921076 0.358472
vn 0.185720 0.745641 0.639943
vn 0.185720 0.745641 0.639943
vn 0.185720 0.745641 0.639943
vn 0.185720 0.745641 0.639943
vn 0.295712 0.928621 0.224091
vn 0.295712 0.928621 0.224091
vn 0.295712 0.928621 0.224091
vn 0.295712 0.928621 0.224091
vn 0.177632 0.977601 0.112884
vn 0.177632 0.977601 0.112884
vn 0.177632 0.977601 0.112884
vn 0.177632 0.977601 0.112884
vn -0.302262 0.926706 0.223280
vn -0.302262 0.926706 0.223280
vn -0.302262 0.926706 0.223280
vn -0.302262 0.926706 0.223280
vn -0.247273 0.884417 0.395806
vn -0.247273 0.884417 0.395806
vn -0.247273 0.884417 0.395806
vn -0.247273 0.884417 0.395806
vn 0.443785 0.783232 0.435433
vn 0.443785 0.783232 0.435433
vn 0.443785 0.783232 0.435433
vn 0.443785 0.783232 0.435433
vn 0.030976 0.793775 0.607422
vn 0.030976 0.793775 0.607422
vn 0.030976 0.793775 0.607422
vn 0.030976 0.793775 0.607422
vn -0.378531 0.717598 0.584608
vn -0.378531 0.717598 0.584608
vn -0.378531 0.717598 0.584608
vn -0.378531 0.717598 0.584608
vn -0.420132 0.733453 0.534355
vn -0.420132 0.733453 0.534355
vn -0.420132 0.733453 0.534355
vn -0.420132 0.733453 0.534355
vn 0.143062 0.408889 0.901301
vn 0.143062 0.408889 0.901301
vn 0.143062 0.408889 0.901301
vn 0.143062 0.408889 0.901301
vn -0.042384 0.118360 0.992066
vn -0.042384 0.118360 0.992066
vn -0.042384 0.118360 0.992066
vn -0.042384 0.118360 0.992066
vn -0.109233 0.208764 0.971847
vn -0.109233 0.208764 0.971847
vn -0.109233 0.208764 0.971847
vn -0.109233 0.208764 0.971847
vn 0.539278 0.574312 0.615910
vn 0.539278 0.574312 0.615910
vn 0.539278 0.574312 0.615910
vn -0.578285 0.457741 0.675322
vn -0.578285 0.457741 0.675322
vn -0.578285 0.457741 0.675322
vn -0.578285 0.457741 0.675322
vn -0.316863 0.386678 0.866070
vn -0.316863 0.386678 0.866070
vn -0.316863 0.386678 0.866070
vn -0.316863 0.386678 0.866070
vn 0.222082 0.395774 0.891091
vn 0.222082 0.395774 0.891091
vn 0.222082 0.395774 0.891091
vn 0.222082 0.395774 0.891091
vn 0.648677 0.458320 0.607586
vn 0.648677 0.458320 0.607586
vn 0.648677 0.458320 0.607586
vn 0.648677 0.458320 0.607586
vn -0.740508 0.649571 0.172352
vn -0.740508 0.649571 0.172352
vn -0.740508 0.649571 0.172352
vn -0.740508 0.649571 0.172352
vn -0.508846 0.832367 0.219639
vn -0.508846 0.832367 0.219639
vn -0.508846 0.832367 0.219639
vn -0.508846 0.832367 0.219639
vn 0.425327 0.891221 0.157551
vn 0.425327 0.891221 0.157551
vn 0.425327 0.891221 0.157551
vn 0.425327 0.891221 0.157551
vn 0.794735 0.606941 0.004441
vn 0.794735 0.606941 0.004441
vn 0.794735 0.606941 0.004441
vn 0.794735 0.606941 0.004441
vn -0.724184 0.523911 -0.448414
vn -0.724184 0.523911 -0.448414
vn -0.724184 0.523911 -0.448414
vn -0.724184 0.523911 -0.448414
vn -0.160837 0.659340 -0.734440
vn -0.160837 0.659340 -0.734440
vn -0.160837 0.659340 -0.734440
vn -0.160837 0.659340 -0.734440
vn 0.152242 0.654890 -0.740231
vn 0.152242 0.654890 -0.740231
vn 0.152242 0.654890 -0.740231
vn 0.152242 0.654890 -0.740231
vn 0.689513 0.474202 -0.547453
vn 0.689513 0.474202 -0.547453
vn 0.689513 0.474202 -0.547453
vn 0.689513 0.474202 -0.547453
vn -0.595547 0.168010 -0.785555
vn -0.595547 0.168010 -0.785555
vn -0.595547 0.168010 -0.785555
vn -0.595547 0.168010 -0.785555
vn -0.140178 0.213465 -0.966842
vn -0.140178 0.213465 -0.966842
vn -0.140178 0.213465 -0.966842
vn -0.140178 0.213465 -0.966842
vn 0.136638 0.215127 -0.966980
vn 0.136638 0.215127 -0.966980
vn 0.136638 0.215127 -0.966980
vn 0.136638 0.215127 -0.966980
vn 0.586116 0.168406 -0.792532
vn 0.586116 0.168406 -0.792532
vn 0.586116 0.168406 -0.792532
vn 0.586116 0.168406 -0.792532
vn -0.536593 -0.167442 -0.827062
vn -0.536593 -0.167442 -0.827062
vn -0.536593 -0.167442 -0.827062
vn -0.536593 -0.167442 -0.827062
vn -0.168040 -0.148719 -0.974498
vn -0.168040 -0.148719 -0.974498
vn -0.168040 -0.148719 -0.974498
vn -0.168040 -0.148719 -0.974498
vn 0.165410 -0.144913 -0.975520
vn 0.165410 -0.144913 -0.975520
vn 0.165410 -0.144913 -0.975520
vn 0.165410 -0.144913 -0.975520
vn 0.535804 -0.166702 -0.827722
vn 0.535804 -0.166702 -0.827722
vn 0.535804 -0.166702 -0.827722
vn 0.535804 -0.166702 -0.827722
vn -0.426532 -0.663984 -0.614163
vn -0.426532 -0.663984 -0.614163
vn -0.426532 -0.663984 -0.614163
vn -0.426532 -0.663984 -0.614163
vn -0.153262 -0.750556 -0.642788
vn -0.153262 -0.750556 -0.642788
vn -0.153262 -0.750556 -0.642788
vn -0.153262 -0.750556 -0.642788
vn 0.153262 -0.750556 -0.642789
vn 0.153262 -0.750556 -0.642789
vn 0.153262 -0.750556 -0.642789
vn 0.153262 -0.750556 -0.642789
vn 0.426531 -0.663984 -0.614163
vn 0.426531 -0.663984 -0.614163
vn 0.426531 -0.663984 -0.614163
vn 0.426531 -0.663984 -0.614163
vn -0.346122 -0.872009 -0.346122
vn -0.346122 -0.872009 -0.346122
vn -0.346122 -0.872009 -0.346122
vn -0.346122 -0.872009 -0.346122
vn -0.059226 -0.951162 -0.302956
vn -0.059226 -0.951162 -0.302956
vn -0.059226 -0.951162 -0.302956
vn -0.059226 -0.951162 -0.302956
vn 0.059226 -0.951162 -0.302956
vn 0.059226 -0.951162 -0.302956
vn 0.059226 -0.951162 -0.302956
vn 0.059226 -0.951162 -0.302956
vn 0.346122 -0.872009 -0.346122
vn 0.346122 -0.872009 -0.346122
vn 0.346122 -0.872009 -0.346122
vn 0.346122 -0.872009 -0.346122
vn -0.302956 -0.951163 -0.059226
vn -0.302956 -0.951163 -0.059226
vn -0.302956 -0.951163 -0.059226
vn -0.302956 -0.951163 -0.059226
vn 0.000000 -1.000000 0.000000
vn 0.000000 -1.000000 0.000000
vn 0.000000 -1.000000 0.000000
vn 0.000000 -1.000000 0.000000
vn -0.000000 -1.000000 0.000000
vn -0.000000 -1.000000 0.000000
vn -0.000000 -1.000000 0.000000
vn -0.000000 -1.000000 0.000000
vn 0.302956 -0.951163 -0.059226
vn 0.302956 -0.951163 -0.059226
vn 0.302956 -0.951163 -0.059226
vn 0.302956 -0.951163 -0.059226
vn -0.302956 -0.951163 0.059226
vn -0.302956 -0.951163 0.059226
vn -0.302956 -0.951163 0.059226
vn -0.302956 -0.951163 0.059226
vn 0.000000 -1.000000 -0.000000
vn 0.000000 -1.000000 -0.000000
vn 0.000000 -1.000000 -0.000000
vn 0.000000 -1.000000 -0.000000
vn -0.000000 -1.000000 -0.000000
vn -0.000000 -1.000000 -0.000000
vn -0.000000 -1.000000 -0.000000
vn -0.000000 -1.000000 -0.000000
vn 0.302956 -0.951163 0.059226
vn 0.302956 -0.951163 0.059226
vn 0.302956 -0.951163 0.059226
vn 0.302956 -0.951163 0.059226
vn -0.340271 -0.869592 0.357806
vn -0.340271 -0.869592 0.357806
vn -0.340271 -0.869592 0.357806
vn -0.340271 -0.869592 0.357806
vn -0.063465 -0.944490 0.322352
vn -0.063465 -0.944490 0.322352
vn -0.063465 -0.944490 0.322352
vn -0.063465 -0.944490 0.322352
vn 0.063465 -0.944490 0.322352
vn 0.063465 -0.944490 0.322352
vn 0.063465 -0.944490 0.322352
vn 0.063465 -0.944490 0.322352
vn 0.340271 -0.869592 0.357807
vn 0.340271 -0.869592 0.357807
vn 0.340271 -0.869592 0.357807
vn 0.340271 -0.869592 0.357807
vn 0.613011 -0.664737 -0.427016
vn 0.613011 -0.664737 -0.427016
vn 0.613011 -0.664737 -0.427016
vn 0.613011 -0.664737 -0.427016
vn 0.639408 -0.753264 -0.154114
vn 0.639408 -0.753264 -0.154114
vn 0.639408 -0.753264 -0.154114
vn 0.639408 -0.753264 -0.154114
vn 0.639408 -0.753264 0.154114
vn 0.639408 -0.753264 0.154114
vn 0.639408 -0.753264 0.154114
vn 0.639408 -0.753264 0.154114
vn 0.622680 -0.622352 0.474288
vn 0.622680 -0.622352 0.474288
vn 0.622680 -0.622352 0.474288
vn 0.622680 -0.622352 0.474288
vn 0.814080 -0.181158 -0.551774
vn 0.814080 -0.181158 -0.551774
vn 0.814080 -0.181158 -0.551774
vn 0.814080 -0.181158 -0.551774
vn 0.958920 -0.200805 -0.200373
vn 0.958920 -0.200805 -0.200373
vn 0.958920 -0.200805 -0.200373
vn 0.958920 -0.200805 -0.200373
vn 0.958795 -0.207098 0.194479
vn 0.958795 -0.207098 0.194479
vn 0.958795 -0.207098 0.194479
vn 0.958795 -0.207098 0.194479
vn 0.779571 -0.146537 0.608930
vn 0.779571 -0.146537 0.608930
vn 0.779571 -0.146537 0.608930
vn 0.779571 -0.146537 0.608930
vn 0.741766 0.670643 0.004582
vn 0.741766 0.670643 0.004582
vn 0.741766 0.670643 0.004582
vn 0.698996 0.715115 0.003783
vn 0.698996 0.715115 0.003783
vn 0.698996 0.715115 0.003783
vn 0.698996 0.715115 0.003783
vn 0.664740 0.747068 0.003059
vn 0.664740 0.747068 0.003059
vn 0.664740 0.747068 0.003059
vn 0.724313 0.447987 0.524098
vn 0.724313 0.447987 0.524098
vn 0.724313 0.447987 0.524098
vn 0.724313 0.447987 0.524098
vn 0.975613 0.158083 -0.152280
vn 0.975613 0.158083 -0.152280
vn 0.975613 0.158083 -0.152280
vn 0.975613 0.158083 -0.152280
vn 0.960450 0.256982 0.107218
vn 0.960450 0.256982 0.107218
vn 0.960450 0.256982 0.107218
vn 0.960450 0.256982 0.107218
vn 0.247202 0.950462 0.188448
vn 0.247202 0.950462 0.188448
vn 0.247202 0.950462 0.188448
vn -0.010907 0.884407 0.466590
vn -0.010907 0.884407 0.466590
vn -0.010907 0.884407 0.466590
vn -0.010907 0.884407 0.466590
vn -0.613010 -0.664737 -0.427016
vn -0.613010 -0.664737 -0.427016
vn -0.613010 -0.664737 -0.427016
vn -0.613010 -0.664737 -0.427016
vn -0.639407 -0.753264 -0.154114
vn -0.639407 -0.753264 -0.154114
vn -0.639407 -0.753264 -0.154114
vn -0.639407 -0.753264 -0.154114
vn -0.639408 -0.753264 0.154114
vn -0.639408 -0.753264 0.154114
vn -0.639408 -0.753264 0.154114
vn -0.639408 -0.753264 0.154114
vn -0.622684 -0.622334 0.474306
vn -0.622684 -0.622334 0.474306
vn -0.622684 -0.622334 0.474306
vn -0.622684 -0.622334 0.474306
vn -0.814080 -0.181158 -0.551775
vn -0.814080 -0.181158 -0.551775
vn -0.814080 -0.181158 -0.551775
vn -0.814080 -0.181158 -0.551775
vn -0.958920 -0.200805 -0.200373
vn -0.958920 -0.200805 -0.200373
vn -0.958920 -0.200805 -0.200373
vn -0.958920 -0.200805 -0.200373
vn -0.958797 -0.207048 0.194525
vn -0.958797 -0.207048 0.194525
vn -0.958797 -0.207048 0.194525
vn -0.958797 -0.207048 0.194525
vn -0.779700 -0.146334 0.608814
vn -0.779700 -0.146334 0.608814
vn -0.779700 -0.146334 0.608814
vn -0.779700 -0.146334 0.608814
vn -0.818677 0.190227 -0.541831
vn -0.818677 0.190227 -0.541831
vn -0.818677 0.190227 -0.541831
vn -0.818677 0.190227 -0.541831
vn -0.931258 0.318061 -0.177752
vn -0.931258 0.318061 -0.177752
vn -0.931258 0.318061 -0.177752
vn -0.931258 0.318061 -0.177752
vn -0.883490 0.427407 0.191753
vn -0.883490 0.427407 0.191753
vn -0.883490 0.427407 0.191753
vn -0.883490 0.427407 0.191753
vn -0.728147 0.496324 0.472720
vn -0.728147 0.496324 0.472720
vn -0.728147 0.496324 0.472720
vn -0.728147 0.496324 0.472720
vn -0.954166 0.275015 -0.118040
vn -0.954166 0.275015 -0.118040
vn -0.954166 0.275015 -0.118040
vn -0.954166 0.275015 -0.118040
vn -0.312982 0.627954 0.712542
vn -0.312982 0.627954 0.712542
vn -0.312982 0.627954 0.712542
vn -0.260829 0.588460 0.765299
vn -0.260829 0.588460 0.765299
vn -0.260829 0.588460 0.765299
vn 0.035480 0.953952 0.297855
vn 0.035480 0.953952 0.297855
vn 0.035480 0.953952 0.297855
vn -0.965945 0.258375 0.013849
vn -0.965945 0.258375 0.013849
vn -0.965945 0.258375 0.013849
vn 0.103286 0.928924 0.355573
vn 0.103286 0.928924 0.355573
vn 0.103286 0.928924 0.355573
vn 0.034472 0.955385 0.293346
vn 0.034472 0.955385 0.293346
vn 0.034472 0.955385 0.293346
vn -0.482486 0.482663 0.730920
vn -0.482486 0.482663 0.730920
vn -0.482486 0.482663 0.730920
vn 0.436958 0.642971 0.629012
vn 0.436958 0.642971 0.629012
vn 0.436958 0.642971 0.629012
vn -0.611134 0.788399 0.070302
vn -0.611134 0.788399 0.070302
vn -0.611134 0.788399 0.070302
vn -0.611134 0.788399 0.070302
vn -0.776219 0.620071 -0.114000
vn -0.776219 0.620071 -0.114000
vn -0.776219 0.620071 -0.114000
vn -0.785506 0.617175 -0.045560
vn -0.785506 0.617175 -0.045560
vn -0.785506 0.617175 -0.045560
vn 0.898462 0.411124 0.154088
vn 0.898462 0.411124 0.154088
vn 0.898462 0.411124 0.154088
vn 0.898462 0.411124 0.154088
vn 0.913132 0.381821 -0.142838
vn 0.913132 0.381821 -0.142838
vn 0.913132 0.381821 -0.142838
vn 0.913132 0.381821 -0.142838
vn 0.846055 0.230478 -0.480699
vn 0.846055 0.230478 -0.480699
vn 0.846055 0.230478 -0.480699
vn 0.846055 0.230478 -0.480699
s off
f 1/1/1 2/2/2 7/3/3 6/4/4
f 2/2/5 3/5/6 8/6/7 7/3/8
f 3/5/9 4/7/10 9/8/11 8/6/12
f 4/7/13 5/9/14 10/10/15 9/8/16
f 6/4/17 7/3/18 12/11/19 11/12/20
f 7/3/21 8/6/22 13/13/23 12/11/24
f 8/6/25 9/8/26 14/14/27 13/13/28
f 9/8/29 10/10/30 15/15/31 14/14/32
f 11/12/33 12/11/34 17/16/35 16/17/36
f 12/11/37 13/13/38 18/18/39 17/16/40
f 13/13/41 14/14/42 19/19/43 18/18/44
f 14/14/45 15/15/46 20/20/47 19/19/48
f 16/17/49 17/16/50 22/21/51 21/22/52
f 17/16/53 18/18/54 23/23/55 22/21/56
f 18/18/57 19/19/58 24/24/59 23/23/60
f 19/19/61 20/20/62 25/25/63 24/24/64
f 21/22/65 22/21/66 27/26/67 26/27/68
f 22/21/69 23/23/70 28/28/71 27/26/72
f 23/23/73 24/24/74 29/29/75 28/28/76
f 24/24/77 25/25/78 30/30/79 29/29/80
f 26/27/81 27/26/82 32/31/83 31/32/84
f 27/26/85 28/28/86 33/33/87 32/31/88
f 28/28/89 29/29/90 34/34/91 33/33/92
f 34/34/93 30/30/94 35/35/95
f 31/32/96 32/31/97 37/36/98 36/37/99
f 32/31/100 33/33/101 38/38/102 37/36/103
f 33/33/104 34/34/105 39/39/106 38/38/107
f 34/34/108 35/35/109 40/40/110 39/39/111
f 36/37/112 37/36/113 42/41/114 41/42/115
f 37/36/116 38/38/117 43/43/118 42/41/119
f 38/38/120 39/39/121 44/44/122 43/43/123
f 39/39/124 40/40/125 45/45/126 44/44/127
f 41/42/128 42/41/129 47/46/130 46/47/131
f 42/41/132 43/43/133 48/48/134 47/46/135
f 43/43/136 44/44/137 49/49/138 48/48/139
f 44/44/140 45/45/141 50/50/142 49/49/143
f 46/47/144 47/46/145 52/51/146 51/52/147
f 47/46/148 48/48/149 53/53/150 52/51/151
f 48/48/152 49/49/153 54/54/154 53/53/155
f 49/49/156 50/50/157 55/55/158 54/54/159
f 51/52/160 52/51/161 57/56/162 56/57/163
f 52/51/164 53/53/165 58/58/166 57/56/167
f 53/53/168 54/54/169 59/59/170 58/58/171
f 54/54/172 55/55/173 60/60/174 59/59/175
f 56/57/176 57/56/177 62/61/178 61/62/179
f 57/56/180 58/58/181 63/63/182 62/61/183
f 58/58/184 59/59/185 64/64/186 63/63/187
f 59/59/188 60/60/189 65/65/190 64/64/191
f 61/62/192 62/61/193 67/66/194 66/67/195
f 62/61/196 63/63/197 68/68/198 67/66/199
f 63/63/200 64/64/201 69/69/202 68/68/203
f 64/64/204 65/65/205 70/70/206 69/69/207
f 66/67/208 67/66/209 72/71/210 71/72/211
f 67/66/212 68/68/213 73/73/214 72/71/215
f 68/68/216 69/69/217 74/74/218 73/73/219
f 69/69/220 70/70/221 75/75/222 74/74/223
f 71/72/224 72/71/225 77/76/226 76/77/227
f 72/71/228 73/73/229 78/78/230 77/76/231
f 73/73/232 74/74/233 79/79/234 78/78/235
f 74/74/236 75/75/237 80/80/238 79/79/239
f 76/77/240 77/76/241 2/2/242 1/1/243
f 77/76/244 78/78/245 3/5/246 2/2/247
f 78/78/248 79/79/249 4/7/250 3/5/251
f 79/79/252 80/80/253 5/9/254 4/7/255
f 70/70/256 65/65/257 60/60/258 81/81/259
f 75/75/260 70/70/261 81/81/262 82/82/263
f 80/80/264 75/75/265 82/82/266 83/83/267
f 5/9/268 80/80/269 83/83/270 10/10/271
f 81/81/272 60/60/273 55/55/274 84/84/275
f 82/82/276 81/81/277 84/84/278 85/85/279
f 83/83/280 82/82/281 85/85/282 86/86/283
f 10/10/284 83/83/285 86/86/286 15/15/287
f 102/102/288 50/50/289 87/87/290
f 101/101/291 102/102/292 87/87/293 88/88/294
f 89/89/295 101/101/296 88/88/297
f 15/15/298 86/86/299 89/89/300 20/20/301
f 87/87/302 50/50/303 45/45/304 40/40/305
f 88/88/306 87/87/307 40/40/308 35/35/309
f 89/89/310 88/88/311 30/30/312
f 20/20/313 89/89/314 30/30/315 25/25/316
f 61/62/317 66/67/318 90/90/319 56/57/320
f 66/67/321 71/72/322 91/91/323 90/90/324
f 71/72/325 76/77/326 92/92/327 91/91/328
f 76/77/329 1/1/330 6/4/331 92/92/332
f 56/57/333 90/90/334 93/93/335 51/52/336
f 90/90/337 91/91/338 94/94/339 93/93/340
f 91/91/341 92/92/342 95/95/343 94/94/344
f 92/92/345 6/4/346 11/12/347 95/95/348
f 51/52/349 93/93/350 100/100/351 46/47/352
f 93/93/353 94/94/354 99/99/355 100/100/356
f 94/94/357 95/95/358 98/98/359 99/99/360
f 95/95/361 11/12/362 16/17/363 98/98/364
f 46/47/365 96/96/366 36/37/367 41/42/368
f 36/37/369 97/97/370 31/32/371
f 97/97/372 26/27/373 31/32/374
f 98/98/375 16/17/376 21/22/377
f 96/96/378 97/97/379 36/37/380
f 97/97/381 98/98/382 26/27/383
f 98/98/384 21/22/385 26/27/386
f 29/29/387 30/30/388 34/34/389
f 30/30/390 88/88/391 35/35/392
f 97/97/393 96/96/394 99/99/395 98/98/396
f 100/100/397 99/99/398 96/96/399
f 46/47/400 100/100/401 96/96/402
f 86/86/403 85/85/404 101/101/405 89/89/406
f 85/85/407 84/84/408 102/102/409 101/101/410
f 84/84/411 55/55/412 50/50/413 102/102/414
