# This file uses centimeters as units for non-parametric coordinates.

v -42.934265 17.235758 -42.981033
v 42.934265 17.235758 -42.981033
v -42.934265 7.240766 -43.297394
v 42.934265 7.240766 -43.297394
v -42.934265 11.937952 124.397934
v -31.737951 11.937952 124.397934
v 31.737951 11.937952 124.397934
v 42.934265 11.937952 124.397934
v 42.934265 1.942963 124.081444
v 31.737951 1.942963 124.081444
v -31.737951 1.942963 124.081444
v -42.934265 1.942963 124.081444
v -31.737951 13.537151 124.448547
v -44.534264 13.537151 124.448547
v -31.737951 0.343762 124.030930
v -44.534264 0.343762 124.030930
v 44.534264 13.537151 124.448547
v 31.737951 13.537151 124.448547
v 44.534264 0.343762 124.030930
v 31.737951 0.343762 124.030930
v 31.737951 10.001017 131.856812
v 31.737951 3.404322 131.648041
v -31.737951 10.001017 131.856812
v -31.737951 3.404322 131.648041
v 31.737951 5.001136 133.349243
v 31.737951 8.299821 133.453644
v -31.737951 5.001136 133.349243
v -31.737951 8.299820 133.453644
v -31.737951 2.155008 136.560806
v -31.737951 0.019193 134.285370
v -44.534264 0.019193 134.285370
v -44.534264 2.155008 136.560806
v -31.737951 13.212585 134.702942
v -31.737951 10.937151 136.838760
v -44.534264 13.212580 134.702942
v -44.534264 10.937145 136.838760
v 31.737951 0.019193 134.285370
v 31.737951 2.155008 136.560806
v 44.534264 0.019195 134.285355
v 44.534264 2.155008 136.560791
v 31.737951 10.937145 136.838760
v 31.737951 13.212580 134.702942
v 44.534264 13.212585 134.702942
v 44.534264 10.937149 136.838760
v -31.737951 6.619032 -23.654350
v -31.737951 8.318180 -23.600548
v 31.737951 8.318180 -23.600548
v 31.737951 6.619032 -23.654350
v 31.737951 16.614025 -23.337982
v 31.737951 14.914875 -23.391754
v -31.737951 14.914875 -23.391754
v -31.737951 16.614025 -23.337982
v 26.940241 6.777386 -28.657402
v 26.940241 7.082410 -38.294342
v -26.940245 6.777386 -28.657402
v -26.940275 7.082410 -38.294342
v 26.940241 0.000000 -28.874084
v 26.940241 0.000000 -38.511024
v -26.940245 0.000000 -28.874084
v -26.940275 0.000000 -38.511024
v 42.934265 17.235758 -42.981033
v 31.737951 15.468750 12.845024
v 42.934265 15.468750 12.845024
v 31.737951 15.822010 1.684959
v 15.867386 16.025064 -4.730835
v 15.867386 17.235758 -42.981033
v 17.197119 26.761774 -24.703522
v 41.653507 26.761774 -24.703522
v 42.934265 16.667343 -25.023003
v 41.653507 17.621361 12.913155
v 41.653507 22.274780 1.889206
v 42.934265 15.822004 1.684967
v 32.961010 17.621361 12.913155
v 32.961010 22.274788 1.889198
v 32.961002 26.761774 -24.703522
v 16.156483 26.488970 -38.779976
v 41.653507 26.488970 -38.779976
v 15.948410 18.001102 -5.134521
v 31.941769 17.359581 1.410347
v -42.934265 17.235758 -42.981033
v -31.737951 15.468750 12.845024
v -42.934265 15.468750 12.845024
v -31.737951 15.822010 1.684959
v -15.867386 16.025064 -4.730835
v -15.867386 17.235758 -42.981033
v -17.197119 26.761774 -24.703522
v -41.653507 26.761774 -24.703522
v -42.934265 16.667343 -25.023003
v -41.653507 17.621361 12.913155
v -41.653507 22.274780 1.889206
v -42.934265 15.822004 1.684967
v -32.961010 17.621361 12.913155
v -32.961010 22.274788 1.889198
v -32.961002 26.761774 -24.703522
v -16.156483 26.488970 -38.779976
v -41.653507 26.488970 -38.779976
v -15.948410 18.001102 -5.134521
v -31.941769 17.359581 1.410347
vt 0.102771 0.229750
vt 0.102626 0.229738
vt 0.102632 0.229655
vt 0.102779 0.229666
vt 0.124891 0.355864
vt 0.124928 0.355868
vt 0.124326 0.355938
vt 0.124214 0.355937
vt 0.124212 0.355998
vt 0.124328 0.355999
vt 0.124926 0.355910
vt 0.124890 0.355905
vt 0.125218 0.355904
vt 0.125215 0.355953
vt 0.124543 0.356106
vt 0.124543 0.356032
vt 0.125168 0.355898
vt 0.124567 0.356002
vt 0.125165 0.355945
vt 0.124568 0.356076
vt 0.101786 0.229587
vt 0.101923 0.229598
vt 0.101929 0.229680
vt 0.101794 0.229669
vt 0.080098 0.276703
vt 0.080525 0.276844
vt 0.080238 0.277755
vt 0.079721 0.277573
vt 0.080242 0.277786
vt 0.080476 0.276854
vt 0.080046 0.276740
vt 0.079726 0.277622
vt 0.102781 0.229632
vt 0.102635 0.229621
vt 0.102641 0.229561
vt 0.102784 0.229571
vt 0.101927 0.229565
vt 0.101791 0.229555
vt 0.101823 0.229499
vt 0.101956 0.229509
vt 0.101803 0.229677
vt 0.101937 0.229688
vt 0.101964 0.229629
vt 0.101834 0.229618
vt 0.102773 0.229694
vt 0.102633 0.229683
vt 0.102626 0.229746
vt 0.102770 0.229758
vt 0.103400 0.222883
vt 0.103401 0.222864
vt 0.103368 0.222923
vt 0.103376 0.222946
vt 0.103548 0.222903
vt 0.103571 0.222887
vt 0.103537 0.223019
vt 0.103395 0.222996
vt 0.103394 0.223013
vt 0.103556 0.223040
vt 0.102589 0.222769
vt 0.102695 0.222784
vt 0.102692 0.222767
vt 0.102571 0.222750
vt 0.102608 0.222869
vt 0.102596 0.222882
vt 0.102711 0.222886
vt 0.102713 0.222901
vt 0.123082 0.349114
vt 0.123643 0.348529
vt 0.123644 0.348539
vt 0.123037 0.349178
vt 0.123644 0.348577
vt 0.123644 0.348586
vt 0.123100 0.349188
vt 0.123051 0.349227
vt 0.124036 0.348600
vt 0.124037 0.348590
vt 0.123687 0.349292
vt 0.123656 0.349369
vt 0.123687 0.349369
vt 0.124030 0.348650
vt 0.124032 0.348640
vt 0.123656 0.349420
vt 0.102645 0.222835
vt 0.102619 0.222812
vt 0.079747 0.277618
vt 0.080204 0.277788
vt 0.080203 0.277768
vt 0.079743 0.277598
vt 0.102624 0.222941
vt 0.102643 0.222896
vt 0.102657 0.222904
vt 0.102644 0.222952
vt 0.102636 0.222860
vt 0.102606 0.222847
vt 0.103373 0.223024
vt 0.103368 0.223016
vt 0.103355 0.223070
vt 0.103362 0.223080
vt 0.103359 0.222964
vt 0.103369 0.222977
vt 0.124501 0.356093
vt 0.124568 0.356076
vt 0.124328 0.355999
vt 0.124259 0.356012
vt 0.124568 0.356076
vt 0.124501 0.356093
vt 0.124328 0.355999
vt 0.124259 0.356012
vt 0.100818 0.227792
vt 0.100802 0.227878
vt 0.100883 0.227763
vt 0.100883 0.227709
vt 0.101313 0.227775
vt 0.101329 0.227833
vt 0.101189 0.228085
vt 0.100864 0.228088
vt 0.100967 0.227816
vt 0.101245 0.227860
vt 0.100684 0.228014
vt 0.100666 0.228069
vt 0.100786 0.228173
vt 0.100842 0.228042
vt 0.100625 0.228143
vt 0.100603 0.228158
vt 0.100810 0.228197
vt 0.101189 0.228107
vt 0.100867 0.228105
vt 0.100818 0.227792
vt 0.100883 0.227709
vt 0.100883 0.227763
vt 0.100802 0.227878
vt 0.101313 0.227775
vt 0.101329 0.227833
vt 0.101189 0.228085
vt 0.101245 0.227860
vt 0.100967 0.227816
vt 0.100864 0.228088
vt 0.100666 0.228069
vt 0.100684 0.228014
vt 0.100842 0.228042
vt 0.100786 0.228173
vt 0.100603 0.228158
vt 0.100625 0.228143
vt 0.100810 0.228197
vt 0.101189 0.228107
vt 0.100867 0.228105
vn 0.000000 -0.031634 0.999499
vn 0.000000 -0.031634 0.999499
vn 0.000000 -0.031634 0.999500
vn 0.000000 -0.031634 0.999499
vn -0.000000 0.999500 0.031636
vn -0.000000 0.999500 0.031636
vn -0.000000 0.999499 0.031636
vn -0.000000 0.999500 0.031636
vn -0.000000 -0.999500 -0.031636
vn -0.000000 -0.999499 -0.031636
vn -0.000000 -0.999500 -0.031636
vn -0.000000 -0.999500 -0.031636
vn 1.000000 0.000000 0.000000
vn 1.000000 0.000000 0.000000
vn 1.000000 0.000000 0.000000
vn 1.000000 0.000000 0.000000
vn -1.000000 0.000000 0.000000
vn -1.000000 0.000000 0.000000
vn -1.000000 0.000000 0.000000
vn -1.000000 0.000000 0.000000
vn 0.000000 0.999500 0.031636
vn 0.000000 0.999500 0.031636
vn 0.000000 0.999499 0.031636
vn 0.000000 0.999500 0.031636
vn 0.000000 -0.999499 -0.031636
vn 0.000000 -0.999499 -0.031636
vn 0.000000 -0.999499 -0.031636
vn 0.000000 -0.999500 -0.031636
vn 0.000002 -0.031635 0.999500
vn 0.000002 -0.031635 0.999499
vn 0.000002 -0.031635 0.999499
vn 0.000002 -0.031635 0.999500
vn 0.000000 0.999499 0.031636
vn 0.000000 0.999499 0.031636
vn 0.000000 0.999499 0.031636
vn 0.000000 0.999499 0.031636
vn 0.000000 -0.999499 -0.031636
vn 0.000000 -0.999499 -0.031636
vn 0.000000 -0.999499 -0.031636
vn 0.000000 -0.999499 -0.031636
vn -0.000000 0.999499 0.031636
vn -0.000000 0.999499 0.031636
vn -0.000000 0.999499 0.031636
vn -0.000000 0.999499 0.031636
vn -0.000000 0.999499 0.031636
vn -0.000000 0.999499 0.031636
vn -0.000000 0.999499 0.031636
vn -0.000000 0.999499 0.031636
vn 0.000000 -0.999499 -0.031636
vn 0.000000 -0.999500 -0.031636
vn 0.000000 -0.999500 -0.031636
vn 0.000000 -0.999500 -0.031636
vn 0.000000 -0.999499 -0.031636
vn 0.000000 -0.999499 -0.031636
vn 0.000000 -0.999499 -0.031636
vn 0.000000 -0.999499 -0.031636
vn -1.000000 0.000000 0.000000
vn -1.000000 0.000000 0.000000
vn -1.000000 0.000000 0.000000
vn -1.000000 0.000000 0.000000
vn 1.000000 -0.000001 0.000000
vn 1.000000 -0.000001 0.000000
vn 1.000000 -0.000001 0.000000
vn 1.000000 -0.000001 0.000000
vn 0.000000 0.031633 -0.999500
vn 0.000000 0.031633 -0.999500
vn 0.000000 0.031633 -0.999500
vn 0.000000 0.031633 -0.999500
vn 0.000000 0.031571 -0.999502
vn 0.000000 0.031571 -0.999502
vn 0.000000 0.031571 -0.999502
vn 0.000000 0.031571 -0.999502
vn -0.000032 0.031643 -0.999499
vn -0.000032 0.031643 -0.999499
vn -0.000032 0.031643 -0.999499
vn -0.000032 0.031643 -0.999499
vn 0.000000 0.031633 -0.999500
vn 0.000000 0.031633 -0.999500
vn 0.000000 0.031633 -0.999500
vn 0.000000 0.031633 -0.999500
vn 0.000039 0.031643 -0.999499
vn 0.000039 0.031643 -0.999499
vn 0.000039 0.031643 -0.999499
vn 0.000039 0.031643 -0.999499
vn 0.000000 0.031571 -0.999502
vn 0.000000 0.031571 -0.999502
vn 0.000000 0.031571 -0.999502
vn 0.000000 0.031571 -0.999502
vn -1.000000 0.000000 0.000000
vn -1.000000 0.000000 0.000000
vn -1.000000 0.000000 0.000000
vn -1.000000 0.000000 0.000000
vn -1.000000 0.000000 0.000000
vn -1.000000 0.000000 0.000000
vn -1.000000 0.000000 0.000000
vn -1.000000 0.000000 0.000000
vn 1.000000 0.000000 0.000000
vn 1.000000 0.000000 0.000000
vn 1.000000 0.000000 0.000000
vn 1.000000 0.000000 0.000000
vn 1.000000 0.000001 0.000000
vn 1.000000 0.000001 0.000000
vn 1.000000 0.000001 0.000000
vn 1.000000 0.000001 0.000000
vn -1.000000 -0.000001 0.000000
vn -1.000000 -0.000001 0.000000
vn -1.000000 -0.000001 0.000000
vn -1.000000 -0.000001 0.000000
vn 0.000000 -0.729123 0.684383
vn 0.000000 -0.729123 0.684383
vn 0.000000 -0.729123 0.684383
vn 0.000000 -0.729123 0.684383
vn 0.000000 0.684388 0.729118
vn 0.000000 0.684388 0.729118
vn 0.000000 0.684388 0.729118
vn 0.000000 0.684388 0.729118
vn 0.000000 -0.031633 0.999500
vn 0.000000 -0.031633 0.999500
vn 0.000000 -0.031633 0.999500
vn 0.000000 -0.031633 0.999500
vn -1.000000 0.000000 0.000000
vn -1.000000 0.000000 0.000000
vn -1.000000 0.000000 0.000000
vn -1.000000 0.000000 0.000000
vn -1.000000 0.000000 0.000000
vn -1.000000 0.000000 0.000000
vn -1.000000 0.000000 0.000000
vn -1.000000 0.000000 0.000000
vn 1.000000 0.000000 0.000000
vn 1.000000 0.000000 0.000000
vn 1.000000 0.000000 0.000000
vn 1.000000 0.000000 0.000000
vn 1.000000 0.000000 0.000000
vn 1.000000 0.000000 0.000000
vn 1.000000 0.000000 0.000000
vn 1.000000 0.000000 0.000000
vn 1.000000 0.000000 0.000000
vn 1.000000 0.000000 0.000000
vn 1.000000 0.000000 0.000000
vn 1.000000 0.000000 0.000000
vn 1.000000 0.000000 0.000000
vn 1.000000 0.000000 0.000000
vn 1.000000 0.000000 0.000000
vn 1.000000 0.000000 0.000000
vn -1.000000 0.000000 0.000000
vn -1.000000 0.000000 0.000000
vn -1.000000 0.000000 0.000000
vn -1.000000 0.000000 0.000000
vn -1.000000 0.000000 0.000000
vn -1.000000 0.000000 0.000000
vn -1.000000 0.000000 0.000000
vn -1.000000 0.000000 0.000000
vn 1.000000 0.000000 0.000000
vn 1.000000 0.000000 0.000000
vn 1.000000 0.000000 0.000000
vn 1.000000 0.000000 0.000000
vn 0.000000 -0.729122 0.684383
vn 0.000000 -0.729122 0.684383
vn 0.000000 -0.729122 0.684383
vn 0.000000 -0.729122 0.684383
vn -0.000001 0.684384 0.729121
vn -0.000001 0.684384 0.729122
vn -0.000001 0.684384 0.729121
vn -0.000001 0.684384 0.729122
vn 0.000002 -0.729123 0.684383
vn 0.000002 -0.729123 0.684383
vn 0.000002 -0.729123 0.684383
vn 0.000002 -0.729123 0.684383
vn -0.000001 0.684384 0.729122
vn -0.000001 0.684384 0.729122
vn -0.000001 0.684384 0.729122
vn -0.000001 0.684384 0.729122
vn 1.000000 0.000000 0.000000
vn 1.000000 0.000000 0.000000
vn 1.000000 0.000000 0.000000
vn 1.000000 0.000000 0.000000
vn -1.000000 0.000000 0.000000
vn -1.000000 0.000000 0.000000
vn -1.000000 0.000000 0.000000
vn -1.000000 0.000000 0.000000
vn 0.000000 -0.031631 0.999500
vn 0.000000 -0.031631 0.999500
vn 0.000000 -0.031631 0.999500
vn 0.000000 -0.031631 0.999500
vn 0.000000 0.999499 0.031636
vn 0.000000 0.999500 0.031636
vn -0.000000 0.999500 0.031636
vn -0.000000 0.999499 0.031636
vn 0.000000 0.031636 -0.999499
vn 0.000000 0.031636 -0.999499
vn 0.000000 0.031636 -0.999499
vn 0.000000 0.031636 -0.999499
vn 0.000000 -0.031649 0.999499
vn 0.000000 -0.031649 0.999499
vn 0.000000 -0.031649 0.999499
vn 0.000000 -0.031649 0.999499
vn 0.000000 -1.000000 0.000000
vn 0.000000 -1.000000 0.000000
vn 0.000000 -1.000000 0.000000
vn 0.000000 -1.000000 0.000000
vn 0.000000 -0.999500 -0.031636
vn 0.000000 -0.999499 -0.031636
vn 0.000000 -0.999499 -0.031636
vn 0.000000 -0.999499 -0.031636
vn 0.000000 -0.999500 -0.031636
vn 0.000000 -0.999499 -0.031636
vn 0.000000 -0.999500 -0.031636
vn 0.000000 -0.999499 -0.031636
vn -0.000000 -0.999499 -0.031636
vn -0.000000 -0.999500 -0.031636
vn -0.000000 -0.999500 -0.031636
vn -0.000000 -0.999500 -0.031636
vn 0.000000 -0.999499 -0.031636
vn 0.000000 -0.999499 -0.031636
vn 0.000000 -0.999499 -0.031636
vn 0.000000 -0.999499 -0.031636
vn 1.000000 0.000000 0.000000
vn 1.000000 0.000000 0.000000
vn 1.000000 0.000000 0.000000
vn 1.000000 0.000000 0.000000
vn 0.000000 -0.031955 0.999489
vn 0.000000 -0.031955 0.999489
vn 0.000000 -0.031955 0.999489
vn 0.000000 -0.031955 0.999489
vn -1.000000 -0.000000 0.000003
vn -1.000000 -0.000000 0.000003
vn -1.000000 -0.000000 0.000003
vn -1.000000 -0.000000 0.000003
vn 0.000000 0.030580 -0.999532
vn 0.000000 0.030580 -0.999532
vn 0.000000 0.030580 -0.999532
vn 0.000000 0.030580 -0.999532
vn 0.991386 0.130971 0.001209
vn 0.991386 0.130971 0.001209
vn 0.991386 0.130971 0.001209
vn 0.991386 0.130971 0.001209
vn 0.000000 0.413399 -0.910550
vn 0.000000 0.413399 -0.910550
vn 0.000000 0.413399 -0.910550
vn 0.000000 0.413399 -0.910550
vn -0.056756 0.928715 0.366426
vn -0.056756 0.928715 0.366426
vn -0.056756 0.928715 0.366426
vn -0.056756 0.928715 0.366426
vn 0.988187 0.152489 0.015255
vn 0.988187 0.152489 0.015255
vn 0.988187 0.152489 0.015255
vn 0.988187 0.152489 0.015255
vn -0.977419 0.194677 0.082177
vn -0.977419 0.194677 0.082177
vn -0.977419 0.194677 0.082177
vn 0.957036 0.282854 0.063837
vn 0.957036 0.282854 0.063837
vn 0.957036 0.282854 0.063837
vn 0.957036 0.282854 0.063837
vn 0.000000 0.921284 0.388891
vn 0.000000 0.921284 0.388891
vn 0.000000 0.921284 0.388891
vn 0.000000 0.921284 0.388891
vn 0.000000 0.986062 0.166378
vn 0.000000 0.986062 0.166378
vn 0.000000 0.986062 0.166378
vn 0.000000 0.986062 0.166378
vn -0.979261 0.199779 0.033709
vn -0.979261 0.199779 0.033709
vn -0.979261 0.199779 0.033709
vn 0.000000 0.999812 -0.019376
vn 0.000000 0.999812 -0.019376
vn 0.000000 0.999812 -0.019376
vn 0.000000 0.999812 -0.019376
vn 0.000000 0.999812 -0.019377
vn 0.000000 0.999812 -0.019377
vn 0.000000 0.999812 -0.019377
vn 0.000000 -0.031636 0.999499
vn 0.000000 -0.031636 0.999499
vn 0.000000 -0.031636 0.999499
vn 0.000000 -0.031636 0.999499
vn -0.364116 0.204908 0.908533
vn -0.364116 0.204908 0.908533
vn -0.364116 0.204908 0.908533
vn -0.364116 0.204908 0.908533
vn -0.931008 0.362416 0.043334
vn -0.931008 0.362416 0.043334
vn -0.931008 0.362416 0.043334
vn -0.931008 0.362416 0.043334
vn -0.991386 0.130971 0.001209
vn -0.991386 0.130971 0.001209
vn -0.991386 0.130971 0.001209
vn -0.991386 0.130971 0.001209
vn 0.000000 0.413399 -0.910550
vn 0.000000 0.413399 -0.910550
vn 0.000000 0.413399 -0.910550
vn 0.000000 0.413399 -0.910550
vn 0.056756 0.928715 0.366426
vn 0.056756 0.928715 0.366426
vn 0.056756 0.928715 0.366426
vn 0.056756 0.928715 0.366426
vn -0.988187 0.152489 0.015255
vn -0.988187 0.152489 0.015255
vn -0.988187 0.152489 0.015255
vn -0.988187 0.152489 0.015255
vn 0.977419 0.194677 0.082177
vn 0.977419 0.194677 0.082177
vn 0.977419 0.194677 0.082177
vn -0.957036 0.282854 0.063837
vn -0.957036 0.282854 0.063837
vn -0.957036 0.282854 0.063837
vn -0.957036 0.282854 0.063837
vn -0.000000 0.921284 0.388891
vn -0.000000 0.921284 0.388891
vn -0.000000 0.921284 0.388891
vn -0.000000 0.921284 0.388891
vn -0.000000 0.986062 0.166378
vn -0.000000 0.986062 0.166378
vn -0.000000 0.986062 0.166378
vn -0.000000 0.986062 0.166378
vn -0.000427 0.912582 0.408893
vn 0.000427 0.912582 0.408893
vn 0.000427 0.912582 0.408893
vn -0.000427 0.912582 0.408893
vn 0.000000 0.413399 -0.910550
vn 0.000000 0.413399 -0.910550
vn 0.000000 0.413399 -0.910550
vn 0.000000 0.413399 -0.910550
vn 0.979261 0.199780 0.033709
vn 0.979261 0.199780 0.033709
vn 0.979261 0.199780 0.033709
vn 0.000000 0.999812 -0.019377
vn 0.000000 0.999812 -0.019377
vn 0.000000 0.999812 -0.019377
vn 0.000000 0.999812 -0.019377
vn 0.000000 0.999812 -0.019377
vn 0.000000 0.999812 -0.019377
vn 0.000000 0.999812 -0.019377
vn 0.000000 0.999812 -0.019377
vn 0.000000 0.999812 -0.019377
vn 0.000000 0.999812 -0.019377
vn 0.000000 0.999812 -0.019377
vn 0.000000 -0.031636 0.999499
vn 0.000000 -0.031636 0.999499
vn 0.000000 -0.031636 0.999499
vn 0.000000 -0.031636 0.999499
vn 0.004896 0.162072 0.986767
vn -0.004896 0.162072 0.986767
vn -0.004896 0.162072 0.986767
vn 0.004896 0.162072 0.986767
vn 0.364116 0.204908 0.908533
vn 0.364116 0.204908 0.908533
vn 0.364116 0.204908 0.908533
vn 0.364116 0.204908 0.908533
vn 0.931008 0.362416 0.043334
vn 0.931008 0.362416 0.043334
vn 0.931008 0.362416 0.043334
vn 0.931008 0.362416 0.043334
s off
f 32/1/1 29/2/2 34/3/3 36/4/4
f 5/5/5 6/6/6 52/7/7 1/8/8
f 3/9/9 45/10/10 11/11/11 12/12/12
f 8/13/13 9/14/14 4/15/15 2/16/16
f 1/8/17 3/9/18 12/12/19 5/5/20
f 7/17/21 8/13/22 2/16/23 49/18/24
f 9/14/25 10/19/26 48/20/27 4/15/28
f 44/21/29 41/22/30 38/23/31 40/24/32
f 50/25/33 51/26/34 23/27/35 21/28/36
f 24/29/37 46/30/38 47/31/39 22/32/40
f 35/33/41 33/34/42 13/35/43 14/36/44
f 42/37/45 43/38/46 17/39/47 18/40/48
f 39/41/49 37/42/50 20/43/51 19/44/52
f 16/45/53 15/46/54 30/47/55 31/48/56
f 35/33/57 31/48/58 32/1/59 36/4/60
f 6/49/61 13/50/62 33/51/63 23/52/64
f 6/49/65 5/53/66 14/54/67 13/50/68
f 12/55/69 11/56/70 15/57/71 16/58/72
f 5/53/73 12/55/74 16/58/75 14/54/76
f 8/59/77 7/60/78 18/61/79 17/62/80
f 9/63/81 8/59/82 17/62/83 19/64/84
f 10/65/85 9/63/86 19/64/87 20/66/88
f 7/67/89 49/68/90 50/69/91 21/70/92
f 47/71/93 48/72/94 10/73/95 22/74/96
f 51/75/97 52/76/98 6/77/99 23/78/100
f 11/79/101 45/80/102 46/81/103 24/82/104
f 7/60/105 21/83/106 42/84/107 18/61/108
f 24/29/109 22/32/110 25/85/111 27/86/112
f 21/28/113 23/27/114 28/87/115 26/88/116
f 27/86/117 25/85/118 26/88/119 28/87/120
f 38/89/121 25/90/122 22/91/123 37/92/124
f 21/83/125 26/93/126 41/94/127 42/84/128
f 24/95/129 27/96/130 29/97/131 30/98/132
f 34/99/133 28/100/134 23/52/135 33/51/136
f 24/95/137 30/98/138 15/57/139 11/56/140
f 34/99/141 29/97/142 27/96/143 28/100/144
f 38/89/145 41/94/146 26/93/147 25/90/148
f 37/92/149 22/91/150 10/65/151 20/66/152
f 40/24/153 39/41/154 43/38/155 44/21/156
f 30/47/157 29/2/158 32/1/159 31/48/160
f 34/3/161 33/34/162 35/33/163 36/4/164
f 38/23/165 37/42/166 39/41/167 40/24/168
f 42/37/169 41/22/170 44/21/171 43/38/172
f 43/38/173 39/41/174 19/44/175 17/39/176
f 14/36/177 16/45/178 31/48/179 35/33/180
f 50/69/181 49/68/182 52/76/183 51/75/184
f 49/18/185 2/16/186 1/8/187 52/7/188
f 2/16/189 4/15/190 3/9/191 1/8/192
f 48/72/193 47/71/194 46/81/195 45/80/196
f 58/101/197 57/102/198 59/103/199 60/104/200
f 4/15/201 48/20/202 53/105/203 54/106/204
f 48/20/205 45/10/206 55/107/207 53/105/208
f 45/10/209 3/9/210 56/108/211 55/107/212
f 3/9/213 4/15/214 54/106/215 56/108/216
f 54/106/217 53/105/218 57/102/219 58/101/220
f 53/105/221 55/107/222 59/103/223 57/102/224
f 55/107/225 56/108/226 60/104/227 59/103/228
f 56/108/229 54/106/230 58/101/231 60/104/232
f 68/109/233 69/110/234 61/111/235 77/112/236
f 76/113/237 77/112/238 61/111/239 66/114/240
f 78/115/241 79/116/242 75/117/243 67/118/244
f 68/109/245 71/119/246 72/120/247 69/110/248
f 79/116/249 73/121/250 74/122/251
f 72/120/252 71/119/253 70/123/254 63/124/255
f 74/122/256 73/121/257 70/123/258 71/119/259
f 68/109/260 75/117/261 74/122/262 71/119/263
f 74/122/264 75/117/265 79/116/266
f 67/118/267 75/117/268 77/112/269 76/113/270
f 77/112/271 75/117/272 68/109/273
f 73/121/274 62/125/275 63/124/276 70/123/277
f 64/127/278 79/116/279 78/115/280 65/126/281
f 62/125/282 73/121/283 79/116/284 64/127/285
f 87/128/286 96/129/287 80/130/288 88/131/289
f 95/132/290 85/133/291 80/130/292 96/129/293
f 97/134/294 86/135/295 94/136/296 98/137/297
f 87/128/298 88/131/299 91/138/300 90/139/301
f 98/137/302 93/140/303 92/141/304
f 91/138/305 82/142/306 89/143/307 90/139/308
f 93/140/309 90/139/310 89/143/311 92/141/312
f 87/128/313 90/139/314 93/140/315 94/136/316
f 67/118/317 86/135/318 97/134/319 78/115/320
f 66/114/321 85/133/322 95/132/323 76/113/324
f 93/140/325 98/137/326 94/136/327
f 76/113/328 95/132/329 86/135/330 67/118/331
f 86/135/332 95/132/333 96/129/334 94/136/335
f 96/129/336 87/128/337 94/136/338
f 92/141/339 89/143/340 82/142/341 81/144/342
f 78/115/343 97/134/344 84/145/345 65/126/346
f 83/146/347 84/145/348 97/134/349 98/137/350
f 81/144/351 83/146/352 98/137/353 92/141/354
