# This file uses centimeters as units for non-parametric coordinates.

v -10.389709 0.000000 15.297729
v 11.724426 0.000000 15.297729
v -11.376831 0.000000 -15.660370
v 10.737305 0.000000 -15.660370
v -10.389709 1.189047 15.297729
v 11.724426 1.189047 15.297729
v 10.737305 1.189047 -15.660370
v -11.376831 1.189047 -15.660370
v 10.737305 0.000000 -5.702393
v -11.376831 0.000000 3.085480
v 10.737366 1.189047 -6.007172
v -11.376831 1.189047 2.780731
v 11.057037 1.431091 -0.701904
v 11.057068 2.620138 -0.911133
v -11.057098 1.431091 6.128998
v -11.057098 2.620138 5.919739
v 11.724426 0.000000 5.375671
v 11.724457 1.189047 5.237457
v -10.389709 0.000000 10.168365
v -10.389709 1.189047 10.030121
vt 0.362897 0.325850
vt 0.388783 0.325850
vt 0.388783 0.357552
vt 0.362897 0.357552
vt 0.362897 0.325850
vt 0.362897 0.357552
vt 0.388783 0.357552
vt 0.388783 0.325850
vt 0.362897 0.325850
vt 0.388783 0.325850
vt 0.388783 0.357552
vt 0.362897 0.357552
vt 0.388783 0.348086
vt 0.388783 0.348086
vt 0.362897 0.339732
vt 0.362897 0.339732
vt 0.388783 0.348376
vt 0.362897 0.340022
vt 0.388783 0.342369
vt 0.388783 0.342369
vt 0.388783 0.342568
vt 0.362897 0.335875
vt 0.362897 0.335875
vt 0.362897 0.336074
vt 0.388783 0.335283
vt 0.388783 0.335283
vt 0.388783 0.335414
vt 0.362897 0.330727
vt 0.362897 0.330727
vt 0.362897 0.330858
vn 0.000000 1.000000 0.000000
vn 0.000000 1.000000 0.000000
vn 0.000000 1.000000 0.000000
vn 0.000000 1.000000 0.000000
vn -0.000000 -1.000000 -0.000000
vn -0.000000 -1.000000 -0.000000
vn -0.000000 -1.000000 -0.000000
vn -0.000000 -1.000000 -0.000000
vn 0.000000 0.000000 1.000000
vn 0.000000 0.000000 1.000000
vn 0.000000 0.000000 1.000000
vn 0.000000 0.000000 1.000000
vn 1.000000 -0.000013 0.000002
vn 1.000000 -0.000013 0.000002
vn 1.000000 -0.000013 0.000002
vn 1.000000 -0.000013 0.000002
vn 0.000000 0.000000 -1.000000
vn 0.000000 0.000000 -1.000000
vn 0.000000 0.000000 -1.000000
vn 0.000000 0.000000 -1.000000
vn -1.000000 0.000001 0.000000
vn -1.000000 0.000001 0.000000
vn -1.000000 0.000001 0.000000
vn -1.000000 0.000001 0.000000
vn 0.000000 1.000000 0.000000
vn 0.000000 1.000000 0.000000
vn 0.000000 1.000000 0.000000
vn 0.000000 1.000000 0.000000
vn 0.000000 -1.000000 -0.000000
vn 0.000000 -1.000000 -0.000000
vn 0.000000 -1.000000 -0.000000
vn 0.000000 -1.000000 -0.000000
vn 1.000000 -0.000026 -0.000003
vn 1.000000 -0.000026 -0.000003
vn 1.000000 -0.000026 -0.000003
vn 1.000000 -0.000026 -0.000003
vn -0.995405 0.020229 0.093591
vn -0.995405 0.020229 0.093591
vn -0.995405 0.020229 0.093591
vn -0.995405 0.020229 0.093591
vn -0.112445 0.941259 -0.318414
vn -0.112445 0.941259 -0.318414
vn -0.112445 0.941259 -0.318414
vn -0.112445 0.941259 -0.318414
vn 0.114737 -0.938761 0.324905
vn 0.114737 -0.938761 0.324905
vn 0.114737 -0.938761 0.324905
vn 0.114737 -0.938761 0.324905
vn 0.998142 -0.012910 -0.059555
vn 0.998142 -0.012910 -0.059555
vn 0.998142 -0.012910 -0.059555
vn 0.998142 -0.012910 -0.059555
vn -0.985118 0.024853 0.170072
vn -0.985118 0.024853 0.170072
vn -0.985118 0.024853 0.170072
vn -0.985118 0.024853 0.170072
vn 0.068290 0.963231 0.259850
vn 0.068290 0.963231 0.259850
vn 0.068290 0.963231 0.259850
vn 0.068290 0.963231 0.259850
vn -0.069149 -0.962283 -0.263116
vn -0.069149 -0.962283 -0.263116
vn -0.069149 -0.962283 -0.263116
vn -0.069149 -0.962283 -0.263116
vn 0.993537 -0.016434 -0.112316
vn 0.993537 -0.016434 -0.112316
vn 0.993537 -0.016434 -0.112316
vn 0.993537 -0.016434 -0.112316
vn -1.000000 0.000000 0.000000
vn -1.000000 0.000000 0.000000
vn -1.000000 0.000000 0.000000
vn -1.000000 0.000000 0.000000
s off
f 5/1/1 6/2/2 18/27/3 20/30/4
f 1/5/5 19/29/6 17/26/7 2/8/8
f 1/9/9 2/10/10 6/2/11 5/1/12
f 2/10/13 17/25/14 18/27/15 6/2/16
f 4/11/17 3/12/18 8/4/19 7/3/20
f 3/12/21 10/15/22 12/18/23 8/4/24
f 12/18/25 11/17/26 7/3/27 8/4/28
f 9/14/29 10/16/30 3/6/31 4/7/32
f 11/17/33 9/13/34 4/11/35 7/3/36
f 12/18/37 10/15/38 15/22/39 16/24/40
f 16/24/41 14/21/42 11/17/43 12/18/44
f 13/20/45 15/23/46 10/16/47 9/14/48
f 14/21/49 13/19/50 9/13/51 11/17/52
f 16/24/53 15/22/54 19/28/55 20/30/56
f 20/30/57 18/27/58 14/21/59 16/24/60
f 17/26/61 19/29/62 15/23/63 13/20/64
f 18/27/65 17/25/66 13/19/67 14/21/68
f 20/30/69 19/28/70 1/9/71 5/1/72
