# This file uses centimeters as units for non-parametric coordinates.

v -75.805878 -50.000000 2.013092
v 75.805923 -50.000000 2.013092
v -75.805878 58.020535 2.013092
v 75.805923 58.020535 2.013092
v -75.805878 58.020535 -2.012932
v 75.805923 58.020535 -2.012932
v -75.805878 -50.000000 -2.012932
v 75.805923 -50.000000 -2.012932
v -69.022400 -44.295055 2.013092
v 69.022491 -44.295055 2.013092
v 69.022491 52.315590 2.013092
v -69.022400 52.315590 2.013092
v -67.085747 -41.083858 -0.648385
v 67.085884 -41.083858 -0.648385
v 67.085884 49.104393 -0.648385
v -67.085747 49.104393 -0.648385
vt 0.003127 0.325859
vt 0.003127 0.325859
vt 0.003127 0.325859
vt 0.003127 0.325859
vt 0.003127 0.325859
vt 0.003127 0.325859
vt 0.003127 0.325859
vt 0.003127 0.325859
vt 0.003127 0.325859
vt 0.003127 0.325859
vt 0.003127 0.325859
vt 0.003127 0.325859
vt 0.003127 0.325859
vt 0.003127 0.325859
vt 0.003127 0.325859
vt 0.003127 0.325859
vt 0.003127 0.325859
vt 0.003127 0.325859
vt 0.003127 0.325859
vt 0.003127 0.325859
vt 0.003127 0.325859
vt 0.003127 0.325859
vt 0.080688 0.227665
vt 0.080688 0.227665
vt 0.080688 0.227665
vt 0.080688 0.227665
vn 0.000000 0.000000 1.000000
vn 0.000000 0.000000 1.000000
vn 0.000000 0.000000 1.000000
vn 0.000000 0.000000 1.000000
vn 0.000000 1.000000 0.000000
vn 0.000000 1.000000 0.000000
vn 0.000000 1.000000 0.000000
vn 0.000000 1.000000 0.000000
vn 0.000000 0.000000 -1.000000
vn 0.000000 0.000000 -1.000000
vn 0.000000 0.000000 -1.000000
vn 0.000000 0.000000 -1.000000
vn 0.000000 -1.000000 0.000000
vn 0.000000 -1.000000 0.000000
vn 0.000000 -1.000000 0.000000
vn 0.000000 -1.000000 0.000000
vn 1.000000 0.000000 0.000000
vn 1.000000 0.000000 0.000000
vn 1.000000 0.000000 0.000000
vn 1.000000 0.000000 0.000000
vn -1.000000 0.000000 0.000000
vn -1.000000 0.000000 0.000000
vn -1.000000 0.000000 0.000000
vn -1.000000 0.000000 0.000000
vn 0.000000 0.000000 1.000000
vn 0.000000 0.000000 1.000000
vn 0.000000 0.000000 1.000000
vn 0.000000 0.000000 1.000000
vn -0.000000 0.000000 1.000000
vn -0.000000 0.000000 1.000000
vn -0.000000 0.000000 1.000000
vn -0.000000 0.000000 1.000000
vn 0.000000 0.000000 1.000000
vn 0.000000 0.000000 1.000000
vn 0.000000 0.000000 1.000000
vn 0.000000 0.000000 1.000000
vn 0.000000 0.000000 1.000000
vn 0.000000 0.000000 1.000000
vn 0.000000 0.000000 1.000000
vn 0.000000 0.000000 1.000000
vn 0.000000 0.638128 0.769931
vn 0.000000 0.638128 0.769931
vn 0.000000 0.638128 0.769931
vn 0.000000 0.638128 0.769931
vn -0.808593 0.000000 0.588368
vn -0.808593 0.000000 0.588368
vn -0.808593 0.000000 0.588368
vn -0.808593 0.000000 0.588368
vn 0.000000 -0.638127 0.769931
vn 0.000000 -0.638127 0.769931
vn 0.000000 -0.638127 0.769931
vn 0.000000 -0.638127 0.769931
vn 0.808587 0.000000 0.588377
vn 0.808587 0.000000 0.588377
vn 0.808587 0.000000 0.588377
vn 0.808587 0.000000 0.588377
s off
f 13/23/1 14/24/2 15/25/3 16/26/4
f 3/3/5 4/4/6 6/6/7 5/5/8
f 5/5/9 6/6/10 8/8/11 7/7/12
f 7/7/13 8/8/14 2/10/15 1/9/16
f 2/2/17 8/11/18 6/12/19 4/4/20
f 7/13/21 1/1/22 3/3/23 5/14/24
f 1/1/25 2/2/26 10/16/27 9/15/28
f 2/2/29 4/4/30 11/17/31 10/16/32
f 4/4/33 3/3/34 12/18/35 11/17/36
f 3/3/37 1/1/38 9/15/39 12/18/40
f 9/15/41 10/16/42 14/20/43 13/19/44
f 10/16/45 11/17/46 15/21/47 14/20/48
f 11/17/49 12/18/50 16/22/51 15/21/52
f 12/18/53 9/15/54 13/19/55 16/22/56
