# This file uses centimeters as units for non-parametric coordinates.

v 0.325324 -2.485923 4.033533
v 0.325324 -2.613667 0.777437
v 0.325324 -1.163542 -5.729757
v 1.385770 0.138501 2.154160
v 1.385770 0.138501 0.777437
v 0.654307 0.138501 -6.184143
v 0.325324 1.994957 4.064385
v 0.325324 2.807420 1.876829
v 0.325324 1.440545 -5.729687
v 0.384051 -1.568613 6.151772
v 0.896049 -2.318810 4.264608
v 1.563359 0.138501 2.442873
v 0.423273 -0.411135 6.656745
v 0.831659 1.994956 4.353204
v 0.384051 1.201872 5.477532
v 0.158679 -2.469062 -7.034435
v 0.158679 0.171631 -8.189255
v 0.158679 2.746049 -7.034363
v 0.158679 -2.923741 -10.145714
v 0.158679 3.377071 -10.322813
v 0.462622 -2.036640 -7.378372
v 0.462622 1.904120 -7.378372
v 0.325324 2.533622 -3.735967
v 0.134089 4.441227 1.032982
v 0.134089 3.525981 -3.686967
v 0.325324 -2.399309 -1.472133
v 0.157213 -4.441226 -0.550452
v 0.157213 -3.480780 -1.290926
v 1.094686 0.138501 -3.279484
v 0.975973 -0.804400 2.519724
v 0.914962 -1.062746 1.013867
v 0.562172 -1.978312 1.902792
v 1.417775 -1.092524 2.869015
v 1.010319 -2.004742 2.228148
v 1.288424 -1.308599 1.634760
v -0.325324 -2.485924 4.033533
v 0.687299 -0.137042 5.197996
v 0.961815 0.065227 4.515884
v 1.003136 -0.017533 5.375772
v 1.277652 0.184736 4.693662
v 0.788950 0.686871 5.485797
v 1.063486 0.889158 4.803586
v 0.473112 0.567362 5.308020
v 0.747649 0.769649 4.625810
v -0.325324 -2.613667 0.777437
v -0.325325 -1.163542 -5.729757
v -1.385769 0.138501 2.154160
v -1.385769 0.138501 0.777437
v -0.654307 0.138501 -6.184143
v -0.325325 1.994957 4.064385
v -0.325324 2.807420 1.876829
v -0.325324 1.440545 -5.729687
v -0.384051 -1.568613 6.151772
v -0.896049 -2.318810 4.264608
v -1.563359 0.138501 2.442873
v -0.423273 -0.411135 6.656745
v -0.831659 1.994956 4.353204
v -0.384051 1.201872 5.477532
v -0.158679 -2.469062 -7.034435
v -0.158679 0.171631 -8.189255
v -0.158679 2.746049 -7.034363
v -0.158679 -2.923740 -10.145714
v -0.158679 3.377070 -10.322813
v -0.462622 -2.036640 -7.378372
v -0.462622 1.904120 -7.378372
v -0.325325 2.533622 -3.735967
v -0.134089 4.441227 1.032982
v -0.134089 3.525981 -3.686967
v -0.325324 -2.399309 -1.472133
v -0.157213 -4.441227 -0.550452
v -0.157213 -3.480780 -1.290926
v -1.094687 0.138501 -3.279484
v -0.975973 -0.804400 2.519724
v -0.914962 -1.062747 1.013867
v -0.562172 -1.978311 1.902792
v -1.417775 -0.964780 3.795947
v -1.010319 -2.004742 2.228148
v -1.288424 -1.308600 1.634760
v -0.679015 -0.094617 5.260742
v -0.878703 0.001378 4.531054
v -1.015963 0.035129 5.384398
v -1.215665 0.131121 4.654601
v -0.833380 0.756052 5.417349
v -1.033083 0.852057 4.687551
v -0.496402 0.626298 5.293903
v -0.696104 0.722290 4.564106
v 0.325324 2.670521 -0.929569
v 0.134089 3.643315 -0.848138
v -0.134089 3.643315 -0.848138
v -0.325324 2.670521 -0.929569
vt 0.171352 0.474380
vt 0.171352 0.474380
vt 0.171352 0.474380
vt 0.171352 0.474380
vt 0.171352 0.474380
vt 0.171352 0.474380
vt 0.171352 0.441634
vt 0.171352 0.441634
vt 0.171352 0.474380
vt 0.171352 0.474380
vt 0.171352 0.474380
vt 0.171352 0.441634
vt 0.171352 0.441634
vt 0.171352 0.441634
vt 0.220649 0.468479
vt 0.220649 0.468479
vt 0.220649 0.468479
vt 0.220649 0.468479
vt 0.220649 0.468479
vt 0.220649 0.468479
vt 0.220649 0.468479
vt 0.220649 0.468479
vt 0.220649 0.468479
vt 0.220649 0.468479
vt 0.220649 0.468479
vt 0.220649 0.468479
vt 0.220649 0.468479
vt 0.220649 0.468479
vt 0.220649 0.468479
vt 0.220649 0.468479
vt 0.220649 0.468479
vt 0.220649 0.468479
vt 0.171352 0.441634
vt 0.220649 0.468479
vt 0.220649 0.468479
vt 0.220649 0.468479
vt 0.171352 0.474380
vt 0.220649 0.468479
vt 0.220649 0.468479
vt 0.220649 0.468479
vt 0.220649 0.468479
vt 0.220649 0.468479
vt 0.220649 0.468479
vt 0.220649 0.468479
vt 0.220649 0.468479
vt 0.220649 0.468479
vt 0.220649 0.468479
vt 0.220649 0.468479
vt 0.220649 0.468479
vt 0.220649 0.468479
vt 0.171352 0.441634
vt 0.171352 0.474380
vt 0.171352 0.474380
vt 0.171352 0.474380
vt 0.171352 0.474380
vt 0.220649 0.468479
vt 0.220649 0.468479
vt 0.220649 0.468479
vt 0.220649 0.468479
vt 0.171352 0.474380
vt 0.171352 0.474380
vt 0.171352 0.474380
vt 0.171352 0.441635
vt 0.171352 0.441635
vt 0.171352 0.441635
vt 0.171352 0.441635
vt 0.220649 0.468479
vt 0.220649 0.468479
vt 0.220649 0.468479
vt 0.220649 0.468479
vt 0.220649 0.468479
vt 0.220649 0.468479
vt 0.220649 0.468479
vt 0.220649 0.468479
vt 0.220649 0.468479
vt 0.220649 0.468479
vt 0.220649 0.468479
vt 0.220649 0.468479
vt 0.171352 0.441635
vt 0.220649 0.468479
vt 0.220649 0.468479
vt 0.081182 0.228547
vt 0.081182 0.228547
vt 0.081182 0.228547
vt 0.081182 0.228547
vt 0.171352 0.474380
vt 0.171352 0.474380
vt 0.081182 0.228547
vt 0.081182 0.228547
vt 0.081182 0.228547
vt 0.081182 0.228547
vt 0.081182 0.228547
vt 0.081182 0.228547
vt 0.081182 0.228547
vt 0.081182 0.228547
vt 0.081182 0.228547
vt 0.081182 0.228547
vt 0.081182 0.228547
vt 0.081182 0.228547
vt 0.171352 0.474380
vt 0.171352 0.474380
vt 0.171352 0.474380
vt 0.171352 0.474380
vt 0.171352 0.474380
vt 0.171352 0.441634
vt 0.171352 0.474380
vt 0.171352 0.474380
vt 0.171352 0.474380
vt 0.171352 0.474380
vt 0.171352 0.474380
vt 0.171352 0.474380
vt 0.171352 0.441634
vt 0.171352 0.441634
vt 0.171352 0.441634
vt 0.171352 0.474380
vt 0.171352 0.441634
vt 0.171352 0.441634
vt 0.171352 0.441634
vt 0.171352 0.474380
vt 0.171352 0.441634
vt 0.171352 0.474380
vt 0.171352 0.474380
vt 0.171352 0.441635
vt 0.171352 0.441635
vt 0.171352 0.441635
vt 0.171352 0.441635
vt 0.171352 0.474380
vt 0.171352 0.474380
vt 0.171352 0.441634
vt 0.171352 0.441634
vt 0.171352 0.441634
vt 0.171352 0.441634
vt 0.171352 0.441634
vt 0.171352 0.441634
vt 0.171352 0.441634
vt 0.171352 0.441634
vt 0.171352 0.474380
vt 0.171352 0.441634
vt 0.171352 0.441634
vt 0.171352 0.441634
vt 0.171352 0.474380
vt 0.171352 0.441634
vt 0.171352 0.441634
vt 0.171352 0.441634
vt 0.171352 0.441634
vt 0.171352 0.441634
vt 0.171352 0.441634
vt 0.171352 0.441634
vt 0.171352 0.441634
vt 0.171352 0.441634
vt 0.171352 0.474380
vt 0.171352 0.474380
vt 0.171352 0.441634
vt 0.171352 0.441634
vt 0.171352 0.441634
vt 0.171352 0.474380
vt 0.171352 0.441634
vt 0.171352 0.441634
vt 0.171352 0.441634
vt 0.171352 0.441634
vt 0.171352 0.441634
vt 0.171352 0.441634
vt 0.171352 0.441634
vt 0.171352 0.441634
vt 0.171352 0.441634
vt 0.171352 0.441634
vt 0.171352 0.441634
vt 0.220649 0.468479
vt 0.220649 0.468479
vt 0.220649 0.468479
vt 0.171352 0.441634
vt 0.220649 0.468479
vn 0.960098 -0.083099 0.267031
vn 0.960098 -0.083099 0.267031
vn 0.960098 -0.083099 0.267031
vn 0.960098 -0.083099 0.267031
vn 0.954152 -0.076657 0.289340
vn 0.954152 -0.076657 0.289340
vn 0.954152 -0.076657 0.289340
vn 0.934501 -0.355936 0.004275
vn 0.934501 -0.355936 0.004275
vn 0.934501 -0.355936 0.004275
vn 0.932580 -0.359335 -0.034240
vn 0.932580 -0.359335 -0.034240
vn 0.932580 -0.359335 -0.034240
vn 0.934990 -0.335390 -0.115356
vn 0.934990 -0.335390 -0.115356
vn 0.934990 -0.335390 -0.115356
vn 0.934990 -0.335390 -0.115356
vn 0.957392 0.097688 0.271770
vn 0.957391 0.097688 0.271770
vn 0.957392 0.097688 0.271770
vn 0.680546 0.443135 0.583514
vn 0.680546 0.443135 0.583514
vn 0.680547 0.443135 0.583514
vn 0.927522 0.373570 -0.012226
vn 0.927522 0.373570 -0.012226
vn 0.927522 0.373570 -0.012226
vn 0.927522 0.373570 -0.012226
vn 0.915023 0.378162 0.140450
vn 0.915023 0.378162 0.140450
vn 0.915023 0.378162 0.140450
vn 0.942926 0.329730 -0.046568
vn 0.942926 0.329730 -0.046568
vn 0.942926 0.329730 -0.046568
vn 0.942926 0.329730 -0.046568
vn 0.948050 0.281563 -0.148064
vn 0.948050 0.281563 -0.148064
vn 0.948050 0.281563 -0.148064
vn 0.948050 0.281563 -0.148064
vn 0.000000 -0.810304 0.586010
vn 0.000000 -0.810304 0.586010
vn 0.000000 -0.810304 0.586010
vn 0.000000 -0.810304 0.586010
vn 0.434514 0.739207 -0.514558
vn 0.434514 0.739207 -0.514558
vn 0.434514 0.739207 -0.514558
vn 0.434514 0.739207 -0.514558
vn 0.969942 0.045741 -0.238997
vn 0.969942 0.045741 -0.238997
vn 0.969942 0.045741 -0.238997
vn 0.962317 0.230142 0.144850
vn 0.962317 0.230142 0.144850
vn 0.962317 0.230142 0.144850
vn 0.962317 0.230142 0.144850
vn 0.946522 0.316858 0.060802
vn 0.946522 0.316858 0.060802
vn 0.946522 0.316858 0.060802
vn 0.986983 0.085927 -0.135947
vn 0.986983 0.085927 -0.135947
vn 0.986983 0.085927 -0.135947
vn 0.945595 -0.248290 0.210243
vn 0.945595 -0.248290 0.210243
vn 0.945595 -0.248290 0.210243
vn 0.945595 -0.248290 0.210243
vn 0.843655 -0.531242 0.077635
vn 0.843655 -0.531242 0.077635
vn 0.843655 -0.531242 0.077635
vn 0.968958 -0.057446 -0.240459
vn 0.968958 -0.057446 -0.240458
vn 0.968958 -0.057446 -0.240458
vn 0.983156 -0.101270 -0.152147
vn 0.983156 -0.101270 -0.152147
vn 0.983156 -0.101270 -0.152147
vn 0.990154 0.137279 -0.027377
vn 0.990154 0.137279 -0.027377
vn 0.990154 0.137279 -0.027377
vn 0.990154 0.137279 -0.027377
vn 0.940452 -0.333162 -0.067477
vn 0.940452 -0.333162 -0.067477
vn 0.940452 -0.333162 -0.067477
vn 0.994269 -0.099505 -0.039096
vn 0.994269 -0.099505 -0.039096
vn 0.994269 -0.099505 -0.039096
vn 0.994269 -0.099505 -0.039096
vn 0.917117 -0.398290 -0.016162
vn 0.917117 -0.398290 -0.016162
vn 0.917117 -0.398290 -0.016162
vn 0.917117 -0.398290 -0.016162
vn 0.557164 -0.406124 -0.724315
vn 0.557164 -0.406124 -0.724315
vn 0.557164 -0.406124 -0.724315
vn 0.557164 -0.406124 -0.724315
vn 0.225385 -0.959295 -0.170161
vn 0.225385 -0.959295 -0.170161
vn 0.225385 -0.959295 -0.170161
vn 0.225385 -0.959295 -0.170161
vn 0.430399 -0.696514 -0.574130
vn 0.430399 -0.696514 -0.574130
vn 0.430399 -0.696514 -0.574130
vn 0.430399 -0.696514 -0.574130
vn 0.674267 0.718365 -0.171220
vn 0.674267 0.718365 -0.171220
vn 0.674267 0.718365 -0.171220
vn 0.674267 0.718365 -0.171220
vn 0.931044 -0.364906 0.000000
vn 0.931044 -0.364906 0.000000
vn 0.931044 -0.364906 0.000000
vn 0.920847 -0.388815 0.029397
vn 0.920847 -0.388815 0.029397
vn 0.920847 -0.388815 0.029397
vn 0.928180 -0.371846 0.014588
vn 0.928180 -0.371846 0.014588
vn 0.928180 -0.371846 0.014588
vn 0.932668 -0.359369 0.031368
vn 0.932668 -0.359369 0.031368
vn 0.932668 -0.359369 0.031368
vn 0.000001 -0.999231 0.039202
vn 0.000001 -0.999231 0.039202
vn 0.000001 -0.999231 0.039202
vn 0.000001 -0.999231 0.039202
vn 0.000000 -0.706879 0.707335
vn 0.000000 -0.706879 0.707335
vn 0.000000 -0.706879 0.707335
vn 0.000000 -0.706879 0.707335
vn -0.000000 -0.989490 0.144603
vn -0.000000 -0.989490 0.144603
vn -0.000000 -0.989490 0.144603
vn -0.000000 -0.989490 0.144603
vn 0.000000 0.049317 -0.998783
vn 0.000000 0.049317 -0.998783
vn 0.000000 0.049317 -0.998783
vn 0.000000 0.049317 -0.998783
vn 0.000000 -0.960365 -0.278744
vn 0.000000 -0.960365 -0.278744
vn 0.000000 -0.960365 -0.278744
vn 0.000000 -0.960365 -0.278744
vn 0.000000 -0.587811 0.808998
vn 0.000000 -0.587811 0.808998
vn 0.000000 -0.587811 0.808998
vn 0.000000 -0.587811 0.808998
vn -0.000000 -0.610575 -0.791959
vn -0.000000 -0.610575 -0.791959
vn -0.000000 -0.610575 -0.791959
vn 0.000001 -0.610575 -0.791959
vn 0.000001 -0.610574 -0.791959
vn 0.000001 -0.610575 -0.791959
vn 0.403923 -0.908531 -0.106852
vn 0.403923 -0.908531 -0.106852
vn 0.403923 -0.908531 -0.106852
vn 0.403921 -0.908532 -0.106853
vn 0.403921 -0.908532 -0.106853
vn 0.403921 -0.908532 -0.106853
vn 0.885682 0.204176 0.416988
vn 0.885682 0.204176 0.416988
vn 0.885682 0.204176 0.416988
vn 0.885684 0.204208 0.416970
vn 0.885684 0.204208 0.416970
vn 0.885684 0.204208 0.416970
vn -0.403921 0.908533 0.106849
vn -0.403921 0.908533 0.106849
vn -0.403921 0.908533 0.106849
vn -0.403923 0.908532 0.106848
vn -0.403923 0.908532 0.106848
vn -0.403923 0.908532 0.106848
vn 0.397789 0.258321 -0.880360
vn 0.397789 0.258321 -0.880360
vn 0.397789 0.258321 -0.880360
vn 0.397788 0.258319 -0.880361
vn 0.397788 0.258319 -0.880361
vn 0.397788 0.258319 -0.880361
vn -0.397734 -0.258443 0.880350
vn -0.397734 -0.258443 0.880350
vn -0.397734 -0.258443 0.880350
vn -0.397735 -0.258444 0.880349
vn -0.397734 -0.258444 0.880349
vn -0.397734 -0.258444 0.880349
vn -0.946231 0.042932 0.320631
vn -0.946231 0.042932 0.320631
vn -0.946231 0.042932 0.320631
vn -0.946231 0.042932 0.320631
vn -0.911032 -0.233371 0.339940
vn -0.911032 -0.233371 0.339940
vn -0.911032 -0.233371 0.339940
vn -0.934501 -0.355936 0.004275
vn -0.934501 -0.355936 0.004275
vn -0.934501 -0.355936 0.004275
vn -0.932580 -0.359335 -0.034240
vn -0.932580 -0.359335 -0.034240
vn -0.932580 -0.359335 -0.034240
vn -0.934990 -0.335390 -0.115356
vn -0.934990 -0.335390 -0.115356
vn -0.934990 -0.335390 -0.115356
vn -0.934990 -0.335390 -0.115356
vn -0.680547 0.443134 0.583514
vn -0.680547 0.443134 0.583514
vn -0.680547 0.443134 0.583514
vn -0.957391 0.097688 0.271770
vn -0.957391 0.097688 0.271770
vn -0.957392 0.097688 0.271770
vn -0.915023 0.378162 0.140450
vn -0.915023 0.378162 0.140450
vn -0.915023 0.378162 0.140450
vn -0.927522 0.373570 -0.012226
vn -0.927522 0.373569 -0.012226
vn -0.927522 0.373569 -0.012226
vn -0.927522 0.373570 -0.012226
vn -0.942926 0.329730 -0.046568
vn -0.942926 0.329730 -0.046568
vn -0.942926 0.329730 -0.046568
vn -0.942926 0.329730 -0.046568
vn -0.948050 0.281563 -0.148064
vn -0.948050 0.281563 -0.148064
vn -0.948050 0.281563 -0.148064
vn -0.948050 0.281563 -0.148064
vn -0.000000 -0.399873 0.916571
vn -0.000000 -0.399873 0.916571
vn -0.000000 -0.399873 0.916571
vn -0.000000 -0.399873 0.916571
vn -0.434514 0.739207 -0.514558
vn -0.434514 0.739207 -0.514558
vn -0.434514 0.739207 -0.514558
vn -0.434514 0.739207 -0.514558
vn 0.000000 0.817159 0.576412
vn 0.000000 0.817159 0.576412
vn 0.000000 0.817159 0.576412
vn 0.000000 0.817159 0.576412
vn 0.000000 0.590172 0.807277
vn 0.000000 0.590172 0.807277
vn 0.000000 0.590172 0.807277
vn 0.000000 0.590172 0.807277
vn -0.969942 0.045741 -0.238997
vn -0.969942 0.045741 -0.238997
vn -0.969942 0.045741 -0.238997
vn -0.962317 0.230142 0.144850
vn -0.962317 0.230142 0.144850
vn -0.962317 0.230142 0.144850
vn -0.962317 0.230142 0.144850
vn -0.946522 0.316858 0.060802
vn -0.946522 0.316858 0.060802
vn -0.946522 0.316858 0.060802
vn -0.986983 0.085927 -0.135947
vn -0.986983 0.085927 -0.135947
vn -0.986983 0.085927 -0.135947
vn -0.945595 -0.248290 0.210242
vn -0.945595 -0.248290 0.210242
vn -0.945595 -0.248290 0.210242
vn -0.945595 -0.248290 0.210242
vn -0.843655 -0.531243 0.077635
vn -0.843655 -0.531243 0.077635
vn -0.843655 -0.531243 0.077635
vn -0.968958 -0.057446 -0.240459
vn -0.968958 -0.057446 -0.240458
vn -0.968958 -0.057446 -0.240458
vn -0.983156 -0.101270 -0.152147
vn -0.983156 -0.101270 -0.152147
vn -0.983156 -0.101270 -0.152147
vn -0.990154 0.137279 -0.027377
vn -0.990154 0.137279 -0.027377
vn -0.990154 0.137279 -0.027377
vn -0.990154 0.137279 -0.027377
vn -0.940452 -0.333162 -0.067477
vn -0.940452 -0.333162 -0.067477
vn -0.940452 -0.333162 -0.067477
vn -0.987643 -0.156017 -0.014867
vn -0.987643 -0.156017 -0.014867
vn -0.987643 -0.156017 -0.014867
vn -0.997006 -0.047214 -0.061240
vn -0.997006 -0.047214 -0.061240
vn -0.997006 -0.047214 -0.061240
vn -0.931479 -0.363795 -0.000768
vn -0.931479 -0.363795 -0.000768
vn -0.931479 -0.363795 -0.000768
vn -0.931479 -0.363795 -0.000768
vn -0.786460 -0.517420 -0.337280
vn -0.786460 -0.517420 -0.337280
vn -0.786460 -0.517420 -0.337280
vn -0.738938 -0.497372 -0.454525
vn -0.738938 -0.497372 -0.454525
vn -0.738938 -0.497372 -0.454525
vn -0.225386 -0.959295 -0.170161
vn -0.225386 -0.959295 -0.170161
vn -0.225386 -0.959295 -0.170161
vn -0.225386 -0.959295 -0.170161
vn -0.430399 -0.696514 -0.574130
vn -0.430399 -0.696514 -0.574130
vn -0.430399 -0.696514 -0.574130
vn -0.430399 -0.696514 -0.574130
vn -0.699473 0.698521 -0.151015
vn -0.699473 0.698521 -0.151015
vn -0.699473 0.698521 -0.151015
vn -0.699473 0.698521 -0.151015
vn -0.926320 -0.376472 0.014135
vn -0.926320 -0.376472 0.014135
vn -0.926320 -0.376472 0.014135
vn -0.926320 -0.376472 0.014135
vn -0.928180 -0.371846 0.014588
vn -0.928180 -0.371846 0.014588
vn -0.928180 -0.371846 0.014588
vn -0.932668 -0.359369 0.031367
vn -0.932668 -0.359369 0.031367
vn -0.932668 -0.359369 0.031367
vn 0.000000 0.937433 0.348165
vn 0.000000 0.937433 0.348165
vn 0.000000 0.937433 0.348165
vn 0.000000 0.937433 0.348165
vn 0.000000 0.876859 -0.480747
vn 0.000000 0.876859 -0.480747
vn 0.000000 0.876859 -0.480747
vn 0.000000 0.876859 -0.480747
vn 0.000000 0.706882 0.707331
vn 0.000000 0.706882 0.707331
vn 0.000000 0.706882 0.707331
vn 0.000000 0.706882 0.707331
vn -0.000000 0.982082 0.188452
vn -0.000000 0.982082 0.188452
vn -0.000000 0.982082 0.188452
vn -0.000000 0.982082 0.188452
vn 0.000000 -0.554089 -0.832458
vn 0.000000 -0.554089 -0.832458
vn 0.000000 -0.554089 -0.832458
vn 0.000000 -0.554089 -0.832458
vn 0.000000 0.534283 -0.845305
vn 0.000000 0.534283 -0.845305
vn 0.000000 0.534283 -0.845306
vn 0.000000 0.534283 -0.845305
vn 0.000000 0.458897 0.888489
vn 0.000000 0.458897 0.888489
vn 0.000000 0.458897 0.888489
vn 0.000000 0.458897 0.888489
vn -0.000000 0.920606 -0.390492
vn -0.000000 0.920606 -0.390492
vn -0.000000 0.920606 -0.390492
vn -0.000000 0.920606 -0.390492
vn 0.000001 -0.165252 -0.986251
vn 0.000001 -0.165252 -0.986251
vn 0.000001 -0.165252 -0.986251
vn 0.000000 -0.165252 -0.986251
vn 0.000000 -0.165252 -0.986251
vn 0.000000 -0.165252 -0.986251
vn -0.366313 -0.930229 -0.022118
vn -0.366313 -0.930229 -0.022118
vn -0.366313 -0.930229 -0.022118
vn -0.366294 -0.930236 -0.022137
vn -0.366294 -0.930236 -0.022137
vn -0.366294 -0.930236 -0.022137
vn -0.932355 0.223128 0.284478
vn -0.932355 0.223128 0.284478
vn -0.932355 0.223128 0.284478
vn -0.932355 0.223123 0.284482
vn -0.932355 0.223123 0.284482
vn -0.932355 0.223123 0.284482
vn 0.366298 0.930234 0.022137
vn 0.366298 0.930234 0.022137
vn 0.366298 0.930234 0.022137
vn 0.366322 0.930225 0.022114
vn 0.366322 0.930225 0.022114
vn 0.366322 0.930225 0.022114
vn -0.300859 0.119582 -0.946142
vn -0.300859 0.119582 -0.946142
vn -0.300859 0.119582 -0.946142
vn -0.300656 0.119390 -0.946230
vn -0.300656 0.119390 -0.946230
vn -0.300656 0.119390 -0.946230
vn 0.300661 -0.119394 0.946229
vn 0.300661 -0.119394 0.946228
vn 0.300661 -0.119394 0.946229
vn 0.301068 -0.119780 0.946050
vn 0.301068 -0.119780 0.946050
vn 0.301068 -0.119780 0.946050
vn 0.000000 1.000000 0.000002
vn 0.000000 1.000000 0.000002
vn 0.000000 1.000000 0.000002
vn 0.000000 1.000000 0.000002
vn 0.000000 -0.929267 0.369408
vn 0.000000 -0.929267 0.369408
vn 0.000000 -0.929267 0.369408
vn 0.000000 -0.929267 0.369408
vn 0.981438 0.191587 -0.008628
vn 0.981438 0.191587 -0.008628
vn 0.981438 0.191587 -0.008628
vn 0.981438 0.191587 -0.008628
vn -0.000000 0.999147 -0.041297
vn -0.000000 0.999147 -0.041297
vn -0.000000 0.999147 -0.041297
vn -0.000000 0.999147 -0.041297
vn -0.981438 0.191587 -0.008628
vn -0.981438 0.191587 -0.008628
vn -0.981438 0.191587 -0.008628
vn -0.981438 0.191587 -0.008628
s off
f 12/11/1 13/156/2 10/9/3 33/55/4
f 10/9/5 11/10/6 33/55/7
f 32/54/8 2/2/9 31/53/10
f 2/2/11 26/37/12 5/5/13
f 3/3/14 6/6/15 29/152/16 26/37/17
f 12/162/18 14/161/19 13/12/20
f 13/12/21 14/161/22 15/159/23
f 8/133/24 4/165/25 5/154/26 87/167/27
f 4/165/28 8/133/29 7/7/30
f 23/131/31 87/167/32 5/155/33 29/153/34
f 6/166/35 9/8/36 23/33/37 29/51/38
f 1/1/39 11/10/40 54/102/41 36/60/42
f 12/163/43 4/164/44 7/136/45 14/160/46
f 6/15/47 21/16/48 17/17/49
f 9/18/50 6/15/51 22/19/52 18/20/53
f 18/20/54 22/19/55 20/21/56
f 17/17/57 21/16/58 19/22/59
f 6/15/60 3/23/61 16/24/62 21/16/63
f 19/22/64 21/16/65 16/24/66
f 22/19/67 6/15/68 17/17/69
f 20/21/70 22/19/71 17/17/72
f 24/28/73 8/25/74 87/168/75 88/169/76
f 26/37/77 29/152/78 5/5/79
f 28/30/80 26/31/81 2/32/82 27/29/83
f 33/38/84 11/34/85 34/35/86 35/36/87
f 12/11/88 33/55/89 30/52/90 4/4/91
f 1/39/92 32/40/93 34/35/94 11/34/95
f 32/40/96 31/41/97 35/36/98 34/35/99
f 35/36/100 31/41/101 30/42/102 33/38/103
f 5/5/104 4/4/105 31/53/106
f 31/53/107 4/4/108 30/52/109
f 1/1/110 2/2/111 32/54/112
f 31/53/113 2/2/114 5/5/115
f 45/128/116 2/61/117 1/62/118 36/127/119
f 59/44/120 16/24/121 3/23/122 46/43/123
f 62/45/124 19/22/125 16/24/126 59/44/127
f 68/47/128 25/27/129 23/26/130 66/46/131
f 3/87/132 26/86/133 69/122/134 46/121/135
f 70/49/136 27/29/137 2/32/138 45/48/139
f 28/30/140 27/29/141 71/50/142
f 71/50/143 27/29/144 70/49/145
f 38/83/146 40/84/147 37/82/148
f 37/82/149 40/84/150 39/85/151
f 39/85/152 40/84/153 41/89/154
f 41/89/155 40/84/156 42/88/157
f 41/89/158 42/88/159 43/91/160
f 43/91/161 42/88/162 44/90/163
f 38/83/164 44/90/165 40/84/166
f 40/84/167 44/90/168 42/88/169
f 37/82/170 39/85/171 43/91/172
f 43/91/173 39/85/174 41/89/175
f 53/101/176 56/141/177 55/104/178 76/103/179
f 53/101/180 76/103/181 54/102/182
f 75/106/183 74/108/184 45/107/185
f 45/107/186 48/110/187 69/109/188
f 49/151/189 46/111/190 69/109/191 72/137/192
f 58/114/193 57/113/194 56/142/195
f 56/142/196 57/113/197 55/148/198
f 50/135/199 51/116/200 47/149/201
f 48/140/202 47/149/203 51/132/204 90/171/205
f 48/139/206 90/171/207 66/129/208 72/120/209
f 52/118/210 49/112/211 72/138/212 66/130/213
f 13/156/214 56/141/215 53/101/216 10/9/217
f 50/134/218 47/150/219 55/147/220 57/145/221
f 15/158/222 14/13/223 57/146/224 58/143/225
f 15/14/226 58/144/227 56/105/228 13/157/229
f 49/56/230 60/57/231 64/58/232
f 52/59/233 61/67/234 65/68/235 49/56/236
f 61/67/237 63/69/238 65/68/239
f 60/57/240 62/45/241 64/58/242
f 49/56/243 64/58/244 59/44/245 46/43/246
f 62/45/247 59/44/248 64/58/249
f 65/68/250 60/57/251 49/56/252
f 63/69/253 60/57/254 65/68/255
f 90/172/256 51/70/257 67/71/258 89/170/259
f 69/109/260 48/110/261 72/137/262
f 69/72/263 71/50/264 45/48/265
f 70/49/266 45/48/267 71/50/268
f 77/76/269 54/73/270 76/74/271 78/75/272
f 76/103/273 55/104/274 73/100/275
f 73/100/276 55/104/277 47/115/278
f 36/77/279 54/73/280 77/76/281 75/78/282
f 75/78/283 77/76/284 78/75/285 74/80/286
f 73/81/287 74/80/288 78/75/289 76/74/290
f 74/108/291 73/100/292 47/115/293 48/110/294
f 36/119/295 75/106/296 45/107/297
f 74/108/298 48/110/299 45/107/300
f 7/64/301 8/65/302 51/125/303 50/126/304
f 23/79/305 9/66/306 52/124/307 66/123/308
f 9/18/309 18/20/310 61/67/311 52/59/312
f 18/20/313 20/21/314 63/69/315 61/67/316
f 20/21/317 17/17/318 60/57/319 63/69/320
f 17/17/321 19/22/322 62/45/323 60/57/324
f 8/25/325 24/28/326 67/71/327 51/70/328
f 24/28/329 88/169/330 89/170/331 67/71/332
f 28/30/333 71/50/334 26/31/335
f 26/31/336 71/50/337 69/72/338
f 81/93/339 82/94/340 79/92/341
f 79/92/342 82/94/343 80/95/344
f 81/93/345 83/96/346 82/94/347
f 82/94/348 83/96/349 84/97/350
f 83/96/351 85/98/352 84/97/353
f 84/97/354 85/98/355 86/99/356
f 80/95/357 82/94/358 86/99/359
f 86/99/360 82/94/361 84/97/362
f 83/96/363 81/93/364 85/98/365
f 85/98/366 81/93/367 79/92/368
f 7/63/369 50/117/370 57/146/371 14/13/372
f 53/101/373 54/102/374 11/10/375 10/9/376
f 88/169/377 87/168/378 23/26/379 25/27/380
f 89/170/381 88/169/382 25/27/383 68/47/384
f 66/46/385 90/172/386 89/170/387 68/47/388
