# This file uses centimeters as units for non-parametric coordinates.

v 6.426524 3.347080 -6.426522
v 0.000001 3.347080 -9.088471
v -6.426522 3.347080 -6.426522
v -9.088470 3.347080 -0.000003
v -6.426522 3.347080 6.426517
v 0.000001 3.347080 9.088465
v 6.426524 3.347080 6.426517
v 9.088472 3.347080 -0.000003
v 6.426524 23.315786 -6.426522
v 0.000001 23.315786 -9.088471
v -6.426522 23.315786 -6.426522
v -9.088470 23.315786 -0.000003
v -6.426522 23.315786 6.426517
v 0.000001 23.315786 9.088465
v 6.426524 23.315786 6.426517
v 9.088472 23.315786 -0.000003
v 0.000001 3.347080 -0.000003
v 0.000001 23.315786 -0.000003
v 6.085400 0.000000 -6.085407
v 0.000001 0.000000 -8.606063
v -6.085406 0.000000 -6.085407
v -8.606064 0.000000 -0.000001
v -6.085406 0.000000 6.085404
v 0.000001 0.000000 8.606062
v 6.085400 0.000000 6.085404
v 8.606067 0.000000 -0.000001
v 6.039749 27.369169 -6.039758
v 0.000001 27.369169 -8.541506
v -6.039755 27.369169 -6.039758
v -8.541512 27.369169 -0.000001
v -6.039755 27.369169 6.039754
v 0.000001 27.369169 8.541506
v 6.039749 27.369169 6.039756
v 8.541506 27.369169 -0.000001
v 0.000001 0.000000 -0.000001
v 6.150095 1.476820 -6.150096
v 0.000001 1.476820 -8.697548
v -6.150101 1.476820 -6.150096
v -8.697551 1.476820 -0.000001
v -6.150101 1.476820 6.150092
v 0.000001 1.476820 8.697546
v 6.150095 1.476820 6.150092
v 8.697553 1.476820 -0.000001
v 7.614741 3.121757 -7.614740
v 0.000001 3.121757 -10.768869
v -7.614738 3.121757 -7.614740
v -10.768868 3.121757 -0.000001
v -7.614738 3.121757 7.614737
v 0.000001 3.121757 10.768869
v 7.614741 3.121757 7.614739
v 10.768870 3.121757 -0.000001
v 7.614741 23.699078 -7.614740
v 10.768870 23.699078 -0.000001
v 7.614741 23.699078 7.614739
v 0.000001 23.699078 10.768869
v -7.614738 23.699078 7.614737
v -10.768868 23.699078 -0.000001
v -7.614738 23.699078 -7.614740
v 0.000001 23.699078 -10.768869
v 6.039749 25.255741 -6.039758
v 8.541506 25.255741 -0.000001
v 6.039749 25.255741 6.039757
v 0.000001 25.255741 8.541506
v -6.039755 25.255741 6.039754
v -8.541512 25.255741 -0.000001
v -6.039755 25.255741 -6.039758
v 0.000001 25.255741 -8.541506
v 6.802142 27.369169 -6.802136
v 0.000009 27.369169 -9.619671
v -6.802132 27.369169 -6.802136
v -9.619669 27.369169 -0.000001
v -6.802132 27.369169 6.802133
v 0.000009 27.369169 9.619669
v 6.802142 27.369169 6.802133
v 9.619671 27.369169 -0.000001
v 0.000009 27.369169 -0.000001
v 4.981060 31.211018 -4.981058
v 0.000009 31.211018 -7.044278
v -4.981058 31.211018 -4.981058
v -7.044276 31.211018 -0.000001
v -4.981058 31.211018 4.981055
v 0.000009 31.211018 7.044276
v 4.981060 31.211018 4.981055
v 7.044279 31.211018 -0.000001
v 0.000009 31.211018 -0.000002
v 6.837584 29.249422 -6.837587
v 0.000009 29.249422 -9.669810
v -6.837582 29.249422 -6.837587
v -9.669808 29.249422 -0.000001
v -6.837582 29.249422 6.837584
v 0.000009 29.249422 9.669808
v 6.837584 29.249422 6.837584
v 9.669810 29.249422 -0.000001
v 5.518399 29.612019 -5.518402
v 7.804203 29.612019 -0.000001
v 5.518399 29.612019 5.518398
v 0.000009 29.612019 7.804196
v -5.518397 29.612019 5.518398
v -7.804192 29.612019 -0.000001
v -5.518397 29.612019 -5.518402
v 0.000009 29.612019 -7.804197
vt 0.118812 0.076782
vt 0.131642 0.071468
vt 0.131697 0.071583
vt 0.118812 0.076945
vt 0.118812 0.058638
vt 0.118812 0.058638
vt 0.100147 0.040412
vt 0.100147 0.076963
vt 0.109862 0.040412
vt 0.109862 0.076963
vt 0.118845 0.040412
vt 0.118845 0.076963
vt 0.127829 0.040412
vt 0.127829 0.076963
vt 0.137543 0.040412
vt 0.137543 0.076963
vt 0.105983 0.071468
vt 0.105928 0.071583
vt 0.100147 0.076963
vt 0.100147 0.040412
vt 0.137543 0.076963
vt 0.137543 0.040412
vt 0.109862 0.040412
vt 0.127829 0.040412
vt 0.118845 0.040412
vt 0.109862 0.076963
vt 0.127829 0.076963
vt 0.118845 0.076963
vt 0.100591 0.058638
vt 0.105928 0.045694
vt 0.118812 0.040332
vt 0.131697 0.045694
vt 0.137034 0.058638
vt 0.048822 0.180174
vt 0.049162 0.180140
vt 0.049162 0.180138
vt 0.048822 0.180172
vt 0.049484 0.180192
vt 0.049484 0.180191
vt 0.049626 0.180313
vt 0.049626 0.180311
vt 0.049469 0.180440
vt 0.049469 0.180439
vt 0.049074 0.180488
vt 0.049074 0.180486
vt 0.048714 0.180416
vt 0.048714 0.180414
vt 0.048627 0.180282
vt 0.048627 0.180281
vt 0.049150 0.180444
vt 0.048914 0.180472
vt 0.049122 0.180571
vt 0.049373 0.180488
vt 0.049463 0.180583
vt 0.049352 0.180680
vt 0.049091 0.180715
vt 0.048850 0.180662
vt 0.048785 0.180559
vt 0.049151 0.180358
vt 0.048910 0.180385
vt 0.049377 0.180400
vt 0.049470 0.180493
vt 0.049357 0.180588
vt 0.049090 0.180622
vt 0.048845 0.180570
vt 0.048779 0.180470
vt 0.048821 0.180155
vt 0.049162 0.180121
vt 0.049485 0.180174
vt 0.049626 0.180293
vt 0.049470 0.180419
vt 0.049074 0.180466
vt 0.048713 0.180395
vt 0.048626 0.180263
vt 0.048822 0.180169
vt 0.048627 0.180277
vt 0.048713 0.180411
vt 0.049074 0.180482
vt 0.049470 0.180435
vt 0.049626 0.180308
vt 0.049484 0.180188
vt 0.049162 0.180135
vt 0.101430 0.376967
vt 0.101099 0.377018
vt 0.101389 0.377240
vt 0.101744 0.377066
vt 0.101882 0.377280
vt 0.101727 0.377499
vt 0.101340 0.377571
vt 0.100990 0.377436
vt 0.100909 0.377202
vt 0.101097 0.376981
vt 0.101432 0.376930
vt 0.101432 0.376923
vt 0.101096 0.376974
vt 0.101750 0.377030
vt 0.101751 0.377022
vt 0.101890 0.377243
vt 0.101892 0.377236
vt 0.101734 0.377463
vt 0.101735 0.377456
vt 0.101341 0.377535
vt 0.101341 0.377528
vt 0.100986 0.377400
vt 0.100985 0.377393
vt 0.100904 0.377165
vt 0.100903 0.377158
vt 0.101094 0.376943
vt 0.101434 0.376892
vt 0.101392 0.377165
vt 0.101756 0.376991
vt 0.101899 0.377205
vt 0.101741 0.377425
vt 0.101342 0.377498
vt 0.100982 0.377362
vt 0.100899 0.377127
vt 0.100668 0.058638
vt 0.105983 0.045809
vt 0.118812 0.040494
vt 0.131642 0.045809
vt 0.136956 0.058638
vn 0.382683 0.000000 -0.923880
vn 0.382683 0.000000 -0.923880
vn 0.382683 0.000000 -0.923880
vn 0.382683 0.000000 -0.923880
vn -0.382683 0.000000 -0.923880
vn -0.382683 0.000000 -0.923880
vn -0.382683 0.000000 -0.923880
vn -0.382683 0.000000 -0.923880
vn -0.923880 0.000000 -0.382683
vn -0.923880 0.000000 -0.382683
vn -0.923880 0.000000 -0.382683
vn -0.923880 0.000000 -0.382683
vn -0.923880 0.000000 0.382683
vn -0.923880 0.000000 0.382683
vn -0.923880 0.000000 0.382683
vn -0.923880 0.000000 0.382683
vn -0.382683 0.000000 0.923880
vn -0.382683 0.000000 0.923880
vn -0.382683 0.000000 0.923880
vn -0.382683 0.000000 0.923880
vn 0.382683 0.000000 0.923880
vn 0.382683 0.000000 0.923880
vn 0.382683 0.000000 0.923880
vn 0.382683 0.000000 0.923880
vn 0.923880 0.000000 0.382683
vn 0.923880 0.000000 0.382683
vn 0.923880 0.000000 0.382683
vn 0.923880 0.000000 0.382683
vn 0.923880 0.000000 -0.382683
vn 0.923880 0.000000 -0.382683
vn 0.923880 0.000000 -0.382683
vn 0.923880 0.000000 -0.382683
vn 0.000000 -1.000000 0.000000
vn 0.000000 -1.000000 0.000000
vn 0.000000 -1.000000 0.000000
vn 0.000000 -1.000000 0.000000
vn 0.000000 -1.000000 0.000000
vn 0.000000 -1.000000 0.000000
vn 0.000000 -1.000000 0.000000
vn 0.000000 -1.000000 0.000000
vn 0.000000 -1.000000 0.000000
vn 0.000000 -1.000000 0.000000
vn 0.000000 -1.000000 0.000000
vn 0.000000 -1.000000 0.000000
vn 0.000000 -1.000000 0.000000
vn 0.000000 -1.000000 0.000000
vn 0.000000 -1.000000 0.000000
vn 0.000000 -1.000000 0.000000
vn 0.000000 -1.000000 0.000000
vn 0.000000 -1.000000 0.000000
vn 0.000000 -1.000000 0.000000
vn 0.000000 -1.000000 0.000000
vn 0.000000 -1.000000 0.000000
vn 0.000000 -1.000000 0.000000
vn 0.000000 -1.000000 0.000000
vn 0.000000 -1.000000 0.000000
vn 0.000000 1.000000 0.000000
vn 0.000000 1.000000 0.000000
vn 0.000000 1.000000 0.000000
vn 0.000000 1.000000 0.000000
vn 0.000000 1.000000 0.000000
vn 0.000000 1.000000 0.000000
vn 0.000000 1.000000 0.000000
vn 0.000000 1.000000 0.000000
vn 0.000000 1.000000 0.000000
vn 0.000000 1.000000 0.000000
vn 0.000000 1.000000 0.000000
vn 0.000000 1.000000 0.000000
vn 0.000000 1.000000 0.000000
vn 0.000000 1.000000 0.000000
vn 0.000000 1.000000 0.000000
vn 0.000000 1.000000 0.000000
vn 0.000000 1.000000 0.000000
vn 0.000000 1.000000 0.000000
vn 0.000000 1.000000 0.000000
vn 0.000000 1.000000 0.000000
vn 0.000000 1.000000 0.000000
vn 0.000000 1.000000 0.000000
vn 0.000000 1.000000 0.000000
vn 0.000000 1.000000 0.000000
vn 0.382683 0.000000 -0.923880
vn 0.382683 0.000000 -0.923880
vn 0.381807 0.067631 -0.921764
vn 0.381807 0.067631 -0.921764
vn -0.382683 0.000000 -0.923880
vn -0.382683 0.000000 -0.923880
vn -0.381807 0.067631 -0.921764
vn -0.381807 0.067631 -0.921764
vn -0.923880 0.000000 -0.382684
vn -0.923880 0.000000 -0.382684
vn -0.921764 0.067631 -0.381807
vn -0.921764 0.067631 -0.381807
vn -0.923879 0.000000 0.382684
vn -0.923879 0.000000 0.382684
vn -0.921764 0.067631 0.381808
vn -0.921764 0.067631 0.381808
vn -0.382684 0.000000 0.923879
vn -0.382684 0.000000 0.923879
vn -0.381808 0.067631 0.921764
vn -0.381808 0.067631 0.921764
vn 0.382683 0.000000 0.923880
vn 0.382683 0.000000 0.923880
vn 0.381807 0.067631 0.921764
vn 0.381807 0.067631 0.921764
vn 0.923880 0.000000 0.382683
vn 0.923880 0.000000 0.382683
vn 0.921764 0.067631 0.381807
vn 0.921764 0.067631 0.381807
vn 0.923880 0.000000 -0.382684
vn 0.923880 0.000000 -0.382684
vn 0.921764 0.067631 -0.381807
vn 0.921764 0.067631 -0.381807
vn 0.000000 -1.000000 0.000000
vn 0.000000 -1.000000 0.000000
vn 0.000000 -1.000000 0.000000
vn 0.000000 -1.000000 0.000000
vn 0.000000 -1.000000 0.000000
vn 0.000000 -1.000000 0.000000
vn 0.000000 -1.000000 0.000000
vn 0.000000 -1.000000 0.000000
vn 0.000000 -1.000000 0.000000
vn 0.000000 -1.000000 0.000000
vn 0.000000 -1.000000 0.000000
vn 0.000000 -1.000000 0.000000
vn 0.000000 -1.000000 0.000000
vn 0.000000 -1.000000 0.000000
vn 0.000000 -1.000000 0.000000
vn 0.000000 -1.000000 0.000000
vn 0.000000 -1.000000 0.000000
vn 0.000000 -1.000000 0.000000
vn 0.000000 -1.000000 0.000000
vn 0.000000 -1.000000 0.000000
vn 0.000000 -1.000000 0.000000
vn 0.000000 -1.000000 0.000000
vn 0.000000 -1.000000 0.000000
vn 0.000000 -1.000000 0.000000
vn 0.382058 -0.057139 -0.922370
vn 0.382058 -0.057139 -0.922370
vn 0.382058 -0.057139 -0.922370
vn 0.382058 -0.057139 -0.922370
vn -0.382058 -0.057139 -0.922370
vn -0.382058 -0.057139 -0.922370
vn -0.382058 -0.057139 -0.922370
vn -0.382058 -0.057139 -0.922370
vn -0.922370 -0.057140 -0.382058
vn -0.922370 -0.057140 -0.382058
vn -0.922370 -0.057140 -0.382058
vn -0.922370 -0.057140 -0.382058
vn -0.922370 -0.057140 0.382058
vn -0.922370 -0.057140 0.382058
vn -0.922370 -0.057140 0.382058
vn -0.922370 -0.057140 0.382058
vn -0.382058 -0.057138 0.922370
vn -0.382058 -0.057138 0.922370
vn -0.382058 -0.057138 0.922370
vn -0.382058 -0.057138 0.922370
vn 0.382059 -0.057138 0.922370
vn 0.382059 -0.057138 0.922370
vn 0.382059 -0.057138 0.922370
vn 0.382059 -0.057138 0.922370
vn 0.922370 -0.057139 0.382059
vn 0.922370 -0.057139 0.382059
vn 0.922370 -0.057139 0.382059
vn 0.922370 -0.057139 0.382059
vn 0.922370 -0.057140 -0.382059
vn 0.922370 -0.057140 -0.382059
vn 0.922370 -0.057140 -0.382059
vn 0.922370 -0.057140 -0.382059
vn 0.249455 -0.758343 -0.602237
vn 0.249455 -0.758343 -0.602237
vn 0.249455 -0.758343 -0.602237
vn 0.249455 -0.758343 -0.602237
vn -0.249455 -0.758342 -0.602237
vn -0.249455 -0.758342 -0.602237
vn -0.249455 -0.758342 -0.602237
vn -0.249455 -0.758342 -0.602237
vn -0.602238 -0.758342 -0.249455
vn -0.602238 -0.758342 -0.249455
vn -0.602238 -0.758342 -0.249455
vn -0.602238 -0.758342 -0.249455
vn -0.602238 -0.758342 0.249455
vn -0.602238 -0.758342 0.249455
vn -0.602238 -0.758342 0.249455
vn -0.602238 -0.758342 0.249455
vn -0.249455 -0.758342 0.602237
vn -0.249455 -0.758342 0.602237
vn -0.249455 -0.758342 0.602237
vn -0.249455 -0.758342 0.602237
vn 0.249455 -0.758343 0.602236
vn 0.249455 -0.758343 0.602236
vn 0.249454 -0.758343 0.602236
vn 0.249455 -0.758343 0.602236
vn 0.602237 -0.758343 0.249455
vn 0.602237 -0.758343 0.249455
vn 0.602237 -0.758343 0.249455
vn 0.602237 -0.758343 0.249455
vn 0.602237 -0.758343 -0.249455
vn 0.602237 -0.758343 -0.249455
vn 0.602237 -0.758343 -0.249455
vn 0.602237 -0.758342 -0.249455
vn 0.921764 0.067631 -0.381807
vn 0.921764 0.067631 -0.381807
vn 0.770534 0.551734 -0.319166
vn 0.770534 0.551734 -0.319166
vn 0.921764 0.067631 0.381807
vn 0.921764 0.067631 0.381807
vn 0.770534 0.551734 0.319166
vn 0.770534 0.551734 0.319166
vn 0.381807 0.067631 0.921764
vn 0.381807 0.067631 0.921764
vn 0.319166 0.551734 0.770534
vn 0.319166 0.551734 0.770534
vn -0.381808 0.067631 0.921764
vn -0.381808 0.067631 0.921764
vn -0.319166 0.551733 0.770535
vn -0.319166 0.551733 0.770535
vn -0.921764 0.067631 0.381808
vn -0.921764 0.067631 0.381808
vn -0.770535 0.551732 0.319167
vn -0.770535 0.551732 0.319167
vn -0.921764 0.067631 -0.381807
vn -0.921764 0.067631 -0.381807
vn -0.770535 0.551733 -0.319167
vn -0.770535 0.551733 -0.319167
vn -0.381807 0.067631 -0.921764
vn -0.381807 0.067631 -0.921764
vn -0.319166 0.551733 -0.770535
vn -0.319166 0.551733 -0.770535
vn 0.381807 0.067631 -0.921764
vn 0.381807 0.067631 -0.921764
vn 0.319166 0.551734 -0.770534
vn 0.319166 0.551734 -0.770534
vn 0.770534 0.551734 -0.319166
vn 0.770534 0.551734 -0.319166
vn 0.923879 0.000000 -0.382685
vn 0.923879 0.000000 -0.382684
vn 0.770534 0.551734 0.319166
vn 0.770534 0.551734 0.319166
vn 0.923879 0.000000 0.382684
vn 0.923879 0.000000 0.382684
vn 0.319166 0.551734 0.770534
vn 0.319166 0.551734 0.770534
vn 0.382684 0.000000 0.923879
vn 0.382684 0.000000 0.923879
vn -0.319166 0.551733 0.770535
vn -0.319166 0.551733 0.770535
vn -0.382684 0.000000 0.923879
vn -0.382684 0.000000 0.923879
vn -0.770535 0.551732 0.319167
vn -0.770535 0.551732 0.319167
vn -0.923879 0.000000 0.382684
vn -0.923879 0.000000 0.382684
vn -0.770535 0.551733 -0.319167
vn -0.770535 0.551733 -0.319167
vn -0.923879 0.000000 -0.382684
vn -0.923879 0.000000 -0.382684
vn -0.319166 0.551733 -0.770535
vn -0.319166 0.551733 -0.770535
vn -0.382683 0.000000 -0.923880
vn -0.382683 0.000000 -0.923880
vn 0.319166 0.551734 -0.770534
vn 0.319166 0.551734 -0.770534
vn 0.382684 0.000000 -0.923879
vn 0.382684 0.000000 -0.923879
vn 0.000000 -1.000000 0.000000
vn 0.000000 -1.000000 0.000000
vn 0.000000 -1.000000 0.000000
vn 0.000000 -1.000000 0.000000
vn 0.000000 -1.000000 0.000000
vn 0.000000 -1.000000 0.000000
vn 0.000000 -1.000000 0.000000
vn 0.000000 -1.000000 0.000000
vn 0.000000 -1.000000 0.000000
vn 0.000000 -1.000000 -0.000000
vn 0.000000 -1.000000 -0.000000
vn 0.000000 -1.000000 -0.000000
vn 0.000000 -1.000000 0.000000
vn 0.000000 -1.000000 0.000000
vn 0.000000 -1.000000 0.000000
vn 0.000000 -1.000000 0.000000
vn 0.000000 -1.000000 0.000000
vn 0.000000 -1.000000 0.000000
vn 0.000000 -1.000000 0.000000
vn 0.000000 -1.000000 0.000000
vn 0.000000 -1.000000 0.000000
vn 0.000000 -1.000000 0.000000
vn 0.000000 -1.000000 0.000000
vn 0.000000 -1.000000 0.000000
vn 0.078781 0.978580 -0.190195
vn 0.078781 0.978580 -0.190195
vn 0.078781 0.978580 -0.190195
vn 0.078781 0.978580 -0.190195
vn -0.078781 0.978580 -0.190194
vn -0.078781 0.978580 -0.190194
vn -0.078781 0.978580 -0.190194
vn -0.078781 0.978580 -0.190194
vn -0.190195 0.978580 -0.078781
vn -0.190195 0.978580 -0.078781
vn -0.190195 0.978580 -0.078781
vn -0.190195 0.978580 -0.078781
vn -0.190195 0.978580 0.078781
vn -0.190195 0.978580 0.078781
vn -0.190195 0.978580 0.078781
vn -0.190195 0.978580 0.078781
vn -0.078781 0.978580 0.190195
vn -0.078781 0.978580 0.190195
vn -0.078781 0.978580 0.190195
vn -0.078781 0.978580 0.190195
vn 0.078782 0.978580 0.190196
vn 0.078782 0.978580 0.190196
vn 0.078782 0.978580 0.190196
vn 0.078782 0.978580 0.190196
vn 0.190195 0.978580 0.078781
vn 0.190195 0.978580 0.078781
vn 0.190195 0.978580 0.078781
vn 0.190195 0.978580 0.078781
vn 0.190195 0.978580 -0.078781
vn 0.190195 0.978580 -0.078781
vn 0.190195 0.978580 -0.078781
vn 0.190195 0.978580 -0.078781
vn 0.000000 1.000000 0.000000
vn 0.000000 1.000000 0.000000
vn 0.000000 1.000000 0.000000
vn 0.000000 1.000000 0.000000
vn 0.000000 1.000000 0.000000
vn 0.000000 1.000000 0.000000
vn 0.000000 1.000000 0.000000
vn 0.000000 1.000000 0.000000
vn 0.000000 1.000000 0.000000
vn 0.000000 1.000000 0.000001
vn 0.000000 1.000000 0.000001
vn 0.000000 1.000000 0.000001
vn 0.000000 1.000000 0.000000
vn 0.000000 1.000000 0.000000
vn 0.000000 1.000000 0.000000
vn 0.000000 1.000000 0.000000
vn 0.000000 1.000000 0.000000
vn 0.000000 1.000000 0.000000
vn 0.000000 1.000000 0.000000
vn 0.000000 1.000000 0.000000
vn 0.000000 1.000000 0.000000
vn 0.000000 1.000000 -0.000001
vn 0.000000 1.000000 -0.000001
vn 0.000000 1.000000 -0.000001
vn 0.382568 -0.024627 -0.923599
vn 0.382568 -0.024627 -0.923599
vn 0.382568 -0.024627 -0.923599
vn 0.382568 -0.024627 -0.923599
vn -0.382568 -0.024628 -0.923599
vn -0.382568 -0.024628 -0.923599
vn -0.382568 -0.024628 -0.923599
vn -0.382568 -0.024628 -0.923599
vn -0.923599 -0.024627 -0.382568
vn -0.923599 -0.024627 -0.382568
vn -0.923599 -0.024627 -0.382568
vn -0.923599 -0.024627 -0.382568
vn -0.923599 -0.024628 0.382568
vn -0.923599 -0.024628 0.382568
vn -0.923599 -0.024628 0.382568
vn -0.923599 -0.024628 0.382568
vn -0.382567 -0.024628 0.923599
vn -0.382568 -0.024628 0.923599
vn -0.382567 -0.024628 0.923599
vn -0.382568 -0.024628 0.923599
vn 0.382568 -0.024627 0.923599
vn 0.382568 -0.024627 0.923599
vn 0.382568 -0.024627 0.923599
vn 0.382568 -0.024627 0.923599
vn 0.923599 -0.024625 0.382568
vn 0.923599 -0.024625 0.382568
vn 0.923599 -0.024625 0.382568
vn 0.923599 -0.024625 0.382568
vn 0.923599 -0.024625 -0.382567
vn 0.923599 -0.024625 -0.382567
vn 0.923599 -0.024625 -0.382567
vn 0.923599 -0.024625 -0.382567
vn 0.845930 0.402026 -0.350396
vn 0.845930 0.402026 -0.350396
vn 0.845930 0.402026 -0.350396
vn 0.845930 0.402026 -0.350396
vn 0.845930 0.402025 0.350396
vn 0.845930 0.402025 0.350396
vn 0.845930 0.402025 0.350396
vn 0.845930 0.402025 0.350396
vn 0.350397 0.402026 0.845930
vn 0.350397 0.402026 0.845930
vn 0.350397 0.402026 0.845930
vn 0.350397 0.402026 0.845930
vn -0.350395 0.402025 0.845931
vn -0.350395 0.402025 0.845931
vn -0.350395 0.402025 0.845931
vn -0.350395 0.402025 0.845931
vn -0.845931 0.402024 0.350395
vn -0.845931 0.402024 0.350395
vn -0.845931 0.402024 0.350395
vn -0.845931 0.402024 0.350395
vn -0.845931 0.402024 -0.350395
vn -0.845931 0.402024 -0.350395
vn -0.845931 0.402024 -0.350395
vn -0.845931 0.402024 -0.350395
vn -0.350396 0.402025 -0.845931
vn -0.350396 0.402025 -0.845931
vn -0.350396 0.402025 -0.845931
vn -0.350396 0.402025 -0.845931
vn 0.350396 0.402025 -0.845930
vn 0.350396 0.402025 -0.845930
vn 0.350396 0.402025 -0.845930
vn 0.350396 0.402025 -0.845930
s off
f 1/26/1 2/28/2 10/25/3 9/23/4
f 2/28/5 3/27/6 11/24/7 10/25/8
f 3/27/9 4/21/10 12/22/11 11/24/12
f 4/7/13 5/9/14 13/10/15 12/8/16
f 5/9/17 6/11/18 14/12/19 13/10/20
f 6/11/21 7/13/22 15/14/23 14/12/24
f 7/13/25 8/15/26 16/16/27 15/14/28
f 8/19/29 1/26/30 9/23/31 16/20/32
f 2/1/33 1/2/34 17/5/35
f 3/17/36 2/1/37 17/5/38
f 4/117/39 3/17/40 17/5/41
f 5/118/42 4/117/43 17/5/44
f 6/119/45 5/118/46 17/5/47
f 7/120/48 6/119/49 17/5/50
f 8/121/51 7/120/52 17/5/53
f 1/2/54 8/121/55 17/5/56
f 9/3/57 10/4/58 18/6/59
f 10/4/60 11/18/61 18/6/62
f 11/18/63 12/29/64 18/6/65
f 12/29/66 13/30/67 18/6/68
f 13/30/69 14/31/70 18/6/71
f 14/31/72 15/32/73 18/6/74
f 15/32/75 16/33/76 18/6/77
f 16/33/78 9/3/79 18/6/80
f 44/34/81 45/35/82 59/36/83 52/37/84
f 45/35/85 46/38/86 58/39/87 59/36/88
f 46/38/89 47/40/90 57/41/91 58/39/92
f 47/40/93 48/42/94 56/43/95 57/41/96
f 48/42/97 49/44/98 55/45/99 56/43/100
f 49/44/101 50/46/102 54/47/103 55/45/104
f 50/46/105 51/48/106 53/49/107 54/47/108
f 51/48/109 44/34/110 52/37/111 53/49/112
f 20/50/113 19/51/114 35/52/115
f 21/53/116 20/50/117 35/52/118
f 22/54/119 21/53/120 35/52/121
f 23/55/122 22/54/123 35/52/124
f 24/56/125 23/55/126 35/52/127
f 25/57/128 24/56/129 35/52/130
f 26/58/131 25/57/132 35/52/133
f 19/51/134 26/58/135 35/52/136
f 19/51/137 20/50/138 37/59/139 36/60/140
f 20/50/141 21/53/142 38/61/143 37/59/144
f 21/53/145 22/54/146 39/62/147 38/61/148
f 22/54/149 23/55/150 40/63/151 39/62/152
f 23/55/153 24/56/154 41/64/155 40/63/156
f 24/56/157 25/57/158 42/65/159 41/64/160
f 25/57/161 26/58/162 43/66/163 42/65/164
f 26/58/165 19/51/166 36/60/167 43/66/168
f 45/35/169 44/34/170 36/60/171 37/59/172
f 46/38/173 45/35/174 37/59/175 38/61/176
f 47/40/177 46/38/178 38/61/179 39/62/180
f 48/42/181 47/40/182 39/62/183 40/63/184
f 49/44/185 48/42/186 40/63/187 41/64/188
f 50/46/189 49/44/190 41/64/191 42/65/192
f 51/48/193 50/46/194 42/65/195 43/66/196
f 44/34/197 51/48/198 43/66/199 36/60/200
f 53/49/201 52/37/202 60/75/203 61/76/204
f 54/47/205 53/49/206 61/76/207 62/77/208
f 55/45/209 54/47/210 62/77/211 63/78/212
f 56/43/213 55/45/214 63/78/215 64/79/216
f 57/41/217 56/43/218 64/79/219 65/80/220
f 58/39/221 57/41/222 65/80/223 66/81/224
f 59/36/225 58/39/226 66/81/227 67/82/228
f 52/37/229 59/36/230 67/82/231 60/75/232
f 61/76/233 60/75/234 27/67/235 34/74/236
f 62/77/237 61/76/238 34/74/239 33/73/240
f 63/78/241 62/77/242 33/73/243 32/72/244
f 64/79/245 63/78/246 32/72/247 31/71/248
f 65/80/249 64/79/250 31/71/251 30/70/252
f 66/81/253 65/80/254 30/70/255 29/69/256
f 67/82/257 66/81/258 29/69/259 28/68/260
f 60/75/261 67/82/262 28/68/263 27/67/264
f 69/83/265 68/84/266 76/85/267
f 70/86/268 69/83/269 76/85/270
f 71/87/271 70/86/272 76/85/273
f 72/88/274 71/87/275 76/85/276
f 73/89/277 72/88/278 76/85/279
f 74/90/280 73/89/281 76/85/282
f 75/91/283 74/90/284 76/85/285
f 68/84/286 75/91/287 76/85/288
f 86/92/289 87/93/290 101/94/291 94/95/292
f 87/93/293 88/96/294 100/97/295 101/94/296
f 88/96/297 89/98/298 99/99/299 100/97/300
f 89/98/301 90/100/302 98/101/303 99/99/304
f 90/100/305 91/102/306 97/103/307 98/101/308
f 91/102/309 92/104/310 96/105/311 97/103/312
f 92/104/313 93/106/314 95/107/315 96/105/316
f 93/106/317 86/92/318 94/95/319 95/107/320
f 77/108/321 78/109/322 85/110/323
f 78/109/324 79/111/325 85/110/326
f 79/111/327 80/112/328 85/110/329
f 80/112/330 81/113/331 85/110/332
f 81/113/333 82/114/334 85/110/335
f 82/114/336 83/115/337 85/110/338
f 83/115/339 84/116/340 85/110/341
f 84/116/342 77/108/343 85/110/344
f 68/84/345 69/83/346 87/93/347 86/92/348
f 69/83/349 70/86/350 88/96/351 87/93/352
f 70/86/353 71/87/354 89/98/355 88/96/356
f 71/87/357 72/88/358 90/100/359 89/98/360
f 72/88/361 73/89/362 91/102/363 90/100/364
f 73/89/365 74/90/366 92/104/367 91/102/368
f 74/90/369 75/91/370 93/106/371 92/104/372
f 75/91/373 68/84/374 86/92/375 93/106/376
f 95/107/377 94/95/378 77/108/379 84/116/380
f 96/105/381 95/107/382 84/116/383 83/115/384
f 97/103/385 96/105/386 83/115/387 82/114/388
f 98/101/389 97/103/390 82/114/391 81/113/392
f 99/99/393 98/101/394 81/113/395 80/112/396
f 100/97/397 99/99/398 80/112/399 79/111/400
f 101/94/401 100/97/402 79/111/403 78/109/404
f 94/95/405 101/94/406 78/109/407 77/108/408
