# This file uses centimeters as units for non-parametric coordinates.

v 12.066087 0.000001 -6.649620
v -12.066087 0.000001 -6.649620
v 12.066087 3.310009 -6.649620
v -12.066087 3.310009 -6.649620
v 12.066087 0.000001 6.649622
v -12.066087 0.000001 6.649622
v 12.066087 3.310009 6.649622
v -12.066087 3.310009 6.649622
v 0.000000 0.000001 -6.649620
v 0.000000 0.000001 6.649622
v 0.000000 3.310009 6.649622
v 0.000000 3.310009 -6.649620
v 12.066087 0.000001 0.000000
v 12.066087 3.310009 0.000000
v 10.859479 3.310009 0.000002
v 4.925573 3.310009 0.000000
v -4.925573 3.310009 0.000000
v -10.859479 3.310009 0.000000
v -12.066087 3.310009 0.000000
v -12.066087 0.000001 0.000000
v 0.000000 0.000001 0.000000
v 0.000000 3.310009 3.989775
v 4.925573 3.310009 3.989775
v 8.864509 3.310009 3.989775
v -8.864509 3.310009 3.989775
v -4.925573 3.310009 3.989773
v 8.864508 3.310009 -3.324810
v 4.925573 3.310009 -3.324810
v 0.000000 3.310009 -3.324810
v -4.925573 3.310009 -3.324810
v -8.864508 3.310009 -3.324810
v -5.761685 0.000001 -2.153910
v 5.761685 0.000001 2.453146
v -8.204942 0.000001 0.172174
v -3.318174 0.000001 0.172174
v 3.318174 0.000001 0.172174
v 8.204942 0.000001 0.172174
v -5.761685 0.000001 2.453146
v 5.761685 0.000001 -2.153910
v 7.275781 0.000001 1.831184
v 4.247332 0.000001 -1.531948
v -4.301571 0.000001 -1.603741
v -7.221542 0.000001 1.902975
v -7.221542 0.000001 -1.603741
v -4.301571 0.000001 1.902975
v 4.247332 0.000001 1.831184
v 7.275781 0.000001 -1.531948
v -4.362508 3.310009 2.748919
v 0.000000 3.310009 2.748922
v 0.000000 3.310009 0.112806
v -4.362508 3.310009 0.112806
v 4.362508 3.310009 2.748922
v 4.362508 3.310009 0.112806
v 4.362508 3.310009 -2.083956
v 0.000000 3.310009 -2.083956
v -4.362508 3.310009 -2.083956
vt 0.081183 0.282351
vt 0.080484 0.282033
vt 0.080468 0.281923
vt 0.081184 0.282229
vt 0.081454 0.282148
vt 0.080776 0.281886
vt 0.080767 0.281783
vt 0.081460 0.282033
vt 0.081113 0.282017
vt 0.080834 0.282191
vt 0.080826 0.282076
vt 0.081114 0.281908
vt 0.080631 0.281959
vt 0.080613 0.281851
vt 0.080649 0.281865
vt 0.080791 0.281922
vt 0.389907 0.373220
vt 0.081148 0.282062
vt 0.081290 0.282118
vt 0.081326 0.282132
vt 0.081320 0.282250
vt 0.080975 0.282104
vt 0.080883 0.282042
vt 0.080703 0.281968
vt 0.080559 0.281908
vt 0.081207 0.282177
vt 0.081063 0.282117
vt 0.080723 0.281830
vt 0.080865 0.281883
vt 0.081041 0.281950
vt 0.081218 0.282017
vt 0.081359 0.282070
vt 0.269845 0.308496
vt 0.269659 0.308500
vt 0.269573 0.308355
vt 0.269847 0.308348
vt 0.270494 0.308479
vt 0.270309 0.308484
vt 0.270301 0.308337
vt 0.270573 0.308330
vt 0.269670 0.308235
vt 0.269849 0.308230
vt 0.270294 0.308219
vt 0.270472 0.308215
vt 0.081183 0.282154
vt 0.080758 0.282055
vt 0.081218 0.282207
vt 0.081062 0.282141
vt 0.080888 0.282068
vt 0.080731 0.282002
vt 0.081107 0.282206
vt 0.080837 0.282011
vt 0.080688 0.282024
vt 0.080923 0.282046
vt 0.081097 0.282119
vt 0.081178 0.282237
vt 0.081252 0.282182
vt 0.081020 0.282167
vt 0.080846 0.282094
vt 0.080768 0.281983
vt 0.102075 0.377182
vt 0.101985 0.377212
vt 0.101897 0.377176
vt 0.101840 0.377065
vt 0.101904 0.376962
vt 0.101994 0.376931
vt 0.102081 0.376968
vt 0.102138 0.377075
vt 0.101383 0.376949
vt 0.101436 0.377052
vt 0.101376 0.377154
vt 0.101282 0.377189
vt 0.101191 0.377148
vt 0.101138 0.377042
vt 0.101198 0.376943
vt 0.101292 0.376908
vt 0.081063 0.282117
vt 0.080883 0.282042
vt 0.081148 0.282062
vt 0.080703 0.281968
vt 0.080791 0.281922
vt 0.080865 0.281883
vt 0.081041 0.281950
vt 0.081218 0.282017
vt 0.402958 0.373220
vt 0.402958 0.381106
vt 0.389907 0.381106
vt 0.416009 0.373220
vt 0.416009 0.381106
vt 0.416009 0.387678
vt 0.402958 0.387678
vt 0.389907 0.387678
vn 1.000000 0.000000 0.000000
vn 1.000000 0.000000 0.000000
vn 1.000000 0.000000 0.000000
vn 1.000000 0.000000 0.000000
vn 0.000000 1.000000 0.000000
vn 0.000000 1.000000 0.000000
vn 0.000000 1.000000 0.000000
vn 0.000000 1.000000 0.000000
vn -1.000000 0.000000 0.000000
vn -1.000000 0.000000 0.000000
vn -1.000000 0.000000 0.000000
vn -1.000000 0.000000 0.000000
vn 0.000000 1.000000 0.000000
vn 0.000000 1.000000 0.000000
vn 0.000000 1.000000 0.000000
vn 0.000000 1.000000 0.000000
vn 0.000000 0.000000 -1.000000
vn 0.000000 0.000000 -1.000000
vn 0.000000 0.000000 -1.000000
vn 0.000000 0.000000 -1.000000
vn 0.000000 0.000000 1.000000
vn 0.000000 0.000000 1.000000
vn 0.000000 0.000000 1.000000
vn 0.000000 0.000000 1.000000
vn 0.000000 1.000000 -0.000000
vn 0.000000 1.000000 -0.000000
vn 0.000000 1.000000 -0.000000
vn 0.000000 1.000000 -0.000000
vn 0.000000 1.000000 -0.000000
vn 0.000000 1.000000 -0.000000
vn 0.000000 1.000000 -0.000000
vn 0.000000 1.000000 0.000000
vn 0.000000 1.000000 0.000000
vn 0.000000 1.000000 -0.000000
vn 0.000000 1.000000 -0.000000
vn 0.000000 1.000000 -0.000000
vn 0.000000 0.000000 -1.000000
vn 0.000000 0.000000 -1.000000
vn 0.000000 0.000000 -1.000000
vn 0.000000 0.000000 -1.000000
vn 0.000000 0.000000 1.000000
vn 0.000000 0.000000 1.000000
vn 0.000000 0.000000 1.000000
vn 0.000000 0.000000 1.000000
vn 0.000000 1.000000 -0.000000
vn 0.000000 1.000000 -0.000000
vn 0.000000 1.000000 -0.000000
vn 0.000000 1.000000 -0.000000
vn 1.000000 0.000000 0.000000
vn 1.000000 0.000000 0.000000
vn 1.000000 0.000000 0.000000
vn 1.000000 0.000000 0.000000
vn 0.000000 1.000000 0.000000
vn 0.000000 1.000000 0.000000
vn 0.000000 1.000000 -0.000000
vn 0.000000 1.000000 0.000000
vn 0.000000 1.000000 -0.000000
vn 0.000000 1.000000 -0.000000
vn 0.000000 1.000000 0.000000
vn 0.000000 1.000000 0.000000
vn 0.000000 1.000000 0.000000
vn 0.000000 1.000000 0.000000
vn 0.000000 1.000000 0.000000
vn 0.000000 1.000000 0.000000
vn 0.000000 1.000000 0.000000
vn 0.000000 1.000000 0.000000
vn 0.000000 1.000000 0.000000
vn 0.000000 1.000000 0.000000
vn 0.000000 1.000000 -0.000000
vn 0.000000 1.000000 -0.000000
vn 0.000000 1.000000 0.000000
vn 0.000000 1.000000 0.000000
vn 0.000000 1.000000 0.000000
vn 0.000000 1.000000 -0.000000
vn 0.000000 1.000000 0.000000
vn 0.000000 1.000000 0.000000
vn -1.000000 0.000000 0.000000
vn -1.000000 0.000000 0.000000
vn -1.000000 0.000000 0.000000
vn -1.000000 0.000000 0.000000
vn 0.000000 -1.000000 0.000000
vn 0.000000 -1.000000 0.000000
vn 0.000000 -1.000000 -0.000000
vn 0.000000 -1.000000 0.000000
vn 0.000000 -1.000000 0.000000
vn 0.000000 -1.000000 0.000000
vn 0.000000 -1.000000 0.000000
vn 0.000000 -1.000000 0.000000
vn 0.000000 1.000000 -0.000000
vn 0.000000 1.000000 -0.000000
vn 0.000000 1.000000 0.000000
vn 0.000000 1.000000 -0.000000
vn 0.000000 1.000000 -0.000000
vn 0.000000 1.000000 -0.000000
vn 0.000000 1.000000 -0.000000
vn 0.000000 1.000000 -0.000000
vn 0.000000 1.000000 -0.000000
vn 0.000000 1.000000 -0.000000
vn 0.000000 1.000000 -0.000000
vn 0.000000 1.000000 -0.000000
vn 0.000000 1.000000 0.000000
vn 0.000000 1.000000 -0.000000
vn 0.000000 1.000000 0.000000
vn 0.000000 1.000000 0.000000
vn 0.000000 1.000000 0.000000
vn 0.000000 1.000000 0.000000
vn 0.000000 1.000000 0.000000
vn 0.000000 1.000000 0.000000
vn 0.000000 1.000000 0.000000
vn 0.000000 1.000000 0.000000
vn 0.000000 1.000000 0.000000
vn 0.000000 1.000000 0.000000
vn 0.000000 1.000000 0.000000
vn 0.000000 1.000000 0.000000
vn 0.000000 1.000000 0.000000
vn 0.000000 1.000000 0.000000
vn 0.000000 -1.000000 0.000000
vn 0.000000 -1.000000 0.000000
vn 0.000000 -1.000000 0.000000
vn 0.000000 -1.000000 -0.000000
vn 0.000000 -1.000000 -0.000000
vn 0.000000 -1.000000 0.000000
vn 0.000000 -1.000000 0.000000
vn 0.000000 -1.000000 0.000000
vn 0.000000 -1.000000 0.000000
vn 0.000000 -1.000000 0.000000
vn 0.000000 -1.000000 0.000000
vn 0.000000 -1.000000 -0.000000
vn 0.000000 -1.000000 -0.000000
vn 0.000000 -1.000000 -0.000000
vn 0.000000 -1.000000 0.000000
vn 0.000000 -1.000000 -0.000000
vn 0.000000 -1.000000 0.000000
vn 0.000000 -1.000000 -0.000000
vn 0.000000 -1.000000 -0.000000
vn 0.000000 -1.000000 0.000000
vn 0.000000 -1.000000 0.000000
vn 0.000000 -1.000000 0.000000
vn 0.000000 -1.000000 -0.000000
vn 0.000000 -1.000000 0.000000
vn 0.000000 -1.000000 0.000000
vn 0.000000 -1.000000 0.000000
vn 0.000000 -1.000000 0.000000
vn 0.000000 -1.000000 0.000000
vn 0.000000 -1.000000 0.000000
vn 0.000000 -1.000000 0.000000
vn 0.000000 -1.000000 0.000000
vn 0.000000 -1.000000 0.000000
vn 0.000000 -1.000000 0.000000
vn 0.000000 -1.000000 0.000000
vn 0.000000 -1.000000 0.000000
vn 0.000000 -1.000000 0.000000
vn 0.000000 -1.000000 0.000000
vn 0.000000 -1.000000 0.000000
vn 0.000000 -1.000000 0.000000
vn 0.000000 -1.000000 0.000000
vn 0.000000 -1.000000 0.000000
vn 0.000000 -1.000000 -0.000000
vn 0.000000 -1.000000 0.000000
vn 0.000000 -1.000000 0.000000
vn 0.000000 -1.000000 -0.000000
vn 0.000000 -1.000000 -0.000000
vn 0.000000 -1.000000 -0.000000
vn 0.000000 -1.000000 0.000000
vn 0.000000 -1.000000 -0.000000
vn 0.000000 -1.000000 -0.000000
vn 0.000000 -1.000000 -0.000000
vn 0.000000 -1.000000 -0.000000
vn 0.000000 -1.000000 -0.000000
vn 0.000000 -1.000000 0.000000
vn 0.000000 -1.000000 0.000000
vn 0.000000 -1.000000 -0.000000
vn 0.000000 -1.000000 -0.000000
vn 0.000000 -1.000000 0.000000
vn 0.000000 -1.000000 0.000000
vn 0.000000 -1.000000 0.000000
vn 0.000000 -1.000000 0.000000
vn 0.000000 -1.000000 0.000000
vn 0.000000 -1.000000 0.000000
vn 0.000000 -1.000000 0.000000
vn 0.000000 -1.000000 0.000000
vn 0.000000 -1.000000 0.000000
vn 0.000000 -1.000000 0.000000
vn 0.000000 -1.000000 0.000000
vn 0.000000 1.000000 0.000000
vn 0.000000 1.000000 0.000000
vn 0.000000 1.000000 0.000000
vn 0.000000 1.000000 0.000000
vn 0.000000 1.000000 0.000000
vn 0.000000 1.000000 0.000000
vn 0.000000 1.000000 0.000000
vn 0.000000 1.000000 0.000000
vn 0.000000 1.000000 0.000000
vn 0.000000 1.000000 0.000000
vn 0.000000 1.000000 0.000000
vn 0.000000 1.000000 0.000000
vn 0.000000 1.000000 0.000000
vn 0.000000 1.000000 0.000000
vn 0.000000 1.000000 0.000000
vn 0.000000 1.000000 0.000000
vn 0.000000 1.000000 0.000000
vn 0.000000 1.000000 0.000000
vn 0.000000 1.000000 0.000000
vn 0.000000 1.000000 0.000000
vn 0.000000 1.000000 -0.000000
vn 0.000000 1.000000 -0.000000
vn 0.000000 1.000000 -0.000000
vn 0.000000 1.000000 -0.000000
vn 0.000000 1.000000 -0.000000
vn 0.000000 1.000000 -0.000000
vn 0.000000 1.000000 -0.000000
vn 0.000000 1.000000 -0.000000
vn 0.000000 1.000000 0.000000
vn 0.000000 1.000000 0.000000
vn 0.000000 1.000000 0.000000
vn 0.000000 1.000000 0.000000
s off
f 13/13/1 14/14/2 7/3/3 5/2/4
f 48/17/5 49/85/6 50/86/7 51/87/8
f 19/20/9 20/21/10 6/1/11 8/4/12
f 49/85/13 52/88/14 53/89/15 50/86/16
f 4/8/17 12/12/18 9/9/19 2/5/20
f 11/11/21 10/10/22 5/2/23 7/3/24
f 23/33/25 24/34/26 15/35/27 16/36/28
f 8/4/29 25/26/30 18/19/31 19/20/32
f 14/14/33 15/15/34 24/25/35 7/3/36
f 12/12/37 3/7/38 1/6/39 9/9/40
f 8/4/41 6/1/42 10/10/43 11/11/44
f 25/37/45 26/38/46 17/39/47 18/40/48
f 1/6/49 3/7/50 14/14/51 13/13/52
f 3/7/53 27/28/54 15/15/55 14/14/56
f 16/36/57 15/35/58 27/41/59 28/42/60
f 50/86/61 53/89/62 54/90/63 55/91/64
f 51/87/65 50/86/66 55/91/67 56/92/68
f 18/40/69 17/39/70 30/43/71 31/44/72
f 19/20/73 18/19/74 31/32/75 4/8/76
f 4/8/77 2/5/78 20/21/79 19/20/80
f 44/61/81 32/62/82 42/63/83 35/64/84 45/65/85 38/66/86 43/67/87 34/68/88
f 11/11/89 23/24/90 22/23/91
f 7/3/92 24/25/93 23/24/94 11/11/95
f 11/11/96 26/27/97 25/26/98 8/4/99
f 11/11/100 22/23/101 26/27/102
f 28/29/103 27/28/104 3/7/105 12/12/106
f 29/30/107 28/29/108 12/12/109
f 30/31/110 29/30/111 12/12/112
f 31/32/113 30/31/114 12/12/115 4/8/116
f 46/69/117 36/70/118 41/71/119 39/72/120 47/73/121 37/74/122 40/75/123 33/76/124
f 32/45/125 44/57/126 2/5/127 9/9/128
f 9/9/129 42/55/130 32/45/131
f 21/22/132 35/48/133 42/55/134 9/9/135
f 10/10/136 45/58/137 35/48/138 21/22/139
f 10/10/140 38/51/141 45/58/142
f 10/10/143 6/1/144 43/56/145 38/51/146
f 34/47/147 43/56/148 6/1/149 20/21/150
f 44/57/151 34/47/152 20/21/153 2/5/154
f 36/49/155 46/59/156 10/10/157 21/22/158
f 41/54/159 36/49/160 21/22/161 9/9/162
f 39/52/163 41/54/164 9/9/165
f 1/6/166 47/60/167 39/52/168 9/9/169
f 13/13/170 37/50/171 47/60/172 1/6/173
f 5/2/174 40/53/175 37/50/176 13/13/177
f 5/2/178 10/10/179 33/46/180 40/53/181
f 10/10/182 46/59/183 33/46/184
f 26/27/185 22/23/186 49/78/187 48/77/188
f 17/18/189 26/27/190 48/77/191 51/79/192
f 22/23/193 23/24/194 52/80/195 49/78/196
f 23/24/197 16/16/198 53/81/199 52/80/200
f 16/16/201 28/29/202 54/82/203 53/81/204
f 28/29/205 29/30/206 55/83/207 54/82/208
f 29/30/209 30/31/210 56/84/211 55/83/212
f 30/31/213 17/18/214 51/79/215 56/84/216
