# This file uses centimeters as units for non-parametric coordinates.

v -5.296185 0.000000 4.792503
v 4.619621 0.000000 4.792503
v -9.185791 21.130146 8.682114
v 8.509224 21.130146 8.682114
v -9.185791 21.130146 -9.012901
v 8.509224 21.130146 -9.012901
v -5.296185 0.000000 -5.123295
v 4.619621 0.000000 -5.123295
v -7.079365 21.130146 6.575691
v 6.402802 21.130146 6.575691
v 6.402802 21.130146 -6.906475
v -7.079365 21.130146 -6.906475
v -6.268108 18.399574 5.764435
v 5.591545 18.399574 5.764435
v 5.591545 18.399574 -6.095219
v -6.268108 18.399574 -6.095219
v -9.185791 11.716223 8.682114
v 8.509224 11.716223 8.682114
v 8.509224 11.716223 -9.012901
v -9.185791 11.716223 -9.012901
v -2.903355 17.700499 1.382175
v -0.808910 18.185831 -2.513981
v -15.336655 32.643570 -6.427486
v -15.608860 31.792635 -6.615143
v -3.817928 17.655575 0.516533
v -2.027115 18.070553 -2.814808
v -7.813675 27.679588 0.672478
v -5.153141 28.296099 -4.276741
v -5.591545 27.406654 -4.155239
v -7.866386 26.879513 0.076508
v -2.366856 17.790213 0.916046
v -7.222530 28.065884 0.065708
v -5.297920 28.511868 -3.514519
v -0.895294 18.131208 -1.821407
v -12.366241 31.475157 -4.836632
v -0.338982 18.359604 3.544823
v -3.788708 18.578188 0.742344
v -13.178703 30.772255 16.164917
v -13.243664 29.808205 16.259598
v -1.338436 18.028536 4.237122
v -4.288074 18.215433 1.840912
v -3.925949 27.909519 9.659988
v -8.308071 28.187183 6.100060
v -8.099297 27.205791 6.417107
v -4.352436 26.968382 9.460968
v -0.703419 18.464413 2.937073
v -4.473923 28.310984 9.013573
v -7.643917 28.511843 6.438339
v -3.127209 18.617990 0.968052
v -10.849438 30.276617 13.453133
v 3.056671 17.925735 1.565514
v -0.607666 18.209175 4.074425
v 10.464348 35.476131 15.041100
v 10.622322 34.455700 15.286674
v 3.470451 17.834759 2.752235
v 0.337330 18.077110 4.897438
v 7.067062 29.868761 5.006939
v 2.412331 30.228811 8.193954
v 2.861069 29.185888 8.240448
v 6.841019 28.878033 5.515442
v 2.363846 17.991543 1.735287
v 6.259781 30.277708 5.292171
v 2.892586 30.538166 7.597633
v -0.210728 18.190689 3.498051
v 8.560471 34.126694 12.196068
v 1.664871 18.228428 -2.287289
v 3.358482 18.228428 1.827812
v 15.275200 35.118313 -5.060341
v 15.608864 34.228474 -5.258888
v 2.914055 18.228424 -2.452602
v 4.362152 18.228424 1.065937
v 5.118660 29.419571 -4.359039
v 7.270020 29.419571 0.868282
v 7.469292 28.529730 0.343197
v 5.629807 28.529730 -4.126335
v 1.686623 18.228424 -1.571262
v 5.209373 29.720148 -3.475460
v 6.765656 29.720148 0.305950
v 2.876556 18.228424 1.320011
v 12.190582 33.629509 -3.923012
v -2.304790 18.140034 -2.464779
v 2.132713 18.140034 -2.131840
v 1.324081 36.889713 -15.872326
v 1.296356 35.901890 -16.259598
v -1.892010 18.140032 -3.655334
v 1.902206 18.140032 -3.370663
v -2.606518 30.563469 -6.480976
v 3.030357 30.563469 -6.058048
v 2.650513 29.575645 -6.471741
v -2.169205 29.575645 -6.833359
v -1.655132 18.140032 -2.162930
v -1.776180 30.897142 -6.165569
v 2.301498 30.897142 -5.859627
v 1.462662 18.140032 -1.929008
v 0.956383 35.236973 -12.605339
vt 0.102691 0.378288
vt 0.102045 0.378391
vt 0.102008 0.377875
vt 0.102757 0.377776
vt 0.102637 0.377808
vt 0.102089 0.377881
vt 0.102010 0.377566
vt 0.102493 0.377510
vt 0.102550 0.377391
vt 0.101917 0.377461
vt 0.101960 0.377953
vt 0.102517 0.377877
vt 0.102086 0.377806
vt 0.102644 0.377733
vt 0.102005 0.377494
vt 0.102497 0.377439
vt 0.037730 0.328126
vt 0.036856 0.328243
vt 0.036730 0.327740
vt 0.037500 0.327650
vt 0.102728 0.378004
vt 0.102025 0.378105
vt 0.101936 0.377680
vt 0.102536 0.377608
vt 0.133071 0.208519
vt 0.133031 0.208525
vt 0.132867 0.208186
vt 0.132835 0.208028
vt 0.186907 0.325294
vt 0.186817 0.325763
vt 0.187100 0.325753
vt 0.132804 0.208556
vt 0.132802 0.208579
vt 0.132832 0.208057
vt 0.133065 0.208543
vt 0.133066 0.208999
vt 0.133037 0.209003
vt 0.132870 0.209028
vt 0.132859 0.208983
vt 0.186860 0.326255
vt 0.187072 0.326246
vt 0.133055 0.208954
vt 0.132838 0.208551
vt 0.132899 0.209024
vt 0.186853 0.325721
vt 0.186924 0.325389
vt 0.187062 0.325714
vt 0.187047 0.326288
vt 0.186895 0.326294
vt 0.133071 0.208519
vt 0.133031 0.208525
vt 0.132867 0.208186
vt 0.132835 0.208028
vt 0.186907 0.325294
vt 0.186817 0.325763
vt 0.187100 0.325753
vt 0.132804 0.208556
vt 0.132802 0.208579
vt 0.132832 0.208057
vt 0.133065 0.208543
vt 0.133066 0.208999
vt 0.133037 0.209003
vt 0.132870 0.209028
vt 0.132859 0.208983
vt 0.186860 0.326255
vt 0.187072 0.326246
vt 0.133055 0.208954
vt 0.132838 0.208551
vt 0.132899 0.209024
vt 0.186853 0.325721
vt 0.186924 0.325389
vt 0.187062 0.325714
vt 0.187047 0.326288
vt 0.186895 0.326294
vt 0.133071 0.208519
vt 0.133031 0.208525
vt 0.132867 0.208186
vt 0.132835 0.208028
vt 0.186907 0.325294
vt 0.186817 0.325763
vt 0.187100 0.325753
vt 0.132804 0.208556
vt 0.132802 0.208579
vt 0.132832 0.208057
vt 0.133065 0.208543
vt 0.133066 0.208999
vt 0.133037 0.209003
vt 0.132870 0.209028
vt 0.132859 0.208983
vt 0.186860 0.326255
vt 0.187072 0.326246
vt 0.133055 0.208954
vt 0.132838 0.208551
vt 0.132899 0.209024
vt 0.186853 0.325721
vt 0.186924 0.325389
vt 0.187062 0.325714
vt 0.187047 0.326288
vt 0.186895 0.326294
vt 0.133071 0.208519
vt 0.133031 0.208525
vt 0.132867 0.208186
vt 0.132835 0.208028
vt 0.186907 0.325294
vt 0.186817 0.325763
vt 0.187100 0.325753
vt 0.132804 0.208556
vt 0.132802 0.208579
vt 0.132832 0.208057
vt 0.133065 0.208543
vt 0.133066 0.208999
vt 0.133037 0.209003
vt 0.132870 0.209028
vt 0.132859 0.208983
vt 0.186860 0.326255
vt 0.187072 0.326246
vt 0.133055 0.208954
vt 0.132838 0.208551
vt 0.132899 0.209024
vt 0.186853 0.325721
vt 0.186924 0.325389
vt 0.187062 0.325714
vt 0.187047 0.326288
vt 0.186895 0.326294
vt 0.133071 0.208519
vt 0.133031 0.208525
vt 0.132867 0.208186
vt 0.132835 0.208028
vt 0.186907 0.325294
vt 0.186817 0.325763
vt 0.187100 0.325753
vt 0.132804 0.208556
vt 0.132802 0.208579
vt 0.132832 0.208057
vt 0.133065 0.208543
vt 0.133066 0.208999
vt 0.133037 0.209003
vt 0.132870 0.209028
vt 0.132859 0.208983
vt 0.186860 0.326255
vt 0.187072 0.326246
vt 0.133055 0.208954
vt 0.132838 0.208551
vt 0.132899 0.209024
vt 0.186853 0.325721
vt 0.186924 0.325389
vt 0.187062 0.325714
vt 0.187047 0.326288
vt 0.186895 0.326294
vn 0.000000 -0.144196 0.989549
vn 0.000000 -0.144196 0.989549
vn 0.000000 0.000000 1.000000
vn 0.000000 0.000000 1.000000
vn 0.000000 1.000000 0.000000
vn 0.000000 1.000000 0.000000
vn 0.000000 1.000000 0.000000
vn 0.000000 1.000000 0.000000
vn 0.000000 0.000000 -1.000000
vn 0.000000 0.000000 -1.000000
vn 0.000000 -0.144196 -0.989549
vn 0.000000 -0.144196 -0.989549
vn 0.000000 -1.000000 0.000000
vn 0.000000 -1.000000 0.000000
vn 0.000000 -1.000000 0.000000
vn 0.000000 -1.000000 0.000000
vn 0.989549 -0.144195 0.000000
vn 0.989549 -0.144195 0.000000
vn 1.000000 0.000000 0.000000
vn 1.000000 0.000000 0.000000
vn -0.989549 -0.144196 0.000000
vn -0.989549 -0.144196 0.000000
vn -1.000000 0.000000 0.000000
vn -1.000000 0.000000 0.000000
vn 0.000000 1.000000 0.000000
vn 0.000000 1.000000 0.000000
vn 0.000000 1.000000 0.000000
vn 0.000000 1.000000 0.000000
vn 0.000000 1.000000 0.000000
vn 0.000000 1.000000 0.000000
vn 0.000000 1.000000 0.000000
vn 0.000000 1.000000 0.000000
vn 0.000000 1.000000 -0.000000
vn 0.000000 1.000000 -0.000000
vn 0.000000 1.000000 -0.000000
vn 0.000000 1.000000 -0.000000
vn 0.000000 1.000000 0.000000
vn 0.000000 1.000000 0.000000
vn 0.000000 1.000000 0.000000
vn 0.000000 1.000000 0.000000
vn 0.000000 0.284797 -0.958588
vn 0.000000 0.284797 -0.958588
vn 0.000000 0.284797 -0.958588
vn 0.000000 0.284797 -0.958588
vn -0.958588 0.284798 0.000000
vn -0.958588 0.284798 0.000000
vn -0.958588 0.284798 0.000000
vn -0.958588 0.284798 0.000000
vn 0.000000 0.284797 0.958588
vn 0.000000 0.284797 0.958588
vn 0.000000 0.284797 0.958588
vn 0.000000 0.284797 0.958588
vn 0.958588 0.284798 0.000000
vn 0.958588 0.284798 0.000000
vn 0.958588 0.284798 0.000000
vn 0.958588 0.284798 0.000000
vn 0.000000 -0.315076 0.949067
vn 0.000000 -0.315076 0.949067
vn 0.000000 -0.144196 0.989549
vn 0.000000 -0.144196 0.989549
vn 0.949067 -0.315075 0.000000
vn 0.949067 -0.315075 0.000000
vn 0.989549 -0.144195 0.000000
vn 0.989549 -0.144195 0.000000
vn 0.000000 -0.144196 -0.989549
vn 0.000000 -0.144196 -0.989549
vn 0.000000 -0.315076 -0.949067
vn 0.000000 -0.315076 -0.949067
vn -0.949067 -0.315076 0.000000
vn -0.949067 -0.315076 0.000000
vn -0.989549 -0.144196 0.000000
vn -0.989549 -0.144196 0.000000
vn 0.356322 0.603893 0.712985
vn 0.615815 0.591469 0.520515
vn 0.245501 0.936614 0.249967
vn 0.232901 0.942264 0.240614
vn -0.324315 -0.901477 -0.286635
vn -0.670916 -0.600227 -0.435430
vn -0.675248 -0.594193 -0.437007
vn 0.188885 -0.061683 -0.980060
vn 0.178990 -0.072398 -0.981184
vn 0.203393 -0.045871 -0.978022
vn 0.203393 -0.045871 -0.978022
vn -0.715883 -0.244895 0.653864
vn -0.718053 -0.218122 0.660926
vn -0.720308 -0.176626 0.670791
vn -0.720308 -0.176626 0.670791
vn 0.572108 0.333557 0.749288
vn 0.754009 0.399639 0.521305
vn 0.615815 0.591469 0.520515
vn 0.356322 0.603893 0.712985
vn 0.161610 -0.091082 -0.982643
vn 0.161610 -0.091082 -0.982643
vn 0.178990 -0.072398 -0.981184
vn 0.188885 -0.061683 -0.980060
vn -0.675248 -0.594193 -0.437007
vn -0.670916 -0.600227 -0.435430
vn -0.797237 -0.372572 -0.474978
vn -0.797237 -0.372572 -0.474978
vn -0.710512 -0.293174 0.639704
vn -0.710512 -0.293174 0.639704
vn -0.718053 -0.218122 0.660926
vn -0.715883 -0.244895 0.653864
vn 0.712958 0.610900 0.344225
vn 0.808784 0.411940 0.419732
vn 0.908965 0.404802 0.099593
vn 0.727306 0.686295 -0.004964
vn 0.712958 0.610900 0.344225
vn 0.245501 0.936614 0.249967
vn 0.615815 0.591469 0.520515
vn 0.615815 0.591469 0.520515
vn 0.754009 0.399639 0.521305
vn 0.808784 0.411940 0.419732
vn 0.712958 0.610900 0.344225
vn 0.232901 0.942264 0.240614
vn 0.245501 0.936614 0.249967
vn 0.712958 0.610900 0.344225
vn 0.727306 0.686295 -0.004964
vn 0.668583 0.732183 -0.130020
vn 0.524227 0.738600 -0.423857
vn 0.130167 0.988160 -0.081215
vn 0.117111 0.990641 -0.070118
vn -0.189248 -0.969239 0.157359
vn -0.450251 -0.742234 0.496349
vn -0.453436 -0.737393 0.500646
vn -0.900251 -0.169705 -0.400935
vn -0.901688 -0.183151 -0.391683
vn -0.898215 -0.153564 -0.411858
vn -0.898215 -0.153564 -0.411858
vn 0.539536 -0.250237 0.803917
vn 0.541238 -0.221165 0.811263
vn 0.542669 -0.184855 0.819353
vn 0.542669 -0.184855 0.819353
vn 0.777285 0.518669 -0.356105
vn 0.579744 0.577146 -0.575151
vn 0.524227 0.738600 -0.423857
vn 0.668583 0.732183 -0.130020
vn -0.903354 -0.202747 -0.377949
vn -0.903354 -0.202747 -0.377949
vn -0.901688 -0.183151 -0.391683
vn -0.900251 -0.169705 -0.400935
vn -0.453436 -0.737393 0.500646
vn -0.450251 -0.742234 0.496349
vn -0.546495 -0.552169 0.629645
vn -0.546495 -0.552169 0.629645
vn 0.536022 -0.293953 0.791373
vn 0.536022 -0.293953 0.791373
vn 0.541238 -0.221165 0.811263
vn 0.539536 -0.250237 0.803917
vn 0.366208 0.746637 -0.555360
vn 0.488432 0.582630 -0.649597
vn 0.197319 0.544160 -0.815448
vn 0.015688 0.763478 -0.645643
vn 0.366208 0.746637 -0.555360
vn 0.130167 0.988160 -0.081215
vn 0.524227 0.738600 -0.423857
vn 0.524227 0.738600 -0.423857
vn 0.579744 0.577146 -0.575151
vn 0.488432 0.582630 -0.649597
vn 0.366208 0.746637 -0.555360
vn 0.117111 0.990641 -0.070118
vn 0.130167 0.988160 -0.081215
vn 0.366208 0.746637 -0.555360
vn 0.015688 0.763478 -0.645643
vn -0.020939 0.563924 -0.825561
vn -0.345453 0.557862 -0.754621
vn -0.161672 0.925321 -0.342992
vn -0.155200 0.932032 -0.327460
vn 0.218451 -0.881488 0.418639
vn 0.438309 -0.559590 0.703381
vn 0.440692 -0.554090 0.706240
vn -0.618944 -0.087202 0.780579
vn -0.607440 -0.099861 0.788064
vn -0.629311 -0.075558 0.773472
vn -0.629311 -0.075558 0.773472
vn 0.945733 -0.195148 -0.259821
vn 0.950199 -0.163558 -0.265274
vn 0.953503 -0.133571 -0.270169
vn 0.953503 -0.133571 -0.270169
vn -0.178296 0.326308 -0.928296
vn -0.451491 0.377412 -0.808527
vn -0.345453 0.557862 -0.754621
vn -0.020939 0.563924 -0.825561
vn -0.593632 -0.114712 0.796519
vn -0.593632 -0.114712 0.796519
vn -0.607440 -0.099861 0.788064
vn -0.618944 -0.087202 0.780579
vn 0.440692 -0.554090 0.706240
vn 0.438309 -0.559590 0.703381
vn 0.510090 -0.352050 0.784773
vn 0.510090 -0.352050 0.784773
vn 0.938972 -0.233261 -0.252827
vn 0.938972 -0.233261 -0.252827
vn 0.950199 -0.163558 -0.265274
vn 0.945733 -0.195148 -0.259821
vn -0.519649 0.568882 -0.637448
vn -0.550678 0.384749 -0.740758
vn -0.786564 0.365534 -0.497697
vn -0.719391 0.610536 -0.331244
vn -0.519649 0.568882 -0.637448
vn -0.161672 0.925321 -0.342992
vn -0.345453 0.557862 -0.754621
vn -0.345453 0.557862 -0.754621
vn -0.451491 0.377412 -0.808527
vn -0.550678 0.384749 -0.740758
vn -0.519649 0.568882 -0.637448
vn -0.155200 0.932032 -0.327460
vn -0.161672 0.925321 -0.342992
vn -0.519649 0.568882 -0.637448
vn -0.719391 0.610536 -0.331244
vn -0.814000 0.572533 -0.098032
vn -0.820170 0.525601 0.225974
vn -0.389973 0.906964 0.159174
vn -0.374417 0.913994 0.156289
vn 0.469900 -0.861275 -0.193392
vn 0.789049 -0.521482 -0.324742
vn 0.792508 -0.515313 -0.326165
vn 0.642862 -0.134141 0.754145
vn 0.651467 -0.144486 0.744792
vn 0.632344 -0.121721 0.765065
vn 0.632344 -0.121721 0.765065
vn -0.051112 -0.115064 -0.992042
vn -0.056462 -0.085633 -0.994726
vn -0.063021 -0.049047 -0.996806
vn -0.063021 -0.049047 -0.996806
vn -0.955176 0.295811 0.011572
vn -0.895217 0.325110 0.304779
vn -0.820170 0.525601 0.225974
vn -0.814000 0.572533 -0.098032
vn 0.663747 -0.159560 0.730739
vn 0.663747 -0.159560 0.730740
vn 0.651467 -0.144486 0.744792
vn 0.642862 -0.134141 0.754145
vn 0.792508 -0.515313 -0.326165
vn 0.789049 -0.521482 -0.324742
vn 0.884363 -0.292283 -0.363970
vn 0.884362 -0.292283 -0.363969
vn -0.042901 -0.159560 -0.986256
vn -0.042901 -0.159560 -0.986256
vn -0.056462 -0.085633 -0.994726
vn -0.051112 -0.115064 -0.992042
vn -0.743486 0.522925 0.416867
vn -0.850432 0.324753 0.413885
vn -0.662500 0.287998 0.691485
vn -0.484505 0.566597 0.666501
vn -0.743486 0.522925 0.416867
vn -0.389973 0.906964 0.159174
vn -0.820170 0.525601 0.225974
vn -0.820170 0.525601 0.225974
vn -0.895217 0.325110 0.304779
vn -0.850432 0.324753 0.413885
vn -0.743486 0.522925 0.416867
vn -0.374417 0.913994 0.156289
vn -0.389973 0.906964 0.159174
vn -0.743486 0.522925 0.416867
vn -0.484505 0.566597 0.666501
vn -0.466831 0.525315 0.711416
vn -0.169978 0.488316 0.855952
vn -0.035564 0.889035 0.456456
vn -0.030535 0.896997 0.440981
vn 0.040993 -0.836546 -0.546362
vn 0.065537 -0.482404 -0.873494
vn 0.065775 -0.476577 -0.876669
vn 0.964508 -0.120013 -0.235204
vn 0.959495 -0.131096 -0.249367
vn 0.968813 -0.109806 -0.222135
vn 0.968813 -0.109806 -0.222135
vn -0.910289 -0.105777 -0.400231
vn -0.915382 -0.074137 -0.395701
vn -0.919311 -0.044189 -0.391043
vn -0.919311 -0.044189 -0.391043
vn -0.421751 0.268695 0.865984
vn -0.131191 0.295799 0.946199
vn -0.169978 0.488316 0.855952
vn -0.466831 0.525315 0.711416
vn 0.953166 -0.144079 -0.265923
vn 0.953166 -0.144079 -0.265923
vn 0.959495 -0.131096 -0.249367
vn 0.964508 -0.120013 -0.235204
vn 0.065775 -0.476577 -0.876669
vn 0.065537 -0.482404 -0.873494
vn 0.072134 -0.265437 -0.961426
vn 0.072134 -0.265437 -0.961426
vn -0.902816 -0.144078 -0.405172
vn -0.902816 -0.144078 -0.405172
vn -0.915382 -0.074137 -0.395701
vn -0.910289 -0.105777 -0.400231
vn 0.039527 0.485794 0.873179
vn -0.011182 0.295461 0.955289
vn 0.323237 0.261483 0.909475
vn 0.388622 0.518590 0.761602
vn 0.039527 0.485794 0.873179
vn -0.035564 0.889035 0.456456
vn -0.169978 0.488316 0.855952
vn -0.169978 0.488316 0.855952
vn -0.131191 0.295799 0.946199
vn -0.011182 0.295461 0.955289
vn 0.039527 0.485794 0.873179
vn -0.030535 0.896997 0.440981
vn -0.035564 0.889035 0.456456
vn 0.039527 0.485794 0.873179
vn 0.388622 0.518590 0.761602
s off
f 17/21/1 18/22/2 4/3/3 3/4/4
f 13/17/5 14/18/6 15/19/7 16/20/8
f 5/9/9 6/10/10 19/23/11 20/24/12
f 7/12/13 8/11/14 2/2/15 1/1/16
f 18/22/17 19/23/18 6/10/19 4/3/20
f 20/24/21 17/21/22 3/4/23 5/9/24
f 3/4/25 4/3/26 10/13/27 9/14/28
f 4/3/29 6/10/30 11/15/31 10/13/32
f 6/10/33 5/9/34 12/16/35 11/15/36
f 5/9/37 3/4/38 9/14/39 12/16/40
f 9/14/41 10/13/42 14/6/43 13/5/44
f 10/13/45 11/15/46 15/7/47 14/6/48
f 11/15/49 12/16/50 16/8/51 15/7/52
f 12/16/53 9/14/54 13/5/55 16/8/56
f 1/1/57 2/2/58 18/22/59 17/21/60
f 2/2/61 8/11/62 19/23/63 18/22/64
f 20/24/65 19/23/66 8/11/67 7/12/68
f 7/12/69 1/1/70 17/21/71 20/24/72
f 27/25/73 32/26/74 35/27/75 23/28/76
f 24/29/77 29/30/78 30/31/79
f 28/32/80 29/33/81 24/34/82 23/28/83
f 30/35/84 27/25/85 23/28/86 24/34/87
f 21/36/88 31/37/89 32/26/90 27/25/91
f 22/38/92 26/39/93 29/33/94 28/32/95
f 30/31/96 29/30/97 26/40/98 25/41/99
f 25/42/100 21/36/101 27/25/102 30/35/103
f 33/43/104 34/44/105 22/38/106 28/32/107
f 33/45/108 35/46/109 32/47/110
f 32/47/111 31/48/112 34/49/113 33/45/114
f 23/28/115 35/27/116 33/43/117 28/32/118
f 42/50/119 47/51/120 50/52/121 38/53/122
f 39/54/123 44/55/124 45/56/125
f 43/57/126 44/58/127 39/59/128 38/53/129
f 45/60/130 42/50/131 38/53/132 39/59/133
f 36/61/134 46/62/135 47/51/136 42/50/137
f 37/63/138 41/64/139 44/58/140 43/57/141
f 45/56/142 44/55/143 41/65/144 40/66/145
f 40/67/146 36/61/147 42/50/148 45/60/149
f 48/68/150 49/69/151 37/63/152 43/57/153
f 48/70/154 50/71/155 47/72/156
f 47/72/157 46/73/158 49/74/159 48/70/160
f 38/53/161 50/52/162 48/68/163 43/57/164
f 57/75/165 62/76/166 65/77/167 53/78/168
f 54/79/169 59/80/170 60/81/171
f 58/82/172 59/83/173 54/84/174 53/78/175
f 60/85/176 57/75/177 53/78/178 54/84/179
f 51/86/180 61/87/181 62/76/182 57/75/183
f 52/88/184 56/89/185 59/83/186 58/82/187
f 60/81/188 59/80/189 56/90/190 55/91/191
f 55/92/192 51/86/193 57/75/194 60/85/195
f 63/93/196 64/94/197 52/88/198 58/82/199
f 63/95/200 65/96/201 62/97/202
f 62/97/203 61/98/204 64/99/205 63/95/206
f 53/78/207 65/77/208 63/93/209 58/82/210
f 72/100/211 77/101/212 80/102/213 68/103/214
f 69/104/215 74/105/216 75/106/217
f 73/107/218 74/108/219 69/109/220 68/103/221
f 75/110/222 72/100/223 68/103/224 69/109/225
f 66/111/226 76/112/227 77/101/228 72/100/229
f 67/113/230 71/114/231 74/108/232 73/107/233
f 75/106/234 74/105/235 71/115/236 70/116/237
f 70/117/238 66/111/239 72/100/240 75/110/241
f 78/118/242 79/119/243 67/113/244 73/107/245
f 78/120/246 80/121/247 77/122/248
f 77/122/249 76/123/250 79/124/251 78/120/252
f 68/103/253 80/102/254 78/118/255 73/107/256
f 87/125/257 92/126/258 95/127/259 83/128/260
f 84/129/261 89/130/262 90/131/263
f 88/132/264 89/133/265 84/134/266 83/128/267
f 90/135/268 87/125/269 83/128/270 84/134/271
f 81/136/272 91/137/273 92/126/274 87/125/275
f 82/138/276 86/139/277 89/133/278 88/132/279
f 90/131/280 89/130/281 86/140/282 85/141/283
f 85/142/284 81/136/285 87/125/286 90/135/287
f 93/143/288 94/144/289 82/138/290 88/132/291
f 93/145/292 95/146/293 92/147/294
f 92/147/295 91/148/296 94/149/297 93/145/298
f 83/128/299 95/127/300 93/143/301 88/132/302
