# This file uses centimeters as units for non-parametric coordinates.

v 12.768663 10.428072 0.000032
v -0.000000 12.147363 0.000037
v -12.768663 10.428072 0.000032
v 11.365215 9.564332 12.312558
v -0.001934 9.457738 12.927838
v -11.369056 9.564332 12.312558
v 13.399670 5.377981 12.255110
v -13.452610 5.377975 11.739823
v 10.517391 1.200974 11.394214
v -0.001934 1.345438 11.963605
v -10.521232 1.199814 11.394214
v 11.816296 0.283468 0.000037
v 0.000000 -1.491785 0.000034
v -11.816302 0.283468 0.000037
v -15.305850 5.327798 0.000041
v 15.305843 5.327798 0.000041
v 12.255683 6.731674 14.870468
v -0.000000 6.766747 15.613585
v -12.255675 6.752563 14.870477
v 0.000000 3.891603 14.449029
v 11.341564 3.949407 13.761357
v -11.341578 3.924996 13.761353
v -0.000000 6.047176 17.164967
v 0.000000 4.796803 17.141451
v 13.454969 4.799944 16.325642
v 13.473429 6.045753 16.348030
v -13.454976 4.796822 16.325630
v -13.473429 6.047195 16.348026
v 11.365215 9.564308 -12.312490
v -0.001934 9.457726 -12.927767
v -11.369056 9.564308 -12.312490
v 13.399670 5.377938 -12.255049
v -13.452610 5.377957 -11.739754
v 10.517391 0.138340 -11.394143
v -0.001934 1.345439 -11.963542
v -10.521232 1.199821 -11.394149
v 12.255683 6.731661 -14.870398
v -0.000000 6.766734 -15.613505
v -12.255675 6.752514 -14.870405
v 0.000000 3.891597 -14.448959
v 11.341564 3.949382 -13.761278
v -11.341578 3.924995 -13.761270
v -0.000000 6.047195 -17.164892
v 0.000000 4.796803 -17.141382
v 13.454969 4.799944 -16.325556
v 13.473429 6.045773 -16.347956
v -13.454976 4.796809 -16.325560
v -13.473429 6.047183 -16.347948
v -0.000360 11.642011 -2.428917
v -0.000280 -1.067826 -1.787679
v -0.933340 11.251272 -5.309249
v -0.969036 10.167792 -10.313583
v 3.244161 10.575856 -8.556280
v -7.680100 10.253590 -9.970835
v -8.223002 10.815890 -5.486326
vt 0.173707 0.421945
vt 0.174079 0.421968
vt 0.174076 0.422349
vt 0.173741 0.422311
vt 0.219536 0.470974
vt 0.174475 0.421983
vt 0.174418 0.422351
vt 0.173815 0.422250
vt 0.174108 0.422284
vt 0.174131 0.421938
vt 0.173795 0.421925
vt 0.219536 0.470974
vt 0.174410 0.422285
vt 0.174462 0.421957
vt 0.173667 0.421931
vt 0.173709 0.422287
vt 0.174084 0.422415
vt 0.173730 0.422371
vt 0.173698 0.422408
vt 0.174447 0.422415
vt 0.174482 0.422457
vt 0.174488 0.422318
vt 0.174484 0.422450
vt 0.173774 0.422327
vt 0.174096 0.422366
vt 0.173707 0.422401
vt 0.174426 0.422367
vt 0.219535 0.470974
vt 0.219536 0.470974
vt 0.219536 0.470974
vt 0.219536 0.470974
vt 0.219536 0.470974
vt 0.219536 0.470974
vt 0.219536 0.470974
vt 0.174085 0.422456
vt 0.219536 0.470974
vt 0.219536 0.470974
vt 0.219536 0.470974
vt 0.219536 0.470974
vt 0.219536 0.470974
vt 0.219536 0.470974
vt 0.219536 0.470974
vt 0.219536 0.470974
vt 0.219536 0.470974
vt 0.219536 0.470974
vt 0.219536 0.470974
vt 0.219536 0.470974
vt 0.219536 0.470974
vt 0.219536 0.470974
vt 0.219536 0.470974
vt 0.174090 0.422449
vt 0.174558 0.421974
vt 0.173843 0.421606
vt 0.174132 0.421888
vt 0.173733 0.421577
vt 0.173766 0.421577
vt 0.173731 0.421457
vt 0.173760 0.421501
vt 0.173801 0.421536
vt 0.173739 0.421459
vt 0.174084 0.421892
vt 0.219536 0.470974
vt 0.219536 0.470974
vt 0.219536 0.470974
vt 0.219536 0.470974
vt 0.219536 0.470974
vt 0.138502 0.446214
vt 0.138458 0.446656
vt 0.138123 0.446353
vt 0.139096 0.446264
vt 0.139123 0.446672
vn 0.069610 0.987291 0.142868
vn 0.069610 0.987291 0.142868
vn 0.069610 0.987291 0.142868
vn 0.069610 0.987291 0.142868
vn -0.069610 0.987294 0.142847
vn -0.069610 0.987294 0.142847
vn -0.069610 0.987294 0.142847
vn -0.069610 0.987294 0.142847
vn 0.075969 -0.983800 0.162376
vn 0.075969 -0.983800 0.162376
vn 0.075969 -0.983800 0.162376
vn 0.075969 -0.983800 0.162376
vn -0.075918 -0.983817 0.162301
vn -0.075918 -0.983817 0.162301
vn -0.075918 -0.983817 0.162301
vn -0.075918 -0.983817 0.162301
vn 0.809524 -0.571798 0.133108
vn 0.809524 -0.571798 0.133108
vn 0.809524 -0.571798 0.133108
vn 0.809524 -0.571798 0.133108
vn 0.889383 0.436996 0.134284
vn 0.889383 0.436996 0.134284
vn 0.889383 0.436996 0.134284
vn 0.889383 0.436996 0.134284
vn 0.039396 0.691292 0.721500
vn 0.039396 0.691292 0.721500
vn 0.039396 0.691292 0.721500
vn 0.039396 0.691292 0.721500
vn 0.608256 0.781568 -0.138477
vn 0.608256 0.781568 -0.138477
vn 0.608256 0.781568 -0.138477
vn -0.038709 0.692596 0.720287
vn -0.038709 0.692596 0.720287
vn -0.038709 0.692596 0.720287
vn -0.038709 0.692596 0.720287
vn -0.999889 -0.014712 -0.002380
vn -0.999889 -0.014712 -0.002380
vn -0.999889 -0.014712 -0.002380
vn 0.039492 -0.678478 0.733559
vn 0.039492 -0.678478 0.733559
vn 0.039492 -0.678478 0.733559
vn 0.039492 -0.678478 0.733559
vn 0.500371 -0.856239 -0.128388
vn 0.500371 -0.856239 -0.128388
vn 0.500371 -0.856239 -0.128388
vn -0.038612 -0.680011 0.732185
vn -0.038612 -0.680011 0.732185
vn -0.038612 -0.680011 0.732185
vn -0.038612 -0.680011 0.732185
vn 0.060512 -0.018800 0.997990
vn 0.060512 -0.018800 0.997990
vn 0.060512 -0.018800 0.997990
vn 0.060512 -0.018800 0.997990
vn -0.060512 -0.018769 0.997991
vn -0.060512 -0.018769 0.997991
vn -0.060512 -0.018769 0.997991
vn -0.060512 -0.018769 0.997991
vn 0.026276 0.910780 0.412055
vn 0.026276 0.910780 0.412055
vn 0.026276 0.910780 0.412055
vn 0.026276 0.910780 0.412055
vn -0.025787 0.908522 0.417040
vn -0.025787 0.908522 0.417040
vn -0.025787 0.908522 0.417040
vn -0.025787 0.908522 0.417040
vn 0.021078 -0.950799 0.309092
vn 0.021078 -0.950799 0.309092
vn 0.021078 -0.950799 0.309092
vn 0.021078 -0.950799 0.309092
vn -0.020249 -0.949582 0.312865
vn -0.020249 -0.949582 0.312865
vn -0.020249 -0.949582 0.312865
vn -0.020249 -0.949582 0.312865
vn -0.892675 0.423002 0.155565
vn -0.892675 0.423002 0.155565
vn -0.892675 0.423002 0.155565
vn -0.742686 -0.552378 0.378545
vn -0.742686 -0.552378 0.378545
vn -0.742686 -0.552378 0.378545
vn 0.999772 -0.014532 -0.015646
vn 0.999772 -0.014532 -0.015646
vn 0.999772 -0.014532 -0.015646
vn -0.600690 0.790792 -0.117555
vn -0.600690 0.790792 -0.117555
vn -0.600690 0.790792 -0.117555
vn -0.490014 -0.864766 -0.109844
vn -0.490014 -0.864766 -0.109844
vn -0.490014 -0.864766 -0.109844
vn -0.890384 0.434694 0.135119
vn -0.890384 0.434694 0.135119
vn -0.890384 0.434694 0.135119
vn -0.890384 0.434694 0.135119
vn -0.810902 -0.569597 0.134153
vn -0.810902 -0.569597 0.134153
vn -0.810902 -0.569597 0.134153
vn -0.810902 -0.569597 0.134153
vn 0.887802 0.429168 0.166201
vn 0.887802 0.429168 0.166201
vn 0.887802 0.429168 0.166201
vn 0.704428 -0.572540 0.419500
vn 0.704428 -0.572540 0.419500
vn 0.704428 -0.572540 0.419500
vn 0.118431 -0.992425 -0.032665
vn 0.118431 -0.992425 -0.032665
vn 0.118431 -0.992425 -0.032665
vn 0.118431 -0.992425 -0.032665
vn -0.144646 -0.962785 -0.228304
vn -0.144646 -0.962785 -0.228304
vn -0.144646 -0.962785 -0.228304
vn 0.840514 -0.530133 -0.111782
vn 0.840514 -0.530133 -0.111782
vn 0.840514 -0.530133 -0.111782
vn 0.840514 -0.530133 -0.111782
vn 0.889383 0.436996 -0.134285
vn 0.889383 0.436996 -0.134285
vn 0.889383 0.436996 -0.134285
vn 0.889383 0.436996 -0.134285
vn 0.039396 0.691292 -0.721500
vn 0.039396 0.691292 -0.721500
vn 0.039396 0.691292 -0.721500
vn 0.039396 0.691292 -0.721500
vn 0.608252 0.781569 0.138489
vn 0.608252 0.781569 0.138489
vn 0.608252 0.781569 0.138489
vn -0.038711 0.692593 -0.720289
vn -0.038711 0.692593 -0.720289
vn -0.038711 0.692593 -0.720289
vn -0.038711 0.692593 -0.720289
vn -0.999889 -0.014713 0.002380
vn -0.999889 -0.014713 0.002380
vn -0.999889 -0.014713 0.002380
vn 0.013700 -0.607820 -0.793957
vn 0.013700 -0.607820 -0.793957
vn 0.013700 -0.607820 -0.793957
vn 0.013700 -0.607820 -0.793957
vn 0.500372 -0.856240 0.128380
vn 0.500372 -0.856240 0.128380
vn 0.500372 -0.856240 0.128380
vn -0.038613 -0.680010 -0.732186
vn -0.038613 -0.680010 -0.732186
vn -0.038613 -0.680010 -0.732186
vn -0.038613 -0.680010 -0.732186
vn 0.060513 -0.018803 -0.997990
vn 0.060513 -0.018803 -0.997990
vn 0.060513 -0.018803 -0.997990
vn 0.060513 -0.018803 -0.997990
vn -0.060512 -0.018763 -0.997991
vn -0.060512 -0.018763 -0.997991
vn -0.060512 -0.018763 -0.997991
vn -0.060512 -0.018763 -0.997991
vn 0.026275 0.910787 -0.412041
vn 0.026275 0.910787 -0.412041
vn 0.026275 0.910787 -0.412041
vn 0.026275 0.910787 -0.412041
vn -0.025788 0.908530 -0.417023
vn -0.025788 0.908530 -0.417023
vn -0.025788 0.908530 -0.417023
vn -0.025788 0.908530 -0.417023
vn 0.021078 -0.950797 -0.309097
vn 0.021078 -0.950797 -0.309097
vn 0.021078 -0.950797 -0.309097
vn 0.021078 -0.950797 -0.309097
vn -0.020249 -0.949582 -0.312863
vn -0.020249 -0.949582 -0.312863
vn -0.020249 -0.949582 -0.312863
vn -0.020249 -0.949582 -0.312863
vn -0.892674 0.423002 -0.155569
vn -0.892674 0.423002 -0.155569
vn -0.892674 0.423002 -0.155569
vn -0.742683 -0.552379 -0.378549
vn -0.742683 -0.552379 -0.378549
vn -0.742683 -0.552379 -0.378549
vn 0.999772 -0.014531 0.015646
vn 0.999772 -0.014531 0.015646
vn 0.999772 -0.014531 0.015646
vn -0.600676 0.790803 0.117558
vn -0.600676 0.790803 0.117558
vn -0.600676 0.790803 0.117558
vn -0.490010 -0.864769 0.109843
vn -0.490010 -0.864769 0.109843
vn -0.490010 -0.864769 0.109843
vn -0.890384 0.434695 -0.135120
vn -0.890384 0.434695 -0.135120
vn -0.890384 0.434695 -0.135120
vn -0.890384 0.434695 -0.135120
vn -0.810901 -0.569598 -0.134153
vn -0.810901 -0.569598 -0.134153
vn -0.810901 -0.569598 -0.134153
vn -0.810901 -0.569598 -0.134153
vn 0.887804 0.429166 -0.166197
vn 0.887804 0.429166 -0.166197
vn 0.887804 0.429166 -0.166197
vn 0.710100 -0.475887 -0.518931
vn 0.710100 -0.475887 -0.518931
vn 0.710100 -0.475887 -0.518931
vn -0.130696 0.970641 -0.201925
vn -0.130696 0.970641 -0.201925
vn -0.130696 0.970641 -0.201925
vn 0.113465 0.988232 -0.102587
vn 0.113465 0.988232 -0.102587
vn 0.113465 0.988232 -0.102587
vn 0.113465 0.988232 -0.102587
vn -0.006420 0.977345 -0.211557
vn -0.006420 0.977345 -0.211557
vn -0.006420 0.977345 -0.211557
vn -0.026625 0.984700 -0.172213
vn -0.026625 0.984700 -0.172213
vn -0.026625 0.984700 -0.172213
vn -0.026625 0.984700 -0.172213
vn -0.069676 -0.985255 -0.156265
vn -0.069676 -0.985255 -0.156265
vn -0.069676 -0.985255 -0.156265
vn -0.069676 -0.985255 -0.156265
vn -0.098680 -0.968266 -0.229614
vn -0.098680 -0.968266 -0.229614
vn -0.098680 -0.968266 -0.229614
vn 0.053884 0.988195 -0.143413
vn 0.053884 0.988195 -0.143413
vn 0.053884 0.988195 -0.143413
vn 0.053884 0.988195 -0.143413
vn 0.006457 0.967629 -0.252293
vn 0.006457 0.967629 -0.252293
vn 0.006457 0.967629 -0.252293
vn 0.006457 0.967629 -0.252293
vn -0.004044 0.962942 -0.269678
vn -0.004044 0.962942 -0.269678
vn -0.004044 0.962942 -0.269678
vn -0.004044 0.962942 -0.269678
vn -0.167440 0.980528 -0.102610
vn -0.167440 0.980528 -0.102610
vn -0.167440 0.980528 -0.102610
vn -0.167440 0.980528 -0.102610
vn -0.086076 0.995582 -0.037515
vn -0.086076 0.995582 -0.037515
vn -0.086076 0.995582 -0.037515
vn -0.086076 0.995582 -0.037515
s off
f 1/1/1 2/2/2 5/3/3 4/4/4
f 5/3/5 2/2/6 3/6/7 6/7/8
f 9/8/9 10/9/10 13/10/11 12/11/12
f 13/10/13 10/9/14 11/13/15 14/14/16
f 9/8/17 12/11/18 16/15/19 7/16/20
f 4/4/21 7/16/22 16/15/23 1/1/24
f 4/4/25 5/3/26 18/17/27 17/18/28
f 7/16/29 17/18/30 26/19/31
f 18/17/32 5/3/33 6/7/34 19/20/35
f 28/21/36 8/22/37 27/23/38
f 10/9/39 9/8/40 21/24/41 20/25/42
f 21/24/43 7/16/44 25/26/45
f 10/9/46 20/25/47 22/27/48 11/13/49
f 23/35/50 24/51/51 25/26/52 26/19/53
f 27/23/54 24/51/55 23/35/56 28/21/57
f 17/18/58 18/17/59 23/35/60 26/19/61
f 23/35/62 18/17/63 19/20/64 28/21/65
f 25/26/66 24/51/67 20/25/68 21/24/69
f 20/25/70 24/51/71 27/23/72 22/27/73
f 8/22/74 19/20/75 6/7/76
f 11/13/77 22/27/78 8/22/79
f 25/26/80 7/16/81 26/19/82
f 28/21/83 19/20/84 8/22/85
f 27/23/86 8/22/87 22/27/88
f 15/52/89 8/22/90 6/7/91 3/6/92
f 14/14/93 11/13/94 8/22/95 15/52/96
f 7/16/97 4/4/98 17/18/99
f 9/8/100 7/16/101 21/24/102
f 34/53/103 12/11/104 13/10/105 50/54/106
f 14/14/107 50/54/108 13/10/109
f 34/53/110 32/55/111 16/15/112 12/11/113
f 29/56/114 1/1/115 16/15/116 32/55/117
f 29/29/118 37/36/119 38/37/120 30/30/121
f 32/55/122 46/57/123 37/58/124
f 30/30/125 38/37/126 39/39/127 31/31/128
f 48/40/129 47/41/130 33/42/131
f 35/33/132 40/43/133 41/44/134 34/32/135
f 41/59/136 45/60/137 32/55/138
f 40/43/139 35/33/140 36/34/141 42/46/142
f 43/47/143 46/38/144 45/45/145 44/48/146
f 43/47/147 44/48/148 47/41/149 48/40/150
f 37/36/151 46/38/152 43/47/153 38/37/154
f 38/37/155 43/47/156 48/40/157 39/39/158
f 45/45/159 41/44/160 40/43/161 44/48/162
f 44/48/163 40/43/164 42/46/165 47/41/166
f 33/42/167 31/31/168 39/39/169
f 36/34/170 33/42/171 42/46/172
f 45/60/173 46/57/174 32/55/175
f 48/40/176 33/42/177 39/39/178
f 47/41/179 42/46/180 33/42/181
f 15/28/182 3/5/183 31/31/184 33/42/185
f 14/12/186 15/28/187 33/42/188 36/34/189
f 32/55/190 37/58/191 29/56/192
f 34/53/193 41/59/194 32/55/195
f 49/61/196 3/6/197 2/2/198
f 29/56/199 49/61/200 2/2/201 1/1/202
f 52/67/203 51/68/204 53/69/205
f 52/67/206 54/70/207 55/71/208 51/68/209
f 35/33/210 50/50/211 14/12/212 36/34/213
f 34/32/214 50/50/215 35/33/216
f 49/49/217 29/29/218 53/63/219 51/62/220
f 29/29/221 30/30/222 52/64/223 53/63/224
f 30/30/225 31/31/226 54/65/227 52/64/228
f 31/31/229 3/5/230 55/66/231 54/65/232
f 3/5/233 49/49/234 51/62/235 55/66/236
