# This file uses centimeters as units for non-parametric coordinates.

v -46.403847 -29.599686 2.676600
v 44.748634 -27.885874 4.914863
v -44.896118 28.083717 3.943146
v 45.093082 28.602552 3.933077
v -46.441235 29.270456 1.567794
v 46.287487 29.381382 1.577864
v -46.403847 -29.599686 0.000000
v 45.763096 -29.267199 2.659597
v -7.935328 -29.599686 2.676600
v -6.572864 -29.599686 -0.000000
v 46.403847 -19.748608 2.676600
v 46.403847 -19.995604 0.000000
v 9.353848 29.599686 2.676600
v 6.933924 29.599686 0.000000
v 46.403847 18.556612 -0.000000
v 46.403847 19.233671 2.676600
v -32.897423 29.599686 2.676600
v -32.411976 29.599686 0.000000
v -46.403847 17.877659 2.676600
v -46.403847 17.456348 0.000000
vt 0.504975 0.001742
vt 0.687426 0.001742
vt 0.687426 0.131998
vt 0.504975 0.131998
vt 0.687426 0.131998
vt 0.504975 0.131998
vt 0.687426 0.001742
vt 0.504975 0.001742
vt 0.511688 0.004856
vt 0.510386 0.004869
vt 0.510478 0.005638
vt 0.511597 0.005624
vt 0.580601 0.001742
vt 0.583279 0.001742
vt 0.511117 0.005630
vt 0.687426 0.023417
vt 0.510463 0.005514
vt 0.687426 0.022874
vt 0.614589 0.131998
vt 0.510939 0.004864
vt 0.609832 0.131998
vt 0.510403 0.005013
vt 0.687426 0.107700
vt 0.687426 0.109190
vt 0.531527 0.131998
vt 0.511491 0.004858
vt 0.532481 0.131998
vt 0.504975 0.106206
vt 0.504975 0.105279
vt 0.511669 0.005014
vn 0.000000 0.000000 1.000000
vn 0.000000 0.000000 1.000000
vn 0.000000 0.000000 1.000000
vn 0.000000 0.000000 1.000000
vn 0.000000 0.000000 1.000000
vn 0.000000 0.000000 1.000000
vn 0.000000 0.000000 1.000000
vn -0.042996 0.970556 0.237008
vn -0.042996 0.970556 0.237008
vn -0.042996 0.970556 0.237008
vn -0.042996 0.970556 0.237008
vn -0.113134 0.130356 -0.984991
vn -0.113134 0.130356 -0.984991
vn -0.113134 0.130356 -0.984991
vn 0.000000 -1.000000 0.000000
vn 0.000000 -1.000000 0.000000
vn 0.000000 -1.000000 0.000000
vn 0.000000 -1.000000 0.000000
vn 0.972850 -0.065883 0.221863
vn 0.972850 -0.065883 0.221863
vn 0.972850 -0.065883 0.221863
vn 0.972850 -0.065883 0.221863
vn -1.000000 0.000000 0.000000
vn -1.000000 0.000000 0.000000
vn -1.000000 0.000000 0.000000
vn -1.000000 0.000000 0.000000
vn -0.049723 0.274275 0.960365
vn -0.049723 0.274275 0.960365
vn -0.049723 0.274275 0.960365
vn 0.050508 -0.278606 -0.959077
vn 0.050508 -0.278606 -0.959076
vn 0.050508 -0.278606 -0.959076
vn 0.006044 -0.962166 0.272397
vn 0.006044 -0.962166 0.272397
vn 0.006044 -0.962166 0.272397
vn 0.006044 -0.962166 0.272397
vn 1.000000 -0.000000 0.000000
vn 1.000000 -0.000000 0.000000
vn 1.000000 -0.000000 0.000000
vn 1.000000 -0.000000 0.000000
vn -0.038647 -0.138132 0.989659
vn -0.038647 -0.138132 0.989659
vn -0.038647 -0.138132 0.989660
vn 0.010320 0.988557 0.150496
vn 0.010320 0.988557 0.150496
vn 0.010320 0.988557 0.150496
vn 0.010320 0.988557 0.150496
vn 0.040442 0.144548 -0.988671
vn 0.040442 0.144548 -0.988671
vn 0.040442 0.144548 -0.988671
vn 0.972162 0.036213 0.231495
vn 0.972162 0.036213 0.231495
vn 0.972162 0.036213 0.231495
vn 0.972162 0.036213 0.231495
vn 0.121404 -0.139885 0.982697
vn 0.121404 -0.139885 0.982697
vn 0.121404 -0.139885 0.982697
vn 0.000000 1.000000 0.000001
vn 0.000000 1.000000 0.000001
vn 0.000000 1.000000 0.000001
vn 0.000000 1.000000 0.000001
vn -0.000000 0.000000 -1.000000
vn -0.000000 -0.000000 -1.000000
vn -0.000000 -0.000000 -1.000000
vn -0.000000 -0.000000 -1.000000
vn -0.000000 0.000000 -1.000000
vn -0.954865 0.025668 0.295930
vn -0.954865 0.025668 0.295930
vn -0.954865 0.025668 0.295930
vn -0.954865 0.025668 0.295930
vn -0.000000 0.000000 -1.000000
vn -0.000000 0.000000 -1.000000
vn -0.000000 0.000000 -1.000000
vn -0.000000 0.000000 -1.000000
s off
f 1/1/1 9/13/2 11/16/3 16/24/4 13/19/5 17/25/6 19/28/7
f 3/4/8 17/25/9 18/27/10 5/6/11
f 5/9/12 18/26/13 20/30/14
f 7/8/15 10/14/16 9/13/17 1/1/18
f 2/2/19 8/7/20 12/18/21 11/16/22
f 7/8/23 1/1/24 19/28/25 20/29/26
f 11/16/27 9/13/28 2/2/29
f 10/15/30 12/17/31 8/11/32
f 9/13/33 10/14/34 8/7/35 2/2/36
f 11/16/37 12/18/38 15/23/39 16/24/40
f 13/19/41 16/24/42 4/3/43
f 14/21/44 13/19/45 4/3/46 6/5/47
f 15/22/48 14/20/49 6/10/50
f 16/24/51 15/23/52 6/5/53 4/3/54
f 19/28/55 17/25/56 3/4/57
f 18/27/58 17/25/59 13/19/60 14/21/61
f 20/30/62 18/26/63 14/20/64 15/22/65 12/17/66
f 20/29/67 19/28/68 3/4/69 5/6/70
f 20/30/71 12/17/72 10/15/73 7/12/74
