# This file uses centimeters as units for non-parametric coordinates.

v 15.047067 8.739960 -24.333315
v 13.672616 8.739961 -24.333315
v 12.985392 7.549651 -24.333315
v 13.672616 6.359342 -24.333315
v 15.047067 6.359342 -24.333315
v 15.734292 7.549651 -24.333315
v 15.047067 8.739960 24.333315
v 13.672616 8.739961 24.333315
v 12.985392 7.549651 24.333315
v 13.672616 6.359342 24.333315
v 15.047067 6.359342 24.333315
v 15.734292 7.549651 24.333315
v 17.522715 0.000000 27.329426
v 17.522715 3.079772 27.329426
v 17.522715 3.079772 -27.329426
v 17.522715 0.000000 -27.329426
v -17.522715 3.079772 19.130598
v 17.522715 3.079772 19.130598
v 17.522715 0.000000 19.130598
v -17.522715 0.000000 19.130598
v -17.522715 0.000000 -19.130598
v 17.522715 0.000000 -19.130598
v 17.522715 3.079772 -19.130598
v -17.522715 3.079772 -19.130598
v 10.513628 0.000000 27.329426
v 10.513628 0.000000 19.130598
v 10.513628 0.000000 -19.130598
v 10.513628 0.000000 -27.329426
v 8.943707 3.079772 -27.329426
v 10.513628 3.079772 -19.130598
v 10.513628 3.079772 19.130598
v 8.943707 3.079772 27.329426
v 8.943707 3.079772 24.049892
v 17.522715 3.079772 24.049894
v 17.522715 3.079772 -24.049892
v 8.943707 3.079772 -24.049894
v 11.647455 10.075113 24.049892
v 17.522715 10.075113 24.049894
v 11.647455 10.075113 27.329426
v 17.522715 10.075113 27.329426
v 11.647455 10.075113 -27.329426
v 11.647455 10.075113 -24.049894
v 17.522715 10.075113 -24.049892
v 17.522715 10.075113 -27.329426
v 14.018171 3.079772 -19.130598
v 14.018171 3.079772 19.130598
v 17.522715 1.539886 19.130598
v 17.522715 1.539886 -19.130598
v 14.018168 1.539886 -19.130600
v 14.018171 1.539886 19.130600
v -17.522715 0.000000 25.689825
v -15.883113 0.000000 27.329426
v -17.522715 3.079772 25.689825
v -15.883113 3.079772 27.329426
v -17.522715 3.079772 -25.689825
v -15.883113 3.079772 -27.329426
v -17.522715 0.000000 -25.689825
v -15.883113 0.000000 -27.329426
vt 0.123397 0.374501
vt 0.123456 0.374500
vt 0.123546 0.375360
vt 0.123458 0.375361
vt 0.123486 0.374550
vt 0.123590 0.375429
vt 0.123457 0.374599
vt 0.123546 0.375499
vt 0.123398 0.374599
vt 0.123458 0.375500
vt 0.123368 0.374551
vt 0.123414 0.375432
vt 0.079397 0.274689
vt 0.079385 0.274658
vt 0.080101 0.274664
vt 0.080103 0.274662
vt 0.080104 0.274679
vt 0.080103 0.274725
vt 0.080227 0.274641
vt 0.080224 0.274672
vt 0.348659 0.419495
vt 0.349292 0.419469
vt 0.349280 0.419367
vt 0.348663 0.419392
vt 0.349338 0.419854
vt 0.349332 0.419877
vt 0.348659 0.419907
vt 0.348656 0.419884
vt 0.079515 0.274673
vt 0.079436 0.274657
vt 0.079502 0.274678
vt 0.079517 0.274671
vt 0.080101 0.274659
vt 0.080176 0.274642
vt 0.080105 0.274724
vt 0.080184 0.274742
vt 0.349293 0.419441
vt 0.348657 0.419467
vt 0.079414 0.274758
vt 0.079497 0.274737
vt 0.079410 0.274580
vt 0.079393 0.274650
vt 0.079339 0.274651
vt 0.079357 0.274581
vt 0.079523 0.274687
vt 0.079507 0.274775
vt 0.080104 0.274761
vt 0.080100 0.274675
vt 0.080240 0.274632
vt 0.080186 0.274633
vt 0.080181 0.274565
vt 0.080233 0.274564
vt 0.122858 0.378207
vt 0.122945 0.377247
vt 0.123042 0.377252
vt 0.122972 0.378214
vt 0.122749 0.378243
vt 0.122851 0.377294
vt 0.122850 0.377269
vt 0.122747 0.378221
vt 0.122747 0.378178
vt 0.122847 0.377258
vt 0.079491 0.274645
vt 0.079456 0.274694
vt 0.079379 0.274771
vt 0.079421 0.275128
vt 0.080126 0.275110
vt 0.080237 0.274740
vt 0.080125 0.275138
vt 0.079436 0.275155
vt 0.079319 0.275158
vt 0.079278 0.275108
vt 0.079361 0.274759
vt 0.080244 0.275107
vt 0.080267 0.275112
vt 0.080232 0.274753
vt 0.079295 0.275136
vt 0.079303 0.275130
vt 0.080271 0.275084
vt 0.080240 0.275135
vn 0.000001 1.000000 0.000000
vn 0.000001 1.000000 0.000000
vn 0.000001 1.000000 0.000000
vn 0.000001 1.000000 0.000000
vn -0.866026 0.500000 0.000000
vn -0.866026 0.500000 0.000000
vn -0.866026 0.500000 0.000000
vn -0.866026 0.500000 0.000000
vn -0.866025 -0.500000 -0.000000
vn -0.866025 -0.500000 -0.000000
vn -0.866025 -0.500000 -0.000000
vn -0.866025 -0.500000 -0.000000
vn -0.000000 -1.000000 -0.000000
vn -0.000000 -1.000000 -0.000000
vn -0.000000 -1.000000 -0.000000
vn -0.000000 -1.000000 -0.000000
vn 0.866026 -0.500000 -0.000000
vn 0.866026 -0.500000 -0.000000
vn 0.866026 -0.500000 -0.000000
vn 0.866026 -0.500000 -0.000000
vn 0.866025 0.500000 0.000000
vn 0.866025 0.500000 0.000000
vn 0.866025 0.500000 0.000000
vn 0.866025 0.500000 0.000000
vn 0.000000 0.000001 -1.000000
vn 0.000000 0.000001 -1.000000
vn 0.000000 0.000001 -1.000000
vn 0.000000 0.000001 -1.000000
vn 0.000000 0.000001 -1.000000
vn 0.000000 0.000001 -1.000000
vn 0.000000 -0.000001 1.000000
vn 0.000000 -0.000001 1.000000
vn 0.000000 -0.000001 1.000000
vn 0.000000 -0.000001 1.000000
vn 0.000000 -0.000001 1.000000
vn 0.000000 -0.000001 1.000000
vn 0.000000 0.000000 1.000000
vn 0.000000 0.000000 1.000000
vn 0.000000 0.000000 1.000000
vn 0.000000 0.000000 1.000000
vn 0.000000 -0.000000 1.000000
vn 0.000000 -0.000000 1.000000
vn 0.000000 -0.000000 1.000000
vn 0.000000 -0.000000 1.000000
vn 0.000000 0.000000 -1.000000
vn 0.000000 0.000000 -1.000000
vn 0.000000 0.000000 -1.000000
vn 0.000000 0.000000 -1.000000
vn 0.000000 -1.000000 0.000000
vn 0.000000 -1.000000 0.000000
vn 0.000000 -1.000000 0.000000
vn 0.000000 -1.000000 0.000000
vn -1.000000 0.000000 0.000000
vn -1.000000 0.000000 0.000000
vn -1.000000 0.000000 0.000000
vn -1.000000 0.000000 0.000000
vn 0.000000 1.000000 0.000000
vn 0.000000 1.000000 0.000000
vn 0.000000 1.000000 0.000000
vn 1.000000 0.000000 0.000000
vn 1.000000 0.000000 0.000000
vn 1.000000 0.000000 0.000000
vn 1.000000 0.000000 0.000000
vn 1.000000 0.000000 0.000000
vn 1.000000 0.000000 0.000000
vn 0.000000 1.000000 0.000000
vn 0.000000 1.000000 0.000000
vn 0.000000 1.000000 0.000000
vn 0.000000 -1.000000 0.000000
vn 0.000000 -1.000000 0.000000
vn 0.000000 -1.000000 0.000000
vn 0.000000 -1.000000 0.000000
vn 0.000000 0.000000 -1.000000
vn 0.000000 0.000000 -1.000000
vn 0.000000 0.000000 -1.000000
vn 0.000000 0.000000 -1.000000
vn 0.000000 1.000000 -0.000000
vn 0.000000 1.000000 -0.000000
vn 0.000000 1.000000 0.000000
vn 0.000000 1.000000 0.000000
vn 0.000000 1.000000 0.000000
vn 0.000000 1.000000 0.000000
vn 0.000000 1.000000 0.000000
vn 0.000000 1.000000 0.000000
vn 0.000000 1.000000 0.000000
vn 0.000000 1.000000 0.000000
vn 0.000000 1.000000 0.000000
vn 0.000000 1.000000 -0.000000
vn 0.000000 0.000000 1.000000
vn 0.000000 0.000000 1.000000
vn 0.000000 0.000000 1.000000
vn 0.000000 0.000000 1.000000
vn 0.000000 1.000000 0.000000
vn 0.000000 1.000000 0.000000
vn 0.000000 1.000000 0.000000
vn 0.000000 1.000000 0.000000
vn 1.000000 0.000000 0.000000
vn 1.000000 0.000000 0.000000
vn 1.000000 0.000000 0.000000
vn 1.000000 0.000000 0.000000
vn 0.000000 -1.000000 0.000000
vn 0.000000 -1.000000 0.000000
vn 0.000000 -1.000000 0.000000
vn 0.000000 -1.000000 0.000000
vn 0.000000 -1.000000 0.000000
vn 0.000000 -1.000000 0.000000
vn 0.000000 -1.000000 0.000000
vn 0.000000 -1.000000 0.000000
vn -1.000000 0.000000 0.000000
vn -1.000000 0.000000 0.000000
vn -1.000000 0.000000 0.000000
vn -1.000000 0.000000 0.000000
vn 0.000000 -1.000000 0.000000
vn 0.000000 -1.000000 0.000000
vn 0.000000 -1.000000 0.000000
vn 0.000000 -1.000000 0.000000
vn 1.000000 0.000000 0.000000
vn 1.000000 0.000000 0.000000
vn 1.000000 0.000000 0.000000
vn 1.000000 0.000000 0.000000
vn 0.000000 1.000000 0.000000
vn 0.000000 1.000000 0.000000
vn 0.000000 1.000000 0.000000
vn 0.000000 1.000000 0.000000
vn -1.000000 0.000000 0.000000
vn -1.000000 0.000000 0.000000
vn -1.000000 0.000000 0.000000
vn -1.000000 0.000000 0.000000
vn 0.000000 -0.000000 -1.000000
vn 0.000000 -0.000000 -1.000000
vn 0.000000 -0.000000 -1.000000
vn 0.000000 -0.000000 -1.000000
vn -0.932753 0.360515 0.000000
vn -0.932753 0.360515 0.000000
vn -0.932753 0.360515 0.000000
vn -0.932753 0.360515 0.000000
vn 0.000000 0.000000 1.000000
vn 0.000000 0.000000 1.000000
vn 0.000000 0.000000 1.000000
vn 0.000000 0.000000 1.000000
vn 1.000000 0.000000 0.000000
vn 1.000000 0.000000 0.000000
vn 1.000000 0.000000 0.000000
vn 1.000000 0.000000 0.000000
vn -0.932753 0.360515 0.000000
vn -0.932753 0.360515 0.000000
vn -0.932753 0.360515 0.000000
vn -0.932753 0.360515 0.000000
vn -0.000000 0.000000 1.000000
vn -0.000000 0.000000 1.000000
vn -0.000000 0.000000 1.000000
vn -0.000000 0.000000 1.000000
vn 1.000000 0.000000 0.000000
vn 1.000000 0.000000 0.000000
vn 1.000000 0.000000 0.000000
vn 1.000000 0.000000 0.000000
vn 0.000000 0.000000 -1.000000
vn 0.000000 0.000000 -1.000000
vn 0.000000 0.000000 -1.000000
vn 0.000000 0.000000 -1.000000
vn 0.000000 1.000000 0.000000
vn 0.000000 1.000000 0.000000
vn 0.000000 1.000000 0.000000
vn 0.000000 1.000000 0.000000
vn 0.000000 1.000000 0.000000
vn 0.000000 1.000000 0.000000
vn 0.000000 1.000000 0.000000
vn 0.000000 1.000000 0.000000
vn 0.000000 1.000000 -0.000000
vn 0.000000 1.000000 -0.000000
vn 0.000000 1.000000 -0.000000
vn 0.000000 1.000000 -0.000000
vn 1.000000 0.000000 0.000000
vn 1.000000 0.000000 0.000000
vn 1.000000 0.000000 0.000000
vn 1.000000 0.000000 0.000000
vn 1.000000 0.000000 0.000000
vn 1.000000 0.000000 0.000000
vn 1.000000 0.000000 0.000000
vn 1.000000 0.000000 0.000000
vn 1.000000 0.000000 0.000000
vn 1.000000 0.000000 0.000000
vn 1.000000 0.000000 -0.000000
vn 1.000000 0.000000 -0.000000
vn 1.000000 0.000000 -0.000000
vn 1.000000 0.000000 -0.000000
vn 0.000000 1.000000 -0.000000
vn 0.000000 1.000000 -0.000000
vn 0.000000 1.000000 -0.000000
vn 0.000000 1.000000 -0.000000
vn 0.000000 -0.000000 -1.000000
vn 0.000000 -0.000000 -1.000000
vn 0.000000 -0.000000 -1.000000
vn 0.000000 -0.000000 -1.000000
vn 0.000000 1.000000 -0.000000
vn 0.000000 1.000000 0.000000
vn 0.000000 1.000000 0.000000
vn 0.000000 1.000000 0.000000
vn 0.000000 -1.000000 0.000000
vn 0.000000 -1.000000 0.000000
vn 0.000000 -1.000000 0.000000
vn -0.707107 0.000000 0.707107
vn -0.707107 0.000000 0.707107
vn -0.707107 0.000000 0.707107
vn -0.707107 0.000000 0.707107
vn -0.707107 0.000000 -0.707107
vn -0.707107 0.000000 -0.707107
vn -0.707107 0.000000 -0.707107
vn -0.707107 0.000000 -0.707107
vn 0.000000 1.000000 0.000000
vn 0.000000 1.000000 0.000000
vn 0.000000 1.000000 0.000000
vn 0.000000 1.000000 -0.000000
vn 0.000000 -1.000000 0.000000
vn 0.000000 -1.000000 0.000000
vn 0.000000 -1.000000 0.000000
vn 0.000000 -1.000000 0.000000
vn 0.000000 -1.000000 0.000000
vn 0.000000 -1.000000 0.000000
vn 0.000000 -1.000000 0.000000
s off
f 1/1/1 2/2/2 8/3/3 7/4/4
f 2/2/5 3/5/6 9/6/7 8/3/8
f 3/5/9 4/7/10 10/8/11 9/6/12
f 4/7/13 5/9/14 11/10/15 10/8/16
f 5/9/17 6/11/18 12/12/19 11/10/20
f 6/11/21 1/1/22 7/4/23 12/12/24
f 1/1/25 6/11/26 5/9/27 4/7/28 3/5/29 2/2/30
f 7/4/31 8/3/32 9/6/33 10/8/34 11/10/35 12/12/36
f 32/73/37 25/65/38 13/13/39 14/14/40
f 23/15/41 45/16/42 49/17/43 48/18/44
f 28/76/45 29/68/46 15/19/47 16/20/48
f 26/21/49 27/22/50 22/23/51 19/24/52
f 24/25/53 21/26/54 20/27/55 17/28/56
f 46/29/57 34/30/58 18/31/59
f 34/30/60 47/32/61 18/31/62
f 23/15/63 48/33/64 35/34/65
f 35/34/66 45/16/67 23/15/68
f 20/27/69 21/26/70 27/22/71 26/21/72
f 58/75/73 56/79/74 29/68/75 28/76/76
f 24/67/77 30/35/78 36/36/79 55/74/80
f 30/37/81 24/25/82 17/28/83 31/38/84
f 33/39/85 31/40/86 17/66/87 53/78/88
f 54/72/89 52/77/90 25/65/91 32/73/92
f 38/41/93 37/42/94 39/43/95 40/44/96
f 13/13/97 19/45/98 34/30/99 14/14/100
f 25/65/101 26/46/102 19/45/103 13/13/104
f 51/71/105 26/46/106 25/65/107 52/77/108
f 17/66/109 20/70/110 51/71/111 53/78/112
f 22/48/113 27/47/114 28/76/115 16/20/116
f 35/34/117 22/48/118 16/20/119 15/19/120
f 41/49/121 42/50/122 43/51/123 44/52/124
f 55/74/125 57/80/126 21/69/127 24/67/128
f 34/30/129 33/39/130 37/42/131 38/41/132
f 33/39/133 32/73/134 39/43/135 37/42/136
f 32/73/137 14/14/138 40/44/139 39/43/140
f 14/14/141 34/30/142 38/41/143 40/44/144
f 29/68/145 36/36/146 42/50/147 41/49/148
f 36/36/149 35/34/150 43/51/151 42/50/152
f 35/34/153 15/19/154 44/52/155 43/51/156
f 15/19/157 29/68/158 41/49/159 44/52/160
f 35/34/161 36/36/162 30/35/163 45/16/164
f 46/53/165 45/54/166 30/55/167 31/56/168
f 31/40/169 33/39/170 34/30/171 46/29/172
f 34/30/173 19/45/174 47/32/175
f 19/57/176 22/58/177 48/59/178 47/60/179
f 35/34/180 48/33/181 22/48/182
f 46/53/183 50/61/184 49/62/185 45/54/186
f 47/60/187 48/59/188 49/62/189 50/61/190
f 50/63/191 46/29/192 18/31/193 47/64/194
f 53/78/195 54/72/196 32/73/197 33/39/198
f 57/80/199 27/47/200 21/69/201
f 51/71/202 52/77/203 54/72/204 53/78/205
f 55/74/206 56/79/207 58/75/208 57/80/209
f 55/74/210 36/36/211 29/68/212 56/79/213
f 57/80/214 58/75/215 28/76/216 27/47/217
f 20/70/218 26/46/219 51/71/220
v 10.646360 10.964512 -1.470664
v 11.828431 10.523999 -3.083452
v 10.646360 10.523999 -1.901382
v 10.646360 10.964512 1.470664
v 10.646360 10.523999 1.901382
v 11.828431 10.523999 3.083452
v 18.073320 10.964512 -1.470664
v 18.073320 10.523999 -1.901382
v 16.891251 10.523999 -3.083452
v 11.828431 3.614952 -3.083453
v 10.646360 3.614952 -1.901383
v 18.073320 10.964512 1.470664
v 16.891251 10.523999 3.083452
v 18.073320 10.523999 1.901382
v 10.646360 3.614952 1.901383
v 13.571526 6.184248 -3.083453
v 12.783210 7.549651 -3.083453
v 12.783210 7.549651 3.083453
v 13.571526 6.184248 3.083453
v 15.148157 6.184247 -3.083453
v 15.148157 6.184247 3.083453
v 11.828431 3.614952 3.083453
v 13.571526 8.915055 -3.083453
v 13.571526 8.915055 3.083453
v 18.073320 3.614952 -1.901383
v 16.891251 3.614952 -3.083453
v 15.936474 7.549651 -3.083453
v 15.936474 7.549651 3.083453
v 15.148157 8.915054 -3.083453
v 15.148157 8.915054 3.083453
v 11.428349 13.679646 1.035767
v 11.428349 13.679646 -1.035767
v 18.073320 3.614952 1.901383
v 17.291332 13.679646 -1.035767
v 16.891251 3.614952 3.083453
v 17.291332 13.679646 1.035767
v 14.869005 6.667753 0.000000
v 13.850678 6.667754 0.000000
v 13.341515 7.549651 0.000000
v 13.850678 8.431549 0.000000
v 14.869005 8.431548 0.000000
v 15.378169 7.549651 0.000000
vt 0.081255 0.274353
vt 0.081117 0.274351
vt 0.081240 0.274374
vt 0.081356 0.274441
vt 0.081370 0.274490
vt 0.081318 0.274542
vt 0.080674 0.274417
vt 0.080666 0.274438
vt 0.080735 0.274392
vt 0.081097 0.274847
vt 0.081211 0.274877
vt 0.080740 0.274514
vt 0.080886 0.274597
vt 0.080751 0.274566
vt 0.081329 0.275024
vt 0.081095 0.274777
vt 0.081148 0.274734
vt 0.081124 0.274844
vt 0.081068 0.274889
vt 0.081027 0.274754
vt 0.080997 0.274865
vt 0.081280 0.275090
vt 0.081134 0.274668
vt 0.081108 0.274774
vt 0.080675 0.274959
vt 0.080739 0.274901
vt 0.081012 0.274688
vt 0.080980 0.274810
vt 0.081065 0.274645
vt 0.081038 0.274735
vt 0.081293 0.274213
vt 0.081222 0.274159
vt 0.080755 0.275120
vt 0.080746 0.274204
vt 0.080880 0.275159
vt 0.080797 0.274262
vt 0.081024 0.274575
vt 0.080971 0.274668
vt 0.080871 0.274681
vt 0.080822 0.274601
vt 0.080873 0.274507
vt 0.080975 0.274495
vt 0.081033 0.274913
vt 0.081145 0.274895
vt 0.081206 0.274792
vt 0.081154 0.274705
vt 0.081012 0.274810
vt 0.081082 0.274833
vt 0.081136 0.274789
vt 0.081121 0.274721
vt 0.081052 0.274690
vt 0.080996 0.274749
vn -0.581629 0.568699 -0.581627
vn -0.581629 0.568699 -0.581627
vn -0.581629 0.568699 -0.581627
vn -0.581628 0.568701 0.581626
vn -0.581628 0.568701 0.581626
vn -0.581628 0.568701 0.581626
vn 0.581628 0.568701 -0.581626
vn 0.581628 0.568701 -0.581626
vn 0.581628 0.568701 -0.581626
vn -0.707107 0.000000 -0.707107
vn -0.707107 0.000000 -0.707107
vn -0.707107 0.000000 -0.707107
vn -0.707107 0.000000 -0.707107
vn 0.581629 0.568699 0.581627
vn 0.581629 0.568699 0.581627
vn 0.581629 0.568699 0.581627
vn -1.000000 0.000000 0.000000
vn -1.000000 0.000000 0.000000
vn -1.000000 0.000000 0.000000
vn -1.000000 0.000000 0.000000
vn 0.855571 0.493963 0.154914
vn 0.855571 0.493963 0.154914
vn 0.855571 0.493963 0.154914
vn 0.855571 0.493963 0.154914
vn 0.000001 0.987928 0.154913
vn 0.000001 0.987928 0.154913
vn 0.000001 0.987928 0.154913
vn 0.000001 0.987928 0.154913
vn -0.707107 0.000000 0.707107
vn -0.707107 0.000000 0.707107
vn -0.707107 0.000000 0.707107
vn -0.707107 0.000000 0.707107
vn -1.000000 -0.000003 0.000000
vn -1.000000 -0.000003 0.000000
vn -1.000000 -0.000003 0.000000
vn -1.000000 -0.000003 0.000000
vn 0.855571 -0.493964 0.154914
vn 0.855571 -0.493964 0.154914
vn 0.855571 -0.493964 0.154914
vn 0.855571 -0.493964 0.154914
vn 0.707107 0.000000 -0.707107
vn 0.707107 0.000000 -0.707107
vn 0.707107 0.000000 -0.707107
vn 0.707107 0.000000 -0.707107
vn -0.855571 0.493964 0.154914
vn -0.855571 0.493964 0.154914
vn -0.855571 0.493964 0.154914
vn -0.855571 0.493964 0.154914
vn 0.000000 0.964663 -0.263486
vn 0.000000 0.964663 -0.263486
vn 0.000000 0.964663 -0.263486
vn 0.000000 0.964663 -0.263486
vn -0.000001 -0.987928 0.154913
vn -0.000001 -0.987928 0.154913
vn -0.000001 -0.987928 0.154913
vn -0.000001 -0.987928 0.154913
vn -0.960939 0.276761 0.000000
vn -0.960939 0.276761 0.000000
vn -0.960939 0.276761 0.000000
vn -0.960939 0.276761 0.000000
vn -0.855571 -0.493964 0.154914
vn -0.855571 -0.493964 0.154914
vn -0.855571 -0.493964 0.154914
vn -0.855571 -0.493964 0.154914
vn 1.000000 -0.000000 0.000000
vn 1.000000 -0.000000 0.000000
vn 1.000000 -0.000000 0.000000
vn 1.000000 -0.000000 0.000000
vn 0.000000 0.158159 -0.987414
vn 0.000000 0.158159 -0.987414
vn 0.000000 0.158159 -0.987414
vn 0.000000 0.158159 -0.987414
vn 0.707107 0.000000 0.707107
vn 0.707107 0.000000 0.707107
vn 0.707107 0.000000 0.707107
vn 0.707107 0.000000 0.707107
vn 0.000000 0.964663 0.263486
vn 0.000000 0.964663 0.263486
vn 0.000000 0.964663 0.263486
vn 0.000000 0.964663 0.263486
vn 0.000000 0.158159 0.987414
vn 0.000000 0.158159 0.987414
vn 0.000000 0.158159 0.987414
vn 0.000000 0.158159 0.987414
vn 0.000000 1.000000 0.000000
vn 0.000000 1.000000 0.000000
vn 0.000000 1.000000 0.000000
vn 0.000000 1.000000 0.000000
vn 1.000000 0.000000 0.000000
vn 1.000000 0.000000 0.000000
vn 1.000000 0.000000 0.000000
vn 1.000000 0.000000 0.000000
vn 0.960939 0.276761 0.000000
vn 0.960939 0.276761 0.000000
vn 0.960939 0.276761 0.000000
vn 0.960939 0.276761 0.000000
vn 0.000000 0.000000 -1.000000
vn 0.000000 0.000000 -1.000000
vn 0.000000 0.000000 -1.000000
vn 0.000000 0.000000 -1.000000
vn 0.000000 0.000000 -1.000000
vn 0.000000 0.000000 -1.000000
vn 0.000000 -1.000000 0.000000
vn 0.000000 -1.000000 0.000000
vn 0.000000 -1.000000 0.000000
vn 0.000000 -1.000000 0.000000
vn 0.000000 -1.000000 0.000000
vn 0.000000 -1.000000 0.000000
vn 0.000000 -1.000000 0.000000
vn 0.000000 -1.000000 0.000000
vn 0.000000 0.000000 1.000000
vn 0.000000 0.000000 1.000000
vn 0.000000 0.000000 1.000000
vn 0.000000 0.000000 1.000000
vn 0.000000 0.000000 1.000000
vn 0.000000 0.000000 1.000000
vn 0.000000 0.000000 1.000000
vn 0.000001 0.987928 -0.154914
vn 0.000001 0.987928 -0.154914
vn 0.000001 0.987928 -0.154914
vn 0.000001 0.987928 -0.154914
vn 0.855571 0.493963 -0.154914
vn 0.855571 0.493963 -0.154914
vn 0.855571 0.493963 -0.154914
vn 0.855571 0.493963 -0.154914
vn 0.855571 -0.493964 -0.154914
vn 0.855571 -0.493964 -0.154914
vn 0.855571 -0.493964 -0.154914
vn 0.855571 -0.493964 -0.154914
vn -0.000001 -0.987928 -0.154913
vn -0.000001 -0.987928 -0.154913
vn -0.000001 -0.987928 -0.154913
vn -0.000001 -0.987928 -0.154913
vn -0.855571 -0.493964 -0.154914
vn -0.855571 -0.493964 -0.154914
vn -0.855571 -0.493964 -0.154914
vn -0.855571 -0.493964 -0.154914
vn -0.855571 0.493964 -0.154914
vn -0.855571 0.493964 -0.154914
vn -0.855571 0.493964 -0.154914
vn -0.855571 0.493964 -0.154914
vn -0.000000 0.000000 1.000000
vn -0.000000 0.000000 1.000000
vn -0.000000 0.000000 1.000000
vn 0.000000 0.000000 1.000000
vn 0.000000 0.000000 1.000000
vn 0.000000 0.000000 1.000000
vn 0.000000 0.000000 1.000000
vn 0.000000 0.000000 1.000000
vn 0.000000 0.000000 1.000000
vn 0.000000 0.000000 1.000000
vn 0.000000 0.000000 1.000000
vn 0.000000 0.000000 1.000000
vn 0.000000 0.000000 1.000000
vn 0.000000 0.000000 1.000000
vn 0.000000 0.000000 1.000000
vn 0.000000 0.000000 1.000000
vn 0.000000 0.000000 1.000000
vn 0.000000 0.000000 1.000000
vn 0.000000 0.000000 1.000000
vn 0.000000 0.000000 -1.000000
vn 0.000000 0.000000 -1.000000
vn 0.000000 0.000000 -1.000000
vn 0.000000 0.000000 -1.000000
vn 0.000000 0.000000 -1.000000
vn 0.000000 0.000000 -1.000000
vn 0.000000 0.000000 -1.000000
vn 0.000000 0.000000 -1.000000
vn 0.000000 0.000000 -1.000000
vn 0.000000 0.000000 -1.000000
vn 0.000000 0.000000 -1.000000
vn 0.000000 0.000000 -1.000000
vn 0.000000 0.000000 -1.000000
vn 0.000000 0.000000 -1.000000
vn 0.000000 0.000000 -1.000000
vn 0.000000 0.000000 -1.000000
vn 0.000000 0.000000 -1.000000
vn 0.000000 0.000000 -1.000000
vn 0.000000 0.000000 -1.000000
vn 0.000000 0.000000 -1.000000
s off
f 59/81/221 60/82/222 61/83/223
f 62/84/224 63/85/225 64/86/226
f 65/87/227 66/88/228 67/89/229
f 61/83/230 60/82/231 68/90/232 69/91/233
f 70/92/234 71/93/235 72/94/236
f 61/83/237 69/91/238 73/95/239 63/85/240
f 96/128/241 97/129/242 76/98/243 77/99/244
f 95/127/245 96/128/246 77/99/247 79/101/248
f 73/95/249 80/102/250 64/86/251 63/85/252
f 59/81/253 61/83/254 63/85/255 62/84/256
f 97/129/257 98/130/258 82/104/259 76/98/260
f 67/89/261 66/88/262 83/105/263 84/106/264
f 100/132/265 95/127/266 79/101/267 86/108/268
f 65/87/269 67/89/270 60/82/271 59/81/272
f 98/130/273 99/131/274 88/110/275 82/104/276
f 59/81/277 62/84/278 89/111/279 90/112/280
f 99/131/281 100/132/282 86/108/283 88/110/284
f 72/94/285 91/113/286 83/105/287 66/88/288
f 65/87/289 59/81/290 90/112/291 92/114/292
f 93/115/293 91/113/294 72/94/295 71/93/296
f 62/84/297 64/86/298 71/93/299 70/92/300
f 62/84/301 70/92/302 94/116/303 89/111/304
f 89/111/305 94/116/306 92/114/307 90/112/308
f 70/92/309 72/94/310 66/88/311 65/87/312
f 70/92/313 65/87/314 92/114/315 94/116/316
f 68/90/317 60/82/318 75/117/319
f 85/120/320 67/89/321 84/106/322
f 69/91/323 68/90/324 84/106/325 83/105/326 91/113/327 93/115/328 80/102/329 73/95/330
f 86/108/331 79/123/332 93/115/333
f 64/86/334 82/126/335 88/110/336 71/93/337
f 78/100/338 74/96/339 96/128/340 95/127/341
f 74/96/342 75/97/343 97/129/344 96/128/345
f 75/97/346 81/103/347 98/130/348 97/129/349
f 81/103/350 87/109/351 99/131/352 98/130/353
f 87/109/354 85/107/355 100/132/356 99/131/357
f 85/107/358 78/100/359 95/127/360 100/132/361
f 64/86/362 76/125/363 82/126/364
f 71/93/365 86/108/366 93/115/367
f 71/93/368 88/110/369 86/108/370
f 93/115/371 79/123/372 77/124/373 80/102/374
f 80/102/375 76/125/376 64/86/377
f 80/102/378 77/124/379 76/125/380
f 67/89/381 87/121/382 81/122/383 60/82/384
f 85/120/385 87/121/386 67/89/387
f 60/82/388 81/122/389 75/117/390
f 68/90/391 74/118/392 78/119/393 84/106/394
f 68/90/395 75/117/396 74/118/397
f 84/106/398 78/119/399 85/120/400
