# This file uses centimeters as units for non-parametric coordinates.

v -6.086243 -10.139242 1.008667
v 6.086426 -10.139242 1.008667
v -6.086243 10.139242 1.008667
v 6.086426 10.139242 1.008667
v -6.086243 10.139242 -2.848877
v 6.086426 10.139242 -2.848877
v -6.086243 -10.139242 -2.848877
v 6.086426 -10.139242 -2.848877
v -1.995178 -3.323975 2.848999
v 1.995361 -3.323975 2.848999
v -1.995178 3.323975 2.848999
v 1.995361 3.323975 2.848999
v -1.995178 3.323975 0.899536
v 1.995361 3.323975 0.899536
v -1.995178 -3.323975 0.899536
v 1.995361 -3.323975 0.899536
v -1.995178 0.000000 1.853882
v -1.995178 0.000000 0.899536
v 1.995361 0.000000 0.899536
v 1.995361 0.000000 1.853882
vt 0.134472 0.355256
vt 0.134472 0.355256
vt 0.134472 0.355256
vt 0.134472 0.355256
vt 0.134472 0.355256
vt 0.134472 0.355256
vt 0.134472 0.355256
vt 0.134472 0.355256
vt 0.134472 0.355256
vt 0.134472 0.355256
vt 0.134472 0.355256
vt 0.134472 0.355256
vt 0.134472 0.355256
vt 0.134472 0.355256
vt 0.134472 0.355256
vt 0.134472 0.355256
vt 0.134472 0.355256
vt 0.134472 0.355256
vt 0.134472 0.355256
vt 0.134472 0.355256
vt 0.134472 0.355256
vt 0.134472 0.355256
vt 0.134472 0.355256
vt 0.134472 0.355256
vt 0.134472 0.355256
vt 0.134472 0.355256
vt 0.134472 0.355256
vt 0.134472 0.355256
vt 0.134472 0.355256
vt 0.134472 0.355256
vt 0.134472 0.355256
vt 0.134472 0.355256
vn 0.000000 0.000000 1.000000
vn 0.000000 0.000000 1.000000
vn 0.000000 0.000000 1.000000
vn 0.000000 0.000000 1.000000
vn 0.000000 1.000000 0.000000
vn 0.000000 1.000000 0.000000
vn 0.000000 1.000000 0.000000
vn 0.000000 1.000000 0.000000
vn 0.000000 0.000000 -1.000000
vn 0.000000 0.000000 -1.000000
vn 0.000000 0.000000 -1.000000
vn 0.000000 0.000000 -1.000000
vn 0.000000 -1.000000 0.000000
vn 0.000000 -1.000000 0.000000
vn 0.000000 -1.000000 0.000000
vn 0.000000 -1.000000 0.000000
vn 1.000000 0.000000 0.000000
vn 1.000000 0.000000 0.000000
vn 1.000000 0.000000 0.000000
vn 1.000000 0.000000 0.000000
vn -1.000000 0.000000 0.000000
vn -1.000000 0.000000 0.000000
vn -1.000000 0.000000 0.000000
vn -1.000000 0.000000 0.000000
vn 0.000000 0.286799 0.957991
vn 0.000000 0.286799 0.957991
vn 0.000000 0.286799 0.957991
vn 0.000000 0.286799 0.957991
vn 0.000000 1.000000 0.000000
vn 0.000000 1.000000 0.000000
vn 0.000000 1.000000 0.000000
vn 0.000000 1.000000 0.000000
vn 0.000000 -1.000000 0.000000
vn 0.000000 -1.000000 0.000000
vn 0.000000 -1.000000 0.000000
vn 0.000000 -1.000000 0.000000
vn 1.000000 0.000000 0.000000
vn 1.000000 0.000000 0.000000
vn 1.000000 0.000000 0.000000
vn 1.000000 0.000000 0.000000
vn -1.000000 -0.000000 0.000000
vn -1.000000 -0.000000 0.000000
vn -1.000000 -0.000000 0.000000
vn -1.000000 -0.000000 0.000000
vn -1.000000 0.000000 0.000000
vn -1.000000 0.000000 0.000000
vn -1.000000 0.000000 0.000000
vn -1.000000 0.000000 0.000000
vn 1.000000 0.000000 0.000000
vn 1.000000 0.000000 0.000000
vn 1.000000 0.000000 0.000000
vn 1.000000 0.000000 0.000000
vn 0.000000 -0.286799 0.957991
vn 0.000000 -0.286799 0.957991
vn 0.000000 -0.286799 0.957991
vn 0.000000 -0.286799 0.957991
s off
f 1/1/1 2/2/2 4/4/3 3/3/4
f 3/3/5 4/4/6 6/6/7 5/5/8
f 5/5/9 6/6/10 8/8/11 7/7/12
f 7/7/13 8/8/14 2/10/15 1/9/16
f 2/2/17 8/11/18 6/12/19 4/4/20
f 7/13/21 1/1/22 3/3/23 5/14/24
f 9/15/25 10/16/26 20/17/27 17/18/28
f 11/19/29 12/20/30 14/21/31 13/22/32
f 15/23/33 16/24/34 10/25/35 9/26/36
f 10/16/37 16/27/38 19/28/39 20/17/40
f 15/29/41 9/15/42 17/18/43 18/30/44
f 18/30/45 17/18/46 11/19/47 13/31/48
f 20/17/49 19/28/50 14/32/51 12/20/52
f 17/18/53 20/17/54 12/20/55 11/19/56
