# This file uses centimeters as units for non-parametric coordinates.

v 8.647827 2.920166 4.910522
v 8.647827 28.048340 4.910522
v -8.647827 2.920166 4.910522
v -8.647827 28.048340 4.910522
v -8.647827 2.920166 0.000000
v -8.647827 28.048340 0.000000
v 8.647827 2.920166 0.000000
v 8.647827 28.048340 0.000000
v 3.866455 7.255585 4.459717
v 2.389282 11.797424 4.459717
v -2.389893 11.797424 4.459717
v -3.866821 7.255585 4.459717
v -0.000244 4.448730 4.459717
v 3.866455 7.255585 7.583618
v 2.389282 11.797424 7.583618
v -2.389893 11.797424 7.583618
v -3.866821 7.255585 7.583618
v -0.000244 4.448730 7.583618
v -2.331787 9.608154 7.583618
v -0.000244 6.392944 7.583618
v 2.331543 9.608154 7.583618
v 3.866455 23.251617 4.459717
v 2.389282 18.709869 4.459717
v -2.389893 18.709869 4.459717
v -3.866821 23.251617 4.459717
v -0.000244 26.058563 4.459717
v 3.866455 23.251617 7.583618
v 2.389282 18.709869 7.583618
v -2.389893 18.709869 7.583618
v -3.866821 23.251617 7.583618
v -0.000244 26.058563 7.583618
v -2.331787 20.899109 7.583618
v -0.000244 24.114319 7.583618
v 2.331543 20.899109 7.583618
v 6.575317 29.794006 0.000000
v 6.575317 29.794006 4.910522
v -6.575195 29.794006 0.000000
v -6.575195 29.794006 4.910522
v 6.575317 1.174408 0.000000
v 6.575317 1.174408 4.910522
v -6.575195 1.174408 4.910522
v -6.575195 1.174408 0.000000
v -5.027466 14.593719 4.910522
v -5.027466 16.374756 4.910522
v 5.027466 14.593719 4.910522
v 5.027466 16.374756 4.910522
vt 0.113235 0.329234
vt 0.113242 0.329287
vt 0.112242 0.329295
vt 0.112248 0.329241
vt 0.113191 0.329569
vt 0.112288 0.329577
vt 0.112283 0.329630
vt 0.113198 0.329623
vt 0.112559 0.278122
vt 0.112656 0.278092
vt 0.112669 0.278105
vt 0.112570 0.278136
vt 0.112661 0.277992
vt 0.112674 0.278003
vt 0.112565 0.277961
vt 0.112576 0.277971
vt 0.112502 0.278041
vt 0.112512 0.278054
vt 0.101409 0.376538
vt 0.100907 0.377306
vt 0.101907 0.377318
vt 0.112512 0.278054
vt 0.112625 0.277987
vt 0.112620 0.278120
vt 0.112559 0.278122
vt 0.112570 0.278136
vt 0.112669 0.278105
vt 0.112656 0.278092
vt 0.112674 0.278003
vt 0.112661 0.277992
vt 0.112576 0.277971
vt 0.112565 0.277961
vt 0.112512 0.278054
vt 0.112502 0.278041
vt 0.101409 0.376538
vt 0.101907 0.377318
vt 0.100907 0.377306
vt 0.112625 0.277987
vt 0.112512 0.278054
vt 0.112620 0.278120
vt 0.112283 0.329630
vt 0.112288 0.329577
vt 0.112248 0.329241
vt 0.112242 0.329295
vt 0.113191 0.329569
vt 0.113198 0.329623
vt 0.113242 0.329287
vt 0.113235 0.329234
vt 0.112242 0.329295
vt 0.113242 0.329287
vt 0.113198 0.329623
vt 0.112283 0.329630
vt 0.112748 0.279793
vt 0.112745 0.279971
vt 0.111748 0.279952
vt 0.111748 0.279777
vn -1.000000 0.000000 0.000000
vn -1.000000 0.000000 0.000000
vn -1.000000 0.000000 0.000000
vn -1.000000 0.000000 0.000000
vn 0.000000 0.000000 -1.000000
vn 0.000000 0.000000 -1.000000
vn 0.000000 0.000000 -1.000000
vn 0.000000 0.000000 -1.000000
vn 1.000000 0.000000 0.000000
vn 1.000000 0.000000 0.000000
vn 1.000000 0.000000 0.000000
vn 1.000000 0.000000 0.000000
vn 0.000000 1.000000 0.000000
vn 0.000000 1.000000 0.000000
vn 0.000000 1.000000 0.000000
vn 0.000000 1.000000 0.000000
vn 0.000000 -1.000000 0.000000
vn 0.000000 -1.000000 0.000000
vn 0.000000 -1.000000 0.000000
vn 0.000000 -1.000000 0.000000
vn 0.000000 0.000000 1.000000
vn 0.000000 0.000000 1.000000
vn 0.000000 0.000000 1.000000
vn 0.000000 0.000000 1.000000
vn 0.950968 0.309290 0.000000
vn 0.950968 0.309290 0.000000
vn 0.950968 0.309290 0.000000
vn 0.950968 0.309290 0.000000
vn 0.000000 1.000000 0.000000
vn 0.000000 1.000000 0.000000
vn 0.000000 1.000000 0.000000
vn 0.000000 1.000000 0.000000
vn -0.950983 0.309243 0.000000
vn -0.950983 0.309243 0.000000
vn -0.950983 0.309243 0.000000
vn -0.950983 0.309243 0.000000
vn -0.587459 -0.809254 0.000000
vn -0.587459 -0.809254 0.000000
vn -0.587459 -0.809254 0.000000
vn -0.587459 -0.809254 0.000000
vn 0.587447 -0.809263 0.000000
vn 0.587447 -0.809263 0.000000
vn 0.587447 -0.809263 0.000000
vn 0.587447 -0.809263 0.000000
vn 0.000000 0.000000 1.000000
vn 0.000000 0.000000 1.000000
vn 0.000000 0.000000 1.000000
vn -0.000000 0.000000 1.000000
vn -0.000000 0.000000 1.000000
vn -0.000000 0.000000 1.000000
vn -0.000000 0.000000 1.000000
vn -0.000002 0.000000 1.000000
vn -0.000002 0.000000 1.000000
vn -0.000002 0.000000 1.000000
vn 0.000000 0.000000 1.000000
vn 0.000000 0.000000 1.000000
vn 0.000000 0.000000 1.000000
vn 0.000000 0.000000 1.000000
vn 0.000002 0.000000 1.000000
vn 0.000002 0.000000 1.000000
vn 0.000002 0.000000 1.000000
vn 0.000000 0.000000 1.000000
vn 0.000000 0.000000 1.000000
vn 0.000000 0.000000 1.000000
vn 0.000000 0.000000 1.000000
vn 0.950966 -0.309295 0.000000
vn 0.950966 -0.309295 0.000000
vn 0.950966 -0.309295 0.000000
vn 0.950966 -0.309295 0.000000
vn 0.000000 -1.000000 0.000000
vn 0.000000 -1.000000 0.000000
vn 0.000000 -1.000000 0.000000
vn 0.000000 -1.000000 0.000000
vn -0.950981 -0.309249 0.000000
vn -0.950981 -0.309249 0.000000
vn -0.950981 -0.309249 0.000000
vn -0.950981 -0.309249 0.000000
vn -0.587472 0.809245 0.000000
vn -0.587472 0.809245 0.000000
vn -0.587472 0.809245 0.000000
vn -0.587472 0.809245 0.000000
vn 0.587460 0.809253 0.000000
vn 0.587460 0.809253 0.000000
vn 0.587460 0.809253 0.000000
vn 0.587460 0.809253 0.000000
vn 0.000000 0.000000 1.000000
vn 0.000000 0.000000 1.000000
vn 0.000000 0.000000 1.000000
vn 0.000000 0.000000 1.000000
vn 0.000000 0.000000 1.000000
vn 0.000000 0.000000 1.000000
vn 0.000000 0.000000 1.000000
vn 0.000000 0.000000 1.000000
vn 0.000000 0.000000 1.000000
vn 0.000000 0.000000 1.000000
vn 0.000000 0.000000 1.000000
vn 0.000000 0.000000 1.000000
vn 0.000000 0.000000 1.000000
vn 0.000000 0.000000 1.000000
vn 0.000000 0.000000 1.000000
vn 0.000000 0.000000 1.000000
vn 0.000000 0.000000 1.000000
vn 0.000000 0.000000 1.000000
vn 0.000000 0.000000 1.000000
vn 0.000000 0.000000 1.000000
vn 0.000000 0.000000 1.000000
vn 0.644221 0.764839 0.000000
vn 0.644221 0.764839 0.000000
vn 0.644221 0.764839 0.000000
vn 0.644221 0.764839 0.000000
vn 0.000000 0.000000 -1.000000
vn 0.000000 0.000000 -1.000000
vn 0.000000 0.000000 -1.000000
vn 0.000000 0.000000 -1.000000
vn -0.644199 0.764858 0.000000
vn -0.644199 0.764858 0.000000
vn -0.644199 0.764858 0.000000
vn -0.644199 0.764858 0.000000
vn 0.000000 0.000000 1.000000
vn 0.000000 0.000000 1.000000
vn 0.000000 0.000000 1.000000
vn 0.000000 0.000000 1.000000
vn 0.644241 -0.764823 0.000000
vn 0.644241 -0.764823 0.000000
vn 0.644241 -0.764823 0.000000
vn 0.644241 -0.764823 0.000000
vn 0.000000 0.000000 1.000000
vn 0.000000 0.000000 1.000000
vn 0.000000 0.000000 1.000000
vn 0.000000 0.000000 1.000000
vn -0.644219 -0.764841 0.000000
vn -0.644219 -0.764841 0.000000
vn -0.644219 -0.764841 0.000000
vn -0.644219 -0.764841 0.000000
vn 0.000000 0.000000 -1.000000
vn 0.000000 0.000000 -1.000000
vn 0.000000 0.000000 -1.000000
vn 0.000000 0.000000 -1.000000
vn 0.000000 0.000000 1.000000
vn 0.000000 0.000000 1.000000
vn 0.000000 0.000000 1.000000
vn 0.000000 0.000000 1.000000
vn 0.000000 0.000000 1.000000
vn 0.000000 0.000000 1.000000
vn 0.000000 0.000000 1.000000
vn 0.000000 0.000000 1.000000
vn -0.000000 0.000000 1.000000
vn -0.000000 0.000000 1.000000
vn -0.000000 0.000000 1.000000
vn -0.000000 0.000000 1.000000
vn 0.000000 0.000000 1.000000
vn 0.000000 0.000000 1.000000
vn 0.000000 0.000000 1.000000
vn 0.000000 0.000000 1.000000
s off
f 5/1/1 3/2/2 4/3/3 6/4/4
f 7/5/5 5/1/6 6/4/7 8/6/8
f 2/7/9 1/8/10 7/5/11 8/6/12
f 36/41/13 35/42/14 37/43/15 38/44/16
f 39/45/17 40/46/18 41/47/19 42/48/20
f 44/53/21 43/54/22 45/55/23 46/56/24
f 9/9/25 10/10/26 15/11/27 14/12/28
f 10/10/29 11/13/30 16/14/31 15/11/32
f 11/13/33 12/15/34 17/16/35 16/14/36
f 12/15/37 13/17/38 18/18/39 17/16/40
f 13/17/41 9/9/42 14/12/43 18/18/44
f 20/19/45 21/20/46 19/21/47
f 18/18/48 20/22/49 19/23/50 17/16/51
f 17/16/52 19/23/53 16/14/54
f 16/14/55 19/23/56 21/24/57 15/11/58
f 15/11/59 21/24/60 14/12/61
f 14/12/62 21/24/63 20/22/64 18/18/65
f 22/25/66 27/26/67 28/27/68 23/28/69
f 23/28/70 28/27/71 29/29/72 24/30/73
f 24/30/74 29/29/75 30/31/76 25/32/77
f 25/32/78 30/31/79 31/33/80 26/34/81
f 26/34/82 31/33/83 27/26/84 22/25/85
f 33/35/86 32/36/87 34/37/88
f 31/33/89 30/31/90 32/38/91 33/39/92
f 30/31/93 29/29/94 32/38/95
f 29/29/96 28/27/97 34/40/98 32/38/99
f 28/27/100 27/26/101 34/40/102
f 27/26/103 31/33/104 33/39/105 34/40/106
f 2/7/107 8/6/108 35/42/109 36/41/110
f 8/6/111 6/4/112 37/43/113 35/42/114
f 6/4/115 4/3/116 38/44/117 37/43/118
f 4/3/119 2/7/120 36/41/121 38/44/122
f 7/5/123 1/8/124 40/46/125 39/45/126
f 1/8/127 3/2/128 41/47/129 40/46/130
f 3/2/131 5/1/132 42/48/133 41/47/134
f 5/1/135 7/5/136 39/45/137 42/48/138
f 4/3/139 3/2/140 43/50/141 44/49/142
f 3/2/143 1/8/144 45/51/145 43/50/146
f 1/8/147 2/7/148 46/52/149 45/51/150
f 2/7/151 4/3/152 44/49/153 46/52/154
