# This file uses centimeters as units for non-parametric coordinates.

v 8.132324 154.759125 17.971945
v 11.097261 154.759125 -0.000010
v 8.132324 164.110809 17.971945
v 11.097261 169.503113 -0.000010
v -8.132324 164.110809 17.971945
v -11.097261 169.503113 -0.000010
v -8.132324 154.759125 17.971945
v -11.097261 154.759125 -0.000010
v -3.684387 17.952278 19.680319
v -4.186554 18.640144 17.972097
v -3.684387 4.741341 19.680319
v -4.186554 4.053482 17.972097
v 3.490295 4.741341 19.680319
v 3.992462 4.053482 17.972097
v 3.490295 17.952278 19.680319
v 3.992462 18.640144 17.972097
v -1.944580 154.759155 7.943258
v 1.750488 154.759155 7.943258
v 3.598022 154.759155 11.143332
v 1.750488 154.759155 14.343405
v -1.944580 154.759155 14.343405
v -3.792114 154.759155 11.143332
v -1.944580 13.029999 7.943258
v 1.750488 13.029999 7.943258
v 3.598022 13.029999 11.143332
v 1.750488 13.029999 14.343405
v -1.944580 13.029999 14.343405
v -3.792114 13.029999 11.143332
v -2.891693 134.652557 6.302786
v 2.697601 134.652557 6.302786
v 5.492401 134.652557 11.143179
v 2.697601 134.652557 15.983877
v -2.891693 134.652557 15.983877
v -5.686493 134.652557 11.143179
v -2.891693 124.066116 6.302786
v 2.697601 124.066116 6.302786
v 5.492401 124.066116 11.143179
v 2.697601 124.066116 15.983877
v -2.891693 124.066116 15.983877
v -5.686493 124.066116 11.143179
v -6.215973 22.908752 17.972097
v -6.215973 22.908752 -0.000010
v -6.215973 0.000000 17.972097
v -6.215973 0.000000 -0.000010
v 6.021881 0.000000 17.972097
v 6.021881 0.000000 -0.000010
v 6.021881 22.908752 17.972097
v 6.021881 22.908752 -0.000010
v -2.891693 49.588860 6.302786
v 2.697601 49.588860 6.302786
v 5.492401 49.588860 11.143179
v 2.697601 49.588860 15.983877
v -2.891693 49.588860 15.983877
v -5.686493 49.588860 11.143179
v -2.891693 39.002411 6.302786
v 2.697601 39.002411 6.302786
v 5.492401 39.002411 11.143179
v 2.697601 39.002411 15.983877
v -2.891693 39.002411 15.983877
v -5.686493 39.002411 11.143179
vt 0.415022 0.444073
vt 0.415022 0.444073
vt 0.415022 0.444073
vt 0.415022 0.444073
vt 0.415022 0.444073
vt 0.415022 0.444073
vt 0.415022 0.444073
vt 0.415022 0.444073
vt 0.415022 0.444073
vt 0.415022 0.444073
vt 0.415022 0.444073
vt 0.415022 0.444073
vt 0.415022 0.444073
vt 0.415022 0.444073
vt 0.400665 0.445668
vt 0.400665 0.445668
vt 0.400665 0.445668
vt 0.400665 0.445668
vt 0.400665 0.445668
vt 0.400665 0.445668
vt 0.400665 0.445668
vt 0.400665 0.445668
vt 0.400665 0.445668
vt 0.400665 0.445668
vt 0.400665 0.445668
vt 0.400665 0.445668
vt 0.415022 0.444073
vt 0.415022 0.444073
vt 0.415022 0.444073
vt 0.415022 0.444073
vt 0.415022 0.444073
vt 0.415022 0.444073
vt 0.415022 0.444073
vt 0.415022 0.444073
vt 0.415022 0.444073
vt 0.415022 0.444073
vt 0.415022 0.444073
vt 0.415022 0.444073
vt 0.415022 0.444073
vt 0.415022 0.444073
vt 0.416405 0.419172
vt 0.416405 0.419172
vt 0.416405 0.419172
vt 0.416405 0.419172
vt 0.416405 0.419172
vt 0.416405 0.419172
vt 0.416405 0.419172
vt 0.416405 0.419172
vt 0.416405 0.419172
vt 0.416405 0.419172
vt 0.416405 0.419172
vt 0.416405 0.419172
vt 0.416405 0.419172
vt 0.416405 0.419172
vt 0.415022 0.444073
vt 0.415022 0.444073
vt 0.415022 0.444073
vt 0.415022 0.444073
vt 0.415022 0.444073
vt 0.415022 0.444073
vt 0.415022 0.444073
vt 0.415022 0.444073
vt 0.415022 0.444073
vt 0.415022 0.444073
vt 0.415022 0.444073
vt 0.415022 0.444073
vt 0.415022 0.444073
vt 0.415022 0.444073
vt 0.416405 0.419172
vt 0.416405 0.419172
vt 0.416405 0.419172
vt 0.416405 0.419172
vt 0.416405 0.419172
vt 0.416405 0.419172
vt 0.416405 0.419172
vt 0.416405 0.419172
vt 0.416405 0.419172
vt 0.416405 0.419172
vt 0.416405 0.419172
vt 0.416405 0.419172
vt 0.416405 0.419172
vt 0.416405 0.419172
vn 0.986663 0.000000 0.162775
vn 0.986663 0.000000 0.162775
vn 0.986663 0.000000 0.162775
vn 0.986663 0.000000 0.162775
vn 0.000000 0.957816 0.287383
vn 0.000000 0.957816 0.287383
vn 0.000000 0.957816 0.287383
vn 0.000000 0.957816 0.287383
vn -0.986663 0.000000 0.162775
vn -0.986663 0.000000 0.162775
vn -0.986663 0.000000 0.162775
vn -0.986663 0.000000 0.162775
vn 0.000000 -1.000000 -0.000000
vn 0.000000 -1.000000 -0.000000
vn 0.000000 -1.000000 -0.000000
vn 0.000000 -1.000000 -0.000000
vn 0.000000 0.000000 -1.000000
vn 0.000000 0.000000 -1.000000
vn 0.000000 0.000000 -1.000000
vn 0.000000 0.000000 -1.000000
vn 0.000000 0.000000 1.000000
vn 0.000000 0.000000 1.000000
vn 0.000000 0.000000 1.000000
vn 0.000000 0.000000 1.000000
vn -0.959404 0.000000 0.282036
vn -0.959404 0.000000 0.282036
vn -0.959404 0.000000 0.282036
vn -0.959404 0.000000 0.282036
vn 0.000000 -0.927620 0.373525
vn 0.000000 -0.927620 0.373525
vn 0.000000 -0.927620 0.373525
vn 0.000000 -0.927620 0.373525
vn 0.959404 0.000000 0.282036
vn 0.959404 0.000000 0.282036
vn 0.959404 0.000000 0.282036
vn 0.959404 0.000000 0.282036
vn 0.000000 0.927617 0.373532
vn 0.000000 0.927617 0.373532
vn 0.000000 0.927617 0.373532
vn 0.000000 0.927617 0.373532
vn 0.000000 0.000000 1.000000
vn 0.000000 0.000000 1.000000
vn 0.000000 0.000000 1.000000
vn 0.000000 0.000000 1.000000
vn 0.000000 0.000000 -1.000000
vn 0.000000 0.000000 -1.000000
vn 0.000000 0.000000 -1.000000
vn 0.000000 0.000000 -1.000000
vn 0.866029 0.000000 -0.499994
vn 0.866029 0.000000 -0.499994
vn 0.866029 0.000000 -0.499994
vn 0.866029 0.000000 -0.499994
vn 0.866029 0.000000 0.499994
vn 0.866029 0.000000 0.499994
vn 0.866029 0.000000 0.499994
vn 0.866029 0.000000 0.499994
vn 0.000000 0.000000 1.000000
vn 0.000000 0.000000 1.000000
vn 0.000000 0.000000 1.000000
vn 0.000000 0.000000 1.000000
vn -0.866029 0.000000 0.499994
vn -0.866029 0.000000 0.499994
vn -0.866029 0.000000 0.499994
vn -0.866029 0.000000 0.499994
vn -0.866029 0.000000 -0.499994
vn -0.866029 0.000000 -0.499994
vn -0.866029 0.000000 -0.499994
vn -0.866029 0.000000 -0.499994
vn 0.000000 0.000000 -1.000000
vn 0.000000 0.000000 -1.000000
vn 0.000000 0.000000 -1.000000
vn 0.000000 0.000000 -1.000000
vn 0.866010 0.000000 -0.500026
vn 0.866010 0.000000 -0.500026
vn 0.866010 0.000000 -0.500026
vn 0.866010 0.000000 -0.500026
vn 0.866024 0.000000 0.500003
vn 0.866024 0.000000 0.500003
vn 0.866024 0.000000 0.500003
vn 0.866024 0.000000 0.500003
vn 0.000000 0.000000 1.000000
vn 0.000000 0.000000 1.000000
vn 0.000000 0.000000 1.000000
vn 0.000000 0.000000 1.000000
vn -0.866024 0.000000 0.500003
vn -0.866024 0.000000 0.500003
vn -0.866024 0.000000 0.500003
vn -0.866024 0.000000 0.500003
vn -0.866010 0.000000 -0.500026
vn -0.866010 0.000000 -0.500026
vn -0.866010 0.000000 -0.500026
vn -0.866010 0.000000 -0.500026
vn 0.000000 1.000000 0.000001
vn 0.000000 1.000000 0.000001
vn 0.000000 1.000000 0.000001
vn 0.000000 1.000000 0.000000
vn 0.000000 1.000000 0.000000
vn 0.000000 1.000000 0.000000
vn 0.000000 1.000000 0.000000
vn 0.000000 1.000000 0.000000
vn 0.000000 1.000000 0.000000
vn 0.000000 1.000000 0.000000
vn 0.000000 1.000000 0.000000
vn 0.000000 1.000000 0.000000
vn 0.000000 -1.000000 0.000000
vn 0.000000 -1.000000 0.000000
vn 0.000000 -1.000000 0.000000
vn 0.000000 -1.000000 0.000000
vn 0.000000 -1.000000 0.000000
vn 0.000000 -1.000000 0.000000
vn 0.000000 -1.000000 0.000000
vn 0.000000 -1.000000 0.000000
vn 0.000000 -1.000000 0.000000
vn 0.000000 -1.000000 0.000000
vn 0.000000 -1.000000 0.000000
vn 0.000000 -1.000000 0.000000
vn -1.000000 0.000000 0.000000
vn -1.000000 0.000000 0.000000
vn -1.000000 0.000000 0.000000
vn -1.000000 0.000000 0.000000
vn 0.000000 -1.000000 0.000000
vn 0.000000 -1.000000 0.000000
vn 0.000000 -1.000000 0.000000
vn 0.000000 -1.000000 0.000000
vn 1.000000 0.000000 0.000000
vn 1.000000 0.000000 0.000000
vn 1.000000 0.000000 0.000000
vn 1.000000 0.000000 0.000000
vn 0.000000 1.000000 0.000000
vn 0.000000 1.000000 0.000000
vn 0.000000 1.000000 0.000000
vn 0.000000 1.000000 0.000000
vn 0.000000 0.000000 -1.000000
vn 0.000000 0.000000 -1.000000
vn 0.000000 0.000000 -1.000000
vn 0.000000 0.000000 -1.000000
vn 0.000000 0.000000 1.000000
vn 0.000000 0.000000 1.000000
vn 0.000000 0.000000 1.000000
vn 0.000000 0.000000 1.000000
vn 0.000000 0.000000 -1.000000
vn 0.000000 0.000000 -1.000000
vn 0.000000 0.000000 -1.000000
vn 0.000000 0.000000 -1.000000
vn 0.866010 0.000000 -0.500026
vn 0.866010 0.000000 -0.500026
vn 0.866010 0.000000 -0.500026
vn 0.866010 0.000000 -0.500026
vn 0.866024 0.000000 0.500003
vn 0.866024 0.000000 0.500003
vn 0.866024 0.000000 0.500003
vn 0.866024 0.000000 0.500003
vn 0.000000 0.000000 1.000000
vn 0.000000 0.000000 1.000000
vn 0.000000 0.000000 1.000000
vn 0.000000 0.000000 1.000000
vn -0.866024 0.000000 0.500003
vn -0.866024 0.000000 0.500003
vn -0.866024 0.000000 0.500003
vn -0.866024 0.000000 0.500003
vn -0.866010 0.000000 -0.500026
vn -0.866010 0.000000 -0.500026
vn -0.866010 0.000000 -0.500026
vn -0.866010 0.000000 -0.500026
vn 0.000000 1.000000 0.000001
vn 0.000000 1.000000 0.000001
vn 0.000000 1.000000 0.000001
vn 0.000000 1.000000 -0.000001
vn 0.000000 1.000000 -0.000001
vn 0.000000 1.000000 -0.000001
vn 0.000000 1.000000 0.000001
vn 0.000000 1.000000 0.000001
vn 0.000000 1.000000 0.000001
vn 0.000000 1.000000 0.000000
vn 0.000000 1.000000 0.000000
vn 0.000000 1.000000 0.000000
vn 0.000000 -1.000000 0.000000
vn 0.000000 -1.000000 0.000000
vn 0.000000 -1.000000 0.000000
vn 0.000000 -1.000000 0.000000
vn 0.000000 -1.000000 0.000000
vn 0.000000 -1.000000 0.000000
vn 0.000000 -1.000000 0.000000
vn 0.000000 -1.000000 0.000000
vn 0.000000 -1.000000 0.000000
vn 0.000000 -1.000000 0.000000
vn 0.000000 -1.000000 0.000000
vn 0.000000 -1.000000 0.000000
s off
f 1/1/1 2/2/2 4/4/3 3/3/4
f 3/3/5 4/4/6 6/6/7 5/5/8
f 5/5/9 6/6/10 8/8/11 7/7/12
f 7/7/13 8/8/14 2/10/15 1/9/16
f 2/2/17 8/11/18 6/12/19 4/4/20
f 7/13/21 1/1/22 3/3/23 5/14/24
f 9/15/25 10/16/26 12/17/27 11/18/28
f 11/18/29 12/17/30 14/19/31 13/20/32
f 13/20/33 14/19/34 16/21/35 15/22/36
f 15/22/37 16/21/38 10/23/39 9/24/40
f 15/25/41 9/15/42 11/18/43 13/26/44
f 17/27/45 18/28/46 24/29/47 23/30/48
f 18/28/49 19/31/50 25/32/51 24/29/52
f 19/31/53 20/33/54 26/34/55 25/32/56
f 20/33/57 21/35/58 27/36/59 26/34/60
f 21/35/61 22/37/62 28/38/63 27/36/64
f 22/37/65 17/39/66 23/40/67 28/38/68
f 29/41/69 30/42/70 36/43/71 35/44/72
f 30/42/73 31/45/74 37/46/75 36/43/76
f 31/45/77 32/47/78 38/48/79 37/46/80
f 32/47/81 33/49/82 39/50/83 38/48/84
f 33/49/85 34/51/86 40/52/87 39/50/88
f 34/51/89 29/53/90 35/54/91 40/52/92
f 30/42/93 29/53/94 31/45/95
f 29/53/96 34/51/97 31/45/98
f 34/51/99 33/49/100 31/45/101
f 33/49/102 32/47/103 31/45/104
f 36/43/105 37/46/106 35/44/107
f 37/46/108 38/48/109 35/44/110
f 38/48/111 39/50/112 35/44/113
f 39/50/114 40/52/115 35/44/116
f 41/55/117 42/56/118 44/57/119 43/58/120
f 43/58/121 44/57/122 46/59/123 45/60/124
f 45/60/125 46/59/126 48/61/127 47/62/128
f 47/62/129 48/61/130 42/63/131 41/64/132
f 42/56/133 48/65/134 46/66/135 44/57/136
f 47/67/137 41/55/138 43/58/139 45/68/140
f 49/69/141 50/70/142 56/71/143 55/72/144
f 50/70/145 51/73/146 57/74/147 56/71/148
f 51/73/149 52/75/150 58/76/151 57/74/152
f 52/75/153 53/77/154 59/78/155 58/76/156
f 53/77/157 54/79/158 60/80/159 59/78/160
f 54/79/161 49/81/162 55/82/163 60/80/164
f 50/70/165 49/81/166 51/73/167
f 49/81/168 54/79/169 51/73/170
f 54/79/171 53/77/172 51/73/173
f 53/77/174 52/75/175 51/73/176
f 56/71/177 57/74/178 55/72/179
f 57/74/180 58/76/181 55/72/182
f 58/76/183 59/78/184 55/72/185
f 59/78/186 60/80/187 55/72/188
