# This file uses centimeters as units for non-parametric coordinates.

v -8.559946 0.849044 -11.811721
v -8.595716 0.849044 13.247721
v -8.560948 2.531452 -11.456810
v -8.595716 2.201493 13.247721
v 8.594859 2.531452 -11.406231
v 8.560232 2.531452 13.298228
v 8.595716 0.849044 -11.761142
v 8.560232 0.849044 13.298228
v -8.580551 2.531452 8.077929
v 3.176678 2.531452 13.282417
v -3.388008 2.531452 8.322453
v 0.062956 2.531452 10.445628
v -0.354983 3.206416 10.463943
v 2.908831 3.206416 13.281631
v -3.157505 3.206416 8.739964
v -8.581122 3.206416 8.341769
v -8.585558 2.201493 9.813498
v 0.607950 2.201493 13.274906
v -2.671745 3.153814 -13.298228
v -2.671745 1.051271 -13.298228
v -2.671745 0.000000 -11.477373
v -2.671745 0.000000 -10.082814
v -2.671745 3.153813 -9.656517
v -2.671745 4.205085 -11.477373
v -4.055322 3.153814 -13.298228
v -4.055322 1.051271 -13.298228
v -4.055322 0.000000 -11.477373
v -4.055322 0.000000 -10.082814
v -4.055322 3.153813 -9.656517
v -4.055322 4.205085 -11.477373
v -2.671745 2.102542 -11.477373
v -4.055322 2.102542 -11.477373
v -6.128626 3.153814 -13.298228
v -6.128626 1.051271 -13.298228
v -6.128626 0.000000 -11.477373
v -6.128626 0.000000 -10.082814
v -6.128626 3.153813 -9.656517
v -6.128626 4.205085 -11.477373
v -7.512204 3.153814 -13.298228
v -7.512204 1.051271 -13.298228
v -7.512204 0.000000 -11.477373
v -7.512204 0.000000 -10.082814
v -7.512204 3.153813 -9.656517
v -7.512204 4.205085 -11.477373
v -6.128626 2.102542 -11.477373
v -7.512204 2.102542 -11.477373
v 4.199605 3.153814 -13.298228
v 4.199605 1.051271 -13.298228
v 4.199605 0.000000 -11.477373
v 4.199605 0.000000 -10.082814
v 4.199605 3.153813 -9.656517
v 4.199605 4.205085 -11.477373
v 2.816027 3.153814 -13.298228
v 2.816027 1.051271 -13.298228
v 2.816027 0.000000 -11.477373
v 2.816027 0.000000 -10.082814
v 2.816027 3.153813 -9.656517
v 2.816027 4.205085 -11.477373
v 4.199605 2.102542 -11.477373
v 2.816027 2.102542 -11.477373
v 7.614077 3.153814 -13.298228
v 7.614077 1.051271 -13.298228
v 7.614077 0.000000 -11.477373
v 7.614077 0.000000 -10.082814
v 7.614077 3.153813 -9.656517
v 7.614077 4.205085 -11.477373
v 6.230500 3.153814 -13.298228
v 6.230500 1.051271 -13.298228
v 6.230500 0.000000 -11.477373
v 6.230500 0.000000 -10.082814
v 6.230500 3.153813 -9.656517
v 6.230500 4.205085 -11.477373
v 7.614077 2.102542 -11.477373
v 6.230500 2.102542 -11.477373
v 0.742725 3.153814 -13.298228
v 0.742725 1.051271 -13.298228
v 0.742725 0.000000 -11.477373
v 0.742725 0.000000 -10.082814
v 0.742725 3.153813 -9.656517
v 0.742725 4.205085 -11.477373
v -0.640852 3.153814 -13.298228
v -0.640852 1.051271 -13.298228
v -0.640852 0.000000 -11.477373
v -0.640852 0.000000 -10.082814
v -0.640852 3.153813 -9.656517
v -0.640852 4.205085 -11.477373
v 0.742725 2.102542 -11.477373
v -0.640852 2.102542 -11.477373
vt 0.101373 0.377811
vt 0.101246 0.377873
vt 0.101241 0.377857
vt 0.390033 0.390283
vt 0.390032 0.364804
vt 0.397884 0.364526
vt 0.101967 0.377191
vt 0.101143 0.377356
vt 0.101147 0.377375
vt 0.101963 0.377211
vt 0.102137 0.377675
vt 0.101175 0.377521
vt 0.101192 0.377568
vt 0.102143 0.377658
vt 0.101817 0.355345
vt 0.101607 0.354345
vt 0.102326 0.355268
vt 0.101175 0.377521
vt 0.101287 0.377597
vt 0.101361 0.377667
vt 0.101410 0.377820
vt 0.101287 0.377597
vt 0.101361 0.377667
vt 0.101410 0.377820
vt 0.415973 0.390283
vt 0.403112 0.361962
vt 0.407833 0.358530
vt 0.415973 0.358530
vt 0.101046 0.228323
vt 0.101044 0.228423
vt 0.101129 0.228438
vt 0.101132 0.228338
vt 0.101015 0.228541
vt 0.101101 0.228556
vt 0.100994 0.228595
vt 0.101080 0.228610
vt 0.100990 0.228461
vt 0.101078 0.228477
vt 0.101019 0.228341
vt 0.101107 0.228356
vt 0.101017 0.228442
vt 0.101104 0.228457
vt 0.101262 0.228360
vt 0.101258 0.228460
vt 0.101344 0.228475
vt 0.101349 0.228375
vt 0.101230 0.228579
vt 0.101317 0.228594
vt 0.101210 0.228633
vt 0.101298 0.228649
vt 0.101210 0.228500
vt 0.101299 0.228516
vt 0.101238 0.228379
vt 0.101327 0.228394
vt 0.101234 0.228480
vt 0.101322 0.228495
vt 0.100624 0.228251
vt 0.100626 0.228350
vt 0.100710 0.228365
vt 0.100708 0.228266
vt 0.100596 0.228466
vt 0.100680 0.228481
vt 0.100571 0.228519
vt 0.100656 0.228534
vt 0.100559 0.228386
vt 0.100645 0.228401
vt 0.100591 0.228267
vt 0.100676 0.228282
vt 0.100593 0.228368
vt 0.100678 0.228383
vt 0.100418 0.228216
vt 0.100423 0.228315
vt 0.100505 0.228329
vt 0.100501 0.228230
vt 0.100391 0.228430
vt 0.100474 0.228445
vt 0.100365 0.228482
vt 0.100448 0.228497
vt 0.100349 0.228349
vt 0.100434 0.228364
vt 0.100382 0.228231
vt 0.100466 0.228246
vt 0.100386 0.228332
vt 0.100470 0.228346
vt 0.100835 0.228287
vt 0.100835 0.228387
vt 0.100919 0.228401
vt 0.100920 0.228302
vt 0.100806 0.228504
vt 0.100890 0.228519
vt 0.100783 0.228557
vt 0.100868 0.228572
vt 0.100774 0.228424
vt 0.100861 0.228439
vt 0.100805 0.228304
vt 0.100891 0.228319
vt 0.100805 0.228405
vt 0.100891 0.228420
vn -0.999996 0.000000 -0.002958
vn -0.999996 0.000000 -0.002958
vn -0.999996 0.000000 -0.002958
vn 0.000000 1.000000 0.000000
vn 0.000000 1.000000 0.000000
vn 0.000000 1.000000 0.000000
vn 0.999999 0.000106 0.001409
vn 0.999999 0.000106 0.001409
vn 0.999999 0.000106 0.001409
vn 0.999999 0.000106 0.001409
vn 0.000000 -1.000000 0.000000
vn 0.000000 -1.000000 0.000000
vn 0.000000 -1.000000 0.000000
vn 0.000000 -1.000000 0.000000
vn -0.002940 -0.000035 0.999996
vn -0.002940 -0.000035 0.999996
vn -0.002940 -0.000035 0.999996
vn -0.002940 -0.000035 0.999996
vn -0.002940 -0.000035 0.999996
vn 0.002885 0.206412 -0.978461
vn 0.002885 0.206412 -0.978461
vn 0.002885 0.206412 -0.978461
vn 0.002885 0.206412 -0.978461
vn 0.000000 1.000000 0.000000
vn 0.000000 1.000000 0.000000
vn 0.000000 1.000000 0.000000
vn 0.000000 1.000000 0.000000
vn 0.000000 1.000000 0.000000
vn 0.000000 1.000000 0.000000
vn 0.000000 1.000000 0.000000
vn 0.626805 0.327607 -0.706957
vn 0.626805 0.327607 -0.706958
vn 0.626805 0.327607 -0.706957
vn 0.626805 0.327607 -0.706958
vn 0.494916 0.328444 -0.804477
vn 0.494916 0.328444 -0.804477
vn 0.494916 0.328444 -0.804477
vn 0.494916 0.328444 -0.804477
vn 0.054191 0.442555 -0.895102
vn 0.054191 0.442556 -0.895102
vn 0.054191 0.442556 -0.895102
vn 0.054191 0.442556 -0.895102
vn -0.252265 0.742053 0.621063
vn -0.252265 0.742053 0.621063
vn -0.252265 0.742053 0.621063
vn -0.252265 0.742053 0.621063
vn -0.999996 0.000263 -0.002835
vn -0.999996 0.000263 -0.002835
vn -0.999996 0.000263 -0.002835
vn -0.002924 0.000005 0.999996
vn -0.002924 0.000005 0.999996
vn -0.002924 0.000005 0.999996
vn 0.000000 1.000000 -0.000000
vn 0.000000 1.000000 -0.000000
vn 0.000000 1.000000 -0.000000
vn 0.000000 1.000000 -0.000000
vn 0.000000 1.000000 0.000000
vn 0.000000 1.000000 0.000000
vn 0.000000 1.000000 0.000000
vn 0.000000 1.000000 0.000000
vn -0.999996 0.002399 -0.001267
vn -0.999996 0.002399 -0.001267
vn -0.999996 0.002399 -0.001267
vn -0.999996 0.002399 -0.001267
vn -0.999996 0.002399 -0.001267
vn -0.002954 0.000000 0.999996
vn -0.002954 0.000000 0.999996
vn -0.002954 0.000000 0.999996
vn 0.000000 0.000000 -1.000000
vn 0.000000 0.000000 -1.000000
vn 0.000000 0.000000 -1.000000
vn 0.000000 0.000000 -1.000000
vn 0.000000 -0.866025 -0.500000
vn 0.000000 -0.866025 -0.500000
vn 0.000000 -0.866025 -0.500000
vn 0.000000 -0.866025 -0.500000
vn 0.000000 -1.000000 0.000000
vn 0.000000 -1.000000 0.000000
vn 0.000000 -1.000000 0.000000
vn 0.000000 -1.000000 0.000000
vn 0.000000 -0.133951 0.990988
vn 0.000000 -0.133951 0.990988
vn 0.000000 -0.133951 0.990988
vn 0.000000 -0.133951 0.990988
vn 0.000000 0.866026 0.500000
vn 0.000000 0.866026 0.500000
vn 0.000000 0.866026 0.500000
vn 0.000000 0.866026 0.500000
vn 0.000000 0.866026 -0.500000
vn 0.000000 0.866026 -0.500000
vn 0.000000 0.866026 -0.500000
vn 0.000000 0.866026 -0.500000
vn 1.000000 0.000000 0.000000
vn 1.000000 0.000000 0.000000
vn 1.000000 0.000000 0.000000
vn 1.000000 0.000000 0.000000
vn 1.000000 0.000000 0.000000
vn 1.000000 0.000000 0.000000
vn 1.000000 0.000000 0.000000
vn 1.000000 0.000000 0.000000
vn 1.000000 0.000000 0.000000
vn 1.000000 0.000000 0.000000
vn 1.000000 0.000000 0.000000
vn 1.000000 0.000000 0.000000
vn 1.000000 0.000000 0.000000
vn 1.000000 0.000000 0.000000
vn 1.000000 0.000000 0.000000
vn 1.000000 0.000000 0.000000
vn 1.000000 0.000000 0.000000
vn 1.000000 0.000000 0.000000
vn -1.000000 0.000000 0.000000
vn -1.000000 0.000000 0.000000
vn -1.000000 -0.000000 0.000000
vn -1.000000 0.000000 0.000000
vn -1.000000 0.000000 0.000000
vn -1.000000 -0.000000 0.000000
vn -1.000000 0.000000 0.000000
vn -1.000000 -0.000000 0.000000
vn -1.000000 -0.000000 0.000000
vn -1.000000 -0.000000 0.000000
vn -1.000000 -0.000000 0.000000
vn -1.000000 -0.000000 0.000000
vn -1.000000 -0.000000 0.000000
vn -1.000000 0.000000 0.000000
vn -1.000000 -0.000000 0.000000
vn -1.000000 0.000000 0.000000
vn -1.000000 0.000000 0.000000
vn -1.000000 -0.000000 0.000000
vn 0.000000 0.000000 -1.000000
vn 0.000000 0.000000 -1.000000
vn 0.000000 0.000000 -1.000000
vn 0.000000 0.000000 -1.000000
vn 0.000000 -0.866025 -0.500000
vn 0.000000 -0.866025 -0.500000
vn 0.000000 -0.866025 -0.500000
vn 0.000000 -0.866025 -0.500000
vn 0.000000 -1.000000 0.000000
vn 0.000000 -1.000000 0.000000
vn 0.000000 -1.000000 0.000000
vn 0.000000 -1.000000 0.000000
vn 0.000000 -0.133951 0.990988
vn 0.000000 -0.133951 0.990988
vn 0.000000 -0.133951 0.990988
vn 0.000000 -0.133951 0.990988
vn 0.000000 0.866026 0.500000
vn 0.000000 0.866026 0.500000
vn 0.000000 0.866026 0.500000
vn 0.000000 0.866026 0.500000
vn 0.000000 0.866025 -0.500000
vn 0.000000 0.866025 -0.500000
vn 0.000000 0.866025 -0.500000
vn 0.000000 0.866025 -0.500000
vn 1.000000 0.000000 0.000000
vn 1.000000 0.000000 0.000000
vn 1.000000 0.000000 0.000000
vn 1.000000 0.000000 0.000000
vn 1.000000 0.000000 0.000000
vn 1.000000 0.000000 0.000000
vn 1.000000 0.000000 0.000000
vn 1.000000 0.000000 0.000000
vn 1.000000 0.000000 0.000000
vn 1.000000 0.000000 0.000000
vn 1.000000 0.000000 0.000000
vn 1.000000 0.000000 0.000000
vn 1.000000 0.000000 0.000000
vn 1.000000 0.000000 0.000000
vn 1.000000 0.000000 0.000000
vn 1.000000 0.000000 0.000000
vn 1.000000 0.000000 0.000000
vn 1.000000 0.000000 0.000000
vn -1.000000 0.000000 0.000000
vn -1.000000 0.000000 0.000000
vn -1.000000 -0.000000 0.000000
vn -1.000000 0.000000 0.000000
vn -1.000000 0.000000 0.000000
vn -1.000000 -0.000000 0.000000
vn -1.000000 0.000000 0.000000
vn -1.000000 -0.000000 0.000000
vn -1.000000 -0.000000 0.000000
vn -1.000000 -0.000000 0.000000
vn -1.000000 -0.000000 0.000000
vn -1.000000 -0.000000 0.000000
vn -1.000000 -0.000000 0.000000
vn -1.000000 0.000000 0.000000
vn -1.000000 -0.000000 0.000000
vn -1.000000 0.000000 0.000000
vn -1.000000 0.000000 0.000000
vn -1.000000 -0.000000 0.000000
vn 0.000000 0.000000 -1.000000
vn 0.000000 0.000000 -1.000000
vn 0.000000 0.000000 -1.000000
vn 0.000000 0.000000 -1.000000
vn 0.000000 -0.866025 -0.500000
vn 0.000000 -0.866025 -0.500000
vn 0.000000 -0.866025 -0.500000
vn 0.000000 -0.866025 -0.500000
vn 0.000000 -1.000000 0.000000
vn 0.000000 -1.000000 0.000000
vn 0.000000 -1.000000 0.000000
vn 0.000000 -1.000000 0.000000
vn 0.000000 -0.133951 0.990988
vn 0.000000 -0.133951 0.990988
vn 0.000000 -0.133951 0.990988
vn 0.000000 -0.133951 0.990988
vn 0.000000 0.866026 0.500000
vn 0.000000 0.866026 0.500000
vn 0.000000 0.866026 0.500000
vn 0.000000 0.866026 0.500000
vn 0.000000 0.866026 -0.500000
vn 0.000000 0.866026 -0.500000
vn 0.000000 0.866026 -0.500000
vn 0.000000 0.866026 -0.500000
vn 1.000000 0.000000 0.000000
vn 1.000000 0.000000 0.000000
vn 1.000000 0.000000 0.000000
vn 1.000000 0.000000 0.000000
vn 1.000000 0.000000 0.000000
vn 1.000000 0.000000 0.000000
vn 1.000000 0.000000 0.000000
vn 1.000000 0.000000 0.000000
vn 1.000000 0.000000 0.000000
vn 1.000000 0.000000 0.000000
vn 1.000000 0.000000 0.000000
vn 1.000000 0.000000 0.000000
vn 1.000000 0.000000 0.000000
vn 1.000000 0.000000 0.000000
vn 1.000000 0.000000 0.000000
vn 1.000000 0.000000 0.000000
vn 1.000000 0.000000 0.000000
vn 1.000000 0.000000 0.000000
vn -1.000000 0.000000 0.000000
vn -1.000000 0.000000 0.000000
vn -1.000000 -0.000000 0.000000
vn -1.000000 0.000000 0.000000
vn -1.000000 0.000000 0.000000
vn -1.000000 -0.000000 0.000000
vn -1.000000 0.000000 0.000000
vn -1.000000 -0.000000 0.000000
vn -1.000000 -0.000000 0.000000
vn -1.000000 -0.000000 0.000000
vn -1.000000 -0.000000 0.000000
vn -1.000000 -0.000000 0.000000
vn -1.000000 -0.000000 0.000000
vn -1.000000 0.000000 0.000000
vn -1.000000 -0.000000 0.000000
vn -1.000000 0.000000 0.000000
vn -1.000000 0.000000 0.000000
vn -1.000000 -0.000000 0.000000
vn 0.000000 0.000000 -1.000000
vn 0.000000 0.000000 -1.000000
vn 0.000000 0.000000 -1.000000
vn 0.000000 0.000000 -1.000000
vn 0.000000 -0.866025 -0.500000
vn 0.000000 -0.866025 -0.500000
vn 0.000000 -0.866025 -0.500000
vn 0.000000 -0.866025 -0.500000
vn 0.000000 -1.000000 0.000000
vn 0.000000 -1.000000 0.000000
vn 0.000000 -1.000000 0.000000
vn 0.000000 -1.000000 0.000000
vn 0.000000 -0.133951 0.990988
vn 0.000000 -0.133951 0.990988
vn 0.000000 -0.133951 0.990988
vn 0.000000 -0.133951 0.990988
vn 0.000000 0.866025 0.500000
vn 0.000000 0.866025 0.500000
vn 0.000000 0.866025 0.500000
vn 0.000000 0.866025 0.500000
vn 0.000000 0.866026 -0.500000
vn 0.000000 0.866026 -0.500000
vn 0.000000 0.866026 -0.500000
vn 0.000000 0.866026 -0.500000
vn 1.000000 0.000000 0.000000
vn 1.000000 0.000000 0.000000
vn 1.000000 0.000000 0.000000
vn 1.000000 0.000000 0.000000
vn 1.000000 0.000000 0.000000
vn 1.000000 0.000000 0.000000
vn 1.000000 0.000000 0.000000
vn 1.000000 0.000000 0.000000
vn 1.000000 0.000000 0.000000
vn 1.000000 0.000000 0.000000
vn 1.000000 0.000000 0.000000
vn 1.000000 0.000000 0.000000
vn 1.000000 0.000000 0.000000
vn 1.000000 0.000000 0.000000
vn 1.000000 0.000000 0.000000
vn 1.000000 0.000000 0.000000
vn 1.000000 0.000000 0.000000
vn 1.000000 0.000000 0.000000
vn -1.000000 0.000000 0.000000
vn -1.000000 0.000000 0.000000
vn -1.000000 0.000000 0.000000
vn -1.000000 0.000000 0.000000
vn -1.000000 0.000000 0.000000
vn -1.000000 0.000000 0.000000
vn -1.000000 0.000000 0.000000
vn -1.000000 0.000000 0.000000
vn -1.000000 0.000000 0.000000
vn -1.000000 0.000000 0.000000
vn -1.000000 0.000000 0.000000
vn -1.000000 0.000000 0.000000
vn -1.000000 0.000000 0.000000
vn -1.000000 0.000000 0.000000
vn -1.000000 0.000000 0.000000
vn -1.000000 0.000000 0.000000
vn -1.000000 0.000000 0.000000
vn -1.000000 0.000000 0.000000
vn 0.000000 0.000000 -1.000000
vn 0.000000 0.000000 -1.000000
vn 0.000000 0.000000 -1.000000
vn 0.000000 0.000000 -1.000000
vn 0.000000 -0.866025 -0.500000
vn 0.000000 -0.866025 -0.500000
vn 0.000000 -0.866025 -0.500000
vn 0.000000 -0.866025 -0.500000
vn 0.000000 -1.000000 0.000000
vn 0.000000 -1.000000 0.000000
vn 0.000000 -1.000000 0.000000
vn 0.000000 -1.000000 0.000000
vn 0.000000 -0.133951 0.990988
vn 0.000000 -0.133951 0.990988
vn 0.000000 -0.133951 0.990988
vn 0.000000 -0.133951 0.990988
vn 0.000000 0.866025 0.500000
vn 0.000000 0.866025 0.500000
vn 0.000000 0.866025 0.500000
vn 0.000000 0.866025 0.500000
vn 0.000000 0.866026 -0.500000
vn 0.000000 0.866026 -0.500000
vn 0.000000 0.866026 -0.500000
vn 0.000000 0.866026 -0.500000
vn 1.000000 0.000000 0.000000
vn 1.000000 0.000000 0.000000
vn 1.000000 0.000000 0.000000
vn 1.000000 0.000000 0.000000
vn 1.000000 0.000000 0.000000
vn 1.000000 0.000000 0.000000
vn 1.000000 0.000000 0.000000
vn 1.000000 0.000000 0.000000
vn 1.000000 0.000000 0.000000
vn 1.000000 0.000000 0.000000
vn 1.000000 0.000000 0.000000
vn 1.000000 0.000000 0.000000
vn 1.000000 0.000000 0.000000
vn 1.000000 0.000000 0.000000
vn 1.000000 0.000000 0.000000
vn 1.000000 0.000000 0.000000
vn 1.000000 0.000000 0.000000
vn 1.000000 0.000000 0.000000
vn -1.000000 0.000000 0.000000
vn -1.000000 0.000000 0.000000
vn -1.000000 0.000000 0.000000
vn -1.000000 0.000000 0.000000
vn -1.000000 0.000000 0.000000
vn -1.000000 0.000000 0.000000
vn -1.000000 0.000000 0.000000
vn -1.000000 0.000000 0.000000
vn -1.000000 0.000000 0.000000
vn -1.000000 0.000000 0.000000
vn -1.000000 0.000000 0.000000
vn -1.000000 0.000000 0.000000
vn -1.000000 0.000000 0.000000
vn -1.000000 0.000000 0.000000
vn -1.000000 0.000000 0.000000
vn -1.000000 0.000000 0.000000
vn -1.000000 0.000000 0.000000
vn -1.000000 0.000000 0.000000
s off
f 17/1/1 2/2/2 4/3/3
f 3/4/4 9/5/5 11/6/6
f 5/7/7 6/8/8 8/9/9 7/10/10
f 7/10/11 8/9/12 2/2/13 1/11/14
f 2/2/15 8/9/16 6/8/17 10/12/18 18/13/19
f 7/10/20 1/11/21 3/14/22 5/7/23
f 4/15/24 18/16/25 17/17/26
f 14/18/27 13/19/28 15/20/29 16/21/30
f 10/12/31 12/22/32 13/19/33 14/18/34
f 12/22/35 11/23/36 15/20/37 13/19/38
f 11/23/39 9/24/40 16/21/41 15/20/42
f 16/21/43 17/1/44 18/13/45 14/18/46
f 9/24/47 17/1/48 16/21/49
f 14/18/50 18/13/51 10/12/52
f 5/25/53 12/26/54 10/27/55 6/28/56
f 3/4/57 11/6/58 12/26/59 5/25/60
f 1/11/61 2/2/62 17/1/63 9/24/64 3/14/65
f 2/2/66 18/13/67 4/3/68
f 19/29/69 20/30/70 26/31/71 25/32/72
f 20/30/73 21/33/74 27/34/75 26/31/76
f 21/33/77 22/35/78 28/36/79 27/34/80
f 22/35/81 23/37/82 29/38/83 28/36/84
f 23/37/85 24/39/86 30/40/87 29/38/88
f 24/39/89 19/29/90 25/32/91 30/40/92
f 20/30/93 19/29/94 31/41/95
f 21/33/96 20/30/97 31/41/98
f 22/35/99 21/33/100 31/41/101
f 23/37/102 22/35/103 31/41/104
f 24/39/105 23/37/106 31/41/107
f 19/29/108 24/39/109 31/41/110
f 25/32/111 26/31/112 32/42/113
f 26/31/114 27/34/115 32/42/116
f 27/34/117 28/36/118 32/42/119
f 28/36/120 29/38/121 32/42/122
f 29/38/123 30/40/124 32/42/125
f 30/40/126 25/32/127 32/42/128
f 33/43/129 34/44/130 40/45/131 39/46/132
f 34/44/133 35/47/134 41/48/135 40/45/136
f 35/47/137 36/49/138 42/50/139 41/48/140
f 36/49/141 37/51/142 43/52/143 42/50/144
f 37/51/145 38/53/146 44/54/147 43/52/148
f 38/53/149 33/43/150 39/46/151 44/54/152
f 34/44/153 33/43/154 45/55/155
f 35/47/156 34/44/157 45/55/158
f 36/49/159 35/47/160 45/55/161
f 37/51/162 36/49/163 45/55/164
f 38/53/165 37/51/166 45/55/167
f 33/43/168 38/53/169 45/55/170
f 39/46/171 40/45/172 46/56/173
f 40/45/174 41/48/175 46/56/176
f 41/48/177 42/50/178 46/56/179
f 42/50/180 43/52/181 46/56/182
f 43/52/183 44/54/184 46/56/185
f 44/54/186 39/46/187 46/56/188
f 47/57/189 48/58/190 54/59/191 53/60/192
f 48/58/193 49/61/194 55/62/195 54/59/196
f 49/61/197 50/63/198 56/64/199 55/62/200
f 50/63/201 51/65/202 57/66/203 56/64/204
f 51/65/205 52/67/206 58/68/207 57/66/208
f 52/67/209 47/57/210 53/60/211 58/68/212
f 48/58/213 47/57/214 59/69/215
f 49/61/216 48/58/217 59/69/218
f 50/63/219 49/61/220 59/69/221
f 51/65/222 50/63/223 59/69/224
f 52/67/225 51/65/226 59/69/227
f 47/57/228 52/67/229 59/69/230
f 53/60/231 54/59/232 60/70/233
f 54/59/234 55/62/235 60/70/236
f 55/62/237 56/64/238 60/70/239
f 56/64/240 57/66/241 60/70/242
f 57/66/243 58/68/244 60/70/245
f 58/68/246 53/60/247 60/70/248
f 61/71/249 62/72/250 68/73/251 67/74/252
f 62/72/253 63/75/254 69/76/255 68/73/256
f 63/75/257 64/77/258 70/78/259 69/76/260
f 64/77/261 65/79/262 71/80/263 70/78/264
f 65/79/265 66/81/266 72/82/267 71/80/268
f 66/81/269 61/71/270 67/74/271 72/82/272
f 62/72/273 61/71/274 73/83/275
f 63/75/276 62/72/277 73/83/278
f 64/77/279 63/75/280 73/83/281
f 65/79/282 64/77/283 73/83/284
f 66/81/285 65/79/286 73/83/287
f 61/71/288 66/81/289 73/83/290
f 67/74/291 68/73/292 74/84/293
f 68/73/294 69/76/295 74/84/296
f 69/76/297 70/78/298 74/84/299
f 70/78/300 71/80/301 74/84/302
f 71/80/303 72/82/304 74/84/305
f 72/82/306 67/74/307 74/84/308
f 75/85/309 76/86/310 82/87/311 81/88/312
f 76/86/313 77/89/314 83/90/315 82/87/316
f 77/89/317 78/91/318 84/92/319 83/90/320
f 78/91/321 79/93/322 85/94/323 84/92/324
f 79/93/325 80/95/326 86/96/327 85/94/328
f 80/95/329 75/85/330 81/88/331 86/96/332
f 76/86/333 75/85/334 87/97/335
f 77/89/336 76/86/337 87/97/338
f 78/91/339 77/89/340 87/97/341
f 79/93/342 78/91/343 87/97/344
f 80/95/345 79/93/346 87/97/347
f 75/85/348 80/95/349 87/97/350
f 81/88/351 82/87/352 88/98/353
f 82/87/354 83/90/355 88/98/356
f 83/90/357 84/92/358 88/98/359
f 84/92/360 85/94/361 88/98/362
f 85/94/363 86/96/364 88/98/365
f 86/96/366 81/88/367 88/98/368
