# This file uses centimeters as units for non-parametric coordinates.

v -7.408440 5.238825 6.538509
v 6.716211 7.988080 6.505892
v -7.388772 6.386203 6.271144
v 6.500476 9.101324 6.185745
v -7.173733 4.951751 -7.173733
v 7.173733 4.951751 -7.173733
v -7.173733 3.773469 -7.173733
v 7.173733 3.773469 -7.173733
v -7.173733 4.951751 3.482034
v 7.173733 4.951751 -1.875208
v -7.173733 3.773469 3.514662
v 7.173733 3.773469 -1.842580
v -7.173733 0.000000 7.173733
v 7.173733 0.000000 7.173733
v -7.173733 3.773469 7.173733
v 7.173733 3.773469 7.173733
v -7.173733 0.000000 -7.173733
v 7.173733 0.000000 -7.173733
v -7.173733 0.000000 3.619154
v 7.173733 0.000000 -1.738089
v -7.275235 5.228456 4.950762
v 6.996334 6.314357 2.078788
v 7.082276 5.165449 2.246959
v -7.300478 4.064979 5.094050
vt 0.218472 0.469352
vt 0.217746 0.469190
vt 0.217738 0.469014
vt 0.218476 0.469172
vt 0.218056 0.468676
vt 0.218738 0.468807
vt 0.218058 0.468841
vt 0.218731 0.468976
vt 0.218543 0.469078
vt 0.217938 0.468801
vt 0.218538 0.469257
vt 0.217942 0.468971
vt 0.218472 0.469352
vt 0.217746 0.469190
vt 0.217738 0.469014
vt 0.218476 0.469172
vt 0.217938 0.468802
vt 0.218543 0.469079
vt 0.218738 0.468807
vt 0.218056 0.468676
vt 0.218058 0.468841
vt 0.218731 0.468976
vt 0.217940 0.468973
vt 0.218536 0.469259
vt 0.218511 0.469123
vt 0.217844 0.468901
vt 0.217850 0.469074
vt 0.218507 0.469302
vn -0.044237 0.247691 0.967829
vn -0.044237 0.247691 0.967829
vn -0.044237 0.247691 0.967829
vn -0.044237 0.247691 0.967829
vn -0.121445 0.947598 -0.295483
vn -0.121445 0.947598 -0.295483
vn -0.121445 0.947598 -0.295483
vn -0.121445 0.947598 -0.295483
vn 0.000000 0.000000 -1.000000
vn 0.000000 0.000000 -1.000000
vn 0.000000 0.000000 -1.000000
vn 0.000000 0.000000 -1.000000
vn 0.997901 0.041166 0.049995
vn 0.997901 0.041166 0.049995
vn 0.997901 0.041166 0.049995
vn 0.997901 0.041166 0.049995
vn -1.000000 0.000001 0.000000
vn -1.000000 0.000001 0.000000
vn -1.000000 0.000001 0.000000
vn -1.000000 0.000001 0.000000
vn 0.000000 1.000000 0.000000
vn 0.000000 1.000000 0.000000
vn 0.000000 1.000000 0.000000
vn 0.000000 1.000000 0.000000
vn 0.119497 -0.949763 0.289260
vn 0.119497 -0.949763 0.289260
vn 0.119497 -0.949763 0.289260
vn 0.119497 -0.949763 0.289260
vn 1.000000 0.000001 0.000000
vn 1.000000 0.000001 0.000000
vn 1.000000 0.000001 0.000000
vn 1.000000 0.000001 0.000000
vn -0.997125 0.005069 -0.075611
vn -0.997125 0.005069 -0.075611
vn -0.997125 0.005069 -0.075611
vn -0.997125 0.005069 -0.075611
vn 0.000000 0.000000 1.000000
vn 0.000000 0.000000 1.000000
vn 0.000000 0.000000 1.000000
vn 0.000000 0.000000 1.000000
vn 0.000000 1.000000 0.000000
vn 0.000000 1.000000 0.000000
vn 0.000000 1.000000 0.000000
vn 0.000000 1.000000 0.000000
vn 0.000000 0.000000 -1.000000
vn 0.000000 0.000000 -1.000000
vn 0.000000 0.000000 -1.000000
vn 0.000000 0.000000 -1.000000
vn 0.000000 -1.000000 0.000000
vn 0.000000 -1.000000 0.000000
vn 0.000000 -1.000000 0.000000
vn 0.000000 -1.000000 0.000000
vn 1.000000 0.000000 0.000000
vn 1.000000 0.000000 0.000000
vn 1.000000 0.000000 0.000000
vn 1.000000 0.000000 0.000000
vn -1.000000 0.000000 0.000000
vn -1.000000 0.000000 0.000000
vn -1.000000 0.000000 0.000000
vn -1.000000 0.000000 0.000000
vn 0.000000 -1.000000 0.000000
vn 0.000000 -1.000000 0.000000
vn 0.000000 -1.000000 0.000000
vn 0.000000 -1.000000 0.000000
vn 1.000000 -0.000000 0.000000
vn 1.000000 -0.000000 0.000000
vn 1.000000 -0.000000 0.000000
vn 1.000000 -0.000000 0.000000
vn -1.000000 0.000000 0.000000
vn -1.000000 0.000000 0.000000
vn -1.000000 0.000000 0.000000
vn -1.000000 0.000000 0.000000
vn -0.169260 0.789975 -0.589314
vn -0.169260 0.789975 -0.589314
vn -0.169260 0.789975 -0.589314
vn -0.169260 0.789975 -0.589314
vn 0.991517 0.129234 -0.013866
vn 0.991517 0.129234 -0.013866
vn 0.991517 0.129234 -0.013866
vn 0.991517 0.129234 -0.013866
vn 0.166960 -0.802613 0.572657
vn 0.166960 -0.802613 0.572657
vn 0.166960 -0.802613 0.572657
vn 0.166960 -0.802613 0.572657
vn -0.996487 0.004505 -0.083631
vn -0.996487 0.004505 -0.083631
vn -0.996487 0.004505 -0.083631
vn -0.996487 0.004505 -0.083631
s off
f 1/1/1 2/2/2 4/3/3 3/4/4
f 21/25/5 22/26/6 10/10/7 9/9/8
f 5/6/9 6/5/10 8/7/11 7/8/12
f 22/26/13 23/27/14 12/12/15 10/10/16
f 7/8/17 11/11/18 9/9/19 5/6/20
f 9/9/21 10/10/22 6/5/23 5/6/24
f 11/11/25 12/12/26 23/27/27 24/28/28
f 10/10/29 12/12/30 8/7/31 6/5/32
f 9/9/33 11/11/34 24/28/35 21/25/36
f 13/13/37 14/14/38 16/15/39 15/16/40
f 15/16/41 16/15/42 12/17/43 11/18/44
f 7/19/45 8/20/46 18/21/47 17/22/48
f 17/22/49 18/21/50 20/23/51 19/24/52
f 14/14/53 20/23/54 12/17/55 16/15/56
f 17/22/57 19/24/58 11/18/59 7/19/60
f 19/24/61 20/23/62 14/14/63 13/13/64
f 12/17/65 20/23/66 18/21/67 8/20/68
f 11/18/69 19/24/70 13/13/71 15/16/72
f 3/4/73 4/3/74 22/26/75 21/25/76
f 2/2/77 23/27/78 22/26/79 4/3/80
f 24/28/81 23/27/82 2/2/83 1/1/84
f 21/25/85 24/28/86 1/1/87 3/4/88
