# This file uses centimeters as units for non-parametric coordinates.

v -2.795155 -13.399893 -13.399906
v -2.795158 0.000000 -18.950314
v -2.795162 13.399895 -13.399906
v -2.795158 18.950310 0.000010
v -2.795162 13.399895 13.399906
v -2.795158 0.000000 18.950314
v -2.795193 -13.399895 13.399907
v -2.795158 -18.950314 0.000010
v 2.795146 -13.399893 -13.399906
v 2.795146 0.000000 -18.950314
v 2.795146 13.399893 -13.399906
v 2.795146 18.950310 0.000010
v 2.795146 13.399893 13.399906
v 2.795146 0.000000 18.950314
v 2.795146 -13.399895 13.399907
v 2.795145 -18.950275 0.000010
v -2.795158 -0.000000 0.000010
v 2.795146 0.000000 0.000010
v 0.000015 -14.999969 0.000008
v 0.000015 0.000000 0.000008
v 0.000015 0.000000 15.000008
v 0.000015 -10.606602 10.606606
v 0.000015 10.606600 10.606606
v 0.000015 14.999998 0.000008
v -75.000015 14.999998 50.000008
v -75.000015 0.000000 50.000008
v -60.000015 0.000000 50.000008
v -64.393402 10.606600 50.000008
v -75.000015 -14.999969 50.000008
v -64.393402 -10.606600 50.000008
v -75.000015 14.999998 0.000008
v -64.393402 10.606601 10.606606
v -90.000015 0.000000 50.000008
v -85.606598 10.606600 50.000008
v -85.606598 -10.606602 50.000008
v -60.000015 0.000000 15.000008
v -75.000015 -14.999994 0.000008
v -64.393402 -10.606601 10.606606
v -90.000015 -0.000000 15.000008
v -85.606598 10.606601 10.606606
v -150.000000 10.606602 10.606606
v -85.606598 -10.606602 10.606606
v -150.000000 14.999969 0.000008
v -150.000000 -0.000000 15.000008
v -150.000000 -10.606600 10.606606
v -150.000000 -0.000000 0.000008
v -150.000000 -14.999998 0.000008
v 0.000015 0.000000 -14.999992
v 0.000015 -10.606602 -10.606590
v 0.000015 10.606600 -10.606590
v -75.000015 14.999998 -49.999992
v -75.000015 0.000000 -49.999992
v -60.000015 0.000000 -49.999992
v -64.393402 10.606600 -49.999992
v -75.000015 -14.999969 -49.999992
v -64.393402 -10.606600 -49.999992
v -64.393402 10.606601 -10.606590
v -90.000015 0.000000 -49.999992
v -85.606598 10.606600 -49.999992
v -85.606598 -10.606602 -49.999992
v -60.000015 0.000000 -14.999992
v -64.393402 -10.606601 -10.606590
v -90.000015 -0.000000 -14.999992
v -85.606598 10.606601 -10.606590
v -150.000000 10.606602 -10.606590
v -85.606598 -10.606602 -10.606590
v -150.000000 -0.000000 -14.999992
v -150.000000 -10.606600 -10.606590
v -118.783524 14.999981 0.000008
v -126.355377 9.259583 10.606606
v -135.234558 1.347018 15.000008
v -140.219849 -10.606601 10.606606
v -138.390869 -14.999997 -1.409325
v -121.939896 -0.000000 -14.999992
v -130.819061 -10.606601 -9.197304
v -116.954605 10.606602 -10.606590
v -36.685013 14.999998 -1.462868
v -37.794510 10.606601 10.606606
v -37.076447 -2.010154 14.167366
v -33.748672 -14.999981 0.000008
v -36.035820 -8.596447 11.439232
v -33.039627 0.000000 -14.999962
v -34.715408 10.606600 -9.143700
v -32.639130 -10.606602 -10.606590
v -61.600117 -13.399893 -47.204861
v -56.049706 0.000000 -47.204842
v -61.600098 13.399895 -47.204857
v -75.000015 18.950310 -47.204842
v -88.399895 13.399895 -47.204845
v -93.950310 0.000000 -47.204842
v -88.399918 -13.399895 -47.204845
v -75.000015 -18.950314 -47.204842
v -61.600117 -13.399893 -52.795151
v -56.049679 0.000000 -52.795158
v -61.600113 13.399893 -52.795151
v -74.999992 18.950310 -52.795158
v -88.399895 13.399893 -52.795162
v -93.950310 0.000000 -52.795151
v -88.399887 -13.399895 -52.795162
v -74.999985 -18.950275 -52.795158
v -75.000015 -0.000000 -47.204842
v -74.999992 0.000000 -52.795158
vt 0.102220 0.231408
vt 0.102222 0.231206
vt 0.101342 0.231201
vt 0.101342 0.231402
vt 0.102232 0.231065
vt 0.101318 0.231060
vt 0.102244 0.231068
vt 0.101281 0.231063
vt 0.102253 0.231233
vt 0.101253 0.231228
vt 0.102251 0.231463
vt 0.101253 0.231456
vt 0.102240 0.231600
vt 0.101282 0.231594
vt 0.102227 0.231570
vt 0.101319 0.231564
vt 0.102236 0.231326
vt 0.101300 0.231321
vt 0.101319 0.231564
vt 0.101300 0.231321
vt 0.101253 0.231456
vt 0.101282 0.231594
vt 0.101253 0.231228
vt 0.101568 0.231180
vt 0.101535 0.231378
vt 0.101281 0.231063
vt 0.101567 0.231542
vt 0.101281 0.231063
vt 0.101300 0.231321
vt 0.101342 0.231201
vt 0.101318 0.231060
vt 0.101705 0.231331
vt 0.101789 0.231147
vt 0.101969 0.231067
vt 0.101617 0.231065
vt 0.101342 0.231402
vt 0.101796 0.231501
vt 0.101253 0.231228
vt 0.102003 0.231232
vt 0.101319 0.231564
vt 0.102046 0.231569
vt 0.101253 0.231456
vt 0.102001 0.231461
vt 0.101282 0.231594
vt 0.102000 0.231599
vt 0.101646 0.231566
vt 0.101366 0.231284
vt 0.101399 0.231141
vt 0.101319 0.231564
vt 0.101282 0.231594
vt 0.101547 0.231461
vt 0.101589 0.231357
vt 0.101437 0.231457
vt 0.101300 0.231321
vt 0.101253 0.231456
vt 0.101281 0.231063
vt 0.101253 0.231228
vt 0.101319 0.231564
vt 0.101282 0.231594
vt 0.101253 0.231456
vt 0.101300 0.231321
vt 0.101253 0.231228
vt 0.101281 0.231063
vt 0.101281 0.231063
vt 0.101318 0.231060
vt 0.101342 0.231201
vt 0.101300 0.231321
vt 0.101969 0.231067
vt 0.101789 0.231147
vt 0.101705 0.231331
vt 0.101542 0.231184
vt 0.101502 0.231387
vt 0.101342 0.231402
vt 0.101319 0.231564
vt 0.101253 0.231456
vt 0.101253 0.231228
vt 0.101617 0.231065
vt 0.102003 0.231232
vt 0.101282 0.231594
vt 0.101646 0.231566
vt 0.101543 0.231547
vt 0.101796 0.231501
vt 0.102001 0.231461
vt 0.102000 0.231599
vt 0.102046 0.231569
vt 0.101319 0.231564
vt 0.101589 0.231357
vt 0.101652 0.231408
vt 0.101282 0.231594
vt 0.101253 0.231456
vt 0.101603 0.231458
vt 0.101253 0.231228
vt 0.101475 0.231338
vt 0.101300 0.231321
vt 0.101399 0.231141
vt 0.101281 0.231063
vt 0.102220 0.231408
vt 0.101342 0.231402
vt 0.101342 0.231201
vt 0.102222 0.231206
vt 0.101318 0.231060
vt 0.102232 0.231065
vt 0.101281 0.231063
vt 0.102244 0.231068
vt 0.101253 0.231228
vt 0.102253 0.231233
vt 0.101253 0.231456
vt 0.102251 0.231463
vt 0.101282 0.231594
vt 0.102240 0.231600
vt 0.101319 0.231564
vt 0.102227 0.231570
vt 0.102236 0.231326
vt 0.101300 0.231321
vn 0.000000 -0.382683 -0.923880
vn 0.000000 -0.382683 -0.923880
vn 0.000000 -0.382683 -0.923880
vn 0.000000 -0.382683 -0.923880
vn 0.000000 0.382683 -0.923880
vn 0.000000 0.382683 -0.923880
vn 0.000000 0.382683 -0.923880
vn 0.000000 0.382683 -0.923880
vn 0.000000 0.923880 -0.382683
vn 0.000000 0.923880 -0.382683
vn 0.000000 0.923880 -0.382683
vn 0.000000 0.923880 -0.382683
vn 0.000000 0.923880 0.382683
vn 0.000000 0.923880 0.382683
vn 0.000000 0.923880 0.382683
vn 0.000000 0.923880 0.382683
vn 0.000000 0.382683 0.923880
vn 0.000000 0.382683 0.923880
vn 0.000000 0.382683 0.923880
vn 0.000000 0.382683 0.923880
vn -0.000000 -0.382683 0.923880
vn -0.000000 -0.382683 0.923880
vn -0.000000 -0.382683 0.923880
vn -0.000000 -0.382683 0.923880
vn 0.000003 -0.923880 0.382682
vn 0.000003 -0.923880 0.382682
vn 0.000003 -0.923880 0.382682
vn 0.000003 -0.923880 0.382682
vn 0.000003 -0.923880 -0.382682
vn 0.000003 -0.923880 -0.382682
vn 0.000003 -0.923880 -0.382682
vn 0.000003 -0.923880 -0.382682
vn -1.000000 0.000001 -0.000001
vn -1.000000 0.000000 -0.000000
vn -1.000000 0.000001 -0.000001
vn -1.000000 0.000001 -0.000001
vn 1.000000 -0.000000 0.000000
vn 1.000000 -0.000000 -0.000000
vn 1.000000 0.000000 0.000000
vn 1.000000 0.000000 0.000000
vn -1.000000 -0.000000 -0.000000
vn -1.000000 0.000001 -0.000001
vn -1.000000 0.000000 -0.000000
vn -1.000000 -0.000000 0.000000
vn -1.000000 -0.000000 0.000000
vn -1.000000 0.000000 -0.000000
vn -1.000000 0.000001 -0.000001
vn -1.000000 -0.000000 -0.000000
vn -1.000000 -0.000000 0.000000
vn -1.000000 0.000000 -0.000000
vn -1.000000 -0.000000 0.000000
vn -1.000000 -0.000000 0.000000
vn 1.000000 0.000000 0.000000
vn 1.000000 0.000000 0.000000
vn 1.000000 -0.000000 -0.000000
vn 1.000000 -0.000000 0.000000
vn 1.000000 -0.000000 -0.000000
vn 1.000000 -0.000000 -0.000000
vn 1.000000 -0.000000 0.000000
vn 1.000000 -0.000000 -0.000000
vn 1.000000 -0.000000 0.000000
vn 1.000000 -0.000000 -0.000000
vn 1.000000 -0.000000 -0.000000
vn 1.000000 -0.000000 -0.000000
vn 1.000000 0.000000 0.000000
vn 1.000000 0.000000 0.000000
vn 1.000000 0.000000 0.000000
vn 1.000000 0.000000 0.000000
vn -0.019205 0.323437 0.946055
vn -0.019205 0.323437 0.946055
vn -0.019205 0.323437 0.946055
vn -0.019205 0.323437 0.946055
vn 1.000000 0.000000 0.000000
vn 1.000000 0.000000 0.000000
vn 1.000000 0.000000 0.000000
vn 1.000000 0.000000 0.000000
vn -0.000000 -0.382684 0.923879
vn -0.000000 -0.382684 0.923879
vn -0.000000 -0.382684 0.923879
vn -0.000000 -0.382684 0.923879
vn -0.000000 0.000000 1.000000
vn -0.000000 0.000000 1.000000
vn -0.000000 0.000000 1.000000
vn -0.000000 0.000000 1.000000
vn 0.923879 0.382684 0.000000
vn 0.923879 0.382684 0.000000
vn 0.923879 0.382684 0.000000
vn 0.923879 0.382684 0.000000
vn 0.382684 0.923880 0.000000
vn 0.382684 0.923880 0.000000
vn 0.382684 0.923880 0.000000
vn 0.382684 0.923880 0.000000
vn 0.008076 0.933548 0.358360
vn 0.008076 0.933548 0.358360
vn 0.008076 0.933548 0.358360
vn 0.008076 0.933548 0.358360
vn 0.923879 -0.382684 0.000000
vn 0.923879 -0.382684 0.000000
vn 0.923879 -0.382684 0.000000
vn 0.923879 -0.382684 0.000000
vn -0.382683 0.923880 0.000000
vn -0.382683 0.923880 0.000000
vn -0.382683 0.923880 0.000000
vn -0.382683 0.923880 0.000000
vn 0.382682 -0.923880 0.000000
vn 0.382682 -0.923880 0.000000
vn 0.382682 -0.923880 0.000000
vn 0.382682 -0.923880 0.000000
vn -0.000000 0.000000 1.000000
vn -0.000000 0.000000 1.000000
vn -0.000000 0.000000 1.000000
vn -0.000000 0.000000 1.000000
vn 0.000000 0.000000 1.000000
vn 0.000000 0.000000 1.000000
vn 0.000000 0.000000 1.000000
vn 0.000000 0.000000 1.000000
vn -0.923880 0.382684 0.000000
vn -0.923880 0.382684 0.000000
vn -0.923880 0.382684 0.000000
vn -0.923880 0.382684 0.000000
vn -0.382682 -0.923880 0.000000
vn -0.382682 -0.923880 0.000000
vn -0.382682 -0.923880 0.000000
vn -0.382682 -0.923880 0.000000
vn -0.020662 -0.898733 0.438009
vn -0.020662 -0.898733 0.438009
vn -0.020662 -0.898733 0.438009
vn -0.020662 -0.898733 0.438009
vn -0.923880 -0.382683 0.000000
vn -0.923880 -0.382683 0.000000
vn -0.923880 -0.382683 0.000000
vn -0.923880 -0.382683 0.000000
vn 0.000000 0.000000 1.000000
vn 0.000000 0.000000 1.000000
vn 0.000000 0.000000 1.000000
vn 0.000000 0.000000 1.000000
vn -0.004299 -0.932943 0.360000
vn -0.004299 -0.932943 0.360000
vn -0.004299 -0.932943 0.360000
vn -0.004299 -0.932943 0.360000
vn 0.022074 0.899020 0.437350
vn 0.022074 0.899020 0.437350
vn 0.022074 0.899020 0.437350
vn 0.022074 0.899020 0.437350
vn -0.000000 0.428667 0.903463
vn -0.000000 0.428667 0.903463
vn -0.000000 0.428667 0.903463
vn -0.000000 0.428667 0.903463
vn -0.004895 -0.362811 0.931850
vn -0.004895 -0.362811 0.931850
vn -0.004895 -0.362811 0.931850
vn -0.004895 -0.362811 0.931850
vn -1.000000 0.000000 0.000000
vn -1.000000 0.000000 0.000000
vn -1.000000 0.000000 0.000000
vn -1.000000 0.000000 0.000000
vn -1.000000 0.000000 0.000000
vn -1.000000 0.000000 0.000000
vn -1.000000 0.000000 0.000000
vn -1.000000 0.000000 0.000000
vn 1.000000 0.000000 0.000000
vn 1.000000 0.000000 0.000000
vn 1.000000 0.000000 0.000000
vn 1.000000 0.000000 0.000000
vn 1.000000 0.000000 0.000000
vn 1.000000 0.000000 0.000000
vn 1.000000 0.000000 0.000000
vn 1.000000 0.000000 0.000000
vn -0.000000 0.000000 -1.000000
vn -0.000000 0.000000 -1.000000
vn -0.000000 0.000000 -1.000000
vn -0.000000 0.000000 -1.000000
vn 0.382684 0.923880 0.000000
vn 0.382684 0.923880 0.000000
vn 0.382684 0.923880 0.000000
vn 0.382684 0.923880 0.000000
vn 0.023183 0.440305 -0.897549
vn 0.023183 0.440305 -0.897549
vn 0.023183 0.440305 -0.897549
vn 0.023183 0.440305 -0.897549
vn -0.000000 0.000000 -1.000000
vn -0.000000 0.000000 -1.000000
vn -0.000000 0.000000 -1.000000
vn -0.000000 0.000000 -1.000000
vn 0.000000 0.000000 -1.000000
vn 0.000000 0.000000 -1.000000
vn 0.000000 0.000000 -1.000000
vn 0.000000 0.000000 -1.000000
vn 0.000000 0.901353 -0.433085
vn 0.000000 0.901353 -0.433085
vn 0.000000 0.901353 -0.433085
vn 0.000000 0.901353 -0.433085
vn -0.382683 0.923880 0.000000
vn -0.382683 0.923880 0.000000
vn -0.382683 0.923880 0.000000
vn -0.382683 0.923880 0.000000
vn 0.000000 0.000000 -1.000000
vn 0.000000 0.000000 -1.000000
vn 0.000000 0.000000 -1.000000
vn 0.000000 0.000000 -1.000000
vn 0.000000 -0.923880 -0.382682
vn 0.000000 -0.923880 -0.382682
vn 0.000000 -0.923880 -0.382682
vn 0.000000 -0.923880 -0.382682
vn 0.923879 -0.382684 -0.000000
vn 0.923879 -0.382684 -0.000000
vn 0.923879 -0.382684 -0.000000
vn 0.923879 -0.382684 -0.000000
vn -0.923880 0.382683 -0.000000
vn -0.923880 0.382683 -0.000000
vn -0.923880 0.382683 -0.000000
vn -0.923880 0.382683 -0.000000
vn -0.923880 -0.382683 0.000000
vn -0.923880 -0.382683 0.000000
vn -0.923880 -0.382683 0.000000
vn -0.923880 -0.382683 0.000000
vn -0.382682 -0.923880 -0.000000
vn -0.382682 -0.923880 -0.000000
vn -0.382682 -0.923880 -0.000000
vn -0.382682 -0.923880 -0.000000
vn 0.000000 -0.382683 -0.923880
vn 0.000000 -0.382683 -0.923880
vn 0.000000 -0.382683 -0.923880
vn 0.000000 -0.382683 -0.923880
vn 0.923879 0.382684 -0.000000
vn 0.923879 0.382684 -0.000000
vn 0.923879 0.382684 -0.000000
vn 0.923879 0.382684 -0.000000
vn 0.382682 -0.923880 -0.000000
vn 0.382682 -0.923880 -0.000000
vn 0.382682 -0.923880 -0.000000
vn 0.382682 -0.923880 -0.000000
vn -0.000000 0.923880 -0.382682
vn -0.000000 0.923880 -0.382682
vn -0.000000 0.923880 -0.382682
vn -0.000000 0.923880 -0.382682
vn -0.000000 0.382684 -0.923879
vn -0.000000 0.382684 -0.923879
vn -0.000000 0.382684 -0.923879
vn -0.000000 0.382684 -0.923879
vn 0.026746 -0.442123 -0.896556
vn 0.026746 -0.442123 -0.896556
vn 0.026746 -0.442123 -0.896556
vn 0.026746 -0.442123 -0.896556
vn -1.000000 0.000000 0.000000
vn -1.000000 0.000000 0.000000
vn -1.000000 0.000000 0.000000
vn -1.000000 0.000000 0.000000
vn 0.000000 -0.902337 -0.431031
vn 0.000000 -0.902337 -0.431031
vn 0.000000 -0.902337 -0.431031
vn 0.000000 -0.902337 -0.431031
vn -1.000000 0.000000 0.000000
vn -1.000000 0.000000 0.000000
vn -1.000000 0.000000 0.000000
vn -1.000000 0.000000 0.000000
vn 0.023960 -0.931233 0.363637
vn 0.023960 -0.931233 0.363637
vn 0.023960 -0.931233 0.363637
vn 0.023960 -0.931233 0.363637
vn -0.014453 0.906994 0.420896
vn -0.014453 0.906994 0.420896
vn -0.014453 0.906994 0.420896
vn -0.014453 0.906994 0.420896
vn 0.000000 0.428667 0.903463
vn 0.000000 0.428667 0.903463
vn 0.000000 0.428667 0.903463
vn 0.000000 0.428667 0.903463
vn 0.020124 -0.366711 0.930117
vn 0.020124 -0.366711 0.930117
vn 0.020124 -0.366711 0.930117
vn 0.020124 -0.366711 0.930117
vn -0.000000 0.923880 -0.382683
vn -0.000000 0.923880 -0.382683
vn -0.000000 0.923880 -0.382683
vn -0.000000 0.923880 -0.382683
vn -0.000000 0.382684 -0.923880
vn -0.000000 0.382684 -0.923880
vn -0.000000 0.382684 -0.923880
vn -0.000000 0.382684 -0.923880
vn -0.016486 -0.430313 -0.902529
vn -0.016486 -0.430313 -0.902529
vn -0.016486 -0.430313 -0.902529
vn -0.016486 -0.430313 -0.902529
vn -0.000000 -0.902337 -0.431031
vn -0.000000 -0.902337 -0.431031
vn -0.000000 -0.902337 -0.431031
vn -0.000000 -0.902337 -0.431031
vn 0.029246 0.329645 0.943652
vn 0.029246 0.329645 0.943652
vn 0.029246 0.329645 0.943652
vn 0.029246 0.329645 0.943652
vn 0.000000 -0.382684 0.923879
vn 0.000000 -0.382684 0.923879
vn 0.000000 -0.382684 0.923879
vn 0.000000 -0.382684 0.923879
vn -0.007091 0.932537 0.361004
vn -0.007091 0.932537 0.361004
vn -0.007091 0.932537 0.361004
vn -0.007091 0.932537 0.361004
vn 0.020834 -0.900968 0.433386
vn 0.020834 -0.900968 0.433386
vn 0.020834 -0.900968 0.433386
vn 0.020834 -0.900968 0.433386
vn -0.019450 0.433724 -0.900836
vn -0.019450 0.433724 -0.900836
vn -0.019450 0.433724 -0.900836
vn -0.019450 0.433724 -0.900836
vn -0.000000 0.901353 -0.433085
vn -0.000000 0.901353 -0.433085
vn -0.000000 0.901353 -0.433085
vn -0.000000 0.901353 -0.433085
vn 0.000000 -0.923880 -0.382683
vn 0.000000 -0.923880 -0.382683
vn 0.000000 -0.923880 -0.382683
vn 0.000000 -0.923880 -0.382683
vn -0.000000 -0.382683 -0.923880
vn -0.000000 -0.382683 -0.923880
vn -0.000000 -0.382683 -0.923880
vn -0.000000 -0.382683 -0.923880
vn 0.923879 -0.382684 0.000002
vn 0.923879 -0.382684 0.000002
vn 0.923879 -0.382684 0.000002
vn 0.923879 -0.382684 0.000002
vn 0.923880 0.382684 0.000001
vn 0.923879 0.382684 0.000001
vn 0.923879 0.382684 0.000001
vn 0.923879 0.382684 0.000001
vn 0.382684 0.923879 0.000000
vn 0.382684 0.923879 0.000000
vn 0.382684 0.923880 0.000000
vn 0.382684 0.923880 0.000000
vn -0.382683 0.923880 -0.000001
vn -0.382683 0.923880 -0.000001
vn -0.382683 0.923880 -0.000001
vn -0.382683 0.923880 -0.000001
vn -0.923880 0.382683 -0.000000
vn -0.923880 0.382683 -0.000000
vn -0.923880 0.382683 -0.000000
vn -0.923880 0.382683 -0.000000
vn -0.923880 -0.382683 -0.000003
vn -0.923880 -0.382683 -0.000003
vn -0.923880 -0.382683 -0.000003
vn -0.923880 -0.382683 -0.000003
vn -0.382682 -0.923880 -0.000005
vn -0.382682 -0.923880 -0.000005
vn -0.382682 -0.923880 -0.000005
vn -0.382682 -0.923880 -0.000005
vn 0.382683 -0.923880 -0.000002
vn 0.382683 -0.923880 -0.000002
vn 0.382683 -0.923880 -0.000002
vn 0.382683 -0.923880 -0.000002
vn -0.000000 -0.000000 1.000000
vn 0.000000 -0.000000 1.000000
vn 0.000000 -0.000000 1.000000
vn 0.000000 -0.000000 1.000000
vn 0.000000 -0.000000 -1.000000
vn 0.000000 0.000000 -1.000000
vn 0.000000 0.000000 -1.000000
vn 0.000000 -0.000000 -1.000000
vn 0.000000 -0.000001 1.000000
vn 0.000000 -0.000000 1.000000
vn 0.000000 -0.000000 1.000000
vn 0.000000 -0.000000 1.000000
vn 0.000000 0.000000 1.000000
vn -0.000000 0.000000 1.000000
vn -0.000000 -0.000000 1.000000
vn 0.000000 -0.000000 1.000000
vn 0.000000 -0.000000 1.000000
vn 0.000001 0.000001 1.000000
vn 0.000000 0.000000 1.000000
vn 0.000000 -0.000000 1.000000
vn 0.000000 -0.000000 -1.000000
vn 0.000000 0.000000 -1.000000
vn 0.000000 -0.000000 -1.000000
vn 0.000000 0.000000 -1.000000
vn 0.000000 -0.000000 -1.000000
vn 0.000000 -0.000000 -1.000000
vn 0.000000 -0.000000 -1.000000
vn 0.000000 -0.000000 -1.000000
vn 0.000000 0.000000 -1.000000
vn 0.000000 0.000000 -1.000000
vn 0.000000 -0.000000 -1.000000
vn 0.000000 -0.000000 -1.000000
s off
f 1/1/1 2/2/2 10/3/3 9/4/4
f 2/2/5 3/5/6 11/6/7 10/3/8
f 3/5/9 4/7/10 12/8/11 11/6/12
f 4/7/13 5/9/14 13/10/15 12/8/16
f 5/9/17 6/11/18 14/12/19 13/10/20
f 6/11/21 7/13/22 15/14/23 14/12/24
f 7/13/25 8/15/26 16/16/27 15/14/28
f 8/15/29 1/1/30 9/4/31 16/16/32
f 6/11/33 17/17/34 8/15/35 7/13/36
f 12/8/37 18/18/38 10/3/39 11/6/40
f 1/1/41 8/15/42 17/17/43 2/2/44
f 4/7/45 17/17/46 6/11/47 5/9/48
f 2/2/49 17/17/50 4/7/51 3/5/52
f 9/4/53 10/3/54 18/18/55 16/16/56
f 14/12/57 18/18/58 12/8/59 13/10/60
f 16/16/61 18/18/62 14/12/63 15/14/64
f 19/19/65 20/20/66 21/21/67 22/22/68
f 21/21/69 23/23/70 78/24/71 79/25/72
f 21/21/73 20/20/74 24/26/75 23/23/76
f 22/22/77 21/21/78 79/25/79 81/27/80
f 25/28/81 26/29/82 27/30/83 28/31/84
f 36/32/85 32/33/86 28/31/87 27/30/88
f 25/28/89 28/31/90 32/33/91 31/34/92
f 31/34/93 32/33/94 78/24/95 77/35/96
f 30/36/97 38/37/98 36/32/99 27/30/100
f 34/38/101 25/28/102 31/34/103 40/39/104
f 30/36/105 29/40/106 37/41/107 38/37/108
f 30/36/109 27/30/110 26/29/111 29/40/112
f 33/42/113 26/29/114 25/28/115 34/38/116
f 33/42/117 34/38/118 40/39/119 39/43/120
f 29/40/121 35/44/122 42/45/123 37/41/124
f 19/19/125 22/22/126 81/27/127 80/46/128
f 35/44/129 33/42/130 39/43/131 42/45/132
f 29/40/133 26/29/134 33/42/135 35/44/136
f 37/41/137 42/45/138 72/47/139 73/48/140
f 43/49/141 41/50/142 70/51/143 69/52/144
f 39/43/145 40/39/146 70/51/147 71/53/148
f 42/45/149 39/43/150 71/53/151 72/47/152
f 43/49/153 46/54/154 44/55/155 41/50/156
f 44/55/157 46/54/158 47/56/159 45/57/160
f 19/58/161 49/59/162 48/60/163 20/61/164
f 48/60/165 50/62/166 24/63/167 20/61/168
f 51/64/169 54/65/170 53/66/171 52/67/172
f 51/64/173 31/68/174 57/69/175 54/65/176
f 61/70/177 57/69/178 83/71/179 82/72/180
f 56/73/181 55/74/182 52/67/183 53/66/184
f 58/75/185 59/76/186 51/64/187 52/67/188
f 57/69/189 31/68/190 77/77/191 83/71/192
f 59/76/193 64/78/194 31/68/195 51/64/196
f 55/74/197 60/79/198 58/75/199 52/67/200
f 19/58/201 80/80/202 84/81/203 49/59/204
f 53/66/205 61/70/206 62/82/207 56/73/208
f 58/75/209 63/83/210 64/78/211 59/76/212
f 60/79/213 66/84/214 63/83/215 58/75/216
f 55/74/217 37/85/218 66/84/219 60/79/220
f 62/82/221 61/70/222 82/72/223 84/81/224
f 54/65/225 57/69/226 61/70/227 53/66/228
f 56/73/229 62/82/230 37/85/231 55/74/232
f 43/86/233 69/87/234 76/88/235 65/89/236
f 67/90/237 65/89/238 76/88/239 74/91/240
f 68/92/241 67/90/242 74/91/243 75/93/244
f 43/86/245 65/89/246 67/90/247 46/94/248
f 37/85/249 73/95/250 75/93/251 66/84/252
f 67/90/253 68/92/254 47/96/255 46/94/256
f 73/48/257 72/47/258 45/57/259 47/56/260
f 69/52/261 70/51/262 40/39/263 31/34/264
f 71/53/265 70/51/266 41/50/267 44/55/268
f 72/47/269 71/53/270 44/55/271 45/57/272
f 76/88/273 69/87/274 31/68/275 64/78/276
f 74/91/277 76/88/278 64/78/279 63/83/280
f 75/93/281 74/91/282 63/83/283 66/84/284
f 75/93/285 73/95/286 47/96/287 68/92/288
f 79/25/289 78/24/290 32/33/291 36/32/292
f 81/27/293 79/25/294 36/32/295 38/37/296
f 77/35/297 78/24/298 23/23/299 24/26/300
f 80/46/301 81/27/302 38/37/303 37/41/304
f 82/72/305 83/71/306 50/62/307 48/60/308
f 83/71/309 77/77/310 24/63/311 50/62/312
f 84/81/313 80/80/314 37/85/315 62/82/316
f 84/81/317 82/72/318 48/60/319 49/59/320
f 85/97/321 93/98/322 94/99/323 86/100/324
f 86/100/325 94/99/326 95/101/327 87/102/328
f 87/102/329 95/101/330 96/103/331 88/104/332
f 88/104/333 96/103/334 97/105/335 89/106/336
f 89/106/337 97/105/338 98/107/339 90/108/340
f 90/108/341 98/107/342 99/109/343 91/110/344
f 91/110/345 99/109/346 100/111/347 92/112/348
f 92/112/349 100/111/350 93/98/351 85/97/352
f 90/108/353 91/110/354 92/112/355 101/113/356
f 96/103/357 95/101/358 94/99/359 102/114/360
f 85/97/361 86/100/362 101/113/363 92/112/364
f 88/104/365 89/106/366 90/108/367 101/113/368
f 86/100/369 87/102/370 88/104/371 101/113/372
f 93/98/373 100/111/374 102/114/375 94/99/376
f 98/107/377 97/105/378 96/103/379 102/114/380
f 100/111/381 99/109/382 98/107/383 102/114/384
