# This file uses centimeters as units for non-parametric coordinates.

v 0.000000 3.064523 0.000000
v 3.064523 -0.000000 0.000000
v 0.000000 -0.000000 -3.064523
v -3.064523 -0.000000 0.000000
v 0.000000 -0.000000 3.064523
v 0.000000 -3.064523 0.000000
v 2.166945 2.166945 0.000000
v 0.000000 2.166945 -2.166945
v -2.166945 2.166945 0.000000
v 0.000000 2.166945 2.166945
v 2.166945 -2.166945 0.000000
v 0.000000 -2.166945 -2.166945
v -2.166945 -2.166945 0.000000
v 0.000000 -2.166945 2.166945
v 2.166945 -0.000000 -2.166945
v -2.166945 -0.000000 -2.166945
v -2.166945 -0.000000 2.166945
v 2.166945 -0.000000 2.166945
vt 0.220305 0.469518
vt 0.220305 0.469518
vt 0.220305 0.469518
vt 0.220305 0.469518
vt 0.220305 0.469518
vt 0.220305 0.469518
vt 0.220305 0.469518
vt 0.220305 0.469518
vt 0.220305 0.469518
vt 0.220305 0.469518
vt 0.220305 0.469518
vt 0.220305 0.469518
vt 0.220305 0.469518
vt 0.220305 0.469518
vt 0.220305 0.469518
vt 0.220305 0.469518
vt 0.220305 0.469518
vt 0.220305 0.469518
vt 0.220305 0.469518
vt 0.220305 0.469518
vt 0.220305 0.469518
vt 0.220305 0.469518
vt 0.220305 0.469518
vt 0.220305 0.469518
vt 0.220305 0.469518
vt 0.220305 0.469518
vt 0.220305 0.469518
vt 0.220305 0.469518
vt 0.220305 0.469518
vt 0.220305 0.469518
vt 0.220305 0.469518
vt 0.220305 0.469518
vn 0.357407 0.862856 -0.357407
vn 0.357407 0.862856 -0.357407
vn 0.357407 0.862856 -0.357407
vn 0.862856 0.357407 -0.357407
vn 0.862856 0.357407 -0.357407
vn 0.862856 0.357407 -0.357407
vn 0.577350 0.577350 -0.577350
vn 0.577350 0.577350 -0.577350
vn 0.577350 0.577350 -0.577350
vn 0.357407 0.357407 -0.862856
vn 0.357407 0.357407 -0.862856
vn 0.357407 0.357407 -0.862856
vn -0.357407 0.862856 -0.357407
vn -0.357407 0.862856 -0.357407
vn -0.357407 0.862856 -0.357407
vn -0.357407 0.357407 -0.862856
vn -0.357407 0.357407 -0.862856
vn -0.357407 0.357407 -0.862856
vn -0.577350 0.577350 -0.577350
vn -0.577350 0.577350 -0.577350
vn -0.577350 0.577350 -0.577350
vn -0.862856 0.357407 -0.357407
vn -0.862856 0.357407 -0.357407
vn -0.862856 0.357407 -0.357407
vn -0.357407 0.862856 0.357407
vn -0.357407 0.862856 0.357407
vn -0.357407 0.862856 0.357407
vn -0.862856 0.357407 0.357407
vn -0.862856 0.357407 0.357407
vn -0.862856 0.357407 0.357407
vn -0.577350 0.577350 0.577350
vn -0.577350 0.577350 0.577350
vn -0.577350 0.577350 0.577350
vn -0.357407 0.357407 0.862856
vn -0.357407 0.357407 0.862856
vn -0.357407 0.357407 0.862856
vn 0.357407 0.862856 0.357407
vn 0.357407 0.862856 0.357407
vn 0.357407 0.862856 0.357407
vn 0.357407 0.357407 0.862856
vn 0.357407 0.357407 0.862856
vn 0.357407 0.357407 0.862856
vn 0.577350 0.577350 0.577350
vn 0.577350 0.577350 0.577350
vn 0.577350 0.577350 0.577350
vn 0.862856 0.357407 0.357407
vn 0.862856 0.357407 0.357407
vn 0.862856 0.357407 0.357407
vn 0.357407 -0.862856 -0.357407
vn 0.357407 -0.862856 -0.357407
vn 0.357407 -0.862856 -0.357407
vn 0.357407 -0.357407 -0.862856
vn 0.357407 -0.357407 -0.862856
vn 0.357407 -0.357407 -0.862856
vn 0.577350 -0.577350 -0.577350
vn 0.577350 -0.577350 -0.577350
vn 0.577350 -0.577350 -0.577350
vn 0.862856 -0.357407 -0.357407
vn 0.862856 -0.357407 -0.357407
vn 0.862856 -0.357407 -0.357407
vn -0.357407 -0.862856 -0.357407
vn -0.357407 -0.862856 -0.357407
vn -0.357407 -0.862856 -0.357407
vn -0.862856 -0.357407 -0.357407
vn -0.862856 -0.357407 -0.357407
vn -0.862856 -0.357407 -0.357407
vn -0.577350 -0.577350 -0.577350
vn -0.577350 -0.577350 -0.577350
vn -0.577350 -0.577350 -0.577350
vn -0.357407 -0.357407 -0.862856
vn -0.357407 -0.357407 -0.862856
vn -0.357407 -0.357407 -0.862856
vn -0.357407 -0.862856 0.357407
vn -0.357407 -0.862856 0.357407
vn -0.357407 -0.862856 0.357407
vn -0.357407 -0.357407 0.862856
vn -0.357407 -0.357407 0.862856
vn -0.357407 -0.357407 0.862856
vn -0.577350 -0.577350 0.577350
vn -0.577350 -0.577350 0.577350
vn -0.577350 -0.577350 0.577350
vn -0.862856 -0.357407 0.357407
vn -0.862856 -0.357407 0.357407
vn -0.862856 -0.357407 0.357407
vn 0.357407 -0.862856 0.357407
vn 0.357407 -0.862856 0.357407
vn 0.357407 -0.862856 0.357407
vn 0.862856 -0.357407 0.357407
vn 0.862856 -0.357407 0.357407
vn 0.862856 -0.357407 0.357407
vn 0.577350 -0.577350 0.577350
vn 0.577350 -0.577350 0.577350
vn 0.577350 -0.577350 0.577350
vn 0.357407 -0.357407 0.862856
vn 0.357407 -0.357407 0.862856
vn 0.357407 -0.357407 0.862856
s off
f 1/19/1 7/7/2 8/8/3
f 7/7/4 2/2/5 15/15/6
f 7/7/7 15/15/8 8/8/9
f 8/8/10 15/15/11 3/3/12
f 1/20/13 8/8/14 9/9/15
f 8/8/16 3/3/17 16/16/18
f 8/8/19 16/16/20 9/9/21
f 9/9/22 16/16/23 4/4/24
f 1/21/25 9/22/26 10/10/27
f 9/23/28 4/24/29 17/17/30
f 9/25/31 17/17/32 10/10/33
f 10/10/34 17/17/35 5/5/36
f 1/1/37 10/10/38 7/7/39
f 10/10/40 5/5/41 18/18/42
f 10/10/43 18/18/44 7/7/45
f 7/7/46 18/18/47 2/2/48
f 6/26/49 12/12/50 11/11/51
f 12/12/52 3/3/53 15/15/54
f 12/12/55 15/15/56 11/11/57
f 11/11/58 15/15/59 2/2/60
f 6/27/61 13/13/62 12/12/63
f 13/13/64 4/4/65 16/16/66
f 13/13/67 16/16/68 12/12/69
f 12/12/70 16/16/71 3/3/72
f 6/28/73 14/14/74 13/29/75
f 14/14/76 5/5/77 17/17/78
f 14/14/79 17/17/80 13/30/81
f 13/31/82 17/17/83 4/32/84
f 6/6/85 11/11/86 14/14/87
f 11/11/88 2/2/89 18/18/90
f 11/11/91 18/18/92 14/14/93
f 14/14/94 18/18/95 5/5/96
