# This file uses centimeters as units for non-parametric coordinates.

v -11.555021 -11.554967 0.000000
v 0.000000 -16.341179 0.000000
v 11.555021 -11.554967 0.000000
v 16.341217 0.000000 0.000000
v 11.555021 11.554967 0.000000
v 0.000000 16.341179 0.000000
v -11.555021 11.554949 0.000000
v -16.341217 0.000000 0.000000
v -11.555021 -11.554967 4.368919
v 0.000000 -16.341179 4.368919
v 11.555021 -11.554967 4.368919
v 16.341217 0.000000 4.368919
v 11.555021 11.554967 4.368919
v 0.000000 16.341179 4.368919
v -11.555021 11.554949 4.368919
v -16.341217 0.000000 4.368919
v 0.000000 0.000000 0.000000
v -9.299229 -9.299284 4.368919
v 0.000000 -13.151193 4.368919
v 9.299376 -9.299284 4.368919
v 13.151194 0.000000 4.368919
v 9.299376 9.299284 4.368919
v 0.000000 13.151195 4.368919
v -9.299229 9.299284 4.368919
v -13.151194 0.000000 4.368919
v -8.509340 -8.509466 6.372559
v 0.000000 -12.034214 6.372560
v 8.509483 -8.509466 6.372559
v 12.034323 0.000000 6.372560
v 8.509483 8.509466 6.372559
v 0.000000 12.034213 6.372560
v -8.509340 8.509466 6.372559
v -12.034178 0.000000 6.372560
v -7.121920 -7.121882 6.372560
v 0.000000 -10.071856 6.372559
v 7.121920 -7.121882 6.372560
v 10.071856 0.000000 6.372560
v 7.121920 7.121882 6.372560
v 0.000000 10.071856 6.372559
v -7.121920 7.121882 6.372560
v -10.071856 0.000000 6.372560
v -6.342329 -6.342419 7.715005
v 0.000000 -8.969528 7.715004
v 6.342474 -6.342419 7.715005
v 8.969494 0.000000 7.715005
v 6.342474 6.342420 7.715004
v 0.000000 8.969528 7.715004
v -6.342329 6.342420 7.715004
v -8.969492 0.000000 7.715005
v -4.780247 2.219289 7.715005
v -3.530931 1.701781 7.715005
v -2.281614 2.219289 7.715005
v -1.764160 3.468660 7.715004
v -2.281614 4.718032 7.715004
v -3.530931 5.235540 7.715005
v -4.780247 4.718032 7.715004
v -5.297846 3.468660 7.715004
v -4.517677 2.481987 9.098291
v -3.530931 2.073298 9.098291
v -3.530931 3.468661 9.098291
v -2.544331 2.481987 9.098291
v -2.135675 3.468661 9.098291
v -2.544331 4.455334 9.098291
v -3.530931 4.864024 9.098291
v -4.517677 4.455334 9.098291
v -4.926476 3.468661 9.098291
vt 0.101340 0.377100
vt 0.101340 0.377100
vt 0.101340 0.377100
vt 0.101340 0.377100
vt 0.101340 0.377100
vt 0.101340 0.377100
vt 0.101340 0.377100
vt 0.101340 0.377100
vt 0.101340 0.377100
vt 0.101340 0.377100
vt 0.101340 0.377100
vt 0.101340 0.377100
vt 0.101340 0.377100
vt 0.101340 0.377100
vt 0.101340 0.377100
vt 0.101340 0.377100
vt 0.101340 0.377100
vt 0.101340 0.377100
vt 0.101340 0.377100
vt 0.101340 0.377100
vt 0.101340 0.377100
vt 0.101340 0.377100
vt 0.101340 0.377100
vt 0.101340 0.377100
vt 0.101340 0.377100
vt 0.101340 0.377100
vt 0.101340 0.377100
vt 0.101340 0.377100
vt 0.101340 0.377100
vt 0.101340 0.377100
vt 0.101340 0.377100
vt 0.101340 0.377100
vt 0.101340 0.377100
vt 0.101340 0.377100
vt 0.101340 0.377100
vt 0.103953 0.207093
vt 0.101340 0.308108
vt 0.101340 0.308108
vt 0.101340 0.308108
vt 0.101340 0.308108
vt 0.101340 0.308108
vt 0.101340 0.308108
vt 0.101340 0.308108
vt 0.101340 0.308108
vt 0.101340 0.377100
vt 0.101340 0.377100
vt 0.101340 0.377100
vt 0.101340 0.377100
vt 0.101340 0.377100
vt 0.101340 0.377100
vt 0.101340 0.377100
vt 0.101340 0.377100
vt 0.101340 0.308108
vt 0.101340 0.308108
vt 0.101340 0.308108
vt 0.101340 0.308108
vt 0.101340 0.308108
vt 0.101340 0.308108
vt 0.101340 0.308108
vt 0.101340 0.308108
vt 0.101340 0.377100
vt 0.101340 0.308108
vt 0.101340 0.308108
vt 0.101340 0.308108
vt 0.101340 0.308108
vt 0.101340 0.308108
vt 0.101340 0.308108
vt 0.101340 0.308108
vt 0.101340 0.308108
vt 0.101340 0.377100
vt 0.101340 0.308108
vt 0.101340 0.308108
vt 0.101340 0.308108
vt 0.101340 0.377100
vt 0.101340 0.377100
vt 0.101340 0.308108
vt 0.101340 0.308108
vt 0.101340 0.377100
vt 0.101340 0.377100
vt 0.101340 0.308108
vt 0.101340 0.308108
vt 0.101340 0.377100
vt 0.101340 0.377100
vt 0.101340 0.308108
vt 0.101340 0.308108
vt 0.101340 0.377100
vt 0.101340 0.377100
vt 0.101340 0.308108
vt 0.101340 0.308108
vt 0.101340 0.377100
vt 0.101340 0.377100
vt 0.101340 0.308108
vt 0.101340 0.308108
vt 0.101340 0.377100
vt 0.101340 0.377100
vt 0.101340 0.308108
vt 0.101340 0.377100
vt 0.101340 0.308108
vt 0.101340 0.377100
vt 0.101340 0.308108
vt 0.101340 0.308108
vt 0.101340 0.308108
vt 0.101340 0.308108
vt 0.101340 0.308108
vt 0.101340 0.308108
vt 0.101340 0.308108
vt 0.101340 0.377100
vt 0.101340 0.308108
vt 0.101340 0.308108
vt 0.101340 0.308108
vt 0.101340 0.377100
vt 0.101340 0.308108
vt 0.101340 0.308108
vt 0.101340 0.308108
vt 0.101340 0.377100
vt 0.101340 0.308108
vt 0.101340 0.308108
vt 0.101340 0.308108
vt 0.101340 0.377100
vt 0.101340 0.308108
vt 0.101340 0.308108
vt 0.101340 0.308108
vt 0.101340 0.377100
vt 0.101340 0.308108
vt 0.101340 0.308108
vt 0.101340 0.308108
vt 0.101340 0.377100
vt 0.101340 0.308108
vt 0.101340 0.377100
vt 0.101340 0.308108
vt 0.101340 0.377100
vt 0.101340 0.308108
vt 0.101340 0.377100
vt 0.101340 0.377100
vt 0.101340 0.377100
vt 0.101340 0.377100
vt 0.101340 0.377100
vt 0.101340 0.377100
vt 0.101340 0.377100
vt 0.101340 0.377100
vt 0.103953 0.207093
vt 0.103953 0.207093
vt 0.103953 0.207093
vt 0.103953 0.207093
vt 0.103953 0.207093
vt 0.103953 0.207093
vt 0.103953 0.207093
vt 0.103953 0.207093
vt 0.103953 0.207093
vt 0.103953 0.207093
vt 0.103953 0.207093
vt 0.103953 0.207093
vt 0.103953 0.207093
vt 0.103953 0.207093
vt 0.103953 0.207093
vt 0.103953 0.207093
vn -0.382681 -0.923881 0.000000
vn -0.382681 -0.923881 0.000000
vn -0.382681 -0.923881 0.000000
vn -0.382681 -0.923881 0.000000
vn 0.382681 -0.923881 0.000000
vn 0.382681 -0.923881 0.000000
vn 0.382681 -0.923881 0.000000
vn 0.382681 -0.923881 0.000000
vn 0.923880 -0.382681 0.000000
vn 0.923880 -0.382681 0.000000
vn 0.923880 -0.382681 0.000000
vn 0.923880 -0.382681 0.000000
vn 0.923880 0.382681 -0.000000
vn 0.923880 0.382681 -0.000000
vn 0.923880 0.382681 -0.000000
vn 0.923880 0.382681 -0.000000
vn 0.382681 0.923881 -0.000000
vn 0.382681 0.923881 -0.000000
vn 0.382681 0.923881 -0.000000
vn 0.382681 0.923881 -0.000000
vn -0.382682 0.923880 -0.000000
vn -0.382682 0.923880 -0.000000
vn -0.382682 0.923880 -0.000000
vn -0.382682 0.923880 -0.000000
vn -0.923880 0.382682 -0.000000
vn -0.923880 0.382682 -0.000000
vn -0.923880 0.382682 -0.000000
vn -0.923880 0.382682 -0.000000
vn -0.923880 -0.382681 0.000000
vn -0.923880 -0.382681 0.000000
vn -0.923880 -0.382681 0.000000
vn -0.923880 -0.382681 0.000000
vn 0.000000 -0.000000 -1.000000
vn 0.000000 -0.000000 -1.000000
vn 0.000000 -0.000000 -1.000000
vn 0.000000 -0.000000 -1.000000
vn 0.000000 -0.000000 -1.000000
vn 0.000000 -0.000000 -1.000000
vn 0.000000 -0.000000 -1.000000
vn 0.000000 -0.000000 -1.000000
vn 0.000000 -0.000000 -1.000000
vn 0.000000 -0.000000 -1.000000
vn 0.000000 -0.000000 -1.000000
vn 0.000000 -0.000000 -1.000000
vn 0.000000 -0.000000 -1.000000
vn 0.000000 -0.000000 -1.000000
vn 0.000000 -0.000000 -1.000000
vn 0.000000 -0.000000 -1.000000
vn 0.000000 -0.000000 -1.000000
vn 0.000000 -0.000000 -1.000000
vn 0.000000 -0.000000 -1.000000
vn 0.000000 -0.000000 -1.000000
vn 0.000000 -0.000000 -1.000000
vn 0.000000 -0.000000 -1.000000
vn 0.000000 -0.000000 -1.000000
vn 0.000000 -0.000000 -1.000000
vn 0.000000 0.000000 1.000000
vn 0.000000 0.000000 1.000000
vn 0.000000 0.000000 1.000000
vn 0.000000 0.000000 1.000000
vn 0.000000 0.000000 1.000000
vn 0.000000 0.000000 1.000000
vn 0.000000 0.000000 1.000000
vn 0.000000 0.000001 1.000000
vn 0.000000 0.000000 1.000000
vn 0.000000 0.000001 1.000000
vn 0.000000 0.000001 1.000000
vn 0.000000 0.000000 1.000000
vn 0.000000 0.000001 1.000000
vn 0.000000 0.000000 1.000000
vn 0.000000 0.000000 1.000000
vn 0.000000 0.000000 1.000000
vn 0.000000 -0.000001 1.000000
vn 0.000000 0.000000 1.000000
vn 0.000000 -0.000001 1.000000
vn 0.000000 -0.000001 1.000000
vn 0.000000 0.000000 1.000000
vn 0.000000 -0.000001 1.000000
vn 0.000000 0.000000 1.000000
vn 0.000000 0.000000 1.000000
vn 0.000000 0.000000 1.000000
vn 0.000000 0.000000 1.000000
vn 0.000000 0.000000 1.000000
vn 0.000000 0.000000 1.000000
vn 0.000000 0.000000 1.000000
vn 0.000000 0.000000 1.000000
vn 0.000000 0.000000 1.000000
vn 0.000000 0.000000 1.000000
vn 0.000000 0.000000 1.000000
vn 0.000000 0.000000 1.000000
vn 0.000000 0.000000 1.000000
vn 0.000000 0.000000 1.000000
vn 0.000000 0.000000 1.000000
vn 0.000000 0.000000 1.000000
vn 0.000000 0.000000 1.000000
vn 0.000000 0.000000 1.000000
vn 0.000000 0.000000 1.000000
vn 0.000000 0.000000 1.000000
vn 0.000000 0.000000 1.000000
vn 0.000000 0.000000 1.000000
vn 0.000000 0.000000 1.000000
vn 0.000000 0.000000 1.000000
vn 0.000000 0.000000 1.000000
vn 0.000000 0.000000 1.000000
vn 0.000000 0.000000 1.000000
vn 0.000000 0.000000 1.000000
vn 0.000000 0.000000 1.000000
vn 0.000000 0.000000 1.000000
vn 0.000000 0.000000 1.000000
vn 0.000000 0.000000 1.000000
vn 0.000000 0.000000 1.000000
vn 0.000000 0.000000 1.000000
vn -0.340215 -0.821339 0.457881
vn -0.340215 -0.821339 0.457881
vn -0.340215 -0.821339 0.457882
vn -0.340215 -0.821339 0.457881
vn 0.340210 -0.821341 0.457882
vn 0.340210 -0.821341 0.457882
vn 0.340210 -0.821341 0.457882
vn 0.340210 -0.821341 0.457882
vn 0.821346 -0.340214 0.457871
vn 0.821346 -0.340214 0.457871
vn 0.821346 -0.340214 0.457871
vn 0.821346 -0.340214 0.457871
vn 0.821346 0.340214 0.457871
vn 0.821346 0.340214 0.457871
vn 0.821346 0.340214 0.457871
vn 0.821346 0.340214 0.457871
vn 0.340210 0.821341 0.457882
vn 0.340210 0.821341 0.457882
vn 0.340210 0.821341 0.457882
vn 0.340210 0.821341 0.457882
vn -0.340215 0.821339 0.457882
vn -0.340215 0.821339 0.457882
vn -0.340215 0.821339 0.457882
vn -0.340215 0.821339 0.457882
vn -0.821332 0.340215 0.457894
vn -0.821332 0.340215 0.457894
vn -0.821332 0.340215 0.457894
vn -0.821332 0.340215 0.457894
vn -0.821332 -0.340215 0.457895
vn -0.821332 -0.340215 0.457895
vn -0.821332 -0.340215 0.457895
vn -0.821332 -0.340215 0.457895
vn 0.000000 -0.000000 1.000000
vn 0.000000 -0.000000 1.000000
vn 0.000000 -0.000000 1.000000
vn 0.000000 -0.000000 1.000000
vn 0.000000 -0.000000 1.000000
vn 0.000000 -0.000000 1.000000
vn 0.000000 -0.000000 1.000000
vn 0.000000 -0.000000 1.000000
vn 0.000000 0.000000 1.000000
vn 0.000000 0.000000 1.000000
vn 0.000000 0.000000 1.000000
vn 0.000000 0.000000 1.000000
vn 0.000000 -0.000000 1.000000
vn 0.000000 -0.000000 1.000000
vn 0.000000 -0.000000 1.000000
vn 0.000000 -0.000000 1.000000
vn 0.000000 0.000000 1.000000
vn 0.000000 0.000000 1.000000
vn 0.000000 0.000000 1.000000
vn 0.000000 0.000000 1.000000
vn 0.000000 0.000000 1.000000
vn 0.000000 0.000000 1.000000
vn 0.000000 0.000000 1.000000
vn 0.000000 0.000000 1.000000
vn 0.000000 -0.000000 1.000000
vn 0.000000 -0.000000 1.000000
vn 0.000000 -0.000000 1.000000
vn 0.000000 -0.000000 1.000000
vn 0.000000 0.000000 1.000000
vn 0.000000 0.000000 1.000000
vn 0.000000 0.000000 1.000000
vn 0.000000 0.000000 1.000000
vn -0.304877 -0.736037 0.604400
vn -0.304877 -0.736037 0.604400
vn -0.304877 -0.736037 0.604400
vn -0.304877 -0.736037 0.604400
vn 0.304877 -0.736046 0.604389
vn 0.304877 -0.736046 0.604389
vn 0.304877 -0.736046 0.604389
vn 0.304877 -0.736046 0.604389
vn 0.736044 -0.304872 0.604394
vn 0.736044 -0.304872 0.604394
vn 0.736044 -0.304872 0.604394
vn 0.736044 -0.304872 0.604394
vn 0.736044 0.304872 0.604394
vn 0.736044 0.304872 0.604394
vn 0.736044 0.304872 0.604394
vn 0.736044 0.304872 0.604394
vn 0.304877 0.736046 0.604389
vn 0.304877 0.736046 0.604389
vn 0.304877 0.736046 0.604389
vn 0.304877 0.736046 0.604389
vn -0.304877 0.736037 0.604400
vn -0.304877 0.736037 0.604400
vn -0.304877 0.736037 0.604400
vn -0.304877 0.736037 0.604400
vn -0.736024 0.304871 0.604419
vn -0.736024 0.304871 0.604419
vn -0.736024 0.304871 0.604419
vn -0.736024 0.304871 0.604419
vn -0.736024 -0.304871 0.604419
vn -0.736024 -0.304871 0.604419
vn -0.736024 -0.304871 0.604419
vn -0.736024 -0.304871 0.604419
vn 0.000000 -0.000000 1.000000
vn 0.000000 -0.000000 1.000000
vn 0.000000 -0.000000 1.000000
vn 0.000000 -0.000000 1.000000
vn 0.000000 -0.000000 1.000000
vn 0.000000 -0.000000 1.000000
vn 0.000000 -0.000000 1.000000
vn 0.000000 -0.000000 1.000000
vn 0.000000 0.000000 1.000000
vn 0.000000 0.000000 1.000000
vn 0.000000 0.000000 1.000000
vn 0.000000 0.000000 1.000000
vn 0.000000 0.000000 1.000000
vn 0.000000 0.000000 1.000000
vn 0.000000 0.000000 1.000000
vn 0.000000 0.000000 1.000000
vn 0.000000 0.000000 1.000000
vn 0.000000 0.000000 1.000000
vn 0.000000 0.000000 1.000000
vn 0.000000 0.000000 1.000000
vn 0.000000 0.000000 1.000000
vn 0.000000 0.000000 1.000000
vn 0.000000 0.000000 1.000000
vn 0.000000 0.000000 1.000000
vn 0.000000 0.000000 1.000000
vn 0.000000 0.000000 1.000000
vn 0.000000 0.000000 1.000000
vn 0.000000 0.000000 1.000000
vn 0.000000 -0.000000 1.000000
vn 0.000000 -0.000000 1.000000
vn 0.000000 -0.000000 1.000000
vn 0.000000 -0.000000 1.000000
vn -0.371419 -0.896693 0.240810
vn -0.371419 -0.896693 0.240810
vn -0.371419 -0.896693 0.240810
vn -0.371419 -0.896693 0.240810
vn 0.371438 -0.896680 0.240829
vn 0.371438 -0.896680 0.240829
vn 0.371438 -0.896680 0.240829
vn 0.371438 -0.896680 0.240829
vn 0.896700 -0.371388 0.240832
vn 0.896700 -0.371388 0.240832
vn 0.896700 -0.371388 0.240832
vn 0.896700 -0.371388 0.240832
vn 0.896700 0.371388 0.240832
vn 0.896700 0.371388 0.240832
vn 0.896700 0.371388 0.240832
vn 0.896700 0.371388 0.240832
vn 0.371437 0.896680 0.240829
vn 0.371437 0.896680 0.240829
vn 0.371437 0.896680 0.240829
vn 0.371437 0.896680 0.240829
vn -0.371419 0.896693 0.240810
vn -0.371419 0.896693 0.240810
vn -0.371419 0.896693 0.240810
vn -0.371419 0.896693 0.240810
vn -0.896679 0.371496 0.240743
vn -0.896679 0.371496 0.240743
vn -0.896679 0.371496 0.240743
vn -0.896679 0.371496 0.240743
vn -0.896679 -0.371496 0.240743
vn -0.896679 -0.371496 0.240743
vn -0.896679 -0.371496 0.240743
vn -0.896679 -0.371496 0.240743
s off
f 1/9/1 2/10/2 10/19/3 9/18/4
f 2/10/5 3/11/6 11/20/7 10/19/8
f 3/11/9 4/12/10 12/21/11 11/20/12
f 4/12/13 5/13/14 13/22/15 12/21/16
f 5/13/17 6/14/18 14/23/19 13/22/20
f 6/14/21 7/15/22 15/24/23 14/23/24
f 7/15/25 8/16/26 16/25/27 15/24/28
f 8/16/29 1/17/30 9/26/31 16/25/32
f 2/2/33 1/1/34 17/35/35
f 3/3/36 2/2/37 17/35/38
f 4/4/39 3/3/40 17/35/41
f 5/5/42 4/4/43 17/35/44
f 6/6/45 5/5/46 17/35/47
f 7/7/48 6/6/49 17/35/50
f 8/8/51 7/7/52 17/35/53
f 1/1/54 8/8/55 17/35/56
f 58/36/57 59/141/58 60/142/59
f 59/141/60 61/143/61 60/142/62
f 61/143/63 62/144/64 60/142/65
f 62/144/66 63/145/67 60/142/68
f 63/145/69 64/146/70 60/142/71
f 64/146/72 65/147/73 60/142/74
f 65/147/75 66/148/76 60/142/77
f 66/148/78 58/36/79 60/142/80
f 9/33/81 10/32/82 19/129/83 18/131/84
f 10/32/85 11/31/86 20/127/87 19/129/88
f 11/31/89 12/30/90 21/123/91 20/127/92
f 12/30/93 13/29/94 22/119/95 21/123/96
f 13/29/97 14/28/98 23/115/99 22/119/100
f 14/28/101 15/27/102 24/111/103 23/115/104
f 15/27/105 16/34/106 25/107/107 24/111/108
f 16/34/109 9/33/110 18/131/111 25/107/112
f 18/37/113 19/130/114 27/126/115 26/103/116
f 19/38/117 20/128/118 28/122/119 27/125/120
f 20/39/121 21/124/122 29/118/123 28/121/124
f 21/40/125 22/120/126 30/114/127 29/117/128
f 22/41/129 23/116/130 31/110/131 30/113/132
f 23/42/133 24/112/134 32/106/135 31/109/136
f 24/43/137 25/108/138 33/102/139 32/105/140
f 25/44/141 18/132/142 26/104/143 33/101/144
f 26/45/145 27/46/146 35/97/147 34/99/148
f 27/46/149 28/47/150 36/95/151 35/97/152
f 28/47/153 29/48/154 37/91/155 36/95/156
f 29/48/157 30/49/158 38/87/159 37/91/160
f 30/49/161 31/50/162 39/83/163 38/87/164
f 31/50/165 32/51/166 40/79/167 39/83/168
f 32/51/169 33/52/170 41/75/171 40/79/172
f 33/52/173 26/45/174 34/99/175 41/75/176
f 34/53/177 35/98/178 43/93/179 42/71/180
f 35/54/181 36/96/182 44/89/183 43/62/184
f 36/55/185 37/92/186 45/85/187 44/63/188
f 37/56/189 38/88/190 46/81/191 45/64/192
f 38/57/193 39/84/194 47/77/195 46/65/196
f 39/58/197 40/80/198 48/73/199 47/66/200
f 40/59/201 41/76/202 49/69/203 48/67/204
f 41/60/205 34/100/206 42/72/207 49/68/208
f 42/61/209 43/94/210 51/134/211 50/133/212
f 43/94/213 44/90/214 52/135/215 51/134/216
f 44/90/217 45/86/218 53/136/219 52/135/220
f 45/86/221 46/82/222 54/137/223 53/136/224
f 46/82/225 47/78/226 55/138/227 54/137/228
f 47/78/229 48/74/230 56/139/231 55/138/232
f 48/74/233 49/70/234 57/140/235 56/139/236
f 49/70/237 42/61/238 50/133/239 57/140/240
f 50/149/241 51/150/242 59/141/243 58/36/244
f 51/150/245 52/151/246 61/143/247 59/141/248
f 52/151/249 53/152/250 62/144/251 61/143/252
f 53/152/253 54/153/254 63/145/255 62/144/256
f 54/153/257 55/154/258 64/146/259 63/145/260
f 55/154/261 56/155/262 65/147/263 64/146/264
f 56/155/265 57/156/266 66/148/267 65/147/268
f 57/156/269 50/149/270 58/36/271 66/148/272
