# This file uses centimeters as units for non-parametric coordinates.

v -17.355560 -0.582144 4.177715
v 17.355560 -0.582144 4.177715
v -17.355560 43.963203 4.177715
v 15.208221 43.963203 4.177715
v -17.355560 43.963203 0.000000
v 17.355560 43.963203 0.000000
v -17.355560 -0.582144 0.000000
v 17.355560 -0.582144 0.000000
v -14.921753 1.856506 4.177715
v 14.921753 1.856506 4.177715
v 14.921753 41.524559 4.177715
v -14.921753 41.524559 4.177715
v -13.808716 3.090598 2.932016
v 13.808685 3.090598 2.932016
v 13.808685 40.290462 2.932016
v -13.808716 40.290462 2.932016
v 17.355560 40.686920 4.177715
v 17.355560 43.963203 1.304644
v -17.355560 5.043710 4.177715
v -17.355560 14.314888 4.177715
v -14.921753 10.237572 4.177715
v -17.355560 9.904079 2.998194
v -10.073608 43.963203 0.000000
v 2.798096 43.963203 0.000000
v -5.367493 43.963203 1.737759
v -5.456451 42.580338 0.000000
vt 0.026600 0.253248
vt 0.026122 0.253246
vt 0.026102 0.252445
vt 0.026621 0.252445
vt 0.026735 0.252348
vt 0.026020 0.252363
vt 0.026015 0.252351
vt 0.026711 0.252351
vt 0.026046 0.253286
vt 0.026679 0.253289
vt 0.026024 0.253345
vt 0.026699 0.253348
vt 0.026088 0.253288
vt 0.026634 0.253290
vt 0.026063 0.252417
vt 0.026659 0.252417
vt 0.141282 0.079839
vt 0.208503 0.079839
vt 0.208503 0.174991
vt 0.141282 0.174991
vt 0.025990 0.252421
vt 0.026006 0.252350
vt 0.026703 0.253221
vt 0.026711 0.253009
vt 0.026639 0.253106
vt 0.026704 0.253110
vt 0.026628 0.252351
vt 0.026423 0.252351
vt 0.026525 0.252354
vt 0.026554 0.252375
vn 0.000000 0.000000 1.000000
vn 0.000000 0.000000 1.000000
vn 0.000000 0.000000 1.000000
vn 0.000000 0.000000 1.000000
vn 0.000000 1.000000 0.000000
vn 0.000000 1.000000 0.000000
vn 0.000000 1.000000 0.000000
vn 0.000000 0.000000 -1.000000
vn 0.000000 0.000000 -1.000000
vn 0.000000 0.000000 -1.000000
vn 0.000000 0.000000 -1.000000
vn 0.000000 0.000000 -1.000000
vn 0.000000 -1.000000 0.000000
vn 0.000000 -1.000000 0.000000
vn 0.000000 -1.000000 0.000000
vn 0.000000 -1.000000 0.000000
vn 1.000000 0.000000 0.000000
vn 1.000000 0.000000 0.000000
vn 1.000000 0.000000 0.000000
vn 1.000000 0.000000 0.000000
vn 1.000000 0.000000 0.000000
vn -1.000000 0.000000 0.000000
vn -1.000000 0.000000 0.000000
vn -1.000000 0.000000 0.000000
vn 0.000000 0.000000 1.000000
vn 0.000000 0.000000 1.000000
vn 0.000000 0.000000 1.000000
vn 0.000000 0.000000 1.000000
vn 0.000000 0.000000 1.000000
vn 0.000000 0.000000 1.000000
vn 0.000000 0.000000 1.000000
vn -0.000000 0.000000 1.000000
vn -0.000000 0.000000 1.000000
vn -0.000000 0.000000 1.000000
vn -0.000000 0.000000 1.000000
vn 0.000000 0.710409 0.703789
vn 0.000000 0.710409 0.703789
vn 0.000000 0.710409 0.703789
vn 0.000000 0.710409 0.703789
vn -0.745689 0.000000 0.666294
vn -0.745689 0.000000 0.666294
vn -0.745689 0.000000 0.666294
vn -0.745689 0.000000 0.666294
vn 0.000000 -0.710408 0.703790
vn 0.000000 -0.710408 0.703790
vn 0.000000 -0.710408 0.703790
vn 0.000000 -0.710408 0.703790
vn 0.745698 0.000000 0.666284
vn 0.745698 0.000000 0.666284
vn 0.745698 0.000000 0.666284
vn 0.745698 0.000000 0.666284
vn 0.709205 0.464827 0.530060
vn 0.709205 0.464827 0.530060
vn 0.709205 0.464827 0.530060
vn 0.000000 0.000000 1.000000
vn 0.000000 0.000000 1.000000
vn 0.000000 0.000000 1.000000
vn 0.000000 0.000000 1.000000
vn -0.000000 0.000000 1.000000
vn -0.000000 0.000000 1.000000
vn -0.000000 0.000000 1.000000
vn -0.000000 0.000000 1.000000
vn -0.397188 -0.237087 0.886584
vn -0.397188 -0.237087 0.886584
vn -0.397188 -0.237087 0.886584
vn -1.000000 0.000000 0.000000
vn -1.000000 0.000000 0.000000
vn -1.000000 0.000000 0.000000
vn -1.000000 0.000000 0.000000
vn -1.000000 0.000000 0.000000
vn -1.000000 0.000000 0.000000
vn -1.000000 0.000000 0.000000
vn -1.000000 0.000000 0.000000
vn -0.449560 0.210661 0.868054
vn -0.449560 0.210661 0.868054
vn -0.449560 0.210661 0.868054
vn 0.745698 0.000000 0.666284
vn 0.745698 0.000000 0.666284
vn 0.745698 0.000000 0.666284
vn -0.000000 0.000000 1.000000
vn -0.000000 0.000000 1.000000
vn -0.000000 0.000000 1.000000
vn -0.000000 0.000000 1.000000
vn -0.130509 0.779032 -0.613251
vn -0.130509 0.779032 -0.613251
vn -0.130509 0.779032 -0.613251
vn 0.226561 0.756448 -0.613561
vn 0.226561 0.756448 -0.613561
vn 0.226561 0.756448 -0.613561
vn 0.000000 1.000000 0.000001
vn 0.000000 1.000000 0.000001
vn 0.000000 1.000000 0.000001
vn 0.000000 1.000000 0.000001
vn 0.000000 1.000000 0.000001
vn 0.000000 1.000000 0.000000
vn 0.000000 1.000000 0.000000
vn 0.000000 1.000000 0.000000
vn 0.000000 1.000000 0.000000
vn 0.000000 0.000000 -1.000000
vn 0.000000 0.000000 -1.000000
vn 0.000000 0.000000 -1.000000
vn 0.000000 0.000000 -1.000000
s off
f 13/17/1 14/18/2 15/19/3 16/20/4
f 3/5/5 4/6/6 25/29/7
f 7/10/8 26/30/9 24/28/10 6/7/11 8/9/12
f 7/10/13 8/9/14 2/11/15 1/12/16
f 2/11/17 8/9/18 6/7/19 18/22/20 17/21/21
f 7/10/22 22/26/23 5/8/24
f 1/12/25 2/11/26 10/13/27 9/14/28
f 11/15/29 17/21/30 4/6/31
f 3/5/32 20/24/33 21/25/34 12/16/35
f 9/14/36 10/13/37 14/2/38 13/1/39
f 10/13/40 11/15/41 15/3/42 14/2/43
f 11/15/44 12/16/45 16/4/46 15/3/47
f 12/16/48 21/25/49 13/1/50 16/4/51
f 17/21/52 18/22/53 4/6/54
f 4/6/55 3/5/56 12/16/57 11/15/58
f 21/25/59 19/23/60 1/12/61 9/14/62
f 21/25/63 20/24/64 22/26/65
f 7/10/66 1/12/67 19/23/68 22/26/69
f 5/8/70 22/26/71 20/24/72 3/5/73
f 21/25/74 22/26/75 19/23/76
f 13/1/77 21/25/78 9/14/79
f 2/11/80 17/21/81 11/15/82 10/13/83
f 26/30/84 25/29/85 24/28/86
f 23/27/87 25/29/88 26/30/89
f 25/29/90 4/6/91 18/22/92 6/7/93 24/28/94
f 3/5/95 25/29/96 23/27/97 5/8/98
f 5/8/99 23/27/100 26/30/101 7/10/102
