# This file uses centimeters as units for non-parametric coordinates.

v 66.953369 -48.712040 15.306763
v 68.330933 -48.712040 15.306763
v 66.953369 -47.339020 15.418701
v 68.330933 -47.339020 15.418701
v 66.728088 -47.074333 14.943237
v 68.556213 -47.074333 14.943237
v 66.728088 -48.896240 14.794800
v 68.556213 -48.896240 14.794800
v -74.533691 -49.813084 9.904785
v -74.533691 -50.202892 14.688354
v -74.533691 50.966682 18.117310
v -74.533691 50.576881 22.900879
v 74.533936 50.966682 18.117310
v 74.533936 50.576881 22.900879
v 74.533936 -49.813084 9.904785
v 74.533936 -50.202892 14.688354
v -77.492188 -47.809643 10.068115
v -77.492188 -48.199455 14.851563
v -77.492188 48.573448 22.737671
v -77.492188 48.963264 17.954102
v 77.492126 48.963264 17.954102
v 77.492126 48.573448 22.737671
v 77.492126 -48.199455 14.851563
v 77.492126 -47.809643 10.068115
v 72.916687 -45.374947 15.081787
v -72.916504 -45.374947 15.081787
v 72.916687 48.667595 22.745361
v -72.916504 48.667595 22.745361
v -75.233704 46.763550 22.590088
v -75.233704 -43.470917 15.236938
v 75.233948 -43.470917 15.236938
v 75.233948 46.763550 22.590088
v 71.083618 -43.802353 14.368408
v -71.083679 -43.802353 14.368408
v 71.083618 47.231255 21.786621
v -71.083679 47.231255 21.786621
v -73.342590 45.382133 21.636108
v -73.342590 -41.953224 14.519043
v 73.342773 -41.953224 14.519043
v 73.342773 45.382133 21.636108
v 41.358459 -49.146416 1.723877
v -41.358154 -49.146416 1.723877
v -41.358154 19.981575 7.357178
v 41.358459 19.981575 7.357178
v 30.228088 -41.039581 2.384521
v -30.227844 -41.039581 2.384521
v -30.227844 10.340187 6.571533
v 30.228088 10.340187 6.571533
v 0.000000 10.340187 6.571533
v 0.000000 -41.039581 2.384521
v 15.114258 10.340187 6.571533
v 15.114258 -41.039581 2.384521
v -15.113770 -41.039581 2.384521
v -15.113770 10.340187 6.571533
v -5.148376 6.945900 9.286133
v -5.148376 -38.129578 5.612915
v -9.965393 -38.129578 5.612915
v -9.965393 6.945900 9.286133
v 25.079651 -38.129578 5.612915
v 20.262695 -38.129578 5.612915
v 20.262695 6.945900 9.286133
v 25.079651 6.945900 9.286133
v 9.965759 6.945900 9.286133
v 9.965759 -38.129578 5.612915
v 5.148682 -38.129578 5.612915
v 5.148682 6.945900 9.286133
v -20.262268 -38.129578 5.612915
v -20.262268 6.945900 9.286133
v -25.079346 -38.129578 5.612915
v -25.079346 6.945900 9.286133
v -28.256592 -50.966682 3.622803
v -17.882996 -50.966682 3.622803
v -28.256592 23.710197 3.622803
v -17.882996 23.710197 3.622803
v -28.256592 23.710197 -1.144043
v -17.882996 23.710197 -1.144043
v -28.256592 -50.966682 -1.144043
v -17.882996 -50.966682 -1.144043
v 37.338501 -41.240822 3.966064
v 37.338501 -30.653194 3.966064
v -37.338440 -41.240822 3.966064
v -37.338440 -30.653194 3.966064
v -37.338440 -41.240822 0.000000
v -37.338440 -30.653194 0.000000
v 37.338501 -41.240822 0.000000
v 37.338501 -30.653194 0.000000
v 37.338501 5.897655 3.966064
v 37.338501 16.485283 3.966064
v -37.338440 5.897655 3.966064
v -37.338440 16.485283 3.966064
v -37.338440 5.897655 0.000000
v -37.338440 16.485283 0.000000
v 37.338501 5.897655 0.000000
v 37.338501 16.485283 0.000000
v 18.182129 -50.966682 3.622803
v 28.555725 -50.966682 3.622803
v 18.182129 23.710197 3.622803
v 28.555725 23.710197 3.622803
v 18.182129 23.710197 -1.144043
v 28.555725 23.710197 -1.144043
v 18.182129 -50.966682 -1.144043
v 28.555725 -50.966682 -1.144043
vt 0.015718 0.122724
vt 0.015718 0.122724
vt 0.015718 0.122724
vt 0.015718 0.122724
vt 0.078003 0.227312
vt 0.078003 0.227312
vt 0.078003 0.227312
vt 0.078003 0.227312
vt 0.078003 0.227311
vt 0.078003 0.227311
vt 0.078003 0.227311
vt 0.078003 0.227311
vt 0.079207 0.227403
vt 0.079207 0.227403
vt 0.079207 0.227403
vt 0.079207 0.227403
vt 0.079207 0.227403
vt 0.079207 0.227403
vt 0.079207 0.227403
vt 0.079207 0.227403
vt 0.079207 0.227403
vt 0.079207 0.227403
vt 0.079207 0.227403
vt 0.079207 0.227403
vt 0.015399 0.000000
vt 0.984599 0.000000
vt 0.984599 1.000000
vt 0.015399 1.000000
vt 0.076416 0.010979
vt 0.076416 0.010981
vt 0.076416 0.010981
vt 0.076416 0.010979
vt 0.079207 0.227403
vt 0.079207 0.227403
vt 0.000000 0.979687
vt 0.000000 0.020313
vt 1.000000 0.020313
vt 1.000000 0.979687
vt 0.079207 0.227403
vt 0.079207 0.227403
vt 0.079207 0.227403
vt 0.079207 0.227403
vt 0.079207 0.227403
vt 0.079207 0.227403
vt 0.079207 0.227403
vt 0.079207 0.227403
vt 0.079207 0.227403
vt 0.079207 0.227403
vt 0.079207 0.227403
vt 0.079207 0.227403
vt 0.079207 0.227403
vt 0.079207 0.227403
vt 0.079207 0.227403
vt 0.079207 0.227403
vt 0.079207 0.227403
vt 0.079207 0.227403
vt 0.079207 0.227403
vt 0.079207 0.227403
vt 0.079207 0.227403
vt 0.079207 0.227403
vt 0.079207 0.227403
vt 0.079207 0.227403
vt 0.079207 0.227403
vt 0.079207 0.227403
vt 0.079207 0.227403
vt 0.079207 0.227403
vt 0.079207 0.227403
vt 0.079207 0.227403
vt 0.079207 0.227403
vt 0.079207 0.227403
vt 0.079207 0.227403
vt 0.079207 0.227403
vt 0.079207 0.227403
vt 0.079207 0.227403
vt 0.079207 0.227403
vt 0.079207 0.227403
vt 0.079207 0.227403
vt 0.079207 0.227403
vt 0.076416 0.010979
vt 0.076416 0.010981
vt 0.076416 0.010981
vt 0.076416 0.010979
vt 0.079207 0.227403
vt 0.079207 0.227403
vt 0.076416 0.010981
vt 0.076416 0.010981
vt 0.076416 0.010979
vt 0.076416 0.010979
vt 0.076416 0.010979
vt 0.076416 0.010981
vt 0.076416 0.010981
vt 0.076416 0.010979
vt 0.079207 0.227403
vt 0.079207 0.227403
vt 0.079207 0.227403
vt 0.079207 0.227403
vt 0.079207 0.227403
vt 0.079207 0.227403
vt 0.079207 0.227403
vt 0.079207 0.227403
vt 0.079207 0.227403
vt 0.079207 0.227403
vt 0.079207 0.227403
vt 0.079207 0.227403
vt 0.079207 0.227403
vt 0.079207 0.227403
vt 0.079207 0.227403
vt 0.079207 0.227403
vt 0.080405 0.254516
vt 0.080405 0.254516
vt 0.080405 0.254516
vt 0.080405 0.254516
vt 0.080405 0.254516
vt 0.080405 0.254516
vt 0.080405 0.254516
vt 0.080405 0.254516
vt 0.080405 0.254516
vt 0.080405 0.254516
vt 0.080405 0.254516
vt 0.080405 0.254516
vt 0.080405 0.254516
vt 0.080405 0.254516
vt 0.080405 0.254516
vt 0.080405 0.254516
vt 0.080405 0.254516
vt 0.080405 0.254516
vt 0.080405 0.254516
vt 0.080405 0.254516
vt 0.080405 0.254516
vt 0.080405 0.254516
vt 0.080405 0.254516
vt 0.080405 0.254516
vt 0.080405 0.254516
vt 0.080405 0.254516
vt 0.080405 0.254516
vt 0.080405 0.254516
vt 0.080405 0.254516
vt 0.080405 0.254516
vt 0.080405 0.254516
vt 0.080405 0.254516
vt 0.080405 0.254516
vt 0.080405 0.254516
vt 0.080405 0.254516
vt 0.080405 0.254516
vt 0.080405 0.254516
vt 0.080405 0.254516
vt 0.080405 0.254516
vt 0.080405 0.254516
vt 0.080405 0.254516
vt 0.080405 0.254516
vt 0.080405 0.254516
vt 0.080405 0.254516
vt 0.080405 0.254516
vt 0.080405 0.254516
vt 0.080405 0.254516
vt 0.080405 0.254516
vt 0.080405 0.254516
vt 0.080405 0.254516
vt 0.080405 0.254516
vt 0.080405 0.254516
vt 0.080405 0.254516
vt 0.080405 0.254516
vt 0.080405 0.254516
vt 0.080405 0.254516
vn 0.000000 -0.081257 0.996693
vn 0.000000 -0.081257 0.996693
vn 0.000000 -0.081257 0.996693
vn 0.000000 -0.081257 0.996693
vn 0.000000 0.873735 0.486403
vn 0.000000 0.873735 0.486403
vn 0.000000 0.873735 0.486403
vn 0.000000 0.873735 0.486403
vn 0.000000 -0.940949 0.338548
vn 0.000000 -0.940949 0.338548
vn 0.000000 -0.940949 0.338548
vn 0.000000 -0.940949 0.338548
vn 0.910282 -0.033628 0.412620
vn 0.910282 -0.033628 0.412620
vn 0.910282 -0.033628 0.412620
vn 0.910282 -0.033628 0.412620
vn -0.910282 -0.033630 0.412620
vn -0.910282 -0.033630 0.412620
vn -0.910282 -0.033630 0.412620
vn -0.910282 -0.033630 0.412620
vn -1.000000 0.000000 0.000000
vn -1.000000 0.000000 0.000000
vn -1.000000 0.000000 0.000000
vn -1.000000 0.000000 0.000000
vn 0.000000 0.996696 0.081221
vn 0.000000 0.996696 0.081221
vn 0.000000 0.996696 0.081221
vn 0.000000 0.996696 0.081221
vn 1.000000 0.000000 0.000000
vn 1.000000 0.000000 0.000000
vn 1.000000 0.000000 0.000000
vn 1.000000 0.000000 0.000000
vn 0.000000 -0.081221 0.996696
vn 0.000000 -0.081221 0.996696
vn 0.000000 -0.081221 0.996696
vn 0.000000 -0.081221 0.996696
vn 0.000000 0.081221 -0.996696
vn 0.000000 0.081221 -0.996696
vn 0.000000 0.081221 -0.996696
vn 0.000000 0.081221 -0.996696
vn -0.561988 -0.824413 -0.067182
vn -0.561988 -0.824413 -0.067182
vn -0.561988 -0.824413 -0.067182
vn -0.561988 -0.824413 -0.067182
vn 0.000000 -0.081221 0.996696
vn 0.000000 -0.081221 0.996696
vn 0.000000 -0.081221 0.996696
vn 0.000000 -0.081221 0.996696
vn -0.561984 0.824415 0.067182
vn -0.561984 0.824415 0.067182
vn -0.561984 0.824415 0.067182
vn -0.561984 0.824415 0.067182
vn -0.000000 0.081221 -0.996696
vn -0.000000 0.081221 -0.996696
vn -0.000000 0.081221 -0.996696
vn -0.000000 0.081221 -0.996696
vn 0.562012 0.824396 0.067181
vn 0.562012 0.824396 0.067181
vn 0.562012 0.824396 0.067181
vn 0.562012 0.824396 0.067181
vn -0.000000 -0.081221 0.996696
vn -0.000000 -0.081221 0.996696
vn -0.000000 -0.081221 0.996696
vn -0.000000 -0.081221 0.996696
vn 0.562016 -0.824394 -0.067180
vn 0.562016 -0.824394 -0.067180
vn 0.562016 -0.824394 -0.067180
vn 0.562016 -0.824394 -0.067180
vn 0.000000 0.081221 -0.996696
vn 0.000000 0.081221 -0.996696
vn 0.000000 0.081221 -0.996696
vn 0.000000 0.081221 -0.996696
vn 0.000000 -0.081221 0.996696
vn 0.000000 -0.081221 0.996696
vn 0.000000 -0.081221 0.996696
vn 0.000000 -0.081221 0.996696
vn 0.000000 -0.081221 0.996696
vn 0.000000 -0.081221 0.996696
vn 0.000000 -0.081221 0.996696
vn 0.000000 -0.081221 0.996696
vn 0.000000 -0.081221 0.996696
vn 0.000000 -0.081221 0.996696
vn 0.000000 -0.081221 0.996696
vn 0.000000 -0.081221 0.996696
vn 0.000000 -0.081221 0.996696
vn 0.000000 -0.081221 0.996696
vn 0.000000 -0.081221 0.996696
vn 0.000000 -0.081221 0.996696
vn 0.000000 -0.081221 0.996696
vn 0.000000 -0.081221 0.996696
vn 0.000000 -0.081221 0.996696
vn 0.000000 -0.081221 0.996696
vn -0.000000 -0.081221 0.996696
vn -0.000000 -0.081221 0.996696
vn -0.000000 -0.081221 0.996696
vn -0.000000 -0.081221 0.996696
vn -0.000000 -0.081221 0.996696
vn -0.000000 -0.081221 0.996696
vn -0.000000 -0.081221 0.996696
vn -0.000000 -0.081221 0.996696
vn 0.000000 -0.081221 0.996696
vn 0.000000 -0.081221 0.996696
vn 0.000000 -0.081221 0.996696
vn 0.000000 -0.081221 0.996696
vn 0.000000 0.413164 0.910657
vn 0.000000 0.413164 0.910657
vn 0.000000 0.413164 0.910657
vn 0.000000 0.413164 0.910657
vn 0.000000 -0.555153 0.831749
vn 0.000000 -0.555153 0.831749
vn 0.000000 -0.555153 0.831749
vn 0.000000 -0.555153 0.831749
vn 0.215452 -0.337366 0.916387
vn 0.215452 -0.337366 0.916387
vn 0.215452 -0.337366 0.916387
vn 0.215452 -0.337366 0.916387
vn 0.405474 -0.074245 0.911086
vn 0.405474 -0.074245 0.911086
vn 0.405474 -0.074245 0.911086
vn 0.405474 -0.074245 0.911086
vn 0.215452 0.184545 0.958918
vn 0.215452 0.184545 0.958918
vn 0.215452 0.184545 0.958918
vn 0.215452 0.184545 0.958918
vn -0.215440 0.184548 0.958920
vn -0.215440 0.184548 0.958920
vn -0.215440 0.184548 0.958920
vn -0.215440 0.184548 0.958920
vn -0.405468 -0.074245 0.911089
vn -0.405468 -0.074245 0.911089
vn -0.405468 -0.074245 0.911089
vn -0.405468 -0.074245 0.911089
vn -0.215440 -0.337370 0.916388
vn -0.215440 -0.337370 0.916388
vn -0.215440 -0.337370 0.916388
vn -0.215440 -0.337370 0.916388
vn -0.240169 0.078844 -0.967524
vn -0.240169 0.078844 -0.967524
vn -0.240169 0.078844 -0.967524
vn -0.240169 0.078844 -0.967524
vn 0.000000 0.328051 -0.944660
vn 0.000000 0.328051 -0.944660
vn 0.000000 0.328051 -0.944660
vn 0.000000 0.328051 -0.944660
vn 0.240169 0.078844 -0.967524
vn 0.240169 0.078844 -0.967524
vn 0.240169 0.078844 -0.967524
vn 0.240169 0.078844 -0.967524
vn 0.000000 -0.996696 -0.081222
vn 0.000000 -0.996696 -0.081221
vn 0.000000 -0.996696 -0.081221
vn 0.000000 -0.996696 -0.081221
vn 0.000000 -0.996696 -0.081221
vn 0.000000 0.081221 -0.996696
vn 0.000000 0.081221 -0.996696
vn -0.000000 0.081221 -0.996696
vn -0.000000 0.081221 -0.996696
vn -0.000000 0.081221 -0.996696
vn -0.000000 0.081221 -0.996696
vn 0.000000 0.081221 -0.996696
vn 0.000000 0.081221 -0.996696
vn 0.000000 0.081221 -0.996696
vn -0.000000 0.081221 -0.996696
vn -0.000000 0.081221 -0.996696
vn -0.000000 0.081221 -0.996696
vn -0.000000 0.081221 -0.996696
vn 0.000000 0.081221 -0.996696
vn 0.000000 0.081221 -0.996696
vn 0.000000 0.081221 -0.996696
vn 0.000000 0.081221 -0.996696
vn 0.000000 0.081221 -0.996696
vn 0.000000 0.081221 -0.996696
vn 0.000000 0.081221 -0.996696
vn 0.000000 0.081221 -0.996696
vn 0.000000 0.081221 -0.996696
vn 0.000000 0.081221 -0.996696
vn 0.000000 0.081221 -0.996696
vn 0.000000 0.081221 -0.996696
vn 0.000000 0.081221 -0.996696
vn 0.000000 0.081221 -0.996696
vn 0.000000 0.081221 -0.996696
vn 0.000000 0.081221 -0.996696
vn 0.000000 0.081221 -0.996696
vn 0.000000 0.081221 -0.996696
vn 0.000000 0.081221 -0.996696
vn 0.000000 0.081221 -0.996696
vn 0.000000 0.081221 -0.996696
vn 0.000000 0.081221 -0.996696
vn 0.000000 0.081221 -0.996696
vn 0.000000 0.081221 -0.996696
vn 0.000000 0.081221 -0.996696
vn 0.000000 0.081221 -0.996696
vn 0.000000 0.081221 -0.996696
vn 0.000000 0.081221 -0.996696
vn 0.000000 0.081221 -0.996696
vn 0.000000 0.081221 -0.996696
vn 0.000000 0.081221 -0.996696
vn 0.000000 0.081221 -0.996696
vn 0.000000 0.081221 -0.996696
vn 0.000000 0.081221 -0.996696
vn 0.000000 0.081221 -0.996696
vn 0.000000 0.081221 -0.996696
vn -0.501120 0.070287 -0.862518
vn -0.501120 0.070287 -0.862518
vn -0.501120 0.070287 -0.862518
vn -0.501120 0.070287 -0.862518
vn 0.000000 0.742780 -0.669536
vn 0.000000 0.742780 -0.669536
vn 0.000000 0.742780 -0.669536
vn 0.000000 0.742780 -0.669536
vn 0.501118 0.070287 -0.862520
vn 0.501118 0.070287 -0.862520
vn 0.501118 0.070287 -0.862520
vn 0.501118 0.070287 -0.862520
vn 0.000000 -0.624577 -0.780964
vn 0.000000 -0.624577 -0.780964
vn 0.000000 -0.624577 -0.780964
vn 0.000000 -0.624577 -0.780964
vn 0.000000 0.742780 -0.669536
vn 0.000000 0.742780 -0.669536
vn 0.000000 0.742780 -0.669536
vn 0.000000 0.742780 -0.669536
vn 0.501118 0.070287 -0.862520
vn 0.501118 0.070287 -0.862520
vn 0.501118 0.070287 -0.862520
vn 0.501118 0.070287 -0.862520
vn 0.000000 -0.624577 -0.780964
vn 0.000000 -0.624577 -0.780963
vn 0.000000 -0.624577 -0.780964
vn 0.000000 -0.624577 -0.780963
vn -0.501120 0.070287 -0.862518
vn -0.501120 0.070287 -0.862518
vn -0.501120 0.070287 -0.862518
vn -0.501120 0.070287 -0.862518
vn -0.501110 0.070288 -0.862524
vn -0.501110 0.070288 -0.862524
vn -0.501110 0.070288 -0.862524
vn -0.501110 0.070288 -0.862524
vn 0.000000 0.742779 -0.669536
vn 0.000000 0.742779 -0.669536
vn 0.000000 0.742779 -0.669536
vn 0.000000 0.742779 -0.669536
vn 0.501103 0.070288 -0.862529
vn 0.501103 0.070288 -0.862529
vn 0.501103 0.070288 -0.862529
vn 0.501103 0.070288 -0.862529
vn 0.000000 -0.624575 -0.780965
vn 0.000000 -0.624575 -0.780965
vn 0.000000 -0.624575 -0.780965
vn 0.000000 -0.624575 -0.780965
vn -0.501115 0.070287 -0.862521
vn -0.501115 0.070287 -0.862521
vn -0.501115 0.070287 -0.862521
vn -0.501115 0.070287 -0.862521
vn 0.000000 0.742780 -0.669536
vn 0.000000 0.742780 -0.669536
vn 0.000000 0.742780 -0.669536
vn 0.000000 0.742780 -0.669536
vn 0.501108 0.070288 -0.862526
vn 0.501108 0.070288 -0.862526
vn 0.501108 0.070288 -0.862526
vn 0.501108 0.070288 -0.862526
vn 0.000000 -0.624577 -0.780963
vn 0.000000 -0.624577 -0.780963
vn 0.000000 -0.624577 -0.780963
vn 0.000000 -0.624577 -0.780963
vn 0.000000 -0.996696 -0.081221
vn 0.000000 -0.996696 -0.081221
vn 0.000000 0.081221 -0.996696
vn 0.000000 -0.996696 -0.081221
vn 0.000000 0.000000 1.000000
vn 0.000000 0.000000 1.000000
vn 0.000000 0.000000 1.000000
vn 0.000000 0.000000 1.000000
vn 0.000000 1.000000 0.000000
vn 0.000000 1.000000 0.000000
vn 0.000000 1.000000 0.000000
vn 0.000000 1.000000 0.000000
vn 0.000000 0.000000 -1.000000
vn 0.000000 0.000000 -1.000000
vn 0.000000 0.000000 -1.000000
vn 0.000000 0.000000 -1.000000
vn 0.000000 -1.000000 0.000000
vn 0.000000 -1.000000 0.000000
vn 0.000000 -1.000000 0.000000
vn 0.000000 -1.000000 0.000000
vn 1.000000 0.000000 0.000000
vn 1.000000 0.000000 0.000000
vn 1.000000 0.000000 0.000000
vn 1.000000 0.000000 0.000000
vn -1.000000 0.000000 0.000000
vn -1.000000 0.000000 0.000000
vn -1.000000 0.000000 0.000000
vn -1.000000 0.000000 0.000000
vn 0.000000 0.000000 1.000000
vn 0.000000 0.000000 1.000000
vn 0.000000 0.000000 1.000000
vn 0.000000 0.000000 1.000000
vn -1.000000 0.000000 0.000000
vn -1.000000 0.000000 0.000000
vn -1.000000 0.000000 0.000000
vn -1.000000 0.000000 0.000000
vn 0.000000 0.000000 -1.000000
vn 0.000000 0.000000 -1.000000
vn 0.000000 0.000000 -1.000000
vn 0.000000 0.000000 -1.000000
vn 1.000000 0.000000 0.000000
vn 1.000000 0.000000 0.000000
vn 1.000000 0.000000 0.000000
vn 1.000000 0.000000 0.000000
vn 0.000000 1.000000 0.000000
vn 0.000000 1.000000 0.000000
vn 0.000000 1.000000 0.000000
vn 0.000000 1.000000 0.000000
vn 0.000000 -1.000000 0.000000
vn 0.000000 -1.000000 0.000000
vn 0.000000 -1.000000 0.000000
vn 0.000000 -1.000000 0.000000
vn 0.000000 0.000000 1.000000
vn 0.000000 0.000000 1.000000
vn 0.000000 0.000000 1.000000
vn 0.000000 0.000000 1.000000
vn -1.000000 0.000000 0.000000
vn -1.000000 0.000000 0.000000
vn -1.000000 0.000000 0.000000
vn -1.000000 0.000000 0.000000
vn 0.000000 0.000000 -1.000000
vn 0.000000 0.000000 -1.000000
vn 0.000000 0.000000 -1.000000
vn 0.000000 0.000000 -1.000000
vn 1.000000 0.000000 0.000000
vn 1.000000 0.000000 0.000000
vn 1.000000 0.000000 0.000000
vn 1.000000 0.000000 0.000000
vn 0.000000 1.000000 0.000000
vn 0.000000 1.000000 0.000000
vn 0.000000 1.000000 0.000000
vn 0.000000 1.000000 0.000000
vn 0.000000 -1.000000 0.000000
vn 0.000000 -1.000000 0.000000
vn 0.000000 -1.000000 0.000000
vn 0.000000 -1.000000 0.000000
vn 0.000000 0.000000 1.000000
vn 0.000000 0.000000 1.000000
vn 0.000000 0.000000 1.000000
vn 0.000000 0.000000 1.000000
vn 0.000000 1.000000 0.000000
vn 0.000000 1.000000 0.000000
vn 0.000000 1.000000 0.000000
vn 0.000000 1.000000 0.000000
vn 0.000000 0.000000 -1.000000
vn 0.000000 0.000000 -1.000000
vn 0.000000 0.000000 -1.000000
vn 0.000000 0.000000 -1.000000
vn 0.000000 -1.000000 0.000000
vn 0.000000 -1.000000 0.000000
vn 0.000000 -1.000000 0.000000
vn 0.000000 -1.000000 0.000000
vn 1.000000 0.000000 0.000000
vn 1.000000 0.000000 0.000000
vn 1.000000 0.000000 0.000000
vn 1.000000 0.000000 0.000000
vn -1.000000 0.000000 0.000000
vn -1.000000 0.000000 0.000000
vn -1.000000 0.000000 0.000000
vn -1.000000 0.000000 0.000000
s off
f 1/1/1 2/2/2 4/4/3 3/3/4
f 3/5/5 4/6/6 6/7/7 5/8/8
f 7/9/9 8/10/10 2/11/11 1/12/12
f 2/11/13 8/10/14 6/7/15 4/6/16
f 7/9/17 1/12/18 3/5/19 5/8/20
f 17/13/21 18/14/22 19/15/23 20/16/24
f 11/17/25 12/18/26 14/19/27 13/20/28
f 21/21/29 22/22/30 23/23/31 24/24/32
f 34/25/33 33/26/34 35/27/35 36/28/36
f 55/29/37 56/30/38 57/31/39 58/32/40
f 9/33/41 10/34/42 18/14/43 17/13/44
f 34/25/45 36/28/46 37/35/47 38/36/48
f 12/18/49 11/17/50 20/16/51 19/15/52
f 11/17/53 9/33/54 17/13/55 20/16/56
f 13/20/57 14/19/58 22/22/59 21/21/60
f 35/27/61 33/26/62 39/37/63 40/38/64
f 16/39/65 15/40/66 24/24/67 23/23/68
f 15/40/69 13/20/70 21/21/71 24/24/72
f 25/41/73 26/42/74 10/34/75 16/43/76
f 14/44/77 12/18/78 28/45/79 27/46/80
f 12/18/81 19/15/82 29/47/83 28/45/84
f 19/15/85 18/14/86 30/48/87 29/47/88
f 18/14/89 10/34/90 26/42/91 30/48/92
f 16/39/93 23/23/94 31/49/95 25/50/96
f 23/23/97 22/22/98 32/51/99 31/49/100
f 22/22/101 14/19/102 27/52/103 32/51/104
f 26/42/105 25/41/106 33/53/107 34/54/108
f 27/46/109 28/45/110 36/55/111 35/56/112
f 28/45/113 29/47/114 37/57/115 36/55/116
f 29/47/117 30/48/118 38/58/119 37/57/120
f 30/48/121 26/42/122 34/54/123 38/58/124
f 25/50/125 31/49/126 39/59/127 33/60/128
f 31/49/129 32/51/130 40/61/131 39/59/132
f 32/51/133 27/52/134 35/62/135 40/61/136
f 9/33/137 11/17/138 43/63/139 42/64/140
f 11/17/141 13/65/142 44/66/143 43/63/144
f 13/65/145 15/67/146 41/68/147 44/66/148
f 16/39/149 10/69/150 9/70/151 15/40/152
f 41/68/153 42/64/154 50/71/155
f 42/64/156 43/63/157 47/72/158 46/73/159
f 43/63/160 49/74/161 54/75/162
f 44/66/163 41/68/164 45/76/165 48/77/166
f 49/74/167 44/66/168 51/78/169
f 63/79/170 64/80/171 65/81/172 66/82/173
f 41/68/174 50/71/175 52/83/176
f 43/63/177 44/66/178 49/74/179
f 50/71/180 42/64/181 53/84/182
f 51/78/183 44/66/184 48/77/185
f 59/85/186 60/86/187 61/87/188 62/88/189
f 41/68/190 52/83/191 45/76/192
f 53/84/193 42/64/194 46/73/195
f 68/89/196 67/90/197 69/91/198 70/92/199
f 43/63/200 54/75/201 47/72/202
f 49/74/203 50/71/204 56/93/205 55/94/206
f 50/71/207 53/84/208 57/95/209 56/93/210
f 53/84/211 54/75/212 58/96/213 57/95/214
f 54/75/215 49/74/216 55/94/217 58/96/218
f 45/76/219 52/83/220 60/97/221 59/98/222
f 52/83/223 51/78/224 61/99/225 60/97/226
f 51/78/227 48/77/228 62/100/229 61/99/230
f 48/77/231 45/76/232 59/98/233 62/100/234
f 51/78/235 52/83/236 64/101/237 63/102/238
f 52/83/239 50/71/240 65/103/241 64/101/242
f 50/71/243 49/74/244 66/104/245 65/103/246
f 49/74/247 51/78/248 63/102/249 66/104/250
f 54/75/251 53/84/252 67/105/253 68/106/254
f 53/84/255 46/73/256 69/107/257 67/105/258
f 46/73/259 47/72/260 70/108/261 69/107/262
f 47/72/263 54/75/264 68/106/265 70/108/266
f 15/67/267 9/33/268 42/64/269 41/68/270
f 71/109/271 72/110/272 74/111/273 73/112/274
f 73/112/275 74/111/276 76/113/277 75/114/278
f 75/114/279 76/113/280 78/115/281 77/116/282
f 77/116/283 78/115/284 72/117/285 71/118/286
f 72/110/287 78/119/288 76/120/289 74/111/290
f 77/121/291 71/109/292 73/112/293 75/122/294
f 79/123/295 80/124/296 82/125/297 81/126/298
f 81/126/299 82/125/300 84/127/301 83/128/302
f 83/128/303 84/127/304 86/129/305 85/130/306
f 85/130/307 86/129/308 80/131/309 79/132/310
f 80/124/311 86/133/312 84/134/313 82/125/314
f 85/135/315 79/123/316 81/126/317 83/136/318
f 87/137/319 88/138/320 90/139/321 89/140/322
f 89/140/323 90/139/324 92/141/325 91/142/326
f 91/142/327 92/141/328 94/143/329 93/144/330
f 93/144/331 94/143/332 88/145/333 87/146/334
f 88/138/335 94/147/336 92/148/337 90/139/338
f 93/149/339 87/137/340 89/140/341 91/150/342
f 95/151/343 96/152/344 98/153/345 97/154/346
f 97/154/347 98/153/348 100/155/349 99/156/350
f 99/156/351 100/155/352 102/157/353 101/158/354
f 101/158/355 102/157/356 96/159/357 95/160/358
f 96/152/359 102/161/360 100/162/361 98/153/362
f 101/163/363 95/151/364 97/154/365 99/164/366
