# This file uses centimeters as units for non-parametric coordinates.

v -19.263977 0.938133 -26.873047
v -19.263977 1.658687 -26.873047
v -20.458069 0.938133 -1.354126
v -20.458069 1.658687 -1.354126
v 20.458069 0.938133 -2.294952
v 19.892822 0.938133 -29.270691
v 19.892822 1.658687 -29.270691
v 20.458069 1.658687 -2.294952
v -18.871338 0.000000 0.000000
v 19.358521 0.000000 0.000000
v -18.871338 0.000000 -28.129089
v 19.358521 0.000000 -28.129089
v -7.188110 0.000000 -28.129089
v -18.176270 0.000000 -30.091949
v -7.883179 0.000000 -30.091949
v -18.871338 2.571938 0.000000
v -7.188110 2.571939 -27.788788
v 19.358521 2.571938 0.000000
v 19.358521 2.571939 -27.788788
v -7.188110 1.772968 -27.788788
v 19.358521 1.772968 -27.788788
v 19.358521 0.809281 -28.129089
v -7.188110 0.809281 -28.129089
v -7.883179 0.809281 -30.091949
v -18.176270 0.809281 -30.091949
v -18.871338 0.809281 -28.129059
v -18.871338 0.809281 -1.251160
v 19.358521 0.809281 -1.251190
v -18.871338 1.772968 -1.251190
v 19.358521 1.772968 -1.251160
v -18.871338 1.291126 -0.782227
v 19.358521 1.291126 -0.782227
v 19.358521 1.291126 0.571442
v -18.871338 1.291126 0.571442
v 5.312866 2.571938 -20.734192
v 17.845337 2.571938 -20.734192
v 17.845337 2.571939 -25.946838
v 5.312866 2.571939 -25.946838
v -7.901611 2.571939 -26.176453
v -18.871338 2.571939 -26.176453
v -18.871338 1.772969 -26.176453
v -7.901611 1.772968 -26.176453
v -9.525757 0.809281 -27.655457
v -16.970581 0.809281 -27.655457
v -16.970581 0.809278 -29.436432
v -9.525757 0.809278 -29.436432
vt 0.101232 0.378797
vt 0.101308 0.379324
vt 0.101313 0.379317
vt 0.101236 0.378788
vt 0.100313 0.379192
vt 0.100368 0.378665
vt 0.100369 0.378657
vt 0.100314 0.379184
vt 0.003669 0.326203
vt 0.103762 0.205514
vt 0.003669 0.326203
vt 0.003669 0.326203
vt 0.003669 0.326203
vt 0.337622 0.337214
vt 0.361866 0.337214
vt 0.361866 0.349121
vt 0.337622 0.349121
vt 0.003669 0.326203
vt 0.003669 0.326203
vt 0.003669 0.326203
vt 0.003669 0.326203
vt 0.003669 0.326203
vt 0.003669 0.326203
vt 0.003669 0.326203
vt 0.003669 0.326203
vt 0.003669 0.326203
vt 0.003669 0.326203
vt 0.003669 0.326203
vt 0.003669 0.326203
vt 0.003669 0.326203
vt 0.003669 0.326203
vt 0.003669 0.326203
vt 0.003669 0.326203
vt 0.003669 0.326203
vt 0.003669 0.326203
vt 0.003669 0.326203
vt 0.003669 0.326203
vt 0.003669 0.326203
vt 0.003669 0.326203
vt 0.003669 0.326203
vt 0.003669 0.326203
vt 0.003669 0.326203
vt 0.003669 0.326203
vt 0.003669 0.326203
vt 0.003669 0.326203
vt 0.003669 0.326203
vt 0.003669 0.326203
vt 0.003669 0.326203
vt 0.003669 0.326203
vt 0.003669 0.326203
vt 0.003669 0.326203
vt 0.003669 0.326203
vt 0.003669 0.326203
vt 0.003669 0.326203
vt 0.003669 0.326203
vt 0.003669 0.326203
vt 0.003669 0.326203
vt 0.003669 0.326203
vt 0.003669 0.326203
vt 0.003669 0.326203
vt 0.003669 0.326203
vt 0.003669 0.326203
vt 0.003669 0.326203
vt 0.003669 0.326203
vt 0.003669 0.326203
vt 0.003669 0.326203
vt 0.003669 0.326203
vt 0.003669 0.326203
vt 0.003669 0.326203
vt 0.003669 0.326203
vt 0.003669 0.326203
vt 0.103985 0.205445
vt 0.104283 0.206374
vt 0.104059 0.206445
vn -0.997712 0.000000 -0.067604
vn -0.997712 0.000000 -0.067604
vn -0.997712 0.000000 -0.067604
vn -0.997712 0.000000 -0.067604
vn 0.999984 0.000000 -0.005629
vn 0.999984 0.000000 -0.005629
vn 0.999984 0.000000 -0.005629
vn 0.999984 0.000000 -0.005629
vn 0.021121 0.000000 -0.999777
vn 0.021121 0.000000 -0.999777
vn 0.021121 0.000000 -0.999777
vn 0.021121 0.000000 -0.999777
vn -0.024880 0.000000 0.999690
vn -0.024880 0.000000 0.999690
vn -0.024880 0.000000 0.999690
vn -0.024880 0.000000 0.999690
vn 0.000000 -1.000000 -0.000000
vn 0.000000 -1.000000 0.000000
vn -0.000000 -1.000000 0.000000
vn 0.000000 -1.000000 -0.000000
vn 0.000000 1.000000 0.000000
vn 0.000000 1.000000 0.000000
vn -0.000000 1.000000 0.000000
vn 0.000000 1.000000 0.000000
vn 0.000000 1.000000 0.000000
vn 0.000000 1.000000 0.000000
vn 0.000000 1.000000 0.000000
vn 0.000000 1.000000 0.000000
vn 0.000000 1.000000 0.000000
vn 0.000000 1.000000 0.000000
vn 0.000000 1.000000 0.000000
vn 0.000000 -1.000000 0.000000
vn 0.000000 -1.000000 0.000000
vn 0.000000 -1.000000 0.000000
vn 0.000000 -1.000000 0.000000
vn 0.000000 -1.000000 0.000000
vn 0.000000 -1.000000 0.000000
vn 0.000000 -1.000000 0.000000
vn 0.000000 -1.000000 0.000000
vn 0.000000 -1.000000 0.000000
vn 0.000000 -1.000000 0.000000
vn 0.000000 -1.000000 0.000000
vn -1.000000 0.000000 0.000000
vn -1.000000 0.000000 0.000000
vn -1.000000 0.000000 0.000000
vn -1.000000 0.000000 0.000000
vn 0.000000 0.000000 -1.000000
vn 0.000000 0.000000 -1.000000
vn 0.000000 0.000000 -1.000000
vn 0.000000 0.000000 -1.000000
vn 1.000000 0.000000 0.000000
vn 1.000000 0.000000 0.000000
vn 1.000000 0.000000 0.000000
vn 1.000000 0.000000 0.000000
vn 1.000000 0.000000 0.000000
vn 1.000000 0.000000 0.000000
vn 1.000000 0.000000 0.000000
vn 1.000000 0.000000 0.000000
vn 0.000000 0.000000 -1.000000
vn 0.000000 0.000000 -1.000000
vn 0.000000 0.000000 -1.000000
vn 0.000000 0.000000 -1.000000
vn 0.942644 0.000000 -0.333800
vn 0.942644 0.000000 -0.333800
vn 0.942644 0.000000 -0.333800
vn 0.942644 0.000000 -0.333800
vn 0.000000 0.000000 -1.000000
vn 0.000000 0.000000 -1.000000
vn 0.000000 0.000000 -1.000000
vn 0.000000 0.000000 -1.000000
vn -0.942645 0.000007 -0.333797
vn -0.942645 0.000007 -0.333797
vn -0.942645 0.000007 -0.333797
vn -0.942645 0.000007 -0.333797
vn -1.000000 0.000000 0.000000
vn -1.000000 0.000000 0.000000
vn -1.000000 0.000000 0.000000
vn -1.000000 0.000000 0.000000
vn 0.000000 1.000000 0.000000
vn 0.000000 1.000000 0.000000
vn 0.000000 1.000000 0.000000
vn 0.000000 1.000000 0.000000
vn 0.000001 1.000000 -0.000001
vn 0.000000 1.000000 -0.000001
vn 0.000000 1.000000 0.000001
vn 0.000001 1.000000 0.000001
vn 0.000000 -0.697454 -0.716630
vn 0.000000 -0.697454 -0.716630
vn 0.000000 -0.697454 -0.716630
vn 0.000000 -0.697454 -0.716630
vn 1.000000 0.000001 0.000000
vn 1.000000 0.000001 0.000000
vn 1.000000 0.000001 0.000000
vn 1.000000 0.000001 0.000000
vn 0.000000 0.407443 0.913231
vn 0.000000 0.407443 0.913231
vn 0.000000 0.407443 0.913231
vn 0.000000 0.407443 0.913231
vn -1.000000 -0.000001 0.000000
vn -1.000000 -0.000001 0.000000
vn -1.000000 -0.000001 0.000000
vn -1.000000 -0.000001 0.000000
vn 1.000000 0.000001 0.000000
vn 1.000000 0.000001 0.000000
vn 1.000000 0.000001 0.000000
vn 1.000000 0.000001 0.000000
vn -0.000000 0.697451 -0.716632
vn -0.000000 0.697451 -0.716632
vn -0.000000 0.697451 -0.716632
vn -0.000000 0.697451 -0.716632
vn -1.000000 0.000002 0.000000
vn -1.000000 0.000002 0.000000
vn -1.000000 0.000002 0.000000
vn -1.000000 0.000002 0.000000
vn 0.000000 -0.404723 0.914439
vn 0.000000 -0.404723 0.914439
vn 0.000000 -0.404723 0.914439
vn 0.000000 -0.404723 0.914439
vn 0.000000 1.000000 0.000000
vn 0.000000 1.000000 0.000000
vn 0.000000 1.000000 0.000000
vn 0.000000 1.000000 0.000000
vn -0.000001 1.000000 0.000000
vn -0.000001 1.000000 0.000000
vn -0.000001 1.000000 0.000000
vn -0.000001 1.000000 0.000000
vn 0.000000 1.000000 -0.000000
vn 0.000000 1.000000 -0.000000
vn 0.000000 1.000000 -0.000000
vn 0.000000 1.000000 -0.000000
vn -0.000000 1.000000 0.000000
vn 0.000000 1.000000 0.000000
vn 0.000000 1.000000 0.000000
vn -0.000000 1.000000 0.000000
vn -0.000000 -1.000000 -0.000000
vn -0.000000 -1.000000 -0.000000
vn 0.000000 -1.000000 0.000000
vn -0.000000 -1.000000 -0.000000
vn -0.000000 -1.000000 -0.000000
vn -0.000000 -1.000000 -0.000000
vn -0.914461 0.000000 -0.404673
vn -0.914461 0.000000 -0.404673
vn -0.136709 0.000000 -0.990611
vn -0.136709 0.000000 -0.990611
vn -0.136709 0.000000 -0.990611
vn -0.136709 0.000000 -0.990611
vn 0.000000 0.000000 -1.000000
vn 0.000000 0.000000 -1.000000
vn 0.000000 1.000000 0.000000
vn 0.000000 1.000000 0.000000
vn 0.000000 1.000000 0.000000
vn 0.000000 -1.000000 0.000000
vn -0.000000 -1.000000 -0.000000
vn 0.000000 -1.000000 0.000000
vn 0.000000 -1.000000 0.000000
vn -0.000000 1.000000 -0.000001
vn -0.000000 1.000000 0.000001
vn 0.000000 1.000000 0.000001
vn 0.000000 1.000000 -0.000001
vn 0.000000 1.000000 0.000000
vn 0.000000 1.000000 0.000000
vn 0.000000 1.000000 0.000000
vn 0.000000 1.000000 0.000000
vn 0.000000 1.000000 0.000000
vn 0.000000 1.000000 0.000000
vn 0.000000 1.000000 0.000000
vn -0.000001 1.000000 0.000001
vn -0.000000 1.000000 0.000001
vn -0.000000 1.000000 -0.000001
vn -0.000001 1.000000 -0.000001
vn 0.000001 1.000000 0.000001
vn 0.000000 1.000000 0.000001
vn -0.000000 1.000000 0.000001
vn -0.000001 1.000000 0.000001
s off
f 1/1/1 3/2/2 4/3/3 2/4/4
f 5/5/5 6/6/6 7/7/7 8/8/8
f 6/6/9 1/1/10 2/4/11 7/7/12
f 4/3/13 3/2/14 5/5/15 8/8/16
f 6/6/17 5/5/18 3/2/19 1/1/20
f 4/3/21 8/8/22 7/7/23 2/4/24
f 16/11/25 39/12/26 40/13/27
f 35/14/28 36/15/29 37/16/30 38/17/31
f 9/18/32 11/19/33 13/20/34
f 9/18/35 13/20/36 12/21/37 10/22/38
f 11/23/39 14/24/40 15/25/41 13/26/42
f 40/13/43 41/27/44 29/28/45 16/11/46
f 21/29/47 20/30/48 17/31/49 19/32/50
f 18/33/51 30/34/52 21/29/53 19/32/54
f 10/35/55 12/36/56 22/37/57 28/38/58
f 12/36/59 13/39/60 23/40/61 22/37/62
f 13/41/63 15/42/64 24/43/65 23/44/66
f 15/42/67 14/45/68 25/46/69 24/43/70
f 14/45/71 11/47/72 26/48/73 25/46/74
f 11/49/75 9/50/76 27/51/77 26/52/78
f 43/53/79 28/38/80 22/37/81 23/44/82
f 26/52/83 44/54/84 45/55/85 25/46/86
f 29/56/87 30/34/88 32/57/89 31/58/90
f 30/34/91 18/33/92 33/59/93 32/57/94
f 18/33/95 16/11/96 34/60/97 33/59/98
f 16/11/99 29/56/100 31/58/101 34/60/102
f 10/35/103 28/38/104 32/61/105 33/62/106
f 28/38/107 27/51/108 31/63/109 32/61/110
f 27/51/111 9/50/112 34/64/113 31/63/114
f 9/50/115 10/35/116 33/62/117 34/64/118
f 16/11/119 18/33/120 36/65/121 35/66/122
f 18/33/123 19/32/124 37/67/125 36/65/126
f 19/32/127 17/31/128 38/68/129 37/67/130
f 17/31/131 39/69/132 35/66/133 38/68/134
f 29/56/135 42/70/136 30/34/137
f 41/71/138 42/70/139 29/56/140
f 17/31/141 20/30/142 42/70/143 39/69/144
f 39/69/145 42/70/146 41/27/147 40/13/148
f 35/66/149 39/69/150 16/11/151
f 30/34/152 42/70/153 20/30/154 21/29/155
f 43/10/156 46/72/157 45/73/158 44/74/159
f 27/51/160 44/54/161 26/52/162
f 27/51/163 28/38/164 43/53/165 44/54/166
f 24/43/167 46/9/168 43/53/169 23/44/170
f 25/46/171 45/55/172 46/9/173 24/43/174
