# This file uses centimeters as units for non-parametric coordinates.

v 0.531784 104.380608 0.586382
v 43.634342 112.978027 0.586382
v 0.531784 121.575447 0.586382
v 0.531784 121.575447 -0.586382
v 43.634342 112.978027 -0.586382
v 0.531784 104.380608 -0.586382
v 25.861694 108.774841 -2.323139
v 24.865967 115.732635 -2.323139
v 24.951614 115.715546 -3.495903
v 25.942581 108.791000 -3.495903
v 11.905075 107.129608 2.974098
v 12.848008 119.841217 2.974098
v 12.856598 119.839508 1.801332
v 11.913940 107.131393 1.801332
v 0.531784 0.000000 -0.921074
v -0.531784 0.000000 -0.921074
v -1.063568 0.000000 -0.000000
v -0.531784 0.000000 0.921073
v 0.531784 0.000000 0.921073
v 1.063568 0.000000 0.000000
v 0.531784 122.854187 -0.921074
v -0.531784 122.854187 -0.921074
v -1.063568 122.854187 -0.000000
v -0.531784 122.854187 0.921073
v 0.531784 122.854187 0.921073
v 1.063568 122.854187 0.000000
v -0.000000 0.000000 0.000000
v -0.000000 122.854187 0.000000
v 0.531784 103.286629 0.921073
v -0.531784 103.286629 0.921073
v -1.063568 103.286629 -0.000000
v -0.531784 103.286629 -0.921074
v 0.531784 103.286629 -0.921074
v 1.063568 103.286629 0.000000
v 0.531784 83.719025 0.921073
v -0.531784 83.719025 0.921073
v -1.063568 83.719025 -0.000000
v -0.531784 83.719025 -0.921074
v 0.531784 83.719025 -0.921074
v 1.063568 83.719025 0.000000
v 0.531784 64.151466 0.921073
v -0.531784 64.151466 0.921073
v -1.063568 64.151466 -0.000000
v -0.531784 64.151466 -0.921074
v 0.531784 64.151466 -0.921074
v 1.063568 64.151466 0.000000
v 0.531784 44.583851 0.921073
v -0.531784 44.583851 0.921073
v -1.063568 44.583851 -0.000000
v -0.531784 44.583851 -0.921074
v 0.531784 44.583851 -0.921074
v 1.063568 44.583851 0.000000
v 0.531784 25.016228 0.921073
v -0.531784 25.016228 0.921073
v -1.063568 25.016228 -0.000000
v -0.531784 25.016228 -0.921074
v 0.531784 25.016228 -0.921074
v 1.063568 25.016228 0.000000
vt 0.133192 0.180765
vt 0.132942 0.180722
vt 0.132942 0.180415
vt 0.133235 0.180352
vt 0.132943 0.180398
vt 0.133236 0.180335
vt 0.132943 0.180705
vt 0.133192 0.180747
vt 0.132666 0.180423
vt 0.132638 0.180588
vt 0.132236 0.180508
vt 0.132666 0.180407
vt 0.132238 0.180491
vt 0.132638 0.180570
vt 0.101307 0.379149
vt 0.101296 0.379149
vt 0.101301 0.379155
vt 0.101313 0.379156
vt 0.101307 0.379162
vt 0.101295 0.379162
vt 0.101290 0.379155
vt 0.146760 0.446042
vt 0.146779 0.446042
vt 0.146771 0.446040
vt 0.146791 0.446040
vt 0.146783 0.446038
vt 0.146763 0.446038
vt 0.146751 0.446040
vt 0.146782 0.446186
vt 0.146762 0.446186
vt 0.146790 0.446187
vt 0.146778 0.446187
vt 0.146758 0.446187
vt 0.146750 0.446187
vt 0.101310 0.378328
vt 0.101297 0.378328
vt 0.101297 0.378247
vt 0.101311 0.378247
vt 0.101318 0.378325
vt 0.101318 0.378245
vt 0.101311 0.378321
vt 0.101312 0.378242
vt 0.101298 0.378321
vt 0.101298 0.378242
vt 0.101291 0.378324
vt 0.101291 0.378244
vt 0.146779 0.446476
vt 0.146760 0.446476
vt 0.146761 0.446331
vt 0.146781 0.446331
vt 0.146787 0.446475
vt 0.146789 0.446332
vt 0.146775 0.446474
vt 0.146777 0.446332
vt 0.146756 0.446474
vt 0.146757 0.446332
vt 0.146748 0.446475
vt 0.146749 0.446332
vt 0.101310 0.378489
vt 0.101297 0.378488
vt 0.101297 0.378408
vt 0.101310 0.378408
vt 0.101317 0.378485
vt 0.101317 0.378405
vt 0.101311 0.378481
vt 0.101311 0.378401
vt 0.101298 0.378481
vt 0.101298 0.378401
vt 0.101291 0.378484
vt 0.101291 0.378404
vt 0.146777 0.446760
vt 0.146757 0.446760
vt 0.146758 0.446619
vt 0.146778 0.446618
vt 0.146785 0.446757
vt 0.146786 0.446617
vt 0.146773 0.446755
vt 0.146774 0.446616
vt 0.146753 0.446755
vt 0.146755 0.446616
vt 0.146745 0.446758
vt 0.146747 0.446617
vt 0.101297 0.378569
vt 0.101309 0.378569
vt 0.101316 0.378565
vt 0.101310 0.378561
vt 0.101298 0.378561
vt 0.101291 0.378565
vn -0.197862 0.006238 0.980210
vn -0.197862 0.006238 0.980210
vn -0.197862 0.006238 0.980210
vn -0.197862 0.006238 0.980210
vn 0.139493 0.990223 -0.000213
vn 0.139493 0.990223 -0.000213
vn 0.139493 0.990223 -0.000213
vn 0.139493 0.990223 -0.000213
vn 0.197722 -0.006233 -0.980238
vn 0.197722 -0.006233 -0.980238
vn 0.197722 -0.006233 -0.980238
vn 0.197722 -0.006233 -0.980238
vn 0.234896 -0.972020 0.000149
vn 0.234896 -0.972020 0.000149
vn 0.234896 -0.972020 0.000149
vn 0.234896 -0.972020 0.000149
vn -1.000000 0.000000 0.000000
vn -1.000000 0.000000 0.000000
vn -1.000000 0.000000 0.000000
vn -1.000000 0.000000 0.000000
vn -0.156360 -0.022377 0.987447
vn -0.156360 -0.022377 0.987447
vn -0.156360 -0.022377 0.987447
vn 0.145385 0.989373 -0.001906
vn 0.145385 0.989373 -0.001906
vn 0.145385 0.989373 -0.001906
vn 0.145385 0.989373 -0.001906
vn 0.157054 0.022476 -0.987334
vn 0.157054 0.022476 -0.987334
vn 0.157054 0.022476 -0.987334
vn 0.230035 -0.973182 0.001226
vn 0.230035 -0.973182 0.001226
vn 0.230035 -0.973182 0.001226
vn 0.230035 -0.973182 0.001226
vn 0.377753 0.001014 0.925906
vn 0.377753 0.001014 0.925906
vn 0.377753 0.001014 0.925906
vn 0.377753 0.001014 0.925906
vn 0.325256 0.945610 0.005491
vn 0.325256 0.945610 0.005491
vn 0.325256 0.945610 0.005491
vn 0.325256 0.945610 0.005491
vn -0.375895 -0.000925 -0.926662
vn -0.375895 -0.000925 -0.926662
vn -0.375895 -0.000925 -0.926662
vn -0.375895 -0.000925 -0.926662
vn 0.116100 -0.993233 -0.003155
vn 0.116100 -0.993233 -0.003155
vn 0.116100 -0.993233 -0.003155
vn 0.116100 -0.993233 -0.003155
vn 0.000000 0.000000 -1.000000
vn 0.000000 0.000000 -1.000000
vn 0.000000 0.000000 -1.000000
vn 0.000000 0.000000 -1.000000
vn -0.866025 0.000000 -0.500001
vn -0.866025 0.000000 -0.500001
vn -0.866025 0.000000 -0.500001
vn -0.866025 0.000000 -0.500001
vn -0.866025 0.000000 0.500001
vn -0.866025 0.000000 0.500001
vn -0.866025 0.000000 0.500001
vn -0.866025 0.000000 0.500001
vn 0.000000 0.000000 1.000000
vn 0.000000 0.000000 1.000000
vn 0.000000 0.000000 1.000000
vn 0.000000 0.000000 1.000000
vn 0.866025 0.000000 0.500002
vn 0.866025 0.000000 0.500002
vn 0.866025 0.000000 0.500001
vn 0.866025 0.000000 0.500001
vn 0.866025 0.000000 -0.500001
vn 0.866025 0.000000 -0.500001
vn 0.866025 0.000000 -0.500001
vn 0.866025 0.000000 -0.500001
vn 0.000000 -1.000000 0.000000
vn 0.000000 -1.000000 0.000000
vn 0.000000 -1.000000 0.000000
vn 0.000000 -1.000000 0.000000
vn 0.000000 -1.000000 0.000000
vn 0.000000 -1.000000 0.000000
vn 0.000000 -1.000000 0.000000
vn 0.000000 -1.000000 0.000000
vn 0.000000 -1.000000 0.000000
vn 0.000000 -1.000000 0.000000
vn 0.000000 -1.000000 0.000000
vn 0.000000 -1.000000 0.000000
vn 0.000000 -1.000000 0.000000
vn 0.000000 -1.000000 0.000000
vn 0.000000 -1.000000 0.000000
vn 0.000000 -1.000000 0.000000
vn 0.000000 -1.000000 0.000000
vn 0.000000 -1.000000 0.000000
vn 0.000000 1.000000 0.000000
vn 0.000000 1.000000 0.000000
vn 0.000000 1.000000 0.000000
vn 0.000000 1.000000 0.000000
vn 0.000000 1.000000 0.000000
vn 0.000000 1.000000 0.000000
vn 0.000000 1.000000 0.000000
vn 0.000000 1.000000 0.000000
vn 0.000000 1.000000 0.000000
vn 0.000000 1.000000 0.000000
vn 0.000000 1.000000 0.000000
vn 0.000000 1.000000 0.000000
vn 0.000000 1.000000 0.000000
vn 0.000000 1.000000 0.000000
vn 0.000000 1.000000 0.000000
vn 0.000000 1.000000 0.000000
vn 0.000000 1.000000 0.000000
vn 0.000000 1.000000 0.000000
vn 0.000000 0.000000 1.000000
vn 0.000000 0.000000 1.000000
vn 0.000000 0.000000 1.000000
vn 0.000000 0.000000 1.000000
vn -0.866025 0.000000 0.500002
vn -0.866025 0.000000 0.500002
vn -0.866025 0.000000 0.500001
vn -0.866025 0.000000 0.500001
vn -0.866025 0.000000 -0.500001
vn -0.866025 0.000000 -0.500001
vn -0.866025 0.000000 -0.500001
vn -0.866025 0.000000 -0.500001
vn 0.000000 0.000000 -1.000000
vn 0.000000 0.000000 -1.000000
vn 0.000000 0.000000 -1.000000
vn 0.000000 0.000000 -1.000000
vn 0.866025 0.000000 -0.500001
vn 0.866025 0.000000 -0.500001
vn 0.866025 0.000000 -0.500001
vn 0.866025 0.000000 -0.500001
vn 0.866025 0.000000 0.500002
vn 0.866025 0.000000 0.500002
vn 0.866025 0.000000 0.500001
vn 0.866025 0.000000 0.500001
vn 0.000000 0.000000 1.000000
vn 0.000000 0.000000 1.000000
vn 0.000000 0.000000 1.000000
vn 0.000000 0.000000 1.000000
vn -0.866024 0.000000 0.500002
vn -0.866024 0.000000 0.500002
vn -0.866025 0.000000 0.500002
vn -0.866025 0.000000 0.500002
vn -0.866025 0.000000 -0.500002
vn -0.866025 0.000000 -0.500002
vn -0.866025 0.000000 -0.500001
vn -0.866025 0.000000 -0.500001
vn 0.000000 0.000000 -1.000000
vn 0.000000 0.000000 -1.000000
vn 0.000000 0.000000 -1.000000
vn 0.000000 0.000000 -1.000000
vn 0.866025 0.000000 -0.500001
vn 0.866025 0.000000 -0.500001
vn 0.866025 0.000000 -0.500001
vn 0.866025 0.000000 -0.500001
vn 0.866025 0.000000 0.500002
vn 0.866025 0.000000 0.500002
vn 0.866025 0.000000 0.500002
vn 0.866025 0.000000 0.500002
vn 0.000000 0.000000 1.000000
vn 0.000000 0.000000 1.000000
vn 0.000000 0.000000 1.000000
vn 0.000000 0.000000 1.000000
vn -0.866025 0.000000 0.500001
vn -0.866025 0.000000 0.500001
vn -0.866024 0.000000 0.500002
vn -0.866024 0.000000 0.500002
vn -0.866025 0.000000 -0.500001
vn -0.866025 0.000000 -0.500001
vn -0.866025 0.000000 -0.500002
vn -0.866025 0.000000 -0.500002
vn 0.000000 0.000000 -1.000000
vn 0.000000 0.000000 -1.000000
vn 0.000000 0.000000 -1.000000
vn 0.000000 0.000000 -1.000000
vn 0.866025 0.000000 -0.500001
vn 0.866025 0.000000 -0.500001
vn 0.866025 0.000000 -0.500001
vn 0.866025 0.000000 -0.500001
vn 0.866025 0.000000 0.500001
vn 0.866025 0.000000 0.500001
vn 0.866025 0.000000 0.500002
vn 0.866025 0.000000 0.500002
vn 0.000000 0.000000 1.000000
vn 0.000000 0.000000 1.000000
vn 0.000000 0.000000 1.000000
vn 0.000000 0.000000 1.000000
vn -0.866025 0.000000 0.500001
vn -0.866025 0.000000 0.500001
vn -0.866025 0.000000 0.500001
vn -0.866025 0.000000 0.500001
vn -0.866025 0.000000 -0.500001
vn -0.866025 0.000000 -0.500001
vn -0.866025 0.000000 -0.500001
vn -0.866025 0.000000 -0.500001
vn 0.000000 0.000000 -1.000000
vn 0.000000 0.000000 -1.000000
vn 0.000000 0.000000 -1.000000
vn 0.000000 0.000000 -1.000000
vn 0.866025 0.000000 -0.500001
vn 0.866025 0.000000 -0.500001
vn 0.866025 0.000000 -0.500001
vn 0.866025 0.000000 -0.500001
vn 0.866025 0.000000 0.500001
vn 0.866025 0.000000 0.500001
vn 0.866025 0.000000 0.500001
vn 0.866025 0.000000 0.500001
vn 0.000000 0.000000 1.000000
vn 0.000000 0.000000 1.000000
vn 0.000000 0.000000 1.000000
vn 0.000000 0.000000 1.000000
vn -0.866025 0.000000 0.500001
vn -0.866025 0.000000 0.500001
vn -0.866025 0.000000 0.500001
vn -0.866025 0.000000 0.500001
vn -0.866025 0.000000 -0.500001
vn -0.866025 0.000000 -0.500001
vn -0.866025 0.000000 -0.500001
vn -0.866025 0.000000 -0.500001
vn 0.000000 0.000000 -1.000000
vn 0.000000 0.000000 -1.000000
vn 0.000000 0.000000 -1.000000
vn 0.000000 0.000000 -1.000000
vn 0.866025 0.000000 -0.500001
vn 0.866025 0.000000 -0.500001
vn 0.866025 0.000000 -0.500001
vn 0.866025 0.000000 -0.500001
vn 0.866025 0.000000 0.500001
vn 0.866025 0.000000 0.500001
vn 0.866025 0.000000 0.500001
vn 0.866025 0.000000 0.500001
s off
f 1/1/1 11/2/2 12/3/3 3/4/4
f 3/4/5 12/3/6 13/5/7 4/6/8
f 4/6/9 13/5/10 14/7/11 6/8/12
f 6/8/13 14/7/14 11/2/15 1/1/16
f 6/8/17 1/1/18 3/4/19 4/6/20
f 8/9/21 7/10/22 2/11/23
f 9/12/24 8/9/25 2/11/26 5/13/27
f 10/14/28 9/12/29 5/13/30
f 7/10/31 10/14/32 5/13/33 2/11/34
f 12/3/35 11/2/36 7/10/37 8/9/38
f 13/5/39 12/3/40 8/9/41 9/12/42
f 14/7/43 13/5/44 9/12/45 10/14/46
f 11/2/47 14/7/48 10/14/49 7/10/50
f 15/16/51 16/15/52 56/86/53 57/87/54
f 16/15/55 17/18/56 55/85/57 56/86/58
f 17/18/59 18/19/60 54/84/61 55/85/62
f 18/19/63 19/20/64 53/83/65 54/84/66
f 19/20/67 20/21/68 58/88/69 53/83/70
f 20/21/71 15/16/72 57/87/73 58/88/74
f 16/15/75 15/16/76 27/17/77
f 17/18/78 16/15/79 27/17/80
f 18/19/81 17/18/82 27/17/83
f 19/20/84 18/19/85 27/17/86
f 20/21/87 19/20/88 27/17/89
f 15/16/90 20/21/91 27/17/92
f 21/22/93 22/23/94 28/24/95
f 22/23/96 23/25/97 28/24/98
f 23/25/99 24/26/100 28/24/101
f 24/26/102 25/27/103 28/24/104
f 25/27/105 26/28/106 28/24/107
f 26/28/108 21/22/109 28/24/110
f 30/29/111 29/30/112 25/27/113 24/26/114
f 31/31/115 30/29/116 24/26/117 23/25/118
f 32/32/119 31/31/120 23/25/121 22/23/122
f 33/33/123 32/32/124 22/23/125 21/22/126
f 34/34/127 33/33/128 21/22/129 26/28/130
f 29/30/131 34/34/132 26/28/133 25/27/134
f 36/35/135 35/36/136 29/37/137 30/38/138
f 37/39/139 36/35/140 30/38/141 31/40/142
f 38/41/143 37/39/144 31/40/145 32/42/146
f 39/43/147 38/41/148 32/42/149 33/44/150
f 40/45/151 39/43/152 33/44/153 34/46/154
f 35/36/155 40/45/156 34/46/157 29/37/158
f 42/47/159 41/48/160 35/49/161 36/50/162
f 43/51/163 42/47/164 36/50/165 37/52/166
f 44/53/167 43/51/168 37/52/169 38/54/170
f 45/55/171 44/53/172 38/54/173 39/56/174
f 46/57/175 45/55/176 39/56/177 40/58/178
f 41/48/179 46/57/180 40/58/181 35/49/182
f 48/59/183 47/60/184 41/61/185 42/62/186
f 49/63/187 48/59/188 42/62/189 43/64/190
f 50/65/191 49/63/192 43/64/193 44/66/194
f 51/67/195 50/65/196 44/66/197 45/68/198
f 52/69/199 51/67/200 45/68/201 46/70/202
f 47/60/203 52/69/204 46/70/205 41/61/206
f 54/71/207 53/72/208 47/73/209 48/74/210
f 55/75/211 54/71/212 48/74/213 49/76/214
f 56/77/215 55/75/216 49/76/217 50/78/218
f 57/79/219 56/77/220 50/78/221 51/80/222
f 58/81/223 57/79/224 51/80/225 52/82/226
f 53/72/227 58/81/228 52/82/229 47/73/230
