# This file uses centimeters as units for non-parametric coordinates.

v 3.141503 1.327300 13.520821
v -3.141513 1.327300 13.520821
v 3.141503 1.327300 -13.520821
v -3.141513 1.327300 -13.520821
v 25.059898 0.017847 -13.520821
v -25.062336 0.060690 -13.520821
v 25.059898 0.017847 13.520820
v -25.062336 0.060690 13.520820
v 0.000007 1.999928 -13.520820
v 0.000007 1.999928 13.520821
v 2.784119 2.300969 -13.520821
v 0.000007 2.940694 -13.520821
v -2.782448 2.303462 -13.520821
v -25.067947 1.029987 -13.520821
v 25.067335 0.987135 -13.520821
v -25.067947 1.029987 13.520820
v 25.067335 0.987135 13.520820
v -2.782448 2.303462 13.520820
v 0.000007 2.940694 13.520821
v 2.784119 2.300969 13.520820
v 2.989749 2.286149 -13.242716
v 0.000012 2.892210 -13.242715
v -2.988055 2.289123 -13.242716
v -24.796259 1.069178 -13.242716
v 24.795727 1.027632 -13.242716
v -24.796259 1.069178 13.242722
v 24.795727 1.027632 13.242722
v -2.988055 2.289123 13.242722
v 0.000012 2.892210 13.242722
v 2.989749 2.286149 13.242722
v 21.703825 4.086216 -13.242716
v 4.690731 6.255846 -13.242716
v 4.690731 6.255846 13.242722
v 21.703825 4.086216 13.242722
v 0.000032 4.147410 -13.242715
v 0.000032 4.147410 13.242722
v -4.688875 6.258820 -13.242716
v -4.688875 6.258820 13.242722
v -21.704357 4.127762 -13.242716
v -21.704357 4.127762 13.242722
vt 0.215713 0.472062
vt 0.215713 0.472062
vt 0.215713 0.472063
vt 0.215713 0.472063
vt 0.215713 0.472063
vt 0.215713 0.472063
vt 0.215713 0.472062
vt 0.215713 0.472062
vt 0.215713 0.472062
vt 0.215713 0.472062
vt 0.215713 0.472062
vt 0.215713 0.472063
vt 0.215713 0.472062
vt 0.215713 0.472063
vt 0.215713 0.472063
vt 0.215713 0.472062
vt 0.215713 0.472062
vt 0.215713 0.472063
vt 0.215713 0.472063
vt 0.215713 0.472063
vt 0.215713 0.472063
vt 0.215713 0.472063
vt 0.215713 0.472062
vt 0.215713 0.472062
vt 0.215713 0.472062
vt 0.215713 0.472062
vt 0.215713 0.472062
vt 0.215713 0.472063
vt 0.215713 0.472063
vt 0.215713 0.472063
vt 0.215713 0.472063
vt 0.215713 0.472063
vt 0.215713 0.472062
vt 0.215713 0.472062
vt 0.215713 0.472062
vt 0.215713 0.472062
vt 0.215713 0.472062
vt 0.387108 0.490862
vt 0.387372 0.490861
vt 0.387247 0.491084
vt 0.386916 0.491071
vt 0.387437 0.490893
vt 0.387331 0.491126
vt 0.387505 0.490876
vt 0.387417 0.491110
vt 0.387802 0.490943
vt 0.387806 0.491209
vt 0.387067 0.490899
vt 0.387389 0.490921
vt 0.387270 0.491157
vt 0.386868 0.491112
vt 0.387435 0.490937
vt 0.387330 0.491179
vt 0.387483 0.490933
vt 0.387391 0.491177
vt 0.387848 0.490996
vt 0.387868 0.491276
vn 0.206078 -0.978536 0.000000
vn 0.206078 -0.978536 0.000000
vn 0.206078 -0.978536 0.000000
vn 0.206078 -0.978536 0.000000
vn 0.056742 -0.998389 0.000000
vn 0.056742 -0.998389 0.000000
vn 0.056742 -0.998389 0.000000
vn 0.056742 -0.998389 0.000000
vn -0.058661 -0.998278 0.000000
vn -0.058661 -0.998278 0.000000
vn -0.058661 -0.998278 0.000000
vn -0.058661 -0.998278 0.000000
vn -0.206079 -0.978535 0.000000
vn -0.206079 -0.978535 0.000000
vn -0.206079 -0.978535 0.000000
vn -0.206079 -0.978535 0.000000
vn 0.000000 -0.000001 -1.000000
vn 0.000000 -0.000001 -1.000000
vn 0.000000 -0.000001 -1.000000
vn 0.000000 -0.000001 -1.000000
vn 0.000000 -0.000001 -1.000000
vn 0.000000 -0.000001 -1.000000
vn 0.000000 -0.000001 -1.000000
vn 0.000000 -0.000001 -1.000000
vn 0.000000 0.000000 -1.000000
vn 0.000000 0.000000 -1.000000
vn 0.000000 0.000000 -1.000000
vn 0.000000 0.000000 -1.000000
vn 0.000000 0.000000 -1.000000
vn 0.000000 0.000000 -1.000000
vn 0.000000 0.000000 -1.000000
vn 0.000000 0.000000 -1.000000
vn -0.999983 -0.005884 0.000000
vn -0.999983 -0.005884 0.000000
vn -0.999983 -0.005884 0.000000
vn -0.999983 -0.005884 0.000000
vn 0.999970 -0.007799 0.000000
vn 0.999970 -0.007799 0.000000
vn 0.999970 -0.007799 0.000000
vn 0.999970 -0.007799 0.000000
vn -0.000000 0.000000 1.000000
vn -0.000000 0.000000 1.000000
vn -0.000000 0.000000 1.000000
vn -0.000000 0.000000 1.000000
vn -0.000000 0.000001 1.000000
vn -0.000000 0.000001 1.000000
vn -0.000000 0.000001 1.000000
vn -0.000000 0.000001 1.000000
vn 0.000000 0.000001 1.000000
vn 0.000000 0.000001 1.000000
vn 0.000000 0.000001 1.000000
vn 0.000000 0.000001 1.000000
vn 0.000000 0.000001 1.000000
vn 0.000000 0.000001 1.000000
vn 0.000000 0.000001 1.000000
vn 0.000000 0.000001 1.000000
vn 0.209287 0.977779 0.012144
vn 0.209287 0.977779 0.012144
vn 0.209287 0.977779 0.012144
vn 0.209287 0.977779 0.012144
vn -0.208523 0.977944 0.011999
vn -0.208523 0.977944 0.011999
vn -0.208523 0.977944 0.011999
vn -0.208523 0.977944 0.011999
vn -0.055988 0.998429 0.002075
vn -0.055988 0.998429 0.002075
vn -0.055988 0.998429 0.002075
vn -0.055988 0.998429 0.002075
vn 0.057760 0.998328 0.002123
vn 0.057760 0.998328 0.002123
vn 0.057760 0.998328 0.002123
vn 0.057760 0.998328 0.002123
vn -0.056740 0.998389 0.000000
vn -0.056740 0.998389 0.000000
vn -0.056740 0.998389 0.000000
vn -0.056740 0.998389 0.000000
vn 0.058632 0.998280 0.000000
vn 0.058632 0.998280 0.000000
vn 0.058632 0.998280 0.000000
vn 0.058632 0.998280 0.000000
vn -0.055988 0.998429 -0.002075
vn -0.055988 0.998429 -0.002075
vn -0.055988 0.998429 -0.002075
vn -0.055988 0.998429 -0.002075
vn -0.208523 0.977944 -0.011999
vn -0.208523 0.977944 -0.011999
vn -0.208523 0.977944 -0.011999
vn -0.208523 0.977944 -0.011999
vn 0.209287 0.977779 -0.012144
vn 0.209287 0.977779 -0.012144
vn 0.209287 0.977779 -0.012144
vn 0.209287 0.977779 -0.012144
vn 0.057760 0.998328 -0.002123
vn 0.057760 0.998328 -0.002123
vn 0.057760 0.998328 -0.002123
vn 0.057760 0.998328 -0.002123
vn 0.126502 0.991966 0.000000
vn 0.126502 0.991966 0.000000
vn 0.126502 0.991966 0.000000
vn 0.126502 0.991966 0.000000
vn -0.409980 0.912095 0.000000
vn -0.409980 0.912095 0.000000
vn -0.409980 0.912095 0.000000
vn -0.409980 0.912095 0.000000
vn 0.410591 0.911820 0.000000
vn 0.410591 0.911820 0.000000
vn 0.410591 0.911820 0.000000
vn 0.410591 0.911820 0.000000
vn -0.124271 0.992248 0.000000
vn -0.124271 0.992248 0.000000
vn -0.124271 0.992248 0.000000
vn -0.124271 0.992248 0.000000
vn 0.000000 0.000000 -1.000000
vn 0.000000 0.000000 -1.000000
vn 0.000000 0.000000 -1.000000
vn 0.000000 0.000000 -1.000000
vn -0.000000 0.000000 1.000000
vn -0.000000 0.000000 1.000000
vn -0.000000 0.000000 1.000000
vn -0.000000 0.000000 1.000000
vn 0.703266 0.710927 0.000000
vn 0.703266 0.710927 0.000000
vn 0.703266 0.710927 0.000000
vn 0.703266 0.710927 0.000000
vn 0.000000 0.000000 -1.000000
vn 0.000000 0.000000 -1.000000
vn 0.000000 0.000000 -1.000000
vn 0.000000 0.000000 -1.000000
vn 0.000000 0.000000 1.000000
vn 0.000000 0.000000 1.000000
vn 0.000000 0.000000 1.000000
vn 0.000000 0.000000 1.000000
vn 0.000000 0.000000 -1.000000
vn 0.000000 0.000000 -1.000000
vn 0.000000 0.000000 -1.000000
vn 0.000000 0.000000 -1.000000
vn -0.000000 0.000000 1.000000
vn -0.000000 0.000000 1.000000
vn -0.000000 0.000000 1.000000
vn -0.000000 0.000000 1.000000
vn 0.000000 0.000000 -1.000000
vn 0.000000 0.000000 -1.000000
vn 0.000000 0.000000 -1.000000
vn 0.000000 0.000000 -1.000000
vn -0.703266 0.710927 0.000000
vn -0.703266 0.710927 0.000000
vn -0.703266 0.710927 0.000000
vn -0.703266 0.710927 0.000000
vn 0.000000 0.000000 1.000000
vn 0.000000 0.000000 1.000000
vn 0.000000 0.000000 1.000000
vn 0.000000 0.000000 1.000000
s off
f 4/4/1 9/15/2 10/16/3 2/2/4
f 8/11/5 6/12/6 4/4/7 2/2/8
f 5/14/9 7/13/10 1/1/11 3/3/12
f 9/15/13 3/3/14 1/1/15 10/16/16
f 3/3/17 9/15/18 12/19/19 11/18/20
f 9/15/21 4/4/22 13/20/23 12/19/24
f 4/4/25 6/6/26 14/21/27 13/20/28
f 5/5/29 3/3/30 11/18/31 15/22/32
f 6/6/33 8/8/34 16/23/35 14/21/36
f 7/7/37 5/5/38 15/22/39 17/24/40
f 8/8/41 2/10/42 18/25/43 16/23/44
f 2/10/45 10/17/46 19/26/47 18/25/48
f 10/17/49 1/9/50 20/27/51 19/26/52
f 1/9/53 7/7/54 17/24/55 20/27/56
f 11/18/57 12/19/58 22/29/59 21/28/60
f 12/19/61 13/20/62 23/30/63 22/29/64
f 13/20/65 14/21/66 24/31/67 23/30/68
f 15/22/69 11/18/70 21/28/71 25/32/72
f 14/21/73 16/23/74 26/33/75 24/31/76
f 17/24/77 15/22/78 25/32/79 27/34/80
f 16/23/81 18/25/82 28/35/83 26/33/84
f 18/25/85 19/26/86 29/36/87 28/35/88
f 19/26/89 20/27/90 30/37/91 29/36/92
f 20/27/93 17/24/94 27/34/95 30/37/96
f 32/39/97 33/40/98 34/41/99 31/38/100
f 32/39/101 35/42/102 36/43/103 33/40/104
f 35/42/105 37/44/106 38/45/107 36/43/108
f 38/45/109 37/44/110 39/46/111 40/47/112
f 21/49/113 32/39/114 31/38/115 25/48/116
f 33/40/117 30/50/118 27/51/119 34/41/120
f 27/51/121 25/48/122 31/38/123 34/41/124
f 21/49/125 22/52/126 35/42/127 32/39/128
f 29/53/129 30/50/130 33/40/131 36/43/132
f 22/52/133 23/54/134 37/44/135 35/42/136
f 28/55/137 29/53/138 36/43/139 38/45/140
f 37/44/141 23/54/142 24/56/143 39/46/144
f 24/56/145 26/57/146 40/47/147 39/46/148
f 28/55/149 38/45/150 40/47/151 26/57/152
