# This file uses centimeters as units for non-parametric coordinates.

v -0.000015 -29.760284 11.715418
v 249.999985 -29.760284 11.715418
v -0.000015 0.000015 19.958359
v 249.999985 0.000015 19.958359
v -0.000015 0.000015 -0.000004
v 249.999985 0.000015 -0.000004
v -0.000015 -29.760284 -0.000004
v 249.999985 -29.760284 -0.000004
v -0.000015 -23.640076 19.958359
v 249.999985 -23.640076 19.958359
v 244.257339 -29.760284 11.715418
v 5.742630 -29.760284 11.715418
v 5.742630 -25.476135 17.485481
v 244.257339 -25.476135 17.485481
v 244.257339 -29.760284 5.793472
v 5.742630 -29.760284 5.793472
v 5.742630 -22.584320 5.793472
v 244.257339 -22.584320 5.793472
v 5.742630 -19.938202 10.145561
v 244.257339 -19.938202 10.145561
vt 0.102367 0.353139
vt 0.101371 0.353317
vt 0.101389 0.353242
vt 0.102342 0.353050
vt 0.101427 0.353270
vt 0.102337 0.353096
vt 0.101407 0.353361
vt 0.102368 0.353206
vt 0.101418 0.353355
vt 0.102340 0.353205
vt 0.101387 0.353350
vt 0.102371 0.353185
vt 0.102338 0.353158
vt 0.101393 0.353324
vt 0.102341 0.353190
vt 0.101404 0.353347
vt 0.101404 0.353321
vt 0.101423 0.353333
vt 0.102335 0.353158
vt 0.102333 0.353178
vt 0.484315 0.008060
vt 0.485315 0.007885
vt 0.485312 0.007907
vt 0.484335 0.008073
vn 0.000000 0.000000 1.000000
vn 0.000000 0.000000 1.000000
vn 0.000000 0.000000 1.000000
vn 0.000000 0.000000 1.000000
vn 0.000000 1.000000 0.000000
vn 0.000000 1.000000 0.000000
vn 0.000000 1.000000 0.000000
vn 0.000000 1.000000 0.000000
vn 0.000000 0.000000 -1.000000
vn 0.000000 0.000000 -1.000000
vn 0.000000 0.000000 -1.000000
vn 0.000000 0.000000 -1.000000
vn 0.000000 -1.000000 0.000000
vn 0.000000 -1.000000 0.000000
vn 0.000000 -1.000000 0.000000
vn 0.000000 -1.000000 0.000000
vn 1.000000 0.000000 0.000000
vn 1.000000 0.000000 0.000000
vn 1.000000 0.000000 0.000000
vn 1.000000 0.000000 0.000000
vn 1.000000 0.000000 0.000000
vn -1.000000 0.000000 0.000000
vn -1.000000 0.000000 0.000000
vn -1.000000 0.000000 0.000000
vn -1.000000 0.000000 0.000000
vn -1.000000 0.000000 0.000000
vn 0.000000 -0.802889 0.596128
vn 0.000000 -0.802889 0.596128
vn 0.000000 -0.802889 0.596128
vn 0.000000 -0.802889 0.596128
vn 0.000000 -0.802889 0.596128
vn 0.000000 -0.802889 0.596128
vn 0.000000 -0.802889 0.596128
vn 0.000000 -0.802889 0.596128
vn 0.000000 -0.802889 0.596128
vn 0.000000 -0.802889 0.596128
vn 0.000000 -0.802889 0.596128
vn 0.000000 -0.802889 0.596128
vn 0.000000 -1.000000 0.000000
vn 0.000000 -1.000000 0.000000
vn 0.000000 -1.000000 0.000000
vn 0.000000 -1.000000 0.000000
vn 0.000000 -1.000000 0.000000
vn 0.000000 -1.000000 0.000000
vn 0.000000 -1.000000 0.000000
vn 0.000000 -1.000000 0.000000
vn -1.000000 0.000000 0.000000
vn -1.000000 0.000000 0.000000
vn -1.000000 0.000000 0.000000
vn -1.000000 0.000000 0.000000
vn 0.000000 -0.798274 -0.602294
vn 0.000000 -0.798274 -0.602294
vn 0.000000 -0.798274 -0.602294
vn 0.000000 -0.798274 -0.602294
vn 1.000000 0.000000 0.000000
vn 1.000000 0.000000 0.000000
vn 1.000000 0.000000 0.000000
vn 1.000000 0.000000 0.000000
vn 0.000000 0.000000 1.000000
vn 0.000000 0.000000 1.000000
vn 0.000000 0.000000 1.000000
vn 0.000000 0.000000 1.000000
vn -1.000000 0.000000 0.000000
vn -1.000000 0.000000 0.000000
vn -1.000000 0.000000 0.000000
vn 1.000000 0.000000 0.000000
vn 1.000000 0.000000 0.000000
vn 1.000000 0.000000 0.000000
vn 0.000000 -0.854458 0.519520
vn 0.000000 -0.854458 0.519520
vn 0.000000 -0.854458 0.519520
vn 0.000000 -0.854458 0.519520
s off
f 9/1/1 10/2/2 4/3/3 3/4/4
f 3/4/5 4/3/6 6/5/7 5/6/8
f 5/6/9 6/5/10 8/7/11 7/8/12
f 7/8/13 8/7/14 15/9/15 16/10/16
f 2/11/17 8/7/18 6/5/19 4/3/20 10/2/21
f 7/8/22 1/12/23 9/1/24 3/4/25 5/6/26
f 13/13/27 14/14/28 10/2/29 9/1/30
f 9/1/31 1/12/32 12/15/33 13/13/34
f 2/11/35 10/2/36 14/14/37 11/16/38
f 8/7/39 2/11/40 11/16/41 15/9/42
f 1/12/43 7/8/44 16/10/45 12/15/46
f 11/16/47 14/14/48 20/17/49 18/18/50
f 14/14/51 13/13/52 19/19/53 20/17/54
f 13/13/55 12/15/56 17/20/57 19/19/58
f 16/10/59 15/9/60 18/18/61 17/20/62
f 15/9/63 11/16/64 18/18/65
f 12/15/66 16/10/67 17/20/68
f 20/21/69 19/22/70 17/23/71 18/24/72
