# This file uses centimeters as units for non-parametric coordinates.

v -18.871338 0.000000 0.000000
v 19.358521 0.000000 0.000000
v -18.871338 0.000000 -28.129089
v 19.358521 0.000000 -28.129089
v -7.188110 0.000000 -28.129089
v -18.176270 0.000000 -30.091949
v -7.883179 0.000000 -30.091949
v -18.871338 2.571938 0.000000
v -7.188110 2.571939 -27.788788
v 19.358521 2.571938 0.000000
v 19.358521 2.571939 -27.788788
v -7.188110 1.772968 -27.788788
v 19.358521 1.772968 -27.788788
v 19.358521 0.809281 -28.129089
v -7.188110 0.809281 -28.129089
v -7.883179 0.809281 -30.091949
v -18.176270 0.809281 -30.091949
v -18.871338 0.809281 -28.129059
v -18.871338 0.809281 -1.251160
v 19.358521 0.809281 -1.251190
v -18.871338 1.772968 -1.251190
v 19.358521 1.772968 -1.251160
v -18.871338 1.291126 -0.782227
v 19.358521 1.291126 -0.782227
v 19.358521 1.291126 0.571442
v -18.871338 1.291126 0.571442
v 5.312866 2.571938 -20.734192
v 17.845337 2.571938 -20.734192
v 17.845337 2.571939 -25.946838
v 5.312866 2.571939 -25.946838
v -7.901611 2.571939 -26.176453
v -18.871338 2.571939 -26.176453
v -18.871338 1.772969 -26.176453
v -7.901611 1.772968 -26.176453
v -9.525757 0.809281 -27.655457
v -16.970581 0.809281 -27.655457
v -16.970581 0.809278 -29.436432
v -9.525757 0.809278 -29.436432
vt 0.003669 0.326203
vt 0.112681 0.206773
vt 0.003669 0.326203
vt 0.003669 0.326203
vt 0.003669 0.326203
vt 0.332868 0.330961
vt 0.331875 0.330958
vt 0.331868 0.330545
vt 0.332868 0.330549
vt 0.003669 0.326203
vt 0.003669 0.326203
vt 0.003669 0.326203
vt 0.003669 0.326203
vt 0.003669 0.326203
vt 0.003669 0.326203
vt 0.003669 0.326203
vt 0.003669 0.326203
vt 0.003669 0.326203
vt 0.003669 0.326203
vt 0.003669 0.326203
vt 0.003669 0.326203
vt 0.003669 0.326203
vt 0.003669 0.326203
vt 0.003669 0.326203
vt 0.003669 0.326203
vt 0.003669 0.326203
vt 0.003669 0.326203
vt 0.003669 0.326203
vt 0.003669 0.326203
vt 0.003669 0.326203
vt 0.003669 0.326203
vt 0.003669 0.326203
vt 0.003669 0.326203
vt 0.003669 0.326203
vt 0.003669 0.326203
vt 0.003669 0.326203
vt 0.003669 0.326203
vt 0.003669 0.326203
vt 0.003669 0.326203
vt 0.003669 0.326203
vt 0.003669 0.326203
vt 0.003669 0.326203
vt 0.003669 0.326203
vt 0.003669 0.326203
vt 0.003669 0.326203
vt 0.003669 0.326203
vt 0.003669 0.326203
vt 0.003669 0.326203
vt 0.003669 0.326203
vt 0.003669 0.326203
vt 0.003669 0.326203
vt 0.003669 0.326203
vt 0.003669 0.326203
vt 0.003669 0.326203
vt 0.003669 0.326203
vt 0.003669 0.326203
vt 0.003669 0.326203
vt 0.003669 0.326203
vt 0.003669 0.326203
vt 0.003669 0.326203
vt 0.003669 0.326203
vt 0.003669 0.326203
vt 0.003669 0.326203
vt 0.112907 0.206716
vt 0.113144 0.207659
vt 0.112918 0.207716
vn 0.000000 1.000000 0.000000
vn 0.000000 1.000000 0.000000
vn 0.000000 1.000000 0.000000
vn 0.000000 1.000000 0.000000
vn 0.000000 1.000000 0.000000
vn 0.000000 1.000000 0.000000
vn 0.000000 1.000000 0.000000
vn 0.000000 -1.000000 0.000000
vn 0.000000 -1.000000 0.000000
vn 0.000000 -1.000000 0.000000
vn 0.000000 -1.000000 0.000000
vn 0.000000 -1.000000 0.000000
vn 0.000000 -1.000000 0.000000
vn 0.000000 -1.000000 0.000000
vn 0.000000 -1.000000 0.000000
vn 0.000000 -1.000000 0.000000
vn 0.000000 -1.000000 0.000000
vn 0.000000 -1.000000 0.000000
vn -1.000000 0.000000 0.000000
vn -1.000000 0.000000 0.000000
vn -1.000000 0.000000 0.000000
vn -1.000000 0.000000 0.000000
vn 0.000000 0.000000 -1.000000
vn 0.000000 0.000000 -1.000000
vn 0.000000 0.000000 -1.000000
vn 0.000000 0.000000 -1.000000
vn 1.000000 0.000000 0.000000
vn 1.000000 0.000000 0.000000
vn 1.000000 0.000000 0.000000
vn 1.000000 0.000000 0.000000
vn 1.000000 0.000000 0.000000
vn 1.000000 0.000000 0.000000
vn 1.000000 0.000000 0.000000
vn 1.000000 0.000000 0.000000
vn 0.000000 0.000000 -1.000000
vn 0.000000 0.000000 -1.000000
vn 0.000000 0.000000 -1.000000
vn 0.000000 0.000000 -1.000000
vn 0.942644 0.000000 -0.333800
vn 0.942644 0.000000 -0.333800
vn 0.942644 0.000000 -0.333800
vn 0.942644 0.000000 -0.333800
vn 0.000000 0.000000 -1.000000
vn 0.000000 0.000000 -1.000000
vn 0.000000 0.000000 -1.000000
vn 0.000000 0.000000 -1.000000
vn -0.942645 0.000007 -0.333797
vn -0.942645 0.000007 -0.333797
vn -0.942645 0.000007 -0.333797
vn -0.942645 0.000007 -0.333797
vn -1.000000 0.000000 0.000000
vn -1.000000 0.000000 0.000000
vn -1.000000 0.000000 0.000000
vn -1.000000 0.000000 0.000000
vn 0.000000 1.000000 0.000000
vn 0.000000 1.000000 0.000000
vn 0.000000 1.000000 0.000000
vn 0.000000 1.000000 0.000000
vn 0.000001 1.000000 -0.000001
vn 0.000000 1.000000 -0.000001
vn 0.000000 1.000000 0.000001
vn 0.000001 1.000000 0.000001
vn 0.000000 -0.697454 -0.716630
vn 0.000000 -0.697454 -0.716630
vn 0.000000 -0.697454 -0.716630
vn 0.000000 -0.697454 -0.716630
vn 1.000000 0.000001 0.000000
vn 1.000000 0.000001 0.000000
vn 1.000000 0.000001 0.000000
vn 1.000000 0.000001 0.000000
vn 0.000000 0.407443 0.913231
vn 0.000000 0.407443 0.913231
vn 0.000000 0.407443 0.913231
vn 0.000000 0.407443 0.913231
vn -1.000000 -0.000001 0.000000
vn -1.000000 -0.000001 0.000000
vn -1.000000 -0.000001 0.000000
vn -1.000000 -0.000001 0.000000
vn 1.000000 0.000001 0.000000
vn 1.000000 0.000001 0.000000
vn 1.000000 0.000001 0.000000
vn 1.000000 0.000001 0.000000
vn -0.000000 0.697451 -0.716632
vn -0.000000 0.697451 -0.716632
vn -0.000000 0.697451 -0.716632
vn -0.000000 0.697451 -0.716632
vn -1.000000 0.000002 0.000000
vn -1.000000 0.000002 0.000000
vn -1.000000 0.000002 0.000000
vn -1.000000 0.000002 0.000000
vn 0.000000 -0.404723 0.914439
vn 0.000000 -0.404723 0.914439
vn 0.000000 -0.404723 0.914439
vn 0.000000 -0.404723 0.914439
vn 0.000000 1.000000 0.000000
vn 0.000000 1.000000 0.000000
vn 0.000000 1.000000 0.000000
vn 0.000000 1.000000 0.000000
vn -0.000001 1.000000 0.000000
vn -0.000001 1.000000 0.000000
vn -0.000001 1.000000 0.000000
vn -0.000001 1.000000 0.000000
vn 0.000000 1.000000 -0.000000
vn 0.000000 1.000000 -0.000000
vn 0.000000 1.000000 -0.000000
vn 0.000000 1.000000 -0.000000
vn -0.000000 1.000000 0.000000
vn 0.000000 1.000000 0.000000
vn 0.000000 1.000000 0.000000
vn -0.000000 1.000000 0.000000
vn -0.000000 -1.000000 -0.000000
vn -0.000000 -1.000000 -0.000000
vn 0.000000 -1.000000 0.000000
vn -0.000000 -1.000000 -0.000000
vn -0.000000 -1.000000 -0.000000
vn -0.000000 -1.000000 -0.000000
vn -0.914461 0.000000 -0.404673
vn -0.914461 0.000000 -0.404673
vn -0.136709 0.000000 -0.990611
vn -0.136709 0.000000 -0.990611
vn -0.136709 0.000000 -0.990611
vn -0.136709 0.000000 -0.990611
vn 0.000000 0.000000 -1.000000
vn 0.000000 0.000000 -1.000000
vn 0.000000 1.000000 0.000000
vn 0.000000 1.000000 0.000000
vn 0.000000 1.000000 0.000000
vn 0.000000 -1.000000 0.000000
vn -0.000000 -1.000000 -0.000000
vn 0.000000 -1.000000 0.000000
vn 0.000000 -1.000000 0.000000
vn -0.000000 1.000000 -0.000001
vn -0.000000 1.000000 0.000001
vn 0.000000 1.000000 0.000001
vn 0.000000 1.000000 -0.000001
vn 0.000000 1.000000 0.000000
vn 0.000000 1.000000 0.000000
vn 0.000000 1.000000 0.000000
vn 0.000000 1.000000 0.000000
vn 0.000000 1.000000 0.000000
vn 0.000000 1.000000 0.000000
vn 0.000000 1.000000 0.000000
vn -0.000001 1.000000 0.000001
vn -0.000000 1.000000 0.000001
vn -0.000000 1.000000 -0.000001
vn -0.000001 1.000000 -0.000001
vn 0.000001 1.000000 0.000001
vn 0.000000 1.000000 0.000001
vn -0.000000 1.000000 0.000001
vn -0.000001 1.000000 0.000001
s off
f 8/3/1 31/4/2 32/5/3
f 27/6/4 28/7/5 29/8/6 30/9/7
f 1/10/8 3/11/9 5/12/10
f 1/10/11 5/12/12 4/13/13 2/14/14
f 3/15/15 6/16/16 7/17/17 5/18/18
f 32/5/19 33/19/20 21/20/21 8/3/22
f 13/21/23 12/22/24 9/23/25 11/24/26
f 10/25/27 22/26/28 13/21/29 11/24/30
f 2/27/31 4/28/32 14/29/33 20/30/34
f 4/28/35 5/31/36 15/32/37 14/29/38
f 5/33/39 7/34/40 16/35/41 15/36/42
f 7/34/43 6/37/44 17/38/45 16/35/46
f 6/37/47 3/39/48 18/40/49 17/38/50
f 3/41/51 1/42/52 19/43/53 18/44/54
f 35/45/55 20/30/56 14/29/57 15/36/58
f 18/44/59 36/46/60 37/47/61 17/38/62
f 21/48/63 22/26/64 24/49/65 23/50/66
f 22/26/67 10/25/68 25/51/69 24/49/70
f 10/25/71 8/3/72 26/52/73 25/51/74
f 8/3/75 21/48/76 23/50/77 26/52/78
f 2/27/79 20/30/80 24/53/81 25/54/82
f 20/30/83 19/43/84 23/55/85 24/53/86
f 19/43/87 1/42/88 26/56/89 23/55/90
f 1/42/91 2/27/92 25/54/93 26/56/94
f 8/3/95 10/25/96 28/57/97 27/58/98
f 10/25/99 11/24/100 29/59/101 28/57/102
f 11/24/103 9/23/104 30/60/105 29/59/106
f 9/23/107 31/61/108 27/58/109 30/60/110
f 21/48/111 34/62/112 22/26/113
f 33/63/114 34/62/115 21/48/116
f 9/23/117 12/22/118 34/62/119 31/61/120
f 31/61/121 34/62/122 33/19/123 32/5/124
f 27/58/125 31/61/126 8/3/127
f 22/26/128 34/62/129 12/22/130 13/21/131
f 35/2/132 38/64/133 37/65/134 36/66/135
f 19/43/136 36/46/137 18/44/138
f 19/43/139 20/30/140 35/45/141 36/46/142
f 16/35/143 38/1/144 35/45/145 15/36/146
f 17/38/147 37/47/148 38/1/149 16/35/150
