# This file uses centimeters as units for non-parametric coordinates.

v 6.703339 0.000000 -6.703373
v 0.000000 0.000000 -9.479919
v -6.703312 0.000000 -6.703373
v -9.479927 0.000000 -0.000061
v -6.703312 0.000000 6.703247
v 0.000000 0.000000 9.479828
v 6.703339 0.000000 6.703247
v 9.479965 0.000000 -0.000061
v 7.326874 5.264465 -7.326969
v 0.000015 5.264465 -10.361816
v -7.326862 5.264465 -7.326969
v -10.361763 5.264465 -0.000061
v -7.326862 5.264465 7.326813
v 0.000015 5.264465 10.361664
v 7.326874 5.264465 7.326813
v 10.361740 5.264465 -0.000061
v 3.058937 0.000000 -3.059010
v 0.000008 0.000000 -4.326042
v -3.058899 0.000000 -3.059010
v -4.325939 0.000000 -0.000077
v -3.058899 0.000000 3.058828
v 0.000008 0.000000 4.325890
v 3.058937 0.000000 3.058828
v 4.326000 0.000000 -0.000077
v 3.058937 6.029854 -3.059010
v 0.000008 6.029854 -4.326042
v -3.058899 6.029854 -3.059010
v -4.325939 6.029854 -0.000077
v -3.058899 6.029854 3.058828
v 0.000008 6.029854 4.325890
v 3.058937 6.029854 3.058828
v 4.326000 6.029854 -0.000077
v 2.314108 3.014923 -2.314211
v 0.000008 3.014923 -3.272682
v -2.314075 3.014923 -2.314211
v -3.272587 3.014923 -0.000077
v -2.314075 3.014923 2.313969
v 0.000008 3.014923 3.272526
v 2.314108 3.014923 2.313969
v 3.272621 3.014923 -0.000077
v 7.703690 2.611359 -7.703735
v 0.000000 2.611359 -10.894653
v -7.703659 2.611359 -7.703735
v -10.894630 2.611359 -0.000061
v -7.703659 2.611359 7.703613
v 0.000000 2.611359 10.894531
v 7.703690 2.611359 7.703613
v 10.894630 2.611359 -0.000061
v 5.194698 6.799492 -5.194786
v 0.000019 6.799492 -7.346432
v -5.194687 6.799492 -5.194786
v -7.346424 6.799492 -0.000069
v -5.194687 6.799492 5.194633
v 0.000019 6.799492 7.346336
v 5.194698 6.799492 5.194633
v 7.346451 6.799492 -0.000069
vt 0.048062 0.374534
vt 0.048373 0.374326
vt 0.047677 0.326764
vt 0.047927 0.326646
vt 0.048744 0.374375
vt 0.047950 0.326562
vt 0.048983 0.374660
vt 0.047731 0.326658
vt 0.048942 0.375039
vt 0.048256 0.326627
vt 0.048619 0.375285
vt 0.048243 0.326546
vt 0.048209 0.375224
vt 0.048545 0.326709
vt 0.047983 0.374902
vt 0.048498 0.326613
vt 0.048396 0.374438
vt 0.048139 0.374612
vt 0.048274 0.374690
vt 0.048432 0.374581
vt 0.048703 0.374480
vt 0.048623 0.374607
vt 0.048898 0.374717
vt 0.048742 0.374755
vt 0.048862 0.375029
vt 0.048717 0.374945
vt 0.048598 0.375228
vt 0.048556 0.375063
vt 0.048264 0.375179
vt 0.048355 0.375034
vt 0.048078 0.374916
vt 0.048240 0.374877
vt 0.048658 0.326877
vt 0.048590 0.326747
vt 0.048447 0.327056
vt 0.048402 0.326885
vt 0.047984 0.327094
vt 0.048006 0.326914
vt 0.047658 0.326951
vt 0.047723 0.326804
vt 0.048317 0.374680
vt 0.048442 0.374594
vt 0.048593 0.374615
vt 0.048686 0.374732
vt 0.048666 0.374881
vt 0.048539 0.374973
vt 0.048382 0.374950
vt 0.048290 0.374828
vt 0.048019 0.326612
vt 0.047888 0.326674
vt 0.048208 0.326601
vt 0.048368 0.326645
vt 0.048413 0.326728
vt 0.048292 0.326806
vt 0.048065 0.326822
vt 0.047895 0.326762
vt 0.048051 0.326744
vt 0.047954 0.326796
vt 0.048193 0.326734
vt 0.048312 0.326772
vt 0.048342 0.326841
vt 0.048252 0.326902
vt 0.048089 0.326914
vt 0.047964 0.326867
vt 0.047809 0.326666
vt 0.047984 0.326587
vt 0.048226 0.326574
vt 0.048433 0.326629
vt 0.048502 0.326738
vt 0.048347 0.326845
vt 0.048036 0.326868
vt 0.047809 0.326783
vn 0.376257 0.182434 -0.908377
vn 0.376257 0.182434 -0.908377
vn 0.376256 0.182434 -0.908377
vn 0.376257 0.182434 -0.908377
vn -0.376257 0.182435 -0.908377
vn -0.376257 0.182435 -0.908377
vn -0.376257 0.182435 -0.908377
vn -0.376257 0.182435 -0.908377
vn -0.908374 0.182442 -0.376261
vn -0.908374 0.182442 -0.376261
vn -0.908374 0.182442 -0.376261
vn -0.908374 0.182442 -0.376261
vn -0.908373 0.182444 0.376261
vn -0.908373 0.182444 0.376261
vn -0.908373 0.182444 0.376261
vn -0.908373 0.182444 0.376261
vn -0.376256 0.182446 0.908375
vn -0.376256 0.182446 0.908375
vn -0.376256 0.182446 0.908375
vn -0.376256 0.182446 0.908375
vn 0.376256 0.182445 0.908375
vn 0.376256 0.182445 0.908375
vn 0.376256 0.182445 0.908375
vn 0.376256 0.182445 0.908375
vn 0.908373 0.182452 0.376257
vn 0.908373 0.182452 0.376257
vn 0.908373 0.182452 0.376257
vn 0.908373 0.182452 0.376257
vn 0.908374 0.182449 -0.376257
vn 0.908374 0.182449 -0.376257
vn 0.908374 0.182449 -0.376257
vn 0.908374 0.182449 -0.376257
vn 0.000000 -1.000000 0.000000
vn 0.000000 -1.000000 0.000000
vn 0.000000 -1.000000 0.000000
vn 0.000000 -1.000000 0.000000
vn 0.000000 -1.000000 0.000000
vn 0.000000 -1.000000 0.000000
vn 0.000000 -1.000000 0.000000
vn 0.000000 -1.000000 0.000000
vn 0.000000 -1.000000 0.000000
vn 0.000000 -1.000000 0.000000
vn 0.000000 -1.000000 0.000000
vn 0.000000 -1.000000 0.000000
vn 0.000000 -1.000000 0.000000
vn 0.000000 -1.000000 0.000000
vn 0.000000 -1.000000 0.000000
vn 0.000000 -1.000000 0.000000
vn 0.000000 -1.000000 0.000000
vn 0.000000 -1.000000 0.000000
vn 0.000000 -1.000000 0.000000
vn 0.000000 -1.000000 0.000000
vn 0.000000 -1.000000 0.000000
vn 0.000000 -1.000000 0.000000
vn 0.000000 -1.000000 0.000000
vn 0.000000 -1.000000 0.000000
vn 0.000000 -1.000000 0.000000
vn 0.000000 -1.000000 0.000000
vn 0.000000 -1.000000 0.000000
vn 0.000000 -1.000000 0.000000
vn 0.000000 -1.000000 0.000000
vn 0.000000 -1.000000 0.000000
vn 0.000000 -1.000000 0.000000
vn 0.000000 -1.000000 0.000000
vn -0.101746 0.964006 0.245641
vn -0.101746 0.964006 0.245641
vn -0.101746 0.964006 0.245641
vn -0.101746 0.964006 0.245641
vn 0.101746 0.964006 0.245641
vn 0.101746 0.964006 0.245641
vn 0.101746 0.964006 0.245641
vn 0.101746 0.964006 0.245641
vn 0.245636 0.964008 0.101746
vn 0.245636 0.964008 0.101746
vn 0.245636 0.964008 0.101746
vn 0.245636 0.964008 0.101746
vn 0.245635 0.964008 -0.101746
vn 0.245635 0.964008 -0.101746
vn 0.245635 0.964008 -0.101746
vn 0.245635 0.964008 -0.101746
vn 0.101746 0.964007 -0.245637
vn 0.101746 0.964007 -0.245637
vn 0.101746 0.964007 -0.245637
vn 0.101746 0.964007 -0.245637
vn -0.101746 0.964007 -0.245637
vn -0.101746 0.964007 -0.245637
vn -0.101746 0.964007 -0.245637
vn -0.101746 0.964007 -0.245637
vn -0.245637 0.964007 -0.101748
vn -0.245637 0.964007 -0.101748
vn -0.245637 0.964007 -0.101748
vn -0.245637 0.964007 -0.101748
vn -0.245638 0.964007 0.101748
vn -0.245638 0.964007 0.101748
vn -0.245638 0.964007 0.101748
vn -0.245638 0.964007 0.101748
vn -0.364171 -0.307175 0.879217
vn -0.364171 -0.307175 0.879217
vn -0.364171 -0.307175 0.879217
vn -0.364171 -0.307175 0.879217
vn 0.364173 -0.307175 0.879216
vn 0.364173 -0.307175 0.879216
vn 0.364173 -0.307175 0.879216
vn 0.364173 -0.307175 0.879216
vn 0.879215 -0.307175 0.364175
vn 0.879215 -0.307175 0.364175
vn 0.879215 -0.307175 0.364175
vn 0.879215 -0.307175 0.364175
vn 0.879212 -0.307179 -0.364182
vn 0.879211 -0.307179 -0.364182
vn 0.879211 -0.307179 -0.364182
vn 0.879211 -0.307179 -0.364182
vn 0.364188 -0.307183 -0.879207
vn 0.364188 -0.307183 -0.879207
vn 0.364188 -0.307183 -0.879207
vn 0.364188 -0.307183 -0.879207
vn -0.364186 -0.307183 -0.879208
vn -0.364186 -0.307183 -0.879208
vn -0.364186 -0.307183 -0.879208
vn -0.364186 -0.307183 -0.879208
vn -0.879209 -0.307183 -0.364185
vn -0.879209 -0.307183 -0.364185
vn -0.879209 -0.307183 -0.364185
vn -0.879209 -0.307183 -0.364185
vn -0.879213 -0.307180 0.364178
vn -0.879213 -0.307180 0.364178
vn -0.879213 -0.307180 0.364178
vn -0.879213 -0.307180 0.364178
vn -0.364171 0.307174 0.879217
vn -0.364171 0.307174 0.879218
vn -0.364171 0.307174 0.879217
vn -0.364171 0.307174 0.879218
vn 0.364173 0.307174 0.879217
vn 0.364173 0.307174 0.879217
vn 0.364173 0.307174 0.879217
vn 0.364173 0.307174 0.879217
vn 0.879216 0.307175 0.364175
vn 0.879216 0.307175 0.364175
vn 0.879216 0.307175 0.364175
vn 0.879216 0.307175 0.364175
vn 0.879212 0.307178 -0.364182
vn 0.879212 0.307178 -0.364182
vn 0.879212 0.307178 -0.364182
vn 0.879212 0.307178 -0.364182
vn 0.364188 0.307182 -0.879208
vn 0.364188 0.307182 -0.879208
vn 0.364188 0.307182 -0.879207
vn 0.364188 0.307182 -0.879207
vn -0.364186 0.307183 -0.879208
vn -0.364186 0.307183 -0.879208
vn -0.364186 0.307183 -0.879208
vn -0.364186 0.307183 -0.879208
vn -0.879209 0.307182 -0.364185
vn -0.879209 0.307182 -0.364185
vn -0.879209 0.307182 -0.364185
vn -0.879209 0.307182 -0.364185
vn -0.879213 0.307179 0.364178
vn -0.879213 0.307179 0.364178
vn -0.879213 0.307179 0.364178
vn -0.879213 0.307179 0.364178
vn 0.342205 -0.447586 -0.826173
vn 0.342205 -0.447586 -0.826173
vn 0.342205 -0.447586 -0.826173
vn 0.342205 -0.447586 -0.826173
vn -0.342207 -0.447586 -0.826173
vn -0.342206 -0.447586 -0.826173
vn -0.342206 -0.447586 -0.826173
vn -0.342206 -0.447585 -0.826173
vn -0.826173 -0.447580 -0.342213
vn -0.826173 -0.447580 -0.342213
vn -0.826173 -0.447580 -0.342213
vn -0.826173 -0.447580 -0.342213
vn -0.826173 -0.447581 0.342213
vn -0.826173 -0.447581 0.342213
vn -0.826173 -0.447581 0.342213
vn -0.826173 -0.447581 0.342213
vn -0.342209 -0.447582 0.826174
vn -0.342209 -0.447582 0.826174
vn -0.342209 -0.447582 0.826174
vn -0.342209 -0.447582 0.826174
vn 0.342208 -0.447582 0.826174
vn 0.342208 -0.447582 0.826174
vn 0.342208 -0.447582 0.826174
vn 0.342208 -0.447582 0.826174
vn 0.826175 -0.447576 0.342213
vn 0.826175 -0.447577 0.342213
vn 0.826175 -0.447576 0.342213
vn 0.826175 -0.447576 0.342213
vn 0.826175 -0.447576 -0.342213
vn 0.826175 -0.447576 -0.342213
vn 0.826175 -0.447576 -0.342213
vn 0.826175 -0.447576 -0.342213
vn 0.184679 0.875842 -0.445864
vn 0.184679 0.875842 -0.445864
vn 0.184679 0.875842 -0.445864
vn 0.184679 0.875842 -0.445864
vn -0.184679 0.875842 -0.445864
vn -0.184679 0.875842 -0.445864
vn -0.184679 0.875842 -0.445864
vn -0.184679 0.875842 -0.445864
vn -0.445865 0.875840 -0.184684
vn -0.445865 0.875840 -0.184684
vn -0.445865 0.875840 -0.184684
vn -0.445865 0.875840 -0.184684
vn -0.445865 0.875840 0.184684
vn -0.445865 0.875840 0.184684
vn -0.445865 0.875840 0.184684
vn -0.445865 0.875840 0.184684
vn -0.184682 0.875840 0.445866
vn -0.184682 0.875840 0.445866
vn -0.184682 0.875840 0.445866
vn -0.184682 0.875840 0.445866
vn 0.184683 0.875840 0.445866
vn 0.184683 0.875840 0.445866
vn 0.184683 0.875840 0.445866
vn 0.184683 0.875840 0.445866
vn 0.445868 0.875839 0.184685
vn 0.445868 0.875839 0.184685
vn 0.445868 0.875839 0.184685
vn 0.445868 0.875839 0.184685
vn 0.445868 0.875838 -0.184684
vn 0.445868 0.875838 -0.184684
vn 0.445868 0.875838 -0.184684
vn 0.445868 0.875839 -0.184684
s off
f 41/3/1 42/4/2 10/6/3 9/8/4
f 42/4/5 43/10/6 11/12/7 10/6/8
f 43/10/9 44/14/10 12/16/11 11/12/12
f 44/14/13 45/33/14 13/34/15 12/16/16
f 45/33/17 46/35/18 14/36/19 13/34/20
f 46/35/21 47/37/22 15/38/23 14/36/24
f 47/37/25 48/39/26 16/40/27 15/38/28
f 48/39/29 41/3/30 9/8/31 16/40/32
f 2/17/33 1/18/34 17/19/35 18/20/36
f 3/21/37 2/17/38 18/20/39 19/22/40
f 4/23/41 3/21/42 19/22/43 20/24/44
f 5/25/45 4/23/46 20/24/47 21/26/48
f 6/27/49 5/25/50 21/26/51 22/28/52
f 7/29/53 6/27/54 22/28/55 23/30/56
f 8/31/57 7/29/58 23/30/59 24/32/60
f 1/18/61 8/31/62 24/32/63 17/19/64
f 49/65/65 50/66/66 26/49/67 25/50/68
f 50/66/69 51/67/70 27/51/71 26/49/72
f 51/67/73 52/68/74 28/52/75 27/51/76
f 52/68/77 53/69/78 29/53/79 28/52/80
f 53/69/81 54/70/82 30/54/83 29/53/84
f 54/70/85 55/71/86 31/55/87 30/54/88
f 55/71/89 56/72/90 32/56/91 31/55/92
f 56/72/93 49/65/94 25/50/95 32/56/96
f 18/20/97 17/19/98 33/41/99 34/42/100
f 19/22/101 18/20/102 34/42/103 35/43/104
f 20/24/105 19/22/106 35/43/107 36/44/108
f 21/26/109 20/24/110 36/44/111 37/45/112
f 22/28/113 21/26/114 37/45/115 38/46/116
f 23/30/117 22/28/118 38/46/119 39/47/120
f 24/32/121 23/30/122 39/47/123 40/48/124
f 17/19/125 24/32/126 40/48/127 33/41/128
f 34/57/129 33/58/130 25/50/131 26/49/132
f 35/59/133 34/57/134 26/49/135 27/51/136
f 36/60/137 35/59/138 27/51/139 28/52/140
f 37/61/141 36/60/142 28/52/143 29/53/144
f 38/62/145 37/61/146 29/53/147 30/54/148
f 39/63/149 38/62/150 30/54/151 31/55/152
f 40/64/153 39/63/154 31/55/155 32/56/156
f 33/58/157 40/64/158 32/56/159 25/50/160
f 1/18/161 2/17/162 42/2/163 41/1/164
f 2/17/165 3/21/166 43/5/167 42/2/168
f 3/21/169 4/23/170 44/7/171 43/5/172
f 4/23/173 5/25/174 45/9/175 44/7/176
f 5/25/177 6/27/178 46/11/179 45/9/180
f 6/27/181 7/29/182 47/13/183 46/11/184
f 7/29/185 8/31/186 48/15/187 47/13/188
f 8/31/189 1/18/190 41/1/191 48/15/192
f 9/8/193 10/6/194 50/66/195 49/65/196
f 10/6/197 11/12/198 51/67/199 50/66/200
f 11/12/201 12/16/202 52/68/203 51/67/204
f 12/16/205 13/34/206 53/69/207 52/68/208
f 13/34/209 14/36/210 54/70/211 53/69/212
f 14/36/213 15/38/214 55/71/215 54/70/216
f 15/38/217 16/40/218 56/72/219 55/71/220
f 16/40/221 9/8/222 49/65/223 56/72/224
