# This file uses centimeters as units for non-parametric coordinates.

v -44.441574 8.290326 -12.584419
v -44.441574 0.000004 -32.031887
v -44.441574 0.000004 -11.402218
v 44.091351 0.000004 -32.031887
v -44.441570 0.000004 30.269421
v 44.091351 0.000004 30.269417
v 44.091351 0.000004 -11.402218
v -26.727322 0.000004 30.269421
v -26.727322 8.290326 30.269421
v -27.195896 8.290326 -11.691711
v -17.359646 0.000005 30.269421
v -17.359646 3.062787 30.269421
v -17.359646 8.290326 -10.559837
v -17.359646 7.695169 -11.469591
v -17.359646 8.290326 -11.846008
v -17.359646 8.290326 -32.031887
v -17.359646 0.000005 -32.031887
v 30.756474 0.000004 30.269421
v 38.090656 8.290326 30.269417
v 30.756474 8.290326 -11.581568
v 7.717070 0.000004 30.527176
v 7.717070 8.290326 30.527176
v 9.624928 8.290326 -12.278410
v 8.476217 7.695169 -15.095516
v 8.887423 8.290326 -16.459785
v 8.412443 8.290326 -29.195578
v 8.326580 0.000004 -31.600477
v -43.557659 0.000004 17.372780
v -43.557659 8.290326 17.455742
v -17.359646 8.290326 29.098591
v 8.476217 8.290326 26.285490
v 36.077900 8.290326 27.652607
v 44.248951 8.290326 26.354889
v 44.441570 0.000004 21.487469
v -43.788364 8.290326 14.933998
v -30.430117 8.290326 16.145967
v -30.453148 8.290326 14.597092
v -10.001778 8.290326 11.149858
v -42.785534 7.660583 16.208370
v -30.443119 7.660583 15.294205
v 11.961748 8.290326 -13.800419
v 30.756458 0.000004 19.917028
v 30.756439 0.000004 -11.402216
v 7.859908 0.000004 17.289524
v 8.137856 0.000004 -11.402217
v -17.359640 0.000004 14.395449
v -17.359642 0.000004 -11.402216
v -25.347258 0.000004 13.478827
v -23.302231 0.000004 -11.402218
v 44.309948 0.000004 9.126862
v 43.761887 7.275838 9.160213
v 25.913708 8.290326 12.853346
v 44.278893 8.290326 7.508743
v 44.327553 8.290326 10.647804
v 39.635052 8.290326 8.458973
v 39.667912 7.845409 9.299229
v 39.722763 8.290326 10.091076
v 44.091351 4.559681 30.269417
v -41.549236 8.290326 30.269421
v -44.441570 3.726246 30.269421
v -44.220596 8.290326 25.570078
v 41.231918 8.290326 -31.945313
v 44.091351 5.803478 -32.031887
v 42.812241 8.290326 -10.419144
v 44.110764 8.290326 -8.394306
v 44.091354 5.803478 -10.527493
v 8.326580 6.402495 -31.124920
v -44.441574 8.290326 -27.170025
v -40.130154 8.290326 -26.946846
v -44.441574 6.217746 -32.031887
v -37.671093 8.290326 -32.031891
vt 0.008772 0.279159
vt 0.008641 0.279118
vt 0.008674 0.278870
vt 0.008841 0.278907
vt 0.008831 0.278772
vt 0.008878 0.278748
vt 0.008872 0.278781
vt 0.008764 0.279183
vt 0.008758 0.279170
vt 0.008753 0.279203
vt 0.008751 0.279264
vt 0.008736 0.279321
vt 0.008713 0.279303
vt 0.008080 0.278537
vt 0.008014 0.278709
vt 0.008023 0.278724
vt 0.008086 0.278562
vt 0.007956 0.278895
vt 0.007938 0.278879
vt 0.007884 0.279020
vt 0.007913 0.279002
vt 0.008467 0.279244
vt 0.008563 0.279259
vt 0.008557 0.279278
vt 0.008466 0.279251
vt 0.008450 0.279029
vt 0.008577 0.278854
vt 0.008579 0.278848
vt 0.008581 0.278843
vt 0.008220 0.279161
vt 0.008225 0.279183
vt 0.008330 0.278770
vt 0.008348 0.278752
vt 0.008348 0.278737
vt 0.008630 0.278673
vt 0.008387 0.278633
vt 0.008623 0.278706
vt 0.008393 0.278626
vt 0.008394 0.278648
vt 0.007929 0.279073
vt 0.007878 0.279068
vt 0.007983 0.278886
vt 0.007957 0.279055
vt 0.008022 0.278703
vt 0.008103 0.278533
vt 0.008134 0.278723
vt 0.008009 0.279117
vt 0.008102 0.278947
vt 0.008226 0.279119
vt 0.008313 0.278752
vt 0.008472 0.279220
vt 0.008636 0.279133
vt 0.008638 0.279126
vt 0.008825 0.278945
vt 0.008043 0.279024
vt 0.007886 0.279081
vt 0.008140 0.278757
vt 0.008263 0.279061
vt 0.008342 0.278812
vt 0.008509 0.279103
vt 0.008574 0.278876
vt 0.008587 0.279116
vt 0.008629 0.278891
vt 0.008868 0.278771
vt 0.008731 0.279329
vt 0.007949 0.278852
vt 0.007950 0.278871
vt 0.007989 0.278872
vt 0.007986 0.278881
vt 0.008004 0.278717
vt 0.008818 0.278723
vn 0.000000 1.000000 -0.000000
vn 0.000000 1.000000 -0.000000
vn 0.000000 1.000000 -0.000000
vn 0.000000 1.000000 -0.000000
vn 0.020295 0.919713 -0.392068
vn 0.020295 0.919713 -0.392068
vn 0.020295 0.919713 -0.392068
vn -0.849074 0.005286 -0.528248
vn -0.849074 0.005286 -0.528248
vn -0.849074 0.005286 -0.528248
vn -0.761446 0.482541 0.432846
vn -0.761446 0.482541 0.432846
vn -0.761446 0.482541 0.432846
vn 1.000000 0.000000 -0.000000
vn 1.000000 0.000000 -0.000000
vn 1.000000 0.000000 -0.000000
vn 1.000000 0.000000 -0.000000
vn 0.999935 0.011282 -0.001889
vn 0.999935 0.011282 -0.001889
vn 0.999935 0.011282 -0.001889
vn 0.999935 0.011282 -0.001889
vn 0.000000 0.000000 1.000000
vn 0.000000 0.000000 1.000000
vn 0.000000 0.000000 1.000000
vn 0.000000 0.000000 1.000000
vn 0.000000 1.000000 0.000000
vn 0.000000 1.000000 0.000000
vn 0.000000 1.000000 0.000000
vn 0.000000 1.000000 0.000000
vn 0.062872 0.835180 -0.546371
vn 0.062872 0.835180 -0.546371
vn 0.062872 0.835180 -0.546371
vn 0.013256 0.534481 0.845077
vn 0.013256 0.534481 0.845077
vn 0.013256 0.534481 0.845077
vn -0.010278 0.000000 0.999947
vn -0.010278 0.000000 0.999947
vn -0.010278 0.000000 0.999947
vn -0.010278 0.000000 0.999947
vn 0.000000 1.000000 0.000000
vn 0.000000 1.000000 0.000000
vn 0.000000 1.000000 0.000000
vn -0.029923 0.954803 -0.295730
vn -0.029923 0.954803 -0.295730
vn -0.029923 0.954803 -0.295730
vn -0.029923 0.954803 -0.295730
vn 0.091237 0.811842 0.576705
vn 0.091237 0.811842 0.576705
vn 0.091237 0.811842 0.576705
vn 0.091237 0.811842 0.576705
vn -0.000000 1.000000 0.000000
vn -0.000000 1.000000 0.000000
vn -0.000000 1.000000 0.000000
vn -0.000000 1.000000 0.000000
vn 0.027217 0.032338 -0.999106
vn 0.027217 0.032338 -0.999106
vn 0.027217 0.032338 -0.999106
vn 0.027217 0.032338 -0.999106
vn 0.406150 0.653287 0.638951
vn 0.406150 0.653287 0.638951
vn 0.406150 0.653287 0.638951
vn -0.000000 1.000000 0.000000
vn -0.000000 1.000000 0.000000
vn -0.000000 1.000000 0.000000
vn -0.000000 1.000000 0.000000
vn -0.000000 1.000000 0.000000
vn -0.000000 1.000000 0.000000
vn -0.000000 1.000000 0.000000
vn 0.009651 -0.004269 0.999944
vn 0.009651 -0.004269 0.999944
vn 0.009651 -0.004269 0.999944
vn 0.009651 -0.004269 0.999944
vn -0.000000 1.000000 0.000000
vn -0.000000 1.000000 0.000000
vn -0.000000 1.000000 0.000000
vn 0.065810 0.827606 -0.557439
vn 0.065810 0.827606 -0.557439
vn 0.065810 0.827606 -0.557439
vn -0.084102 0.922374 0.377032
vn -0.084102 0.922374 0.377032
vn -0.084102 0.922374 0.377032
vn 0.000000 1.000000 -0.000000
vn 0.000000 1.000000 -0.000000
vn 0.000000 1.000000 -0.000000
vn 0.000000 1.000000 -0.000000
vn -0.029101 0.074041 -0.996831
vn -0.029101 0.074041 -0.996831
vn -0.029101 0.074041 -0.996831
vn 0.000000 1.000000 0.000000
vn 0.000000 1.000000 0.000000
vn 0.000000 1.000000 0.000000
vn -0.000000 1.000000 0.000000
vn -0.000000 1.000000 0.000000
vn -0.000000 1.000000 0.000000
vn -0.000000 1.000000 0.000000
vn 0.121067 0.216951 0.968646
vn 0.121067 0.216951 0.968646
vn 0.121067 0.216951 0.968646
vn -0.055506 0.218223 0.974319
vn -0.055506 0.218223 0.974319
vn -0.055506 0.218223 0.974319
vn 0.000000 1.000000 0.000000
vn 0.000000 1.000000 0.000000
vn 0.000000 1.000000 0.000000
vn -0.000000 1.000000 0.000000
vn -0.000000 1.000000 0.000000
vn -0.000000 1.000000 0.000000
vn -0.000000 1.000000 0.000000
vn 0.112129 0.738175 0.665226
vn 0.112129 0.738175 0.665226
vn 0.112129 0.738175 0.665226
vn 0.025762 0.848383 0.528756
vn 0.025762 0.848383 0.528756
vn 0.025762 0.848383 0.528756
vn 0.025762 0.848383 0.528756
vn -0.045939 0.849170 -0.526118
vn -0.045939 0.849170 -0.526118
vn -0.045939 0.849170 -0.526118
vn -0.045939 0.849170 -0.526118
vn -0.143543 0.796815 -0.586926
vn -0.143543 0.796815 -0.586926
vn -0.143543 0.796815 -0.586926
vn -0.730250 0.174021 0.660645
vn -0.730250 0.174021 0.660645
vn -0.730250 0.174021 0.660645
vn -0.999596 -0.007948 0.027295
vn -0.999596 -0.007948 0.027295
vn -0.999596 -0.007948 0.027295
vn -0.999596 -0.007948 0.027295
vn -0.106629 0.980728 -0.163714
vn -0.106629 0.980728 -0.163714
vn -0.106629 0.980728 -0.163714
vn 0.000000 -1.000000 0.000000
vn 0.000000 -1.000000 0.000000
vn 0.000000 -1.000000 0.000000
vn 0.000000 -1.000000 0.000000
vn 0.000000 1.000000 -0.000000
vn 0.000000 1.000000 -0.000000
vn 0.000000 1.000000 -0.000000
vn 0.000000 1.000000 -0.000000
vn -0.000000 -1.000000 -0.000000
vn -0.000000 -1.000000 -0.000000
vn -0.000000 -1.000000 -0.000000
vn -0.000000 -1.000000 0.000000
vn -0.000000 -1.000000 0.000000
vn -0.000000 -1.000000 0.000000
vn -0.000000 -1.000000 0.000000
vn -0.000000 -1.000000 0.000000
vn 0.000000 -1.000000 -0.000000
vn 0.000000 -1.000000 -0.000000
vn 0.000000 -1.000000 -0.000000
vn 0.000000 -1.000000 -0.000000
vn 0.000000 -1.000000 0.000000
vn 0.000000 -1.000000 0.000000
vn 0.000000 -1.000000 0.000000
vn 0.000000 -1.000000 0.000000
vn -0.000000 -1.000000 -0.000000
vn -0.000000 -1.000000 -0.000000
vn -0.000000 -1.000000 -0.000000
vn -0.000000 -1.000000 -0.000000
vn -0.000000 -1.000000 0.000000
vn -0.000000 -1.000000 0.000000
vn -0.000000 -1.000000 0.000000
vn -0.000000 -1.000000 0.000000
vn 0.000000 -1.000000 0.000000
vn 0.000000 -1.000000 0.000000
vn 0.000000 -1.000000 0.000000
vn 0.000000 -1.000000 0.000000
vn -0.000000 -1.000000 -0.000000
vn -0.000000 -1.000000 -0.000000
vn -0.000000 -1.000000 -0.000000
vn -0.000000 -1.000000 -0.000000
vn 0.000000 -1.000000 0.000000
vn 0.000000 -1.000000 0.000000
vn 0.000000 -1.000000 0.000000
vn 0.000000 -1.000000 0.000000
vn -0.000000 -1.000000 0.000000
vn -0.000000 -1.000000 0.000000
vn -0.000000 -1.000000 0.000000
vn -0.000000 -1.000000 0.000000
vn -0.000000 -1.000000 -0.000000
vn -0.000000 -1.000000 -0.000000
vn -0.000000 -1.000000 -0.000000
vn -0.000000 -1.000000 -0.000000
vn 0.000000 -1.000000 0.000000
vn 0.000000 -1.000000 0.000000
vn 0.000000 -1.000000 0.000000
vn 0.000000 -1.000000 0.000000
vn 0.000000 -1.000000 0.000000
vn 0.000000 -1.000000 0.000000
vn 0.000000 -1.000000 0.000000
vn 0.000000 -1.000000 0.000000
vn -0.000000 -1.000000 -0.000000
vn -0.000000 -1.000000 -0.000000
vn -0.000000 -1.000000 -0.000000
vn 0.939134 0.069199 0.336510
vn 0.939134 0.069199 0.336510
vn 0.939134 0.069199 0.336510
vn 0.119865 0.846335 0.518989
vn 0.119865 0.846335 0.518989
vn 0.119865 0.846335 0.518989
vn 0.119865 0.846335 0.518989
vn 0.000000 1.000000 -0.000000
vn 0.000000 1.000000 -0.000000
vn 0.000000 1.000000 -0.000000
vn 0.000000 1.000000 -0.000000
vn 0.000000 1.000000 -0.000000
vn 0.000000 1.000000 -0.000000
vn 0.000000 1.000000 -0.000000
vn 0.000000 1.000000 -0.000000
vn 0.915373 0.070769 -0.396338
vn 0.915373 0.070769 -0.396338
vn 0.915373 0.070769 -0.396338
vn 0.080852 0.829280 -0.552954
vn 0.080852 0.829280 -0.552954
vn 0.080852 0.829280 -0.552954
vn 0.080852 0.829280 -0.552954
vn -0.000000 1.000000 0.000000
vn -0.000000 1.000000 0.000000
vn -0.000000 1.000000 0.000000
vn 0.146804 0.876543 0.458390
vn 0.146804 0.876543 0.458390
vn 0.146804 0.876543 0.458390
vn -0.096510 0.870580 -0.482469
vn -0.096510 0.870580 -0.482469
vn -0.096510 0.870580 -0.482469
vn 0.000000 1.000000 -0.000000
vn 0.000000 1.000000 -0.000000
vn 0.000000 1.000000 -0.000000
vn 0.999203 -0.000144 0.039922
vn 0.999203 -0.000144 0.039922
vn 0.999203 -0.000144 0.039922
vn 0.999203 -0.000144 0.039922
vn 0.000000 1.000000 -0.000000
vn 0.000000 1.000000 -0.000000
vn 0.000000 1.000000 -0.000000
vn 0.000000 0.000000 1.000000
vn 0.000000 0.000000 1.000000
vn 0.000000 0.000000 1.000000
vn 0.000000 0.000000 1.000000
vn -0.000000 1.000000 0.000000
vn -0.000000 1.000000 0.000000
vn -0.000000 1.000000 0.000000
vn -0.000000 1.000000 0.000000
vn 0.000000 1.000000 0.000000
vn 0.000000 1.000000 0.000000
vn 0.000000 1.000000 0.000000
vn 0.000000 1.000000 0.000000
vn -0.997659 0.000000 -0.068378
vn -0.997659 0.000000 -0.068378
vn -0.997659 0.000000 -0.068378
vn 0.000000 0.000000 1.000000
vn 0.000000 0.000000 1.000000
vn 0.000000 0.000000 1.000000
vn 0.000000 0.000000 1.000000
vn 0.000000 0.000000 1.000000
vn 0.000000 0.000000 1.000000
vn 0.000000 0.000000 1.000000
vn -0.997375 -0.008672 -0.071890
vn -0.997375 -0.008672 -0.071890
vn -0.997375 -0.008672 -0.071890
vn -0.997375 -0.008672 -0.071890
vn 0.999942 0.001594 -0.010628
vn 0.999942 0.001594 -0.010628
vn 0.999942 0.001594 -0.010628
vn 0.999942 0.001594 -0.010628
vn 0.999942 0.001594 -0.010628
vn 0.767843 0.640017 -0.028199
vn 0.767843 0.640017 -0.028199
vn 0.767843 0.640017 -0.028199
vn 0.767843 0.640017 -0.028199
vn 0.765764 0.415267 -0.491080
vn 0.765764 0.415267 -0.491080
vn 0.765764 0.415267 -0.491080
vn 0.076933 0.710922 -0.699050
vn 0.076933 0.710922 -0.699050
vn 0.076933 0.710922 -0.699050
vn -0.058385 0.714834 -0.696853
vn -0.058385 0.714834 -0.696853
vn -0.058385 0.714834 -0.696853
vn -0.000000 0.000000 -1.000000
vn -0.000000 0.000000 -1.000000
vn -0.000000 0.000000 -1.000000
vn -1.000000 0.000000 0.000000
vn -1.000000 0.000000 0.000000
vn -1.000000 0.000000 0.000000
vn -1.000000 0.000000 0.000000
vn -1.000000 0.000000 0.000000
vn 0.000000 1.000000 0.000000
vn 0.000000 1.000000 0.000000
vn 0.000000 1.000000 0.000000
vn 0.000000 1.000000 0.000000
vn 0.000000 1.000000 0.000000
vn 0.000000 1.000000 0.000000
vn 0.000000 1.000000 0.000000
vn 0.000000 1.000000 0.000000
vn 0.000000 1.000000 0.000000
vn -0.289823 0.946763 -0.140155
vn -0.289823 0.946763 -0.140155
vn -0.289823 0.946763 -0.140155
vn -0.013026 0.005948 -0.999898
vn -0.013026 0.005948 -0.999898
vn -0.013026 0.005948 -0.999898
vn -0.013026 0.005948 -0.999898
vn -0.000000 0.000000 -1.000000
vn -0.000000 0.000000 -1.000000
vn -0.000000 0.000000 -1.000000
vn -0.000000 0.000000 -1.000000
s off
f 35/1/1 37/2/2 10/3/3 1/4/4
f 69/5/5 70/6/6 68/7/7
f 29/8/8 39/9/9 28/10/10
f 61/11/11 60/12/12 59/13/13
f 63/14/14 66/15/15 7/16/16 4/17/17
f 50/18/18 54/19/19 33/20/20 34/21/21
f 12/22/22 9/23/23 8/24/24 11/25/25
f 37/2/26 38/26/27 13/27/28 10/3/29
f 10/3/30 13/27/31 14/28/32
f 10/3/33 14/28/34 15/29/35
f 22/30/36 12/22/37 11/25/38 21/31/39
f 38/26/40 23/32/41 13/27/42
f 14/28/43 13/27/44 23/32/45 24/33/46
f 15/29/47 14/28/48 24/33/49 25/34/50
f 16/35/51 15/29/52 25/34/53 26/36/54
f 17/37/55 16/35/56 67/38/57 27/39/58
f 33/20/59 19/40/60 58/41/61
f 33/20/62 54/19/63 57/42/64 32/43/65
f 64/44/66 62/45/67 20/46/68
f 19/40/69 22/30/70 21/31/71 18/47/72
f 32/43/73 52/48/74 31/49/75
f 24/33/76 41/50/77 20/46/78
f 25/34/79 24/33/80 20/46/81
f 62/45/82 26/36/83 25/34/84 20/46/85
f 27/39/86 67/38/87 62/45/88
f 22/30/89 31/49/90 30/51/91
f 19/40/92 32/43/93 31/49/94 22/30/95
f 12/22/96 30/51/97 9/23/98
f 22/30/99 30/51/100 12/22/101
f 9/23/102 36/52/103 29/8/104
f 30/51/105 38/26/106 36/52/107 9/23/108
f 40/53/109 38/26/110 37/2/111
f 39/9/112 40/53/113 37/2/114 35/1/115
f 29/8/116 36/52/117 40/53/118 39/9/119
f 36/52/120 38/26/121 40/53/122
f 28/10/123 39/9/124 35/1/125
f 28/10/126 35/1/127 1/4/128 3/54/129
f 24/33/130 23/32/131 41/50/132
f 18/47/133 42/55/134 34/21/135 6/56/136
f 31/49/137 23/32/138 38/26/139 30/51/140
f 43/57/141 4/17/142 7/16/143
f 42/55/144 43/57/145 7/16/146 50/18/147 34/21/148
f 21/31/149 44/58/150 42/55/151 18/47/152
f 44/58/153 45/59/154 43/57/155 42/55/156
f 45/59/157 27/39/158 4/17/159 43/57/160
f 11/25/161 46/60/162 44/58/163 21/31/164
f 46/60/165 47/61/166 45/59/167 44/58/168
f 47/61/169 17/37/170 27/39/171 45/59/172
f 8/24/173 48/62/174 46/60/175 11/25/176
f 48/62/177 49/63/178 47/61/179 46/60/180
f 49/63/181 2/64/182 17/37/183 47/61/184
f 28/10/185 48/62/186 8/24/187 5/65/188
f 3/54/189 49/63/190 48/62/191 28/10/192
f 2/64/193 49/63/194 3/54/195
f 50/18/196 53/66/197 51/67/198
f 55/68/199 56/69/200 51/67/201 53/66/202
f 41/50/203 52/48/204 20/46/205
f 20/46/206 55/68/207 53/66/208 65/70/209 64/44/210
f 50/18/211 51/67/212 54/19/213
f 56/69/214 57/42/215 54/19/216 51/67/217
f 52/48/218 55/68/219 20/46/220
f 52/48/221 56/69/222 55/68/223
f 52/48/224 57/42/225 56/69/226
f 32/43/227 57/42/228 52/48/229
f 34/21/230 33/20/231 58/41/232 6/56/233
f 19/40/234 33/20/235 32/43/236
f 58/41/237 19/40/238 18/47/239 6/56/240
f 31/49/241 52/48/242 41/50/243 23/32/244
f 9/23/245 29/8/246 61/11/247 59/13/248
f 60/12/249 28/10/250 5/65/251
f 8/24/252 60/12/253 5/65/254
f 9/23/255 59/13/256 60/12/257 8/24/258
f 60/12/259 61/11/260 29/8/261 28/10/262
f 66/15/263 65/70/264 53/66/265 50/18/266 7/16/267
f 63/14/268 62/45/269 64/44/270 66/15/271
f 64/44/272 65/70/273 66/15/274
f 67/38/275 16/35/276 26/36/277
f 62/45/278 67/38/279 26/36/280
f 17/37/281 71/71/282 16/35/283
f 1/4/284 68/7/285 70/6/286 2/64/287 3/54/288
f 69/5/289 68/7/290 1/4/291 10/3/292
f 71/71/293 69/5/294 10/3/295 15/29/296 16/35/297
f 71/71/298 70/6/299 69/5/300
f 27/39/301 62/45/302 63/14/303 4/17/304
f 2/64/305 70/6/306 71/71/307 17/37/308
