# This file uses centimeters as units for non-parametric coordinates.

v -28.506470 -0.044107 -21.770304
v -28.479309 -0.026703 21.806343
v -28.541901 28.462713 -21.781668
v -28.514740 28.480116 21.794981
v 28.443939 28.533524 -21.817219
v 28.473328 28.552336 25.282377
v 28.479370 0.026704 -21.805857
v 28.508759 0.045514 25.293741
v 14.103699 2.936392 21.778616
v -25.066193 2.887719 21.803053
v 14.075500 25.622866 21.769573
v -25.094391 25.574192 21.794010
v 14.079498 2.920907 -16.993345
v -25.090363 2.872234 -16.968908
v 14.051331 25.607384 -17.002386
v -25.118561 25.558706 -16.977951
v 14.071869 28.533035 21.768414
v 14.107300 0.026215 21.779776
v 14.372772 0.027949 25.302559
v 14.337341 28.534769 25.291197
v 14.340485 26.006084 25.292204
v 28.473328 28.552336 25.282377
v 14.366577 5.029406 25.300566
v 28.508759 0.045514 25.293741
v 27.688538 26.022671 25.283876
v 27.714630 5.045992 25.292238
v 15.984192 7.952984 25.298389
v 25.757507 7.965128 25.292292
v 25.738708 23.076078 25.286268
v 15.965393 23.063934 25.292368
v -13.953308 2.899138 15.801245
v 2.986755 2.920188 15.790677
v 11.447693 2.924854 1.114987
v 2.968506 2.908470 -13.550378
v -13.971588 2.887420 -13.539810
v -22.432587 2.882754 1.136124
v 2.572388 4.500506 -12.867418
v -13.578674 4.480436 -12.857342
v -21.645508 4.475988 1.134997
v -13.561218 4.491609 15.117015
v 2.589844 4.511678 15.106939
v 10.656616 4.516127 1.114844
v 23.728546 1.711750 -21.803568
v -11.407898 1.668089 -21.781647
v -11.429718 19.244942 -21.788652
v 23.706726 19.288603 -21.810574
v 23.108856 2.250099 -20.742361
v -10.788269 2.207979 -20.721212
v -10.808777 18.707439 -20.727791
v 23.088348 18.749559 -20.748938
v -28.507019 2.876273 -16.824476
v -28.485565 2.890021 17.598242
v -28.499756 14.321455 17.593685
v -28.521240 14.307708 -16.829033
v 28.464630 14.378518 -16.864586
v 28.487823 14.393376 20.341030
v 28.487823 14.393376 20.341030
v 28.502014 2.961943 20.345587
v 28.502014 2.961943 20.345587
v 28.478790 2.947083 -16.860029
v -27.027527 3.555632 -16.265306
v -27.006775 3.568932 17.036684
v -27.019287 13.645774 17.032667
v -27.040039 13.632473 -16.269323
v 26.985840 13.699625 -16.257742
v 27.008270 13.714001 19.736572
v 27.008270 13.714001 19.736572
v 27.020813 3.637158 19.740589
v 27.020813 3.637158 19.740589
v 26.998352 3.622782 -16.253723
vt 0.101710 0.354596
vt 0.101710 0.354596
vt 0.101710 0.354596
vt 0.101710 0.354596
vt 0.101710 0.354596
vt 0.101710 0.354596
vt 0.101710 0.354596
vt 0.101710 0.354596
vt 0.101710 0.354596
vt 0.101710 0.354596
vt 0.101710 0.354596
vt 0.101710 0.354596
vt 0.101710 0.354596
vt 0.101710 0.354596
vt 0.112549 0.328882
vt 0.112549 0.328882
vt 0.112549 0.328890
vt 0.112549 0.328890
vt 0.112549 0.328890
vt 0.112549 0.328890
vt 0.112549 0.328890
vt 0.112549 0.328890
vt 0.101710 0.354596
vt 0.101710 0.354596
vt 0.101710 0.354596
vt 0.101710 0.354596
vt 0.101710 0.354596
vt 0.101710 0.354596
vt 0.101710 0.354596
vt 0.101710 0.354596
vt 0.101710 0.354596
vt 0.101710 0.354596
vt 0.101710 0.354596
vt 0.101710 0.354596
vt 0.101710 0.354596
vt 0.101710 0.354596
vt 0.080908 0.278612
vt 0.080286 0.278583
vt 0.080343 0.278493
vt 0.080865 0.278483
vt 0.080262 0.277666
vt 0.080326 0.277763
vt 0.080912 0.277612
vt 0.080866 0.277754
vt 0.138977 0.194821
vt 0.153689 0.194821
vt 0.153689 0.217463
vt 0.138977 0.217463
vt 0.112549 0.328882
vt 0.112549 0.328882
vt 0.112549 0.328882
vt 0.112549 0.328882
vt 0.112549 0.328882
vt 0.112549 0.328882
vt 0.112549 0.328890
vt 0.112549 0.328890
vt 0.112549 0.328882
vt 0.112549 0.328882
vt 0.112549 0.328882
vt 0.112549 0.328882
vt 0.112549 0.328882
vt 0.112549 0.328882
vt 0.113037 0.310716
vt 0.113037 0.310716
vt 0.113037 0.310716
vt 0.113037 0.310716
vt 0.113037 0.310716
vt 0.113037 0.310716
vt 0.113037 0.310716
vt 0.113037 0.310716
vt 0.113037 0.310716
vt 0.113037 0.310716
vt 0.113037 0.310716
vt 0.113037 0.310716
vt 0.101710 0.354596
vt 0.101710 0.354596
vt 0.101710 0.354596
vt 0.101710 0.354596
vt 0.101710 0.354596
vt 0.101710 0.354596
vt 0.101710 0.354596
vt 0.101710 0.354596
vt 0.100586 0.302124
vt 0.100586 0.302124
vt 0.100586 0.302124
vt 0.100586 0.302124
vt 0.101710 0.354596
vt 0.101710 0.354596
vt 0.101710 0.354596
vt 0.101710 0.354596
vt 0.101710 0.354596
vt 0.101710 0.354596
vt 0.101710 0.354596
vt 0.101710 0.354596
vt 0.101710 0.354596
vt 0.101710 0.354596
vt 0.101345 0.354361
vt 0.102026 0.354353
vt 0.102017 0.354355
vt 0.101353 0.354362
vt 0.102033 0.354145
vt 0.102023 0.354171
vt 0.101330 0.354153
vt 0.101340 0.354178
vt 0.101210 0.354801
vt 0.102210 0.354788
vt 0.250366 0.288253
vt 0.301943 0.288253
vt 0.301943 0.304615
vt 0.250366 0.304615
vt 0.250366 0.304615
vt 0.301862 0.304615
vt 0.301862 0.304615
vt 0.301862 0.288253
vt 0.301862 0.288253
vt 0.250366 0.288253
vt 0.102189 0.354781
vt 0.101232 0.354794
vt 0.102210 0.354788
vt 0.102189 0.354781
vt 0.102195 0.355033
vt 0.102176 0.354996
vt 0.102195 0.355033
vt 0.102176 0.354996
vt 0.101235 0.355047
vt 0.101253 0.355010
vn -0.999999 -0.001243 0.000624
vn -0.999999 -0.001243 0.000624
vn -0.999999 -0.001243 0.000624
vn -0.999999 -0.001243 0.000624
vn -0.001243 0.999999 -0.000399
vn -0.001243 0.999999 -0.000399
vn -0.001243 0.999999 -0.000399
vn -0.001243 0.999999 -0.000399
vn 0.999999 0.001243 -0.000624
vn 0.000000 0.000000 -0.000000
vn 0.000000 0.000000 -0.000000
vn 0.000000 0.000000 -0.000000
vn 0.000000 0.000000 -0.000000
vn 0.999999 0.001243 -0.000624
vn 0.001243 -0.999999 0.000399
vn 0.001243 -0.999999 0.000399
vn 0.001243 -0.999999 0.000399
vn 0.000623 0.000399 1.000000
vn 0.000623 0.000399 1.000000
vn 0.000623 0.000399 1.000000
vn 0.000623 0.000399 1.000000
vn -0.000623 -0.000399 -1.000000
vn -0.000623 -0.000399 -1.000000
vn -0.000623 -0.000399 -1.000000
vn -0.000623 -0.000399 -1.000000
vn 0.000623 0.000399 1.000000
vn 0.000623 0.000399 1.000000
vn 0.000623 0.000399 1.000000
vn 0.000000 0.000000 0.000000
vn 0.000623 0.000399 1.000000
vn 0.000623 0.000399 1.000000
vn 0.000623 0.000399 1.000000
vn 0.000623 0.000399 1.000000
vn 0.000623 0.000399 1.000000
vn 0.000624 0.000399 1.000000
vn 0.000624 0.000399 1.000000
vn 0.000624 0.000399 1.000000
vn 0.000624 0.000399 1.000000
vn -0.001243 0.999999 -0.000399
vn -0.001243 0.999999 -0.000399
vn -0.001243 0.999999 -0.000399
vn -0.001243 0.999999 -0.000399
vn -0.001243 0.999999 -0.000399
vn -0.001243 0.999999 -0.000399
vn -0.999999 -0.001243 0.000624
vn -0.999999 -0.001243 0.000624
vn -0.999999 -0.001243 0.000624
vn -0.999999 -0.001243 0.000624
vn 0.001243 -0.999999 0.000399
vn 0.001243 -0.999999 0.000399
vn 0.001243 -0.999999 0.000399
vn 0.001243 -0.999999 0.000399
vn 0.999999 0.001243 -0.000624
vn 0.999999 0.001243 -0.000624
vn 0.999999 0.001243 -0.000624
vn 0.999999 0.001243 -0.000624
vn -0.001243 0.999999 -0.000399
vn -0.001243 0.999999 -0.000399
vn -0.001243 0.999999 -0.000399
vn 0.000623 0.000399 1.000000
vn 0.000623 0.000399 1.000000
vn 0.000623 0.000399 1.000000
vn 0.000623 0.000399 1.000000
vn 0.001243 -0.999999 0.000399
vn 0.001243 -0.999999 0.000399
vn 0.001243 -0.999999 0.000399
vn 0.001243 -0.999999 0.000399
vn -0.997172 -0.001209 0.075137
vn -0.997172 -0.001209 0.075137
vn -0.997172 -0.001209 0.075137
vn 0.001243 -0.999999 0.000399
vn 0.001243 -0.999999 0.000399
vn 0.001243 -0.999999 0.000399
vn -0.997173 -0.001209 0.075137
vn -0.997173 -0.001209 0.075137
vn -0.997172 -0.001209 0.075137
vn -0.997172 -0.001209 0.075137
vn -0.997172 -0.001209 0.075137
vn -0.997173 -0.001209 0.075137
vn -0.001243 0.999999 -0.000399
vn -0.001243 0.999999 -0.000399
vn -0.001243 0.999999 -0.000399
vn -0.997173 -0.001209 0.075137
vn -0.997172 -0.001209 0.075137
vn -0.997173 -0.001209 0.075137
vn 0.000623 0.000399 1.000000
vn 0.000623 0.000399 1.000000
vn 0.000623 0.000399 1.000000
vn 0.000623 0.000399 1.000000
vn 0.000000 0.000000 0.000000
vn 0.000623 0.000399 1.000000
vn 0.000623 0.000399 1.000000
vn 0.000623 0.000399 1.000000
vn 0.000623 0.000399 1.000000
vn 0.000623 0.000399 1.000000
vn 0.000623 0.000399 1.000000
vn 0.000623 0.000399 1.000000
vn 0.000623 0.000399 1.000000
vn 0.000623 0.000399 1.000000
vn 0.000623 0.000399 1.000000
vn 0.000623 0.000399 1.000000
vn 0.000623 0.000399 1.000000
vn 0.000624 0.000399 1.000000
vn 0.000624 0.000399 1.000000
vn 0.000624 0.000399 1.000000
vn 0.000624 0.000399 1.000000
vn 0.000623 0.000399 1.000000
vn 0.000623 0.000399 1.000000
vn 0.000623 0.000399 1.000000
vn 0.000623 0.000399 1.000000
vn 0.000621 0.000399 1.000000
vn 0.000621 0.000399 1.000000
vn 0.000621 0.000399 1.000000
vn 0.000621 0.000399 1.000000
vn -0.001243 0.999999 -0.000399
vn -0.001243 0.999999 -0.000399
vn -0.001243 0.999999 -0.000399
vn -0.001243 0.999999 -0.000399
vn -0.001243 0.999999 -0.000399
vn -0.001243 0.999999 -0.000399
vn -0.001243 0.999999 -0.000399
vn -0.001243 0.999999 -0.000399
vn -0.001243 0.999999 -0.000399
vn -0.001243 0.999999 -0.000399
vn -0.001243 0.999999 -0.000399
vn -0.001243 0.999999 -0.000399
vn -0.001243 0.999999 -0.000399
vn -0.001243 0.999999 -0.000399
vn -0.001243 0.999999 -0.000399
vn -0.001243 0.999999 -0.000399
vn -0.001243 0.999999 -0.000399
vn -0.001243 0.999999 -0.000399
vn -0.001243 0.999999 -0.000399
vn -0.001243 0.999999 -0.000399
vn -0.001243 0.999999 -0.000399
vn -0.001243 0.999999 -0.000399
vn -0.001243 0.999999 -0.000399
vn -0.001243 0.999999 -0.000399
vn -0.001243 0.999999 -0.000399
vn -0.001243 0.999999 -0.000399
vn -0.001063 0.394017 -0.919102
vn -0.001063 0.394017 -0.919102
vn -0.001063 0.394017 -0.919102
vn -0.001063 0.394017 -0.919102
vn -0.796610 0.393199 -0.459137
vn -0.796610 0.393199 -0.459137
vn -0.796610 0.393199 -0.459137
vn -0.796610 0.393199 -0.459137
vn -0.796030 0.393579 0.459817
vn -0.796030 0.393579 0.459817
vn -0.796030 0.393579 0.459817
vn -0.796030 0.393579 0.459817
vn 0.000083 0.394751 0.918788
vn 0.000083 0.394751 0.918788
vn 0.000083 0.394752 0.918788
vn 0.000083 0.394752 0.918788
vn 0.795623 0.395556 0.458824
vn 0.795623 0.395556 0.458824
vn 0.795623 0.395556 0.458824
vn 0.795623 0.395556 0.458824
vn 0.795053 0.395189 -0.460126
vn 0.795053 0.395189 -0.460126
vn 0.795053 0.395189 -0.460126
vn 0.795053 0.395189 -0.460126
vn -0.000623 -0.000399 -1.000000
vn -0.000623 -0.000399 -1.000000
vn -0.000623 -0.000399 -1.000000
vn -0.000623 -0.000399 -1.000000
vn -0.000623 -0.000399 -1.000000
vn -0.000623 -0.000399 -1.000000
vn -0.000623 -0.000399 -1.000000
vn -0.000623 -0.000399 -1.000000
vn -0.000623 -0.000399 -1.000000
vn -0.000623 -0.000399 -1.000000
vn -0.000623 -0.000399 -1.000000
vn -0.000623 -0.000399 -1.000000
vn -0.000623 -0.000399 -1.000000
vn -0.000623 -0.000399 -1.000000
vn -0.000623 -0.000399 -1.000000
vn -0.000623 -0.000399 -1.000000
vn -0.001390 0.891479 -0.453059
vn -0.001390 0.891480 -0.453059
vn -0.001390 0.891480 -0.453059
vn -0.001390 0.891480 -0.453059
vn 0.863219 0.000872 -0.504829
vn 0.863219 0.000872 -0.504829
vn 0.863219 0.000872 -0.504829
vn 0.863219 0.000872 -0.504829
vn 0.000826 -0.891841 -0.452348
vn 0.000826 -0.891841 -0.452348
vn 0.000826 -0.891841 -0.452348
vn 0.000826 -0.891841 -0.452348
vn -0.863826 -0.001274 -0.503789
vn -0.863826 -0.001274 -0.503789
vn -0.863826 -0.001274 -0.503789
vn -0.863826 -0.001274 -0.503789
vn -0.999999 -0.001245 0.000624
vn -0.999999 -0.001245 0.000624
vn -0.999999 -0.001243 0.000624
vn -0.999999 -0.001243 0.000624
vn -0.999999 -0.001242 0.000623
vn -0.999999 -0.001242 0.000623
vn -0.999999 -0.001243 0.000624
vn -0.999999 -0.001243 0.000624
vn -0.999999 -0.001242 0.000624
vn -0.999999 -0.001242 0.000624
vn -0.999999 -0.001243 0.000624
vn -0.999999 -0.001243 0.000624
vn -0.999999 -0.001243 0.000621
vn -0.999999 -0.001243 0.000621
vn -0.999999 -0.001243 0.000624
vn -0.999999 -0.001243 0.000624
vn 0.999999 0.001243 -0.000624
vn 0.999999 0.001243 -0.000624
vn 0.000000 0.000000 -0.000000
vn 0.999999 0.001243 -0.000624
vn 0.000000 0.000000 0.000000
vn 0.000000 0.000000 0.000000
vn 0.000000 0.000000 -0.000000
vn 0.000000 0.000000 -0.000000
vn 0.999999 0.001242 -0.000628
vn 0.999999 0.001242 -0.000628
vn 0.000000 0.000000 -0.000000
vn 0.000000 0.000000 -0.000000
vn 0.000000 0.000000 0.000000
vn 0.000000 0.000000 0.000000
vn 0.000000 0.000000 -0.000000
vn 0.000000 0.000000 -0.000000
vn 0.999999 0.001254 -0.000625
vn 0.999999 0.001254 -0.000625
vn 0.999999 0.001243 -0.000624
vn 0.000000 0.000000 -0.000000
vn 0.999999 0.001241 -0.000623
vn 0.999999 0.001241 -0.000623
vn 0.999999 0.001243 -0.000624
vn 0.999999 0.001243 -0.000624
vn -0.417262 0.908786 -0.000103
vn -0.417262 0.908786 -0.000103
vn -0.999999 -0.001243 0.000624
vn -0.999999 -0.001243 0.000624
vn -0.354680 -0.000813 -0.934987
vn -0.354680 -0.000813 -0.934987
vn -0.999999 -0.001243 0.000624
vn -0.999999 -0.001243 0.000624
vn -0.415000 -0.909821 0.000622
vn -0.415000 -0.909821 0.000622
vn -0.999999 -0.001243 0.000624
vn -0.999999 -0.001243 0.000624
vn -0.353510 -0.000066 0.935431
vn -0.353510 -0.000066 0.935431
vn -0.999999 -0.001243 0.000624
vn -0.999999 -0.001243 0.000624
vn 0.417255 -0.908790 0.000103
vn 0.417255 -0.908790 0.000103
vn 0.000000 0.000000 -0.000000
vn 0.999999 0.001243 -0.000624
vn 0.000000 0.000000 0.000000
vn 0.000000 0.000000 0.000000
vn 0.000000 0.000000 -0.000000
vn 0.000000 0.000000 -0.000000
vn 0.378160 0.000101 -0.925740
vn 0.378160 0.000101 -0.925740
vn 0.000000 0.000000 -0.000000
vn 0.000000 0.000000 -0.000000
vn 0.000000 0.000000 0.000000
vn 0.000000 0.000000 0.000000
vn 0.000000 0.000000 -0.000000
vn 0.000000 0.000000 -0.000000
vn 0.415003 0.909820 -0.000622
vn 0.415003 0.909820 -0.000622
vn 0.999999 0.001243 -0.000624
vn 0.000000 0.000000 -0.000000
vn 0.379317 0.000839 0.925267
vn 0.379317 0.000839 0.925267
vn 0.999999 0.001243 -0.000624
vn 0.999999 0.001243 -0.000624
s off
f 61/107/1 62/108/2 63/109/3 64/110/4
f 3/3/5 4/4/6 17/23/7 5/5/8
f 65/111/9 66/112/10 67/113/11 68/114/12 69/115/13 70/116/14
f 7/7/15 8/8/16 18/25/17
f 14/15/18 13/16/19 15/17/20 16/18/21
f 47/83/22 48/84/23 49/85/24 50/86/25
f 21/29/26 25/35/27 22/31/28 6/12/29 20/28/30
f 11/19/31 17/20/32 4/21/33 12/22/34
f 4/21/35 2/49/36 10/50/37 12/22/38
f 37/63/39 38/64/40 39/65/41 40/66/42 41/67/43 42/68/44
f 9/51/45 11/19/46 15/17/47 13/16/48
f 11/19/49 12/22/50 16/18/51 15/17/52
f 12/22/53 10/50/54 14/15/55 16/18/56
f 5/5/57 17/23/58 6/6/59
f 2/49/60 18/52/61 9/51/62 10/50/63
f 7/7/64 18/25/65 2/10/66 1/9/67
f 9/51/68 18/52/69 19/53/70
f 18/26/71 8/11/72 19/27/73
f 11/19/74 9/51/75 19/53/76 23/54/77 21/55/78 20/56/79
f 6/12/80 17/24/81 20/28/82
f 17/20/83 11/19/84 20/56/85
f 25/35/86 26/36/87 24/34/88 22/31/89
f 8/11/90 24/34/91 26/36/92 23/32/93 19/27/94
f 27/45/95 28/46/96 29/47/97 30/48/98
f 23/37/99 26/38/100 28/39/101 27/40/102
f 26/38/103 25/41/104 29/42/105 28/39/106
f 25/41/107 21/43/108 30/44/109 29/42/110
f 21/43/111 23/37/112 27/40/113 30/44/114
f 10/50/115 9/51/116 32/58/117 31/57/118
f 13/16/119 33/59/120 9/51/121
f 10/50/122 36/62/123 14/15/124
f 10/50/125 31/57/126 36/62/127
f 14/15/128 35/61/129 34/60/130 13/16/131
f 14/15/132 36/62/133 35/61/134
f 13/16/135 34/60/136 33/59/137
f 9/51/138 33/59/139 32/58/140
f 34/69/141 35/70/142 38/64/143 37/63/144
f 35/70/145 36/71/146 39/65/147 38/64/148
f 36/71/149 31/72/150 40/66/151 39/65/152
f 31/72/153 32/73/154 41/67/155 40/66/156
f 32/73/157 33/74/158 42/68/159 41/67/160
f 33/74/161 34/69/162 37/63/163 42/68/164
f 7/13/165 1/1/166 44/76/167 43/75/168
f 1/1/169 3/3/170 45/77/171 44/76/172
f 45/77/173 3/3/174 5/14/175 46/78/176
f 5/14/177 7/13/178 43/75/179 46/78/180
f 43/75/181 44/76/182 48/80/183 47/79/184
f 44/76/185 45/77/186 49/81/187 48/80/188
f 45/77/189 46/78/190 50/82/191 49/81/192
f 46/78/193 43/75/194 47/79/195 50/82/196
f 1/1/197 2/2/198 52/88/199 51/87/200
f 2/2/201 4/4/202 53/89/203 52/88/204
f 4/4/205 3/3/206 54/90/207 53/89/208
f 3/3/209 1/1/210 51/87/211 54/90/212
f 5/5/213 6/6/214 56/92/215 55/91/216
f 6/6/217 22/30/218 57/93/219 56/92/220
f 22/30/221 24/33/222 58/94/223 57/93/224
f 24/33/225 8/8/226 59/95/227 58/94/228
f 8/8/229 7/7/230 60/96/231 59/95/232
f 7/7/233 5/5/234 55/91/235 60/96/236
f 51/97/237 52/98/238 62/99/239 61/100/240
f 52/98/241 53/101/242 63/102/243 62/99/244
f 53/101/245 54/103/246 64/104/247 63/102/248
f 54/103/249 51/97/250 61/100/251 64/104/252
f 55/105/253 56/106/254 66/117/255 65/118/256
f 56/106/257 57/119/258 67/120/259 66/117/260
f 57/119/261 58/121/262 68/122/263 67/120/264
f 58/121/265 59/123/266 69/124/267 68/122/268
f 59/123/269 60/125/270 70/126/271 69/124/272
f 60/125/273 55/105/274 65/118/275 70/126/276
v -27.587067 0.741687 21.805725
v -28.477112 -0.025304 25.330269
v -27.620605 27.713938 21.794973
v -28.512543 28.481522 25.318907
v 13.179565 27.764635 21.769276
v 13.787781 28.534088 25.292271
v 13.213104 0.792385 21.780027
v 13.823212 0.027259 25.303635
v -21.153229 21.762543 21.793076
v 13.790924 26.005402 25.293280
v -27.766022 25.953764 25.319206
v -21.135345 7.354200 21.798819
v -27.739960 4.977085 25.327566
v 13.816956 5.028723 25.301641
v 7.188965 7.389396 21.781147
v 7.171082 21.797739 21.775404
v -9.546204 1.179747 25.317739
v -9.548492 3.018589 25.317011
v -3.809357 3.025721 25.313429
v -3.807068 1.186878 25.314161
v 7.173279 21.799147 25.299330
v 7.191162 7.390803 25.305071
v -21.151184 21.763950 25.316998
v -21.133301 7.355608 25.322741
v 14.014984 28.533243 22.473280
v -28.514313 28.480398 22.499813
v -28.478882 -0.026422 22.511177
v 14.050415 0.026425 22.484644
vt 0.101710 0.354596
vt 0.101710 0.354596
vt 0.101710 0.354596
vt 0.101710 0.354596
vt 0.101710 0.354596
vt 0.101710 0.354596
vt 0.112793 0.332185
vt 0.112793 0.332185
vt 0.112793 0.332178
vt 0.112793 0.332178
vt 0.101710 0.354596
vt 0.101710 0.354596
vt 0.101710 0.354596
vt 0.101710 0.354596
vt 0.112793 0.332178
vt 0.112793 0.332178
vt 0.101710 0.354596
vt 0.101710 0.354596
vt 0.112793 0.332185
vt 0.112793 0.332178
vt 0.112793 0.332178
vt 0.112793 0.332178
vt 0.101710 0.354596
vt 0.101710 0.354596
vt 0.101710 0.354596
vt 0.101710 0.354596
vt 0.101710 0.354596
vt 0.101710 0.354596
vt 0.101710 0.354596
vt 0.146186 0.445829
vt 0.146182 0.446142
vt 0.145186 0.446141
vt 0.145187 0.445828
vt 0.101710 0.354596
vt 0.080083 0.278251
vt 0.079915 0.278167
vt 0.080912 0.278169
vt 0.080801 0.278239
vt 0.080868 0.278562
vt 0.079912 0.278597
vt 0.080076 0.278549
vt 0.080771 0.278536
vt 0.080077 0.278203
vt 0.080070 0.278499
vt 0.080758 0.278486
vt 0.080787 0.278191
vt 0.101710 0.354596
vt 0.101710 0.354596
vt 0.101710 0.354596
vt 0.101710 0.354596
vt 0.101710 0.354596
vt 0.112793 0.332185
vt 0.112793 0.332185
vt 0.112793 0.332178
vt 0.112793 0.332178
vn -0.999999 -0.001243 0.000624
vn -0.999999 -0.001243 0.000624
vn -0.999999 -0.001243 0.000624
vn -0.999999 -0.001243 0.000624
vn -0.001243 0.999999 -0.000398
vn -0.001243 0.999999 -0.000398
vn -0.001243 0.999999 -0.000399
vn -0.001243 0.999999 -0.000399
vn 0.644132 0.000496 -0.764914
vn 0.644132 0.000496 -0.764914
vn 0.644132 0.000496 -0.764914
vn 0.644132 0.000496 -0.764914
vn 0.001243 -0.999999 0.000397
vn 0.001243 -0.999999 0.000397
vn 0.001243 -0.999999 0.000397
vn 0.001243 -0.999999 0.000397
vn -0.000623 -0.000399 -1.000000
vn -0.000623 -0.000399 -1.000000
vn -0.000623 -0.000399 -1.000000
vn -0.000623 -0.000399 -1.000000
vn 0.000698 0.000399 1.000000
vn 0.000698 0.000399 1.000000
vn 0.000698 0.000399 1.000000
vn 0.000698 0.000399 1.000000
vn -0.000661 -0.000399 -1.000000
vn -0.000661 -0.000399 -1.000000
vn -0.000661 -0.000399 -1.000000
vn -0.000661 -0.000399 -1.000000
vn -0.000623 -0.000399 -1.000000
vn -0.000628 -0.000384 -1.000000
vn -0.000628 -0.000384 -1.000000
vn -0.000628 -0.000384 -1.000000
vn 0.000623 0.000399 1.000000
vn 0.000623 0.000399 1.000000
vn 0.000630 0.000355 1.000000
vn 0.000630 0.000355 1.000000
vn 0.000623 0.000399 1.000000
vn 0.000623 0.000399 1.000000
vn 0.000623 0.000399 1.000000
vn 0.000623 0.000399 1.000000
vn -0.000623 -0.000399 -1.000000
vn -0.000623 -0.000399 -1.000000
vn -0.000628 -0.000413 -1.000000
vn -0.000628 -0.000413 -1.000000
vn 0.000623 0.000399 1.000000
vn 0.000623 0.000399 1.000000
vn 0.000623 0.000399 1.000000
vn 0.000623 0.000399 1.000000
vn 0.000623 0.000399 1.000000
vn 0.000623 0.000399 1.000000
vn 0.000623 0.000399 1.000000
vn 0.000623 0.000399 1.000000
vn 0.000623 0.000399 1.000000
vn 0.000632 0.000415 1.000000
vn 0.000632 0.000415 1.000000
vn 0.000623 0.000399 1.000000
vn 0.000629 0.000428 1.000000
vn 0.000629 0.000428 1.000000
vn 0.000629 0.000428 1.000000
vn 0.000629 0.000428 1.000000
vn 0.000628 0.000453 1.000000
vn 0.000628 0.000453 1.000000
vn 0.000621 0.000455 1.000000
vn 0.000621 0.000455 1.000000
vn 0.000620 0.000305 1.000000
vn 0.000630 0.000312 1.000000
vn 0.000620 0.000305 1.000000
vn 0.000620 0.000305 1.000000
vn 0.000660 0.000399 1.000000
vn 0.000660 0.000399 1.000000
vn 0.000660 0.000399 1.000000
vn 0.000660 0.000399 1.000000
vn 0.000563 0.000399 1.000000
vn 0.000563 0.000399 1.000000
vn 0.000563 0.000399 1.000000
vn 0.000563 0.000399 1.000000
vn -0.999999 -0.001243 0.000624
vn -0.999999 -0.001243 0.000624
vn -0.999999 -0.001243 0.000624
vn -0.999999 -0.001243 0.000624
vn -0.001243 0.999999 -0.000399
vn -0.001243 0.999999 -0.000399
vn -0.001243 0.999999 -0.000399
vn -0.001243 0.999999 -0.000399
vn 0.999999 0.001243 -0.000589
vn 0.999999 0.001243 -0.000589
vn 0.999999 0.001243 -0.000589
vn 0.999999 0.001243 -0.000589
vn 0.001243 -0.999999 0.000399
vn 0.001243 -0.999999 0.000399
vn 0.001243 -0.999999 0.000399
vn 0.001243 -0.999999 0.000399
vn -0.001303 0.676141 -0.736771
vn -0.001300 0.676205 -0.736713
vn -0.001300 0.676205 -0.736713
vn -0.001303 0.676141 -0.736771
vn -0.619831 -0.001083 -0.784735
vn -0.619831 -0.001083 -0.784735
vn -0.619831 -0.001083 -0.784735
vn -0.619831 -0.001083 -0.784735
vn 0.000382 -0.676795 -0.736172
vn 0.000378 -0.676731 -0.736230
vn 0.000378 -0.676731 -0.736230
vn 0.000382 -0.676795 -0.736172
vn 0.996766 0.001271 0.080352
vn 0.996766 0.001271 0.080352
vn 0.996766 0.001271 0.080352
vn 0.996766 0.001271 0.080352
vn 0.996766 0.001271 0.080352
vn 0.996766 0.001271 0.080352
vn 0.996766 0.001271 0.080352
vn 0.996766 0.001271 0.080352
vn 0.996766 0.001271 0.080352
vn 0.996766 0.001271 0.080352
s off
f 96/127/277 97/128/278 72/129/279 74/130/280
f 76/131/281 95/132/282 96/127/283 74/130/284
f 75/133/285 95/134/286 98/135/287 77/136/288
f 98/137/289 78/138/290 72/139/291 97/140/292
f 77/136/293 85/141/294 86/142/295 75/133/296
f 72/129/297 83/143/298 81/144/299 74/130/300
f 73/145/301 79/146/302 82/147/303 71/148/304
f 75/133/305 86/142/306 79/146/307 73/145/308
f 80/149/309 76/150/310 74/130/311 81/144/312
f 84/151/313 89/152/314 90/153/315 78/154/316
f 85/141/317 77/136/318 71/148/319 82/147/320
f 83/143/321 88/155/322 89/152/323 84/151/324
f 88/156/325 87/157/326 90/158/327 89/159/328
f 90/153/329 87/160/330 72/129/331 78/154/332
f 72/129/333 87/160/334 88/155/335 83/143/336
f 91/161/337 80/162/338 81/163/339 93/164/340
f 83/165/341 84/166/342 92/167/343 94/168/344
f 84/166/345 80/162/346 91/161/347 92/167/348
f 81/163/349 83/165/350 94/168/351 93/164/352
f 86/169/353 85/170/354 92/167/355 91/161/356
f 85/170/357 82/171/358 94/168/359 92/167/360
f 82/171/361 79/172/362 93/164/363 94/168/364
f 79/172/365 86/169/366 91/161/367 93/164/368
f 96/127/369 95/132/370 75/173/371 73/174/372
f 71/175/373 97/128/374 96/127/375 73/174/376
f 98/137/377 97/140/378 71/176/379 77/177/380
f 95/134/381 76/178/382 80/179/383
f 98/135/384 95/134/385 80/179/386 84/180/387
f 98/135/388 84/180/389 78/181/390
v -21.133972 7.355151 24.178699
v -21.151886 21.763479 24.172956
v 7.172516 21.798676 24.155285
v 7.190460 7.390347 24.161028
vt 0.302002 0.265205
vt 0.302002 0.265205
vt 0.302002 0.265205
vt 0.302002 0.265205
vn 0.000623 0.000399 1.000000
vn 0.000623 0.000399 1.000000
vn 0.000623 0.000399 1.000000
vn 0.000623 0.000399 1.000000
s off
f 99/182/391 102/183/392 101/184/393 100/185/394
