# This file uses centimeters as units for non-parametric coordinates.

v 12.006485 13.039257 2.642597
v 12.006485 13.039257 0.000000
v 12.006485 -13.039259 2.642597
v 12.006485 -13.039259 0.000000
v -12.006481 13.039257 2.642597
v -12.006481 -13.039259 2.642597
v -12.006481 13.039257 0.000000
v -12.006481 -13.039259 0.000000
vt 0.048000 0.119280
vt 0.048000 0.062216
vt 0.098523 0.062216
vt 0.098523 0.119280
vt 0.048000 0.119280
vt 0.098523 0.119280
vt 0.097673 0.035223
vt 0.097676 0.034915
vt 0.097800 0.034636
vt 0.097791 0.034943
vt 0.098523 0.062216
vt 0.097944 0.035456
vt 0.098007 0.035491
vt 0.097425 0.035719
vt 0.097359 0.035694
vt 0.097933 0.034721
vt 0.097993 0.034760
vn 0.000000 0.000000 1.000000
vn 0.000000 0.000000 1.000000
vn 0.000000 0.000000 1.000000
vn 0.000000 0.000000 1.000000
vn 0.000000 1.000000 0.000000
vn 0.000000 1.000000 0.000000
vn 0.000000 1.000000 0.000000
vn 0.000000 1.000000 0.000000
vn 0.000000 0.000000 -1.000000
vn 0.000000 0.000000 -1.000000
vn 0.000000 0.000000 -1.000000
vn 0.000000 0.000000 -1.000000
vn 1.000000 0.000000 0.000000
vn 1.000000 0.000000 0.000000
vn 1.000000 0.000000 0.000000
vn 1.000000 0.000000 0.000000
vn 0.000000 -1.000000 0.000000
vn 0.000000 -1.000000 0.000000
vn 0.000000 -1.000000 0.000000
vn 0.000000 -1.000000 0.000000
vn -1.000000 0.000000 0.000000
vn -1.000000 0.000000 0.000000
vn -1.000000 0.000000 0.000000
vn -1.000000 0.000000 0.000000
s off
f 5/1/1 6/2/2 3/3/3 1/4/4
f 7/5/5 5/1/6 1/4/7 2/6/8
f 8/7/9 7/8/10 2/9/11 4/10/12
f 3/3/13 4/11/14 2/6/15 1/4/16
f 6/12/17 8/13/18 4/14/19 3/15/20
f 6/12/21 5/16/22 7/17/23 8/13/24
