# This file uses centimeters as units for non-parametric coordinates.

v 0.379397 9.571609 -0.657134
v -0.379397 9.571609 -0.657134
v -0.758795 9.571609 0.000000
v -0.379398 9.571609 0.657135
v 0.379397 9.571609 0.657135
v 0.758794 9.571609 0.000000
v -0.000000 9.571609 0.000000
v 0.623986 -2.377824 -1.080772
v -0.623984 -2.377824 -1.080772
v -1.247972 -2.377824 -0.000000
v -0.623986 -2.377824 1.080772
v 0.623986 -2.377824 1.080772
v 1.247972 -2.377824 -0.000000
v 0.623984 8.547376 -1.080772
v 1.247969 8.547376 0.000000
v 0.623984 8.547376 1.080772
v -0.623986 8.547376 1.080772
v -1.247972 8.547376 0.000000
v -0.623985 8.547376 -1.080772
v 1.238581 -10.326336 -0.000000
v 0.619290 -10.326336 -1.072643
v 0.000001 -10.966873 -0.000000
v 0.619292 -10.326335 1.072642
v -0.619290 -10.326335 1.072643
v -1.238581 -10.326336 -0.000000
v -0.619290 -10.326336 -1.072643
v -0.754548 -2.677824 -1.306919
v 0.754549 -2.677824 -1.306919
v -1.509099 -2.677824 -0.000000
v -0.754549 -2.677824 1.306916
v 0.754549 -2.677824 1.306916
v 1.509098 -2.677824 -0.000000
v -0.759699 -8.193078 -1.315838
v -1.519401 -8.193078 -0.000000
v -0.759699 -8.193078 1.315839
v 0.759701 -8.193078 1.315839
v 1.519401 -8.193078 -0.000000
v 0.759701 -8.193078 -1.315838
vt 0.080240 0.251925
vt 0.080236 0.251935
vt 0.329632 0.331840
vt 0.329705 0.331824
vt 0.080364 0.252075
vt 0.329704 0.330964
vt 0.080362 0.251941
vt 0.329627 0.330971
vt 0.080491 0.251935
vt 0.329784 0.331836
vt 0.080489 0.251924
vt 0.329787 0.330969
vt 0.080365 0.251919
vt 0.080365 0.251129
vt 0.080212 0.251126
vt 0.080516 0.251126
vt 0.080518 0.251119
vt 0.080361 0.251115
vt 0.080206 0.251118
vt 0.329792 0.331866
vt 0.329795 0.330981
vt 0.329718 0.331883
vt 0.329717 0.330988
vt 0.329637 0.331870
vt 0.329632 0.330983
vt 0.329659 0.330887
vt 0.080364 0.251089
vt 0.080237 0.251085
vt 0.080490 0.251086
vt 0.080491 0.251079
vt 0.080361 0.251075
vt 0.080233 0.251078
vt 0.329706 0.330883
vt 0.329710 0.330889
vt 0.329757 0.330886
vt 0.329762 0.330892
vt 0.329714 0.330895
vt 0.329663 0.330893
vt 0.080365 0.251499
vt 0.080504 0.251500
vt 0.080505 0.251501
vt 0.080362 0.251502
vt 0.080220 0.251501
vt 0.080225 0.251500
vt 0.361837 0.342899
vt 0.361837 0.348393
vt 0.337060 0.348393
vt 0.337060 0.342899
vt 0.337060 0.348393
vt 0.337060 0.342899
vt 0.361837 0.342899
vt 0.361837 0.348393
vn 0.000000 0.000000 -1.000000
vn 0.000000 0.000000 -1.000000
vn 0.000000 0.000000 -1.000000
vn 0.000000 0.000000 -1.000000
vn -0.866025 0.000000 -0.500001
vn -0.866025 0.000000 -0.500001
vn -0.866025 0.000000 -0.500001
vn -0.866025 0.000000 -0.500001
vn -0.866025 0.000000 0.500000
vn -0.866025 0.000000 0.500000
vn -0.866025 0.000000 0.500000
vn -0.866025 0.000000 0.500000
vn 0.000000 0.000000 1.000000
vn 0.000000 0.000000 1.000000
vn 0.000000 0.000000 1.000000
vn 0.000000 0.000000 1.000000
vn 0.866025 0.000000 0.500000
vn 0.866025 0.000000 0.500000
vn 0.866025 0.000000 0.500000
vn 0.866025 0.000000 0.500000
vn 0.866025 0.000000 -0.500000
vn 0.866025 0.000000 -0.500000
vn 0.866025 0.000000 -0.500000
vn 0.866025 0.000000 -0.500000
vn 0.484627 -0.828764 -0.279799
vn 0.484627 -0.828764 -0.279799
vn 0.484627 -0.828764 -0.279799
vn 0.484627 -0.828764 0.279797
vn 0.484627 -0.828764 0.279797
vn 0.484627 -0.828764 0.279797
vn 0.000000 -0.828763 0.559600
vn 0.000000 -0.828763 0.559600
vn 0.000000 -0.828763 0.559600
vn -0.484626 -0.828764 0.279799
vn -0.484626 -0.828764 0.279799
vn -0.484626 -0.828764 0.279799
vn -0.484626 -0.828764 -0.279799
vn -0.484626 -0.828764 -0.279799
vn -0.484626 -0.828764 -0.279799
vn 0.000000 -0.828765 -0.559597
vn 0.000000 -0.828765 -0.559597
vn 0.000000 -0.828765 -0.559597
vn 0.000000 1.000000 0.000000
vn 0.000000 1.000000 0.000000
vn 0.000000 1.000000 0.000000
vn 0.000000 1.000000 0.000000
vn 0.000000 1.000000 0.000000
vn 0.000000 1.000000 0.000000
vn 0.000000 1.000000 0.000000
vn 0.000000 1.000000 0.000000
vn 0.000000 1.000000 0.000000
vn 0.000000 1.000000 0.000000
vn 0.000000 1.000000 0.000000
vn 0.000000 1.000000 0.000000
vn 0.000000 1.000000 0.000000
vn 0.000000 1.000000 0.000000
vn 0.000000 1.000000 0.000000
vn 0.000000 1.000000 0.000000
vn 0.000000 1.000000 0.000000
vn 0.000000 1.000000 0.000000
vn 0.000000 0.001430 -0.999999
vn 0.000000 0.001430 -0.999999
vn 0.000000 0.001430 -0.999999
vn 0.000000 0.001430 -0.999999
vn -0.866024 0.001430 -0.500000
vn -0.866024 0.001430 -0.500000
vn -0.866024 0.001430 -0.500000
vn -0.866024 0.001430 -0.500000
vn -0.866024 0.001431 0.500000
vn -0.866024 0.001431 0.500000
vn -0.866024 0.001431 0.500000
vn -0.866024 0.001431 0.500000
vn 0.000000 0.001430 0.999999
vn 0.000000 0.001430 0.999999
vn 0.000000 0.001430 0.999999
vn 0.000000 0.001430 0.999999
vn 0.866024 0.001431 0.500000
vn 0.866024 0.001431 0.500000
vn 0.866024 0.001431 0.500000
vn 0.866024 0.001431 0.500000
vn 0.866024 0.001431 -0.500000
vn 0.866024 0.001431 -0.500000
vn 0.866024 0.001431 -0.500000
vn 0.866024 0.001431 -0.500000
vn 0.813319 0.343535 -0.469570
vn 0.813319 0.343535 -0.469570
vn 0.813319 0.343535 -0.469570
vn 0.813319 0.343535 -0.469570
vn 0.813319 0.343535 0.469570
vn 0.813319 0.343535 0.469570
vn 0.813319 0.343535 0.469570
vn 0.813319 0.343535 0.469570
vn 0.000000 0.343535 0.939140
vn 0.000000 0.343535 0.939140
vn 0.000000 0.343535 0.939140
vn 0.000000 0.343535 0.939140
vn -0.813319 0.343535 0.469570
vn -0.813319 0.343535 0.469570
vn -0.813319 0.343535 0.469570
vn -0.813319 0.343535 0.469570
vn -0.813319 0.343535 -0.469570
vn -0.813319 0.343535 -0.469570
vn -0.813319 0.343535 -0.469570
vn -0.813319 0.343535 -0.469570
vn 0.000000 0.343535 -0.939140
vn 0.000000 0.343535 -0.939140
vn 0.000000 0.343535 -0.939140
vn 0.000000 0.343535 -0.939140
vn 0.000000 0.554700 -0.832050
vn 0.000000 0.554700 -0.832050
vn 0.000000 0.554700 -0.832050
vn 0.000000 0.554700 -0.832050
vn -0.720576 0.554701 -0.416026
vn -0.720576 0.554701 -0.416026
vn -0.720576 0.554701 -0.416026
vn -0.720576 0.554701 -0.416026
vn -0.720577 0.554700 0.416025
vn -0.720577 0.554700 0.416025
vn -0.720577 0.554700 0.416025
vn -0.720577 0.554700 0.416025
vn 0.000000 0.554700 0.832050
vn 0.000000 0.554700 0.832050
vn 0.000000 0.554700 0.832050
vn 0.000000 0.554700 0.832050
vn 0.720577 0.554700 0.416026
vn 0.720577 0.554700 0.416026
vn 0.720577 0.554700 0.416026
vn 0.720577 0.554700 0.416026
vn 0.720577 0.554700 -0.416026
vn 0.720577 0.554700 -0.416026
vn 0.720577 0.554700 -0.416026
vn 0.720577 0.554700 -0.416026
vn -0.861657 -0.100314 -0.497479
vn -0.861657 -0.100314 -0.497479
vn -0.861657 -0.100314 -0.497479
vn -0.861657 -0.100314 -0.497479
vn -0.861657 -0.100314 0.497479
vn -0.861657 -0.100314 0.497479
vn -0.861657 -0.100314 0.497479
vn -0.861657 -0.100314 0.497479
vn 0.000000 -0.100314 0.994956
vn 0.000000 -0.100314 0.994956
vn 0.000000 -0.100314 0.994956
vn 0.000000 -0.100314 0.994956
vn 0.861657 -0.100314 0.497478
vn 0.861657 -0.100314 0.497478
vn 0.861657 -0.100314 0.497478
vn 0.861657 -0.100314 0.497478
vn 0.861657 -0.100314 -0.497478
vn 0.861657 -0.100314 -0.497478
vn 0.861657 -0.100314 -0.497478
vn 0.861657 -0.100314 -0.497478
vn 0.000000 -0.100314 -0.994956
vn 0.000000 -0.100314 -0.994956
vn 0.000000 -0.100314 -0.994956
vn 0.000000 -0.100314 -0.994956
s off
f 8/45/1 9/46/2 19/47/3 14/48/4
f 9/4/5 10/10/6 18/12/7 19/6/8
f 10/10/9 11/20/10 17/21/11 18/12/12
f 11/49/13 12/50/14 16/51/15 17/52/16
f 12/22/17 13/24/18 15/25/19 16/23/20
f 13/24/21 8/3/22 14/8/23 15/25/24
f 21/1/25 20/2/26 22/5/27
f 20/2/28 23/7/29 22/5/30
f 23/7/31 24/9/32 22/5/33
f 24/9/34 25/11/35 22/5/36
f 25/11/37 26/13/38 22/5/39
f 26/13/40 21/1/41 22/5/42
f 1/26/43 2/33/44 7/34/45
f 2/33/46 3/35/47 7/34/48
f 3/35/49 4/36/50 7/34/51
f 4/36/52 5/37/53 7/34/54
f 5/37/55 6/38/56 7/34/57
f 6/38/58 1/26/59 7/34/60
f 38/44/61 33/39/62 27/14/63 28/15/64
f 33/39/65 34/40/66 29/16/67 27/14/68
f 34/40/69 35/41/70 30/17/71 29/16/72
f 35/41/73 36/42/74 31/18/75 30/17/76
f 36/42/77 37/43/78 32/19/79 31/18/80
f 37/43/81 38/44/82 28/15/83 32/19/84
f 15/25/85 14/8/86 1/26/87 6/38/88
f 16/23/89 15/25/90 6/38/91 5/37/92
f 17/21/93 16/23/94 5/37/95 4/36/96
f 18/12/97 17/21/98 4/36/99 3/35/100
f 19/6/101 18/12/102 3/35/103 2/33/104
f 14/8/105 19/6/106 2/33/107 1/26/108
f 9/27/109 8/28/110 28/15/111 27/14/112
f 10/29/113 9/27/114 27/14/115 29/16/116
f 11/30/117 10/29/118 29/16/119 30/17/120
f 12/31/121 11/30/122 30/17/123 31/18/124
f 13/32/125 12/31/126 31/18/127 32/19/128
f 8/28/129 13/32/130 32/19/131 28/15/132
f 26/13/133 25/11/134 34/40/135 33/39/136
f 25/11/137 24/9/138 35/41/139 34/40/140
f 24/9/141 23/7/142 36/42/143 35/41/144
f 23/7/145 20/2/146 37/43/147 36/42/148
f 20/2/149 21/1/150 38/44/151 37/43/152
f 21/1/153 26/13/154 33/39/155 38/44/156
