# This file uses centimeters as units for non-parametric coordinates.

v -11.057098 0.000000 16.674042
v 11.057098 0.000000 16.674042
v -11.057098 0.000000 -16.674072
v 11.057098 0.000000 -16.674072
v -11.057190 1.189049 16.673981
v 11.057098 1.189047 16.674042
v 11.057098 1.189047 -16.674072
v -11.057190 1.189049 -16.674133
v -10.157190 1.189049 15.773983
v 10.157099 1.189047 15.774039
v 10.157099 1.189047 -15.774075
v -10.157190 1.189049 -15.774131
v -10.157190 1.189049 -4.084465
v -10.157190 1.189049 5.440896
v -9.214789 1.189049 -4.333185
v -8.576417 1.189049 -5.792637
v -6.120599 1.189048 -7.509795
v -0.945078 1.189048 -7.477162
v 1.112180 1.189048 -7.336804
v 1.667851 1.189048 -8.120957
v 3.133987 1.189047 -7.972846
v 3.633626 1.189047 -7.114737
v 4.254189 1.189047 -6.979010
v 6.574997 1.189047 -5.556542
v 8.282817 1.189047 -1.161055
v 7.852897 1.189047 3.071751
v 5.255427 1.189047 7.532679
v 1.172071 1.189048 8.791218
v -2.892584 1.189048 7.688881
v -7.307220 1.189048 5.102642
v -9.109885 1.189049 -1.093394
v -7.311870 1.189048 2.220948
v 0.812038 1.189048 -5.214389
v -2.250106 1.189048 -0.289038
v -0.698294 1.189048 0.030133
v 0.199631 1.189048 -0.596027
v 2.188254 1.189048 -4.475676
v -6.955322 1.189049 -5.692791
v -4.911117 1.189049 -5.566886
v -4.891301 1.189048 -7.028900
v -5.022390 1.189049 -3.468214
v -6.683355 1.189049 -3.453970
v -3.276112 1.189048 -6.975300
v -0.964293 1.189048 -2.357223
v -1.578100 1.189048 -2.495235
v -1.224390 1.189048 -4.262004
v -0.691155 1.189048 -4.167856
v 1.019645 1.189048 -6.682453
v 0.207672 1.189048 -5.629511
v -0.247220 1.189048 -5.866064
v 0.397005 1.189048 -6.803830
v 5.060308 1.189048 -2.541333
v 4.470457 1.189047 4.822639
v 0.023351 1.189048 4.864654
v 0.628417 1.189048 6.175250
v -1.070689 1.189048 6.874425
v -3.633653 1.189048 5.696183
v -4.714764 1.189048 3.627109
v -5.866856 1.189048 -0.395289
v -2.086223 1.189048 4.591713
v 1.696030 1.189048 -5.104801
v -5.472123 1.189048 1.455395
v -8.014580 1.189049 -1.003478
v -1.211240 1.189048 -5.339005
vt 0.380248 0.359429
vt 0.384185 0.359429
vt 0.384185 0.364252
vt 0.380248 0.364252
vt 0.380248 0.359429
vt 0.380248 0.364252
vt 0.384185 0.364252
vt 0.384185 0.359429
vt 0.380248 0.359429
vt 0.384185 0.359429
vt 0.384185 0.364252
vt 0.380248 0.364252
vt 0.380248 0.359429
vt 0.384185 0.359429
vt 0.384185 0.364252
vt 0.380248 0.364252
vt 0.079008 0.230885
vt 0.079071 0.230420
vt 0.079935 0.230438
vt 0.080008 0.230910
vt 0.079618 0.230900
vt 0.380248 0.362374
vt 0.079339 0.230893
vt 0.380248 0.361024
vt 0.079642 0.230879
vt 0.079686 0.230865
vt 0.079731 0.230810
vt 0.079712 0.230689
vt 0.079700 0.230642
vt 0.079723 0.230629
vt 0.079715 0.230595
vt 0.079692 0.230583
vt 0.079689 0.230569
vt 0.079652 0.230515
vt 0.079533 0.230473
vt 0.079417 0.230480
vt 0.079322 0.230555
vt 0.079254 0.230630
vt 0.079281 0.230725
vt 0.079359 0.230813
vt 0.077447 0.320736
vt 0.077529 0.320431
vt 0.079998 0.255249
vt 0.080105 0.324671
vt 0.079112 0.325022
vt 0.079244 0.324868
vt 0.079171 0.255568
vt 0.079678 0.230833
vt 0.079669 0.230793
vt 0.079698 0.230786
vt 0.079614 0.230784
vt 0.079617 0.230821
vt 0.079692 0.230752
vt 0.079996 0.324570
vt 0.080366 0.301257
vt 0.081366 0.301200
vt 0.081357 0.301893
vt 0.079682 0.230653
vt 0.079656 0.230687
vt 0.079666 0.230709
vt 0.079691 0.230683
vt 0.082042 0.376508
vt 0.081938 0.376323
vt 0.102974 0.352409
vt 0.081621 0.376264
vt 0.081320 0.376255
vt 0.081611 0.376125
vt 0.102764 0.352226
vt 0.102905 0.352156
vt 0.102906 0.352244
vt 0.386320 0.361795
vt 0.386325 0.361973
vt 0.386033 0.361817
vt 0.386115 0.361669
vt 0.102934 0.352507
vt 0.386651 0.362320
vt 0.386694 0.361896
vt 0.386977 0.362245
vt 0.103015 0.352719
vt 0.102780 0.352901
vt 0.386332 0.362218
vt 0.386114 0.362061
vt 0.080610 0.381790
vt 0.080614 0.381615
vt 0.080722 0.381405
vt 0.080813 0.381545
vt 0.080853 0.381003
vt 0.080730 0.381235
vt 0.080619 0.381398
vt 0.080632 0.380800
vt 0.080670 0.380866
vt 0.080685 0.380985
vt 0.080788 0.380928
vt 0.080786 0.380793
vt 0.080855 0.380790
vt 0.103023 0.352232
vt 0.103024 0.352150
vt 0.103100 0.352060
vt 0.103091 0.352431
vt 0.103088 0.352566
vt 0.103086 0.352674
vt 0.102515 0.352218
vt 0.102511 0.352093
vt 0.102753 0.352125
vt 0.102520 0.352391
vt 0.102773 0.352681
vt 0.081435 0.377152
vt 0.102368 0.352005
vt 0.102481 0.351773
vt 0.102952 0.351778
vt 0.103060 0.351969
vt 0.102799 0.352072
vt 0.081259 0.376740
vt 0.102367 0.352280
vt 0.081871 0.376123
vt 0.082132 0.376249
vt 0.082208 0.376396
vt 0.082213 0.376434
vt 0.082173 0.376592
vt 0.082104 0.376636
vt 0.082081 0.376596
vt 0.081213 0.376494
vt 0.081316 0.376643
vt 0.081363 0.376821
vt 0.081371 0.376543
vt 0.080374 0.301996
vt 0.079008 0.255418
vt 0.080112 0.324834
vt 0.079551 0.325112
vt 0.079143 0.325315
vt 0.079771 0.255091
vt 0.079180 0.255813
vt 0.080008 0.255652
vt 0.079778 0.255784
vt 0.079594 0.255793
vt 0.077301 0.320092
vt 0.077740 0.320503
vt 0.078017 0.320680
vt 0.078301 0.320708
vt 0.078222 0.320787
vt 0.081341 0.376371
vt 0.102630 0.352425
vt 0.386390 0.362225
vt 0.386962 0.362399
vt 0.386680 0.362576
vt 0.102836 0.352757
vt 0.102723 0.352592
vt 0.080628 0.381012
vt 0.103097 0.352191
vt 0.102567 0.352541
vn -0.000000 -1.000000 -0.000000
vn -0.000000 -1.000000 -0.000000
vn -0.000000 -1.000000 -0.000000
vn -0.000000 -1.000000 -0.000000
vn -0.000001 0.000026 1.000000
vn -0.000001 0.000026 1.000000
vn 0.000000 1.000000 0.000000
vn 0.000000 1.000000 0.000000
vn 1.000000 0.000000 0.000000
vn 0.000000 1.000000 0.000000
vn 0.000000 1.000000 0.000000
vn 1.000000 0.000000 0.000000
vn 0.000001 -0.000026 -1.000000
vn 0.000001 -0.000026 -1.000000
vn 0.000000 1.000000 0.000000
vn 0.000000 1.000000 0.000000
vn 0.000000 1.000000 0.000000
vn 0.000000 1.000000 0.000000
vn -1.000000 -0.000077 0.000000
vn -1.000000 -0.000077 0.000000
vn 0.000000 1.000000 -0.000000
vn 0.000000 1.000000 0.000000
vn 0.000000 1.000000 -0.000000
vn -0.000000 1.000000 0.000000
vn 0.000000 1.000000 -0.000000
vn 0.000000 1.000000 -0.000000
vn 0.000000 1.000000 -0.000000
vn 0.000000 1.000000 -0.000000
vn 0.000000 1.000000 -0.000000
vn 0.000000 1.000000 0.000000
vn 0.000000 1.000000 0.000000
vn 0.000000 1.000000 -0.000000
vn 0.000000 1.000000 0.000000
vn 0.000000 1.000000 0.000000
vn 0.000000 1.000000 0.000000
vn 0.000000 1.000000 0.000000
vn 0.000000 1.000000 0.000000
vn 0.000000 1.000000 -0.000000
vn 0.000000 1.000000 -0.000000
vn 0.000000 1.000000 -0.000000
vn 0.000000 1.000000 -0.000000
vn 0.000000 1.000000 -0.000000
vn 0.000000 1.000000 -0.000000
vn 0.000000 1.000000 -0.000000
vn 0.000000 1.000000 -0.000000
vn 0.000000 1.000000 0.000000
vn -0.000000 1.000000 0.000000
vn 0.000000 1.000000 -0.000000
vn 0.000000 1.000000 0.000000
vn 0.000000 1.000000 0.000000
vn 0.000000 1.000000 -0.000000
vn 0.000000 1.000000 -0.000000
vn 0.000000 1.000000 0.000000
vn 0.000000 1.000000 0.000000
vn 0.000000 1.000000 -0.000000
vn 0.000000 1.000000 -0.000000
vn 0.000000 1.000000 -0.000000
vn 0.000000 1.000000 -0.000000
vn 0.000000 1.000000 -0.000000
vn 0.000000 1.000000 -0.000000
vn 0.000000 1.000000 0.000000
vn 0.000000 1.000000 0.000000
vn 0.000000 1.000000 -0.000000
vn 0.000000 1.000000 0.000000
vn 0.000000 1.000000 0.000000
vn 0.000000 1.000000 0.000000
vn 0.000000 1.000000 0.000000
vn 0.000000 1.000000 -0.000000
vn 0.000000 1.000000 -0.000000
vn 0.000000 1.000000 -0.000000
vn 0.000000 1.000000 0.000000
vn -0.000000 1.000000 0.000000
vn 0.000000 1.000000 0.000000
vn 0.000000 1.000000 -0.000000
vn 0.000000 1.000000 -0.000000
vn 0.000000 1.000000 0.000000
vn 0.000000 1.000000 0.000000
vn 0.000000 1.000000 0.000000
vn 0.000000 1.000000 0.000000
vn 0.000000 1.000000 -0.000000
vn 0.000000 1.000000 0.000000
vn 0.000000 1.000000 0.000000
vn 0.000000 1.000000 0.000000
vn 0.000000 1.000000 -0.000000
vn 0.000000 1.000000 0.000000
vn 0.000000 1.000000 -0.000000
vn 0.000000 1.000000 0.000000
vn 0.000000 1.000000 -0.000000
vn 0.000000 1.000000 -0.000000
vn 0.000000 1.000000 0.000000
vn 0.000000 1.000000 0.000000
vn 0.000000 1.000000 -0.000000
vn 0.000000 1.000000 -0.000000
vn 0.000000 1.000000 0.000000
vn 0.000000 1.000000 -0.000000
vn 0.000000 1.000000 0.000000
vn 0.000000 1.000000 -0.000000
vn 0.000000 1.000000 -0.000000
vn 0.000000 1.000000 0.000000
vn 0.000000 1.000000 -0.000000
vn 0.000000 1.000000 -0.000000
vn 0.000000 1.000000 0.000000
vn 0.000000 1.000000 0.000000
vn 0.000000 1.000000 -0.000000
vn 0.000000 1.000000 0.000000
vn 0.000000 1.000000 0.000000
vn 0.000000 1.000000 0.000000
vn 0.000000 1.000000 0.000000
vn 0.000000 1.000000 0.000000
vn 0.000000 1.000000 0.000000
vn 0.000000 1.000000 0.000000
vn 0.000000 1.000000 0.000000
vn 0.000000 1.000000 0.000000
vn 0.000000 1.000000 0.000000
vn 0.000000 1.000000 0.000000
vn 0.000000 1.000000 0.000000
vn 0.000000 1.000000 0.000000
vn 0.000000 1.000000 0.000000
vn 0.000000 1.000000 -0.000000
vn 0.000000 1.000000 0.000000
vn 0.000000 1.000000 0.000000
vn 0.000000 1.000000 0.000000
vn 0.000000 1.000000 -0.000000
vn 0.000000 1.000000 0.000000
vn 0.000000 1.000000 0.000000
vn 0.000000 1.000000 0.000000
vn 0.000000 1.000000 0.000000
vn 0.000000 1.000000 0.000000
vn 0.000000 1.000000 0.000000
vn 0.000000 1.000000 -0.000000
vn 0.000000 1.000000 -0.000000
vn 0.000000 1.000000 -0.000000
vn 0.000000 1.000000 0.000000
vn 0.000000 1.000000 0.000000
vn 0.000000 1.000000 0.000000
vn 0.000000 1.000000 0.000000
vn 0.000000 1.000000 -0.000000
vn 0.000000 1.000000 -0.000000
vn 0.000000 1.000000 0.000000
vn 0.000000 1.000000 -0.000000
vn 0.000000 1.000000 0.000000
vn 0.000000 1.000000 0.000000
vn 0.000000 1.000000 0.000000
vn 0.000000 1.000000 -0.000000
vn 0.000000 1.000000 0.000000
vn 0.000000 1.000000 0.000000
vn 0.000000 1.000000 -0.000000
vn 0.000000 1.000000 -0.000000
vn -0.000000 1.000000 0.000000
vn 0.000000 1.000000 0.000000
vn 0.000000 1.000000 0.000000
vn 0.000000 1.000000 0.000000
vn 0.000000 1.000000 0.000000
vn 0.000000 1.000000 0.000000
vn 0.000000 1.000000 0.000000
vn 0.000000 1.000000 0.000000
vn 0.000000 1.000000 0.000000
vn 0.000000 1.000000 0.000000
vn 0.000000 1.000000 0.000000
vn 0.000000 1.000000 0.000000
vn 0.000000 1.000000 0.000000
vn 0.000000 1.000000 0.000000
vn 0.000000 1.000000 0.000000
vn 0.000000 1.000000 0.000000
vn 0.000000 1.000000 -0.000000
vn 0.000000 1.000000 -0.000000
vn 0.000000 1.000000 0.000000
vn 0.000000 1.000000 -0.000000
vn 0.000000 1.000000 0.000000
vn 0.000000 1.000000 0.000000
vn 0.000000 1.000000 -0.000000
vn 0.000000 1.000000 0.000000
vn 0.000000 1.000000 -0.000000
vn 0.000000 1.000000 -0.000000
vn 0.000000 1.000000 -0.000000
vn 0.000000 1.000000 0.000000
vn 0.000000 1.000000 0.000000
vn 0.000000 1.000000 -0.000000
vn 0.000000 1.000000 -0.000000
vn 0.000000 1.000000 -0.000000
vn 0.000000 1.000000 -0.000000
vn 0.000000 1.000000 -0.000000
vn 0.000000 1.000000 -0.000000
vn 0.000000 1.000000 -0.000000
vn 0.000000 1.000000 -0.000000
vn 0.000000 1.000000 0.000000
vn 0.000000 1.000000 -0.000000
vn 0.000000 1.000000 -0.000000
vn 0.000000 1.000000 0.000000
vn 0.000000 1.000000 -0.000000
vn 0.000000 1.000000 -0.000000
vn 0.000000 1.000000 -0.000000
vn 0.000000 1.000000 -0.000000
vn 0.000000 1.000000 0.000000
vn 0.000000 1.000000 0.000000
vn 0.000000 1.000000 -0.000000
vn 0.000000 1.000000 0.000000
vn 0.000000 1.000000 0.000000
vn 0.000000 1.000000 -0.000000
vn 0.000000 1.000000 -0.000000
vn 0.000000 1.000000 0.000000
vn 0.000000 1.000000 0.000000
vn 0.000000 1.000000 0.000000
vn 0.000000 1.000000 0.000000
vn 0.000000 1.000000 0.000000
vn 0.000000 1.000000 -0.000000
vn 0.000000 1.000000 0.000000
vn 0.000000 1.000000 -0.000000
vn 0.000000 1.000000 -0.000000
vn 0.000000 1.000000 0.000000
vn 0.000000 1.000000 0.000000
vn 0.000000 1.000000 0.000000
vn 0.000000 1.000000 -0.000000
vn 0.000000 1.000000 -0.000000
vn 0.000000 1.000000 -0.000000
vn 0.000000 1.000000 0.000000
vn 0.000000 1.000000 -0.000000
vn 0.000000 1.000000 -0.000000
vn 0.000000 1.000000 -0.000000
vn 0.000000 1.000000 0.000000
vn 0.000000 1.000000 0.000000
vn 0.000000 1.000000 -0.000000
vn 0.000000 1.000000 -0.000000
vn 0.000000 1.000000 0.000000
vn 0.000000 1.000000 0.000000
vn 0.000000 1.000000 -0.000000
vn 0.000000 1.000000 0.000000
vn 0.000000 1.000000 -0.000000
vn 0.000000 1.000000 -0.000000
vn 0.000000 1.000000 -0.000000
vn 0.000000 1.000000 -0.000000
vn 0.000000 1.000000 -0.000000
vn 0.000000 1.000000 0.000000
vn 0.000000 1.000000 -0.000000
vn 0.000000 1.000000 0.000000
vn 0.000000 1.000000 0.000000
vn 0.000000 1.000000 0.000000
vn 0.000000 1.000000 0.000000
vn 0.000000 1.000000 -0.000000
vn 0.000000 1.000000 0.000000
vn 0.000000 1.000000 -0.000000
vn 0.000000 1.000000 0.000000
vn 0.000000 1.000000 0.000000
vn 0.000000 1.000000 0.000000
vn 0.000000 1.000000 0.000000
vn 0.000000 1.000000 0.000000
vn 0.000000 1.000000 0.000000
vn 0.000000 1.000000 -0.000000
vn 0.000000 1.000000 -0.000000
vn 0.000000 1.000000 0.000000
vn 0.000000 1.000000 -0.000000
vn 0.000000 1.000000 -0.000000
vn 0.000000 1.000000 0.000000
vn 0.000000 1.000000 0.000000
vn 0.000000 1.000000 -0.000000
vn 0.000000 1.000000 0.000000
vn 0.000000 1.000000 -0.000000
vn 0.000000 1.000000 0.000000
vn 0.000000 1.000000 -0.000000
vn 0.000000 1.000000 -0.000000
vn 0.000000 1.000000 0.000000
vn 0.000000 1.000000 -0.000000
vn 0.000000 1.000000 0.000000
vn 0.000000 1.000000 -0.000000
vn 0.000000 1.000000 0.000000
vn 0.000000 1.000000 -0.000000
vn 0.000000 1.000000 -0.000000
vn 0.000000 1.000000 -0.000000
vn 0.000000 1.000000 0.000000
vn 0.000000 1.000000 -0.000000
vn 0.000000 1.000000 0.000000
vn 0.000000 1.000000 0.000000
vn 0.000000 1.000000 0.000000
vn 0.000000 1.000000 0.000000
s off
f 3/6/1 4/7/2 2/8/3 1/5/4
f 1/9/5 2/10/6 6/2/7 5/1/8
f 4/11/9 7/3/10 6/2/11 2/10/12
f 4/11/13 3/12/14 8/4/15 7/3/16
f 5/1/17 8/4/18 3/12/19 1/9/20
f 16/26/21 12/20/22 13/21/23 15/25/24
f 5/1/25 6/2/26 10/14/27 9/13/28
f 6/2/29 7/3/30 11/15/31 10/14/32
f 7/3/33 8/4/34 12/16/35 11/15/36
f 8/4/37 5/1/38 14/24/39 13/22/40
f 43/53/41 40/50/42 38/48/43 39/49/44
f 13/140/45 31/138/46 15/139/47
f 61/44/48 35/45/49 36/46/50 37/54/51
f 64/149/52 46/96/53 47/97/54 33/98/55
f 16/83/56 38/84/57 40/85/58 17/86/59
f 38/48/60 42/52/61 41/51/62 39/49/63
f 18/87/64 51/93/65 48/94/66 19/95/67
f 17/86/68 40/85/69 43/88/70 18/87/71
f 15/79/72 42/75/73 38/100/74 16/101/75
f 26/67/76 52/63/77 53/65/78 27/66/79
f 44/55/80 47/56/81 46/57/82 45/126/83
f 33/98/84 47/97/85 44/69/86
f 48/119/87 49/120/88 33/121/89
f 48/58/90 51/61/91 50/60/92 49/59/93
f 28/122/94 56/123/95 57/124/96 29/113/97
f 54/71/98 60/72/99 56/73/100 55/74/101
f 34/68/102 60/102/103 54/103/104 35/104/105
f 42/144/106 59/76/107 34/77/108 41/78/109
f 42/144/110 63/145/111 59/76/112
f 63/145/113 62/143/114 59/76/115
f 34/77/116 59/76/117 62/143/118
f 56/73/119 60/72/120 58/81/121 57/82/122
f 29/113/123 57/124/124 32/107/125
f 27/66/126 53/141/127 28/122/128
f 21/43/129 61/47/130 37/127/131 22/131/132
f 48/135/133 21/43/134 20/133/135 19/134/136
f 33/128/137 44/129/138 35/45/139 61/44/140
f 36/112/141 53/109/142 52/110/143 37/111/144
f 28/122/145 53/141/146 55/125/147 56/123/148
f 15/79/149 31/80/150 63/146/151 42/75/152
f 58/105/153 62/142/154 63/147/155 32/150/156
f 34/68/157 62/142/158 58/105/159 60/102/160
f 32/150/161 63/147/162 31/106/163
f 53/109/164 54/103/165 55/108/166
f 35/104/167 54/103/168 53/109/169 36/112/170
f 37/62/171 52/63/172 24/116/173 23/117/174
f 24/116/175 52/63/176 26/67/177 25/115/178
f 37/62/179 23/117/180 22/118/181
f 50/92/182 64/148/183 33/90/184 49/91/185
f 18/87/186 43/88/187 50/92/188 51/93/189
f 50/92/190 43/88/191 39/89/192 64/148/193
f 45/70/194 34/68/195 44/69/196
f 41/64/197 46/96/198 64/149/199 39/99/200
f 41/64/201 34/68/202 45/70/203 46/96/204
f 35/45/205 44/129/206 34/130/207
f 33/132/208 61/47/209 21/43/210 48/135/211
f 32/137/212 30/42/213 29/136/214
f 14/41/215 31/138/216 13/140/217
f 14/41/218 30/42/219 32/137/220 31/138/221
f 9/17/222 10/18/223 28/38/224
f 28/38/225 10/18/226 27/37/227
f 9/17/228 29/39/229 30/40/230 14/23/231
f 9/17/232 28/38/233 29/39/234
f 20/30/235 12/20/236 18/28/237 19/29/238
f 17/27/239 12/20/240 16/26/241
f 21/31/242 11/19/243 12/20/244 20/30/245
f 18/28/246 12/20/247 17/27/248
f 24/34/249 11/19/250 23/33/251
f 23/33/252 11/19/253 21/31/254 22/32/255
f 26/36/256 10/18/257 11/19/258 25/35/259
f 25/35/260 11/19/261 24/34/262
f 27/37/263 10/18/264 26/36/265
f 14/24/266 5/1/267 9/13/268
f 8/4/269 13/22/270 12/16/271
f 32/150/272 57/114/273 58/105/274
