# This file uses centimeters as units for non-parametric coordinates.

v 0.805943 11.749179 -1.395933
v -0.805944 11.749179 -1.395933
v -1.611889 11.749179 0.000000
v -0.805945 11.749179 1.395936
v 0.805943 11.749179 1.395936
v 1.611886 11.749179 0.000001
v -0.000001 11.749179 0.000001
v 1.325517 -2.918786 -2.295857
v -1.325513 -2.918786 -2.295857
v -2.651034 -2.918786 -0.000000
v -1.325517 -2.918786 2.295857
v 1.325517 -2.918786 2.295857
v 2.651034 -2.918786 -0.000000
v 1.325514 11.347361 -2.295857
v 2.651028 11.347361 0.000001
v 1.325514 11.347361 2.295857
v -1.325517 11.347361 2.295857
v -2.651034 11.347361 0.000000
v -1.325516 11.347361 -2.295857
v 2.631086 -13.461869 -0.000001
v 1.315543 -13.461869 -2.278588
v 0.000001 -13.461869 -0.000001
v 1.315545 -13.461869 2.278587
v -1.315542 -13.461869 2.278587
v -2.631087 -13.461869 -0.000000
v -1.315542 -13.461869 -2.278588
v -1.602868 -3.188548 -2.776254
v 1.602870 -3.188548 -2.776254
v -3.205739 -3.188548 -0.000001
v -1.602870 -3.188548 2.776248
v 1.602869 -3.188548 2.776248
v 3.205739 -3.188548 -0.000000
v -1.613809 -13.016425 -2.795202
v -3.227626 -13.016425 -0.000001
v -1.613809 -13.016425 2.795202
v 1.613813 -13.016425 2.795202
v 3.227625 -13.016425 -0.000001
v 1.613812 -13.016425 -2.795202
vt 0.138292 0.441962
vt 0.138287 0.441973
vt 0.329632 0.331840
vt 0.329705 0.331824
vt 0.138416 0.442112
vt 0.329704 0.330964
vt 0.138414 0.441978
vt 0.329627 0.330971
vt 0.138542 0.441972
vt 0.329784 0.331836
vt 0.138541 0.441961
vt 0.329787 0.330969
vt 0.138417 0.441956
vt 0.138417 0.441167
vt 0.138263 0.441163
vt 0.138568 0.441163
vt 0.138570 0.441156
vt 0.138413 0.441152
vt 0.138258 0.441155
vt 0.329792 0.331866
vt 0.329795 0.330981
vt 0.329718 0.331883
vt 0.329717 0.330988
vt 0.329637 0.331870
vt 0.329632 0.330983
vt 0.137380 0.446574
vt 0.138416 0.441126
vt 0.138289 0.441123
vt 0.138541 0.441123
vt 0.138543 0.441116
vt 0.138413 0.441112
vt 0.138285 0.441116
vt 0.137679 0.446577
vt 0.137568 0.446557
vt 0.137871 0.446560
vt 0.137761 0.446539
vt 0.137451 0.446536
vt 0.137262 0.446554
vt 0.138417 0.441537
vt 0.138555 0.441537
vt 0.138557 0.441538
vt 0.138413 0.441539
vt 0.138272 0.441538
vt 0.138277 0.441537
vt 0.361837 0.337570
vt 0.361837 0.348393
vt 0.337060 0.348393
vt 0.337060 0.337570
vt 0.337060 0.348393
vt 0.337060 0.337570
vt 0.361837 0.337570
vt 0.361837 0.348393
vt 0.137065 0.446629
vt 0.137263 0.446659
vt 0.137374 0.446602
vt 0.137890 0.446607
vt 0.138065 0.446639
vt 0.137749 0.446664
vn 0.000000 0.000000 -1.000000
vn 0.000000 0.000000 -1.000000
vn 0.000000 0.000000 -1.000000
vn 0.000000 0.000000 -1.000000
vn -0.866024 -0.000000 -0.500002
vn -0.866024 -0.000000 -0.500002
vn -0.866024 -0.000000 -0.500002
vn -0.866024 -0.000000 -0.500002
vn -0.866025 -0.000000 0.500001
vn -0.866025 -0.000000 0.500001
vn -0.866025 -0.000000 0.500001
vn -0.866025 -0.000000 0.500001
vn 0.000000 0.000000 1.000000
vn 0.000000 0.000000 1.000000
vn 0.000000 0.000000 1.000000
vn 0.000000 0.000000 1.000000
vn 0.866025 0.000000 0.500001
vn 0.866025 0.000000 0.500001
vn 0.866025 0.000000 0.500001
vn 0.866025 0.000000 0.500001
vn 0.866025 0.000000 -0.500000
vn 0.866025 0.000000 -0.500000
vn 0.866025 0.000000 -0.500000
vn 0.866025 0.000000 -0.500000
vn 0.000000 -1.000000 0.000000
vn 0.000000 -1.000000 0.000000
vn 0.000000 -1.000000 0.000000
vn 0.000000 -1.000000 -0.000001
vn 0.000000 -1.000000 -0.000001
vn 0.000000 -1.000000 -0.000001
vn 0.000000 -1.000000 0.000000
vn 0.000000 -1.000000 0.000000
vn 0.000000 -1.000000 0.000000
vn 0.000000 -1.000000 -0.000001
vn 0.000000 -1.000000 -0.000001
vn 0.000000 -1.000000 -0.000001
vn 0.000000 -1.000000 0.000001
vn 0.000000 -1.000000 0.000001
vn 0.000000 -1.000000 0.000001
vn 0.000000 -1.000000 0.000000
vn 0.000000 -1.000000 0.000000
vn 0.000000 -1.000000 0.000000
vn 0.000000 1.000000 0.000000
vn 0.000000 1.000000 0.000000
vn 0.000000 1.000000 0.000000
vn 0.000000 1.000000 0.000000
vn 0.000000 1.000000 0.000000
vn 0.000000 1.000000 0.000000
vn 0.000000 1.000000 -0.000002
vn 0.000000 1.000000 -0.000002
vn 0.000000 1.000000 -0.000002
vn 0.000000 1.000000 0.000000
vn 0.000000 1.000000 0.000000
vn 0.000000 1.000000 0.000000
vn 0.000000 1.000000 0.000001
vn 0.000000 1.000000 0.000001
vn 0.000000 1.000000 0.000001
vn 0.000000 1.000000 -0.000002
vn 0.000000 1.000000 -0.000002
vn 0.000000 1.000000 -0.000002
vn 0.000000 0.001928 -0.999998
vn 0.000000 0.001928 -0.999998
vn 0.000000 0.001928 -0.999998
vn 0.000000 0.001928 -0.999998
vn -0.866023 0.001928 -0.500000
vn -0.866023 0.001928 -0.500000
vn -0.866023 0.001928 -0.500000
vn -0.866023 0.001928 -0.500000
vn -0.866023 0.001928 0.500000
vn -0.866023 0.001928 0.500000
vn -0.866023 0.001928 0.500000
vn -0.866023 0.001928 0.500000
vn 0.000000 0.001929 0.999998
vn 0.000000 0.001929 0.999998
vn 0.000000 0.001929 0.999998
vn 0.000000 0.001929 0.999998
vn 0.866024 0.001929 0.499999
vn 0.866024 0.001929 0.499999
vn 0.866024 0.001929 0.499999
vn 0.866024 0.001929 0.499999
vn 0.866024 0.001928 -0.499999
vn 0.866024 0.001928 -0.499999
vn 0.866024 0.001928 -0.499999
vn 0.866024 0.001928 -0.499999
vn 0.353085 0.913113 -0.203853
vn 0.353085 0.913113 -0.203853
vn 0.353085 0.913113 -0.203853
vn 0.353085 0.913113 -0.203853
vn 0.353085 0.913113 0.203853
vn 0.353085 0.913113 0.203853
vn 0.353085 0.913113 0.203853
vn 0.353085 0.913113 0.203853
vn 0.000000 0.913113 0.407707
vn 0.000000 0.913113 0.407707
vn 0.000000 0.913113 0.407707
vn 0.000000 0.913113 0.407707
vn -0.353084 0.913113 0.203854
vn -0.353084 0.913113 0.203854
vn -0.353084 0.913113 0.203854
vn -0.353084 0.913113 0.203854
vn -0.353084 0.913113 -0.203854
vn -0.353084 0.913113 -0.203854
vn -0.353084 0.913113 -0.203854
vn -0.353084 0.913113 -0.203854
vn 0.000000 0.913113 -0.407706
vn 0.000000 0.913113 -0.407706
vn 0.000000 0.913113 -0.407706
vn 0.000000 0.913113 -0.407706
vn 0.000000 0.871933 -0.489625
vn 0.000000 0.871933 -0.489625
vn 0.000000 0.871933 -0.489625
vn 0.000000 0.871933 -0.489625
vn -0.424031 0.871931 -0.244815
vn -0.424031 0.871931 -0.244815
vn -0.424031 0.871931 -0.244815
vn -0.424031 0.871931 -0.244815
vn -0.424033 0.871930 0.244816
vn -0.424033 0.871930 0.244816
vn -0.424033 0.871930 0.244816
vn -0.424033 0.871930 0.244816
vn 0.000000 0.871930 0.489630
vn 0.000000 0.871930 0.489630
vn 0.000000 0.871930 0.489630
vn 0.000000 0.871930 0.489630
vn 0.424033 0.871930 0.244816
vn 0.424033 0.871930 0.244816
vn 0.424033 0.871930 0.244816
vn 0.424033 0.871930 0.244816
vn 0.424032 0.871930 -0.244815
vn 0.424032 0.871930 -0.244815
vn 0.424032 0.871930 -0.244815
vn 0.424032 0.871930 -0.244815
vn -0.565525 -0.757348 -0.326507
vn -0.565525 -0.757348 -0.326507
vn -0.565525 -0.757348 -0.326507
vn -0.565525 -0.757348 -0.326507
vn -0.565524 -0.757348 0.326506
vn -0.565524 -0.757348 0.326506
vn -0.565524 -0.757348 0.326506
vn -0.565524 -0.757348 0.326506
vn 0.000000 -0.757348 0.653012
vn 0.000000 -0.757348 0.653012
vn 0.000000 -0.757348 0.653012
vn 0.000000 -0.757348 0.653012
vn 0.565524 -0.757348 0.326505
vn 0.565524 -0.757348 0.326505
vn 0.565524 -0.757348 0.326505
vn 0.565524 -0.757348 0.326505
vn 0.565524 -0.757349 -0.326506
vn 0.565524 -0.757349 -0.326506
vn 0.565524 -0.757349 -0.326506
vn 0.565524 -0.757349 -0.326506
vn 0.000000 -0.757347 -0.653013
vn 0.000000 -0.757347 -0.653013
vn 0.000000 -0.757347 -0.653013
vn 0.000000 -0.757347 -0.653013
s off
f 8/45/1 9/46/2 19/47/3 14/48/4
f 9/4/5 10/10/6 18/12/7 19/6/8
f 10/10/9 11/20/10 17/21/11 18/12/12
f 11/49/13 12/50/14 16/51/15 17/52/16
f 12/22/17 13/24/18 15/25/19 16/23/20
f 13/24/21 8/3/22 14/8/23 15/25/24
f 21/1/25 20/2/26 22/5/27
f 20/2/28 23/7/29 22/5/30
f 23/7/31 24/9/32 22/5/33
f 24/9/34 25/11/35 22/5/36
f 25/11/37 26/13/38 22/5/39
f 26/13/40 21/1/41 22/5/42
f 1/26/43 2/33/44 7/34/45
f 2/33/46 3/35/47 7/34/48
f 3/35/49 4/36/50 7/34/51
f 4/36/52 5/37/53 7/34/54
f 5/37/55 6/38/56 7/34/57
f 6/38/58 1/26/59 7/34/60
f 38/44/61 33/39/62 27/14/63 28/15/64
f 33/39/65 34/40/66 29/16/67 27/14/68
f 34/40/69 35/41/70 30/17/71 29/16/72
f 35/41/73 36/42/74 31/18/75 30/17/76
f 36/42/77 37/43/78 32/19/79 31/18/80
f 37/43/81 38/44/82 28/15/83 32/19/84
f 15/53/85 14/54/86 1/26/87 6/38/88
f 16/55/89 15/53/90 6/38/91 5/37/92
f 17/56/93 16/55/94 5/37/95 4/36/96
f 18/57/97 17/56/98 4/36/99 3/35/100
f 19/58/101 18/57/102 3/35/103 2/33/104
f 14/54/105 19/58/106 2/33/107 1/26/108
f 9/27/109 8/28/110 28/15/111 27/14/112
f 10/29/113 9/27/114 27/14/115 29/16/116
f 11/30/117 10/29/118 29/16/119 30/17/120
f 12/31/121 11/30/122 30/17/123 31/18/124
f 13/32/125 12/31/126 31/18/127 32/19/128
f 8/28/129 13/32/130 32/19/131 28/15/132
f 26/13/133 25/11/134 34/40/135 33/39/136
f 25/11/137 24/9/138 35/41/139 34/40/140
f 24/9/141 23/7/142 36/42/143 35/41/144
f 23/7/145 20/2/146 37/43/147 36/42/148
f 20/2/149 21/1/150 38/44/151 37/43/152
f 21/1/153 26/13/154 33/39/155 38/44/156
