# This file uses centimeters as units for non-parametric coordinates.

v -3.952272 -3.952316 3.952393
v 3.952272 -3.952314 3.952393
v -4.541443 3.270180 4.104492
v 3.952272 3.952314 3.952393
v -3.952272 3.952316 -3.952272
v 4.134031 4.510519 -4.953491
v -3.952272 -3.952314 -3.952272
v 3.952272 -3.952316 -3.952272
v -5.939392 3.920750 -0.271240
v 5.301514 -1.638927 -5.191406
v 0.000000 -5.335625 -5.335571
v -5.236816 -1.431885 -5.802002
v 5.335693 -5.335625 0.000000
v -5.335632 -5.335625 0.000000
v 0.000000 -5.335625 5.335693
v 4.369568 0.048467 5.976807
v 0.000000 5.335625 5.335693
v -5.335632 -0.000000 5.335693
v 4.014160 3.567976 -0.173828
v 0.000000 5.335625 -5.335571
v 0.000000 -0.000000 7.114136
v -0.800537 5.074013 -0.216431
v 0.000000 0.000000 -7.114136
v 0.000000 -7.114166 0.000000
v 7.114170 0.000000 -0.000000
v -7.114136 0.000000 0.000000
v 5.984558 -0.145187 3.182739
v 5.281250 -2.242270 2.421631
v 6.500183 -0.378629 4.890991
v 5.781860 -2.520505 4.113647
v -0.161621 4.656765 3.612547
v -4.486025 3.199190 2.505249
v -3.901367 -2.298008 -4.469484
v -5.764465 -0.970049 0.905273
v 2.987915 3.291330 0.827271
v 3.218811 4.507236 -3.314453
v -3.148987 -3.407360 1.403076
v 1.155518 -5.180983 1.565186
v 5.889648 0.589140 -6.528931
v 0.883495 0.818131 -7.923744
v 5.487976 1.486327 -6.168457
v 6.739929 1.394978 -7.783680
v 6.448727 1.862077 -7.337105
vt 0.383730 0.363005
vt 0.383730 0.363005
vt 0.383730 0.363005
vt 0.383730 0.363005
vt 0.383730 0.363005
vt 0.383730 0.363005
vt 0.383730 0.363005
vt 0.383730 0.363005
vt 0.383730 0.363005
vt 0.383730 0.363005
vt 0.383730 0.363005
vt 0.383730 0.363005
vt 0.383730 0.363005
vt 0.383730 0.363005
vt 0.383730 0.363005
vt 0.383730 0.363005
vt 0.383730 0.363005
vt 0.383730 0.363005
vt 0.383730 0.363005
vt 0.383730 0.363005
vt 0.383730 0.363005
vt 0.383730 0.363005
vt 0.383730 0.363005
vt 0.383730 0.363005
vt 0.383730 0.363005
vt 0.383730 0.363005
vt 0.383730 0.363005
vt 0.383730 0.363005
vt 0.383730 0.363005
vt 0.383730 0.363005
vt 0.383730 0.363005
vt 0.383730 0.363005
vt 0.383730 0.363005
vt 0.383730 0.363005
vt 0.383730 0.363005
vt 0.383730 0.363005
vt 0.383730 0.363005
vt 0.383730 0.363005
vt 0.383730 0.363005
vt 0.383730 0.363005
vt 0.383730 0.363005
vt 0.383730 0.363005
vt 0.383730 0.363005
vt 0.383730 0.363005
vt 0.383730 0.363005
vt 0.383730 0.363005
vt 0.383730 0.363005
vt 0.383730 0.363005
vt 0.383730 0.363005
vt 0.383730 0.363005
vt 0.383730 0.363005
vt 0.383730 0.363005
vt 0.383730 0.363005
vt 0.383730 0.363005
vt 0.383730 0.363005
vt 0.383730 0.363005
vt 0.383730 0.363005
vt 0.383730 0.363005
vt 0.383730 0.363005
vt 0.383730 0.363005
vt 0.383730 0.363005
vt 0.383730 0.363005
vt 0.383730 0.363005
vn -0.348147 -0.348148 0.870394
vn -0.348147 -0.348148 0.870394
vn -0.348147 -0.348148 0.870395
vn -0.348147 -0.348148 0.870394
vn 0.327004 -0.368984 0.870011
vn 0.327004 -0.368984 0.870011
vn 0.327004 -0.368984 0.870011
vn 0.327004 -0.368984 0.870011
vn 0.323246 0.372625 0.869864
vn 0.323246 0.372625 0.869864
vn 0.323246 0.372625 0.869864
vn 0.323246 0.372625 0.869864
vn -0.338317 0.338318 0.878113
vn -0.338317 0.338318 0.878113
vn -0.338317 0.338318 0.878113
vn -0.338317 0.338318 0.878113
vn -0.316040 0.927587 -0.199250
vn -0.316040 0.927587 -0.199250
vn -0.316040 0.927587 -0.199250
vn -0.316040 0.927587 -0.199250
vn 0.186477 0.907990 -0.375207
vn 0.186477 0.907990 -0.375207
vn 0.186477 0.907990 -0.375207
vn 0.200280 0.976367 0.081217
vn 0.200280 0.976367 0.081217
vn 0.200279 0.976367 0.081217
vn -0.275842 0.959605 -0.055410
vn -0.275842 0.959605 -0.055410
vn -0.275842 0.959605 -0.055410
vn -0.275842 0.959605 -0.055410
vn -0.424053 0.384648 -0.819893
vn -0.424053 0.384648 -0.819893
vn -0.424053 0.384648 -0.819893
vn -0.424053 0.384648 -0.819893
vn 0.215415 0.489899 -0.844746
vn 0.215415 0.489899 -0.844746
vn 0.215415 0.489899 -0.844746
vn 0.215415 0.489899 -0.844746
vn 0.299316 -0.395390 -0.868376
vn 0.299316 -0.395390 -0.868376
vn 0.299316 -0.395390 -0.868376
vn 0.299316 -0.395390 -0.868376
vn 0.070909 -0.802371 -0.592598
vn 0.070909 -0.802371 -0.592598
vn 0.070909 -0.802371 -0.592598
vn -0.348156 -0.870386 -0.348160
vn -0.348156 -0.870386 -0.348160
vn -0.348156 -0.870386 -0.348160
vn -0.348156 -0.870386 -0.348160
vn 0.348154 -0.870386 -0.348162
vn 0.348154 -0.870386 -0.348162
vn 0.348154 -0.870386 -0.348162
vn 0.348154 -0.870386 -0.348162
vn 0.224725 -0.948155 0.224725
vn 0.224725 -0.948155 0.224725
vn 0.224725 -0.948155 0.224725
vn 0.224725 -0.948155 0.224725
vn -0.316837 -0.926977 -0.200818
vn -0.316837 -0.926977 -0.200818
vn -0.316837 -0.926977 -0.200818
vn -0.316837 -0.926977 -0.200818
vn 0.870348 -0.397424 0.290773
vn 0.870348 -0.397424 0.290773
vn 0.870348 -0.397424 0.290773
vn 0.867744 -0.402140 -0.292069
vn 0.867744 -0.402140 -0.292069
vn 0.867744 -0.402139 -0.292069
vn 0.867744 -0.402139 -0.292069
vn 0.829283 0.558742 0.009860
vn 0.829283 0.558742 0.009860
vn 0.829283 0.558742 0.009860
vn 0.829283 0.558742 0.009860
vn 0.829401 0.546192 0.117337
vn 0.829401 0.546192 0.117337
vn 0.829401 0.546192 0.117337
vn 0.829401 0.546192 0.117337
vn -0.571004 -0.820866 0.011602
vn -0.571004 -0.820866 0.011602
vn -0.571004 -0.820866 0.011602
vn -0.571004 -0.820866 0.011602
vn -0.662542 -0.715729 0.220840
vn -0.662542 -0.715729 0.220840
vn -0.662542 -0.715729 0.220840
vn -0.974468 0.220263 -0.043545
vn -0.974468 0.220263 -0.043545
vn -0.974468 0.220263 -0.043545
vn -0.868176 0.296913 -0.397635
vn -0.868176 0.296912 -0.397635
vn -0.868176 0.296912 -0.397635
vn -0.868176 0.296913 -0.397635
vn 0.475875 0.444440 0.758958
vn 0.475875 0.444440 0.758958
vn 0.475875 0.444440 0.758958
vn 0.308683 -0.441371 0.842559
vn 0.308683 -0.441371 0.842559
vn 0.308683 -0.441371 0.842559
vn 0.308683 -0.441371 0.842559
vn 0.529310 -0.725837 0.439308
vn 0.529310 -0.725837 0.439308
vn 0.529310 -0.725837 0.439308
vn 0.873024 -0.290997 0.391343
vn 0.873024 -0.290997 0.391343
vn 0.873024 -0.290997 0.391343
vn 0.863085 0.465071 -0.196962
vn 0.863085 0.465071 -0.196962
vn 0.863085 0.465071 -0.196962
vn 0.930076 -0.200109 -0.308084
vn 0.930076 -0.200109 -0.308084
vn 0.930076 -0.200109 -0.308084
vn 0.930076 -0.200109 -0.308084
vn 0.946552 0.208994 -0.245686
vn 0.946552 0.208994 -0.245686
vn 0.946552 0.208994 -0.245686
vn 0.315331 0.943071 -0.105754
vn 0.315331 0.943071 -0.105754
vn 0.315331 0.943071 -0.105754
vn 0.315331 0.943071 -0.105754
vn -0.285922 0.925054 0.250048
vn -0.285922 0.925054 0.250048
vn -0.285922 0.925054 0.250048
vn -0.285922 0.925054 0.250048
vn -0.838836 0.399566 0.369730
vn -0.838836 0.399566 0.369730
vn -0.838836 0.399566 0.369730
vn -0.838836 0.399566 0.369730
vn -0.411705 -0.281661 -0.866698
vn -0.411705 -0.281661 -0.866698
vn -0.411705 -0.281661 -0.866698
vn -0.411705 -0.281661 -0.866699
vn -0.943671 -0.038055 -0.328689
vn -0.943671 -0.038055 -0.328689
vn -0.943671 -0.038055 -0.328689
vn -0.943671 -0.038055 -0.328689
vn -0.920047 -0.205209 -0.333772
vn -0.920047 -0.205209 -0.333772
vn -0.920047 -0.205209 -0.333772
vn -0.342061 0.935140 -0.092234
vn -0.342061 0.935140 -0.092234
vn -0.342061 0.935140 -0.092234
vn 0.185260 0.977020 0.105404
vn 0.185260 0.977020 0.105404
vn 0.185260 0.977020 0.105404
vn 0.343749 0.895683 0.282114
vn 0.343749 0.895683 0.282114
vn 0.343749 0.895683 0.282114
vn 0.186140 0.953273 0.237955
vn 0.186140 0.953273 0.237955
vn 0.186140 0.953273 0.237955
vn 0.186140 0.953273 0.237955
vn -0.621597 -0.553906 0.553899
vn -0.621597 -0.553906 0.553899
vn -0.621597 -0.553906 0.553899
vn -0.621597 -0.553906 0.553899
vn -0.193756 -0.486964 0.851660
vn -0.193756 -0.486964 0.851660
vn -0.193756 -0.486964 0.851660
vn -0.193756 -0.486964 0.851660
vn 0.230608 -0.691832 0.684243
vn 0.230608 -0.691832 0.684243
vn 0.230608 -0.691832 0.684243
vn 0.909676 -0.362162 -0.203292
vn 0.909676 -0.362162 -0.203292
vn 0.909676 -0.362162 -0.203292
vn 0.138635 -0.614433 -0.776694
vn 0.138635 -0.614433 -0.776694
vn 0.138635 -0.614433 -0.776694
vn 0.138635 -0.614433 -0.776694
vn 0.019880 -0.714020 -0.699843
vn 0.019880 -0.714020 -0.699843
vn 0.019880 -0.714020 -0.699843
vn 0.867261 0.495619 0.047126
vn 0.867261 0.495619 0.047126
vn 0.867261 0.495619 0.047126
vn -0.048779 0.674171 -0.736963
vn -0.048779 0.674171 -0.736963
vn -0.048779 0.674171 -0.736963
vn 0.529626 -0.830142 -0.174241
vn 0.529626 -0.830142 -0.174241
vn 0.529626 -0.830142 -0.174241
vn -0.071626 0.965215 0.251457
vn -0.071626 0.965215 0.251457
vn -0.071626 0.965215 0.251457
vn -0.197473 0.968891 0.149179
vn -0.197473 0.968891 0.149179
vn -0.197473 0.968891 0.149179
vn 0.097034 -0.866051 -0.490449
vn 0.097034 -0.866051 -0.490449
vn 0.097034 -0.866051 -0.490449
s off
f 1/1/1 15/21/2 21/15/3 18/25/4
f 15/21/5 2/3/6 16/23/7 21/15/8
f 21/15/9 16/23/10 4/6/11 17/24/12
f 18/25/13 21/15/14 17/24/15 3/5/16
f 3/5/17 17/24/18 31/44/19 32/46/20
f 17/24/21 4/6/22 31/44/23
f 22/16/24 36/51/25 20/28/26
f 9/29/27 22/16/28 20/28/29 5/7/30
f 5/7/31 20/28/32 40/57/33 12/34/34
f 20/28/35 6/9/36 41/58/37 40/57/38
f 23/17/39 10/31/40 8/13/41 11/33/42
f 12/34/43 23/17/44 33/48/45
f 7/11/46 11/33/47 24/18/48 14/38/49
f 11/33/50 8/13/51 13/36/52 24/18/53
f 38/54/54 13/36/55 2/4/56 15/22/57
f 37/53/58 38/54/59 15/22/60 1/2/61
f 27/40/62 28/41/63 25/19/64
f 13/37/65 8/14/66 10/32/67 25/19/68
f 25/19/69 41/59/70 6/10/71 19/27/72
f 4/6/73 27/40/74 25/19/75 19/27/76
f 33/47/77 34/49/78 26/20/79 12/35/80
f 34/49/81 18/25/82 26/20/83
f 32/45/84 18/25/85 3/5/86
f 12/35/87 26/20/88 9/30/89 5/8/90
f 16/23/91 29/42/92 4/6/93
f 2/3/94 30/43/95 29/42/96 16/23/97
f 2/3/98 13/37/99 30/43/100
f 25/19/101 28/41/102 13/37/103
f 27/40/104 4/6/105 29/42/106
f 28/41/107 27/40/108 29/42/109 30/43/110
f 13/37/111 28/41/112 30/43/113
f 31/44/114 4/6/115 35/50/116 22/16/117
f 32/46/118 31/44/119 22/16/120 9/29/121
f 26/20/122 18/25/123 32/45/124 9/30/125
f 33/48/126 23/17/127 11/33/128 7/11/129
f 7/12/130 14/39/131 34/49/132 33/47/133
f 18/25/134 37/52/135 1/1/136
f 35/50/137 4/6/138 19/26/139
f 20/28/140 36/51/141 6/9/142
f 22/16/143 35/50/144 36/51/145
f 6/9/146 36/51/147 35/50/148 19/26/149
f 14/39/150 37/52/151 18/25/152 34/49/153
f 14/38/154 24/18/155 38/54/156 37/53/157
f 24/18/158 13/36/159 38/54/160
f 25/19/161 10/32/162 39/56/163
f 40/57/164 39/55/165 10/31/166 23/17/167
f 12/34/168 40/57/169 23/17/170
f 25/19/171 42/60/172 43/61/173
f 40/57/174 43/62/175 42/63/176
f 25/19/177 39/56/178 42/60/179
f 41/59/180 25/19/181 43/61/182
f 40/57/183 41/58/184 43/62/185
f 39/55/186 40/57/187 42/63/188
