# This file uses centimeters as units for non-parametric coordinates.

v -20.534796 0.000000 14.108609
v 20.534796 0.000000 14.108609
v -20.534796 10.000000 -14.108609
v 20.534796 10.000000 -14.108609
v -20.534796 0.000000 -14.108609
v 20.534796 0.000000 -14.108609
v -20.534796 10.000000 13.108708
v -20.534796 9.000100 14.108609
v 20.534796 10.000000 13.108708
v 20.534796 9.000100 14.108609
v 20.534796 4.500050 14.108609
v -20.534796 4.500050 14.108609
v 12.326677 4.868982 14.108609
v -12.326677 4.868982 14.108609
v 12.326677 8.631168 14.108609
v -12.326677 8.631168 14.108609
v -16.861328 0.000000 14.108609
v -12.343384 4.500050 14.108609
v 12.326692 4.500050 14.108609
v 16.626198 0.000000 14.108609
v 11.826677 5.368982 14.108609
v -11.826677 5.368982 14.108609
v 11.826677 8.131168 14.108609
v -11.826677 8.131168 14.108609
v 2.156340 5.295121 -14.108609
v 17.700294 5.295121 -14.108609
v 17.700294 0.721634 -14.108609
v 2.156340 0.721634 -14.108609
v 20.534796 4.500050 -14.108609
v -20.534796 4.500050 -14.108609
v -20.534796 0.864828 -10.350790
v -20.534796 0.864828 10.350790
v -20.534796 2.461794 10.350790
v -20.534796 2.461794 -10.350790
v 20.534796 0.864828 -10.350790
v 20.534796 0.864828 10.350790
v 20.534796 2.461794 -10.350790
v 20.534796 2.461794 10.350790
vt 0.397961 0.425430
vt 0.397936 0.424731
vt 0.398443 0.425135
vt 0.397509 0.424908
vt 0.397935 0.424586
vt 0.397981 0.425261
vt 0.398480 0.424977
vt 0.397483 0.424771
vt 0.397963 0.425287
vt 0.397496 0.424750
vt 0.397496 0.424839
vt 0.397962 0.425358
vt 0.397962 0.425358
vt 0.397496 0.424839
vt 0.397483 0.424771
vt 0.397963 0.425287
vt 0.397921 0.425383
vt 0.397869 0.425255
vt 0.397589 0.424943
vt 0.397555 0.424961
vt 0.255828 0.270225
vt 0.248212 0.262639
vt 0.304665 0.262639
vt 0.297417 0.270225
vt 0.397962 0.425358
vt 0.397496 0.424839
vt 0.397483 0.424771
vt 0.397963 0.425287
vt 0.398964 0.400222
vt 0.397980 0.400143
vt 0.397995 0.400123
vt 0.398940 0.400194
vt 0.397969 0.399982
vt 0.397987 0.400004
vt 0.398969 0.400023
vt 0.398943 0.400049
vt 0.398480 0.424977
vt 0.397935 0.424586
vt 0.397936 0.424731
vt 0.398443 0.425135
vt 0.241558 0.334977
vt 0.193553 0.334977
vt 0.193553 0.318596
vt 0.241558 0.318596
vt 0.397936 0.424666
vt 0.398460 0.425064
vt 0.398443 0.425135
vt 0.397961 0.425430
vt 0.397962 0.425358
vt 0.398460 0.425064
vt 0.397509 0.424908
vt 0.397936 0.424731
vt 0.397936 0.424666
vt 0.397496 0.424839
vt 0.192995 0.221617
vt 0.243774 0.221617
vt 0.243774 0.230693
vt 0.192995 0.230693
vt 0.192995 0.221617
vt 0.243774 0.221617
vt 0.243775 0.230693
vt 0.192995 0.230693
vn 0.000000 0.000000 1.000000
vn 0.000000 0.000000 1.000000
vn 0.000000 0.000000 1.000000
vn 0.000000 0.000000 1.000000
vn 0.000000 1.000000 0.000000
vn 0.000000 1.000000 0.000000
vn 0.000000 1.000000 0.000000
vn 0.000000 1.000000 0.000000
vn 0.000000 0.000000 -1.000000
vn 0.000000 0.000000 -1.000000
vn 0.000000 0.000000 -1.000000
vn 0.000000 0.000000 -1.000000
vn 0.000000 -1.000000 0.000000
vn 0.000000 -1.000000 0.000000
vn 0.000000 -1.000000 0.000000
vn 0.000000 -1.000000 0.000000
vn 0.000000 -1.000000 0.000000
vn 0.000000 -1.000000 0.000000
vn 1.000000 0.000000 0.000000
vn 1.000000 0.000000 0.000000
vn 1.000000 0.000000 0.000000
vn 1.000000 0.000000 0.000000
vn 1.000000 0.000000 0.000000
vn -1.000000 0.000000 0.000000
vn -1.000000 0.000000 0.000000
vn -1.000000 0.000000 0.000000
vn -1.000000 0.000000 0.000000
vn 0.000000 0.707107 0.707107
vn 0.000000 0.707107 0.707107
vn 0.000000 0.707107 0.707107
vn 0.000000 0.707107 0.707107
vn -0.000000 0.000000 1.000000
vn 0.000000 0.000000 1.000000
vn 0.000000 0.000000 1.000000
vn -0.000000 0.000000 1.000000
vn 0.000000 0.000000 1.000000
vn 0.000000 0.000000 1.000000
vn -0.000000 0.000000 1.000000
vn 0.000000 0.000000 1.000000
vn 0.000000 0.000000 1.000000
vn 0.000000 0.000000 1.000000
vn 0.000000 0.000000 1.000000
vn 0.000000 0.000000 1.000000
vn 0.000000 0.000000 1.000000
vn -0.000000 0.000000 1.000000
vn 0.000000 0.000000 1.000000
vn -0.000000 0.000000 1.000000
vn -0.000000 0.000000 1.000000
vn -0.000000 0.000000 1.000000
vn -0.000000 0.000000 1.000000
vn 0.000000 0.000000 1.000000
vn 0.000000 0.000000 1.000000
vn 0.000000 0.000000 1.000000
vn 0.000000 0.000000 1.000000
vn 0.000000 0.000000 1.000000
vn 0.000000 0.000000 1.000000
vn 0.000000 0.000000 1.000000
vn -0.000000 0.000000 1.000000
vn 0.000000 0.000000 1.000000
vn 0.000000 0.000000 1.000000
vn 0.000000 0.000000 1.000000
vn 0.000000 0.000000 1.000000
vn 0.000000 0.000000 1.000000
vn 0.000000 0.000000 1.000000
vn 0.000000 0.000000 1.000000
vn -0.000000 0.000000 1.000000
vn 0.000000 0.000000 1.000000
vn 0.000000 0.000000 1.000000
vn -0.000000 0.000000 1.000000
vn 0.000000 0.000000 1.000000
vn 0.000000 0.000000 1.000000
vn 0.000000 0.000000 1.000000
vn 0.000000 0.000000 1.000000
vn 0.000000 0.000000 1.000000
vn -0.000000 0.000000 1.000000
vn -0.000000 0.000000 1.000000
vn 0.000000 0.000000 1.000000
vn -0.000000 0.000000 1.000000
vn -0.000000 0.000000 1.000000
vn -0.000000 0.000000 1.000000
vn -0.000000 0.000000 1.000000
vn 0.000000 0.000000 -1.000000
vn 0.000000 0.000000 -1.000000
vn 0.000000 0.000000 -1.000000
vn 0.000000 0.000000 -1.000000
vn 0.000000 0.000000 -1.000000
vn 0.000000 0.000000 -1.000000
vn 0.000000 0.000000 -1.000000
vn 0.000000 0.000000 -1.000000
vn 0.000000 0.000000 -1.000000
vn 0.000000 0.000000 -1.000000
vn 0.000000 0.000000 -1.000000
vn 0.000000 0.000000 -1.000000
vn 0.000000 0.000000 -1.000000
vn 0.000000 0.000000 -1.000000
vn 0.000000 0.000000 -1.000000
vn 1.000000 0.000000 0.000000
vn 1.000000 0.000000 0.000000
vn 1.000000 0.000000 0.000000
vn 1.000000 0.000000 0.000000
vn 0.000000 0.000000 -1.000000
vn 0.000000 0.000000 -1.000000
vn 0.000000 0.000000 -1.000000
vn 0.000000 0.000000 -1.000000
vn -1.000000 0.000000 0.000000
vn -1.000000 0.000000 0.000000
vn -1.000000 0.000000 0.000000
vn -1.000000 0.000000 0.000000
vn -1.000000 0.000000 0.000000
vn 0.000000 0.000000 -1.000000
vn 0.000000 0.000000 -1.000000
vn 0.000000 0.000000 -1.000000
vn -1.000000 0.000000 0.000000
vn -1.000000 0.000000 0.000000
vn -1.000000 0.000000 0.000000
vn -1.000000 0.000000 0.000000
vn -1.000000 0.000000 0.000000
vn -1.000000 0.000000 0.000000
vn -1.000000 0.000000 0.000000
vn -1.000000 0.000000 0.000000
vn -1.000000 0.000000 0.000000
vn -1.000000 0.000000 0.000000
vn -1.000000 0.000000 0.000000
vn -1.000000 0.000000 0.000000
vn -1.000000 0.000000 0.000000
vn -1.000000 0.000000 0.000000
vn -1.000000 0.000000 0.000000
vn -1.000000 0.000000 0.000000
vn 1.000000 0.000000 0.000000
vn 1.000000 0.000000 0.000000
vn 1.000000 0.000000 0.000000
vn 1.000000 0.000000 0.000000
vn 1.000000 0.000000 0.000000
vn 1.000000 0.000000 0.000000
vn 1.000000 0.000000 0.000000
vn 1.000000 0.000000 0.000000
vn 1.000000 0.000000 0.000000
vn 1.000000 0.000000 0.000000
vn 1.000000 0.000000 0.000000
vn 1.000000 0.000000 0.000000
vn 1.000000 0.000000 0.000000
vn 1.000000 0.000000 0.000000
vn 1.000000 0.000000 0.000000
vn 1.000000 0.000000 0.000000
s off
f 1/1/1 17/17/2 18/18/3 12/12/4
f 7/6/5 9/10/6 4/5/7 3/7/8
f 25/41/9 26/42/10 27/43/11 28/44/12
f 5/3/13 6/2/14 2/4/15 20/20/16 17/17/17 1/1/18
f 11/11/19 29/45/20 4/5/21 9/10/22 10/8/23
f 31/55/24 32/56/25 33/57/26 34/58/27
f 7/6/28 8/9/29 10/8/30 9/10/31
f 22/25/32 21/26/33 23/27/34 24/28/35
f 12/12/36 18/18/37 14/13/38
f 11/11/39 10/8/40 15/15/41 13/14/42
f 10/8/43 8/9/44 16/16/45 15/15/46
f 8/9/47 12/12/48 14/13/49 16/16/50
f 2/4/51 11/11/52 19/19/53 20/20/54
f 13/14/55 19/19/56 11/11/57
f 14/13/58 18/18/59 19/19/60 13/14/61
f 18/21/62 17/22/63 20/23/64 19/24/65
f 14/29/66 13/30/67 21/31/68 22/32/69
f 13/30/70 15/33/71 23/34/72 21/31/73
f 15/33/74 16/35/75 24/36/76 23/34/77
f 16/35/78 14/29/79 22/32/80 24/36/81
f 3/7/82 4/5/83 26/38/84 25/37/85
f 4/5/86 29/45/87 26/38/88
f 6/2/89 5/3/90 28/40/91 27/39/92
f 5/3/93 30/46/94 25/37/95 28/40/96
f 36/59/97 35/60/98 37/61/99 38/62/100
f 26/38/101 29/45/102 6/2/103 27/39/104
f 30/46/105 12/12/106 8/9/107 7/6/108 3/7/109
f 25/37/110 30/46/111 3/7/112
f 5/3/113 1/1/114 32/48/115 31/47/116
f 1/1/117 12/12/118 33/49/119 32/48/120
f 12/12/121 30/46/122 34/50/123 33/49/124
f 30/46/125 5/3/126 31/47/127 34/50/128
f 2/4/129 6/2/130 35/52/131 36/51/132
f 6/2/133 29/45/134 37/53/135 35/52/136
f 29/45/137 11/11/138 38/54/139 37/53/140
f 11/11/141 2/4/142 36/51/143 38/54/144
