# This file uses centimeters as units for non-parametric coordinates.

v -22.655815 0.000000 13.643877
v -21.139997 0.000000 15.159695
v -22.655815 2.287565 13.643877
v -21.139997 2.287565 15.159695
v 22.655815 0.000000 13.643877
v 21.139997 0.000000 15.159695
v 22.655815 2.287565 13.643877
v 21.139997 2.287565 15.159695
v -22.655815 2.287565 -13.643877
v -21.139997 2.287565 -15.159695
v -22.655815 0.000000 -13.643877
v -21.139997 0.000000 -15.159695
v 21.139997 2.287565 -15.159695
v 22.655815 2.287565 -13.643877
v 22.655815 0.000000 -13.643877
v 21.139997 0.000000 -15.159695
v 12.333669 0.000000 15.159695
v 13.268767 0.000000 13.643877
v 13.268767 0.000000 -13.643877
v 12.333669 0.000000 -15.159695
v 12.333669 2.287565 -15.159695
v 13.268767 2.287565 -13.643877
v 13.268767 2.287565 13.643877
v 12.333669 2.287565 15.159695
v -21.139980 2.287565 -13.643877
v -21.139999 2.287565 13.643877
v 15.648746 2.287565 -11.613390
v 15.648746 2.287565 11.613390
v 20.275837 2.287565 11.613390
v 20.275837 2.287565 -11.613390
v 20.275837 2.287565 8.519817
v 20.275837 2.287565 7.651433
v 20.275837 2.287565 5.015994
v 20.275837 2.287565 -5.343575
v 20.275837 2.287565 -8.111317
v 20.275837 2.287565 -8.979698
v 15.648746 2.287565 -8.979702
v 15.648745 2.287565 -8.111319
v 15.648746 2.287565 -5.343577
v 15.648746 2.287565 5.015993
v 15.648746 2.287565 7.651432
v 15.648746 2.287565 8.519814
v 14.424331 2.287565 1.345433
v 21.500250 2.287565 1.345433
v 16.605267 2.287565 3.645125
v 19.319315 2.287564 3.645126
v 21.500250 2.287565 -1.673966
v 14.424331 2.287565 -1.673966
v 16.605267 2.287564 -3.972709
v 19.319315 2.287565 -3.972709
vt 0.078878 0.277083
vt 0.078870 0.277102
vt 0.077946 0.277122
vt 0.077940 0.277103
vt 0.078811 0.276541
vt 0.078817 0.276516
vt 0.077965 0.276533
vt 0.077971 0.276557
vt 0.077908 0.277073
vt 0.077915 0.277092
vt 0.077939 0.276584
vt 0.077933 0.276559
vt 0.078847 0.276420
vt 0.078844 0.276566
vt 0.078900 0.277071
vt 0.078912 0.277173
vt 0.078123 0.277118
vt 0.078103 0.277088
vt 0.078113 0.276580
vt 0.078132 0.276554
vt 0.078129 0.276529
vt 0.078109 0.276556
vt 0.078099 0.277069
vt 0.078120 0.277100
vt 0.080289 0.227869
vt 0.080276 0.227250
vt 0.078859 0.277299
vt 0.081121 0.227224
vt 0.078820 0.276542
vt 0.081235 0.227837
vt 0.078874 0.277052
vt 0.078788 0.276302
vt 0.078109 0.276556
vt 0.078099 0.277069
vt 0.077908 0.277073
vt 0.077933 0.276559
vt 0.077910 0.277030
vt 0.077912 0.276987
vt 0.077914 0.276945
vt 0.077927 0.276688
vt 0.077929 0.276645
vt 0.077931 0.276602
vt 0.078108 0.276599
vt 0.078108 0.276641
vt 0.078107 0.276684
vt 0.078102 0.276941
vt 0.078101 0.276983
vt 0.078100 0.277026
vt 0.078103 0.276855
vt 0.078103 0.276898
vt 0.077916 0.276902
vt 0.077919 0.276859
vt 0.077923 0.276773
vt 0.078105 0.276770
vt 0.077925 0.276731
vt 0.078106 0.276727
vt 0.078860 0.330584
vt 0.078864 0.330689
vt 0.078665 0.330693
vt 0.078662 0.330588
vt 0.078685 0.331442
vt 0.078897 0.331437
vt 0.078904 0.331579
vt 0.078689 0.331584
vt 0.078681 0.331284
vt 0.078890 0.331280
vt 0.078896 0.331397
vt 0.078684 0.331402
vt 0.078652 0.331124
vt 0.078908 0.331119
vt 0.078832 0.331188
vt 0.078733 0.331191
vt 0.078649 0.330995
vt 0.078902 0.330989
vt 0.078725 0.330927
vt 0.078821 0.330925
vt 0.078666 0.330728
vt 0.078866 0.330724
vt 0.078871 0.330837
vt 0.078669 0.330841
vn 0.000000 0.000000 1.000000
vn 0.000000 0.000000 1.000000
vn 0.000000 0.000000 1.000000
vn 0.000000 0.000000 1.000000
vn 0.000000 0.000000 -1.000000
vn 0.000000 0.000000 -1.000000
vn 0.000000 0.000000 -1.000000
vn 0.000000 0.000000 -1.000000
vn 1.000000 0.000000 0.000000
vn 1.000000 0.000000 0.000000
vn 1.000000 0.000000 0.000000
vn 1.000000 0.000000 0.000000
vn -1.000000 0.000000 0.000000
vn -1.000000 0.000000 0.000000
vn -1.000000 0.000000 0.000000
vn -1.000000 0.000000 0.000000
vn 0.000000 1.000000 0.000000
vn 0.000000 1.000000 0.000000
vn 0.000000 1.000000 0.000000
vn 0.000000 1.000000 0.000000
vn 0.000000 -1.000000 0.000000
vn 0.000000 -1.000000 0.000000
vn 0.000000 -1.000000 0.000000
vn 0.000000 -1.000000 0.000000
vn -0.707107 0.000000 0.707107
vn -0.707107 0.000000 0.707107
vn -0.707107 0.000000 0.707107
vn -0.707107 0.000000 0.707107
vn 0.707107 0.000000 0.707107
vn 0.707107 0.000000 0.707107
vn 0.707107 0.000000 0.707107
vn 0.707107 0.000000 0.707107
vn -0.707107 0.000000 -0.707107
vn -0.707107 0.000000 -0.707107
vn -0.707107 0.000000 -0.707107
vn -0.707107 0.000000 -0.707107
vn 0.707107 0.000000 -0.707107
vn 0.707107 0.000000 -0.707107
vn 0.707107 0.000000 -0.707107
vn 0.707107 0.000000 -0.707107
vn 0.000000 1.000000 -0.000000
vn 0.000000 1.000000 0.000000
vn 0.000000 1.000000 -0.000000
vn 0.000000 1.000000 -0.000000
vn 0.000000 1.000000 0.000000
vn 0.000000 1.000000 -0.000000
vn 0.000000 1.000000 0.000000
vn 0.000000 1.000000 0.000000
vn 0.000000 -1.000000 0.000000
vn 0.000000 -1.000000 0.000000
vn 0.000000 -1.000000 0.000000
vn 0.000000 -1.000000 0.000000
vn 0.000000 -1.000000 0.000000
vn 0.000000 -1.000000 0.000000
vn 0.000000 -1.000000 0.000000
vn 0.000000 -1.000000 0.000000
vn 0.000000 -1.000000 0.000000
vn 0.000000 -1.000000 0.000000
vn 0.000000 -1.000000 0.000000
vn 0.000000 -1.000000 0.000000
vn 0.000000 -1.000000 0.000000
vn 0.000000 -1.000000 0.000000
vn 0.000000 -1.000000 0.000000
vn 0.000000 -1.000000 0.000000
vn 0.000000 -1.000000 0.000000
vn 0.000000 -1.000000 0.000000
vn 0.000000 -1.000000 0.000000
vn 0.000000 -1.000000 0.000000
vn 0.000000 0.000000 -1.000000
vn 0.000000 0.000000 -1.000000
vn 0.000000 0.000000 -1.000000
vn 0.000000 0.000000 -1.000000
vn 0.000000 1.000000 0.000000
vn 0.000000 1.000000 0.000000
vn 0.000000 1.000000 0.000000
vn 0.000000 1.000000 -0.000000
vn 0.000000 1.000000 0.000000
vn 0.000000 1.000000 -0.000000
vn 0.000000 1.000000 0.000000
vn 0.000000 1.000000 0.000000
vn 0.000000 1.000000 -0.000000
vn 0.000000 1.000000 -0.000000
vn 0.000000 1.000000 -0.000000
vn 0.000000 1.000000 0.000000
vn 0.000000 0.000000 1.000000
vn 0.000000 0.000000 1.000000
vn 0.000000 0.000000 1.000000
vn 0.000000 0.000000 1.000000
vn 0.000000 1.000000 0.000000
vn 0.000000 1.000000 0.000000
vn 0.000000 1.000000 0.000000
vn 0.000000 1.000000 -0.000000
vn 0.000000 1.000000 -0.000000
vn 0.000000 1.000000 0.000000
vn 0.000000 1.000000 0.000000
vn 0.000000 1.000000 -0.000000
vn 0.000000 1.000000 -0.000000
vn 0.000000 1.000000 -0.000000
vn 0.000000 1.000000 -0.000000
vn 0.000000 1.000000 -0.000000
vn 0.000000 1.000000 -0.000000
vn 0.000000 1.000000 -0.000000
vn 0.000000 1.000000 0.000000
vn 0.000000 1.000000 0.000000
vn 0.000000 1.000000 0.000000
vn 0.000000 1.000000 0.000000
vn 0.000000 1.000000 0.000000
vn 0.000000 1.000000 0.000000
vn 0.000000 1.000000 0.000000
vn 0.000000 1.000000 0.000000
vn 0.000000 1.000000 0.000000
vn 0.000000 1.000000 0.000000
vn 0.000000 1.000000 0.000000
vn 0.000000 1.000000 0.000000
vn 0.000000 1.000000 -0.000000
vn 0.000000 1.000000 -0.000000
vn 0.000000 1.000000 0.000000
vn 0.000000 1.000000 0.000000
vn 0.000000 1.000000 0.000000
vn 0.000000 1.000000 0.000000
vn 0.000000 1.000000 0.000000
vn 0.000000 1.000000 0.000000
vn 0.000000 1.000000 0.000000
vn -0.000000 1.000000 -0.000000
vn -0.000000 1.000000 -0.000000
vn 0.000000 1.000000 0.000000
vn -0.000000 1.000000 -0.000000
vn -0.000000 1.000000 -0.000000
vn -0.000000 1.000000 -0.000000
vn -0.000000 1.000000 -0.000000
vn -0.000000 1.000000 0.000000
vn -0.000000 1.000000 0.000000
vn -0.000000 1.000000 0.000000
vn -0.000000 1.000000 0.000000
vn 0.000000 1.000000 0.000000
vn 0.000000 1.000000 0.000000
vn -0.000000 1.000000 0.000000
vn -0.000000 1.000000 0.000000
vn 0.000000 1.000000 0.000000
vn 0.000000 1.000000 0.000000
vn 0.000000 1.000000 0.000000
vn 0.000000 1.000000 0.000000
vn 0.000000 1.000000 -0.000000
vn 0.000000 1.000000 -0.000000
vn 0.000000 1.000000 -0.000000
vn 0.000000 1.000000 -0.000000
vn 0.000000 1.000000 0.000000
vn 0.000000 1.000000 0.000000
vn 0.000000 1.000000 -0.000000
vn 0.000000 1.000000 0.000000
vn 0.000000 1.000000 0.000000
vn 0.000000 1.000000 0.000000
vn 0.000000 1.000000 0.000000
vn 0.000000 1.000000 0.000000
vn 0.000000 1.000000 0.000000
vn 0.000000 1.000000 0.000000
vn -0.000000 1.000000 -0.000000
vn -0.000000 1.000000 -0.000000
vn -0.000000 1.000000 -0.000000
vn 0.000000 1.000000 0.000000
vn 0.000000 1.000000 0.000000
vn 0.000000 1.000000 0.000000
vn 0.000000 1.000000 0.000000
vn 0.000000 1.000000 0.000000
vn 0.000000 1.000000 0.000000
vn 0.000000 1.000000 0.000000
vn 0.000000 1.000000 -0.000000
vn 0.000000 1.000000 0.000000
vn 0.000000 1.000000 0.000000
vn 0.000000 1.000000 0.000000
vn 0.000000 1.000000 0.000000
vn 0.000000 1.000000 -0.000000
vn 0.000000 1.000000 0.000000
vn 0.000000 1.000000 0.000000
vn 0.000000 1.000000 -0.000000
vn 0.000000 1.000000 0.000000
vn 0.000000 1.000000 0.000000
vn 0.000000 1.000000 0.000000
vn 0.000000 1.000000 0.000000
vn -0.000000 1.000000 -0.000000
vn 0.000000 1.000000 0.000000
vn 0.000000 1.000000 0.000000
vn 0.000000 1.000000 0.000000
vn 0.000000 1.000000 0.000000
vn 0.000000 1.000000 0.000000
vn 0.000000 1.000000 0.000000
vn -0.000000 1.000000 -0.000000
vn -0.000000 1.000000 -0.000000
vn 0.000000 1.000000 0.000000
vn 0.000000 1.000000 0.000000
vn 0.000000 1.000000 0.000000
vn 0.000000 1.000000 0.000000
vn 0.000000 1.000000 0.000000
vn 0.000000 1.000000 -0.000000
vn 0.000000 1.000000 -0.000000
vn 0.000000 1.000000 -0.000000
vn 0.000000 1.000000 -0.000000
vn 0.000000 1.000000 0.000000
vn 0.000000 1.000000 0.000000
vn 0.000000 1.000000 0.000000
vn 0.000000 1.000000 0.000000
vn 0.000000 1.000000 0.000000
vn 0.000000 1.000000 0.000000
vn 0.000000 1.000000 0.000000
vn 0.000000 1.000000 0.000000
vn 0.000000 1.000000 0.000000
s off
f 24/24/1 17/17/2 6/3/3 8/4/4
f 20/20/5 21/21/6 13/7/7 16/8/8
f 7/9/9 5/10/10 15/11/11 14/12/12
f 9/13/13 11/14/14 1/15/15 3/16/16
f 27/57/17 37/58/18 36/59/19 30/60/20
f 18/18/21 19/19/22 15/11/23 5/10/24
f 1/15/25 2/2/26 4/1/27 3/16/28
f 6/3/29 5/10/30 7/9/31 8/4/32
f 9/13/33 10/6/34 12/5/35 11/14/36
f 13/7/37 14/12/38 15/11/39 16/8/40
f 21/21/41 22/22/42 14/12/43 13/7/44
f 23/23/45 24/24/46 8/4/47 7/9/48
f 17/17/49 18/18/50 5/10/51 6/3/52
f 19/19/53 20/20/54 16/8/55 15/11/56
f 1/15/57 18/18/58 17/17/59 2/2/60
f 11/14/61 19/19/62 18/18/63 1/15/64
f 11/14/65 12/5/66 20/20/67 19/19/68
f 12/5/69 10/6/70 21/21/71 20/20/72
f 10/6/73 25/29/74 22/22/75 21/21/76
f 25/28/77 26/30/78 23/25/79 22/26/80
f 26/31/81 4/1/82 24/24/83 23/23/84
f 4/1/85 2/2/86 17/17/87 24/24/88
f 9/13/89 25/29/90 10/6/91
f 3/16/92 26/27/93 25/32/94 9/13/95
f 3/16/96 4/1/97 26/31/98
f 23/23/99 7/9/100 29/35/101 28/34/102
f 14/12/103 22/22/104 27/33/105 30/36/106
f 31/61/107 42/62/108 28/63/109 29/64/110
f 32/38/111 41/47/112 42/48/113 31/37/114
f 33/65/115 40/66/116 41/67/117 32/68/118
f 44/69/119 43/70/120 45/71/121 46/72/122
f 44/69/123 47/73/124 48/74/125 43/70/126
f 50/75/127 49/76/128 48/74/129 47/73/130
f 34/40/131 39/45/132 49/56/133 50/55/134
f 35/77/135 38/78/136 39/79/137 34/80/138
f 36/42/139 37/43/140 38/44/141 35/41/142
f 33/39/143 46/51/144 45/50/145 40/46/146
f 22/22/147 38/44/148 37/43/149
f 47/53/150 14/12/151 35/41/152 34/40/153
f 47/53/154 34/40/155 50/55/156
f 44/52/157 46/51/158 33/39/159
f 36/42/160 14/12/161 30/36/162
f 35/41/163 14/12/164 36/42/165
f 22/22/166 37/43/167 27/33/168
f 39/45/169 48/54/170 49/56/171
f 43/49/172 23/23/173 41/47/174 40/46/175
f 22/22/176 48/54/177 39/45/178 38/44/179
f 44/52/180 7/9/181 14/12/182 47/53/183
f 7/9/184 32/38/185 31/37/186
f 44/52/187 33/39/188 32/38/189 7/9/190
f 7/9/191 31/37/192 29/35/193
f 43/49/194 40/46/195 45/50/196
f 43/49/197 48/54/198 22/22/199 23/23/200
f 42/48/201 23/23/202 28/34/203
f 41/47/204 23/23/205 42/48/206
