# This file uses centimeters as units for non-parametric coordinates.

v -129.905304 -36.666481 64.952652
v 0.000000 -36.666481 64.952652
v -129.905304 36.666481 64.952652
v 0.000000 36.666481 64.952652
v -129.905304 36.666481 -64.952652
v 0.000000 36.666481 -64.952652
v -129.905304 -36.666481 -64.952652
v 0.000000 -36.666481 -64.952652
v -111.670319 -36.666481 -46.717667
v -18.234985 -36.666481 -46.717667
v -18.234985 -36.666481 46.717667
v -111.670319 -36.666481 46.717667
v -103.901901 -34.340511 -38.949253
v -103.901901 -34.340511 38.949253
v -26.003399 -34.340511 -38.949253
v -26.003399 -34.340511 38.949253
v -107.326767 -38.272308 -42.374111
v -107.326767 -38.272308 42.374111
v -22.578541 -38.272308 -42.374111
v -22.578541 -38.272308 42.374111
v -102.391487 -38.272308 -37.438835
v -102.391487 -38.272308 37.438835
v -27.513817 -38.272308 -37.438835
v -27.513817 -38.272308 37.438835
v -95.701622 -35.274319 -30.748972
v -95.701622 -35.274319 30.748972
v -34.203682 -35.274319 -30.748972
v -34.203682 -35.274319 30.748972
v -97.945572 -39.726505 -32.992916
v -97.945572 -39.726505 32.992916
v -31.959736 -39.726505 -32.992916
v -31.959736 -39.726505 32.992916
v -93.224655 -39.726505 -28.272005
v -93.224655 -39.726505 28.272005
v -36.680649 -39.726505 -28.272005
v -36.680649 -39.726505 28.272005
v -87.920601 -37.215927 -22.967947
v -87.920601 -37.215927 22.967947
v -41.984703 -37.215927 -22.967947
v -41.984703 -37.215927 22.967947
v -90.222824 -41.333904 -25.270172
v -90.222824 -41.333904 25.270172
v -39.682480 -41.333904 -25.270172
v -39.682480 -41.333904 25.270172
v -64.952652 0.000000 72.560120
v -137.512772 0.000000 0.000000
v 7.607468 0.000000 0.000000
v -64.952652 0.000000 -72.560120
vt 0.090385 0.281767
vt 0.090561 0.282175
vt 0.090577 0.281772
vt 0.090413 0.281315
vt 0.091366 0.281728
vt 0.091338 0.281254
vt 0.091385 0.282136
vt 0.091360 0.281713
vt 0.091262 0.282091
vt 0.091228 0.281789
vt 0.090656 0.282120
vt 0.090545 0.281826
vt 0.076752 0.281826
vt 0.077435 0.281789
vt 0.077469 0.282091
vt 0.076863 0.282120
vt 0.090545 0.281826
vt 0.091228 0.281789
vt 0.091262 0.282091
vt 0.090656 0.282120
vt 0.090545 0.281826
vt 0.091228 0.281789
vt 0.091262 0.282091
vt 0.090656 0.282120
vt 0.076752 0.281826
vt 0.077435 0.281789
vt 0.077469 0.282091
vt 0.076863 0.282120
vt 0.090545 0.281826
vt 0.091228 0.281789
vt 0.091262 0.282091
vt 0.090656 0.282120
vt 0.090545 0.281826
vt 0.091228 0.281789
vt 0.091262 0.282091
vt 0.090656 0.282120
vt 0.076752 0.281826
vt 0.077435 0.281789
vt 0.077469 0.282091
vt 0.076863 0.282120
vt 0.090545 0.281826
vt 0.091228 0.281789
vt 0.091262 0.282091
vt 0.090656 0.282120
vt 0.090484 0.281758
vt 0.090874 0.281512
vt 0.090972 0.281953
vt 0.091362 0.281708
vn 0.000000 1.000000 0.000000
vn 0.000000 1.000000 0.000000
vn 0.000000 1.000000 0.000000
vn 0.000000 1.000000 0.000000
vn 0.000000 -1.000000 0.000000
vn 0.000000 -1.000000 0.000000
vn 0.000000 -1.000000 0.000000
vn 0.000000 -1.000000 0.000000
vn 0.000000 -1.000000 0.000000
vn 0.000000 -1.000000 0.000000
vn 0.000000 -1.000000 0.000000
vn 0.000000 -1.000000 0.000000
vn 0.000000 -1.000000 -0.000000
vn 0.000000 -1.000000 -0.000000
vn 0.000000 -1.000000 -0.000000
vn 0.000000 -1.000000 -0.000000
vn 0.000000 -1.000000 0.000000
vn 0.000000 -1.000000 0.000000
vn 0.000000 -1.000000 0.000000
vn 0.000000 -1.000000 0.000000
vn 0.000000 -1.000000 0.000000
vn 0.000000 -1.000000 0.000000
vn 0.000000 -1.000000 0.000000
vn 0.000000 -1.000000 0.000000
vn 0.286833 -0.957981 0.000000
vn 0.286833 -0.957981 0.000000
vn 0.286833 -0.957981 0.000000
vn 0.286833 -0.957981 0.000000
vn 0.000000 -0.957981 0.286833
vn 0.000000 -0.957981 0.286833
vn 0.000000 -0.957981 0.286833
vn 0.000000 -0.957981 0.286833
vn -0.286833 -0.957981 0.000000
vn -0.286833 -0.957981 0.000000
vn -0.286833 -0.957981 0.000000
vn -0.286833 -0.957981 0.000000
vn 0.000000 -0.957981 -0.286833
vn 0.000000 -0.957981 -0.286833
vn 0.000000 -0.957981 -0.286833
vn 0.000000 -0.957981 -0.286833
vn -0.754045 0.656823 0.000000
vn -0.754045 0.656823 0.000000
vn -0.754045 0.656823 0.000000
vn -0.754045 0.656823 0.000000
vn 0.000000 0.656823 -0.754045
vn 0.000000 0.656823 -0.754045
vn 0.000000 0.656823 -0.754045
vn 0.000000 0.656823 -0.754045
vn 0.754045 0.656823 0.000000
vn 0.754045 0.656823 0.000000
vn 0.754045 0.656823 0.000000
vn 0.754045 0.656823 0.000000
vn 0.000000 0.656823 0.754045
vn 0.000000 0.656823 0.754045
vn 0.000000 0.656823 0.754045
vn 0.000000 0.656823 0.754045
vn 0.000000 -1.000000 0.000000
vn 0.000000 -1.000000 0.000000
vn 0.000000 -1.000000 0.000000
vn 0.000000 -1.000000 0.000000
vn 0.000000 -1.000000 0.000000
vn 0.000000 -1.000000 0.000000
vn 0.000000 -1.000000 0.000000
vn 0.000000 -1.000000 0.000000
vn 0.000000 -1.000000 0.000000
vn 0.000000 -1.000000 0.000000
vn 0.000000 -1.000000 0.000000
vn 0.000000 -1.000000 0.000000
vn 0.000000 -1.000000 -0.000000
vn 0.000000 -1.000000 -0.000000
vn 0.000000 -1.000000 -0.000000
vn 0.000000 -1.000000 -0.000000
vn 0.408952 -0.912556 0.000000
vn 0.408952 -0.912556 0.000000
vn 0.408952 -0.912556 0.000000
vn 0.408952 -0.912556 0.000000
vn 0.000000 -0.912556 0.408952
vn 0.000000 -0.912556 0.408952
vn 0.000000 -0.912556 0.408952
vn 0.000000 -0.912556 0.408952
vn -0.408952 -0.912556 0.000000
vn -0.408952 -0.912556 0.000000
vn -0.408952 -0.912556 0.000000
vn -0.408952 -0.912556 0.000000
vn 0.000000 -0.912556 -0.408952
vn 0.000000 -0.912556 -0.408952
vn 0.000000 -0.912556 -0.408952
vn 0.000000 -0.912556 -0.408952
vn -0.892991 0.450075 0.000000
vn -0.892991 0.450075 0.000000
vn -0.892991 0.450075 0.000000
vn -0.892991 0.450075 0.000000
vn 0.000000 0.450075 -0.892991
vn 0.000000 0.450075 -0.892991
vn 0.000000 0.450075 -0.892991
vn 0.000000 0.450075 -0.892991
vn 0.892991 0.450075 0.000000
vn 0.892991 0.450075 0.000000
vn 0.892991 0.450075 0.000000
vn 0.892991 0.450075 0.000000
vn 0.000000 0.450075 0.892991
vn 0.000000 0.450075 0.892991
vn 0.000000 0.450075 0.892991
vn 0.000000 0.450075 0.892991
vn 0.000000 -1.000000 0.000000
vn 0.000000 -1.000000 0.000000
vn 0.000000 -1.000000 0.000000
vn 0.000000 -1.000000 0.000000
vn 0.000000 -1.000000 0.000000
vn 0.000000 -1.000000 0.000000
vn 0.000000 -1.000000 0.000000
vn 0.000000 -1.000000 0.000000
vn 0.000000 -1.000000 0.000000
vn 0.000000 -1.000000 0.000000
vn 0.000000 -1.000000 0.000000
vn 0.000000 -1.000000 0.000000
vn 0.000000 -1.000000 -0.000000
vn 0.000000 -1.000000 -0.000000
vn 0.000000 -1.000000 -0.000000
vn 0.000000 -1.000000 -0.000000
vn 0.427826 -0.903861 0.000000
vn 0.427826 -0.903861 0.000000
vn 0.427826 -0.903861 0.000000
vn 0.427826 -0.903861 0.000000
vn 0.000000 -0.903861 0.427826
vn 0.000000 -0.903861 0.427826
vn 0.000000 -0.903861 0.427826
vn 0.000000 -0.903861 0.427826
vn -0.427826 -0.903861 0.000000
vn -0.427826 -0.903861 0.000000
vn -0.427826 -0.903861 0.000000
vn -0.427826 -0.903861 0.000000
vn 0.000000 -0.903861 -0.427826
vn 0.000000 -0.903861 -0.427826
vn 0.000000 -0.903861 -0.427826
vn 0.000000 -0.903861 -0.427826
vn -0.872853 0.487984 0.000000
vn -0.872853 0.487984 0.000000
vn -0.872853 0.487984 0.000000
vn -0.872853 0.487984 0.000000
vn 0.000000 0.487984 -0.872853
vn 0.000000 0.487984 -0.872853
vn 0.000000 0.487984 -0.872853
vn 0.000000 0.487984 -0.872853
vn 0.872853 0.487984 0.000000
vn 0.872853 0.487984 0.000000
vn 0.872853 0.487984 0.000000
vn 0.872853 0.487984 0.000000
vn 0.000000 0.487984 0.872853
vn 0.000000 0.487984 0.872853
vn 0.000000 0.487984 0.872853
vn 0.000000 0.487984 0.872853
vn 0.000000 -0.203151 0.979147
vn 0.000000 -0.203151 0.979147
vn 0.000000 -0.203151 0.979147
vn 0.116328 0.000000 0.993211
vn 0.116328 0.000000 0.993211
vn 0.116328 0.000000 0.993211
vn 0.000000 0.203151 0.979147
vn 0.000000 0.203151 0.979147
vn 0.000000 0.203151 0.979147
vn -0.116328 0.000000 0.993211
vn -0.116328 0.000000 0.993211
vn -0.116328 0.000000 0.993211
vn -0.979147 -0.203151 0.000000
vn -0.979147 -0.203151 0.000000
vn -0.979147 -0.203151 0.000000
vn -0.993211 0.000000 0.116328
vn -0.993211 0.000000 0.116328
vn -0.993211 0.000000 0.116328
vn -0.979147 0.203151 0.000000
vn -0.979147 0.203151 0.000000
vn -0.979147 0.203151 0.000000
vn -0.993211 0.000000 -0.116328
vn -0.993211 0.000000 -0.116328
vn -0.993211 0.000000 -0.116328
vn 0.979147 -0.203151 0.000000
vn 0.979147 -0.203151 0.000000
vn 0.979147 -0.203151 0.000000
vn 0.993211 0.000000 -0.116328
vn 0.993211 0.000000 -0.116328
vn 0.993211 0.000000 -0.116328
vn 0.979147 0.203151 0.000000
vn 0.979147 0.203151 0.000000
vn 0.979147 0.203151 0.000000
vn 0.993211 0.000000 0.116328
vn 0.993211 0.000000 0.116328
vn 0.993211 0.000000 0.116328
vn 0.000000 0.203151 -0.979147
vn 0.000000 0.203151 -0.979147
vn 0.000000 0.203151 -0.979147
vn 0.116328 0.000000 -0.993211
vn 0.116328 0.000000 -0.993211
vn 0.116328 0.000000 -0.993211
vn 0.000000 -0.203151 -0.979147
vn 0.000000 -0.203151 -0.979147
vn 0.000000 -0.203151 -0.979147
vn -0.116328 0.000000 -0.993211
vn -0.116328 0.000000 -0.993211
vn -0.116328 0.000000 -0.993211
s off
f 3/4/1 4/3/2 6/5/3 5/6/4
f 7/8/5 8/7/6 10/9/7 9/10/8
f 8/7/9 2/2/10 11/11/11 10/9/12
f 2/2/13 1/1/14 12/12/15 11/11/16
f 1/1/17 7/8/18 9/10/19 12/12/20
f 42/41/21 41/42/22 43/43/23 44/44/24
f 12/12/25 9/10/26 13/14/27 14/13/28
f 9/10/29 10/9/30 15/15/31 13/14/32
f 10/9/33 11/11/34 16/16/35 15/15/36
f 11/11/37 12/12/38 14/13/39 16/16/40
f 14/13/41 13/14/42 17/18/43 18/17/44
f 13/14/45 15/15/46 19/19/47 17/18/48
f 15/15/49 16/16/50 20/20/51 19/19/52
f 16/16/53 14/13/54 18/17/55 20/20/56
f 18/17/57 17/18/58 21/22/59 22/21/60
f 17/18/61 19/19/62 23/23/63 21/22/64
f 19/19/65 20/20/66 24/24/67 23/23/68
f 20/20/69 18/17/70 22/21/71 24/24/72
f 22/21/73 21/22/74 25/26/75 26/25/76
f 21/22/77 23/23/78 27/27/79 25/26/80
f 23/23/81 24/24/82 28/28/83 27/27/84
f 24/24/85 22/21/86 26/25/87 28/28/88
f 26/25/89 25/26/90 29/30/91 30/29/92
f 25/26/93 27/27/94 31/31/95 29/30/96
f 27/27/97 28/28/98 32/32/99 31/31/100
f 28/28/101 26/25/102 30/29/103 32/32/104
f 30/29/105 29/30/106 33/34/107 34/33/108
f 29/30/109 31/31/110 35/35/111 33/34/112
f 31/31/113 32/32/114 36/36/115 35/35/116
f 32/32/117 30/29/118 34/33/119 36/36/120
f 34/33/121 33/34/122 37/38/123 38/37/124
f 33/34/125 35/35/126 39/39/127 37/38/128
f 35/35/129 36/36/130 40/40/131 39/39/132
f 36/36/133 34/33/134 38/37/135 40/40/136
f 38/37/137 37/38/138 41/42/139 42/41/140
f 37/38/141 39/39/142 43/43/143 41/42/144
f 39/39/145 40/40/146 44/44/147 43/43/148
f 40/40/149 38/37/150 42/41/151 44/44/152
f 1/1/153 2/2/154 45/45/155
f 2/2/156 4/3/157 45/45/158
f 4/3/159 3/4/160 45/45/161
f 3/4/162 1/1/163 45/45/164
f 7/8/165 1/1/166 46/46/167
f 1/1/168 3/4/169 46/46/170
f 3/4/171 5/6/172 46/46/173
f 5/6/174 7/8/175 46/46/176
f 2/2/177 8/7/178 47/47/179
f 8/7/180 6/5/181 47/47/182
f 6/5/183 4/3/184 47/47/185
f 4/3/186 2/2/187 47/47/188
f 5/6/189 6/5/190 48/48/191
f 6/5/192 8/7/193 48/48/194
f 8/7/195 7/8/196 48/48/197
f 7/8/198 5/6/199 48/48/200
