# This file uses centimeters as units for non-parametric coordinates.

v 5.093445 25.091532 15.323486
v -0.000061 23.299772 14.209686
v -5.093323 25.091532 15.323486
v -7.203064 29.417229 18.012421
v -5.093323 33.742920 20.701355
v -0.000061 35.534687 21.815155
v 5.093445 33.742920 20.701355
v 7.203064 29.417229 18.012421
v 5.093445 30.022902 7.626099
v -0.000061 28.231140 6.512329
v -5.093323 30.022902 7.626099
v -7.203064 34.348591 10.315033
v -5.093323 38.674286 13.003998
v -0.000061 40.466053 14.117798
v 5.093445 38.674286 13.003998
v 7.203064 34.348591 10.315033
v 4.049255 25.978573 15.874908
v -0.000061 24.554230 14.989502
v -4.048889 25.978573 15.874908
v -5.726013 29.417229 18.012421
v -4.048889 32.855881 20.149963
v -0.000061 34.280228 21.035370
v 4.049255 32.855881 20.149963
v 5.725891 29.417229 18.012421
v 3.773438 27.930456 13.257202
v -0.000061 26.603117 12.432098
v -0.000061 29.951834 17.152405
v -3.773132 27.930456 13.257202
v -5.336060 31.134920 15.249176
v -3.773132 34.339390 17.241119
v -0.000061 35.666729 18.066254
v 3.773438 34.339390 17.241119
v 5.335938 31.134920 15.249176
v 2.148193 32.725567 8.621521
v -0.000061 31.969915 8.151794
v -2.147888 32.725567 8.621521
v -3.037781 34.549881 9.755524
v -2.147888 36.374195 10.889557
v -0.000061 37.129848 11.359314
v 2.148193 36.374195 10.889557
v 3.037903 34.549881 9.755524
v 2.148193 35.553986 4.102814
v -0.000061 34.798328 3.633087
v -2.147888 35.553986 4.102814
v -3.037781 37.378296 5.236877
v -2.147888 39.202610 6.370880
v -0.000061 39.958267 6.840607
v 2.148193 39.202610 6.370880
v 3.037903 37.378296 5.236877
v -0.000061 37.435085 5.136749
v 0.426331 2.654766 -2.478531
v -1.374451 2.654766 -1.893463
v -1.374451 2.654766 0.000000
v 0.426331 2.654766 0.585327
v 1.539307 2.654766 -0.946716
v 0.426636 34.859741 5.883209
v -1.378662 34.508656 6.252869
v -1.378845 33.361427 7.460846
v 0.426514 33.010048 7.830811
v 1.548523 33.935230 6.856628
v 0.426331 23.269945 -1.876907
v -1.376648 22.933680 -1.394684
v -1.376770 21.838358 0.171570
v 0.426331 21.501188 0.653564
v 1.544067 22.386297 -0.611511
v 0.426331 20.840740 -2.478531
v -1.375122 20.848726 -1.894058
v -1.375244 20.872688 0.000336
v 0.426331 20.879837 0.584869
v 1.540894 20.860956 -0.946869
v -10.231628 0.000000 13.218353
v 10.231628 0.000000 13.218353
v -10.231628 2.867343 13.218353
v 10.231628 2.867343 13.218353
v -10.231628 2.867343 -4.654373
v 10.231628 2.867343 -4.654373
v -10.231628 0.000000 -4.654373
v 10.231628 0.000000 -4.654373
vt 0.070090 0.328269
vt 0.069994 0.328199
vt 0.004463 0.123571
vt 0.070152 0.328297
vt 0.070142 0.328264
vt 0.070059 0.328184
vt 0.069952 0.328107
vt 0.069893 0.328084
vt 0.069913 0.328124
vt 0.070213 0.327949
vt 0.070188 0.327963
vt 0.070244 0.328002
vt 0.070282 0.328013
vt 0.070280 0.327988
vt 0.070236 0.327940
vt 0.070176 0.327898
vt 0.070139 0.327889
vt 0.070144 0.327917
vt 0.069926 0.328276
vt 0.070053 0.328370
vt 0.070215 0.328156
vt 0.070087 0.328065
vt 0.070135 0.328412
vt 0.070304 0.328189
vt 0.070121 0.328374
vt 0.070299 0.328138
vt 0.070004 0.328268
vt 0.070190 0.328023
vt 0.069859 0.328161
vt 0.070044 0.327920
vt 0.069783 0.328127
vt 0.069960 0.327897
vt 0.069816 0.328178
vt 0.069983 0.327961
vt 0.069933 0.328276
vt 0.070035 0.328351
vt 0.070100 0.328384
vt 0.070087 0.328353
vt 0.069995 0.328269
vt 0.069881 0.328185
vt 0.069820 0.328157
vt 0.069845 0.328197
vt 0.070182 0.328082
vt 0.070126 0.328042
vt 0.070219 0.328095
vt 0.070215 0.328071
vt 0.070170 0.328024
vt 0.070111 0.327982
vt 0.070074 0.327972
vt 0.070082 0.327997
vt 0.080714 0.279936
vt 0.081065 0.280440
vt 0.081042 0.280490
vt 0.080689 0.279983
vt 0.080981 0.280513
vt 0.080641 0.280015
vt 0.080968 0.280477
vt 0.080638 0.279988
vt 0.081019 0.280432
vt 0.080683 0.279940
vt 0.081079 0.280511
vt 0.081054 0.280551
vt 0.080985 0.280541
vt 0.080969 0.280494
vt 0.081027 0.280476
vt 0.081037 0.280893
vt 0.081013 0.280936
vt 0.080949 0.280926
vt 0.080934 0.280876
vt 0.080988 0.280857
vt 0.070257 0.328889
vt 0.069921 0.328639
vt 0.069918 0.328597
vt 0.070258 0.328848
vt 0.070245 0.328387
vt 0.070585 0.328601
vt 0.070244 0.328428
vt 0.070579 0.328642
vt 0.004132 0.123563
vt 0.004532 0.123738
vt 0.004831 0.123554
vt 0.005027 0.123522
vt 0.004931 0.123493
vt 0.004593 0.123485
vt 0.004216 0.123503
vt 0.004027 0.123536
vn 0.158350 -0.805313 0.571311
vn 0.158350 -0.805313 0.571311
vn 0.158350 -0.805313 0.571311
vn -0.158367 -0.805311 0.571310
vn -0.158367 -0.805310 0.571310
vn -0.158367 -0.805310 0.571310
vn -0.382325 -0.615109 0.689542
vn -0.382325 -0.615109 0.689542
vn -0.382325 -0.615109 0.689542
vn -0.382325 -0.346103 0.856762
vn -0.382325 -0.346103 0.856762
vn -0.382325 -0.346103 0.856762
vn -0.158375 -0.155907 0.974993
vn -0.158375 -0.155907 0.974993
vn -0.158375 -0.155907 0.974992
vn 0.158357 -0.155908 0.974995
vn 0.158357 -0.155908 0.974995
vn 0.158357 -0.155908 0.974995
vn 0.382328 -0.346142 0.856745
vn 0.382327 -0.346142 0.856745
vn 0.382328 -0.346142 0.856745
vn 0.382327 -0.615077 0.689570
vn 0.382327 -0.615077 0.689570
vn 0.382327 -0.615077 0.689570
vn 0.015687 0.495318 -0.868570
vn 0.015687 0.495318 -0.868570
vn 0.015687 0.495318 -0.868570
vn -0.015690 0.495318 -0.868570
vn -0.015690 0.495318 -0.868570
vn -0.015690 0.495318 -0.868570
vn -0.037855 0.514181 -0.856846
vn -0.037855 0.514182 -0.856846
vn -0.037855 0.514181 -0.856846
vn -0.037808 0.540786 -0.840310
vn -0.037808 0.540786 -0.840310
vn -0.037808 0.540786 -0.840310
vn -0.015646 0.559565 -0.828639
vn -0.015646 0.559565 -0.828639
vn -0.015646 0.559565 -0.828639
vn 0.015643 0.559565 -0.828639
vn 0.015643 0.559565 -0.828639
vn 0.015643 0.559565 -0.828639
vn 0.037805 0.540782 -0.840313
vn 0.037805 0.540782 -0.840313
vn 0.037805 0.540782 -0.840313
vn 0.037852 0.514187 -0.856843
vn 0.037852 0.514186 -0.856843
vn 0.037852 0.514187 -0.856843
vn 0.382641 -0.777940 -0.498392
vn 0.382641 -0.777940 -0.498392
vn 0.382641 -0.777940 -0.498392
vn 0.382641 -0.777940 -0.498392
vn -0.382657 -0.777935 -0.498389
vn -0.382657 -0.777935 -0.498389
vn -0.382657 -0.777935 -0.498389
vn -0.382657 -0.777935 -0.498389
vn -0.923866 -0.322255 -0.206454
vn -0.923866 -0.322255 -0.206454
vn -0.923866 -0.322255 -0.206454
vn -0.923866 -0.322255 -0.206454
vn -0.923866 0.322254 0.206454
vn -0.923866 0.322254 0.206454
vn -0.923866 0.322254 0.206454
vn -0.923866 0.322254 0.206454
vn -0.382659 0.777934 0.498389
vn -0.382659 0.777934 0.498389
vn -0.382659 0.777934 0.498389
vn -0.382659 0.777934 0.498389
vn 0.382643 0.777939 0.498392
vn 0.382643 0.777939 0.498392
vn 0.382643 0.777939 0.498392
vn 0.382643 0.777939 0.498392
vn 0.923874 0.322239 0.206444
vn 0.923874 0.322239 0.206444
vn 0.923874 0.322239 0.206444
vn 0.923874 0.322239 0.206444
vn 0.923874 -0.322239 -0.206444
vn 0.923874 -0.322239 -0.206444
vn 0.923874 -0.322239 -0.206444
vn 0.923874 -0.322239 -0.206444
vn 0.000004 -0.527943 0.849280
vn 0.000004 -0.527943 0.849280
vn 0.000004 -0.527943 0.849280
vn 0.000004 -0.527943 0.849280
vn -0.000004 -0.527943 0.849280
vn -0.000004 -0.527943 0.849280
vn -0.000004 -0.527943 0.849280
vn -0.000004 -0.527943 0.849280
vn -0.000006 -0.527933 0.849286
vn -0.000006 -0.527933 0.849286
vn -0.000006 -0.527933 0.849286
vn -0.000006 -0.527933 0.849286
vn -0.000003 -0.527933 0.849286
vn -0.000003 -0.527932 0.849286
vn -0.000003 -0.527932 0.849286
vn -0.000003 -0.527932 0.849286
vn -0.000002 -0.527928 0.849289
vn -0.000002 -0.527928 0.849289
vn -0.000002 -0.527928 0.849289
vn -0.000002 -0.527928 0.849289
vn 0.000003 -0.527929 0.849289
vn 0.000003 -0.527929 0.849289
vn 0.000003 -0.527929 0.849289
vn 0.000003 -0.527929 0.849289
vn 0.000003 -0.527932 0.849286
vn 0.000003 -0.527932 0.849286
vn 0.000003 -0.527932 0.849286
vn 0.000003 -0.527932 0.849286
vn 0.000006 -0.527933 0.849286
vn 0.000006 -0.527933 0.849286
vn 0.000006 -0.527933 0.849286
vn 0.000006 -0.527933 0.849286
vn -0.380327 0.721778 0.578263
vn -0.380327 0.721778 0.578263
vn -0.380327 0.721778 0.578263
vn -0.380327 0.721778 0.578263
vn 0.380365 0.721767 0.578251
vn 0.380365 0.721767 0.578251
vn 0.380365 0.721767 0.578251
vn 0.380365 0.721767 0.578251
vn 0.918264 0.264936 0.294279
vn 0.918264 0.264936 0.294279
vn 0.918264 0.264936 0.294279
vn 0.918264 0.264936 0.294279
vn 0.918264 -0.381143 -0.107336
vn 0.918264 -0.381143 -0.107336
vn 0.918264 -0.381143 -0.107336
vn 0.918264 -0.381143 -0.107336
vn 0.380366 -0.837973 -0.391310
vn 0.380366 -0.837973 -0.391310
vn 0.380366 -0.837973 -0.391310
vn 0.380366 -0.837973 -0.391310
vn -0.380328 -0.837988 -0.391315
vn -0.380328 -0.837988 -0.391315
vn -0.380328 -0.837988 -0.391315
vn -0.380328 -0.837988 -0.391315
vn -0.918301 -0.381069 -0.107280
vn -0.918301 -0.381069 -0.107280
vn -0.918301 -0.381069 -0.107280
vn -0.918301 -0.381069 -0.107280
vn -0.918301 0.264853 0.294238
vn -0.918301 0.264853 0.294238
vn -0.918301 0.264853 0.294238
vn -0.918301 0.264853 0.294238
vn 0.058886 0.400893 -0.914230
vn 0.058886 0.400893 -0.914230
vn 0.058886 0.400893 -0.914230
vn 0.058886 0.400893 -0.914230
vn -0.058890 0.400896 -0.914229
vn -0.058890 0.400896 -0.914229
vn -0.058890 0.400896 -0.914229
vn -0.058890 0.400896 -0.914229
vn -0.139711 0.472708 -0.870074
vn -0.139711 0.472708 -0.870074
vn -0.139711 0.472708 -0.870074
vn -0.139711 0.472708 -0.870074
vn -0.136376 0.570130 -0.810157
vn -0.136376 0.570130 -0.810157
vn -0.136376 0.570130 -0.810157
vn -0.136376 0.570130 -0.810157
vn -0.055550 0.636241 -0.769488
vn -0.055550 0.636241 -0.769488
vn -0.055550 0.636241 -0.769488
vn -0.055550 0.636241 -0.769488
vn 0.055546 0.636243 -0.769486
vn 0.055546 0.636243 -0.769486
vn 0.055546 0.636243 -0.769486
vn 0.055546 0.636243 -0.769486
vn 0.136383 0.570127 -0.810157
vn 0.136383 0.570127 -0.810157
vn 0.136383 0.570127 -0.810157
vn 0.136383 0.570127 -0.810157
vn 0.139718 0.472710 -0.870071
vn 0.139718 0.472710 -0.870071
vn 0.139718 0.472710 -0.870071
vn 0.139718 0.472710 -0.870071
vn 0.382651 -0.783131 -0.490189
vn 0.382651 -0.783131 -0.490189
vn 0.382651 -0.783131 -0.490189
vn 0.382651 -0.783131 -0.490189
vn -0.382716 -0.783108 -0.490174
vn -0.382716 -0.783108 -0.490174
vn -0.382716 -0.783108 -0.490174
vn -0.382716 -0.783108 -0.490174
vn -0.923858 -0.324422 -0.203068
vn -0.923858 -0.324422 -0.203068
vn -0.923858 -0.324422 -0.203068
vn -0.923858 -0.324422 -0.203068
vn -0.923857 0.324423 0.203069
vn -0.923857 0.324423 0.203069
vn -0.923857 0.324423 0.203069
vn -0.923857 0.324423 0.203069
vn -0.382719 0.783106 0.490175
vn -0.382719 0.783106 0.490175
vn -0.382719 0.783106 0.490175
vn -0.382719 0.783106 0.490175
vn 0.382654 0.783129 0.490189
vn 0.382654 0.783129 0.490189
vn 0.382654 0.783129 0.490189
vn 0.382654 0.783129 0.490189
vn 0.923885 0.324366 0.203034
vn 0.923885 0.324366 0.203034
vn 0.923885 0.324366 0.203034
vn 0.923885 0.324366 0.203034
vn 0.923886 -0.324365 -0.203033
vn 0.923886 -0.324365 -0.203033
vn 0.923886 -0.324365 -0.203033
vn 0.923886 -0.324365 -0.203033
vn -0.289171 0.530141 -0.797076
vn -0.289171 0.530141 -0.797076
vn -0.289171 0.530141 -0.797076
vn -0.289171 0.530141 -0.797076
vn -1.000000 -0.000070 -0.000166
vn -1.000000 -0.000070 -0.000166
vn -1.000000 -0.000070 -0.000166
vn -1.000000 -0.000070 -0.000166
vn -0.288601 -0.509275 0.810771
vn -0.288601 -0.509275 0.810771
vn -0.288601 -0.509275 0.810771
vn -0.288601 -0.509275 0.810771
vn 0.787397 -0.330622 0.520284
vn 0.787397 -0.330622 0.520284
vn 0.787397 -0.330622 0.520284
vn 0.787397 -0.330622 0.520284
vn 0.787754 0.338529 -0.514628
vn 0.787754 0.338529 -0.514628
vn 0.787754 0.338529 -0.514628
vn 0.787754 0.338529 -0.514628
vn -0.295306 0.226291 -0.928217
vn -0.295306 0.226291 -0.928217
vn -0.295306 0.226291 -0.928217
vn -0.295306 0.226291 -0.928217
vn -1.000000 -0.000922 -0.000356
vn -1.000000 -0.000922 -0.000356
vn -1.000000 -0.000922 -0.000356
vn -1.000000 -0.000922 -0.000356
vn -0.292824 -0.143206 0.945381
vn -0.292824 -0.143206 0.945381
vn -0.292824 -0.143206 0.945381
vn -0.292824 -0.143206 0.945381
vn 0.793375 -0.113732 0.598014
vn 0.793375 -0.113732 0.598014
vn 0.793375 -0.113732 0.598014
vn 0.793375 -0.113732 0.598014
vn 0.794499 0.139404 -0.591048
vn 0.794499 0.139404 -0.591048
vn 0.794499 0.139404 -0.591048
vn 0.794499 0.139404 -0.591048
vn -0.308803 -0.000021 -0.951126
vn -0.308803 -0.000021 -0.951126
vn -0.308803 -0.000021 -0.951126
vn -0.308803 -0.000021 -0.951126
vn -1.000000 -0.000040 -0.000032
vn -1.000000 -0.000040 -0.000032
vn -1.000000 -0.000040 -0.000032
vn -1.000000 -0.000040 -0.000032
vn -0.308870 -0.000004 0.951104
vn -0.308870 -0.000004 0.951104
vn -0.308870 -0.000004 0.951104
vn -0.308870 -0.000004 0.951104
vn 0.808820 -0.000025 0.588057
vn 0.808820 -0.000025 0.588057
vn 0.808820 -0.000025 0.588057
vn 0.808820 -0.000025 0.588057
vn 0.808792 -0.000038 -0.588095
vn 0.808792 -0.000038 -0.588095
vn 0.808792 -0.000038 -0.588095
vn 0.808792 -0.000038 -0.588095
vn 0.000000 0.000000 1.000000
vn 0.000000 0.000000 1.000000
vn 0.000000 0.000000 1.000000
vn 0.000000 0.000000 1.000000
vn 0.000000 1.000000 0.000000
vn 0.000000 1.000000 0.000000
vn 0.000000 1.000000 0.000000
vn 0.000000 1.000000 0.000000
vn 0.000000 0.000000 -1.000000
vn 0.000000 0.000000 -1.000000
vn 0.000000 0.000000 -1.000000
vn 0.000000 0.000000 -1.000000
vn 0.000000 -1.000000 0.000000
vn 0.000000 -1.000000 0.000000
vn 0.000000 -1.000000 0.000000
vn 0.000000 -1.000000 0.000000
vn 1.000000 0.000000 0.000000
vn 1.000000 0.000000 0.000000
vn 1.000000 0.000000 0.000000
vn 1.000000 0.000000 0.000000
vn -1.000000 0.000000 0.000000
vn -1.000000 0.000000 0.000000
vn -1.000000 0.000000 0.000000
vn -1.000000 0.000000 0.000000
s off
f 26/3/1 25/79/2 27/80/3
f 28/81/4 26/3/5 27/80/6
f 29/82/7 28/81/8 27/80/9
f 30/83/10 29/82/11 27/80/12
f 31/84/13 30/83/14 27/80/15
f 32/85/16 31/84/17 27/80/18
f 33/86/19 32/85/20 27/80/21
f 25/79/22 33/86/23 27/80/24
f 50/10/25 42/11/26 43/12/27
f 50/10/28 43/12/29 44/13/30
f 50/10/31 44/13/32 45/14/33
f 50/10/34 45/14/35 46/15/36
f 50/10/37 46/15/38 47/16/39
f 50/10/40 47/16/41 48/17/42
f 50/10/43 48/17/44 49/18/45
f 42/11/46 50/10/47 49/18/48
f 1/19/49 2/20/50 10/21/51 9/22/52
f 2/20/53 3/23/54 11/24/55 10/21/56
f 3/23/57 4/25/58 12/26/59 11/24/60
f 4/25/61 5/27/62 13/28/63 12/26/64
f 5/27/65 6/29/66 14/30/67 13/28/68
f 6/29/69 7/31/70 15/32/71 14/30/72
f 7/31/73 8/33/74 16/34/75 15/32/76
f 8/33/77 1/19/78 9/22/79 16/34/80
f 2/20/81 1/19/82 17/35/83 18/36/84
f 3/23/85 2/20/86 18/36/87 19/37/88
f 4/25/89 3/23/90 19/37/91 20/38/92
f 5/27/93 4/25/94 20/38/95 21/39/96
f 6/29/97 5/27/98 21/39/99 22/40/100
f 7/31/101 6/29/102 22/40/103 23/41/104
f 8/33/105 7/31/106 23/41/107 24/42/108
f 1/19/109 8/33/110 24/42/111 17/35/112
f 18/36/113 17/35/114 25/2/115 26/1/116
f 19/37/117 18/36/118 26/1/119 28/4/120
f 20/38/121 19/37/122 28/4/123 29/5/124
f 21/39/125 20/38/126 29/5/127 30/6/128
f 22/40/129 21/39/130 30/6/131 31/7/132
f 23/41/133 22/40/134 31/7/135 32/8/136
f 24/42/137 23/41/138 32/8/139 33/9/140
f 17/35/141 24/42/142 33/9/143 25/2/144
f 10/21/145 35/43/146 34/44/147 9/22/148
f 11/24/149 36/45/150 35/43/151 10/21/152
f 12/26/153 37/46/154 36/45/155 11/24/156
f 13/28/157 38/47/158 37/46/159 12/26/160
f 14/30/161 39/48/162 38/47/163 13/28/164
f 15/32/165 40/49/166 39/48/167 14/30/168
f 16/34/169 41/50/170 40/49/171 15/32/172
f 9/22/173 34/44/174 41/50/175 16/34/176
f 34/44/177 35/43/178 43/12/179 42/11/180
f 35/43/181 36/45/182 44/13/183 43/12/184
f 36/45/185 37/46/186 45/14/187 44/13/188
f 37/46/189 38/47/190 46/15/191 45/14/192
f 38/47/193 39/48/194 47/16/195 46/15/196
f 39/48/197 40/49/198 48/17/199 47/16/200
f 40/49/201 41/50/202 49/18/203 48/17/204
f 41/50/205 34/44/206 42/11/207 49/18/208
f 56/51/209 61/52/210 62/53/211 57/54/212
f 62/53/213 63/55/214 58/56/215 57/54/216
f 63/55/217 64/57/218 59/58/219 58/56/220
f 64/57/221 65/59/222 60/60/223 59/58/224
f 65/59/225 61/52/226 56/51/227 60/60/228
f 66/61/229 67/62/230 62/53/231 61/52/232
f 67/62/233 68/63/234 63/55/235 62/53/236
f 68/63/237 69/64/238 64/57/239 63/55/240
f 69/64/241 70/65/242 65/59/243 64/57/244
f 70/65/245 66/61/246 61/52/247 65/59/248
f 51/66/249 52/67/250 67/62/251 66/61/252
f 52/67/253 53/68/254 68/63/255 67/62/256
f 53/68/257 54/69/258 69/64/259 68/63/260
f 54/69/261 55/70/262 70/65/263 69/64/264
f 55/70/265 51/66/266 66/61/267 70/65/268
f 71/71/269 72/72/270 74/73/271 73/74/272
f 73/74/273 74/73/274 76/75/275 75/76/276
f 75/76/277 76/75/278 78/77/279 77/78/280
f 77/78/281 78/77/282 72/72/283 71/71/284
f 72/72/285 78/77/286 76/75/287 74/73/288
f 77/78/289 71/71/290 73/74/291 75/76/292
