# This file uses centimeters as units for non-parametric coordinates.

v -6.839567 7.901080 -2.727086
v 6.839567 7.901080 -2.727086
v -6.839567 0.000000 0.302228
v 6.839567 0.000000 0.302228
v -4.241472 5.872002 0.302228
v -4.241472 5.872002 3.763696
v -4.241472 3.116572 3.763696
v -4.241472 3.116572 0.302228
v 0.000000 3.116572 3.763696
v 0.000000 3.116572 -1.801476
v 0.000000 7.281093 -1.801476
v 6.839567 0.000000 -2.727086
v 0.000000 5.872002 3.763696
v 4.241472 3.116572 3.763696
v 4.241472 3.116572 0.302228
v 6.839567 5.872002 0.302228
v 4.241472 5.872002 3.763696
v 4.241472 5.872002 0.302228
v -6.839567 5.872002 0.302228
v -6.839567 0.000000 -2.727086
v 0.000000 7.901080 -2.727086
v 4.997127 7.901080 -7.333648
v 6.839567 7.901080 -5.491208
v 4.997127 0.000000 -7.333648
v 6.839567 0.000000 -5.491208
v 4.997127 0.000000 5.613698
v 6.839567 0.000000 3.771257
v 6.839567 5.872002 3.771257
v 4.997127 5.872002 5.613698
v -4.997127 0.000000 5.613698
v -6.839567 0.000000 3.771257
v -4.997127 5.872002 5.613698
v -6.839567 5.872002 3.771257
v -4.997127 7.901080 -7.333648
v -6.839567 7.901080 -5.491208
v -4.997127 0.000000 -7.333648
v -6.839567 0.000000 -5.491208
vt 0.081529 0.276461
vt 0.081166 0.276565
vt 0.080953 0.276368
vt 0.081333 0.277355
vt 0.081477 0.277294
vt 0.081518 0.277141
vt 0.080718 0.276977
vt 0.080644 0.277115
vt 0.080711 0.277217
vt 0.081380 0.276829
vt 0.081331 0.276974
vt 0.081322 0.277112
vt 0.081370 0.276964
vt 0.081051 0.277056
vt 0.081145 0.276833
vt 0.081150 0.276630
vt 0.080761 0.276496
vt 0.080778 0.276867
vt 0.080829 0.276772
vt 0.080816 0.276407
vt 0.081052 0.276919
vt 0.080789 0.277002
vt 0.080859 0.276865
vt 0.081354 0.277068
vt 0.080693 0.276934
vt 0.080702 0.276703
vt 0.080783 0.276866
vt 0.080855 0.276731
vt 0.080622 0.276835
vt 0.081548 0.276861
vt 0.081507 0.277009
vt 0.081551 0.277019
vt 0.081493 0.276830
vt 0.080956 0.276730
vt 0.081594 0.276639
vt 0.081622 0.276541
vt 0.081579 0.276914
vn 0.000000 1.000000 0.000000
vn 0.000000 1.000000 0.000000
vn 0.000000 1.000000 0.000000
vn 0.000000 -1.000000 0.000000
vn 0.000000 -1.000000 0.000000
vn 0.000000 -1.000000 0.000000
vn 0.000000 -1.000000 0.000000
vn 0.000000 -1.000000 0.000000
vn 0.000000 -1.000000 0.000000
vn 1.000000 0.000000 0.000000
vn 1.000000 0.000000 0.000000
vn 1.000000 0.000000 0.000000
vn 1.000000 0.000000 0.000000
vn 0.000000 1.000000 0.000000
vn 0.000000 1.000000 0.000000
vn 0.000000 1.000000 0.000000
vn 0.000000 1.000000 0.000000
vn 0.444333 0.000000 0.895862
vn 0.444333 0.000000 0.895862
vn 0.444333 0.000000 0.895862
vn 0.444333 0.000000 0.895862
vn 1.000000 0.000000 0.000000
vn 1.000000 0.000000 0.000000
vn 1.000000 0.000000 0.000000
vn 1.000000 0.000000 0.000000
vn 0.000000 0.000000 -1.000000
vn 0.000000 0.000000 -1.000000
vn 0.000000 0.000000 -1.000000
vn 0.000000 0.000000 -1.000000
vn 0.000000 1.000000 0.000000
vn 0.000000 1.000000 0.000000
vn 0.000000 1.000000 0.000000
vn 0.000000 1.000000 0.000000
vn 0.000000 0.000000 1.000000
vn 0.000000 0.000000 1.000000
vn 0.000000 0.000000 1.000000
vn 0.000000 0.000000 1.000000
vn 1.000000 0.000000 0.000000
vn 1.000000 0.000000 0.000000
vn 1.000000 0.000000 0.000000
vn 1.000000 0.000000 0.000000
vn 0.000000 0.000000 -1.000000
vn 0.000000 0.000000 -1.000000
vn 0.000000 0.000000 -1.000000
vn 0.000000 0.000000 -1.000000
vn -1.000000 0.000000 0.000000
vn -1.000000 0.000000 0.000000
vn -1.000000 0.000000 0.000000
vn -1.000000 0.000000 0.000000
vn -0.444333 0.000000 0.895862
vn -0.444333 0.000000 0.895862
vn -0.444333 0.000000 0.895862
vn -0.444333 0.000000 0.895862
vn 1.000000 0.000000 0.000000
vn 1.000000 0.000000 0.000000
vn 1.000000 0.000000 0.000000
vn 1.000000 0.000000 0.000000
vn 0.000000 0.830841 0.556509
vn 0.000000 0.830841 0.556509
vn 0.000000 0.830841 0.556509
vn 0.000000 0.830841 0.556509
vn -1.000000 0.000000 0.000000
vn -1.000000 0.000000 0.000000
vn -1.000000 0.000000 0.000000
vn -1.000000 0.000000 0.000000
vn 0.000000 -1.000000 0.000000
vn 0.000000 -1.000000 0.000000
vn 0.000000 -1.000000 0.000000
vn 0.000000 -1.000000 0.000000
vn 0.000000 0.000000 -1.000000
vn 0.000000 0.000000 -1.000000
vn 0.000000 0.000000 -1.000000
vn 0.000000 0.000000 -1.000000
vn -1.000000 0.000000 0.000000
vn -1.000000 0.000000 0.000000
vn -1.000000 0.000000 0.000000
vn -1.000000 0.000000 0.000000
vn -1.000000 0.000000 0.000000
vn -1.000000 0.000000 0.000000
vn -1.000000 0.000000 0.000000
vn -1.000000 0.000000 0.000000
vn 0.000000 0.830841 0.556509
vn 0.000000 0.830841 0.556509
vn 0.000000 0.830841 0.556509
vn 0.000000 1.000000 0.000000
vn 0.000000 1.000000 0.000000
vn 0.000000 1.000000 0.000000
vn 0.000000 -1.000000 0.000000
vn 0.000000 -1.000000 0.000000
vn 0.000000 -1.000000 0.000000
vn 0.000000 -1.000000 0.000000
vn 0.000000 -1.000000 0.000000
vn 0.000000 -1.000000 0.000000
vn 0.707107 0.000000 -0.707107
vn 0.707107 0.000000 -0.707107
vn 0.707107 0.000000 -0.707107
vn 0.707107 0.000000 -0.707107
vn 0.707107 0.000000 0.707107
vn 0.707107 0.000000 0.707107
vn 0.707107 0.000000 0.707107
vn 0.707107 0.000000 0.707107
vn -0.707107 0.000000 0.707107
vn -0.707107 0.000000 0.707107
vn -0.707107 0.000000 0.707107
vn -0.707107 0.000000 0.707107
vn -0.707107 0.000000 -0.707107
vn -0.707107 0.000000 -0.707107
vn -0.707107 0.000000 -0.707107
vn -0.707107 0.000000 -0.707107
vn 0.000000 1.000000 0.000000
vn 0.000000 1.000000 0.000000
vn 0.000000 1.000000 0.000000
vn 0.000000 1.000000 0.000000
vn 0.000000 1.000000 0.000000
vn 0.000000 1.000000 0.000000
vn 0.000000 1.000000 0.000000
vn 0.000000 1.000000 0.000000
vn 0.000000 1.000000 0.000000
vn 0.000000 1.000000 0.000000
vn 0.000000 1.000000 0.000000
vn 0.000000 1.000000 0.000000
vn 0.000000 1.000000 0.000000
vn 0.000000 1.000000 0.000000
vn 0.000000 1.000000 0.000000
vn 0.000000 1.000000 0.000000
vn 0.000000 1.000000 0.000000
vn 0.000000 1.000000 0.000000
vn 0.000000 1.000000 0.000000
vn 0.000000 1.000000 0.000000
vn 0.000000 1.000000 0.000000
vn 0.000000 1.000000 0.000000
vn 0.000000 1.000000 0.000000
vn 0.000000 1.000000 0.000000
vn -0.000000 0.830841 0.556509
vn -0.000000 0.830841 0.556509
vn -0.000000 0.830841 0.556509
vn -0.000000 0.830841 0.556509
vn 0.000000 0.830841 0.556510
vn 0.000000 0.830841 0.556510
vn 0.000000 0.830841 0.556510
s off
f 34/1/1 21/2/2 22/3/3
f 30/4/4 31/5/5 3/6/6 4/7/7 27/8/8 26/9/9
f 5/10/10 6/11/11 7/12/12 8/13/13
f 8/13/14 7/12/15 9/14/16 10/15/17
f 11/16/18 5/10/19 8/13/20 10/15/21
f 2/17/22 12/18/23 25/19/24 23/20/25
f 6/11/26 13/21/27 9/14/28 7/12/29
f 9/14/30 14/22/31 15/23/32 10/15/33
f 32/24/34 30/4/35 26/9/36 29/25/37
f 16/26/38 4/7/39 12/18/40 2/17/41
f 13/21/42 17/27/43 14/22/44 9/14/45
f 17/27/46 18/28/47 15/23/48 14/22/49
f 10/15/50 15/23/51 18/28/52 11/16/53
f 28/29/54 27/8/55 4/7/56 16/26/57
f 21/2/58 11/16/59 18/28/60 2/17/61
f 19/30/62 3/6/63 31/5/64 33/31/65
f 3/6/66 20/32/67 12/18/68 4/7/69
f 36/33/70 34/1/71 22/3/72 24/34/73
f 1/35/74 20/32/75 3/6/76 19/30/77
f 35/36/78 37/37/79 20/32/80 1/35/81
f 19/30/82 5/10/83 1/35/84
f 33/31/85 32/24/86 6/11/87
f 20/32/88 37/37/89 36/33/90 24/34/91 25/19/92 12/18/93
f 22/3/94 23/20/95 25/19/96 24/34/97
f 26/9/98 27/8/99 28/29/100 29/25/101
f 31/5/102 30/4/103 32/24/104 33/31/105
f 35/36/106 34/1/107 36/33/108 37/37/109
f 1/35/110 21/2/111 34/1/112 35/36/113
f 22/3/114 21/2/115 2/17/116 23/20/117
f 17/27/118 28/29/119 16/26/120 18/28/121
f 17/27/122 29/25/123 28/29/124
f 6/11/125 32/24/126 29/25/127 17/27/128 13/21/129
f 33/31/130 6/11/131 5/10/132 19/30/133
f 1/35/134 5/10/135 11/16/136 21/2/137
f 2/17/138 18/28/139 16/26/140
