# This file uses centimeters as units for non-parametric coordinates.

v 80.025085 -5.024277 0.000000
v -80.315720 -5.024277 0.000000
v -80.315720 0.000000 0.000000
v 80.025085 0.000000 43.745281
v 80.025085 -5.024277 43.745281
v 80.025085 0.000000 0.000000
v -80.315720 -5.024277 43.745281
v -78.315918 -2.511887 43.745281
v -74.763573 0.000000 43.745281
v -80.315720 -2.511887 41.745480
v -80.315720 0.000000 38.193134
v 27.116304 0.000000 43.745281
v 67.917053 0.000000 43.745285
v 51.212288 -0.000000 41.860546
v 51.484634 -2.018249 43.745281
v 63.932976 -5.024270 41.945305
v 71.901131 -5.024270 41.945305
v 63.932976 -5.024270 -0.000004
v 71.901131 -5.024270 -0.000004
v 63.932976 -35.107922 -0.000004
v 71.901131 -35.107922 -0.000004
v 71.901131 -7.756749 3.486444
v 63.932976 -7.756749 3.486444
v 71.901131 -35.107922 3.486444
v 63.932976 -35.107922 3.486444
v 63.932976 -7.756749 41.945305
v 71.901131 -7.756749 41.945305
v 65.461983 -30.700567 3.339911
v 70.615608 -30.700567 3.339911
v 65.461983 -7.439967 26.600513
v 70.615608 -7.439967 26.600513
v 65.461983 -7.308951 21.551781
v 70.615608 -7.308951 21.551781
v 65.461983 -25.404646 3.394505
v 70.615608 -25.404646 3.394505
v -72.971130 -5.024273 41.945301
v -65.002983 -5.024273 41.945301
v -72.971130 -5.024273 0.000000
v -65.002983 -5.024273 0.000000
v -72.971130 -35.107918 0.000000
v -65.002983 -35.107918 0.000000
v -65.002983 -7.756753 41.945301
v -65.002983 -7.756753 3.486448
v -72.971130 -7.756753 3.486448
v -65.002983 -35.107918 3.486448
v -72.971130 -35.107918 3.486448
v -72.971130 -7.756753 41.945301
v -71.442123 -30.700567 3.339911
v -66.288498 -30.700567 3.339911
v -71.442123 -7.439976 26.600513
v -66.288498 -7.439976 26.600513
v -71.442123 -7.308941 21.551781
v -66.288498 -7.308941 21.551781
v -71.442123 -25.404621 3.394505
v -66.288498 -25.404621 3.394505
v -66.288498 -22.290474 11.749992
v -66.288498 -10.922928 23.117540
v -68.132553 -18.487537 15.552929
v -66.288498 -15.882290 16.643936
vt 0.328086 0.331965
vt 0.328177 0.332042
vt 0.328175 0.332023
vt 0.328169 0.332001
vt 0.328090 0.331939
vt 0.327240 0.331932
vt 0.327178 0.331996
vt 0.327345 0.331972
vt 0.328144 0.332010
vt 0.327487 0.331981
vt 0.328166 0.332026
vt 0.327240 0.331907
vt 0.327177 0.331967
vt 0.327342 0.331986
vt 0.327246 0.331970
vt 0.092060 0.284512
vt 0.092800 0.284549
vt 0.092782 0.284236
vt 0.092076 0.284201
vt 0.092725 0.284848
vt 0.092039 0.284811
vt 0.092801 0.284569
vt 0.092059 0.284532
vt 0.092076 0.284201
vt 0.092782 0.284236
vt 0.092039 0.284811
vt 0.092725 0.284848
vt 0.092039 0.284811
vt 0.092725 0.284848
vt 0.092740 0.285201
vt 0.092021 0.285161
vt 0.092059 0.284532
vt 0.092801 0.284569
vt 0.092076 0.284201
vt 0.092782 0.284236
vt 0.092039 0.284811
vt 0.092725 0.284848
vt 0.092782 0.284236
vt 0.092725 0.284848
vt 0.092039 0.284811
vt 0.092076 0.284201
vt 0.092801 0.284569
vt 0.092059 0.284532
vt 0.092076 0.284201
vt 0.092782 0.284236
vt 0.092039 0.284811
vt 0.092725 0.284848
vt 0.092059 0.284532
vt 0.092801 0.284569
vt 0.092059 0.284532
vt 0.092076 0.284201
vt 0.092039 0.284811
vt 0.092725 0.284848
vt 0.092782 0.284236
vt 0.092801 0.284569
vt 0.092801 0.284569
vt 0.092307 0.284844
vt 0.092055 0.284616
vt 0.092059 0.284532
vt 0.092076 0.284201
vt 0.092782 0.284236
vt 0.092039 0.284811
vt 0.092725 0.284848
vt 0.092021 0.285161
vt 0.092740 0.285201
vt 0.092048 0.284698
vt 0.092035 0.284934
vn -1.000000 0.000001 0.000000
vn -1.000000 0.000001 0.000000
vn -1.000000 0.000001 0.000000
vn -1.000000 0.000001 0.000000
vn -1.000000 0.000001 0.000000
vn 0.000000 -1.000000 0.000000
vn 0.000000 -1.000000 0.000000
vn 0.000000 -1.000000 0.000000
vn 0.000000 -1.000000 0.000000
vn 0.000000 1.000000 -0.000000
vn 0.000000 1.000000 -0.000000
vn 0.000000 1.000000 -0.000000
vn 0.000000 1.000000 -0.000000
vn -0.616207 0.490486 0.616208
vn -0.616207 0.490486 0.616208
vn -0.616207 0.490486 0.616208
vn -0.499999 0.707108 0.499999
vn -0.499999 0.707108 0.499999
vn -0.499999 0.707108 0.499999
vn -0.499999 0.707108 0.499999
vn 1.000000 0.000000 0.000000
vn 1.000000 0.000000 0.000000
vn 1.000000 0.000000 0.000000
vn 1.000000 0.000000 0.000000
vn 0.000000 0.000000 1.000000
vn 0.000000 0.000000 1.000000
vn 0.000000 0.000000 1.000000
vn 0.000000 0.000000 1.000000
vn 0.000000 0.000000 -1.000000
vn 0.000000 0.000000 -1.000000
vn 0.000000 0.000000 -1.000000
vn 0.000000 0.000000 -1.000000
vn 0.056775 0.685500 0.725856
vn 0.056775 0.685500 0.725856
vn 0.056775 0.685500 0.725856
vn -0.082804 0.674183 0.733907
vn -0.082804 0.674183 0.733907
vn -0.082804 0.674183 0.733907
vn -0.000000 1.000000 -0.000000
vn -0.000000 1.000000 -0.000000
vn -0.000000 1.000000 -0.000000
vn -0.000000 1.000000 -0.000000
vn 0.000000 1.000000 0.000000
vn 0.000000 1.000000 0.000000
vn 0.000000 1.000000 0.000000
vn 0.000000 1.000000 0.000000
vn 0.000000 1.000000 0.000000
vn 0.000000 1.000000 0.000000
vn 0.000000 -0.000001 1.000000
vn 0.000000 -0.000001 1.000000
vn 0.000000 -0.000001 1.000000
vn 0.000000 -0.000001 1.000000
vn 0.000000 0.000000 1.000000
vn 0.000000 0.000000 1.000000
vn 0.000000 0.000000 1.000000
vn 0.000000 0.000000 1.000000
vn 0.000000 -1.000000 0.000000
vn 0.000000 -1.000000 0.000000
vn 0.000000 -1.000000 0.000000
vn 0.000000 -1.000000 0.000000
vn 0.000000 0.000000 1.000000
vn 0.000000 0.000000 1.000000
vn 0.000000 0.000000 1.000000
vn 0.000000 0.000000 1.000000
vn 0.000000 1.000000 0.000000
vn 0.000000 1.000000 0.000000
vn 0.000000 1.000000 0.000000
vn 0.000000 1.000000 0.000000
vn 0.000000 0.000000 -1.000000
vn 0.000000 0.000000 -1.000000
vn 0.000000 0.000000 -1.000000
vn 0.000000 0.000000 -1.000000
vn 0.000000 0.000000 1.000000
vn 0.000000 0.000000 1.000000
vn 0.000000 0.000000 1.000000
vn 0.000000 0.000000 1.000000
vn 1.000000 0.000002 0.000000
vn 1.000000 0.000002 0.000000
vn 1.000000 0.000002 0.000000
vn 1.000000 0.000002 0.000000
vn -1.000000 0.000000 0.000000
vn -1.000000 0.000000 0.000000
vn -1.000000 0.000000 0.000000
vn -1.000000 0.000000 0.000000
vn 1.000000 0.000000 0.000000
vn 1.000000 0.000000 0.000000
vn 1.000000 0.000000 0.000000
vn 1.000000 0.000000 0.000000
vn 0.000000 -1.000000 0.000000
vn 0.000000 -1.000000 0.000000
vn 0.000000 -1.000000 0.000000
vn 0.000000 -1.000000 0.000000
vn -1.000000 0.000000 0.000000
vn -1.000000 0.000000 0.000000
vn -1.000000 0.000000 0.000000
vn -1.000000 0.000000 0.000000
vn 0.000000 -0.707107 0.707107
vn 0.000000 -0.707107 0.707107
vn 0.000000 -0.707107 0.707107
vn 0.000000 -0.707107 0.707107
vn 0.000000 0.999664 0.025941
vn 0.000000 0.999664 0.025941
vn 0.000000 0.999664 0.025941
vn 0.000000 0.999664 0.025941
vn 0.000000 0.708307 -0.705905
vn 0.000000 0.708307 -0.705905
vn 0.000000 0.708307 -0.705905
vn 0.000000 0.708307 -0.705905
vn 0.000000 0.010308 -0.999947
vn 0.000000 0.010308 -0.999947
vn 0.000000 0.010308 -0.999947
vn 0.000000 0.010308 -0.999947
vn 1.000000 0.000000 0.000000
vn 1.000000 0.000000 0.000000
vn 1.000000 0.000000 0.000000
vn 1.000000 0.000000 0.000000
vn -1.000000 0.000000 0.000000
vn -1.000000 0.000000 0.000000
vn -1.000000 0.000000 0.000000
vn -1.000000 0.000000 0.000000
vn 0.000000 0.000000 1.000000
vn 0.000000 0.000000 1.000000
vn 0.000000 0.000000 1.000000
vn 0.000000 0.000000 1.000000
vn 0.000000 1.000000 0.000000
vn 0.000000 1.000000 0.000000
vn 0.000000 1.000000 0.000000
vn 0.000000 1.000000 0.000000
vn 0.000000 0.000000 -1.000000
vn 0.000000 0.000000 -1.000000
vn 0.000000 0.000000 -1.000000
vn 0.000000 0.000000 -1.000000
vn 0.000000 -1.000000 0.000000
vn 0.000000 -1.000000 0.000000
vn 0.000000 -1.000000 0.000000
vn 0.000000 -1.000000 0.000000
vn 1.000000 0.000000 0.000000
vn 1.000000 0.000000 0.000000
vn 1.000000 0.000000 0.000000
vn 1.000000 0.000000 0.000000
vn 1.000000 0.000000 0.000000
vn 1.000000 0.000000 0.000000
vn 1.000000 0.000000 0.000000
vn 1.000000 0.000000 0.000000
vn 0.000000 -1.000000 0.000000
vn 0.000000 -1.000000 0.000000
vn 0.000000 -1.000000 0.000000
vn 0.000000 -1.000000 0.000000
vn -1.000000 0.000000 0.000000
vn -1.000000 0.000000 0.000000
vn -1.000000 0.000000 0.000000
vn -1.000000 0.000000 0.000000
vn -1.000000 -0.000002 0.000000
vn -1.000000 -0.000002 0.000000
vn -1.000000 -0.000002 0.000000
vn -1.000000 -0.000002 0.000000
vn 0.000000 0.000000 1.000000
vn 0.000000 0.000000 1.000000
vn 0.000000 0.000000 1.000000
vn 0.000000 0.000000 1.000000
vn 0.000002 -0.707107 0.707106
vn 0.000002 -0.707107 0.707106
vn 0.000002 -0.707107 0.707106
vn 0.000002 -0.707107 0.707106
vn 0.000000 0.999663 0.025945
vn 0.000000 0.999663 0.025945
vn 0.000000 0.999663 0.025945
vn 0.000000 0.999663 0.025945
vn 0.000000 0.708307 -0.705904
vn 0.000000 0.708307 -0.705904
vn 0.000000 0.708307 -0.705904
vn 0.000000 0.708307 -0.705904
vn 0.000000 0.010308 -0.999947
vn 0.000000 0.010308 -0.999947
vn 0.000000 0.010308 -0.999947
vn 0.000000 0.010308 -0.999947
vn 1.000000 -0.000001 0.000000
vn 1.000000 -0.000001 0.000000
vn 1.000000 -0.000001 0.000000
vn -1.000000 0.000000 0.000000
vn -1.000000 0.000000 0.000000
vn -1.000000 0.000000 0.000000
vn -1.000000 0.000000 0.000000
vn 0.605944 -0.631495 0.483782
vn 0.605944 -0.631495 0.483782
vn 0.605944 -0.631495 0.483782
vn 0.361147 -0.565984 0.741104
vn 0.361147 -0.565984 0.741104
vn 0.361147 -0.565984 0.741104
vn 1.000000 0.000002 0.000000
vn 1.000000 0.000002 0.000000
vn 1.000000 0.000002 0.000000
vn 1.000000 0.000002 0.000000
vn 1.000000 0.000000 0.000000
vn 1.000000 0.000000 0.000000
vn 1.000000 0.000000 0.000000
vn 1.000000 0.000000 0.000000
vn 0.000001 -0.707106 0.707107
vn 0.000001 -0.707106 0.707107
vn 0.000001 -0.707106 0.707107
vn 0.000001 -0.707106 0.707107
vn 0.000004 -0.707107 0.707106
vn 0.000004 -0.707107 0.707106
vn 0.000004 -0.707107 0.707106
s off
f 2/1/1 7/2/2 10/3/3 11/4/4 3/5/5
f 1/6/6 5/7/7 7/2/8 2/1/9
f 14/8/10 3/5/11 9/9/12 12/10/13
f 8/11/14 10/3/15 7/2/16
f 8/11/17 9/9/18 11/4/19 10/3/20
f 1/6/21 6/12/22 4/13/23 5/7/24
f 5/7/25 15/14/26 8/11/27 7/2/28
f 1/6/29 2/1/30 3/5/31 6/12/32
f 12/10/33 15/14/34 14/8/35
f 14/8/36 15/14/37 13/15/38
f 4/13/39 6/12/40 14/8/41 13/15/42
f 14/8/43 6/12/44 3/5/45
f 9/9/46 3/5/47 11/4/48
f 4/13/49 13/15/50 15/14/51 5/7/52
f 8/11/53 15/14/54 12/10/55 9/9/56
f 27/16/57 26/17/58 23/18/59 22/19/60
f 23/18/61 25/20/62 24/21/63 22/19/64
f 16/22/65 17/23/66 19/24/67 18/25/68
f 18/25/69 19/24/70 21/26/71 20/27/72
f 27/16/73 17/23/74 16/22/75 26/17/76
f 17/23/77 27/16/78 22/19/79 19/24/80
f 18/25/81 23/18/82 26/17/83 16/22/84
f 19/24/85 22/19/86 24/21/87 21/28/88
f 21/28/89 24/21/90 25/20/91 20/29/92
f 20/29/93 25/20/94 23/18/95 18/25/96
f 28/30/97 29/31/98 31/32/99 30/33/100
f 30/33/101 31/32/102 33/34/103 32/35/104
f 32/35/105 33/34/106 35/36/107 34/37/108
f 34/37/109 35/36/110 29/31/111 28/30/112
f 29/31/113 35/36/114 33/34/115 31/32/116
f 34/37/117 28/30/118 30/33/119 32/35/120
f 44/38/121 46/39/122 45/40/123 43/41/124
f 36/42/125 37/43/126 39/44/127 38/45/128
f 38/45/129 39/44/130 41/46/131 40/47/132
f 42/48/133 47/49/134 44/38/135 43/41/136
f 37/50/137 42/48/138 43/41/139 39/51/140
f 39/51/141 43/41/142 45/40/143 41/52/144
f 41/52/145 45/40/146 46/39/147 40/53/148
f 40/53/149 46/39/150 44/38/151 38/54/152
f 38/54/153 44/38/154 47/49/155 36/55/156
f 36/55/157 47/49/158 42/48/159 37/50/160
f 50/56/161 58/57/162 57/58/163 51/59/164
f 50/56/165 51/59/166 53/60/167 52/61/168
f 52/61/169 53/60/170 55/62/171 54/63/172
f 54/63/173 55/62/174 49/64/175 48/65/176
f 59/66/177 55/62/178 53/60/179
f 54/63/180 48/65/181 50/56/182 52/61/183
f 57/58/184 58/57/185 59/66/186
f 59/66/187 58/57/188 56/67/189
f 59/66/190 53/60/191 51/59/192 57/58/193
f 49/64/194 55/62/195 59/66/196 56/67/197
f 48/65/198 49/64/199 56/67/200 58/57/201
f 48/65/202 58/57/203 50/56/204
