# This file uses centimeters as units for non-parametric coordinates.

v 0.581164 9.571609 0.335535
v 0.581164 9.571609 -0.335535
v 0.000000 9.571609 -0.671071
v -0.581164 9.571609 -0.335535
v -0.581164 9.571609 0.335535
v 0.000000 9.571609 0.671071
v 0.955825 -3.799282 0.551847
v 0.955825 -3.799282 -0.551846
v 0.000000 -3.799282 -1.103693
v -0.955825 -3.799282 -0.551847
v -0.955825 -3.799282 0.551847
v 0.000000 -3.799282 1.103693
v 0.955825 8.547376 0.551847
v 0.000000 8.547376 1.103693
v -0.955825 8.547376 0.551847
v -0.955825 8.547376 -0.551847
v 0.000000 8.547376 -1.103693
v 0.955825 8.547376 -0.551846
v -0.000000 -10.411509 0.275407
v 0.238508 -10.411509 0.137703
v -0.000000 -10.572542 -0.000000
v -0.238509 -10.411453 0.137703
v -0.238509 -10.411453 -0.137704
v -0.000000 -10.411509 -0.275407
v 0.238508 -10.411509 -0.137704
v 0.732971 -7.391735 -0.423181
v 0.732971 -7.391735 0.423182
v 0.000000 -7.391735 -0.846363
v -0.732971 -7.391735 -0.423182
v -0.732971 -7.391735 0.423181
v 0.000000 -7.391735 0.846363
v 0.407150 -9.614240 -0.235068
v -0.000000 -9.614240 -0.470136
v -0.407150 -9.614240 -0.235068
v -0.407150 -9.614240 0.235068
v -0.000000 -9.614240 0.470136
v 0.407150 -9.614240 0.235068
v 0.355830 9.571609 0.205439
v 0.355830 9.571609 -0.205438
v 0.000000 9.571609 -0.410877
v -0.355830 9.571609 -0.205438
v -0.355830 9.571609 0.205439
v 0.000000 9.571609 0.410877
v 0.355830 11.342076 0.205439
v 0.355830 11.342076 -0.205438
v 0.000000 11.342076 0.000000
v 0.000000 11.342076 -0.410877
v -0.355830 11.342076 -0.205438
v -0.355830 11.342076 0.205439
v 0.000000 11.342076 0.410877
v 0.955825 1.739713 0.551847
v 0.955825 1.739713 -0.551846
v 0.000000 1.739713 -1.103693
v -0.955825 1.739713 -0.551847
v -0.955825 1.739713 0.551847
v 0.000000 1.739713 1.103693
v 1.692127 3.206828 0.374105
v 1.692127 3.206828 -0.374104
v 1.897509 7.709959 -0.374104
v 1.897509 7.709959 0.374105
vt 0.349983 0.403194
vt 0.349979 0.403205
vt 0.349478 0.444289
vt 0.349440 0.444283
vt 0.350108 0.403345
vt 0.349440 0.443695
vt 0.350106 0.403210
vt 0.349478 0.443694
vt 0.350234 0.403204
vt 0.349452 0.444276
vt 0.350233 0.403193
vt 0.349453 0.443696
vt 0.350109 0.403189
vt 0.349502 0.444274
vt 0.349503 0.443696
vt 0.349540 0.444279
vt 0.349541 0.443695
vt 0.349529 0.444287
vt 0.349529 0.443694
vt 0.349486 0.443560
vt 0.349472 0.443561
vt 0.349491 0.443561
vt 0.349477 0.443562
vt 0.349495 0.443562
vt 0.349510 0.443561
vt 0.349505 0.443560
vt 0.371484 0.471206
vt 0.371428 0.471194
vt 0.371368 0.470831
vt 0.371470 0.470851
vt 0.371446 0.471177
vt 0.371402 0.470805
vt 0.371520 0.471172
vt 0.371535 0.470798
vt 0.371577 0.471185
vt 0.371637 0.470817
vt 0.371559 0.471202
vt 0.371605 0.470844
vt 0.350109 0.402769
vt 0.350247 0.402769
vt 0.350249 0.402771
vt 0.350105 0.402771
vt 0.349963 0.402771
vt 0.349968 0.402770
vt 0.349483 0.443645
vt 0.349514 0.443645
vt 0.349521 0.443646
vt 0.349498 0.443647
vt 0.349468 0.443647
vt 0.349460 0.443646
vt 0.349472 0.443646
vt 0.349486 0.443645
vt 0.349477 0.443646
vt 0.349495 0.443647
vt 0.349510 0.443646
vt 0.349505 0.443645
vt 0.371327 0.470240
vt 0.371460 0.470259
vt 0.371372 0.470213
vt 0.371545 0.470206
vt 0.371678 0.470225
vt 0.371638 0.470252
vt 0.349478 0.444022
vt 0.349440 0.444019
vt 0.349453 0.444016
vt 0.349502 0.444015
vt 0.349541 0.444017
vt 0.349529 0.444021
vt 0.349478 0.444022
vt 0.349440 0.444019
vt 0.349440 0.443695
vt 0.349478 0.443694
vn 0.998962 -0.045561 -0.000000
vn 0.998962 -0.045561 -0.000000
vn 0.998962 -0.045561 -0.000000
vn 0.998962 -0.045561 -0.000000
vn 0.500001 0.000000 -0.866025
vn 0.500001 0.000000 -0.866025
vn 0.500001 0.000000 -0.866025
vn 0.500001 0.000000 -0.866025
vn -0.500000 0.000000 -0.866025
vn -0.500000 0.000000 -0.866025
vn -0.500000 0.000000 -0.866025
vn -0.500000 0.000000 -0.866025
vn -1.000000 0.000000 0.000000
vn -1.000000 0.000000 0.000000
vn -1.000000 0.000000 0.000000
vn -1.000000 0.000000 0.000000
vn -0.500000 0.000000 0.866025
vn -0.500000 0.000000 0.866025
vn -0.500000 0.000000 0.866025
vn -0.500000 0.000000 0.866025
vn 0.500000 0.000000 0.866025
vn 0.500000 0.000000 0.866025
vn 0.500000 0.000000 0.866025
vn 0.500000 0.000000 0.866025
vn 0.279784 -0.828784 0.484600
vn 0.279784 -0.828784 0.484600
vn 0.279784 -0.828784 0.484600
vn -0.279962 -0.828740 0.484574
vn -0.279962 -0.828740 0.484574
vn -0.279962 -0.828740 0.484574
vn -0.559700 -0.828695 0.000000
vn -0.559700 -0.828695 0.000000
vn -0.559700 -0.828695 0.000000
vn -0.279962 -0.828740 -0.484574
vn -0.279962 -0.828740 -0.484574
vn -0.279962 -0.828740 -0.484574
vn 0.279784 -0.828785 -0.484600
vn 0.279784 -0.828785 -0.484600
vn 0.279784 -0.828785 -0.484600
vn 0.559568 -0.828784 -0.000000
vn 0.559568 -0.828784 -0.000000
vn 0.559568 -0.828784 -0.000000
vn -0.000003 1.000000 0.000000
vn -0.000003 1.000000 0.000000
vn -0.000003 1.000000 0.000000
vn 0.000000 1.000000 0.000000
vn 0.000000 1.000000 0.000000
vn 0.000000 1.000000 0.000000
vn 0.000000 1.000000 0.000000
vn 0.000000 1.000000 0.000000
vn 0.000000 1.000000 0.000000
vn 0.000000 1.000000 0.000000
vn 0.000000 1.000000 0.000000
vn 0.000000 1.000000 0.000000
vn -0.000003 1.000000 0.000000
vn -0.000003 1.000000 0.000000
vn -0.000003 1.000000 0.000000
vn 0.000000 1.000000 0.000000
vn 0.000000 1.000000 0.000000
vn 0.000000 1.000000 0.000000
vn 0.989424 -0.145051 -0.000000
vn 0.989424 -0.145051 -0.000000
vn 0.989424 -0.145051 -0.000000
vn 0.989424 -0.145051 -0.000000
vn 0.494713 -0.145051 -0.856866
vn 0.494713 -0.145051 -0.856866
vn 0.494713 -0.145051 -0.856866
vn 0.494713 -0.145051 -0.856866
vn -0.494712 -0.145051 -0.856866
vn -0.494712 -0.145051 -0.856866
vn -0.494712 -0.145051 -0.856866
vn -0.494712 -0.145051 -0.856866
vn -0.989424 -0.145051 0.000000
vn -0.989424 -0.145051 0.000000
vn -0.989424 -0.145051 0.000000
vn -0.989424 -0.145051 0.000000
vn -0.494712 -0.145051 0.856867
vn -0.494712 -0.145051 0.856867
vn -0.494712 -0.145051 0.856867
vn -0.494712 -0.145051 0.856867
vn 0.494712 -0.145051 0.856866
vn 0.494712 -0.145051 0.856866
vn 0.494712 -0.145051 0.856866
vn 0.494712 -0.145051 0.856866
vn 0.469570 0.343535 0.813319
vn 0.469570 0.343535 0.813319
vn 0.469570 0.343535 0.813319
vn 0.469570 0.343535 0.813319
vn -0.469570 0.343535 0.813319
vn -0.469570 0.343535 0.813319
vn -0.469570 0.343535 0.813319
vn -0.469570 0.343535 0.813319
vn -0.939140 0.343535 0.000000
vn -0.939140 0.343535 0.000000
vn -0.939140 0.343535 0.000000
vn -0.939140 0.343535 0.000000
vn -0.469570 0.343535 -0.813319
vn -0.469570 0.343535 -0.813319
vn -0.469570 0.343535 -0.813319
vn -0.469570 0.343535 -0.813319
vn 0.469570 0.343535 -0.813319
vn 0.469570 0.343535 -0.813319
vn 0.469570 0.343535 -0.813319
vn 0.469570 0.343535 -0.813319
vn 0.939140 0.343535 -0.000000
vn 0.939140 0.343535 -0.000000
vn 0.939140 0.343535 -0.000000
vn 0.939140 0.343535 -0.000000
vn 0.998082 -0.061915 -0.000000
vn 0.998082 -0.061915 -0.000000
vn 0.998082 -0.061915 -0.000000
vn 0.998082 -0.061915 -0.000000
vn 0.499042 -0.061915 -0.864363
vn 0.499042 -0.061915 -0.864363
vn 0.499042 -0.061915 -0.864363
vn 0.499042 -0.061915 -0.864363
vn -0.499041 -0.061915 -0.864364
vn -0.499041 -0.061915 -0.864364
vn -0.499041 -0.061915 -0.864364
vn -0.499041 -0.061915 -0.864364
vn -0.998081 -0.061915 0.000000
vn -0.998081 -0.061915 0.000000
vn -0.998081 -0.061915 0.000000
vn -0.998081 -0.061915 0.000000
vn -0.499041 -0.061915 0.864364
vn -0.499041 -0.061915 0.864364
vn -0.499041 -0.061915 0.864364
vn -0.499041 -0.061915 0.864364
vn 0.499041 -0.061915 0.864364
vn 0.499041 -0.061915 0.864364
vn 0.499041 -0.061915 0.864364
vn 0.499041 -0.061915 0.864364
vn 0.489177 -0.206944 -0.847278
vn 0.489177 -0.206944 -0.847278
vn 0.489177 -0.206944 -0.847278
vn 0.489177 -0.206944 -0.847278
vn -0.489190 -0.206951 -0.847269
vn -0.489190 -0.206951 -0.847269
vn -0.489190 -0.206951 -0.847269
vn -0.489190 -0.206951 -0.847269
vn -0.978350 -0.206958 0.000000
vn -0.978350 -0.206958 0.000000
vn -0.978350 -0.206958 0.000000
vn -0.978350 -0.206958 0.000000
vn -0.489190 -0.206951 0.847269
vn -0.489190 -0.206951 0.847269
vn -0.489190 -0.206951 0.847269
vn -0.489190 -0.206951 0.847269
vn 0.489177 -0.206944 0.847278
vn 0.489177 -0.206944 0.847278
vn 0.489177 -0.206944 0.847278
vn 0.489177 -0.206944 0.847278
vn 0.978353 -0.206945 -0.000000
vn 0.978353 -0.206945 -0.000000
vn 0.978353 -0.206945 -0.000000
vn 0.978353 -0.206945 -0.000000
vn 0.000001 1.000000 -0.000000
vn 0.000001 1.000000 -0.000000
vn 0.000001 1.000000 -0.000000
vn 0.000001 1.000000 -0.000000
vn 0.000001 1.000000 -0.000000
vn 0.000001 1.000000 -0.000000
vn 0.000001 1.000000 -0.000000
vn 0.000001 1.000000 -0.000000
vn -0.000002 1.000000 0.000000
vn -0.000002 1.000000 0.000000
vn -0.000002 1.000000 0.000000
vn -0.000002 1.000000 0.000000
vn -0.000004 1.000000 0.000000
vn -0.000004 1.000000 0.000000
vn -0.000004 1.000000 0.000000
vn -0.000004 1.000000 0.000000
vn -0.000001 1.000000 0.000000
vn -0.000001 1.000000 0.000000
vn -0.000001 1.000000 0.000000
vn -0.000001 1.000000 0.000000
vn 0.000000 1.000000 0.000000
vn 0.000000 1.000000 0.000000
vn 0.000000 1.000000 0.000000
vn 0.000000 1.000000 0.000000
vn 1.000000 0.000000 -0.000000
vn 1.000000 0.000000 -0.000000
vn 1.000000 0.000000 -0.000000
vn 1.000000 0.000000 -0.000000
vn 0.500001 0.000000 -0.866025
vn 0.500001 0.000000 -0.866025
vn 0.500001 0.000000 -0.866025
vn 0.500001 0.000000 -0.866025
vn -0.500000 0.000000 -0.866026
vn -0.500000 0.000000 -0.866026
vn -0.500000 0.000000 -0.866026
vn -0.500000 0.000000 -0.866026
vn -1.000000 0.000000 0.000000
vn -1.000000 0.000000 0.000000
vn -1.000000 0.000000 0.000000
vn -1.000000 0.000000 0.000000
vn -0.500000 0.000000 0.866025
vn -0.500000 0.000000 0.866025
vn -0.500000 0.000000 0.866025
vn -0.500000 0.000000 0.866025
vn 0.500000 0.000000 0.866025
vn 0.500000 0.000000 0.866025
vn 0.500000 0.000000 0.866025
vn 0.500000 0.000000 0.866025
vn 1.000000 0.000000 -0.000000
vn 1.000000 0.000000 -0.000000
vn 1.000000 0.000000 -0.000000
vn 1.000000 0.000000 -0.000000
vn 0.500001 0.000000 -0.866025
vn 0.500001 0.000000 -0.866025
vn 0.500001 0.000000 -0.866025
vn 0.500001 0.000000 -0.866025
vn -0.500000 0.000000 -0.866025
vn -0.500000 0.000000 -0.866025
vn -0.500000 0.000000 -0.866025
vn -0.500000 0.000000 -0.866025
vn -1.000000 0.000000 0.000000
vn -1.000000 0.000000 0.000000
vn -1.000000 0.000000 0.000000
vn -1.000000 0.000000 0.000000
vn -0.500000 0.000000 0.866025
vn -0.500000 0.000000 0.866025
vn -0.500000 0.000000 0.866025
vn -0.500000 0.000000 0.866025
vn 0.500000 0.000000 0.866025
vn 0.500000 0.000000 0.866025
vn 0.500000 0.000000 0.866025
vn 0.500000 0.000000 0.866025
vn 0.893757 -0.448551 -0.000000
vn 0.893757 -0.448551 -0.000000
vn 0.893757 -0.448551 -0.000000
vn 0.893757 -0.448551 -0.000000
vn 0.208610 -0.003788 -0.977992
vn 0.208610 -0.003788 -0.977992
vn 0.208610 -0.003788 -0.977992
vn 0.208610 -0.003788 -0.977992
vn 0.664525 0.747266 -0.000000
vn 0.664525 0.747266 -0.000000
vn 0.664525 0.747266 -0.000000
vn 0.664525 0.747266 -0.000000
vn 0.208610 -0.003788 0.977992
vn 0.208610 -0.003788 0.977992
vn 0.208610 -0.003788 0.977992
vn 0.208610 -0.003788 0.977992
s off
f 57/69/1 58/70/2 59/71/3 60/72/4
f 52/64/5 53/65/6 17/12/7 18/6/8
f 53/65/9 54/66/10 16/15/11 17/12/12
f 54/66/13 55/67/14 15/17/15 16/15/16
f 55/67/17 56/68/18 14/19/19 15/17/20
f 56/68/21 51/63/22 13/8/23 14/19/24
f 20/1/25 19/2/26 21/5/27
f 19/2/28 22/7/29 21/5/30
f 22/7/31 23/9/32 21/5/33
f 23/9/34 24/11/35 21/5/36
f 24/11/37 25/13/38 21/5/39
f 25/13/40 20/1/41 21/5/42
f 44/20/43 45/21/44 46/22/45
f 45/21/46 47/23/47 46/22/48
f 47/23/49 48/24/50 46/22/51
f 48/24/52 49/25/53 46/22/54
f 49/25/55 50/26/56 46/22/57
f 50/26/58 44/20/59 46/22/60
f 37/27/61 32/28/62 26/29/63 27/30/64
f 32/28/65 33/31/66 28/32/67 26/29/68
f 33/31/69 34/33/70 29/34/71 28/32/72
f 34/33/73 35/35/74 30/36/75 29/34/76
f 35/35/77 36/37/78 31/38/79 30/36/80
f 36/37/81 37/27/82 27/30/83 31/38/84
f 14/19/85 13/8/86 1/45/87 6/46/88
f 15/17/89 14/19/90 6/46/91 5/47/92
f 16/15/93 15/17/94 5/47/95 4/48/96
f 17/12/97 16/15/98 4/48/99 3/49/100
f 18/6/101 17/12/102 3/49/103 2/50/104
f 13/8/105 18/6/106 2/50/107 1/45/108
f 8/57/109 7/58/110 27/30/111 26/29/112
f 9/59/113 8/57/114 26/29/115 28/32/116
f 10/60/117 9/59/118 28/32/119 29/34/120
f 11/61/121 10/60/122 29/34/123 30/36/124
f 12/62/125 11/61/126 30/36/127 31/38/128
f 7/58/129 12/62/130 31/38/131 27/30/132
f 25/13/133 24/11/134 33/40/135 32/39/136
f 24/11/137 23/9/138 34/41/139 33/40/140
f 23/9/141 22/7/142 35/42/143 34/41/144
f 22/7/145 19/2/146 36/43/147 35/42/148
f 19/2/149 20/1/150 37/44/151 36/43/152
f 20/1/153 25/13/154 32/39/155 37/44/156
f 1/45/157 2/50/158 39/51/159 38/52/160
f 2/50/161 3/49/162 40/53/163 39/51/164
f 3/49/165 4/48/166 41/54/167 40/53/168
f 4/48/169 5/47/170 42/55/171 41/54/172
f 5/47/173 6/46/174 43/56/175 42/55/176
f 6/46/177 1/45/178 38/52/179 43/56/180
f 38/52/181 39/51/182 45/21/183 44/20/184
f 39/51/185 40/53/186 47/23/187 45/21/188
f 40/53/189 41/54/190 48/24/191 47/23/192
f 41/54/193 42/55/194 49/25/195 48/24/196
f 42/55/197 43/56/198 50/26/199 49/25/200
f 43/56/201 38/52/202 44/20/203 50/26/204
f 7/3/205 8/4/206 52/64/207 51/63/208
f 8/4/209 9/10/210 53/65/211 52/64/212
f 9/10/213 10/14/214 54/66/215 53/65/216
f 10/14/217 11/16/218 55/67/219 54/66/220
f 11/16/221 12/18/222 56/68/223 55/67/224
f 12/18/225 7/3/226 51/63/227 56/68/228
f 51/63/229 52/64/230 58/70/231 57/69/232
f 52/64/233 18/6/234 59/71/235 58/70/236
f 18/6/237 13/8/238 60/72/239 59/71/240
f 13/8/241 51/63/242 57/69/243 60/72/244
