# This file uses centimeters as units for non-parametric coordinates.

v -5.325122 0.000000 5.325122
v 5.325122 0.000000 5.325122
v -5.325122 196.850281 5.325122
v 5.325122 196.850281 5.325122
v -5.325122 196.850281 -5.325122
v 5.325122 196.850281 -5.325122
v -5.325122 0.000000 -5.325122
v 5.325122 0.000000 -5.325122
v -3.029608 200.050262 3.029608
v 3.029608 200.050262 3.029608
v 3.029608 200.050262 -3.029608
v -3.029608 200.050262 -3.029608
vt 0.402986 0.469368
vt 0.402925 0.469399
vt 0.402920 0.468479
vt 0.403005 0.468453
vt 0.402975 0.468420
vt 0.402927 0.468435
vt 0.402896 0.468413
vt 0.402944 0.468399
vt 0.402950 0.468415
vt 0.402866 0.468439
vt 0.402885 0.469351
vt 0.402946 0.469321
vn 0.000000 0.000000 1.000000
vn 0.000000 0.000000 1.000000
vn 0.000000 0.000000 1.000000
vn 0.000000 0.000000 1.000000
vn 0.000000 1.000000 0.000000
vn 0.000000 1.000000 0.000000
vn 0.000000 1.000000 0.000000
vn 0.000000 1.000000 0.000000
vn 0.000000 0.000000 -1.000000
vn 0.000000 0.000000 -1.000000
vn 0.000000 0.000000 -1.000000
vn 0.000000 0.000000 -1.000000
vn 0.000000 -1.000000 0.000000
vn 0.000000 -1.000000 0.000000
vn 0.000000 -1.000000 0.000000
vn 0.000000 -1.000000 0.000000
vn 1.000000 0.000000 0.000000
vn 1.000000 0.000000 0.000000
vn 1.000000 0.000000 0.000000
vn 1.000000 0.000000 0.000000
vn -1.000000 0.000000 0.000000
vn -1.000000 0.000000 0.000000
vn -1.000000 0.000000 0.000000
vn -1.000000 0.000000 0.000000
vn 0.000000 0.582887 0.812553
vn 0.000000 0.582887 0.812553
vn 0.000000 0.582887 0.812553
vn 0.000000 0.582887 0.812553
vn 0.812553 0.582887 0.000000
vn 0.812553 0.582887 0.000000
vn 0.812553 0.582887 0.000000
vn 0.812553 0.582887 0.000000
vn 0.000000 0.582887 -0.812553
vn 0.000000 0.582887 -0.812553
vn 0.000000 0.582887 -0.812553
vn 0.000000 0.582887 -0.812553
vn -0.812553 0.582887 0.000000
vn -0.812553 0.582887 0.000000
vn -0.812553 0.582887 0.000000
vn -0.812553 0.582887 0.000000
s off
f 1/1/1 2/2/2 4/3/3 3/4/4
f 9/5/5 10/6/6 11/7/7 12/8/8
f 5/9/9 6/10/10 8/11/11 7/12/12
f 7/12/13 8/11/14 2/2/15 1/1/16
f 2/2/17 8/11/18 6/10/19 4/3/20
f 7/12/21 1/1/22 3/4/23 5/9/24
f 3/4/25 4/3/26 10/6/27 9/5/28
f 4/3/29 6/10/30 11/7/31 10/6/32
f 6/10/33 5/9/34 12/8/35 11/7/36
f 5/9/37 3/4/38 9/5/39 12/8/40
