# This file uses centimeters as units for non-parametric coordinates.

v -60.351025 38.858475 25.417683
v 60.351013 38.858475 25.417683
v -60.351025 42.905960 25.417683
v 60.351013 42.905960 25.417683
v -60.351025 42.905960 -25.417686
v 60.351013 42.905960 -25.417686
v -60.351025 38.858475 -25.417686
v 60.351013 38.858475 -25.417686
v -56.915970 42.905960 21.982616
v 56.915970 42.905960 21.982616
v 56.915970 42.905960 -21.982618
v -56.915970 42.905960 -21.982618
v -60.351025 88.858475 25.417683
v 60.351013 88.858475 25.417683
v -60.351025 92.905960 25.417683
v 60.351013 92.905960 25.417683
v -60.351025 92.905960 -25.417686
v 60.351013 92.905960 -25.417686
v -60.351025 88.858475 -25.417686
v 60.351013 88.858475 -25.417686
v -56.915970 92.905960 21.982616
v 56.915970 92.905960 21.982616
v 56.915970 92.905960 -21.982618
v -56.915970 92.905960 -21.982618
v -60.351025 138.858475 25.417683
v 60.351013 138.858475 25.417683
v -60.351025 142.905960 25.417683
v 60.351013 142.905960 25.417683
v -60.351025 142.905960 -25.417686
v 60.351013 142.905960 -25.417686
v -60.351025 138.858475 -25.417686
v 60.351013 138.858475 -25.417686
v -56.915970 142.905960 21.982616
v 56.915970 142.905960 21.982616
v 56.915970 142.905960 -21.982618
v -56.915970 142.905960 -21.982618
v -60.351025 188.858475 25.417683
v 60.351013 188.858475 25.417683
v -60.351025 192.905960 25.417683
v 60.351013 192.905960 25.417683
v -60.351025 192.905960 -25.417686
v 60.351013 192.905960 -25.417686
v -60.351025 188.858475 -25.417686
v 60.351013 188.858475 -25.417686
v -56.915970 192.905960 21.982616
v 56.915970 192.905960 21.982616
v 56.915970 192.905960 -21.982618
v -56.915970 192.905960 -21.982618
v 54.746140 0.000000 24.609707
v 59.297775 0.000000 24.609707
v 54.746140 188.858490 24.609707
v 59.297775 188.858490 24.609707
v 54.746140 188.858490 20.134741
v 59.297775 188.858490 20.134741
v 54.746140 0.000000 20.134741
v 59.297775 0.000000 20.134741
v 54.746140 0.000000 -20.134747
v 59.297775 0.000000 -20.134747
v 54.746140 188.858490 -20.134747
v 59.297775 188.858490 -20.134747
v 54.746140 188.858490 -24.609715
v 59.297775 188.858490 -24.609715
v 54.746140 0.000000 -24.609715
v 59.297775 0.000000 -24.609715
v -59.297806 0.000000 24.609707
v -54.746170 0.000000 24.609707
v -59.297806 188.858490 24.609707
v -54.746170 188.858490 24.609707
v -59.297806 188.858490 20.134741
v -54.746170 188.858490 20.134741
v -59.297806 0.000000 20.134741
v -54.746170 0.000000 20.134741
v -59.297806 0.000000 -20.134747
v -54.746170 0.000000 -20.134747
v -59.297806 188.858490 -20.134747
v -54.746170 188.858490 -20.134747
v -59.297806 188.858490 -24.609715
v -54.746170 188.858490 -24.609715
v -59.297806 0.000000 -24.609715
v -54.746170 0.000000 -24.609715
vt 0.092629 0.281589
vt 0.092629 0.281589
vt 0.092629 0.281589
vt 0.092629 0.281589
vt 0.092629 0.281589
vt 0.092629 0.281589
vt 0.092629 0.281589
vt 0.092629 0.281589
vt 0.092629 0.281589
vt 0.092629 0.281589
vt 0.092629 0.281589
vt 0.092629 0.281589
vt 0.092629 0.281589
vt 0.092629 0.281589
vt 0.092629 0.281589
vt 0.092629 0.281589
vt 0.092629 0.281589
vt 0.092629 0.281589
vt 0.102708 0.304683
vt 0.102708 0.304683
vt 0.102708 0.304683
vt 0.102708 0.304683
vt 0.092629 0.281589
vt 0.092629 0.281589
vt 0.092629 0.281589
vt 0.092629 0.281589
vt 0.102708 0.304683
vt 0.102708 0.304683
vt 0.102708 0.304683
vt 0.102708 0.304683
vt 0.092629 0.281589
vt 0.092629 0.281589
vt 0.092629 0.281589
vt 0.092629 0.281589
vt 0.092629 0.281589
vt 0.092629 0.281589
vt 0.092629 0.281589
vt 0.092629 0.281589
vt 0.092629 0.281589
vt 0.092629 0.281589
vt 0.092629 0.281589
vt 0.092629 0.281589
vt 0.092629 0.281589
vt 0.092629 0.281589
vt 0.092629 0.281589
vt 0.092629 0.281589
vt 0.092629 0.281589
vt 0.092629 0.281589
vt 0.102708 0.304683
vt 0.102708 0.304683
vt 0.102708 0.304683
vt 0.102708 0.304683
vt 0.092629 0.281589
vt 0.092629 0.281589
vt 0.092629 0.281589
vt 0.092629 0.281589
vt 0.092629 0.281589
vt 0.092629 0.281589
vt 0.092629 0.281589
vt 0.092629 0.281589
vt 0.092629 0.281589
vt 0.092629 0.281589
vt 0.092629 0.281589
vt 0.092629 0.281589
vt 0.092629 0.281589
vt 0.092629 0.281589
vt 0.092629 0.281589
vt 0.092629 0.281589
vt 0.092629 0.281589
vt 0.092629 0.281589
vt 0.102708 0.304683
vt 0.102708 0.304683
vt 0.102708 0.304683
vt 0.102708 0.304683
vt 0.092629 0.281589
vt 0.092629 0.281589
vt 0.092629 0.281589
vt 0.092629 0.281589
vt 0.092629 0.281589
vt 0.092629 0.281589
vt 0.092629 0.281589
vt 0.092629 0.281589
vt 0.092629 0.281589
vt 0.092629 0.281589
vt 0.092629 0.281589
vt 0.092629 0.281589
vt 0.092629 0.281589
vt 0.092629 0.281589
vt 0.092003 0.277212
vt 0.092003 0.277212
vt 0.092003 0.277212
vt 0.092003 0.277212
vt 0.092003 0.277212
vt 0.092003 0.277212
vt 0.092003 0.277212
vt 0.092003 0.277212
vt 0.092003 0.277212
vt 0.092003 0.277212
vt 0.092003 0.277212
vt 0.092003 0.277212
vt 0.092003 0.277212
vt 0.092003 0.277212
vt 0.092003 0.277212
vt 0.092003 0.277212
vt 0.092003 0.277212
vt 0.092003 0.277212
vt 0.092003 0.277212
vt 0.092003 0.277212
vt 0.092003 0.277212
vt 0.092003 0.277212
vt 0.092003 0.277212
vt 0.092003 0.277212
vt 0.092003 0.277212
vt 0.092003 0.277212
vt 0.092003 0.277212
vt 0.092003 0.277212
vt 0.092003 0.277212
vt 0.092003 0.277212
vt 0.092003 0.277212
vt 0.092003 0.277212
vt 0.092003 0.277212
vt 0.092003 0.277212
vt 0.092003 0.277212
vt 0.092003 0.277212
vt 0.092003 0.277212
vt 0.092003 0.277212
vt 0.092003 0.277212
vt 0.092003 0.277212
vt 0.092003 0.277212
vt 0.092003 0.277212
vt 0.092003 0.277212
vt 0.092003 0.277212
vt 0.092003 0.277212
vt 0.092003 0.277212
vt 0.092003 0.277212
vt 0.092003 0.277212
vt 0.092003 0.277212
vt 0.092003 0.277212
vt 0.092003 0.277212
vt 0.092003 0.277212
vt 0.092003 0.277212
vt 0.092003 0.277212
vt 0.092003 0.277212
vt 0.092003 0.277212
vn 0.000000 0.000000 1.000000
vn 0.000000 0.000000 1.000000
vn 0.000000 0.000000 1.000000
vn 0.000000 0.000000 1.000000
vn 0.000000 1.000000 0.000000
vn 0.000000 1.000000 0.000000
vn 0.000000 1.000000 0.000000
vn 0.000000 1.000000 0.000000
vn 0.000000 0.000000 -1.000000
vn 0.000000 0.000000 -1.000000
vn 0.000000 0.000000 -1.000000
vn 0.000000 0.000000 -1.000000
vn 0.000000 -1.000000 0.000000
vn 0.000000 -1.000000 0.000000
vn 0.000000 -1.000000 0.000000
vn 0.000000 -1.000000 0.000000
vn 1.000000 0.000000 0.000000
vn 1.000000 0.000000 0.000000
vn 1.000000 0.000000 0.000000
vn 1.000000 0.000000 0.000000
vn -1.000000 0.000000 0.000000
vn -1.000000 0.000000 0.000000
vn -1.000000 0.000000 0.000000
vn -1.000000 0.000000 0.000000
vn 0.000000 1.000000 0.000001
vn 0.000000 1.000000 0.000001
vn 0.000000 1.000000 0.000001
vn 0.000000 1.000000 0.000001
vn 0.000000 1.000000 0.000000
vn 0.000000 1.000000 0.000000
vn 0.000000 1.000000 0.000000
vn 0.000000 1.000000 0.000000
vn 0.000000 1.000000 -0.000000
vn 0.000000 1.000000 -0.000000
vn 0.000000 1.000000 -0.000000
vn 0.000000 1.000000 -0.000000
vn 0.000000 1.000000 0.000000
vn 0.000000 1.000000 0.000000
vn 0.000000 1.000000 0.000000
vn 0.000000 1.000000 0.000000
vn 0.000000 0.000000 1.000000
vn 0.000000 0.000000 1.000000
vn 0.000000 0.000000 1.000000
vn 0.000000 0.000000 1.000000
vn 0.000000 1.000000 0.000000
vn 0.000000 1.000000 0.000000
vn 0.000000 1.000000 0.000000
vn 0.000000 1.000000 0.000000
vn 0.000000 0.000000 -1.000000
vn 0.000000 0.000000 -1.000000
vn 0.000000 0.000000 -1.000000
vn 0.000000 0.000000 -1.000000
vn 0.000000 -1.000000 0.000000
vn 0.000000 -1.000000 0.000000
vn 0.000000 -1.000000 0.000000
vn 0.000000 -1.000000 0.000000
vn 1.000000 0.000000 0.000000
vn 1.000000 0.000000 0.000000
vn 1.000000 0.000000 0.000000
vn 1.000000 0.000000 0.000000
vn -1.000000 0.000000 0.000000
vn -1.000000 0.000000 0.000000
vn -1.000000 0.000000 0.000000
vn -1.000000 0.000000 0.000000
vn 0.000000 1.000000 -0.000001
vn 0.000000 1.000000 -0.000001
vn 0.000000 1.000000 -0.000001
vn 0.000000 1.000000 -0.000001
vn 0.000000 1.000000 0.000000
vn 0.000000 1.000000 0.000000
vn 0.000000 1.000000 0.000000
vn 0.000000 1.000000 0.000000
vn 0.000000 1.000000 -0.000001
vn 0.000000 1.000000 -0.000001
vn 0.000000 1.000000 -0.000001
vn 0.000000 1.000000 -0.000001
vn 0.000000 1.000000 0.000000
vn 0.000000 1.000000 0.000000
vn 0.000000 1.000000 0.000000
vn 0.000000 1.000000 0.000000
vn 0.000000 0.000000 1.000000
vn 0.000000 0.000000 1.000000
vn 0.000000 0.000000 1.000000
vn 0.000000 0.000000 1.000000
vn 0.000000 1.000000 0.000000
vn 0.000000 1.000000 0.000000
vn 0.000000 1.000000 0.000000
vn 0.000000 1.000000 0.000000
vn 0.000000 0.000000 -1.000000
vn 0.000000 0.000000 -1.000000
vn 0.000000 0.000000 -1.000000
vn 0.000000 0.000000 -1.000000
vn 0.000000 -1.000000 0.000000
vn 0.000000 -1.000000 0.000000
vn 0.000000 -1.000000 0.000000
vn 0.000000 -1.000000 0.000000
vn 1.000000 0.000000 0.000000
vn 1.000000 0.000000 0.000000
vn 1.000000 0.000000 0.000000
vn 1.000000 0.000000 0.000000
vn -1.000000 0.000000 0.000000
vn -1.000000 0.000000 0.000000
vn -1.000000 0.000000 0.000000
vn -1.000000 0.000000 0.000000
vn 0.000000 1.000000 0.000002
vn 0.000000 1.000000 0.000002
vn 0.000000 1.000000 0.000002
vn 0.000000 1.000000 0.000002
vn 0.000000 1.000000 0.000000
vn 0.000000 1.000000 0.000000
vn 0.000000 1.000000 0.000000
vn 0.000000 1.000000 0.000000
vn 0.000000 1.000000 -0.000001
vn 0.000000 1.000000 -0.000001
vn 0.000000 1.000000 -0.000001
vn 0.000000 1.000000 -0.000001
vn 0.000000 1.000000 0.000000
vn 0.000000 1.000000 0.000000
vn 0.000000 1.000000 0.000000
vn 0.000000 1.000000 0.000000
vn 0.000000 0.000000 1.000000
vn 0.000000 0.000000 1.000000
vn 0.000000 0.000000 1.000000
vn 0.000000 0.000000 1.000000
vn 0.000000 1.000000 0.000000
vn 0.000000 1.000000 0.000000
vn 0.000000 1.000000 0.000000
vn 0.000000 1.000000 0.000000
vn 0.000000 0.000000 -1.000000
vn 0.000000 0.000000 -1.000000
vn 0.000000 0.000000 -1.000000
vn 0.000000 0.000000 -1.000000
vn 0.000000 -1.000000 0.000000
vn 0.000000 -1.000000 0.000000
vn 0.000000 -1.000000 0.000000
vn 0.000000 -1.000000 0.000000
vn 1.000000 0.000000 0.000000
vn 1.000000 0.000000 0.000000
vn 1.000000 0.000000 0.000000
vn 1.000000 0.000000 0.000000
vn -1.000000 0.000000 0.000000
vn -1.000000 0.000000 0.000000
vn -1.000000 0.000000 0.000000
vn -1.000000 0.000000 0.000000
vn 0.000000 1.000000 0.000002
vn 0.000000 1.000000 0.000002
vn 0.000000 1.000000 0.000002
vn 0.000000 1.000000 0.000002
vn 0.000000 1.000000 0.000000
vn 0.000000 1.000000 0.000000
vn 0.000000 1.000000 0.000000
vn 0.000000 1.000000 0.000000
vn 0.000000 1.000000 0.000001
vn 0.000000 1.000000 0.000001
vn 0.000000 1.000000 0.000001
vn 0.000000 1.000000 0.000001
vn 0.000000 1.000000 0.000000
vn 0.000000 1.000000 0.000000
vn 0.000000 1.000000 0.000000
vn 0.000000 1.000000 0.000000
vn 0.000000 0.000000 1.000000
vn 0.000000 0.000000 1.000000
vn 0.000000 0.000000 1.000000
vn 0.000000 0.000000 1.000000
vn 0.000000 0.000000 -1.000000
vn 0.000000 0.000000 -1.000000
vn 0.000000 0.000000 -1.000000
vn 0.000000 0.000000 -1.000000
vn 0.000000 -1.000000 0.000000
vn 0.000000 -1.000000 0.000000
vn 0.000000 -1.000000 0.000000
vn 0.000000 -1.000000 0.000000
vn 1.000000 0.000000 0.000000
vn 1.000000 0.000000 0.000000
vn 1.000000 0.000000 0.000000
vn 1.000000 0.000000 0.000000
vn -1.000000 0.000000 0.000000
vn -1.000000 0.000000 0.000000
vn -1.000000 0.000000 0.000000
vn -1.000000 0.000000 0.000000
vn 0.000000 0.000000 1.000000
vn 0.000000 0.000000 1.000000
vn 0.000000 0.000000 1.000000
vn 0.000000 0.000000 1.000000
vn 0.000000 0.000000 -1.000000
vn 0.000000 0.000000 -1.000000
vn 0.000000 0.000000 -1.000000
vn 0.000000 0.000000 -1.000000
vn 0.000000 -1.000000 0.000000
vn 0.000000 -1.000000 0.000000
vn 0.000000 -1.000000 0.000000
vn 0.000000 -1.000000 0.000000
vn 1.000000 0.000000 0.000000
vn 1.000000 0.000000 0.000000
vn 1.000000 0.000000 0.000000
vn 1.000000 0.000000 0.000000
vn -1.000000 0.000000 0.000000
vn -1.000000 0.000000 0.000000
vn -1.000000 0.000000 0.000000
vn -1.000000 0.000000 0.000000
vn 0.000000 0.000000 1.000000
vn 0.000000 0.000000 1.000000
vn 0.000000 0.000000 1.000000
vn 0.000000 0.000000 1.000000
vn 0.000000 0.000000 -1.000000
vn 0.000000 0.000000 -1.000000
vn 0.000000 0.000000 -1.000000
vn 0.000000 0.000000 -1.000000
vn 0.000000 -1.000000 0.000000
vn 0.000000 -1.000000 0.000000
vn 0.000000 -1.000000 0.000000
vn 0.000000 -1.000000 0.000000
vn 1.000000 0.000000 0.000000
vn 1.000000 0.000000 0.000000
vn 1.000000 0.000000 0.000000
vn 1.000000 0.000000 0.000000
vn -1.000000 0.000000 0.000000
vn -1.000000 0.000000 0.000000
vn -1.000000 0.000000 0.000000
vn -1.000000 0.000000 0.000000
vn 0.000000 0.000000 1.000000
vn 0.000000 0.000000 1.000000
vn 0.000000 0.000000 1.000000
vn 0.000000 0.000000 1.000000
vn 0.000000 0.000000 -1.000000
vn 0.000000 0.000000 -1.000000
vn 0.000000 0.000000 -1.000000
vn 0.000000 0.000000 -1.000000
vn 0.000000 -1.000000 0.000000
vn 0.000000 -1.000000 0.000000
vn 0.000000 -1.000000 0.000000
vn 0.000000 -1.000000 0.000000
vn 1.000000 0.000000 0.000000
vn 1.000000 0.000000 0.000000
vn 1.000000 0.000000 0.000000
vn 1.000000 0.000000 0.000000
vn -1.000000 0.000000 0.000000
vn -1.000000 0.000000 0.000000
vn -1.000000 0.000000 0.000000
vn -1.000000 0.000000 0.000000
s off
f 1/1/1 2/2/2 4/4/3 3/3/4
f 9/19/5 10/20/6 11/21/7 12/22/8
f 5/5/9 6/6/10 8/8/11 7/7/12
f 7/7/13 8/8/14 2/10/15 1/9/16
f 2/2/17 8/11/18 6/12/19 4/4/20
f 7/13/21 1/1/22 3/3/23 5/14/24
f 3/3/25 4/4/26 10/16/27 9/15/28
f 4/4/29 6/6/30 11/17/31 10/16/32
f 6/6/33 5/5/34 12/18/35 11/17/36
f 5/5/37 3/3/38 9/15/39 12/18/40
f 13/23/41 14/24/42 16/25/43 15/26/44
f 21/27/45 22/28/46 23/29/47 24/30/48
f 17/31/49 18/32/50 20/33/51 19/34/52
f 19/34/53 20/33/54 14/35/55 13/36/56
f 14/24/57 20/37/58 18/38/59 16/25/60
f 19/39/61 13/23/62 15/26/63 17/40/64
f 15/26/65 16/25/66 22/41/67 21/42/68
f 16/25/69 18/32/70 23/43/71 22/41/72
f 18/32/73 17/31/74 24/44/75 23/43/76
f 17/31/77 15/26/78 21/42/79 24/44/80
f 25/45/81 26/46/82 28/47/83 27/48/84
f 33/49/85 34/50/86 35/51/87 36/52/88
f 29/53/89 30/54/90 32/55/91 31/56/92
f 31/56/93 32/55/94 26/57/95 25/58/96
f 26/46/97 32/59/98 30/60/99 28/47/100
f 31/61/101 25/45/102 27/48/103 29/62/104
f 27/48/105 28/47/106 34/63/107 33/64/108
f 28/47/109 30/54/110 35/65/111 34/63/112
f 30/54/113 29/53/114 36/66/115 35/65/116
f 29/53/117 27/48/118 33/64/119 36/66/120
f 37/67/121 38/68/122 40/69/123 39/70/124
f 45/71/125 46/72/126 47/73/127 48/74/128
f 41/75/129 42/76/130 44/77/131 43/78/132
f 43/78/133 44/77/134 38/79/135 37/80/136
f 38/68/137 44/81/138 42/82/139 40/69/140
f 43/83/141 37/67/142 39/70/143 41/84/144
f 39/70/145 40/69/146 46/85/147 45/86/148
f 40/69/149 42/76/150 47/87/151 46/85/152
f 42/76/153 41/75/154 48/88/155 47/87/156
f 41/75/157 39/70/158 45/86/159 48/88/160
f 49/89/161 50/90/162 52/91/163 51/92/164
f 53/93/165 54/94/166 56/95/167 55/96/168
f 55/96/169 56/95/170 50/97/171 49/98/172
f 50/90/173 56/99/174 54/100/175 52/91/176
f 55/101/177 49/89/178 51/92/179 53/102/180
f 57/103/181 58/104/182 60/105/183 59/106/184
f 61/107/185 62/108/186 64/109/187 63/110/188
f 63/110/189 64/109/190 58/111/191 57/112/192
f 58/104/193 64/113/194 62/114/195 60/105/196
f 63/115/197 57/103/198 59/106/199 61/116/200
f 65/117/201 66/118/202 68/119/203 67/120/204
f 69/121/205 70/122/206 72/123/207 71/124/208
f 71/124/209 72/123/210 66/125/211 65/126/212
f 66/118/213 72/127/214 70/128/215 68/119/216
f 71/129/217 65/117/218 67/120/219 69/130/220
f 73/131/221 74/132/222 76/133/223 75/134/224
f 77/135/225 78/136/226 80/137/227 79/138/228
f 79/138/229 80/137/230 74/139/231 73/140/232
f 74/132/233 80/141/234 78/142/235 76/133/236
f 79/143/237 73/131/238 75/134/239 77/144/240
