# This file uses centimeters as units for non-parametric coordinates.

v -5.000000 0.000000 1.465189
v 5.000000 0.000000 1.465189
v -5.000000 5.521780 1.465189
v 5.000000 5.521780 1.465189
v -5.000000 5.521780 -1.465189
v 5.000000 5.521780 -1.465189
v -5.000000 0.000000 -1.465189
v 5.000000 0.000000 -1.465189
v -6.441678 2.760890 1.465189
v 6.441678 2.760890 1.465189
v 6.441678 2.760890 -1.465189
v -6.441678 2.760890 -1.465189
v 2.464051 2.760890 1.465189
v 1.790201 2.760890 1.924188
v 0.967547 4.317624 1.924188
v 1.323074 4.919997 1.465189
v -0.967547 4.317624 1.924188
v -1.323074 4.919997 1.465189
v -1.790201 2.760890 1.924188
v -2.464051 2.760890 1.465189
v -1.323074 0.601783 1.465189
v -0.967547 1.204156 1.924188
v 0.967547 1.204156 1.924188
v 1.323074 0.601783 1.465189
v 2.464051 2.760890 2.420179
v 1.790201 2.760890 2.420179
v 0.967547 1.204156 2.420179
v 1.323074 0.601783 2.420179
v 1.323074 4.919997 2.420179
v 0.967547 4.317624 2.420179
v -1.323074 4.919997 2.420179
v -0.967547 4.317624 2.420179
v -2.464051 2.760890 2.420179
v -1.790201 2.760890 2.420179
v -1.323074 0.601783 2.420179
v -0.967547 1.204156 2.420179
vt 0.079010 0.300276
vt 0.079748 0.300307
vt 0.078917 0.300456
vt 0.079840 0.300502
vt 0.079023 0.300636
vt 0.079720 0.300675
vt 0.082498 0.303465
vt 0.082569 0.303506
vt 0.082663 0.303833
vt 0.082627 0.303909
vt 0.082611 0.303136
vt 0.082654 0.303271
vt 0.035594 0.401061
vt 0.035594 0.400462
vt 0.035977 0.400470
vt 0.036137 0.400776
vt 0.035972 0.401070
vt 0.035434 0.400760
vt 0.078954 0.300371
vt 0.079156 0.300579
vt 0.079755 0.300408
vt 0.079245 0.300429
vt 0.079855 0.300617
vt 0.079457 0.300439
vt 0.078972 0.300755
vt 0.079446 0.300744
vt 0.078855 0.300563
vt 0.079247 0.300732
vt 0.079725 0.300801
vt 0.079539 0.300600
vt 0.082937 0.303292
vt 0.082890 0.303391
vt 0.083086 0.303809
vt 0.082995 0.303755
vt 0.082931 0.304116
vt 0.082887 0.303980
vt 0.082648 0.303484
vt 0.082741 0.303807
vt 0.082704 0.303883
vt 0.082576 0.303443
vt 0.082694 0.303116
vt 0.082736 0.303250
vt 0.083023 0.303269
vt 0.082974 0.303367
vt 0.083170 0.303780
vt 0.083078 0.303727
vt 0.083010 0.304086
vt 0.082968 0.303950
vn 0.000000 1.000000 0.000000
vn 0.000000 1.000000 0.000000
vn 0.000000 1.000000 0.000000
vn 0.000000 1.000000 0.000000
vn 0.000000 0.000000 -1.000000
vn 0.000000 0.000000 -1.000000
vn 0.000000 0.000000 -1.000000
vn 0.000000 0.000000 -1.000000
vn 0.000000 -1.000000 0.000000
vn 0.000000 -1.000000 0.000000
vn 0.000000 -1.000000 0.000000
vn 0.000000 -1.000000 0.000000
vn 0.886425 0.462872 0.000000
vn 0.886425 0.462872 0.000000
vn 0.886425 0.462872 0.000000
vn 0.886425 0.462872 0.000000
vn -0.886425 0.462872 0.000000
vn -0.886425 0.462872 0.000000
vn -0.886425 0.462872 0.000000
vn -0.886425 0.462872 0.000000
vn 0.886425 -0.462872 0.000000
vn 0.886425 -0.462872 0.000000
vn 0.886425 -0.462872 0.000000
vn 0.886425 -0.462872 0.000000
vn 0.000000 0.000000 -1.000000
vn 0.000000 0.000000 -1.000000
vn 0.000000 0.000000 -1.000000
vn 0.000000 0.000000 -1.000000
vn -0.886425 -0.462872 0.000000
vn -0.886425 -0.462872 0.000000
vn -0.886425 -0.462872 0.000000
vn -0.886425 -0.462872 0.000000
vn 0.000000 0.000000 1.000000
vn 0.000000 0.000000 1.000000
vn 0.000000 0.000000 1.000000
vn 0.000000 0.000000 1.000000
vn 0.000000 0.000000 1.000000
vn 0.000000 0.000000 1.000000
vn 0.000000 0.000000 1.000000
vn 0.000000 0.000000 1.000000
vn 0.000000 0.000000 1.000000
vn 0.000000 0.000000 1.000000
vn 0.000000 0.000000 1.000000
vn 0.000000 0.000000 1.000000
vn 0.000000 0.000000 1.000000
vn 0.000000 0.000000 1.000000
vn 0.000000 0.000000 1.000000
vn 0.000000 0.000000 1.000000
vn 0.000000 0.000000 1.000000
vn 0.000000 0.000000 1.000000
vn 0.000000 0.000000 1.000000
vn 0.000000 0.000000 1.000000
vn 0.000000 0.000000 1.000000
vn 0.000000 0.000000 1.000000
vn 0.000000 0.000000 1.000000
vn 0.000000 0.000000 1.000000
vn 0.000000 0.000000 1.000000
vn 0.000000 0.000000 1.000000
vn 0.000000 0.000000 1.000000
vn 0.000000 0.000000 1.000000
vn 0.000000 0.000000 1.000000
vn 0.000000 0.000000 1.000000
vn 0.000000 0.000000 1.000000
vn 0.000000 0.000000 1.000000
vn 0.000000 0.000000 1.000000
vn 0.000000 0.000000 1.000000
vn 0.000000 0.000000 1.000000
vn 0.000000 0.000000 1.000000
vn 0.000000 0.000000 1.000000
vn 0.000000 0.000000 1.000000
vn 0.000000 0.000000 1.000000
vn 0.000000 0.000000 1.000000
vn 0.000000 0.000000 1.000000
vn 0.000000 0.000000 1.000000
vn 0.000000 0.000000 1.000000
vn 0.000000 0.000000 1.000000
vn 0.000000 0.000000 1.000000
vn 0.000000 0.000000 1.000000
vn 0.000000 0.000000 1.000000
vn 0.000000 0.000000 1.000000
vn -0.000000 0.000000 1.000000
vn -0.000000 0.000000 1.000000
vn -0.000000 0.000000 1.000000
vn -0.000000 0.000000 1.000000
vn 0.000000 0.000000 1.000000
vn 0.000000 0.000000 1.000000
vn 0.000000 0.000000 1.000000
vn 0.000000 0.000000 1.000000
vn -0.884140 0.467223 0.000000
vn -0.884140 0.467223 0.000000
vn -0.884140 0.467223 0.000000
vn -0.884140 0.467223 0.000000
vn 0.884140 -0.467223 0.000000
vn 0.884140 -0.467223 0.000000
vn 0.884140 -0.467223 0.000000
vn 0.884140 -0.467223 0.000000
vn 0.884140 0.467223 0.000000
vn 0.884140 0.467223 0.000000
vn 0.884140 0.467223 0.000000
vn 0.884140 0.467223 0.000000
vn -0.884140 -0.467223 0.000000
vn -0.884140 -0.467223 0.000000
vn -0.884140 -0.467223 0.000000
vn -0.884140 -0.467223 0.000000
vn 0.000000 1.000000 0.000000
vn 0.000000 1.000000 0.000000
vn 0.000000 1.000000 0.000000
vn 0.000000 1.000000 0.000000
vn 0.000000 -1.000000 0.000000
vn 0.000000 -1.000000 0.000000
vn 0.000000 -1.000000 0.000000
vn 0.000000 -1.000000 0.000000
vn -0.884140 0.467223 0.000000
vn -0.884140 0.467223 0.000000
vn -0.884140 0.467223 0.000000
vn -0.884140 0.467223 0.000000
vn 0.884140 -0.467223 0.000000
vn 0.884140 -0.467223 0.000000
vn 0.884140 -0.467223 0.000000
vn 0.884140 -0.467223 0.000000
vn -0.884140 -0.467223 0.000000
vn -0.884140 -0.467223 0.000000
vn -0.884140 -0.467223 0.000000
vn -0.884140 -0.467223 0.000000
vn 0.884140 0.467223 0.000000
vn 0.884140 0.467223 0.000000
vn 0.884140 0.467223 0.000000
vn 0.884140 0.467223 0.000000
vn 0.000000 -1.000000 0.000000
vn 0.000000 -1.000000 0.000000
vn 0.000000 -1.000000 0.000000
vn 0.000000 -1.000000 0.000000
vn 0.000000 1.000000 0.000000
vn 0.000000 1.000000 0.000000
vn 0.000000 1.000000 0.000000
vn 0.000000 1.000000 0.000000
s off
f 4/19/1 6/1/2 5/2/3 3/21/4
f 6/1/5 11/3/6 12/4/7 5/2/8
f 8/5/9 2/25/10 1/29/11 7/6/12
f 10/27/13 11/3/14 6/1/15 4/19/16
f 12/4/17 9/23/18 3/21/19 5/2/20
f 2/25/21 8/5/22 11/3/23 10/27/24
f 11/3/25 8/5/26 7/6/27 12/4/28
f 7/6/29 1/29/30 9/23/31 12/4/32
f 25/7/33 26/8/34 27/9/35 28/10/36
f 26/8/37 25/7/38 29/11/39 30/12/40
f 30/12/41 29/11/42 31/31/43 32/32/44
f 32/32/45 31/31/46 33/33/47 34/34/48
f 34/34/49 33/33/50 35/35/51 36/36/52
f 36/36/53 35/35/54 28/10/55 27/9/56
f 14/18/57 15/14/58 17/15/59 19/16/60
f 22/17/61 23/13/62 14/18/63 19/16/64
f 10/27/65 4/19/66 16/22/67 13/20/68
f 4/19/69 3/21/70 18/24/71 16/22/72
f 3/21/73 9/23/74 20/30/75 18/24/76
f 1/29/77 2/25/78 24/28/79 21/26/80
f 2/25/81 10/27/82 13/20/83 24/28/84
f 9/23/85 1/29/86 21/26/87 20/30/88
f 14/37/89 23/38/90 27/9/91 26/8/92
f 24/39/93 13/40/94 25/7/95 28/10/96
f 13/40/97 16/41/98 29/11/99 25/7/100
f 15/42/101 14/37/102 26/8/103 30/12/104
f 16/41/105 18/43/106 31/31/107 29/11/108
f 17/44/109 15/42/110 30/12/111 32/32/112
f 18/43/113 20/45/114 33/33/115 31/31/116
f 19/46/117 17/44/118 32/32/119 34/34/120
f 20/45/121 21/47/122 35/35/123 33/33/124
f 22/48/125 19/46/126 34/34/127 36/36/128
f 21/47/129 24/39/130 28/10/131 35/35/132
f 23/38/133 22/48/134 36/36/135 27/9/136
