# This file uses centimeters as units for non-parametric coordinates.

v -10.460083 -21.283779 9.902838
v 10.460083 -20.496342 9.902838
v -9.769135 -10.223263 8.109861
v 9.769135 -10.223263 8.109861
v -9.769135 -10.473728 6.674788
v 9.769135 -10.473728 6.674788
v -10.460083 -21.534243 8.467764
v 10.460083 -20.746807 8.467764
v -5.918137 -9.895290 9.989027
v -6.336716 -21.041067 11.293486
v -6.336716 -21.291531 9.858412
v -5.918137 -10.145756 8.553953
v 0.161835 -10.223263 8.109861
v 0.173279 -21.179682 9.902838
v 0.173279 -21.430151 8.467764
v 0.161835 -10.473728 6.674788
v 4.753052 -9.895290 9.989027
v 5.089218 -20.253630 11.293486
v 5.089218 -20.504093 9.858412
v 4.753052 -10.145756 8.553953
v -14.951721 -13.360790 12.351461
v 14.951721 -13.360790 12.351461
v -15.663047 20.623539 10.858291
v 15.663056 20.623539 10.858291
v -15.663047 20.623539 2.207404
v 15.663056 20.623539 2.207404
v -14.951721 -13.360790 2.795401
v 14.951721 -13.360790 2.795401
v -15.663047 18.506428 12.939459
v 15.663056 18.506428 12.939459
v 15.663056 4.817738 2.207404
v -15.663047 4.817738 2.207404
v -15.663047 8.354031 12.939459
v 15.663056 8.354031 12.939459
v -15.663047 4.817738 11.339149
v 15.663056 4.817738 11.339149
v -15.663047 -7.063503 11.339149
v 15.663056 -7.063503 11.339149
v -15.663047 -11.590282 12.939459
v 15.663056 -11.590282 12.939459
v 15.663056 -11.590282 2.207404
v -15.663047 -11.590282 2.207404
v -12.823220 -14.271496 14.018241
v -12.823220 -14.271496 0.712149
v -14.195831 -12.406094 -0.000001
v -14.195831 4.817738 -0.000001
v -14.195831 21.534245 -0.000001
v -14.195831 21.534245 12.209784
v -14.195831 18.506428 14.730391
v -14.195831 8.354031 14.730391
v -14.195831 4.817738 12.792173
v -14.195831 -7.063503 12.792173
v -14.195831 -12.406094 14.730391
v 14.195831 4.817738 -0.000001
v 14.195831 -12.406094 -0.000001
v 12.823212 -14.271496 0.712149
v 12.823212 -14.271496 14.018241
v 14.195831 -12.406094 14.730391
v 14.195831 -7.063503 12.792173
v 14.195831 4.817738 12.792173
v 14.195831 8.354031 14.730391
v 14.195831 18.506428 14.730391
v 14.195831 21.534245 12.209784
v 14.195831 21.534245 -0.000001
v 11.695252 -14.271496 4.506003
v 11.695252 -14.271496 12.434774
v -11.695252 -14.271496 12.434774
v -11.695252 -14.271496 4.506003
v 11.695252 -11.507427 4.820884
v 11.695252 -11.507427 12.119894
v -11.695252 -11.507427 12.119894
v -11.695252 -11.507427 4.820884
v 6.192732 -3.231766 12.792173
v 6.192732 0.986000 12.792173
v -6.192732 0.986000 12.792173
v -6.192732 -3.231766 12.792173
v -7.444350 -1.122883 12.792173
v 7.444350 -1.122883 12.792173
vt 0.036437 0.377506
vt 0.035965 0.377433
vt 0.035966 0.376637
vt 0.036437 0.376506
vt 0.036033 0.376640
vt 0.036518 0.376510
vt 0.036032 0.377432
vt 0.036519 0.377503
vt 0.036344 0.376532
vt 0.036344 0.377491
vt 0.036423 0.377489
vt 0.036422 0.376536
vt 0.036197 0.376572
vt 0.036197 0.377469
vt 0.036272 0.377467
vt 0.036271 0.376576
vt 0.036087 0.376603
vt 0.036086 0.377452
vt 0.036157 0.377450
vt 0.036157 0.376607
vt 0.102239 0.376850
vt 0.102241 0.376655
vt 0.103036 0.376704
vt 0.103020 0.376902
vt 0.102309 0.376506
vt 0.103050 0.376549
vt 0.102331 0.376856
vt 0.103022 0.376903
vt 0.079061 0.256400
vt 0.078828 0.256204
vt 0.079596 0.255501
vt 0.079828 0.255733
vt 0.102211 0.376836
vt 0.102293 0.376866
vt 0.102269 0.376535
vt 0.102211 0.376658
vt 0.103058 0.376918
vt 0.103062 0.376893
vt 0.103077 0.376712
vt 0.103087 0.376583
vt 0.102251 0.377001
vt 0.103008 0.377055
vt 0.102224 0.376978
vt 0.103050 0.377037
vt 0.102270 0.377077
vt 0.103002 0.377131
vt 0.102241 0.377054
vt 0.103043 0.377113
vt 0.102283 0.377234
vt 0.102990 0.377289
vt 0.102254 0.377202
vt 0.103030 0.377262
vt 0.102286 0.377428
vt 0.102974 0.377485
vt 0.102259 0.377382
vt 0.102317 0.377210
vt 0.102354 0.377217
vt 0.102994 0.377267
vt 0.103028 0.377265
vt 0.103014 0.377445
vt 0.102325 0.377454
vt 0.102939 0.377506
vt 0.102300 0.377409
vt 0.102350 0.377253
vt 0.102383 0.377263
vt 0.102959 0.377308
vt 0.102989 0.377303
vt 0.102975 0.377465
vt 0.102325 0.377454
vt 0.102383 0.377263
vt 0.102939 0.377506
vt 0.102959 0.377308
vt 0.102325 0.377454
vt 0.102383 0.377263
vt 0.102939 0.377506
vt 0.102959 0.377308
vt 0.102283 0.377234
vt 0.102270 0.377077
vt 0.103002 0.377131
vt 0.102990 0.377289
vt 0.102996 0.377210
vt 0.102276 0.377155
vt 0.113908 0.207452
vt 0.112908 0.207437
vt 0.113002 0.207272
vt 0.113807 0.207278
vt 0.113006 0.207603
vt 0.113803 0.207621
vn -0.016702 0.151146 0.988370
vn -0.017514 0.151113 0.988361
vn 0.304386 0.156225 0.939650
vn 0.304386 0.156225 0.939651
vn 0.017514 -0.151112 -0.988361
vn 0.016702 -0.151146 -0.988370
vn -0.304386 -0.156225 -0.939651
vn -0.304386 -0.156225 -0.939651
vn 0.064200 -0.983077 0.171578
vn 0.066070 -0.982956 0.171557
vn -0.000000 -0.985109 0.171932
vn -0.000000 -0.985109 0.171932
vn 0.997812 0.065127 -0.011367
vn 0.997812 0.065127 -0.011367
vn 0.997812 0.065127 -0.011367
vn 0.997812 0.065127 -0.011367
vn -0.998104 0.060636 -0.010583
vn -0.998104 0.060636 -0.010583
vn -0.998104 0.060636 -0.010583
vn -0.998104 0.060636 -0.010583
vn -0.384249 0.146347 0.911557
vn -0.011067 0.143907 0.989529
vn 0.006532 0.143277 0.989661
vn -0.384249 0.146347 0.911557
vn 0.000000 -0.985109 0.171932
vn 0.009400 -0.985065 0.171924
vn 0.009982 -0.985060 0.171923
vn 0.000000 -0.985109 0.171932
vn 0.384249 -0.146347 -0.911557
vn -0.006532 -0.143277 -0.989661
vn 0.011067 -0.143907 -0.989529
vn 0.384249 -0.146347 -0.911557
vn 0.006532 0.143277 0.989661
vn -0.011067 0.143907 0.989529
vn 0.014646 0.135637 0.990650
vn 0.000380 0.135744 0.990744
vn 0.009982 -0.985060 0.171923
vn 0.009400 -0.985065 0.171924
vn 0.065769 -0.982976 0.171560
vn 0.069162 -0.982750 0.171521
vn 0.011067 -0.143907 -0.989529
vn -0.006532 -0.143277 -0.989661
vn -0.000380 -0.135744 -0.990744
vn -0.014646 -0.135637 -0.990650
vn 0.000380 0.135744 0.990744
vn 0.014646 0.135637 0.990650
vn -0.017514 0.151113 0.988361
vn -0.016702 0.151146 0.988370
vn 0.069162 -0.982750 0.171521
vn 0.065769 -0.982976 0.171560
vn 0.066070 -0.982956 0.171557
vn 0.064200 -0.983077 0.171578
vn -0.014646 -0.135637 -0.990650
vn -0.000380 -0.135744 -0.990744
vn 0.016702 -0.151146 -0.988370
vn 0.017514 -0.151112 -0.988361
vn 0.000000 0.639799 0.768543
vn 0.000000 0.639799 0.768543
vn 0.000000 0.639799 0.768543
vn 0.000000 0.639799 0.768543
vn 0.000000 1.000000 0.000000
vn 0.000000 1.000000 0.000000
vn 0.000000 1.000000 0.000000
vn 0.000000 1.000000 0.000000
vn 0.000000 0.000000 -1.000000
vn 0.000000 0.000000 -1.000000
vn 0.000000 0.000000 -1.000000
vn 0.000000 0.000000 -1.000000
vn 0.000000 -1.000000 0.000000
vn 0.000000 -1.000000 0.000000
vn 0.000000 -1.000000 0.000000
vn 0.000000 -1.000000 0.000000
vn 1.000000 -0.000000 0.000000
vn 1.000000 -0.000000 0.000000
vn 1.000000 -0.000000 0.000000
vn 1.000000 -0.000000 0.000000
vn 1.000000 -0.000000 0.000000
vn 1.000000 -0.000000 0.000000
vn -1.000000 0.000000 0.000000
vn -1.000000 0.000000 0.000000
vn -1.000000 0.000000 0.000000
vn -1.000000 0.000000 0.000000
vn -1.000000 0.000000 0.000000
vn -1.000000 0.000000 0.000000
vn 0.000000 0.000000 1.000000
vn 0.000000 0.000000 1.000000
vn 0.000000 0.000000 1.000000
vn 0.000000 0.000000 1.000000
vn 0.000000 -0.480634 0.876921
vn 0.000000 -0.480634 0.876921
vn 0.000000 -0.480634 0.876921
vn 0.000000 -0.480634 0.876921
vn 0.000000 0.000000 1.000000
vn 0.000000 0.000000 1.000000
vn 0.000000 0.000000 1.000000
vn 0.000000 0.000000 1.000000
vn 1.000000 0.000000 0.000000
vn 1.000000 0.000000 0.000000
vn 1.000000 0.000000 0.000000
vn -1.000000 0.000000 0.000000
vn -1.000000 0.000000 0.000000
vn -1.000000 0.000000 0.000000
vn 0.000000 0.341037 0.940050
vn 0.000000 0.341037 0.940050
vn 0.000000 0.341037 0.940050
vn 0.000000 0.341037 0.940050
vn 1.000000 0.000000 0.000000
vn 1.000000 0.000000 0.000000
vn 1.000000 0.000000 0.000000
vn 1.000000 0.000000 0.000000
vn 0.000000 0.000000 -1.000000
vn 0.000000 0.000000 -1.000000
vn 0.000000 0.000000 -1.000000
vn 0.000000 0.000000 -1.000000
vn -1.000000 0.000000 0.000000
vn -1.000000 0.000000 0.000000
vn -1.000000 0.000000 0.000000
vn -1.000000 0.000000 0.000000
vn 0.000000 -0.356660 0.934234
vn 0.000000 -0.356660 0.934234
vn 0.000000 -0.356660 0.934234
vn 0.000000 -0.356660 0.934234
vn 0.927910 -0.372805 0.000000
vn 0.927910 -0.372805 0.000000
vn 0.927910 -0.372805 0.000000
vn 0.927910 -0.372805 0.000000
vn 0.000000 -0.356660 -0.934234
vn 0.000000 -0.356660 -0.934234
vn 0.000000 -0.356660 -0.934234
vn 0.000000 -0.356660 -0.934234
vn -0.927911 -0.372801 0.000000
vn -0.927911 -0.372801 0.000000
vn -0.927911 -0.372801 0.000000
vn -0.927911 -0.372801 0.000000
vn -0.393368 -0.919381 0.000000
vn -0.393368 -0.919381 0.000000
vn -0.393368 -0.919381 0.000000
vn -0.393368 -0.919381 0.000000
vn -0.732414 -0.558855 -0.388911
vn -0.732414 -0.558855 -0.388911
vn -0.732414 -0.558855 -0.388911
vn -0.732414 -0.558855 -0.388911
vn -0.832814 0.000000 -0.553554
vn -0.832814 0.000000 -0.553554
vn -0.832814 0.000000 -0.553554
vn -0.832814 0.000000 -0.553554
vn -0.832814 0.000000 -0.553554
vn -0.832814 0.000000 -0.553554
vn -0.832814 0.000000 -0.553554
vn -0.832814 0.000000 -0.553554
vn -0.527371 0.849635 0.000000
vn -0.527371 0.849635 0.000000
vn -0.527371 0.849635 0.000000
vn -0.527371 0.849635 0.000000
vn -0.708899 0.470208 0.525707
vn -0.708899 0.470208 0.525707
vn -0.708899 0.470208 0.525707
vn -0.708899 0.470208 0.525707
vn -0.773553 0.000000 0.633731
vn -0.773553 0.000000 0.633731
vn -0.773553 0.000000 0.633731
vn -0.773553 0.000000 0.633731
vn -0.703059 -0.318189 0.635975
vn -0.703059 -0.318189 0.635975
vn -0.703059 -0.318189 0.635975
vn -0.703058 -0.318189 0.635975
vn -0.703662 0.000000 0.710535
vn -0.703662 0.000000 0.710535
vn -0.703662 0.000000 0.710535
vn -0.703662 0.000000 0.710535
vn -0.687522 0.245080 0.683556
vn -0.687522 0.245080 0.683556
vn -0.687522 0.245080 0.683556
vn -0.687522 0.245080 0.683556
vn -0.698098 -0.559764 0.446457
vn -0.698097 -0.559764 0.446457
vn -0.698098 -0.559764 0.446457
vn -0.698098 -0.559764 0.446457
vn 0.832812 0.000000 -0.553556
vn 0.832812 0.000000 -0.553556
vn 0.832812 0.000000 -0.553556
vn 0.832812 0.000000 -0.553556
vn 0.732412 -0.558857 -0.388911
vn 0.732412 -0.558857 -0.388911
vn 0.732412 -0.558857 -0.388911
vn 0.732412 -0.558857 -0.388911
vn 0.393367 -0.919381 0.000000
vn 0.393367 -0.919382 0.000000
vn 0.393367 -0.919382 0.000000
vn 0.393367 -0.919381 0.000000
vn 0.698096 -0.559766 0.446457
vn 0.698096 -0.559766 0.446457
vn 0.698096 -0.559766 0.446457
vn 0.698096 -0.559766 0.446457
vn 0.687520 0.245080 0.683558
vn 0.687520 0.245080 0.683558
vn 0.687520 0.245080 0.683558
vn 0.687520 0.245080 0.683558
vn 0.703660 0.000000 0.710537
vn 0.703660 0.000000 0.710537
vn 0.703660 0.000000 0.710537
vn 0.703660 0.000000 0.710537
vn 0.703056 -0.318189 0.635978
vn 0.703056 -0.318189 0.635978
vn 0.703056 -0.318189 0.635978
vn 0.703056 -0.318189 0.635978
vn 0.773551 0.000000 0.633734
vn 0.773551 0.000000 0.633734
vn 0.773551 0.000000 0.633734
vn 0.773551 0.000000 0.633734
vn 0.708896 0.470209 0.525708
vn 0.708896 0.470209 0.525708
vn 0.708896 0.470209 0.525708
vn 0.708896 0.470209 0.525708
vn 0.527369 0.849636 0.000000
vn 0.527369 0.849636 0.000000
vn 0.527369 0.849636 0.000000
vn 0.527369 0.849636 0.000000
vn 0.832812 0.000000 -0.553556
vn 0.832812 0.000000 -0.553556
vn 0.832812 0.000000 -0.553556
vn 0.832812 0.000000 -0.553556
vn 0.000000 -1.000000 0.000000
vn 0.000000 -1.000000 0.000000
vn 0.000000 -1.000000 0.000000
vn 0.000000 -1.000000 0.000000
vn 0.000000 -1.000000 0.000000
vn 0.000000 -1.000000 0.000000
vn 0.000000 -1.000000 0.000000
vn 0.000000 -1.000000 0.000000
vn 0.000000 -1.000000 0.000000
vn 0.000000 -1.000000 0.000000
vn 0.000000 -1.000000 0.000000
vn 0.000000 -1.000000 0.000000
vn 0.000000 -1.000000 -0.000000
vn 0.000000 -1.000000 -0.000000
vn 0.000000 -1.000000 -0.000000
vn 0.000000 -1.000000 -0.000000
vn -1.000000 0.000000 0.000000
vn -1.000000 0.000000 0.000000
vn -1.000000 0.000000 0.000000
vn -1.000000 0.000000 0.000000
vn 0.000000 -0.113187 -0.993574
vn 0.000000 -0.113187 -0.993574
vn 0.000000 -0.113187 -0.993574
vn 0.000000 -0.113187 -0.993574
vn 1.000000 0.000000 0.000000
vn 1.000000 0.000000 0.000000
vn 1.000000 0.000000 0.000000
vn 1.000000 0.000000 0.000000
vn 0.000000 -0.113187 0.993574
vn 0.000000 -0.113187 0.993574
vn 0.000000 -0.113187 0.993574
vn 0.000000 -0.113187 0.993574
vn 0.000000 0.000000 1.000000
vn 0.000000 0.000000 1.000000
vn 0.000000 0.000000 1.000000
vn 0.000000 0.000000 1.000000
vn 0.000000 0.000000 1.000000
vn 0.000000 0.000000 1.000000
vn 0.000000 0.000000 1.000000
vn 0.000000 0.000000 1.000000
vn 0.000000 0.000000 1.000000
vn 0.000000 0.000000 1.000000
vn 0.000000 0.000000 1.000000
vn 0.000000 0.000000 1.000000
vn 0.000000 0.000000 1.000000
vn 0.000000 0.000000 1.000000
vn 0.000000 0.000000 1.000000
vn 0.000000 0.000000 1.000000
vn 0.000000 0.000000 1.000000
vn 0.000000 0.000000 1.000000
vn 0.000000 0.000000 1.000000
vn 0.000000 0.000000 1.000000
vn 0.000000 0.000000 1.000000
vn 0.000000 0.000000 1.000000
vn 0.000000 0.000000 1.000000
vn 0.000000 0.000000 1.000000
vn 0.000000 0.000000 1.000000
vn 0.000000 0.000000 1.000000
vn 0.000000 0.000000 1.000000
vn 0.000000 0.000000 1.000000
vn 0.000000 0.000000 1.000000
vn 0.000000 0.000000 1.000000
s off
f 17/17/1 18/18/2 2/2/3 4/3/4
f 19/19/5 20/20/6 6/5/7 8/7/8
f 18/18/9 19/19/10 8/7/11 2/2/12
f 2/2/13 8/7/14 6/5/15 4/3/16
f 7/8/17 1/1/18 3/4/19 5/6/20
f 1/1/21 10/10/22 9/9/23 3/4/24
f 7/8/25 11/11/26 10/10/27 1/1/28
f 5/6/29 12/12/30 11/11/31 7/8/32
f 9/9/33 10/10/34 14/14/35 13/13/36
f 10/10/37 11/11/38 15/15/39 14/14/40
f 11/11/41 12/12/42 16/16/43 15/15/44
f 13/13/45 14/14/46 18/18/47 17/17/48
f 14/14/49 15/15/50 19/19/51 18/18/52
f 15/15/53 16/16/54 20/20/55 19/19/56
f 62/21/57 63/22/58 48/23/59 49/24/60
f 63/22/61 64/25/62 47/26/63 48/23/64
f 64/25/65 54/27/66 46/28/67 47/26/68
f 69/29/69 70/30/70 71/31/71 72/32/72
f 31/34/73 26/35/74 24/36/75 30/33/76 34/43/77 36/47/78
f 33/44/79 29/38/80 23/39/81 25/40/82 32/37/83 35/48/84
f 61/41/85 62/21/86 49/24/87 50/42/88
f 60/45/89 61/41/90 50/42/91 51/46/92
f 77/83/93 78/84/94 74/85/95 75/86/96
f 38/51/97 31/34/98 36/47/99
f 32/37/100 37/52/101 35/48/102
f 58/53/103 59/49/104 52/50/105 53/54/106
f 40/55/107 41/56/108 31/34/109 38/51/110
f 46/28/111 54/27/112 55/57/113 45/58/114
f 42/59/115 39/60/116 37/52/117 32/37/118
f 57/61/119 58/53/120 53/54/121 43/62/122
f 22/63/123 28/64/124 41/56/125 40/55/126
f 45/58/127 55/57/128 56/65/129 44/66/130
f 27/67/131 21/68/132 39/60/133 42/59/134
f 27/67/135 44/66/136 43/62/137 21/68/138
f 42/59/139 45/58/140 44/66/141 27/67/142
f 32/37/143 46/28/144 45/58/145 42/59/146
f 25/40/147 47/26/148 46/28/149 32/37/150
f 23/39/151 48/23/152 47/26/153 25/40/154
f 29/38/155 49/24/156 48/23/157 23/39/158
f 33/44/159 50/42/160 49/24/161 29/38/162
f 35/48/163 51/46/164 50/42/165 33/44/166
f 37/52/167 52/50/168 51/46/169 35/48/170
f 39/60/171 53/54/172 52/50/173 37/52/174
f 21/68/175 43/62/176 53/54/177 39/60/178
f 55/57/179 54/27/180 31/34/181 41/56/182
f 56/65/183 55/57/184 41/56/185 28/64/186
f 57/61/187 56/65/188 28/64/189 22/63/190
f 58/53/191 57/61/192 22/63/193 40/55/194
f 59/49/195 58/53/196 40/55/197 38/51/198
f 60/45/199 59/49/200 38/51/201 36/47/202
f 61/41/203 60/45/204 36/47/205 34/43/206
f 62/21/207 61/41/208 34/43/209 30/33/210
f 63/22/211 62/21/212 30/33/213 24/36/214
f 64/25/215 63/22/216 24/36/217 26/35/218
f 54/27/219 64/25/220 26/35/221 31/34/222
f 56/65/223 57/61/224 66/69/225 65/70/226
f 57/61/227 43/62/228 67/71/229 66/69/230
f 43/62/231 44/66/232 68/72/233 67/71/234
f 44/66/235 56/65/236 65/70/237 68/72/238
f 65/70/239 66/69/240 70/73/241 69/74/242
f 66/69/243 67/71/244 71/75/245 70/73/246
f 67/71/247 68/72/248 72/76/249 71/75/250
f 68/72/251 65/70/252 69/74/253 72/76/254
f 78/82/255 60/45/256 74/78/257
f 60/45/258 51/46/259 75/79/260 74/78/261
f 51/46/262 77/81/263 75/79/264
f 52/50/265 59/49/266 73/77/267 76/80/268
f 77/81/269 52/50/270 76/80/271
f 51/46/272 52/50/273 77/81/274
f 73/87/275 78/84/276 77/83/277 76/88/278
f 59/49/279 60/45/280 78/82/281
f 59/49/282 78/82/283 73/77/284
