# This file uses centimeters as units for non-parametric coordinates.

v 52.650646 0.586313 -18.934116
v 41.515434 0.586313 -5.545338
v 41.891434 0.586313 -27.910854
v 29.920246 0.586313 -13.562590
v 3.227680 0.586313 27.910854
v 19.655958 0.586313 17.139109
v -13.786089 0.586313 5.649771
v 0.707525 0.586313 -6.145016
v -52.650646 0.586313 -15.943652
v -36.838539 0.586313 -5.985796
v -46.918282 0.586313 -25.046104
v -31.106169 0.586313 -15.088247
v -30.138435 0.505992 11.584553
v -12.733474 0.505992 18.385231
v -19.904015 0.505992 -14.608368
v -3.591871 0.505992 -6.788200
v -7.333191 2.680529 4.564304
v -24.738152 2.680529 -2.236376
vt 0.363029 0.357055
vt 0.388709 0.357055
vt 0.363029 0.342495
vt 0.388709 0.342495
vt 0.390193 0.325571
vt 0.415691 0.325571
vt 0.415691 0.357166
vt 0.390193 0.357166
vt 0.390193 0.335626
vt 0.415691 0.335626
vt 0.415691 0.346947
vt 0.390193 0.346947
vt 0.363029 0.325862
vt 0.388709 0.325862
vt 0.388709 0.341281
vt 0.363029 0.341281
vt 0.388709 0.357055
vt 0.363029 0.357055
vn 0.000000 1.000000 0.000000
vn 0.000000 1.000000 0.000000
vn 0.000000 1.000000 0.000000
vn 0.000000 1.000000 0.000000
vn 0.000000 1.000000 -0.000000
vn 0.000000 1.000000 -0.000000
vn 0.000000 1.000000 -0.000000
vn 0.000000 1.000000 -0.000000
vn 0.000000 1.000000 -0.000000
vn 0.000000 1.000000 -0.000000
vn 0.000000 1.000000 -0.000000
vn 0.000000 1.000000 -0.000000
vn -0.052770 0.989432 0.135055
vn -0.052770 0.989432 0.135055
vn 0.001137 0.999988 0.004855
vn 0.002179 0.999995 0.002336
vn 0.067718 0.985407 -0.156163
vn 0.067718 0.985407 -0.156163
s off
f 3/3/1 4/4/2 2/2/3 1/1/4
f 5/5/5 6/6/6 8/7/7 7/8/8
f 9/9/9 10/10/10 12/11/11 11/12/12
s 1
f 13/13/13 14/14/14 17/15/15 18/16/16
f 18/16/16 17/15/15 16/17/17 15/18/18
