# This file uses centimeters as units for non-parametric coordinates.

v -134.556274 0.000000 30.649536
v -127.667847 0.000000 30.649536
v -134.556274 69.389374 30.649536
v -127.667847 69.389374 30.649536
v -134.556274 69.389374 -30.649536
v -127.667847 69.389374 -30.649536
v -134.556274 0.000000 -30.649536
v -127.667847 0.000000 -30.649536
v -160.261658 0.000000 65.285400
v -154.555237 0.000000 69.143799
v -154.555237 69.389374 69.143799
v -160.261658 69.389374 65.285400
v -160.261658 69.389374 -65.285400
v -154.555237 69.389374 -69.143799
v -154.555237 0.000000 -69.143799
v -160.261658 0.000000 -65.285400
v 134.556274 0.000000 -30.649536
v 127.667847 0.000000 -30.649536
v 134.556274 69.389374 -30.649536
v 127.667847 69.389374 -30.649536
v 134.556274 69.389374 30.649536
v 127.667847 69.389374 30.649536
v 134.556274 0.000000 30.649536
v 127.667847 0.000000 30.649536
v 160.261658 0.000000 -65.285400
v 154.555237 0.000000 -69.143799
v 154.555237 69.389374 -69.143799
v 160.261658 69.389374 -65.285400
v 160.261658 69.389374 65.285400
v 154.555237 69.389374 69.143799
v 154.555237 0.000000 69.143799
v 160.261658 0.000000 65.285400
v -202.750153 69.049622 93.009277
v 202.750122 69.049622 93.009277
v -202.750153 75.000000 93.009277
v -202.750153 69.049622 -93.009277
v -127.975098 36.243465 -3.444214
v -127.975098 36.243465 3.444214
v -127.975098 85.876060 -3.444214
v -127.975098 85.876060 3.444214
v 128.008911 85.876060 -3.444214
v 128.008911 85.876060 3.444214
v 128.008911 36.243465 -3.444214
v 128.008911 36.243465 3.444214
v -137.955322 85.876060 19.383789
v 137.955322 90.528564 -19.383789
v 137.955322 85.876060 -19.383789
v -63.190735 75.000000 -90.943848
v -63.190735 75.000000 88.626953
v -63.190735 69.049622 93.009277
v -63.190735 69.049622 -90.943848
v -21.347839 75.000000 93.009277
v -63.190735 72.352737 93.009277
v -108.771240 75.000000 93.009277
v 202.750122 72.488655 93.009277
v 202.750122 75.000000 83.708374
v 191.545288 75.000000 93.009277
v 202.750122 75.000000 -87.708252
v 197.449097 75.000000 -93.009277
v 197.449097 69.049622 -93.009277
v 202.750122 69.049622 -87.708252
v -195.772186 75.000000 -92.906006
v -202.750153 71.974304 -93.009277
v -202.750153 75.000000 -79.991943
v -137.955322 88.186783 19.383789
v -137.955322 90.528564 9.691895
v -132.892715 90.528564 19.383789
v 135.048035 85.876060 19.383789
v 137.955322 85.876060 16.476563
v 135.048035 90.528564 19.383789
v 137.955322 90.528564 16.476563
v -137.955322 90.528564 -16.476563
v -135.048035 90.528564 -19.383789
v -137.955322 85.876060 -16.476563
v -135.048035 85.876060 -19.383789
v -39.620132 85.876060 19.383789
v -30.992720 90.528564 17.298260
v 34.148216 90.528564 -16.398739
v 45.987732 85.876060 -19.383789
v -78.099121 90.528564 19.383789
v -13.538574 90.528564 19.383789
v -39.824501 88.437012 19.383789
v 113.089897 90.528564 -19.383789
v -56.984085 90.528564 -19.383789
v 45.767059 88.642700 -19.383789
v -157.691116 69.389374 -61.821777
v -151.866501 69.389374 -65.294312
v -151.866501 0.000000 -65.294312
v -157.691116 0.000000 -61.821777
v -157.691116 0.000000 61.821777
v -151.866501 0.000000 65.294312
v -151.866501 69.389374 65.294312
v -157.691116 69.389374 61.821777
v 157.691116 69.389374 61.821777
v 151.866501 69.389374 65.294312
v 151.866501 0.000000 65.294312
v 157.691116 0.000000 61.821777
v 157.691116 0.000000 -61.821777
v 151.866501 0.000000 -65.294312
v 151.866501 69.389374 -65.294312
v 157.691116 69.389374 -61.821777
vt 0.016166 0.303340
vt 0.016085 0.303335
vt 0.016097 0.302378
vt 0.016179 0.302380
vt 0.016360 0.302340
vt 0.016431 0.302341
vt 0.016347 0.303154
vt 0.016417 0.303158
vt 0.080331 0.231918
vt 0.080307 0.231933
vt 0.080367 0.231580
vt 0.080389 0.231563
vt 0.081061 0.231693
vt 0.081071 0.231714
vt 0.081075 0.232050
vt 0.081064 0.232031
vt 0.080352 0.231930
vt 0.080330 0.231945
vt 0.080387 0.231594
vt 0.080407 0.231576
vt 0.081041 0.231698
vt 0.081049 0.231719
vt 0.081051 0.232054
vt 0.081043 0.232035
vt 0.080762 0.232563
vt 0.080778 0.232558
vt 0.080790 0.232324
vt 0.080775 0.232330
vt 0.016179 0.302380
vt 0.016097 0.302378
vt 0.016360 0.302340
vt 0.016431 0.302341
vt 0.080360 0.232282
vt 0.080348 0.232273
vt 0.080312 0.232517
vt 0.080326 0.232524
vt 0.016417 0.303158
vt 0.016347 0.303154
vt 0.016085 0.303335
vt 0.016166 0.303340
vt 0.080753 0.232559
vt 0.080767 0.232555
vt 0.080779 0.232319
vt 0.080766 0.232325
vt 0.080372 0.232280
vt 0.080361 0.232271
vt 0.080326 0.232515
vt 0.080338 0.232523
vt 0.016166 0.303340
vt 0.016085 0.303335
vt 0.016097 0.302378
vt 0.016179 0.302380
vt 0.016360 0.302340
vt 0.016431 0.302341
vt 0.016347 0.303154
vt 0.016417 0.303158
vt 0.016644 0.301511
vt 0.016661 0.301396
vt 0.016642 0.301529
vt 0.016427 0.301361
vt 0.016374 0.301483
vt 0.016373 0.301504
vt 0.016291 0.301479
vt 0.016373 0.301494
vt 0.016462 0.301494
vt 0.015859 0.301448
vt 0.015918 0.301383
vt 0.016074 0.301459
vt 0.015860 0.301456
vt 0.015987 0.301327
vt 0.016427 0.301377
vt 0.015976 0.301344
vt 0.015977 0.301328
vt 0.015988 0.301342
vt 0.016545 0.301371
vt 0.016662 0.301388
vt 0.016653 0.301445
vt 0.016643 0.301520
vt 0.016251 0.301475
vt 0.015978 0.301326
vt 0.016642 0.301529
vt 0.015868 0.301457
vt 0.015867 0.301431
vt 0.016653 0.301445
vt 0.016662 0.301386
vt 0.015979 0.301341
vt 0.016654 0.301395
vt 0.015869 0.301447
vt 0.015862 0.301439
vt 0.016655 0.301379
vt 0.016660 0.301406
vt 0.016245 0.301492
vt 0.016098 0.301447
vt 0.016199 0.301360
vt 0.016207 0.301359
vt 0.016143 0.301465
vt 0.016030 0.301455
vt 0.016143 0.301473
vt 0.016040 0.301331
vt 0.016462 0.301364
vt 0.016207 0.301350
vt 0.016431 0.302341
vt 0.016360 0.302340
vt 0.016347 0.303154
vt 0.016417 0.303158
vt 0.016166 0.303340
vt 0.016085 0.303335
vt 0.016097 0.302378
vt 0.016179 0.302380
vt 0.016431 0.302341
vt 0.016360 0.302340
vt 0.016347 0.303154
vt 0.016417 0.303158
vt 0.016166 0.303340
vt 0.016085 0.303335
vt 0.016097 0.302378
vt 0.016179 0.302380
vn -0.560128 0.000000 0.828406
vn -0.560128 0.000000 0.828406
vn -0.560128 0.000000 0.828406
vn -0.560128 0.000000 0.828406
vn 0.000000 1.000000 0.000000
vn 0.000000 1.000000 0.000000
vn 0.000000 1.000000 0.000000
vn 0.000000 1.000000 0.000000
vn -0.560128 0.000000 -0.828406
vn -0.560128 0.000000 -0.828406
vn -0.560128 0.000000 -0.828406
vn -0.560128 0.000000 -0.828406
vn 0.000000 -1.000000 0.000000
vn 0.000000 -1.000000 0.000000
vn 0.000000 -1.000000 0.000000
vn 0.000000 -1.000000 0.000000
vn 1.000000 0.000000 0.000000
vn 1.000000 0.000000 0.000000
vn 1.000000 0.000000 0.000000
vn 1.000000 0.000000 0.000000
vn -1.000000 0.000000 0.000000
vn -1.000000 0.000000 0.000000
vn -1.000000 0.000000 0.000000
vn -1.000000 0.000000 0.000000
vn 0.000000 -1.000000 0.000000
vn 0.000000 -1.000000 0.000000
vn 0.000000 -1.000000 0.000000
vn 0.000000 -1.000000 0.000000
vn 0.819822 0.000000 0.572618
vn 0.819822 0.000000 0.572618
vn 0.819822 0.000000 0.572618
vn 0.819822 0.000000 0.572618
vn 0.000000 1.000000 0.000000
vn 0.000000 1.000000 0.000000
vn 0.000000 1.000000 0.000000
vn 0.000000 1.000000 0.000000
vn -0.803014 0.000000 -0.595960
vn -0.803014 0.000000 -0.595960
vn -0.803014 0.000000 -0.595960
vn -0.803014 0.000000 -0.595960
vn 0.000000 1.000000 0.000000
vn 0.000000 1.000000 0.000000
vn 0.000000 1.000000 0.000000
vn 0.000000 1.000000 0.000000
vn 0.819822 0.000000 -0.572618
vn 0.819822 0.000000 -0.572618
vn 0.819822 0.000000 -0.572618
vn 0.819822 0.000000 -0.572618
vn 0.000000 -1.000000 0.000000
vn 0.000000 -1.000000 0.000000
vn 0.000000 -1.000000 0.000000
vn 0.000000 -1.000000 0.000000
vn -0.803014 0.000000 0.595960
vn -0.803014 0.000000 0.595960
vn -0.803014 0.000000 0.595960
vn -0.803014 0.000000 0.595960
vn 0.560128 0.000000 -0.828406
vn 0.560128 0.000000 -0.828406
vn 0.560128 0.000000 -0.828406
vn 0.560128 0.000000 -0.828406
vn 0.000000 1.000000 0.000000
vn 0.000000 1.000000 0.000000
vn 0.000000 1.000000 0.000000
vn 0.000000 1.000000 0.000000
vn 0.560128 0.000000 0.828406
vn 0.560128 0.000000 0.828406
vn 0.560128 0.000000 0.828406
vn 0.560128 0.000000 0.828406
vn 0.000000 -1.000000 0.000000
vn 0.000000 -1.000000 0.000000
vn 0.000000 -1.000000 0.000000
vn 0.000000 -1.000000 0.000000
vn -1.000000 0.000000 0.000000
vn -1.000000 0.000000 0.000000
vn -1.000000 0.000000 0.000000
vn -1.000000 0.000000 0.000000
vn 1.000000 0.000000 0.000000
vn 1.000000 0.000000 0.000000
vn 1.000000 0.000000 0.000000
vn 1.000000 0.000000 0.000000
vn 0.000000 -1.000000 0.000000
vn 0.000000 -1.000000 0.000000
vn 0.000000 -1.000000 0.000000
vn 0.000000 -1.000000 0.000000
vn -0.819822 0.000000 -0.572618
vn -0.819822 0.000000 -0.572618
vn -0.819822 0.000000 -0.572618
vn -0.819822 0.000000 -0.572618
vn 0.000000 1.000000 -0.000000
vn 0.000000 1.000000 -0.000000
vn 0.000000 1.000000 -0.000000
vn 0.000000 1.000000 -0.000000
vn 0.803014 0.000000 0.595960
vn 0.803014 0.000000 0.595960
vn 0.803014 0.000000 0.595960
vn 0.803014 0.000000 0.595960
vn 0.000000 1.000000 -0.000000
vn 0.000000 1.000000 -0.000000
vn 0.000000 1.000000 -0.000000
vn 0.000000 1.000000 -0.000000
vn -0.819822 0.000000 0.572618
vn -0.819822 0.000000 0.572618
vn -0.819822 0.000000 0.572618
vn -0.819822 0.000000 0.572618
vn 0.000000 -1.000000 0.000000
vn 0.000000 -1.000000 0.000000
vn 0.000000 -1.000000 0.000000
vn 0.000000 -1.000000 0.000000
vn 0.803014 0.000000 -0.595960
vn 0.803014 0.000000 -0.595960
vn 0.803014 0.000000 -0.595960
vn 0.803014 0.000000 -0.595960
vn 0.253072 0.918153 0.304876
vn 0.253072 0.918153 0.304876
vn 0.253072 0.918153 0.304876
vn -0.007924 0.000000 -0.999969
vn -0.007924 0.000000 -0.999969
vn -0.007924 0.000000 -0.999969
vn -0.007924 0.000000 -0.999969
vn -1.000000 0.000000 0.000000
vn -1.000000 0.000000 0.000000
vn -1.000000 0.000000 0.000000
vn -1.000000 0.000000 0.000000
vn 0.000000 1.000000 0.000000
vn 0.000000 1.000000 0.000000
vn 0.000000 1.000000 0.000000
vn 0.000000 1.000000 0.000000
vn 1.000000 0.000000 0.000000
vn 1.000000 0.000000 0.000000
vn 1.000000 0.000000 0.000000
vn 1.000000 0.000000 0.000000
vn 0.000000 -1.000000 0.000000
vn 0.000000 -1.000000 0.000000
vn 0.000000 -1.000000 0.000000
vn 0.000000 -1.000000 0.000000
vn 0.000000 0.000000 1.000000
vn 0.000000 0.000000 1.000000
vn 0.000000 0.000000 1.000000
vn 0.000000 0.000000 1.000000
vn 0.000000 0.000000 -1.000000
vn 0.000000 0.000000 -1.000000
vn 0.000000 0.000000 -1.000000
vn 0.000000 0.000000 -1.000000
vn -0.453364 0.857001 -0.244969
vn -0.453364 0.857001 -0.244969
vn -0.453364 0.857001 -0.244969
vn 0.000000 0.000000 -1.000000
vn 0.000000 0.000000 -1.000000
vn 0.000000 0.000000 -1.000000
vn 0.000000 0.000000 -1.000000
vn 0.000000 0.000000 -1.000000
vn 0.000000 -1.000000 -0.000001
vn 0.000000 -1.000000 -0.000001
vn 0.000000 -1.000000 -0.000001
vn 0.000000 -1.000000 -0.000001
vn -0.478740 0.841589 0.250072
vn -0.478740 0.841589 0.250072
vn -0.478740 0.841589 0.250072
vn 1.000000 0.000000 0.000000
vn 1.000000 0.000000 0.000000
vn 1.000000 0.000000 0.000000
vn 1.000000 0.000000 0.000000
vn 0.000000 0.000000 1.000000
vn 0.000000 0.000000 1.000000
vn 0.000000 0.000000 1.000000
vn 0.000000 0.000000 1.000000
vn 0.000000 -1.000000 0.000000
vn 0.000000 -1.000000 0.000000
vn 0.000000 -1.000000 0.000000
vn 0.000000 -1.000000 0.000000
vn -0.062335 0.801173 0.595177
vn -0.062335 0.801173 0.595177
vn -0.062335 0.801173 0.595177
vn 0.057241 0.801418 0.595359
vn 0.057241 0.801418 0.595359
vn 0.057241 0.801418 0.595359
vn 0.000000 0.000000 1.000000
vn 0.000000 0.000000 1.000000
vn 0.000000 0.000000 1.000000
vn 0.000000 0.000000 1.000000
vn 1.000000 0.000000 0.000000
vn 1.000000 0.000000 0.000000
vn 1.000000 0.000000 0.000000
vn 0.000000 1.000000 0.000000
vn 0.000000 1.000000 0.000000
vn 0.000000 1.000000 0.000000
vn 0.000000 1.000000 0.000000
vn 0.000000 -1.000000 0.000000
vn 0.000000 -1.000000 0.000000
vn 0.000000 -1.000000 0.000000
vn 0.000000 -1.000000 0.000000
vn 0.000000 -1.000000 0.000000
vn 0.707107 0.000000 -0.707107
vn 0.707107 0.000000 -0.707107
vn 0.707107 0.000000 -0.707107
vn 0.707107 0.000000 -0.707107
vn 0.000000 1.000000 0.000000
vn 0.000000 1.000000 0.000000
vn 0.000000 1.000000 0.000000
vn 0.000000 1.000000 0.000000
vn 0.014798 -0.000000 -0.999891
vn 0.014798 -0.000000 -0.999891
vn 0.014798 -0.000000 -0.999891
vn 0.014798 -0.000000 -0.999891
vn -1.000000 0.000000 0.000000
vn -1.000000 0.000000 0.000000
vn -1.000000 0.000000 0.000000
vn 0.000000 1.000000 -0.000000
vn 0.000000 1.000000 -0.000000
vn 0.000000 1.000000 -0.000000
vn 0.000000 1.000000 -0.000000
vn 0.000000 0.000000 1.000000
vn 0.000000 0.000000 1.000000
vn 0.000000 0.000000 1.000000
vn -1.000000 0.000000 0.000000
vn -1.000000 0.000000 0.000000
vn -1.000000 0.000000 0.000000
vn -1.000000 0.000000 0.000000
vn 0.014798 0.000000 -0.999891
vn 0.014798 0.000000 -0.999891
vn 0.014798 0.000000 -0.999891
vn 0.000000 1.000000 0.000000
vn 0.000000 1.000000 0.000000
vn 0.000000 1.000000 0.000000
vn 0.000000 1.000000 0.000000
vn 0.000000 1.000000 -0.000000
vn 0.000000 1.000000 -0.000000
vn 0.000000 1.000000 -0.000000
vn 1.000000 0.000000 0.000000
vn 1.000000 0.000000 0.000000
vn 1.000000 0.000000 0.000000
vn 1.000000 0.000000 0.000000
vn 0.000000 0.000000 1.000000
vn 0.000000 0.000000 1.000000
vn 0.000000 0.000000 1.000000
vn 0.000000 0.000000 1.000000
vn -1.000000 0.000000 0.000000
vn -1.000000 0.000000 0.000000
vn -1.000000 0.000000 0.000000
vn -1.000000 0.000000 0.000000
vn -1.000000 0.000000 0.000000
vn 0.000000 0.000000 1.000000
vn 0.000000 0.000000 1.000000
vn 0.000000 0.000000 1.000000
vn 0.000000 0.000000 1.000000
vn 0.000000 1.000000 0.000000
vn 0.000000 1.000000 0.000000
vn 0.000000 1.000000 0.000000
vn 0.000000 1.000000 0.000000
vn 0.707099 0.000000 0.707114
vn 0.707099 0.000000 0.707114
vn 0.707099 0.000000 0.707114
vn 0.707099 0.000000 0.707114
vn -0.707099 0.000000 -0.707114
vn -0.707099 0.000000 -0.707114
vn -0.707099 0.000000 -0.707114
vn -0.707099 0.000000 -0.707114
vn 0.000000 0.000000 -1.000000
vn 0.000000 0.000000 -1.000000
vn 0.000000 0.000000 -1.000000
vn 0.000000 0.000000 -1.000000
vn 0.000000 0.000000 -1.000000
vn 0.000000 -1.000000 0.000000
vn 0.000000 -1.000000 0.000000
vn 0.000000 -1.000000 0.000000
vn 0.000000 0.000000 1.000000
vn 0.000000 0.000000 1.000000
vn 0.000000 0.000000 1.000000
vn 0.000000 1.000000 0.000000
vn 0.000000 1.000000 0.000000
vn 0.000000 1.000000 0.000000
vn -0.075489 0.771461 0.631783
vn -0.075489 0.771461 0.631783
vn -0.075489 0.771461 0.631783
vn 0.036946 0.549768 0.834500
vn 0.036946 0.549768 0.834500
vn 0.036946 0.549768 0.834500
vn 0.018582 0.823289 -0.567319
vn 0.018582 0.823289 -0.567319
vn 0.018582 0.823289 -0.567319
vn -0.025457 0.738987 -0.673238
vn -0.025457 0.738987 -0.673238
vn -0.025457 0.738987 -0.673238
vn 0.000000 1.000000 0.000000
vn 0.000000 1.000000 0.000000
vn 0.000000 1.000000 0.000000
vn 0.000000 1.000000 0.000000
vn 0.000000 1.000000 0.000000
vn 0.000000 1.000000 0.000000
vn 0.000000 1.000000 0.000000
vn 0.000000 1.000000 0.000000
vn 0.000000 0.000000 1.000000
vn 0.000000 0.000000 1.000000
vn 0.000000 0.000000 1.000000
vn 0.000000 0.000000 1.000000
vn 0.000000 0.000000 1.000000
vn 0.000000 0.000000 1.000000
vn 0.000000 0.000000 1.000000
vn 0.000000 0.000000 1.000000
vn 0.000000 1.000000 0.000000
vn 0.000000 1.000000 0.000000
vn 0.000000 1.000000 0.000000
vn 0.000000 1.000000 0.000000
vn 0.000000 1.000000 -0.000000
vn 0.000000 1.000000 -0.000000
vn 0.000000 1.000000 -0.000000
vn 0.000000 1.000000 -0.000000
vn 0.000000 -1.000000 -0.000001
vn 0.000000 -1.000000 -0.000001
vn 0.000000 -1.000000 -0.000001
vn 0.000000 -1.000000 -0.000001
vn 0.000000 -1.000000 0.000000
vn 0.000000 -1.000000 0.000000
vn 0.000000 -1.000000 0.000000
vn 0.000000 1.000000 -0.000000
vn 0.000000 1.000000 -0.000000
vn 0.000000 1.000000 -0.000000
vn 0.000000 1.000000 -0.000000
vn 0.819817 0.000000 -0.572625
vn 0.819817 0.000000 -0.572625
vn 0.819817 0.000000 -0.572625
vn 0.819817 0.000000 -0.572625
vn 0.000000 -1.000000 0.000000
vn 0.000000 -1.000000 0.000000
vn 0.000000 -1.000000 0.000000
vn 0.000000 -1.000000 0.000000
vn -0.803011 0.000000 0.595964
vn -0.803011 0.000000 0.595964
vn -0.803011 0.000000 0.595964
vn -0.803011 0.000000 0.595964
vn 0.000000 -1.000000 0.000000
vn 0.000000 -1.000000 0.000000
vn 0.000000 -1.000000 0.000000
vn 0.000000 -1.000000 0.000000
vn 0.819817 0.000000 0.572625
vn 0.819817 0.000000 0.572625
vn 0.819817 0.000000 0.572625
vn 0.819817 0.000000 0.572625
vn 0.000000 1.000000 0.000000
vn 0.000000 1.000000 0.000000
vn 0.000000 1.000000 0.000000
vn 0.000000 1.000000 0.000000
vn -0.803011 0.000000 -0.595964
vn -0.803011 0.000000 -0.595964
vn -0.803011 0.000000 -0.595964
vn -0.803011 0.000000 -0.595964
vn 0.000000 1.000000 0.000000
vn 0.000000 1.000000 0.000000
vn 0.000000 1.000000 0.000000
vn 0.000000 1.000000 0.000000
vn -0.819817 0.000000 0.572625
vn -0.819817 0.000000 0.572625
vn -0.819817 0.000000 0.572625
vn -0.819817 0.000000 0.572625
vn 0.000000 -1.000000 0.000000
vn 0.000000 -1.000000 0.000000
vn 0.000000 -1.000000 0.000000
vn 0.000000 -1.000000 0.000000
vn 0.803011 0.000000 -0.595964
vn 0.803011 0.000000 -0.595964
vn 0.803011 0.000000 -0.595964
vn 0.803011 0.000000 -0.595964
vn 0.000000 -1.000000 0.000000
vn 0.000000 -1.000000 0.000000
vn 0.000000 -1.000000 0.000000
vn 0.000000 -1.000000 0.000000
vn -0.819817 0.000000 -0.572625
vn -0.819817 0.000000 -0.572625
vn -0.819817 0.000000 -0.572625
vn -0.819817 0.000000 -0.572625
vn 0.000000 1.000000 0.000000
vn 0.000000 1.000000 0.000000
vn 0.000000 1.000000 0.000000
vn 0.000000 1.000000 0.000000
vn 0.803011 0.000000 0.595964
vn 0.803011 0.000000 0.595964
vn 0.803011 0.000000 0.595964
vn 0.803011 0.000000 0.595964
s off
f 9/9/1 10/10/2 11/11/3 12/12/4
f 3/4/5 4/3/6 6/5/7 5/6/8
f 13/13/9 14/14/10 15/15/11 16/16/12
f 7/8/13 8/7/14 2/2/15 1/1/16
f 2/2/17 8/7/18 6/5/19 4/3/20
f 7/8/21 1/1/22 3/4/23 5/6/24
f 90/17/25 91/18/26 10/10/27 9/9/28
f 91/18/29 92/19/30 11/11/31 10/10/32
f 92/19/33 93/20/34 12/12/35 11/11/36
f 93/20/37 90/17/38 9/9/39 12/12/40
f 86/21/41 87/22/42 14/14/43 13/13/44
f 87/22/45 88/23/46 15/15/47 14/14/48
f 88/23/49 89/24/50 16/16/51 15/15/52
f 89/24/53 86/21/54 13/13/55 16/16/56
f 25/25/57 26/26/58 27/27/59 28/28/60
f 19/29/61 20/30/62 22/31/63 21/32/64
f 29/33/65 30/34/66 31/35/67 32/36/68
f 23/37/69 24/38/70 18/39/71 17/40/72
f 18/39/73 24/38/74 22/31/75 20/30/76
f 23/37/77 17/40/78 19/29/79 21/32/80
f 98/41/81 99/42/82 26/26/83 25/25/84
f 99/42/85 100/43/86 27/27/87 26/26/88
f 100/43/89 101/44/90 28/28/91 27/27/92
f 101/44/93 98/41/94 25/25/95 28/28/96
f 94/45/97 95/46/98 30/34/99 29/33/100
f 95/46/101 96/47/102 31/35/103 30/34/104
f 96/47/105 97/48/106 32/36/107 31/35/108
f 97/48/109 94/45/110 29/33/111 32/36/112
f 57/68/113 55/66/114 56/67/115
f 59/70/116 60/74/117 51/71/118 48/60/119
f 37/49/120 38/50/121 40/51/122 39/52/123
f 39/52/124 40/51/125 42/53/126 41/54/127
f 41/54/128 42/53/129 44/55/130 43/56/131
f 43/56/132 44/55/133 38/50/134 37/49/135
f 38/50/136 44/55/137 42/53/138 40/51/139
f 43/56/140 37/49/141 39/52/142 41/54/143
f 63/76/144 64/77/145 62/75/146
f 46/80/147 47/86/148 79/95/149 85/101/150 83/99/151
f 47/86/152 69/88/153 68/82/154 79/95/155
f 66/84/156 65/78/157 67/79/158
f 71/83/159 69/88/160 47/86/161 46/80/162
f 33/59/163 50/62/164 53/64/165 54/65/166
f 51/71/167 50/62/168 33/59/169 36/58/170
f 49/61/171 53/64/172 52/63/173
f 54/65/174 53/64/175 49/61/176
f 52/63/177 34/69/178 55/66/179 57/68/180
f 56/67/181 61/72/182 58/73/183
f 48/60/184 49/61/185 52/63/186 59/70/187
f 60/74/188 61/72/189 34/69/190 50/62/191 51/71/192
f 59/70/193 58/73/194 61/72/195 60/74/196
f 62/75/197 54/65/198 49/61/199 48/60/200
f 62/75/201 51/71/202 36/58/203 63/76/204
f 35/57/205 64/77/206 33/59/207
f 35/57/208 54/65/209 62/75/210 64/77/211
f 33/59/212 54/65/213 35/57/214
f 33/59/215 64/77/216 63/76/217 36/58/218
f 48/60/219 51/71/220 62/75/221
f 59/70/222 57/68/223 56/67/224 58/73/225
f 59/70/226 52/63/227 57/68/228
f 56/67/229 55/66/230 34/69/231 61/72/232
f 52/63/233 53/64/234 50/62/235 34/69/236
f 65/78/237 66/84/238 72/85/239 74/91/240 45/81/241
f 67/79/242 76/92/243 82/98/244 80/96/245
f 66/84/246 67/79/247 80/96/248 84/100/249
f 68/82/250 69/88/251 71/83/252 70/89/253
f 72/85/254 73/90/255 75/87/256 74/91/257
f 84/100/258 85/101/259 79/95/260 75/87/261 73/90/262
f 74/91/263 76/92/264 45/81/265
f 81/97/266 68/82/267 70/89/268
f 83/99/269 81/97/270 70/89/271
f 77/93/272 82/98/273 81/97/274
f 80/96/275 82/98/276 77/93/277
f 78/94/278 85/101/279 84/100/280
f 83/99/281 85/101/282 78/94/283
f 83/99/284 70/89/285 71/83/286 46/80/287
f 83/99/288 78/94/289 77/93/290 81/97/291
f 81/97/292 82/98/293 76/92/294 68/82/295
f 45/81/296 76/92/297 67/79/298 65/78/299
f 84/100/300 80/96/301 77/93/302 78/94/303
f 66/84/304 84/100/305 73/90/306 72/85/307
f 79/95/308 76/92/309 74/91/310 75/87/311
f 79/95/312 68/82/313 76/92/314
f 5/6/315 6/5/316 87/103/317 86/102/318
f 6/5/319 8/7/320 88/104/321 87/103/322
f 8/7/323 7/8/324 89/105/325 88/104/326
f 7/8/327 5/6/328 86/102/329 89/105/330
f 1/1/331 2/2/332 91/107/333 90/106/334
f 2/2/335 4/3/336 92/108/337 91/107/338
f 4/3/339 3/4/340 93/109/341 92/108/342
f 3/4/343 1/1/344 90/106/345 93/109/346
f 21/32/347 22/31/348 95/111/349 94/110/350
f 22/31/351 24/38/352 96/112/353 95/111/354
f 24/38/355 23/37/356 97/113/357 96/112/358
f 23/37/359 21/32/360 94/110/361 97/113/362
f 17/40/363 18/39/364 99/115/365 98/114/366
f 18/39/367 20/30/368 100/116/369 99/115/370
f 20/30/371 19/29/372 101/117/373 100/116/374
f 19/29/375 17/40/376 98/114/377 101/117/378
