# This file uses centimeters as units for non-parametric coordinates.

v -0.000002 0.000000 10.340672
v -0.000002 0.000000 -9.001514
v 0.615939 -1.066842 7.628232
v 1.231881 0.000000 7.628232
v 0.615939 1.066842 7.628232
v -0.615943 1.066842 7.628232
v -1.231888 -0.000000 7.628232
v -0.615943 -1.066842 7.628232
v 0.462845 -0.801675 3.794925
v 0.925692 0.000000 3.794925
v 0.462845 0.801675 3.794925
v -0.462849 0.801675 3.794925
v -0.925696 -0.000000 3.794925
v -0.462849 -0.801675 3.794925
v 0.325775 -0.564262 -8.787722
v 0.651552 0.000000 -8.787722
v 0.325775 0.564262 -8.787722
v -0.325779 0.564262 -8.787722
v -0.651556 0.000000 -8.787723
v -0.325779 -0.564262 -8.787722
v 0.462845 -0.801675 -8.095231
v -0.462849 -0.801675 -8.095231
v -0.925696 -0.000000 -8.095231
v -0.462849 0.801675 -8.095230
v 0.462845 0.801675 -8.095230
v 0.925692 0.000000 -8.095231
vt 0.079802 0.301683
vt 0.079940 0.301748
vt 0.079947 0.301721
vt 0.079935 0.301712
vt 0.079937 0.301648
vt 0.079943 0.301622
vt 0.079948 0.301659
vt 0.080141 0.301715
vt 0.080142 0.301667
vt 0.080140 0.301640
vt 0.080137 0.301659
vt 0.080137 0.301707
vt 0.080139 0.301735
vt 0.080752 0.301674
vt 0.080751 0.301721
vt 0.080788 0.301714
vt 0.080788 0.301680
vt 0.080755 0.301646
vt 0.080791 0.301661
vt 0.080759 0.301666
vt 0.080794 0.301674
vt 0.080759 0.301714
vt 0.080794 0.301708
vt 0.080755 0.301742
vt 0.080791 0.301728
vt 0.080802 0.301694
vn 0.000000 -0.930607 0.366021
vn 0.000000 -0.930607 0.366021
vn 0.000000 -0.930607 0.366021
vn -0.805928 -0.465305 0.366021
vn -0.805928 -0.465305 0.366021
vn -0.805928 -0.465305 0.366021
vn -0.805928 0.465305 0.366021
vn -0.805928 0.465305 0.366021
vn -0.805928 0.465305 0.366021
vn -0.000000 0.930607 0.366021
vn -0.000000 0.930607 0.366021
vn -0.000000 0.930607 0.366021
vn 0.805929 0.465303 0.366021
vn 0.805929 0.465303 0.366021
vn 0.805929 0.465303 0.366021
vn 0.805929 -0.465303 0.366021
vn 0.805929 -0.465303 0.366021
vn 0.805929 -0.465303 0.366021
vn 0.863961 -0.498808 -0.069010
vn 0.863961 -0.498808 -0.069010
vn 0.863961 -0.498808 -0.069010
vn 0.863961 -0.498808 -0.069010
vn 0.863961 0.498808 -0.069010
vn 0.863961 0.498808 -0.069010
vn 0.863961 0.498808 -0.069010
vn 0.863961 0.498808 -0.069010
vn -0.000000 0.997616 -0.069009
vn -0.000000 0.997616 -0.069009
vn -0.000000 0.997616 -0.069009
vn -0.000000 0.997616 -0.069009
vn -0.863960 0.498809 -0.069010
vn -0.863960 0.498809 -0.069010
vn -0.863960 0.498809 -0.069010
vn -0.863960 0.498809 -0.069010
vn -0.863960 -0.498809 -0.069010
vn -0.863960 -0.498809 -0.069010
vn -0.863960 -0.498809 -0.069010
vn -0.863960 -0.498809 -0.069010
vn 0.000000 -0.997616 -0.069009
vn 0.000000 -0.997616 -0.069009
vn 0.000000 -0.997616 -0.069009
vn 0.000000 -0.997616 -0.069009
vn 0.819218 -0.472976 -0.324308
vn 0.819218 -0.472976 -0.324308
vn 0.819218 -0.472976 -0.324308
vn 0.819218 -0.472976 -0.324308
vn 0.819218 0.472976 -0.324308
vn 0.819218 0.472976 -0.324308
vn 0.819218 0.472976 -0.324308
vn 0.819218 0.472976 -0.324308
vn 0.000000 0.945951 -0.324309
vn 0.000000 0.945951 -0.324309
vn 0.000000 0.945951 -0.324309
vn 0.000000 0.945951 -0.324309
vn -0.819218 0.472975 -0.324308
vn -0.819218 0.472975 -0.324308
vn -0.819218 0.472975 -0.324308
vn -0.819218 0.472975 -0.324308
vn -0.819218 -0.472976 -0.324308
vn -0.819218 -0.472976 -0.324308
vn -0.819218 -0.472976 -0.324308
vn -0.819218 -0.472976 -0.324308
vn 0.000000 -0.945951 -0.324309
vn 0.000000 -0.945951 -0.324309
vn 0.000000 -0.945951 -0.324309
vn 0.000000 -0.945951 -0.324309
vn 0.306841 -0.177156 -0.935128
vn 0.306841 -0.177156 -0.935128
vn 0.306841 -0.177156 -0.935128
vn 0.306841 0.177156 -0.935128
vn 0.306841 0.177156 -0.935128
vn 0.306841 0.177156 -0.935128
vn 0.000000 0.354311 -0.935128
vn 0.000000 0.354311 -0.935128
vn 0.000000 0.354311 -0.935128
vn -0.306841 0.177156 -0.935128
vn -0.306841 0.177156 -0.935128
vn -0.306841 0.177156 -0.935128
vn -0.306841 -0.177156 -0.935128
vn -0.306841 -0.177156 -0.935128
vn -0.306841 -0.177156 -0.935128
vn 0.000000 -0.354311 -0.935128
vn 0.000000 -0.354311 -0.935128
vn 0.000000 -0.354311 -0.935128
vn 0.000000 -1.000000 0.000000
vn 0.000000 -1.000000 0.000000
vn 0.000000 -1.000000 0.000000
vn 0.000000 -1.000000 0.000000
vn -0.866026 -0.500000 0.000000
vn -0.866026 -0.500000 0.000000
vn -0.866026 -0.500000 0.000000
vn -0.866026 -0.500000 0.000000
vn -0.866026 0.500000 -0.000000
vn -0.866026 0.500000 -0.000000
vn -0.866026 0.500000 -0.000000
vn -0.866026 0.500000 -0.000000
vn -0.000000 1.000000 -0.000000
vn -0.000000 1.000000 -0.000000
vn -0.000000 1.000000 -0.000000
vn -0.000000 1.000000 -0.000000
vn 0.866026 0.500000 -0.000000
vn 0.866026 0.500000 -0.000000
vn 0.866026 0.500000 -0.000000
vn 0.866026 0.500000 -0.000000
vn 0.866026 -0.500000 0.000000
vn 0.866026 -0.500000 0.000000
vn 0.866026 -0.500000 0.000000
vn 0.866026 -0.500000 0.000000
s off
f 1/1/1 8/2/2 3/3/3
f 1/1/4 7/4/5 8/2/6
f 1/1/7 6/5/8 7/4/9
f 1/1/10 5/6/11 6/5/12
f 1/1/13 4/7/14 5/6/15
f 1/1/16 3/3/17 4/7/18
f 4/7/19 3/3/20 9/8/21 10/9/22
f 5/6/23 4/7/24 10/9/25 11/10/26
f 6/5/27 5/6/28 11/10/29 12/11/30
f 7/4/31 6/5/32 12/11/33 13/12/34
f 8/2/35 7/4/36 13/12/37 14/13/38
f 3/3/39 8/2/40 14/13/41 9/8/42
f 26/14/43 21/15/44 15/16/45 16/17/46
f 25/18/47 26/14/48 16/17/49 17/19/50
f 24/20/51 25/18/52 17/19/53 18/21/54
f 23/22/55 24/20/56 18/21/57 19/23/58
f 22/24/59 23/22/60 19/23/61 20/25/62
f 21/15/63 22/24/64 20/25/65 15/16/66
f 16/17/67 15/16/68 2/26/69
f 17/19/70 16/17/71 2/26/72
f 18/21/73 17/19/74 2/26/75
f 19/23/76 18/21/77 2/26/78
f 20/25/79 19/23/80 2/26/81
f 15/16/82 20/25/83 2/26/84
f 9/8/85 14/13/86 22/24/87 21/15/88
f 14/13/89 13/12/90 23/22/91 22/24/92
f 13/12/93 12/11/94 24/20/95 23/22/96
f 12/11/97 11/10/98 25/18/99 24/20/100
f 11/10/101 10/9/102 26/14/103 25/18/104
f 10/9/105 9/8/106 21/15/107 26/14/108
