# This file uses centimeters as units for non-parametric coordinates.

v 3.740814 -0.000000 -3.740906
v -0.000046 -0.000000 -5.290405
v -3.740997 -0.000000 -3.740906
v -5.290436 -0.000000 0.000122
v -3.740997 -0.000000 3.740845
v -0.000046 -0.000000 5.290466
v 3.740814 -0.000000 3.740845
v 5.290466 -0.000000 0.000122
v 5.785599 16.221388 -5.785522
v -0.000061 16.221388 -8.182007
v -5.785675 16.221388 -5.785522
v -8.182114 16.221388 0.000122
v -5.785675 16.221388 5.785583
v -0.000061 16.221388 8.182129
v 5.785599 16.221388 5.785583
v 8.182037 16.221388 0.000122
v -0.000046 -0.000000 0.000122
v 4.985504 16.221388 -4.985779
v -0.000061 16.221388 -7.050537
v -4.985596 16.221388 -4.985779
v -7.050766 16.221388 0.000122
v -4.985596 16.221388 4.985474
v -0.000061 16.221388 7.050781
v 4.985504 16.221388 4.985474
v 7.050705 16.221388 0.000122
v 3.223541 1.436261 -3.223572
v -0.000046 1.436261 -4.558838
v -0.000046 1.436261 0.000122
v -3.223648 1.436261 -3.223572
v -4.558929 1.436261 0.000122
v -3.223648 1.436261 3.223633
v -0.000046 1.436261 4.559082
v 3.223541 1.436261 3.223633
v 4.558762 1.436261 0.000122
v 5.785599 18.243479 -5.785522
v -0.000061 18.243479 -8.182007
v -0.000061 18.243479 -7.050537
v 4.985504 18.243479 -4.985779
v -5.785675 18.243479 -5.785522
v -4.985596 18.243479 -4.985779
v -8.182114 18.243479 0.000122
v -7.050766 18.243479 0.000122
v -5.785675 18.243479 5.785583
v -4.985596 18.243479 4.985474
v -0.000061 18.243479 8.182129
v -0.000061 18.243479 7.050781
v 5.785599 18.243479 5.785583
v 4.985504 18.243479 4.985474
v 8.182037 18.243479 0.000122
v 7.050705 18.243479 0.000122
v 5.426422 16.046886 -5.426270
v -0.000061 16.046886 -7.674255
v -5.426605 16.046886 -5.426270
v -7.674240 16.046886 0.000122
v -5.426605 16.046886 5.426453
v -0.000061 16.046886 7.674316
v 5.426422 16.046886 5.426453
v 7.674286 16.046886 0.000122
v 3.733093 2.562927 -3.733154
v -0.000046 2.562927 -5.279297
v -3.733185 2.562927 -3.733154
v -5.279526 2.562927 0.000122
v -3.733185 2.562927 3.733154
v -0.000046 2.562927 5.279480
v 3.733093 2.562927 3.733154
v 5.279480 2.562927 0.000122
v 2.175358 7.778282 -5.298550
v -0.000046 5.899847 -5.817833
v -0.000061 12.770534 -7.146486
v 2.510431 10.916897 -5.729288
v -2.175472 7.778281 -5.298550
v -2.510566 10.916898 -5.729287
v -2.175472 7.778282 5.298641
v -0.000046 5.899841 5.818017
v -0.000061 12.770534 7.146538
v -2.510567 10.916897 5.729404
v 2.175358 7.778282 5.298642
v 2.510433 10.916895 5.729405
vt 0.102807 0.375812
vt 0.102911 0.375729
vt 0.102900 0.375715
vt 0.102787 0.375803
vt 0.103116 0.375703
vt 0.103117 0.375687
vt 0.103313 0.375746
vt 0.103327 0.375733
vt 0.103396 0.375838
vt 0.103416 0.375830
vt 0.103305 0.375929
vt 0.103320 0.375928
vt 0.103082 0.375961
vt 0.103080 0.375962
vt 0.102871 0.375910
vt 0.102855 0.375907
vt 0.112884 0.208875
vt 0.112756 0.209060
vt 0.113040 0.209124
vt 0.113101 0.208835
vt 0.113283 0.208964
vt 0.113325 0.209188
vt 0.113198 0.209378
vt 0.112977 0.209419
vt 0.112793 0.209286
vt 0.102895 0.376420
vt 0.102961 0.376351
vt 0.103085 0.376430
vt 0.103096 0.376329
vt 0.103225 0.376365
vt 0.103276 0.376441
vt 0.103215 0.376514
vt 0.103073 0.376539
vt 0.102938 0.376499
vt 0.102786 0.375708
vt 0.102900 0.375622
vt 0.102927 0.375635
vt 0.102830 0.375709
vt 0.103120 0.375595
vt 0.103117 0.375612
vt 0.103331 0.375639
vt 0.103301 0.375650
vt 0.103422 0.375734
vt 0.103378 0.375732
vt 0.103325 0.375829
vt 0.103293 0.375813
vt 0.103083 0.375862
vt 0.103086 0.375841
vt 0.102855 0.375809
vt 0.102890 0.375796
vt 0.102830 0.375805
vt 0.102926 0.375729
vt 0.103115 0.375705
vt 0.103296 0.375744
vt 0.103372 0.375828
vt 0.103288 0.375912
vt 0.103083 0.375941
vt 0.102890 0.375894
vt 0.112754 0.209057
vt 0.112883 0.208870
vt 0.112777 0.208671
vt 0.112556 0.208986
vt 0.113102 0.208830
vt 0.113146 0.208605
vt 0.113286 0.208960
vt 0.113457 0.208822
vt 0.113328 0.209187
vt 0.113530 0.209206
vt 0.113200 0.209379
vt 0.113315 0.209534
vt 0.112976 0.209420
vt 0.112932 0.209605
vt 0.112791 0.209286
vt 0.112617 0.209374
vt 0.112754 0.209057
vt 0.112883 0.208870
vt 0.112777 0.208671
vt 0.112556 0.208986
vt 0.113102 0.208830
vt 0.113146 0.208605
vt 0.113328 0.209187
vt 0.113200 0.209379
vt 0.113315 0.209534
vt 0.113530 0.209206
vt 0.112976 0.209420
vt 0.112932 0.209605
vt 0.102441 0.378814
vt 0.102237 0.379034
vt 0.102278 0.378384
vt 0.102491 0.378514
vt 0.102004 0.378850
vt 0.101979 0.378551
vt 0.101773 0.378536
vt 0.101959 0.378673
vt 0.101929 0.378034
vt 0.101731 0.378246
vt 0.102164 0.378508
vt 0.102185 0.378217
vn 0.133397 -0.937284 -0.322032
vn 0.133397 -0.937284 -0.322032
vn 0.133397 -0.937284 -0.322032
vn 0.133397 -0.937284 -0.322032
vn -0.133401 -0.937279 -0.322044
vn -0.133401 -0.937279 -0.322044
vn -0.133401 -0.937279 -0.322044
vn -0.133401 -0.937279 -0.322044
vn -0.322042 -0.937281 -0.133392
vn -0.322042 -0.937281 -0.133392
vn -0.322042 -0.937281 -0.133392
vn -0.322042 -0.937281 -0.133392
vn -0.322055 -0.937275 0.133400
vn -0.322055 -0.937275 0.133400
vn -0.322055 -0.937275 0.133400
vn -0.322055 -0.937275 0.133400
vn -0.133407 -0.937272 0.322061
vn -0.133407 -0.937272 0.322061
vn -0.133407 -0.937272 0.322061
vn -0.133407 -0.937272 0.322061
vn 0.133402 -0.937277 0.322049
vn 0.133402 -0.937277 0.322049
vn 0.133402 -0.937277 0.322049
vn 0.133402 -0.937277 0.322049
vn 0.322057 -0.937273 0.133408
vn 0.322057 -0.937273 0.133408
vn 0.322057 -0.937273 0.133408
vn 0.322057 -0.937273 0.133408
vn 0.322044 -0.937279 -0.133400
vn 0.322044 -0.937279 -0.133400
vn 0.322044 -0.937279 -0.133400
vn 0.322044 -0.937279 -0.133400
vn 0.000000 -1.000000 0.000000
vn 0.000000 -1.000000 0.000000
vn 0.000000 -1.000000 0.000000
vn 0.000000 -1.000000 0.000000
vn 0.000000 -1.000000 0.000000
vn 0.000000 -1.000000 0.000000
vn 0.000000 -1.000000 0.000000
vn 0.000000 -1.000000 0.000000
vn 0.000000 -1.000000 0.000000
vn 0.000000 -1.000000 0.000000
vn 0.000000 -1.000000 0.000000
vn 0.000000 -1.000000 0.000000
vn 0.000000 -1.000000 0.000000
vn 0.000000 -1.000000 0.000000
vn 0.000000 -1.000000 0.000000
vn 0.000000 -1.000000 0.000000
vn 0.000000 -1.000000 0.000000
vn 0.000000 -1.000000 0.000000
vn 0.000000 -1.000000 0.000000
vn 0.000000 -1.000000 0.000000
vn 0.000000 -1.000000 0.000000
vn 0.000000 -1.000000 -0.000000
vn 0.000000 -1.000000 -0.000000
vn 0.000000 -1.000000 -0.000000
vn 0.000000 1.000000 0.000000
vn 0.000000 1.000000 0.000000
vn 0.000000 1.000000 0.000000
vn 0.000000 1.000000 0.000000
vn 0.000000 1.000000 0.000000
vn 0.000000 1.000000 0.000000
vn 0.000000 1.000000 0.000000
vn 0.000000 1.000000 0.000000
vn 0.000000 1.000000 0.000000
vn 0.000000 1.000000 0.000000
vn 0.000000 1.000000 0.000000
vn 0.000000 1.000000 0.000000
vn 0.000000 1.000000 0.000000
vn 0.000000 1.000000 0.000000
vn 0.000000 1.000000 0.000000
vn 0.000000 1.000000 0.000000
vn 0.000000 1.000000 0.000000
vn 0.000000 1.000000 0.000000
vn 0.000000 1.000000 0.000000
vn 0.000000 1.000000 0.000000
vn 0.000000 1.000000 0.000000
vn 0.000000 1.000000 0.000000
vn 0.000000 1.000000 0.000000
vn 0.000000 1.000000 0.000000
vn 0.000000 1.000000 -0.000001
vn 0.000000 1.000000 -0.000001
vn 0.000000 1.000000 -0.000001
vn 0.000000 1.000000 -0.000001
vn 0.000000 1.000000 0.000000
vn 0.000000 1.000000 0.000000
vn 0.000000 1.000000 0.000000
vn 0.000000 1.000000 0.000000
vn 0.000000 1.000000 -0.000000
vn 0.000000 1.000000 -0.000000
vn 0.000000 1.000000 -0.000000
vn 0.000000 1.000000 -0.000000
vn 0.000000 1.000000 0.000001
vn 0.000000 1.000000 0.000001
vn 0.000000 1.000000 0.000001
vn 0.000000 1.000000 0.000001
vn 0.000000 1.000000 0.000000
vn 0.000000 1.000000 0.000000
vn 0.000000 1.000000 0.000000
vn 0.000000 1.000000 0.000000
vn 0.000000 1.000000 0.000001
vn 0.000000 1.000000 0.000001
vn 0.000000 1.000000 0.000001
vn 0.000000 1.000000 0.000001
vn 0.000000 1.000000 0.000000
vn 0.000000 1.000000 0.000000
vn 0.000000 1.000000 0.000000
vn 0.000000 1.000000 0.000000
vn 0.000000 1.000000 -0.000001
vn 0.000000 1.000000 -0.000001
vn 0.000000 1.000000 -0.000001
vn 0.000000 1.000000 -0.000001
vn -0.378097 0.153855 0.912892
vn -0.378097 0.153855 0.912892
vn -0.378097 0.153855 0.912892
vn -0.378097 0.153855 0.912892
vn 0.378097 0.153856 0.912891
vn 0.378097 0.153856 0.912891
vn 0.378097 0.153856 0.912891
vn 0.378097 0.153856 0.912891
vn 0.912882 0.153855 0.378120
vn 0.912882 0.153855 0.378120
vn 0.912882 0.153855 0.378120
vn 0.912882 0.153855 0.378120
vn 0.912871 0.153850 -0.378149
vn 0.912871 0.153850 -0.378149
vn 0.912871 0.153850 -0.378149
vn 0.912871 0.153850 -0.378149
vn 0.378168 0.153845 -0.912864
vn 0.378168 0.153845 -0.912864
vn 0.378168 0.153845 -0.912864
vn 0.378168 0.153845 -0.912864
vn -0.378167 0.153844 -0.912865
vn -0.378167 0.153844 -0.912865
vn -0.378167 0.153844 -0.912865
vn -0.378167 0.153844 -0.912865
vn -0.912872 0.153854 -0.378146
vn -0.912872 0.153854 -0.378146
vn -0.912872 0.153854 -0.378146
vn -0.912872 0.153854 -0.378146
vn -0.912883 0.153859 0.378117
vn -0.912883 0.153859 0.378117
vn -0.912883 0.153859 0.378117
vn -0.912883 0.153859 0.378117
vn 0.382682 0.000000 -0.923880
vn 0.382682 0.000000 -0.923880
vn 0.382682 0.000000 -0.923880
vn 0.382682 0.000000 -0.923880
vn -0.382631 0.000000 0.923901
vn -0.382631 0.000000 0.923901
vn -0.382631 0.000000 0.923901
vn -0.382631 0.000000 0.923901
vn -0.382684 0.000000 -0.923879
vn -0.382684 0.000000 -0.923879
vn -0.382684 0.000000 -0.923879
vn -0.382684 0.000000 -0.923879
vn 0.382633 0.000000 0.923900
vn 0.382633 0.000000 0.923900
vn 0.382633 0.000000 0.923900
vn 0.382633 0.000000 0.923900
vn -0.923883 0.000000 -0.382676
vn -0.923883 0.000000 -0.382676
vn -0.923883 0.000000 -0.382676
vn -0.923883 0.000000 -0.382676
vn 0.923883 0.000000 0.382674
vn 0.923883 0.000000 0.382674
vn 0.923883 0.000000 0.382674
vn 0.923883 0.000000 0.382674
vn -0.923878 0.000000 0.382686
vn -0.923878 0.000000 0.382686
vn -0.923878 0.000000 0.382686
vn -0.923878 0.000000 0.382686
vn 0.923868 0.000000 -0.382711
vn 0.923868 0.000000 -0.382711
vn 0.923868 0.000000 -0.382711
vn 0.923868 0.000000 -0.382711
vn -0.382692 0.000000 0.923876
vn -0.382692 0.000000 0.923876
vn -0.382692 0.000000 0.923876
vn -0.382692 0.000000 0.923876
vn 0.382720 0.000000 -0.923864
vn 0.382720 0.000000 -0.923864
vn 0.382720 0.000000 -0.923864
vn 0.382720 0.000000 -0.923864
vn 0.382690 0.000000 0.923877
vn 0.382690 0.000000 0.923877
vn 0.382690 0.000000 0.923877
vn 0.382690 0.000000 0.923877
vn -0.382718 0.000000 -0.923865
vn -0.382718 0.000000 -0.923865
vn -0.382718 0.000000 -0.923865
vn -0.382718 0.000000 -0.923865
vn 0.923878 0.000000 0.382686
vn 0.923878 0.000000 0.382686
vn 0.923878 0.000000 0.382686
vn 0.923878 0.000000 0.382686
vn -0.923866 0.000000 -0.382715
vn -0.923866 0.000000 -0.382715
vn -0.923866 0.000000 -0.382715
vn -0.923866 0.000000 -0.382715
vn 0.923883 0.000000 -0.382676
vn 0.923883 0.000000 -0.382676
vn 0.923883 0.000000 -0.382676
vn 0.923883 0.000000 -0.382676
vn -0.923881 0.000000 0.382679
vn -0.923881 0.000000 0.382679
vn -0.923881 0.000000 0.382679
vn -0.923881 0.000000 0.382679
vn 0.376979 -0.172576 -0.910003
vn 0.376979 -0.172576 -0.910003
vn 0.376979 -0.172576 -0.910003
vn 0.376979 -0.172576 -0.910003
vn -0.376976 -0.172577 -0.910003
vn -0.376976 -0.172577 -0.910003
vn -0.376976 -0.172577 -0.910003
vn -0.376976 -0.172577 -0.910003
vn -0.911692 -0.161914 -0.377627
vn -0.911692 -0.161914 -0.377627
vn -0.911692 -0.161914 -0.377627
vn -0.911692 -0.161914 -0.377627
vn -0.911687 -0.161917 0.377637
vn -0.911687 -0.161917 0.377637
vn -0.911687 -0.161917 0.377637
vn -0.911687 -0.161917 0.377637
vn -0.376982 -0.172568 0.910003
vn -0.376982 -0.172568 0.910003
vn -0.376982 -0.172568 0.910003
vn -0.376982 -0.172568 0.910003
vn 0.376983 -0.172566 0.910002
vn 0.376983 -0.172566 0.910002
vn 0.376983 -0.172566 0.910002
vn 0.376983 -0.172566 0.910002
vn 0.911677 -0.161917 0.377661
vn 0.911677 -0.161917 0.377661
vn 0.911677 -0.161917 0.377661
vn 0.911677 -0.161917 0.377661
vn 0.911682 -0.161914 -0.377650
vn 0.911682 -0.161914 -0.377650
vn 0.911682 -0.161914 -0.377650
vn 0.911682 -0.161914 -0.377650
vn 0.382660 0.003976 -0.923881
vn 0.382660 0.003976 -0.923881
vn 0.382660 0.003976 -0.923881
vn 0.382660 0.003976 -0.923881
vn -0.382656 0.003983 -0.923882
vn -0.382656 0.003983 -0.923882
vn -0.382656 0.003983 -0.923882
vn -0.382656 0.003983 -0.923882
vn -0.923880 0.003953 -0.382662
vn -0.923880 0.003953 -0.382662
vn -0.923880 0.003953 -0.382662
vn -0.923880 0.003953 -0.382662
vn -0.923870 0.003949 0.382686
vn -0.923870 0.003949 0.382686
vn -0.923870 0.003949 0.382686
vn -0.923870 0.003949 0.382686
vn -0.382689 0.003950 0.923869
vn -0.382689 0.003950 0.923869
vn -0.382689 0.003950 0.923869
vn -0.382689 0.003950 0.923869
vn 0.382693 0.003943 0.923867
vn 0.382693 0.003943 0.923867
vn 0.382693 0.003943 0.923867
vn 0.382693 0.003943 0.923867
vn 0.923859 0.003946 0.382713
vn 0.923859 0.003946 0.382713
vn 0.923859 0.003946 0.382713
vn 0.923859 0.003946 0.382713
vn 0.923869 0.003950 -0.382689
vn 0.923869 0.003950 -0.382689
vn 0.923869 0.003950 -0.382689
vn 0.923869 0.003950 -0.382689
vn 0.370178 -0.157786 -0.915463
vn 0.370178 -0.157786 -0.915463
vn 0.370178 -0.157786 -0.915463
vn 0.370178 -0.157786 -0.915463
vn 0.383494 -0.157357 -0.910039
vn 0.383494 -0.157357 -0.910039
vn 0.383494 -0.157357 -0.910039
vn 0.383494 -0.157357 -0.910039
vn 0.377614 -0.162551 -0.911584
vn 0.377614 -0.162551 -0.911584
vn 0.377614 -0.162551 -0.911584
vn 0.377614 -0.162551 -0.911584
vn -0.370177 -0.157788 -0.915463
vn -0.370177 -0.157788 -0.915463
vn -0.370177 -0.157788 -0.915463
vn -0.370177 -0.157788 -0.915463
vn -0.377611 -0.162554 -0.911584
vn -0.377611 -0.162554 -0.911584
vn -0.377611 -0.162554 -0.911584
vn -0.377611 -0.162554 -0.911584
vn -0.383490 -0.157358 -0.910040
vn -0.383490 -0.157358 -0.910040
vn -0.383490 -0.157358 -0.910040
vn -0.383490 -0.157358 -0.910040
vn -0.370214 -0.157787 0.915448
vn -0.370214 -0.157787 0.915448
vn -0.370214 -0.157787 0.915448
vn -0.370214 -0.157787 0.915448
vn -0.383472 -0.157360 0.910048
vn -0.383472 -0.157360 0.910048
vn -0.383472 -0.157360 0.910048
vn -0.383472 -0.157360 0.910048
vn -0.377615 -0.162565 0.911581
vn -0.377615 -0.162565 0.911581
vn -0.377615 -0.162565 0.911581
vn -0.377615 -0.162565 0.911581
vn 0.370215 -0.157786 0.915448
vn 0.370215 -0.157786 0.915448
vn 0.370215 -0.157786 0.915448
vn 0.370215 -0.157786 0.915448
vn 0.377617 -0.162563 0.911580
vn 0.377617 -0.162563 0.911580
vn 0.377617 -0.162563 0.911580
vn 0.377617 -0.162563 0.911580
vn 0.383475 -0.157359 0.910047
vn 0.383475 -0.157359 0.910047
vn 0.383475 -0.157359 0.910047
vn 0.383475 -0.157359 0.910047
s off
f 51/1/1 52/2/2 10/3/3 9/4/4
f 52/2/5 53/5/6 11/6/7 10/3/8
f 53/5/9 54/7/10 12/8/11 11/6/12
f 54/7/13 55/9/14 13/10/15 12/8/16
f 55/9/17 56/11/18 14/12/19 13/10/20
f 56/11/21 57/13/22 15/14/23 14/12/24
f 57/13/25 58/15/26 16/16/27 15/14/28
f 58/15/29 51/1/30 9/4/31 16/16/32
f 2/17/33 1/18/34 17/19/35
f 3/20/36 2/17/37 17/19/38
f 4/21/39 3/20/40 17/19/41
f 5/22/42 4/21/43 17/19/44
f 6/23/45 5/22/46 17/19/47
f 7/24/48 6/23/49 17/19/50
f 8/25/51 7/24/52 17/19/53
f 1/18/54 8/25/55 17/19/56
f 26/26/57 27/27/58 28/28/59
f 27/27/60 29/29/61 28/28/62
f 29/29/63 30/30/64 28/28/65
f 30/30/66 31/31/67 28/28/68
f 31/31/69 32/32/70 28/28/71
f 32/32/72 33/33/73 28/28/74
f 33/33/75 34/34/76 28/28/77
f 34/34/78 26/26/79 28/28/80
f 35/35/81 36/36/82 37/37/83 38/38/84
f 36/36/85 39/39/86 40/40/87 37/37/88
f 39/39/89 41/41/90 42/42/91 40/40/92
f 41/41/93 43/43/94 44/44/95 42/42/96
f 43/43/97 45/45/98 46/46/99 44/44/100
f 45/45/101 47/47/102 48/48/103 46/46/104
f 47/47/105 49/49/106 50/50/107 48/48/108
f 49/49/109 35/35/110 38/38/111 50/50/112
f 18/51/113 19/52/114 27/27/115 26/26/116
f 19/52/117 20/53/118 29/29/119 27/27/120
f 20/53/121 21/54/122 30/30/123 29/29/124
f 21/54/125 22/55/126 31/31/127 30/30/128
f 22/55/129 23/56/130 32/32/131 31/31/132
f 23/56/133 24/57/134 33/33/135 32/32/136
f 24/57/137 25/58/138 34/34/139 33/33/140
f 25/58/141 18/51/142 26/26/143 34/34/144
f 9/4/145 10/3/146 36/36/147 35/35/148
f 19/52/149 18/51/150 38/38/151 37/37/152
f 10/3/153 11/6/154 39/39/155 36/36/156
f 20/53/157 19/52/158 37/37/159 40/40/160
f 11/6/161 12/8/162 41/41/163 39/39/164
f 21/54/165 20/53/166 40/40/167 42/42/168
f 12/8/169 13/10/170 43/43/171 41/41/172
f 22/55/173 21/54/174 42/42/175 44/44/176
f 13/10/177 14/12/178 45/45/179 43/43/180
f 23/56/181 22/55/182 44/44/183 46/46/184
f 14/12/185 15/14/186 47/47/187 45/45/188
f 24/57/189 23/56/190 46/46/191 48/48/192
f 15/14/193 16/16/194 49/49/195 47/47/196
f 25/58/197 24/57/198 48/48/199 50/50/200
f 16/16/201 9/4/202 35/35/203 49/49/204
f 18/51/205 25/58/206 50/50/207 38/38/208
f 67/87/209 68/88/210 69/89/211 70/90/212
f 68/88/213 71/91/214 72/92/215 69/89/216
f 61/63/217 62/65/218 54/66/219 53/64/220
f 62/65/221 63/67/222 55/68/223 54/66/224
f 73/93/225 74/94/226 75/95/227 76/96/228
f 74/94/229 77/97/230 78/98/231 75/95/232
f 65/71/233 66/73/234 58/74/235 57/72/236
f 66/73/237 59/59/238 51/62/239 58/74/240
f 1/18/241 2/17/242 60/60/243 59/59/244
f 2/17/245 3/20/246 61/63/247 60/60/248
f 3/20/249 4/21/250 62/65/251 61/63/252
f 4/21/253 5/22/254 63/67/255 62/65/256
f 5/22/257 6/23/258 64/69/259 63/67/260
f 6/23/261 7/24/262 65/71/263 64/69/264
f 7/24/265 8/25/266 66/73/267 65/71/268
f 8/25/269 1/18/270 59/59/271 66/73/272
f 59/59/273 60/60/274 68/76/275 67/75/276
f 52/61/277 51/62/278 70/78/279 69/77/280
f 51/62/281 59/59/282 67/75/283 70/78/284
f 60/60/285 61/63/286 71/79/287 68/76/288
f 61/63/289 53/64/290 72/80/291 71/79/292
f 53/64/293 52/61/294 69/77/295 72/80/296
f 63/67/297 64/69/298 74/82/299 73/81/300
f 56/70/301 55/68/302 76/84/303 75/83/304
f 55/68/305 63/67/306 73/81/307 76/84/308
f 64/69/309 65/71/310 77/85/311 74/82/312
f 65/71/313 57/72/314 78/86/315 77/85/316
f 57/72/317 56/70/318 75/83/319 78/86/320
