# This file uses centimeters as units for non-parametric coordinates.

v -87.086426 0.000000 167.544678
v 72.560547 0.000000 167.544678
v -87.086426 3.671223 167.544678
v 72.560547 3.671223 167.544678
v -87.086426 3.671223 -167.544556
v 72.560547 3.671223 -167.544556
v -87.086426 0.000000 -167.544556
v 72.560547 0.000000 -167.544556
v -67.028137 3.671223 146.818726
v 52.502319 3.671223 146.818726
v 52.502319 3.671223 -146.818604
v -67.028137 3.671223 -146.818604
v -60.102570 3.671223 138.664795
v 45.515808 3.671223 138.541748
v 45.426147 3.671223 -138.380127
v -60.979218 3.671223 -138.444946
v -55.074951 3.671223 143.684570
v -63.515411 3.671223 150.586548
v -80.168854 3.671223 170.632813
v -81.474609 0.000000 170.632813
v 39.718750 3.671223 143.807617
v 48.728943 3.671223 150.586548
v 66.248352 3.671223 170.632813
v 67.753662 0.000000 170.632813
v 38.808472 3.671223 -143.948975
v 46.586609 3.671223 -150.586426
v 62.747986 3.671223 -170.632813
v 67.119263 0.000000 -170.632813
v -56.738708 3.671223 -143.884033
v -63.189484 3.671223 -150.586426
v -82.748352 3.671223 -170.632446
v -81.647034 0.000000 -170.632813
v -82.987213 0.000000 -48.775391
v -82.987213 3.671223 -48.775391
v -63.244354 3.671223 -45.702759
v -56.568268 3.671223 -44.621582
v 42.164551 3.671223 16.808228
v 48.718445 3.671223 19.723267
v 68.461304 3.671223 24.861694
v 68.461304 0.000000 24.861694
vt 0.104847 0.180424
vt 0.104847 0.180424
vt 0.104847 0.180424
vt 0.104847 0.180424
vt 0.104847 0.180424
vt 0.104847 0.180424
vt 0.104847 0.180424
vt 0.104847 0.180424
vt 0.104847 0.180424
vt 0.104847 0.180424
vt 0.104847 0.180424
vt 0.104847 0.180424
vt 0.104847 0.180424
vt 0.104847 0.180424
vt 0.104847 0.158252
vt 0.104847 0.180424
vt 0.104847 0.180424
vt 0.104847 0.180424
vt 0.104847 0.180424
vt 0.104847 0.180424
vt 0.104847 0.180424
vt 0.104847 0.158252
vt 0.104847 0.180424
vt 0.104847 0.158252
vt 0.104847 0.180424
vt 0.104847 0.180424
vt 0.104847 0.180424
vt 0.104847 0.158252
vt 0.104847 0.180424
vt 0.104847 0.180424
vt 0.104847 0.180424
vt 0.104847 0.180424
vt 0.104847 0.180424
vt 0.104847 0.180424
vt 0.104847 0.180424
vt 0.104847 0.180424
vt 0.104847 0.180424
vt 0.104847 0.180424
vt 0.104847 0.180424
vt 0.104847 0.180424
vt 0.104847 0.179524
vt 0.104847 0.179524
vt 0.104847 0.179524
vt 0.104847 0.179524
vt 0.104847 0.158252
vt 0.104847 0.158252
vt 0.104847 0.158252
vt 0.104847 0.158252
vt 0.104847 0.179524
vt 0.104847 0.158252
vt 0.104847 0.158252
vt 0.104847 0.180424
vt 0.104847 0.180424
vt 0.104847 0.180424
vt 0.104847 0.180424
vt 0.104847 0.180424
vt 0.104847 0.179524
vt 0.104847 0.158252
vt 0.104847 0.158252
vt 0.104847 0.180424
vt 0.104847 0.180424
vt 0.104847 0.180424
vt 0.104847 0.180424
vt 0.104847 0.180424
vt 0.104847 0.158252
vt 0.104847 0.179524
vt 0.104847 0.180424
vt 0.104847 0.158252
vt 0.104847 0.180424
vt 0.104847 0.180424
vt 0.104847 0.180424
vt 0.104847 0.180424
vt 0.104847 0.158252
vt 0.104847 0.179524
vt 0.104847 0.180424
vt 0.104847 0.158252
vt 0.104847 0.180424
vt 0.104847 0.180424
vt 0.104847 0.180424
vt 0.104847 0.180424
vt 0.104847 0.180424
vt 0.104847 0.180424
vt 0.104847 0.180424
vt 0.104847 0.180424
vt 0.104847 0.180424
vt 0.104847 0.158252
vt 0.104847 0.158252
vt 0.104847 0.179524
vt 0.104847 0.179524
vt 0.104847 0.158252
vt 0.104847 0.158252
vt 0.104847 0.180424
vt 0.104847 0.180424
vt 0.104847 0.180424
vt 0.104847 0.180424
vt 0.104847 0.180424
vn 0.483194 0.099062 0.869891
vn 0.483194 0.099062 0.869891
vn 0.483194 0.099062 0.869891
vn 0.483194 0.099062 0.869891
vn -0.532347 -0.079805 -0.842756
vn -0.532347 -0.079805 -0.842756
vn -0.532347 -0.079805 -0.842756
vn -0.532347 -0.079805 -0.842756
vn 0.000000 -1.000000 0.000000
vn 0.000000 -1.000000 0.000000
vn 0.000000 -1.000000 0.000000
vn 0.000000 -1.000000 0.000000
vn 0.000000 -1.000000 0.000000
vn 0.000000 -1.000000 0.000000
vn 0.999773 0.000000 0.021300
vn 0.999773 0.000000 0.021300
vn 0.999773 0.000000 0.021300
vn 0.999773 0.000000 0.021300
vn -0.999405 0.000000 0.034494
vn -0.999405 0.000000 0.034494
vn -0.999405 0.000000 0.034494
vn -0.999405 0.000000 0.034494
vn 0.000000 1.000000 -0.000000
vn 0.000000 1.000000 -0.000000
vn 0.000000 1.000000 -0.000000
vn 0.000000 1.000000 -0.000000
vn 0.000000 1.000000 0.000000
vn 0.000000 1.000000 0.000000
vn 0.000000 1.000000 0.000000
vn 0.000000 1.000000 0.000000
vn 0.000000 1.000000 -0.000000
vn 0.000000 1.000000 -0.000000
vn 0.000000 1.000000 -0.000000
vn 0.000000 1.000000 -0.000000
vn 0.000000 1.000000 -0.000000
vn 0.000000 1.000000 -0.000000
vn 0.000000 1.000000 -0.000000
vn 0.000000 1.000000 -0.000000
vn 0.000000 1.000000 0.000000
vn 0.000000 1.000000 0.000000
vn 0.000000 1.000000 0.000000
vn 0.000000 1.000000 0.000000
vn 0.000000 1.000000 -0.000000
vn 0.000000 1.000000 -0.000000
vn 0.000000 1.000000 -0.000000
vn 0.000000 1.000000 -0.000000
vn 0.000000 1.000000 0.000000
vn 0.000000 1.000000 0.000000
vn 0.000000 1.000000 0.000000
vn 0.000000 1.000000 0.000000
vn 0.000000 1.000000 0.000000
vn 0.000000 1.000000 0.000000
vn 0.000000 1.000000 0.000000
vn 0.000000 1.000000 0.000000
vn 0.000000 1.000000 0.000000
vn 0.000000 1.000000 0.000000
vn 0.000000 1.000000 0.000000
vn 0.000000 1.000000 0.000000
vn 0.000000 1.000000 0.000000
vn 0.000000 1.000000 0.000000
vn 0.000000 1.000000 -0.000000
vn 0.000000 1.000000 -0.000000
vn 0.000000 1.000000 -0.000000
vn 0.000000 1.000000 -0.000000
vn 0.000000 1.000000 -0.000000
vn 0.000000 1.000000 -0.000000
vn 0.000000 1.000000 -0.000000
vn 0.000000 1.000000 -0.000000
vn 0.000000 1.000000 -0.000000
vn 0.000000 1.000000 -0.000000
vn 0.000000 1.000000 0.000000
vn 0.000000 1.000000 0.000000
vn 0.000000 1.000000 0.000000
vn 0.000000 1.000000 0.000000
vn -0.440782 0.078387 0.894185
vn -0.440781 0.078387 0.894185
vn -0.440782 0.078387 0.894185
vn -0.440782 0.078387 0.894185
vn 0.000000 1.000000 0.000000
vn 0.000000 1.000000 0.000000
vn 0.000000 1.000000 0.000000
vn 0.000000 1.000000 0.000000
vn 0.000000 1.000000 0.000000
vn 0.000000 1.000000 0.000000
vn 0.000000 1.000000 0.000000
vn 0.000000 1.000000 0.000000
vn 0.000000 0.000000 1.000000
vn 0.000000 0.000000 1.000000
vn 0.000000 0.000000 1.000000
vn 0.000000 0.000000 1.000000
vn 0.000000 1.000000 -0.000000
vn 0.000000 1.000000 -0.000000
vn 0.000000 1.000000 -0.000000
vn 0.000000 1.000000 -0.000000
vn 0.000000 1.000000 0.000000
vn 0.000000 1.000000 0.000000
vn 0.000000 1.000000 0.000000
vn 0.000000 1.000000 0.000000
vn 0.366284 0.218064 -0.904591
vn 0.366284 0.218064 -0.904591
vn 0.366284 0.218064 -0.904591
vn 0.366284 0.218064 -0.904591
vn 0.000000 1.000000 0.000000
vn 0.000000 1.000000 0.000000
vn 0.000000 1.000000 0.000000
vn 0.000000 1.000000 0.000000
vn 0.000000 1.000000 0.000000
vn 0.000000 1.000000 0.000000
vn 0.000000 1.000000 0.000000
vn 0.000000 1.000000 0.000000
vn -0.000001 0.000049 -1.000000
vn -0.000001 0.000049 -1.000000
vn -0.000001 0.000049 -1.000000
vn -0.000001 0.000049 -1.000000
vn -0.999821 0.000000 -0.018946
vn -0.999821 0.000000 -0.018946
vn -0.999821 0.000000 -0.018946
vn -0.999821 0.000000 -0.018946
vn 0.000000 1.000000 0.000000
vn 0.000000 1.000000 0.000000
vn 0.000000 1.000000 0.000000
vn 0.000000 1.000000 0.000000
vn 0.000000 1.000000 0.000000
vn 0.000000 1.000000 0.000000
vn 0.000000 1.000000 0.000000
vn 0.000000 1.000000 0.000000
vn 0.000000 1.000000 0.000000
vn 0.000000 1.000000 0.000000
vn 0.000000 1.000000 0.000000
vn 0.000000 1.000000 0.000000
vn 0.000000 1.000000 0.000000
vn 0.000000 1.000000 0.000000
vn 0.000000 1.000000 0.000000
vn 0.000000 1.000000 0.000000
vn 0.999588 0.000000 -0.028718
vn 0.999588 0.000000 -0.028718
vn 0.999588 0.000000 -0.028718
vn 0.999588 0.000000 -0.028718
vn 0.000000 -1.000000 0.000000
vn 0.000000 -1.000000 0.000000
vn 0.000000 -1.000000 0.000000
vn 0.000000 -1.000000 0.000000
vn 0.000000 -1.000000 0.000000
vn 0.000000 -1.000000 0.000000
s off
f 23/62/1 24/63/2 2/2/3 4/32/4
f 5/25/5 31/77/6 32/80/7 7/39/8
f 40/95/9 33/82/10 7/7/11 32/79/12 28/71/13 8/37/14
f 39/94/15 40/96/16 8/11/17 6/12/18
f 33/81/19 34/83/20 5/14/21 7/13/22
f 10/27/23 22/60/24 23/61/25 4/33/26
f 12/21/27 30/75/28 31/78/29 5/26/30
f 34/84/31 35/85/32 12/18/33 5/5/34
f 38/92/35 39/93/36 6/30/37 11/23/38
f 21/58/39 22/59/40 10/28/41 14/47/42
f 37/90/43 38/91/44 11/24/45 15/46/46
f 29/73/47 30/76/48 12/22/49 16/45/50
f 35/86/51 36/87/52 16/45/53 12/22/54
f 37/89/55 15/43/56 25/66/57 29/74/58 16/44/59 36/88/60
f 13/41/61 17/49/62 21/57/63 14/42/64 37/89/65 36/88/66
f 9/15/67 18/51/68 17/50/69 13/48/70
f 18/52/71 9/19/72 3/3/73 19/53/74
f 1/40/75 20/55/76 19/54/77 3/34/78
f 17/50/79 18/51/80 22/59/81 21/58/82
f 23/61/83 22/60/84 18/52/85 19/53/86
f 19/54/87 20/55/88 24/63/89 23/62/90
f 11/24/91 26/68/92 25/65/93 15/46/94
f 26/67/95 11/17/96 6/6/97 27/70/98
f 28/72/99 27/69/100 6/29/101 8/8/102
f 25/65/103 26/68/104 30/76/105 29/73/106
f 31/78/107 30/75/108 26/67/109 27/70/110
f 32/80/111 31/77/112 27/69/113 28/72/114
f 34/83/115 33/81/116 1/1/117 3/35/118
f 34/84/119 3/36/120 9/20/121 35/85/122
f 13/48/123 36/87/124 35/86/125 9/15/126
f 38/91/127 37/90/128 14/47/129 10/28/130
f 38/92/131 10/16/132 4/4/133 39/93/134
f 40/96/135 39/94/136 4/31/137 2/38/138
f 33/82/139 40/95/140 2/10/141 24/64/142 20/56/143 1/9/144
