# This file uses centimeters as units for non-parametric coordinates.

v -3.771646 3.192518 9.715647
v 3.771643 3.192518 9.715647
v -3.771646 3.192518 -9.715646
v 3.771643 3.192518 -9.715646
v -3.771646 1.379213 -9.715647
v 3.771643 1.379213 -9.715647
v -3.771646 1.379214 9.715646
v 3.771643 1.379214 9.715646
v -3.771646 4.571732 -5.615702
v 3.771643 4.571732 -5.615702
v 3.771643 0.000000 -5.615702
v -3.771646 0.000000 -5.615702
v -3.771646 4.571732 6.242850
v 3.771643 4.571732 6.242850
v 3.771643 -0.000000 6.242849
v -3.771646 -0.000000 6.242849
v -2.131758 3.192518 9.715647
v 1.458814 3.192518 -9.715646
v 1.487114 1.379213 -9.715647
v -2.103460 1.379214 9.715646
v 0.679692 4.571732 -5.615705
v 0.751040 0.000000 -5.615702
v -1.511573 4.571732 6.242850
v -1.440219 -0.000000 6.242849
vt 0.382447 0.470686
vt 0.467654 0.447097
vt 0.467671 0.446876
vt 0.382216 0.470686
vt 0.467694 0.446853
vt 0.382178 0.470477
vt 0.467713 0.447036
vt 0.382447 0.470477
vt 0.382179 0.470482
vt 0.467699 0.447798
vt 0.467676 0.447825
vt 0.382446 0.470482
vt 0.382218 0.470693
vt 0.467657 0.447678
vt 0.467716 0.447610
vt 0.382446 0.470693
vt 0.467965 0.447847
vt 0.467785 0.446883
vt 0.467807 0.446860
vt 0.467986 0.447819
vt 0.467807 0.447106
vt 0.467861 0.447045
vt 0.467918 0.447697
vt 0.467970 0.447628
vt 0.382446 0.471471
vt 0.382361 0.471471
vt 0.382362 0.471477
vt 0.382447 0.471477
vt 0.382447 0.471301
vt 0.382330 0.471301
vt 0.382328 0.471291
vt 0.382446 0.471291
vn 0.000000 0.947808 -0.318841
vn -0.000000 0.947808 -0.318841
vn 0.000000 0.947808 -0.318841
vn 0.000000 0.947808 -0.318841
vn 0.000000 -0.000000 -1.000000
vn 0.000000 0.000001 -1.000000
vn 0.000000 0.000001 -1.000000
vn 0.000000 -0.000000 -1.000000
vn 0.000000 -0.947808 -0.318841
vn 0.000000 -0.947808 -0.318841
vn 0.000000 -0.947808 -0.318841
vn 0.000000 -0.947808 -0.318841
vn 0.000000 0.000000 1.000000
vn 0.000000 -0.000001 1.000000
vn 0.000000 -0.000001 1.000000
vn 0.000000 0.000000 1.000000
vn 1.000000 0.000000 0.000000
vn 1.000000 0.000000 0.000000
vn 1.000000 0.000000 0.000000
vn 1.000000 0.000000 0.000000
vn -1.000000 0.000000 0.000000
vn -1.000000 0.000000 0.000000
vn -1.000000 0.000000 0.000000
vn -1.000000 0.000000 0.000000
vn 0.000000 1.000000 -0.000000
vn 0.000000 1.000000 -0.000000
vn 0.000000 1.000000 -0.000000
vn 0.000000 1.000000 -0.000000
vn 1.000000 0.000000 0.000000
vn 1.000000 0.000000 0.000000
vn 1.000000 0.000000 0.000000
vn 1.000000 0.000000 0.000000
vn 0.000000 -1.000000 0.000000
vn 0.000000 -1.000000 -0.000000
vn 0.000000 -1.000000 -0.000000
vn 0.000000 -1.000000 0.000000
vn -1.000000 0.000000 0.000000
vn -1.000000 0.000000 0.000000
vn -1.000000 0.000000 0.000000
vn -1.000000 0.000000 0.000000
vn 0.000000 0.929388 0.369105
vn 0.000000 0.929388 0.369104
vn 0.000000 0.929388 0.369104
vn 0.000000 0.929388 0.369105
vn 1.000000 0.000000 0.000000
vn 1.000000 0.000000 0.000000
vn 1.000000 0.000000 0.000000
vn 1.000000 0.000000 0.000000
vn 0.000000 -0.929388 0.369105
vn 0.000000 -0.929388 0.369105
vn 0.000000 -0.929388 0.369104
vn 0.000000 -0.929388 0.369105
vn -1.000000 0.000000 0.000000
vn -1.000000 0.000000 0.000000
vn -1.000000 0.000000 0.000000
vn -1.000000 0.000000 0.000000
vn 0.000000 0.947808 -0.318841
vn -0.000000 0.947808 -0.318841
vn 0.000000 0.947808 -0.318841
vn 0.000000 0.947808 -0.318841
vn 0.000000 0.000001 -1.000000
vn 0.000000 0.000001 -1.000000
vn 0.000000 -0.000000 -1.000000
vn 0.000000 -0.000000 -1.000000
vn 0.000000 -0.947808 -0.318841
vn 0.000000 -0.947808 -0.318841
vn 0.000000 -0.947808 -0.318841
vn 0.000000 -0.947808 -0.318841
vn 0.000000 -0.000001 1.000000
vn 0.000000 -0.000001 1.000000
vn 0.000000 0.000000 1.000000
vn 0.000000 0.000000 1.000000
vn 0.000000 1.000000 -0.000000
vn 0.000000 1.000000 -0.000000
vn 0.000000 1.000000 -0.000000
vn 0.000000 1.000000 -0.000000
vn 0.000000 -1.000000 -0.000000
vn 0.000000 -1.000000 -0.000000
vn 0.000000 -1.000000 0.000000
vn 0.000000 -1.000000 0.000000
vn 0.000000 0.929388 0.369104
vn 0.000000 0.929388 0.369104
vn 0.000000 0.929388 0.369105
vn 0.000000 0.929388 0.369105
vn 0.000000 -0.929388 0.369104
vn 0.000000 -0.929388 0.369105
vn 0.000000 -0.929388 0.369105
vn 0.000000 -0.929388 0.369105
s off
f 9/1/1 21/4/2 18/6/3 3/8/4
f 3/8/5 18/6/6 19/9/7 5/12/8
f 5/12/9 19/9/10 22/13/11 12/16/12
f 7/25/13 20/26/14 17/27/15 1/28/16
f 10/2/17 11/7/18 6/5/19 4/3/20
f 12/16/21 9/1/22 3/8/23 5/12/24
f 13/29/25 23/30/26 21/4/27 9/1/28
f 14/14/29 15/15/30 11/7/31 10/2/32
f 12/16/33 22/13/34 24/31/35 16/32/36
f 16/32/37 13/29/38 9/1/39 12/16/40
f 1/28/41 17/27/42 23/30/43 13/29/44
f 2/11/45 8/10/46 15/15/47 14/14/48
f 16/32/49 24/31/50 20/26/51 7/25/52
f 7/25/53 1/28/54 13/29/55 16/32/56
f 18/18/57 21/21/58 10/2/59 4/3/60
f 19/19/61 18/18/62 4/3/63 6/5/64
f 22/22/65 19/19/66 6/5/67 11/7/68
f 17/17/69 20/20/70 8/10/71 2/11/72
f 21/21/73 23/23/74 14/14/75 10/2/76
f 24/24/77 22/22/78 11/7/79 15/15/80
f 23/23/81 17/17/82 2/11/83 14/14/84
f 20/20/85 24/24/86 15/15/87 8/10/88
