# This file uses centimeters as units for non-parametric coordinates.

v -33.314270 -0.000000 15.127736
v -29.532808 -0.000000 18.909199
v 33.314270 -0.000000 15.127736
v 29.532808 -0.000000 18.909199
v -33.314270 -0.000000 -15.127744
v -29.532808 -0.000000 -18.909206
v 33.314270 -0.000000 -15.127744
v 29.532808 -0.000000 -18.909206
v 25.124186 0.000000 -14.209203
v 24.095921 0.000000 -13.180937
v 27.586004 0.000000 -14.209203
v 28.614269 0.000000 -13.180937
v 28.614269 0.000000 13.180937
v 27.586004 0.000000 14.209203
v 25.124186 0.000000 14.209203
v 24.095921 0.000000 13.180937
v -33.314270 3.844180 15.127736
v -32.374363 4.784086 14.738414
v -33.314270 3.844180 -15.127744
v -32.374363 4.784086 -14.738421
v -29.532808 3.844180 18.909199
v -29.143486 4.784086 17.969292
v 29.532808 3.844180 18.909199
v 29.143486 4.784086 17.969292
v 33.314270 3.844180 15.127736
v 32.374363 4.784086 14.738414
v 33.314270 3.844180 -15.127744
v 32.374363 4.784086 -14.738421
v -29.532808 3.844180 -18.909206
v -29.143486 4.784086 -17.969299
v 29.532808 3.844180 -18.909206
v 29.143486 4.784086 -17.969299
v 25.124186 3.827878 14.209203
v 24.728111 4.784086 15.165411
v 24.095921 3.827878 13.180937
v 23.139711 4.784086 13.577011
v 27.586004 3.827878 14.209203
v 27.982079 4.784086 15.165411
v 28.614269 3.827878 13.180937
v 29.570478 4.784086 13.577011
v 28.614269 3.827878 -13.180937
v 29.570478 4.784086 -13.577011
v 27.586004 3.827878 -14.209203
v 27.982079 4.784086 -15.165411
v 25.124186 3.827878 -14.209203
v 24.728111 4.784086 -15.165411
v 24.095921 3.827878 -13.180937
v 23.139711 4.784086 -13.577011
vt 0.101944 0.377916
vt 0.101941 0.377068
vt 0.102526 0.377902
vt 0.102483 0.377032
vt 0.101990 0.376996
vt 0.102423 0.377002
vt 0.102476 0.377958
vt 0.102008 0.377978
vt 0.101950 0.377921
vt 0.102004 0.377974
vt 0.101994 0.377016
vt 0.101936 0.377050
vt 0.102531 0.377897
vt 0.102472 0.377962
vt 0.102426 0.376983
vt 0.102479 0.377051
vt 0.102005 0.377108
vt 0.102024 0.377139
vt 0.102004 0.377074
vt 0.102009 0.377126
vt 0.102019 0.377060
vt 0.102008 0.377092
vt 0.102401 0.377048
vt 0.102023 0.377078
vt 0.102417 0.377061
vt 0.102398 0.377066
vt 0.102418 0.377095
vt 0.102414 0.377080
vt 0.102404 0.377110
vt 0.102415 0.377113
vt 0.102020 0.377122
vt 0.102401 0.377127
vt 0.101958 0.377910
vt 0.102014 0.377132
vt 0.101949 0.377050
vt 0.101990 0.377111
vt 0.101995 0.377004
vt 0.101990 0.377065
vt 0.102422 0.376991
vt 0.102012 0.377042
vt 0.102471 0.377034
vt 0.102407 0.377030
vt 0.102518 0.377891
vt 0.102431 0.377051
vt 0.102470 0.377943
vt 0.102433 0.377097
vt 0.102008 0.377959
vt 0.102411 0.377120
vn 0.000000 -1.000000 0.000000
vn 0.000000 -1.000000 0.000000
vn 0.000000 -1.000000 0.000000
vn 0.000000 -1.000000 0.000000
vn 0.000000 -1.000000 0.000000
vn 0.000000 -1.000000 0.000000
vn 0.000000 -1.000000 0.000000
vn 0.000000 -1.000000 0.000000
vn -0.000000 -1.000000 0.000000
vn -0.000000 -1.000000 0.000000
vn -0.000000 -1.000000 0.000000
vn -0.000000 -1.000000 0.000000
vn -0.000000 -1.000000 0.000000
vn -0.000000 -1.000000 0.000000
vn -0.000000 -1.000000 0.000000
vn -0.000000 -1.000000 0.000000
vn -0.000000 -1.000000 -0.000000
vn -0.000000 -1.000000 -0.000000
vn -0.000000 -1.000000 -0.000000
vn -0.000000 -1.000000 -0.000000
vn 0.000000 -1.000000 -0.000000
vn 0.000000 -1.000000 -0.000000
vn 0.000000 -1.000000 -0.000000
vn 0.000000 -1.000000 -0.000000
vn 0.000000 -1.000000 -0.000000
vn 0.000000 -1.000000 -0.000000
vn 0.000000 -1.000000 -0.000000
vn 0.000000 -1.000000 -0.000000
vn 0.000000 -1.000000 0.000000
vn 0.000000 -1.000000 0.000000
vn 0.000000 -1.000000 0.000000
vn 0.000000 -1.000000 0.000000
vn -0.707107 0.707106 0.000000
vn -0.707107 0.707106 0.000000
vn -0.707107 0.707106 0.000000
vn -0.707107 0.707106 0.000000
vn -0.500001 0.707106 0.500000
vn -0.500001 0.707106 0.500000
vn -0.500001 0.707106 0.500000
vn -0.500001 0.707106 0.500000
vn -0.500000 0.707108 -0.499999
vn -0.500000 0.707108 -0.499999
vn -0.500000 0.707108 -0.499999
vn -0.500000 0.707108 -0.499999
vn 0.000000 0.707107 0.707106
vn 0.000000 0.707107 0.707106
vn 0.000000 0.707107 0.707106
vn 0.000000 0.707107 0.707106
vn 0.500000 0.707107 0.500000
vn 0.500000 0.707107 0.500000
vn 0.500000 0.707107 0.500000
vn 0.500000 0.707107 0.500000
vn 0.707107 0.707106 0.000000
vn 0.707107 0.707106 0.000000
vn 0.707107 0.707106 0.000000
vn 0.707107 0.707106 0.000000
vn 0.500001 0.707106 -0.500000
vn 0.500001 0.707106 -0.500000
vn 0.500001 0.707106 -0.500000
vn 0.500001 0.707106 -0.500000
vn 0.000000 0.707107 -0.707107
vn 0.000000 0.707107 -0.707107
vn 0.000000 0.707107 -0.707107
vn 0.000000 0.707107 -0.707107
vn 0.000000 0.000000 1.000000
vn 0.000000 0.000000 1.000000
vn 0.000000 0.000000 1.000000
vn 0.000000 0.000000 1.000000
vn 0.000000 0.000000 -1.000000
vn 0.000000 0.000000 -1.000000
vn 0.000000 0.000000 -1.000000
vn 0.000000 0.000000 -1.000000
vn 1.000000 0.000000 0.000000
vn 1.000000 0.000000 0.000000
vn 1.000000 0.000000 0.000000
vn 1.000000 0.000000 0.000000
vn -1.000000 0.000000 0.000000
vn -1.000000 0.000000 0.000000
vn -1.000000 0.000000 0.000000
vn -1.000000 0.000000 0.000000
vn -0.707107 0.000000 0.707107
vn -0.707107 0.000000 0.707107
vn -0.707107 0.000000 0.707107
vn -0.707107 0.000000 0.707107
vn 0.707107 0.000000 0.707107
vn 0.707107 0.000000 0.707107
vn 0.707107 0.000000 0.707107
vn 0.707107 0.000000 0.707107
vn -0.707107 0.000000 -0.707107
vn -0.707107 0.000000 -0.707107
vn -0.707107 0.000000 -0.707107
vn -0.707107 0.000000 -0.707107
vn 0.707107 0.000000 -0.707107
vn 0.707107 0.000000 -0.707107
vn 0.707107 0.000000 -0.707107
vn 0.707107 0.000000 -0.707107
vn 0.000000 0.707107 -0.707107
vn 0.000000 0.707107 -0.707107
vn 0.000000 0.707107 -0.707107
vn 0.000000 0.707107 -0.707107
vn 0.500000 0.707107 -0.500000
vn 0.500000 0.707107 -0.500000
vn 0.500000 0.707107 -0.500000
vn 0.500000 0.707107 -0.500000
vn 0.707106 0.707108 0.000000
vn 0.707106 0.707108 0.000000
vn 0.707106 0.707108 0.000000
vn 0.707106 0.707108 0.000000
vn -0.500000 0.707107 -0.500000
vn -0.500000 0.707107 -0.500000
vn -0.500000 0.707107 -0.500000
vn -0.500000 0.707107 -0.500000
vn -0.707107 0.707107 0.000000
vn -0.707107 0.707107 0.000000
vn -0.707107 0.707107 0.000000
vn -0.707107 0.707107 0.000000
vn -0.500000 0.707107 0.500000
vn -0.500000 0.707107 0.500000
vn -0.500000 0.707107 0.500000
vn -0.500000 0.707107 0.500000
vn 0.000000 0.707107 0.707107
vn 0.000000 0.707107 0.707107
vn 0.000000 0.707107 0.707107
vn 0.000000 0.707107 0.707107
vn 0.500000 0.707107 0.500000
vn 0.500000 0.707107 0.500000
vn 0.500000 0.707107 0.500000
vn 0.500000 0.707107 0.500000
vn 0.707107 0.000000 -0.707107
vn 0.707107 0.000000 -0.707107
vn 0.707107 0.000000 -0.707107
vn 0.707107 0.000000 -0.707107
vn 0.000000 0.000000 -1.000000
vn 0.000000 0.000000 -1.000000
vn 0.000000 0.000000 -1.000000
vn 0.000000 0.000000 -1.000000
vn -0.707107 0.000000 -0.707107
vn -0.707107 0.000000 -0.707107
vn -0.707107 0.000000 -0.707107
vn -0.707107 0.000000 -0.707107
vn -1.000000 0.000000 0.000000
vn -1.000000 0.000000 0.000000
vn -1.000000 0.000000 0.000000
vn -1.000000 0.000000 0.000000
vn -0.707107 0.000000 0.707107
vn -0.707107 0.000000 0.707107
vn -0.707107 0.000000 0.707107
vn -0.707107 0.000000 0.707107
vn 0.000000 0.000000 1.000000
vn 0.000000 0.000000 1.000000
vn 0.000000 0.000000 1.000000
vn 0.000000 0.000000 1.000000
vn 0.707107 0.000000 0.707107
vn 0.707107 0.000000 0.707107
vn 0.707107 0.000000 0.707107
vn 0.707107 0.000000 0.707107
vn 1.000000 0.000000 0.000000
vn 1.000000 0.000000 0.000000
vn 1.000000 0.000000 0.000000
vn 1.000000 0.000000 0.000000
vn -0.000000 1.000000 0.000000
vn -0.000000 1.000000 0.000000
vn -0.000000 1.000000 0.000000
vn -0.000000 1.000000 0.000000
vn -0.000000 1.000000 0.000000
vn 0.000000 1.000000 0.000000
vn 0.000000 1.000000 0.000000
vn -0.000000 1.000000 0.000000
vn 0.000000 1.000000 0.000000
vn 0.000000 1.000000 0.000000
vn 0.000000 1.000000 0.000000
vn 0.000000 1.000000 0.000000
vn 0.000000 1.000000 0.000000
vn 0.000000 1.000000 -0.000000
vn 0.000000 1.000000 -0.000000
vn 0.000000 1.000000 0.000000
vn 0.000000 1.000000 -0.000000
vn 0.000000 1.000000 -0.000000
vn 0.000000 1.000000 -0.000000
vn 0.000000 1.000000 -0.000000
vn 0.000000 1.000000 -0.000000
vn -0.000000 1.000000 -0.000000
vn -0.000000 1.000000 -0.000000
vn 0.000000 1.000000 -0.000000
vn -0.000000 1.000000 -0.000000
vn -0.000000 1.000000 0.000000
vn -0.000000 1.000000 0.000000
vn -0.000000 1.000000 -0.000000
vn -0.000000 1.000000 0.000000
vn -0.000000 1.000000 0.000000
vn -0.000000 1.000000 0.000000
vn -0.000000 1.000000 0.000000
s off
f 5/14/1 6/3/2 9/30/3 10/32/4
f 6/3/5 8/16/6 11/28/7 9/30/8
f 8/16/9 7/6/10 12/26/11 11/28/12
f 7/6/13 3/11/14 13/24/15 12/26/16
f 3/11/17 4/2/18 14/22/19 13/24/20
f 4/2/21 2/9/22 15/20/23 14/22/24
f 2/9/25 1/8/26 16/18/27 15/20/28
f 1/8/29 5/14/30 10/32/31 16/18/32
f 17/10/33 18/47/34 20/45/35 19/7/36
f 18/47/37 17/10/38 21/1/39 22/33/40
f 19/7/41 20/45/42 30/43/43 29/13/44
f 22/33/45 21/1/46 23/12/47 24/35/48
f 24/35/49 23/12/50 25/5/51 26/37/52
f 26/37/53 25/5/54 27/15/55 28/39/56
f 28/39/57 27/15/58 31/4/59 32/41/60
f 29/13/61 30/43/62 32/41/63 31/4/64
f 21/1/65 2/9/66 4/2/67 23/12/68
f 6/3/69 29/13/70 31/4/71 8/16/72
f 25/5/73 3/11/74 7/6/75 27/15/76
f 19/7/77 5/14/78 1/8/79 17/10/80
f 1/8/81 2/9/82 21/1/83 17/10/84
f 4/2/85 3/11/86 25/5/87 23/12/88
f 19/7/89 29/13/90 6/3/91 5/14/92
f 31/4/93 27/15/94 7/6/95 8/16/96
f 33/17/97 34/36/98 38/38/99 37/19/100
f 34/36/101 33/17/102 35/31/103 36/34/104
f 36/34/105 35/31/106 47/29/107 48/48/108
f 37/19/109 38/38/110 40/40/111 39/21/112
f 39/21/113 40/40/114 42/42/115 41/23/116
f 41/23/117 42/42/118 44/44/119 43/25/120
f 43/25/121 44/44/122 46/46/123 45/27/124
f 45/27/125 46/46/126 48/48/127 47/29/128
f 35/31/129 33/17/130 15/20/131 16/18/132
f 33/17/133 37/19/134 14/22/135 15/20/136
f 37/19/137 39/21/138 13/24/139 14/22/140
f 39/21/141 41/23/142 12/26/143 13/24/144
f 41/23/145 43/25/146 11/28/147 12/26/148
f 43/25/149 45/27/150 9/30/151 11/28/152
f 45/27/153 47/29/154 10/32/155 9/30/156
f 47/29/157 35/31/158 16/18/159 10/32/160
f 18/47/161 22/33/162 34/36/163 36/34/164
f 22/33/165 24/35/166 38/38/167 34/36/168
f 24/35/169 26/37/170 40/40/171 38/38/172
f 26/37/173 28/39/174 42/42/175 40/40/176
f 28/39/177 32/41/178 44/44/179 42/42/180
f 32/41/181 30/43/182 46/46/183 44/44/184
f 30/43/185 20/45/186 48/48/187 46/46/188
f 20/45/189 18/47/190 36/34/191 48/48/192
