# This file uses centimeters as units for non-parametric coordinates.

v 1.514084 -21.693758 -2.622414
v -1.514069 -21.693758 -2.622414
v -3.028145 -21.693758 0.000050
v -1.514069 -21.693758 2.622505
v 1.514084 -21.693758 2.622505
v 3.028168 -21.693758 0.000050
v 2.871050 0.000000 -4.972748
v -2.871040 0.000000 -4.972748
v -5.742085 0.000004 0.000046
v -2.871040 0.000004 4.972843
v 2.871050 0.000004 4.972843
v 5.742107 0.000004 0.000046
v 0.000004 0.000004 0.000046
v 2.729786 -49.927456 -4.728127
v -2.729784 -49.927456 -4.728127
v -5.459570 -49.927456 0.000000
v -2.729786 -49.927456 4.728127
v 2.729785 -49.927456 4.728127
v 5.459570 -49.927456 0.000000
v 4.728128 -46.781239 -8.189354
v -4.728125 -46.781239 -8.189358
v -9.456253 -46.781239 0.000000
v -4.728127 -46.781239 8.189354
v 4.728126 -46.781239 8.189354
v 9.456253 -46.781239 0.000000
v 5.459572 -42.522678 -9.456253
v -5.459568 -42.522678 -9.456253
v -10.919140 -42.522678 0.000000
v -5.459571 -42.522678 9.456253
v 5.459569 -42.522678 9.456253
v 10.919140 -42.522678 0.000000
v 0.000000 -51.072353 0.000000
v 7.429533 -41.689411 -12.868322
v -7.429527 -41.689411 -12.868324
v -6.951648 -29.891308 -12.040611
v 6.951653 -29.891308 -12.040611
v -14.859059 -41.689411 -0.000004
v -13.903300 -29.891308 -0.000004
v -7.429531 -41.689411 12.868324
v -6.951651 -29.891308 12.040615
v 7.429529 -41.689411 12.868324
v 6.951650 -29.891308 12.040615
v 14.859059 -41.689411 0.000000
v 13.903300 -29.891308 0.000000
v -5.409650 -27.090412 -9.369793
v 5.409656 -27.090412 -9.369789
v -10.819302 -27.090412 0.000000
v -5.409653 -27.090412 9.369797
v 5.409651 -27.090412 9.369797
v 10.819302 -27.090412 0.000000
v -6.846461 -27.090412 0.000000
v -3.423231 -27.090412 5.929211
v 3.423230 -27.090412 5.929211
v 6.846461 -27.090412 0.000000
v 3.423233 -27.090412 -5.929207
v -3.423230 -27.090412 -5.929211
v -5.279225 -20.975605 0.000000
v -2.639613 -20.975605 4.571945
v 2.639613 -20.975605 4.571945
v 5.279225 -20.975605 0.000000
v 2.639615 -20.975605 -4.571941
v -2.639613 -20.975605 -4.571945
v -1.514069 -2.841187 -2.622410
v -3.028145 -2.841185 0.000046
v -1.514069 -2.841185 2.622505
v 1.514084 -2.841185 2.622505
v 3.028168 -2.841185 0.000046
v 1.514084 -2.841187 -2.622410
v 2.871050 -2.586754 -4.972748
v 5.742106 -2.586752 0.000046
v 2.871049 -2.586752 4.972843
v -2.871040 -2.586752 4.972843
v -5.742085 -2.586752 0.000046
v -2.871040 -2.586754 -4.972748
vt 0.135283 0.308228
vt 0.135283 0.308228
vt 0.135283 0.308228
vt 0.135283 0.308228
vt 0.135283 0.308228
vt 0.135283 0.308228
vt 0.135283 0.308228
vt 0.135283 0.308228
vt 0.135283 0.308228
vt 0.135283 0.308228
vt 0.135283 0.308228
vt 0.135283 0.308228
vt 0.135283 0.308228
vt 0.135283 0.308228
vt 0.135283 0.308228
vt 0.135283 0.308228
vt 0.135283 0.308228
vt 0.135283 0.308228
vt 0.135283 0.308228
vt 0.135283 0.308228
vt 0.135283 0.308228
vt 0.090091 0.230881
vt 0.090091 0.230881
vt 0.090091 0.230881
vt 0.090091 0.230881
vt 0.090091 0.230881
vt 0.090092 0.230881
vt 0.090091 0.230881
vt 0.090091 0.230881
vt 0.090091 0.230881
vt 0.090091 0.230881
vt 0.090091 0.230881
vt 0.090092 0.230881
vt 0.090091 0.230881
vt 0.090091 0.230881
vt 0.090092 0.230881
vt 0.090091 0.230881
vt 0.090091 0.230881
vt 0.090092 0.230881
vt 0.132676 0.305620
vt 0.132676 0.305620
vt 0.132676 0.305620
vt 0.132676 0.305620
vt 0.132676 0.305620
vt 0.132676 0.305620
vt 0.132676 0.305620
vt 0.132676 0.305620
vt 0.132676 0.305620
vt 0.132676 0.305620
vt 0.132676 0.305620
vt 0.132676 0.305620
vt 0.132676 0.305620
vt 0.132676 0.305620
vt 0.132676 0.305620
vt 0.132676 0.305620
vt 0.132676 0.305620
vt 0.132676 0.305620
vt 0.132676 0.305620
vt 0.132676 0.305620
vt 0.132676 0.305620
vt 0.090091 0.230881
vt 0.132676 0.305620
vt 0.132676 0.305620
vt 0.132676 0.305620
vt 0.132676 0.305620
vt 0.132676 0.305620
vt 0.132676 0.305620
vt 0.132676 0.305620
vt 0.132676 0.305620
vt 0.132676 0.305620
vt 0.132676 0.305620
vt 0.132676 0.305620
vt 0.132676 0.305620
vt 0.132676 0.305620
vt 0.132676 0.305620
vt 0.132676 0.305620
vt 0.132676 0.305620
vt 0.132676 0.305620
vt 0.132676 0.305620
vt 0.132676 0.305620
vt 0.135283 0.308228
vt 0.135283 0.308228
vt 0.135283 0.308228
vt 0.135283 0.308228
vt 0.135283 0.308228
vt 0.135283 0.308228
vt 0.135283 0.308228
vt 0.135283 0.308228
vt 0.135283 0.308228
vt 0.135283 0.308228
vt 0.135283 0.308228
vt 0.135283 0.308228
vt 0.135283 0.308228
vt 0.135283 0.308228
vn 0.000000 -0.994192 -0.107625
vn 0.000000 -0.994192 -0.107625
vn 0.000000 -0.994192 -0.107625
vn 0.000000 -0.994192 -0.107625
vn -0.093206 -0.994192 -0.053812
vn -0.093206 -0.994192 -0.053812
vn -0.093206 -0.994192 -0.053812
vn -0.093206 -0.994192 -0.053812
vn -0.093206 -0.994192 0.053812
vn -0.093206 -0.994192 0.053812
vn -0.093206 -0.994192 0.053812
vn -0.093206 -0.994192 0.053812
vn 0.000000 -0.994192 0.107625
vn 0.000000 -0.994192 0.107625
vn 0.000000 -0.994192 0.107625
vn 0.000000 -0.994192 0.107625
vn 0.093206 -0.994192 0.053813
vn 0.093206 -0.994192 0.053813
vn 0.093206 -0.994192 0.053813
vn 0.093206 -0.994192 0.053813
vn 0.093206 -0.994192 -0.053812
vn 0.093206 -0.994192 -0.053812
vn 0.093206 -0.994192 -0.053812
vn 0.093206 -0.994192 -0.053812
vn 0.000000 1.000000 -0.000001
vn 0.000000 1.000000 -0.000001
vn 0.000000 1.000000 -0.000001
vn 0.000000 1.000000 -0.000001
vn 0.000000 1.000000 -0.000001
vn 0.000000 1.000000 -0.000001
vn 0.000000 1.000000 0.000000
vn 0.000000 1.000000 0.000000
vn 0.000000 1.000000 0.000000
vn 0.000000 1.000000 0.000000
vn 0.000000 1.000000 0.000000
vn 0.000000 1.000000 0.000000
vn 0.000000 1.000000 0.000000
vn 0.000000 1.000000 0.000000
vn 0.000000 1.000000 0.000000
vn 0.000000 1.000000 -0.000001
vn 0.000000 1.000000 -0.000001
vn 0.000000 1.000000 -0.000001
vn 0.000000 -0.739978 -0.672631
vn 0.000000 -0.739978 -0.672631
vn 0.000000 -0.739978 -0.672631
vn 0.000000 -0.739978 -0.672631
vn -0.582516 -0.739978 -0.336316
vn -0.582516 -0.739978 -0.336316
vn -0.582516 -0.739978 -0.336316
vn -0.582516 -0.739978 -0.336316
vn -0.582516 -0.739978 0.336316
vn -0.582516 -0.739978 0.336316
vn -0.582516 -0.739978 0.336316
vn -0.582516 -0.739978 0.336316
vn 0.000000 -0.739978 0.672631
vn 0.000000 -0.739978 0.672631
vn 0.000000 -0.739978 0.672631
vn 0.000000 -0.739978 0.672631
vn 0.582516 -0.739978 0.336315
vn 0.582516 -0.739978 0.336315
vn 0.582516 -0.739978 0.336315
vn 0.582516 -0.739978 0.336315
vn 0.582516 -0.739978 -0.336315
vn 0.582516 -0.739978 -0.336315
vn 0.582516 -0.739978 -0.336315
vn 0.582516 -0.739978 -0.336315
vn 0.000000 -0.285144 -0.958485
vn 0.000000 -0.285144 -0.958485
vn 0.000000 -0.285144 -0.958485
vn 0.000000 -0.285144 -0.958485
vn -0.830072 -0.285144 -0.479243
vn -0.830072 -0.285144 -0.479242
vn -0.830072 -0.285144 -0.479242
vn -0.830072 -0.285144 -0.479243
vn -0.830072 -0.285144 0.479242
vn -0.830072 -0.285144 0.479242
vn -0.830072 -0.285144 0.479242
vn -0.830072 -0.285144 0.479242
vn 0.000000 -0.285144 0.958485
vn 0.000000 -0.285144 0.958485
vn 0.000000 -0.285144 0.958485
vn 0.000000 -0.285144 0.958485
vn 0.830072 -0.285144 0.479242
vn 0.830072 -0.285144 0.479242
vn 0.830072 -0.285144 0.479242
vn 0.830072 -0.285144 0.479242
vn 0.830072 -0.285144 -0.479242
vn 0.830072 -0.285144 -0.479242
vn 0.830072 -0.285144 -0.479242
vn 0.830072 -0.285144 -0.479242
vn 0.000000 0.069984 -0.997548
vn 0.000000 0.069984 -0.997548
vn 0.000000 0.069984 -0.997548
vn 0.000000 0.069984 -0.997548
vn -0.863902 0.069984 -0.498774
vn -0.863902 0.069984 -0.498774
vn -0.863902 0.069984 -0.498774
vn -0.863902 0.069984 -0.498774
vn -0.863902 0.069984 0.498774
vn -0.863902 0.069984 0.498774
vn -0.863902 0.069984 0.498774
vn -0.863902 0.069984 0.498774
vn 0.000000 0.069984 0.997548
vn 0.000000 0.069984 0.997548
vn 0.000000 0.069984 0.997548
vn 0.000000 0.069984 0.997548
vn 0.863902 0.069984 0.498774
vn 0.863902 0.069984 0.498774
vn 0.863902 0.069984 0.498774
vn 0.863902 0.069984 0.498774
vn 0.863902 0.069984 -0.498774
vn 0.863902 0.069984 -0.498774
vn 0.863902 0.069984 -0.498774
vn 0.863902 0.069984 -0.498774
vn 0.000000 0.690102 -0.723712
vn 0.000000 0.690102 -0.723712
vn 0.000000 0.690102 -0.723712
vn 0.000000 0.690102 -0.723712
vn -0.626753 0.690102 -0.361856
vn -0.626753 0.690102 -0.361856
vn -0.626753 0.690102 -0.361856
vn -0.626753 0.690102 -0.361856
vn -0.626753 0.690102 0.361856
vn -0.626753 0.690102 0.361856
vn -0.626753 0.690102 0.361856
vn -0.626753 0.690102 0.361856
vn 0.000000 0.690102 0.723712
vn 0.000000 0.690102 0.723712
vn 0.000000 0.690102 0.723712
vn 0.000000 0.690102 0.723712
vn 0.626753 0.690102 0.361856
vn 0.626753 0.690102 0.361856
vn 0.626753 0.690102 0.361856
vn 0.626753 0.690102 0.361856
vn 0.626753 0.690102 -0.361856
vn 0.626753 0.690102 -0.361856
vn 0.626753 0.690102 -0.361856
vn 0.626753 0.690102 -0.361856
vn 0.000000 -0.971912 -0.235347
vn 0.000000 -0.971912 -0.235347
vn 0.000000 -0.971912 -0.235347
vn -0.203814 -0.971912 -0.117674
vn -0.203814 -0.971912 -0.117674
vn -0.203814 -0.971912 -0.117674
vn -0.203815 -0.971912 0.117673
vn -0.203815 -0.971912 0.117673
vn -0.203814 -0.971912 0.117673
vn 0.000000 -0.971912 0.235344
vn 0.000000 -0.971912 0.235344
vn 0.000000 -0.971912 0.235344
vn 0.203814 -0.971912 0.117674
vn 0.203814 -0.971912 0.117674
vn 0.203814 -0.971912 0.117674
vn 0.203815 -0.971912 -0.117673
vn 0.203815 -0.971912 -0.117673
vn 0.203815 -0.971912 -0.117673
vn 0.000000 1.000000 0.000000
vn 0.000000 1.000000 0.000000
vn 0.000000 1.000000 0.000000
vn 0.000000 1.000000 0.000000
vn 0.000000 1.000000 0.000000
vn 0.000000 1.000000 0.000000
vn 0.000000 1.000000 0.000000
vn 0.000000 1.000000 0.000000
vn 0.000000 -0.971451 -0.237239
vn 0.000000 -0.971451 -0.237239
vn 0.000000 -0.971451 -0.237239
vn 0.000000 -0.971451 -0.237239
vn -0.205456 -0.971451 -0.118620
vn -0.205456 -0.971451 -0.118620
vn -0.205456 -0.971451 -0.118620
vn -0.205456 -0.971451 -0.118620
vn -0.205456 -0.971451 0.118619
vn -0.205456 -0.971451 0.118619
vn -0.205456 -0.971451 0.118619
vn -0.205456 -0.971451 0.118619
vn 0.000000 -0.971451 0.237241
vn 0.000000 -0.971451 0.237241
vn 0.000000 -0.971451 0.237241
vn 0.000000 -0.971451 0.237241
vn 0.205456 -0.971451 0.118620
vn 0.205456 -0.971451 0.118620
vn 0.205456 -0.971451 0.118620
vn 0.205456 -0.971451 0.118620
vn 0.205456 -0.971451 -0.118620
vn 0.205456 -0.971451 -0.118620
vn 0.205456 -0.971451 -0.118620
vn 0.205456 -0.971451 -0.118620
vn 0.000000 1.000000 0.000000
vn 0.000000 1.000000 0.000000
vn 0.000000 1.000000 0.000000
vn 0.000000 1.000000 0.000000
vn 0.000000 1.000000 -0.000001
vn 0.000000 1.000000 -0.000001
vn 0.000000 1.000000 -0.000001
vn 0.000000 1.000000 -0.000001
vn 0.000000 1.000000 -0.000000
vn 0.000000 1.000000 -0.000000
vn 0.000000 1.000000 -0.000000
vn 0.000000 1.000000 -0.000000
vn 0.000000 1.000000 -0.000000
vn 0.000000 1.000000 -0.000000
vn 0.000000 1.000000 -0.000000
vn 0.000000 1.000000 -0.000000
vn 0.000000 1.000000 -0.000001
vn 0.000000 1.000000 -0.000001
vn 0.000000 1.000000 -0.000001
vn 0.000000 1.000000 -0.000001
vn 0.000000 1.000000 0.000000
vn 0.000000 1.000000 0.000000
vn 0.000000 1.000000 0.000000
vn 0.000000 1.000000 0.000000
vn -0.845449 0.216690 0.488120
vn -0.845449 0.216690 0.488120
vn -0.845449 0.216690 0.488120
vn -0.845449 0.216690 0.488120
vn 0.000000 0.216690 0.976241
vn 0.000000 0.216690 0.976241
vn 0.000000 0.216690 0.976241
vn 0.000000 0.216690 0.976241
vn 0.845449 0.216690 0.488120
vn 0.845449 0.216690 0.488120
vn 0.845449 0.216690 0.488120
vn 0.845449 0.216690 0.488120
vn 0.845449 0.216690 -0.488120
vn 0.845449 0.216690 -0.488120
vn 0.845449 0.216690 -0.488120
vn 0.845449 0.216690 -0.488120
vn 0.000001 0.216690 -0.976241
vn 0.000001 0.216690 -0.976241
vn 0.000001 0.216690 -0.976240
vn 0.000001 0.216690 -0.976240
vn -0.845449 0.216690 -0.488120
vn -0.845449 0.216690 -0.488120
vn -0.845449 0.216690 -0.488120
vn -0.845449 0.216690 -0.488120
vn -0.866026 0.000000 -0.500000
vn -0.866026 0.000000 -0.500000
vn -0.866026 0.000000 -0.500000
vn -0.866026 0.000000 -0.500000
vn -0.866025 0.000000 0.500000
vn -0.866025 0.000000 0.500000
vn -0.866025 0.000000 0.500000
vn -0.866025 0.000000 0.500000
vn 0.000000 0.000000 1.000000
vn 0.000000 0.000000 1.000000
vn 0.000000 0.000000 1.000000
vn 0.000000 0.000000 1.000000
vn 0.866024 0.000000 0.500002
vn 0.866024 0.000000 0.500002
vn 0.866024 0.000000 0.500002
vn 0.866024 0.000000 0.500002
vn 0.866025 0.000000 -0.500002
vn 0.866025 0.000000 -0.500002
vn 0.866025 0.000000 -0.500002
vn 0.866025 0.000000 -0.500002
vn 0.000000 0.000000 -1.000000
vn 0.000000 0.000000 -1.000000
vn 0.000000 0.000000 -1.000000
vn 0.000000 0.000000 -1.000000
vn 0.866024 -0.000000 -0.500002
vn 0.866024 -0.000000 -0.500002
vn 0.866024 -0.000000 -0.500002
vn 0.866024 -0.000000 -0.500002
vn 0.866024 -0.000000 0.500001
vn 0.866025 -0.000000 0.500002
vn 0.866024 -0.000000 0.500001
vn 0.866025 -0.000000 0.500002
vn 0.000000 0.000000 1.000000
vn 0.000000 0.000000 1.000000
vn 0.000000 0.000000 1.000000
vn 0.000000 0.000000 1.000000
vn -0.866026 0.000000 0.500000
vn -0.866026 0.000000 0.500000
vn -0.866026 0.000000 0.500000
vn -0.866026 0.000000 0.500000
vn -0.866025 0.000000 -0.500000
vn -0.866025 0.000000 -0.500000
vn -0.866025 0.000000 -0.500000
vn -0.866025 0.000000 -0.500000
vn 0.000000 0.000000 -1.000000
vn 0.000000 0.000000 -1.000000
vn 0.000000 0.000000 -1.000000
vn 0.000000 0.000000 -1.000000
s off
f 68/86/1 63/81/2 74/94/3 69/88/4
f 63/81/5 64/82/6 73/93/7 74/94/8
f 64/82/9 65/83/10 72/92/11 73/93/12
f 65/83/13 66/84/14 71/91/15 72/92/16
f 66/84/17 67/85/18 70/90/19 71/91/20
f 67/85/21 68/87/22 69/89/23 70/90/24
f 7/19/25 8/18/26 13/21/27
f 8/18/28 9/17/29 13/21/30
f 9/17/31 10/16/32 13/21/33
f 10/16/34 11/15/35 13/21/36
f 11/15/37 12/20/38 13/21/39
f 12/20/40 7/19/41 13/21/42
f 14/22/43 15/23/44 21/24/45 20/25/46
f 15/23/47 16/26/48 22/27/49 21/24/50
f 16/26/51 17/28/52 23/29/53 22/27/54
f 17/28/55 18/30/56 24/31/57 23/29/58
f 18/30/59 19/32/60 25/33/61 24/31/62
f 19/32/63 14/22/64 20/25/65 25/33/66
f 20/25/67 21/24/68 27/34/69 26/35/70
f 21/24/71 22/27/72 28/36/73 27/34/74
f 22/27/75 23/29/76 29/37/77 28/36/78
f 23/29/79 24/31/80 30/38/81 29/37/82
f 24/31/83 25/33/84 31/39/85 30/38/86
f 25/33/87 20/25/88 26/35/89 31/39/90
f 33/40/91 34/41/92 35/42/93 36/43/94
f 34/41/95 37/44/96 38/45/97 35/42/98
f 37/44/99 39/46/100 40/47/101 38/45/102
f 39/46/103 41/48/104 42/49/105 40/47/106
f 41/48/107 43/50/108 44/51/109 42/49/110
f 43/50/111 33/52/112 36/53/113 44/51/114
f 36/43/115 35/42/116 45/54/117 46/55/118
f 35/42/119 38/45/120 47/56/121 45/54/122
f 38/45/123 40/47/124 48/57/125 47/56/126
f 40/47/127 42/49/128 49/58/129 48/57/130
f 42/49/131 44/51/132 50/59/133 49/58/134
f 44/51/135 36/53/136 46/60/137 50/59/138
f 15/23/139 14/22/140 32/61/141
f 16/26/142 15/23/143 32/61/144
f 17/28/145 16/26/146 32/61/147
f 18/30/148 17/28/149 32/61/150
f 19/32/151 18/30/152 32/61/153
f 14/22/154 19/32/155 32/61/156
f 57/62/157 58/63/158 59/64/159 60/65/160
f 57/62/161 60/65/162 61/66/163 62/67/164
f 26/68/165 27/69/166 34/41/167 33/40/168
f 27/69/169 28/70/170 37/44/171 34/41/172
f 28/70/173 29/71/174 39/46/175 37/44/176
f 29/71/177 30/72/178 41/48/179 39/46/180
f 30/72/181 31/73/182 43/50/183 41/48/184
f 31/73/185 26/74/186 33/52/187 43/50/188
f 47/56/189 48/57/190 52/75/191 51/76/192
f 48/57/193 49/58/194 53/77/195 52/75/196
f 49/58/197 50/59/198 54/78/199 53/77/200
f 50/59/201 46/55/202 55/79/203 54/78/204
f 46/55/205 45/54/206 56/80/207 55/79/208
f 45/54/209 47/56/210 51/76/211 56/80/212
f 51/76/213 52/75/214 58/63/215 57/62/216
f 52/75/217 53/77/218 59/64/219 58/63/220
f 53/77/221 54/78/222 60/65/223 59/64/224
f 54/78/225 55/79/226 61/66/227 60/65/228
f 55/79/229 56/80/230 62/67/231 61/66/232
f 56/80/233 51/76/234 57/62/235 62/67/236
f 2/2/237 3/3/238 64/82/239 63/81/240
f 3/3/241 4/4/242 65/83/243 64/82/244
f 4/4/245 5/5/246 66/84/247 65/83/248
f 5/5/249 6/6/250 67/85/251 66/84/252
f 6/6/253 1/7/254 68/87/255 67/85/256
f 1/1/257 2/2/258 63/81/259 68/86/260
f 70/90/261 69/89/262 7/14/263 12/13/264
f 71/91/265 70/90/266 12/13/267 11/12/268
f 72/92/269 71/91/270 11/12/271 10/11/272
f 73/93/273 72/92/274 10/11/275 9/10/276
f 74/94/277 73/93/278 9/10/279 8/9/280
f 69/88/281 74/94/282 8/9/283 7/8/284
