# This file uses centimeters as units for non-parametric coordinates.

v 0.311157 5.309927 -1.531906
v -1.489685 5.309927 -0.946823
v -1.489685 5.309927 0.946640
v 0.311157 5.309927 1.531967
v 1.424133 5.309927 -0.000046
v 0.311401 40.094803 12.457870
v -1.493896 39.584984 12.457870
v -1.494080 37.919067 12.457870
v 0.311340 37.408817 12.457870
v 1.433350 38.752293 12.457870
v 0.311218 30.779060 -0.953445
v -1.491882 30.442791 -0.471237
v -1.492004 29.347467 1.095016
v 0.311218 29.010300 1.577011
v 1.428833 29.895412 0.311966
v 0.311340 40.124184 10.324326
v 1.431824 38.743305 11.010757
v 0.311218 37.361839 11.694626
v -1.493286 37.887108 11.434616
v -1.493286 39.599174 10.585861
v 0.311218 28.653406 -1.531906
v -1.490356 28.661392 -0.947403
v -1.490479 28.685354 0.946976
v 0.311157 28.692505 1.531509
v 1.425720 28.673622 -0.000229
v -7.691223 0.834011 13.170761
v 7.691284 0.834011 13.170761
v -7.691223 2.000309 13.170761
v 7.691284 2.000309 13.170761
v -7.691223 4.874802 -3.065201
v 7.691284 4.874802 -3.065201
v -7.691223 0.834011 -3.065201
v 7.691284 0.834011 -3.065201
v -7.691223 4.874802 4.319809
v 7.691284 4.874802 4.319809
v 7.691284 0.834011 4.319809
v -7.691223 0.834011 4.319809
v -6.210876 0.000000 14.541458
v -6.210876 0.000000 4.374008
v -6.210876 0.000000 -4.435959
v -6.210876 5.708814 -4.435959
v -6.210876 5.708814 4.374008
v -6.210876 1.647740 14.541458
v 6.210938 0.000000 4.374008
v 6.210938 0.000000 14.541458
v 6.210938 1.647740 14.541458
v 6.210938 5.708814 4.374008
v 6.210938 5.708814 -4.435959
v 6.210938 0.000000 -4.435959
v -8.598206 36.068329 22.045822
v 8.598145 36.068329 22.045822
v -8.598206 37.424713 20.966232
v 8.598145 37.424713 20.966232
v -8.598206 32.348030 14.904953
v 8.598145 32.348030 14.904953
v -8.598206 30.991644 15.984543
v 8.598145 30.991644 15.984543
v 8.598145 36.969151 15.313950
v -8.598206 36.969151 15.313950
v -8.598206 37.944633 16.478622
v 8.598145 37.944633 16.478622
v -7.171387 31.522034 16.686935
v -7.171387 35.469910 21.400436
v 7.171448 31.522034 16.686935
v 7.171448 35.469910 21.400436
v 3.544800 35.852005 14.262436
v 3.544800 38.180367 17.042374
v -3.544739 35.852005 14.262436
v -3.544739 38.180367 17.042374
v 0.000000 33.080967 17.436264
v 0.000000 34.713951 19.385849
v -2.539001 33.966461 17.202988
v -2.539001 35.034370 18.478012
v 2.539063 33.966461 17.202988
v 2.539063 35.034363 18.477951
v 1.133667 2.798079 11.661423
v 1.133667 4.558480 7.254044
v -1.133606 4.558480 7.254044
v -1.133606 2.798079 11.661423
v 0.779663 4.235132 11.826889
v 0.779663 5.056762 7.861649
v -0.779602 5.056762 7.861649
v -0.779602 4.235132 11.826889
v -3.810547 37.910877 25.869247
v -3.178284 36.757271 24.491898
v 0.000000 39.568890 17.017654
v 0.000000 36.229740 13.030869
v -3.178284 28.688107 14.857834
v -3.810547 27.534500 13.480484
v -3.810547 29.285292 12.014175
v -2.799805 40.265381 12.066086
v -2.799805 41.984665 14.173691
v -3.810547 39.353088 24.661362
v 3.810608 37.910877 25.869247
v 3.178345 36.757271 24.491898
v 3.178345 28.688107 14.857834
v 3.810608 27.534500 13.480484
v 3.810608 29.285292 12.014175
v 2.799744 40.265381 12.066086
v 2.799744 41.984665 14.173691
v 3.810608 39.353088 24.661362
vt 0.078930 0.301453
vt 0.078860 0.301485
vt 0.078656 0.301022
vt 0.078724 0.300975
vt 0.078805 0.301458
vt 0.078626 0.301054
vt 0.078840 0.301412
vt 0.078674 0.301028
vt 0.078916 0.301409
vt 0.078734 0.300980
vt 0.078928 0.301504
vt 0.078860 0.301528
vt 0.078805 0.301478
vt 0.078840 0.301426
vt 0.078915 0.301441
vt 0.078660 0.300925
vt 0.078691 0.300946
vt 0.078653 0.301009
vt 0.078597 0.301028
vt 0.078601 0.300977
vt 0.078816 0.301905
vt 0.078763 0.301925
vt 0.078723 0.301883
vt 0.078750 0.301838
vt 0.078807 0.301851
vt 0.102186 0.376742
vt 0.102183 0.376719
vt 0.102165 0.376937
vt 0.102169 0.376960
vt 0.102389 0.376653
vt 0.102618 0.376644
vt 0.102656 0.376857
vt 0.102398 0.376868
vt 0.102611 0.376724
vt 0.102647 0.376938
vt 0.102391 0.376733
vt 0.102400 0.376949
vt 0.102390 0.376643
vt 0.102391 0.376699
vt 0.102581 0.376692
vt 0.102585 0.376635
vt 0.102622 0.376957
vt 0.102402 0.376967
vt 0.102400 0.376910
vt 0.102628 0.376900
vt 0.080774 0.256656
vt 0.081287 0.256057
vt 0.081535 0.256197
vt 0.081024 0.256809
vt 0.102214 0.376706
vt 0.102212 0.376690
vt 0.102196 0.376977
vt 0.102194 0.376960
vt 0.101932 0.376016
vt 0.101900 0.376051
vt 0.102296 0.376026
vt 0.102236 0.375977
vt 0.102247 0.376307
vt 0.102286 0.376272
vt 0.102203 0.376151
vt 0.102218 0.376137
vt 0.102209 0.376031
vt 0.102178 0.376005
vt 0.102058 0.376011
vt 0.102043 0.376027
vt 0.102141 0.376260
vt 0.102180 0.376288
vt 0.102193 0.376407
vt 0.102174 0.376424
vt 0.101972 0.376286
vt 0.101990 0.376267
vt 0.004896 0.123558
vt 0.004567 0.123658
vt 0.004533 0.123738
vt 0.004875 0.123610
vt 0.004218 0.123568
vt 0.004194 0.123620
vt 0.090793 0.328494
vt 0.090779 0.328555
vt 0.102239 0.376430
vt 0.090597 0.327945
vt 0.090655 0.328019
vt 0.091124 0.328493
vt 0.091170 0.328555
vt 0.091408 0.328331
vt 0.091137 0.327767
vt 0.090908 0.328244
vt 0.090899 0.327791
vt 0.090687 0.327671
vt 0.102330 0.376754
vt 0.102236 0.376783
vt 0.102330 0.376793
vt 0.102234 0.376823
vt 0.101854 0.376163
vt 0.102282 0.376393
vt 0.102294 0.376105
vt 0.102229 0.376054
vt 0.101889 0.376125
vt 0.080753 0.256804
vt 0.081309 0.256026
vt 0.081667 0.256228
vt 0.081111 0.257026
vt 0.004558 0.122938
vt 0.004081 0.123105
vt 0.004027 0.123214
vt 0.004487 0.123092
vt 0.005027 0.123092
vt 0.004982 0.123201
vt 0.091057 0.327527
vt 0.090839 0.327626
vt 0.091297 0.328241
vt 0.091525 0.328005
vt 0.091331 0.327778
vt 0.091442 0.327715
vt 0.091279 0.327609
vt 0.090640 0.328022
vt 0.090526 0.327745
vt 0.091104 0.327657
vt 0.091325 0.328301
vt 0.091360 0.328022
vt 0.091284 0.328062
vt 0.090508 0.328339
vt 0.090570 0.328309
vt 0.090408 0.328043
vt 0.090495 0.328078
vt 0.091017 0.328011
vt 0.091037 0.327933
vn -0.300757 0.734435 -0.608400
vn -0.300757 0.734435 -0.608400
vn -0.300757 0.734435 -0.608400
vn -0.300757 0.734435 -0.608400
vn -1.000000 -0.000038 -0.000094
vn -1.000000 -0.000038 -0.000094
vn -1.000000 -0.000038 -0.000094
vn -1.000000 -0.000038 -0.000094
vn -0.300695 -0.735437 0.607219
vn -0.300695 -0.735437 0.607219
vn -0.300695 -0.735437 0.607219
vn -0.300695 -0.735437 0.607219
vn 0.800422 -0.462164 0.381745
vn 0.800422 -0.462164 0.381745
vn 0.800422 -0.462164 0.381745
vn 0.800422 -0.462164 0.381745
vn 0.800472 0.461639 -0.382275
vn 0.800472 0.461639 -0.382275
vn 0.800472 0.461639 -0.382275
vn 0.800472 0.461639 -0.382275
vn -0.295603 0.248848 -0.922330
vn -0.295603 0.248848 -0.922330
vn -0.295603 0.248848 -0.922330
vn -0.295603 0.248848 -0.922330
vn -0.999999 -0.001141 -0.000424
vn -0.999999 -0.001141 -0.000424
vn -0.999999 -0.001141 -0.000424
vn -0.999999 -0.001141 -0.000424
vn -0.294360 -0.185607 0.937498
vn -0.294360 -0.185607 0.937498
vn -0.294360 -0.185607 0.937498
vn -0.294360 -0.185607 0.937498
vn 0.794538 -0.138969 0.591097
vn 0.794538 -0.138969 0.591097
vn 0.794538 -0.138969 0.591097
vn 0.794538 -0.138969 0.591097
vn 0.794959 0.155298 -0.586450
vn 0.794959 0.155298 -0.586450
vn 0.794959 0.155298 -0.586450
vn 0.794959 0.155298 -0.586450
vn 0.771570 0.636136 0.003282
vn 0.771570 0.636136 0.003282
vn 0.771570 0.636136 0.003282
vn 0.771570 0.636136 0.003282
vn 0.773940 -0.633071 0.015451
vn 0.773939 -0.633071 0.015451
vn 0.773940 -0.633071 0.015451
vn 0.773940 -0.633071 0.015451
vn -0.278300 -0.959562 0.042296
vn -0.278300 -0.959562 0.042296
vn -0.278300 -0.959562 0.042296
vn -0.278300 -0.959563 0.042296
vn -1.000000 -0.000067 -0.000484
vn -1.000000 -0.000067 -0.000484
vn -1.000000 -0.000067 -0.000484
vn -1.000000 -0.000067 -0.000484
vn -0.274851 0.961431 0.010419
vn -0.274851 0.961430 0.010419
vn -0.274851 0.961430 0.010419
vn -0.274851 0.961431 0.010419
vn -0.308800 -0.000016 -0.951127
vn -0.308800 -0.000016 -0.951127
vn -0.308800 -0.000016 -0.951127
vn -0.308800 -0.000016 -0.951127
vn -1.000000 -0.000031 -0.000032
vn -1.000000 -0.000031 -0.000032
vn -1.000000 -0.000031 -0.000032
vn -1.000000 -0.000031 -0.000032
vn -0.308861 -0.000003 0.951107
vn -0.308861 -0.000003 0.951107
vn -0.308861 -0.000003 0.951107
vn -0.308861 -0.000003 0.951107
vn 0.808817 -0.000019 0.588061
vn 0.808817 -0.000019 0.588061
vn 0.808817 -0.000019 0.588061
vn 0.808817 -0.000019 0.588061
vn 0.808805 -0.000031 -0.588077
vn 0.808805 -0.000031 -0.588077
vn 0.808805 -0.000031 -0.588077
vn 0.808805 -0.000031 -0.588077
vn 0.000000 0.000000 1.000000
vn 0.000000 0.000000 1.000000
vn 0.000000 0.000000 1.000000
vn 0.000000 0.000000 1.000000
vn 0.000000 1.000000 0.000000
vn 0.000000 1.000000 0.000000
vn 0.000000 1.000000 0.000000
vn 0.000000 1.000000 0.000000
vn 0.000000 0.000000 -1.000000
vn 0.000000 0.000000 -1.000000
vn 0.000000 0.000000 -1.000000
vn 0.000000 0.000000 -1.000000
vn 0.000000 -1.000000 0.000000
vn 0.000000 -1.000000 0.000000
vn 0.000000 -1.000000 0.000000
vn 0.000000 -1.000000 0.000000
vn 1.000000 0.000000 0.000000
vn 1.000000 0.000000 0.000000
vn 1.000000 0.000000 0.000000
vn 1.000000 0.000000 0.000000
vn -1.000000 0.000000 0.000000
vn -1.000000 0.000000 0.000000
vn -1.000000 0.000000 0.000000
vn -1.000000 0.000000 0.000000
vn 0.000000 0.979200 0.202898
vn 0.000000 0.979200 0.202898
vn 0.000000 0.979200 0.202898
vn 0.000000 0.979200 0.202898
vn 1.000000 0.000000 0.000000
vn 1.000000 0.000000 0.000000
vn 1.000000 0.000000 0.000000
vn 1.000000 0.000000 0.000000
vn 0.000000 -1.000000 0.000000
vn 0.000000 -1.000000 0.000000
vn 0.000000 -1.000000 0.000000
vn 0.000000 -1.000000 0.000000
vn -1.000000 0.000000 0.000000
vn -1.000000 0.000000 0.000000
vn -1.000000 0.000000 0.000000
vn -1.000000 0.000000 0.000000
vn -0.490850 -0.871244 0.000000
vn -0.490850 -0.871244 0.000000
vn -0.490850 -0.871244 0.000000
vn -0.490850 -0.871244 0.000000
vn -0.490849 -0.871244 0.000000
vn -0.490849 -0.871244 0.000000
vn -0.490849 -0.871244 0.000000
vn -0.490849 -0.871244 0.000000
vn -0.679426 0.000000 -0.733744
vn -0.679426 0.000000 -0.733744
vn -0.679426 0.000000 -0.733744
vn -0.679426 0.000000 -0.733744
vn -0.490850 0.871244 0.000000
vn -0.490850 0.871244 0.000000
vn -0.490850 0.871244 0.000000
vn -0.490850 0.871244 0.000000
vn -0.302749 0.895390 0.326528
vn -0.302749 0.895390 0.326528
vn -0.302749 0.895390 0.326528
vn -0.302749 0.895390 0.326528
vn -0.679410 0.000000 0.733759
vn -0.679410 0.000000 0.733759
vn -0.679410 0.000000 0.733759
vn -0.679410 0.000000 0.733759
vn 0.490849 -0.871244 0.000000
vn 0.490850 -0.871244 0.000000
vn 0.490850 -0.871244 0.000000
vn 0.490850 -0.871244 0.000000
vn 0.679410 0.000000 0.733759
vn 0.679410 0.000000 0.733759
vn 0.679410 0.000000 0.733759
vn 0.679410 0.000000 0.733759
vn 0.302749 0.895390 0.326528
vn 0.302749 0.895390 0.326528
vn 0.302749 0.895390 0.326528
vn 0.302749 0.895390 0.326528
vn 0.490850 0.871244 0.000000
vn 0.490850 0.871244 0.000000
vn 0.490850 0.871244 0.000000
vn 0.490850 0.871244 0.000000
vn 0.679426 0.000000 -0.733744
vn 0.679426 0.000000 -0.733744
vn 0.679426 0.000000 -0.733744
vn 0.679426 0.000000 -0.733744
vn 0.490850 -0.871244 0.000000
vn 0.490850 -0.871244 0.000000
vn 0.490850 -0.871244 0.000000
vn 0.490850 -0.871244 0.000000
vn 0.650820 0.480487 0.587849
vn 0.650820 0.480487 0.587849
vn 0.650820 0.480487 0.587849
vn 0.650820 0.480486 0.587849
vn 0.621211 0.604922 -0.498163
vn 0.621211 0.604922 -0.498163
vn 0.621211 0.604922 -0.498163
vn 0.621211 0.604922 -0.498163
vn 0.655235 -0.478776 -0.584329
vn 0.655235 -0.478776 -0.584329
vn 0.655235 -0.478776 -0.584329
vn 0.655235 -0.478776 -0.584329
vn 1.000000 0.000000 0.000000
vn 1.000000 0.000000 0.000000
vn 1.000000 0.000000 0.000000
vn 1.000000 0.000000 0.000000
vn 1.000000 0.000000 0.000000
vn 1.000000 0.000000 0.000000
vn -1.000000 0.000000 0.000000
vn -1.000000 0.000000 0.000000
vn -1.000000 0.000000 0.000000
vn -1.000000 0.000000 0.000000
vn -1.000000 0.000000 0.000000
vn -1.000000 0.000000 0.000000
vn -0.310244 -0.728787 0.610425
vn -0.310244 -0.728787 0.610425
vn -0.310244 -0.728787 0.610425
vn -0.310244 -0.728787 0.610425
vn 0.310243 -0.728783 0.610430
vn 0.310243 -0.728783 0.610430
vn 0.310243 -0.728783 0.610430
vn 0.310243 -0.728783 0.610430
vn 0.501757 0.058008 -0.863061
vn 0.501757 0.058008 -0.863061
vn 0.501757 0.058008 -0.863061
vn 0.501757 0.058008 -0.863061
vn 0.500337 0.853461 0.145834
vn 0.500337 0.853461 0.145834
vn 0.500337 0.853461 0.145834
vn 0.500337 0.853461 0.145834
vn 0.147369 -0.692267 0.706434
vn 0.147369 -0.692267 0.706434
vn 0.147369 -0.692267 0.706434
vn 0.147369 -0.692267 0.706434
vn 0.000000 -0.766627 0.642093
vn 0.000000 -0.766627 0.642093
vn 0.000000 -0.766627 0.642093
vn 0.000000 -0.766627 0.642093
vn -0.147365 -0.692265 0.706437
vn -0.147365 -0.692265 0.706437
vn -0.147365 -0.692265 0.706437
vn -0.147365 -0.692265 0.706437
vn -0.031088 -0.766254 0.641786
vn -0.031088 -0.766254 0.641786
vn -0.031088 -0.766254 0.641786
vn -0.031088 -0.766254 0.641786
vn 0.031091 -0.766253 0.641786
vn 0.031091 -0.766254 0.641786
vn 0.031091 -0.766253 0.641786
vn 0.031091 -0.766254 0.641786
vn 0.147688 -0.817035 0.557353
vn 0.147688 -0.817035 0.557353
vn 0.147688 -0.817035 0.557353
vn 0.147688 -0.817035 0.557353
vn -0.401221 0.096230 0.910912
vn -0.401221 0.096230 0.910912
vn -0.401221 0.096230 0.910913
vn -0.401221 0.096230 0.910912
vn 0.000000 0.235441 0.971889
vn 0.000000 0.235441 0.971889
vn 0.000000 0.235441 0.971889
vn 0.401223 0.096230 0.910911
vn 0.401223 0.096230 0.910911
vn 0.401223 0.096230 0.910911
vn 0.401223 0.096230 0.910911
vn 0.802403 -0.457507 0.383192
vn 0.802403 -0.457507 0.383192
vn 0.802403 -0.457507 0.383192
vn 0.802403 -0.457507 0.383192
vn -0.802403 -0.457507 0.383192
vn -0.802403 -0.457507 0.383192
vn -0.802403 -0.457507 0.383192
vn -0.802403 -0.457507 0.383192
vn -0.396485 -0.897944 -0.191040
vn -0.396485 -0.897944 -0.191040
vn -0.396485 -0.897944 -0.191040
vn -0.396485 -0.897944 -0.191040
vn 0.114575 -0.808196 -0.577661
vn 0.114575 -0.808196 -0.577661
vn 0.114575 -0.808196 -0.577661
vn 0.163243 0.432533 0.886717
vn 0.163243 0.432533 0.886717
vn 0.163243 0.432533 0.886717
vn -0.254742 -0.851277 -0.458730
vn -0.254742 -0.851278 -0.458730
vn -0.254742 -0.851277 -0.458730
vn -0.282448 0.322055 0.903606
vn -0.282448 0.322055 0.903606
vn -0.282448 0.322055 0.903606
vn -0.957378 -0.221430 0.185461
vn -0.957378 -0.221430 0.185461
vn -0.957378 -0.221430 0.185461
vn -0.957378 -0.221430 0.185461
vn 0.254736 -0.851278 -0.458732
vn 0.254736 -0.851278 -0.458732
vn 0.254736 -0.851278 -0.458732
vn 0.957378 -0.221430 0.185463
vn 0.957378 -0.221430 0.185463
vn 0.957378 -0.221430 0.185463
vn 0.957378 -0.221430 0.185463
vn 0.282468 0.322031 0.903608
vn 0.282468 0.322031 0.903608
vn 0.282468 0.322031 0.903608
vn 0.000001 0.928662 0.370926
vn 0.000001 0.928662 0.370926
vn 0.000001 0.928662 0.370926
vn 0.000001 0.928662 0.370926
vn 0.000000 0.928663 0.370924
vn 0.000000 0.928663 0.370924
vn 0.000000 0.928663 0.370924
vn 0.000000 0.928663 0.370924
vn -0.000001 0.928662 0.370926
vn -0.000001 0.928662 0.370926
vn -0.000001 0.928662 0.370926
vn -0.000001 0.928662 0.370926
vn 0.000000 0.928663 0.370925
vn 0.000000 0.928663 0.370925
vn 0.000000 0.928663 0.370925
vn 0.000000 0.928663 0.370925
vn 0.946529 0.308293 0.095074
vn 0.946529 0.308293 0.095074
vn 0.946528 0.308293 0.095074
vn 0.946529 0.308293 0.095074
vn 0.000000 0.773239 -0.634115
vn 0.000000 0.773239 -0.634115
vn 0.000000 0.773239 -0.634115
vn 0.000000 0.773239 -0.634115
vn -0.946528 0.308293 0.095074
vn -0.946529 0.308293 0.095074
vn -0.946528 0.308293 0.095074
vn -0.946528 0.308293 0.095074
vn 0.000000 -0.114387 0.993436
vn 0.000000 -0.114387 0.993436
vn 0.000000 -0.114387 0.993436
vn 0.000000 -0.114387 0.993436
vn -0.147684 -0.817037 0.557351
vn -0.147684 -0.817037 0.557351
vn -0.147684 -0.817037 0.557351
vn -0.147684 -0.817037 0.557351
vn 0.396488 -0.897943 -0.191040
vn 0.396488 -0.897943 -0.191040
vn 0.396488 -0.897943 -0.191040
vn 0.396488 -0.897943 -0.191040
vn -0.163245 0.432533 0.886717
vn -0.163245 0.432533 0.886717
vn -0.163245 0.432533 0.886717
vn -0.114577 -0.808196 -0.577661
vn -0.114577 -0.808196 -0.577661
vn -0.114577 -0.808196 -0.577661
vn -0.655226 -0.478781 -0.584335
vn -0.655226 -0.478781 -0.584335
vn -0.655226 -0.478781 -0.584335
vn -0.655226 -0.478781 -0.584335
vn -0.501753 0.058004 -0.863064
vn -0.501753 0.058004 -0.863064
vn -0.501753 0.058004 -0.863064
vn -0.501753 0.058004 -0.863064
vn -0.621211 0.604922 -0.498163
vn -0.621211 0.604922 -0.498163
vn -0.621211 0.604922 -0.498163
vn -0.621211 0.604922 -0.498163
vn -0.500333 0.853462 0.145839
vn -0.500333 0.853462 0.145839
vn -0.500333 0.853462 0.145839
vn -0.500333 0.853462 0.145839
vn -0.650810 0.480492 0.587855
vn -0.650810 0.480492 0.587855
vn -0.650810 0.480492 0.587855
vn -0.650810 0.480492 0.587855
vn 0.000000 -0.766627 0.642092
vn 0.000000 -0.766627 0.642092
vn 0.000000 -0.766627 0.642092
vn 0.000000 -0.766627 0.642092
vn 0.000000 -0.935968 -0.352086
vn 0.000000 -0.935968 -0.352086
vn 0.000000 -0.935968 -0.352086
vn 0.000000 -0.642073 -0.766644
vn 0.000000 -0.642073 -0.766644
vn 0.000000 -0.642073 -0.766644
vn 0.000000 -0.642073 -0.766644
vn 0.000000 0.004728 -0.999989
vn 0.000000 0.004728 -0.999989
vn 0.000000 0.004728 -0.999989
vn 0.000000 0.004728 -0.999989
vn 0.000000 0.774879 -0.632109
vn 0.000000 0.774879 -0.632109
vn 0.000000 0.774879 -0.632109
vn 0.000000 0.774879 -0.632109
vn 0.000000 0.969932 0.243376
vn 0.000000 0.969932 0.243376
vn 0.000000 0.969932 0.243376
vn 0.000000 0.969932 0.243376
vn 0.000000 0.642078 0.766640
vn 0.000000 0.642078 0.766640
vn 0.000000 0.642078 0.766640
vn 0.000000 0.642078 0.766640
s off
f 11/1/1 12/2/2 20/3/3 16/4/4
f 12/2/5 13/5/6 19/6/7 20/3/8
f 13/5/9 14/7/10 18/8/11 19/6/12
f 14/7/13 15/9/14 17/10/15 18/8/16
f 15/9/17 11/1/18 16/4/19 17/10/20
f 21/11/21 22/12/22 12/2/23 11/1/24
f 22/12/25 23/13/26 13/5/27 12/2/28
f 23/13/29 24/14/30 14/7/31 13/5/32
f 24/14/33 25/15/34 15/9/35 14/7/36
f 25/15/37 21/11/38 11/1/39 15/9/40
f 17/10/41 16/4/42 6/16/43 10/17/44
f 18/8/45 17/10/46 10/17/47 9/18/48
f 19/6/49 18/8/50 9/18/51 8/19/52
f 20/3/53 19/6/54 8/19/55 7/20/56
f 16/4/57 20/3/58 7/20/59 6/16/60
f 1/21/61 2/22/62 22/12/63 21/11/64
f 2/22/65 3/23/66 23/13/67 22/12/68
f 3/23/69 4/24/70 24/14/71 23/13/72
f 4/24/73 5/25/74 25/15/75 24/14/76
f 5/25/77 1/21/78 21/11/79 25/15/80
f 45/26/81 46/27/82 43/28/83 38/29/84
f 47/30/85 48/31/86 41/32/87 42/33/88
f 48/31/89 49/34/90 40/35/91 41/32/92
f 49/34/93 44/36/94 39/37/95 40/35/96
f 35/38/97 36/39/98 33/40/99 31/41/100
f 32/42/101 37/43/102 34/44/103 30/45/104
f 80/46/105 81/47/106 82/48/107 83/49/108
f 27/50/109 36/39/110 35/38/111 29/51/112
f 39/37/113 44/36/114 45/26/115 38/29/116
f 34/44/117 37/43/118 26/52/119 28/53/120
f 37/43/121 39/37/122 38/29/123 26/52/124
f 32/42/125 40/35/126 39/37/127 37/43/128
f 30/45/129 41/32/130 40/35/131 32/42/132
f 34/44/133 42/33/134 41/32/135 30/45/136
f 28/53/137 43/28/138 42/33/139 34/44/140
f 26/52/141 38/29/142 43/28/143 28/53/144
f 45/26/145 44/36/146 36/39/147 27/50/148
f 46/27/149 45/26/150 27/50/151 29/51/152
f 47/30/153 46/27/154 29/51/155 35/38/156
f 48/31/157 47/30/158 35/38/159 31/41/160
f 49/34/161 48/31/162 31/41/163 33/40/164
f 44/36/165 49/34/166 33/40/167 36/39/168
f 53/64/169 101/54/170 94/55/171 51/65/172
f 58/62/173 99/56/174 100/57/175 61/63/176
f 57/60/177 97/58/178 98/59/179 55/61/180
f 57/60/181 55/61/182 58/62/183 61/63/184 53/64/185 51/65/186
f 60/66/187 59/67/188 54/68/189 56/69/190 50/70/191 52/71/192
f 72/72/193 70/73/194 71/74/195 73/75/196
f 70/73/197 74/76/198 75/77/199 71/74/200
f 55/61/201 98/59/202 99/56/203 58/62/204
f 61/63/205 100/57/206 101/54/207 53/64/208
f 64/123/209 96/78/210 97/79/211 57/122/212
f 96/78/213 88/83/214 89/84/215 97/79/216
f 62/119/217 56/85/218 89/84/219 88/83/220
f 50/120/221 56/85/222 62/119/223 63/121/224
f 57/122/225 51/124/226 65/125/227 64/123/228
f 65/125/229 51/124/230 94/81/231 95/82/232
f 66/88/233 87/86/234 96/87/235 64/116/236
f 87/86/237 88/111/238 96/87/239
f 68/113/240 62/112/241 88/111/242 87/86/243
f 63/114/244 62/112/245 68/113/246 69/115/247
f 64/116/248 65/117/249 67/110/250 66/88/251
f 67/110/252 65/117/253 95/89/254 86/109/255
f 70/73/256 87/103/257 66/104/258
f 67/105/259 86/106/260 71/74/261
f 68/107/262 70/73/263 72/72/264
f 69/108/265 73/75/266 71/74/267
f 69/108/268 68/107/269 72/72/270 73/75/271
f 66/104/272 74/76/273 70/73/274
f 66/104/275 67/105/276 75/77/277 74/76/278
f 67/105/279 71/74/280 75/77/281
f 46/27/282 47/30/283 77/90/284 76/91/285
f 47/30/286 42/33/287 78/92/288 77/90/289
f 42/33/290 43/28/291 79/93/292 78/92/293
f 43/28/294 46/27/295 76/91/296 79/93/297
f 76/99/298 77/100/299 81/47/300 80/46/301
f 77/100/302 78/101/303 82/48/304 81/47/305
f 78/101/306 79/102/307 83/49/308 82/48/309
f 79/102/310 76/99/311 80/46/312 83/49/313
f 85/126/314 84/127/315 50/120/316 63/121/317
f 69/115/318 86/109/319 85/118/320 63/114/321
f 71/74/322 86/106/323 69/108/324
f 68/107/325 87/103/326 70/73/327
f 90/95/328 89/80/329 56/69/330 54/68/331
f 59/67/332 91/96/333 90/95/334 54/68/335
f 60/66/336 92/97/337 91/96/338 59/67/339
f 52/71/340 93/98/341 92/97/342 60/66/343
f 84/94/344 93/98/345 52/71/346 50/70/347
f 95/82/348 94/81/349 84/127/350 85/126/351
f 86/109/352 95/89/353 85/118/354
f 98/59/355 97/58/356 89/80/357 90/95/358
f 91/96/359 99/56/360 98/59/361 90/95/362
f 100/57/363 99/56/364 91/96/365 92/97/366
f 101/54/367 100/57/368 92/97/369 93/98/370
f 94/55/371 101/54/372 93/98/373 84/94/374
