# This file uses centimeters as units for non-parametric coordinates.

v 3.173645 158.719940 -32.221436
v 3.173645 158.445343 -34.105957
v -0.131592 158.719940 -32.221436
v -0.131592 158.445343 -34.105957
v 3.173645 24.015718 -13.581299
v 3.173645 23.741159 -15.465698
v -0.131592 23.741156 -15.465698
v -0.131592 24.015718 -13.581299
v 1.521057 23.658609 -16.070313
v 1.521057 24.122683 -12.797974
v 1.521057 158.802521 -31.616577
v 1.521057 158.338379 -34.889282
v 1.521027 160.027161 -32.454834
v 1.521027 159.748169 -34.411011
v 0.536041 159.812378 -33.940674
v 0.536041 159.977356 -32.819458
v 2.506012 159.812378 -33.940674
v 2.506012 159.977356 -32.819458
v 4.192657 22.185804 -12.795166
v 4.192657 21.741961 -15.841431
v -1.150604 21.741949 -15.841431
v -1.150604 22.185804 -12.795166
v 1.521057 21.608507 -16.818726
v 1.521057 22.358725 -11.528687
v 4.192657 14.409468 -11.733398
v 4.192657 13.965620 -14.779541
v -1.150604 13.965609 -14.779541
v -1.150604 14.409468 -11.733398
v 1.521057 13.832167 -15.756958
v 1.521057 14.588408 -10.422852
v 5.361420 14.497919 -11.130249
v 5.361420 13.859900 -15.509155
v -2.319366 13.859884 -15.509155
v -2.319366 14.497919 -11.130249
v 1.521057 13.668070 -16.914063
v 1.521057 14.822168 -8.755493
v 6.242615 12.936529 -10.429321
v 6.242615 12.148909 -15.836548
v -3.200562 12.148890 -15.836548
v -3.200562 12.939329 -10.408813
v 1.521057 11.913065 -17.563721
v 1.521057 13.478556 -6.459595
v 15.698669 5.068396 6.301392
v 14.725616 7.836756 -18.241089
v -8.721039 6.311983 -18.499390
v -14.769775 7.044947 7.220581
v 1.120697 6.354197 -23.817383
v 15.497131 3.385569 31.806030
v 16.851135 0.350170 5.380005
v 13.079041 0.140173 -16.684692
v -8.183044 0.064310 -18.284058
v -13.340729 0.350220 5.685913
v 0.781250 -0.000002 -21.763550
v 15.717255 0.350185 34.889404
v -24.428528 3.777298 26.077271
v 22.563141 3.385569 28.445557
v 24.929108 0.350185 29.611206
v -24.929077 0.350185 26.957275
v -12.426636 0.350185 31.734863
v -11.819733 3.891962 30.326416
v -6.888000 0.350187 32.400391
v -5.954102 4.538988 30.414063
v 2.596375 3.385569 31.273682
v 2.469086 0.350185 33.808960
v 10.823029 3.403866 31.343872
v 11.011139 0.350185 34.166748
v -11.023163 9.492208 7.633911
v -8.923676 8.841623 12.853516
v -0.488464 7.830553 8.628540
v 2.001740 8.021326 10.334595
v 8.133301 6.061296 11.210571
v 12.139465 8.494558 7.626831
v 12.638550 9.340128 -4.325562
v 11.488129 9.935419 -17.343384
v 1.570465 9.186213 -21.791626
v -7.582306 9.055475 -17.572754
v 2.299164 0.232666 19.713257
vt 0.035414 0.279936
vt 0.035409 0.279949
vt 0.035429 0.278958
vt 0.035434 0.278953
vt 0.035413 0.278950
vt 0.035403 0.278959
vt 0.035382 0.278956
vt 0.035388 0.278951
vt 0.035370 0.279943
vt 0.035375 0.279930
vt 0.035388 0.279950
vt 0.035396 0.279927
vt 0.035403 0.278959
vt 0.035382 0.278956
vt 0.035388 0.278951
vt 0.035413 0.278950
vt 0.035434 0.278953
vt 0.035429 0.278958
vt 0.092621 0.350430
vt 0.092621 0.350430
vt 0.092621 0.350430
vt 0.092621 0.350430
vt 0.092621 0.350430
vt 0.092621 0.350430
vt 0.092621 0.350430
vt 0.092621 0.350430
vt 0.092621 0.350430
vt 0.092621 0.350430
vt 0.092621 0.350430
vt 0.092621 0.350430
vt 0.092621 0.350430
vt 0.092621 0.350430
vt 0.092621 0.350430
vt 0.092621 0.350430
vt 0.092621 0.350430
vt 0.092621 0.350430
vt 0.092621 0.350430
vt 0.092621 0.350430
vt 0.092621 0.350430
vt 0.092621 0.350430
vt 0.092621 0.350430
vt 0.092621 0.350430
vt 0.092621 0.350430
vt 0.092621 0.350430
vt 0.092621 0.350430
vt 0.092621 0.350430
vt 0.092621 0.350430
vt 0.092621 0.350430
vt 0.038535 0.354707
vt 0.038535 0.354707
vt 0.038535 0.354707
vt 0.038535 0.354707
vt 0.038535 0.354707
vt 0.038535 0.354707
vt 0.038535 0.354707
vt 0.038535 0.354707
vt 0.038535 0.354707
vt 0.038535 0.354707
vt 0.038535 0.354707
vt 0.038535 0.354707
vt 0.038535 0.354707
vt 0.038535 0.354707
vt 0.038535 0.354707
vt 0.038535 0.354707
vt 0.038535 0.354707
vt 0.038535 0.354707
vt 0.038535 0.354707
vt 0.038535 0.354707
vt 0.038535 0.354707
vt 0.038535 0.354707
vt 0.038535 0.354707
vt 0.038535 0.354707
vt 0.038535 0.354707
vt 0.038535 0.354707
vt 0.038535 0.354707
vt 0.038535 0.354707
vt 0.038535 0.354707
vt 0.038535 0.354707
vt 0.038535 0.354707
vt 0.038535 0.354707
vt 0.038535 0.354707
vt 0.038535 0.354707
vt 0.038535 0.354707
vt 0.038535 0.354707
vt 0.038535 0.354707
vt 0.038535 0.354707
vt 0.038535 0.354707
vt 0.038535 0.354707
vt 0.037384 0.356384
vt 0.037384 0.356384
vt 0.037384 0.356384
vt 0.037384 0.356384
vt 0.037384 0.356384
vt 0.037384 0.356384
vt 0.037384 0.356384
vt 0.037384 0.356384
vt 0.037384 0.356384
vt 0.037384 0.356384
vt 0.037384 0.356384
vt 0.037384 0.356384
vt 0.037384 0.356384
vn 1.000000 0.000000 0.000000
vn 1.000000 0.000000 0.000000
vn 1.000000 0.000000 0.000000
vn 1.000000 0.000000 0.000000
vn -0.000426 0.989752 -0.142794
vn -0.000426 0.989752 -0.142794
vn -0.000426 0.989752 -0.142794
vn -0.000426 0.989752 -0.142794
vn -1.000000 0.000000 0.000000
vn -1.000000 0.000000 0.000000
vn -1.000000 0.000000 0.000000
vn -1.000000 0.000000 0.000000
vn -0.390210 -0.126812 -0.911951
vn -0.390210 -0.126811 -0.911951
vn -0.390210 -0.126811 -0.911951
vn -0.390210 -0.126811 -0.911951
vn -0.390270 0.126806 0.911926
vn -0.390269 0.126806 0.911926
vn -0.390269 0.126806 0.911926
vn -0.390270 0.126806 0.911927
vn 0.390281 0.126806 0.911922
vn 0.390281 0.126806 0.911922
vn 0.390281 0.126806 0.911921
vn 0.390281 0.126806 0.911922
vn 0.000426 0.989752 -0.142794
vn 0.000426 0.989752 -0.142794
vn 0.000426 0.989752 -0.142794
vn 0.000426 0.989752 -0.142794
vn 0.390222 -0.126811 -0.911946
vn 0.390222 -0.126811 -0.911946
vn 0.390222 -0.126811 -0.911946
vn 0.390222 -0.126811 -0.911946
vn -0.394232 0.296390 -0.869904
vn -0.394232 0.296390 -0.869904
vn -0.394232 0.296390 -0.869904
vn -0.394232 0.296390 -0.869904
vn -0.893681 0.443981 -0.064930
vn -0.893681 0.443981 -0.064930
vn -0.893681 0.443981 -0.064930
vn -0.893681 0.443981 -0.064930
vn -0.314576 0.537400 0.782460
vn -0.314576 0.537400 0.782460
vn -0.314576 0.537400 0.782460
vn -0.314576 0.537400 0.782460
vn 0.893681 0.443980 -0.064929
vn 0.893681 0.443980 -0.064929
vn 0.893681 0.443980 -0.064929
vn 0.893681 0.443980 -0.064929
vn 0.394237 0.296398 -0.869900
vn 0.394237 0.296398 -0.869900
vn 0.394237 0.296398 -0.869900
vn 0.394237 0.296398 -0.869900
vn 0.314579 0.537402 0.782457
vn 0.314579 0.537402 0.782457
vn 0.314579 0.537402 0.782457
vn 0.314579 0.537402 0.782457
vn 0.883721 0.463124 -0.067477
vn 0.883721 0.463124 -0.067477
vn 0.883721 0.463124 -0.067477
vn 0.883721 0.463124 -0.067477
vn -0.883722 0.463123 -0.067479
vn -0.883722 0.463123 -0.067479
vn -0.883722 0.463123 -0.067479
vn -0.883722 0.463123 -0.067479
vn 0.310385 0.326008 -0.892961
vn 0.310385 0.326008 -0.892961
vn 0.310385 0.326008 -0.892961
vn 0.310385 0.326008 -0.892961
vn -0.389244 0.537993 0.747698
vn -0.389244 0.537993 0.747698
vn -0.389244 0.537993 0.747698
vn -0.389244 0.537993 0.747698
vn -0.310379 0.326007 -0.892964
vn -0.310379 0.326007 -0.892964
vn -0.310379 0.326007 -0.892964
vn -0.310379 0.326007 -0.892964
vn 0.389253 0.537993 0.747694
vn 0.389253 0.537993 0.747694
vn 0.389253 0.537993 0.747694
vn 0.389253 0.537993 0.747694
vn 1.000000 0.000000 0.000000
vn 1.000000 0.000000 0.000000
vn 1.000000 0.000000 0.000000
vn 1.000000 0.000000 0.000000
vn -1.000000 -0.000000 0.000000
vn -1.000000 -0.000000 0.000000
vn -1.000000 -0.000000 0.000000
vn -1.000000 -0.000000 0.000000
vn 0.346371 -0.126916 -0.929473
vn 0.346371 -0.126916 -0.929473
vn 0.346371 -0.126916 -0.929473
vn 0.346371 -0.126916 -0.929473
vn -0.437666 0.124162 0.890524
vn -0.437666 0.124162 0.890524
vn -0.437666 0.124162 0.890524
vn -0.437666 0.124162 0.890524
vn -0.346363 -0.126916 -0.929476
vn -0.346363 -0.126916 -0.929475
vn -0.346363 -0.126916 -0.929475
vn -0.346363 -0.126916 -0.929475
vn 0.437674 0.124161 0.890520
vn 0.437674 0.124161 0.890520
vn 0.437674 0.124161 0.890520
vn 0.437674 0.124161 0.890520
vn -0.000490 0.989551 -0.144183
vn -0.000490 0.989551 -0.144183
vn -0.000490 0.989551 -0.144183
vn -0.000490 0.989551 -0.144183
vn 0.000489 0.989551 -0.144186
vn 0.000489 0.989551 -0.144186
vn 0.000489 0.989551 -0.144186
vn 0.000489 0.989550 -0.144186
vn 0.001910 0.990092 -0.140409
vn 0.001910 0.990092 -0.140409
vn 0.001910 0.990092 -0.140409
vn 0.001910 0.990092 -0.140409
vn 0.002332 0.990244 -0.139327
vn 0.002332 0.990244 -0.139327
vn 0.002332 0.990244 -0.139327
vn 0.002332 0.990244 -0.139327
vn -0.001914 0.990092 -0.140409
vn -0.001914 0.990092 -0.140409
vn -0.001914 0.990092 -0.140409
vn -0.001914 0.990092 -0.140409
vn -0.002332 0.990244 -0.139327
vn -0.002332 0.990244 -0.139327
vn -0.002332 0.990244 -0.139327
vn -0.002332 0.990244 -0.139327
vn 0.881614 0.467040 -0.068038
vn 0.881614 0.467040 -0.068038
vn 0.881614 0.467041 -0.068038
vn 0.881614 0.467041 -0.068038
vn -0.881626 0.467020 -0.068028
vn -0.881626 0.467020 -0.068028
vn -0.881626 0.467020 -0.068028
vn -0.881626 0.467020 -0.068028
vn 0.309705 0.330104 -0.891692
vn 0.309705 0.330104 -0.891692
vn 0.309705 0.330104 -0.891692
vn 0.309705 0.330104 -0.891692
vn -0.467963 0.701250 0.537828
vn -0.467963 0.701250 0.537828
vn -0.467963 0.701251 0.537828
vn -0.467963 0.701251 0.537828
vn -0.309703 0.330103 -0.891693
vn -0.309703 0.330103 -0.891693
vn -0.309703 0.330103 -0.891693
vn -0.309703 0.330103 -0.891693
vn 0.470186 0.698775 0.539109
vn 0.470186 0.698775 0.539109
vn 0.470186 0.698775 0.539109
vn 0.470186 0.698775 0.539109
vn 0.458161 0.888062 -0.037877
vn 0.458161 0.888062 -0.037877
vn 0.458161 0.888062 -0.037877
vn 0.458161 0.888062 -0.037877
vn -0.567225 0.817892 -0.096474
vn -0.567225 0.817892 -0.096474
vn -0.567225 0.817892 -0.096474
vn -0.567225 0.817892 -0.096474
vn 0.174750 0.819988 -0.545053
vn 0.174750 0.819988 -0.545053
vn 0.174750 0.819988 -0.545053
vn 0.174750 0.819988 -0.545053
vn -0.243195 0.776578 -0.581191
vn -0.243195 0.776578 -0.581191
vn -0.243195 0.776578 -0.581191
vn -0.243195 0.776578 -0.581191
vn 0.325075 0.937463 0.124460
vn 0.325075 0.937463 0.124460
vn 0.325075 0.937463 0.124460
vn 0.325075 0.937463 0.124460
vn 0.993605 -0.044846 -0.103622
vn 0.993605 -0.044846 -0.103622
vn 0.993605 -0.044846 -0.103622
vn 0.993605 -0.044846 -0.103622
vn -0.968375 -0.125176 -0.215828
vn -0.968375 -0.125176 -0.215828
vn -0.968375 -0.125176 -0.215828
vn -0.968375 -0.125176 -0.215828
vn 0.380145 -0.280215 -0.881459
vn 0.380145 -0.280215 -0.881459
vn 0.380145 -0.280215 -0.881458
vn 0.380145 -0.280215 -0.881459
vn -0.319372 0.341080 0.884119
vn -0.319371 0.341080 0.884119
vn -0.319371 0.341080 0.884119
vn -0.319371 0.341080 0.884119
vn -0.417913 -0.167372 -0.892936
vn -0.417913 -0.167372 -0.892936
vn -0.417913 -0.167372 -0.892936
vn -0.417913 -0.167372 -0.892936
vn 0.362856 0.633126 0.683730
vn 0.362856 0.633126 0.683730
vn 0.362856 0.633126 0.683730
vn 0.362856 0.633126 0.683730
vn -0.162002 0.977868 0.132397
vn -0.162002 0.977868 0.132397
vn -0.162002 0.977868 0.132397
vn -0.162002 0.977868 0.132397
vn -0.154449 0.889044 0.430982
vn -0.154449 0.889044 0.430982
vn -0.154449 0.889044 0.430982
vn 0.880127 0.390897 -0.269398
vn 0.880127 0.390897 -0.269398
vn 0.880127 0.390897 -0.269398
vn 0.880127 0.390897 -0.269398
vn -0.880938 -0.050376 -0.470543
vn -0.880938 -0.050376 -0.470543
vn -0.880938 -0.050376 -0.470543
vn -0.880938 -0.050376 -0.470543
vn -0.083368 0.414559 0.906196
vn -0.083368 0.414559 0.906196
vn -0.083368 0.414559 0.906195
vn -0.083368 0.414559 0.906196
vn 0.290707 0.882731 0.369154
vn 0.290707 0.882731 0.369154
vn 0.290707 0.882731 0.369154
vn -0.071910 0.536742 0.840677
vn -0.071910 0.536742 0.840677
vn -0.071910 0.536741 0.840677
vn -0.071910 0.536742 0.840677
vn -0.278103 0.911163 0.304040
vn -0.278103 0.911163 0.304040
vn -0.278103 0.911163 0.304040
vn -0.089333 0.690373 0.717917
vn -0.089333 0.690373 0.717917
vn -0.089333 0.690373 0.717917
vn -0.089333 0.690373 0.717917
vn 0.253018 0.922208 0.292427
vn 0.253018 0.922208 0.292428
vn 0.253018 0.922208 0.292428
vn -0.019880 0.660370 0.750677
vn -0.019880 0.660370 0.750677
vn -0.019880 0.660370 0.750677
vn -0.019880 0.660370 0.750677
vn -0.335279 0.940903 0.047857
vn -0.335279 0.940903 0.047857
vn -0.335279 0.940903 0.047857
vn -0.335279 0.940903 0.047857
vn -0.095243 0.961795 0.256668
vn -0.095243 0.961795 0.256668
vn -0.095243 0.961795 0.256668
vn 0.089164 0.970783 0.222780
vn 0.089164 0.970783 0.222780
vn 0.089164 0.970783 0.222780
vn 0.089164 0.970783 0.222780
vn 0.042140 0.981473 0.186911
vn 0.042140 0.981473 0.186911
vn 0.042140 0.981473 0.186911
vn 0.042140 0.981473 0.186911
vn 0.121571 0.978923 0.164105
vn 0.121571 0.978923 0.164105
vn 0.121571 0.978923 0.164105
vn 0.121571 0.978923 0.164105
vn -0.009177 0.991200 0.132056
vn -0.009177 0.991200 0.132056
vn -0.009177 0.991200 0.132056
vn -0.078100 0.973160 0.216471
vn -0.078100 0.973160 0.216471
vn -0.078100 0.973160 0.216471
vn -0.078100 0.973160 0.216471
vn 0.706494 0.703268 0.079253
vn 0.677433 0.731958 -0.072945
vn 0.675967 0.732705 -0.078813
vn 0.691090 0.722314 0.025615
vn 0.691090 0.722314 0.025615
vn 0.691090 0.722314 0.025615
vn 0.691090 0.722314 0.025615
vn 0.265423 0.598319 -0.756019
vn 0.265423 0.598319 -0.756019
vn 0.265423 0.598319 -0.756019
vn 0.265423 0.598319 -0.756019
vn -0.388308 0.515217 -0.764047
vn -0.388308 0.515217 -0.764047
vn -0.388308 0.515217 -0.764047
vn -0.388308 0.515217 -0.764047
vn -0.701152 0.697762 -0.146678
vn -0.701152 0.697762 -0.146678
vn -0.701152 0.697762 -0.146678
vn -0.701152 0.697762 -0.146678
vn 0.014932 -0.999864 0.006963
vn 0.014932 -0.999864 0.006963
vn 0.014932 -0.999864 0.006963
vn -0.015265 -0.999846 0.008641
vn -0.015265 -0.999846 0.008641
vn -0.015265 -0.999846 0.008641
vn 0.009221 -0.999944 0.005272
vn 0.009221 -0.999944 0.005272
vn 0.009221 -0.999944 0.005272
vn -0.005048 -0.999983 -0.002752
vn -0.005048 -0.999983 -0.002752
vn -0.005048 -0.999983 -0.002752
vn -0.004927 -0.999971 0.005790
vn -0.004927 -0.999971 0.005790
vn -0.004927 -0.999971 0.005790
vn 0.002945 -0.999982 0.005140
vn 0.002945 -0.999982 0.005140
vn 0.002945 -0.999982 0.005140
vn 0.006079 -0.999980 -0.002026
vn 0.006079 -0.999980 -0.002026
vn 0.006079 -0.999980 -0.002026
vn -0.002544 -0.999975 0.006659
vn -0.002544 -0.999975 0.006659
vn -0.002544 -0.999975 0.006659
vn -0.001024 -0.999963 0.008521
vn -0.001024 -0.999963 0.008521
vn -0.001024 -0.999963 0.008521
vn -0.001257 -0.999964 0.008352
vn -0.001257 -0.999964 0.008352
vn -0.001257 -0.999964 0.008352
vn -0.000349 -0.999965 0.008341
vn -0.000349 -0.999965 0.008341
vn -0.000349 -0.999965 0.008341
vn -0.001376 -0.999959 0.008960
vn -0.001376 -0.999959 0.008960
vn -0.001376 -0.999959 0.008960
vn 0.675967 0.732705 -0.078813
vn 0.677433 0.731958 -0.072945
vn 0.656888 0.739432 -0.147436
s off
f 5/1/1 6/2/2 2/3/3 1/4/4
f 13/16/5 14/13/6 15/14/7 16/15/8
f 3/8/9 4/7/10 7/9/11 8/10/12
f 12/6/13 9/11/14 7/9/15 4/7/16
f 8/10/17 10/12/18 11/5/19 3/8/20
f 11/5/21 10/12/22 5/1/23 1/4/24
f 18/17/25 17/18/26 14/13/27 13/16/28
f 6/2/29 9/11/30 12/6/31 2/3/32
f 12/6/33 4/7/34 15/14/35 14/13/36
f 4/7/37 3/8/38 16/15/39 15/14/40
f 3/8/41 11/5/42 13/16/43 16/15/44
f 1/4/45 2/3/46 17/18/47 18/17/48
f 2/3/49 12/6/50 14/13/51 17/18/52
f 11/5/53 1/4/54 18/17/55 13/16/56
f 6/19/57 5/20/58 19/21/59 20/22/60
f 8/23/61 7/24/62 21/25/63 22/26/64
f 9/27/65 6/19/66 20/22/67 23/28/68
f 10/29/69 8/23/70 22/26/71 24/30/72
f 7/24/73 9/27/74 23/28/75 21/25/76
f 5/20/77 10/29/78 24/30/79 19/21/80
f 20/22/81 19/21/82 25/31/83 26/32/84
f 22/26/85 21/25/86 27/33/87 28/34/88
f 23/28/89 20/22/90 26/32/91 29/35/92
f 24/30/93 22/26/94 28/34/95 30/36/96
f 21/25/97 23/28/98 29/35/99 27/33/100
f 19/21/101 24/30/102 30/36/103 25/31/104
f 26/32/105 25/31/106 31/37/107 32/38/108
f 28/34/109 27/33/110 33/39/111 34/40/112
f 29/35/113 26/32/114 32/38/115 35/41/116
f 30/36/117 28/34/118 34/40/119 36/42/120
f 27/33/121 29/35/122 35/41/123 33/39/124
f 25/31/125 30/36/126 36/42/127 31/37/128
f 32/38/129 31/37/130 37/43/131 38/44/132
f 34/40/133 33/39/134 39/45/135 40/46/136
f 35/41/137 32/38/138 38/44/139 41/47/140
f 36/42/141 34/40/142 40/46/143 42/48/144
f 33/39/145 35/41/146 41/47/147 39/45/148
f 31/37/149 36/42/150 42/48/151 37/43/152
f 38/49/153 37/50/154 73/85/155 74/86/156
f 40/53/157 39/54/158 76/88/159 67/79/160
f 41/57/161 38/49/162 74/86/163 75/87/164
f 39/54/165 41/57/166 75/87/167 76/88/168
f 37/50/169 42/59/170 72/84/171 73/85/172
f 44/52/173 43/51/174 49/63/175 50/64/176
f 46/56/177 45/55/178 51/65/179 52/66/180
f 47/58/181 44/52/182 50/64/183 53/67/184
f 59/71/185 60/72/186 55/60/187 58/68/188
f 45/55/189 47/58/190 53/67/191 51/65/192
f 57/70/193 56/62/194 48/61/195 54/69/196
f 42/59/197 40/53/198 67/79/199 68/80/200
f 71/83/201 72/84/202 42/59/203
f 43/51/204 56/62/205 57/70/206 49/63/207
f 58/68/208 55/60/209 46/56/210 52/66/211
f 61/73/212 62/74/213 60/72/214 59/71/215
f 42/59/216 68/80/217 69/81/218
f 64/76/219 63/75/220 62/74/221 61/73/222
f 42/59/223 69/81/224 70/82/225
f 48/61/226 65/77/227 66/78/228 54/69/229
f 42/59/230 70/82/231 71/83/232
f 66/78/233 65/77/234 63/75/235 64/76/236
f 68/80/237 67/79/238 46/56/239 55/60/240
f 68/80/241 55/60/242 60/72/243
f 69/81/244 68/80/245 60/72/246 62/74/247
f 70/82/248 69/81/249 62/74/250 63/75/251
f 71/83/252 70/82/253 63/75/254 65/77/255
f 71/83/256 65/77/257 48/61/258
f 56/62/259 72/84/260 71/83/261 48/61/262
f 73/85/263 72/84/264 43/51/265
f 74/86/266 73/85/267 43/51/268 44/52/269
f 75/87/270 74/86/271 44/52/272 47/58/273
f 76/88/274 75/87/275 47/58/276 45/55/277
f 67/79/278 76/88/279 45/55/280 46/56/281
f 50/89/282 49/90/283 77/91/284
f 52/92/285 51/93/286 77/91/287
f 53/94/288 50/89/289 77/91/290
f 58/95/291 52/92/292 77/91/293
f 51/93/294 53/94/295 77/91/296
f 57/96/297 54/97/298 77/91/299
f 49/90/300 57/96/301 77/91/302
f 59/98/303 58/95/304 77/91/305
f 61/99/306 59/98/307 77/91/308
f 64/100/309 61/99/310 77/91/311
f 66/101/312 64/100/313 77/91/314
f 54/97/315 66/101/316 77/91/317
f 43/51/318 72/84/319 56/62/320
