# This file uses centimeters as units for non-parametric coordinates.

v -30.000000 0.000000 3.390183
v 30.000000 0.000000 3.390183
v -30.000000 2.359916 3.390183
v 30.000000 2.359916 3.390183
v -30.000000 2.359916 -3.390183
v 30.000000 2.359916 -3.390183
v -30.000000 0.000000 -3.390183
v 30.000000 0.000000 -3.390183
v 0.000000 2.359916 3.390183
v 0.000000 2.359916 -3.390183
v 0.000000 0.000000 -3.390183
v 0.000000 0.000000 3.390183
v 30.000000 2.359916 0.607446
v 0.000000 2.359916 0.607446
v -30.000000 2.359916 0.607446
vt 0.450341 0.322265
vt 0.449843 0.322245
vt 0.450372 0.322243
vt 0.449835 0.322220
vt 0.499449 0.324442
vt 0.444449 0.324442
vt 0.449836 0.322176
vt 0.445152 0.324442
vt 0.450340 0.322155
vt 0.449849 0.322135
vt 0.449849 0.322160
vt 0.450399 0.322199
vt 0.450335 0.322179
vt 0.498746 0.324442
vt 0.449351 0.322225
vt 0.449369 0.322141
vt 0.449364 0.322116
vt 0.449338 0.322199
vt 0.499449 0.321264
vt 0.449354 0.322166
vt 0.498746 0.321264
vt 0.445152 0.321264
vt 0.450344 0.322205
vt 0.444449 0.321264
vt 0.449343 0.322157
vn 0.000000 0.000000 1.000000
vn 0.000000 0.000000 1.000000
vn 0.000000 0.000000 1.000000
vn 0.000000 0.000000 1.000000
vn 0.000000 1.000000 0.000000
vn 0.000000 1.000000 0.000000
vn 0.000000 1.000000 0.000000
vn 0.000000 1.000000 0.000000
vn 0.000000 0.000000 -1.000000
vn 0.000000 0.000000 -1.000000
vn 0.000000 0.000000 -1.000000
vn 0.000000 0.000000 -1.000000
vn 0.000000 -1.000000 0.000000
vn 0.000000 -1.000000 0.000000
vn 0.000000 -1.000000 0.000000
vn 0.000000 -1.000000 0.000000
vn 1.000000 0.000000 0.000000
vn 1.000000 0.000000 0.000000
vn 1.000000 0.000000 0.000000
vn 1.000000 0.000000 0.000000
vn -1.000000 0.000000 0.000000
vn -1.000000 0.000000 0.000000
vn -1.000000 0.000000 0.000000
vn -1.000000 0.000000 0.000000
vn 0.000000 1.000000 0.000000
vn 0.000000 1.000000 0.000000
vn 0.000000 1.000000 0.000000
vn 0.000000 1.000000 0.000000
vn 0.000000 0.000000 -1.000000
vn 0.000000 0.000000 -1.000000
vn 0.000000 0.000000 -1.000000
vn 0.000000 0.000000 -1.000000
vn 0.000000 -1.000000 0.000000
vn 0.000000 -1.000000 0.000000
vn 0.000000 -1.000000 0.000000
vn 0.000000 -1.000000 0.000000
vn 0.000000 0.000000 1.000000
vn 0.000000 0.000000 1.000000
vn 0.000000 0.000000 1.000000
vn 0.000000 0.000000 1.000000
vn 1.000000 0.000000 0.000000
vn 1.000000 0.000000 0.000000
vn 1.000000 0.000000 0.000000
vn 0.000000 1.000000 0.000000
vn 0.000000 1.000000 0.000000
vn 0.000000 1.000000 0.000000
vn 0.000000 1.000000 0.000000
vn 0.000000 1.000000 0.000000
vn 0.000000 1.000000 0.000000
vn 0.000000 1.000000 0.000000
vn 0.000000 1.000000 0.000000
vn -1.000000 0.000000 0.000000
vn -1.000000 0.000000 0.000000
vn -1.000000 0.000000 0.000000
s off
f 1/1/1 12/2/2 9/4/3 3/3/4
f 3/3/5 9/4/6 14/7/7 15/12/8
f 5/9/9 10/10/10 11/11/11 7/13/12
f 7/13/13 11/11/14 12/2/15 1/1/16
f 2/15/17 8/16/18 13/20/19 4/18/20
f 7/13/21 1/1/22 3/3/23 15/23/24
f 9/4/25 4/18/26 13/25/27 14/7/28
f 11/11/29 10/10/30 6/17/31 8/16/32
f 12/2/33 11/11/34 8/16/35 2/15/36
f 9/4/37 12/2/38 2/15/39 4/18/40
f 13/20/41 8/16/42 6/17/43
f 14/22/44 13/19/45 6/5/46 10/8/47
f 15/24/48 14/21/49 10/14/50 5/6/51
f 7/13/52 15/23/53 5/9/54
