# This file uses centimeters as units for non-parametric coordinates.

v -101.461044 0.000000 -109.697510
v -101.461182 0.000000 91.743942
v -97.173813 0.000000 107.449707
v 98.939957 0.000000 109.570297
v 101.461327 0.000000 -109.697510
v -101.461044 1.515945 -109.697510
v -101.461182 1.515945 91.743942
v -97.173813 1.515945 107.449707
v 98.939957 1.515945 109.570297
v 101.461327 1.515945 -109.697510
v -101.461182 0.000000 74.257187
v 101.461327 0.000000 76.761139
v -101.461182 1.515945 74.017258
v 101.461319 1.515945 76.521225
v -101.461182 2.824623 103.031067
v 99.517166 0.000000 89.618607
v -101.461182 4.340569 103.035736
v 99.356308 1.515945 89.653748
v 5.098560 1.515945 96.782463
v 30.366739 0.000000 94.209534
v 23.787212 1.515945 109.697510
v 25.148945 0.000000 109.697495
v 104.658203 0.000000 -8.004944
v -98.212036 0.000000 -5.312695
v -98.222427 1.515945 -5.446080
v 104.647331 1.515945 -8.138304
v -22.773956 1.515945 89.821625
v 8.005102 1.515945 72.306137
v 11.232536 1.515945 -6.686935
v 8.005197 1.515945 -109.697510
v 8.005197 0.000000 -109.697510
v 11.242880 0.000000 -6.558880
v 8.005109 0.000000 72.536484
v -30.346888 0.000000 91.091843
v -45.152222 1.618111 99.263031
v -71.085335 0.000000 90.155640
v -54.703735 0.000000 73.750275
v -51.508228 0.000000 -6.451599
v -54.703480 0.000000 -109.697510
v -54.703480 1.515945 -109.697510
v -55.276791 1.515945 -5.549218
v -54.703735 1.515945 73.512009
v -67.850845 1.515945 89.594452
v -39.155918 3.134056 98.218155
vt 0.304724 0.694667
vt 0.434631 0.694667
vt 0.434631 0.629110
vt 0.436907 0.629195
vt 0.434632 0.565630
vt 0.434632 0.558400
vt 0.304724 0.558397
vt 0.304724 0.565630
vt 0.354431 0.553125
vt 0.353529 0.554129
vt 0.304645 0.554129
vt 0.434710 0.554129
vt 0.304645 0.566991
vt 0.434710 0.566969
vt 0.364511 0.695638
vt 0.364511 0.694667
vt 0.404680 0.694667
vt 0.334676 0.694667
vt 0.374845 0.628578
vt 0.332217 0.628708
vt 0.304724 0.576985
vt 0.434632 0.576831
vt 0.304645 0.694667
vt 0.434710 0.694667
vt 0.434710 0.628303
vt 0.304645 0.628218
vt 0.364511 0.577934
vt 0.389078 0.566048
vt 0.415174 0.566647
vt 0.404680 0.577156
vt 0.372672 0.562097
vt 0.355129 0.566861
vt 0.326254 0.567007
vt 0.344635 0.561483
vt 0.434632 0.554129
vt 0.304724 0.554129
vt 0.304645 0.575227
vt 0.434710 0.575381
vt 0.350186 0.564050
vt 0.374845 0.578081
vt 0.334676 0.577309
vt 0.398562 0.560813
vt 0.364511 0.628496
vt 0.404680 0.629237
vt 0.404680 0.695638
vt 0.436907 0.694653
vt 0.374845 0.694667
vt 0.304724 0.629195
vt 0.436907 0.576989
vt 0.302371 0.575377
vt 0.302371 0.628303
vt 0.304645 0.695638
vt 0.384954 0.554129
vt 0.302371 0.554203
vt 0.302371 0.566967
vt 0.436907 0.558405
vt 0.434632 0.553125
vt 0.436907 0.565538
vt 0.302371 0.694652
vt 0.304645 0.553125
vt 0.436907 0.554946
vt 0.434631 0.695638
vn -1.000000 -0.000007 -0.000001
vn -1.000000 -0.000007 -0.000001
vn -0.999986 -0.005002 -0.001986
vn -0.999987 -0.004652 0.001954
vn -1.000000 0.000006 0.000000
vn -1.000000 0.000006 0.000000
vn -1.000000 0.000006 0.000000
vn -1.000000 0.000006 0.000000
vn 0.025714 0.011542 0.999603
vn 0.025714 0.011542 0.999603
vn 0.025714 0.011542 0.999603
vn 0.025714 0.011542 0.999603
vn 0.998295 0.052799 0.024869
vn 0.998295 0.052799 0.024869
vn 0.998295 0.052799 0.024869
vn 0.998295 0.052799 0.024869
vn 0.000000 0.000000 -1.000000
vn 0.000000 0.000000 -1.000000
vn 0.000000 0.000000 -1.000000
vn 0.000000 0.000000 -1.000000
vn 0.000000 1.000000 -0.000000
vn 0.000000 1.000000 0.000000
vn 0.000000 1.000000 0.000000
vn 0.000000 1.000000 -0.000000
vn -1.000000 -0.000004 -0.000000
vn -1.000000 -0.000004 -0.000000
vn -1.000000 -0.000004 -0.000000
vn -1.000000 -0.000004 -0.000000
vn 1.000000 0.000000 0.000000
vn 1.000000 0.000000 0.000000
vn 0.999987 0.004781 -0.001902
vn 0.999985 0.005114 0.001922
vn 0.000000 -1.000000 0.000000
vn 0.000000 -1.000000 0.000000
vn 0.000000 -1.000000 0.000000
vn 0.000000 -1.000000 0.000000
vn -0.014738 0.931739 -0.362830
vn 0.015721 0.987065 -0.159547
vn -0.001937 0.977755 -0.209740
vn 0.012625 0.985640 -0.168390
vn -0.717852 -0.001072 0.696195
vn -0.717852 -0.001072 0.696195
vn -0.717852 -0.001072 0.696195
vn -0.717852 -0.001072 0.696195
vn 0.986129 0.062811 0.153637
vn 0.986129 0.062811 0.153637
vn 0.986129 0.062811 0.153637
vn 0.986129 0.062811 0.153637
vn 0.000000 -1.000000 0.000000
vn 0.000000 -1.000000 0.000000
vn 0.000000 -1.000000 0.000000
vn 0.000000 -1.000000 0.000000
vn 0.000000 1.000000 0.000000
vn 0.000000 1.000000 0.000000
vn 0.000000 1.000000 0.000000
vn 0.000000 1.000000 0.000000
vn 0.079662 0.872955 0.481252
vn 0.079662 0.872955 0.481252
vn 0.051189 0.878152 0.475634
vn 0.079662 0.872955 0.481252
vn 0.000000 1.000000 -0.000000
vn 0.000000 1.000000 -0.000000
vn 0.000000 1.000000 0.000000
vn 0.000000 1.000000 0.000000
vn -0.078925 -0.872920 -0.481437
vn -0.052064 -0.863576 -0.501524
vn -0.078925 -0.872920 -0.481437
vn -0.078925 -0.872920 -0.481437
vn -0.006297 -0.982521 0.186048
vn -0.001081 -0.977643 0.210267
vn -0.007256 -0.983349 0.181582
vn 0.006713 -0.931740 0.363064
vn 0.000000 1.000000 0.000000
vn 0.000000 1.000000 0.000000
vn 0.000000 1.000000 0.000000
vn -0.053820 -0.024181 0.998258
vn -0.053820 -0.024181 0.998258
vn -0.053820 -0.024181 0.998258
vn -0.053820 -0.024181 0.998258
vn 0.000000 -1.000000 0.000000
vn 0.000000 -1.000000 0.000000
vn 0.000000 -1.000000 0.000000
vn 0.000000 -1.000000 0.000000
vn 0.000000 -1.000000 0.000000
vn 0.000000 -1.000000 0.000000
vn 0.000000 -1.000000 0.000000
vn 0.000000 -1.000000 0.000000
vn 0.000000 -1.000000 0.000000
vn 0.000000 -1.000000 0.000000
vn 0.000000 1.000000 0.000000
vn 0.000000 1.000000 0.000000
vn 0.000000 1.000000 0.000000
vn 0.000000 -1.000000 0.000000
vn 0.000000 -1.000000 0.000000
vn 0.000000 -1.000000 0.000000
vn 0.000000 -1.000000 0.000000
vn -0.999987 -0.004652 0.001954
vn -0.999986 -0.005002 -0.001986
vn -1.000000 -0.000007 -0.000001
vn -1.000000 -0.000007 -0.000001
vn 0.000000 1.000000 -0.000000
vn 0.000000 1.000000 -0.000000
vn 0.000000 1.000000 -0.000000
vn 0.000000 1.000000 -0.000000
vn 1.000000 0.000000 0.000000
vn 0.999985 0.005114 0.001922
vn 0.999987 0.004781 -0.001902
vn 1.000000 0.000000 0.000000
vn 0.000000 1.000000 0.000000
vn 0.000000 1.000000 -0.000000
vn 0.000000 1.000000 -0.000000
vn 0.000000 1.000000 0.000000
vn 0.000000 1.000000 0.000000
vn 0.000000 1.000000 0.000000
vn 0.000000 1.000000 -0.000000
vn 0.000000 1.000000 -0.000000
vn 0.000000 1.000000 0.000000
vn 0.000000 1.000000 0.000000
vn 0.000000 1.000000 0.000000
vn 0.000000 1.000000 -0.000000
vn 0.000000 0.000000 -1.000000
vn 0.000000 0.000000 -1.000000
vn 0.000000 0.000000 -1.000000
vn 0.000000 0.000000 -1.000000
vn 0.000000 -1.000000 0.000000
vn 0.000000 -1.000000 0.000000
vn 0.000000 -1.000000 0.000000
vn 0.000000 -1.000000 0.000000
vn 0.000000 -1.000000 0.000000
vn 0.000000 -1.000000 0.000000
vn 0.000000 -1.000000 0.000000
vn 0.000000 -1.000000 0.000000
vn 0.000000 -1.000000 0.000000
vn 0.000000 -1.000000 0.000000
vn 0.000000 -1.000000 0.000000
vn 0.000000 -1.000000 0.000000
vn 0.006713 -0.931740 0.363064
vn -0.001081 -0.977643 0.210267
vn -0.006297 -0.982521 0.186048
vn 0.006713 -0.931740 0.363064
vn 0.000000 -1.000000 0.000000
vn 0.000000 -1.000000 0.000000
vn 0.000000 -1.000000 -0.000000
vn 0.000000 -1.000000 -0.000000
vn 0.000000 -1.000000 0.000000
vn 0.000000 -1.000000 0.000000
vn 0.000000 -1.000000 0.000000
vn 0.000000 -1.000000 0.000000
vn 0.000000 -1.000000 0.000000
vn 0.000000 -1.000000 0.000000
vn 0.000000 -1.000000 0.000000
vn 0.000000 -1.000000 0.000000
vn 0.000000 0.000000 -1.000000
vn 0.000000 0.000000 -1.000000
vn 0.000000 0.000000 -1.000000
vn 0.000000 0.000000 -1.000000
vn 0.000000 1.000000 0.000000
vn 0.000000 1.000000 -0.000000
vn 0.000000 1.000000 -0.000000
vn 0.000000 1.000000 0.000000
vn 0.000000 1.000000 -0.000000
vn 0.000000 1.000000 -0.000000
vn 0.000000 1.000000 0.000000
vn 0.000000 1.000000 -0.000000
vn 0.000000 1.000000 0.000000
vn 0.000000 1.000000 0.000000
vn 0.000000 1.000000 -0.000000
vn 0.000000 1.000000 -0.000000
vn 0.012625 0.985640 -0.168390
vn -0.001937 0.977755 -0.209740
vn -0.014738 0.931739 -0.362830
vn -0.014738 0.931739 -0.362830
s off
f 6/46/1 1/2/2 24/3/3 25/4/4
f 2/5/5 15/6/6 17/56/7 7/58/8
f 21/9/9 22/10/10 4/11/11 9/60/12
f 9/54/13 4/11/14 16/13/15 18/55/16
f 30/15/17 31/16/18 39/17/19 40/45/20
f 29/19/21 30/47/22 40/18/23 41/20/24
f 13/49/25 11/22/26 2/5/27 7/58/28
f 5/23/29 10/59/30 26/51/31 23/26/32
f 33/27/33 34/28/34 36/29/35 37/30/36
f 19/31/37 27/32/38 43/33/39 44/34/40
f 17/56/41 15/6/42 3/35/43 8/61/44
f 18/55/45 16/13/46 12/37/47 14/50/48
f 16/13/49 4/11/50 22/10/51 20/39/52
f 19/31/53 21/53/54 9/12/55 18/14/56
f 8/36/57 19/31/58 44/34/59 17/7/60
f 27/32/61 28/40/62 42/41/63 43/33/64
f 15/6/65 35/42/66 20/39/67 3/35/68
f 35/42/69 36/29/70 34/28/71 20/39/72
f 21/53/73 19/31/74 8/36/75
f 3/35/76 22/10/77 21/9/78 8/57/79
f 3/35/80 20/39/81 22/10/82
f 31/16/83 32/43/84 38/44/85 39/17/86
f 20/39/87 12/37/88 16/13/89
f 14/38/90 19/31/91 18/14/92
f 37/30/93 38/44/94 32/43/95 33/27/96
f 25/4/97 24/3/98 11/22/99 13/49/100
f 28/40/101 29/19/102 41/20/103 42/41/104
f 12/37/105 23/26/106 26/51/107 14/50/108
f 14/38/109 28/40/110 27/32/111 19/31/112
f 14/38/113 26/25/114 29/19/115 28/40/116
f 26/25/117 10/24/118 30/47/119 29/19/120
f 10/52/121 5/23/122 31/16/123 30/15/124
f 5/23/125 23/26/126 32/43/127 31/16/128
f 32/43/129 23/26/130 12/37/131 33/27/132
f 20/39/133 34/28/134 33/27/135 12/37/136
f 2/5/137 36/29/138 35/42/139 15/6/140
f 37/30/141 36/29/142 2/5/143 11/22/144
f 11/22/145 24/3/146 38/44/147 37/30/148
f 24/3/149 1/2/150 39/17/151 38/44/152
f 40/45/153 39/17/154 1/2/155 6/62/156
f 6/1/157 25/48/158 41/20/159 40/18/160
f 41/20/161 25/48/162 13/21/163 42/41/164
f 43/33/165 42/41/166 13/21/167 7/8/168
f 44/34/169 43/33/170 7/8/171 17/7/172
