# This file uses centimeters as units for non-parametric coordinates.

v 0.804382 40.912048 -9.805206
v 0.903656 4.245239 -12.043030
v -0.692871 40.516602 13.698334
v -0.808807 5.677673 15.567841
v 0.046509 40.516602 13.792145
v -0.069427 5.677673 15.661621
v 1.543762 40.912048 -9.711456
v 1.643036 4.245239 -11.949310
v 1.198303 40.875488 6.033783
v 0.458923 40.888550 5.941193
v 0.167816 4.281799 3.867401
v 0.907196 4.268738 3.960022
v 0.426056 39.039368 -12.629028
v 0.141479 2.420959 -7.636810
v -1.322723 39.039368 12.260712
v -0.663391 4.150879 11.650299
v -0.591736 39.039368 12.135101
v 0.079163 4.150879 11.703247
v 1.163147 39.039368 -12.479004
v 0.881073 2.420959 -7.515778
v -1.299561 39.039368 4.669800
v -0.993042 3.190979 4.114197
v -0.253448 3.190979 4.235229
v -0.562469 39.039368 4.819794
v -0.481293 19.849365 4.006042
v -1.006470 19.437683 12.275635
v -1.749115 19.437683 12.229828
v -1.218384 19.849365 3.856079
v 0.426056 19.437683 -12.629028
v 1.163147 19.437683 -12.479004
v 0.839447 39.046570 -13.114746
v 0.761780 2.379761 -11.364288
v 1.205536 39.021973 10.914093
v 1.161438 2.395142 12.622009
v 1.924591 39.031189 11.161713
v 1.880493 2.404358 12.869659
v 1.579620 39.046570 -13.147827
v 1.501953 2.379761 -11.397369
v 2.450348 39.046570 4.689880
v 2.177795 2.379761 2.447937
v 1.437592 2.379761 2.481018
v 1.710144 39.046570 4.722992
v 1.752411 38.229858 -14.756683
v 1.752411 0.000000 -14.756683
v 3.331451 38.229858 13.328064
v 3.331451 0.000000 13.328064
v 3.331451 26.546631 13.328064
v 3.441650 37.534790 15.287811
v 3.441650 27.241699 15.287811
v -0.395447 38.229858 -14.757843
v -3.368256 26.546631 12.801880
v -0.395447 0.000000 -14.757843
v -3.368256 0.000000 12.801880
v -2.640137 26.546631 12.902679
v -2.640137 0.000000 12.902679
v 2.590271 0.000000 13.369720
v 2.590271 26.546631 13.369720
v 2.700439 27.241699 15.329468
v 2.700439 37.534790 15.329468
v 2.590271 38.229858 13.369690
v 1.081451 38.229858 -13.465820
v 1.081451 0.000000 -13.465790
v 0.198822 38.229858 -13.416168
v 0.198822 0.000000 -13.416199
v 0.613800 38.229858 -13.909210
v 0.613800 0.000000 -13.909210
v 0.537811 0.000000 -15.260742
v 0.537811 38.229858 -15.260742
v -2.613556 14.045654 5.805420
v -2.613556 1.513184 5.805420
v -3.171204 1.513184 10.975098
v -3.171204 14.045654 10.975098
v -3.195770 27.260132 11.202820
v -3.195770 38.229858 11.202820
v -2.467651 38.229858 11.303619
v -2.467651 27.260132 11.303619
v 2.563660 28.884277 12.896820
v 2.563660 36.329102 12.896820
v 2.663635 36.329102 14.674988
v 2.663635 28.884277 14.674988
v -4.591125 0.516655 16.428528
v 4.591125 0.516655 16.428528
v -4.591125 14.605924 16.428528
v 4.591125 14.605919 16.428528
v -4.591125 36.073589 -16.428528
v 4.591125 36.073589 -16.428528
v -4.591125 0.516655 -16.428528
v 4.591125 0.516655 -16.428528
v 4.591125 36.073589 -3.253510
v -4.591125 36.073589 -3.253510
v 3.339111 36.073589 -3.253510
v -3.339203 36.073589 -3.253510
v 3.339111 36.073589 -15.063812
v -3.339203 36.073589 -15.063812
v -3.339203 15.896449 15.354004
v 3.339111 15.896448 15.354004
v -3.339203 1.476892 15.354004
v 3.339111 1.476891 15.354004
v 3.339111 1.476904 -15.063782
v -3.339203 1.476904 -15.063782
v -3.172577 2.022362 16.428528
v 3.172546 2.022362 16.428528
v 3.172546 13.100214 16.428528
v -3.172577 13.100218 16.428528
vt 0.103872 0.376618
vt 0.103872 0.376618
vt 0.103872 0.376618
vt 0.103872 0.376618
vt 0.103872 0.376618
vt 0.103872 0.376618
vt 0.103872 0.376618
vt 0.103872 0.376618
vt 0.103872 0.376617
vt 0.103872 0.376617
vt 0.103872 0.376618
vt 0.103872 0.376618
vt 0.103872 0.376618
vt 0.103872 0.376618
vt 0.103872 0.376618
vt 0.103872 0.376618
vt 0.103872 0.376618
vt 0.103872 0.376618
vt 0.103872 0.376618
vt 0.103872 0.376618
vt 0.103872 0.376618
vt 0.103872 0.376618
vt 0.103872 0.376618
vt 0.103872 0.376618
vt 0.103872 0.376618
vt 0.103872 0.376618
vt 0.103872 0.376618
vt 0.103872 0.376618
vt 0.103872 0.376617
vt 0.103872 0.376618
vt 0.103872 0.376618
vt 0.103872 0.376617
vt 0.103872 0.376618
vt 0.103872 0.376618
vt 0.103872 0.376618
vt 0.103872 0.376618
vt 0.103872 0.376618
vt 0.103872 0.376618
vt 0.103872 0.376618
vt 0.103872 0.376618
vt 0.103872 0.376618
vt 0.103872 0.376618
vt 0.103872 0.376618
vt 0.103872 0.376618
vt 0.103872 0.376618
vt 0.103872 0.376618
vt 0.103872 0.376617
vt 0.103872 0.376618
vt 0.103872 0.376618
vt 0.103872 0.376618
vt 0.103872 0.376618
vt 0.103872 0.376618
vt 0.103872 0.376618
vt 0.103872 0.376618
vt 0.103872 0.376618
vt 0.103872 0.376618
vt 0.103872 0.376618
vt 0.103872 0.376618
vt 0.103872 0.376618
vt 0.103872 0.376617
vt 0.103872 0.376617
vt 0.103872 0.376618
vt 0.103872 0.376618
vt 0.103872 0.376618
vt 0.103872 0.376618
vt 0.103872 0.376618
vt 0.103872 0.376618
vt 0.003669 0.326203
vt 0.003669 0.326203
vt 0.003669 0.326203
vt 0.337622 0.326579
vt 0.361866 0.326579
vt 0.361866 0.338485
vt 0.337622 0.338485
vt 0.003669 0.326203
vt 0.003669 0.326203
vt 0.003669 0.326203
vt 0.003669 0.326203
vt 0.003669 0.326203
vt 0.003669 0.326203
vt 0.003669 0.326203
vt 0.003669 0.326203
vt 0.003669 0.326203
vt 0.003669 0.326203
vt 0.003669 0.326203
vt 0.003669 0.326203
vt 0.003669 0.326203
vt 0.003669 0.326203
vt 0.003669 0.326203
vt 0.003669 0.326203
vt 0.003669 0.326203
vt 0.003669 0.326203
vt 0.003669 0.326203
vt 0.003669 0.326203
vt 0.003669 0.326203
vt 0.003669 0.326203
vt 0.003669 0.326203
vt 0.003669 0.326203
vt 0.003669 0.326203
vt 0.003669 0.326203
vt 0.003669 0.326203
vt 0.003669 0.326203
vt 0.003669 0.326203
vt 0.003669 0.326203
vt 0.003669 0.326203
vt 0.003669 0.326203
vt 0.003669 0.326203
vt 0.003669 0.326203
vt 0.003669 0.326203
vt 0.003669 0.326203
vt 0.003669 0.326203
vt 0.003669 0.326203
vt 0.003669 0.326203
vt 0.003669 0.326203
vt 0.003669 0.326203
vt 0.003669 0.326203
vt 0.003669 0.326203
vt 0.003669 0.326203
vt 0.003669 0.326203
vt 0.003669 0.326203
vt 0.003669 0.326203
vt 0.003669 0.326203
vt 0.003669 0.326203
vt 0.003669 0.326203
vt 0.003669 0.326203
vt 0.003669 0.326203
vt 0.003669 0.326203
vt 0.003669 0.326203
vt 0.123012 0.205756
vt 0.123238 0.205699
vt 0.123484 0.206642
vt 0.123257 0.206699
vt 0.003669 0.326203
vt 0.132468 0.183916
vt 0.132320 0.183871
vt 0.132527 0.183453
vt 0.132669 0.183493
vt 0.132742 0.183011
vt 0.132532 0.182955
vt 0.132510 0.183436
vt 0.132705 0.183492
vt 0.132283 0.183893
vt 0.132487 0.183955
vt 0.132492 0.183833
vt 0.132663 0.183170
vt 0.339265 0.325973
vt 0.324301 0.325973
vt 0.324301 0.355148
vt 0.339265 0.355148
vt 0.132449 0.183112
vt 0.132284 0.183771
vt 0.132478 0.183120
vt 0.132321 0.183744
vt 0.132473 0.183790
vt 0.132634 0.183162
vt 0.132549 0.182984
vt 0.132703 0.183025
vt 0.132283 0.183893
vt 0.132487 0.183955
vt 0.132284 0.183771
vt 0.132492 0.183833
vn -0.997997 0.005149 -0.063045
vn -0.998203 0.005088 -0.059709
vn -0.994019 0.005975 -0.109047
vn -0.994019 0.005975 -0.109047
vn -0.125634 0.053577 0.990629
vn -0.125634 0.053577 0.990629
vn -0.125634 0.053577 0.990629
vn -0.125634 0.053577 0.990629
vn 0.994019 -0.005975 0.109042
vn 0.994019 -0.005975 0.109042
vn 0.998203 -0.005088 0.059705
vn 0.997997 -0.005149 0.063054
vn 0.125584 0.060775 -0.990220
vn 0.125584 0.060775 -0.990220
vn 0.125584 0.060775 -0.990220
vn 0.125584 0.060775 -0.990220
vn -0.015253 -0.998579 0.051055
vn -0.015204 -0.998600 0.050662
vn -0.023518 -0.992850 0.117031
vn -0.023518 -0.992850 0.117031
vn 0.006705 0.999835 0.016861
vn 0.006612 0.999823 0.017596
vn 0.002840 0.998869 0.047465
vn 0.002840 0.998869 0.047465
vn 0.008567 0.999961 0.002096
vn 0.008567 0.999961 0.002096
vn 0.006612 0.999823 0.017596
vn 0.006705 0.999835 0.016861
vn -0.999406 0.004625 -0.034139
vn -0.999406 0.004625 -0.034139
vn -0.998203 0.005088 -0.059709
vn -0.997997 0.005149 -0.063045
vn -0.009016 -0.999958 0.001471
vn -0.009016 -0.999958 0.001471
vn -0.015204 -0.998600 0.050662
vn -0.015253 -0.998579 0.051055
vn 0.997997 -0.005149 0.063054
vn 0.998203 -0.005088 0.059705
vn 0.999406 -0.004625 0.034137
vn 0.999406 -0.004625 0.034137
vn -0.998096 -0.013543 -0.060179
vn -0.993810 -0.007797 -0.110824
vn -0.994122 -0.022305 -0.105940
vn -0.998029 -0.040891 -0.047598
vn -0.036437 -0.018151 0.999171
vn -0.034127 -0.017308 0.999268
vn -0.102533 -0.042266 0.993831
vn -0.102533 -0.042266 0.993831
vn 0.993769 0.007905 0.111176
vn 0.998079 0.014063 0.060344
vn 0.998046 0.040964 0.047180
vn 0.994110 0.022232 0.106067
vn 0.224299 -0.133081 -0.965391
vn 0.224171 -0.134404 -0.965237
vn 0.207612 -0.279161 -0.937532
vn 0.207612 -0.279162 -0.937532
vn -0.015358 -0.996074 0.087179
vn -0.015596 -0.995874 0.089402
vn -0.019606 -0.991719 0.126918
vn -0.019606 -0.991719 0.126918
vn 0.000000 1.000000 -0.000000
vn 0.000000 1.000000 -0.000000
vn 0.000000 1.000000 -0.000000
vn 0.000000 1.000000 -0.000000
vn -0.993810 -0.007797 -0.110824
vn -0.990870 -0.005131 -0.134722
vn -0.990950 -0.013432 -0.133560
vn -0.994122 -0.022305 -0.105940
vn -0.012871 -0.997870 0.063948
vn -0.012871 -0.997870 0.063948
vn -0.015596 -0.995874 0.089402
vn -0.015358 -0.996074 0.087179
vn 0.990870 0.005127 0.134722
vn 0.993769 0.007905 0.111176
vn 0.994110 0.022232 0.106067
vn 0.990950 0.013413 0.133560
vn 0.000000 1.000000 -0.000000
vn 0.000000 1.000000 -0.000000
vn 0.000000 1.000000 -0.000000
vn 0.000000 1.000000 -0.000000
vn 0.997385 -0.009206 0.071683
vn 0.998079 0.014063 0.060344
vn 0.993769 0.007905 0.111176
vn 0.993401 -0.003010 0.114654
vn 0.017735 0.001631 0.999841
vn -0.034127 -0.017308 0.999268
vn -0.036437 -0.018151 0.999171
vn 0.017735 0.001631 0.999841
vn -0.993473 0.003205 -0.114021
vn -0.993810 -0.007797 -0.110824
vn -0.998096 -0.013543 -0.060179
vn -0.997444 0.009643 -0.070798
vn -0.990786 -0.000000 -0.135436
vn -0.990870 -0.005131 -0.134722
vn -0.993810 -0.007797 -0.110824
vn -0.993473 0.003205 -0.114021
vn 0.234964 -0.000000 -0.972004
vn 0.224171 -0.134404 -0.965237
vn 0.224299 -0.133081 -0.965391
vn 0.234964 -0.000000 -0.972004
vn 0.993401 -0.003010 0.114654
vn 0.993769 0.007905 0.111176
vn 0.990870 0.005127 0.134722
vn 0.990786 0.000000 0.135436
vn -0.998801 0.004443 0.048754
vn -0.998801 0.004443 0.048754
vn -0.999834 0.004519 0.017640
vn -0.999887 0.004527 0.014321
vn -0.325800 0.044430 0.944394
vn -0.325800 0.044430 0.944394
vn -0.325800 0.044430 0.944394
vn -0.325800 0.044430 0.944394
vn 0.999903 -0.004531 -0.013212
vn 0.999852 -0.004523 -0.016632
vn 0.998801 -0.004443 -0.048754
vn 0.998801 -0.004443 -0.048754
vn -0.044615 -0.047544 -0.997872
vn -0.044615 -0.047544 -0.997872
vn -0.044615 -0.047544 -0.997872
vn -0.044615 -0.047544 -0.997872
vn -0.000000 -1.000000 -0.000000
vn -0.000000 -1.000000 -0.000000
vn 0.002442 -0.999997 0.000861
vn 0.002620 -0.999996 0.000923
vn -0.000000 1.000000 -0.000000
vn -0.000000 1.000000 -0.000000
vn -0.001874 0.999998 0.000733
vn -0.001609 0.999999 0.000629
vn 0.998804 -0.004670 0.048663
vn 0.998804 -0.004670 0.048663
vn 0.999852 -0.004523 -0.016632
vn 0.999903 -0.004531 -0.013212
vn 0.002620 -0.999996 0.000923
vn 0.002442 -0.999997 0.000861
vn 0.005990 -0.999980 0.002111
vn 0.005990 -0.999980 0.002111
vn -0.999887 0.004527 0.014321
vn -0.999834 0.004519 0.017640
vn -0.998848 0.004663 -0.047749
vn -0.998848 0.004663 -0.047749
vn -0.001609 0.999999 0.000629
vn -0.001874 0.999998 0.000733
vn -0.006683 0.999974 0.002613
vn -0.006683 0.999974 0.002613
vn -0.994233 0.000000 -0.107246
vn -0.994233 0.000000 -0.107246
vn -0.994233 0.000000 -0.107246
vn -0.994232 0.000000 -0.107247
vn -0.994232 0.000000 -0.107247
vn -0.994232 0.000000 -0.107247
vn -0.994232 0.000000 -0.107247
vn 0.998423 0.000000 -0.056135
vn 0.998423 0.000000 -0.056135
vn 0.998423 0.000000 -0.056135
vn 0.998423 0.000000 -0.056135
vn 0.998423 0.000000 -0.056135
vn 0.998423 0.000000 -0.056135
vn 0.998423 0.000000 -0.056135
vn 0.998423 0.000000 -0.056143
vn 0.998423 0.000000 -0.056143
vn 0.998423 0.000000 -0.056143
vn 0.998423 0.000000 -0.056143
vn 0.000000 1.000000 0.000000
vn 0.000000 1.000000 0.000000
vn 0.000000 1.000000 0.000000
vn 0.000000 1.000000 0.000000
vn -0.137131 0.000000 0.990553
vn -0.137131 0.000000 0.990553
vn -0.137131 0.000000 0.990553
vn -0.137131 0.000000 0.990553
vn 0.000000 -1.000000 0.000000
vn 0.000000 -1.000000 0.000000
vn 0.000000 -1.000000 0.000000
vn 0.000000 -1.000000 0.000000
vn 0.000000 -1.000000 0.000000
vn 0.000000 -1.000000 0.000000
vn 0.000000 -1.000000 0.000000
vn 0.000000 -1.000000 0.000000
vn 0.056114 0.000000 0.998424
vn 0.056114 0.000000 0.998424
vn 0.056114 0.000000 0.998424
vn 0.056114 0.000000 0.998424
vn 0.018730 -0.942643 0.333277
vn 0.018730 -0.942643 0.333277
vn 0.018730 -0.942643 0.333277
vn 0.018730 -0.942643 0.333277
vn 0.056112 0.000000 0.998425
vn 0.056112 0.000000 0.998425
vn 0.056112 0.000000 0.998425
vn 0.056112 0.000000 0.998425
vn 0.018723 0.942644 0.333274
vn 0.018723 0.942644 0.333274
vn 0.018723 0.942644 0.333274
vn 0.018723 0.942644 0.333274
vn 0.000000 1.000000 0.000000
vn 0.000000 1.000000 0.000000
vn 0.000000 1.000000 0.000000
vn 0.000000 1.000000 0.000000
vn -0.998423 -0.000000 0.056136
vn -0.998423 -0.000000 0.056136
vn -0.998423 -0.000001 0.056137
vn -0.998423 -0.000001 0.056137
vn -0.998423 0.000011 0.056133
vn -0.998423 0.000002 0.056135
vn -0.998423 0.000002 0.056139
vn -0.998423 0.000007 0.056138
vn 0.765066 -0.000000 0.643952
vn 0.765066 -0.000000 0.643952
vn 0.765066 -0.000000 0.643952
vn 0.765066 -0.000000 0.643952
vn 0.000000 -1.000000 0.000000
vn 0.000000 -1.000000 0.000000
vn 0.000000 -1.000000 0.000000
vn 0.000000 -1.000000 0.000000
vn -0.474375 0.000000 -0.880323
vn -0.474375 0.000000 -0.880323
vn -0.474375 0.000000 -0.880323
vn -0.474375 0.000000 -0.880323
vn 0.000000 1.000000 -0.000004
vn 0.000000 1.000000 -0.000004
vn 0.000000 1.000000 -0.000004
vn 0.000000 1.000000 -0.000004
vn 0.000000 -1.000000 0.000000
vn 0.000000 -1.000000 0.000000
vn 0.000000 -1.000000 0.000000
vn 0.000000 -1.000000 0.000000
vn -0.688044 0.000000 0.725669
vn -0.688044 0.000000 0.725669
vn -0.688044 0.000000 0.725669
vn -0.688044 0.000000 0.725669
vn 0.000000 1.000000 0.000000
vn 0.000000 1.000000 0.000000
vn 0.000000 1.000000 0.000000
vn 0.000000 1.000000 0.000000
vn 0.383303 0.000000 -0.923623
vn 0.383303 0.000000 -0.923623
vn 0.383303 0.000000 -0.923623
vn 0.383303 0.000000 -0.923623
vn -0.994233 0.000000 -0.107245
vn -0.994233 0.000000 -0.107245
vn -0.994233 0.000000 -0.107245
vn -0.994233 0.000000 -0.107245
vn -0.994233 0.000003 -0.107246
vn -0.994233 0.000003 -0.107246
vn -0.994233 0.000003 -0.107246
vn -0.994233 0.000003 -0.107246
vn -0.994233 0.000000 -0.107246
vn -0.994232 0.000000 -0.107246
vn -0.994233 0.000000 -0.107246
vn -0.994233 0.000000 -0.107246
vn -0.994233 -0.000000 -0.107246
vn -0.994233 -0.000000 -0.107246
vn -0.994233 -0.000000 -0.107246
vn -0.994233 -0.000000 -0.107246
vn 0.994233 -0.000000 0.107246
vn 0.994233 -0.000000 0.107246
vn 0.994233 -0.000000 0.107246
vn 0.994233 0.000000 0.107246
vn 0.994233 -0.000000 0.107246
vn 0.994233 -0.000000 0.107246
vn -0.055629 0.914021 0.401835
vn -0.055629 0.914021 0.401835
vn -0.135809 0.138513 0.981005
vn -0.135892 0.134111 0.981605
vn -0.135892 0.134111 0.981605
vn -0.135809 0.138513 0.981005
vn -0.137130 0.000000 0.990553
vn -0.137130 0.000000 0.990553
vn -0.994233 -0.000000 -0.107246
vn -0.994233 -0.000000 -0.107246
vn -0.994233 -0.000001 -0.107246
vn 0.994233 -0.000000 0.107246
vn 0.994233 -0.000000 0.107246
vn 0.994233 0.000000 0.107246
vn 0.994233 0.000000 0.107246
vn -0.998423 -0.000002 0.056135
vn -0.998423 -0.000001 0.056139
vn -0.998423 0.000002 0.056139
vn -0.998423 0.000002 0.056135
vn -0.998423 0.000000 0.056135
vn -0.998423 0.000001 0.056135
vn -0.998423 0.000013 0.056136
vn -0.998423 0.000000 0.056135
vn -0.998423 -0.000000 0.056136
vn -0.998423 -0.000000 0.056136
vn -0.998423 0.000001 0.056135
vn -0.998423 -0.000006 0.056136
vn -0.998423 -0.000001 0.056139
vn -0.998423 -0.000002 0.056135
vn -0.998423 -0.000008 0.056132
vn -0.998423 0.000007 0.056138
vn -0.998423 0.000002 0.056139
vn -0.998423 -0.000001 0.056139
vn -0.998423 -0.000006 0.056136
vn 0.000000 1.000000 0.000000
vn 0.000000 1.000000 0.000000
vn 0.000000 0.660294 0.751007
vn 0.000000 0.660294 0.751007
vn 0.000000 0.000000 -1.000000
vn 0.000000 0.000000 -1.000000
vn 0.000000 0.000000 -1.000000
vn 0.000000 0.000000 -1.000000
vn 0.000000 -1.000000 0.000000
vn 0.000000 -1.000000 0.000000
vn 0.000000 -1.000000 0.000000
vn 0.000000 -1.000000 0.000000
vn -1.000000 -0.000000 0.000000
vn -1.000000 -0.000000 0.000000
vn -1.000000 -0.000000 0.000000
vn -1.000000 -0.000000 0.000000
vn -1.000000 -0.000000 0.000000
vn 0.000000 0.000000 1.000000
vn 0.000000 0.000000 1.000000
vn 0.000000 0.000000 1.000000
vn 0.000000 0.000000 1.000000
vn 1.000000 0.000000 0.000000
vn 1.000000 0.000000 0.000000
vn 1.000000 0.000000 0.000000
vn 1.000000 0.000000 0.000000
vn 1.000000 0.000000 0.000000
vn 0.021323 0.663827 0.747582
vn 0.032917 0.676463 0.735741
vn 0.032917 0.676463 0.735741
vn 0.024710 0.667547 0.744157
vn -0.032918 0.676463 0.735741
vn -0.021322 0.663825 0.747584
vn -0.024710 0.667547 0.744157
vn -0.032918 0.676463 0.735741
vn 0.000000 1.000000 0.000000
vn 0.000000 1.000000 0.000000
vn 0.000000 1.000000 0.000000
vn 0.000000 1.000000 0.000000
vn 0.000000 1.000000 -0.000000
vn 0.000000 1.000000 -0.000000
vn 0.000000 1.000000 -0.000000
vn 0.000000 1.000000 -0.000000
vn 0.000000 1.000000 0.000000
vn 0.000000 1.000000 0.000000
vn 0.000000 1.000000 0.000000
vn 0.000000 1.000000 0.000000
vn 0.021323 0.663827 0.747582
vn 0.024710 0.667547 0.744157
vn -0.024710 0.667547 0.744157
vn -0.021322 0.663825 0.747584
vn 0.000000 0.000000 -1.000000
vn 0.000000 0.000000 -1.000000
vn 0.000000 0.000000 -1.000000
vn 0.000000 0.000000 -1.000000
vn -1.000000 0.000000 0.000000
vn -1.000000 0.000000 0.000000
vn -1.000000 0.000000 0.000000
vn -1.000000 0.000000 0.000000
vn 1.000000 -0.000000 0.000000
vn 1.000000 -0.000000 0.000000
vn 1.000000 -0.000000 0.000000
vn 1.000000 -0.000000 0.000000
vn -1.000000 0.000000 0.000000
vn -1.000000 0.000000 0.000000
vn -1.000000 0.000000 0.000000
vn 0.000000 0.000001 1.000000
vn 0.000000 0.000001 1.000000
vn 0.000000 0.660294 0.751007
vn 0.000000 0.660294 0.751007
vn 1.000000 0.000000 0.000000
vn 1.000000 0.000000 0.000000
vn 1.000000 0.000000 0.000000
vn 0.000000 0.000000 1.000000
vn 0.000000 0.000000 1.000000
vn 0.000000 0.000000 1.000000
vn 0.000000 0.000000 1.000000
vn -0.000001 0.000000 1.000000
vn -0.000001 0.000000 1.000000
vn -0.000001 0.000000 1.000000
vn -0.000001 0.000000 1.000000
vn 0.000000 0.000000 1.000000
vn 0.000000 0.000000 1.000000
vn 0.000000 0.000000 1.000000
vn 0.000000 0.000000 1.000000
vn -0.000000 0.000000 1.000000
vn -0.000000 0.000000 1.000000
vn -0.000000 0.000000 1.000000
vn -0.000000 0.000000 1.000000
s off
f 10/17/1 11/18/2 4/4/3 3/3/4
f 3/3/5 4/4/6 6/6/7 5/5/8
f 5/5/9 6/6/10 12/19/11 9/16/12
f 7/7/13 8/8/14 2/10/15 1/9/16
f 11/18/17 12/20/18 6/12/19 4/4/20
f 9/15/21 10/17/22 3/3/23 5/14/24
f 7/13/25 1/1/26 10/17/27 9/15/28
f 1/1/29 2/2/30 11/18/31 10/17/32
f 2/2/33 8/11/34 12/20/35 11/18/36
f 9/16/37 12/19/38 8/8/39 7/7/40
f 27/21/41 28/22/42 22/23/43 16/24/44
f 26/25/45 27/21/46 16/24/47 18/26/48
f 25/27/49 26/25/50 18/26/51 23/28/52
f 29/29/53 30/30/54 20/31/55 14/32/56
f 22/23/57 23/33/58 18/34/59 16/24/60
f 24/35/61 21/36/62 15/37/63 17/38/64
f 28/22/65 29/39/66 14/40/67 22/23/68
f 14/40/69 20/41/70 23/33/71 22/23/72
f 30/30/73 25/27/74 23/28/75 20/31/76
f 19/42/77 13/43/78 21/36/79 24/35/80
f 17/44/81 26/25/82 25/27/83 24/45/84
f 15/37/85 27/21/86 26/25/87 17/44/88
f 21/36/89 28/22/90 27/21/91 15/37/92
f 13/43/93 29/39/94 28/22/95 21/36/96
f 19/46/97 30/30/98 29/29/99 13/47/100
f 24/45/101 25/27/102 30/30/103 19/46/104
f 31/48/105 32/49/106 41/50/107 42/51/108
f 33/52/109 34/53/110 36/54/111 35/55/112
f 39/56/113 40/57/114 38/58/115 37/59/116
f 37/59/117 38/58/118 32/60/119 31/61/120
f 32/49/121 38/62/122 40/63/123 41/50/124
f 37/64/125 31/48/126 42/51/127 39/65/128
f 35/55/129 36/54/130 40/57/131 39/56/132
f 41/50/133 40/63/134 36/66/135 34/53/136
f 42/51/137 41/50/138 34/53/139 33/52/140
f 39/65/141 42/51/142 33/52/143 35/67/144
f 50/68/145 73/69/146 74/70/147
f 69/71/148 70/72/149 71/73/150 72/74/151
f 43/75/152 45/76/153 47/77/154
f 43/75/155 47/77/156 46/78/157 44/79/158
f 45/80/159 48/81/160 49/82/161 47/83/162
f 74/70/163 75/84/164 63/85/165 50/68/166
f 55/86/167 54/87/168 51/88/169 53/89/170
f 52/90/171 64/91/172 55/86/173 53/89/174
f 44/92/175 46/93/176 56/94/177 62/95/178
f 46/93/179 47/96/180 57/97/181 56/94/182
f 47/98/183 49/99/184 58/100/185 57/101/186
f 49/99/187 48/102/188 59/103/189 58/100/190
f 48/102/191 45/104/192 60/105/193 59/103/194
f 45/106/195 43/107/196 61/108/197 60/109/198
f 77/110/199 62/95/200 56/94/201 57/101/202
f 60/109/203 78/111/204 79/112/205 59/103/206
f 63/113/207 64/91/208 66/114/209 65/115/210
f 64/91/211 52/90/212 67/116/213 66/114/214
f 52/90/215 50/68/216 68/117/217 67/116/218
f 50/68/219 63/113/220 65/115/221 68/117/222
f 44/92/223 62/95/224 66/118/225 67/119/226
f 62/95/227 61/108/228 65/120/229 66/118/230
f 61/108/231 43/107/232 68/121/233 65/120/234
f 43/107/235 44/92/236 67/119/237 68/121/238
f 50/68/239 52/90/240 70/122/241 69/123/242
f 52/90/243 53/89/244 71/124/245 70/122/246
f 53/89/247 51/88/248 72/125/249 71/124/250
f 51/88/251 73/126/252 69/123/253 72/125/254
f 63/113/255 76/127/256 64/91/257
f 75/128/258 76/127/259 63/113/260
f 51/88/261 54/87/262 76/127/263 73/126/264
f 73/126/265 76/127/266 75/84/267 74/70/268
f 69/123/269 73/126/270 50/68/271
f 64/91/272 76/127/273 54/87/274 55/86/275
f 77/129/276 80/130/277 79/131/278 78/132/279
f 61/108/280 78/111/281 60/109/282
f 61/108/283 62/95/284 77/110/285 78/111/286
f 58/100/287 80/133/288 77/110/289 57/101/290
f 59/103/291 79/112/292 80/133/293 58/100/294
f 97/134/295 98/135/296 99/136/297 100/137/298
f 85/138/299 86/139/300 88/140/301 87/141/302
f 87/141/303 88/140/304 82/142/305 81/143/306
f 87/141/307 81/143/308 83/144/309 90/145/310 85/138/311
f 101/146/312 102/147/313 103/148/314 104/149/315
f 82/142/316 88/140/317 86/139/318 89/150/319 84/151/320
f 84/151/321 89/150/322 91/152/323 96/153/324
f 90/145/325 83/144/326 95/154/327 92/155/328
f 89/150/329 86/139/330 93/156/331 91/152/332
f 86/139/333 85/138/334 94/157/335 93/156/336
f 85/138/337 90/145/338 92/155/339 94/157/340
f 84/151/341 96/153/342 95/154/343 83/144/344
f 95/154/345 96/153/346 98/135/347 97/134/348
f 96/153/349 91/152/350 99/136/351 98/135/352
f 92/155/353 95/154/354 97/134/355 100/137/356
f 91/152/357 93/156/358 99/136/359
f 93/156/360 94/157/361 100/137/362 99/136/363
f 94/157/364 92/155/365 100/137/366
f 81/143/367 82/142/368 102/158/369 101/159/370
f 82/142/371 84/151/372 103/160/373 102/158/374
f 84/151/375 83/144/376 104/161/377 103/160/378
f 83/144/379 81/143/380 101/159/381 104/161/382
