# This file uses centimeters as units for non-parametric coordinates.

v 0.000000 0.000000 -7.684814
v -6.655273 0.000000 -3.842285
v -6.655273 0.000000 3.842285
v 0.000000 0.000000 7.684571
v 6.654968 0.000000 3.842285
v 6.654968 0.000000 -3.842285
v 0.000000 15.768227 -7.684814
v -6.655273 15.768227 -3.842285
v -6.655273 15.768227 3.842285
v 0.000000 15.768227 7.684571
v 6.654968 15.768227 3.842285
v 6.654968 15.768227 -3.842285
v 0.000000 0.000000 0.000000
v 0.000000 15.768227 -5.539551
v -4.797180 15.768227 -2.769531
v -4.797180 15.768227 2.769531
v 0.000000 15.768227 5.539063
v 4.796875 15.768227 2.769531
v 4.796875 15.768227 -2.769531
v 0.000000 3.115211 -5.110840
v -4.426025 3.115211 -2.555664
v 0.000000 3.115211 0.000000
v -4.426025 3.115211 2.555420
v 0.000000 3.115211 5.110840
v 4.426025 3.115211 2.555420
v 4.426025 3.115211 -2.555664
v 6.654968 1.486229 1.329590
v 6.654968 1.486229 -1.329590
v 6.654968 14.281990 -1.329590
v 6.654968 14.281990 1.329590
v 6.654968 4.330780 1.329590
v 6.654968 4.330780 -1.329590
v 6.654968 11.693375 -1.329590
v 6.654968 11.693375 1.329590
v 12.567566 3.836105 1.329590
v 12.567566 3.836105 -1.329590
v 11.339477 5.776215 -1.329590
v 11.339477 5.776215 1.329590
v 11.339477 12.691598 -1.329590
v 11.339477 12.691598 1.329590
v 12.567566 14.422219 -1.329590
v 12.567566 14.422219 1.329590
v 14.366333 9.504143 1.329590
v 14.366333 9.504143 -1.329590
v 12.398437 9.504143 -1.329590
v 12.398437 9.504143 1.329590
vt 0.103296 0.206151
vt 0.103296 0.206151
vt 0.103296 0.206151
vt 0.103296 0.206151
vt 0.103296 0.206151
vt 0.103296 0.206151
vt 0.103296 0.206151
vt 0.103296 0.206151
vt 0.103296 0.206151
vt 0.103296 0.206151
vt 0.103296 0.206151
vt 0.103296 0.206151
vt 0.103296 0.206151
vt 0.103296 0.206151
vt 0.103296 0.206151
vt 0.103296 0.206151
vt 0.103296 0.206151
vt 0.103296 0.206151
vt 0.103296 0.206151
vt 0.103296 0.206151
vt 0.103296 0.206151
vt 0.103296 0.206151
vt 0.103296 0.206151
vt 0.103296 0.206151
vt 0.103296 0.206151
vt 0.103296 0.206151
vt 0.103296 0.206151
vt 0.103296 0.206151
vt 0.103296 0.206151
vt 0.103296 0.206151
vt 0.103296 0.206151
vt 0.103296 0.206151
vt 0.103296 0.206151
vt 0.103296 0.206151
vt 0.103296 0.206151
vt 0.103296 0.206151
vt 0.103296 0.206151
vt 0.103296 0.206151
vt 0.103296 0.206151
vt 0.103296 0.206151
vt 0.103296 0.206151
vt 0.103296 0.206151
vt 0.103296 0.206151
vt 0.103296 0.206151
vt 0.103296 0.206151
vt 0.103296 0.206151
vt 0.103296 0.206151
vt 0.103296 0.206151
vt 0.103296 0.206151
vt 0.103296 0.206151
vt 0.103296 0.206151
vt 0.103296 0.206151
vt 0.103296 0.206151
vt 0.103296 0.206151
vt 0.103296 0.206151
vt 0.103296 0.206151
vt 0.103296 0.206151
vt 0.103296 0.206151
vt 0.103296 0.206151
vt 0.103296 0.206151
vt 0.103296 0.206151
vt 0.103296 0.206151
vt 0.103296 0.206151
vt 0.103296 0.206151
vt 0.103296 0.206151
vt 0.103296 0.206151
vt 0.103296 0.206151
vt 0.103296 0.206151
vt 0.103296 0.206151
vt 0.103296 0.206151
vt 0.103296 0.206151
vt 0.103296 0.206151
vt 0.103296 0.206151
vt 0.103296 0.206151
vt 0.103296 0.206151
vt 0.103296 0.206151
vt 0.103296 0.206151
vt 0.103296 0.206151
vt 0.103296 0.206151
vt 0.103296 0.206151
vt 0.103296 0.206151
vt 0.103296 0.206151
vt 0.103296 0.206151
vt 0.103296 0.206151
vt 0.103296 0.206151
vt 0.103296 0.206151
vt 0.103296 0.206151
vt 0.103296 0.206151
vt 0.103296 0.206151
vt 0.103296 0.206151
vt 0.103296 0.206151
vt 0.103296 0.206151
vt 0.103296 0.206151
vt 0.103296 0.206151
vt 0.103296 0.206151
vt 0.103296 0.206151
vt 0.103296 0.206151
vt 0.103296 0.206151
vt 0.103296 0.206151
vt 0.103296 0.206151
vt 0.103296 0.206151
vt 0.103296 0.206151
vt 0.103296 0.206151
vt 0.103296 0.206151
vt 0.103296 0.206151
vt 0.103296 0.206151
vt 0.103296 0.206151
vt 0.103296 0.206151
vt 0.103296 0.206151
vt 0.103296 0.206151
vt 0.103296 0.206151
vt 0.103296 0.206151
vt 0.103296 0.206151
vt 0.103296 0.206151
vt 0.103296 0.206151
vt 0.103296 0.206151
vt 0.103296 0.206151
vt 0.103296 0.206151
vt 0.103296 0.206151
vt 0.103296 0.206151
vt 0.103296 0.206151
vt 0.103296 0.206151
vt 0.103296 0.206151
vt 0.103296 0.206151
vt 0.103296 0.206151
vt 0.103296 0.206151
vt 0.103296 0.206151
vt 0.103296 0.206151
vt 0.103296 0.206151
vt 0.103296 0.206151
vt 0.103296 0.206151
vt 0.103296 0.206151
vt 0.103296 0.206151
vt 0.103296 0.206151
vt 0.103296 0.206151
vt 0.103296 0.206151
vt 0.103296 0.206151
vt 0.103296 0.206151
vt 0.103296 0.206151
vt 0.103296 0.206151
vt 0.103296 0.206151
vt 0.103296 0.206151
vt 0.103296 0.206151
vt 0.103296 0.206151
vt 0.103296 0.206151
vt 0.103296 0.206151
vt 0.103296 0.206151
vt 0.103296 0.206151
vt 0.103296 0.206151
vt 0.103296 0.206151
vt 0.103296 0.206151
vt 0.103296 0.206151
vt 0.103296 0.206151
vt 0.103296 0.206151
vt 0.103296 0.206151
vt 0.103296 0.206151
vt 0.103296 0.206151
vt 0.103296 0.206151
vt 0.103296 0.206151
vt 0.103296 0.206151
vt 0.103296 0.206151
vt 0.103296 0.206151
vt 0.103296 0.206151
vt 0.103296 0.206151
vt 0.103296 0.206151
vt 0.103296 0.206151
vt 0.103296 0.206151
vt 0.103296 0.206151
vt 0.103296 0.206151
vt 0.103296 0.206151
vt 0.103296 0.206151
vt 0.103296 0.206151
vt 0.103296 0.206151
vt 0.103296 0.206151
vt 0.103296 0.206151
vt 0.103296 0.206151
vt 0.103296 0.206151
vt 0.103296 0.206151
vt 0.103296 0.206151
vt 0.103296 0.206151
vt 0.103296 0.206151
vt 0.103296 0.206151
vt 0.103296 0.206151
vt 0.103296 0.206151
vt 0.103296 0.206151
vt 0.103296 0.206151
vt 0.103296 0.206151
vt 0.103296 0.206151
vt 0.103296 0.206151
vt 0.103296 0.206151
vt 0.103296 0.206151
vt 0.103296 0.206151
vt 0.103296 0.206151
vt 0.103296 0.206151
vt 0.103296 0.206151
vt 0.103296 0.206151
vt 0.103296 0.206151
vt 0.103296 0.206151
vt 0.103296 0.206151
vt 0.103296 0.206151
vn -1.000000 0.000000 0.000000
vn -1.000000 0.000000 0.000000
vn -1.000000 0.000000 0.000000
vn -1.000000 0.000000 0.000000
vn 1.000000 0.000000 0.000000
vn 1.000000 0.000000 0.000000
vn 1.000000 0.000000 0.000000
vn 1.000000 0.000000 0.000000
vn 0.000000 -1.000000 0.000000
vn 0.000000 -1.000000 0.000000
vn 0.000000 -1.000000 0.000000
vn 0.000000 -1.000000 0.000000
vn 0.000000 -1.000000 0.000000
vn 0.000000 -1.000000 0.000000
vn 0.000000 -1.000000 0.000000
vn 0.000000 -1.000000 0.000000
vn 0.000000 -1.000000 0.000000
vn 0.000000 -1.000000 0.000000
vn 0.000000 -1.000000 0.000000
vn 0.000000 -1.000000 0.000000
vn 0.000000 -1.000000 0.000000
vn 0.000000 -1.000000 0.000000
vn 0.000000 -1.000000 0.000000
vn 0.000000 -1.000000 0.000000
vn 0.000000 -1.000000 0.000000
vn 0.000000 -1.000000 0.000000
vn 0.000000 1.000000 0.000000
vn 0.000000 1.000000 0.000000
vn 0.000000 1.000000 0.000000
vn 0.000000 1.000000 0.000000
vn 0.000000 1.000000 0.000000
vn 0.000000 1.000000 0.000000
vn 0.000000 1.000000 0.000000
vn 0.000000 1.000000 0.000000
vn 0.000000 1.000000 0.000000
vn 0.000000 1.000000 0.000000
vn 0.000000 1.000000 0.000000
vn 0.000000 1.000000 0.000000
vn 0.000000 1.000000 0.000000
vn 0.000000 1.000000 0.000000
vn 0.000000 1.000000 0.000000
vn 0.000000 1.000000 0.000000
vn 0.000000 1.000000 0.000000
vn 0.000000 1.000000 0.000000
vn 0.000000 1.000000 0.000000
vn 0.000000 1.000000 0.000000
vn 0.000000 1.000000 0.000000
vn 0.000000 1.000000 0.000000
vn 0.000000 1.000000 0.000000
vn 0.000000 1.000000 0.000000
vn 0.000000 1.000000 0.000000
vn 0.000000 1.000000 0.000000
vn 0.000000 1.000000 0.000000
vn 0.000000 1.000000 0.000000
vn 0.000000 1.000000 0.000000
vn 0.000000 1.000000 0.000000
vn 0.000000 1.000000 0.000000
vn 0.000000 1.000000 0.000000
vn 0.000000 1.000000 0.000000
vn 0.000000 1.000000 0.000000
vn 0.000000 1.000000 0.000000
vn 0.000000 1.000000 0.000000
vn 0.000000 1.000000 0.000000
vn 0.000000 1.000000 0.000000
vn 0.000000 1.000000 0.000000
vn 0.000000 1.000000 0.000000
vn 0.000000 1.000000 0.000000
vn 0.000000 1.000000 0.000000
vn 0.499798 0.029311 0.865646
vn 0.499798 0.029311 0.865646
vn 0.499797 0.029311 0.865646
vn 0.499798 0.029311 0.865646
vn 0.999570 0.029321 0.000000
vn 0.999570 0.029321 0.000000
vn 0.999570 0.029321 0.000000
vn 0.999570 0.029321 0.000000
vn 0.499780 0.029303 -0.865656
vn 0.499780 0.029303 -0.865656
vn 0.499780 0.029303 -0.865656
vn 0.499780 0.029303 -0.865656
vn -0.499793 0.029297 -0.865649
vn -0.499793 0.029297 -0.865649
vn -0.499793 0.029297 -0.865649
vn -0.499793 0.029297 -0.865649
vn -0.999571 0.029297 0.000000
vn -0.999571 0.029297 0.000000
vn -0.999571 0.029297 0.000000
vn -0.999571 0.029297 0.000000
vn -0.499810 0.029305 0.865639
vn -0.499810 0.029305 0.865639
vn -0.499810 0.029305 0.865639
vn -0.499810 0.029305 0.865639
vn 1.000000 0.000000 0.000000
vn 1.000000 0.000000 0.000000
vn 1.000000 0.000000 0.000000
vn 1.000000 0.000000 0.000000
vn 1.000000 0.000000 0.000000
vn 1.000000 0.000000 0.000000
vn 1.000000 0.000000 0.000000
vn 1.000000 0.000000 0.000000
vn 1.000000 0.000000 0.000000
vn 1.000000 0.000000 0.000000
vn 1.000000 0.000000 0.000000
vn 1.000000 0.000000 0.000000
vn 1.000000 0.000000 0.000000
vn 1.000000 0.000000 0.000000
vn 1.000000 0.000000 0.000000
vn 1.000000 0.000000 0.000000
vn 1.000000 0.000000 0.000000
vn 1.000000 0.000000 0.000000
vn 1.000000 0.000000 0.000000
vn 1.000000 0.000000 0.000000
vn 1.000000 0.000000 0.000000
vn 1.000000 0.000000 0.000000
vn 1.000000 0.000000 0.000000
vn 1.000000 0.000000 0.000000
vn 1.000000 0.000000 0.000000
vn 1.000000 0.000000 0.000000
vn 1.000000 0.000000 0.000000
vn 1.000000 0.000000 0.000000
vn 0.369335 -0.929296 0.000000
vn 0.369335 -0.929296 0.000000
vn 0.369335 -0.929296 0.000000
vn 0.369335 -0.929296 0.000000
vn 0.000000 0.000000 -1.000000
vn 0.000000 0.000000 -1.000000
vn 0.000000 0.000000 -1.000000
vn 0.000000 0.000000 -1.000000
vn -0.294840 0.955547 0.000000
vn -0.294840 0.955547 0.000000
vn -0.294840 0.955547 0.000000
vn -0.294840 0.955547 0.000000
vn 0.000000 0.000000 1.000000
vn 0.000000 0.000000 1.000000
vn 0.000000 0.000000 1.000000
vn 0.000000 0.000000 1.000000
vn 0.208411 -0.978041 0.000000
vn 0.208411 -0.978041 0.000000
vn 0.208411 -0.978041 0.000000
vn 0.208411 -0.978041 0.000000
vn 0.000000 0.000000 -1.000000
vn 0.000000 0.000000 -1.000000
vn 0.000000 0.000000 -1.000000
vn 0.000000 0.000000 -1.000000
vn -0.023710 0.999719 0.000000
vn -0.023710 0.999719 0.000000
vn -0.023710 0.999719 0.000000
vn -0.023710 0.999719 0.000000
vn 0.000000 0.000000 1.000000
vn 0.000000 0.000000 1.000000
vn 0.000000 0.000000 1.000000
vn 0.000000 0.000000 1.000000
vn 0.953154 -0.302486 0.000000
vn 0.953154 -0.302486 0.000000
vn 0.953154 -0.302486 0.000000
vn 0.953154 -0.302486 0.000000
vn 0.000000 0.000000 -1.000000
vn 0.000000 0.000000 -1.000000
vn 0.000000 0.000000 -1.000000
vn 0.000000 0.000000 -1.000000
vn -0.961943 0.273251 0.000000
vn -0.961943 0.273251 0.000000
vn -0.961943 0.273251 0.000000
vn -0.961943 0.273251 0.000000
vn 0.000000 0.000000 1.000000
vn 0.000000 0.000000 1.000000
vn 0.000000 0.000000 1.000000
vn 0.000000 0.000000 1.000000
vn -0.948998 -0.315283 0.000000
vn -0.948998 -0.315283 0.000000
vn -0.948998 -0.315283 0.000000
vn -0.948998 -0.315283 0.000000
vn 0.000000 0.000000 -1.000000
vn 0.000000 0.000000 -1.000000
vn 0.000000 0.000000 -1.000000
vn 0.000000 0.000000 -1.000000
vn 0.939155 0.343492 0.000000
vn 0.939155 0.343492 0.000000
vn 0.939155 0.343492 0.000000
vn 0.939155 0.343492 0.000000
vn 0.000000 0.000000 1.000000
vn 0.000000 0.000000 1.000000
vn 0.000000 0.000000 1.000000
vn 0.000000 0.000000 1.000000
vn -0.500010 0.000000 -0.866019
vn -0.500010 -0.000000 -0.866019
vn -0.500010 -0.000000 -0.866019
vn -0.500010 0.000000 -0.866020
vn 0.500028 0.000000 -0.866009
vn 0.500028 -0.000000 -0.866009
vn 0.500027 -0.000000 -0.866010
vn 0.500028 0.000000 -0.866010
vn -0.499987 0.000000 0.866033
vn -0.499987 0.000000 0.866033
vn -0.499986 0.000000 0.866033
vn -0.499987 0.000000 0.866033
vn 0.500004 0.000000 0.866023
vn 0.500004 -0.000000 0.866023
vn 0.500004 -0.000000 0.866023
vn 0.500004 0.000000 0.866023
s off
f 2/92/1 3/9/2 9/15/3 8/91/4
f 31/143/5 32/145/6 33/139/7 34/133/8
f 2/93/9 1/1/10 13/196/11
f 3/82/12 2/2/13 13/197/14
f 4/81/15 3/3/16 13/198/17
f 5/78/18 4/4/19 13/199/20
f 6/86/21 5/5/22 13/200/23
f 1/94/24 6/6/25 13/26/26
f 20/180/27 21/188/28 22/194/29
f 21/189/30 23/176/31 22/193/32
f 23/177/33 24/170/34 22/192/35
f 24/171/36 25/164/37 22/191/38
f 25/165/39 26/158/40 22/27/41
f 26/159/42 20/179/43 22/195/44
f 7/89/45 8/23/46 15/186/47 14/182/48
f 8/90/49 9/22/50 16/174/51 15/185/52
f 9/79/53 10/21/54 17/168/55 16/173/56
f 10/80/57 11/20/58 18/162/59 17/167/60
f 11/73/61 12/25/62 19/156/63 18/161/64
f 12/85/65 7/24/66 14/183/67 19/155/68
f 14/28/69 15/187/70 21/35/71 20/181/72
f 15/29/73 16/175/74 23/36/75 21/190/76
f 16/30/77 17/169/78 24/37/79 23/178/80
f 17/31/81 18/163/82 25/38/83 24/172/84
f 18/32/85 19/157/86 26/39/87 25/166/88
f 19/33/89 14/184/90 20/34/91 26/160/92
f 5/77/93 6/12/94 28/153/95 27/149/96
f 6/88/97 12/18/98 33/138/99 32/146/100
f 12/84/101 11/17/102 30/128/103 29/130/104
f 11/75/105 5/11/106 31/142/107 34/134/108
f 31/141/109 5/76/110 27/150/111
f 6/87/112 32/147/113 28/152/114
f 33/137/115 12/83/116 29/131/117
f 11/74/118 34/135/119 30/127/120
f 27/40/121 28/154/122 36/125/123 35/121/124
f 28/41/125 32/148/126 37/119/127 36/124/128
f 32/45/129 31/144/130 38/116/131 37/118/132
f 31/44/133 27/151/134 35/122/135 38/115/136
f 34/47/137 33/140/138 39/111/139 40/107/140
f 33/46/141 29/132/142 41/101/143 39/110/144
f 29/42/145 30/129/146 42/96/147 41/100/148
f 30/43/149 34/136/150 40/108/151 42/95/152
f 35/48/153 36/126/154 44/103/155 43/56/156
f 36/49/157 37/120/158 45/113/159 44/57/160
f 37/50/161 38/117/162 46/105/163 45/58/164
f 38/51/165 35/123/166 43/98/167 46/59/168
f 40/52/169 39/112/170 45/61/171 46/106/172
f 39/53/173 41/102/174 44/62/175 45/114/176
f 41/54/177 42/97/178 43/63/179 44/104/180
f 42/55/181 40/109/182 46/60/183 43/99/184
f 2/8/185 8/14/186 7/13/187 1/7/188
f 12/65/189 6/64/190 1/10/191 7/16/192
f 9/69/193 3/66/194 4/67/195 10/68/196
f 5/19/197 11/71/198 10/72/199 4/70/200
