# This file uses centimeters as units for non-parametric coordinates.

v 0.000061 2.370512 -6.375366
v -5.521179 2.370512 -3.187561
v -5.521179 2.370512 3.187683
v 0.000061 2.370512 6.375183
v 5.520996 2.370512 3.187683
v 5.520996 2.370512 -3.187561
v 0.000061 11.198227 -7.858398
v -6.805603 11.198227 -3.929077
v -6.805603 11.198227 3.929199
v 0.000061 11.198227 7.858276
v 6.805420 11.198227 3.929199
v 6.805420 11.198227 -3.929077
v 0.000061 11.198227 -6.144043
v -5.320679 11.198227 -3.071716
v -5.320679 11.198227 3.071838
v 0.000061 11.198227 6.143677
v 5.320435 11.198227 3.071838
v 5.320435 11.198227 -3.071716
v 0.000000 4.240456 -3.653015
v -3.163513 4.240456 -1.826599
v 0.000000 4.240456 0.000000
v -3.163513 4.240456 1.826477
v 0.000000 4.240456 3.653015
v 3.163513 4.240456 1.826477
v 3.163513 4.240456 -1.826599
v 6.077393 3.625389 1.359680
v 6.077393 3.625389 -1.359558
v 6.805420 10.425149 -1.359558
v 6.805420 10.425149 1.359680
v 6.354797 5.773230 1.359680
v 6.354797 5.773230 -1.359558
v 6.555786 8.147987 -1.359558
v 6.555786 8.147987 1.359680
v 10.192200 4.774371 1.359680
v 10.192200 4.774371 -1.359558
v 8.961487 6.138005 -1.359558
v 8.961487 6.138005 1.359680
v 8.667847 8.554605 -1.359558
v 8.667847 8.554605 1.359680
v 9.923706 10.051702 -1.359558
v 9.923706 10.051702 1.359680
v 11.567993 7.439384 1.359680
v 11.567993 7.439384 -1.359558
v 9.555603 7.439384 -1.359558
v 9.555603 7.439384 1.359680
v -2.775024 -0.000000 -1.602051
v 0.000000 -0.000000 -3.204224
v 0.000000 -0.000000 0.000000
v -2.775024 -0.000000 1.602051
v 0.000000 -0.000000 3.204102
v 2.774841 -0.000000 1.602051
v 2.774841 -0.000000 -1.602051
v -7.033386 6.769774 4.052734
v -7.054871 6.916971 -4.058777
v 7.332397 7.034704 -1.544067
v 7.327637 6.978405 1.550232
v -4.382385 6.919291 -2.516113
v -0.019165 7.015153 -5.063171
v -4.359558 6.828208 2.508911
v -0.019104 6.831949 5.015930
v 4.345947 6.926845 2.523315
v 4.369019 7.018969 -2.530518
v 7.039612 7.077333 -4.072388
v 7.018005 6.929159 4.066040
v -0.019104 6.775829 8.103210
v -0.019104 7.071210 -8.146912
vt 0.403278 0.491389
vt 0.403278 0.491389
vt 0.403278 0.491389
vt 0.403278 0.491389
vt 0.403278 0.491389
vt 0.403278 0.491389
vt 0.403278 0.491389
vt 0.403278 0.491389
vt 0.403278 0.491389
vt 0.403278 0.491389
vt 0.403278 0.491389
vt 0.403278 0.491389
vt 0.403278 0.491389
vt 0.403278 0.491389
vt 0.403278 0.491389
vt 0.403278 0.491389
vt 0.403278 0.491389
vt 0.403278 0.491389
vt 0.403278 0.491389
vt 0.403278 0.491389
vt 0.403278 0.491389
vt 0.403278 0.491389
vt 0.403278 0.491389
vt 0.403278 0.491389
vt 0.403278 0.491389
vt 0.403278 0.491389
vt 0.403278 0.491389
vt 0.403278 0.491389
vt 0.403278 0.491389
vt 0.403278 0.491389
vt 0.403278 0.491389
vt 0.403278 0.491389
vt 0.403278 0.491389
vt 0.403278 0.491389
vt 0.403278 0.491389
vt 0.403278 0.491389
vt 0.403278 0.491389
vt 0.403278 0.491389
vt 0.403278 0.491389
vt 0.403278 0.491389
vt 0.403278 0.491389
vt 0.403278 0.491389
vt 0.403278 0.491389
vt 0.403278 0.491389
vt 0.403278 0.491389
vt 0.403278 0.491389
vt 0.403278 0.491389
vt 0.403278 0.491389
vt 0.403278 0.491389
vt 0.403278 0.491389
vt 0.403278 0.491389
vt 0.403278 0.491389
vt 0.403278 0.491389
vt 0.403278 0.491389
vt 0.403278 0.491389
vt 0.403278 0.491389
vt 0.403278 0.491389
vt 0.403278 0.491389
vt 0.403278 0.491389
vt 0.403278 0.491389
vt 0.403278 0.491389
vt 0.403278 0.491389
vt 0.403278 0.491389
vt 0.403278 0.491389
vt 0.403278 0.491389
vt 0.403278 0.491389
vt 0.403278 0.491389
vt 0.403278 0.491389
vt 0.403278 0.491389
vt 0.403278 0.491389
vt 0.403278 0.491389
vt 0.403278 0.491389
vt 0.403278 0.491389
vt 0.403278 0.491389
vt 0.403278 0.491389
vt 0.403278 0.491389
vt 0.403278 0.491389
vt 0.403278 0.491389
vt 0.403278 0.491389
vt 0.403278 0.491389
vt 0.403278 0.491389
vt 0.403278 0.491389
vt 0.403278 0.491389
vt 0.403278 0.491389
vt 0.403278 0.491389
vt 0.403278 0.491389
vt 0.403278 0.491389
vt 0.403278 0.491389
vt 0.403278 0.491389
vt 0.403278 0.491389
vt 0.403278 0.491389
vt 0.403278 0.491389
vt 0.403278 0.491389
vt 0.403278 0.491389
vt 0.403278 0.491389
vt 0.403278 0.491389
vt 0.403278 0.491389
vt 0.403278 0.491389
vt 0.403278 0.491389
vt 0.403278 0.491389
vt 0.403278 0.491389
vt 0.403278 0.491389
vt 0.403278 0.491389
vt 0.403278 0.491389
vt 0.403278 0.491389
vt 0.403278 0.491389
vt 0.403278 0.491389
vt 0.403278 0.491389
vt 0.403278 0.491389
vt 0.403278 0.491389
vt 0.403278 0.491389
vt 0.403278 0.491389
vt 0.403278 0.491389
vt 0.403278 0.491389
vt 0.403278 0.491389
vt 0.403278 0.491389
vt 0.403278 0.491389
vt 0.403278 0.491389
vt 0.403278 0.491389
vt 0.403278 0.491389
vt 0.403278 0.491389
vt 0.403278 0.491389
vt 0.403278 0.491389
vt 0.403278 0.491389
vt 0.403278 0.491389
vt 0.403278 0.491389
vt 0.403278 0.491389
vt 0.403278 0.491389
vt 0.403278 0.491389
vt 0.403278 0.491389
vt 0.403278 0.491389
vt 0.403278 0.491389
vt 0.403278 0.491389
vt 0.403278 0.491389
vt 0.403278 0.491389
vt 0.403278 0.491389
vt 0.403278 0.491389
vt 0.403278 0.491389
vt 0.403278 0.491389
vt 0.403278 0.491389
vt 0.403278 0.491389
vt 0.403278 0.491389
vt 0.403278 0.491389
vt 0.403278 0.491389
vt 0.403278 0.491389
vt 0.403278 0.491389
vt 0.403278 0.491389
vt 0.403278 0.491389
vt 0.403278 0.491389
vt 0.403278 0.491389
vt 0.403278 0.491389
vt 0.403278 0.491389
vt 0.403278 0.491389
vt 0.403278 0.491389
vt 0.403278 0.491389
vt 0.403278 0.491389
vt 0.403278 0.491389
vt 0.403278 0.491389
vt 0.403278 0.491389
vt 0.403278 0.491389
vt 0.403278 0.491389
vt 0.403278 0.491389
vt 0.403278 0.491389
vt 0.403278 0.491389
vt 0.403278 0.491389
vt 0.403278 0.491389
vt 0.403278 0.491389
vt 0.403278 0.491389
vt 0.403278 0.491389
vt 0.403278 0.491389
vt 0.403278 0.491389
vt 0.403278 0.491389
vt 0.403278 0.491389
vt 0.403278 0.491389
vt 0.403278 0.491389
vt 0.403278 0.491389
vt 0.403278 0.491389
vt 0.403278 0.491389
vt 0.403278 0.491389
vt 0.403278 0.491389
vt 0.403278 0.491389
vt 0.403278 0.491389
vt 0.403278 0.491389
vt 0.403278 0.491389
vt 0.403278 0.491389
vt 0.403278 0.491389
vt 0.403278 0.491389
vt 0.403278 0.491389
vt 0.403278 0.491389
vt 0.403278 0.491389
vt 0.403278 0.491389
vt 0.403278 0.491389
vt 0.403278 0.491389
vt 0.403278 0.491389
vt 0.403278 0.491389
vt 0.403278 0.491389
vt 0.403278 0.491389
vt 0.403278 0.491389
vt 0.403278 0.491389
vt 0.403278 0.491389
vt 0.403278 0.491389
vt 0.403278 0.491389
vt 0.403278 0.491389
vt 0.403278 0.491389
vt 0.403278 0.491389
vt 0.403278 0.491389
vt 0.403278 0.491389
vt 0.403278 0.491389
vt 0.403278 0.491389
vt 0.403278 0.491389
vt 0.403278 0.491389
vt 0.403278 0.491389
vt 0.403278 0.491389
vt 0.403278 0.491389
vt 0.403278 0.491389
vt 0.403278 0.491389
vt 0.403278 0.491389
vt 0.403278 0.491389
vt 0.403278 0.491389
vt 0.403278 0.491389
vt 0.403278 0.491389
vt 0.403278 0.491389
vt 0.403278 0.491389
vt 0.403278 0.491389
vt 0.403278 0.491389
vt 0.403278 0.491389
vt 0.403278 0.491389
vt 0.403278 0.491389
vt 0.403278 0.491389
vt 0.403278 0.491389
vt 0.403278 0.491389
vt 0.403278 0.491389
vt 0.403278 0.491389
vt 0.403278 0.491389
vt 0.403278 0.491389
vt 0.403278 0.491389
vt 0.403278 0.491389
vt 0.403278 0.491389
vt 0.403278 0.491389
vt 0.403278 0.491389
vn -0.946630 -0.322316 -0.001871
vn -0.946630 -0.322316 -0.001871
vn -0.946630 -0.322316 -0.001871
vn -0.946630 -0.322316 -0.001871
vn 0.784401 -0.620231 -0.005364
vn 0.784401 -0.620231 -0.005364
vn 0.784401 -0.620231 -0.005364
vn 0.784401 -0.620231 -0.005364
vn 0.000000 -1.000000 0.000000
vn 0.000000 -1.000000 0.000000
vn 0.000000 -1.000000 0.000000
vn 0.000000 -1.000000 0.000000
vn 0.000000 -1.000000 0.000000
vn 0.000000 -1.000000 0.000000
vn 0.000000 -1.000000 0.000000
vn 0.000000 -1.000000 0.000000
vn 0.000000 -1.000000 0.000000
vn 0.000000 -1.000000 0.000000
vn 0.000000 -1.000000 0.000000
vn 0.000000 -1.000000 0.000000
vn 0.000000 -1.000000 0.000000
vn 0.000000 -1.000000 0.000000
vn 0.000000 -1.000000 0.000000
vn 0.000000 -1.000000 0.000000
vn 0.000000 -1.000000 0.000000
vn 0.000000 -1.000000 0.000000
vn 0.000000 1.000000 0.000000
vn 0.000000 1.000000 0.000000
vn 0.000000 1.000000 0.000000
vn 0.000000 1.000000 0.000000
vn 0.000000 1.000000 0.000000
vn 0.000000 1.000000 0.000000
vn 0.000000 1.000000 0.000000
vn 0.000000 1.000000 0.000000
vn 0.000000 1.000000 0.000000
vn 0.000000 1.000000 0.000000
vn 0.000000 1.000000 0.000000
vn 0.000000 1.000000 0.000000
vn 0.000000 1.000000 0.000000
vn 0.000000 1.000000 0.000000
vn 0.000000 1.000000 0.000000
vn 0.000000 1.000000 0.000000
vn 0.000000 1.000000 0.000000
vn 0.000000 1.000000 0.000000
vn 0.000000 1.000000 0.000000
vn 0.000000 1.000000 0.000000
vn 0.000000 1.000000 0.000000
vn 0.000000 1.000000 0.000000
vn 0.000000 1.000000 0.000000
vn 0.000000 1.000000 0.000000
vn 0.000000 1.000000 0.000000
vn 0.000000 1.000000 0.000000
vn 0.000000 1.000000 -0.000000
vn 0.000000 1.000000 -0.000000
vn 0.000000 1.000000 -0.000000
vn 0.000000 1.000000 -0.000000
vn 0.000000 1.000000 0.000000
vn 0.000000 1.000000 0.000000
vn 0.000000 1.000000 0.000000
vn 0.000000 1.000000 0.000000
vn 0.000000 1.000000 0.000000
vn 0.000000 1.000000 0.000000
vn 0.000000 1.000000 0.000000
vn 0.000000 1.000000 0.000000
vn 0.000000 1.000000 0.000000
vn 0.000000 1.000000 0.000000
vn 0.000000 1.000000 0.000000
vn 0.000000 1.000000 0.000000
vn 0.488387 0.216525 0.845337
vn 0.488387 0.216525 0.845337
vn 0.488387 0.216525 0.845337
vn 0.488387 0.216525 0.845337
vn 0.976724 0.214501 -0.000247
vn 0.976724 0.214501 -0.000247
vn 0.976724 0.214501 -0.000247
vn 0.976724 0.214501 -0.000247
vn 0.488168 0.216264 -0.845530
vn 0.488168 0.216264 -0.845530
vn 0.488168 0.216264 -0.845531
vn 0.488168 0.216264 -0.845530
vn -0.487566 0.220054 -0.844900
vn -0.487566 0.220054 -0.844900
vn -0.487566 0.220054 -0.844900
vn -0.487566 0.220054 -0.844900
vn -0.975000 0.222203 -0.000181
vn -0.975001 0.222203 -0.000181
vn -0.975001 0.222203 -0.000181
vn -0.975001 0.222203 -0.000181
vn -0.487746 0.220462 0.844690
vn -0.487746 0.220462 0.844690
vn -0.487746 0.220462 0.844690
vn -0.487746 0.220462 0.844690
vn 0.914170 -0.405332 0.000000
vn 0.914170 -0.405332 0.000000
vn 0.914170 -0.405332 0.000000
vn 0.914170 -0.405332 0.000000
vn 0.924593 -0.377394 0.051980
vn 0.924593 -0.377394 0.051980
vn 0.924593 -0.377394 0.051980
vn 0.924593 -0.377394 0.051980
vn 1.000000 0.000000 0.000000
vn 1.000000 0.000000 0.000000
vn 1.000000 0.000000 0.000000
vn 1.000000 0.000000 0.000000
vn 0.980951 0.172141 -0.090012
vn 0.980951 0.172141 -0.090012
vn 0.980951 0.172141 -0.090012
vn 0.980951 0.172141 -0.090012
vn 0.969817 -0.125257 0.209201
vn 0.969817 -0.125257 0.209201
vn 0.969817 -0.125257 0.209202
vn 0.969817 -0.125257 -0.209202
vn 0.969817 -0.125257 -0.209202
vn 0.969817 -0.125257 -0.209202
vn 0.993511 -0.108913 -0.032768
vn 0.993511 -0.108913 -0.032768
vn 0.993511 -0.108913 -0.032768
vn 0.993511 -0.108913 0.032768
vn 0.993511 -0.108913 0.032768
vn 0.993511 -0.108913 0.032768
vn 0.268943 -0.963156 0.000000
vn 0.268943 -0.963156 0.000000
vn 0.268943 -0.963156 0.000000
vn 0.268943 -0.963156 0.000000
vn 0.000000 0.000000 -1.000000
vn 0.000000 0.000000 -1.000000
vn 0.000000 0.000000 -1.000000
vn 0.000000 0.000000 -1.000000
vn -0.138588 0.990350 0.000000
vn -0.138588 0.990350 0.000000
vn -0.138588 0.990350 0.000000
vn -0.138588 0.990350 0.000000
vn 0.000000 0.000000 1.000000
vn 0.000000 0.000000 1.000000
vn 0.000000 0.000000 1.000000
vn 0.000000 0.000000 1.000000
vn 0.189050 -0.981967 0.000000
vn 0.189050 -0.981967 0.000000
vn 0.189050 -0.981967 0.000000
vn 0.189050 -0.981967 0.000000
vn -0.000000 0.000000 -1.000000
vn -0.000000 0.000000 -1.000000
vn -0.000000 0.000000 -1.000000
vn -0.000000 0.000000 -1.000000
vn 0.118911 0.992905 0.000000
vn 0.118911 0.992905 0.000000
vn 0.118911 0.992905 0.000000
vn 0.118911 0.992905 0.000000
vn 0.000000 0.000000 1.000000
vn 0.000000 0.000000 1.000000
vn 0.000000 0.000000 1.000000
vn 0.000000 0.000000 1.000000
vn 0.888579 -0.458723 0.000000
vn 0.888579 -0.458723 0.000000
vn 0.888579 -0.458723 0.000000
vn 0.888579 -0.458723 0.000000
vn 0.000000 0.000000 -1.000000
vn 0.000000 0.000000 -1.000000
vn 0.000000 0.000000 -1.000000
vn 0.000000 0.000000 -1.000000
vn -0.909686 0.415297 0.000000
vn -0.909686 0.415297 0.000000
vn -0.909686 0.415297 0.000000
vn -0.909686 0.415297 0.000000
vn 0.000000 0.000000 1.000000
vn 0.000000 0.000000 1.000000
vn 0.000000 0.000000 1.000000
vn 0.000000 0.000000 1.000000
vn -0.782379 -0.622802 0.000000
vn -0.782379 -0.622802 0.000000
vn -0.782379 -0.622802 0.000000
vn -0.782379 -0.622802 0.000000
vn 0.000000 0.000000 -1.000000
vn 0.000000 0.000000 -1.000000
vn 0.000000 0.000000 -1.000000
vn 0.000000 0.000000 -1.000000
vn 0.846307 0.532696 0.000000
vn 0.846307 0.532696 0.000000
vn 0.846307 0.532696 0.000000
vn 0.846307 0.532696 0.000000
vn 0.000000 0.000000 1.000000
vn 0.000000 0.000000 1.000000
vn 0.000000 0.000000 1.000000
vn 0.000000 0.000000 1.000000
vn -0.472993 -0.314628 -0.822974
vn -0.472993 -0.314628 -0.822974
vn -0.472993 -0.314628 -0.822974
vn -0.472993 -0.314628 -0.822974
vn 0.499104 0.058277 -0.864580
vn 0.499104 0.058277 -0.864580
vn 0.499104 0.058277 -0.864580
vn 0.499104 0.058277 -0.864581
vn -0.499421 0.049942 0.864919
vn -0.499421 0.049942 0.864919
vn -0.499421 0.049942 0.864919
vn -0.499421 0.049942 0.864919
vn 0.475855 -0.316997 0.820412
vn 0.475855 -0.316997 0.820412
vn 0.475855 -0.316997 0.820412
vn 0.475855 -0.316997 0.820412
vn -0.326720 -0.756989 -0.565881
vn -0.326720 -0.756989 -0.565881
vn -0.326720 -0.756989 -0.565881
vn -0.326720 -0.756989 -0.565881
vn -0.653436 -0.756982 0.000000
vn -0.653436 -0.756982 0.000000
vn -0.653436 -0.756982 0.000000
vn -0.653436 -0.756982 0.000000
vn -0.326697 -0.756992 0.565891
vn -0.326697 -0.756992 0.565891
vn -0.326697 -0.756992 0.565891
vn -0.326697 -0.756992 0.565890
vn 0.326709 -0.756996 0.565879
vn 0.326709 -0.756996 0.565879
vn 0.326709 -0.756996 0.565879
vn 0.326709 -0.756996 0.565879
vn 0.653436 -0.756982 0.000000
vn 0.653436 -0.756982 0.000000
vn 0.653436 -0.756982 0.000000
vn 0.653436 -0.756982 0.000000
vn 0.326733 -0.756993 -0.565869
vn 0.326733 -0.756993 -0.565869
vn 0.326733 -0.756993 -0.565869
vn 0.326733 -0.756993 -0.565869
vn -0.998502 0.054689 0.001847
vn -0.998502 0.054689 0.001847
vn -0.998502 0.054689 0.001847
vn -0.998502 0.054689 0.001847
vn 0.827558 0.561347 0.006114
vn 0.827558 0.561347 0.006114
vn 0.827558 0.561347 0.006114
vn 0.827558 0.561347 0.006114
vn 0.454787 0.408031 0.791631
vn 0.454787 0.408031 0.791631
vn 0.454787 0.408031 0.791631
vn 0.454787 0.408031 0.791631
vn 0.908992 0.416808 0.001984
vn 0.908992 0.416808 0.001984
vn 0.908993 0.416808 0.001984
vn 0.908993 0.416808 0.001984
vn 0.454297 0.417390 -0.787019
vn 0.454297 0.417390 -0.787019
vn 0.454297 0.417390 -0.787019
vn 0.454297 0.417390 -0.787019
vn -0.457978 0.408979 -0.789299
vn -0.457978 0.408979 -0.789299
vn -0.457978 0.408979 -0.789299
vn -0.457978 0.408978 -0.789299
vn -0.916337 0.400404 0.001808
vn -0.916337 0.400404 0.001808
vn -0.916337 0.400404 0.001808
vn -0.916337 0.400404 0.001808
vn -0.458326 0.400054 0.793659
vn -0.458326 0.400054 0.793659
vn -0.458326 0.400054 0.793659
vn -0.458326 0.400054 0.793659
vn 0.977872 0.182429 0.102403
vn 0.977872 0.182429 0.102403
vn 0.977872 0.182429 0.102403
vn 0.977872 0.182429 0.102403
vn 0.921509 -0.383362 -0.062081
vn 0.921509 -0.383362 -0.062081
vn 0.921509 -0.383362 -0.062081
vn 0.921509 -0.383362 -0.062081
vn -0.500844 0.058940 -0.863529
vn -0.500844 0.058940 -0.863529
vn -0.500844 0.058940 -0.863529
vn -0.500844 0.058940 -0.863529
vn 0.475711 -0.308424 -0.823756
vn 0.475711 -0.308424 -0.823756
vn 0.475711 -0.308424 -0.823756
vn 0.475711 -0.308424 -0.823756
vn -0.473006 -0.323617 0.819474
vn -0.473006 -0.323617 0.819474
vn -0.473006 -0.323617 0.819474
vn -0.473006 -0.323617 0.819474
vn 0.497782 0.049113 0.865911
vn 0.497782 0.049113 0.865911
vn 0.497782 0.049113 0.865911
vn 0.497782 0.049113 0.865911
s off
f 2/92/1 3/9/2 53/213/3 54/215/4
f 30/143/5 31/145/6 55/217/7 56/219/8
f 46/201/9 47/202/10 48/196/11
f 49/203/12 46/204/13 48/197/14
f 50/205/15 49/206/16 48/198/17
f 51/207/18 50/208/19 48/199/20
f 52/209/21 51/210/22 48/200/23
f 47/211/24 52/212/25 48/26/26
f 19/180/27 20/188/28 21/194/29
f 20/189/30 22/176/31 21/193/32
f 22/177/33 23/170/34 21/192/35
f 23/171/36 24/164/37 21/191/38
f 24/165/39 25/158/40 21/27/41
f 25/159/42 19/179/43 21/195/44
f 7/89/45 8/23/46 14/186/47 13/182/48
f 8/90/49 9/22/50 15/174/51 14/185/52
f 9/79/53 10/21/54 16/168/55 15/173/56
f 10/80/57 11/20/58 17/162/59 16/167/60
f 11/73/61 12/25/62 18/156/63 17/161/64
f 12/85/65 7/24/66 13/183/67 18/155/68
f 13/28/69 14/187/70 57/221/71 58/223/72
f 14/29/73 15/175/74 59/225/75 57/222/76
f 15/30/77 16/169/78 60/227/79 59/226/80
f 16/31/81 17/163/82 61/229/83 60/228/84
f 17/32/85 18/157/86 62/231/87 61/230/88
f 18/33/89 13/184/90 58/224/91 62/232/92
f 5/77/93 6/12/94 27/153/95 26/149/96
f 6/88/97 63/233/98 55/218/99 31/146/100
f 12/84/101 11/17/102 29/128/103 28/130/104
f 11/75/105 64/235/106 56/220/107 33/134/108
f 30/141/109 5/76/110 26/150/111
f 6/87/112 31/147/113 27/152/114
f 32/137/115 12/83/116 28/131/117
f 11/74/118 33/135/119 29/127/120
f 26/40/121 27/154/122 35/125/123 34/121/124
f 27/41/125 31/148/126 36/119/127 35/124/128
f 31/45/129 30/144/130 37/116/131 36/118/132
f 30/44/133 26/151/134 34/122/135 37/115/136
f 33/47/137 32/140/138 38/111/139 39/107/140
f 32/46/141 28/132/142 40/101/143 38/110/144
f 28/42/145 29/129/146 41/96/147 40/100/148
f 29/43/149 33/136/150 39/108/151 41/95/152
f 34/48/153 35/126/154 43/103/155 42/56/156
f 35/49/157 36/120/158 44/113/159 43/57/160
f 36/50/161 37/117/162 45/105/163 44/58/164
f 37/51/165 34/123/166 42/98/167 45/59/168
f 39/52/169 38/112/170 44/61/171 45/106/172
f 38/53/173 40/102/174 43/62/175 44/114/176
f 40/54/177 41/97/178 42/63/179 43/104/180
f 41/55/181 39/109/182 45/60/183 42/99/184
f 2/8/185 54/216/186 66/239/187 1/7/188
f 12/65/189 63/234/190 66/240/191 7/16/192
f 9/69/193 53/214/194 65/238/195 10/68/196
f 5/19/197 64/236/198 65/237/199 4/70/200
f 2/93/201 1/1/202 47/202/203 46/201/204
f 3/82/205 2/2/206 46/204/207 49/203/208
f 4/81/209 3/3/210 49/206/211 50/205/212
f 5/78/213 4/4/214 50/208/215 51/207/216
f 6/86/217 5/5/218 51/210/219 52/209/220
f 1/94/221 6/6/222 52/212/223 47/211/224
f 54/215/225 53/213/226 9/15/227 8/91/228
f 56/219/229 55/217/230 32/139/231 33/133/232
f 58/223/233 57/221/234 20/35/235 19/181/236
f 57/222/237 59/225/238 22/36/239 20/190/240
f 59/226/241 60/227/242 23/37/243 22/178/244
f 60/228/245 61/229/246 24/38/247 23/172/248
f 61/230/249 62/231/250 25/39/251 24/166/252
f 62/232/253 58/224/254 19/34/255 25/160/256
f 55/218/257 63/233/258 12/18/259 32/138/260
f 56/220/261 64/235/262 5/11/263 30/142/264
f 66/239/265 54/216/266 8/14/267 7/13/268
f 66/240/269 63/234/270 6/64/271 1/10/272
f 65/238/273 53/214/274 3/66/275 4/67/276
f 65/237/277 64/236/278 11/71/279 10/72/280
