# This file uses centimeters as units for non-parametric coordinates.

v -112.908272 0.000000 31.171633
v 112.908272 0.000000 31.171633
v -116.244507 51.363449 24.289940
v 115.194763 52.249016 24.289940
v -116.244507 52.549042 -24.866823
v 115.194763 53.434608 -24.866823
v -112.908272 0.000000 -31.171633
v 112.908272 0.000000 -31.171633
v 0.000000 0.000000 -31.171633
v 0.000000 0.000000 31.171633
v 0.000000 58.650608 24.289940
v 0.000000 59.836205 -24.866823
v 72.774620 53.185707 29.334154
v 74.348320 54.371296 -33.615040
v 66.802406 0.000000 -39.919853
v 65.228699 0.000000 36.215847
v -70.756577 0.000000 -37.074898
v -64.170319 0.000000 38.825947
v -80.010300 55.795319 31.944250
v -86.596573 56.980915 -30.770086
v 0.000000 67.093918 0.000000
v -74.929016 64.238632 0.000000
v -121.818481 59.806751 0.000000
v -118.178024 0.000000 -0.000000
v -59.089016 0.000000 -0.000000
v 0.000000 0.000000 -0.000000
v 65.228699 0.000000 5.044214
v 118.178024 0.000000 -0.000000
v 120.768723 60.692329 0.000000
v 66.634933 61.629021 0.000000
v -119.426025 33.546959 33.546959
v -125.000000 33.546959 0.000000
v -119.426025 33.546959 -33.546959
v -74.167557 33.546959 -39.450222
v 0.000000 33.546959 -33.546959
v 72.226685 27.202156 -42.295174
v 119.426033 33.546959 -33.546959
v 125.000000 33.546959 0.000000
v 119.426033 33.546959 33.546959
v 68.639687 33.546959 38.591171
v 0.000000 33.546959 33.546959
v -67.581299 33.546959 41.201271
vt 0.189265 0.305190
vt 0.189265 0.305190
vt 0.189265 0.305190
vt 0.189265 0.305190
vt 0.189265 0.305190
vt 0.189265 0.305190
vt 0.189265 0.305190
vt 0.189265 0.305190
vt 0.189265 0.305190
vt 0.189265 0.305190
vt 0.189265 0.305190
vt 0.189265 0.305190
vt 0.189265 0.305190
vt 0.189265 0.305190
vt 0.189265 0.305190
vt 0.189265 0.305190
vt 0.189265 0.305190
vt 0.189265 0.305190
vt 0.189265 0.305190
vt 0.189265 0.305190
vt 0.189265 0.305190
vt 0.189265 0.305190
vt 0.189265 0.305190
vt 0.189265 0.305190
vt 0.189265 0.305190
vt 0.189265 0.305190
vt 0.189265 0.305190
vt 0.189265 0.305190
vt 0.189265 0.305190
vt 0.189265 0.305190
vt 0.189265 0.305190
vt 0.189265 0.305190
vt 0.189265 0.305190
vt 0.189265 0.305190
vt 0.189265 0.305190
vt 0.189265 0.305190
vt 0.189265 0.305190
vt 0.189265 0.305190
vt 0.189265 0.305190
vt 0.189265 0.305190
vt 0.189265 0.305190
vt 0.189265 0.305190
vt 0.189265 0.305190
vt 0.189265 0.305190
vt 0.189265 0.305190
vt 0.189265 0.305190
vt 0.189265 0.305190
vt 0.189265 0.305190
vt 0.189265 0.305190
vt 0.189265 0.305190
vt 0.189265 0.305190
vt 0.189265 0.305190
vt 0.189265 0.305190
vt 0.189265 0.305190
vt 0.189265 0.305190
vt 0.189265 0.305190
vt 0.189265 0.305190
vn -0.149830 -0.091876 0.984434
vn -0.149830 -0.091876 0.984434
vn -0.149830 -0.091876 0.984434
vn -0.149830 -0.091876 0.984434
vn -0.127621 0.949609 0.286277
vn -0.127621 0.949610 0.286277
vn -0.127621 0.949609 0.286277
vn -0.127621 0.949609 0.286277
vn -0.133316 -0.089615 -0.987014
vn -0.133316 -0.089615 -0.987014
vn -0.133316 -0.089615 -0.987014
vn -0.133316 -0.089615 -0.987014
vn 0.000000 -1.000000 0.000000
vn 0.000000 -1.000000 0.000000
vn 0.000000 -1.000000 0.000000
vn 0.000000 -1.000000 0.000000
vn 0.966738 -0.197943 0.161979
vn 0.966738 -0.197943 0.161979
vn 0.966738 -0.197943 0.161979
vn 0.966738 -0.197943 0.161979
vn -0.966738 -0.197943 0.161979
vn -0.966738 -0.197943 0.161979
vn -0.966738 -0.197943 0.161979
vn -0.966738 -0.197943 0.161979
vn 0.000000 -1.000000 0.000000
vn 0.000000 -1.000000 0.000000
vn 0.000000 -1.000000 0.000000
vn 0.000000 -1.000000 0.000000
vn -0.074981 -0.066637 0.994956
vn -0.074981 -0.066637 0.994956
vn -0.074981 -0.066637 0.994956
vn -0.074981 -0.066637 0.994956
vn 0.064186 0.953939 0.293053
vn 0.064186 0.953939 0.293053
vn 0.064186 0.953939 0.293053
vn 0.064186 0.953939 0.293053
vn -0.127555 -0.066001 -0.989633
vn -0.127555 -0.066001 -0.989633
vn -0.127555 -0.066001 -0.989633
vn -0.127555 -0.066001 -0.989633
vn 0.034163 0.953370 0.299863
vn 0.034163 0.953370 0.299863
vn 0.034163 0.953370 0.299863
vn 0.034163 0.953370 0.299863
vn 0.190575 -0.113714 -0.975064
vn 0.190575 -0.113714 -0.975064
vn 0.190575 -0.113714 -0.975064
vn 0.190575 -0.113714 -0.975064
vn 0.000000 -1.000000 0.000000
vn 0.000000 -1.000000 0.000000
vn 0.000000 -1.000000 0.000000
vn 0.000000 -1.000000 0.000000
vn 0.101552 -0.085209 0.991174
vn 0.101552 -0.085209 0.991174
vn 0.101552 -0.085209 0.991174
vn 0.101552 -0.085209 0.991174
vn 0.000000 -1.000000 0.000000
vn 0.000000 -1.000000 0.000000
vn 0.000000 -1.000000 0.000000
vn 0.000000 -1.000000 0.000000
vn 0.115178 -0.064332 0.991260
vn 0.115178 -0.064332 0.991260
vn 0.115178 -0.064332 0.991260
vn 0.115178 -0.064332 0.991260
vn -0.021193 0.958060 0.285782
vn -0.021193 0.958060 0.285782
vn -0.021193 0.958060 0.285782
vn -0.021193 0.958060 0.285782
vn 0.081019 -0.066298 -0.994505
vn 0.081019 -0.066298 -0.994505
vn 0.081019 -0.066298 -0.994505
vn 0.081019 -0.066298 -0.994505
vn -0.025201 0.968582 -0.247414
vn -0.025201 0.968582 -0.247414
vn -0.025201 0.968582 -0.247414
vn -0.025201 0.968582 -0.247414
vn -0.129780 0.962808 -0.236978
vn -0.129780 0.962808 -0.236978
vn -0.129780 0.962808 -0.236978
vn -0.129780 0.962808 -0.236978
vn -0.966738 -0.197943 -0.161979
vn -0.966738 -0.197943 -0.161979
vn -0.966738 -0.197943 -0.161979
vn -0.966738 -0.197943 -0.161979
vn 0.000000 -1.000000 0.000000
vn 0.000000 -1.000000 0.000000
vn 0.000000 -1.000000 0.000000
vn 0.000000 -1.000000 0.000000
vn 0.000000 -1.000000 0.000000
vn 0.000000 -1.000000 0.000000
vn 0.000000 -1.000000 0.000000
vn 0.000000 -1.000000 0.000000
vn 0.000000 -1.000000 0.000000
vn 0.000000 -1.000000 0.000000
vn 0.000000 -1.000000 0.000000
vn 0.000000 -1.000000 0.000000
vn 0.000000 -1.000000 0.000000
vn 0.000000 -1.000000 0.000000
vn 0.000000 -1.000000 0.000000
vn 0.000000 -1.000000 0.000000
vn 0.966738 -0.197943 -0.161979
vn 0.966738 -0.197943 -0.161979
vn 0.966738 -0.197943 -0.161979
vn 0.966738 -0.197943 -0.161979
vn 0.041172 0.970079 -0.239272
vn 0.041172 0.970079 -0.239272
vn 0.041172 0.970079 -0.239272
vn 0.041172 0.970079 -0.239272
vn 0.060795 0.970601 -0.232889
vn 0.060795 0.970601 -0.232889
vn 0.060795 0.970601 -0.232889
vn 0.060795 0.970601 -0.232889
vn -0.960021 0.183069 0.211767
vn -0.960021 0.183069 0.211767
vn -0.960021 0.183069 0.211767
vn -0.960021 0.183069 0.211767
vn -0.962927 0.174778 -0.205485
vn -0.962927 0.174778 -0.205485
vn -0.962927 0.174778 -0.205485
vn -0.962927 0.174778 -0.205485
vn -0.166018 0.342173 -0.924854
vn -0.166018 0.342173 -0.924854
vn -0.166018 0.342173 -0.924854
vn -0.166018 0.342173 -0.924854
vn 0.062742 0.342919 -0.937267
vn 0.062742 0.342919 -0.937267
vn 0.062742 0.342919 -0.937267
vn 0.062742 0.342919 -0.937267
vn -0.087926 0.310824 -0.946392
vn -0.087926 0.310824 -0.946392
vn -0.087926 0.310824 -0.946392
vn -0.087926 0.310824 -0.946392
vn 0.162126 0.347929 -0.923396
vn 0.162126 0.347929 -0.923396
vn 0.162126 0.347929 -0.923396
vn 0.162126 0.347929 -0.923396
vn 0.955157 0.210324 -0.208418
vn 0.955157 0.210324 -0.208418
vn 0.955157 0.210324 -0.208418
vn 0.955157 0.210324 -0.208418
vn 0.951616 0.219144 0.215413
vn 0.951616 0.219144 0.215413
vn 0.951616 0.219144 0.215413
vn 0.951616 0.219144 0.215413
vn 0.101306 0.432808 0.895776
vn 0.101306 0.432808 0.895776
vn 0.101306 0.432807 0.895776
vn 0.101306 0.432808 0.895776
vn -0.050803 0.385862 0.921157
vn -0.050803 0.385862 0.921157
vn -0.050803 0.385862 0.921157
vn -0.050803 0.385862 0.921157
vn 0.087989 0.382679 0.919682
vn 0.087989 0.382679 0.919682
vn 0.087989 0.382679 0.919682
vn 0.087989 0.382679 0.919682
vn -0.176944 0.378913 0.908359
vn -0.176944 0.378913 0.908359
vn -0.176944 0.378913 0.908359
vn -0.176944 0.378913 0.908359
s off
f 1/1/1 18/26/2 42/57/3 31/44/4
f 3/3/5 19/28/6 22/31/7 23/33/8
f 33/47/9 34/48/10 17/25/11 7/7/12
f 24/35/13 25/36/14 18/27/15 1/9/16
f 2/2/17 28/40/18 38/53/19 39/54/20
f 24/34/21 1/1/22 31/44/23 32/45/24
f 26/37/25 27/38/26 16/24/27 10/17/28
f 41/56/29 10/16/30 16/23/31 40/55/32
f 30/43/33 21/30/34 11/18/35 13/20/36
f 9/15/37 35/49/38 36/50/39 15/22/40
f 30/43/41 13/20/42 4/4/43 29/41/44
f 15/22/45 36/50/46 37/51/47 8/8/48
f 16/24/49 27/38/50 28/39/51 2/10/52
f 40/55/53 16/23/54 2/2/55 39/54/56
f 25/36/57 26/37/58 10/17/59 18/27/60
f 42/57/61 18/26/62 10/16/63 41/56/64
f 22/31/65 19/28/66 11/18/67 21/30/68
f 17/25/69 34/48/70 35/49/71 9/15/72
f 20/29/73 22/31/74 21/30/75 12/19/76
f 23/33/77 22/31/78 20/29/79 5/5/80
f 7/13/81 24/34/82 32/45/83 33/46/84
f 7/7/85 17/25/86 25/36/87 24/35/88
f 17/25/89 9/15/90 26/37/91 25/36/92
f 9/15/93 15/22/94 27/38/95 26/37/96
f 28/39/97 27/38/98 15/22/99 8/8/100
f 38/53/101 28/40/102 8/11/103 37/52/104
f 14/21/105 30/43/106 29/41/107 6/6/108
f 12/19/109 21/30/110 30/43/111 14/21/112
f 32/45/113 31/44/114 3/3/115 23/32/116
f 33/46/117 32/45/118 23/32/119 5/14/120
f 5/5/121 20/29/122 34/48/123 33/47/124
f 35/49/125 34/48/126 20/29/127 12/19/128
f 36/50/129 35/49/130 12/19/131 14/21/132
f 37/51/133 36/50/134 14/21/135 6/6/136
f 29/42/137 38/53/138 37/52/139 6/12/140
f 39/54/141 38/53/142 29/42/143 4/4/144
f 13/20/145 40/55/146 39/54/147 4/4/148
f 11/18/149 41/56/150 40/55/151 13/20/152
f 19/28/153 42/57/154 41/56/155 11/18/156
f 31/44/157 42/57/158 19/28/159 3/3/160
