# This file uses centimeters as units for non-parametric coordinates.

v -92.831932 24.649288 49.334579
v -7.168067 24.649288 49.334579
v -91.439789 21.502346 37.646675
v -8.560213 21.502346 37.646675
v -91.439789 -21.502277 37.646675
v -8.560213 -21.502277 37.646675
v -92.831932 -24.649288 49.334579
v -7.168067 -24.649288 49.334579
v -87.247025 -19.064381 49.334579
v -12.752974 -19.064381 49.334579
v -12.752974 19.064381 49.334579
v -87.247025 19.064381 49.334579
v -81.053429 -12.870787 47.532444
v -81.053429 12.870787 47.532444
v -18.946568 -12.870787 47.532444
v -18.946568 12.870787 47.532444
v -83.783997 -15.601357 50.578754
v -83.783997 15.601357 50.578754
v -16.216000 -15.601357 50.578754
v -16.216000 15.601357 50.578754
v -79.849205 -11.666561 50.578754
v -79.849205 11.666561 50.578754
v -20.150793 -11.666561 50.578754
v -20.150793 11.666561 50.578754
v -74.515518 -6.332872 48.255947
v -74.515518 6.332872 48.255947
v -25.484484 -6.332872 48.255947
v -25.484484 6.332872 48.255947
v -76.304565 -8.121923 51.705452
v -76.304565 8.121923 51.705452
v -23.695431 -8.121923 51.705452
v -23.695431 8.121923 51.705452
v -72.540680 -4.358040 51.705452
v -72.540680 4.358040 51.705452
v -27.459318 -4.358040 51.705452
v -27.459318 4.358040 51.705452
v -68.311867 -0.129223 49.760284
v -68.311867 0.129223 49.760284
v -31.688129 -0.129223 49.760284
v -31.688129 0.129223 49.760284
v -70.147385 -1.964741 52.950848
v -70.147385 1.964741 52.950848
v -29.852615 -1.964741 52.950848
v -29.852615 1.964741 52.950848
v -92.831932 24.649284 45.010227
v -7.168067 24.649284 45.010227
v -7.168067 -24.649288 45.010250
v -92.831932 -24.649288 45.010250
v -91.379303 -21.507740 41.894604
v -8.620708 -21.507740 41.894604
v -8.620708 21.507740 41.894596
v -91.379303 21.507740 41.894596
v 0.000000 28.096958 37.646679
v 0.000000 -28.096817 37.646675
v 0.000000 -28.096817 -37.646675
v 0.000000 28.096962 -37.646675
v -100.000000 -28.096817 37.646675
v -100.000000 -28.096817 -37.646675
v -100.000000 28.096962 -37.646675
v -100.000000 28.096958 37.646679
v -50.000000 -34.236366 0.000004
v -50.000000 34.236351 0.000004
v -50.000000 -0.000008 -44.878296
v 5.000000 31.207066 -41.044079
v -5.000000 31.207066 -41.044079
v 5.000000 31.207066 41.044079
v -5.000000 31.207066 41.044079
v 5.000000 -31.207066 41.044079
v -5.000000 -31.207066 41.044079
v 5.000000 -31.207066 -41.044079
v -5.000000 -31.207066 -41.044079
v 3.572540 37.304699 -54.678043
v -3.572540 37.304699 -54.678043
v 3.572540 37.304695 54.678047
v -3.572540 37.304695 54.678047
v 3.572540 30.648079 61.141212
v -3.572540 30.648079 61.141212
v 3.572540 30.648079 -61.141212
v -3.572540 30.648079 -61.141212
v 3.572540 58.801960 54.678043
v -3.572540 58.801960 54.678043
v -3.572540 58.801960 61.141216
v 3.572540 58.801960 61.141216
v 3.572540 58.801960 -54.678043
v -3.572540 58.801960 -54.678043
v 3.572540 58.801964 -61.141212
v -3.572540 58.801964 -61.141212
v 7.978668 58.801960 50.692417
v -7.978668 58.801960 50.692417
v -7.978668 58.801960 65.126831
v 7.978668 58.801960 65.126831
v 7.978668 58.801960 -50.692417
v -7.978668 58.801960 -50.692417
v 7.978668 58.801964 -65.126831
v -7.978668 58.801964 -65.126831
v 7.978668 67.164200 50.692421
v -7.978668 67.164200 50.692421
v -7.978668 67.164200 65.126831
v 7.978668 67.164200 65.126831
v 7.978668 67.164200 -50.692417
v -7.978668 67.164200 -50.692417
v 7.978668 67.164200 -65.126831
v -7.978668 67.164200 -65.126831
vt 0.090385 0.281767
vt 0.090561 0.282175
vt 0.090577 0.281772
vt 0.090413 0.281315
vt 0.091366 0.281728
vt 0.091338 0.281254
vt 0.091385 0.282136
vt 0.091360 0.281713
vt 0.091262 0.282091
vt 0.091228 0.281789
vt 0.090656 0.282120
vt 0.090545 0.281826
vt 0.076752 0.281826
vt 0.077435 0.281789
vt 0.077469 0.282091
vt 0.076863 0.282120
vt 0.090545 0.281826
vt 0.091228 0.281789
vt 0.091262 0.282091
vt 0.090656 0.282120
vt 0.090545 0.281826
vt 0.091228 0.281789
vt 0.091262 0.282091
vt 0.090656 0.282120
vt 0.076752 0.281826
vt 0.077435 0.281789
vt 0.077469 0.282091
vt 0.076863 0.282120
vt 0.090545 0.281826
vt 0.091228 0.281789
vt 0.091262 0.282091
vt 0.090656 0.282120
vt 0.090545 0.281826
vt 0.091228 0.281789
vt 0.091262 0.282091
vt 0.090656 0.282120
vt 0.076752 0.281826
vt 0.077435 0.281789
vt 0.077469 0.282091
vt 0.076863 0.282120
vt 0.090545 0.281826
vt 0.091228 0.281789
vt 0.091262 0.282091
vt 0.090656 0.282120
vt 0.090387 0.281733
vt 0.090562 0.282145
vt 0.091384 0.282105
vt 0.091358 0.281678
vt 0.091349 0.281494
vt 0.091376 0.281942
vt 0.090568 0.281983
vt 0.090398 0.281552
vt 0.090981 0.282274
vt 0.090981 0.282274
vt 0.090981 0.282274
vt 0.090981 0.282274
vt 0.090981 0.282274
vt 0.090981 0.282274
vt 0.090981 0.282274
vt 0.090981 0.282274
vt 0.090981 0.282274
vt 0.090981 0.282274
vt 0.090981 0.282274
vt 0.090981 0.282274
vt 0.090981 0.282274
vt 0.090981 0.282274
vt 0.090981 0.282274
vt 0.090981 0.282274
vt 0.090981 0.282274
vt 0.090981 0.282274
vt 0.090981 0.282274
vt 0.090981 0.282274
vt 0.090981 0.282274
vt 0.090981 0.282274
vt 0.090981 0.282274
vt 0.090981 0.282274
vt 0.090981 0.282274
vt 0.090981 0.282274
vt 0.090981 0.282274
vt 0.090981 0.282274
vt 0.090981 0.282274
vt 0.090981 0.282274
vt 0.090981 0.282274
vt 0.090981 0.282274
vt 0.090981 0.282274
vt 0.090981 0.282274
vt 0.090981 0.282274
vt 0.090981 0.282274
vt 0.090981 0.282274
vt 0.090981 0.282274
vt 0.090981 0.282274
vt 0.090981 0.282274
vt 0.090981 0.282274
vt 0.090981 0.282274
vt 0.090981 0.282274
vt 0.090981 0.282274
vt 0.090998 0.227318
vt 0.090998 0.227318
vt 0.090998 0.227318
vt 0.090998 0.227318
vt 0.090998 0.227318
vt 0.090998 0.227318
vt 0.090998 0.227318
vt 0.090998 0.227318
vt 0.090998 0.227318
vt 0.090998 0.227318
vt 0.090998 0.227318
vt 0.090998 0.227318
vt 0.090998 0.227318
vt 0.090998 0.227318
vt 0.090998 0.227318
vt 0.090998 0.227318
vt 0.090998 0.227318
vt 0.090998 0.227318
vt 0.090998 0.227318
vt 0.090998 0.227318
vt 0.090998 0.227318
vt 0.090998 0.227318
vt 0.090998 0.227318
vt 0.090998 0.227318
vt 0.090998 0.227318
vt 0.090998 0.227318
vt 0.090998 0.227318
vt 0.090998 0.227318
vt 0.090998 0.227318
vt 0.090998 0.227318
vt 0.090998 0.227318
vt 0.090998 0.227318
vt 0.090998 0.227318
vt 0.090998 0.227318
vt 0.090998 0.227318
vt 0.090998 0.227318
vt 0.090998 0.227318
vt 0.090998 0.227318
vt 0.090981 0.282274
vt 0.090981 0.282274
vt 0.090981 0.282274
vt 0.090981 0.282274
vt 0.090981 0.282274
vt 0.090981 0.282274
vt 0.090981 0.282274
vt 0.090981 0.282274
vt 0.090981 0.282274
vn 0.000000 0.000000 1.000000
vn 0.000000 0.000000 1.000000
vn 0.000000 0.000000 1.000000
vn 0.000000 0.000000 1.000000
vn 0.000000 0.000000 1.000000
vn 0.000000 0.000000 1.000000
vn 0.000000 0.000000 1.000000
vn 0.000000 0.000000 1.000000
vn 0.000000 0.000000 1.000000
vn 0.000000 0.000000 1.000000
vn 0.000000 0.000000 1.000000
vn 0.000000 0.000000 1.000000
vn 0.000000 0.000000 1.000000
vn 0.000000 0.000000 1.000000
vn 0.000000 0.000000 1.000000
vn 0.000000 0.000000 1.000000
vn 0.000000 0.000000 1.000000
vn 0.000000 0.000000 1.000000
vn 0.000000 0.000000 1.000000
vn 0.000000 0.000000 1.000000
vn 0.279381 0.000000 0.960180
vn 0.279381 0.000000 0.960180
vn 0.279381 0.000000 0.960180
vn 0.279381 0.000000 0.960180
vn 0.000000 0.279381 0.960180
vn 0.000000 0.279381 0.960180
vn 0.000000 0.279381 0.960180
vn 0.000000 0.279381 0.960180
vn -0.279381 0.000000 0.960180
vn -0.279381 0.000000 0.960180
vn -0.279381 0.000000 0.960180
vn -0.279381 0.000000 0.960180
vn 0.000000 -0.279381 0.960180
vn 0.000000 -0.279381 0.960180
vn 0.000000 -0.279381 0.960180
vn 0.000000 -0.279381 0.960180
vn -0.744643 0.000000 -0.667463
vn -0.744643 0.000000 -0.667463
vn -0.744643 0.000000 -0.667463
vn -0.744643 0.000000 -0.667463
vn 0.000000 -0.744643 -0.667463
vn 0.000000 -0.744643 -0.667463
vn 0.000000 -0.744643 -0.667463
vn 0.000000 -0.744643 -0.667463
vn 0.744643 0.000000 -0.667463
vn 0.744643 0.000000 -0.667463
vn 0.744643 0.000000 -0.667463
vn 0.744643 0.000000 -0.667463
vn 0.000000 0.744643 -0.667463
vn 0.000000 0.744643 -0.667463
vn 0.000000 0.744643 -0.667463
vn 0.000000 0.744643 -0.667463
vn -0.000001 0.000000 1.000000
vn -0.000001 0.000000 1.000000
vn -0.000001 0.000000 1.000000
vn -0.000001 0.000000 1.000000
vn 0.000000 0.000000 1.000000
vn 0.000000 0.000000 1.000000
vn 0.000000 0.000000 1.000000
vn 0.000000 0.000000 1.000000
vn 0.000001 0.000000 1.000000
vn 0.000001 0.000000 1.000000
vn 0.000001 0.000000 1.000000
vn 0.000001 0.000000 1.000000
vn 0.000000 0.000000 1.000000
vn 0.000000 0.000000 1.000000
vn 0.000000 0.000000 1.000000
vn 0.000000 0.000000 1.000000
vn 0.399277 0.000000 0.916830
vn 0.399277 0.000000 0.916830
vn 0.399277 0.000000 0.916830
vn 0.399277 0.000000 0.916830
vn 0.000000 0.399277 0.916830
vn 0.000000 0.399277 0.916830
vn 0.000000 0.399277 0.916830
vn 0.000000 0.399277 0.916830
vn -0.399277 0.000000 0.916830
vn -0.399277 0.000000 0.916830
vn -0.399277 0.000000 0.916830
vn -0.399277 0.000000 0.916830
vn 0.000000 -0.399277 0.916830
vn 0.000000 -0.399277 0.916830
vn 0.000000 -0.399277 0.916830
vn 0.000000 -0.399277 0.916830
vn -0.887711 0.000000 -0.460401
vn -0.887711 0.000000 -0.460401
vn -0.887711 0.000000 -0.460401
vn -0.887711 0.000000 -0.460401
vn 0.000000 -0.887711 -0.460402
vn 0.000000 -0.887711 -0.460402
vn 0.000000 -0.887711 -0.460402
vn 0.000000 -0.887711 -0.460402
vn 0.887710 0.000000 -0.460403
vn 0.887710 0.000000 -0.460403
vn 0.887710 0.000000 -0.460403
vn 0.887710 0.000000 -0.460403
vn 0.000000 0.887711 -0.460402
vn 0.000000 0.887711 -0.460402
vn 0.000000 0.887711 -0.460402
vn 0.000000 0.887711 -0.460402
vn 0.000000 0.000000 1.000000
vn 0.000000 0.000000 1.000000
vn 0.000000 0.000000 1.000000
vn 0.000000 0.000000 1.000000
vn 0.000000 0.000000 1.000000
vn 0.000000 0.000000 1.000000
vn 0.000000 0.000000 1.000000
vn 0.000000 0.000000 1.000000
vn -0.000000 0.000000 1.000000
vn -0.000000 0.000000 1.000000
vn -0.000000 0.000000 1.000000
vn -0.000000 0.000000 1.000000
vn 0.000000 0.000000 1.000000
vn 0.000000 0.000000 1.000000
vn 0.000000 0.000000 1.000000
vn 0.000000 0.000000 1.000000
vn 0.417891 0.000000 0.908497
vn 0.417891 0.000000 0.908497
vn 0.417891 0.000000 0.908497
vn 0.417891 0.000000 0.908497
vn 0.000000 0.417890 0.908498
vn 0.000000 0.417890 0.908498
vn 0.000000 0.417890 0.908498
vn 0.000000 0.417890 0.908498
vn -0.417891 0.000000 0.908497
vn -0.417891 0.000000 0.908497
vn -0.417891 0.000000 0.908497
vn -0.417891 0.000000 0.908497
vn 0.000000 -0.417890 0.908498
vn 0.000000 -0.417890 0.908498
vn 0.000000 -0.417890 0.908498
vn 0.000000 -0.417890 0.908498
vn -0.866795 0.000000 -0.498664
vn -0.866795 0.000000 -0.498664
vn -0.866795 0.000000 -0.498664
vn -0.866795 0.000000 -0.498664
vn 0.000000 -0.866796 -0.498664
vn 0.000000 -0.866796 -0.498664
vn 0.000000 -0.866796 -0.498664
vn 0.000000 -0.866796 -0.498664
vn 0.866796 0.000000 -0.498663
vn 0.866796 0.000000 -0.498663
vn 0.866796 0.000000 -0.498663
vn 0.866796 0.000000 -0.498663
vn 0.000000 0.866796 -0.498664
vn 0.000000 0.866796 -0.498664
vn 0.000000 0.866796 -0.498664
vn 0.000000 0.866796 -0.498664
vn 0.000000 0.704172 -0.710029
vn 0.000000 0.704172 -0.710029
vn 0.000000 0.704172 -0.710029
vn 0.000000 0.704172 -0.710029
vn -0.906332 -0.000000 -0.422567
vn -0.906332 -0.000000 -0.422567
vn -0.906332 -0.000000 -0.422567
vn -0.906332 -0.000000 -0.422567
vn 0.906331 -0.000000 -0.422570
vn 0.906331 -0.000000 -0.422570
vn 0.906331 -0.000000 -0.422570
vn 0.906331 -0.000000 -0.422570
vn 0.000000 -0.704173 -0.710028
vn 0.000000 -0.704173 -0.710028
vn 0.000000 -0.704173 -0.710028
vn 0.000000 -0.704173 -0.710028
vn 0.000000 1.000000 -0.000001
vn 0.000000 1.000000 -0.000001
vn 0.000000 1.000000 -0.000001
vn 0.000000 1.000000 -0.000001
vn 1.000000 0.000000 0.000000
vn 1.000000 0.000000 0.000000
vn 1.000000 0.000000 0.000000
vn 1.000000 0.000000 0.000000
vn 0.000000 -1.000000 0.000000
vn 0.000000 -1.000000 0.000000
vn 0.000000 -1.000000 0.000000
vn 0.000000 -1.000000 0.000000
vn -1.000000 0.000000 0.000000
vn -1.000000 0.000000 0.000000
vn -1.000000 0.000000 0.000000
vn -1.000000 0.000000 0.000000
vn 0.000000 -0.999999 -0.001286
vn 0.000000 -0.999999 -0.001286
vn 0.000000 -0.999999 -0.001286
vn 0.000000 -0.999999 -0.001286
vn 0.999899 0.000000 0.014240
vn 0.999899 0.000000 0.014240
vn 0.999899 0.000000 0.014240
vn 0.999899 0.000000 0.014240
vn 0.000000 0.999999 -0.001269
vn 0.000000 0.999999 -0.001269
vn 0.000000 0.999999 -0.001269
vn 0.000000 0.999999 -0.001269
vn -0.999899 0.000000 0.014237
vn -0.999899 0.000000 0.014237
vn -0.999899 0.000000 0.014237
vn -0.999899 0.000000 0.014237
vn 1.000000 0.000000 0.000000
vn 1.000000 0.000000 0.000000
vn 1.000000 0.000000 0.000000
vn 1.000000 0.000000 0.000000
vn 0.000000 -0.986961 0.160957
vn 0.000000 -0.986961 0.160957
vn 0.000000 -0.986961 0.160957
vn -0.121876 -0.992545 0.000000
vn -0.121876 -0.992545 0.000000
vn -0.121876 -0.992545 0.000000
vn 0.000000 -0.986961 -0.160957
vn 0.000000 -0.986961 -0.160957
vn 0.000000 -0.986961 -0.160957
vn 0.121876 -0.992545 0.000000
vn 0.121876 -0.992545 0.000000
vn 0.121876 -0.992545 0.000000
vn 0.000000 0.986962 -0.160953
vn 0.000000 0.986962 -0.160953
vn 0.000000 0.986962 -0.160953
vn -0.121873 0.992546 0.000000
vn -0.121873 0.992546 0.000000
vn -0.121873 0.992546 0.000000
vn 0.000000 0.986962 0.160953
vn 0.000000 0.986962 0.160953
vn 0.000000 0.986962 0.160953
vn 0.121873 0.992546 0.000000
vn 0.121873 0.992546 0.000000
vn 0.121873 0.992546 0.000000
vn 0.000000 -0.249259 -0.968437
vn 0.000000 -0.249259 -0.968437
vn 0.000000 -0.249259 -0.968437
vn -0.143143 0.000000 -0.989702
vn -0.143143 0.000000 -0.989702
vn -0.143143 0.000000 -0.989702
vn 0.000000 0.249257 -0.968437
vn 0.000000 0.249257 -0.968437
vn 0.000000 0.249257 -0.968437
vn 0.143143 0.000000 -0.989702
vn 0.143143 0.000000 -0.989702
vn 0.143143 0.000000 -0.989702
vn 0.000000 1.000000 0.000000
vn 0.000000 1.000000 0.000000
vn 0.000000 1.000000 0.000000
vn 0.000000 1.000000 0.000000
vn 0.000000 0.000000 1.000000
vn 0.000000 0.000000 1.000000
vn 0.000000 0.000000 1.000000
vn 0.000000 0.000000 1.000000
vn 0.000000 -1.000000 0.000000
vn 0.000000 -1.000000 0.000000
vn 0.000000 -1.000000 0.000000
vn 0.000000 -1.000000 0.000000
vn 0.000000 0.000000 -1.000000
vn 0.000000 0.000000 -1.000000
vn 0.000000 0.000000 -1.000000
vn 0.000000 0.000000 -1.000000
vn -1.000000 0.000000 0.000000
vn -1.000000 0.000000 0.000000
vn -1.000000 0.000000 0.000000
vn -1.000000 0.000000 0.000000
vn 1.000000 0.000000 0.000000
vn 1.000000 0.000000 0.000000
vn 1.000000 0.000000 0.000000
vn 1.000000 0.000000 0.000000
vn 0.000000 1.000000 0.000000
vn 0.000000 1.000000 0.000000
vn 0.000000 1.000000 0.000000
vn 0.000000 1.000000 0.000000
vn 0.000000 -1.000000 0.000000
vn 0.000000 -1.000000 0.000000
vn 0.000000 -1.000000 0.000000
vn 0.000000 -1.000000 0.000000
vn -1.000000 0.000000 0.000000
vn -1.000000 0.000000 0.000000
vn -1.000000 0.000000 0.000000
vn -1.000000 0.000000 0.000000
vn 1.000000 0.000000 0.000000
vn 1.000000 0.000000 0.000000
vn 1.000000 0.000000 0.000000
vn 1.000000 0.000000 0.000000
vn 0.000000 1.000000 0.000000
vn 0.000000 1.000000 0.000000
vn 0.000000 1.000000 0.000000
vn 0.000000 1.000000 0.000000
vn 0.000000 1.000000 0.000000
vn 0.000000 1.000000 0.000000
vn 0.000000 1.000000 0.000000
vn 0.000000 1.000000 0.000000
vn 0.000000 -0.000000 -1.000000
vn 0.000000 -0.000000 -1.000000
vn 0.000000 -0.000000 -1.000000
vn 0.000000 -0.000000 -1.000000
vn -1.000000 0.000000 0.000000
vn -1.000000 0.000000 0.000000
vn -1.000000 0.000000 0.000000
vn -1.000000 0.000000 0.000000
vn 0.000000 -0.000000 1.000000
vn 0.000000 -0.000000 1.000000
vn 0.000000 -0.000000 1.000000
vn 0.000000 -0.000000 1.000000
vn 1.000000 0.000000 0.000000
vn 1.000000 0.000000 0.000000
vn 1.000000 0.000000 0.000000
vn 1.000000 0.000000 0.000000
vn 0.000000 0.000000 1.000000
vn 0.000000 0.000000 1.000000
vn 0.000000 0.000000 1.000000
vn 0.000000 0.000000 1.000000
vn 1.000000 0.000000 0.000000
vn 1.000000 0.000000 0.000000
vn 1.000000 0.000000 0.000000
vn 1.000000 0.000000 0.000000
vn 0.000000 0.000000 -1.000000
vn 0.000000 0.000000 -1.000000
vn 0.000000 0.000000 -1.000000
vn 0.000000 0.000000 -1.000000
vn -1.000000 0.000000 0.000000
vn -1.000000 0.000000 0.000000
vn -1.000000 0.000000 0.000000
vn -1.000000 0.000000 0.000000
vn 0.000000 -1.000000 0.000001
vn 0.000000 -1.000000 0.000001
vn 0.000000 -1.000000 0.000001
vn 0.000000 -1.000000 0.000001
vn 0.000000 -1.000000 0.000000
vn 0.000000 -1.000000 0.000000
vn 0.000000 -1.000000 0.000000
vn 0.000000 -1.000000 0.000000
vn 0.000000 -1.000000 -0.000001
vn 0.000000 -1.000000 -0.000001
vn 0.000000 -1.000000 -0.000001
vn 0.000000 -1.000000 -0.000001
vn 0.000000 -1.000000 0.000000
vn 0.000000 -1.000000 0.000000
vn 0.000000 -1.000000 0.000000
vn 0.000000 -1.000000 0.000000
vn 0.000000 -1.000000 -0.000001
vn 0.000000 -1.000000 -0.000001
vn 0.000000 -1.000000 -0.000001
vn 0.000000 -1.000000 -0.000001
vn 0.000000 -1.000000 -0.000001
vn 0.000000 -1.000000 -0.000001
vn 0.000000 -1.000000 -0.000001
vn 0.000000 -1.000000 -0.000001
vn 0.000000 -1.000000 0.000001
vn 0.000000 -1.000000 0.000001
vn 0.000000 -1.000000 0.000001
vn 0.000000 -1.000000 0.000001
vn -0.000000 -1.000000 -0.000001
vn -0.000000 -1.000000 -0.000001
vn -0.000000 -1.000000 -0.000001
vn -0.000000 -1.000000 -0.000001
vn 0.000000 0.000000 -1.000000
vn 0.000000 0.000000 -1.000000
vn 0.000000 0.000000 -1.000000
vn 0.000000 0.000000 -1.000000
vn -1.000000 0.000000 0.000000
vn -1.000000 0.000000 0.000000
vn -1.000000 0.000000 0.000000
vn -1.000000 0.000000 0.000000
vn 0.000000 0.000000 1.000000
vn 0.000000 0.000000 1.000000
vn 0.000000 0.000000 1.000000
vn 0.000000 0.000000 1.000000
vn 1.000000 0.000000 0.000000
vn 1.000000 0.000000 0.000000
vn 1.000000 0.000000 0.000000
vn 1.000000 0.000000 0.000000
vn 0.000000 0.000000 1.000000
vn 0.000000 0.000000 1.000000
vn 0.000000 0.000000 1.000000
vn 0.000000 0.000000 1.000000
vn 1.000000 0.000000 0.000000
vn 1.000000 0.000000 0.000000
vn 1.000000 0.000000 0.000000
vn 1.000000 0.000000 0.000000
vn 0.000000 0.000000 -1.000000
vn 0.000000 0.000000 -1.000000
vn 0.000000 0.000000 -1.000000
vn 0.000000 0.000000 -1.000000
vn -1.000000 0.000000 0.000000
vn -1.000000 0.000000 0.000000
vn -1.000000 0.000000 0.000000
vn -1.000000 0.000000 0.000000
vn -1.000000 0.000000 0.000000
vn -1.000000 0.000000 0.000000
vn -1.000000 0.000000 0.000000
vn -1.000000 0.000000 0.000000
vn 0.000000 -0.000000 1.000000
vn 0.000000 -0.000000 1.000000
vn 0.000000 -0.000000 1.000000
vn 0.000000 -0.000000 1.000000
vn 0.000000 -0.000001 1.000000
vn 0.000000 -0.000001 1.000000
vn 0.000000 -0.000001 1.000000
vn 0.000000 -0.000001 1.000000
vn 0.000000 -0.000000 1.000000
vn 0.000000 -0.000000 1.000000
vn 0.000000 -0.000000 1.000000
vn 0.000000 -0.000000 1.000000
vn 0.000000 0.000000 1.000000
vn 0.000000 0.000000 1.000000
vn 0.000000 0.000000 1.000000
vn 0.000000 0.000000 1.000000
s off
f 7/8/1 8/7/2 10/9/3 9/10/4
f 8/7/5 2/2/6 11/11/7 10/9/8
f 2/2/9 1/1/10 12/12/11 11/11/12
f 1/1/13 7/8/14 9/10/15 12/12/16
f 42/41/17 41/42/18 43/43/19 44/44/20
f 12/12/21 9/10/22 13/14/23 14/13/24
f 9/10/25 10/9/26 15/15/27 13/14/28
f 10/9/29 11/11/30 16/16/31 15/15/32
f 11/11/33 12/12/34 14/13/35 16/16/36
f 14/13/37 13/14/38 17/18/39 18/17/40
f 13/14/41 15/15/42 19/19/43 17/18/44
f 15/15/45 16/16/46 20/20/47 19/19/48
f 16/16/49 14/13/50 18/17/51 20/20/52
f 18/17/53 17/18/54 21/22/55 22/21/56
f 17/18/57 19/19/58 23/23/59 21/22/60
f 19/19/61 20/20/62 24/24/63 23/23/64
f 20/20/65 18/17/66 22/21/67 24/24/68
f 22/21/69 21/22/70 25/26/71 26/25/72
f 21/22/73 23/23/74 27/27/75 25/26/76
f 23/23/77 24/24/78 28/28/79 27/27/80
f 24/24/81 22/21/82 26/25/83 28/28/84
f 26/25/85 25/26/86 29/30/87 30/29/88
f 25/26/89 27/27/90 31/31/91 29/30/92
f 27/27/93 28/28/94 32/32/95 31/31/96
f 28/28/97 26/25/98 30/29/99 32/32/100
f 30/29/101 29/30/102 33/34/103 34/33/104
f 29/30/105 31/31/106 35/35/107 33/34/108
f 31/31/109 32/32/110 36/36/111 35/35/112
f 32/32/113 30/29/114 34/33/115 36/36/116
f 34/33/117 33/34/118 37/38/119 38/37/120
f 33/34/121 35/35/122 39/39/123 37/38/124
f 35/35/125 36/36/126 40/40/127 39/39/128
f 36/36/129 34/33/130 38/37/131 40/40/132
f 38/37/133 37/38/134 41/42/135 42/41/136
f 37/38/137 39/39/138 43/43/139 41/42/140
f 39/39/141 40/40/142 44/44/143 43/43/144
f 40/40/145 38/37/146 42/41/147 44/44/148
f 51/51/149 52/52/150 45/45/151 46/46/152
f 52/52/153 49/49/154 48/48/155 45/45/156
f 50/50/157 51/51/158 46/46/159 47/47/160
f 47/47/161 48/48/162 49/49/163 50/50/164
f 46/46/165 45/45/166 1/1/167 2/2/168
f 47/47/169 46/46/170 2/2/171 8/7/172
f 7/8/173 48/48/174 47/47/175 8/7/176
f 45/45/177 48/48/178 7/8/179 1/1/180
f 50/50/181 49/49/182 5/6/183 6/5/184
f 4/3/185 51/51/186 50/50/187 6/5/188
f 3/4/189 52/52/190 51/51/191 4/3/192
f 5/6/193 49/49/194 52/52/195 3/4/196
f 56/53/197 53/54/198 54/55/199 55/56/200
f 54/57/201 57/58/202 61/59/203
f 57/60/204 58/61/205 61/59/206
f 58/62/207 55/63/208 61/59/209
f 55/64/210 54/65/211 61/59/212
f 56/66/213 59/67/214 62/68/215
f 59/69/216 60/70/217 62/68/218
f 60/70/219 53/71/220 62/68/221
f 53/72/222 56/73/223 62/68/224
f 55/74/225 58/75/226 63/76/227
f 58/77/228 59/78/229 63/76/230
f 59/79/231 56/80/232 63/76/233
f 56/81/234 55/82/235 63/76/236
f 64/83/237 65/84/238 67/85/239 66/86/240
f 66/86/241 67/85/242 69/87/243 68/88/244
f 68/88/245 69/87/246 71/89/247 70/90/248
f 70/90/249 71/89/250 65/91/251 64/92/252
f 65/84/253 71/93/254 69/94/255 67/85/256
f 70/95/257 64/83/258 66/86/259 68/96/260
f 72/97/261 73/98/262 75/99/263 74/100/264
f 76/101/265 77/102/266 79/103/267 78/104/268
f 73/98/269 79/105/270 77/106/271 75/99/272
f 78/107/273 72/97/274 74/100/275 76/108/276
f 96/109/277 97/110/278 98/111/279 99/112/280
f 101/113/281 100/114/282 102/115/283 103/116/284
f 74/100/285 75/99/286 81/117/287 80/118/288
f 75/99/289 77/102/290 82/119/291 81/117/292
f 77/102/293 76/101/294 83/120/295 82/119/296
f 76/101/297 74/100/298 80/118/299 83/120/300
f 73/121/301 72/122/302 84/123/303 85/124/304
f 72/122/305 78/104/306 86/125/307 84/123/308
f 78/104/309 79/103/310 87/126/311 86/125/312
f 79/103/313 73/121/314 85/124/315 87/126/316
f 80/118/317 81/117/318 89/127/319 88/128/320
f 81/117/321 82/119/322 90/129/323 89/127/324
f 82/119/325 83/120/326 91/130/327 90/129/328
f 83/120/329 80/118/330 88/128/331 91/130/332
f 85/124/333 84/123/334 92/131/335 93/132/336
f 84/123/337 86/125/338 94/133/339 92/131/340
f 86/125/341 87/126/342 95/134/343 94/133/344
f 87/126/345 85/124/346 93/132/347 95/134/348
f 88/128/349 89/127/350 97/110/351 96/109/352
f 89/127/353 90/129/354 98/111/355 97/110/356
f 90/129/357 91/130/358 99/112/359 98/111/360
f 91/130/361 88/128/362 96/109/363 99/112/364
f 93/132/365 92/131/366 100/114/367 101/113/368
f 92/131/369 94/133/370 102/115/371 100/114/372
f 94/133/373 95/134/374 103/116/375 102/115/376
f 95/134/377 93/132/378 101/113/379 103/116/380
f 58/61/381 57/135/382 60/70/383 59/78/384
f 54/136/385 53/137/386 4/138/387 6/139/388
f 53/137/389 60/140/390 3/141/391 4/138/392
f 60/140/393 57/142/394 5/143/395 3/141/396
f 57/142/397 54/136/398 6/139/399 5/143/400
