# This file uses centimeters as units for non-parametric coordinates.

v -1.029114 0.341726 3.368782
v 1.029114 0.341726 3.368782
v 1.029114 1.435713 3.368782
v -1.029114 1.435713 3.368782
v -1.029114 0.341726 5.157433
v 1.029114 0.341726 5.157433
v 1.029114 1.435713 5.157433
v -1.029114 1.435713 5.157433
v -1.227707 1.777439 3.368782
v -1.672028 1.333124 3.368782
v -1.672028 1.333124 -3.368782
v -1.227707 1.777439 -3.368782
v 1.672028 1.333124 3.368782
v 1.227707 1.777439 3.368782
v 1.672028 1.333124 -3.368782
v 1.227707 1.777439 -3.368782
v -1.672028 0.444315 3.368782
v -1.227707 0.000000 3.368782
v -1.672028 0.444315 -3.368782
v -1.227707 0.000000 -3.368782
v 1.227707 0.000000 3.368782
v 1.672028 0.444315 3.368782
v 1.227707 0.000000 -3.368782
v 1.672028 0.444315 -3.368782
vt 0.216818 0.319106
vt 0.216818 0.337892
vt 0.225525 0.319106
vt 0.225525 0.337892
vt 0.253091 0.277564
vt 0.263778 0.277564
vt 0.216818 0.337892
vt 0.225525 0.337892
vt 0.225525 0.319106
vt 0.216818 0.319106
vt 0.253091 0.272808
vt 0.263778 0.272808
vt 0.216633 0.467438
vt 0.216643 0.467630
vt 0.216661 0.467745
vt 0.216651 0.467552
vt 0.217610 0.467507
vt 0.217623 0.467687
vt 0.217559 0.467291
vt 0.217573 0.467470
vt 0.216647 0.467702
vt 0.217620 0.467594
vt 0.216627 0.467384
vt 0.217565 0.467285
vt 0.216667 0.467800
vt 0.217617 0.467693
vt 0.216646 0.467482
vt 0.217563 0.467383
vt 0.216638 0.467613
vt 0.216632 0.467389
vt 0.216662 0.467795
vt 0.216656 0.467570
vn 0.000000 0.000000 1.000000
vn 0.000000 0.000000 1.000000
vn 0.000000 0.000000 1.000000
vn 0.000000 0.000000 1.000000
vn 0.000000 1.000000 0.000000
vn 0.000000 1.000000 0.000000
vn 0.000000 1.000000 0.000000
vn 0.000000 1.000000 0.000000
vn 0.000000 -1.000000 0.000000
vn 0.000000 -1.000000 0.000000
vn 0.000000 -1.000000 0.000000
vn 0.000000 -1.000000 0.000000
vn 1.000000 0.000000 0.000000
vn 1.000000 0.000000 0.000000
vn 1.000000 0.000000 0.000000
vn 1.000000 0.000000 0.000000
vn -1.000000 0.000000 0.000000
vn -1.000000 0.000000 0.000000
vn -1.000000 0.000000 0.000000
vn -1.000000 0.000000 0.000000
vn 0.000000 -1.000000 0.000000
vn 0.000000 -1.000000 0.000000
vn 0.000000 -1.000000 0.000000
vn 0.000000 -1.000000 0.000000
vn 1.000000 0.000000 0.000000
vn 1.000000 0.000000 0.000000
vn 1.000000 0.000000 0.000000
vn 1.000000 0.000000 0.000000
vn 0.000000 1.000000 0.000000
vn 0.000000 1.000000 0.000000
vn 0.000000 1.000000 0.000000
vn 0.000000 1.000000 0.000000
vn -1.000000 0.000000 0.000000
vn -1.000000 0.000000 0.000000
vn -1.000000 0.000000 0.000000
vn -1.000000 0.000000 0.000000
vn -0.000000 0.000000 1.000000
vn -0.000000 0.000000 1.000000
vn -0.000000 0.000000 1.000000
vn -0.000000 0.000000 1.000000
vn -0.000000 0.000000 -1.000000
vn -0.000000 0.000000 -1.000000
vn 0.000000 0.000000 -1.000000
vn 0.000000 0.000000 -1.000000
vn 0.000000 0.000000 1.000000
vn 0.000000 0.000000 1.000000
vn 0.000000 0.000000 1.000000
vn 0.000000 0.000000 1.000000
vn 0.000000 0.000000 1.000000
vn 0.000000 0.000000 1.000000
vn 0.000000 0.000000 1.000000
vn 0.000000 0.000000 1.000000
vn 0.000000 0.000000 1.000000
vn 0.000000 0.000000 1.000000
vn 0.000000 0.000000 1.000000
vn 0.000000 0.000000 1.000000
vn -0.707102 0.707111 0.000000
vn -0.707102 0.707111 0.000000
vn -0.707102 0.707111 0.000000
vn -0.707102 0.707111 0.000000
vn 0.707102 0.707111 0.000000
vn 0.707102 0.707111 0.000000
vn 0.707102 0.707111 0.000000
vn 0.707102 0.707111 0.000000
vn -0.707103 -0.707111 0.000000
vn -0.707103 -0.707111 0.000000
vn -0.707103 -0.707111 0.000000
vn -0.707103 -0.707111 0.000000
vn 0.707103 -0.707111 0.000000
vn 0.707103 -0.707111 0.000000
vn 0.707103 -0.707111 0.000000
vn 0.707103 -0.707111 0.000000
vn -0.000000 0.000000 1.000000
vn -0.000000 0.000000 1.000000
vn -0.000000 0.000000 1.000000
vn 0.000001 0.000000 1.000000
vn 0.000001 0.000000 1.000000
vn 0.000001 0.000000 1.000000
vn 0.000000 0.000000 1.000000
vn 0.000000 0.000000 1.000000
vn 0.000000 0.000000 1.000000
vn -0.000000 0.000000 1.000000
vn -0.000000 0.000000 1.000000
vn -0.000000 0.000000 1.000000
vn 0.000000 0.000000 -1.000000
vn 0.000000 0.000000 -1.000000
vn 0.000001 0.000000 -1.000000
vn 0.000001 0.000000 -1.000000
vn -0.000000 0.000000 -1.000000
vn -0.000000 0.000000 -1.000000
vn -0.000000 0.000000 -1.000000
vn -0.000000 0.000000 -1.000000
s off
f 5/11/1 6/12/2 7/6/3 8/5/4
f 12/17/5 9/29/6 14/23/7 16/24/8
f 18/25/9 20/26/10 23/20/11 21/32/12
f 22/27/13 24/28/14 15/19/15 13/30/16
f 19/18/17 17/31/18 10/21/19 11/22/20
f 1/7/21 2/8/22 6/9/23 5/10/24
f 2/8/25 3/4/26 7/3/27 6/9/28
f 3/4/29 4/2/30 8/1/31 7/3/32
f 4/2/33 1/7/34 5/10/35 8/1/36
f 4/14/37 10/21/38 17/31/39 1/15/40
f 20/26/41 12/17/42 16/24/43 23/20/44
f 3/13/45 14/23/46 9/29/47 4/14/48
f 1/15/49 18/25/50 21/32/51 2/16/52
f 2/16/53 22/27/54 13/30/55 3/13/56
f 10/21/57 9/29/58 12/17/59 11/22/60
f 14/23/61 13/30/62 15/19/63 16/24/64
f 18/25/65 17/31/66 19/18/67 20/26/68
f 22/27/69 21/32/70 23/20/71 24/28/72
f 4/14/73 9/29/74 10/21/75
f 3/13/76 13/30/77 14/23/78
f 1/15/79 17/31/80 18/25/81
f 2/16/82 21/32/83 22/27/84
f 23/20/85 16/24/86 15/19/87 24/28/88
f 11/22/89 12/17/90 20/26/91 19/18/92
