# This file uses centimeters as units for non-parametric coordinates.

v -2.741516 1.493578 2.589844
v 2.741638 1.493578 2.589844
v -2.741516 7.620263 2.589844
v 2.741638 7.620263 2.589844
v -3.083008 8.001821 1.267944
v 3.083130 8.001821 1.267944
v -3.083008 1.112020 1.267944
v 3.083130 1.112020 1.267944
v -3.588989 4.556921 2.589844
v -4.036133 4.556921 1.267944
v 4.036194 4.556921 1.267944
v 3.589172 4.556921 2.589844
v -6.086304 -10.139242 1.267944
v 6.086426 -10.139242 1.267944
v -6.086304 10.139242 1.267944
v 6.086426 10.139242 1.267944
v -6.086304 10.139242 -2.589722
v 6.086426 10.139242 -2.589722
v -6.086304 -10.139242 -2.589722
v 6.086426 -10.139242 -2.589722
v -2.741516 -7.597951 2.589844
v 2.741638 -7.597951 2.589844
v -2.741516 -1.471267 2.589844
v 2.741638 -1.471267 2.589844
v -3.083008 -1.089709 1.267944
v 3.083130 -1.089709 1.267944
v -3.083008 -7.979509 1.267944
v 3.083130 -7.979509 1.267944
v -3.588989 -4.534610 2.589844
v -4.036133 -4.534610 1.267944
v 4.036194 -4.534610 1.267944
v 3.589172 -4.534610 2.589844
vt 0.134472 0.355256
vt 0.134472 0.355256
vt 0.134472 0.355256
vt 0.134472 0.355256
vt 0.134472 0.355256
vt 0.134472 0.355256
vt 0.134472 0.355256
vt 0.134472 0.355256
vt 0.134472 0.355256
vt 0.134472 0.355256
vt 0.134472 0.355256
vt 0.134472 0.355256
vt 0.134472 0.355256
vt 0.134472 0.355256
vt 0.134472 0.355256
vt 0.134472 0.355256
vt 0.134472 0.355256
vt 0.134472 0.355256
vt 0.504479 0.337308
vt 0.524209 0.337308
vt 0.527258 0.348475
vt 0.501430 0.348475
vt 0.524209 0.359642
vt 0.504479 0.359642
vt 0.134472 0.355256
vt 0.134472 0.355256
vt 0.134472 0.355256
vt 0.134472 0.355256
vt 0.134472 0.355256
vt 0.134472 0.355256
vt 0.134472 0.355256
vt 0.134472 0.355256
vt 0.134472 0.355256
vt 0.134472 0.355256
vt 0.134472 0.355256
vt 0.134472 0.355256
vt 0.134472 0.355256
vt 0.134472 0.355256
vt 0.504479 0.337308
vt 0.524209 0.337308
vt 0.527258 0.348475
vt 0.501430 0.348475
vt 0.134472 0.355256
vt 0.134472 0.355256
vt 0.134472 0.355256
vt 0.134472 0.355256
vt 0.134472 0.355256
vt 0.134472 0.355256
vt 0.134472 0.355256
vt 0.134472 0.355256
vt 0.134472 0.355256
vt 0.134472 0.355256
vt 0.134472 0.355256
vt 0.134472 0.355256
vt 0.134472 0.355256
vt 0.134472 0.355256
vt 0.134472 0.355256
vt 0.134472 0.355256
vt 0.134472 0.355256
vt 0.134472 0.355256
vt 0.524209 0.359642
vt 0.504479 0.359642
vn 0.000000 0.000000 1.000000
vn 0.000000 0.000000 1.000000
vn 0.000000 0.000000 1.000000
vn 0.000000 0.000000 1.000000
vn 0.000000 0.960777 0.277322
vn 0.000000 0.960777 0.277322
vn 0.000000 0.960777 0.277322
vn 0.000000 0.960777 0.277322
vn 0.000000 -0.960777 0.277322
vn 0.000000 -0.960777 0.277322
vn 0.000000 -0.960777 0.277322
vn 0.000000 -0.960777 0.277322
vn 0.916349 -0.253521 0.309890
vn 0.916349 -0.253521 0.309890
vn 0.947297 0.000000 0.320356
vn 0.947297 -0.000000 0.320356
vn -0.916337 -0.253518 0.309928
vn -0.916337 -0.253518 0.309928
vn -0.947284 -0.000000 0.320395
vn -0.947284 -0.000000 0.320395
vn -0.947284 -0.000000 0.320395
vn -0.947284 -0.000000 0.320395
vn -0.916337 0.253518 0.309928
vn -0.916337 0.253518 0.309928
vn 0.947297 -0.000000 0.320356
vn 0.947297 0.000000 0.320356
vn 0.916349 0.253521 0.309890
vn 0.916349 0.253521 0.309890
vn 0.000000 0.000000 1.000000
vn 0.000000 0.000000 1.000000
vn 0.000000 0.000000 1.000000
vn 0.000000 0.000000 1.000000
vn 0.000000 0.000000 1.000000
vn 0.000000 0.000000 1.000000
vn 0.000000 0.000000 1.000000
vn 0.000000 0.000000 1.000000
vn 0.000000 1.000000 0.000000
vn 0.000000 1.000000 0.000000
vn 0.000000 1.000000 0.000000
vn 0.000000 1.000000 0.000000
vn 0.000000 0.000000 -1.000000
vn 0.000000 0.000000 -1.000000
vn 0.000000 0.000000 -1.000000
vn 0.000000 0.000000 -1.000000
vn 0.000000 -1.000000 0.000000
vn 0.000000 -1.000000 0.000000
vn 0.000000 -1.000000 0.000000
vn 0.000000 -1.000000 0.000000
vn 1.000000 0.000000 0.000000
vn 1.000000 0.000000 0.000000
vn 1.000000 0.000000 0.000000
vn 1.000000 0.000000 0.000000
vn -1.000000 0.000000 0.000000
vn -1.000000 0.000000 0.000000
vn -1.000000 0.000000 0.000000
vn -1.000000 0.000000 0.000000
vn 0.000000 0.000000 1.000000
vn 0.000000 0.000000 1.000000
vn 0.000000 0.000000 1.000000
vn 0.000000 0.000000 1.000000
vn 0.000000 0.960777 0.277322
vn 0.000000 0.960777 0.277322
vn 0.000000 0.960777 0.277322
vn 0.000000 0.960777 0.277322
vn 0.000000 -0.960777 0.277323
vn 0.000000 -0.960777 0.277323
vn 0.000000 -0.960777 0.277323
vn 0.000000 -0.960777 0.277323
vn 0.916349 -0.253521 0.309890
vn 0.916349 -0.253521 0.309890
vn 0.947297 0.000000 0.320356
vn 0.947297 0.000000 0.320356
vn -0.916337 -0.253518 0.309928
vn -0.916337 -0.253518 0.309928
vn -0.947284 -0.000000 0.320395
vn -0.947284 -0.000000 0.320395
vn -0.947284 -0.000000 0.320395
vn -0.947284 -0.000000 0.320395
vn -0.916337 0.253518 0.309928
vn -0.916337 0.253518 0.309928
vn 0.947297 0.000000 0.320356
vn 0.947297 0.000000 0.320356
vn 0.916349 0.253521 0.309890
vn 0.916349 0.253521 0.309890
vn 0.000000 0.000000 1.000000
vn 0.000000 0.000000 1.000000
vn 0.000000 0.000000 1.000000
vn 0.000000 0.000000 1.000000
s off
f 1/19/1 2/20/2 12/21/3 9/22/4
f 3/3/5 4/4/6 6/6/7 5/5/8
f 7/7/9 8/8/10 2/10/11 1/9/12
f 2/2/13 8/11/14 11/17/15 12/18/16
f 7/13/17 1/1/18 9/15/19 10/16/20
f 10/16/21 9/15/22 3/3/23 5/14/24
f 12/18/25 11/17/26 6/12/27 4/4/28
f 9/22/29 12/21/30 4/23/31 3/24/32
f 13/25/33 14/26/34 16/27/35 15/28/36
f 15/28/37 16/27/38 18/29/39 17/30/40
f 17/30/41 18/29/42 20/31/43 19/32/44
f 19/32/45 20/31/46 14/33/47 13/34/48
f 14/26/49 20/35/50 18/36/51 16/27/52
f 19/37/53 13/25/54 15/28/55 17/38/56
f 21/39/57 22/40/58 32/41/59 29/42/60
f 23/43/61 24/44/62 26/45/63 25/46/64
f 27/47/65 28/48/66 22/49/67 21/50/68
f 22/51/69 28/52/70 31/53/71 32/54/72
f 27/55/73 21/56/74 29/57/75 30/58/76
f 30/58/77 29/57/78 23/43/79 25/59/80
f 32/54/81 31/53/82 26/60/83 24/44/84
f 29/42/85 32/41/86 24/61/87 23/62/88
