# This file uses centimeters as units for non-parametric coordinates.

v -50.829556 0.000000 0.000004
v 50.829556 0.000000 0.000004
v -47.306725 3.930496 0.000004
v 47.306725 3.930496 0.000004
v -47.306725 3.930496 -264.325043
v 47.306725 3.930496 -264.325043
v -50.829556 0.000000 -267.804962
v 50.829556 0.000000 -267.804962
v -47.306725 9.075165 -264.325043
v 47.306725 9.075165 -264.325043
v 50.829556 7.334061 -267.804962
v -50.829556 9.075165 -267.804962
v 50.829556 9.075165 0.000004
v 47.306725 9.075165 0.000004
v -50.829556 4.757248 0.000004
v -47.306725 9.075165 0.000004
v -45.725464 4.766174 -5.518532
v 45.725464 4.766174 -5.518532
v 45.725464 4.766174 -262.856750
v -45.725464 4.766174 -262.856750
v -5.006954 4.766174 -220.340973
v 5.006954 4.766174 -220.340973
v 5.006954 4.766174 -230.333527
v -5.006954 4.766174 -230.333527
v 0.000000 4.766174 -218.441742
v 0.000000 4.766174 -232.232910
v -6.910320 4.766174 -225.337280
v 6.910320 4.766174 -225.337280
v -4.263602 4.043251 -221.082764
v 0.000000 4.043251 -219.465485
v 4.263602 4.043251 -221.082764
v 5.884387 4.043251 -225.337280
v 4.263602 4.043251 -229.591766
v 0.000000 4.043251 -231.209137
v -4.263602 4.043251 -229.591766
v -5.884387 4.043251 -225.337280
v -4.263602 1.061922 -221.082764
v 0.000000 1.061922 -219.465485
v 4.263602 1.061922 -221.082764
v 5.884387 1.061922 -225.337280
v 4.263602 1.061922 -229.591766
v 0.000000 1.061922 -231.209137
v -4.263602 1.061922 -229.591766
v -5.884387 1.061922 -225.337280
v -30.785416 3.930496 0.000004
v -13.817446 3.930504 0.000004
v -21.139084 3.930504 -2.667946
v -6.924424 3.930504 0.000004
v 22.804968 3.930496 0.000004
v -0.164536 3.930504 -2.226421
v 11.729105 3.930504 -2.403015
v -21.139084 4.860626 -2.667946
v -0.164536 4.860626 -2.226421
v 11.729105 4.860626 -2.403015
v -30.785416 4.696007 0.000004
v -13.817446 4.550137 0.000004
v -6.924424 4.550137 0.000004
v 22.804968 4.696007 0.000004
v -20.859337 2.705568 0.000004
v 7.568028 2.277772 0.000004
v -50.829556 9.075165 -5.333878
v -48.992699 9.075165 0.000004
v 46.851894 9.075165 -267.804962
v 50.829556 9.075150 -262.950012
v 50.829559 9.075165 -145.283813
v 50.829556 9.075165 -120.394287
v 48.379036 9.075165 -131.224808
v 50.829556 5.821396 -131.783157
v -50.829559 9.075165 -215.310745
v -50.829559 9.075165 -236.330963
v -48.455280 9.075165 -226.408966
v -50.829556 5.295761 -227.440643
vt 0.005839 0.278726
vt 0.004852 0.278729
vt 0.004875 0.278691
vt 0.005816 0.278688
vt 0.005217 0.278526
vt 0.005492 0.278526
vt 0.005492 0.278517
vt 0.005217 0.278517
vt 0.005210 0.278518
vt 0.005498 0.278516
vt 0.005498 0.278537
vt 0.005211 0.278537
vt 0.004845 0.278660
vt 0.004873 0.278660
vt 0.005844 0.278674
vt 0.005819 0.278658
vt 0.156968 0.307470
vt 0.156005 0.307395
vt 0.156412 0.306548
vt 0.156925 0.306569
vt 0.156985 0.307488
vt 0.155985 0.307409
vt 0.156404 0.306550
vt 0.156933 0.306572
vt 0.156968 0.307470
vt 0.156005 0.307395
vt 0.156412 0.306548
vt 0.156925 0.306569
vt 0.156486 0.307432
vt 0.156668 0.306559
vt 0.156947 0.307020
vt 0.156208 0.306972
vt 0.156968 0.307470
vt 0.156486 0.307432
vt 0.156005 0.307395
vt 0.156208 0.306972
vt 0.156412 0.306548
vt 0.156668 0.306559
vt 0.156925 0.306569
vt 0.156947 0.307020
vt 0.101251 0.379416
vt 0.100984 0.379657
vt 0.100586 0.379703
vt 0.100313 0.379466
vt 0.100283 0.379151
vt 0.100552 0.378938
vt 0.100914 0.378900
vt 0.101184 0.379105
vt 0.101266 0.379274
vt 0.100991 0.379519
vt 0.100579 0.379565
vt 0.100296 0.379324
vt 0.100266 0.379005
vt 0.100545 0.378789
vt 0.100918 0.378751
vt 0.101197 0.378959
vt 0.156811 0.307474
vt 0.005652 0.278689
vt 0.156631 0.307460
vt 0.005483 0.278689
vt 0.156709 0.307458
vt 0.156346 0.307438
vt 0.005215 0.278690
vt 0.156032 0.307413
vt 0.004919 0.278690
vt 0.156275 0.307426
vt 0.156150 0.307415
vt 0.005017 0.278687
vt 0.005165 0.278664
vt 0.005345 0.278729
vt 0.004345 0.278602
vt 0.004557 0.278592
vt 0.004772 0.278621
vt 0.004887 0.278671
vt 0.156275 0.307426
vt 0.156150 0.307415
vt 0.156811 0.307474
vt 0.156709 0.307458
vt 0.156631 0.307460
vt 0.156346 0.307438
vt 0.156032 0.307413
vt 0.005554 0.278695
vt 0.005172 0.278698
vt 0.005153 0.278704
vt 0.004635 0.278639
vt 0.005838 0.278655
vt 0.005831 0.278658
vt 0.005218 0.278517
vt 0.005204 0.278519
vt 0.005043 0.278582
vt 0.005009 0.278596
vt 0.005037 0.278589
vt 0.005024 0.278593
vt 0.005566 0.278544
vt 0.005539 0.278533
vt 0.005543 0.278538
vt 0.005551 0.278546
vn 0.000000 0.000000 1.000000
vn 0.000000 0.000000 1.000000
vn 0.000000 0.000000 1.000000
vn 0.000000 0.000000 1.000000
vn 0.000000 1.000000 0.000000
vn 0.000000 1.000000 0.000000
vn 0.000000 1.000000 0.000000
vn 0.000000 1.000000 0.000000
vn 0.000000 1.000000 0.000000
vn 0.000000 1.000000 0.000000
vn 0.000000 1.000000 0.000000
vn 0.000000 1.000000 0.000000
vn 0.000000 1.000000 0.000000
vn 0.000000 1.000000 0.000000
vn 0.000000 1.000000 0.000000
vn 0.000000 1.000000 0.000000
vn 0.000000 -1.000000 0.000000
vn 0.000000 -1.000000 0.000000
vn 0.000000 -1.000000 0.000000
vn 0.000000 -1.000000 0.000000
vn 0.000000 1.000000 0.000000
vn 0.000000 1.000000 0.000000
vn 0.000000 1.000000 0.000000
vn 0.000000 1.000000 0.000000
vn 0.000000 1.000000 0.000000
vn 0.000000 1.000000 0.000000
vn 0.000000 1.000000 0.000000
vn 0.000000 0.000000 1.000000
vn 0.000000 0.000000 1.000000
vn 0.000000 0.000000 1.000000
vn 0.000000 0.000000 1.000000
vn 0.000000 0.000000 -1.000000
vn 0.000000 0.000000 -1.000000
vn 0.000000 0.000000 -1.000000
vn 0.000000 0.000000 -1.000000
vn 0.000000 0.000000 -1.000000
vn 1.000000 0.000001 0.000000
vn 1.000000 0.000001 0.000000
vn 1.000000 0.000001 0.000000
vn 1.000000 0.000001 0.000000
vn -1.000000 0.000000 0.000000
vn -1.000000 0.000000 0.000000
vn -1.000000 0.000000 0.000000
vn -1.000000 0.000000 0.000000
vn 0.000000 0.000000 1.000000
vn 0.000000 0.000000 1.000000
vn 0.000000 0.000000 1.000000
vn 0.000000 0.000000 1.000000
vn -1.000000 -0.000000 0.000000
vn -1.000000 -0.000000 0.000000
vn -1.000000 -0.000000 0.000000
vn 0.000000 0.000000 1.000000
vn 0.000000 0.000000 1.000000
vn 0.000000 0.000000 1.000000
vn 0.000000 0.000000 1.000000
vn 0.000000 0.000000 1.000000
vn 1.000000 0.000000 0.000000
vn 1.000000 0.000000 0.000000
vn 1.000000 0.000000 0.000000
vn 1.000000 0.000000 0.000000
vn 0.000066 0.999526 -0.030801
vn 0.000066 0.999526 -0.030801
vn 0.000066 0.999526 -0.030801
vn 0.000066 0.999526 -0.030801
vn 0.000066 0.999526 -0.030801
vn 0.467251 0.884125 0.000000
vn 0.467251 0.884125 0.000000
vn 0.467251 0.884125 0.000000
vn 0.467251 0.884125 0.000000
vn 0.000000 0.869095 -0.494645
vn 0.000000 0.869095 -0.494645
vn 0.000000 0.869095 -0.494645
vn 0.000000 0.869095 -0.494645
vn -0.467252 0.884124 0.000000
vn -0.467252 0.884124 0.000000
vn -0.467252 0.884124 0.000000
vn -0.467252 0.884124 0.000000
vn 0.000000 1.000000 0.000000
vn 0.000000 1.000000 0.000000
vn 0.000000 1.000000 0.000000
vn 0.000000 1.000000 0.000000
vn 0.000000 1.000000 0.000000
vn 0.000000 1.000000 0.000000
vn 0.000000 1.000000 0.000000
vn 0.000000 1.000000 0.000000
vn 0.000000 1.000000 0.000000
vn 0.000000 1.000000 0.000000
vn 0.000000 1.000000 0.000000
vn 0.000000 1.000000 0.000000
vn 0.000000 1.000000 0.000000
vn 0.000000 1.000000 0.000000
vn 0.000000 1.000000 0.000000
vn 0.000000 1.000000 0.000000
vn 0.000000 1.000000 0.000000
vn 0.000000 1.000000 0.000000
vn 0.000000 1.000000 0.000000
vn 0.000000 1.000000 0.000000
vn 0.000000 1.000000 0.000000
vn 0.000000 1.000000 0.000000
vn 0.000000 1.000000 0.000000
vn 0.000000 1.000000 0.000000
vn 0.000000 1.000000 -0.000000
vn 0.000000 1.000000 -0.000000
vn 0.000000 1.000000 -0.000000
vn 0.000000 1.000000 0.000000
vn 0.000000 1.000000 0.000000
vn 0.000000 1.000000 0.000000
vn 0.000000 1.000000 0.000000
vn 0.000000 1.000000 0.000000
vn 0.000000 1.000000 0.000000
vn 0.000000 1.000000 0.000000
vn 0.000000 1.000000 0.000000
vn 0.000000 1.000000 0.000000
vn 0.213747 0.797986 -0.563499
vn 0.213747 0.797986 -0.563499
vn 0.213747 0.797986 -0.563499
vn 0.213747 0.797986 -0.563499
vn -0.213747 0.797986 -0.563499
vn -0.213747 0.797986 -0.563499
vn -0.213747 0.797986 -0.563499
vn -0.213747 0.797986 -0.563499
vn -0.562622 0.798447 -0.214334
vn -0.562622 0.798447 -0.214334
vn -0.562622 0.798447 -0.214334
vn -0.562622 0.798447 -0.214334
vn -0.562624 0.798445 0.214337
vn -0.562624 0.798445 0.214337
vn -0.562624 0.798445 0.214337
vn -0.562624 0.798445 0.214337
vn -0.213761 0.797986 0.563494
vn -0.213761 0.797986 0.563494
vn -0.213761 0.797986 0.563494
vn -0.213761 0.797986 0.563494
vn 0.213761 0.797986 0.563494
vn 0.213761 0.797986 0.563494
vn 0.213761 0.797986 0.563494
vn 0.213761 0.797986 0.563494
vn 0.562624 0.798445 0.214337
vn 0.562624 0.798445 0.214337
vn 0.562624 0.798445 0.214337
vn 0.562624 0.798445 0.214337
vn 0.562622 0.798447 -0.214334
vn 0.562622 0.798447 -0.214334
vn 0.562622 0.798447 -0.214334
vn 0.562622 0.798447 -0.214334
vn 0.354661 0.000000 -0.934995
vn 0.354661 0.000000 -0.934995
vn 0.354661 0.000000 -0.934995
vn 0.354661 0.000000 -0.934995
vn -0.354661 0.000000 -0.934995
vn -0.354661 0.000000 -0.934995
vn -0.354661 0.000000 -0.934995
vn -0.354661 0.000000 -0.934995
vn -0.934487 0.000000 -0.355998
vn -0.934487 0.000000 -0.355998
vn -0.934487 0.000000 -0.355998
vn -0.934487 0.000000 -0.355998
vn -0.934486 0.000000 0.356001
vn -0.934486 0.000000 0.356001
vn -0.934486 0.000000 0.356001
vn -0.934486 0.000000 0.356001
vn -0.354681 0.000000 0.934988
vn -0.354681 0.000000 0.934988
vn -0.354681 0.000000 0.934988
vn -0.354681 0.000000 0.934988
vn 0.354681 0.000000 0.934988
vn 0.354681 0.000000 0.934988
vn 0.354681 0.000000 0.934988
vn 0.354681 0.000000 0.934988
vn 0.934486 0.000000 0.356001
vn 0.934486 0.000000 0.356001
vn 0.934486 0.000000 0.356001
vn 0.934486 0.000000 0.356001
vn 0.934487 0.000000 -0.355998
vn 0.934487 0.000000 -0.355998
vn 0.934487 0.000000 -0.355998
vn 0.934487 0.000000 -0.355998
vn -0.155081 0.891529 0.425588
vn -0.155081 0.891529 0.425589
vn -0.155081 0.891529 0.425589
vn 0.008562 0.816922 0.576684
vn 0.008562 0.816922 0.576684
vn 0.008562 0.816922 0.576684
vn -0.026733 0.996019 0.085038
vn -0.026733 0.996019 0.085038
vn -0.026733 0.996019 0.085038
vn -0.026733 0.996019 0.085038
vn -0.001998 0.992017 0.126092
vn -0.001998 0.992016 0.126092
vn -0.001998 0.992016 0.126092
vn -0.001998 0.992016 0.126092
vn 0.019654 0.995351 0.094285
vn 0.019654 0.995351 0.094285
vn 0.019654 0.995351 0.094285
vn 0.019654 0.995351 0.094285
vn 0.014846 0.000000 0.999890
vn 0.014846 0.000000 0.999890
vn 0.014846 0.000000 0.999890
vn 0.014846 0.000000 0.999890
vn 0.000000 0.000000 1.000000
vn 0.000000 0.000000 1.000000
vn 0.000000 0.000000 1.000000
vn 0.266569 0.000000 0.963816
vn 0.266569 0.000000 0.963816
vn 0.266569 0.000000 0.963816
vn 0.266569 0.000000 0.963816
vn -0.342370 0.000000 0.939565
vn -0.342370 0.000000 0.939565
vn -0.342370 0.000000 0.939565
vn -0.342370 0.000000 0.939565
vn 0.000000 0.000000 1.000000
vn 0.000000 0.000000 1.000000
vn 0.000000 0.000000 1.000000
vn 0.000000 0.000000 1.000000
vn 0.312828 0.000000 0.949810
vn 0.312828 0.000000 0.949810
vn 0.312828 0.000000 0.949810
vn 0.312828 0.000000 0.949810
vn -0.212027 0.000000 0.977264
vn -0.212027 0.000000 0.977264
vn -0.212027 0.000000 0.977264
vn -0.212027 0.000000 0.977264
vn 0.000000 0.000000 1.000000
vn 0.000000 0.000000 1.000000
vn 0.000000 0.000000 1.000000
vn 0.000000 0.000000 1.000000
vn 0.000000 0.000000 1.000000
vn 0.000000 0.000000 1.000000
vn 0.000000 0.000000 1.000000
vn 0.000000 0.000000 1.000000
vn 0.000000 0.000000 1.000000
vn 0.000000 0.000000 1.000000
vn 0.000000 0.000000 1.000000
vn 0.000000 0.000000 1.000000
vn 0.000000 0.000000 1.000000
vn 0.000000 0.000000 1.000000
vn 0.000000 0.000000 1.000000
vn 0.111987 0.907474 0.404906
vn 0.111987 0.907474 0.404906
vn 0.111987 0.907474 0.404906
vn 0.107143 0.939518 0.325310
vn 0.107143 0.939518 0.325310
vn 0.107143 0.939518 0.325310
vn -0.096566 0.890265 0.445087
vn -0.096566 0.890265 0.445087
vn -0.096566 0.890265 0.445087
vn -0.877206 0.373165 0.302088
vn -0.877206 0.373165 0.302088
vn -0.877206 0.373165 0.302088
vn 0.380956 0.870320 -0.312115
vn 0.380956 0.870320 -0.312115
vn 0.380956 0.870320 -0.312115
vn 0.771885 0.611303 -0.174647
vn 0.771885 0.611303 -0.174647
vn 0.771885 0.611303 -0.174647
vn 0.802330 0.580266 0.139849
vn 0.802330 0.580266 0.139849
vn 0.802330 0.580266 0.139849
vn 0.000000 1.000000 0.000000
vn 0.000000 1.000000 0.000000
vn 0.000000 1.000000 0.000000
vn 0.000000 1.000000 0.000000
vn 0.000002 1.000000 -0.000000
vn 0.000002 1.000000 -0.000000
vn 0.000002 1.000000 -0.000000
vn 0.000002 1.000000 -0.000000
vn 1.000000 -0.000001 -0.000000
vn 1.000000 -0.000001 -0.000000
vn 1.000000 -0.000001 -0.000000
vn 1.000000 -0.000001 -0.000000
vn 1.000000 -0.000001 -0.000000
vn 1.000000 0.000000 0.000000
vn 1.000000 0.000000 0.000000
vn 1.000000 0.000000 0.000000
vn 0.000005 1.000000 -0.000001
vn 0.000005 1.000000 -0.000001
vn 0.000005 1.000000 -0.000001
vn -0.853078 0.480195 0.204137
vn -0.853078 0.480195 0.204137
vn -0.853078 0.480195 0.204137
vn -0.811853 0.557431 -0.173683
vn -0.811853 0.557431 -0.173683
vn -0.811853 0.557431 -0.173683
vn 0.000000 1.000000 0.000000
vn 0.000000 1.000000 0.000000
vn 0.000000 1.000000 0.000000
vn 0.000000 1.000000 0.000000
vn 0.000000 1.000000 0.000000
vn 0.000000 1.000000 0.000000
vn 0.000000 1.000000 0.000000
vn 0.000000 1.000000 0.000000
vn -1.000000 -0.000001 0.000000
vn -1.000000 -0.000001 0.000000
vn -1.000000 -0.000001 0.000000
vn -1.000000 -0.000001 0.000000
vn -1.000000 -0.000001 0.000000
vn -1.000000 -0.000001 -0.000000
vn -1.000000 -0.000001 -0.000000
vn -1.000000 -0.000001 -0.000000
vn -1.000000 -0.000001 -0.000000
s off
f 1/1/1 2/2/2 60/83/3 59/82/4
f 37/41/5 38/42/6 39/43/7 40/44/8 41/45/9 42/46/10 43/47/11 44/48/12
f 9/7/13 10/8/14 63/88/15 12/10/16
f 7/11/17 8/12/18 2/2/19 1/1/20
f 14/14/21 67/92/22 10/8/23
f 12/10/24 70/95/25 71/96/26 9/7/27
f 5/6/28 6/5/29 10/8/30 9/7/31
f 8/12/32 7/11/33 12/10/34 63/88/35 11/9/36
f 2/2/37 68/93/38 66/91/39 13/13/40
f 6/5/41 4/3/42 14/14/43 10/8/44
f 4/3/45 2/2/46 13/13/47 14/14/48
f 7/11/49 1/1/50 72/97/51
f 1/1/52 3/4/53 16/16/54 62/87/55 15/15/56
f 3/4/57 5/6/58 9/7/59 16/16/60
f 17/17/61 52/78/62 53/75/63 54/76/64 18/18/65
f 4/22/66 6/23/67 19/19/68 18/18/69
f 6/23/70 5/24/71 20/20/72 19/19/73
f 5/24/74 3/21/75 17/17/76 20/20/77
f 17/17/78 18/18/79 25/29/80
f 18/18/81 19/19/82 28/32/83
f 19/19/84 20/20/85 26/30/86
f 20/20/87 17/17/88 27/31/89
f 25/29/90 18/18/91 22/26/92
f 17/17/93 25/29/94 21/25/95
f 26/30/96 20/20/97 24/28/98
f 19/19/99 26/30/100 23/27/101
f 27/31/102 17/17/103 21/25/104
f 20/20/105 27/31/106 24/28/107
f 28/32/108 19/19/109 23/27/110
f 18/18/111 28/32/112 22/26/113
f 21/25/114 25/29/115 30/34/116 29/33/117
f 25/29/118 22/26/119 31/35/120 30/34/121
f 22/26/122 28/32/123 32/36/124 31/35/125
f 28/32/126 23/27/127 33/37/128 32/36/129
f 23/27/130 26/30/131 34/38/132 33/37/133
f 26/30/134 24/28/135 35/39/136 34/38/137
f 24/28/138 27/31/139 36/40/140 35/39/141
f 27/31/142 21/25/143 29/33/144 36/40/145
f 29/49/146 30/50/147 38/42/148 37/41/149
f 30/50/150 31/51/151 39/43/152 38/42/153
f 31/51/154 32/52/155 40/44/156 39/43/157
f 32/52/158 33/53/159 41/45/160 40/44/161
f 33/53/162 34/54/163 42/46/164 41/45/165
f 34/54/166 35/55/167 43/47/168 42/46/169
f 35/55/170 36/56/171 44/48/172 43/47/173
f 36/56/174 29/49/175 37/41/176 44/48/177
f 46/68/178 47/69/179 59/84/180
f 60/85/181 51/72/182 50/73/183
f 3/21/184 55/77/185 52/78/186 17/17/187
f 53/75/188 52/78/189 56/79/190 57/80/191
f 18/18/192 54/76/193 58/81/194 4/22/195
f 50/66/196 51/67/197 54/76/198 53/75/199
f 3/21/200 45/57/201 55/77/202
f 45/57/203 47/61/204 52/78/205 55/77/206
f 47/61/207 46/59/208 56/79/209 52/78/210
f 46/59/211 48/62/212 57/80/213 56/79/214
f 48/62/215 50/66/216 53/75/217 57/80/218
f 51/67/219 49/64/220 58/81/221 54/76/222
f 49/64/223 4/22/224 58/81/225
f 60/83/226 2/2/227 4/3/228 49/65/229
f 59/82/230 60/83/231 48/63/232 46/60/233
f 1/1/234 59/82/235 45/58/236 3/4/237
f 59/84/238 47/69/239 45/70/240
f 60/85/241 50/73/242 48/74/243
f 49/71/244 51/72/245 60/85/246
f 62/87/247 61/86/248 15/15/249
f 63/88/250 64/89/251 11/9/252
f 68/93/253 67/92/254 66/91/255
f 65/90/256 67/92/257 68/93/258
f 13/13/259 66/91/260 67/92/261 14/14/262
f 10/8/263 67/92/264 65/90/265 64/89/266
f 68/93/267 8/12/268 11/9/269 64/89/270 65/90/271
f 2/2/272 8/12/273 68/93/274
f 10/8/275 64/89/276 63/88/277
f 72/97/278 71/96/279 70/95/280
f 69/94/281 71/96/282 72/97/283
f 9/7/284 71/96/285 16/16/286
f 16/16/287 71/96/288 69/94/289 61/86/290 62/87/291
f 72/97/292 1/1/293 15/15/294 61/86/295 69/94/296
f 7/11/297 72/97/298 70/95/299 12/10/300
