# This file uses centimeters as units for non-parametric coordinates.

v -15.871285 27.156971 9.355693
v 15.871285 27.156971 9.355693
v -15.871285 36.104645 9.355693
v 15.871285 36.104645 9.355693
v -15.871285 36.104645 -10.113064
v 15.871285 36.104645 -10.113064
v -15.871285 27.156971 -10.113064
v 15.871285 27.156971 -10.113064
v 12.294425 37.156971 10.704045
v -12.294425 37.156971 10.704045
v -12.294425 36.104645 -10.704045
v 12.294425 36.104645 -10.704045
v -12.294425 27.156971 -10.704045
v 12.294425 27.156971 -10.704045
v -12.294425 27.156971 10.704045
v 12.294425 27.156971 10.704045
v -17.186468 36.104645 2.469736
v -17.186468 27.156971 2.469736
v 0.000000 27.156971 -2.715741
v 17.186468 27.156971 2.469736
v 17.186468 36.104645 2.469736
v 12.294425 37.156971 2.469736
v -12.294425 37.156971 2.469736
v -12.294425 33.830261 10.704045
v 12.294425 33.830261 10.704045
v 12.294425 35.774990 8.764773
v -12.294425 35.774990 8.764773
v 12.294425 35.774990 2.469736
v -12.294425 35.774990 2.469736
v 12.294425 35.774990 3.982545
v -12.294425 35.774990 3.982545
v 12.294425 30.615730 0.664543
v -12.294425 30.615730 0.664543
v -17.186468 27.156971 -7.901219
v 17.186468 27.156971 -7.901219
v 17.186468 36.104645 -7.901219
v 12.294425 37.156971 -7.901219
v -12.294425 37.156971 -7.901219
v -17.186468 36.104645 -7.901219
v -11.428738 46.692490 -0.862594
v 10.673401 47.368366 -1.139001
v 10.672205 47.851768 -0.052653
v -11.429935 47.175892 0.223754
v 10.950249 39.708988 2.269573
v -11.151859 39.033112 2.545979
v -11.153055 39.516514 3.632328
v 10.949053 40.192390 3.355921
v 11.429935 33.459465 2.682011
v -10.684196 33.493004 2.642728
v -10.685392 33.976406 3.729077
v 11.428740 33.942871 3.768359
v -15.871285 27.156971 9.355694
v 15.871285 27.156971 9.355694
v -15.871285 27.156971 -10.113066
v 15.871285 27.156971 -10.113066
v -12.294425 27.156971 -10.704045
v 12.294425 27.156971 -10.704045
v -12.294425 27.156971 10.704045
v 12.294425 27.156971 10.704045
v -17.186468 27.156971 2.469736
v 17.186468 27.156971 2.469736
v -17.186468 27.156971 -7.901220
v 17.186468 27.156971 -7.901220
v 0.000000 0.000000 -2.281247
v 10.327426 0.000000 8.991493
v -10.327426 0.000000 8.991493
v -14.436788 0.000000 2.074600
v -13.332019 0.000000 7.858868
v 14.436788 0.000000 2.074600
v 13.332019 0.000000 7.858868
v -14.436788 0.000000 -6.637097
v 14.436788 0.000000 -6.637097
v -10.327426 0.000000 -8.991493
v -13.332019 0.000000 -8.495065
v 10.327426 0.000000 -8.991493
v 13.332019 0.000000 -8.495065
v -5.163197 24.327080 12.827077
v 5.163197 24.327080 12.827077
v -5.163197 18.738686 10.173181
v 5.163197 18.738686 10.173181
v -14.694641 27.369844 -8.386743
v -15.173613 27.386513 -7.348296
v 14.694641 27.369844 -8.386743
v 15.173613 27.386513 -7.348296
v -11.492186 27.664808 8.830943
v -4.731800 25.208721 10.970571
v 12.123155 27.301050 -8.616012
v -12.123155 27.301050 -8.616012
v -14.274198 27.380444 8.010567
v 14.274198 27.380444 8.010567
v 11.492186 27.664808 8.830943
v -15.106637 27.370420 2.272906
v 15.106637 27.370420 2.272906
v 4.731800 25.208721 10.970571
v -12.550671 18.896896 -7.185575
v 12.550671 18.896896 -7.185575
v -12.191561 18.896896 6.819345
v 12.191561 18.896896 6.819345
v 0.000000 2.147865 0.677151
vt 0.274068 0.258836
vt 0.274018 0.258950
vt 0.274074 0.259160
vt 0.274116 0.259037
vt 0.274967 0.258997
vt 0.275012 0.258878
vt 0.275001 0.259083
vt 0.274957 0.259210
vt 0.274096 0.258940
vt 0.274904 0.258979
vt 0.274899 0.259061
vt 0.274087 0.259019
vt 0.274151 0.258862
vt 0.274913 0.258897
vt 0.274934 0.258709
vt 0.274271 0.258683
vt 0.274303 0.258870
vt 0.274928 0.258898
vt 0.274580 0.258989
vt 0.274125 0.259174
vt 0.274896 0.259218
vt 0.274900 0.258976
vt 0.274915 0.258848
vt 0.274986 0.258717
vt 0.274977 0.258908
vt 0.274066 0.258936
vt 0.274154 0.258815
vt 0.274216 0.258687
vt 0.274251 0.258874
vt 0.275018 0.258744
vt 0.275007 0.258937
vt 0.274205 0.258899
vt 0.274167 0.258710
vt 0.274245 0.258689
vt 0.274931 0.258716
vt 0.274915 0.258882
vt 0.274161 0.258848
vt 0.274202 0.258941
vt 0.274915 0.258976
vt 0.255638 0.253463
vt 0.300692 0.253463
vt 0.300692 0.272466
vt 0.255638 0.272466
vt 0.362897 0.374285
vt 0.388783 0.374285
vt 0.388783 0.382259
vt 0.362897 0.382259
vt 0.388783 0.374285
vt 0.362897 0.374285
vt 0.362897 0.382259
vt 0.388783 0.382259
vt 0.388783 0.374285
vt 0.388783 0.382259
vt 0.362897 0.382259
vt 0.362897 0.374285
vt 0.388783 0.367245
vt 0.362897 0.367245
vt 0.362897 0.367245
vt 0.362897 0.367245
vt 0.388783 0.367245
vt 0.388783 0.367245
vt 0.080132 0.253096
vt 0.079693 0.253283
vt 0.080433 0.253325
vt 0.080553 0.253191
vt 0.080509 0.253318
vt 0.079668 0.253145
vt 0.079625 0.253268
vt 0.080559 0.253044
vt 0.079757 0.253007
vt 0.080529 0.253015
vt 0.080480 0.253006
vt 0.079854 0.252977
vt 0.079803 0.252982
vt 0.079672 0.253256
vt 0.079900 0.253318
vt 0.079893 0.253294
vt 0.080451 0.253277
vt 0.080509 0.253318
vt 0.080553 0.253191
vt 0.079668 0.253145
vt 0.079625 0.253268
vt 0.080559 0.253044
vt 0.079757 0.253007
vt 0.080529 0.253015
vt 0.080480 0.253006
vt 0.079854 0.252977
vt 0.079803 0.252982
vt 0.080231 0.253313
vt 0.080225 0.253326
vt 0.080464 0.252853
vt 0.080507 0.252886
vt 0.080458 0.252889
vt 0.080442 0.252874
vt 0.079619 0.252882
vt 0.079663 0.252849
vt 0.079685 0.252870
vt 0.079668 0.252885
vt 0.080212 0.253277
vt 0.080423 0.253176
vt 0.079756 0.252841
vt 0.080373 0.252844
vt 0.080376 0.252871
vt 0.079753 0.252868
vt 0.080559 0.253198
vt 0.080503 0.253164
vt 0.079559 0.253199
vt 0.079617 0.253165
vt 0.079699 0.253176
vt 0.080558 0.253059
vt 0.080499 0.253050
vt 0.079563 0.253057
vt 0.079624 0.253049
vt 0.079915 0.253278
vt 0.007275 0.007717
vt 0.007251 0.007691
vt 0.007355 0.007673
vt 0.008139 0.007386
vt 0.008138 0.007420
vt 0.008001 0.007451
vt 0.007211 0.007188
vt 0.007391 0.007094
vt 0.007249 0.007314
vt 0.008066 0.007452
vt 0.007355 0.007698
vt 0.007139 0.007239
vt 0.007859 0.006977
vt 0.007943 0.006977
vt 0.007857 0.007114
vt 0.007165 0.007408
vt 0.008028 0.007121
vt 0.007646 0.007011
vt 0.007598 0.007441
vn 0.982245 0.000000 0.187604
vn 0.982245 0.000000 0.187604
vn 0.982245 0.000000 0.187604
vn 0.982245 0.000000 0.187604
vn -0.982245 0.000000 0.187604
vn -0.982245 0.000000 0.187604
vn -0.982245 0.000000 0.187604
vn -0.982245 0.000000 0.187604
vn 0.000000 0.706113 0.708099
vn 0.000000 0.706113 0.708099
vn 0.000000 0.706113 0.708099
vn 0.000000 0.706113 0.708099
vn 0.000000 1.000000 0.000000
vn 0.000000 1.000000 0.000000
vn 0.000000 1.000000 0.000000
vn 0.000000 1.000000 0.000000
vn 0.000000 0.000000 -1.000000
vn 0.000000 0.000000 -1.000000
vn 0.000000 0.000000 -1.000000
vn 0.000000 0.000000 -1.000000
vn 0.000000 -1.000000 0.000000
vn 0.000000 -1.000000 0.000000
vn 0.000000 -1.000000 0.000000
vn -0.352735 0.000000 0.935723
vn -0.352735 0.000000 0.935723
vn -0.352735 0.000000 0.935723
vn -0.244310 0.969464 0.021250
vn -0.244310 0.969464 0.021250
vn -0.244310 0.969464 0.021250
vn -0.244310 0.969464 0.021250
vn -0.163014 0.000000 -0.986624
vn -0.163014 0.000000 -0.986624
vn -0.163014 0.000000 -0.986624
vn -0.163014 0.000000 -0.986624
vn 0.000000 -1.000000 0.000000
vn 0.000000 -1.000000 0.000000
vn 0.000000 -1.000000 0.000000
vn 0.000000 -1.000000 0.000000
vn 0.244310 0.969464 0.021250
vn 0.244310 0.969464 0.021250
vn 0.244310 0.969464 0.021250
vn 0.244310 0.969464 0.021250
vn 0.163014 0.000000 -0.986624
vn 0.163014 0.000000 -0.986624
vn 0.163014 0.000000 -0.986624
vn 0.163014 0.000000 -0.986624
vn 0.000000 -1.000000 0.000000
vn 0.000000 -1.000000 0.000000
vn 0.000000 -1.000000 0.000000
vn 0.000000 -1.000000 0.000000
vn 0.352735 0.000000 0.935723
vn 0.352735 0.000000 0.935723
vn 0.352735 0.000000 0.935723
vn -1.000000 0.000000 0.000000
vn -1.000000 0.000000 0.000000
vn -1.000000 0.000000 0.000000
vn -1.000000 0.000000 0.000000
vn 0.000000 -1.000000 0.000000
vn 0.000000 -1.000000 0.000000
vn 0.000000 -1.000000 0.000000
vn 0.000000 -1.000000 0.000000
vn 0.000000 -1.000000 0.000000
vn 0.000000 -1.000000 0.000000
vn 1.000000 0.000000 0.000000
vn 1.000000 0.000000 0.000000
vn 1.000000 0.000000 0.000000
vn 1.000000 0.000000 0.000000
vn 0.210299 0.977637 0.000000
vn 0.210299 0.977637 0.000000
vn 0.210299 0.977637 0.000000
vn 0.210299 0.977637 0.000000
vn 0.000000 1.000000 0.000000
vn 0.000000 1.000000 0.000000
vn 0.000000 1.000000 0.000000
vn 0.000000 1.000000 0.000000
vn -0.210299 0.977637 0.000000
vn -0.210299 0.977637 0.000000
vn -0.210299 0.977637 0.000000
vn -0.210299 0.977637 0.000000
vn 0.000000 0.000000 1.000000
vn 0.000000 0.000000 1.000000
vn 0.000000 0.000000 1.000000
vn 0.000000 0.000000 1.000000
vn 0.352735 0.000000 0.935723
vn 0.352735 0.000000 0.935723
vn 0.352735 0.000000 0.935723
vn 0.352735 0.000000 0.935723
vn -0.352735 0.000000 0.935723
vn -0.352735 0.000000 0.935723
vn -0.352735 0.000000 0.935723
vn -0.352735 0.000000 0.935723
vn 1.000000 0.000000 0.000000
vn 1.000000 0.000000 0.000000
vn 1.000000 0.000000 0.000000
vn -1.000000 0.000000 0.000000
vn -1.000000 0.000000 0.000000
vn -1.000000 0.000000 0.000000
vn -1.000000 0.000000 0.000000
vn -1.000000 0.000000 0.000000
vn -1.000000 0.000000 0.000000
vn -1.000000 0.000000 0.000000
vn 0.000000 0.000000 1.000000
vn 0.000000 0.000000 1.000000
vn 0.000000 0.000000 1.000000
vn 0.000000 0.000000 1.000000
vn 1.000000 0.000001 0.000000
vn 1.000000 0.000001 0.000000
vn 1.000000 0.000001 0.000000
vn 1.000000 0.000001 0.000000
vn -1.000000 0.000000 0.000000
vn -1.000000 0.000000 0.000000
vn -1.000000 0.000000 0.000000
vn 1.000000 0.000000 0.000000
vn 1.000000 0.000000 0.000000
vn 1.000000 0.000000 0.000000
vn 0.000000 0.481564 -0.876411
vn 0.000000 0.481564 -0.876411
vn 0.000000 0.481564 -0.876411
vn 0.000000 0.481564 -0.876411
vn -1.000000 0.000000 0.000000
vn -1.000000 0.000000 0.000000
vn -1.000000 0.000000 0.000000
vn 0.000000 -0.330261 0.943890
vn 0.000000 -0.330261 0.943890
vn 0.000000 -0.330261 0.943890
vn 0.000000 -0.330261 0.943890
vn 1.000000 0.000000 0.000000
vn 1.000000 0.000000 0.000000
vn 1.000000 0.000000 0.000000
vn 0.000000 -1.000000 0.000000
vn 0.000000 -1.000000 0.000000
vn 0.000000 -1.000000 0.000000
vn 0.000000 -1.000000 0.000000
vn 0.000000 -1.000000 0.000000
vn 0.000000 -1.000000 0.000000
vn 0.000000 -1.000000 0.000000
vn 0.000000 -1.000000 0.000000
vn 0.000000 -1.000000 0.000000
vn 0.000000 -1.000000 0.000000
vn 0.000000 -1.000000 0.000000
vn 0.859530 0.000000 -0.511085
vn 0.859530 0.000000 -0.511085
vn 0.859530 0.000000 -0.511085
vn 0.859530 0.000000 -0.511085
vn 0.057978 0.934615 -0.350903
vn 0.057978 0.934615 -0.350903
vn 0.057978 0.934615 -0.350903
vn 0.000000 0.936190 -0.351494
vn 0.000000 0.936190 -0.351494
vn 0.000000 0.936190 -0.351494
vn 0.000000 0.936190 -0.351494
vn -0.208674 0.970082 -0.124080
vn -0.208674 0.970082 -0.124080
vn -0.208674 0.970082 -0.124080
vn -0.859530 0.000000 -0.511085
vn -0.859530 0.000000 -0.511085
vn -0.859530 0.000000 -0.511085
vn -0.859530 0.000000 -0.511085
vn 0.208674 0.970082 -0.124080
vn 0.208674 0.970082 -0.124080
vn 0.208674 0.970082 -0.124080
vn -0.057978 0.934615 -0.350903
vn -0.057978 0.934615 -0.350903
vn -0.057978 0.934615 -0.350903
vn -0.001006 0.406547 0.913630
vn -0.001006 0.406547 0.913630
vn -0.001006 0.406547 0.913630
vn -0.001006 0.406547 0.913630
vn 0.001006 -0.406547 -0.913630
vn 0.001006 -0.406547 -0.913630
vn 0.001006 -0.406547 -0.913630
vn 0.001006 -0.406547 -0.913630
vn 0.999455 0.030563 -0.012499
vn 0.999455 0.030563 -0.012499
vn 0.999455 0.030563 -0.012499
vn 0.999455 0.030563 -0.012499
vn -0.033005 0.913119 -0.406356
vn -0.033005 0.913119 -0.406356
vn -0.033005 0.913119 -0.406356
vn -0.033005 0.913119 -0.406356
vn -0.999455 -0.030566 0.012501
vn -0.999455 -0.030566 0.012501
vn -0.999455 -0.030566 0.012501
vn -0.999455 -0.030566 0.012501
vn -0.004725 -0.043528 -0.999041
vn -0.004725 -0.043528 -0.999041
vn -0.004725 -0.043528 -0.999041
vn -0.004725 -0.043528 -0.999041
vn -0.995862 -0.083436 0.036030
vn -0.995862 -0.083436 0.036030
vn -0.995862 -0.083436 0.036030
vn -0.995862 -0.083436 0.036030
vn 0.004725 0.043528 0.999041
vn 0.004725 0.043528 0.999041
vn 0.004725 0.043528 0.999041
vn 0.004725 0.043528 0.999041
vn 0.996715 0.074391 -0.032005
vn 0.996715 0.074391 -0.032005
vn 0.996715 0.074391 -0.032005
vn 0.996715 0.074391 -0.032005
vn 0.000000 -1.000000 0.000000
vn 0.000000 -1.000000 0.000000
vn 0.000000 -1.000000 0.000000
vn 0.000000 -1.000000 0.000000
vn 0.000000 -1.000000 0.000000
vn 0.000000 -1.000000 0.000000
vn 0.000000 -1.000000 0.000000
vn 0.000000 -1.000000 0.000000
vn 0.000000 -1.000000 0.000000
vn 0.000000 -1.000000 0.000000
vn 0.000000 -1.000000 0.000000
vn 0.000000 -1.000000 0.000000
vn 0.000000 -1.000000 0.000000
vn 0.000000 -1.000000 0.000000
vn 0.000000 -1.000000 0.000000
vn 0.000000 -1.000000 0.000000
vn 0.000000 -1.000000 0.000000
vn 0.000000 -1.000000 -0.000000
vn 0.000000 -1.000000 -0.000000
vn 0.000000 -1.000000 -0.000000
vn 0.000000 -1.000000 -0.000000
vn 0.000000 -1.000000 0.000000
vn 0.000000 -1.000000 0.000000
vn 0.000000 -1.000000 0.000000
vn 0.000000 -1.000000 -0.000000
vn 0.000000 -1.000000 -0.000000
vn 0.000000 -1.000000 -0.000000
vn 0.000000 -1.000000 -0.000000
vn 0.402092 -0.392773 0.827074
vn 0.402092 -0.392773 0.827074
vn 0.402092 -0.392773 0.827074
vn -0.351481 -0.084256 0.932396
vn -0.351481 -0.084256 0.932396
vn -0.351481 -0.084256 0.932396
vn -0.351481 -0.084256 0.932396
vn -0.977157 -0.101654 0.186632
vn -0.977157 -0.101654 0.186632
vn -0.977157 -0.101654 0.186632
vn -0.977157 -0.101654 0.186632
vn 0.977157 -0.101654 0.186632
vn 0.977157 -0.101654 0.186632
vn 0.977157 -0.101654 0.186632
vn 0.977157 -0.101654 0.186632
vn 0.351481 -0.084256 0.932396
vn 0.351481 -0.084256 0.932396
vn 0.351481 -0.084256 0.932396
vn 0.351481 -0.084256 0.932396
vn -0.994913 -0.100736 0.000000
vn -0.994913 -0.100736 0.000000
vn -0.994913 -0.100736 0.000000
vn -0.994913 -0.100736 0.000000
vn 0.994913 -0.100736 0.000000
vn 0.994913 -0.100736 0.000000
vn 0.994913 -0.100736 0.000000
vn 0.994913 -0.100736 0.000000
vn -0.162568 -0.073823 -0.983932
vn -0.162568 -0.073823 -0.983932
vn -0.162568 -0.073823 -0.983932
vn -0.162568 -0.073823 -0.983932
vn -0.854300 -0.110145 -0.507975
vn -0.854300 -0.110145 -0.507975
vn -0.854300 -0.110145 -0.507975
vn -0.854300 -0.110145 -0.507975
vn 0.000000 -0.062936 -0.998018
vn 0.000000 -0.062936 -0.998018
vn 0.000000 -0.062936 -0.998018
vn 0.000000 -0.062936 -0.998018
vn 0.162568 -0.073823 -0.983932
vn 0.162568 -0.073823 -0.983932
vn 0.162568 -0.073823 -0.983932
vn 0.162568 -0.073823 -0.983932
vn 0.854300 -0.110145 -0.507975
vn 0.854300 -0.110145 -0.507975
vn 0.854300 -0.110145 -0.507975
vn 0.854300 -0.110145 -0.507975
vn -0.402092 -0.392773 0.827074
vn -0.402092 -0.392773 0.827074
vn -0.402092 -0.392773 0.827074
vn 0.000000 -0.428979 0.903314
vn 0.000000 -0.428979 0.903314
vn 0.000000 -0.428979 0.903314
vn 0.000000 -0.428979 0.903314
vn -0.000000 -0.062936 0.998018
vn -0.000000 -0.062936 0.998018
vn -0.000000 -0.062936 0.998018
vn 0.000000 -0.062936 0.998018
vn 0.000000 -0.062936 0.998018
vn 0.000000 -0.062936 0.998018
vn 0.000000 -0.062936 0.998018
vn 0.000000 -0.062936 0.998018
vn 0.000000 -0.062936 0.998018
vn 0.000000 -0.062936 0.998018
vn -0.096229 0.993655 -0.058214
vn -0.096229 0.993655 -0.058214
vn -0.096229 0.993655 -0.058214
vn -0.096229 0.993655 -0.058214
vn 0.096229 0.993655 -0.058214
vn 0.096229 0.993655 -0.058214
vn 0.096229 0.993655 -0.058214
vn 0.096229 0.993655 -0.058214
vn 0.215027 0.889759 0.402607
vn 0.215027 0.889759 0.402607
vn 0.215027 0.889759 0.402607
vn 0.215027 0.889759 0.402607
vn 0.000000 0.997628 -0.068839
vn 0.000000 0.997628 -0.068839
vn 0.000000 0.997628 -0.068839
vn 0.000000 0.997628 -0.068839
vn -0.095856 0.983710 0.152073
vn -0.095856 0.983710 0.152073
vn -0.095856 0.983710 0.152073
vn -0.095856 0.983710 0.152073
vn -0.001232 0.995689 -0.092743
vn -0.001232 0.995689 -0.092743
vn -0.001232 0.995689 -0.092743
vn -0.001232 0.995689 -0.092743
vn 0.001232 0.995689 -0.092743
vn 0.001232 0.995689 -0.092743
vn 0.001232 0.995689 -0.092743
vn 0.001232 0.995689 -0.092743
vn 0.095856 0.983710 0.152073
vn 0.095856 0.983710 0.152073
vn 0.095856 0.983710 0.152073
vn 0.095856 0.983710 0.152073
vn -0.110526 0.993710 0.018015
vn -0.110526 0.993710 0.018015
vn -0.110526 0.993710 0.018015
vn -0.110526 0.993710 0.018015
vn 0.110526 0.993710 0.018015
vn 0.110526 0.993710 0.018015
vn 0.110526 0.993710 0.018015
vn 0.110526 0.993710 0.018015
vn -0.107711 0.994182 0.001161
vn -0.107711 0.994182 0.001161
vn -0.107711 0.994182 0.001161
vn -0.107711 0.994182 0.001161
vn 0.107711 0.994182 0.001161
vn 0.107711 0.994182 0.001161
vn 0.107711 0.994182 0.001161
vn 0.107711 0.994182 0.001161
vn -0.215027 0.889759 0.402607
vn -0.215027 0.889759 0.402607
vn -0.215027 0.889759 0.402607
vn -0.215027 0.889759 0.402607
vn 0.000000 0.903315 0.428978
vn 0.000000 0.903315 0.428978
vn 0.000000 0.903315 0.428978
vn 0.000000 0.903315 0.428978
vn 0.874039 0.277684 0.398683
vn 0.874039 0.277684 0.398683
vn 0.874039 0.277684 0.398683
vn -0.874039 0.277684 0.398683
vn -0.874039 0.277684 0.398683
vn -0.874039 0.277684 0.398683
vn 0.356160 0.181873 -0.916554
vn 0.356160 0.181873 -0.916554
vn 0.356160 0.181873 -0.916554
vn 0.000000 0.167793 0.985822
vn 0.000000 0.167793 0.985822
vn 0.000000 0.167793 0.985822
vn 0.000000 0.167793 0.985822
vn 0.258823 0.196338 -0.945760
vn 0.258823 0.196338 -0.945760
vn 0.258823 0.196338 -0.945760
vn 0.091938 0.162535 0.982410
vn 0.091938 0.162535 0.982410
vn 0.091938 0.162535 0.982410
vn -0.091938 0.162535 0.982410
vn -0.091938 0.162535 0.982410
vn -0.091938 0.162535 0.982410
vn -0.258823 0.196338 -0.945760
vn -0.258823 0.196338 -0.945760
vn -0.258823 0.196338 -0.945760
vn 0.956992 0.254491 -0.139288
vn 0.956992 0.254491 -0.139288
vn 0.956992 0.254491 -0.139288
vn -0.956992 0.254491 -0.139288
vn -0.956992 0.254491 -0.139288
vn -0.956992 0.254491 -0.139288
vn 0.951864 0.306051 -0.016958
vn 0.951864 0.306051 -0.016958
vn 0.951864 0.306051 -0.016958
vn 0.951864 0.306051 -0.016958
vn -0.951864 0.306051 -0.016958
vn -0.951864 0.306051 -0.016958
vn -0.951864 0.306051 -0.016958
vn -0.951864 0.306051 -0.016958
vn -0.356160 0.181873 -0.916555
vn -0.356160 0.181873 -0.916555
vn -0.356160 0.181873 -0.916555
vn 0.000000 0.549497 -0.835496
vn 0.000000 0.549497 -0.835496
vn 0.000000 0.549497 -0.835496
vn 0.000000 0.549497 -0.835496
vn 0.000000 0.424949 0.905218
vn 0.000000 0.424949 0.905218
vn 0.000000 0.424949 0.905218
vn 0.804709 0.593311 -0.020634
vn 0.804709 0.593311 -0.020634
vn 0.804709 0.593311 -0.020634
vn -0.804709 0.593311 -0.020634
vn -0.804709 0.593311 -0.020634
vn -0.804709 0.593311 -0.020634
vn 0.000000 0.344298 -0.938860
vn 0.000000 0.344298 -0.938860
vn 0.000000 0.344298 -0.938860
s off
f 21/1/1 4/2/2 2/3/3 20/4/4
f 3/5/5 17/6/6 18/7/7 1/8/8
f 26/9/9 27/10/10 24/11/11 25/12/12
f 27/10/13 26/9/14 30/13/15 31/14/16
f 11/15/17 12/16/18 14/17/19 13/18/20
f 19/19/21 16/20/22 15/21/23
f 3/5/24 24/11/25 10/22/26
f 3/5/27 10/22/28 23/23/29 17/6/30
f 5/24/31 11/15/32 13/18/33 7/25/34
f 18/7/35 19/19/36 15/21/37 1/8/38
f 9/26/39 4/2/40 21/1/41 22/27/42
f 12/16/43 6/28/44 8/29/45 14/17/46
f 16/20/47 19/19/48 20/4/49 2/3/50
f 9/26/51 25/12/52 4/2/53
f 18/7/54 17/6/55 39/30/56 34/31/57
f 34/31/58 19/19/59 18/7/60
f 20/4/61 19/19/62 35/32/63
f 35/32/64 36/33/65 21/1/66 20/4/67
f 22/27/68 21/1/69 36/33/70 37/34/71
f 23/40/72 22/41/73 37/42/74 38/43/75
f 17/6/76 23/23/77 38/35/78 39/30/79
f 25/12/80 24/11/81 15/21/82 16/20/83
f 4/2/84 25/12/85 16/20/86 2/3/87
f 1/8/88 15/21/89 24/11/90 3/5/91
f 10/22/92 24/11/93 27/10/94
f 25/12/95 9/26/96 26/9/97
f 9/26/98 22/27/99 30/13/100 26/9/101
f 22/27/102 23/23/103 29/36/104 28/37/105
f 23/23/106 10/22/107 27/10/108 31/14/109
f 30/13/110 22/27/111 28/37/112
f 23/23/113 31/14/114 29/36/115
f 31/14/116 30/13/117 32/38/118 33/39/119
f 30/13/120 28/37/121 32/38/122
f 28/37/123 29/36/124 33/39/125 32/38/126
f 29/36/127 31/14/128 33/39/129
f 7/25/130 13/18/131 19/19/132 34/31/133
f 13/18/134 14/17/135 19/19/136
f 35/32/137 19/19/138 14/17/139 8/29/140
f 8/29/141 6/28/142 36/33/143 35/32/144
f 37/34/145 6/28/146 12/16/147
f 38/35/148 37/34/149 12/16/150 11/15/151
f 39/30/152 38/35/153 5/24/154
f 39/30/155 5/24/156 7/25/157 34/31/158
f 37/34/159 36/33/160 6/28/161
f 5/24/162 38/35/163 11/15/164
f 46/44/165 47/45/166 42/46/167 43/47/168
f 44/48/169 45/49/170 40/50/171 41/51/172
f 47/45/173 44/52/174 41/53/175 42/46/176
f 41/53/177 40/54/178 43/47/179 42/46/180
f 40/54/181 45/55/182 46/44/183 43/47/184
f 48/56/185 49/57/186 45/49/187 44/48/188
f 46/44/189 45/55/190 49/58/191 50/59/192
f 50/59/193 51/60/194 47/45/195 46/44/196
f 51/60/197 48/61/198 44/52/199 47/45/200
f 64/62/201 65/63/202 66/64/203
f 67/65/204 64/62/205 66/64/206 68/66/207
f 65/63/208 64/62/209 69/67/210 70/68/211
f 71/69/212 64/62/213 67/65/214
f 69/67/215 64/62/216 72/70/217
f 74/71/218 73/72/219 64/62/220 71/69/221
f 73/72/222 75/73/223 64/62/224
f 72/70/225 64/62/226 75/73/227 76/74/228
f 59/75/229 78/76/230 80/77/231
f 58/78/232 52/79/233 68/66/234 66/64/235
f 52/79/236 60/80/237 67/65/238 68/66/239
f 61/81/240 53/82/241 70/68/242 69/67/243
f 53/82/244 59/75/245 65/63/246 70/68/247
f 60/80/248 62/83/249 71/69/250 67/65/251
f 63/84/252 61/81/253 69/67/254 72/70/255
f 54/85/256 56/86/257 73/72/258 74/71/259
f 62/83/260 54/85/261 74/71/262 71/69/263
f 56/86/264 57/87/265 75/73/266 73/72/267
f 57/87/268 55/88/269 76/74/270 75/73/271
f 55/88/272 63/84/273 72/70/274 76/74/275
f 58/78/276 79/89/277 77/90/278
f 78/76/279 77/90/280 79/89/281 80/77/282
f 66/64/283 79/89/284 58/78/285
f 80/77/286 79/89/287 66/64/288 65/63/289
f 59/75/290 80/77/291 65/63/292
f 54/91/293 62/92/294 82/93/295 81/94/296
f 63/95/297 55/96/298 83/97/299 84/98/300
f 58/78/301 77/90/302 86/99/303 85/100/304
f 57/101/305 56/102/306 88/103/307 87/104/308
f 52/105/309 58/78/310 85/100/311 89/106/312
f 56/102/313 54/91/314 81/94/315 88/103/316
f 55/96/317 57/101/318 87/104/319 83/97/320
f 59/75/321 53/107/322 90/108/323 91/109/324
f 60/110/325 52/105/326 89/106/327 92/111/328
f 53/107/329 61/112/330 93/113/331 90/108/332
f 62/92/333 60/110/334 92/111/335 82/93/336
f 61/112/337 63/95/338 84/98/339 93/113/340
f 78/76/341 59/75/342 91/109/343 94/114/344
f 77/90/345 78/76/346 94/114/347 86/99/348
f 81/115/349 82/116/350 95/117/351
f 84/118/352 83/119/353 96/120/354
f 85/121/355 86/122/356 97/123/357
f 87/124/358 88/125/359 95/117/360 96/120/361
f 89/126/362 85/121/363 97/123/364
f 88/125/365 81/115/366 95/117/367
f 83/119/368 87/124/369 96/120/370
f 91/127/371 90/128/372 98/129/373
f 92/130/374 89/126/375 97/123/376
f 90/128/377 93/131/378 98/129/379
f 82/116/380 92/130/381 97/123/382 95/117/383
f 93/131/384 84/118/385 96/120/386 98/129/387
f 94/132/388 91/127/389 98/129/390
f 86/122/391 94/132/392 98/129/393 97/123/394
f 96/120/395 95/117/396 99/133/397
f 95/117/398 97/123/399 99/133/400
f 98/129/401 96/120/402 99/133/403
f 97/123/404 98/129/405 99/133/406
