# This file uses centimeters as units for non-parametric coordinates.

v -2.795155 -13.399893 -13.399893
v -2.795158 0.000000 -18.950308
v -2.795162 13.399895 -13.399893
v -2.795158 18.950310 0.000000
v -2.795162 13.399895 13.399893
v -2.795158 0.000000 18.950314
v -2.795193 -13.399895 13.399907
v -2.795158 -18.950314 0.000000
v 2.795146 -13.399893 -13.399893
v 2.795146 0.000000 -18.950308
v 2.795146 13.399893 -13.399893
v 2.795146 18.950310 0.000000
v 2.795146 13.399893 13.399893
v 2.795146 0.000000 18.950314
v 2.795146 -13.399895 13.399907
v 2.795145 -18.950275 0.000000
v -2.795158 -0.000000 0.000000
v 2.795146 0.000000 0.000000
v -150.000000 10.606600 -10.606625
v -150.000000 -0.000000 -14.999996
v -150.000000 -10.606600 -10.606625
v -150.000000 -14.999998 0.000000
v -150.000000 -10.606600 10.606636
v -150.000000 -0.000000 15.000008
v -150.000000 10.606602 10.606636
v -150.000000 14.999969 0.000000
v -150.000000 -0.000000 0.000000
v 0.000015 -10.606600 -10.606625
v 0.000015 0.000000 -14.999996
v 0.000015 10.606600 -10.606625
v 0.000015 14.999998 0.000000
v 0.000015 10.606600 10.606636
v 0.000015 0.000000 15.000008
v 0.000015 -10.606602 10.606636
v 0.000015 -14.999969 0.000000
v 0.000015 0.000000 0.000000
v -33.165359 10.606600 -10.606625
v -43.054581 11.321294 8.881218
v -43.925201 -14.999978 0.000000
v -48.547989 -0.000000 15.000008
v -48.479279 -10.606601 10.606636
v -38.755943 14.285297 1.725487
v -33.687004 -1.404867 -14.418026
v -36.963188 -9.201733 -11.188534
v -119.999725 11.179443 -9.223656
v -107.524551 1.738160 15.000008
v -108.632904 -10.606600 10.606636
v -110.570831 8.868443 10.606636
v -113.857010 -14.505079 -1.194824
v -116.589020 14.427134 -1.382980
v -121.709747 -0.000000 -14.999935
v -118.053246 -11.101511 -9.411797
vt 0.102220 0.231408
vt 0.102222 0.231206
vt 0.101342 0.231201
vt 0.101342 0.231402
vt 0.102232 0.231065
vt 0.101318 0.231060
vt 0.102244 0.231068
vt 0.101281 0.231063
vt 0.102253 0.231233
vt 0.101253 0.231228
vt 0.102251 0.231463
vt 0.101253 0.231456
vt 0.102240 0.231600
vt 0.101282 0.231594
vt 0.102227 0.231570
vt 0.101319 0.231564
vt 0.102236 0.231326
vt 0.101300 0.231321
vt 0.101281 0.231063
vt 0.101300 0.231321
vt 0.101342 0.231201
vt 0.101318 0.231060
vt 0.101342 0.231402
vt 0.101319 0.231564
vt 0.101253 0.231456
vt 0.101253 0.231228
vt 0.101282 0.231594
vt 0.101281 0.231063
vt 0.101300 0.231321
vt 0.101342 0.231201
vt 0.101318 0.231060
vt 0.101342 0.231402
vt 0.101319 0.231564
vt 0.101253 0.231456
vt 0.101253 0.231228
vt 0.101282 0.231594
vt 0.101323 0.231132
vt 0.101290 0.231186
vt 0.101336 0.231317
vt 0.101342 0.231201
vt 0.101323 0.231136
vt 0.101290 0.231189
vt 0.101261 0.231335
vt 0.101253 0.231456
vt 0.101273 0.231475
vt 0.101261 0.231329
vt 0.101308 0.231417
vt 0.101342 0.231201
vt 0.101337 0.231335
vt 0.101310 0.231450
vt 0.101274 0.231498
vt 0.101253 0.231456
vn 0.000000 -0.382683 -0.923880
vn 0.000000 -0.382683 -0.923880
vn 0.000000 -0.382683 -0.923880
vn 0.000000 -0.382683 -0.923880
vn 0.000000 0.382683 -0.923880
vn 0.000000 0.382683 -0.923880
vn 0.000000 0.382683 -0.923880
vn 0.000000 0.382683 -0.923880
vn 0.000000 0.923880 -0.382683
vn 0.000000 0.923880 -0.382683
vn 0.000000 0.923880 -0.382683
vn 0.000000 0.923880 -0.382683
vn 0.000000 0.923880 0.382683
vn 0.000000 0.923880 0.382683
vn 0.000000 0.923880 0.382683
vn 0.000000 0.923880 0.382683
vn 0.000000 0.382684 0.923879
vn 0.000000 0.382684 0.923880
vn 0.000000 0.382684 0.923880
vn 0.000000 0.382684 0.923880
vn -0.000000 -0.382683 0.923880
vn -0.000000 -0.382683 0.923880
vn -0.000000 -0.382683 0.923880
vn -0.000000 -0.382683 0.923880
vn 0.000003 -0.923880 0.382682
vn 0.000003 -0.923880 0.382682
vn 0.000003 -0.923880 0.382682
vn 0.000003 -0.923880 0.382682
vn 0.000003 -0.923880 -0.382683
vn 0.000003 -0.923880 -0.382683
vn 0.000003 -0.923880 -0.382683
vn 0.000003 -0.923880 -0.382683
vn -1.000000 0.000001 -0.000001
vn -1.000000 0.000000 -0.000000
vn -1.000000 0.000001 -0.000001
vn -1.000000 0.000001 -0.000001
vn 1.000000 -0.000000 0.000000
vn 1.000000 -0.000000 -0.000000
vn 1.000000 -0.000000 0.000000
vn 1.000000 -0.000000 0.000000
vn -1.000000 -0.000000 -0.000000
vn -1.000000 0.000001 -0.000001
vn -1.000000 0.000000 -0.000000
vn -1.000000 -0.000000 0.000000
vn -1.000000 -0.000000 0.000000
vn -1.000000 0.000000 -0.000000
vn -1.000000 0.000001 -0.000001
vn -1.000000 -0.000000 -0.000000
vn -1.000000 -0.000000 0.000000
vn -1.000000 0.000000 -0.000000
vn -1.000000 -0.000000 0.000000
vn -1.000000 -0.000000 0.000000
vn 1.000000 0.000000 0.000000
vn 1.000000 -0.000000 0.000000
vn 1.000000 -0.000000 -0.000000
vn 1.000000 0.000000 -0.000000
vn 1.000000 -0.000000 -0.000000
vn 1.000000 -0.000000 -0.000000
vn 1.000000 -0.000000 0.000000
vn 1.000000 -0.000000 -0.000000
vn 1.000000 0.000000 -0.000000
vn 1.000000 -0.000000 -0.000000
vn 1.000000 -0.000000 -0.000000
vn 1.000000 0.000000 -0.000000
vn -1.000000 0.000000 0.000000
vn -1.000000 0.000000 0.000000
vn -1.000000 0.000000 0.000000
vn -1.000000 0.000000 0.000000
vn -1.000000 0.000000 0.000000
vn -1.000000 0.000000 0.000000
vn -1.000000 0.000000 0.000000
vn -1.000000 0.000000 0.000000
vn -1.000000 0.000000 0.000000
vn -1.000000 0.000000 0.000000
vn -1.000000 0.000000 0.000000
vn -1.000000 0.000000 0.000000
vn -1.000000 0.000000 0.000000
vn -1.000000 0.000000 0.000000
vn -1.000000 0.000000 0.000000
vn -1.000000 0.000000 0.000000
vn 1.000000 0.000000 0.000000
vn 1.000000 0.000000 0.000000
vn 1.000000 0.000000 0.000000
vn 1.000000 0.000000 0.000000
vn 1.000000 0.000000 0.000000
vn 1.000000 0.000000 0.000000
vn 1.000000 0.000000 0.000000
vn 1.000000 0.000000 0.000000
vn 1.000000 0.000000 0.000000
vn 1.000000 0.000000 0.000000
vn 1.000000 0.000000 0.000000
vn 1.000000 0.000000 0.000000
vn 1.000000 0.000000 0.000000
vn 1.000000 0.000000 0.000000
vn 1.000000 0.000000 0.000000
vn 1.000000 0.000000 0.000000
vn 0.000000 -0.923880 -0.382683
vn 0.000000 -0.923880 -0.382683
vn 0.000000 -0.923880 -0.382683
vn 0.000000 -0.923880 -0.382683
vn -0.000001 -0.382679 -0.923881
vn -0.000001 -0.382679 -0.923881
vn -0.000001 -0.382679 -0.923881
vn -0.000001 -0.382679 -0.923881
vn -0.015353 0.341282 -0.939835
vn -0.015353 0.341282 -0.939835
vn -0.015353 0.341282 -0.939835
vn -0.015353 0.341282 -0.939835
vn -0.017412 0.941819 -0.335668
vn -0.017412 0.941819 -0.335668
vn -0.017412 0.941819 -0.335668
vn -0.017412 0.941819 -0.335668
vn 0.000000 0.923880 0.382683
vn 0.000000 0.923880 0.382683
vn 0.000000 0.923880 0.382683
vn 0.000000 0.923880 0.382683
vn -0.013564 0.435010 0.900323
vn -0.013564 0.435010 0.900323
vn -0.013564 0.435010 0.900323
vn -0.013564 0.435010 0.900323
vn -0.000000 -0.382681 0.923880
vn -0.000000 -0.382681 0.923880
vn -0.000000 -0.382681 0.923880
vn -0.000000 -0.382681 0.923880
vn 0.011307 -0.938645 0.344700
vn 0.011307 -0.938645 0.344700
vn 0.011307 -0.938645 0.344700
vn 0.011307 -0.938645 0.344700
vn -0.012634 -0.904229 -0.426861
vn -0.012634 -0.904229 -0.426861
vn -0.012634 -0.904229 -0.426861
vn -0.012634 -0.904229 -0.426861
vn -0.005165 -0.422902 -0.906161
vn -0.005165 -0.422902 -0.906161
vn -0.005165 -0.422902 -0.906161
vn -0.005165 -0.422902 -0.906161
vn 0.000087 0.382054 -0.924140
vn 0.000087 0.382054 -0.924140
vn 0.000087 0.382054 -0.924140
vn 0.000087 0.382054 -0.924140
vn 0.007501 0.946024 -0.324010
vn 0.007501 0.946024 -0.324010
vn 0.007501 0.946024 -0.324010
vn 0.007501 0.946024 -0.324010
vn -0.018395 0.912800 0.407992
vn -0.018395 0.912800 0.407992
vn -0.018395 0.912800 0.407992
vn -0.018395 0.912800 0.407992
vn 0.009067 0.494089 0.869364
vn 0.009067 0.494089 0.869364
vn 0.009067 0.494089 0.869364
vn 0.009067 0.494089 0.869364
vn -0.005214 -0.357325 0.933966
vn -0.005214 -0.357325 0.933966
vn -0.005214 -0.357325 0.933966
vn -0.005214 -0.357325 0.933966
vn 0.000000 -0.923881 0.382681
vn 0.000000 -0.923881 0.382681
vn 0.000000 -0.923881 0.382681
vn 0.000000 -0.923881 0.382681
vn 0.006761 -0.903915 -0.427660
vn 0.006761 -0.903915 -0.427660
vn 0.006761 -0.903915 -0.427660
vn 0.006761 -0.903915 -0.427660
vn -0.006757 -0.937763 0.347210
vn -0.006757 -0.937763 0.347210
vn -0.006757 -0.937763 0.347210
vn -0.006757 -0.937763 0.347210
vn 0.014624 -0.415681 -0.909393
vn 0.014624 -0.415681 -0.909393
vn 0.014624 -0.415681 -0.909393
vn 0.014624 -0.415681 -0.909393
vn 0.017364 0.421799 -0.906523
vn 0.017364 0.421799 -0.906523
vn 0.017364 0.421799 -0.906523
vn 0.017364 0.421799 -0.906523
vn -0.000000 0.923881 -0.382681
vn -0.000000 0.923881 -0.382681
vn -0.000000 0.923881 -0.382681
vn -0.000000 0.923881 -0.382681
vn 0.036621 0.918118 0.394613
vn 0.036621 0.918118 0.394613
vn 0.036621 0.918118 0.394613
vn 0.036621 0.918118 0.394613
vn -0.000000 0.443909 0.896072
vn -0.000000 0.443909 0.896072
vn -0.000000 0.443909 0.896072
vn -0.000000 0.443909 0.896072
vn 0.007418 -0.357838 0.933754
vn 0.007418 -0.357838 0.933754
vn 0.007418 -0.357838 0.933754
vn 0.007418 -0.357838 0.933754
s off
f 1/1/1 2/2/2 10/3/3 9/4/4
f 2/2/5 3/5/6 11/6/7 10/3/8
f 3/5/9 4/7/10 12/8/11 11/6/12
f 4/7/13 5/9/14 13/10/15 12/8/16
f 5/9/17 6/11/18 14/12/19 13/10/20
f 6/11/21 7/13/22 15/14/23 14/12/24
f 7/13/25 8/15/26 16/16/27 15/14/28
f 8/15/29 1/1/30 9/4/31 16/16/32
f 6/11/33 17/17/34 8/15/35 7/13/36
f 12/8/37 18/18/38 10/3/39 11/6/40
f 1/1/41 8/15/42 17/17/43 2/2/44
f 4/7/45 17/17/46 6/11/47 5/9/48
f 2/2/49 17/17/50 4/7/51 3/5/52
f 9/4/53 10/3/54 18/18/55 16/16/56
f 14/12/57 18/18/58 12/8/59 13/10/60
f 16/16/61 18/18/62 14/12/63 15/14/64
f 22/19/65 27/20/66 20/21/67 21/22/68
f 19/23/69 20/21/70 27/20/71 26/24/72
f 24/25/73 27/20/74 22/19/75 23/26/76
f 26/24/77 27/20/78 24/25/79 25/27/80
f 31/28/81 36/29/82 29/30/83 30/31/84
f 28/32/85 29/30/86 36/29/87 35/33/88
f 33/34/89 36/29/90 31/28/91 32/35/92
f 35/33/93 36/29/94 33/34/95 34/36/96
f 22/19/97 21/22/98 52/37/99 49/38/100
f 29/30/101 28/32/102 44/39/103 43/40/104
f 30/31/105 29/30/106 43/40/107 37/41/108
f 31/28/109 30/31/110 37/41/111 42/42/112
f 32/35/113 31/28/114 42/42/115 38/43/116
f 33/34/117 32/35/118 38/43/119 40/44/120
f 34/36/121 33/34/122 40/44/123 41/45/124
f 22/19/125 49/38/126 47/46/127 23/26/128
f 39/47/129 44/39/130 28/32/131 35/33/132
f 43/40/133 44/39/134 52/37/135 51/48/136
f 37/41/137 43/40/138 51/48/139 45/49/140
f 42/42/141 37/41/142 45/49/143 50/50/144
f 38/43/145 42/42/146 50/50/147 48/51/148
f 40/44/149 38/43/150 48/51/151 46/52/152
f 41/45/153 40/44/154 46/52/155 47/46/156
f 41/45/157 39/47/158 35/33/159 34/36/160
f 49/38/161 52/37/162 44/39/163 39/47/164
f 47/46/165 49/38/166 39/47/167 41/45/168
f 51/48/169 52/37/170 21/22/171 20/21/172
f 45/49/173 51/48/174 20/21/175 19/23/176
f 50/50/177 45/49/178 19/23/179 26/24/180
f 48/51/181 50/50/182 26/24/183 25/27/184
f 46/52/185 48/51/186 25/27/187 24/25/188
f 47/46/189 46/52/190 24/25/191 23/26/192
