# This file uses centimeters as units for non-parametric coordinates.

v -3.539916 11.303586 0.000000
v 3.539916 11.303586 0.000000
v -3.539916 -11.303388 0.000000
v 3.539916 -11.303388 0.000000
v -3.539916 -11.303388 2.500250
v -3.539916 -8.445642 5.000000
v 3.539916 -11.303388 2.500250
v 3.539916 -8.445642 5.000000
v -3.539916 11.303586 2.500250
v -3.539916 8.445838 5.000000
v 3.539916 11.303586 2.500250
v 3.539916 8.445838 5.000000
v 2.386264 6.906229 5.000000
v -0.088202 6.906229 5.000000
v -0.088202 4.267527 5.000000
v 2.386264 4.267527 5.000000
v -3.539916 4.267528 5.000000
v -3.539916 4.267528 0.000000
v 3.539916 4.267528 0.000000
v 3.539916 4.267528 5.000000
vt 0.253559 0.263511
vt 0.253296 0.263498
vt 0.253356 0.263491
vt 0.253617 0.263504
vt 0.253359 0.264415
vt 0.253607 0.264463
vt 0.253301 0.264440
vt 0.253552 0.264491
vt 0.253495 0.264399
vt 0.253499 0.263651
vt 0.253233 0.263632
vt 0.253239 0.264351
vt 0.030742 0.122520
vt 0.031636 0.122548
vt 0.031637 0.123520
vt 0.030752 0.123486
vt 0.247276 0.231663
vt 0.247276 0.222136
vt 0.247982 0.226781
vt 0.247982 0.230111
vt 0.277612 0.222136
vt 0.249193 0.226781
vt 0.277612 0.231664
vt 0.249193 0.230111
vt 0.253498 0.263836
vt 0.249193 0.222136
vt 0.253614 0.263802
vt 0.253357 0.263779
vt 0.249193 0.231663
vt 0.253235 0.263809
vn 0.000000 1.000000 0.000000
vn 0.000000 1.000000 0.000000
vn 0.000000 1.000000 0.000000
vn 0.000000 1.000000 0.000000
vn 0.000000 0.000000 -1.000000
vn 0.000000 0.000000 -1.000000
vn 0.000000 0.000000 -1.000000
vn 0.000000 0.000000 -1.000000
vn 0.000000 -1.000000 0.000000
vn 0.000000 -1.000000 0.000000
vn 0.000000 -1.000000 0.000000
vn 0.000000 -1.000000 0.000000
vn -1.000000 -0.000000 0.000000
vn -1.000000 0.000000 0.000000
vn -1.000000 0.000000 0.000000
vn 0.000000 0.000000 1.000000
vn -0.000000 0.000000 1.000000
vn -0.000000 0.000000 1.000000
vn 0.000000 0.000000 1.000000
vn 1.000000 0.000000 0.000000
vn 1.000000 0.000000 0.000000
vn 1.000000 0.000000 0.000000
vn 1.000000 -0.000000 0.000000
vn 0.000000 -0.658389 0.752678
vn 0.000000 -0.658389 0.752678
vn 0.000000 -0.658389 0.752678
vn 0.000000 -0.658389 0.752678
vn 0.000000 0.658388 0.752679
vn 0.000000 0.658388 0.752679
vn 0.000000 0.658388 0.752679
vn 0.000000 0.658388 0.752679
vn 0.000000 0.000000 1.000000
vn -0.000000 0.000000 1.000000
vn -0.000000 0.000000 1.000000
vn 0.000000 0.000000 1.000000
vn -0.000000 0.000000 1.000000
vn -0.000000 0.000000 1.000000
vn 0.000000 0.000000 1.000000
vn 0.000000 0.000000 1.000000
vn 0.000000 0.000000 1.000000
vn 0.000000 0.000000 1.000000
vn -0.000000 0.000000 1.000000
vn 0.000000 0.000000 1.000000
vn 0.000000 0.000000 1.000000
vn 0.000000 0.000000 1.000000
vn -0.000000 0.000000 1.000000
vn -0.000000 0.000000 1.000000
vn -0.000000 0.000000 1.000000
vn -0.000000 0.000000 1.000000
vn -1.000000 -0.000000 0.000000
vn -1.000000 0.000000 0.000000
vn -1.000000 -0.000000 0.000000
vn 0.000000 0.000000 -1.000000
vn 0.000000 0.000000 -1.000000
vn 0.000000 0.000000 -1.000000
vn 0.000000 0.000000 -1.000000
vn 1.000000 -0.000000 0.000000
vn 1.000000 -0.000000 0.000000
vn 1.000000 -0.000000 0.000000
vn 1.000000 -0.000000 0.000000
vn 0.000000 0.000000 1.000000
vn 0.000000 0.000000 1.000000
vn 0.000000 0.000000 1.000000
vn 0.000000 0.000000 1.000000
vn -1.000000 -0.000000 0.000000
vn -1.000000 -0.000000 0.000000
vn -1.000000 -0.000000 0.000000
vn -1.000000 -0.000000 0.000000
vn -1.000000 0.000000 0.000000
vn -1.000000 0.000000 0.000000
vn -1.000000 0.000000 0.000000
vn -1.000000 -0.000000 0.000000
vn 1.000000 0.000000 0.000000
vn 1.000000 -0.000000 0.000000
vn 1.000000 -0.000000 0.000000
vn 1.000000 0.000000 0.000000
vn 1.000000 -0.000000 0.000000
vn 1.000000 0.000000 0.000000
s off
f 9/1/1 11/2/2 2/3/3 1/4/4
f 18/27/5 19/28/6 4/5/7 3/6/8
f 3/6/9 4/5/10 7/7/11 5/8/12
f 18/27/13 6/9/14 17/25/15
f 13/13/16 14/14/17 15/15/18 16/16/19
f 8/12/20 7/7/21 4/5/22 19/28/23
f 6/9/24 5/8/25 7/7/26 8/12/27
f 9/1/28 10/10/29 12/11/30 11/2/31
f 12/17/32 10/18/33 14/19/34 13/20/35
f 15/22/36 17/26/37 6/21/38
f 6/21/39 8/23/40 16/24/41 15/22/42
f 8/23/43 20/29/44 16/24/45
f 10/18/46 17/26/47 15/22/48 14/19/49
f 18/27/50 17/25/51 10/10/52
f 1/4/53 2/3/54 19/28/55 18/27/56
f 12/11/57 19/28/58 2/3/59 11/2/60
f 16/24/61 20/29/62 12/17/63 13/20/64
f 18/27/65 10/10/66 9/1/67 1/4/68
f 3/6/69 5/8/70 6/9/71 18/27/72
f 20/30/73 19/28/74 12/11/75
f 8/12/76 19/28/77 20/30/78
