# This file uses centimeters as units for non-parametric coordinates.

v 55.110107 22.478493 33.191864
v -55.110352 22.478493 33.191864
v 55.110107 27.040031 33.191864
v -55.110352 27.040031 33.191864
v 55.110107 27.040031 -33.191864
v -55.110352 27.040031 -33.191864
v 55.110107 22.478493 -33.191864
v -55.110352 22.478493 -33.191864
v 51.675049 27.040031 28.706116
v -51.675201 27.040031 28.706116
v -51.675201 27.040031 -28.706146
v 51.675049 27.040031 -28.706146
v 55.110107 63.565117 33.191864
v -55.110352 63.565117 33.191864
v 55.110107 68.126656 33.191864
v -55.110352 68.126656 33.191864
v 55.110107 68.126656 -33.191864
v -55.110352 68.126656 -33.191864
v 55.110107 63.565117 -33.191864
v -55.110352 63.565117 -33.191864
v 51.675049 68.126656 28.706116
v -51.675201 68.126656 28.706116
v -51.675201 68.126656 -28.706146
v 51.675049 68.126656 -28.706146
v 55.110107 104.651733 33.191864
v -55.110352 104.651733 33.191864
v 55.110107 109.213257 33.191864
v -55.110352 109.213257 33.191864
v 55.110107 109.213257 -33.191864
v -55.110352 109.213257 -33.191864
v 55.110107 104.651733 -33.191864
v -55.110352 104.651733 -33.191864
v 51.675049 109.213257 28.706116
v -51.675201 109.213257 28.706116
v -51.675201 109.213257 -28.706146
v 51.675049 109.213257 -28.706146
v -49.505402 0.000000 32.136749
v -54.057037 0.000000 32.136749
v -49.505402 104.651749 32.136749
v -54.057037 104.651749 32.136749
v -49.505402 104.651749 26.293060
v -54.057037 104.651749 26.293060
v -49.505402 0.000000 26.293060
v -54.057037 0.000000 26.293060
v -49.505402 0.000000 -26.293076
v -54.057037 0.000000 -26.293076
v -49.505402 104.651749 -26.293076
v -54.057037 104.651749 -26.293076
v -49.505402 104.651749 -32.136765
v -54.057037 104.651749 -32.136765
v -49.505402 0.000000 -32.136765
v -54.057037 0.000000 -32.136765
v 54.056885 0.000000 32.136749
v 49.505249 0.000000 32.136749
v 54.056885 104.651749 32.136749
v 49.505249 104.651749 32.136749
v 54.056885 104.651749 26.293060
v 49.505249 104.651749 26.293060
v 54.056885 0.000000 26.293060
v 49.505249 0.000000 26.293060
v 54.056885 0.000000 -26.293076
v 49.505249 0.000000 -26.293076
v 54.056885 104.651749 -26.293076
v 49.505249 104.651749 -26.293076
v 54.056885 104.651749 -32.136765
v 49.505249 104.651749 -32.136765
v 54.056885 0.000000 -32.136765
v 49.505249 0.000000 -32.136765
v 9.077881 62.801826 30.370544
v -4.397034 63.565117 -29.482315
v -4.397034 68.126656 -29.482315
v -5.758118 68.126656 -23.950638
v 10.383240 67.363380 25.825165
v -16.614746 24.706184 31.131683
v 7.538269 22.478493 -29.482315
v 7.538269 27.040031 -29.482315
v 9.028259 27.040031 -23.950638
v -14.340942 26.276739 26.645935
v -16.614746 26.276739 31.131683
v 4.081604 103.888443 31.131683
v 13.959961 104.651711 -29.482315
v 13.959961 109.213257 -29.482315
v 14.607422 109.213257 -23.950745
v 5.069763 106.649139 26.645935
v 4.081604 108.449974 31.131653
v 21.326233 108.449974 26.645935
v 5.069763 108.449974 22.661041
v -7.415466 108.449974 26.645935
v 24.577820 67.580238 31.717010
v 2.650146 67.390839 31.205780
v -5.892090 21.759979 31.252563
v -26.982086 21.920769 31.686523
v -14.859253 21.808815 26.516479
v 49.859802 51.777027 31.673706
v 49.859802 51.777027 26.756104
v 53.702332 51.777027 26.756104
v 53.702332 51.777027 31.673706
v -53.702423 26.560324 31.673706
v -53.702423 26.560318 26.756104
v -49.859985 26.560324 26.756104
v -49.859985 26.560318 31.673706
vt 0.080239 0.307843
vt 0.080239 0.307843
vt 0.080239 0.307843
vt 0.080239 0.307843
vt 0.006640 0.351060
vt 0.005912 0.351027
vt 0.080239 0.307843
vt 0.080239 0.307843
vt 0.080239 0.307843
vt 0.080239 0.307843
vt 0.005958 0.330362
vt 0.006630 0.350883
vt 0.080239 0.307843
vt 0.080239 0.307843
vt 0.080239 0.307843
vt 0.080239 0.307843
vt 0.080239 0.307843
vt 0.080239 0.307843
vt 0.080239 0.303759
vt 0.080239 0.307843
vt 0.080239 0.307843
vt 0.080239 0.307843
vt 0.080239 0.307843
vt 0.080239 0.307843
vt 0.079998 0.303480
vt 0.079408 0.303747
vt 0.079231 0.303576
vt 0.079854 0.303256
vt 0.080239 0.307843
vt 0.080239 0.307843
vt 0.080239 0.307843
vt 0.080239 0.307843
vt 0.006672 0.350801
vt 0.005880 0.350770
vt 0.080239 0.307843
vt 0.080239 0.307843
vt 0.080239 0.307843
vt 0.080239 0.307843
vt 0.080239 0.307843
vt 0.080239 0.307843
vt 0.080239 0.307843
vt 0.080239 0.307843
vt 0.080239 0.307843
vt 0.080239 0.307843
vt 0.080239 0.307843
vt 0.080239 0.307843
vt 0.005932 0.350605
vt 0.006658 0.350632
vt 0.079960 0.303308
vt 0.079429 0.303569
vt 0.080239 0.307843
vt 0.080239 0.307843
vt 0.080239 0.307843
vt 0.080239 0.307843
vt 0.079271 0.303401
vt 0.079829 0.303094
vt 0.080239 0.307843
vt 0.080239 0.307843
vt 0.080239 0.307843
vt 0.080239 0.307843
vt 0.080239 0.307843
vt 0.080239 0.307843
vt 0.080239 0.307843
vt 0.080239 0.307843
vt 0.079614 0.303465
vt 0.079614 0.303465
vt 0.079614 0.303465
vt 0.079614 0.303465
vt 0.079614 0.303465
vt 0.079614 0.303465
vt 0.079614 0.303465
vt 0.079614 0.303465
vt 0.079614 0.303465
vt 0.079614 0.303465
vt 0.079614 0.303465
vt 0.079614 0.303465
vt 0.079614 0.303465
vt 0.079614 0.303465
vt 0.079614 0.303465
vt 0.079614 0.303465
vt 0.079614 0.303465
vt 0.079614 0.303465
vt 0.079614 0.303465
vt 0.079614 0.303465
vt 0.079614 0.303465
vt 0.079614 0.303465
vt 0.079614 0.303465
vt 0.079614 0.303465
vt 0.079614 0.303465
vt 0.079614 0.303465
vt 0.079614 0.303465
vt 0.079614 0.303465
vt 0.079614 0.303465
vt 0.079614 0.303465
vt 0.079614 0.303465
vt 0.079614 0.303465
vt 0.079614 0.303465
vt 0.079614 0.303465
vt 0.079614 0.303465
vt 0.079614 0.303465
vt 0.079614 0.303465
vt 0.079614 0.303465
vt 0.079614 0.303465
vt 0.079614 0.303465
vt 0.079614 0.303465
vt 0.079614 0.303465
vt 0.079614 0.303465
vt 0.079614 0.303465
vt 0.079614 0.303465
vt 0.079614 0.303465
vt 0.079614 0.303465
vt 0.079614 0.303465
vt 0.079614 0.303465
vt 0.079614 0.303465
vt 0.079614 0.303465
vt 0.079614 0.303465
vt 0.079614 0.303465
vt 0.079614 0.303465
vt 0.079614 0.303465
vt 0.079614 0.303465
vt 0.006709 0.350493
vt 0.005842 0.350464
vt 0.005902 0.350313
vt 0.006691 0.350337
vt 0.079929 0.303168
vt 0.079446 0.303421
vt 0.079304 0.303258
vt 0.079809 0.302965
vt 0.080239 0.307843
vt 0.079660 0.303187
vt 0.080239 0.307843
vt 0.079800 0.303387
vt 0.080239 0.307843
vt 0.006439 0.350624
vt 0.080239 0.307843
vt 0.006433 0.350792
vt 0.080239 0.307843
vt 0.080239 0.307843
vt 0.079408 0.303485
vt 0.080239 0.307843
vt 0.079575 0.303671
vt 0.080239 0.307843
vt 0.006148 0.343081
vt 0.080239 0.300061
vt 0.006118 0.351037
vt 0.080239 0.307843
vt 0.080239 0.307843
vt 0.080239 0.307843
vt 0.079509 0.303139
vt 0.080239 0.307843
vt 0.079642 0.303319
vt 0.080239 0.307843
vt 0.006222 0.333331
vt 0.080239 0.307261
vt 0.006194 0.350476
vt 0.080239 0.307843
vt 0.080239 0.307843
vt 0.006237 0.350477
vt 0.080239 0.307843
vt 0.006196 0.350465
vt 0.006141 0.350474
vt 0.080239 0.307843
vt 0.080239 0.307843
vt 0.080239 0.307843
vt 0.080239 0.307843
vt 0.079434 0.303472
vt 0.080239 0.307843
vt 0.079360 0.303510
vt 0.079428 0.303508
vt 0.079614 0.303465
vt 0.079614 0.303465
vt 0.079614 0.303465
vt 0.079614 0.303465
vt 0.079614 0.303465
vt 0.079614 0.303465
vt 0.079614 0.303465
vt 0.079614 0.303465
vt 0.079614 0.303465
vt 0.079614 0.303465
vt 0.079614 0.303465
vt 0.079614 0.303465
vn 0.053441 0.000001 0.998571
vn 0.053441 0.000001 0.998571
vn 0.053441 0.000001 0.998571
vn 0.053441 0.000001 0.998571
vn 0.053441 0.000001 0.998571
vn 0.007546 0.999934 0.008699
vn 0.007546 0.999934 0.008699
vn 0.007546 0.999934 0.008699
vn 0.007546 0.999934 0.008699
vn 0.059108 0.000000 -0.998252
vn 0.059108 0.000000 -0.998252
vn 0.059108 0.000000 -0.998252
vn 0.059108 0.000000 -0.998252
vn -0.006992 -0.999950 -0.007130
vn -0.006992 -0.999950 -0.007130
vn -0.006992 -0.999950 -0.007130
vn -0.006992 -0.999950 -0.007130
vn -0.006992 -0.999950 -0.007130
vn -1.000000 0.000000 0.000000
vn -1.000000 0.000000 0.000000
vn -1.000000 0.000000 0.000000
vn -1.000000 0.000000 0.000000
vn 1.000000 0.000000 0.000000
vn 1.000000 0.000000 0.000000
vn 1.000000 0.000000 0.000000
vn 1.000000 0.000000 0.000000
vn 0.020846 0.999695 0.013266
vn 0.020846 0.999695 0.013266
vn 0.020846 0.999695 0.013266
vn 0.020846 0.999695 0.013266
vn 0.000000 1.000000 0.000000
vn 0.000000 1.000000 0.000000
vn 0.000000 1.000000 0.000000
vn 0.000000 1.000000 0.000000
vn 0.000000 1.000000 0.000000
vn 0.000000 1.000000 0.000000
vn 0.000000 1.000000 0.000000
vn 0.000000 1.000000 0.000000
vn 0.000000 1.000000 0.000000
vn 0.000000 1.000000 0.000000
vn 0.000000 1.000000 0.000000
vn 0.000000 1.000000 0.000000
vn 0.479527 0.546735 0.686393
vn 0.479527 0.546735 0.686393
vn 0.479527 0.546735 0.686393
vn 0.006963 0.999957 0.006072
vn 0.006963 0.999957 0.006072
vn 0.006963 0.999957 0.006072
vn 0.006963 0.999957 0.006072
vn 0.072953 0.000000 -0.997335
vn 0.072953 0.000000 -0.997335
vn 0.072953 0.000000 -0.997335
vn 0.072953 0.000000 -0.997335
vn -0.006601 -0.999964 -0.005342
vn -0.006601 -0.999964 -0.005342
vn -0.006601 -0.999964 -0.005342
vn -0.006601 -0.999964 -0.005342
vn -1.000000 0.000000 0.000000
vn -1.000000 0.000000 0.000000
vn -1.000000 0.000000 0.000000
vn -1.000000 0.000000 0.000000
vn 1.000000 0.000000 0.000000
vn 1.000000 0.000000 0.000000
vn 1.000000 0.000000 0.000000
vn 1.000000 0.000000 0.000000
vn 0.000000 1.000000 0.000000
vn 0.000000 1.000000 0.000000
vn 0.000000 1.000000 0.000000
vn 0.000000 1.000000 0.000000
vn 0.000000 1.000000 0.000000
vn 0.000000 1.000000 0.000000
vn 0.000000 1.000000 0.000000
vn 0.000000 1.000000 0.000000
vn 0.000000 1.000000 0.000000
vn 0.000000 1.000000 0.000000
vn 0.000000 1.000000 0.000000
vn 0.000000 1.000000 0.000000
vn 0.034784 0.000003 0.999395
vn 0.034784 0.000003 0.999395
vn 0.034784 0.000003 0.999395
vn 0.034784 0.000003 0.999395
vn 0.006607 0.999936 0.009188
vn 0.006607 0.999936 0.009188
vn 0.006607 0.999936 0.009188
vn 0.006607 0.999936 0.009188
vn 0.006607 0.999936 0.009188
vn 0.053630 0.000000 -0.998561
vn 0.053630 0.000000 -0.998561
vn 0.053630 0.000000 -0.998561
vn 0.053630 0.000000 -0.998561
vn -0.005868 -0.999962 -0.006466
vn -0.005868 -0.999962 -0.006466
vn -0.005868 -0.999962 -0.006466
vn -0.005868 -0.999962 -0.006466
vn -1.000000 0.000000 0.000000
vn -1.000000 0.000000 0.000000
vn -1.000000 0.000000 0.000000
vn -1.000000 0.000000 0.000000
vn 1.000000 0.000000 0.000000
vn 1.000000 0.000000 0.000000
vn 1.000000 0.000000 0.000000
vn 1.000000 0.000000 0.000000
vn 0.014244 0.999817 -0.012801
vn 0.014244 0.999817 -0.012801
vn 0.014244 0.999817 -0.012801
vn 0.014244 0.999817 -0.012801
vn 0.000000 1.000000 0.000000
vn 0.000000 1.000000 0.000000
vn 0.000000 1.000000 0.000000
vn 0.000000 1.000000 0.000000
vn 0.000000 1.000000 0.000000
vn 0.000000 1.000000 0.000000
vn 0.000000 1.000000 0.000000
vn 0.000000 1.000000 0.000000
vn 0.000000 1.000000 0.000000
vn 0.000000 1.000000 0.000000
vn 0.000000 1.000000 0.000000
vn 0.000000 1.000000 0.000000
vn -0.000000 -0.005929 0.999982
vn -0.000000 -0.005929 0.999982
vn -0.000000 -0.005929 0.999982
vn -0.000000 -0.005929 0.999982
vn 0.000000 -0.005929 -0.999982
vn 0.000000 -0.005929 -0.999982
vn 0.000000 -0.005929 -0.999982
vn 0.000000 -0.005929 -0.999982
vn 0.000000 -1.000000 0.000000
vn 0.000000 -1.000000 0.000000
vn 0.000000 -1.000000 0.000000
vn 0.000000 -1.000000 0.000000
vn -0.999990 -0.004541 0.000000
vn -0.999990 -0.004541 0.000000
vn -0.999990 -0.004541 0.000000
vn -0.999990 -0.004541 0.000000
vn 0.999990 -0.004541 0.000000
vn 0.999990 -0.004541 0.000000
vn 0.999990 -0.004541 0.000000
vn 0.999990 -0.004541 0.000000
vn 0.000000 0.000000 1.000000
vn 0.000000 0.000000 1.000000
vn 0.000000 0.000000 1.000000
vn 0.000000 0.000000 1.000000
vn 0.000000 0.000000 -1.000000
vn 0.000000 0.000000 -1.000000
vn 0.000000 0.000000 -1.000000
vn 0.000000 0.000000 -1.000000
vn 0.000000 -1.000000 0.000000
vn 0.000000 -1.000000 0.000000
vn 0.000000 -1.000000 0.000000
vn 0.000000 -1.000000 0.000000
vn -1.000000 0.000000 0.000000
vn -1.000000 0.000000 0.000000
vn -1.000000 0.000000 0.000000
vn -1.000000 0.000000 0.000000
vn 1.000000 0.000000 0.000000
vn 1.000000 0.000000 0.000000
vn 1.000000 0.000000 0.000000
vn 1.000000 0.000000 0.000000
vn 0.000000 -0.008757 0.999962
vn 0.000000 -0.008757 0.999962
vn 0.000000 -0.008757 0.999962
vn 0.000000 -0.008757 0.999962
vn 0.000000 -0.008757 -0.999962
vn 0.000000 -0.008757 -0.999962
vn 0.000000 -0.008757 -0.999962
vn 0.000000 -0.008757 -0.999962
vn 0.000000 -1.000000 0.000000
vn 0.000000 -1.000000 0.000000
vn 0.000000 -1.000000 0.000000
vn 0.000000 -1.000000 0.000000
vn -0.999978 -0.006705 0.000000
vn -0.999978 -0.006705 0.000000
vn -0.999978 -0.006705 0.000000
vn -0.999978 -0.006705 0.000000
vn 0.999978 -0.006705 0.000000
vn 0.999978 -0.006705 0.000000
vn 0.999978 -0.006705 0.000000
vn 0.999978 -0.006705 0.000000
vn 0.000000 0.000000 1.000000
vn 0.000000 0.000000 1.000000
vn 0.000000 0.000000 1.000000
vn 0.000000 0.000000 1.000000
vn 0.000000 0.000000 -1.000000
vn 0.000000 0.000000 -1.000000
vn 0.000000 0.000000 -1.000000
vn 0.000000 0.000000 -1.000000
vn 0.000000 -1.000000 0.000000
vn 0.000000 -1.000000 0.000000
vn 0.000000 -1.000000 0.000000
vn 0.000000 -1.000000 0.000000
vn -1.000000 0.000000 0.000000
vn -1.000000 0.000000 0.000000
vn -1.000000 0.000000 0.000000
vn -1.000000 0.000000 0.000000
vn 1.000000 0.000000 0.000000
vn 1.000000 0.000000 0.000000
vn 1.000000 0.000000 0.000000
vn 1.000000 0.000000 0.000000
vn 0.007175 -0.999951 -0.006812
vn 0.007175 -0.999951 -0.006812
vn 0.007175 -0.999951 -0.006812
vn 0.007175 -0.999951 -0.006812
vn -0.062217 0.000000 -0.998063
vn -0.062217 0.000000 -0.998063
vn -0.062217 0.000000 -0.998063
vn -0.062217 0.000000 -0.998063
vn 0.000000 1.000000 0.000000
vn 0.000000 1.000000 0.000000
vn 0.000000 1.000000 0.000000
vn 0.000000 1.000000 0.000000
vn -0.007574 0.999937 0.008261
vn -0.007574 0.999937 0.008261
vn -0.007574 0.999937 0.008261
vn -0.007574 0.999937 0.008261
vn -0.276597 0.716873 0.639990
vn -0.276597 0.716873 0.639990
vn -0.276597 0.716873 0.639990
vn 0.006065 -0.999966 -0.005506
vn 0.006065 -0.999967 -0.005506
vn 0.006065 -0.999966 -0.005506
vn 0.006065 -0.999967 -0.005506
vn 0.006065 -0.999966 -0.005506
vn -0.077742 0.000000 -0.996974
vn -0.077742 0.000000 -0.996974
vn -0.077742 0.000000 -0.996974
vn -0.077742 0.000000 -0.996974
vn 0.000000 1.000000 -0.000000
vn 0.000000 1.000000 -0.000000
vn 0.000000 1.000000 -0.000000
vn 0.000000 1.000000 -0.000000
vn -0.006886 0.999961 0.005577
vn -0.006886 0.999961 0.005577
vn -0.006886 0.999961 0.005577
vn -0.006886 0.999961 0.005577
vn -0.011125 0.999937 0.001440
vn -0.011125 0.999937 0.001440
vn -0.011125 0.999937 0.001440
vn -0.011125 0.999937 0.001440
vn -0.029369 -0.021382 0.999340
vn -0.029369 -0.021382 0.999340
vn -0.029369 -0.021382 0.999340
vn -0.029369 -0.021382 0.999340
vn -0.029369 -0.021382 0.999340
vn 0.008184 -0.999952 -0.005373
vn 0.008184 -0.999952 -0.005373
vn 0.008184 -0.999952 -0.005373
vn 0.008184 -0.999952 -0.005373
vn -0.089783 0.000000 -0.995961
vn -0.089783 0.000000 -0.995961
vn -0.089783 0.000000 -0.995961
vn -0.089783 0.000000 -0.995961
vn 0.000000 1.000000 0.000001
vn 0.000000 1.000000 0.000001
vn 0.000000 1.000000 0.000001
vn 0.000000 1.000000 0.000001
vn -0.009724 0.999911 0.009155
vn -0.009724 0.999911 0.009155
vn -0.009724 0.999911 0.009155
vn -0.009724 0.999911 0.009155
vn -0.009724 0.999911 0.009155
vn -0.017394 0.999490 -0.026773
vn -0.017394 0.999490 -0.026773
vn -0.017394 0.999490 -0.026773
vn -0.017394 0.999490 -0.026773
vn -0.040341 0.000003 0.999186
vn -0.040341 0.000003 0.999186
vn -0.040341 0.000003 0.999186
vn -0.040341 0.000003 0.999186
vn -0.100437 0.906661 0.409730
vn -0.100437 0.906661 0.409730
vn -0.100437 0.906661 0.409730
vn 0.130318 0.903497 0.408301
vn 0.130318 0.903498 0.408301
vn 0.130318 0.903498 0.408301
vn 0.134067 0.929492 -0.343615
vn 0.134067 0.929492 -0.343615
vn 0.134067 0.929492 -0.343615
vn -0.101394 0.915305 -0.389791
vn -0.101394 0.915305 -0.389791
vn -0.101394 0.915305 -0.389790
vn -0.018912 0.999758 0.011237
vn -0.018912 0.999758 0.011237
vn -0.018912 0.999758 0.011237
vn -0.018912 0.999758 0.011237
vn -0.055054 -0.052382 0.997109
vn -0.055054 -0.052382 0.997109
vn -0.055054 -0.052382 0.997109
vn -0.055054 -0.052382 0.997108
vn 0.038525 -0.063961 0.997209
vn 0.038525 -0.063961 0.997209
vn 0.038525 -0.063961 0.997209
vn 0.038525 -0.063961 0.997209
vn 0.012994 0.999844 0.011927
vn 0.012994 0.999844 0.011927
vn 0.012994 0.999844 0.011927
vn 0.012994 0.999844 0.011927
vn 0.240174 -0.778391 0.580020
vn 0.240174 -0.778391 0.580020
vn 0.240174 -0.778391 0.580020
vn -0.241513 -0.860586 0.448401
vn -0.241513 -0.860586 0.448401
vn -0.241513 -0.860586 0.448401
vn -0.999977 0.006847 0.000000
vn -0.999977 0.006847 0.000000
vn -0.999977 0.006847 0.000000
vn -0.999977 0.006847 0.000000
vn 0.000000 0.008943 -0.999960
vn 0.000000 0.008943 -0.999960
vn 0.000000 0.008943 -0.999960
vn 0.000000 0.008943 -0.999960
vn 0.999977 0.006848 0.000000
vn 0.999977 0.006848 0.000000
vn 0.999977 0.006848 0.000000
vn 0.999977 0.006848 0.000000
vn 0.000000 0.008943 0.999960
vn 0.000000 0.008943 0.999960
vn 0.000000 0.008943 0.999960
vn 0.000000 0.008943 0.999960
vn -0.999911 0.013350 -0.000000
vn -0.999911 0.013350 -0.000000
vn -0.999911 0.013350 -0.000000
vn -0.999911 0.013350 -0.000000
vn -0.000000 0.017431 -0.999848
vn -0.000000 0.017431 -0.999848
vn -0.000000 0.017431 -0.999848
vn -0.000000 0.017431 -0.999848
vn 0.999911 0.013349 0.000000
vn 0.999911 0.013349 0.000000
vn 0.999911 0.013349 0.000000
vn 0.999911 0.013349 0.000000
vn 0.000000 0.017431 0.999848
vn 0.000000 0.017431 0.999848
vn 0.000000 0.017431 0.999848
vn 0.000000 0.017431 0.999848
s off
f 79/147/1 4/3/2 2/2/3 92/167/4 74/138/5
f 77/143/6 11/11/7 10/6/8 78/145/9
f 75/140/10 8/9/11 6/8/12 76/142/13
f 92/168/14 2/27/15 8/26/16 75/141/17 93/169/18
f 2/2/19 4/3/20 6/14/21 8/13/22
f 7/15/23 5/16/24 3/4/25 1/1/26
f 78/146/27 10/17/28 4/3/29 79/147/30
f 4/3/31 10/17/32 11/19/33 6/8/34
f 6/8/35 11/19/36 77/144/37 76/142/38
f 5/7/39 12/20/40 9/18/41 3/4/42
f 73/137/43 90/164/44 69/129/45
f 72/134/46 23/47/47 22/34/48 73/136/49
f 70/131/50 20/31/51 18/30/52 71/133/53
f 69/130/54 14/55/55 20/50/56 70/132/57
f 14/22/58 16/23/59 18/36/60 20/35/61
f 19/37/62 17/38/63 15/24/64 13/21/65
f 16/23/66 22/39/67 23/41/68 18/30/69
f 18/30/70 23/41/71 72/135/72 71/133/73
f 17/29/74 24/42/75 21/40/76 15/24/77
f 85/157/78 28/45/79 26/44/80 80/148/81
f 83/153/82 35/123/83 34/122/84 88/161/85 87/160/86
f 81/150/87 32/53/88 30/52/89 82/152/90
f 80/149/91 26/127/92 32/126/93 81/151/94
f 26/44/95 28/45/96 30/58/97 32/57/98
f 31/59/99 29/60/100 27/46/101 25/43/102
f 88/162/103 34/61/104 28/45/105 85/157/106
f 28/45/107 34/61/108 35/63/109 30/52/110
f 30/52/111 35/63/112 83/154/113 82/152/114
f 29/51/115 36/64/116 33/62/117 27/46/118
f 101/181/119 39/68/120 40/67/121 98/176/122
f 41/69/123 100/179/124 99/177/125 42/70/126
f 43/72/127 37/74/128 38/73/129 44/71/130
f 98/176/131 40/67/132 42/76/133 99/178/134
f 100/180/135 41/78/136 39/68/137 101/181/138
f 45/79/139 47/82/140 48/81/141 46/80/142
f 49/83/143 51/86/144 52/85/145 50/84/146
f 51/86/147 45/88/148 46/87/149 52/85/150
f 46/80/151 48/81/152 50/90/153 52/89/154
f 51/91/155 49/92/156 47/82/157 45/79/158
f 97/175/159 55/96/160 56/95/161 94/170/162
f 57/97/163 96/173/164 95/171/165 58/98/166
f 59/100/167 53/102/168 54/101/169 60/99/170
f 94/170/171 56/95/172 58/104/173 95/172/174
f 96/174/175 57/106/176 55/96/177 97/175/178
f 61/107/179 63/110/180 64/109/181 62/108/182
f 65/111/183 67/114/184 68/113/185 66/112/186
f 67/114/187 61/116/188 62/115/189 68/113/190
f 62/108/191 64/109/192 66/118/193 68/117/194
f 67/119/195 65/120/196 63/110/197 61/107/198
f 19/49/199 13/56/200 69/130/201 70/132/202
f 17/29/203 19/32/204 70/131/205 71/133/206
f 72/135/207 24/42/208 17/29/209 71/133/210
f 21/33/211 24/48/212 72/134/213 73/136/214
f 89/163/215 73/137/216 69/129/217
f 7/25/218 1/28/219 91/166/220 93/169/221 75/141/222
f 5/7/223 7/10/224 75/140/225 76/142/226
f 77/144/227 12/20/228 5/7/229 76/142/230
f 9/5/231 12/12/232 77/143/233 78/145/234
f 3/4/235 9/18/236 78/146/237 79/147/238
f 1/1/239 3/4/240 79/147/241 74/138/242 91/165/243
f 31/125/244 25/128/245 80/149/246 81/151/247
f 29/51/248 31/54/249 81/150/250 82/152/251
f 83/154/252 36/64/253 29/51/254 82/152/255
f 33/121/256 36/124/257 83/153/258 87/160/259 86/158/260
f 27/46/261 33/62/262 86/159/263 85/157/264
f 25/43/265 27/46/266 85/157/267 80/148/268
f 87/160/269 84/155/270 86/158/271
f 88/161/272 84/155/273 87/160/274
f 84/156/275 88/162/276 85/157/277
f 86/159/278 84/156/279 85/157/280
f 15/24/281 21/40/282 73/137/283 89/163/284
f 13/21/285 15/24/286 89/163/287 69/129/288
f 90/164/289 16/23/290 14/22/291 69/129/292
f 73/137/293 22/39/294 16/23/295 90/164/296
f 74/139/297 92/168/298 93/169/299
f 91/166/300 74/139/301 93/169/302
f 54/94/303 94/170/304 95/172/305 60/103/306
f 96/173/307 59/100/308 60/99/309 95/171/310
f 59/105/311 96/174/312 97/175/313 53/93/314
f 53/93/315 97/175/316 94/170/317 54/94/318
f 38/66/319 98/176/320 99/178/321 44/75/322
f 100/179/323 43/72/324 44/71/325 99/177/326
f 43/77/327 100/180/328 101/181/329 37/65/330
f 37/65/331 101/181/332 98/176/333 38/66/334
