# This file uses centimeters as units for non-parametric coordinates.

v 5.000000 31.207066 -41.044079
v -5.000000 31.207066 -41.044079
v 5.000000 31.207066 41.044079
v -5.000000 31.207066 41.044079
v 5.000000 -31.207066 41.044079
v -5.000000 -31.207066 41.044079
v 5.000000 -31.207066 -41.044079
v -5.000000 -31.207066 -41.044079
v 3.572540 37.304699 -54.678043
v -3.572540 37.304699 -54.678043
v 3.572540 37.304695 54.678047
v -3.572540 37.304695 54.678047
v 3.572540 30.648079 61.141212
v -3.572540 30.648079 61.141212
v 3.572540 30.648079 -61.141212
v -3.572540 30.648079 -61.141212
v 3.572540 58.801960 54.678043
v -3.572540 58.801960 54.678043
v -3.572540 58.801960 61.141216
v 3.572540 58.801960 61.141216
v 3.572540 58.801960 -54.678043
v -3.572540 58.801960 -54.678043
v 3.572540 58.801964 -61.141212
v -3.572540 58.801964 -61.141212
v 7.978668 58.801960 50.692417
v -7.978668 58.801960 50.692417
v -7.978668 58.801960 65.126831
v 7.978668 58.801960 65.126831
v 7.978668 58.801960 -50.692417
v -7.978668 58.801960 -50.692417
v 7.978668 58.801956 -65.126831
v -7.978668 58.801956 -65.126831
v 7.978668 67.164200 50.692421
v -7.978668 67.164200 50.692421
v -7.978668 67.164200 65.126831
v 7.978668 67.164200 65.126831
v 7.978668 67.164200 -50.692417
v -7.978668 67.164200 -50.692417
v 7.978668 67.164200 -65.126831
v -7.978668 67.164200 -65.126831
vt 0.090981 0.282274
vt 0.090981 0.282274
vt 0.090981 0.282274
vt 0.090981 0.282274
vt 0.090981 0.282274
vt 0.090981 0.282274
vt 0.090981 0.282274
vt 0.090981 0.282274
vt 0.090981 0.282274
vt 0.090981 0.282274
vt 0.090981 0.282274
vt 0.090981 0.282274
vt 0.090981 0.282274
vt 0.090981 0.282274
vt 0.090998 0.227318
vt 0.090998 0.227318
vt 0.090998 0.227318
vt 0.090998 0.227318
vt 0.090998 0.227318
vt 0.090998 0.227318
vt 0.090998 0.227318
vt 0.090998 0.227318
vt 0.090998 0.227318
vt 0.090998 0.227318
vt 0.090998 0.227318
vt 0.090998 0.227318
vt 0.090998 0.227318
vt 0.090998 0.227318
vt 0.090998 0.227318
vt 0.090998 0.227318
vt 0.090998 0.227318
vt 0.090998 0.227318
vt 0.090998 0.227318
vt 0.090998 0.227318
vt 0.090998 0.227318
vt 0.090998 0.227318
vt 0.090998 0.227318
vt 0.090998 0.227318
vt 0.090998 0.227318
vt 0.090998 0.227318
vt 0.090998 0.227318
vt 0.090998 0.227318
vt 0.090998 0.227318
vt 0.090998 0.227318
vt 0.090998 0.227318
vt 0.090998 0.227318
vt 0.090998 0.227318
vt 0.090998 0.227318
vt 0.090998 0.227318
vt 0.090998 0.227318
vt 0.090998 0.227318
vt 0.090998 0.227318
vn 0.000000 1.000000 0.000000
vn 0.000000 1.000000 0.000000
vn 0.000000 1.000000 0.000000
vn 0.000000 1.000000 0.000000
vn 0.000000 -0.000000 1.000000
vn 0.000000 -0.000000 1.000000
vn 0.000000 -0.000000 1.000000
vn 0.000000 -0.000000 1.000000
vn 0.000000 -1.000000 -0.000000
vn 0.000000 -1.000000 -0.000000
vn 0.000000 -1.000000 -0.000000
vn 0.000000 -1.000000 -0.000000
vn 0.000000 0.000000 -1.000000
vn 0.000000 0.000000 -1.000000
vn 0.000000 0.000000 -1.000000
vn 0.000000 0.000000 -1.000000
vn -1.000000 0.000000 0.000000
vn -1.000000 0.000000 0.000000
vn -1.000000 0.000000 0.000000
vn -1.000000 0.000000 0.000000
vn 1.000000 0.000000 0.000000
vn 1.000000 0.000000 0.000000
vn 1.000000 0.000000 0.000000
vn 1.000000 0.000000 0.000000
vn 0.000000 1.000000 0.000000
vn 0.000000 1.000000 0.000000
vn 0.000000 1.000000 0.000000
vn 0.000000 1.000000 0.000000
vn 0.000000 -1.000000 -0.000000
vn 0.000000 -1.000000 -0.000000
vn 0.000000 -1.000000 -0.000000
vn 0.000000 -1.000000 -0.000000
vn -1.000000 0.000000 0.000000
vn -1.000000 0.000000 0.000000
vn -1.000000 0.000000 0.000000
vn -1.000000 0.000000 0.000000
vn 1.000000 0.000000 0.000000
vn 1.000000 0.000000 0.000000
vn 1.000000 0.000000 0.000000
vn 1.000000 0.000000 0.000000
vn 0.000000 1.000000 0.000000
vn 0.000000 1.000000 0.000000
vn 0.000000 1.000000 0.000000
vn 0.000000 1.000000 0.000000
vn 0.000000 1.000000 0.000000
vn 0.000000 1.000000 0.000000
vn 0.000000 1.000000 0.000000
vn 0.000000 1.000000 0.000000
vn 0.000000 0.000000 -1.000000
vn 0.000000 0.000000 -1.000000
vn 0.000000 0.000000 -1.000000
vn 0.000000 0.000000 -1.000000
vn -1.000000 0.000000 0.000000
vn -1.000000 0.000000 0.000000
vn -1.000000 0.000000 0.000000
vn -1.000000 0.000000 0.000000
vn 0.000000 -0.000000 1.000000
vn 0.000000 -0.000000 1.000000
vn 0.000000 -0.000000 1.000000
vn 0.000000 -0.000000 1.000000
vn 1.000000 0.000000 0.000000
vn 1.000000 0.000000 0.000000
vn 1.000000 0.000000 0.000000
vn 1.000000 0.000000 0.000000
vn 0.000000 -0.000000 1.000000
vn 0.000000 -0.000000 1.000000
vn 0.000000 -0.000000 1.000000
vn 0.000000 -0.000000 1.000000
vn 1.000000 0.000000 0.000000
vn 1.000000 0.000000 0.000000
vn 1.000000 0.000000 0.000000
vn 1.000000 0.000000 0.000000
vn 0.000000 0.000000 -1.000000
vn 0.000000 0.000000 -1.000000
vn 0.000000 0.000000 -1.000000
vn 0.000000 0.000000 -1.000000
vn -1.000000 0.000000 0.000000
vn -1.000000 0.000000 0.000000
vn -1.000000 0.000000 0.000000
vn -1.000000 0.000000 0.000000
vn 0.000000 -1.000000 -0.000000
vn 0.000000 -1.000000 -0.000000
vn 0.000000 -1.000000 -0.000000
vn 0.000000 -1.000000 -0.000000
vn -0.000001 -1.000000 -0.000000
vn -0.000001 -1.000000 -0.000000
vn -0.000001 -1.000000 -0.000000
vn -0.000001 -1.000000 -0.000000
vn 0.000000 -1.000000 -0.000000
vn 0.000000 -1.000000 -0.000000
vn 0.000000 -1.000000 -0.000000
vn 0.000000 -1.000000 -0.000000
vn 0.000000 -1.000000 -0.000000
vn 0.000000 -1.000000 -0.000000
vn 0.000000 -1.000000 -0.000000
vn 0.000000 -1.000000 -0.000000
vn 0.000000 -1.000000 -0.000000
vn 0.000000 -1.000000 -0.000000
vn 0.000000 -1.000000 -0.000000
vn 0.000000 -1.000000 -0.000000
vn 0.000001 -1.000000 -0.000000
vn 0.000001 -1.000000 -0.000000
vn 0.000001 -1.000000 -0.000000
vn 0.000001 -1.000000 -0.000000
vn 0.000000 -1.000000 -0.000000
vn 0.000000 -1.000000 -0.000000
vn 0.000000 -1.000000 -0.000000
vn 0.000000 -1.000000 -0.000000
vn 0.000000 -1.000000 -0.000000
vn 0.000000 -1.000000 -0.000000
vn 0.000000 -1.000000 -0.000000
vn 0.000000 -1.000000 -0.000000
vn 0.000000 0.000000 -1.000000
vn 0.000000 0.000000 -1.000000
vn 0.000000 0.000000 -1.000000
vn 0.000000 0.000000 -1.000000
vn -1.000000 0.000000 0.000000
vn -1.000000 0.000000 0.000000
vn -1.000000 0.000000 0.000000
vn -1.000000 0.000000 0.000000
vn 0.000000 -0.000000 1.000000
vn 0.000000 -0.000000 1.000000
vn 0.000000 -0.000000 1.000000
vn 0.000000 -0.000000 1.000000
vn 1.000000 0.000000 0.000000
vn 1.000000 0.000000 0.000000
vn 1.000000 0.000000 0.000000
vn 1.000000 0.000000 0.000000
vn 0.000000 -0.000000 1.000000
vn 0.000000 -0.000000 1.000000
vn 0.000000 -0.000000 1.000000
vn 0.000000 -0.000000 1.000000
vn 1.000000 0.000000 0.000000
vn 1.000000 0.000000 0.000000
vn 1.000000 0.000000 0.000000
vn 1.000000 0.000000 0.000000
vn 0.000000 0.000000 -1.000000
vn 0.000000 0.000000 -1.000000
vn 0.000000 0.000000 -1.000000
vn 0.000000 0.000000 -1.000000
vn -1.000000 0.000000 0.000000
vn -1.000000 0.000000 0.000000
vn -1.000000 0.000000 0.000000
vn -1.000000 0.000000 0.000000
s off
f 1/1/1 2/2/2 4/3/3 3/4/4
f 3/4/5 4/3/6 6/5/7 5/6/8
f 5/6/9 6/5/10 8/7/11 7/8/12
f 7/8/13 8/7/14 2/9/15 1/10/16
f 2/2/17 8/11/18 6/12/19 4/3/20
f 7/13/21 1/1/22 3/4/23 5/14/24
f 9/15/25 10/16/26 12/17/27 11/18/28
f 13/19/29 14/20/30 16/21/31 15/22/32
f 10/16/33 16/23/34 14/24/35 12/17/36
f 15/25/37 9/15/38 11/18/39 13/26/40
f 33/27/41 34/28/42 35/29/43 36/30/44
f 38/31/45 37/32/46 39/33/47 40/34/48
f 11/18/49 12/17/50 18/35/51 17/36/52
f 12/17/53 14/20/54 19/37/55 18/35/56
f 14/20/57 13/19/58 20/38/59 19/37/60
f 13/19/61 11/18/62 17/36/63 20/38/64
f 10/39/65 9/40/66 21/41/67 22/42/68
f 9/40/69 15/22/70 23/43/71 21/41/72
f 15/22/73 16/21/74 24/44/75 23/43/76
f 16/21/77 10/39/78 22/42/79 24/44/80
f 17/36/81 18/35/82 26/45/83 25/46/84
f 18/35/85 19/37/86 27/47/87 26/45/88
f 19/37/89 20/38/90 28/48/91 27/47/92
f 20/38/93 17/36/94 25/46/95 28/48/96
f 22/42/97 21/41/98 29/49/99 30/50/100
f 21/41/101 23/43/102 31/51/103 29/49/104
f 23/43/105 24/44/106 32/52/107 31/51/108
f 24/44/109 22/42/110 30/50/111 32/52/112
f 25/46/113 26/45/114 34/28/115 33/27/116
f 26/45/117 27/47/118 35/29/119 34/28/120
f 27/47/121 28/48/122 36/30/123 35/29/124
f 28/48/125 25/46/126 33/27/127 36/30/128
f 30/50/129 29/49/130 37/32/131 38/31/132
f 29/49/133 31/51/134 39/33/135 37/32/136
f 31/51/137 32/52/138 40/34/139 39/33/140
f 32/52/141 30/50/142 38/31/143 40/34/144
