# This file uses centimeters as units for non-parametric coordinates.

v 1.400002 -257.724457 5.116501
v -1.400002 -257.724457 5.116501
v -2.800003 -255.299591 5.116501
v -1.400002 -252.874725 5.116501
v 1.400002 -252.874725 5.116501
v 2.800003 -255.299591 5.116501
v 1.918236 -258.622070 3.689911
v -1.918236 -258.622070 3.689911
v -3.836472 -255.299591 3.689911
v -1.918236 -251.977112 3.689911
v 1.918236 -251.977112 3.689911
v 3.836472 -255.299591 3.689911
v 2.756767 -260.074432 4.234818
v -2.756760 -260.074432 4.234818
v -5.513527 -255.299591 4.234818
v -2.756767 -250.524734 4.234818
v 2.756760 -250.524734 4.234818
v 5.513527 -255.299591 4.234818
v 2.756767 -260.074432 5.998169
v -2.756760 -260.074432 5.998169
v -5.513527 -255.299591 5.998169
v -2.756767 -250.524734 5.998169
v 2.756760 -250.524734 5.998169
v 5.513527 -255.299591 5.998169
v 1.918236 -258.622070 6.543076
v -1.918236 -258.622070 6.543076
v -3.836472 -255.299591 6.543076
v -1.918236 -251.977112 6.543076
v 1.918236 -251.977112 6.543076
v 3.836472 -255.299591 6.543076
v -1.073166 -253.220535 6.189667
v 1.073166 -253.220535 6.189667
v -1.073166 -201.736679 6.189667
v 1.073166 -201.736679 6.189667
v -1.073166 -201.736679 4.043335
v 1.073166 -201.736679 4.043335
v -1.073166 -253.220535 4.043335
v 1.073166 -253.220535 4.043335
v -1.073166 -249.959320 6.189667
v 1.073166 -249.959320 6.189667
v 1.073166 -249.959335 4.043335
v -1.073166 -249.959335 4.043335
v -1.073166 -251.585495 7.354034
v 1.073166 -251.585495 7.354034
v 1.073166 -251.585495 2.878967
v -1.073166 -251.585495 2.878967
v -120.805809 -172.002213 6.987808
v 120.805809 -172.002213 6.987808
v -120.805809 -36.095642 6.987808
v 120.805809 -36.095642 6.987808
v -120.805809 -194.887497 6.987808
v 120.805809 -194.887497 6.987808
v -120.805809 -13.210358 6.987808
v 120.805809 -13.210358 6.987808
v -120.805809 -172.002213 3.520599
v 120.805809 -172.002213 3.520599
v 120.805809 -36.095642 3.520599
v -120.805809 -36.095642 3.520599
v -120.805809 -194.887497 3.520599
v 120.805809 -194.887497 3.520599
v 120.805809 -13.210358 3.520599
v -120.805809 -13.210358 3.520599
v 135.060745 0.000000 15.056427
v 135.060745 0.000000 0.000000
v -135.060760 0.000000 0.000000
v -135.060760 0.000000 15.056427
v 135.060745 -13.210358 0.000000
v -135.060760 -13.210358 0.000000
v -123.305809 -204.732208 8.216827
v -123.305809 -204.732208 2.291580
v 123.305809 -204.732208 2.291580
v 123.305809 -204.732208 8.216827
v -123.305809 -194.887497 8.030396
v -123.305809 -194.887497 2.478012
v 123.305809 -194.887497 2.478012
v 123.305809 -194.887497 8.030396
v -123.305809 -199.559479 11.281479
v 123.305809 -199.559479 11.281479
v 123.305809 -199.559479 -0.773071
v -123.305809 -199.559479 -0.773071
v 135.060745 -13.210358 11.093704
v 135.060745 -9.247650 15.056427
v -135.060760 -9.247650 15.056427
v -135.060760 -13.210358 11.093704
vt 0.102118 0.304463
vt 0.101889 0.304421
vt 0.101919 0.304461
vt 0.102231 0.304518
vt 0.102233 0.304261
vt 0.102390 0.304242
vt 0.102118 0.304017
vt 0.102233 0.303908
vt 0.101889 0.303977
vt 0.101918 0.303854
vt 0.101775 0.304179
vt 0.101763 0.304130
vt 0.101824 0.304594
vt 0.102273 0.304677
vt 0.102502 0.304280
vt 0.102275 0.303799
vt 0.101823 0.303721
vt 0.101600 0.304119
vt 0.101735 0.304637
vt 0.102185 0.304721
vt 0.102414 0.304323
vt 0.102186 0.303840
vt 0.101733 0.303761
vt 0.101511 0.304161
vt 0.101775 0.304530
vt 0.102089 0.304589
vt 0.102248 0.304311
vt 0.102089 0.303975
vt 0.101774 0.303920
vt 0.101619 0.304198
vt 0.125250 0.377845
vt 0.125207 0.377841
vt 0.125217 0.376918
vt 0.125261 0.376920
vt 0.125227 0.376908
vt 0.125271 0.376910
vt 0.125217 0.377828
vt 0.125260 0.377832
vt 0.125259 0.377894
vt 0.125216 0.377891
vt 0.125207 0.377904
vt 0.125249 0.377908
vt 0.125250 0.377876
vt 0.125207 0.377873
vt 0.125217 0.377859
vt 0.125259 0.377863
vt 0.399953 0.491839
vt 0.399994 0.491268
vt 0.398994 0.491252
vt 0.399027 0.491775
vt 0.399967 0.494712
vt 0.399970 0.494800
vt 0.400906 0.495006
vt 0.400910 0.494903
vt 0.400936 0.494250
vt 0.400940 0.494132
vt 0.399940 0.494056
vt 0.399944 0.494155
vt 0.399967 0.494712
vt 0.400910 0.494903
vt 0.400906 0.495006
vt 0.399970 0.494800
vt 0.400936 0.494250
vt 0.399944 0.494155
vt 0.399940 0.494056
vt 0.400940 0.494132
vt 0.399027 0.491775
vt 0.398994 0.491252
vt 0.399994 0.491268
vt 0.399953 0.491839
vt 0.400910 0.494903
vt 0.400906 0.495006
vt 0.101619 0.303908
vt 0.101644 0.303903
vt 0.101240 0.303637
vt 0.101221 0.303639
vt 0.399970 0.494800
vt 0.399967 0.494712
vt 0.399944 0.494155
vt 0.399940 0.494056
vt 0.101168 0.302936
vt 0.101218 0.302936
vt 0.101688 0.302909
vt 0.101620 0.302908
vt 0.400940 0.494132
vt 0.400936 0.494250
vt 0.101219 0.302983
vt 0.101688 0.302978
vt 0.101638 0.302978
vt 0.101620 0.302957
vt 0.101169 0.302969
vt 0.101224 0.302983
vt 0.101636 0.302979
vt 0.101621 0.302979
vt 0.101620 0.303863
vt 0.101643 0.303858
vt 0.101657 0.303877
vt 0.101606 0.303887
vt 0.101239 0.303604
vt 0.101250 0.303618
vt 0.101221 0.303606
vt 0.101211 0.303623
vt 0.101619 0.303858
vt 0.101633 0.303856
vt 0.101239 0.303607
vt 0.101227 0.303608
vt 0.101182 0.302983
vt 0.101213 0.302983
vt 0.000000 0.000000
vt 1.000000 0.000000
vt 1.000000 1.000000
vt 0.000000 1.000000
vn 0.000000 0.846395 -0.532556
vn 0.000000 0.846395 -0.532556
vn 0.000000 0.846395 -0.532556
vn 0.000000 0.846395 -0.532556
vn 0.732999 0.423198 -0.532555
vn 0.732999 0.423198 -0.532555
vn 0.732999 0.423198 -0.532555
vn 0.732999 0.423198 -0.532555
vn 0.732999 -0.423198 -0.532556
vn 0.732999 -0.423198 -0.532556
vn 0.732999 -0.423198 -0.532556
vn 0.732999 -0.423198 -0.532556
vn 0.000000 -0.846395 -0.532556
vn 0.000000 -0.846395 -0.532556
vn 0.000000 -0.846395 -0.532556
vn 0.000000 -0.846395 -0.532556
vn -0.732999 -0.423198 -0.532555
vn -0.732999 -0.423198 -0.532555
vn -0.732999 -0.423198 -0.532555
vn -0.732999 -0.423198 -0.532555
vn -0.732999 0.423198 -0.532556
vn -0.732999 0.423198 -0.532556
vn -0.732999 0.423198 -0.532556
vn -0.732999 0.423198 -0.532556
vn 0.000000 -0.351277 -0.936272
vn 0.000000 -0.351277 -0.936272
vn 0.000000 -0.351277 -0.936272
vn 0.000000 -0.351277 -0.936272
vn -0.304213 -0.175638 -0.936272
vn -0.304213 -0.175638 -0.936272
vn -0.304213 -0.175638 -0.936272
vn -0.304213 -0.175638 -0.936272
vn -0.304213 0.175637 -0.936272
vn -0.304213 0.175637 -0.936272
vn -0.304213 0.175637 -0.936272
vn -0.304213 0.175637 -0.936272
vn 0.000000 0.351273 -0.936273
vn 0.000000 0.351273 -0.936273
vn 0.000000 0.351273 -0.936273
vn 0.000000 0.351273 -0.936273
vn 0.304213 0.175637 -0.936272
vn 0.304213 0.175637 -0.936272
vn 0.304213 0.175637 -0.936272
vn 0.304213 0.175637 -0.936272
vn 0.304213 -0.175638 -0.936272
vn 0.304213 -0.175638 -0.936272
vn 0.304213 -0.175638 -0.936272
vn 0.304213 -0.175638 -0.936272
vn 0.000000 -1.000000 0.000000
vn 0.000000 -1.000000 0.000000
vn 0.000000 -1.000000 0.000000
vn 0.000000 -1.000000 0.000000
vn -0.866025 -0.500001 0.000000
vn -0.866025 -0.500001 0.000000
vn -0.866025 -0.500001 0.000000
vn -0.866025 -0.500001 0.000000
vn -0.866026 0.500000 -0.000000
vn -0.866026 0.500000 -0.000000
vn -0.866026 0.500000 -0.000000
vn -0.866026 0.500000 -0.000000
vn 0.000000 1.000000 -0.000000
vn 0.000000 1.000000 -0.000000
vn 0.000000 1.000000 -0.000000
vn 0.000000 1.000000 -0.000000
vn 0.866026 0.500000 -0.000000
vn 0.866026 0.500000 -0.000000
vn 0.866026 0.500000 -0.000000
vn 0.866026 0.500000 -0.000000
vn 0.866025 -0.500001 0.000000
vn 0.866025 -0.500001 0.000000
vn 0.866025 -0.500001 0.000000
vn 0.866025 -0.500001 0.000000
vn 0.000000 -0.351277 0.936272
vn 0.000000 -0.351277 0.936272
vn 0.000000 -0.351277 0.936272
vn 0.000000 -0.351277 0.936272
vn -0.304213 -0.175638 0.936272
vn -0.304213 -0.175638 0.936272
vn -0.304213 -0.175638 0.936272
vn -0.304213 -0.175638 0.936272
vn -0.304213 0.175637 0.936272
vn -0.304213 0.175637 0.936272
vn -0.304213 0.175637 0.936272
vn -0.304213 0.175637 0.936272
vn 0.000000 0.351273 0.936273
vn 0.000000 0.351273 0.936273
vn 0.000000 0.351273 0.936273
vn 0.000000 0.351273 0.936273
vn 0.304213 0.175637 0.936272
vn 0.304213 0.175637 0.936272
vn 0.304213 0.175637 0.936272
vn 0.304213 0.175637 0.936272
vn 0.304213 -0.175638 0.936272
vn 0.304213 -0.175638 0.936272
vn 0.304213 -0.175638 0.936272
vn 0.304213 -0.175638 0.936272
vn 0.000000 0.846395 0.532556
vn 0.000000 0.846395 0.532556
vn 0.000000 0.846395 0.532556
vn 0.000000 0.846395 0.532556
vn 0.732999 0.423198 0.532555
vn 0.732999 0.423198 0.532555
vn 0.732999 0.423198 0.532555
vn 0.732999 0.423198 0.532555
vn 0.732999 -0.423198 0.532555
vn 0.732999 -0.423198 0.532555
vn 0.732999 -0.423198 0.532555
vn 0.732999 -0.423198 0.532555
vn 0.000000 -0.846395 0.532556
vn 0.000000 -0.846395 0.532556
vn 0.000000 -0.846395 0.532556
vn 0.000000 -0.846395 0.532556
vn -0.732999 -0.423198 0.532555
vn -0.732999 -0.423198 0.532555
vn -0.732999 -0.423198 0.532555
vn -0.732999 -0.423198 0.532555
vn -0.732999 0.423198 0.532555
vn -0.732999 0.423198 0.532555
vn -0.732999 0.423198 0.532555
vn -0.732999 0.423198 0.532555
vn 0.000000 0.023352 0.999727
vn 0.000000 0.023352 0.999727
vn 0.000000 0.000000 1.000000
vn 0.000000 0.000000 1.000000
vn 0.000000 1.000000 0.000000
vn 0.000000 1.000000 0.000000
vn 0.000000 1.000000 0.000000
vn 0.000000 1.000000 0.000000
vn 0.000000 0.000000 -1.000000
vn 0.000000 0.000000 -1.000000
vn 0.000000 0.023352 -0.999727
vn 0.000000 0.023352 -0.999727
vn 0.000000 -1.000000 0.000000
vn 0.000000 -1.000000 0.000000
vn 0.000000 -1.000000 0.000000
vn 0.000000 -1.000000 0.000000
vn 1.000000 -0.000000 0.000000
vn 1.000000 -0.000000 0.000000
vn 1.000000 0.000000 0.000000
vn 1.000000 0.000000 0.000000
vn -1.000000 -0.000000 0.000000
vn -1.000000 -0.000000 0.000000
vn -1.000000 0.000000 0.000000
vn -1.000000 0.000000 0.000000
vn 0.000000 0.000000 1.000000
vn 0.000000 0.000000 1.000000
vn 0.000000 0.023352 0.999727
vn 0.000000 0.023352 0.999727
vn 1.000000 0.000000 0.000000
vn 1.000000 0.000000 0.000000
vn 1.000000 -0.000000 0.000000
vn 1.000000 -0.000000 0.000000
vn 0.000000 0.023352 -0.999727
vn 0.000000 0.023352 -0.999727
vn 0.000000 -0.000000 -1.000000
vn 0.000000 -0.000000 -1.000000
vn -1.000000 0.000000 0.000000
vn -1.000000 0.000000 0.000000
vn -1.000000 -0.000000 0.000000
vn -1.000000 -0.000000 0.000000
vn 0.000000 -0.580071 0.814566
vn 0.000000 -0.580071 0.814566
vn 0.000000 0.000000 1.000000
vn 0.000000 0.000000 1.000000
vn 1.000000 0.000000 0.000000
vn 1.000000 0.000000 0.000000
vn 1.000000 0.000000 0.000000
vn 1.000000 0.000000 0.000000
vn 0.000000 -0.000000 -1.000000
vn 0.000000 -0.000000 -1.000000
vn 0.000000 -0.580071 -0.814566
vn 0.000000 -0.580071 -0.814566
vn -1.000000 0.000000 0.000000
vn -1.000000 0.000000 0.000000
vn -1.000000 0.000000 0.000000
vn -1.000000 0.000000 0.000000
vn 0.000000 0.000000 -1.000000
vn 0.000000 0.000000 -1.000000
vn 0.000000 0.000000 -1.000000
vn 0.000000 0.000000 -1.000000
vn 0.000000 0.000000 -1.000000
vn 0.000000 0.000000 -1.000000
vn 0.000000 0.000000 -1.000000
vn 0.000000 0.000000 -1.000000
vn 0.000000 0.000000 -1.000000
vn 0.000000 0.000000 -1.000000
vn 0.000000 0.000000 -1.000000
vn 0.000000 0.000000 -1.000000
vn 0.000000 0.000000 1.000000
vn 0.000000 0.000000 1.000000
vn 0.000000 0.000000 1.000000
vn 0.000000 0.000000 1.000000
vn 0.000000 0.000000 1.000000
vn 0.000000 0.000000 1.000000
vn 0.000000 0.000000 1.000000
vn 0.000000 0.000000 1.000000
vn 0.000000 0.000000 1.000000
vn 0.000000 0.000000 1.000000
vn 0.000000 0.000000 1.000000
vn 0.000000 0.000000 1.000000
vn 1.000000 0.000000 0.000000
vn 1.000000 0.000000 0.000000
vn 1.000000 0.000000 0.000000
vn 1.000000 0.000000 0.000000
vn -1.000000 0.000000 0.000000
vn -1.000000 0.000000 0.000000
vn -1.000000 0.000000 0.000000
vn -1.000000 0.000000 0.000000
vn -1.000000 0.000000 0.000000
vn -1.000000 0.000000 0.000000
vn -1.000000 0.000000 0.000000
vn -1.000000 0.000000 0.000000
vn 0.000000 -1.000000 0.000000
vn 0.000000 -1.000000 0.000000
vn 0.000000 -1.000000 0.000000
vn 0.000000 -1.000000 0.000000
vn 1.000000 0.000000 0.000000
vn 1.000000 0.000000 0.000000
vn 1.000000 0.000000 0.000000
vn 1.000000 0.000000 0.000000
vn 1.000000 0.000000 0.000000
vn 1.000000 0.000000 0.000000
vn 1.000000 0.000000 0.000000
vn 1.000000 0.000000 0.000000
vn 0.000000 1.000000 0.000000
vn 0.000000 1.000000 0.000000
vn 0.000000 1.000000 0.000000
vn 0.000000 1.000000 0.000000
vn -1.000000 0.000000 0.000000
vn -1.000000 0.000000 0.000000
vn -1.000000 0.000000 0.000000
vn -1.000000 0.000000 0.000000
vn 0.000000 0.000000 -1.000000
vn 0.000000 0.000000 -1.000000
vn 0.000000 0.000000 -1.000000
vn 0.000000 0.000000 -1.000000
vn -1.000000 0.000000 0.000000
vn -1.000000 0.000000 0.000000
vn -1.000000 0.000000 0.000000
vn 0.000000 0.000000 1.000000
vn 0.000000 0.000000 1.000000
vn 0.000000 0.000000 1.000000
vn 0.000000 0.000000 1.000000
vn 0.000000 -1.000000 0.000001
vn 0.000000 -1.000000 0.000001
vn 0.000000 -1.000000 0.000001
vn 0.000000 -1.000000 0.000001
vn 0.000000 -1.000000 0.000000
vn 0.000000 -1.000000 0.000000
vn 0.000000 -1.000000 0.000000
vn 0.000000 -1.000000 0.000000
vn -1.000000 0.000001 0.000000
vn -1.000000 0.000001 0.000000
vn -1.000000 0.000001 0.000000
vn -1.000000 0.000001 0.000000
vn 0.000000 0.571185 -0.820821
vn 0.000000 0.571185 -0.820821
vn 0.000000 0.571185 -0.820821
vn 0.000000 0.571185 -0.820821
vn 1.000000 0.000001 0.000000
vn 1.000000 0.000001 0.000000
vn 1.000000 0.000001 0.000000
vn 1.000000 0.000001 0.000000
vn 0.000000 0.571185 0.820821
vn 0.000000 0.571185 0.820821
vn 0.000000 0.571185 0.820821
vn 0.000000 0.571185 0.820821
vn 0.000000 1.000000 0.000000
vn 0.000000 1.000000 0.000000
vn 0.000000 1.000000 0.000000
vn 0.000000 1.000000 0.000000
vn 0.000000 1.000000 -0.000005
vn 0.000000 1.000000 -0.000005
vn 0.000000 1.000000 -0.000005
vn 0.000000 1.000000 -0.000005
vn 0.000000 1.000000 0.000000
vn 0.000000 1.000000 0.000000
vn 0.000000 1.000000 0.000000
vn 0.000000 1.000000 0.000000
vn 0.000000 1.000000 0.000005
vn 0.000000 1.000000 0.000005
vn 0.000000 1.000000 0.000005
vn 0.000000 1.000000 0.000005
vn 0.000000 -0.509720 0.860340
vn 0.000000 -0.509720 0.860340
vn 0.000000 -0.509720 0.860340
vn 0.000000 -0.509720 0.860340
vn 1.000000 0.000001 0.000000
vn 1.000000 0.000001 0.000000
vn 1.000000 0.000001 0.000000
vn 1.000000 0.000001 0.000000
vn 0.000000 -0.509720 -0.860340
vn 0.000000 -0.509720 -0.860340
vn 0.000000 -0.509720 -0.860340
vn 0.000000 -0.509720 -0.860340
vn -1.000000 0.000001 0.000000
vn -1.000000 0.000001 0.000000
vn -1.000000 0.000001 0.000000
vn -1.000000 0.000001 0.000000
vn 1.000000 0.000000 0.000000
vn 1.000000 0.000000 0.000000
vn 1.000000 0.000000 0.000000
vn 1.000000 0.000000 0.000000
vn 0.000000 -0.707107 0.707106
vn 0.000000 -0.707107 0.707106
vn 0.000000 -0.707107 0.707106
vn 0.000000 -0.707107 0.707106
vn 0.000000 -1.000000 -0.000001
vn 0.000000 -1.000000 -0.000001
vn 0.000000 -1.000000 -0.000001
vn 0.000000 -1.000000 -0.000001
vn -1.000000 0.000000 0.000000
vn -1.000000 0.000000 0.000000
vn -1.000000 0.000000 0.000000
vn -1.000000 0.000000 0.000000
vn 0.000000 -1.000000 0.000000
vn 0.000000 -1.000000 0.000000
vn 0.000000 -1.000000 0.000000
vn 0.000000 -1.000000 0.000000
vn 1.000000 0.000000 0.000000
vn 1.000000 0.000000 0.000000
vn 1.000000 0.000000 0.000000
s off
f 2/1/1 1/2/2 7/3/3 8/4/4
f 3/5/5 2/1/6 8/4/7 9/6/8
f 4/7/9 3/5/10 9/6/11 10/8/12
f 5/9/13 4/7/14 10/8/15 11/10/16
f 6/11/17 5/9/18 11/10/19 12/12/20
f 1/2/21 6/11/22 12/12/23 7/3/24
f 8/4/25 7/3/26 13/13/27 14/14/28
f 9/6/29 8/4/30 14/14/31 15/15/32
f 10/8/33 9/6/34 15/15/35 16/16/36
f 11/10/37 10/8/38 16/16/39 17/17/40
f 12/12/41 11/10/42 17/17/43 18/18/44
f 7/3/45 12/12/46 18/18/47 13/13/48
f 14/14/49 13/13/50 19/19/51 20/20/52
f 15/15/53 14/14/54 20/20/55 21/21/56
f 16/16/57 15/15/58 21/21/59 22/22/60
f 17/17/61 16/16/62 22/22/63 23/23/64
f 18/18/65 17/17/66 23/23/67 24/24/68
f 13/13/69 18/18/70 24/24/71 19/19/72
f 20/20/73 19/19/74 25/25/75 26/26/76
f 21/21/77 20/20/78 26/26/79 27/27/80
f 22/22/81 21/21/82 27/27/83 28/28/84
f 23/23/85 22/22/86 28/28/87 29/29/88
f 24/24/89 23/23/90 29/29/91 30/30/92
f 19/19/93 24/24/94 30/30/95 25/25/96
f 26/26/97 25/25/98 1/2/99 2/1/100
f 27/27/101 26/26/102 2/1/103 3/5/104
f 28/28/105 27/27/106 3/5/107 4/7/108
f 29/29/109 28/28/110 4/7/111 5/9/112
f 30/30/113 29/29/114 5/9/115 6/11/116
f 25/25/117 30/30/118 6/11/119 1/2/120
f 39/31/121 40/32/122 34/33/123 33/34/124
f 33/34/125 34/33/126 36/35/127 35/36/128
f 35/36/129 36/35/130 41/37/131 42/38/132
f 37/39/133 38/40/134 32/41/135 31/42/136
f 40/32/137 41/37/138 36/35/139 34/33/140
f 42/38/141 39/31/142 33/34/143 35/36/144
f 43/43/145 44/44/146 40/32/147 39/31/148
f 44/44/149 45/45/150 41/37/151 40/32/152
f 42/38/153 41/37/154 45/45/155 46/46/156
f 46/46/157 43/43/158 39/31/159 42/38/160
f 31/42/161 32/41/162 44/44/163 43/43/164
f 32/41/165 38/40/166 45/45/167 44/44/168
f 46/46/169 45/45/170 38/40/171 37/39/172
f 37/39/173 31/42/174 43/43/175 46/46/176
f 55/47/177 58/48/178 57/49/179 56/50/180
f 56/51/181 60/52/182 59/53/183 55/54/184
f 58/55/185 62/56/186 61/57/187 57/58/188
f 47/109/189 48/110/190 50/111/191 49/112/192
f 48/59/193 47/60/194 51/61/195 52/62/196
f 49/63/197 50/64/198 54/65/199 53/66/200
f 48/67/201 56/50/202 57/49/203 50/68/204
f 49/69/205 58/48/206 55/47/207 47/70/208
f 47/71/209 55/54/210 59/53/211 51/72/212
f 69/73/213 70/74/214 71/75/215 72/76/216
f 52/77/217 60/52/218 56/51/219 48/78/220
f 50/79/221 57/58/222 61/57/223 54/80/224
f 63/81/225 64/82/226 65/83/227 66/84/228
f 53/85/229 62/56/230 58/55/231 49/86/232
f 67/87/233 68/88/234 65/83/235 64/82/236
f 68/88/237 84/89/238 65/83/239
f 83/90/240 82/91/241 63/81/242 66/84/243
f 61/92/244 62/93/245 68/88/246 67/87/247
f 53/94/248 84/89/249 68/88/250 62/93/251
f 73/95/252 74/96/253 80/97/254 77/98/255
f 74/96/256 75/99/257 79/100/258 80/97/259
f 75/99/260 76/101/261 78/102/262 79/100/263
f 76/101/264 73/95/265 77/98/266 78/102/267
f 51/103/268 59/104/269 74/96/270 73/95/271
f 59/104/272 60/105/273 75/99/274 74/96/275
f 60/105/276 52/106/277 76/101/278 75/99/279
f 52/106/280 51/103/281 73/95/282 76/101/283
f 78/102/284 77/98/285 69/73/286 72/76/287
f 79/100/288 78/102/289 72/76/290 71/75/291
f 80/97/292 79/100/293 71/75/294 70/74/295
f 77/98/296 80/97/297 70/74/298 69/73/299
f 82/91/300 81/107/301 64/82/302 63/81/303
f 81/107/304 82/91/305 83/90/306 84/89/307
f 81/107/308 84/89/309 53/94/310 54/108/311
f 65/83/312 84/89/313 83/90/314 66/84/315
f 81/107/316 54/108/317 61/92/318 67/87/319
f 64/82/320 81/107/321 67/87/322
