# This file uses centimeters as units for non-parametric coordinates.

v 3.767283 -4.912301 -9.095027
v -3.767284 -4.912301 -9.095027
v -9.095026 -4.912301 -3.767284
v -9.095027 -4.912301 3.767284
v -3.767283 -4.912301 9.095027
v 3.767284 -4.912301 9.095027
v 9.095028 -4.912301 3.767283
v 9.095028 -4.912301 -3.767284
v 3.767283 4.912301 -9.095027
v -3.767284 4.912301 -9.095027
v -9.095026 4.912301 -3.767284
v -9.095027 4.912301 3.767284
v -3.767283 4.912301 9.095027
v 3.767284 4.912301 9.095027
v 9.095028 4.912301 3.767283
v 9.095028 4.912301 -3.767284
v 6.568576 0.000000 -14.377805
v 15.857948 0.000000 -6.568578
v 15.857948 0.000000 6.568577
v 6.568577 0.000000 15.857947
v -6.568576 0.000000 15.857946
v -15.857947 0.000000 6.568577
v -15.857946 0.000000 -6.568576
v -6.568578 0.000000 -14.377806
v 0.000000 6.513290 -0.000000
v 0.000000 -6.022872 -0.000000
v 1.724040 -1.495094 -16.188805
v -1.724040 -1.495094 -16.188805
v -3.006010 0.000000 -16.188835
v 3.006008 0.000000 -16.188835
v -1.724040 1.495094 -16.188805
v 1.724039 1.495094 -16.188805
v 3.558561 -3.509497 -24.207706
v -3.558561 -3.509497 -24.207706
v -6.204652 0.000000 -24.207737
v 6.204650 0.000000 -24.207737
v -3.558561 3.509497 -24.207706
v 3.558560 3.509497 -24.207706
v 1.935276 -1.908593 -24.207714
v -1.935277 -1.908593 -24.207714
v -3.374318 0.000000 -24.207729
v 3.374316 0.000000 -24.207729
v -1.935277 1.908593 -24.207714
v 1.935275 1.908593 -24.207714
v -0.000001 0.000000 -16.249878
vt 0.146898 0.492657
vt 0.147072 0.492709
vt 0.147142 0.492663
vt 0.146835 0.492573
vt 0.146896 0.493073
vt 0.146980 0.493222
vt 0.147195 0.493132
vt 0.147040 0.492876
vt 0.146901 0.493376
vt 0.147061 0.493407
vt 0.146699 0.493441
vt 0.146697 0.493525
vt 0.146499 0.493373
vt 0.146336 0.493402
vt 0.146424 0.493218
vt 0.146209 0.493126
vt 0.146511 0.493070
vt 0.146369 0.492872
vt 0.146704 0.493012
vt 0.146706 0.492774
vt 0.146704 0.492826
vt 0.146505 0.492885
vt 0.146415 0.493033
vt 0.146492 0.493189
vt 0.146699 0.493257
vt 0.146908 0.493192
vt 0.146989 0.493037
vt 0.146902 0.492887
vt 0.147080 0.492577
vt 0.146901 0.492525
vt 0.146702 0.493004
vt 0.146702 0.493240
vt 0.146951 0.492800
vt 0.146864 0.492774
vt 0.146985 0.492782
vt 0.146833 0.492736
vt 0.146953 0.492743
vt 0.146866 0.492717
vt 0.146898 0.492657
vt 0.147072 0.492709
vt 0.147142 0.492663
vt 0.146835 0.492573
vt 0.147080 0.492577
vt 0.146901 0.492525
vt 0.146986 0.402785
vt 0.146413 0.402810
vt 0.146469 0.402339
vt 0.146195 0.402534
vt 0.147195 0.402493
vt 0.146406 0.402240
vt 0.146981 0.402217
vn -0.414994 -0.783943 -0.461751
vn -0.414994 -0.783943 -0.461751
vn -0.414994 -0.783943 -0.461751
vn -0.414994 -0.783943 -0.461751
vn -0.587687 -0.809088 -0.000000
vn -0.587687 -0.809088 -0.000000
vn -0.587687 -0.809088 -0.000000
vn -0.587687 -0.809088 -0.000000
vn -0.415558 -0.809088 0.415558
vn -0.415558 -0.809088 0.415558
vn -0.415558 -0.809088 0.415558
vn -0.415558 -0.809088 0.415558
vn -0.000000 -0.809088 0.587688
vn -0.000000 -0.809088 0.587688
vn -0.000000 -0.809088 0.587688
vn -0.000000 -0.809088 0.587688
vn 0.415558 -0.809088 0.415558
vn 0.415558 -0.809088 0.415558
vn 0.415558 -0.809088 0.415558
vn 0.415558 -0.809088 0.415558
vn 0.587687 -0.809088 0.000000
vn 0.587687 -0.809088 0.000000
vn 0.587687 -0.809088 0.000000
vn 0.587687 -0.809088 0.000000
vn 0.414994 -0.783942 -0.461751
vn 0.414994 -0.783942 -0.461751
vn 0.414994 -0.783942 -0.461751
vn 0.414994 -0.783942 -0.461751
vn 0.414994 0.783942 -0.461751
vn 0.414994 0.783942 -0.461751
vn 0.414994 0.783942 -0.461751
vn 0.414994 0.783942 -0.461751
vn 0.587687 0.809088 0.000000
vn 0.587687 0.809088 0.000000
vn 0.587687 0.809088 0.000000
vn 0.587687 0.809088 0.000000
vn 0.415558 0.809088 0.415558
vn 0.415558 0.809088 0.415558
vn 0.415558 0.809088 0.415558
vn 0.415558 0.809088 0.415558
vn -0.000000 0.809088 0.587688
vn -0.000000 0.809088 0.587688
vn -0.000000 0.809088 0.587688
vn -0.000000 0.809088 0.587688
vn -0.415558 0.809088 0.415558
vn -0.415558 0.809088 0.415558
vn -0.415558 0.809088 0.415558
vn -0.415558 0.809088 0.415558
vn -0.587687 0.809088 -0.000000
vn -0.587687 0.809088 -0.000000
vn -0.587687 0.809088 -0.000000
vn -0.587687 0.809088 -0.000000
vn -0.414994 0.783942 -0.461751
vn -0.414994 0.783942 -0.461751
vn -0.414994 0.783942 -0.461751
vn -0.414994 0.783942 -0.461751
vn 0.000000 0.984858 -0.173363
vn 0.000000 0.984858 -0.173363
vn 0.000000 0.984858 -0.173363
vn -0.122587 0.984858 -0.122587
vn -0.122587 0.984858 -0.122587
vn -0.122587 0.984858 -0.122587
vn -0.173364 0.984858 0.000000
vn -0.173364 0.984858 0.000000
vn -0.173364 0.984858 0.000000
vn -0.122587 0.984858 0.122587
vn -0.122587 0.984858 0.122587
vn -0.122587 0.984858 0.122587
vn 0.000000 0.984858 0.173363
vn 0.000000 0.984858 0.173363
vn 0.000000 0.984858 0.173363
vn 0.122587 0.984858 0.122587
vn 0.122587 0.984858 0.122587
vn 0.122587 0.984858 0.122587
vn 0.173364 0.984858 0.000000
vn 0.173364 0.984858 0.000000
vn 0.173364 0.984858 0.000000
vn 0.122587 0.984858 -0.122587
vn 0.122587 0.984858 -0.122587
vn 0.122587 0.984858 -0.122587
vn 0.085706 -0.992627 -0.085707
vn 0.085706 -0.992627 -0.085707
vn 0.085706 -0.992627 -0.085707
vn 0.121207 -0.992627 0.000000
vn 0.121207 -0.992627 0.000000
vn 0.121207 -0.992627 0.000000
vn 0.085706 -0.992627 0.085706
vn 0.085706 -0.992627 0.085706
vn 0.085706 -0.992627 0.085706
vn 0.000000 -0.992627 0.121207
vn 0.000000 -0.992627 0.121207
vn 0.000000 -0.992627 0.121207
vn -0.085706 -0.992627 0.085706
vn -0.085706 -0.992627 0.085706
vn -0.085706 -0.992627 0.085706
vn -0.121207 -0.992627 -0.000000
vn -0.121207 -0.992627 -0.000000
vn -0.121207 -0.992627 -0.000000
vn -0.085706 -0.992627 -0.085706
vn -0.085706 -0.992627 -0.085706
vn -0.085706 -0.992627 -0.085706
vn 0.000000 -0.992627 -0.121207
vn 0.000000 -0.992627 -0.121207
vn 0.000000 -0.992627 -0.121207
vn 0.000000 -0.900918 -0.433989
vn 0.000000 -0.900918 -0.433989
vn 0.000000 -0.900918 -0.433989
vn 0.000000 -0.900918 -0.433989
vn -0.418948 -0.764977 -0.489175
vn -0.418948 -0.764977 -0.489175
vn -0.418948 -0.764977 -0.489175
vn 0.422390 -0.362195 -0.830904
vn 0.422390 -0.362195 -0.830904
vn 0.422390 -0.362195 -0.830904
vn -0.418948 0.764977 -0.489175
vn -0.418948 0.764977 -0.489175
vn -0.418948 0.764977 -0.489175
vn 0.000000 0.900918 -0.433989
vn 0.000000 0.900918 -0.433989
vn 0.000000 0.900918 -0.433989
vn 0.000000 0.900918 -0.433989
vn 0.422390 0.362195 -0.830904
vn 0.422390 0.362195 -0.830904
vn 0.422390 0.362195 -0.830904
vn 0.000000 -0.969867 0.243637
vn 0.000000 -0.969867 0.243637
vn 0.000000 -0.969867 0.243637
vn 0.000000 -0.969867 0.243637
vn -0.748244 -0.587286 0.308587
vn -0.748244 -0.587286 0.308587
vn -0.748244 -0.587286 0.308587
vn -0.748244 -0.587286 0.308587
vn 0.748244 -0.587286 0.308587
vn 0.748244 -0.587286 0.308587
vn 0.748244 -0.587286 0.308587
vn 0.748244 -0.587286 0.308587
vn -0.748244 0.587286 0.308587
vn -0.748244 0.587286 0.308587
vn -0.748244 0.587286 0.308587
vn -0.748244 0.587286 0.308587
vn 0.000000 0.969867 0.243637
vn 0.000000 0.969867 0.243637
vn 0.000000 0.969867 0.243637
vn 0.000000 0.969867 0.243637
vn 0.748244 0.587286 0.308587
vn 0.748244 0.587286 0.308587
vn 0.748244 0.587286 0.308587
vn 0.748244 0.587286 0.308587
vn 0.000000 -0.000005 -1.000000
vn 0.000000 -0.000005 -1.000000
vn 0.000000 -0.000005 -1.000000
vn 0.000000 -0.000005 -1.000000
vn 0.000002 -0.000007 -1.000000
vn 0.000002 -0.000007 -1.000000
vn 0.000002 -0.000007 -1.000000
vn 0.000002 -0.000007 -1.000000
vn -0.000002 -0.000007 -1.000000
vn -0.000002 -0.000007 -1.000000
vn -0.000002 -0.000007 -1.000000
vn -0.000002 -0.000007 -1.000000
vn 0.000002 0.000007 -1.000000
vn 0.000002 0.000007 -1.000000
vn 0.000002 0.000007 -1.000000
vn 0.000002 0.000007 -1.000000
vn 0.000000 0.000005 -1.000000
vn 0.000000 0.000005 -1.000000
vn 0.000000 0.000005 -1.000000
vn 0.000000 0.000005 -1.000000
vn -0.000002 0.000007 -1.000000
vn -0.000002 0.000007 -1.000000
vn -0.000002 0.000007 -1.000000
vn -0.000002 0.000007 -1.000000
vn 0.000000 0.972423 -0.233224
vn 0.000000 0.972423 -0.233224
vn 0.000000 0.972423 -0.233224
vn 0.756301 0.570234 -0.320690
vn 0.756301 0.570234 -0.320690
vn 0.756301 0.570234 -0.320690
vn -0.756302 0.570233 -0.320690
vn -0.756302 0.570233 -0.320690
vn -0.756302 0.570233 -0.320690
vn 0.756301 -0.570234 -0.320690
vn 0.756301 -0.570234 -0.320690
vn 0.756301 -0.570234 -0.320690
vn 0.000000 -0.972423 -0.233224
vn 0.000000 -0.972423 -0.233224
vn 0.000000 -0.972423 -0.233224
vn -0.756301 -0.570233 -0.320690
vn -0.756301 -0.570233 -0.320690
vn -0.756301 -0.570233 -0.320690
vn -0.422389 0.362195 -0.830904
vn -0.422389 0.362195 -0.830904
vn -0.422389 0.362195 -0.830904
vn -0.422389 -0.362195 -0.830904
vn -0.422389 -0.362195 -0.830904
vn -0.422389 -0.362195 -0.830904
vn 0.418948 0.764977 -0.489175
vn 0.418948 0.764977 -0.489175
vn 0.418948 0.764977 -0.489175
vn 0.418948 -0.764977 -0.489175
vn 0.418948 -0.764977 -0.489175
vn 0.418948 -0.764977 -0.489175
s off
f 2/5/1 3/6/2 23/7/3 24/8/4
f 3/6/5 4/9/6 22/10/7 23/7/8
f 4/9/9 5/11/10 21/12/11 22/10/12
f 5/11/13 6/13/14 20/14/15 21/12/16
f 6/13/17 7/15/18 19/16/19 20/14/20
f 7/15/21 8/17/22 18/18/23 19/16/24
f 8/17/25 1/19/26 17/20/27 18/18/28
f 18/18/29 17/20/30 9/21/31 16/22/32
f 19/16/33 18/18/34 16/22/35 15/23/36
f 20/14/37 19/16/38 15/23/39 14/24/40
f 21/12/41 20/14/42 14/24/43 13/25/44
f 22/10/45 21/12/46 13/25/47 12/26/48
f 23/7/49 22/10/50 12/26/51 11/27/52
f 24/8/53 23/7/54 11/27/55 10/28/56
f 9/21/57 10/28/58 25/31/59
f 10/28/60 11/27/61 25/31/62
f 11/27/63 12/26/64 25/31/65
f 12/26/66 13/25/67 25/31/68
f 13/25/69 14/24/70 25/31/71
f 14/24/72 15/23/73 25/31/74
f 15/23/75 16/22/76 25/31/77
f 16/22/78 9/21/79 25/31/80
f 1/19/81 8/17/82 26/32/83
f 8/17/84 7/15/85 26/32/86
f 7/15/87 6/13/88 26/32/89
f 6/13/90 5/11/91 26/32/92
f 5/11/93 4/9/94 26/32/95
f 4/9/96 3/6/97 26/32/98
f 3/6/99 2/5/100 26/32/101
f 2/5/102 1/19/103 26/32/104
f 1/19/105 2/5/106 28/33/107 27/34/108
f 2/5/109 24/8/110 28/33/111
f 17/20/112 27/34/113 30/36/114
f 24/8/115 10/28/116 31/37/117
f 10/28/118 9/21/119 32/38/120 31/37/121
f 32/38/122 17/20/123 30/36/124
f 27/34/125 28/33/126 34/2/127 33/1/128
f 28/33/129 29/35/130 35/3/131 34/2/132
f 30/36/133 27/34/134 33/1/135 36/4/136
f 29/35/137 31/37/138 37/29/139 35/3/140
f 31/37/141 32/38/142 38/30/143 37/29/144
f 32/38/145 30/36/146 36/4/147 38/30/148
f 33/1/149 34/2/150 40/40/151 39/39/152
f 34/2/153 35/3/154 41/41/155 40/40/156
f 36/4/157 33/1/158 39/39/159 42/42/160
f 35/3/161 37/29/162 43/43/163 41/41/164
f 37/29/165 38/30/166 44/44/167 43/43/168
f 38/30/169 36/4/170 42/42/171 44/44/172
f 39/45/173 40/46/174 45/47/175
f 40/46/176 41/48/177 45/47/178
f 42/49/179 39/45/180 45/47/181
f 41/48/182 43/50/183 45/47/184
f 43/50/185 44/51/186 45/47/187
f 44/51/188 42/49/189 45/47/190
f 24/8/191 31/37/192 29/35/193
f 28/33/194 24/8/195 29/35/196
f 9/21/197 17/20/198 32/38/199
f 17/20/200 1/19/201 27/34/202
