# This file uses centimeters as units for non-parametric coordinates.

v -50.000015 -10.606600 -10.606593
v -50.000015 0.000000 -15.000007
v -50.000015 10.606601 -10.606593
v -50.000015 14.999998 0.000008
v -50.000015 10.606601 10.606593
v -50.000015 0.000000 15.000007
v -50.000015 -10.606602 10.606602
v -50.000015 -15.000000 0.000008
v 0.000015 -10.606600 -10.606593
v 0.000015 0.000000 -15.000007
v 0.000015 10.606600 -10.606593
v 0.000015 14.999998 0.000008
v 0.000015 10.606600 10.606593
v 0.000015 0.000000 15.000007
v 0.000015 -10.606602 10.606602
v 0.000015 -14.999969 0.000008
v -50.000015 -0.000001 0.000008
v 0.000015 0.000000 0.000008
v -2.795155 -13.399893 -13.399906
v -2.795158 0.000000 -18.950314
v -2.795162 13.399895 -13.399906
v -2.795158 18.950310 0.000010
v -2.795162 13.399895 13.399906
v -2.795158 0.000000 18.950314
v -2.795193 -13.399895 13.399907
v -2.795158 -18.950314 0.000010
v 2.795146 -13.399893 -13.399906
v 2.795146 0.000000 -18.950314
v 2.795146 13.399893 -13.399906
v 2.795146 18.950310 0.000010
v 2.795146 13.399893 13.399906
v 2.795146 0.000000 18.950314
v 2.795146 -13.399895 13.399907
v 2.795145 -18.950275 0.000010
v -2.795158 -0.000000 0.000010
v 2.795146 0.000000 0.000010
vt 0.102236 0.231326
vt 0.101300 0.231321
vt 0.102222 0.231206
vt 0.102232 0.231065
vt 0.102244 0.231068
vt 0.102253 0.231233
vt 0.102251 0.231463
vt 0.102240 0.231600
vt 0.102227 0.231570
vt 0.102220 0.231408
vt 0.101281 0.231063
vt 0.101318 0.231060
vt 0.101342 0.231201
vt 0.101342 0.231402
vt 0.101319 0.231564
vt 0.101282 0.231594
vt 0.101253 0.231456
vt 0.101253 0.231228
vt 0.102220 0.231408
vt 0.102222 0.231206
vt 0.101342 0.231201
vt 0.101342 0.231402
vt 0.102232 0.231065
vt 0.101318 0.231060
vt 0.102244 0.231068
vt 0.101281 0.231063
vt 0.102253 0.231233
vt 0.101253 0.231228
vt 0.102251 0.231463
vt 0.101253 0.231456
vt 0.102240 0.231600
vt 0.101282 0.231594
vt 0.102227 0.231570
vt 0.101319 0.231564
vt 0.102236 0.231326
vt 0.101300 0.231321
vn -1.000000 0.000000 0.000000
vn -1.000000 0.000000 0.000000
vn -1.000000 0.000000 0.000000
vn -1.000000 0.000000 0.000000
vn 1.000000 0.000000 0.000000
vn 1.000000 0.000000 0.000000
vn 1.000000 0.000000 0.000000
vn 1.000000 0.000000 0.000000
vn -1.000000 0.000000 0.000000
vn -1.000000 0.000000 0.000000
vn -1.000000 0.000000 0.000000
vn -1.000000 0.000000 0.000000
vn -1.000000 0.000000 0.000000
vn -1.000000 0.000000 0.000000
vn -1.000000 0.000000 0.000000
vn -1.000000 0.000000 0.000000
vn -1.000000 0.000000 0.000000
vn -1.000000 0.000000 0.000000
vn -1.000000 0.000000 0.000000
vn -1.000000 0.000000 0.000000
vn 1.000000 0.000000 0.000000
vn 1.000000 0.000000 0.000000
vn 1.000000 0.000000 0.000000
vn 1.000000 0.000000 0.000000
vn 1.000000 0.000000 0.000000
vn 1.000000 0.000000 0.000000
vn 1.000000 0.000000 0.000000
vn 1.000000 0.000000 0.000000
vn 1.000000 0.000000 0.000000
vn 1.000000 0.000000 0.000000
vn 1.000000 0.000000 0.000000
vn 1.000000 0.000000 0.000000
vn 0.000000 0.382684 0.923880
vn 0.000000 0.382684 0.923880
vn -0.000000 0.382684 0.923880
vn -0.000000 0.382684 0.923880
vn 0.000000 0.923880 0.382684
vn 0.000000 0.923880 0.382684
vn 0.000000 0.923880 0.382683
vn 0.000000 0.923880 0.382683
vn 0.000000 0.923880 -0.382684
vn 0.000000 0.923880 -0.382684
vn 0.000000 0.923880 -0.382683
vn 0.000000 0.923880 -0.382683
vn -0.000000 0.382684 -0.923880
vn -0.000000 0.382684 -0.923880
vn -0.000000 0.382684 -0.923880
vn -0.000000 0.382684 -0.923880
vn 0.000000 -0.382684 -0.923880
vn 0.000000 -0.382684 -0.923880
vn 0.000000 -0.382684 -0.923880
vn 0.000000 -0.382684 -0.923880
vn 0.000000 -0.923880 -0.382683
vn 0.000000 -0.923880 -0.382683
vn 0.000000 -0.923880 -0.382682
vn 0.000000 -0.923880 -0.382682
vn 0.000000 -0.382683 0.923880
vn 0.000000 -0.382683 0.923880
vn 0.000000 -0.382683 0.923880
vn 0.000000 -0.382683 0.923880
vn 0.000000 -0.923880 0.382682
vn 0.000000 -0.923880 0.382683
vn 0.000000 -0.923880 0.382683
vn 0.000000 -0.923880 0.382682
vn 0.000000 -0.382683 -0.923880
vn 0.000000 -0.382683 -0.923880
vn 0.000000 -0.382683 -0.923880
vn 0.000000 -0.382683 -0.923880
vn 0.000000 0.382683 -0.923880
vn 0.000000 0.382683 -0.923880
vn 0.000000 0.382683 -0.923880
vn 0.000000 0.382683 -0.923880
vn 0.000000 0.923880 -0.382683
vn 0.000000 0.923880 -0.382683
vn 0.000000 0.923880 -0.382683
vn 0.000000 0.923880 -0.382683
vn 0.000000 0.923880 0.382683
vn 0.000000 0.923880 0.382683
vn 0.000000 0.923880 0.382683
vn 0.000000 0.923880 0.382683
vn 0.000000 0.382683 0.923880
vn 0.000000 0.382683 0.923880
vn 0.000000 0.382683 0.923880
vn 0.000000 0.382683 0.923880
vn -0.000000 -0.382683 0.923880
vn -0.000000 -0.382683 0.923880
vn -0.000000 -0.382683 0.923880
vn -0.000000 -0.382683 0.923880
vn 0.000003 -0.923880 0.382682
vn 0.000003 -0.923880 0.382682
vn 0.000003 -0.923880 0.382682
vn 0.000003 -0.923880 0.382682
vn 0.000003 -0.923880 -0.382682
vn 0.000003 -0.923880 -0.382682
vn 0.000003 -0.923880 -0.382682
vn 0.000003 -0.923880 -0.382682
vn -1.000000 0.000001 -0.000001
vn -1.000000 0.000000 -0.000000
vn -1.000000 0.000001 -0.000001
vn -1.000000 0.000001 -0.000001
vn 1.000000 -0.000000 0.000000
vn 1.000000 -0.000000 -0.000000
vn 1.000000 0.000000 0.000000
vn 1.000000 0.000000 0.000000
vn -1.000000 -0.000000 -0.000000
vn -1.000000 0.000001 -0.000001
vn -1.000000 0.000000 -0.000000
vn -1.000000 -0.000000 0.000000
vn -1.000000 -0.000000 0.000000
vn -1.000000 0.000000 -0.000000
vn -1.000000 0.000001 -0.000001
vn -1.000000 -0.000000 -0.000000
vn -1.000000 -0.000000 0.000000
vn -1.000000 0.000000 -0.000000
vn -1.000000 -0.000000 0.000000
vn -1.000000 -0.000000 0.000000
vn 1.000000 0.000000 0.000000
vn 1.000000 0.000000 0.000000
vn 1.000000 -0.000000 -0.000000
vn 1.000000 -0.000000 0.000000
vn 1.000000 -0.000000 -0.000000
vn 1.000000 -0.000000 -0.000000
vn 1.000000 -0.000000 0.000000
vn 1.000000 -0.000000 -0.000000
vn 1.000000 -0.000000 0.000000
vn 1.000000 -0.000000 -0.000000
vn 1.000000 -0.000000 -0.000000
vn 1.000000 -0.000000 -0.000000
s off
f 6/7/1 17/1/2 8/9/3 7/8/4
f 12/11/5 18/2/6 10/13/7 11/12/8
f 1/10/9 8/9/10 17/1/11 2/3/12
f 4/5/13 17/1/14 6/7/15 5/6/16
f 2/3/17 17/1/18 4/5/19 3/4/20
f 9/14/21 10/13/22 18/2/23 16/15/24
f 14/17/25 18/2/26 12/11/27 13/18/28
f 16/15/29 18/2/30 14/17/31 15/16/32
f 14/17/33 13/18/34 5/6/35 6/7/36
f 4/5/37 5/6/38 13/18/39 12/11/40
f 3/4/41 4/5/42 12/11/43 11/12/44
f 2/3/45 3/4/46 11/12/47 10/13/48
f 1/10/49 2/3/50 10/13/51 9/14/52
f 8/9/53 1/10/54 9/14/55 16/15/56
f 15/16/57 14/17/58 6/7/59 7/8/60
f 15/16/61 7/8/62 8/9/63 16/15/64
f 19/19/65 20/20/66 28/21/67 27/22/68
f 20/20/69 21/23/70 29/24/71 28/21/72
f 21/23/73 22/25/74 30/26/75 29/24/76
f 22/25/77 23/27/78 31/28/79 30/26/80
f 23/27/81 24/29/82 32/30/83 31/28/84
f 24/29/85 25/31/86 33/32/87 32/30/88
f 25/31/89 26/33/90 34/34/91 33/32/92
f 26/33/93 19/19/94 27/22/95 34/34/96
f 24/29/97 35/35/98 26/33/99 25/31/100
f 30/26/101 36/36/102 28/21/103 29/24/104
f 19/19/105 26/33/106 35/35/107 20/20/108
f 22/25/109 35/35/110 24/29/111 23/27/112
f 20/20/113 35/35/114 22/25/115 21/23/116
f 27/22/117 28/21/118 36/36/119 34/34/120
f 32/30/121 36/36/122 30/26/123 31/28/124
f 34/34/125 36/36/126 32/30/127 33/32/128
