# This file uses centimeters as units for non-parametric coordinates.

v 0.379397 9.571609 -0.656984
v -0.379397 9.571609 -0.656984
v -0.758794 9.571609 0.000151
v -0.379397 9.571609 0.657285
v 0.379397 9.571609 0.657285
v 0.758794 9.571609 0.000151
v -0.000000 9.571609 0.000151
v 0.623986 -3.799293 -1.080818
v -0.623984 -3.799293 -1.080818
v -1.247972 -3.799282 -0.000045
v -0.623986 -3.799270 1.080729
v 0.623986 -3.799270 1.080729
v 1.247972 -3.799282 -0.000045
v 0.623986 8.547353 -1.080637
v 1.247972 8.547376 0.000136
v 0.623986 8.547399 1.080909
v -0.623986 8.547399 1.080909
v -1.247972 8.547376 0.000136
v -0.623985 8.547353 -1.080637
v 0.311408 -7.947907 -0.000105
v 0.155704 -7.947907 -0.269792
v -0.000000 -8.108942 -0.000108
v 0.155704 -7.947852 0.269582
v -0.155704 -7.947852 0.269582
v -0.311409 -7.947907 -0.000105
v -0.155704 -7.947907 -0.269792
v -0.478500 -4.221982 -0.828839
v 0.478501 -4.221982 -0.828839
v -0.957002 -4.221971 -0.000051
v -0.478501 -4.221959 0.828736
v 0.478501 -4.221959 0.828736
v 0.957002 -4.221971 -0.000051
v -0.265797 -7.150650 -0.460467
v -0.531593 -7.150639 -0.000094
v -0.265797 -7.150627 0.460280
v 0.265797 -7.150627 0.460280
v 0.531593 -7.150639 -0.000094
v 0.265797 -7.150650 -0.460467
vt 0.080240 0.251925
vt 0.080236 0.251935
vt 0.329556 0.331822
vt 0.329705 0.331824
vt 0.080364 0.252075
vt 0.329704 0.330964
vt 0.080362 0.251941
vt 0.329627 0.330971
vt 0.080491 0.251935
vt 0.329784 0.331836
vt 0.080489 0.251924
vt 0.329787 0.330969
vt 0.080365 0.251919
vt 0.329283 0.332734
vt 0.329232 0.332697
vt 0.329388 0.331872
vt 0.329484 0.331928
vt 0.329307 0.332702
vt 0.329522 0.331894
vt 0.329792 0.331866
vt 0.329795 0.330981
vt 0.329718 0.331883
vt 0.329717 0.330988
vt 0.329712 0.331888
vt 0.329632 0.330983
vt 0.329659 0.330887
vt 0.329433 0.332745
vt 0.329749 0.331970
vt 0.329486 0.332783
vt 0.329850 0.332026
vt 0.329411 0.332778
vt 0.329718 0.332006
vt 0.329706 0.330883
vt 0.329710 0.330889
vt 0.329757 0.330886
vt 0.329762 0.330892
vt 0.329714 0.330895
vt 0.329663 0.330893
vt 0.080365 0.251499
vt 0.080504 0.251500
vt 0.080505 0.251501
vt 0.080362 0.251502
vt 0.080220 0.251501
vt 0.080225 0.251500
vt 0.361837 0.342899
vt 0.361837 0.348393
vt 0.337060 0.348393
vt 0.337060 0.342899
vt 0.337060 0.348393
vt 0.337060 0.342899
vt 0.361837 0.342899
vt 0.361837 0.348393
vt 0.329355 0.331733
vt 0.329530 0.331764
vt 0.329826 0.331863
vt 0.329958 0.331935
vn 0.000000 0.000000 -1.000000
vn 0.000000 0.000000 -1.000000
vn 0.000000 0.000000 -1.000000
vn 0.000000 0.000000 -1.000000
vn -0.866025 0.000000 -0.500001
vn -0.866025 0.000000 -0.500001
vn -0.866025 0.000000 -0.500001
vn -0.866025 0.000000 -0.500001
vn -0.866025 0.000000 0.500000
vn -0.866025 0.000000 0.500000
vn -0.866025 0.000000 0.500000
vn -0.866025 0.000000 0.500000
vn 0.000000 0.000000 1.000000
vn 0.000000 0.000000 1.000000
vn 0.000000 0.000000 1.000000
vn 0.000000 0.000000 1.000000
vn 0.866025 0.000000 0.500000
vn 0.866025 0.000000 0.500000
vn 0.866025 0.000000 0.500000
vn 0.866025 0.000000 0.500000
vn 0.866025 0.000000 -0.500000
vn 0.866025 0.000000 -0.500000
vn 0.866025 0.000000 -0.500000
vn 0.866025 0.000000 -0.500000
vn 0.484601 -0.828783 -0.279787
vn 0.484601 -0.828783 -0.279787
vn 0.484601 -0.828783 -0.279787
vn 0.484574 -0.828738 0.279967
vn 0.484574 -0.828738 0.279967
vn 0.484574 -0.828738 0.279967
vn 0.000000 -0.828692 0.559704
vn 0.000000 -0.828692 0.559704
vn 0.000000 -0.828692 0.559704
vn -0.484574 -0.828738 0.279967
vn -0.484574 -0.828738 0.279967
vn -0.484574 -0.828738 0.279967
vn -0.484601 -0.828783 -0.279787
vn -0.484601 -0.828783 -0.279787
vn -0.484601 -0.828783 -0.279787
vn 0.000000 -0.828781 -0.559573
vn 0.000000 -0.828781 -0.559573
vn 0.000000 -0.828781 -0.559573
vn 0.000000 1.000000 0.000000
vn 0.000000 1.000000 0.000000
vn 0.000000 1.000000 0.000000
vn 0.000000 1.000000 0.000000
vn 0.000000 1.000000 0.000000
vn 0.000000 1.000000 0.000000
vn 0.000000 1.000000 0.000000
vn 0.000000 1.000000 0.000000
vn 0.000000 1.000000 0.000000
vn 0.000000 1.000000 0.000000
vn 0.000000 1.000000 0.000000
vn 0.000000 1.000000 0.000000
vn 0.000000 1.000000 0.000000
vn 0.000000 1.000000 0.000000
vn 0.000000 1.000000 0.000000
vn 0.000000 1.000000 0.000000
vn 0.000000 1.000000 0.000000
vn 0.000000 1.000000 0.000000
vn 0.000000 -0.110570 -0.993868
vn 0.000000 -0.110570 -0.993868
vn 0.000000 -0.110570 -0.993868
vn 0.000000 -0.110570 -0.993868
vn -0.860715 -0.110570 -0.496935
vn -0.860715 -0.110570 -0.496935
vn -0.860715 -0.110570 -0.496935
vn -0.860715 -0.110570 -0.496935
vn -0.860715 -0.110570 0.496934
vn -0.860715 -0.110570 0.496934
vn -0.860715 -0.110570 0.496934
vn -0.860715 -0.110570 0.496934
vn 0.000000 -0.110570 0.993868
vn 0.000000 -0.110570 0.993868
vn 0.000000 -0.110570 0.993868
vn 0.000000 -0.110570 0.993868
vn 0.860715 -0.110570 0.496934
vn 0.860715 -0.110570 0.496934
vn 0.860715 -0.110570 0.496934
vn 0.860715 -0.110570 0.496934
vn 0.860715 -0.110571 -0.496934
vn 0.860715 -0.110571 -0.496934
vn 0.860715 -0.110571 -0.496934
vn 0.860715 -0.110571 -0.496934
vn 0.813319 0.343535 -0.469570
vn 0.813319 0.343535 -0.469570
vn 0.813319 0.343535 -0.469570
vn 0.813319 0.343535 -0.469570
vn 0.813319 0.343535 0.469570
vn 0.813319 0.343535 0.469570
vn 0.813319 0.343535 0.469570
vn 0.813319 0.343535 0.469570
vn 0.000000 0.343535 0.939140
vn 0.000000 0.343535 0.939140
vn 0.000000 0.343535 0.939140
vn 0.000000 0.343535 0.939140
vn -0.813319 0.343535 0.469570
vn -0.813319 0.343535 0.469570
vn -0.813319 0.343535 0.469570
vn -0.813319 0.343535 0.469570
vn -0.813319 0.343535 -0.469570
vn -0.813319 0.343535 -0.469570
vn -0.813319 0.343535 -0.469570
vn -0.813319 0.343535 -0.469570
vn 0.000000 0.343535 -0.939140
vn 0.000000 0.343535 -0.939140
vn 0.000000 0.343535 -0.939140
vn 0.000000 0.343535 -0.939140
vn 0.000000 -0.466379 -0.884585
vn 0.000000 -0.466379 -0.884585
vn 0.000000 -0.466379 -0.884585
vn 0.000000 -0.466379 -0.884585
vn -0.766073 -0.466379 -0.442293
vn -0.766073 -0.466379 -0.442293
vn -0.766073 -0.466379 -0.442293
vn -0.766073 -0.466379 -0.442293
vn -0.766073 -0.466379 0.442293
vn -0.766073 -0.466379 0.442293
vn -0.766073 -0.466379 0.442293
vn -0.766073 -0.466379 0.442293
vn 0.000000 -0.466379 0.884585
vn 0.000000 -0.466379 0.884585
vn 0.000000 -0.466379 0.884585
vn 0.000000 -0.466379 0.884585
vn 0.766073 -0.466380 0.442293
vn 0.766073 -0.466380 0.442293
vn 0.766073 -0.466380 0.442293
vn 0.766073 -0.466380 0.442293
vn 0.766073 -0.466380 -0.442293
vn 0.766073 -0.466380 -0.442293
vn 0.766073 -0.466380 -0.442293
vn 0.766073 -0.466380 -0.442293
vn -0.847278 -0.206944 -0.489177
vn -0.847278 -0.206944 -0.489177
vn -0.847278 -0.206944 -0.489177
vn -0.847278 -0.206944 -0.489177
vn -0.847269 -0.206951 0.489189
vn -0.847269 -0.206951 0.489189
vn -0.847269 -0.206951 0.489189
vn -0.847269 -0.206951 0.489189
vn 0.000000 -0.206958 0.978350
vn 0.000000 -0.206958 0.978350
vn 0.000000 -0.206958 0.978350
vn 0.000000 -0.206958 0.978350
vn 0.847269 -0.206951 0.489189
vn 0.847269 -0.206951 0.489189
vn 0.847269 -0.206951 0.489189
vn 0.847269 -0.206951 0.489189
vn 0.847278 -0.206944 -0.489177
vn 0.847278 -0.206944 -0.489177
vn 0.847278 -0.206944 -0.489177
vn 0.847278 -0.206944 -0.489177
vn 0.000000 -0.206945 -0.978353
vn 0.000000 -0.206945 -0.978353
vn 0.000000 -0.206945 -0.978353
vn 0.000000 -0.206945 -0.978353
s off
f 8/45/1 9/46/2 19/47/3 14/48/4
f 9/4/5 10/10/6 18/12/7 19/6/8
f 10/10/9 11/20/10 17/21/11 18/12/12
f 11/49/13 12/50/14 16/51/15 17/52/16
f 12/22/17 13/24/18 15/25/19 16/23/20
f 13/24/21 8/3/22 14/8/23 15/25/24
f 21/1/25 20/2/26 22/5/27
f 20/2/28 23/7/29 22/5/30
f 23/7/31 24/9/32 22/5/33
f 24/9/34 25/11/35 22/5/36
f 25/11/37 26/13/38 22/5/39
f 26/13/40 21/1/41 22/5/42
f 1/26/43 2/33/44 7/34/45
f 2/33/46 3/35/47 7/34/48
f 3/35/49 4/36/50 7/34/51
f 4/36/52 5/37/53 7/34/54
f 5/37/55 6/38/56 7/34/57
f 6/38/58 1/26/59 7/34/60
f 38/14/61 33/15/62 27/16/63 28/17/64
f 33/15/65 34/18/66 29/19/67 27/16/68
f 34/18/69 35/27/70 30/28/71 29/19/72
f 35/27/73 36/29/74 31/30/75 30/28/76
f 36/29/77 37/31/78 32/32/79 31/30/80
f 37/31/81 38/14/82 28/17/83 32/32/84
f 15/25/85 14/8/86 1/26/87 6/38/88
f 16/23/89 15/25/90 6/38/91 5/37/92
f 17/21/93 16/23/94 5/37/95 4/36/96
f 18/12/97 17/21/98 4/36/99 3/35/100
f 19/6/101 18/12/102 3/35/103 2/33/104
f 14/8/105 19/6/106 2/33/107 1/26/108
f 9/53/109 8/3/110 28/17/111 27/16/112
f 10/54/113 9/53/114 27/16/115 29/19/116
f 11/55/117 10/54/118 29/19/119 30/28/120
f 12/56/121 11/55/122 30/28/123 31/30/124
f 13/24/125 12/56/126 31/30/127 32/32/128
f 8/3/129 13/24/130 32/32/131 28/17/132
f 26/13/133 25/11/134 34/40/135 33/39/136
f 25/11/137 24/9/138 35/41/139 34/40/140
f 24/9/141 23/7/142 36/42/143 35/41/144
f 23/7/145 20/2/146 37/43/147 36/42/148
f 20/2/149 21/1/150 38/44/151 37/43/152
f 21/1/153 26/13/154 33/39/155 38/44/156
