# This file uses centimeters as units for non-parametric coordinates.

v -2.760221 -0.355380 -9.481110
v 4.217821 3.178820 -7.685600
v -5.633997 20.355104 1.040585
v -1.722816 20.355104 1.040585
v -5.633997 20.840326 -0.143312
v -1.722816 20.840326 -0.143312
v -2.760221 0.129840 -10.665005
v 4.217821 3.664039 -8.869511
v 1.936321 0.129840 -10.665005
v 1.936321 -0.355380 -9.481110
v -12.531721 0.600008 10.665025
v 12.531708 0.600008 10.665025
v -12.531721 28.333908 3.370118
v 12.531708 28.333908 3.370118
v -12.531721 27.098671 -1.326020
v 12.531708 27.098671 -1.326020
v -12.531721 -0.635230 5.968871
v 12.531708 -0.635230 5.968871
v -9.896734 3.289194 9.957673
v 9.896690 3.289194 9.957673
v 9.896690 25.644722 4.077470
v -9.896734 25.644722 4.077470
v -9.752292 2.763040 7.494251
v 9.752274 2.763040 7.494251
v 9.752274 24.890722 1.673969
v -9.752292 24.890722 1.673969
vt 0.037876 0.252655
vt 0.037960 0.252706
vt 0.038065 0.252624
vt 0.038234 0.252065
vt 0.038158 0.252044
vt 0.038211 0.252046
vt 0.038134 0.252025
vt 0.038039 0.252609
vt 0.037933 0.252693
vt 0.037850 0.252642
vt 0.445323 0.210142
vt 0.498916 0.210142
vt 0.498916 0.270777
vt 0.445323 0.270777
vt 0.038010 0.251861
vt 0.038763 0.252028
vt 0.038704 0.252041
vt 0.037955 0.251868
vt 0.038655 0.252861
vt 0.037988 0.252518
vt 0.038708 0.252837
vt 0.038037 0.252503
vt 0.038662 0.252773
vt 0.038066 0.252485
vt 0.038704 0.252067
vt 0.038044 0.251908
vt 0.038644 0.252774
vt 0.038055 0.252487
vt 0.038684 0.252073
vt 0.038032 0.251914
vn -0.000000 -0.452937 0.891543
vn -0.000000 -0.452937 0.891543
vn -0.000000 -0.452937 0.891543
vn -0.000000 -0.452937 0.891543
vn -0.000000 -0.452937 0.891543
vn 0.000000 0.925300 0.379236
vn 0.000000 0.925300 0.379236
vn 0.000000 0.925300 0.379236
vn 0.000000 0.925300 0.379236
vn -0.000001 0.452937 -0.891543
vn -0.000001 0.452937 -0.891543
vn -0.000001 0.452937 -0.891543
vn -0.000001 0.452937 -0.891543
vn -0.000001 0.452937 -0.891543
vn 0.000000 -0.925300 -0.379235
vn 0.481195 -0.811131 -0.332442
vn 0.503671 -0.799363 -0.327619
vn 0.000000 -0.925300 -0.379235
vn 0.955328 0.273471 0.112081
vn 0.955328 0.273471 0.112081
vn 0.955328 0.273471 0.112081
vn 0.955328 0.273471 0.112081
vn -0.992385 -0.113972 -0.046711
vn -0.992385 -0.113972 -0.046711
vn -0.992385 -0.113972 -0.046711
vn -0.992385 -0.113972 -0.046711
vn 0.503671 -0.799363 -0.327619
vn 0.481195 -0.811131 -0.332442
vn 0.865995 -0.462700 -0.189636
vn 0.865995 -0.462700 -0.189636
vn 0.000000 0.254379 0.967105
vn 0.000000 0.254379 0.967105
vn 0.000000 0.254379 0.967105
vn 0.000000 0.254379 0.967105
vn 0.000000 0.967104 -0.254380
vn 0.000000 0.967104 -0.254380
vn 0.000000 0.967104 -0.254380
vn 0.000000 0.967104 -0.254380
vn 0.000000 -0.254379 -0.967105
vn 0.000000 -0.254379 -0.967105
vn 0.000000 -0.254379 -0.967105
vn 0.000000 -0.254379 -0.967105
vn 0.000000 -0.967105 0.254379
vn 0.000000 -0.967105 0.254379
vn 0.000000 -0.967105 0.254379
vn 0.000000 -0.967105 0.254379
vn 1.000000 0.000000 0.000000
vn 1.000000 0.000000 0.000000
vn 1.000000 0.000000 0.000000
vn 1.000000 0.000000 0.000000
vn -1.000000 0.000000 0.000000
vn -1.000000 0.000000 0.000000
vn -1.000000 0.000000 0.000000
vn -1.000000 0.000000 0.000000
vn 0.000000 0.254383 0.967104
vn 0.000000 0.254383 0.967104
vn 0.000000 0.254383 0.967104
vn 0.000000 0.254383 0.967104
vn 0.000000 0.254379 0.967105
vn 0.000000 0.254379 0.967105
vn 0.000000 0.254379 0.967105
vn 0.000000 0.254379 0.967105
vn 0.000000 0.254383 0.967104
vn 0.000000 0.254383 0.967104
vn 0.000000 0.254383 0.967104
vn 0.000000 0.254383 0.967104
vn -0.000000 0.254379 0.967105
vn -0.000000 0.254379 0.967105
vn -0.000000 0.254379 0.967105
vn -0.000000 0.254379 0.967105
vn 0.000000 0.977942 -0.208876
vn 0.000000 0.977942 -0.208876
vn 0.000000 0.977942 -0.208876
vn 0.000000 0.977942 -0.208876
vn -0.998357 0.014576 0.055415
vn -0.998357 0.014576 0.055415
vn -0.998357 0.014576 0.055415
vn -0.998357 0.014576 0.055415
vn -0.000000 -0.954151 0.299326
vn -0.000000 -0.954151 0.299326
vn -0.000000 -0.954151 0.299326
vn -0.000000 -0.954151 0.299326
vn 0.998356 0.014578 0.055425
vn 0.998356 0.014578 0.055425
vn 0.998356 0.014578 0.055425
vn 0.998357 0.014578 0.055425
s off
f 1/1/1 10/2/2 2/3/3 4/4/4 3/5/5
f 3/5/6 4/4/7 6/6/8 5/7/9
f 5/7/10 6/6/11 8/8/12 9/9/13 7/10/14
f 7/10/15 9/9/16 10/2/17 1/1/18
f 2/3/19 8/8/20 6/6/21 4/4/22
f 7/10/23 1/1/24 3/5/25 5/7/26
f 10/2/27 9/9/28 8/8/29 2/3/30
f 23/11/31 24/12/32 25/13/33 26/14/34
f 13/15/35 14/16/36 16/17/37 15/18/38
f 15/18/39 16/17/40 18/19/41 17/20/42
f 17/20/43 18/19/44 12/21/45 11/22/46
f 12/21/47 18/19/48 16/17/49 14/16/50
f 17/20/51 11/22/52 13/15/53 15/18/54
f 11/22/55 12/21/56 20/23/57 19/24/58
f 12/21/59 14/16/60 21/25/61 20/23/62
f 14/16/63 13/15/64 22/26/65 21/25/66
f 13/15/67 11/22/68 19/24/69 22/26/70
f 19/24/71 20/23/72 24/27/73 23/28/74
f 20/23/75 21/25/76 25/29/77 24/27/78
f 21/25/79 22/26/80 26/30/81 25/29/82
f 22/26/83 19/24/84 23/28/85 26/30/86
