# This file uses centimeters as units for non-parametric coordinates.

v 30.364563 0.003513 37.867126
v 24.072998 0.003517 37.867126
v 20.919250 0.003983 32.423981
v 24.062500 0.000004 26.962006
v 30.375122 0.000004 26.962006
v 33.518372 0.003986 32.423920
v 29.978210 83.152679 36.846313
v 24.459106 83.152679 36.846313
v 21.953125 81.892059 32.158386
v 24.710876 80.956894 27.825989
v 29.726563 80.956894 27.825989
v 32.484314 81.892059 32.158386
v 27.218750 1.780205 32.409821
v 30.058228 112.366898 23.301361
v 24.379089 112.366898 23.301361
v 21.924988 108.186691 19.960938
v 24.921936 104.659775 17.233337
v 29.515503 104.659775 17.233337
v 32.512451 108.186691 19.960938
v 30.216858 120.607346 -0.059753
v 24.220581 120.607346 -0.059753
v 21.398376 115.819321 -0.060760
v 24.370117 111.290741 -0.063171
v 30.067200 111.290741 -0.063171
v 33.039063 115.819321 -0.060760
v 30.364563 0.003513 -37.867126
v 24.072998 0.003517 -37.867126
v 20.919250 0.003979 -32.424011
v 24.062500 0.000004 -26.962006
v 30.375122 0.000000 -26.962006
v 33.518372 0.003986 -32.424011
v 29.978210 83.152679 -36.846252
v 24.459106 83.152679 -36.846252
v 21.953125 81.892059 -32.158325
v 24.710876 80.956894 -27.826019
v 29.726563 80.956894 -27.826019
v 32.484314 81.892059 -32.158386
v 27.218750 1.780205 -32.409851
v 30.058228 112.367859 -23.300354
v 24.379272 112.367859 -23.300354
v 21.924988 108.187393 -19.961060
v 24.921265 104.658646 -17.235229
v 29.516174 104.658646 -17.235229
v 32.512329 108.187393 -19.961060
v -24.073059 0.003513 37.867126
v -30.364624 0.003517 37.867126
v -33.518372 0.003983 32.423981
v -30.375183 0.000004 26.962006
v -24.062500 0.000004 26.962006
v -20.919312 0.003986 32.423920
v -24.459412 83.152679 36.846313
v -29.978516 83.152679 36.846313
v -32.484497 81.892059 32.158386
v -29.726746 80.956894 27.825989
v -24.711060 80.956894 27.825989
v -21.953308 81.892059 32.158386
v -27.218872 1.780205 32.409821
v -24.379395 112.366898 23.301361
v -30.058472 112.366898 23.301361
v -32.512634 108.186691 19.960938
v -29.515686 104.659775 17.233337
v -24.922119 104.659775 17.233337
v -21.925171 108.186691 19.960938
v -24.220825 120.607346 -0.059753
v -30.216980 120.607346 -0.059753
v -33.039185 115.819321 -0.060760
v -30.067505 111.290741 -0.063171
v -24.370422 111.290741 -0.063171
v -21.398621 115.819321 -0.060760
v -24.073059 0.003513 -37.867126
v -30.364624 0.003517 -37.867126
v -33.518372 0.003979 -32.424011
v -30.375183 0.000004 -26.962006
v -24.062500 0.000000 -26.962006
v -20.919312 0.003986 -32.424011
v -24.459412 83.152679 -36.846252
v -29.978516 83.152679 -36.846252
v -32.484497 81.892059 -32.158325
v -29.726746 80.956894 -27.826019
v -24.711060 80.956894 -27.826019
v -21.953308 81.892059 -32.158386
v -27.218872 1.780205 -32.409851
v -24.379395 112.367859 -23.300354
v -30.058350 112.367859 -23.300354
v -32.512634 108.187393 -19.961060
v -29.516357 104.658646 -17.235229
v -24.921448 104.658646 -17.235229
v -21.925293 108.187393 -19.961060
vt 0.090978 0.355811
vt 0.090978 0.355811
vt 0.090978 0.355811
vt 0.090978 0.355811
vt 0.090978 0.355811
vt 0.090978 0.355811
vt 0.090978 0.355811
vt 0.090978 0.355811
vt 0.090978 0.355811
vt 0.090978 0.355811
vt 0.090978 0.355811
vt 0.090978 0.355811
vt 0.090978 0.355811
vt 0.090978 0.355811
vt 0.090978 0.355811
vt 0.090978 0.355811
vt 0.090978 0.355811
vt 0.090978 0.355811
vt 0.090978 0.355811
vt 0.090978 0.355811
vt 0.090978 0.355811
vt 0.090978 0.355811
vt 0.090978 0.355811
vt 0.090978 0.355811
vt 0.090978 0.355811
vt 0.090978 0.355811
vt 0.090978 0.355811
vt 0.090978 0.355811
vt 0.090978 0.355811
vt 0.090978 0.355811
vt 0.090978 0.355811
vt 0.090978 0.355811
vt 0.090978 0.355811
vt 0.090978 0.355811
vt 0.090978 0.355811
vt 0.090978 0.355811
vt 0.090978 0.355811
vt 0.090978 0.355811
vt 0.090978 0.355811
vt 0.090978 0.355811
vt 0.090978 0.355811
vt 0.090978 0.355811
vt 0.090978 0.355811
vt 0.090978 0.355811
vt 0.090978 0.355811
vt 0.090978 0.355811
vt 0.090978 0.355811
vt 0.090978 0.355811
vt 0.090978 0.355811
vt 0.090978 0.355811
vt 0.090978 0.355811
vt 0.090978 0.355811
vt 0.090978 0.355811
vt 0.090978 0.355811
vt 0.090978 0.355811
vt 0.090978 0.355811
vt 0.090978 0.355811
vt 0.090978 0.355811
vt 0.090978 0.355811
vt 0.090978 0.355811
vt 0.090978 0.355811
vt 0.090978 0.355811
vt 0.090978 0.355811
vt 0.090978 0.355811
vt 0.090978 0.355811
vt 0.090978 0.355811
vt 0.090978 0.355811
vt 0.090978 0.355811
vt 0.090978 0.355811
vt 0.090978 0.355811
vt 0.090978 0.355811
vt 0.090978 0.355811
vt 0.090978 0.355811
vt 0.090978 0.355811
vt 0.090978 0.355811
vt 0.090978 0.355811
vt 0.090978 0.355811
vt 0.090978 0.355811
vt 0.090978 0.355811
vt 0.090978 0.355811
vt 0.090978 0.355811
vt 0.090978 0.355811
vt 0.090978 0.355811
vt 0.090978 0.355811
vt 0.090978 0.355811
vt 0.090978 0.355811
vt 0.090978 0.355811
vt 0.090978 0.355811
vt 0.090978 0.355811
vt 0.090978 0.355811
vt 0.090978 0.355811
vt 0.090978 0.355811
vt 0.090978 0.355811
vt 0.090978 0.355811
vt 0.090978 0.355811
vt 0.090978 0.355811
vt 0.090978 0.355811
vt 0.090978 0.355811
vt 0.090978 0.355811
vt 0.090978 0.355811
vt 0.090978 0.355811
vt 0.090978 0.355811
vt 0.090978 0.355811
vt 0.090978 0.355811
vt 0.090978 0.355811
vt 0.090978 0.355811
vt 0.090978 0.355811
vt 0.090978 0.355811
vt 0.090978 0.355811
vt 0.090978 0.355811
vt 0.090978 0.355811
vt 0.090978 0.355811
vt 0.090978 0.355811
vt 0.090978 0.355811
vt 0.090978 0.355811
vt 0.090978 0.355811
vt 0.090978 0.355811
vt 0.090978 0.355811
vt 0.090978 0.355811
vt 0.090978 0.355811
vt 0.090978 0.355811
vt 0.090978 0.355811
vt 0.090978 0.355811
vt 0.090978 0.355811
vt 0.090978 0.355811
vt 0.090978 0.355811
vt 0.090978 0.355811
vt 0.090978 0.355811
vt 0.090978 0.355811
vt 0.090978 0.355811
vt 0.090978 0.355811
vt 0.090978 0.355811
vt 0.090978 0.355811
vt 0.090978 0.355811
vt 0.090978 0.355811
vt 0.090978 0.355811
vt 0.090978 0.355811
vt 0.090978 0.355811
vt 0.090978 0.355811
vt 0.090978 0.355811
vt 0.090978 0.355811
vt 0.090978 0.355811
vt 0.090978 0.355811
vt 0.090978 0.355811
vt 0.090978 0.355811
vt 0.090978 0.355811
vt 0.090978 0.355811
vt 0.090978 0.355811
vt 0.090978 0.355811
vt 0.090978 0.355811
vt 0.090978 0.355811
vt 0.090978 0.355811
vt 0.090978 0.355811
vt 0.090978 0.355811
vt 0.090978 0.355811
vt 0.090978 0.355811
vn -0.000000 0.012276 0.999925
vn -0.000000 0.012276 0.999925
vn -0.000000 0.012276 0.999925
vn -0.000000 0.012276 0.999925
vn -0.873550 0.011309 0.486603
vn -0.873550 0.011309 0.486603
vn -0.873550 0.011309 0.486603
vn -0.873550 0.011309 0.486603
vn -0.856046 0.010742 -0.516788
vn -0.856046 0.010742 -0.516788
vn -0.856046 0.010742 -0.516788
vn -0.856046 0.010742 -0.516788
vn 0.000000 0.010672 -0.999943
vn 0.000000 0.010672 -0.999943
vn 0.000000 0.010672 -0.999943
vn 0.000000 0.010672 -0.999943
vn 0.856044 0.010744 -0.516791
vn 0.856045 0.010744 -0.516791
vn 0.856044 0.010744 -0.516791
vn 0.856044 0.010744 -0.516790
vn 0.873545 0.011311 0.486612
vn 0.873545 0.011311 0.486612
vn 0.873545 0.011311 0.486612
vn 0.873545 0.011311 0.486612
vn 0.135516 -0.962448 -0.235221
vn 0.000001 -1.000000 0.000651
vn -0.135517 -0.962449 -0.235219
vn 0.271381 -0.962472 -0.000047
vn 0.000001 -1.000000 0.000651
vn 0.135516 -0.962448 -0.235221
vn 0.135871 -0.962274 0.235727
vn 0.000001 -1.000000 0.000651
vn 0.271381 -0.962472 -0.000047
vn -0.135871 -0.962275 0.235725
vn 0.000001 -1.000000 0.000651
vn 0.135871 -0.962274 0.235727
vn -0.271375 -0.962474 -0.000048
vn 0.000001 -1.000000 0.000651
vn -0.135871 -0.962275 0.235725
vn -0.135517 -0.962449 -0.235219
vn 0.000001 -1.000000 0.000651
vn -0.271375 -0.962474 -0.000048
vn 0.000000 0.420631 0.907232
vn 0.000000 0.420631 0.907232
vn 0.000000 0.420631 0.907232
vn 0.000000 0.420631 0.907232
vn -0.887775 0.192220 0.418218
vn -0.887775 0.192220 0.418218
vn -0.887775 0.192220 0.418218
vn -0.887775 0.192220 0.418218
vn -0.820805 -0.234429 -0.520885
vn -0.820805 -0.234429 -0.520885
vn -0.820805 -0.234429 -0.520885
vn -0.820805 -0.234429 -0.520885
vn 0.000000 -0.408004 -0.912980
vn 0.000000 -0.408004 -0.912980
vn 0.000000 -0.408004 -0.912980
vn 0.000000 -0.408004 -0.912980
vn 0.820805 -0.234429 -0.520885
vn 0.820805 -0.234429 -0.520885
vn 0.820805 -0.234429 -0.520885
vn 0.820805 -0.234429 -0.520885
vn 0.887766 0.192228 0.418235
vn 0.887766 0.192228 0.418235
vn 0.887766 0.192228 0.418234
vn 0.887766 0.192228 0.418235
vn 0.000000 0.943049 0.332653
vn 0.000000 0.943049 0.332653
vn 0.000000 0.943049 0.332653
vn 0.000000 0.943049 0.332653
vn -0.875686 0.448853 0.178057
vn -0.875686 0.448853 0.178057
vn -0.875686 0.448853 0.178057
vn -0.875686 0.448853 0.178057
vn -0.818561 -0.544054 -0.184291
vn -0.818561 -0.544054 -0.184291
vn -0.818561 -0.544054 -0.184291
vn -0.818561 -0.544054 -0.184291
vn 0.000000 -0.933735 -0.357966
vn 0.000000 -0.933735 -0.357966
vn 0.000000 -0.933735 -0.357966
vn 0.000000 -0.933735 -0.357966
vn 0.818556 -0.544060 -0.184296
vn 0.818556 -0.544060 -0.184296
vn 0.818556 -0.544060 -0.184296
vn 0.818556 -0.544060 -0.184296
vn 0.875681 0.448861 0.178063
vn 0.875681 0.448861 0.178063
vn 0.875681 0.448861 0.178063
vn 0.875681 0.448861 0.178063
vn 0.000000 0.012277 -0.999925
vn 0.000000 0.012277 -0.999925
vn 0.000000 0.012277 -0.999925
vn 0.000000 0.012277 -0.999925
vn -0.873550 0.011309 -0.486604
vn -0.873550 0.011309 -0.486604
vn -0.873550 0.011309 -0.486603
vn -0.873550 0.011309 -0.486604
vn -0.856044 0.010742 0.516791
vn -0.856044 0.010742 0.516791
vn -0.856044 0.010742 0.516791
vn -0.856044 0.010742 0.516791
vn 0.000000 0.010672 0.999943
vn 0.000000 0.010672 0.999943
vn 0.000000 0.010672 0.999943
vn 0.000000 0.010672 0.999943
vn 0.856046 0.010744 0.516788
vn 0.856046 0.010744 0.516788
vn 0.856046 0.010744 0.516788
vn 0.856046 0.010744 0.516788
vn 0.873542 0.011312 -0.486618
vn 0.873542 0.011312 -0.486618
vn 0.873542 0.011312 -0.486618
vn 0.873542 0.011312 -0.486618
vn 0.135516 -0.962448 0.235222
vn -0.135516 -0.962448 0.235221
vn 0.000001 -1.000000 -0.000651
vn 0.271381 -0.962472 0.000047
vn 0.135516 -0.962448 0.235222
vn 0.000001 -1.000000 -0.000651
vn 0.135870 -0.962275 -0.235726
vn 0.271381 -0.962472 0.000047
vn 0.000001 -1.000000 -0.000651
vn -0.135871 -0.962275 -0.235724
vn 0.135870 -0.962275 -0.235726
vn 0.000001 -1.000000 -0.000651
vn -0.271375 -0.962474 0.000048
vn -0.135871 -0.962275 -0.235724
vn 0.000001 -1.000000 -0.000651
vn -0.135516 -0.962448 0.235221
vn -0.271375 -0.962474 0.000048
vn 0.000001 -1.000000 -0.000651
vn 0.000000 0.420644 -0.907226
vn 0.000000 0.420644 -0.907226
vn 0.000000 0.420644 -0.907226
vn 0.000000 0.420644 -0.907226
vn -0.887750 0.192243 -0.418260
vn -0.887750 0.192243 -0.418261
vn -0.887751 0.192243 -0.418261
vn -0.887751 0.192243 -0.418261
vn -0.820806 -0.234422 0.520888
vn -0.820806 -0.234422 0.520888
vn -0.820806 -0.234422 0.520888
vn -0.820806 -0.234422 0.520888
vn 0.000000 -0.407961 0.912999
vn 0.000000 -0.407961 0.912999
vn 0.000000 -0.407961 0.913000
vn 0.000000 -0.407961 0.913000
vn 0.820813 -0.234417 0.520879
vn 0.820813 -0.234417 0.520879
vn 0.820813 -0.234417 0.520879
vn 0.820813 -0.234417 0.520879
vn 0.887752 0.192241 -0.418259
vn 0.887752 0.192241 -0.418259
vn 0.887752 0.192241 -0.418259
vn 0.887752 0.192241 -0.418259
vn 0.000000 0.942520 -0.334151
vn 0.000000 0.942520 -0.334151
vn 0.000000 0.942520 -0.334151
vn 0.000000 0.942520 -0.334151
vn -0.875651 0.448572 -0.178938
vn -0.875651 0.448572 -0.178938
vn -0.875651 0.448572 -0.178938
vn -0.875651 0.448572 -0.178938
vn -0.818579 -0.543657 0.185381
vn -0.818579 -0.543657 0.185381
vn -0.818579 -0.543657 0.185381
vn -0.818579 -0.543657 0.185381
vn 0.000000 -0.932845 0.360278
vn 0.000000 -0.932845 0.360278
vn 0.000000 -0.932845 0.360278
vn 0.000000 -0.932845 0.360278
vn 0.818579 -0.543657 0.185381
vn 0.818579 -0.543657 0.185381
vn 0.818579 -0.543657 0.185381
vn 0.818579 -0.543657 0.185381
vn 0.875658 0.448560 -0.178935
vn 0.875658 0.448560 -0.178935
vn 0.875658 0.448560 -0.178935
vn 0.875658 0.448560 -0.178935
vn -0.000000 0.012276 0.999925
vn -0.000000 0.012276 0.999925
vn -0.000000 0.012276 0.999925
vn -0.000000 0.012276 0.999925
vn -0.873550 0.011309 0.486603
vn -0.873550 0.011309 0.486603
vn -0.873550 0.011309 0.486603
vn -0.873550 0.011309 0.486603
vn -0.856048 0.010743 -0.516784
vn -0.856048 0.010743 -0.516784
vn -0.856048 0.010743 -0.516784
vn -0.856048 0.010743 -0.516784
vn 0.000000 0.010672 -0.999943
vn 0.000000 0.010672 -0.999943
vn 0.000000 0.010672 -0.999943
vn 0.000000 0.010672 -0.999943
vn 0.856047 0.010744 -0.516787
vn 0.856047 0.010744 -0.516787
vn 0.856047 0.010744 -0.516787
vn 0.856047 0.010744 -0.516787
vn 0.873547 0.011311 0.486608
vn 0.873547 0.011311 0.486608
vn 0.873547 0.011311 0.486608
vn 0.873547 0.011311 0.486608
vn 0.135516 -0.962448 -0.235221
vn 0.000001 -1.000000 0.000651
vn -0.135517 -0.962448 -0.235219
vn 0.271381 -0.962472 -0.000048
vn 0.000001 -1.000000 0.000651
vn 0.135516 -0.962448 -0.235221
vn 0.135871 -0.962275 0.235726
vn 0.000001 -1.000000 0.000651
vn 0.271381 -0.962472 -0.000048
vn -0.135870 -0.962275 0.235725
vn 0.000001 -1.000000 0.000651
vn 0.135871 -0.962275 0.235726
vn -0.271378 -0.962473 -0.000048
vn 0.000001 -1.000000 0.000651
vn -0.135870 -0.962275 0.235725
vn -0.135517 -0.962448 -0.235219
vn 0.000001 -1.000000 0.000651
vn -0.271378 -0.962473 -0.000048
vn 0.000000 0.420631 0.907232
vn 0.000000 0.420631 0.907232
vn 0.000000 0.420631 0.907232
vn 0.000000 0.420631 0.907232
vn -0.887773 0.192223 0.418222
vn -0.887773 0.192223 0.418222
vn -0.887773 0.192223 0.418222
vn -0.887773 0.192223 0.418222
vn -0.820805 -0.234429 -0.520885
vn -0.820805 -0.234429 -0.520885
vn -0.820805 -0.234429 -0.520885
vn -0.820805 -0.234429 -0.520885
vn 0.000000 -0.408004 -0.912980
vn 0.000000 -0.408004 -0.912980
vn 0.000000 -0.408004 -0.912980
vn 0.000000 -0.408004 -0.912980
vn 0.820805 -0.234429 -0.520885
vn 0.820805 -0.234429 -0.520885
vn 0.820805 -0.234429 -0.520885
vn 0.820805 -0.234429 -0.520885
vn 0.887766 0.192228 0.418235
vn 0.887766 0.192228 0.418235
vn 0.887766 0.192228 0.418234
vn 0.887766 0.192228 0.418235
vn 0.000000 0.943049 0.332653
vn 0.000000 0.943049 0.332653
vn 0.000000 0.943049 0.332653
vn 0.000000 0.943049 0.332653
vn -0.875684 0.448858 0.178058
vn -0.875684 0.448858 0.178058
vn -0.875684 0.448858 0.178058
vn -0.875684 0.448858 0.178058
vn -0.818564 -0.544050 -0.184291
vn -0.818564 -0.544049 -0.184291
vn -0.818564 -0.544049 -0.184291
vn -0.818564 -0.544050 -0.184291
vn 0.000000 -0.933735 -0.357966
vn 0.000000 -0.933735 -0.357966
vn 0.000000 -0.933735 -0.357966
vn 0.000000 -0.933735 -0.357966
vn 0.818559 -0.544056 -0.184296
vn 0.818559 -0.544056 -0.184296
vn 0.818559 -0.544056 -0.184296
vn 0.818559 -0.544056 -0.184296
vn 0.875681 0.448862 0.178060
vn 0.875681 0.448862 0.178060
vn 0.875681 0.448862 0.178060
vn 0.875681 0.448862 0.178060
vn 0.000000 0.012277 -0.999925
vn 0.000000 0.012277 -0.999925
vn 0.000000 0.012277 -0.999925
vn 0.000000 0.012277 -0.999925
vn -0.873550 0.011309 -0.486604
vn -0.873550 0.011309 -0.486604
vn -0.873550 0.011309 -0.486603
vn -0.873550 0.011309 -0.486604
vn -0.856047 0.010742 0.516787
vn -0.856047 0.010742 0.516787
vn -0.856047 0.010742 0.516787
vn -0.856047 0.010742 0.516787
vn 0.000000 0.010672 0.999943
vn 0.000000 0.010672 0.999943
vn 0.000000 0.010672 0.999943
vn 0.000000 0.010672 0.999943
vn 0.856048 0.010744 0.516784
vn 0.856048 0.010744 0.516784
vn 0.856048 0.010744 0.516784
vn 0.856048 0.010744 0.516784
vn 0.873544 0.011311 -0.486614
vn 0.873544 0.011311 -0.486614
vn 0.873544 0.011311 -0.486614
vn 0.873544 0.011311 -0.486614
vn 0.135516 -0.962448 0.235222
vn -0.135517 -0.962448 0.235221
vn 0.000001 -1.000000 -0.000651
vn 0.271381 -0.962472 0.000048
vn 0.135516 -0.962448 0.235222
vn 0.000001 -1.000000 -0.000651
vn 0.135870 -0.962275 -0.235725
vn 0.271381 -0.962472 0.000048
vn 0.000001 -1.000000 -0.000651
vn -0.135871 -0.962275 -0.235724
vn 0.135870 -0.962275 -0.235725
vn 0.000001 -1.000000 -0.000651
vn -0.271378 -0.962473 0.000048
vn -0.135871 -0.962275 -0.235724
vn 0.000001 -1.000000 -0.000651
vn -0.135517 -0.962448 0.235221
vn -0.271378 -0.962473 0.000048
vn 0.000001 -1.000000 -0.000651
vn 0.000000 0.420644 -0.907226
vn 0.000000 0.420644 -0.907226
vn 0.000000 0.420644 -0.907226
vn 0.000000 0.420644 -0.907226
vn -0.887750 0.192243 -0.418260
vn -0.887750 0.192243 -0.418261
vn -0.887750 0.192243 -0.418260
vn -0.887750 0.192243 -0.418261
vn -0.820806 -0.234422 0.520888
vn -0.820806 -0.234422 0.520888
vn -0.820806 -0.234422 0.520888
vn -0.820806 -0.234422 0.520888
vn 0.000000 -0.407961 0.912999
vn 0.000000 -0.407961 0.912999
vn 0.000000 -0.407961 0.913000
vn 0.000000 -0.407961 0.913000
vn 0.820813 -0.234417 0.520879
vn 0.820813 -0.234417 0.520879
vn 0.820813 -0.234417 0.520879
vn 0.820813 -0.234417 0.520879
vn 0.887752 0.192241 -0.418259
vn 0.887752 0.192241 -0.418259
vn 0.887752 0.192241 -0.418259
vn 0.887752 0.192241 -0.418259
vn 0.000000 0.942519 -0.334151
vn 0.000000 0.942519 -0.334151
vn 0.000000 0.942519 -0.334151
vn 0.000000 0.942519 -0.334151
vn -0.875651 0.448573 -0.178936
vn -0.875651 0.448573 -0.178936
vn -0.875651 0.448573 -0.178936
vn -0.875651 0.448573 -0.178936
vn -0.818581 -0.543653 0.185381
vn -0.818581 -0.543653 0.185381
vn -0.818581 -0.543653 0.185381
vn -0.818581 -0.543653 0.185381
vn 0.000000 -0.932845 0.360278
vn 0.000000 -0.932845 0.360278
vn 0.000000 -0.932845 0.360278
vn 0.000000 -0.932845 0.360278
vn 0.818581 -0.543653 0.185381
vn 0.818581 -0.543653 0.185381
vn 0.818581 -0.543653 0.185381
vn 0.818581 -0.543653 0.185381
vn 0.875658 0.448560 -0.178933
vn 0.875658 0.448560 -0.178933
vn 0.875658 0.448560 -0.178933
vn 0.875658 0.448560 -0.178933
s off
f 1/7/1 7/14/2 8/15/3 2/8/4
f 2/8/5 8/15/6 9/16/7 3/9/8
f 3/9/9 9/16/10 10/17/11 4/10/12
f 4/10/13 10/17/14 11/18/15 5/11/16
f 5/11/17 11/18/18 12/19/19 6/12/20
f 6/12/21 12/19/22 7/20/23 1/13/24
f 2/2/25 13/27/26 1/1/27
f 3/3/28 13/27/29 2/2/30
f 4/4/31 13/27/32 3/3/33
f 5/5/34 13/27/35 4/4/36
f 6/6/37 13/27/38 5/5/39
f 1/1/40 13/27/41 6/6/42
f 7/25/43 14/28/44 15/29/45 8/24/46
f 8/24/47 15/29/48 16/30/49 9/23/50
f 9/23/51 16/30/52 17/31/53 10/22/54
f 10/22/55 17/31/56 18/32/57 11/21/58
f 11/21/59 18/32/60 19/33/61 12/26/62
f 12/26/63 19/33/64 14/28/65 7/25/66
f 14/28/67 20/34/68 21/35/69 15/29/70
f 15/29/71 21/35/72 22/36/73 16/30/74
f 16/30/75 22/36/76 23/37/77 17/31/78
f 17/31/79 23/37/80 24/38/81 18/32/82
f 18/32/83 24/38/84 25/39/85 19/33/86
f 19/33/87 25/39/88 20/34/89 14/28/90
f 26/40/91 27/41/92 33/42/93 32/43/94
f 27/41/95 28/44/96 34/45/97 33/42/98
f 28/44/99 29/46/100 35/47/101 34/45/102
f 29/46/103 30/48/104 36/49/105 35/47/106
f 30/48/107 31/50/108 37/51/109 36/49/110
f 31/50/111 26/52/112 32/53/113 37/51/114
f 27/54/115 26/55/116 38/56/117
f 28/57/118 27/54/119 38/56/120
f 29/58/121 28/57/122 38/56/123
f 30/59/124 29/58/125 38/56/126
f 31/60/127 30/59/128 38/56/129
f 26/55/130 31/60/131 38/56/132
f 32/61/133 33/62/134 40/63/135 39/64/136
f 33/62/137 34/65/138 41/66/139 40/63/140
f 34/65/141 35/67/142 42/68/143 41/66/144
f 35/67/145 36/69/146 43/70/147 42/68/148
f 36/69/149 37/71/150 44/72/151 43/70/152
f 37/71/153 32/61/154 39/64/155 44/72/156
f 39/64/157 40/63/158 21/73/159 20/74/160
f 40/63/161 41/66/162 22/75/163 21/73/164
f 41/66/165 42/68/166 23/76/167 22/75/168
f 42/68/169 43/70/170 24/77/171 23/76/172
f 43/70/173 44/72/174 25/78/175 24/77/176
f 44/72/177 39/64/178 20/74/179 25/78/180
f 45/79/181 51/80/182 52/81/183 46/82/184
f 46/82/185 52/81/186 53/83/187 47/84/188
f 47/84/189 53/83/190 54/85/191 48/86/192
f 48/86/193 54/85/194 55/87/195 49/88/196
f 49/88/197 55/87/198 56/89/199 50/90/200
f 50/90/201 56/89/202 51/91/203 45/92/204
f 46/93/205 57/94/206 45/95/207
f 47/96/208 57/94/209 46/93/210
f 48/97/211 57/94/212 47/96/213
f 49/98/214 57/94/215 48/97/216
f 50/99/217 57/94/218 49/98/219
f 45/95/220 57/94/221 50/99/222
f 51/100/223 58/101/224 59/102/225 52/103/226
f 52/103/227 59/102/228 60/104/229 53/105/230
f 53/105/231 60/104/232 61/106/233 54/107/234
f 54/107/235 61/106/236 62/108/237 55/109/238
f 55/109/239 62/108/240 63/110/241 56/111/242
f 56/111/243 63/110/244 58/101/245 51/100/246
f 58/101/247 64/112/248 65/113/249 59/102/250
f 59/102/251 65/113/252 66/114/253 60/104/254
f 60/104/255 66/114/256 67/115/257 61/106/258
f 61/106/259 67/115/260 68/116/261 62/108/262
f 62/108/263 68/116/264 69/117/265 63/110/266
f 63/110/267 69/117/268 64/112/269 58/101/270
f 70/118/271 71/119/272 77/120/273 76/121/274
f 71/119/275 72/122/276 78/123/277 77/120/278
f 72/122/279 73/124/280 79/125/281 78/123/282
f 73/124/283 74/126/284 80/127/285 79/125/286
f 74/126/287 75/128/288 81/129/289 80/127/290
f 75/128/291 70/130/292 76/131/293 81/129/294
f 71/132/295 70/133/296 82/134/297
f 72/135/298 71/132/299 82/134/300
f 73/136/301 72/135/302 82/134/303
f 74/137/304 73/136/305 82/134/306
f 75/138/307 74/137/308 82/134/309
f 70/133/310 75/138/311 82/134/312
f 76/139/313 77/140/314 84/141/315 83/142/316
f 77/140/317 78/143/318 85/144/319 84/141/320
f 78/143/321 79/145/322 86/146/323 85/144/324
f 79/145/325 80/147/326 87/148/327 86/146/328
f 80/147/329 81/149/330 88/150/331 87/148/332
f 81/149/333 76/139/334 83/142/335 88/150/336
f 83/142/337 84/141/338 65/151/339 64/152/340
f 84/141/341 85/144/342 66/153/343 65/151/344
f 85/144/345 86/146/346 67/154/347 66/153/348
f 86/146/349 87/148/350 68/155/351 67/154/352
f 87/148/353 88/150/354 69/156/355 68/155/356
f 88/150/357 83/142/358 64/152/359 69/156/360
