# This file uses centimeters as units for non-parametric coordinates.

v -6.874429 0.788050 4.630936
v 6.874429 0.788050 4.630936
v -6.874429 0.788050 -4.630936
v 6.874429 0.788050 -4.630936
v -6.874429 0.000000 -4.630936
v 6.874429 0.000000 -4.630936
v -6.874429 0.000000 4.630936
v 6.874429 0.000000 4.630936
v 7.543895 0.000000 3.623497
v 7.543895 0.788050 3.623497
v 7.543895 0.000000 -3.623505
v 7.543895 0.788050 -3.623505
v -7.543895 0.000000 3.623497
v -7.543895 0.788050 3.623497
v -7.543895 0.788050 -3.623505
v -7.543895 0.000000 -3.623505
vt 0.307960 0.326083
vt 0.359523 0.326083
vt 0.359523 0.357473
vt 0.307960 0.357473
vt 0.333858 0.334084
vt 0.359490 0.357473
vt 0.307927 0.326083
vt 0.333858 0.334084
vt 0.362033 0.329498
vt 0.305416 0.329498
vt 0.333858 0.334084
vt 0.362033 0.354058
vt 0.333858 0.334084
vt 0.305449 0.329498
vt 0.305449 0.354058
vt 0.362001 0.354058
vt 0.333858 0.334083
vt 0.362001 0.329498
vt 0.333858 0.334083
vt 0.359490 0.326083
vt 0.305416 0.354058
vt 0.333858 0.334083
vt 0.307927 0.357473
vt 0.333858 0.334083
vt 0.333858 0.334083
vt 0.333858 0.334083
vt 0.333858 0.334083
vt 0.333858 0.334083
vt 0.333858 0.334083
vt 0.333858 0.334083
vt 0.333858 0.334083
vt 0.333858 0.334083
vn 0.000000 1.000000 0.000000
vn 0.000000 1.000000 0.000000
vn 0.000000 1.000000 0.000000
vn 0.000000 1.000000 0.000000
vn 0.000000 0.000000 -1.000000
vn 0.000000 0.000000 -1.000000
vn 0.000000 0.000000 -1.000000
vn 0.000000 0.000000 -1.000000
vn 0.000000 -1.000000 -0.000000
vn 0.000000 -1.000000 -0.000000
vn 0.000000 -1.000000 -0.000000
vn 0.000000 -1.000000 -0.000000
vn 0.000000 0.000000 1.000000
vn 0.000000 0.000000 1.000000
vn 0.000000 0.000000 1.000000
vn 0.000000 0.000000 1.000000
vn 1.000000 0.000000 0.000000
vn 1.000000 0.000000 0.000000
vn 1.000000 0.000000 0.000000
vn 1.000000 0.000000 0.000000
vn -1.000000 0.000000 0.000000
vn -1.000000 0.000000 0.000000
vn -1.000000 0.000000 0.000000
vn -1.000000 0.000000 0.000000
vn 0.832874 0.000000 0.553464
vn 0.832874 0.000000 0.553464
vn 0.832874 0.000000 0.553464
vn 0.832873 0.000000 0.553464
vn -0.000000 -1.000000 -0.000000
vn -0.000000 -1.000000 -0.000000
vn -0.000000 -1.000000 -0.000000
vn -0.000000 -1.000000 -0.000000
vn 0.832872 0.000000 -0.553466
vn 0.832872 0.000000 -0.553466
vn 0.832872 0.000000 -0.553466
vn 0.832872 0.000000 -0.553466
vn -0.000000 1.000000 0.000000
vn -0.000000 1.000000 0.000000
vn -0.000000 1.000000 0.000000
vn -0.000000 1.000000 0.000000
vn -0.832874 0.000000 0.553464
vn -0.832874 0.000000 0.553464
vn -0.832873 0.000000 0.553464
vn -0.832874 0.000000 0.553464
vn 0.000000 1.000000 0.000000
vn 0.000000 1.000000 0.000000
vn 0.000000 1.000000 0.000000
vn 0.000000 1.000000 0.000000
vn -0.832872 0.000000 -0.553466
vn -0.832872 0.000000 -0.553466
vn -0.832872 0.000000 -0.553466
vn -0.832872 0.000000 -0.553466
vn 0.000000 -1.000000 -0.000000
vn 0.000000 -1.000000 -0.000000
vn 0.000000 -1.000000 -0.000000
vn 0.000000 -1.000000 -0.000000
s off
f 1/1/1 2/2/2 4/3/3 3/4/4
f 3/5/5 4/8/6 6/11/7 5/13/8
f 5/6/9 6/23/10 8/7/11 7/20/12
f 7/17/13 8/19/14 2/22/15 1/24/16
f 10/25/17 9/26/18 11/27/19 12/28/20
f 13/29/21 14/30/22 15/31/23 16/32/24
f 2/22/25 8/19/26 9/26/27 10/25/28
f 8/7/29 6/23/30 11/21/31 9/10/32
f 6/11/33 4/8/34 12/28/35 11/27/36
f 4/3/37 2/2/38 10/9/39 12/12/40
f 7/17/41 1/24/42 14/30/43 13/29/44
f 1/1/45 3/4/46 15/15/47 14/14/48
f 3/5/49 5/13/50 16/32/51 15/31/52
f 5/6/53 7/20/54 13/18/55 16/16/56
