# This file uses centimeters as units for non-parametric coordinates.

v -250.000000 57.038136 69.273750
v 250.000000 57.038136 69.273750
v -250.000000 71.893555 69.273750
v 250.000000 67.013962 69.273758
v -250.000000 71.893555 -101.233963
v 250.000000 71.893555 -101.233963
v -250.000000 57.038136 -101.233963
v 250.000000 57.038136 -101.233963
v -230.418823 57.038136 -85.565353
v 230.418823 57.038136 -85.565353
v 230.418823 57.038136 53.605152
v -230.418823 57.038136 53.605152
v -230.418823 0.000015 -85.565353
v 230.418823 0.000015 -85.565353
v 230.418823 0.000015 53.605152
v -230.418823 0.000015 53.605152
v -222.267288 71.893555 69.273750
v -85.436295 71.893555 69.273750
v -175.731964 71.893555 61.106853
v -202.354233 65.317169 69.273758
v 227.757141 71.893555 69.273750
v 250.000000 71.893555 54.188297
v 96.139008 71.893555 -101.233963
v 182.243500 71.893555 -101.233963
v 138.056992 57.038136 -101.233963
v 123.662460 71.893555 -91.449165
v -250.000000 71.893555 -31.813793
v -250.000000 71.893555 -81.496834
v -231.266052 71.893555 -60.151981
v -250.000000 63.808434 -65.603592
vt 0.123811 0.328848
vt 0.123811 0.328848
vt 0.123811 0.328848
vt 0.123811 0.328848
vt 0.123811 0.328848
vt 0.123811 0.328848
vt 0.123811 0.328848
vt 0.123811 0.328848
vt 0.123811 0.328848
vt 0.123811 0.328848
vt 0.123811 0.328848
vt 0.123811 0.328848
vt 0.123811 0.328848
vt 0.123811 0.328848
vt 0.123811 0.328848
vt 0.123811 0.328848
vt 0.123811 0.328848
vt 0.123811 0.328848
vt 0.080444 0.301247
vt 0.080444 0.301247
vt 0.080444 0.301247
vt 0.080444 0.301247
vt 0.080444 0.301247
vt 0.080444 0.301247
vt 0.080444 0.301247
vt 0.080444 0.301247
vt 0.123811 0.328848
vt 0.123811 0.328848
vt 0.123811 0.328848
vt 0.123811 0.328848
vt 0.123811 0.328848
vt 0.123811 0.328848
vt 0.123811 0.328848
vt 0.123811 0.328848
vt 0.123811 0.328848
vt 0.123811 0.328848
vt 0.123811 0.328848
vt 0.123811 0.328848
vt 0.123811 0.328848
vt 0.123811 0.328848
vt 0.123811 0.328848
vt 0.123811 0.328848
vt 0.123811 0.328848
vt 0.123811 0.328848
vn -0.000000 -0.000000 1.000000
vn -0.000000 -0.000000 1.000000
vn -0.000000 -0.000000 1.000000
vn -0.000000 -0.000000 1.000000
vn -0.000000 -0.000000 1.000000
vn -0.000000 -0.000000 1.000000
vn -0.000000 -0.000000 1.000000
vn -0.000000 -0.000000 1.000000
vn 0.000000 1.000000 0.000000
vn 0.000000 1.000000 0.000000
vn 0.000000 1.000000 0.000000
vn 0.000000 1.000000 0.000000
vn 0.000000 1.000000 0.000000
vn 0.000000 1.000000 0.000000
vn 0.000000 1.000000 0.000000
vn 0.000000 1.000000 0.000000
vn 0.000000 1.000000 0.000000
vn 0.000000 1.000000 0.000000
vn 0.000000 1.000000 0.000000
vn 0.000000 1.000000 0.000000
vn 0.000000 1.000000 0.000000
vn 0.000000 1.000000 0.000000
vn 0.000000 0.000000 -1.000000
vn 0.000000 0.000000 -1.000000
vn 0.000000 0.000000 -1.000000
vn 0.000000 0.000000 -1.000000
vn 0.000000 -1.000000 0.000000
vn 0.000000 -1.000000 0.000000
vn 0.000000 -1.000000 0.000000
vn 0.000000 -1.000000 0.000000
vn 1.000000 0.000002 0.000000
vn 1.000000 0.000002 0.000000
vn 1.000000 0.000002 0.000000
vn 1.000000 0.000002 0.000000
vn 1.000000 0.000002 0.000000
vn -1.000000 0.000001 0.000000
vn -1.000000 0.000001 0.000000
vn -1.000000 0.000001 0.000000
vn -1.000000 0.000001 0.000000
vn -1.000000 0.000001 0.000000
vn -1.000000 0.000001 0.000000
vn -1.000000 0.000001 0.000000
vn 0.000000 -1.000000 -0.000000
vn 0.000000 -1.000000 -0.000000
vn 0.000000 -1.000000 -0.000000
vn 0.000000 -1.000000 -0.000000
vn 0.000000 -1.000000 -0.000000
vn 0.000000 -1.000000 0.000000
vn 0.000000 -1.000000 0.000000
vn 0.000000 -1.000000 0.000000
vn 0.000000 -1.000000 0.000000
vn 0.000000 -1.000000 0.000000
vn 0.000000 -1.000000 0.000000
vn 0.000000 -1.000000 0.000000
vn 0.000000 -1.000000 0.000000
vn 0.000000 -1.000000 0.000000
vn 0.000000 -1.000000 0.000000
vn 0.000000 -1.000000 0.000000
vn 0.000000 -1.000000 0.000000
vn 0.000000 0.000000 -1.000000
vn 0.000000 0.000000 -1.000000
vn 0.000000 0.000000 -1.000000
vn 0.000000 0.000000 -1.000000
vn 1.000000 0.000000 0.000000
vn 1.000000 0.000000 0.000000
vn 1.000000 0.000000 0.000000
vn 1.000000 0.000000 0.000000
vn 0.000000 0.000000 1.000000
vn 0.000000 0.000000 1.000000
vn 0.000000 0.000000 1.000000
vn 0.000000 0.000000 1.000000
vn -1.000000 0.000000 0.000000
vn -1.000000 0.000000 0.000000
vn -1.000000 0.000000 0.000000
vn -1.000000 0.000000 0.000000
vn -0.047710 0.848214 0.527500
vn -0.047710 0.848214 0.527500
vn -0.047710 0.848214 0.527500
vn 0.153148 0.463727 0.872641
vn 0.153148 0.463727 0.872641
vn 0.153148 0.463727 0.872641
vn 0.204326 0.931390 0.301270
vn 0.204326 0.931390 0.301270
vn 0.204326 0.931390 0.301270
vn 0.000000 0.000000 -1.000000
vn 0.000000 0.000000 -1.000000
vn 0.000000 0.000000 -1.000000
vn 0.000000 0.000000 -1.000000
vn -0.147940 0.440038 -0.885709
vn -0.147940 0.440038 -0.885709
vn -0.147940 0.440038 -0.885709
vn -0.332039 0.917370 -0.219506
vn -0.332039 0.917370 -0.219506
vn -0.332039 0.917370 -0.219506
vn -0.458979 0.791872 0.402836
vn -0.458979 0.791872 0.402836
vn -0.458979 0.791872 0.402836
vn 0.243436 0.686911 -0.684757
vn 0.243436 0.686911 -0.684757
vn 0.243436 0.686911 -0.684757
s off
f 1/1/1 2/2/2 4/4/3 21/31/4 18/28/5 20/30/6 17/27/7 3/3/8
f 3/3/9 17/27/10 19/29/11 18/28/12 21/31/13 22/32/14 6/6/15 24/35/16 26/37/17 23/34/18 5/5/19 28/41/20 29/42/21 27/39/22
f 5/5/23 23/34/24 25/36/25 7/7/26
f 13/19/27 14/20/28 15/21/29 16/22/30
f 2/2/31 8/11/32 6/12/33 22/33/34 4/4/35
f 7/13/36 1/1/37 3/3/38 27/38/39 30/43/40 28/40/41 5/14/42
f 7/7/43 25/36/44 8/8/45 10/16/46 9/15/47
f 8/8/48 2/10/49 11/17/50 10/16/51
f 2/10/52 1/9/53 12/18/54 11/17/55
f 1/9/56 7/7/57 9/15/58 12/18/59
f 9/23/60 10/24/61 14/20/62 13/19/63
f 10/24/64 11/25/65 15/21/66 14/20/67
f 11/25/68 12/26/69 16/22/70 15/21/71
f 12/26/72 9/23/73 13/19/74 16/22/75
f 18/28/76 19/29/77 20/30/78
f 20/30/79 19/29/80 17/27/81
f 22/32/82 21/31/83 4/4/84
f 25/36/85 24/35/86 6/6/87 8/8/88
f 25/36/89 26/37/90 24/35/91
f 27/39/92 29/42/93 30/44/94
f 30/44/95 29/42/96 28/41/97
f 25/36/98 23/34/99 26/37/100
