# This file uses centimeters as units for non-parametric coordinates.

v -3.771643 3.192518 9.715647
v 3.771649 3.192518 9.715647
v -3.771643 3.192518 -9.715646
v 3.771649 3.192518 -9.715646
v -3.771643 1.379213 -9.715647
v 3.771649 1.379213 -9.715647
v -3.771643 1.379214 9.715646
v 3.771649 1.379214 9.715646
v -3.771643 4.571732 -5.615702
v 3.771649 4.571732 -5.615702
v 3.771649 0.000000 -5.615702
v -3.771643 0.000000 -5.615702
v -3.771643 4.571732 6.242850
v 3.771649 4.571732 6.242850
v 3.771649 -0.000000 6.242849
v -3.771643 -0.000000 6.242849
v 3.771649 0.000000 -1.807826
v 3.771649 4.571732 -1.807826
v -3.771643 4.571732 -1.807826
v -3.771643 0.000000 -1.807826
vt 0.431444 0.488712
vt 0.430491 0.488712
vt 0.430505 0.488195
vt 0.431451 0.488194
vt 0.430524 0.488199
vt 0.431460 0.488198
vt 0.430540 0.488706
vt 0.431467 0.488707
vt 0.172191 0.400589
vt 0.171552 0.400586
vt 0.171538 0.400602
vt 0.172185 0.400605
vt 0.172181 0.400317
vt 0.171528 0.400315
vt 0.171526 0.399618
vt 0.172181 0.399619
vt 0.171561 0.400283
vt 0.171560 0.399605
vt 0.172196 0.399606
vt 0.172196 0.400285
vt 0.430492 0.489193
vt 0.430541 0.489175
vt 0.431444 0.489194
vt 0.431467 0.489176
vn -0.000000 0.947808 -0.318841
vn -0.000000 0.947808 -0.318841
vn -0.000000 0.947808 -0.318841
vn -0.000000 0.947808 -0.318841
vn 0.000000 -0.000000 -1.000000
vn 0.000000 -0.000000 -1.000000
vn 0.000000 -0.000000 -1.000000
vn 0.000000 -0.000000 -1.000000
vn 0.000000 -0.947808 -0.318841
vn 0.000000 -0.947808 -0.318841
vn 0.000000 -0.947808 -0.318841
vn 0.000000 -0.947808 -0.318841
vn 0.000000 0.000000 1.000000
vn 0.000000 0.000000 1.000000
vn 0.000000 0.000000 1.000000
vn 0.000000 0.000000 1.000000
vn 1.000000 0.000000 -0.000000
vn 1.000000 0.000000 -0.000000
vn 1.000000 0.000000 -0.000000
vn 1.000000 0.000000 -0.000000
vn -1.000000 -0.000000 0.000000
vn -1.000000 -0.000000 0.000000
vn -1.000000 -0.000000 0.000000
vn -1.000000 -0.000000 0.000000
vn -0.000000 1.000000 -0.000000
vn -0.000000 1.000000 -0.000000
vn 0.000000 1.000000 0.000000
vn 0.000000 1.000000 0.000000
vn 1.000000 0.000000 -0.000000
vn 1.000000 0.000000 -0.000000
vn 1.000000 -0.000000 0.000000
vn 1.000000 -0.000000 0.000000
vn 0.000000 -1.000000 -0.000000
vn 0.000000 -1.000000 -0.000000
vn 0.000000 -1.000000 0.000000
vn 0.000000 -1.000000 0.000000
vn -1.000000 -0.000000 0.000000
vn -1.000000 -0.000000 0.000000
vn -1.000000 -0.000000 0.000000
vn -1.000000 -0.000000 0.000000
vn -0.000000 0.929388 0.369105
vn -0.000000 0.929388 0.369105
vn -0.000000 0.929388 0.369105
vn -0.000000 0.929388 0.369105
vn 1.000000 0.000000 -0.000000
vn 1.000000 0.000000 -0.000000
vn 1.000000 0.000000 -0.000000
vn 1.000000 0.000000 -0.000000
vn 0.000000 -0.929388 0.369105
vn 0.000000 -0.929388 0.369105
vn 0.000000 -0.929388 0.369105
vn 0.000000 -0.929388 0.369105
vn -1.000000 -0.000000 0.000000
vn -1.000000 -0.000000 0.000000
vn -1.000000 -0.000000 0.000000
vn -1.000000 -0.000000 0.000000
vn 1.000000 -0.000000 0.000000
vn 1.000000 -0.000000 0.000000
vn 1.000000 0.000000 -0.000000
vn 1.000000 0.000000 -0.000000
vn 0.000000 1.000000 0.000000
vn 0.000000 1.000000 0.000000
vn -0.000000 1.000000 -0.000000
vn -0.000000 1.000000 -0.000000
vn -1.000000 -0.000000 0.000000
vn -1.000000 -0.000000 0.000000
vn -1.000000 -0.000000 0.000000
vn -1.000000 -0.000000 0.000000
vn 0.000000 -1.000000 0.000000
vn 0.000000 -1.000000 0.000000
vn 0.000000 -1.000000 -0.000000
vn 0.000000 -1.000000 -0.000000
s off
f 9/1/1 10/2/2 4/3/3 3/4/4
f 3/4/5 4/3/6 6/5/7 5/6/8
f 5/6/9 6/5/10 11/7/11 12/8/12
f 7/9/13 8/10/14 2/11/15 1/12/16
f 10/2/17 11/7/18 6/5/19 4/3/20
f 12/8/21 9/1/22 3/4/23 5/6/24
f 13/13/25 14/14/26 18/15/27 19/16/28
f 14/14/29 15/17/30 17/18/31 18/15/32
f 20/19/33 17/18/34 15/17/35 16/20/36
f 16/20/37 13/13/38 19/16/39 20/19/40
f 1/12/41 2/11/42 14/14/43 13/13/44
f 2/11/45 8/10/46 15/17/47 14/14/48
f 16/20/49 15/17/50 8/10/51 7/9/52
f 7/9/53 1/12/54 13/13/55 16/20/56
f 18/21/57 17/22/58 11/7/59 10/2/60
f 19/23/61 18/21/62 10/2/63 9/1/64
f 20/24/65 19/23/66 9/1/67 12/8/68
f 12/8/69 11/7/70 17/22/71 20/24/72
