# This file uses centimeters as units for non-parametric coordinates.

v 6.703335 0.000000 -6.703426
v 0.000015 0.000000 -9.479980
v -6.703312 0.000000 -6.703426
v -9.479935 0.000000 -0.000122
v -6.703312 0.000000 6.703247
v -1.336687 0.360954 8.830750
v 7.262688 0.000000 4.823132
v 9.479950 0.000000 -0.000122
v 7.326874 5.264435 -7.327026
v 0.000015 5.264435 -10.361816
v -7.326851 5.264435 -7.327026
v -10.361755 5.264435 -0.000122
v -7.326851 5.264435 7.326782
v -2.440605 5.224968 9.685135
v 7.826248 5.264435 6.111794
v 10.361771 5.264435 -0.000122
v 3.058931 0.000000 -3.059019
v 0.000015 0.000000 -4.325989
v -3.058914 0.000000 -3.059019
v -4.325943 0.000000 -0.000122
v -3.058914 0.000000 3.058777
v 0.000015 0.000000 4.325928
v 3.058931 0.000000 3.058777
v 4.325989 0.000000 -0.000122
v 3.058931 6.029846 -3.059019
v 0.000015 6.029846 -4.325989
v -3.058914 6.029846 -3.059019
v -4.325943 6.029846 -0.000122
v -3.058914 6.029846 3.058777
v 0.000015 6.029846 4.325928
v 3.418081 6.039406 2.343287
v 4.325989 6.029846 -0.000122
v 2.314087 3.014922 -2.314209
v 0.000015 3.014922 -3.272644
v -2.314072 3.014922 -2.314209
v -3.272585 3.014922 -0.000122
v -2.314072 3.014922 2.313965
v -0.845715 3.001998 2.928492
v 2.586388 3.030134 1.663752
v 3.272614 3.014922 -0.000122
v 7.703690 2.611354 -7.703674
v 0.000015 2.611354 -10.894653
v -7.703667 2.611354 -7.703674
v -10.894630 2.611354 -0.000122
v -7.703667 2.611354 7.703552
v -1.214169 2.897682 10.132141
v 8.119896 2.611354 6.643936
v 10.894638 2.611354 -0.000122
v 5.194702 6.799492 -5.194763
v 0.000015 6.799492 -7.346436
v -5.194702 6.799492 -5.194763
v -7.346405 6.799492 -0.000122
v -5.194702 6.799492 5.194580
v -1.984610 6.799492 6.769737
v 6.280125 6.818764 2.833214
v 7.346436 6.799492 -0.000122
v 4.820480 4.139683 4.820374
v 0.000015 4.139683 6.817078
vt 0.048062 0.374534
vt 0.048373 0.374326
vt 0.047677 0.326764
vt 0.047927 0.326646
vt 0.048744 0.374375
vt 0.047950 0.326562
vt 0.048983 0.374660
vt 0.047731 0.326658
vt 0.048942 0.375039
vt 0.048256 0.326627
vt 0.048619 0.375285
vt 0.048243 0.326546
vt 0.048209 0.375224
vt 0.048545 0.326709
vt 0.047983 0.374902
vt 0.048498 0.326613
vt 0.048396 0.374438
vt 0.048139 0.374612
vt 0.048274 0.374690
vt 0.048432 0.374581
vt 0.048703 0.374480
vt 0.048623 0.374607
vt 0.048898 0.374717
vt 0.048742 0.374755
vt 0.048862 0.375029
vt 0.048717 0.374945
vt 0.048598 0.375228
vt 0.048556 0.375063
vt 0.048264 0.375179
vt 0.048355 0.375034
vt 0.048078 0.374916
vt 0.048240 0.374877
vt 0.048658 0.326877
vt 0.048590 0.326747
vt 0.048447 0.327056
vt 0.048402 0.326885
vt 0.047984 0.327094
vt 0.048006 0.326914
vt 0.047658 0.326951
vt 0.047723 0.326804
vt 0.048317 0.374680
vt 0.048442 0.374594
vt 0.048593 0.374615
vt 0.048686 0.374732
vt 0.048666 0.374881
vt 0.048539 0.374973
vt 0.048382 0.374950
vt 0.048290 0.374828
vt 0.048019 0.326612
vt 0.047888 0.326674
vt 0.048208 0.326601
vt 0.048368 0.326645
vt 0.048413 0.326728
vt 0.048292 0.326806
vt 0.048065 0.326822
vt 0.047895 0.326762
vt 0.048051 0.326744
vt 0.047954 0.326796
vt 0.048193 0.326734
vt 0.048312 0.326772
vt 0.048342 0.326841
vt 0.048252 0.326902
vt 0.048089 0.326914
vt 0.047964 0.326867
vt 0.111162 0.490696
vt 0.111394 0.490599
vt 0.111411 0.490728
vt 0.111273 0.490788
vt 0.111646 0.490651
vt 0.111561 0.490760
vt 0.111796 0.490834
vt 0.111646 0.490871
vt 0.111744 0.491065
vt 0.111610 0.491003
vt 0.111485 0.491198
vt 0.111463 0.491075
vt 0.111190 0.491124
vt 0.111298 0.491036
vt 0.111066 0.490906
vt 0.111222 0.490913
vt 0.111069 0.490677
vt 0.111381 0.490550
vt 0.111716 0.490618
vt 0.111927 0.490864
vt 0.111868 0.491191
vt 0.111506 0.491387
vt 0.111089 0.491278
vt 0.110927 0.490965
vt 0.049405 0.375470
vt 0.049391 0.375539
vt 0.049350 0.375098
vt 0.049343 0.374782
vt 0.049352 0.374626
vt 0.049377 0.374816
vt 0.049402 0.375211
vt 0.048479 0.375229
vt 0.048505 0.374984
vt 0.048746 0.374663
vt 0.048990 0.374539
vt 0.049078 0.374718
vt 0.049006 0.375012
vt 0.048611 0.375335
vt 0.048791 0.374851
vt 0.049373 0.374997
vn 0.376258 0.182418 -0.908380
vn 0.376258 0.182418 -0.908380
vn 0.376258 0.182418 -0.908380
vn 0.376258 0.182418 -0.908380
vn -0.376258 0.182418 -0.908380
vn -0.376258 0.182418 -0.908380
vn -0.376258 0.182418 -0.908380
vn -0.376258 0.182418 -0.908380
vn -0.908373 0.182440 -0.376263
vn -0.908373 0.182440 -0.376263
vn -0.908373 0.182440 -0.376263
vn -0.908373 0.182440 -0.376263
vn -0.908373 0.182448 0.376260
vn -0.908373 0.182448 0.376260
vn -0.908373 0.182448 0.376260
vn -0.908373 0.182448 0.376260
vn -0.388015 0.085594 0.917670
vn -0.388015 0.085594 0.917670
vn -0.388015 0.085594 0.917670
vn -0.388015 0.085594 0.917670
vn 0.908223 0.179387 0.378090
vn 0.908223 0.179387 0.378090
vn 0.908223 0.179387 0.378090
vn 0.908223 0.179387 0.378090
vn 0.908374 0.182439 -0.376262
vn 0.908374 0.182439 -0.376262
vn 0.908374 0.182439 -0.376262
vn 0.908374 0.182439 -0.376262
vn 0.000000 -1.000000 0.000000
vn 0.000000 -1.000000 0.000000
vn 0.000000 -1.000000 0.000000
vn 0.000000 -1.000000 0.000000
vn 0.000000 -1.000000 0.000000
vn 0.000000 -1.000000 0.000000
vn 0.000000 -1.000000 0.000000
vn 0.000000 -1.000000 0.000000
vn 0.000000 -1.000000 0.000000
vn 0.000000 -1.000000 0.000000
vn 0.000000 -1.000000 0.000000
vn 0.000000 -1.000000 0.000000
vn 0.000000 -1.000000 0.000000
vn 0.000000 -1.000000 0.000000
vn 0.000000 -1.000000 0.000000
vn 0.000000 -1.000000 0.000000
vn 0.020020 -0.998205 0.056450
vn 0.020020 -0.998205 0.056450
vn 0.020020 -0.998205 0.056450
vn 0.020020 -0.998205 0.056450
vn 0.000000 -1.000000 0.000000
vn 0.000000 -1.000000 0.000000
vn 0.000000 -1.000000 0.000000
vn 0.000000 -1.000000 0.000000
vn 0.000000 -1.000000 0.000000
vn 0.000000 -1.000000 0.000000
vn 0.000000 -1.000000 0.000000
vn 0.000000 -1.000000 0.000000
vn -0.101745 0.964006 0.245643
vn -0.101745 0.964006 0.245643
vn -0.101745 0.964006 0.245643
vn -0.101745 0.964006 0.245643
vn 0.101745 0.964006 0.245643
vn 0.101745 0.964006 0.245643
vn 0.101745 0.964006 0.245643
vn 0.101745 0.964006 0.245643
vn 0.245640 0.964007 0.101747
vn 0.245640 0.964007 0.101747
vn 0.245640 0.964007 0.101747
vn 0.245640 0.964007 0.101747
vn 0.245639 0.964007 -0.101746
vn 0.245639 0.964007 -0.101746
vn 0.245639 0.964007 -0.101746
vn 0.245639 0.964007 -0.101746
vn 0.104702 0.967320 -0.230931
vn 0.104702 0.967320 -0.230931
vn 0.104702 0.967320 -0.230931
vn 0.104702 0.967320 -0.230931
vn -0.245668 0.964279 -0.099059
vn -0.245668 0.964279 -0.099059
vn -0.245668 0.964279 -0.099059
vn -0.245668 0.964279 -0.099059
vn -0.245640 0.964006 0.101749
vn -0.245640 0.964006 0.101749
vn -0.245640 0.964006 0.101749
vn -0.245640 0.964006 0.101749
vn -0.364160 -0.307175 0.879222
vn -0.364160 -0.307175 0.879222
vn -0.364160 -0.307175 0.879222
vn -0.364160 -0.307175 0.879222
vn 0.364158 -0.307175 0.879223
vn 0.364158 -0.307175 0.879223
vn 0.364158 -0.307175 0.879223
vn 0.364158 -0.307175 0.879223
vn 0.879213 -0.307179 0.364178
vn 0.879213 -0.307180 0.364178
vn 0.879213 -0.307179 0.364178
vn 0.879213 -0.307179 0.364178
vn 0.879213 -0.307180 -0.364178
vn 0.879213 -0.307180 -0.364178
vn 0.879213 -0.307180 -0.364178
vn 0.879213 -0.307180 -0.364178
vn 0.364531 -0.306903 -0.879163
vn 0.364531 -0.306903 -0.879163
vn 0.364531 -0.306903 -0.879163
vn 0.364531 -0.306903 -0.879163
vn -0.880122 -0.305939 -0.363023
vn -0.880122 -0.305939 -0.363023
vn -0.880122 -0.305939 -0.363023
vn -0.880122 -0.305939 -0.363023
vn -0.879210 -0.307182 0.364184
vn -0.879210 -0.307182 0.364184
vn -0.879209 -0.307182 0.364184
vn -0.879209 -0.307182 0.364184
vn -0.364160 0.307175 0.879222
vn -0.364160 0.307175 0.879222
vn -0.364160 0.307175 0.879222
vn -0.364160 0.307175 0.879222
vn 0.364158 0.307175 0.879223
vn 0.364158 0.307175 0.879223
vn 0.364158 0.307175 0.879223
vn 0.364158 0.307175 0.879223
vn 0.879213 0.307179 0.364178
vn 0.879213 0.307179 0.364178
vn 0.879213 0.307179 0.364178
vn 0.879213 0.307179 0.364178
vn 0.879213 0.307179 -0.364178
vn 0.879213 0.307179 -0.364178
vn 0.879213 0.307179 -0.364178
vn 0.879213 0.307179 -0.364178
vn 0.366196 0.305491 -0.878963
vn 0.366196 0.305491 -0.878963
vn 0.366196 0.305491 -0.878963
vn 0.366196 0.305491 -0.878963
vn -0.881062 0.315455 -0.352445
vn -0.881062 0.315455 -0.352445
vn -0.881062 0.315455 -0.352445
vn -0.881062 0.315455 -0.352445
vn -0.879209 0.307182 0.364184
vn -0.879210 0.307182 0.364184
vn -0.879210 0.307182 0.364184
vn -0.879210 0.307182 0.364184
vn 0.342213 -0.447564 -0.826182
vn 0.342213 -0.447564 -0.826182
vn 0.342213 -0.447564 -0.826182
vn 0.342213 -0.447564 -0.826182
vn -0.342213 -0.447564 -0.826182
vn -0.342213 -0.447564 -0.826182
vn -0.342213 -0.447564 -0.826182
vn -0.342213 -0.447564 -0.826182
vn -0.826174 -0.447575 -0.342217
vn -0.826175 -0.447575 -0.342217
vn -0.826174 -0.447575 -0.342217
vn -0.826174 -0.447575 -0.342217
vn -0.826175 -0.447578 0.342212
vn -0.826175 -0.447578 0.342212
vn -0.826175 -0.447578 0.342212
vn -0.826175 -0.447578 0.342212
vn -0.302960 -0.431555 0.849691
vn -0.302960 -0.431555 0.849691
vn -0.302960 -0.431555 0.849691
vn -0.302960 -0.431555 0.849691
vn 0.807448 -0.473787 0.351502
vn 0.807448 -0.473788 0.351502
vn 0.807448 -0.473787 0.351502
vn 0.807448 -0.473787 0.351502
vn 0.826175 -0.447574 -0.342216
vn 0.826175 -0.447574 -0.342216
vn 0.826175 -0.447574 -0.342216
vn 0.826175 -0.447574 -0.342216
vn 0.184679 0.875840 -0.445867
vn 0.184679 0.875840 -0.445867
vn 0.184679 0.875840 -0.445867
vn 0.184679 0.875841 -0.445867
vn -0.184679 0.875840 -0.445867
vn -0.184679 0.875840 -0.445867
vn -0.184679 0.875840 -0.445867
vn -0.184679 0.875840 -0.445867
vn -0.445871 0.875837 -0.184686
vn -0.445871 0.875837 -0.184686
vn -0.445871 0.875837 -0.184686
vn -0.445871 0.875837 -0.184686
vn -0.445873 0.875836 0.184686
vn -0.445873 0.875836 0.184686
vn -0.445873 0.875836 0.184686
vn -0.445873 0.875836 0.184686
vn -0.206669 0.876797 0.434183
vn -0.206669 0.876797 0.434183
vn -0.206669 0.876797 0.434183
vn -0.206669 0.876797 0.434183
vn 0.458022 0.869995 0.182550
vn 0.458022 0.869995 0.182550
vn 0.458022 0.869995 0.182550
vn 0.458022 0.869995 0.182550
vn 0.445870 0.875837 -0.184687
vn 0.445870 0.875837 -0.184687
vn 0.445870 0.875837 -0.184687
vn 0.445870 0.875837 -0.184687
vn 0.978061 0.165957 0.125920
vn 0.978061 0.165957 0.125920
vn 0.978061 0.165957 0.125920
vn 0.978061 0.165957 0.125920
vn -0.489631 0.675606 0.551197
vn -0.489631 0.675606 0.551197
vn -0.489631 0.675606 0.551197
vn 0.935764 -0.195688 0.293346
vn 0.935764 -0.195688 0.293346
vn 0.935764 -0.195688 0.293346
vn 0.955677 0.151806 -0.252264
vn 0.955677 0.151806 -0.252264
vn 0.955676 0.151806 -0.252264
vn -0.343933 -0.458477 0.819456
vn -0.343933 -0.458477 0.819456
vn -0.343933 -0.458477 0.819456
vn -0.526065 -0.133552 0.839892
vn -0.526065 -0.133552 0.839892
vn -0.526065 -0.133552 0.839892
vn -0.626561 0.405401 0.665636
vn -0.626561 0.405401 0.665636
vn -0.626561 0.405401 0.665636
vn -0.626561 0.405401 0.665636
vn -0.829832 0.121342 0.544660
vn -0.829832 0.121342 0.544660
vn -0.829832 0.121342 0.544660
vn 0.727227 0.549933 0.410748
vn 0.727227 0.549933 0.410748
vn 0.727227 0.549933 0.410748
vn 0.748853 0.481998 0.454859
vn 0.748853 0.481998 0.454859
vn 0.748853 0.481998 0.454859
vn -0.432351 0.131085 0.892126
vn -0.432351 0.131085 0.892126
vn -0.432351 0.131085 0.892126
vn 0.944205 -0.169822 0.282202
vn 0.944205 -0.169822 0.282202
vn 0.944205 -0.169822 0.282202
s off
f 41/3/1 42/4/2 10/6/3 9/8/4
f 42/4/5 43/10/6 11/12/7 10/6/8
f 43/10/9 44/14/10 12/16/11 11/12/12
f 44/14/13 45/33/14 13/34/15 12/16/16
f 45/33/17 46/35/18 14/36/19 13/34/20
f 47/37/21 48/39/22 16/40/23 15/38/24
f 48/39/25 41/3/26 9/8/27 16/40/28
f 2/17/29 1/18/30 17/19/31 18/20/32
f 3/21/33 2/17/34 18/20/35 19/22/36
f 4/23/37 3/21/38 19/22/39 20/24/40
f 5/25/41 4/23/42 20/24/43 21/26/44
f 6/27/45 5/25/46 21/26/47 22/28/48
f 8/31/49 7/29/50 23/30/51 24/32/52
f 1/18/53 8/31/54 24/32/55 17/19/56
f 49/65/57 50/66/58 26/67/59 25/68/60
f 50/66/61 51/69/62 27/70/63 26/67/64
f 51/69/65 52/71/66 28/72/67 27/70/68
f 52/71/69 53/73/70 29/74/71 28/72/72
f 53/73/73 54/75/74 30/76/75 29/74/76
f 55/77/77 56/79/78 32/80/79 31/78/80
f 56/79/81 49/65/82 25/68/83 32/80/84
f 18/20/85 17/19/86 33/41/87 34/42/88
f 19/22/89 18/20/90 34/42/91 35/43/92
f 20/24/93 19/22/94 35/43/95 36/44/96
f 21/26/97 20/24/98 36/44/99 37/45/100
f 22/28/101 21/26/102 37/45/103 38/46/104
f 24/32/105 23/30/106 39/47/107 40/48/108
f 17/19/109 24/32/110 40/48/111 33/41/112
f 34/57/113 33/58/114 25/50/115 26/49/116
f 35/59/117 34/57/118 26/49/119 27/51/120
f 36/60/121 35/59/122 27/51/123 28/52/124
f 37/61/125 36/60/126 28/52/127 29/53/128
f 38/62/129 37/61/130 29/53/131 30/54/132
f 40/64/133 39/63/134 31/55/135 32/56/136
f 33/58/137 40/64/138 32/56/139 25/50/140
f 1/18/141 2/17/142 42/2/143 41/1/144
f 2/17/145 3/21/146 43/5/147 42/2/148
f 3/21/149 4/23/150 44/7/151 43/5/152
f 4/23/153 5/25/154 45/9/155 44/7/156
f 5/25/157 6/27/158 46/11/159 45/9/160
f 7/29/161 8/31/162 48/15/163 47/13/164
f 8/31/165 1/18/166 41/1/167 48/15/168
f 9/81/169 10/82/170 50/66/171 49/65/172
f 10/82/173 11/83/174 51/69/175 50/66/176
f 11/83/177 12/84/178 52/71/179 51/69/180
f 12/84/181 13/85/182 53/73/183 52/71/184
f 13/85/185 14/86/186 54/75/187 53/73/188
f 15/87/189 16/88/190 56/79/191 55/77/192
f 16/88/193 9/81/194 49/65/195 56/79/196
f 54/94/197 58/104/198 38/92/199 30/93/200
f 55/98/201 57/103/202 15/97/203
f 46/89/204 6/90/205 22/91/206
f 58/104/207 22/91/208 38/92/209
f 47/96/210 23/101/211 7/102/212
f 47/96/213 57/103/214 23/101/215
f 39/100/216 57/103/217 55/98/218 31/99/219
f 23/101/220 57/103/221 39/100/222
f 14/95/223 58/104/224 54/94/225
f 46/89/226 58/104/227 14/95/228
f 47/96/229 15/97/230 57/103/231
f 46/89/232 22/91/233 58/104/234
