# This file uses centimeters as units for non-parametric coordinates.

v -19.080585 -0.000000 10.941467
v 19.080585 -0.000000 10.941467
v -18.255344 1.686195 10.491089
v 18.255360 1.686195 10.491089
v -16.676033 1.686195 -8.976624
v 16.676033 1.686195 -8.976624
v -17.429878 -0.000000 -9.426819
v 17.429878 -0.000000 -9.426819
v -3.003059 6.584637 -0.988647
v 3.002899 6.584637 -0.988647
v 3.002899 6.584637 -7.688721
v -3.003059 6.584637 -7.688721
v -2.507755 36.705818 -0.988647
v 2.507576 36.705818 -0.988647
v 2.507576 35.434319 -3.686707
v -2.507755 35.434319 -3.686707
v -51.773102 11.766302 7.980530
v 51.773102 11.766302 7.980530
v -51.773102 54.153961 7.980530
v 51.773102 54.153961 7.980530
v 49.633152 55.473633 7.419861
v 49.633152 10.446641 7.419861
v -49.632801 55.473633 7.419861
v -49.632801 10.446641 7.419861
v 50.237099 10.446641 5.061951
v 52.403088 11.766302 5.629517
v 52.403088 54.153961 5.629517
v 50.237099 55.473633 5.061951
v -50.236736 10.446641 5.061890
v -50.236736 55.473633 5.061890
v -52.403088 11.766302 5.629517
v -52.403088 54.153961 5.629517
v 49.096180 54.131336 7.283203
v 49.096180 11.823390 7.283203
v 50.596050 53.179977 7.669006
v 50.596050 12.774750 7.669006
v -49.095589 54.131336 7.282898
v -49.095589 11.823390 7.282898
v -50.595436 12.774750 7.668945
v -50.595436 53.179977 7.668945
v 48.833992 53.788994 6.218872
v 48.833992 12.165730 6.218872
v 50.326466 52.852676 6.598633
v 50.326466 13.102062 6.598633
v -48.833363 53.788994 6.218689
v -48.833363 12.165730 6.218689
v -50.325867 13.102062 6.598511
v -50.325867 52.852676 6.598511
v 25.012966 55.473633 2.734497
v 25.317345 55.473633 0.319519
v 25.317345 10.446641 0.319519
v 25.012966 10.446641 2.734497
v 24.738148 11.823390 2.700134
v 24.602135 12.165730 1.707703
v 24.602135 53.788994 1.707703
v 24.738148 54.131336 2.700134
v 0.000187 55.473637 1.164490
v 0.000187 55.473637 -1.269531
v 0.000187 10.446641 -1.269531
v 0.000187 10.446641 1.164490
v 0.000305 11.823390 1.164490
v 0.000317 12.165729 0.196411
v 0.000317 53.788994 0.196411
v 0.000305 54.131336 1.164490
v -25.012615 55.473637 2.734497
v -25.316975 55.473637 0.319519
v -25.316975 10.446641 0.319519
v -25.012615 10.446641 2.734497
v -24.737526 11.823390 2.700073
v -24.601498 12.165729 1.707642
v -24.601498 53.788994 1.707642
v -24.737526 54.131336 2.700073
v 16.393009 1.686195 11.322937
v -16.392994 1.686195 11.322937
v 2.915604 6.584637 -0.000061
v -2.915749 6.584637 -0.000061
v 15.706455 1.686195 -7.391968
v 17.193958 1.686195 8.364746
v 4.696342 6.584637 -6.536316
v 4.696342 6.584637 -1.084412
v -17.193974 1.686195 8.364868
v -15.706470 1.686195 -7.391968
v -4.696491 6.584637 -1.084412
v -4.696491 6.584637 -6.536194
v 16.482334 -0.000000 11.943115
v -16.482315 -0.000000 11.943115
v 2.915604 4.898442 -0.000061
v -2.915749 4.898442 -0.000061
v 15.706455 -0.000000 -7.391968
v 17.193958 -0.000000 8.364746
v 4.696342 4.898442 -6.536316
v 4.696342 4.898442 -1.084412
v -17.193974 -0.000000 8.364868
v -15.706470 -0.000000 -7.391968
v -4.696491 4.898442 -1.084412
v -4.696491 4.898442 -6.536194
v 3.522198 4.898442 -7.688721
v -3.522362 4.898442 -7.688721
v 19.080585 -0.000000 -7.797058
v 18.255341 1.686195 -7.436829
v 17.193958 1.686195 -6.223328
v 17.193958 -0.000000 -6.223328
v -19.080585 -0.000000 -7.796997
v -18.255344 1.686195 -7.436829
v -17.193974 1.686195 -6.223206
v -17.193974 -0.000000 -6.223206
v 2.507576 12.835203 -0.988647
v -2.507755 12.835203 -0.988647
v -2.507755 12.835203 -3.686707
v 2.507576 12.835203 -3.686707
vt 0.081423 0.252964
vt 0.080587 0.252964
vt 0.080569 0.253003
vt 0.081440 0.253003
vt 0.081022 0.252566
vt 0.081022 0.252566
vt 0.081022 0.252566
vt 0.081022 0.252566
vt 0.080522 0.253034
vt 0.080545 0.252988
vt 0.081522 0.253034
vt 0.081499 0.252988
vt 0.081089 0.252966
vt 0.080923 0.252966
vt 0.081098 0.252974
vt 0.080924 0.252974
vt 0.080925 0.252098
vt 0.081101 0.252097
vt 0.080923 0.252127
vt 0.081092 0.252127
vt 0.081022 0.252566
vt 0.081022 0.252566
vt 0.081022 0.252566
vt 0.081022 0.252566
vt 0.081022 0.252566
vt 0.081022 0.252566
vt 0.081022 0.252566
vt 0.081022 0.252566
vt 0.985172 0.000000
vt 1.000000 0.022495
vt 1.000000 0.977505
vt 0.985172 1.000000
vt 0.014828 0.000000
vt 0.255576 0.000000
vt 0.255576 1.000000
vt 0.014828 1.000000
vt 0.000000 0.022495
vt 0.000000 0.977505
vt 0.081022 0.252566
vt 0.081022 0.252566
vt 0.081022 0.252566
vt 0.081022 0.252566
vt 0.081022 0.252566
vt 0.081022 0.252566
vt 0.081022 0.252566
vt 0.081022 0.252566
vt 0.081022 0.252566
vt 0.081022 0.252566
vt 0.081022 0.252566
vt 0.081022 0.252566
vt 0.081022 0.252566
vt 0.081022 0.252566
vt 0.081022 0.252566
vt 0.081022 0.252566
vt 0.081022 0.252566
vt 0.081022 0.252566
vt 0.081022 0.252566
vt 0.081022 0.252566
vt 0.081022 0.252566
vt 0.081022 0.252566
vt 0.081022 0.252566
vt 0.081022 0.252566
vt 0.081022 0.252566
vt 0.081022 0.252566
vt 0.081022 0.252566
vt 0.081022 0.252566
vt 0.081022 0.252566
vt 0.081022 0.252566
vt 0.081022 0.252566
vt 0.081022 0.252566
vt 0.081022 0.252566
vt 0.081022 0.252566
vt 0.081022 0.252566
vt 0.081022 0.252566
vt 0.081022 0.252566
vt 0.081022 0.252566
vt 0.081022 0.252566
vt 0.081022 0.252566
vt 0.081022 0.252566
vt 0.081022 0.252566
vt 0.081022 0.252566
vt 0.081022 0.252566
vt 0.081022 0.252566
vt 0.081022 0.252566
vt 0.081022 0.252566
vt 0.081022 0.252566
vt 0.081022 0.252566
vt 0.744424 1.000000
vt 0.744424 0.000000
vt 0.081022 0.252566
vt 0.081022 0.252566
vt 0.081022 0.252566
vt 0.081022 0.252566
vt 0.081022 0.252566
vt 0.081022 0.252566
vt 0.081022 0.252566
vt 0.081022 0.252566
vt 0.081022 0.252566
vt 0.081022 0.252566
vt 0.500000 1.000000
vt 0.500000 0.000000
vt 0.081022 0.252566
vt 0.081022 0.252566
vt 0.081022 0.252566
vt 0.080940 0.252975
vt 0.080582 0.252989
vt 0.080577 0.252985
vt 0.080895 0.252974
vt 0.081085 0.252975
vt 0.081463 0.252989
vt 0.081127 0.252974
vt 0.081463 0.252985
vt 0.080608 0.252966
vt 0.080895 0.252967
vt 0.081404 0.252966
vt 0.081119 0.252967
vt 0.080940 0.253017
vt 0.080579 0.253035
vt 0.081085 0.253017
vt 0.081468 0.253036
vt 0.080608 0.253006
vt 0.080577 0.253029
vt 0.080895 0.253008
vt 0.080895 0.253015
vt 0.081462 0.253030
vt 0.081404 0.253006
vt 0.081127 0.253015
vt 0.081119 0.253008
vt 0.080940 0.253008
vt 0.081074 0.253008
vt 0.080564 0.253006
vt 0.080582 0.252967
vt 0.080605 0.252968
vt 0.080605 0.253008
vt 0.081448 0.253006
vt 0.081431 0.252967
vt 0.081410 0.252968
vt 0.081409 0.253008
vt 0.080924 0.252792
vt 0.081099 0.252792
vt 0.081090 0.252792
vt 0.080923 0.252792
vn 0.000000 0.904583 -0.426298
vn 0.000000 0.904583 -0.426298
vn 0.000000 0.904583 -0.426298
vn 0.000000 0.904583 -0.426298
vn 0.898201 0.439585 -0.000000
vn 0.889417 0.451265 -0.072783
vn 0.889582 0.451111 -0.071712
vn 0.898201 0.439585 -0.000000
vn -0.626592 0.446831 -0.638533
vn -0.889417 0.451266 -0.072780
vn -0.889581 0.451113 -0.071714
vn -0.626592 0.446831 -0.638533
vn 0.000000 0.000000 1.000000
vn 0.000000 0.000000 1.000000
vn 0.000000 0.000000 1.000000
vn 0.000000 0.000000 1.000000
vn 0.996875 0.078997 0.000000
vn 0.996875 0.078997 0.000000
vn 0.999524 0.030850 0.000000
vn 0.999681 0.025275 0.000000
vn 0.000000 0.539212 -0.842170
vn 0.000000 0.539212 -0.842170
vn 0.000000 0.152238 -0.988344
vn 0.000000 0.152239 -0.988344
vn -0.996875 0.078994 0.000000
vn -0.996875 0.078994 0.000000
vn -0.999681 0.025274 0.000000
vn -0.999524 0.030849 0.000000
vn 0.253478 0.000000 -0.967341
vn 0.253478 0.000000 -0.967341
vn 0.253478 0.000000 -0.967341
vn 0.253478 0.000000 -0.967341
vn -0.253463 0.000000 -0.967345
vn -0.253463 0.000000 -0.967345
vn -0.253463 0.000000 -0.967345
vn -0.253463 0.000000 -0.967345
vn -0.246593 0.000000 0.969119
vn -0.246593 0.000000 0.969119
vn -0.246593 0.000000 0.969119
vn -0.246593 0.000000 0.969119
vn 0.183017 0.000000 0.983110
vn 0.122395 0.000000 0.992481
vn 0.122395 0.000000 0.992481
vn 0.183017 0.000000 0.983110
vn 0.246626 0.000000 0.969111
vn 0.246626 0.000000 0.969111
vn 0.246626 0.000000 0.969111
vn 0.246626 0.000000 0.969111
vn 0.493363 -0.860163 0.129281
vn 0.493363 -0.860163 0.129281
vn 0.493363 -0.860163 0.129281
vn 0.493363 -0.860163 0.129281
vn 0.965922 0.000000 0.258832
vn 0.965922 0.000000 0.258832
vn 0.965922 0.000000 0.258832
vn 0.965922 0.000000 0.258832
vn 0.493365 0.860161 0.129281
vn 0.493365 0.860161 0.129281
vn 0.493365 0.860161 0.129281
vn 0.493365 0.860161 0.129281
vn 0.000000 -1.000000 0.000000
vn 0.000000 -1.000000 0.000000
vn 0.000000 -1.000000 0.000000
vn 0.000000 -1.000000 0.000000
vn -0.000000 1.000000 0.000000
vn -0.000000 1.000000 0.000000
vn -0.000000 1.000000 0.000000
vn -0.000000 1.000000 0.000000
vn -0.493305 -0.860198 0.129263
vn -0.493305 -0.860198 0.129263
vn -0.493305 -0.860199 0.129263
vn -0.493305 -0.860198 0.129263
vn -0.493308 0.860197 0.129265
vn -0.493308 0.860197 0.129265
vn -0.493308 0.860197 0.129265
vn -0.493308 0.860197 0.129265
vn -0.965922 0.000000 0.258832
vn -0.965922 0.000000 0.258832
vn -0.965922 0.000000 0.258832
vn -0.965922 0.000000 0.258832
vn -0.252077 -0.000709 0.967707
vn -0.252077 -0.000709 0.967707
vn -0.252077 -0.000709 0.967707
vn -0.252077 -0.000709 0.967707
vn -0.255855 0.000000 0.966715
vn -0.255855 0.000000 0.966715
vn -0.255855 0.000000 0.966715
vn -0.255855 0.000000 0.966715
vn -0.252069 0.000695 0.967709
vn -0.252069 0.000695 0.967709
vn -0.252069 0.000695 0.967709
vn -0.252069 0.000695 0.967709
vn 0.185927 -0.006469 0.982542
vn 0.185927 -0.006469 0.982542
vn 0.116337 -0.006448 0.993189
vn 0.132365 -0.006456 0.991180
vn 0.255777 0.000000 0.966736
vn 0.255777 0.000000 0.966736
vn 0.255777 0.000000 0.966736
vn 0.255777 0.000000 0.966736
vn 0.252129 -0.000729 0.967693
vn 0.252129 -0.000729 0.967693
vn 0.252129 -0.000729 0.967693
vn 0.252129 -0.000729 0.967693
vn 0.252120 0.000714 0.967696
vn 0.252120 0.000714 0.967696
vn 0.252120 0.000714 0.967696
vn 0.252120 0.000714 0.967696
vn -0.561477 -0.739276 0.371773
vn -0.561477 -0.739276 0.371772
vn -0.561477 -0.739276 0.371772
vn -0.561477 -0.739276 0.371772
vn -0.969717 0.000000 0.244233
vn -0.969717 0.000000 0.244233
vn -0.969717 0.000000 0.244233
vn -0.969717 0.000000 0.244233
vn -0.561479 0.739272 0.371777
vn -0.561479 0.739272 0.371777
vn -0.561479 0.739272 0.371777
vn -0.561479 0.739272 0.371777
vn 0.060993 -0.943437 0.325892
vn 0.060993 -0.943437 0.325892
vn 0.037441 -0.943633 0.328869
vn 0.043782 -0.943633 0.328086
vn 0.043782 0.943633 0.328086
vn 0.037441 0.943633 0.328869
vn 0.060992 0.943437 0.325892
vn 0.060992 0.943437 0.325892
vn 0.969723 0.000000 0.244207
vn 0.969723 0.000000 0.244207
vn 0.969723 0.000000 0.244207
vn 0.969723 0.000000 0.244207
vn 0.561502 -0.739248 0.371790
vn 0.561502 -0.739248 0.371790
vn 0.561502 -0.739248 0.371790
vn 0.561502 -0.739248 0.371790
vn 0.561504 0.739246 0.371792
vn 0.561504 0.739246 0.371792
vn 0.561504 0.739246 0.371792
vn 0.561504 0.739246 0.371792
vn -0.125042 0.000000 -0.992151
vn -0.125042 0.000000 -0.992151
vn -0.186950 0.000000 -0.982369
vn -0.186950 0.000000 -0.982369
vn 0.185927 0.006307 0.982543
vn 0.132171 0.006294 0.991207
vn 0.116532 0.006287 0.993167
vn 0.185927 0.006307 0.982543
vn 0.000000 1.000000 0.000000
vn 0.000000 1.000000 0.000000
vn 0.000000 1.000000 0.000000
vn 0.000000 1.000000 0.000000
vn 0.186953 0.000000 -0.982369
vn 0.186953 0.000000 -0.982369
vn 0.125043 0.000000 -0.992151
vn 0.125043 0.000000 -0.992151
vn 0.000000 -1.000000 0.000000
vn 0.000000 -1.000000 0.000000
vn 0.000000 -1.000000 0.000000
vn 0.000000 -1.000000 0.000000
vn -0.116543 0.006238 0.993166
vn -0.132167 0.006234 0.991208
vn -0.185932 0.006209 0.982543
vn -0.185932 0.006209 0.982543
vn -0.060992 0.943444 0.325875
vn -0.060992 0.943444 0.325875
vn -0.037442 0.943636 0.328861
vn -0.043782 0.943636 0.328075
vn -0.122399 0.000000 0.992481
vn -0.122399 0.000000 0.992481
vn -0.183022 0.000000 0.983109
vn -0.183022 0.000000 0.983109
vn -0.043782 -0.943635 0.328078
vn -0.037442 -0.943634 0.328865
vn -0.060992 -0.943444 0.325874
vn -0.060992 -0.943444 0.325874
vn -0.132361 -0.006394 0.991181
vn -0.116348 -0.006398 0.993188
vn -0.185932 -0.006368 0.982542
vn -0.185932 -0.006368 0.982542
vn 0.000000 1.000000 0.000000
vn 0.000000 1.000000 0.000000
vn 0.000000 1.000000 0.000000
vn 0.000000 1.000000 0.000000
vn 0.125043 0.000000 -0.992151
vn 0.125043 0.000000 -0.992151
vn -0.000000 0.000000 -1.000000
vn -0.000000 0.000000 -1.000000
vn 0.000000 -1.000000 0.000000
vn 0.000000 -1.000000 0.000000
vn 0.000000 -1.000000 0.000000
vn 0.000000 -1.000000 0.000000
vn -0.000004 0.006257 0.999981
vn 0.000003 0.006257 0.999981
vn -0.132167 0.006234 0.991208
vn -0.116543 0.006238 0.993166
vn -0.043782 0.943636 0.328075
vn -0.037442 0.943636 0.328861
vn -0.000001 0.943641 0.330970
vn -0.000000 0.943641 0.330970
vn -0.000001 0.000000 1.000000
vn -0.000001 0.000000 1.000000
vn -0.122399 0.000000 0.992481
vn -0.122399 0.000000 0.992481
vn -0.000000 -0.943640 0.330974
vn -0.000001 -0.943640 0.330974
vn -0.037442 -0.943634 0.328865
vn -0.043782 -0.943635 0.328078
vn 0.000003 -0.006418 0.999979
vn -0.000004 -0.006418 0.999979
vn -0.116348 -0.006398 0.993188
vn -0.132361 -0.006394 0.991181
vn 0.000000 1.000000 0.000000
vn 0.000000 1.000000 0.000000
vn -0.000000 1.000000 0.000000
vn -0.000000 1.000000 0.000000
vn -0.000000 0.000000 -1.000000
vn -0.000000 0.000000 -1.000000
vn -0.125042 0.000000 -0.992151
vn -0.125042 0.000000 -0.992151
vn 0.000000 -1.000000 0.000000
vn 0.000000 -1.000000 0.000000
vn 0.000000 -1.000000 0.000000
vn 0.000000 -1.000000 0.000000
vn 0.116532 0.006287 0.993167
vn 0.132171 0.006294 0.991207
vn 0.000003 0.006257 0.999981
vn -0.000004 0.006257 0.999981
vn -0.000000 0.943641 0.330970
vn -0.000001 0.943641 0.330970
vn 0.037441 0.943633 0.328869
vn 0.043782 0.943633 0.328086
vn 0.122395 0.000000 0.992481
vn 0.122395 0.000000 0.992481
vn -0.000001 0.000000 1.000000
vn -0.000001 0.000000 1.000000
vn 0.043782 -0.943633 0.328086
vn 0.037441 -0.943633 0.328869
vn -0.000001 -0.943640 0.330974
vn -0.000000 -0.943640 0.330974
vn 0.132365 -0.006456 0.991180
vn 0.116337 -0.006448 0.993189
vn -0.000004 -0.006418 0.999979
vn 0.000003 -0.006418 0.999979
vn 0.185739 0.975413 0.118619
vn 0.222539 0.964509 0.142120
vn 0.222539 0.964509 0.142120
vn 0.199804 0.971492 0.127601
vn 0.160106 0.981790 0.102248
vn 0.193024 0.973420 0.123271
vn 0.000000 1.000000 0.000000
vn 0.000000 1.000000 0.000000
vn 0.000000 1.000000 0.000000
vn 0.000000 1.000000 0.000000
vn -0.199801 0.971492 0.127605
vn -0.222537 0.964509 0.142125
vn -0.222537 0.964509 0.142125
vn -0.185738 0.975413 0.118623
vn -0.193023 0.973419 0.123275
vn -0.160105 0.981790 0.102252
vn 0.199804 0.971492 0.127601
vn 0.000000 1.000000 -0.000000
vn 0.000000 1.000000 -0.000000
vn 0.160106 0.981790 0.102248
vn 0.288662 0.954383 -0.076342
vn 0.214505 0.975074 -0.056730
vn 0.242929 0.967914 -0.064247
vn 0.315863 0.945120 -0.083536
vn 0.214505 0.975074 -0.056730
vn 0.185739 0.975413 0.118619
vn 0.193024 0.973420 0.123271
vn 0.242929 0.967914 -0.064247
vn -0.288665 0.954382 -0.076340
vn 0.000000 1.000000 -0.000000
vn 0.000000 1.000000 -0.000000
vn -0.315865 0.945120 -0.083533
vn -0.185738 0.975413 0.118623
vn -0.214522 0.975070 -0.056732
vn -0.242932 0.967914 -0.064245
vn -0.193023 0.973419 0.123275
vn -0.214522 0.975070 -0.056732
vn -0.288665 0.954382 -0.076340
vn -0.315865 0.945120 -0.083533
vn -0.242932 0.967914 -0.064245
vn -0.620371 0.125930 0.774133
vn -0.620371 0.125930 0.774133
vn -0.620371 0.125930 0.774133
vn -0.620371 0.125930 0.774133
vn 0.000000 0.000000 1.000000
vn 0.000000 0.000000 1.000000
vn 0.000000 0.000000 1.000000
vn 0.000000 0.000000 1.000000
vn 0.620375 0.125930 0.774129
vn 0.620375 0.125930 0.774129
vn 0.620375 0.125930 0.774130
vn 0.620375 0.125930 0.774129
vn -1.000000 0.000000 0.000000
vn -0.995574 0.000000 0.093987
vn -0.995574 0.000000 0.093987
vn -1.000000 0.000000 0.000000
vn 0.077482 0.000000 0.996994
vn 0.077482 0.000000 0.996994
vn 0.077482 0.000000 0.996994
vn 0.077482 0.000000 0.996994
vn 1.000000 0.000000 0.000000
vn 1.000000 0.000000 0.000000
vn 1.000000 0.000000 0.000000
vn 1.000000 0.000000 0.000000
vn 0.603098 0.000000 -0.797667
vn 0.603098 0.000000 -0.797667
vn 0.603098 0.000000 -0.797667
vn 0.603098 0.000000 -0.797667
vn 0.617825 0.000000 0.786316
vn 0.995574 0.000000 0.093986
vn 0.995574 0.000000 0.093986
vn 0.617825 0.000000 0.786316
vn -0.603107 0.000000 -0.797660
vn -0.603107 0.000000 -0.797660
vn -0.603107 0.000000 -0.797660
vn -0.603107 0.000000 -0.797660
vn -1.000000 0.000000 0.000000
vn -1.000000 0.000000 0.000000
vn -1.000000 0.000000 0.000000
vn -1.000000 0.000000 0.000000
vn -0.077493 0.000000 0.996993
vn -0.077493 0.000000 0.996993
vn -0.077493 0.000000 0.996993
vn -0.077493 0.000000 0.996993
vn 0.000000 -1.000000 0.000000
vn 0.000000 -1.000000 0.000000
vn 0.000000 -1.000000 0.000000
vn 0.000000 -1.000000 0.000000
vn 0.000000 -1.000000 0.000000
vn 0.000000 -1.000000 0.000000
vn 0.000000 -1.000000 0.000000
vn 0.000000 -1.000000 0.000000
vn 0.250494 -0.958813 -0.133902
vn 0.250494 -0.958813 -0.133902
vn 0.250494 -0.958813 -0.133902
vn 0.250494 -0.958813 -0.133902
vn -0.250496 -0.958814 -0.133897
vn -0.250496 -0.958814 -0.133897
vn -0.250496 -0.958814 -0.133897
vn -0.250496 -0.958813 -0.133897
vn -0.000000 -1.000000 -0.000000
vn -0.000000 -1.000000 0.000000
vn -0.000000 -1.000000 0.000000
vn -0.000000 -1.000000 -0.000000
vn 0.000000 -1.000000 0.000000
vn 0.000000 -1.000000 0.000000
vn 0.000000 -1.000000 0.000000
vn 0.000000 -1.000000 0.000000
vn 0.000000 -1.000000 -0.000000
vn 0.000000 -1.000000 -0.000000
vn 0.000000 -1.000000 -0.000000
vn -0.000000 -1.000000 -0.000000
vn -0.000000 -1.000000 -0.000000
vn -0.000000 -1.000000 -0.000000
vn 0.353386 0.368754 0.859732
vn 0.353386 0.368754 0.859732
vn 0.353386 0.368754 0.859732
vn 0.353386 0.368754 0.859732
vn -0.353384 0.368755 0.859732
vn -0.353384 0.368755 0.859732
vn -0.353384 0.368755 0.859732
vn -0.353384 0.368755 0.859732
vn -0.370911 -0.926466 -0.063921
vn -0.370911 -0.926466 -0.063921
vn -0.370911 -0.926466 -0.063921
vn -0.370911 -0.926466 -0.063921
vn 0.370915 -0.926465 -0.063919
vn 0.370915 -0.926465 -0.063919
vn 0.370915 -0.926465 -0.063919
vn 0.370915 -0.926465 -0.063919
vn 0.034237 0.050603 -0.998132
vn 0.054430 0.080448 -0.995272
vn 0.071358 0.105468 -0.991859
vn 0.071358 0.105468 -0.991859
vn -0.071357 0.105469 -0.991859
vn -0.054430 0.080449 -0.995272
vn -0.034237 0.050604 -0.998132
vn -0.071357 0.105469 -0.991859
vn -0.034237 0.050604 -0.998132
vn -0.054430 0.080449 -0.995272
vn 0.054430 0.080448 -0.995272
vn 0.034237 0.050603 -0.998132
vn 0.889582 0.451111 -0.071712
vn 0.889417 0.451265 -0.072783
vn 0.626584 0.446839 -0.638536
vn 0.626584 0.446839 -0.638536
vn 0.000000 1.000000 -0.000000
vn 0.000000 1.000000 -0.000000
vn 0.288662 0.954383 -0.076342
vn 0.315863 0.945120 -0.083536
vn -0.995574 0.000000 0.093987
vn -0.995574 0.000000 0.093987
vn -0.617785 0.000000 0.786347
vn -0.617785 0.000000 0.786347
vn -0.000000 -1.000000 0.000000
vn -0.000000 -1.000000 0.000000
vn -0.000000 -1.000000 0.000000
vn -0.000000 -1.000000 0.000000
vn -0.889581 0.451113 -0.071714
vn -0.889417 0.451266 -0.072780
vn -0.898199 0.439588 0.000000
vn -0.898199 0.439588 0.000000
vn 0.000000 1.000000 -0.000000
vn 0.000000 1.000000 -0.000000
vn -0.199801 0.971492 0.127605
vn -0.160105 0.981790 0.102252
vn 0.995574 0.000000 0.093986
vn 0.995574 0.000000 0.093986
vn 1.000000 0.000000 0.000000
vn 1.000000 0.000000 0.000000
vn 0.000000 -1.000000 0.000000
vn 0.000000 -1.000000 0.000000
vn 0.000000 -1.000000 0.000000
vn 0.000000 -1.000000 0.000000
vn 0.000000 0.000000 1.000000
vn 0.000000 0.000000 1.000000
vn 0.000000 0.000000 1.000000
vn 0.000000 0.000000 1.000000
vn -0.999524 0.030849 0.000000
vn -0.999681 0.025274 0.000000
vn -1.000000 0.000000 0.000000
vn -1.000000 0.000000 0.000000
vn 0.000000 0.152239 -0.988344
vn 0.000000 0.152238 -0.988344
vn 0.000000 0.000000 -1.000000
vn 0.000000 0.000000 -1.000000
vn 0.999681 0.025275 0.000000
vn 0.999524 0.030850 0.000000
vn 1.000000 0.000000 0.000000
vn 1.000000 0.000000 0.000000
s off
f 13/5/1 14/6/2 15/7/3 16/8/4
f 2/9/5 99/131/6 100/132/7 4/10/8
f 7/4/9 103/135/10 104/136/11 5/1/12
f 9/15/13 10/16/14 107/139/15 108/140/16
f 10/16/17 11/14/18 110/142/19 107/139/20
f 11/14/21 12/13/22 109/141/23 110/142/24
f 12/13/25 9/15/26 108/140/27 109/141/28
f 25/21/29 28/22/30 27/23/31 26/24/32
f 31/25/33 32/26/34 30/27/35 29/28/36
f 42/29/37 44/30/38 43/31/39 41/32/40
f 46/33/41 70/34/42 71/35/43 45/36/44
f 47/37/45 46/33/46 45/36/47 48/38/48
f 22/39/49 25/21/50 26/24/51 18/40/52
f 18/40/53 26/24/54 27/23/55 20/41/56
f 20/41/57 27/23/58 28/22/59 21/42/60
f 24/43/61 29/28/62 67/44/63 68/45/64
f 65/46/65 66/47/66 30/27/67 23/48/68
f 17/49/69 31/25/70 29/28/71 24/43/72
f 23/48/73 30/27/74 32/26/75 19/50/76
f 19/50/77 32/26/78 31/25/79 17/49/80
f 21/51/81 33/52/82 35/53/83 20/54/84
f 20/54/85 35/53/86 36/55/87 18/56/88
f 18/56/89 36/55/90 34/57/91 22/58/92
f 23/59/93 37/60/94 72/61/95 65/62/96
f 17/63/97 39/64/98 40/65/99 19/66/100
f 19/66/101 40/65/102 37/60/103 23/59/104
f 24/67/105 38/68/106 39/64/107 17/63/108
f 33/52/109 41/69/110 43/70/111 35/53/112
f 35/53/113 43/70/114 44/71/115 36/55/116
f 36/55/117 44/71/118 42/72/119 34/57/120
f 37/60/121 45/73/122 71/74/123 72/61/124
f 69/75/125 70/76/126 46/77/127 38/68/128
f 39/64/129 47/78/130 48/79/131 40/65/132
f 40/65/133 48/79/134 45/73/135 37/60/136
f 38/68/137 46/77/138 47/78/139 39/64/140
f 66/47/141 67/44/142 29/28/143 30/27/144
f 24/67/145 68/80/146 69/75/147 38/68/148
f 21/42/149 28/22/150 50/81/151 49/82/152
f 28/22/153 25/21/154 51/83/155 50/81/156
f 52/84/157 51/83/158 25/21/159 22/39/160
f 53/85/161 52/86/162 22/58/163 34/57/164
f 34/57/165 42/72/166 54/87/167 53/85/168
f 55/88/169 54/89/170 42/29/171 41/32/172
f 56/90/173 55/91/174 41/69/175 33/52/176
f 49/92/177 56/90/178 33/52/179 21/51/180
f 49/82/181 50/81/182 58/93/183 57/94/184
f 50/81/185 51/83/186 59/95/187 58/93/188
f 60/96/189 59/95/190 51/83/191 52/84/192
f 61/97/193 60/98/194 52/86/195 53/85/196
f 53/85/197 54/87/198 62/99/199 61/97/200
f 63/100/201 62/101/202 54/89/203 55/88/204
f 64/102/205 63/103/206 55/91/207 56/90/208
f 57/104/209 64/102/210 56/90/211 49/92/212
f 57/94/213 58/93/214 66/47/215 65/46/216
f 58/93/217 59/95/218 67/44/219 66/47/220
f 68/45/221 67/44/222 59/95/223 60/96/224
f 69/75/225 68/80/226 60/98/227 61/97/228
f 61/97/229 62/99/230 70/76/231 69/75/232
f 71/35/233 70/34/234 62/101/235 63/100/236
f 72/61/237 71/74/238 63/103/239 64/102/240
f 65/62/241 72/61/242 64/102/243 57/104/244
f 10/16/245 75/105/246 73/106/247 4/10/248 78/107/249 80/108/250
f 10/16/251 9/15/252 76/109/253 75/105/254
f 3/12/255 74/110/256 76/109/257 9/15/258 83/111/259 81/112/260
f 4/10/261 100/132/262 101/133/263 78/107/264
f 6/2/265 11/14/266 79/114/267 77/113/268
f 11/14/269 10/16/270 80/108/271 79/114/272
f 5/1/273 104/136/274 105/137/275 82/115/276
f 9/15/277 12/13/278 84/116/279 83/111/280
f 12/13/281 5/1/282 82/115/283 84/116/284
f 73/106/285 75/105/286 87/117/287 85/118/288
f 75/105/289 76/109/290 88/119/291 87/117/292
f 76/109/293 74/110/294 86/120/295 88/119/296
f 78/107/297 101/133/298 102/134/299 90/122/300
f 77/113/301 79/114/302 91/123/303 89/121/304
f 79/114/305 80/108/306 92/124/307 91/123/308
f 80/108/309 78/107/310 90/122/311 92/124/312
f 82/115/313 105/137/314 106/138/315 94/126/316
f 81/112/317 83/111/318 95/127/319 93/125/320
f 83/111/321 84/116/322 96/128/323 95/127/324
f 84/116/325 82/115/326 94/126/327 96/128/328
f 96/128/329 98/130/330 97/129/331 91/123/332 92/124/333 87/117/334 88/119/335 95/127/336
f 95/127/337 88/119/338 86/120/339 93/125/340
f 87/117/341 92/124/342 90/122/343 85/118/344
f 90/122/345 102/134/346 99/131/347 2/9/348
f 94/126/349 106/138/350 103/135/351 7/4/352
f 93/125/353 86/120/354 1/11/355
f 85/118/356 90/122/357 2/9/358
f 4/10/359 73/106/360 85/118/361 2/9/362
f 1/11/363 86/120/364 74/110/365 3/12/366
f 97/129/367 8/3/368 89/121/369 91/123/370
f 94/126/371 7/4/372 98/130/373 96/128/374
f 12/13/375 98/130/376 7/4/377 5/1/378
f 8/3/379 97/129/380 11/14/381 6/2/382
f 11/14/383 97/129/384 98/130/385 12/13/386
f 100/132/387 99/131/388 8/3/389 6/2/390
f 101/133/391 100/132/392 6/2/393 77/113/394
f 102/134/395 101/133/396 77/113/397 89/121/398
f 99/131/399 102/134/400 89/121/401 8/3/402
f 104/136/403 103/135/404 1/11/405 3/12/406
f 105/137/407 104/136/408 3/12/409 81/112/410
f 106/138/411 105/137/412 81/112/413 93/125/414
f 103/135/415 106/138/416 93/125/417 1/11/418
f 108/140/419 107/139/420 14/17/421 13/18/422
f 109/141/423 108/140/424 13/18/425 16/20/426
f 110/142/427 109/141/428 16/20/429 15/19/430
f 107/139/431 110/142/432 15/19/433 14/17/434
