# This file uses centimeters as units for non-parametric coordinates.

v -11.057098 0.000000 16.674042
v 11.057098 0.000000 16.674042
v -11.057098 0.000000 -16.674072
v 11.057098 0.000000 -16.674072
v -11.057098 1.189047 16.674042
v 11.057098 1.189047 16.674042
v 11.057098 1.189047 -16.674072
v -11.057098 1.189047 -16.674072
v -10.257111 1.189047 15.874054
v 10.257111 1.189047 15.874054
v 10.257111 1.189047 -15.874084
v -10.257111 1.189047 -15.874084
v -10.257111 1.189047 -8.690704
v -10.257111 1.189047 9.692108
v -6.434448 1.189047 -9.213348
v -1.279114 1.189047 -10.926971
v 4.155548 1.189047 -9.544708
v 6.783813 1.189047 -6.411011
v 7.310333 1.189047 8.201080
v 3.294373 1.189047 11.072327
v -2.680023 1.189047 11.523651
v -10.257111 1.189047 -0.221985
v -10.257111 1.189047 0.519043
v -7.682098 1.189047 0.209442
v -8.508636 1.189047 0.916290
v 7.283051 1.189047 -1.684082
v 7.562561 1.189047 1.968079
v 6.542877 1.189047 0.504608
v -2.598236 1.189047 10.514618
v 2.940216 1.189047 10.096222
v 6.330933 1.189047 7.672028
v 7.061981 1.189047 2.166168
v 4.745972 1.189047 0.301880
v 6.680969 1.189047 -1.503937
v 5.821411 1.189047 -6.002350
v 3.596558 1.189047 -8.655029
v -1.241699 1.189047 -9.210175
v -6.207062 1.189047 -7.777527
v -4.592712 1.189047 -0.085815
v -9.133759 1.189047 1.672180
v -10.257111 1.189047 1.793182
v -10.257111 1.189047 7.559509
v -10.257111 1.189047 -1.084381
v -10.257111 1.189047 -6.841644
v -8.042816 1.189047 2.363647
v -8.678955 1.189047 5.644257
v -8.249664 1.189047 -4.025513
v -7.754150 1.189047 -1.022064
v -8.820526 1.189047 -0.185822
v -9.280914 1.189047 -0.912292
v 10.257111 1.189047 0.442200
v 11.057098 1.189047 0.419617
v 11.057098 0.000000 0.419617
v -11.057098 0.000000 0.419617
v -11.057098 1.189047 0.419617
vt 0.380248 0.359429
vt 0.384185 0.359429
vt 0.384185 0.364252
vt 0.380248 0.364252
vt 0.380248 0.359429
vt 0.380248 0.364252
vt 0.384185 0.364252
vt 0.384185 0.359429
vt 0.380248 0.359429
vt 0.384185 0.359429
vt 0.384185 0.364252
vt 0.380248 0.364252
vt 0.380248 0.359429
vt 0.384185 0.359429
vt 0.384185 0.364252
vt 0.380248 0.364252
vt 0.078102 0.229516
vt 0.078173 0.228961
vt 0.079076 0.228990
vt 0.079102 0.229551
vt 0.078847 0.229542
vt 0.380253 0.362615
vt 0.078351 0.229525
vt 0.380242 0.361034
vt 0.078909 0.229441
vt 0.078960 0.229272
vt 0.078885 0.229101
vt 0.078712 0.229062
vt 0.078514 0.229042
vt 0.078289 0.229153
vt 0.078300 0.229395
vt 0.078609 0.229534
vt 0.380248 0.361856
vt 0.078586 0.229533
vt 0.380247 0.361782
vt 0.078596 0.229474
vt 0.078582 0.229503
vt 0.078666 0.229057
vt 0.078562 0.229047
vt 0.078603 0.229076
vt 0.080366 0.371816
vt 0.080434 0.371623
vt 0.080472 0.371637
vt 0.080411 0.371816
vt 0.080576 0.371513
vt 0.080592 0.371543
vt 0.080825 0.371521
vt 0.080810 0.371549
vt 0.080880 0.371554
vt 0.080871 0.371586
vt 0.080970 0.371538
vt 0.080973 0.371568
vt 0.380447 0.361354
vt 0.380796 0.361337
vt 0.380958 0.361661
vt 0.380956 0.361732
vt 0.380923 0.361792
vt 0.380951 0.361883
vt 0.380949 0.361950
vt 0.380915 0.362213
vt 0.380692 0.362340
vt 0.380433 0.362290
vt 0.380349 0.361814
vt 0.380273 0.361788
vt 0.380247 0.361688
vt 0.380243 0.361121
vt 0.380234 0.361726
vt 0.380252 0.362516
vt 0.081161 0.371564
vt 0.081145 0.371592
vt 0.081294 0.371651
vt 0.081257 0.371666
vt 0.081366 0.371834
vt 0.081319 0.371830
vt 0.081299 0.372021
vt 0.081252 0.372009
vt 0.081281 0.372178
vt 0.081226 0.372174
vt 0.080902 0.371853
vt 0.080908 0.372247
vt 0.080862 0.372146
vt 0.080848 0.372053
vt 0.080823 0.372096
vt 0.080715 0.372129
vt 0.080825 0.372144
vt 0.080769 0.372139
vt 0.080432 0.372114
vt 0.080380 0.372110
vt 0.380298 0.361748
vt 0.380285 0.361422
vt 0.380301 0.362432
vt 0.380293 0.361919
vt 0.080268 0.372028
vt 0.080612 0.372046
vt 0.080957 0.372099
vt 0.081250 0.372219
vt 0.080856 0.372106
vt 0.078603 0.229508
vt 0.080907 0.372179
vt 0.380523 0.361618
vt 0.078612 0.228975
vt 0.384185 0.361773
vt 0.384185 0.361780
vt 0.384185 0.361780
vt 0.384185 0.361780
vt 0.380248 0.361780
vt 0.380248 0.361780
vt 0.380248 0.361780
vn -0.000000 1.000000 -0.000000
vn 0.000000 1.000000 0.000000
vn -0.000000 1.000000 -0.000000
vn -0.000000 1.000000 -0.000000
vn 0.000000 -1.000000 -0.000000
vn 0.000000 -1.000000 -0.000000
vn -0.000000 -1.000000 -0.000000
vn -0.000000 -1.000000 -0.000000
vn 0.000000 0.000000 1.000000
vn 0.000000 0.000000 1.000000
vn 0.000000 1.000000 0.000000
vn 0.000000 1.000000 0.000000
vn 1.000000 0.000000 0.000000
vn 1.000000 0.000000 0.000000
vn 1.000000 0.000000 0.000000
vn 0.000000 1.000000 0.000000
vn 0.000000 0.000000 -1.000000
vn 0.000000 0.000000 -1.000000
vn 0.000000 1.000000 0.000000
vn 0.000000 1.000000 0.000000
vn -1.000000 0.000000 0.000000
vn -1.000000 0.000000 0.000000
vn -1.000000 0.000000 0.000000
vn 0.000000 1.000000 0.000000
vn -0.000000 1.000000 -0.000000
vn 0.000000 1.000000 -0.000000
vn 0.000000 1.000000 0.000000
vn 0.000000 1.000000 0.000000
vn 0.000000 1.000000 -0.000000
vn 0.000000 1.000000 0.000000
vn 0.000000 1.000000 0.000000
vn 0.000000 1.000000 0.000000
vn 0.000000 1.000000 0.000000
vn 0.000000 1.000000 0.000000
vn 0.000000 1.000000 0.000000
vn 0.000000 1.000000 0.000000
vn -0.000000 1.000000 0.000000
vn -0.000000 1.000000 -0.000000
vn -0.000000 1.000000 0.000000
vn -0.000000 1.000000 -0.000000
vn -0.000000 1.000000 0.000000
vn -0.000000 1.000000 -0.000000
vn -0.000000 1.000000 0.000000
vn -0.000000 1.000000 -0.000000
vn -0.000000 1.000000 0.000000
vn -0.000000 1.000000 0.000000
vn -0.000000 1.000000 -0.000000
vn -0.000000 1.000000 -0.000000
vn -0.000000 1.000000 0.000000
vn 0.000000 1.000000 0.000000
vn 0.000000 1.000000 0.000000
vn -0.000000 1.000000 0.000000
vn 0.000000 1.000000 0.000000
vn 0.000000 1.000000 -0.000000
vn 0.000000 1.000000 0.000000
vn 0.000000 1.000000 0.000000
vn 0.000000 1.000000 -0.000000
vn 0.000000 1.000000 0.000000
vn 0.000000 1.000000 0.000000
vn 0.000000 1.000000 0.000000
vn 0.000000 1.000000 0.000000
vn 0.000000 1.000000 0.000000
vn 0.000000 1.000000 -0.000000
vn 0.000000 1.000000 0.000000
vn 0.000000 1.000000 0.000000
vn 0.000000 1.000000 -0.000000
vn 0.000000 1.000000 0.000000
vn 0.000000 1.000000 -0.000000
vn 0.000000 1.000000 -0.000000
vn 0.000000 1.000000 -0.000000
vn 0.000000 1.000000 -0.000000
vn 0.000000 1.000000 0.000000
vn 0.000000 1.000000 -0.000000
vn 0.000000 1.000000 -0.000000
vn 0.000000 1.000000 -0.000000
vn 0.000000 1.000000 -0.000000
vn 0.000000 1.000000 -0.000000
vn -0.000000 1.000000 -0.000000
vn 0.000000 1.000000 -0.000000
vn 0.000000 1.000000 -0.000000
vn -0.000000 1.000000 -0.000000
vn -0.000000 1.000000 -0.000000
vn -0.000000 1.000000 -0.000000
vn 0.000000 1.000000 -0.000000
vn -0.000000 1.000000 -0.000000
vn -0.000000 1.000000 -0.000000
vn -0.000000 1.000000 -0.000000
vn -0.000000 1.000000 0.000000
vn -0.000000 1.000000 -0.000000
vn -0.000000 1.000000 0.000000
vn -0.000000 1.000000 -0.000000
vn -0.000000 1.000000 -0.000000
vn -0.000000 1.000000 0.000000
vn -0.000000 1.000000 0.000000
vn -0.000000 1.000000 -0.000000
vn 0.000000 1.000000 -0.000000
vn -0.000000 1.000000 -0.000000
vn -0.000000 1.000000 0.000000
vn -0.000000 1.000000 -0.000000
vn -0.000000 1.000000 0.000000
vn -0.000000 1.000000 0.000000
vn -0.000000 1.000000 0.000000
vn -0.000000 1.000000 0.000000
vn -0.000000 1.000000 0.000000
vn -0.000000 1.000000 -0.000000
vn -0.000000 1.000000 0.000000
vn -0.000000 1.000000 0.000000
vn 0.000000 1.000000 -0.000000
vn -0.000000 1.000000 0.000000
vn -0.000000 1.000000 -0.000000
vn -0.000000 1.000000 0.000000
vn 0.000000 1.000000 -0.000000
vn -0.000000 1.000000 0.000000
vn -0.000000 1.000000 0.000000
vn -0.000000 1.000000 0.000000
vn 0.000000 1.000000 -0.000000
vn -0.000000 1.000000 0.000000
vn -0.000000 1.000000 0.000000
vn -0.000000 1.000000 0.000000
vn -0.000000 1.000000 0.000000
vn -0.000000 1.000000 -0.000000
vn -0.000000 1.000000 0.000000
vn -0.000000 1.000000 -0.000000
vn 0.000000 1.000000 -0.000000
vn -0.000000 1.000000 -0.000000
vn -0.000000 1.000000 0.000000
vn 0.000000 1.000000 0.000000
vn 0.000000 1.000000 0.000000
vn -0.000000 1.000000 0.000000
vn 0.000000 1.000000 0.000000
vn 0.000000 1.000000 0.000000
vn 0.000000 1.000000 -0.000000
vn 0.000000 1.000000 0.000000
vn 0.000000 1.000000 0.000000
vn -0.000000 1.000000 0.000000
vn -0.000000 1.000000 0.000000
vn 0.000000 1.000000 -0.000000
vn 0.000000 1.000000 0.000000
vn 0.000000 1.000000 0.000000
vn -0.000000 1.000000 -0.000000
vn 0.000000 1.000000 -0.000000
vn 0.000000 1.000000 -0.000000
vn 0.000000 1.000000 0.000000
vn 0.000000 1.000000 -0.000000
vn 0.000000 1.000000 -0.000000
vn 0.000000 1.000000 0.000000
vn 0.000000 1.000000 -0.000000
vn 0.000000 1.000000 0.000000
vn 0.000000 1.000000 -0.000000
vn 0.000000 1.000000 0.000000
vn 0.000000 1.000000 -0.000000
vn 0.000000 1.000000 0.000000
vn 0.000000 1.000000 -0.000000
vn 0.000000 1.000000 -0.000000
vn 0.000000 1.000000 0.000000
vn 1.000000 0.000000 0.000000
vn 1.000000 0.000000 0.000000
vn 1.000000 0.000000 0.000000
vn 0.000000 1.000000 0.000000
vn -0.000000 -1.000000 -0.000000
vn 0.000000 -1.000000 -0.000000
vn 0.000000 -1.000000 -0.000000
vn -0.000000 -1.000000 -0.000000
vn -1.000000 0.000000 0.000000
vn -1.000000 0.000000 0.000000
vn -1.000000 0.000000 0.000000
vn 0.000000 1.000000 0.000000
vn 0.000000 1.000000 -0.000000
vn 0.000000 1.000000 0.000000
vn 0.000000 1.000000 -0.000000
vn 0.000000 1.000000 0.000000
vn 0.000000 1.000000 0.000000
vn -0.000000 1.000000 0.000000
vn -0.000000 1.000000 -0.000000
vn -0.000000 1.000000 0.000000
vn -0.000000 1.000000 -0.000000
vn -0.000000 1.000000 0.000000
vn -0.000000 1.000000 -0.000000
vn -0.000000 1.000000 -0.000000
vn -0.000000 1.000000 0.000000
vn -0.000000 1.000000 -0.000000
vn -0.000000 1.000000 -0.000000
vn -0.000000 1.000000 0.000000
vn -0.000000 1.000000 0.000000
vn -0.000000 1.000000 0.000000
vn -0.000000 1.000000 0.000000
vn -0.000000 1.000000 -0.000000
vn -0.000000 1.000000 0.000000
vn -0.000000 1.000000 0.000000
vn -0.000000 1.000000 -0.000000
vn 0.000000 1.000000 0.000000
vn 0.000000 1.000000 0.000000
vn -0.000000 1.000000 -0.000000
vn 0.000000 1.000000 0.000000
vn 0.000000 1.000000 0.000000
vn -0.000000 1.000000 0.000000
vn -0.000000 1.000000 -0.000000
vn -0.000000 1.000000 -0.000000
vn -0.000000 1.000000 0.000000
vn 0.000000 1.000000 -0.000000
vn 0.000000 1.000000 -0.000000
vn 0.000000 1.000000 -0.000000
vn 0.000000 1.000000 -0.000000
vn -0.000000 1.000000 0.000000
vn -0.000000 1.000000 0.000000
vn -0.000000 1.000000 0.000000
vn 0.000000 1.000000 -0.000000
vn 0.000000 1.000000 -0.000000
vn -0.000000 1.000000 0.000000
vn 0.000000 1.000000 0.000000
vn 0.000000 1.000000 -0.000000
vn 0.000000 1.000000 0.000000
vn 0.000000 1.000000 0.000000
vn 0.000000 1.000000 0.000000
vn 0.000000 1.000000 -0.000000
vn 0.000000 1.000000 -0.000000
vn 0.000000 1.000000 0.000000
vn 0.000000 1.000000 -0.000000
vn -0.000000 1.000000 -0.000000
vn 0.000000 1.000000 -0.000000
vn 0.000000 1.000000 -0.000000
vn 0.000000 1.000000 -0.000000
vn -0.000000 1.000000 0.000000
vn -0.000000 1.000000 0.000000
vn -0.000000 1.000000 -0.000000
vn -0.000000 1.000000 -0.000000
vn -0.000000 1.000000 0.000000
vn 0.000000 1.000000 -0.000000
s off
f 16/26/1 12/20/2 13/21/3 15/25/4
f 53/105/5 54/107/6 3/6/7 4/7/8
f 1/9/9 2/10/10 6/2/11 5/1/12
f 52/103/13 53/104/14 4/11/15 7/3/16
f 4/11/17 3/12/18 8/4/19 7/3/20
f 3/12/21 54/106/22 55/108/23 8/4/24
f 5/1/25 6/2/26 10/14/27 9/13/28
f 51/102/29 52/103/30 7/3/31 11/15/32
f 7/3/33 8/4/34 12/16/35 11/15/36
f 42/66/37 5/1/38 14/24/39
f 47/91/40 44/68/41 43/67/42 50/100/43
f 23/34/44 25/37/45 24/36/46 49/98/47 22/32/48
f 21/41/49 20/42/50 30/43/51 29/44/52
f 20/42/53 19/45/54 31/46/55 30/43/56
f 19/45/57 27/47/58 32/48/59 31/46/60
f 27/47/61 28/49/62 33/50/63 32/48/64
f 28/49/65 26/51/66 34/52/67 33/50/68
f 26/51/69 18/69/70 35/70/71 34/52/72
f 18/69/73 17/71/74 36/72/75 35/70/76
f 17/71/77 16/73/78 37/74/79 36/72/80
f 16/73/81 15/75/82 38/76/83 37/74/84
f 38/76/85 15/75/86 13/77/87 44/78/88
f 49/97/89 50/99/90 43/80/91 22/81/92
f 24/82/93 25/83/94 40/84/95 39/79/96
f 40/84/97 25/83/98 23/85/99 41/86/100
f 29/44/101 42/87/102 14/88/103 21/41/104
f 40/84/105 46/93/106 45/94/107
f 39/79/108 50/99/109 49/97/110 24/82/111
f 39/79/112 48/95/113 50/99/114
f 29/53/115 39/63/116 45/89/117 46/90/118
f 42/66/119 46/90/120 40/64/121 41/65/122
f 47/91/123 39/63/124 38/62/125 44/68/126
f 10/18/127 20/30/128 21/31/129 9/17/130
f 10/18/131 19/29/132 20/30/133
f 9/17/134 21/31/135 14/23/136
f 17/27/137 11/19/138 12/20/139 16/26/140
f 26/38/141 51/101/142 11/19/143 18/28/144
f 18/28/145 11/19/146 17/27/147
f 27/39/148 19/29/149 10/18/150 51/101/151
f 27/39/152 51/101/153 26/38/154 28/40/155
f 2/10/156 53/104/157 52/103/158 6/2/159
f 1/5/160 54/107/161 53/105/162 2/8/163
f 55/108/164 54/106/165 1/9/166 5/1/167
f 6/2/168 52/103/169 51/102/170 10/14/171
f 8/4/172 55/108/173 43/67/174 44/68/175
f 22/33/176 55/108/177 23/35/178
f 43/67/179 55/108/180 22/33/181
f 23/35/182 55/108/183 41/65/184
f 41/65/185 55/108/186 5/1/187 42/66/188
f 14/24/189 5/1/190 9/13/191
f 8/4/192 13/22/193 12/16/194
f 8/4/195 44/68/196 13/22/197
f 47/91/198 48/92/199 39/63/200
f 37/61/201 33/57/202 36/60/203
f 29/53/204 46/90/205 42/66/206
f 33/57/207 39/63/208 29/53/209 30/54/210
f 33/57/211 30/54/212 31/55/213 32/56/214
f 36/60/215 33/57/216 34/58/217 35/59/218
f 38/62/219 39/63/220 33/57/221 37/61/222
f 50/99/223 48/95/224 47/96/225
f 40/84/226 45/94/227 39/79/228
