# This file uses centimeters as units for non-parametric coordinates.

v -21.342102 3.179142 -8.450378
v -6.622742 0.846725 8.763733
v 5.729004 3.179142 -31.994324
v 21.342163 3.179142 -14.042175
v -14.643555 3.179142 -0.748230
v 5.113281 3.179142 0.071960
v -10.264404 2.049706 4.286926
v 0.575745 2.049706 4.018372
v -21.342102 3.859793 -8.450378
v -14.645081 3.849518 -0.665253
v 5.111755 3.849518 0.154938
v 21.342163 3.859793 -14.042175
v 5.729004 3.859793 -31.994324
v -10.263794 2.708848 4.456573
v 0.576355 2.708848 4.188019
v -6.618469 1.504912 8.937073
v -19.436035 0.938133 -26.873047
v -19.436035 1.658687 -26.873047
v -20.630127 0.938133 -1.354126
v -20.630127 1.658687 -1.354126
v 20.286011 0.938133 -2.294952
v 19.720764 0.938133 -29.270691
v 19.720764 1.658687 -29.270691
v 20.286011 1.658687 -2.294952
v -19.043396 0.000000 0.000000
v 19.186462 0.000000 0.000000
v -19.043396 0.000000 -28.129089
v 19.186462 0.000000 -28.129089
v -7.360168 0.000000 -28.129089
v -18.348328 0.000000 -30.091949
v -8.055237 0.000000 -30.091949
v -19.043396 2.571938 0.000000
v -7.360168 2.571939 -27.788788
v 19.186462 2.571938 0.000000
v 19.186462 2.571939 -27.788788
v -7.360168 1.772968 -27.788788
v 19.186462 1.772968 -27.788788
v 19.186462 0.809281 -28.129089
v -7.360168 0.809281 -28.129089
v -8.055237 0.809281 -30.091949
v -18.348328 0.809281 -30.091949
v -19.043396 0.809281 -28.129059
v -19.043396 0.809281 -1.251160
v 19.186462 0.809281 -1.251190
v -19.043396 1.772968 -1.251190
v 19.186462 1.772968 -1.251160
v -19.043396 1.291126 -0.782227
v 19.186462 1.291126 -0.782227
v 19.186462 1.291126 0.571442
v -19.043396 1.291126 0.571442
v 5.140808 2.571938 -20.734192
v 17.673279 2.571938 -20.734192
v 17.673279 2.571939 -25.946838
v 5.140808 2.571939 -25.946838
v -8.073669 2.571939 -26.176453
v -19.043396 2.571939 -26.176453
v -19.043396 1.772969 -26.176453
v -8.073669 1.772968 -26.176453
v -9.697815 0.809281 -27.655457
v -17.142639 0.809281 -27.655457
v -17.142639 0.809278 -29.436432
v -9.697815 0.809278 -29.436432
vt 0.362897 0.358658
vt 0.374003 0.358658
vt 0.388783 0.371355
vt 0.388783 0.390360
vt 0.362897 0.390360
vt 0.381263 0.358658
vt 0.388783 0.366042
vt 0.388783 0.358658
vt 0.362897 0.358658
vt 0.374003 0.358658
vt 0.388783 0.371355
vt 0.388783 0.390360
vt 0.362897 0.390360
vt 0.381263 0.358658
vt 0.388783 0.366042
vt 0.388783 0.358658
vt 0.101232 0.378797
vt 0.101308 0.379324
vt 0.101313 0.379317
vt 0.101236 0.378788
vt 0.100313 0.379192
vt 0.100368 0.378665
vt 0.100369 0.378657
vt 0.100314 0.379184
vt 0.003669 0.326203
vt 0.003669 0.326203
vt 0.003669 0.326203
vt 0.337622 0.337214
vt 0.361866 0.337214
vt 0.361866 0.349121
vt 0.337622 0.349121
vt 0.003669 0.326203
vt 0.003669 0.326203
vt 0.003669 0.326203
vt 0.003669 0.326203
vt 0.003669 0.326203
vt 0.003669 0.326203
vt 0.003669 0.326203
vt 0.003669 0.326203
vt 0.003669 0.326203
vt 0.003669 0.326203
vt 0.003669 0.326203
vt 0.003669 0.326203
vt 0.003669 0.326203
vt 0.003669 0.326203
vt 0.003669 0.326203
vt 0.003669 0.326203
vt 0.003669 0.326203
vt 0.003669 0.326203
vt 0.003669 0.326203
vt 0.003669 0.326203
vt 0.003669 0.326203
vt 0.003669 0.326203
vt 0.003669 0.326203
vt 0.003669 0.326203
vt 0.003669 0.326203
vt 0.003669 0.326203
vt 0.003669 0.326203
vt 0.003669 0.326203
vt 0.003669 0.326203
vt 0.003669 0.326203
vt 0.003669 0.326203
vt 0.003669 0.326203
vt 0.003669 0.326203
vt 0.003669 0.326203
vt 0.003669 0.326203
vt 0.003669 0.326203
vt 0.003669 0.326203
vt 0.003669 0.326203
vt 0.003669 0.326203
vt 0.003669 0.326203
vt 0.003669 0.326203
vt 0.003669 0.326203
vt 0.003669 0.326203
vt 0.003669 0.326203
vt 0.003669 0.326203
vt 0.003669 0.326203
vt 0.003669 0.326203
vt 0.003669 0.326203
vt 0.003669 0.326203
vt 0.003669 0.326203
vt 0.003669 0.326203
vt 0.003669 0.326203
vt 0.003669 0.326203
vt 0.003669 0.326203
vt 0.132809 0.204674
vt 0.133056 0.204706
vt 0.132979 0.205674
vt 0.132723 0.205639
vt 0.003669 0.326203
vn 0.000000 1.000000 0.000000
vn -0.000142 0.999969 0.007857
vn -0.000130 0.999974 0.007212
vn 0.000000 1.000000 0.000000
vn 0.000000 1.000000 0.000000
vn -0.000130 0.999974 0.007212
vn -0.000142 0.999969 0.007857
vn -0.000511 0.935881 0.352316
vn -0.001970 0.950035 0.312136
vn -0.001970 0.950035 0.312136
vn -0.000511 0.935881 0.352316
vn 0.021546 0.493193 0.869653
vn -0.755713 -0.040996 0.653619
vn -0.759985 -0.072722 0.645860
vn -0.000142 0.999969 0.007857
vn 0.000000 1.000000 0.000000
vn 0.660917 -0.066170 0.747536
vn 0.656640 -0.045496 0.752831
vn 0.000000 1.000000 0.000000
vn -0.000130 0.999974 0.007212
vn 0.754552 0.000000 -0.656241
vn 0.754552 0.000000 -0.656241
vn 0.000000 1.000000 0.000000
vn 0.000000 1.000000 0.000000
vn -0.656240 0.000000 -0.754552
vn -0.656240 0.000000 -0.754552
vn 0.000000 1.000000 0.000000
vn 0.000000 1.000000 0.000000
vn -0.759985 -0.072722 0.645860
vn -0.775077 -0.135711 0.617121
vn -0.000511 0.935881 0.352316
vn -0.000142 0.999969 0.007857
vn 0.609599 -0.181008 0.771768
vn 0.660917 -0.066170 0.747536
vn -0.000130 0.999974 0.007212
vn -0.001970 0.950035 0.312136
vn -0.775077 -0.135711 0.617121
vn -0.786318 -0.152939 0.598593
vn 0.021546 0.493193 0.869653
vn -0.000511 0.935881 0.352316
vn 0.562582 -0.210262 0.799557
vn 0.609599 -0.181008 0.771768
vn -0.001970 0.950035 0.312136
vn 0.021546 0.493193 0.869653
vn -0.997712 0.000000 -0.067604
vn -0.997712 0.000000 -0.067604
vn -0.997712 0.000000 -0.067604
vn -0.997712 0.000000 -0.067604
vn 0.999984 0.000000 -0.005629
vn 0.999984 0.000000 -0.005629
vn 0.999984 0.000000 -0.005629
vn 0.999984 0.000000 -0.005629
vn 0.021121 0.000000 -0.999777
vn 0.021121 0.000000 -0.999777
vn 0.021121 0.000000 -0.999777
vn 0.021121 0.000000 -0.999777
vn -0.024880 0.000000 0.999690
vn -0.024880 0.000000 0.999690
vn -0.024880 0.000000 0.999690
vn -0.024880 0.000000 0.999690
vn 0.000000 -1.000000 -0.000000
vn 0.000000 -1.000000 0.000000
vn -0.000000 -1.000000 0.000000
vn 0.000000 -1.000000 -0.000000
vn 0.000000 1.000000 0.000000
vn 0.000000 1.000000 0.000000
vn -0.000000 1.000000 0.000000
vn 0.000000 1.000000 0.000000
vn 0.000000 1.000000 0.000000
vn 0.000000 1.000000 0.000000
vn 0.000000 1.000000 0.000000
vn 0.000000 1.000000 0.000000
vn 0.000000 1.000000 0.000000
vn 0.000000 1.000000 0.000000
vn 0.000000 1.000000 0.000000
vn 0.000000 -1.000000 0.000000
vn 0.000000 -1.000000 0.000000
vn 0.000000 -1.000000 0.000000
vn 0.000000 -1.000000 0.000000
vn 0.000000 -1.000000 0.000000
vn 0.000000 -1.000000 0.000000
vn 0.000000 -1.000000 0.000000
vn 0.000000 -1.000000 0.000000
vn 0.000000 -1.000000 0.000000
vn 0.000000 -1.000000 0.000000
vn 0.000000 -1.000000 0.000000
vn -1.000000 0.000000 0.000000
vn -1.000000 0.000000 0.000000
vn -1.000000 0.000000 0.000000
vn -1.000000 0.000000 0.000000
vn 0.000000 0.000000 -1.000000
vn 0.000000 0.000000 -1.000000
vn 0.000000 0.000000 -1.000000
vn 0.000000 0.000000 -1.000000
vn 1.000000 0.000000 0.000000
vn 1.000000 0.000000 0.000000
vn 1.000000 0.000000 0.000000
vn 1.000000 0.000000 0.000000
vn 1.000000 0.000000 0.000000
vn 1.000000 0.000000 0.000000
vn 1.000000 0.000000 0.000000
vn 1.000000 0.000000 0.000000
vn 0.000000 0.000000 -1.000000
vn 0.000000 0.000000 -1.000000
vn 0.000000 0.000000 -1.000000
vn 0.000000 0.000000 -1.000000
vn 0.942644 0.000000 -0.333800
vn 0.942644 0.000000 -0.333800
vn 0.942644 0.000000 -0.333800
vn 0.942644 0.000000 -0.333800
vn 0.000000 0.000000 -1.000000
vn 0.000000 0.000000 -1.000000
vn 0.000000 0.000000 -1.000000
vn 0.000000 0.000000 -1.000000
vn -0.942645 0.000005 -0.333797
vn -0.942645 0.000005 -0.333797
vn -0.942645 0.000005 -0.333797
vn -0.942645 0.000005 -0.333797
vn -1.000000 0.000001 0.000000
vn -1.000000 0.000001 0.000000
vn -1.000000 0.000001 0.000000
vn -1.000000 0.000001 0.000000
vn 0.000000 1.000000 0.000000
vn 0.000000 1.000000 0.000000
vn 0.000000 1.000000 0.000000
vn 0.000000 1.000000 0.000000
vn 0.000001 1.000000 -0.000001
vn 0.000000 1.000000 -0.000001
vn 0.000000 1.000000 0.000001
vn 0.000001 1.000000 0.000001
vn 0.000000 -0.697454 -0.716630
vn 0.000000 -0.697454 -0.716630
vn 0.000000 -0.697454 -0.716630
vn 0.000000 -0.697454 -0.716630
vn 1.000000 0.000003 0.000000
vn 1.000000 0.000003 0.000000
vn 1.000000 0.000003 0.000000
vn 1.000000 0.000003 0.000000
vn 0.000000 0.407443 0.913231
vn 0.000000 0.407443 0.913231
vn 0.000000 0.407443 0.913231
vn 0.000000 0.407443 0.913231
vn -1.000000 0.000001 0.000000
vn -1.000000 0.000001 0.000000
vn -1.000000 0.000001 0.000000
vn -1.000000 0.000001 0.000000
vn 1.000000 -0.000001 0.000000
vn 1.000000 -0.000001 0.000000
vn 1.000000 -0.000001 0.000000
vn 1.000000 -0.000001 0.000000
vn -0.000000 0.697451 -0.716632
vn -0.000000 0.697451 -0.716632
vn -0.000000 0.697451 -0.716632
vn -0.000000 0.697451 -0.716632
vn -1.000000 0.000000 0.000000
vn -1.000000 0.000000 0.000000
vn -1.000000 0.000000 0.000000
vn -1.000000 0.000000 0.000000
vn 0.000000 -0.404723 0.914439
vn 0.000000 -0.404723 0.914439
vn 0.000000 -0.404723 0.914439
vn 0.000000 -0.404723 0.914439
vn 0.000000 1.000000 0.000000
vn 0.000000 1.000000 0.000000
vn 0.000000 1.000000 0.000000
vn 0.000000 1.000000 0.000000
vn -0.000001 1.000000 0.000000
vn -0.000001 1.000000 0.000000
vn -0.000001 1.000000 0.000000
vn -0.000001 1.000000 0.000000
vn 0.000000 1.000000 -0.000000
vn 0.000000 1.000000 -0.000000
vn 0.000000 1.000000 -0.000000
vn 0.000000 1.000000 -0.000000
vn -0.000000 1.000000 0.000000
vn 0.000000 1.000000 0.000000
vn 0.000000 1.000000 0.000000
vn -0.000000 1.000000 0.000000
vn -0.000000 -1.000000 -0.000000
vn -0.000000 -1.000000 -0.000000
vn 0.000000 -1.000000 0.000000
vn -0.000000 -1.000000 -0.000000
vn -0.000000 -1.000000 -0.000000
vn -0.000000 -1.000000 -0.000000
vn -0.914461 0.000000 -0.404673
vn -0.914461 0.000000 -0.404673
vn -0.136709 0.000000 -0.990611
vn -0.136709 0.000000 -0.990611
vn -0.136709 0.000000 -0.990611
vn -0.136709 0.000000 -0.990611
vn 0.000000 0.000000 -1.000000
vn 0.000000 0.000000 -1.000000
vn 0.000000 1.000000 0.000000
vn 0.000000 1.000000 0.000000
vn 0.000000 1.000000 0.000000
vn 0.000000 -1.000000 0.000000
vn -0.000000 -1.000000 -0.000000
vn 0.000000 -1.000000 0.000000
vn 0.000000 -1.000000 0.000000
vn -0.000000 1.000000 -0.000001
vn -0.000000 1.000000 0.000001
vn 0.000000 1.000000 0.000001
vn 0.000000 1.000000 -0.000001
vn 0.000000 1.000000 0.000000
vn 0.000000 1.000000 0.000000
vn 0.000000 1.000000 0.000000
vn 0.000000 1.000000 0.000000
vn 0.000000 1.000000 0.000000
vn 0.000000 1.000000 0.000000
vn 0.000000 1.000000 0.000000
vn -0.000001 1.000000 0.000001
vn -0.000000 1.000000 0.000001
vn -0.000000 1.000000 -0.000001
vn -0.000001 1.000000 -0.000001
vn 0.000001 1.000000 0.000001
vn 0.000000 1.000000 0.000001
vn -0.000000 1.000000 0.000001
vn -0.000001 1.000000 0.000001
s off
f 9/9/1 10/10/2 11/11/3 12/12/4 13/13/5
f 11/11/6 10/10/7 14/14/8 15/15/9
f 15/15/10 14/14/11 16/16/12
f 1/1/13 5/2/14 10/10/15 9/9/16
f 6/3/17 4/4/18 12/12/19 11/11/20
f 4/4/21 3/5/22 13/13/23 12/12/24
f 3/5/25 1/1/26 9/9/27 13/13/28
f 5/2/29 7/6/30 14/14/31 10/10/32
f 8/7/33 6/3/34 11/11/35 15/15/36
f 7/6/37 2/8/38 16/16/39 14/14/40
f 2/8/41 8/7/42 15/15/43 16/16/44
f 17/17/45 19/18/46 20/19/47 18/20/48
f 21/21/49 22/22/50 23/23/51 24/24/52
f 22/22/53 17/17/54 18/20/55 23/23/56
f 20/19/57 19/18/58 21/21/59 24/24/60
f 22/22/61 21/21/62 19/18/63 17/17/64
f 20/19/65 24/24/66 23/23/67 18/20/68
f 32/25/69 55/26/70 56/27/71
f 51/28/72 52/29/73 53/30/74 54/31/75
f 25/32/76 27/33/77 29/34/78
f 25/32/79 29/34/80 28/35/81 26/36/82
f 27/37/83 30/38/84 31/39/85 29/40/86
f 56/27/87 57/41/88 45/42/89 32/25/90
f 37/43/91 36/44/92 33/45/93 35/46/94
f 34/47/95 46/48/96 37/43/97 35/46/98
f 26/49/99 28/50/100 38/51/101 44/52/102
f 28/50/103 29/53/104 39/54/105 38/51/106
f 29/55/107 31/56/108 40/57/109 39/58/110
f 31/56/111 30/59/112 41/60/113 40/57/114
f 30/59/115 27/61/116 42/62/117 41/60/118
f 27/63/119 25/64/120 43/65/121 42/66/122
f 59/67/123 44/52/124 38/51/125 39/58/126
f 42/66/127 60/68/128 61/69/129 41/60/130
f 45/70/131 46/48/132 48/71/133 47/72/134
f 46/48/135 34/47/136 49/73/137 48/71/138
f 34/47/139 32/25/140 50/74/141 49/73/142
f 32/25/143 45/70/144 47/72/145 50/74/146
f 26/49/147 44/52/148 48/75/149 49/76/150
f 44/52/151 43/65/152 47/77/153 48/75/154
f 43/65/155 25/64/156 50/78/157 47/77/158
f 25/64/159 26/49/160 49/76/161 50/78/162
f 32/25/163 34/47/164 52/79/165 51/80/166
f 34/47/167 35/46/168 53/81/169 52/79/170
f 35/46/171 33/45/172 54/82/173 53/81/174
f 33/45/175 55/83/176 51/80/177 54/82/178
f 45/70/179 58/84/180 46/48/181
f 57/85/182 58/84/183 45/70/184
f 33/45/185 36/44/186 58/84/187 55/83/188
f 55/83/189 58/84/190 57/41/191 56/27/192
f 51/80/193 55/83/194 32/25/195
f 46/48/196 58/84/197 36/44/198 37/43/199
f 59/86/200 62/87/201 61/88/202 60/89/203
f 43/65/204 60/68/205 42/66/206
f 43/65/207 44/52/208 59/67/209 60/68/210
f 40/57/211 62/90/212 59/67/213 39/58/214
f 41/60/215 61/69/216 62/90/217 40/57/218
