# This file uses centimeters as units for non-parametric coordinates.

v -17.500000 2.325674 -35.000000
v 17.500000 2.325674 -35.000000
v -17.500000 0.000000 -35.000000
v 17.500000 0.000000 -35.000000
v -17.500000 2.325674 33.129002
v 17.500000 2.325674 33.129002
v 17.500000 0.000000 33.128967
v -17.500000 0.000000 33.128967
v -20.455353 7.540459 35.000000
v 20.455353 7.540459 35.000000
v 20.455353 7.540459 33.129002
v -20.455353 7.540459 33.129002
v 20.455353 -0.570373 33.128967
v -20.455353 -0.570373 33.128967
v 20.455353 -0.570373 35.000000
v -20.455353 -0.570373 35.000000
vt 0.233216 0.281323
vt 0.452419 0.061428
vt 0.499749 0.061428
vt 0.499749 0.132806
vt 0.452419 0.132806
vt 0.499749 0.132806
vt 0.452419 0.132806
vt 0.499749 0.061428
vt 0.452419 0.061428
vt 0.192706 0.232040
vt 0.244793 0.232040
vt 0.244793 0.218174
vt 0.234175 0.281430
vt 0.233175 0.281425
vt 0.192706 0.218174
vt 0.234131 0.281315
vt 0.233114 0.281334
vt 0.234111 0.281267
vt 0.234226 0.281305
vt 0.233217 0.281363
vt 0.234057 0.281217
vt 0.233159 0.281257
vt 0.234175 0.281229
vt 0.233175 0.281233
vt 0.471542 0.122653
vt 0.471235 0.122894
vt 0.471243 0.122915
vt 0.471546 0.122674
vt 0.471971 0.123319
vt 0.471971 0.123338
vt 0.472232 0.123003
vt 0.472235 0.122982
vn 0.000000 1.000000 0.000000
vn 0.000000 1.000000 0.000000
vn 0.000000 1.000000 0.000000
vn 0.000000 1.000000 0.000000
vn 0.000000 0.000000 -1.000000
vn 0.000000 0.000000 -1.000000
vn 0.000000 0.000000 -1.000000
vn 0.000000 0.000000 -1.000000
vn 0.000000 -1.000000 0.000000
vn 0.000000 -1.000000 0.000000
vn 0.000000 -1.000000 0.000000
vn 0.000000 -1.000000 0.000000
vn 1.000000 0.000001 0.000000
vn 1.000000 0.000001 0.000000
vn 1.000000 0.000001 0.000000
vn 1.000000 0.000001 0.000000
vn -1.000000 0.000001 0.000000
vn -1.000000 0.000001 0.000000
vn -1.000000 0.000001 0.000000
vn -1.000000 0.000001 0.000000
vn 0.000000 1.000000 0.000000
vn 0.000000 1.000000 0.000000
vn 0.000000 1.000000 0.000000
vn 0.000000 1.000000 0.000000
vn 1.000000 0.000000 0.000000
vn 1.000000 0.000000 0.000000
vn 1.000000 0.000000 0.000000
vn 1.000000 0.000000 0.000000
vn 0.000000 -1.000000 0.000000
vn 0.000000 -1.000000 0.000000
vn 0.000000 -1.000000 0.000000
vn 0.000000 -1.000000 0.000000
vn -1.000000 0.000000 0.000000
vn -1.000000 0.000000 0.000000
vn -1.000000 0.000000 0.000000
vn -1.000000 0.000000 0.000000
vn 0.000000 0.000000 -1.000000
vn 0.000000 0.000000 -1.000000
vn 0.000000 0.000000 -1.000000
vn 0.000000 0.000000 -1.000000
vn 0.000000 0.000000 -1.000000
vn 0.000000 0.000000 -1.000000
vn 0.000000 0.000000 -1.000000
vn 0.000000 0.000000 -1.000000
vn -0.000006 0.000007 -1.000000
vn -0.000006 0.000007 -1.000000
vn -0.000006 0.000007 -1.000000
vn -0.000006 0.000007 -1.000000
vn 0.000006 0.000007 -1.000000
vn 0.000006 0.000007 -1.000000
vn 0.000006 0.000007 -1.000000
vn 0.000006 0.000007 -1.000000
vn 0.000000 0.000000 1.000000
vn 0.000000 0.000000 1.000000
vn 0.000000 0.000000 1.000000
vn 0.000000 0.000000 1.000000
s off
f 5/2/1 6/3/2 2/4/3 1/5/4
f 1/25/5 2/26/6 4/27/7 3/28/8
f 3/7/9 4/6/10 7/8/11 8/9/12
f 6/29/13 7/30/14 4/27/15 2/26/16
f 3/28/17 8/31/18 5/32/19 1/25/20
f 9/23/21 10/24/22 11/20/23 12/19/24
f 15/14/25 13/17/26 11/20/27 10/24/28
f 14/16/29 13/17/30 15/14/31 16/13/32
f 12/19/33 14/16/34 16/13/35 9/23/36
f 6/1/37 5/18/38 12/19/39 11/20/40
f 8/21/41 7/22/42 13/17/43 14/16/44
f 7/22/45 6/1/46 11/20/47 13/17/48
f 5/18/49 8/21/50 14/16/51 12/19/52
f 15/12/53 10/11/54 9/10/55 16/15/56
