# This file uses centimeters as units for non-parametric coordinates.

v -72.654602 25.021086 15.215088
v 72.654663 25.021086 15.215088
v -72.654602 27.885344 15.215088
v 72.654663 27.885344 15.215088
v -72.654602 27.885344 -14.422119
v 72.654663 27.885344 -14.422119
v -72.654602 25.021086 -14.422119
v 72.654663 25.021086 -14.422119
v -72.936996 0.000000 16.789673
v 72.937004 0.000000 16.789673
v -72.936996 52.767319 16.789673
v 72.937004 52.767319 16.789673
v -72.936996 52.767319 -16.789551
v 72.937004 52.767319 -16.789551
v -72.936996 0.000000 -16.789551
v 72.937004 0.000000 -16.789551
v -72.936996 3.996107 16.789673
v 72.937004 3.996107 16.789673
v 72.937004 48.771210 16.789673
v -72.936996 48.771210 16.789673
v -2.141129 3.996107 16.789673
v -2.141129 48.771210 16.789673
v 2.141159 3.996107 16.789673
v 2.141159 48.771210 16.789673
v -72.936996 3.996107 -13.535522
v -2.141129 3.996107 -13.535522
v -2.141129 48.771210 -13.535522
v -72.936996 48.771210 -13.535522
v 2.141159 3.996107 -13.535522
v 2.141159 48.771210 -13.535522
v 72.937004 3.996107 -13.535522
v 72.937004 48.771210 -13.535522
vt 0.079941 0.282715
vt 0.079941 0.282715
vt 0.079941 0.282715
vt 0.079941 0.282715
vt 0.079941 0.282715
vt 0.079941 0.282715
vt 0.079941 0.282715
vt 0.079941 0.282715
vt 0.079941 0.282715
vt 0.079941 0.282715
vt 0.079941 0.282715
vt 0.079941 0.282715
vt 0.079941 0.282715
vt 0.079941 0.282715
vt 0.079941 0.282715
vt 0.079941 0.282715
vt 0.079941 0.282715
vt 0.079941 0.282715
vt 0.079941 0.282715
vt 0.079941 0.282715
vt 0.079941 0.282715
vt 0.079941 0.282715
vt 0.079941 0.282715
vt 0.079941 0.282715
vt 0.079941 0.282715
vt 0.079941 0.282715
vt 0.079941 0.282715
vt 0.079941 0.282715
vt 0.079941 0.282715
vt 0.079941 0.282715
vt 0.079941 0.282715
vt 0.079941 0.282715
vt 0.079941 0.282715
vt 0.079941 0.282715
vt 0.079941 0.282715
vt 0.079941 0.282715
vt 0.079609 0.282575
vt 0.079441 0.282603
vt 0.079443 0.282622
vt 0.079611 0.282593
vt 0.080291 0.282824
vt 0.080441 0.282749
vt 0.080438 0.282775
vt 0.080289 0.282854
vn 0.000000 0.000000 1.000000
vn 0.000000 0.000000 1.000000
vn 0.000000 0.000000 1.000000
vn 0.000000 0.000000 1.000000
vn 0.000000 1.000000 0.000000
vn 0.000000 1.000000 0.000000
vn 0.000000 1.000000 0.000000
vn 0.000000 1.000000 0.000000
vn 0.000000 -1.000000 0.000000
vn 0.000000 -1.000000 0.000000
vn 0.000000 -1.000000 0.000000
vn 0.000000 -1.000000 0.000000
vn 0.000000 0.000000 1.000000
vn 0.000000 0.000000 1.000000
vn 0.000000 0.000000 1.000000
vn 0.000000 0.000000 1.000000
vn 0.000000 1.000000 0.000000
vn 0.000000 1.000000 0.000000
vn 0.000000 1.000000 0.000000
vn 0.000000 1.000000 0.000000
vn 0.000000 0.000000 -1.000000
vn 0.000000 0.000000 -1.000000
vn 0.000000 0.000000 -1.000000
vn 0.000000 0.000000 -1.000000
vn 0.000000 -1.000000 0.000000
vn 0.000000 -1.000000 0.000000
vn 0.000000 -1.000000 0.000000
vn 0.000000 -1.000000 0.000000
vn 0.000000 0.000000 1.000000
vn 0.000000 0.000000 1.000000
vn 0.000000 0.000000 1.000000
vn 0.000000 0.000000 1.000000
vn 0.000000 0.000000 1.000000
vn 0.000000 0.000000 1.000000
vn 0.000000 0.000000 1.000000
vn 0.000000 0.000000 1.000000
vn 0.000000 0.000000 1.000000
vn 0.000000 0.000000 1.000000
vn 0.000000 0.000000 1.000000
vn 0.000000 0.000000 1.000000
vn 0.000000 0.000000 1.000000
vn 0.000000 0.000000 1.000000
vn 0.000000 0.000000 1.000000
vn 0.000000 0.000000 1.000000
vn 0.000000 0.000000 1.000000
vn 0.000000 0.000000 1.000000
vn 0.000000 0.000000 1.000000
vn 0.000000 0.000000 1.000000
vn 0.000000 1.000000 0.000000
vn 0.000000 1.000000 0.000000
vn 0.000000 1.000000 0.000000
vn 0.000000 1.000000 0.000000
vn -1.000000 0.000000 0.000000
vn -1.000000 0.000000 0.000000
vn -1.000000 0.000000 0.000000
vn -1.000000 0.000000 0.000000
vn 0.000000 -1.000000 0.000000
vn 0.000000 -1.000000 0.000000
vn 0.000000 -1.000000 0.000000
vn 0.000000 -1.000000 0.000000
vn 1.000000 0.000000 0.000000
vn 1.000000 0.000000 0.000000
vn 1.000000 0.000000 0.000000
vn 1.000000 0.000000 0.000000
vn 0.000000 1.000000 0.000000
vn 0.000000 1.000000 0.000000
vn 0.000000 1.000000 0.000000
vn 0.000000 1.000000 0.000000
vn 0.000000 -1.000000 0.000000
vn 0.000000 -1.000000 0.000000
vn 0.000000 -1.000000 0.000000
vn 0.000000 -1.000000 0.000000
vn -1.000000 0.000000 0.000000
vn -1.000000 0.000000 0.000000
vn -1.000000 0.000000 0.000000
vn -1.000000 0.000000 0.000000
vn 1.000000 -0.000000 0.000000
vn 1.000000 -0.000000 0.000000
vn 1.000000 -0.000000 0.000000
vn 1.000000 -0.000000 0.000000
vn 1.000000 0.000000 0.000000
vn 1.000000 0.000000 0.000000
vn 1.000000 0.000000 0.000000
vn 1.000000 0.000000 0.000000
vn 1.000000 -0.000000 0.000000
vn 1.000000 -0.000000 0.000000
vn 1.000000 0.000000 0.000000
vn 1.000000 0.000000 0.000000
vn -1.000000 0.000000 0.000000
vn -1.000000 0.000000 0.000000
vn -1.000000 0.000000 0.000000
vn -1.000000 0.000000 0.000000
vn -1.000000 0.000000 0.000000
vn -1.000000 0.000000 0.000000
vn -1.000000 0.000000 0.000000
vn -1.000000 0.000000 0.000000
vn 1.000000 0.000000 0.000000
vn 1.000000 0.000000 0.000000
vn 1.000000 0.000000 0.000000
vn 1.000000 0.000000 0.000000
vn -1.000000 0.000000 0.000000
vn -1.000000 0.000000 0.000000
vn -1.000000 0.000000 0.000000
vn -1.000000 0.000000 0.000000
s off
f 1/1/1 2/2/2 4/4/3 3/3/4
f 3/3/5 4/4/6 6/6/7 5/5/8
f 7/7/9 8/8/10 2/10/11 1/9/12
f 25/11/13 26/12/14 27/13/15 28/14/16
f 11/15/17 12/16/18 14/17/19 13/18/20
f 13/18/21 14/17/22 16/19/23 15/20/24
f 15/20/25 16/19/26 10/21/27 9/22/28
f 9/23/29 10/24/30 18/25/31 23/26/32 21/27/33 17/28/34
f 12/16/35 11/15/36 20/30/37 22/31/38 24/32/39 19/29/40
f 24/32/41 22/31/42 21/27/43 23/26/44
f 30/33/45 29/34/46 31/35/47 32/36/48
f 17/28/49 21/27/50 26/12/51 25/11/52
f 21/27/53 22/31/54 27/13/55 26/12/56
f 22/31/57 20/30/58 28/14/59 27/13/60
f 24/32/61 23/26/62 29/34/63 30/33/64
f 23/26/65 18/25/66 31/35/67 29/34/68
f 19/29/69 24/32/70 30/33/71 32/36/72
f 13/18/73 28/14/74 20/30/75 11/15/76
f 14/17/77 12/16/78 19/29/79 32/36/80
f 16/19/81 31/35/82 18/25/83 10/21/84
f 14/17/85 32/36/86 31/35/87 16/19/88
f 25/11/89 15/20/90 9/23/91 17/28/92
f 25/11/93 28/14/94 13/18/95 15/20/96
f 6/37/97 4/38/98 2/39/99 8/40/100
f 3/41/101 5/42/102 7/43/103 1/44/104
