# This file uses centimeters as units for non-parametric coordinates.

v 8.672867 5.629250 -8.672512
v 0.000478 5.629250 -12.264641
v -8.671913 5.629250 -8.672512
v -12.263557 5.629250 -0.000120
v -8.671913 5.629250 8.672089
v 0.000478 5.629250 12.264099
v 8.672867 5.629250 8.672089
v 12.264633 5.629250 -0.000120
v 8.672867 95.073082 -8.672512
v 0.000478 95.073082 -12.264641
v -8.671913 95.073082 -8.672512
v -12.263557 95.073082 -0.000120
v -8.671913 95.073082 8.672089
v 0.000478 95.073082 12.264099
v 8.672867 95.073082 8.672089
v 12.264633 95.073082 -0.000120
v 0.000478 64.690506 12.264099
v -8.671913 64.690506 8.672089
v -12.263557 64.690506 -0.000120
v -8.671913 64.690506 -8.672512
v 0.000478 64.690506 -12.264641
v 8.672867 64.690506 -8.672512
v 12.264633 64.690506 -0.000120
v 8.672867 64.690506 8.672089
v 0.000478 82.932152 12.264099
v -8.671913 82.932152 8.672089
v -12.263557 82.932152 -0.000120
v -8.671913 82.932152 -8.672512
v 0.000478 82.932152 -12.264641
v 8.672867 82.932152 -8.672512
v 12.264633 82.932152 -0.000120
v 8.672867 82.932152 8.672089
v 6.992382 99.179047 -6.991844
v 0.000478 99.179047 -9.887871
v 0.000478 99.179047 -0.000120
v -6.991184 99.179047 -6.991844
v -9.887093 99.179047 -0.000120
v -6.991184 99.179047 6.991364
v 0.000478 99.179047 9.887329
v 6.992382 99.179047 6.991364
v 9.888168 99.179047 -0.000120
v 13.565811 3.292397 -13.565277
v 0.000478 3.292397 -19.184021
v -13.564377 3.292397 -13.565277
v -19.182877 3.292397 -0.000120
v -13.564377 3.292397 13.564850
v 0.000478 3.292397 19.183487
v 13.565811 3.292397 13.564850
v 19.183960 3.292397 -0.000120
v 13.565811 0.000000 -13.565277
v 0.000478 0.000000 -19.184021
v 0.000478 0.000000 -0.000120
v -13.564377 0.000000 -13.565277
v -19.182877 0.000000 -0.000120
v -13.564377 0.000000 13.564850
v 0.000478 0.000000 19.183487
v 13.565811 0.000000 13.564850
v 19.183960 0.000000 -0.000120
v 0.000478 66.398438 11.183296
v -7.907661 66.398438 7.907902
v 0.000478 81.224213 11.183296
v -7.907661 81.224213 7.907902
v -11.182877 66.398438 -0.000120
v -11.182877 81.224213 -0.000120
v -7.907661 66.398438 -7.908382
v -7.907661 81.224213 -7.908382
v 0.000478 66.398438 -11.183838
v 0.000478 81.224213 -11.183838
v 7.908737 66.398438 -7.908382
v 7.908737 81.224213 -7.908382
v 11.183952 66.398438 -0.000120
v 11.183952 81.224213 -0.000120
v 7.908737 66.398438 7.907902
v 7.908737 81.224213 7.907902
vt 0.134644 0.302176
vt 0.134644 0.302176
vt 0.134644 0.302176
vt 0.134644 0.302176
vt 0.134644 0.302176
vt 0.134644 0.302176
vt 0.134644 0.302176
vt 0.134644 0.302176
vt 0.132803 0.327943
vt 0.132803 0.327943
vt 0.132803 0.327943
vt 0.132803 0.327943
vt 0.132803 0.327943
vt 0.132803 0.327943
vt 0.132803 0.327943
vt 0.132803 0.327943
vt 0.132803 0.327943
vt 0.132803 0.327943
vt 0.132803 0.327943
vt 0.132803 0.327943
vt 0.132803 0.327943
vt 0.132803 0.327943
vt 0.132803 0.327943
vt 0.132803 0.327943
vt 0.132803 0.327943
vt 0.132803 0.327943
vt 0.132803 0.327943
vt 0.132803 0.327943
vt 0.132803 0.327943
vt 0.132803 0.327943
vt 0.132803 0.327943
vt 0.132803 0.327943
vt 0.132803 0.327943
vt 0.132803 0.327943
vt 0.134644 0.302176
vt 0.132803 0.327943
vt 0.132803 0.327943
vt 0.132803 0.327943
vt 0.132803 0.327943
vt 0.132803 0.327943
vt 0.132803 0.327943
vt 0.132803 0.327943
vt 0.132803 0.327943
vt 0.132803 0.327943
vt 0.132803 0.327943
vt 0.132803 0.327943
vt 0.132803 0.327943
vt 0.132803 0.327943
vt 0.132803 0.327943
vt 0.132803 0.327943
vt 0.132803 0.327943
vt 0.132803 0.327943
vt 0.132803 0.327943
vt 0.132803 0.327943
vt 0.133789 0.276611
vt 0.133789 0.276611
vt 0.133789 0.276611
vt 0.133789 0.276611
vt 0.133789 0.276611
vt 0.133789 0.276611
vt 0.133789 0.276611
vt 0.133789 0.276611
vt 0.133789 0.276611
vt 0.133789 0.276611
vt 0.133789 0.276611
vt 0.133789 0.276611
vt 0.133789 0.276611
vt 0.133789 0.276611
vt 0.133789 0.276611
vt 0.133789 0.276611
vt 0.132803 0.327943
vt 0.132803 0.327943
vt 0.132803 0.327943
vt 0.132803 0.327943
vt 0.132803 0.327943
vt 0.132803 0.327943
vt 0.132803 0.327943
vt 0.132803 0.327943
vt 0.134644 0.302176
vt 0.134644 0.302176
vt 0.134644 0.302176
vt 0.134644 0.302176
vt 0.134644 0.302176
vt 0.134644 0.302176
vt 0.134644 0.302176
vt 0.134644 0.302176
vt 0.134644 0.302176
vt 0.134644 0.302176
vt 0.134644 0.302176
vt 0.134644 0.302176
vt 0.134644 0.302176
vt 0.134644 0.302176
vt 0.134644 0.302176
vt 0.134644 0.302176
vt 0.003906 0.124435
vt 0.003906 0.124435
vt 0.003906 0.124435
vt 0.003906 0.124435
vt 0.003906 0.124435
vt 0.003906 0.124435
vt 0.003906 0.124435
vt 0.003906 0.124435
vt 0.003906 0.124435
vt 0.003906 0.124435
vt 0.003906 0.124435
vt 0.003906 0.124435
vt 0.003906 0.124435
vt 0.003906 0.124435
vt 0.003906 0.124435
vt 0.003906 0.124435
vt 0.133789 0.276611
vt 0.133789 0.276611
vt 0.133789 0.276611
vt 0.133789 0.276611
vt 0.133789 0.276611
vt 0.133789 0.276611
vt 0.133789 0.276611
vt 0.133789 0.276611
vt 0.133789 0.276611
vt 0.133789 0.276611
vt 0.133789 0.276611
vt 0.133789 0.276611
vt 0.133789 0.276611
vt 0.133789 0.276611
vt 0.133789 0.276611
vt 0.133789 0.276611
vn 0.382675 0.000000 -0.923883
vn 0.382675 0.000000 -0.923883
vn 0.382675 0.000000 -0.923883
vn 0.382675 0.000000 -0.923883
vn -0.382675 0.000000 -0.923883
vn -0.382675 0.000000 -0.923883
vn -0.382675 0.000000 -0.923883
vn -0.382675 0.000000 -0.923883
vn -0.923901 0.000000 -0.382631
vn -0.923901 0.000000 -0.382631
vn -0.923901 0.000000 -0.382631
vn -0.923901 0.000000 -0.382631
vn -0.923898 0.000000 0.382638
vn -0.923898 0.000000 0.382638
vn -0.923898 0.000000 0.382638
vn -0.923898 0.000000 0.382638
vn -0.382664 0.000000 0.923888
vn -0.382664 0.000000 0.923888
vn -0.382664 0.000000 0.923888
vn -0.382664 0.000000 0.923888
vn 0.382664 0.000000 0.923887
vn 0.382664 0.000000 0.923887
vn 0.382664 0.000000 0.923887
vn 0.382664 0.000000 0.923887
vn 0.923894 0.000000 0.382649
vn 0.923894 0.000000 0.382649
vn 0.923894 0.000000 0.382649
vn 0.923894 0.000000 0.382649
vn 0.923897 0.000000 -0.382642
vn 0.923897 0.000000 -0.382642
vn 0.923897 0.000000 -0.382642
vn 0.923897 0.000000 -0.382642
vn 0.000000 -1.000000 0.000000
vn 0.000000 -1.000000 0.000000
vn 0.000000 -1.000000 0.000000
vn 0.000000 -1.000000 0.000000
vn 0.000000 -1.000000 0.000000
vn 0.000000 -1.000000 0.000000
vn 0.000000 -1.000000 0.000000
vn 0.000000 -1.000000 0.000000
vn 0.000000 -1.000000 0.000000
vn 0.000000 -1.000000 0.000000
vn 0.000000 -1.000000 0.000000
vn 0.000000 -1.000000 0.000000
vn 0.000000 -1.000000 0.000000
vn 0.000000 -1.000000 0.000000
vn 0.000000 -1.000000 0.000000
vn 0.000000 -1.000000 0.000000
vn 0.000000 -1.000000 0.000000
vn 0.000000 -1.000000 0.000000
vn 0.000000 -1.000000 0.000000
vn 0.000000 -1.000000 0.000000
vn 0.000000 -1.000000 0.000000
vn 0.000000 -1.000000 0.000000
vn 0.000000 -1.000000 0.000000
vn 0.000000 -1.000000 0.000000
vn 0.000000 1.000000 0.000000
vn 0.000000 1.000000 0.000000
vn 0.000000 1.000000 0.000000
vn 0.000000 1.000000 0.000000
vn 0.000000 1.000000 0.000000
vn 0.000000 1.000000 0.000000
vn 0.000000 1.000000 0.000000
vn 0.000000 1.000000 0.000000
vn 0.000000 1.000000 0.000000
vn 0.000000 1.000000 0.000000
vn 0.000000 1.000000 0.000000
vn 0.000000 1.000000 0.000000
vn 0.000000 1.000000 0.000000
vn 0.000000 1.000000 0.000000
vn 0.000000 1.000000 0.000000
vn 0.000000 1.000000 0.000000
vn 0.000000 1.000000 0.000001
vn 0.000000 1.000000 0.000000
vn 0.000000 1.000000 0.000001
vn 0.000000 1.000000 0.000001
vn 0.000000 1.000000 0.000000
vn 0.000000 1.000000 0.000001
vn 0.000000 1.000000 0.000000
vn 0.000000 1.000000 0.000000
vn -0.382657 0.000000 0.923890
vn -0.382657 0.000000 0.923890
vn -0.382657 0.000000 0.923890
vn -0.382657 0.000000 0.923890
vn -0.923896 0.000000 0.382644
vn -0.923896 0.000000 0.382644
vn -0.923896 0.000000 0.382644
vn -0.923896 0.000000 0.382644
vn -0.923900 0.000000 -0.382634
vn -0.923900 0.000000 -0.382634
vn -0.923900 0.000000 -0.382634
vn -0.923900 0.000000 -0.382634
vn -0.382663 0.000000 -0.923888
vn -0.382663 0.000000 -0.923888
vn -0.382663 0.000000 -0.923888
vn -0.382663 0.000000 -0.923888
vn 0.382658 0.000000 -0.923890
vn 0.382658 0.000000 -0.923890
vn 0.382658 0.000000 -0.923890
vn 0.382658 0.000000 -0.923890
vn 0.923900 0.000000 -0.382634
vn 0.923900 0.000000 -0.382634
vn 0.923900 0.000000 -0.382634
vn 0.923900 0.000000 -0.382634
vn 0.923896 0.000000 0.382644
vn 0.923896 0.000000 0.382644
vn 0.923896 0.000000 0.382644
vn 0.923896 0.000000 0.382644
vn 0.382652 0.000000 0.923892
vn 0.382652 0.000000 0.923892
vn 0.382652 0.000000 0.923892
vn 0.382652 0.000000 0.923892
vn -0.382664 0.000000 0.923887
vn -0.382664 0.000000 0.923887
vn -0.382664 0.000000 0.923887
vn -0.382664 0.000000 0.923887
vn -0.923899 0.000000 0.382638
vn -0.923899 0.000000 0.382638
vn -0.923899 0.000000 0.382638
vn -0.923899 0.000000 0.382638
vn -0.923901 0.000000 -0.382631
vn -0.923901 0.000000 -0.382631
vn -0.923901 0.000000 -0.382631
vn -0.923901 0.000000 -0.382631
vn -0.382675 0.000000 -0.923883
vn -0.382675 0.000000 -0.923883
vn -0.382675 0.000000 -0.923883
vn -0.382675 0.000000 -0.923883
vn 0.382675 0.000000 -0.923883
vn 0.382675 0.000000 -0.923883
vn 0.382675 0.000000 -0.923883
vn 0.382675 0.000000 -0.923883
vn 0.923897 0.000000 -0.382642
vn 0.923897 0.000000 -0.382642
vn 0.923897 0.000000 -0.382642
vn 0.923897 0.000000 -0.382642
vn 0.923894 0.000000 0.382649
vn 0.923894 0.000000 0.382649
vn 0.923894 0.000000 0.382649
vn 0.923894 0.000000 0.382649
vn 0.382664 0.000000 0.923887
vn 0.382664 0.000000 0.923887
vn 0.382664 0.000000 0.923887
vn 0.382664 0.000000 0.923887
vn 0.337448 0.471590 -0.814697
vn 0.337448 0.471590 -0.814698
vn 0.337448 0.471590 -0.814698
vn 0.337448 0.471590 -0.814697
vn -0.337450 0.471597 -0.814692
vn -0.337450 0.471597 -0.814692
vn -0.337450 0.471597 -0.814692
vn -0.337450 0.471597 -0.814692
vn -0.814714 0.471577 -0.337428
vn -0.814714 0.471577 -0.337428
vn -0.814714 0.471577 -0.337427
vn -0.814714 0.471577 -0.337428
vn -0.814709 0.471579 0.337435
vn -0.814709 0.471579 0.337435
vn -0.814709 0.471579 0.337435
vn -0.814709 0.471579 0.337435
vn -0.337442 0.471602 0.814693
vn -0.337442 0.471602 0.814693
vn -0.337442 0.471602 0.814693
vn -0.337442 0.471602 0.814693
vn 0.337439 0.471594 0.814699
vn 0.337439 0.471594 0.814699
vn 0.337439 0.471594 0.814699
vn 0.337439 0.471594 0.814699
vn 0.814719 0.471559 0.337439
vn 0.814719 0.471560 0.337439
vn 0.814719 0.471560 0.337439
vn 0.814719 0.471560 0.337439
vn 0.814723 0.471558 -0.337431
vn 0.814723 0.471558 -0.337431
vn 0.814723 0.471558 -0.337431
vn 0.814723 0.471558 -0.337431
vn 0.131383 0.939215 -0.317196
vn 0.131383 0.939215 -0.317196
vn 0.131383 0.939215 -0.317196
vn 0.131383 0.939215 -0.317196
vn -0.131387 0.939214 -0.317199
vn -0.131387 0.939214 -0.317199
vn -0.131387 0.939214 -0.317199
vn -0.131387 0.939214 -0.317199
vn -0.317208 0.939212 -0.131378
vn -0.317208 0.939212 -0.131378
vn -0.317208 0.939212 -0.131378
vn -0.317208 0.939212 -0.131378
vn -0.317208 0.939212 0.131380
vn -0.317208 0.939212 0.131380
vn -0.317208 0.939212 0.131380
vn -0.317208 0.939212 0.131380
vn -0.131384 0.939214 0.317200
vn -0.131384 0.939214 0.317200
vn -0.131384 0.939214 0.317200
vn -0.131384 0.939214 0.317200
vn 0.131380 0.939215 0.317197
vn 0.131380 0.939215 0.317197
vn 0.131380 0.939215 0.317197
vn 0.131380 0.939215 0.317197
vn 0.317199 0.939216 0.131373
vn 0.317199 0.939216 0.131373
vn 0.317199 0.939216 0.131373
vn 0.317199 0.939216 0.131373
vn 0.317200 0.939216 -0.131371
vn 0.317199 0.939216 -0.131371
vn 0.317200 0.939216 -0.131371
vn 0.317200 0.939216 -0.131371
vn 0.382672 0.000000 -0.923884
vn 0.382672 0.000000 -0.923884
vn 0.382672 0.000000 -0.923884
vn 0.382672 0.000000 -0.923884
vn -0.382683 0.000000 -0.923880
vn -0.382683 0.000000 -0.923880
vn -0.382683 0.000000 -0.923880
vn -0.382683 0.000000 -0.923880
vn -0.923888 0.000000 -0.382662
vn -0.923888 0.000000 -0.382662
vn -0.923888 0.000000 -0.382662
vn -0.923888 0.000000 -0.382662
vn -0.923887 0.000000 0.382666
vn -0.923887 0.000000 0.382666
vn -0.923887 0.000000 0.382666
vn -0.923887 0.000000 0.382666
vn -0.382677 0.000000 0.923882
vn -0.382677 0.000000 0.923882
vn -0.382677 0.000000 0.923882
vn -0.382677 0.000000 0.923882
vn 0.382666 0.000000 0.923887
vn 0.382666 0.000000 0.923887
vn 0.382666 0.000000 0.923887
vn 0.382666 0.000000 0.923887
vn 0.923895 0.000000 0.382646
vn 0.923895 0.000000 0.382646
vn 0.923895 0.000000 0.382646
vn 0.923895 0.000000 0.382646
vn 0.923897 0.000000 -0.382641
vn 0.923897 0.000000 -0.382641
vn 0.923897 0.000000 -0.382641
vn 0.923897 0.000000 -0.382641
vn -0.330347 0.504705 0.797586
vn -0.330347 0.504705 0.797586
vn -0.330347 0.504705 0.797586
vn -0.330347 0.504705 0.797586
vn -0.330349 -0.504705 0.797586
vn -0.330349 -0.504705 0.797586
vn -0.330349 -0.504705 0.797586
vn -0.330349 -0.504705 0.797586
vn -0.797601 0.504691 0.330333
vn -0.797601 0.504691 0.330333
vn -0.797601 0.504691 0.330333
vn -0.797601 0.504691 0.330333
vn -0.797601 -0.504689 0.330335
vn -0.797601 -0.504689 0.330335
vn -0.797601 -0.504689 0.330335
vn -0.797601 -0.504689 0.330335
vn -0.797606 0.504687 -0.330327
vn -0.797606 0.504687 -0.330327
vn -0.797606 0.504687 -0.330327
vn -0.797606 0.504687 -0.330327
vn -0.797606 -0.504685 -0.330328
vn -0.797606 -0.504685 -0.330328
vn -0.797606 -0.504685 -0.330328
vn -0.797606 -0.504685 -0.330328
vn -0.330357 0.504695 -0.797588
vn -0.330357 0.504695 -0.797588
vn -0.330357 0.504695 -0.797588
vn -0.330357 0.504695 -0.797588
vn -0.330358 -0.504695 -0.797588
vn -0.330358 -0.504695 -0.797588
vn -0.330358 -0.504695 -0.797588
vn -0.330358 -0.504695 -0.797588
vn 0.330358 0.504688 -0.797592
vn 0.330358 0.504688 -0.797592
vn 0.330358 0.504688 -0.797592
vn 0.330358 0.504688 -0.797592
vn 0.330357 -0.504684 -0.797595
vn 0.330357 -0.504684 -0.797595
vn 0.330357 -0.504684 -0.797595
vn 0.330357 -0.504684 -0.797595
vn 0.797615 0.504666 -0.330337
vn 0.797615 0.504666 -0.330337
vn 0.797615 0.504666 -0.330337
vn 0.797615 0.504666 -0.330337
vn 0.797616 -0.504664 -0.330339
vn 0.797616 -0.504664 -0.330339
vn 0.797616 -0.504664 -0.330339
vn 0.797616 -0.504664 -0.330339
vn 0.797610 0.504670 0.330344
vn 0.797610 0.504670 0.330344
vn 0.797610 0.504670 0.330344
vn 0.797610 0.504670 0.330344
vn 0.797610 -0.504668 0.330345
vn 0.797611 -0.504668 0.330345
vn 0.797611 -0.504668 0.330345
vn 0.797610 -0.504668 0.330345
vn 0.330349 0.504698 0.797590
vn 0.330349 0.504698 0.797590
vn 0.330349 0.504698 0.797590
vn 0.330349 0.504698 0.797590
vn 0.330347 -0.504694 0.797593
vn 0.330347 -0.504694 0.797593
vn 0.330347 -0.504694 0.797593
vn 0.330347 -0.504694 0.797593
s off
f 1/9/1 2/10/2 21/41/3 22/43/4
f 2/10/5 3/11/6 20/40/7 21/41/8
f 3/11/9 4/12/10 19/39/11 20/40/12
f 4/12/13 5/13/14 18/38/15 19/39/16
f 5/13/17 6/14/18 17/37/19 18/38/20
f 6/14/21 7/15/22 24/45/23 17/37/24
f 7/15/25 8/16/26 23/44/27 24/45/28
f 8/16/29 1/17/30 22/42/31 23/44/32
f 51/1/33 50/2/34 52/3/35
f 53/4/36 51/1/37 52/3/38
f 54/5/39 53/4/40 52/3/41
f 55/6/42 54/5/43 52/3/44
f 56/7/45 55/6/46 52/3/47
f 57/8/48 56/7/49 52/3/50
f 58/35/51 57/8/52 52/3/53
f 50/2/54 58/35/55 52/3/56
f 33/71/57 34/72/58 35/36/59
f 34/72/60 36/73/61 35/36/62
f 36/73/63 37/74/64 35/36/65
f 37/74/66 38/75/67 35/36/68
f 38/75/69 39/76/70 35/36/71
f 39/76/72 40/77/73 35/36/74
f 40/77/75 41/78/76 35/36/77
f 41/78/78 33/71/79 35/36/80
f 60/95/81 59/96/82 61/97/83 62/98/84
f 63/99/85 60/95/86 62/98/87 64/100/88
f 65/101/89 63/99/90 64/100/91 66/102/92
f 67/103/93 65/101/94 66/102/95 68/104/96
f 69/105/97 67/103/98 68/104/99 70/106/100
f 71/107/101 69/105/102 70/106/103 72/108/104
f 73/109/105 71/107/106 72/108/107 74/110/108
f 59/96/109 73/109/110 74/110/111 61/97/112
f 26/47/113 25/46/114 14/23/115 13/22/116
f 27/48/117 26/47/118 13/22/119 12/21/120
f 28/49/121 27/48/122 12/21/123 11/20/124
f 29/50/125 28/49/126 11/20/127 10/19/128
f 30/52/129 29/50/130 10/19/131 9/18/132
f 31/53/133 30/51/134 9/26/135 16/25/136
f 32/54/137 31/53/138 16/25/139 15/24/140
f 25/46/141 32/54/142 15/24/143 14/23/144
f 9/33/145 10/32/146 34/72/147 33/71/148
f 10/32/149 11/31/150 36/73/151 34/72/152
f 11/31/153 12/30/154 37/74/155 36/73/156
f 12/30/157 13/29/158 38/75/159 37/74/160
f 13/29/161 14/28/162 39/76/163 38/75/164
f 14/28/165 15/27/166 40/77/167 39/76/168
f 15/27/169 16/34/170 41/78/171 40/77/172
f 16/34/173 9/33/174 33/71/175 41/78/176
f 2/79/177 1/80/178 42/81/179 43/82/180
f 3/83/181 2/79/182 43/82/183 44/84/184
f 4/85/185 3/83/186 44/84/187 45/86/188
f 5/87/189 4/85/190 45/86/191 46/88/192
f 6/89/193 5/87/194 46/88/195 47/90/196
f 7/91/197 6/89/198 47/90/199 48/92/200
f 8/93/201 7/91/202 48/92/203 49/94/204
f 1/80/205 8/93/206 49/94/207 42/81/208
f 43/82/209 42/81/210 50/2/211 51/1/212
f 44/84/213 43/82/214 51/1/215 53/4/216
f 45/86/217 44/84/218 53/4/219 54/5/220
f 46/88/221 45/86/222 54/5/223 55/6/224
f 47/90/225 46/88/226 55/6/227 56/7/228
f 48/92/229 47/90/230 56/7/231 57/8/232
f 49/94/233 48/92/234 57/8/235 58/35/236
f 42/81/237 49/94/238 58/35/239 50/2/240
f 18/55/241 17/56/242 59/57/243 60/58/244
f 25/59/245 26/60/246 62/61/247 61/62/248
f 19/63/249 18/55/250 60/58/251 63/64/252
f 26/60/253 27/65/254 64/66/255 62/61/256
f 20/67/257 19/63/258 63/64/259 65/68/260
f 27/65/261 28/69/262 66/70/263 64/66/264
f 21/111/265 20/67/266 65/68/267 67/112/268
f 28/69/269 29/113/270 68/114/271 66/70/272
f 22/115/273 21/111/274 67/112/275 69/116/276
f 29/113/277 30/117/278 70/118/279 68/114/280
f 23/119/281 22/115/282 69/116/283 71/120/284
f 30/117/285 31/121/286 72/122/287 70/118/288
f 24/123/289 23/119/290 71/120/291 73/124/292
f 31/121/293 32/125/294 74/126/295 72/122/296
f 17/56/297 24/123/298 73/124/299 59/57/300
f 32/125/301 25/59/302 61/62/303 74/126/304
