# This file uses centimeters as units for non-parametric coordinates.

v -25.964790 2.800893 -14.786328
v 25.964790 2.800893 -14.786328
v -25.964790 0.501781 -14.284096
v 25.964790 0.501781 -14.284096
v -25.964790 2.800893 -12.153743
v 25.964790 2.800893 -12.153743
v 25.964790 0.000000 -12.153743
v -25.964790 0.000000 -12.153743
v -23.314478 2.800893 16.768780
v 23.314478 2.800893 16.768780
v 23.314478 2.800893 -5.190542
v -23.314478 2.800893 -5.190542
v -23.314478 5.343303 -12.902188
v 23.314478 5.343303 -12.902188
v 23.314478 34.476627 -21.478428
v -23.314478 34.476627 -21.478428
v -25.964790 0.000000 16.769041
v -23.314749 0.000000 19.419058
v -25.188608 0.000000 18.642893
v -25.964790 2.800893 16.769041
v -25.188608 2.800893 18.642893
v -23.314749 2.800893 19.419058
v 25.964790 0.000000 16.769041
v 25.188608 0.000000 18.642893
v 23.314749 0.000000 19.419058
v 23.314749 2.800893 19.419058
v 25.188608 2.800893 18.642893
v 25.964790 2.800893 16.769041
v 25.964790 34.476654 -21.478445
v 25.188677 36.274395 -22.007656
v 23.314983 37.019043 -22.226875
v 23.314983 36.228287 -24.737869
v 25.188677 35.484348 -24.516394
v 25.964790 33.688332 -23.981707
v -23.314983 37.019043 -22.226875
v -25.188677 36.274395 -22.007656
v -25.964790 34.476654 -21.478445
v -25.188677 35.484348 -24.516394
v -23.314983 36.228287 -24.737869
v -25.964790 33.688332 -23.981707
v -4.058336 21.657351 -20.399975
v -4.058336 17.371866 -19.124207
v 4.058336 21.662066 -20.401407
v 4.058336 17.367113 -19.122774
v 0.000000 24.236202 -21.167747
v 0.000000 14.792975 -18.356417
v 0.000000 19.175606 -19.661160
vt 0.493030 0.355945
vt 0.493756 0.355990
vt 0.493757 0.356107
vt 0.420616 0.328016
vt 0.481208 0.328016
vt 0.481208 0.356552
vt 0.420616 0.356552
vt 0.493021 0.355940
vt 0.000000 -0.000000
vt 1.000000 -0.000000
vt 1.000000 1.000000
vt 0.000000 1.000000
vt 0.493761 0.355986
vt 0.493750 0.356379
vt 0.493003 0.356058
vt 0.492940 0.356321
vt 0.493756 0.356015
vt 0.493021 0.355940
vt 0.493769 0.356395
vt 0.493731 0.356397
vt 0.492959 0.356370
vt 0.492919 0.356304
vt 0.493774 0.356366
vt 0.493727 0.356427
vt 0.493025 0.355970
vt 0.492924 0.356334
vt 0.492954 0.356341
vt 0.493770 0.356430
vt 0.493776 0.356401
vt 0.492915 0.356367
vt 0.492909 0.356338
vt 0.493027 0.355463
vt 0.493761 0.355986
vt 0.493790 0.355500
vt 0.493028 0.355916
vt 0.493044 0.355441
vt 0.493012 0.355467
vt 0.493812 0.355516
vt 0.493772 0.355466
vt 0.493004 0.355476
vt 0.493775 0.355476
vt 0.493052 0.355432
vt 0.493760 0.355961
vt 0.493809 0.355506
vt 0.493003 0.355439
vt 0.493011 0.355430
vt 0.493816 0.355478
vt 0.493813 0.355468
vt 0.493760 0.355961
vt 0.493772 0.355466
vt 0.493052 0.355432
vt 0.493028 0.355916
vt 0.493412 0.355449
vt 0.493394 0.355938
vt 0.454254 0.009496
vt 0.269322 0.008382
vt 0.133899 0.009809
vt 0.453675 0.009864
vt 0.134390 0.010150
vt 0.269327 0.007753
vt 0.133886 0.010419
vt 0.453690 0.009177
vt 0.133390 0.010139
vt 0.269897 0.008076
vt 0.269883 0.008753
vt 0.454277 0.008864
vn 0.000000 0.000000 1.000000
vn 0.000000 0.000000 1.000000
vn 0.000000 0.000000 1.000000
vn 0.000000 0.000000 1.000000
vn -0.000000 0.953821 -0.300375
vn -0.000000 0.953821 -0.300375
vn -0.000000 0.953821 -0.300375
vn -0.000000 0.953821 -0.300375
vn -0.000000 -0.213407 -0.976963
vn -0.000000 -0.213407 -0.976963
vn -0.000000 -0.213407 -0.976963
vn -0.000000 -0.213407 -0.976963
vn -0.000000 -0.973364 -0.229265
vn -0.000000 -0.973364 -0.229265
vn -0.000000 -0.973364 -0.229265
vn -0.000000 -0.973364 -0.229265
vn 1.000000 0.000001 0.000000
vn 1.000000 0.000001 0.000000
vn 1.000000 0.000001 0.000000
vn 1.000000 0.000001 0.000000
vn -1.000000 0.000001 0.000000
vn -1.000000 0.000001 0.000000
vn -1.000000 0.000001 0.000000
vn -1.000000 0.000001 0.000000
vn 1.000000 0.000000 0.000000
vn 1.000000 0.000000 0.000000
vn 1.000000 0.000000 0.000000
vn 1.000000 0.000000 0.000000
vn -1.000000 0.000000 0.000000
vn -1.000000 0.000000 0.000000
vn -1.000000 0.000000 0.000000
vn -1.000000 0.000000 0.000000
vn 0.000000 0.282397 0.959297
vn 0.000000 0.282397 0.959297
vn 0.000000 0.282397 0.959297
vn 0.000000 0.282397 0.959297
vn 1.000000 0.000000 0.000000
vn 1.000000 0.000000 0.000000
vn 1.000000 0.000000 0.000000
vn 1.000000 0.000000 0.000000
vn -1.000000 0.000000 0.000000
vn -1.000000 0.000000 0.000000
vn -1.000000 0.000000 0.000000
vn -1.000000 0.000000 0.000000
vn 0.000000 1.000000 0.000000
vn 0.000000 1.000000 0.000000
vn 0.000000 1.000000 0.000000
vn 0.000000 1.000000 0.000000
vn 0.000000 1.000000 0.000000
vn 0.000000 1.000000 0.000000
vn 0.000000 1.000000 0.000000
vn 0.000000 1.000000 0.000000
vn 0.000000 1.000000 0.000000
vn 0.000000 1.000000 0.000000
vn 0.000000 1.000000 0.000000
vn 0.000000 1.000000 0.000000
vn 0.000000 1.000000 0.000000
vn 0.000000 1.000000 0.000000
vn 0.000000 1.000000 0.000000
vn 0.000000 1.000000 0.000000
vn 0.000000 0.282397 0.959298
vn 0.000000 0.282397 0.959298
vn 0.000000 0.282397 0.959298
vn 0.000000 0.282397 0.959298
vn 0.000001 0.282397 0.959298
vn 0.000001 0.282397 0.959298
vn 0.000001 0.282397 0.959298
vn 0.000001 0.282397 0.959298
vn 0.000000 1.000000 0.000000
vn 0.000000 1.000000 0.000000
vn 0.000000 1.000000 0.000000
vn 0.000000 1.000000 0.000000
vn -0.923879 0.000000 0.382684
vn -0.923879 0.000000 0.382684
vn -0.923879 0.000000 0.382684
vn -0.923879 0.000000 0.382684
vn -0.382683 0.000000 0.923880
vn -0.382683 0.000000 0.923880
vn -0.382683 0.000000 0.923880
vn -0.382683 0.000000 0.923880
vn 0.382683 0.000000 0.923880
vn 0.382683 0.000000 0.923880
vn 0.382683 0.000000 0.923880
vn 0.382683 0.000000 0.923880
vn 0.923879 0.000000 0.382684
vn 0.923879 0.000000 0.382684
vn 0.923879 0.000000 0.382684
vn 0.923879 0.000000 0.382684
vn 0.000000 1.000000 0.000000
vn 0.000000 1.000000 0.000000
vn 0.000000 1.000000 0.000000
vn -0.000000 1.000000 -0.000000
vn -0.000000 1.000000 -0.000000
vn -0.000000 1.000000 -0.000000
vn -0.000000 -1.000000 -0.000000
vn -0.000000 -1.000000 -0.000000
vn -0.000000 -1.000000 -0.000000
vn -0.000000 -1.000000 -0.000000
vn 0.000000 1.000000 0.000000
vn 0.000000 1.000000 0.000000
vn 0.000000 1.000000 0.000000
vn 0.000000 1.000000 0.000000
vn 0.000000 1.000000 0.000000
vn 0.000000 1.000000 0.000000
vn 0.000000 0.282398 0.959297
vn 0.000000 0.282398 0.959297
vn 0.000000 0.282398 0.959297
vn 0.000000 0.282398 0.959297
vn -0.000000 0.282397 0.959297
vn -0.000000 0.282397 0.959297
vn -0.000000 0.282397 0.959297
vn -0.000000 0.282397 0.959297
vn 0.382685 0.881215 -0.277511
vn 0.382685 0.881215 -0.277511
vn 0.382685 0.881215 -0.277511
vn 0.382685 0.881215 -0.277511
vn 0.923879 0.365012 -0.114949
vn 0.923879 0.365012 -0.114949
vn 0.923879 0.365012 -0.114949
vn 0.923879 0.365012 -0.114949
vn -0.923879 0.365012 -0.114949
vn -0.923879 0.365012 -0.114949
vn -0.923879 0.365012 -0.114949
vn -0.923879 0.365012 -0.114949
vn -0.382685 0.881215 -0.277511
vn -0.382685 0.881215 -0.277511
vn -0.382685 0.881215 -0.277511
vn -0.382685 0.881215 -0.277511
vn 0.000002 0.282398 0.959297
vn 0.000002 0.282398 0.959297
vn 0.000002 0.282398 0.959297
vn 0.000000 0.282398 0.959297
vn 0.000000 0.282398 0.959297
vn 0.000000 0.282398 0.959297
vn 0.000000 0.282398 0.959297
vn 0.000000 0.282398 0.959297
vn 0.000000 0.282398 0.959297
vn -0.000001 0.282397 0.959298
vn -0.000001 0.282397 0.959298
vn -0.000001 0.282397 0.959298
vn 0.000002 -0.285331 -0.958429
vn 0.000002 -0.285331 -0.958429
vn 0.000002 -0.285331 -0.958429
vn 0.000002 -0.285331 -0.958429
vn 0.000000 -1.000000 -0.000000
vn 0.000000 -1.000000 -0.000000
vn 0.000000 -1.000000 -0.000000
vn 0.000000 -1.000000 -0.000000
vn -0.000000 -1.000000 -0.000000
vn -0.000000 -1.000000 -0.000000
vn -0.000000 -1.000000 -0.000000
vn -0.000000 -1.000000 -0.000000
vn -0.000002 -0.285331 -0.958429
vn -0.000002 -0.285331 -0.958429
vn -0.000002 -0.285331 -0.958429
vn -0.000002 -0.285331 -0.958429
vn 0.000001 -0.285331 -0.958429
vn -0.000001 -0.285331 -0.958429
vn -0.000001 -0.285330 -0.958429
vn -0.000000 -0.285332 -0.958429
vn -0.000001 -0.285331 -0.958429
vn -0.000001 -0.285331 -0.958429
vn -0.000001 -0.285331 -0.958429
vn -0.000000 -0.285330 -0.958429
vn -0.000000 -0.285330 -0.958429
vn -0.000000 -0.285330 -0.958429
vn -0.000000 -0.285330 -0.958429
vn -0.000000 -0.285330 -0.958429
vn -0.000000 -0.285330 -0.958429
vn -0.000000 -0.285330 -0.958429
vn -0.000000 -0.285330 -0.958429
vn -0.000000 -0.285330 -0.958429
vn -0.000001 -0.285332 -0.958429
vn -0.000001 -0.285332 -0.958429
vn 0.000002 -0.285332 -0.958429
vn -0.000000 -0.285330 -0.958429
vn 0.000001 -0.285332 -0.958429
vn 0.000001 -0.285332 -0.958429
vn 0.000001 -0.285332 -0.958429
vn -0.000000 -0.285330 -0.958429
vn -0.000000 -0.285330 -0.958429
vn -0.000000 -0.285330 -0.958429
vn -0.000000 -0.285331 -0.958429
vn -0.000000 -0.285331 -0.958429
vn 0.000000 -0.285331 -0.958429
vn -0.000000 -0.285330 -0.958429
vn -0.000000 -0.285332 -0.958429
vn -0.000000 -0.285332 -0.958429
vn -0.000001 -0.285330 -0.958429
vn -0.000001 -0.285332 -0.958429
vn -0.000001 -0.285332 -0.958429
vn -0.000001 -0.285332 -0.958429
vn -0.000001 -0.285330 -0.958429
vn -0.000001 -0.285331 -0.958429
s off
f 22/20/1 18/24/2 25/21/3 26/27/4
f 39/39/5 35/41/6 31/36/7 32/42/8
f 1/43/9 2/35/10 4/1/11 3/2/12
f 3/2/13 4/1/14 7/25/15 8/17/16
f 6/18/17 7/25/18 4/1/19 2/35/20
f 3/2/21 8/17/22 5/13/23 1/43/24
f 7/25/25 6/18/26 28/22/27 23/26/28
f 17/19/29 20/23/30 5/13/31 8/17/32
f 13/9/33 14/10/34 15/11/35 16/12/36
f 6/18/37 2/35/38 34/37/39 29/40/40
f 1/43/41 5/13/42 37/38/43 40/44/44
f 6/18/45 11/15/46 10/16/47 28/22/48
f 6/18/49 5/13/50 12/3/51 11/15/52
f 12/3/53 5/13/54 20/23/55 9/14/56
f 9/4/57 10/5/58 11/6/59 12/7/60
f 5/13/61 6/18/62 14/8/63 13/33/64
f 6/18/65 29/40/66 15/32/67 14/8/68
f 9/14/69 22/20/70 26/27/71 10/16/72
f 17/19/73 19/28/74 21/29/75 20/23/76
f 19/28/77 18/24/78 22/20/79 21/29/80
f 25/21/81 24/30/82 27/31/83 26/27/84
f 24/30/85 23/26/86 28/22/87 27/31/88
f 9/14/89 20/23/90 21/29/91
f 9/14/92 21/29/93 22/20/94
f 18/24/95 19/28/96 17/19/97 8/17/98
f 10/16/99 26/27/100 27/31/101
f 10/16/102 27/31/103 28/22/104
f 15/32/105 31/36/106 35/41/107 16/34/108
f 16/34/109 37/38/110 5/13/111 13/33/112
f 31/36/113 30/45/114 33/46/115 32/42/116
f 30/45/117 29/40/118 34/37/119 33/46/120
f 37/38/121 36/47/122 38/48/123 40/44/124
f 36/47/125 35/41/126 39/39/127 38/48/128
f 15/32/129 29/40/130 30/45/131
f 15/32/132 30/45/133 31/36/134
f 16/34/135 35/41/136 36/47/137
f 16/34/138 36/47/139 37/38/140
f 38/48/141 39/39/142 1/43/143 40/44/144
f 25/21/145 7/25/146 23/26/147 24/30/148
f 18/24/149 8/17/150 7/25/151 25/21/152
f 2/35/153 32/42/154 33/46/155 34/37/156
f 42/56/157 41/60/158 47/64/159 46/65/160
f 39/39/161 45/53/162 41/50/163
f 2/35/164 46/54/165 44/52/166
f 45/53/167 32/42/168 43/51/169
f 39/39/170 32/42/171 45/53/172
f 2/35/173 44/52/174 43/51/175 32/42/176
f 46/54/177 1/43/178 42/49/179
f 2/35/180 1/43/181 46/54/182
f 39/39/183 41/50/184 42/49/185 1/43/186
f 44/55/187 46/58/188 47/62/189 43/66/190
f 45/57/191 43/59/192 47/61/193 41/63/194
