# This file uses centimeters as units for non-parametric coordinates.

v 5.000000 31.207066 -41.044079
v -5.000000 31.207066 -41.044079
v 5.000000 31.207066 41.044079
v -5.000000 31.207066 41.044079
v 5.000000 -31.207066 41.044079
v -5.000000 -31.207066 41.044079
v 5.000000 -31.207066 -41.044079
v -5.000000 -31.207066 -41.044079
v -64.998932 28.096954 100.000000
v -61.920776 28.096958 78.234894
v -52.988281 28.096958 61.708027
v -39.075775 28.096958 47.308323
v -21.545105 28.096958 38.169682
v -2.111969 28.096958 35.374050
v -64.998932 -24.594559 100.000000
v -61.920776 -24.594551 78.234886
v -52.988281 -24.594559 61.708023
v -39.075775 -24.594555 47.308323
v -21.545105 -24.594555 38.169678
v -2.111969 -24.594555 35.374050
v -136.650269 -24.594559 100.000000
v -130.169067 -24.594559 56.285568
v -111.358948 -24.594555 19.368671
v -82.061462 -24.594555 -9.928741
v -45.144653 -24.594555 -28.738842
v -4.221954 -24.594555 -35.220367
v -136.650269 28.096954 100.000000
v -130.169067 28.096958 56.285572
v -111.358948 28.096958 19.368671
v -82.061462 28.096958 -9.928741
v -45.144653 28.096958 -28.738842
v -4.221954 28.096958 -35.220367
v -132.910645 -28.096825 100.000000
v -123.462524 -28.096832 60.151093
v -108.312256 -28.096828 21.578392
v -79.818115 -28.096828 -6.941483
v -43.912964 -28.096828 -25.246830
v -4.111786 -28.096828 -31.535980
v -69.261932 -28.096840 100.000000
v -68.308563 -28.096832 69.394768
v -56.461639 -28.096832 59.188614
v -40.798187 -28.096828 40.141605
v -22.949371 -28.096828 34.188278
v -2.237549 -28.096828 31.173325
v -58.797455 -24.594555 -20.061447
v -49.231720 -28.096828 -15.023899
v 3.572540 37.304699 -54.678043
v -3.572540 37.304699 -54.678043
v 3.572540 37.304695 54.678047
v -3.572540 37.304695 54.678047
v 3.572540 30.647926 61.141212
v -3.572540 30.647926 61.141212
v 3.572540 30.647926 -61.141212
v -3.572540 30.647926 -61.141212
v 3.572540 58.801960 54.678043
v -3.572540 58.801960 54.678043
v -3.572540 58.801960 61.141216
v 3.572540 58.801960 61.141216
v 3.572540 58.801960 -54.678043
v -3.572540 58.801960 -54.678043
v 3.572540 58.801964 -61.141212
v -3.572540 58.801964 -61.141212
v 7.978668 58.801960 50.692417
v -7.978668 58.801960 50.692417
v -7.978668 58.801960 65.126831
v 7.978668 58.801960 65.126831
v 7.978668 58.801960 -50.692417
v -7.978668 58.801960 -50.692417
v 7.978668 58.801956 -65.126831
v -7.978668 58.801956 -65.126831
v 7.978668 67.164200 50.692421
v -7.978668 67.164200 50.692421
v -7.978668 67.164200 65.126831
v 7.978668 67.164200 65.126831
v 7.978668 67.164200 -50.692417
v -7.978668 67.164200 -50.692417
v 7.978668 67.164200 -65.126831
v -7.978668 67.164200 -65.126831
vt 0.090981 0.282274
vt 0.090981 0.282274
vt 0.090981 0.282274
vt 0.090981 0.282274
vt 0.090981 0.282274
vt 0.090981 0.282274
vt 0.090981 0.282274
vt 0.090981 0.282274
vt 0.090981 0.282274
vt 0.090981 0.282274
vt 0.090981 0.282274
vt 0.090981 0.282274
vt 0.090981 0.282274
vt 0.090981 0.282274
vt 0.090981 0.281497
vt 0.090981 0.281497
vt 0.090981 0.281497
vt 0.090981 0.281497
vt 0.090981 0.281497
vt 0.090981 0.281497
vt 0.090981 0.281497
vt 0.090981 0.281497
vt 0.090981 0.281497
vt 0.090981 0.281497
vt 0.090981 0.281497
vt 0.090981 0.281497
vt 0.090981 0.281497
vt 0.090981 0.281497
vt 0.090981 0.281497
vt 0.090981 0.281497
vt 0.090981 0.281497
vt 0.090981 0.281497
vt 0.090981 0.281497
vt 0.090981 0.281497
vt 0.090981 0.281497
vt 0.090981 0.281497
vt 0.090981 0.281497
vt 0.090981 0.281497
vt 0.090981 0.281497
vt 0.090981 0.281497
vt 0.090981 0.281497
vt 0.090981 0.281497
vt 0.090981 0.281497
vt 0.090981 0.281497
vt 0.090981 0.281497
vt 0.090981 0.281497
vt 0.090981 0.281497
vt 0.090981 0.281497
vt 0.090981 0.281497
vt 0.090981 0.281497
vt 0.090981 0.281497
vt 0.090981 0.281497
vt 0.090981 0.281497
vt 0.090981 0.281497
vt 0.090981 0.281497
vt 0.090981 0.281497
vt 0.090981 0.281497
vt 0.090981 0.281497
vt 0.090998 0.227318
vt 0.090998 0.227318
vt 0.090998 0.227318
vt 0.090998 0.227318
vt 0.090998 0.227318
vt 0.090998 0.227318
vt 0.090998 0.227318
vt 0.090998 0.227318
vt 0.090998 0.227318
vt 0.090998 0.227318
vt 0.090998 0.227318
vt 0.090998 0.227318
vt 0.090998 0.227318
vt 0.090998 0.227318
vt 0.090998 0.227318
vt 0.090998 0.227318
vt 0.090998 0.227318
vt 0.090998 0.227318
vt 0.090998 0.227318
vt 0.090998 0.227318
vt 0.090998 0.227318
vt 0.090998 0.227318
vt 0.090998 0.227318
vt 0.090998 0.227318
vt 0.090998 0.227318
vt 0.090998 0.227318
vt 0.090998 0.227318
vt 0.090998 0.227318
vt 0.090998 0.227318
vt 0.090998 0.227318
vt 0.090998 0.227318
vt 0.090998 0.227318
vt 0.090998 0.227318
vt 0.090998 0.227318
vt 0.090998 0.227318
vt 0.090998 0.227318
vt 0.090998 0.227318
vt 0.090998 0.227318
vn 0.000000 1.000000 0.000000
vn 0.000000 1.000000 0.000000
vn 0.000000 1.000000 0.000000
vn 0.000000 1.000000 0.000000
vn 0.000000 0.000000 1.000000
vn 0.000000 0.000000 1.000000
vn 0.000000 0.000000 1.000000
vn 0.000000 0.000000 1.000000
vn 0.000000 -1.000000 0.000000
vn 0.000000 -1.000000 0.000000
vn 0.000000 -1.000000 0.000000
vn 0.000000 -1.000000 0.000000
vn 0.000000 0.000000 -1.000000
vn 0.000000 0.000000 -1.000000
vn 0.000000 0.000000 -1.000000
vn 0.000000 0.000000 -1.000000
vn -1.000000 0.000000 0.000000
vn -1.000000 0.000000 0.000000
vn -1.000000 0.000000 0.000000
vn -1.000000 0.000000 0.000000
vn 1.000000 0.000000 0.000000
vn 1.000000 0.000000 0.000000
vn 1.000000 0.000000 0.000000
vn 1.000000 0.000000 0.000000
vn 0.985132 -0.000000 0.171798
vn 0.985132 -0.000000 0.171798
vn 0.985132 -0.000000 0.171798
vn 0.985132 -0.000000 0.171798
vn 0.879728 -0.000000 0.475478
vn 0.879728 -0.000000 0.475478
vn 0.879728 -0.000000 0.475478
vn 0.879728 -0.000000 0.475478
vn 0.719168 0.000000 0.694836
vn 0.719168 0.000000 0.694836
vn 0.719168 0.000000 0.694836
vn 0.719168 0.000000 0.694836
vn 0.462256 -0.000000 0.886746
vn 0.462256 -0.000000 0.886746
vn 0.462256 -0.000000 0.886746
vn 0.462256 -0.000000 0.886746
vn 0.142393 -0.000000 0.989810
vn 0.142393 -0.000000 0.989810
vn 0.142393 -0.000000 0.989810
vn 0.142393 -0.000000 0.989810
vn 0.521273 -0.852066 0.047524
vn 0.521273 -0.852066 0.047524
vn 0.521273 -0.852066 0.047524
vn 0.521273 -0.852066 0.047524
vn 0.338556 -0.903398 0.263157
vn 0.338556 -0.903398 0.263157
vn 0.338556 -0.903398 0.263157
vn 0.338556 -0.903398 0.263157
vn 0.421021 -0.827126 0.372296
vn 0.421021 -0.827126 0.372296
vn 0.421021 -0.827126 0.372296
vn 0.421021 -0.827126 0.372296
vn 0.204353 -0.853665 0.479057
vn 0.204353 -0.853665 0.479057
vn 0.204353 -0.853665 0.479057
vn 0.204353 -0.853665 0.479057
vn 0.092277 -0.764873 0.637538
vn 0.092277 -0.764873 0.637538
vn 0.092277 -0.764873 0.637538
vn 0.092277 -0.764873 0.637538
vn -0.987689 -0.000000 -0.156427
vn -0.987689 -0.000000 -0.156427
vn -0.987689 -0.000000 -0.156427
vn -0.987689 -0.000000 -0.156427
vn -0.891006 0.000000 -0.453991
vn -0.891006 0.000000 -0.453991
vn -0.891006 0.000000 -0.453991
vn -0.891006 0.000000 -0.453991
vn -0.707106 0.000000 -0.707108
vn -0.707106 0.000000 -0.707108
vn -0.707106 0.000000 -0.707108
vn -0.707106 0.000000 -0.707108
vn -0.399320 0.000000 -0.916812
vn -0.399320 0.000000 -0.916812
vn -0.399320 0.000000 -0.916812
vn -0.156435 0.000000 -0.987688
vn -0.156435 0.000000 -0.987688
vn -0.156435 0.000000 -0.987688
vn -0.156435 0.000000 -0.987688
vn -0.000000 1.000000 0.000000
vn -0.000000 1.000000 0.000000
vn -0.000000 1.000000 0.000000
vn -0.000000 1.000000 0.000000
vn 0.000000 1.000000 0.000000
vn 0.000000 1.000000 0.000000
vn 0.000000 1.000000 0.000000
vn 0.000000 1.000000 0.000000
vn 0.000000 1.000000 0.000000
vn 0.000000 1.000000 0.000000
vn 0.000000 1.000000 0.000000
vn 0.000000 1.000000 0.000000
vn 0.000000 1.000000 -0.000000
vn 0.000000 1.000000 -0.000000
vn 0.000000 1.000000 -0.000000
vn 0.000000 1.000000 -0.000000
vn 0.000000 1.000000 -0.000000
vn 0.000000 1.000000 -0.000000
vn 0.000000 1.000000 -0.000000
vn 0.000000 1.000000 -0.000000
vn -0.526410 -0.843391 -0.107627
vn -0.526410 -0.843391 -0.107627
vn -0.526410 -0.843391 -0.107627
vn -0.526410 -0.843391 -0.107627
vn -0.477816 -0.851755 -0.214954
vn -0.477816 -0.851755 -0.214954
vn -0.477816 -0.851755 -0.214954
vn -0.477816 -0.851755 -0.214954
vn -0.485663 -0.726962 -0.485447
vn -0.485663 -0.726962 -0.485447
vn -0.485663 -0.726962 -0.485447
vn -0.485663 -0.726962 -0.485447
vn -0.167897 -0.851724 -0.496364
vn -0.167897 -0.851724 -0.496364
vn -0.167897 -0.851724 -0.496364
vn -0.167897 -0.851724 -0.496364
vn -0.108202 -0.721459 -0.683951
vn -0.108202 -0.721459 -0.683951
vn -0.108202 -0.721459 -0.683951
vn -0.108202 -0.721459 -0.683951
vn -0.000000 -1.000000 -0.000000
vn -0.000000 -1.000000 -0.000000
vn -0.000000 -1.000000 -0.000000
vn -0.000000 -1.000000 -0.000000
vn 0.000000 -1.000000 -0.000000
vn 0.000000 -1.000000 -0.000000
vn 0.000000 -1.000000 -0.000000
vn 0.000000 -1.000000 -0.000000
vn 0.000000 -1.000000 0.000000
vn 0.000000 -1.000000 0.000000
vn 0.000000 -1.000000 0.000000
vn 0.000000 -1.000000 -0.000000
vn 0.000000 -1.000000 -0.000000
vn 0.000000 -1.000000 -0.000000
vn 0.000000 -1.000000 -0.000000
vn 0.000000 -1.000000 0.000000
vn 0.000000 -1.000000 0.000000
vn 0.000000 -1.000000 0.000000
vn 0.000000 -1.000000 0.000000
vn -0.477462 -0.020943 -0.878403
vn -0.477462 -0.020943 -0.878403
vn -0.477462 -0.020943 -0.878403
vn -0.477462 -0.020943 -0.878403
vn -0.321976 -0.889876 -0.323189
vn -0.321976 -0.889876 -0.323189
vn -0.321976 -0.889876 -0.323189
vn -0.321976 -0.889876 -0.323189
vn 0.000000 -1.000000 0.000000
vn 0.000000 -1.000000 0.000000
vn 0.000000 -1.000000 0.000000
vn 0.000000 -1.000000 0.000000
vn 0.000000 1.000000 0.000000
vn 0.000000 1.000000 0.000000
vn 0.000000 1.000000 0.000000
vn 0.000000 1.000000 0.000000
vn 0.000000 -1.000000 0.000000
vn 0.000000 -1.000000 0.000000
vn 0.000000 -1.000000 0.000000
vn 0.000000 -1.000000 0.000000
vn -1.000000 0.000000 0.000000
vn -1.000000 0.000000 0.000000
vn -1.000000 0.000000 0.000000
vn -1.000000 0.000000 0.000000
vn 1.000000 0.000000 0.000000
vn 1.000000 0.000000 0.000000
vn 1.000000 0.000000 0.000000
vn 1.000000 0.000000 0.000000
vn 0.000000 1.000000 0.000000
vn 0.000000 1.000000 0.000000
vn 0.000000 1.000000 0.000000
vn 0.000000 1.000000 0.000000
vn 0.000000 1.000000 0.000000
vn 0.000000 1.000000 0.000000
vn 0.000000 1.000000 0.000000
vn 0.000000 1.000000 0.000000
vn 0.000000 -0.000000 -1.000000
vn 0.000000 -0.000000 -1.000000
vn 0.000000 -0.000000 -1.000000
vn 0.000000 -0.000000 -1.000000
vn -1.000000 0.000000 0.000000
vn -1.000000 0.000000 0.000000
vn -1.000000 0.000000 0.000000
vn -1.000000 0.000000 0.000000
vn 0.000000 -0.000000 1.000000
vn 0.000000 -0.000000 1.000000
vn 0.000000 -0.000000 1.000000
vn 0.000000 -0.000000 1.000000
vn 1.000000 0.000000 0.000000
vn 1.000000 0.000000 0.000000
vn 1.000000 0.000000 0.000000
vn 1.000000 0.000000 0.000000
vn 0.000000 0.000000 1.000000
vn 0.000000 0.000000 1.000000
vn 0.000000 0.000000 1.000000
vn 0.000000 0.000000 1.000000
vn 1.000000 0.000000 0.000000
vn 1.000000 0.000000 0.000000
vn 1.000000 0.000000 0.000000
vn 1.000000 0.000000 0.000000
vn 0.000000 0.000000 -1.000000
vn 0.000000 0.000000 -1.000000
vn 0.000000 0.000000 -1.000000
vn 0.000000 0.000000 -1.000000
vn -1.000000 0.000000 0.000000
vn -1.000000 0.000000 0.000000
vn -1.000000 0.000000 0.000000
vn -1.000000 0.000000 0.000000
vn 0.000000 -1.000000 0.000001
vn 0.000000 -1.000000 0.000001
vn 0.000000 -1.000000 0.000001
vn 0.000000 -1.000000 0.000001
vn 0.000000 -1.000000 0.000000
vn 0.000000 -1.000000 0.000000
vn 0.000000 -1.000000 0.000000
vn 0.000000 -1.000000 0.000000
vn 0.000000 -1.000000 -0.000001
vn 0.000000 -1.000000 -0.000001
vn 0.000000 -1.000000 -0.000001
vn 0.000000 -1.000000 -0.000001
vn 0.000000 -1.000000 0.000000
vn 0.000000 -1.000000 0.000000
vn 0.000000 -1.000000 0.000000
vn 0.000000 -1.000000 0.000000
vn 0.000000 -1.000000 -0.000001
vn 0.000000 -1.000000 -0.000001
vn 0.000000 -1.000000 -0.000001
vn 0.000000 -1.000000 -0.000001
vn 0.000000 -1.000000 -0.000001
vn 0.000000 -1.000000 -0.000001
vn 0.000000 -1.000000 -0.000001
vn 0.000000 -1.000000 -0.000001
vn 0.000000 -1.000000 0.000001
vn 0.000000 -1.000000 0.000001
vn 0.000000 -1.000000 0.000001
vn 0.000000 -1.000000 0.000001
vn -0.000000 -1.000000 -0.000001
vn -0.000000 -1.000000 -0.000001
vn -0.000000 -1.000000 -0.000001
vn -0.000000 -1.000000 -0.000001
vn 0.000000 0.000000 -1.000000
vn 0.000000 0.000000 -1.000000
vn 0.000000 0.000000 -1.000000
vn 0.000000 0.000000 -1.000000
vn -1.000000 0.000000 0.000000
vn -1.000000 0.000000 0.000000
vn -1.000000 0.000000 0.000000
vn -1.000000 0.000000 0.000000
vn 0.000000 0.000000 1.000000
vn 0.000000 0.000000 1.000000
vn 0.000000 0.000000 1.000000
vn 0.000000 0.000000 1.000000
vn 1.000000 0.000000 0.000000
vn 1.000000 0.000000 0.000000
vn 1.000000 0.000000 0.000000
vn 1.000000 0.000000 0.000000
vn 0.000000 0.000000 1.000000
vn 0.000000 0.000000 1.000000
vn 0.000000 0.000000 1.000000
vn 0.000000 0.000000 1.000000
vn 1.000000 0.000000 0.000000
vn 1.000000 0.000000 0.000000
vn 1.000000 0.000000 0.000000
vn 1.000000 0.000000 0.000000
vn 0.000000 0.000000 -1.000000
vn 0.000000 0.000000 -1.000000
vn 0.000000 0.000000 -1.000000
vn 0.000000 0.000000 -1.000000
vn -1.000000 0.000000 0.000000
vn -1.000000 0.000000 0.000000
vn -1.000000 0.000000 0.000000
vn -1.000000 0.000000 0.000000
vn 0.018453 0.000000 0.999830
vn 0.018453 0.000000 0.999830
vn 0.018453 0.000000 0.999830
vn 0.018455 0.000001 0.999830
vn 0.018455 0.000001 0.999830
vn 0.018455 0.000001 0.999830
vn 0.018453 0.000000 0.999830
vn 0.018453 0.000000 0.999830
vn 0.018453 0.000000 0.999830
vn 0.018448 -0.000000 0.999830
vn 0.018448 -0.000000 0.999830
vn 0.018448 -0.000000 0.999830
s off
f 1/1/1 2/2/2 4/3/3 3/4/4
f 3/4/5 4/3/6 6/5/7 5/6/8
f 5/6/9 6/5/10 8/7/11 7/8/12
f 7/8/13 8/7/14 2/9/15 1/10/16
f 2/2/17 8/11/18 6/12/19 4/3/20
f 7/13/21 1/1/22 3/4/23 5/14/24
f 10/15/25 9/16/26 15/17/27 16/18/28
f 11/19/29 10/15/30 16/18/31 17/20/32
f 12/21/33 11/19/34 17/20/35 18/22/36
f 13/23/37 12/21/38 18/22/39 19/24/40
f 14/25/41 13/23/42 19/24/43 20/26/44
f 16/18/45 15/17/46 39/27/47 40/28/48
f 17/20/49 16/18/50 40/28/51 41/29/52
f 18/22/53 17/20/54 41/29/55 42/30/56
f 19/24/57 18/22/58 42/30/59 43/31/60
f 20/26/61 19/24/62 43/31/63 44/32/64
f 22/33/65 21/34/66 27/35/67 28/36/68
f 23/37/69 22/33/70 28/36/71 29/38/72
f 24/39/73 23/37/74 29/38/75 30/40/76
f 30/40/77 45/41/78 24/39/79
f 26/42/80 25/43/81 31/44/82 32/45/83
f 28/36/84 27/35/85 9/46/86 10/47/87
f 29/38/88 28/36/89 10/47/90 11/48/91
f 30/40/92 29/38/93 11/48/94 12/49/95
f 31/44/96 30/40/97 12/49/98 13/50/99
f 32/45/100 31/44/101 13/50/102 14/51/103
f 34/52/104 33/53/105 21/34/106 22/33/107
f 35/54/108 34/52/109 22/33/110 23/37/111
f 36/55/112 35/54/113 23/37/114 24/39/115
f 45/41/116 46/56/117 36/55/118 24/39/119
f 38/57/120 37/58/121 25/43/122 26/42/123
f 40/28/124 34/52/125 35/54/126 41/29/127
f 42/30/128 41/29/129 35/54/130 36/55/131
f 46/56/132 42/30/133 36/55/134
f 44/32/135 43/31/136 37/58/137 38/57/138
f 39/27/139 33/53/140 34/52/141 40/28/142
f 25/43/143 45/41/144 30/40/145 31/44/146
f 37/58/147 46/56/148 45/41/149 25/43/150
f 43/31/151 42/30/152 46/56/153 37/58/154
f 47/59/155 48/60/156 50/61/157 49/62/158
f 51/63/159 52/64/160 54/65/161 53/66/162
f 48/60/163 54/67/164 52/68/165 50/61/166
f 53/69/167 47/59/168 49/62/169 51/70/170
f 71/71/171 72/72/172 73/73/173 74/74/174
f 76/75/175 75/76/176 77/77/177 78/78/178
f 49/62/179 50/61/180 56/79/181 55/80/182
f 50/61/183 52/64/184 57/81/185 56/79/186
f 52/64/187 51/63/188 58/82/189 57/81/190
f 51/63/191 49/62/192 55/80/193 58/82/194
f 48/83/195 47/84/196 59/85/197 60/86/198
f 47/84/199 53/66/200 61/87/201 59/85/202
f 53/66/203 54/65/204 62/88/205 61/87/206
f 54/65/207 48/83/208 60/86/209 62/88/210
f 55/80/211 56/79/212 64/89/213 63/90/214
f 56/79/215 57/81/216 65/91/217 64/89/218
f 57/81/219 58/82/220 66/92/221 65/91/222
f 58/82/223 55/80/224 63/90/225 66/92/226
f 60/86/227 59/85/228 67/93/229 68/94/230
f 59/85/231 61/87/232 69/95/233 67/93/234
f 61/87/235 62/88/236 70/96/237 69/95/238
f 62/88/239 60/86/240 68/94/241 70/96/242
f 63/90/243 64/89/244 72/72/245 71/71/246
f 64/89/247 65/91/248 73/73/249 72/72/250
f 65/91/251 66/92/252 74/74/253 73/73/254
f 66/92/255 63/90/256 71/71/257 74/74/258
f 68/94/259 67/93/260 75/76/261 76/75/262
f 67/93/263 69/95/264 77/77/265 75/76/266
f 69/95/267 70/96/268 78/78/269 77/77/270
f 70/96/271 68/94/272 76/75/273 78/78/274
f 9/46/275 27/35/276 15/17/277
f 15/17/278 27/35/279 39/27/280
f 39/27/281 27/35/282 33/53/283
f 27/35/284 21/34/285 33/53/286
