# This file uses centimeters as units for non-parametric coordinates.

v -3.654147 3.975204 8.705489
v 3.654149 3.975204 8.705489
v -3.940234 3.975205 -0.660093
v 3.940244 3.975205 -0.660093
v -3.210941 0.327054 -0.297179
v 3.210949 0.327054 -0.297179
v -3.210941 0.327054 8.337011
v 3.210949 0.327054 8.337012
v 3.940239 0.327054 -0.660093
v -3.940235 0.327054 -0.660093
v -3.654148 0.327054 8.705489
v 3.654145 0.327054 8.705489
v -3.654147 3.975205 -5.900009
v 3.654149 3.975205 -5.900009
v 3.654145 0.327055 -5.900009
v -3.654148 0.327055 -5.900008
v -3.210944 3.975205 -1.094397
v 3.210950 3.975205 -1.094396
v 3.210950 3.975205 -5.980194
v -3.210944 3.975205 -5.980195
v -2.807815 3.975205 -1.492519
v 2.807816 3.975205 -1.492519
v 2.807816 3.975205 -5.582070
v -2.807815 3.975205 -5.582069
v -2.976340 3.975205 -8.104748
v 2.976342 3.975205 -8.104748
v 2.976342 0.327055 -8.104749
v -2.976341 0.327055 -8.104748
v -2.902370 0.327055 9.314051
v 2.902379 0.327055 9.314050
v 2.902379 3.975204 9.314051
v -2.902373 3.975204 9.314051
v -2.642089 3.975205 -6.410595
v 2.642091 3.975205 -6.410595
v -2.642089 3.975205 -7.542623
v -2.085231 3.975205 -8.316843
v 2.085240 3.975205 -8.316843
v 2.642091 3.975205 -7.542622
v 4.558561 3.177203 -0.730246
v 4.227579 3.177202 9.211424
v 3.357836 3.177203 9.857420
v -3.357828 3.177203 9.857420
v -4.227571 3.177202 9.211424
v -4.558561 3.177203 -0.730247
v -4.227571 3.177202 -6.307761
v -3.443407 3.177202 -8.767901
v 3.443411 3.177202 -8.767903
v 4.227579 3.177202 -6.307761
v 4.227575 1.562836 9.211424
v 4.558561 1.562836 -0.730246
v 4.227575 1.562836 -6.307762
v 3.443411 1.562836 -8.767903
v -3.443403 1.562836 -8.767902
v -4.227576 1.562836 -6.307761
v -4.558558 1.562836 -0.730247
v -4.227576 1.562836 9.211424
v -3.357829 1.562836 9.857420
v 3.357832 1.562836 9.857420
v -2.568751 3.975205 8.337012
v 2.568761 3.975205 8.337012
v -2.568751 3.975205 -0.297179
v 2.568761 3.975205 -0.297179
v -3.210944 3.975206 0.134531
v 3.210950 3.975205 0.048189
v -3.210944 3.975205 7.818961
v 3.210950 3.975205 7.818960
v -2.906088 0.832093 0.000001
v 2.906096 0.832093 0.000001
v 2.906096 0.832093 8.039832
v -2.906088 0.832093 8.039832
v 0.000001 3.975205 -8.653162
v 0.000002 3.177202 -9.316317
v 0.000002 1.562837 -9.316317
v 0.000004 0.327055 -8.653162
vt 0.113865 0.182309
vt 0.113865 0.182309
vt 0.113865 0.182309
vt 0.113865 0.182309
vt 0.093109 0.232300
vt 0.093109 0.232300
vt 0.093109 0.232300
vt 0.093109 0.232300
vt 0.113865 0.182309
vt 0.113865 0.182309
vt 0.113865 0.182309
vt 0.113865 0.182309
vt 0.113865 0.182308
vt 0.113865 0.182308
vt 0.113865 0.182308
vt 0.113865 0.182308
vt 0.113865 0.182309
vt 0.113865 0.182309
vt 0.113865 0.182309
vt 0.113865 0.182309
vt 0.113865 0.182309
vt 0.113865 0.182309
vt 0.113865 0.182309
vt 0.113865 0.182309
vt 0.113865 0.182309
vt 0.113865 0.182309
vt 0.113865 0.182309
vt 0.113865 0.182309
vt 0.078402 0.255232
vt 0.078402 0.255232
vt 0.078402 0.255232
vt 0.078402 0.255232
vt 0.176774 0.228299
vt 0.176774 0.228299
vt 0.176774 0.228299
vt 0.176774 0.228299
vt 0.078402 0.255232
vt 0.078402 0.255232
vt 0.078402 0.255232
vt 0.078402 0.255232
vt 0.113865 0.182309
vt 0.113865 0.182309
vt 0.113865 0.182309
vt 0.113865 0.182309
vt 0.113865 0.182309
vt 0.113865 0.182309
vt 0.113865 0.182309
vt 0.113865 0.182309
vt 0.113865 0.182309
vt 0.113865 0.182309
vt 0.078402 0.255232
vt 0.078402 0.255232
vt 0.078402 0.255232
vt 0.078402 0.255232
vt 0.078402 0.255232
vt 0.078402 0.255232
vt 0.078402 0.255232
vt 0.078402 0.255232
vt 0.078402 0.255232
vt 0.078402 0.255232
vt 0.078402 0.255232
vt 0.078402 0.255232
vt 0.078402 0.255232
vt 0.078402 0.255232
vt 0.078402 0.255232
vt 0.078402 0.255232
vt 0.078402 0.255232
vt 0.078402 0.255232
vt 0.078402 0.255232
vt 0.078402 0.255232
vt 0.078402 0.255232
vt 0.078402 0.255232
vt 0.113865 0.182309
vt 0.078402 0.255232
vt 0.078402 0.255232
vt 0.078402 0.255232
vt 0.078402 0.255232
vt 0.113865 0.182309
vt 0.113865 0.182309
vt 0.113865 0.182308
vt 0.113865 0.182308
vt 0.113865 0.182308
vt 0.113865 0.182309
vt 0.113865 0.182308
vt 0.078402 0.255232
vt 0.078402 0.255232
vt 0.078402 0.255232
vt 0.078402 0.255232
vt 0.078402 0.255232
vt 0.078402 0.255232
vt 0.078402 0.255232
vt 0.078402 0.255232
vt 0.078402 0.255232
vt 0.078402 0.255232
vt 0.078402 0.255232
vt 0.078402 0.255232
vt 0.078402 0.255232
vt 0.078402 0.255232
vt 0.078402 0.255232
vt 0.078402 0.255232
vt 0.078402 0.255232
vt 0.078402 0.255232
vt 0.078402 0.255232
vt 0.078402 0.255232
vt 0.140642 0.195320
vt 0.113865 0.182309
vt 0.152193 0.195320
vt 0.113865 0.182309
vt 0.113865 0.182309
vt 0.140642 0.216581
vt 0.113865 0.182309
vt 0.152193 0.216581
vt 0.113865 0.182309
vt 0.139198 0.215518
vt 0.153637 0.215731
vt 0.113865 0.182309
vt 0.113865 0.182309
vt 0.139198 0.196595
vt 0.153637 0.196595
vt 0.113865 0.182309
vt 0.113865 0.182308
vt 0.113865 0.182308
vt 0.113865 0.182308
vt 0.113865 0.182308
vt 0.113865 0.182308
vt 0.113865 0.182308
vt 0.113865 0.182308
vt 0.113865 0.182308
vt 0.093109 0.232300
vt 0.093109 0.232300
vt 0.093109 0.232300
vt 0.093109 0.232300
vt 0.078402 0.255232
vt 0.078402 0.255232
vt 0.078402 0.255232
vt 0.113865 0.182309
vt 0.078402 0.255232
vn 0.000000 1.000000 0.000000
vn 0.000000 1.000000 0.000000
vn 0.000000 1.000000 0.000000
vn 0.000000 1.000000 0.000000
vn -0.157283 -0.000000 -0.987554
vn -0.000000 -0.000000 -1.000000
vn 0.000000 -0.000000 -1.000000
vn -0.157283 -0.000000 -0.987554
vn -0.000000 -1.000000 0.000000
vn -0.000000 -1.000000 0.000000
vn -0.000000 -1.000000 0.000000
vn -0.000000 -1.000000 0.000000
vn 0.000000 -0.000000 1.000000
vn 0.000000 -0.000000 1.000000
vn 0.000000 -0.000000 1.000000
vn 0.000000 -0.000000 1.000000
vn 0.999446 -0.000001 0.033274
vn 0.999446 -0.000001 0.033274
vn 0.999446 -0.000001 0.033274
vn 0.999446 -0.000001 0.033274
vn -0.999446 0.000000 0.033274
vn -0.999446 0.000000 0.033274
vn -0.999446 0.000000 0.033274
vn -0.999446 0.000000 0.033274
vn 0.000000 1.000000 -0.000000
vn 0.000000 1.000000 -0.000000
vn 0.000000 1.000000 -0.000000
vn 0.000000 1.000000 -0.000000
vn -0.000000 -1.000000 -0.000000
vn -0.000000 -1.000000 -0.000000
vn -0.000000 -1.000000 -0.000000
vn -0.000000 -1.000000 -0.000000
vn -0.000000 -1.000000 -0.000000
vn -0.000000 -1.000000 -0.000000
vn -0.000000 -1.000000 -0.000000
vn -0.000000 -1.000000 -0.000000
vn -0.000000 1.000000 0.000000
vn -0.000000 1.000000 0.000000
vn -0.000000 1.000000 0.000000
vn -0.000000 1.000000 0.000000
vn -0.000000 -1.000000 0.000000
vn -0.000000 -1.000000 0.000000
vn -0.000000 -1.000000 0.000000
vn -0.000000 -1.000000 0.000000
vn 0.000000 1.000000 0.000000
vn 0.000000 1.000000 0.000000
vn 0.000000 1.000000 0.000000
vn 0.000000 1.000000 0.000000
vn -0.000000 1.000000 0.000000
vn -0.000000 1.000000 0.000000
vn -0.000000 1.000000 0.000000
vn -0.000000 1.000000 0.000000
vn -0.000000 -1.000000 0.000000
vn -0.000000 -1.000000 0.000000
vn -0.000000 -1.000000 0.000000
vn -0.000000 -1.000000 0.000000
vn 0.000000 1.000000 -0.000000
vn 0.000000 1.000000 -0.000000
vn 0.000000 1.000000 -0.000000
vn 0.000000 1.000000 -0.000000
vn 0.998244 -0.000001 -0.059239
vn 0.998244 -0.000001 -0.059239
vn 0.998244 -0.000001 -0.059239
vn 0.998244 -0.000001 -0.059239
vn -0.000000 -1.000000 0.000000
vn -0.000000 -1.000000 0.000000
vn -0.000000 -1.000000 0.000000
vn -0.000000 -1.000000 0.000000
vn -0.998244 0.000000 -0.059238
vn -0.998244 0.000000 -0.059238
vn -0.998244 0.000000 -0.059238
vn -0.998244 0.000000 -0.059238
vn 0.000000 1.000000 -0.000000
vn 0.000000 1.000000 -0.000000
vn 0.000000 1.000000 -0.000000
vn 0.000000 1.000000 -0.000000
vn 0.000000 1.000000 -0.000000
vn 0.000000 1.000000 -0.000000
vn 0.000000 1.000000 -0.000000
vn 0.000000 1.000000 -0.000000
vn -0.000000 1.000000 -0.000000
vn -0.000000 1.000000 -0.000000
vn -0.000000 1.000000 -0.000000
vn -0.000000 1.000000 -0.000000
vn 0.000000 1.000000 -0.000000
vn 0.000000 1.000000 -0.000000
vn 0.000000 1.000000 -0.000000
vn 0.000000 1.000000 -0.000000
vn -0.000001 1.000000 0.000000
vn -0.000001 1.000000 0.000000
vn -0.000001 1.000000 0.000000
vn -0.000001 1.000000 0.000000
vn 0.000000 1.000000 0.000000
vn 0.000000 1.000000 0.000000
vn 0.000000 1.000000 0.000000
vn 0.000000 1.000000 0.000000
vn 0.000000 1.000000 -0.000000
vn 0.000000 1.000000 -0.000000
vn 0.000000 1.000000 -0.000000
vn 0.000000 1.000000 -0.000000
vn 0.000000 1.000000 -0.000000
vn 0.000000 1.000000 -0.000000
vn 0.000000 1.000000 -0.000000
vn 0.952770 -0.000001 -0.303694
vn 0.952770 -0.000001 -0.303694
vn 0.952770 -0.000001 -0.303694
vn 0.952770 -0.000001 -0.303694
vn -0.000000 -1.000000 -0.000000
vn -0.000000 -1.000000 -0.000000
vn -0.000000 -1.000000 -0.000000
vn -0.952770 0.000000 -0.303694
vn -0.952770 0.000000 -0.303694
vn -0.952770 0.000000 -0.303694
vn -0.952770 0.000000 -0.303694
vn -0.000000 -1.000000 0.000000
vn -0.000000 -1.000000 0.000000
vn -0.000000 -1.000000 0.000000
vn -0.000000 -1.000000 0.000000
vn 0.596266 -0.000000 0.802787
vn 0.596266 -0.000000 0.802787
vn 0.596266 -0.000000 0.802787
vn 0.596266 -0.000000 0.802787
vn -0.000000 1.000000 0.000000
vn -0.000000 1.000000 0.000000
vn -0.000000 1.000000 0.000000
vn -0.000000 1.000000 0.000000
vn -0.596265 0.000001 0.802788
vn -0.596265 0.000001 0.802788
vn -0.596265 0.000001 0.802788
vn -0.596265 0.000001 0.802788
vn -0.000000 1.000000 0.000000
vn -0.000000 1.000000 0.000000
vn -0.000001 1.000000 0.000000
vn 0.000000 1.000000 0.000000
vn 0.000000 1.000000 0.000000
vn 0.000000 1.000000 0.000000
vn 0.000000 1.000000 0.000000
vn -0.000000 1.000000 0.000000
vn -0.000000 1.000000 0.000000
vn -0.000000 1.000000 0.000000
vn -0.000000 1.000000 0.000000
vn 0.000000 1.000000 -0.000000
vn 0.000000 1.000000 -0.000000
vn 0.000000 1.000000 -0.000000
vn 0.000000 1.000000 -0.000000
vn 0.000000 1.000000 -0.000000
vn 0.000000 1.000000 -0.000000
vn 0.000000 1.000000 -0.000000
vn 0.797655 0.602575 0.025494
vn 0.797655 0.602575 0.025494
vn 0.797655 0.602575 0.025494
vn 0.797655 0.602575 0.025494
vn 0.451576 0.674846 0.583662
vn 0.451576 0.674846 0.583662
vn 0.451576 0.674846 0.583662
vn 0.451576 0.674846 0.583662
vn 0.000000 0.562825 0.826576
vn 0.000000 0.562825 0.826576
vn 0.000000 0.562825 0.826576
vn 0.000000 0.562825 0.826576
vn -0.451577 0.674846 0.583663
vn -0.451577 0.674846 0.583663
vn -0.451577 0.674846 0.583663
vn -0.451577 0.674846 0.583663
vn -0.797655 0.602575 0.025494
vn -0.797655 0.602575 0.025494
vn -0.797655 0.602575 0.025494
vn -0.797655 0.602575 0.025494
vn -0.793894 0.606367 -0.045287
vn -0.793894 0.606367 -0.045287
vn -0.793894 0.606367 -0.045287
vn -0.793894 0.606367 -0.045287
vn -0.736880 0.635355 -0.230938
vn -0.736880 0.635355 -0.230938
vn -0.736880 0.635355 -0.230938
vn -0.736880 0.635355 -0.230938
vn -0.127879 0.642509 -0.755532
vn -0.124272 0.638453 -0.759562
vn -0.000000 0.640626 -0.767853
vn 0.000000 0.640626 -0.767853
vn 0.736880 0.635355 -0.230938
vn 0.736880 0.635355 -0.230938
vn 0.736880 0.635355 -0.230938
vn 0.736880 0.635355 -0.230938
vn 0.793894 0.606367 -0.045287
vn 0.793894 0.606367 -0.045287
vn 0.793894 0.606367 -0.045287
vn 0.793894 0.606367 -0.045287
vn 0.898392 -0.438254 0.028713
vn 0.898392 -0.438254 0.028713
vn 0.898392 -0.438254 0.028713
vn 0.898392 -0.438254 0.028713
vn 0.895676 -0.441761 -0.051093
vn 0.895676 -0.441761 -0.051093
vn 0.895676 -0.441761 -0.051093
vn 0.895676 -0.441761 -0.051093
vn 0.842684 -0.469188 -0.264096
vn 0.842684 -0.469187 -0.264096
vn 0.842684 -0.469188 -0.264096
vn 0.842684 -0.469188 -0.264096
vn -0.146891 -0.489127 -0.859755
vn 0.000000 -0.494491 -0.869183
vn -0.000000 -0.494491 -0.869183
vn -0.146891 -0.489127 -0.859755
vn -0.842683 -0.469189 -0.264097
vn -0.842683 -0.469189 -0.264097
vn -0.842683 -0.469189 -0.264097
vn -0.842683 -0.469189 -0.264097
vn -0.895676 -0.441762 -0.051093
vn -0.895676 -0.441762 -0.051093
vn -0.895676 -0.441762 -0.051093
vn -0.895676 -0.441762 -0.051093
vn -0.898392 -0.438254 0.028713
vn -0.898392 -0.438254 0.028713
vn -0.898392 -0.438254 0.028713
vn -0.898392 -0.438254 0.028713
vn -0.526912 -0.508483 0.681035
vn -0.526912 -0.508483 0.681035
vn -0.526912 -0.508483 0.681035
vn -0.526912 -0.508483 0.681035
vn -0.000000 -0.402506 0.915417
vn -0.000000 -0.402506 0.915417
vn -0.000000 -0.402506 0.915417
vn -0.000000 -0.402506 0.915417
vn 0.526915 -0.508482 0.681033
vn 0.526915 -0.508482 0.681033
vn 0.526915 -0.508482 0.681033
vn 0.526915 -0.508482 0.681033
vn 0.000000 1.000000 -0.000000
vn 0.000000 1.000000 -0.000000
vn 0.000000 1.000000 -0.000000
vn 0.000000 1.000000 -0.000001
vn 0.000000 1.000000 -0.000001
vn 0.000000 1.000000 -0.000001
vn 0.000000 1.000000 -0.000002
vn 0.000000 1.000000 -0.000002
vn 0.000000 1.000000 -0.000002
vn -0.000000 1.000000 0.000000
vn -0.000000 1.000000 0.000000
vn -0.000000 1.000000 0.000000
vn 0.000000 -0.507145 0.861861
vn 0.000000 -0.507145 0.861861
vn 0.000000 -0.507145 0.861861
vn 0.000000 -0.507145 0.861861
vn -0.856118 -0.516780 0.000000
vn -0.856118 -0.516780 0.000000
vn -0.856118 -0.516780 0.000000
vn -0.856118 -0.516780 0.000000
vn -0.000000 -0.507145 -0.861861
vn -0.000000 -0.507145 -0.861861
vn -0.000000 -0.507145 -0.861861
vn -0.000000 -0.507145 -0.861861
vn 0.856120 -0.516777 -0.000000
vn 0.856120 -0.516777 -0.000000
vn 0.856120 -0.516777 -0.000000
vn 0.856120 -0.516777 -0.000000
vn 0.000000 1.000000 -0.000000
vn 0.000000 1.000000 -0.000000
vn -0.000000 1.000000 0.000000
vn -0.000000 1.000000 0.000000
vn 0.000000 1.000000 -0.000000
vn 0.000000 1.000000 -0.000000
vn 0.000000 1.000000 -0.000000
vn 0.000000 0.640626 -0.767853
vn -0.000000 0.640626 -0.767853
vn 0.124271 0.638453 -0.759562
vn 0.127879 0.642509 -0.755532
vn 0.000000 -0.000000 -1.000000
vn -0.000000 -0.000000 -1.000000
vn 0.157282 -0.000000 -0.987554
vn 0.157282 -0.000000 -0.987554
vn -0.000000 -0.494491 -0.869183
vn 0.000000 -0.494491 -0.869183
vn 0.146890 -0.489127 -0.859755
vn 0.146890 -0.489127 -0.859755
vn -0.168377 0.686436 -0.707428
vn -0.124272 0.638453 -0.759562
vn -0.127879 0.642509 -0.755532
vn 0.127879 0.642509 -0.755532
vn 0.124271 0.638453 -0.759562
vn 0.168377 0.686436 -0.707428
vn -0.000000 -1.000000 -0.000000
vn -0.000000 -1.000000 0.000000
vn -0.000000 -1.000000 0.000000
vn -0.000000 -1.000000 -0.000000
vn -0.000000 -1.000000 0.000000
vn -0.000000 -1.000000 -0.000000
vn 0.000000 1.000000 -0.000000
vn 0.000000 1.000000 -0.000000
vn 0.000000 1.000000 -0.000000
vn 0.000000 1.000000 -0.000000
vn 0.000000 1.000000 -0.000000
vn 0.000000 1.000000 -0.000000
vn 0.000000 1.000000 -0.000000
vn 0.000000 1.000000 -0.000000
vn 0.000000 1.000000 -0.000000
vn 0.000000 1.000000 0.000000
vn 0.000000 1.000000 -0.000000
vn 0.000000 1.000000 -0.000000
vn 0.000000 1.000000 0.000000
s off
f 63/114/1 64/115/2 62/112/3 61/110/4
f 46/92/5 72/134/6 73/135/7 53/99/8
f 67/129/9 68/130/10 69/131/11 70/132/12
f 57/103/13 58/104/14 41/87/15 42/88/16
f 39/85/17 40/86/18 49/95/19 50/96/20
f 55/101/21 56/102/22 43/89/23 44/90/24
f 3/1/25 61/109/26 62/111/27 4/2/28
f 6/17/29 5/18/30 10/4/31 9/3/32
f 7/19/33 8/20/34 12/10/35 11/9/36
f 2/11/37 60/108/38 59/106/39 1/12/40
f 8/20/41 6/17/42 9/3/43 12/10/44
f 4/2/45 64/116/46 66/120/47 2/11/48
f 1/12/49 65/117/50 63/113/51 3/1/52
f 5/18/53 7/19/54 11/9/55 10/4/56
f 21/33/57 22/34/58 23/35/59 24/36/60
f 48/94/61 39/85/62 50/96/63 51/97/64
f 9/3/65 10/4/66 16/24/67 15/23/68
f 54/100/69 55/101/70 44/90/71 45/91/72
f 3/1/73 4/2/74 18/26/75 17/25/76
f 4/2/77 14/22/78 19/27/79 18/26/80
f 13/21/81 3/1/82 17/25/83 20/28/84
f 17/29/85 18/30/86 22/31/87 21/32/88
f 18/30/89 19/37/90 23/38/91 22/31/92
f 19/37/93 20/39/94 24/40/95 23/38/96
f 20/39/97 17/29/98 21/32/99 24/40/100
f 35/79/101 36/80/102 25/81/103
f 47/93/104 48/94/105 51/97/106 52/98/107
f 15/23/108 74/136/109 27/43/110
f 53/99/111 54/100/112 45/91/113 46/92/114
f 11/9/115 12/10/116 30/46/117 29/45/118
f 58/104/119 49/95/120 40/86/121 41/87/122
f 2/11/123 1/12/124 32/48/125 31/47/126
f 42/88/127 43/89/128 56/102/129 57/103/130
f 20/28/131 33/49/132 13/21/133
f 14/22/134 26/42/135 38/78/136 34/50/137
f 25/41/138 13/21/139 33/49/140 35/73/141
f 37/82/142 38/83/143 26/84/144
f 33/71/145 34/72/146 38/77/147 35/74/148
f 2/59/149 40/86/150 39/85/151 4/62/152
f 41/87/153 40/86/154 2/59/155 31/57/156
f 42/88/157 41/87/158 31/57/159 32/58/160
f 1/64/161 43/89/162 42/88/163 32/58/164
f 44/90/165 43/89/166 1/64/167 3/65/168
f 45/91/169 44/90/170 3/65/171 13/69/172
f 46/92/173 45/91/174 13/69/175 25/51/176
f 46/92/177 36/75/178 71/133/179 72/134/180
f 14/68/181 48/94/182 47/93/183 26/52/184
f 4/62/185 39/85/186 48/94/187 14/68/188
f 50/96/189 49/95/190 12/60/191 9/61/192
f 51/97/193 50/96/194 9/61/195 15/67/196
f 52/98/197 51/97/198 15/67/199 27/53/200
f 53/99/201 73/135/202 74/137/203 28/54/204
f 16/70/205 54/100/206 53/99/207 28/54/208
f 10/66/209 55/101/210 54/100/211 16/70/212
f 11/63/213 56/102/214 55/101/215 10/66/216
f 57/103/217 56/102/218 11/63/219 29/55/220
f 29/55/221 30/56/222 58/104/223 57/103/224
f 12/60/225 49/95/226 58/104/227 30/56/228
f 66/13/229 60/14/230 2/15/231
f 63/16/232 61/121/233 3/122/234
f 62/123/235 64/124/236 4/125/237
f 1/126/238 59/127/239 65/128/240
f 5/5/241 6/6/242 68/130/243 67/129/244
f 6/6/245 8/8/246 69/131/247 68/130/248
f 8/8/249 7/7/250 70/132/251 69/131/252
f 7/7/253 5/5/254 67/129/255 70/132/256
f 19/27/257 34/50/258 33/49/259 20/28/260
f 14/22/261 34/50/262 19/27/263
f 72/134/264 71/133/265 37/76/266 47/93/267
f 73/135/268 72/134/269 47/93/270 52/98/271
f 74/137/272 73/135/273 52/98/274 27/53/275
f 25/51/276 36/75/277 46/92/278
f 47/93/279 37/76/280 26/52/281
f 74/136/282 16/24/283 28/44/284
f 15/23/285 16/24/286 74/136/287
f 35/74/288 38/77/289 37/76/290 71/133/291 36/75/292
f 66/119/293 65/118/294 59/105/295 60/107/296
f 63/114/297 65/118/298 66/119/299 64/115/300
