# This file uses centimeters as units for non-parametric coordinates.

v 1.400001 -96.054214 5.116497
v -1.400000 -96.054214 5.116497
v -2.800000 -93.629349 5.116497
v -1.400000 -91.204483 5.116497
v 1.400000 -91.204483 5.116497
v 2.800000 -93.629349 5.116497
v 1.918238 -96.951828 3.689912
v -1.918237 -96.951828 3.689912
v -3.836475 -93.629349 3.689912
v -1.918238 -90.306870 3.689912
v 1.918237 -90.306870 3.689912
v 3.836475 -93.629349 3.689912
v 2.756764 -98.404190 4.234819
v -2.756762 -98.404190 4.234819
v -5.513526 -93.629349 4.234819
v -2.756764 -88.854492 4.234819
v 2.756763 -88.854492 4.234819
v 5.513526 -93.629349 4.234819
v 2.756764 -98.404190 5.998176
v -2.756762 -98.404190 5.998176
v -5.513526 -93.629349 5.998176
v -2.756764 -88.854492 5.998176
v 2.756763 -88.854492 5.998176
v 5.513526 -93.629349 5.998176
v 1.918238 -96.951828 6.543082
v -1.918237 -96.951828 6.543082
v -3.836474 -93.629349 6.543082
v -1.918238 -90.306870 6.543082
v 1.918237 -90.306870 6.543082
v 3.836474 -93.629349 6.543082
v -1.073168 -91.550285 6.189666
v 1.073168 -91.550285 6.189666
v -1.073168 -40.066437 6.189666
v 1.073168 -40.066437 6.189666
v -1.073168 -40.066437 4.043329
v 1.073168 -40.066437 4.043329
v -1.073168 -91.550285 4.043329
v 1.073168 -91.550285 4.043329
v -1.073168 -88.289070 6.189666
v 1.073168 -88.289070 6.189666
v 1.073168 -88.289093 4.043329
v -1.073168 -88.289093 4.043329
v -1.073168 -89.915245 7.354033
v 1.073168 -89.915245 7.354033
v 1.073168 -89.915260 2.878961
v -1.073168 -89.915260 2.878961
v -120.805809 -31.957703 6.987802
v 120.805809 -31.957703 6.987802
v -120.805809 -13.210358 6.987802
v 120.805809 -13.210358 6.987802
v -120.805809 -31.957703 3.520605
v 120.805809 -31.957703 3.520605
v 120.805809 -13.210358 3.520605
v -120.805809 -13.210358 3.520605
v 135.060745 0.000000 15.056419
v 135.060745 0.000000 0.000000
v -135.060745 0.000000 0.000000
v -135.060745 0.000000 15.056419
v 135.060745 -13.210358 0.000000
v -135.060745 -13.210358 0.000000
v -123.305809 -41.802414 8.216833
v -123.305809 -41.802414 2.291573
v 123.305809 -41.802414 2.291573
v 123.305809 -41.802414 8.216833
v -123.305809 -31.957703 8.030392
v -123.305809 -31.957703 2.478014
v 123.305809 -31.957703 2.478014
v 123.305809 -31.957703 8.030392
v -123.305809 -36.629684 11.281484
v 123.305809 -36.629684 11.281484
v 123.305809 -36.629684 -0.773077
v -123.305809 -36.629684 -0.773077
v 135.060745 -13.210358 11.093709
v 135.060745 -9.247650 15.056419
v -135.060745 -9.247650 15.056419
v -135.060745 -13.210358 11.093709
vt 0.102118 0.304463
vt 0.101889 0.304421
vt 0.101919 0.304461
vt 0.102231 0.304518
vt 0.102233 0.304261
vt 0.102390 0.304242
vt 0.102118 0.304017
vt 0.102233 0.303908
vt 0.101889 0.303977
vt 0.101918 0.303854
vt 0.101775 0.304179
vt 0.101763 0.304130
vt 0.101824 0.304594
vt 0.102273 0.304677
vt 0.102502 0.304280
vt 0.102275 0.303799
vt 0.101823 0.303721
vt 0.101600 0.304119
vt 0.101735 0.304637
vt 0.102185 0.304721
vt 0.102414 0.304323
vt 0.102186 0.303840
vt 0.101733 0.303761
vt 0.101511 0.304161
vt 0.101775 0.304530
vt 0.102089 0.304589
vt 0.102248 0.304311
vt 0.102089 0.303975
vt 0.101774 0.303920
vt 0.101619 0.304198
vt 0.125250 0.377845
vt 0.125207 0.377841
vt 0.125217 0.376918
vt 0.125261 0.376920
vt 0.125227 0.376908
vt 0.125271 0.376910
vt 0.125217 0.377828
vt 0.125260 0.377832
vt 0.125259 0.377894
vt 0.125216 0.377891
vt 0.125207 0.377904
vt 0.125249 0.377908
vt 0.125250 0.377876
vt 0.125207 0.377873
vt 0.125217 0.377859
vt 0.125259 0.377863
vt 0.399970 0.494800
vt 0.400906 0.495006
vt 0.400940 0.494132
vt 0.399940 0.494056
vt 0.399940 0.494056
vt 0.400940 0.494132
vt 0.400906 0.495006
vt 0.399970 0.494800
vt 0.400906 0.495006
vt 0.400940 0.494132
vt 0.101619 0.303908
vt 0.101644 0.303903
vt 0.101240 0.303637
vt 0.101221 0.303639
vt 0.399940 0.494056
vt 0.399970 0.494800
vt 0.101168 0.302936
vt 0.101218 0.302936
vt 0.101688 0.302909
vt 0.101620 0.302908
vt 0.101219 0.302983
vt 0.101688 0.302978
vt 0.101638 0.302978
vt 0.101620 0.302957
vt 0.101169 0.302969
vt 0.101224 0.302983
vt 0.101636 0.302979
vt 0.101621 0.302979
vt 0.101620 0.303863
vt 0.101643 0.303858
vt 0.101657 0.303877
vt 0.101606 0.303887
vt 0.101239 0.303604
vt 0.101250 0.303618
vt 0.101221 0.303606
vt 0.101211 0.303623
vt 0.101619 0.303858
vt 0.101633 0.303856
vt 0.101239 0.303607
vt 0.101227 0.303608
vt 0.101182 0.302983
vt 0.101213 0.302983
vn 0.000000 0.846395 -0.532556
vn 0.000000 0.846395 -0.532556
vn 0.000000 0.846395 -0.532556
vn 0.000000 0.846395 -0.532556
vn 0.732999 0.423198 -0.532555
vn 0.732999 0.423198 -0.532555
vn 0.732999 0.423198 -0.532555
vn 0.732999 0.423198 -0.532555
vn 0.732999 -0.423198 -0.532556
vn 0.732999 -0.423198 -0.532556
vn 0.732999 -0.423198 -0.532556
vn 0.732999 -0.423198 -0.532556
vn 0.000000 -0.846395 -0.532556
vn 0.000000 -0.846395 -0.532556
vn 0.000000 -0.846395 -0.532556
vn 0.000000 -0.846395 -0.532556
vn -0.732999 -0.423198 -0.532555
vn -0.732999 -0.423198 -0.532555
vn -0.732999 -0.423198 -0.532555
vn -0.732999 -0.423198 -0.532555
vn -0.732999 0.423198 -0.532556
vn -0.732999 0.423198 -0.532556
vn -0.732999 0.423198 -0.532556
vn -0.732999 0.423198 -0.532556
vn 0.000000 -0.351277 -0.936272
vn 0.000000 -0.351277 -0.936272
vn 0.000000 -0.351277 -0.936272
vn 0.000000 -0.351277 -0.936272
vn -0.304213 -0.175638 -0.936272
vn -0.304213 -0.175638 -0.936272
vn -0.304213 -0.175638 -0.936272
vn -0.304213 -0.175638 -0.936272
vn -0.304213 0.175637 -0.936272
vn -0.304213 0.175637 -0.936272
vn -0.304213 0.175637 -0.936272
vn -0.304213 0.175637 -0.936272
vn 0.000000 0.351273 -0.936273
vn 0.000000 0.351273 -0.936273
vn 0.000000 0.351273 -0.936273
vn 0.000000 0.351273 -0.936273
vn 0.304213 0.175637 -0.936272
vn 0.304213 0.175637 -0.936272
vn 0.304213 0.175637 -0.936272
vn 0.304213 0.175637 -0.936272
vn 0.304213 -0.175638 -0.936272
vn 0.304213 -0.175638 -0.936272
vn 0.304213 -0.175638 -0.936272
vn 0.304213 -0.175638 -0.936272
vn 0.000000 -1.000000 0.000000
vn 0.000000 -1.000000 0.000000
vn 0.000000 -1.000000 0.000000
vn 0.000000 -1.000000 0.000000
vn -0.866025 -0.500001 0.000000
vn -0.866025 -0.500001 0.000000
vn -0.866025 -0.500001 0.000000
vn -0.866025 -0.500001 0.000000
vn -0.866026 0.500000 -0.000000
vn -0.866026 0.500000 -0.000000
vn -0.866026 0.500000 -0.000000
vn -0.866026 0.500000 -0.000000
vn 0.000000 1.000000 -0.000000
vn 0.000000 1.000000 -0.000000
vn 0.000000 1.000000 -0.000000
vn 0.000000 1.000000 -0.000000
vn 0.866026 0.500000 -0.000000
vn 0.866026 0.500000 -0.000000
vn 0.866026 0.500000 -0.000000
vn 0.866026 0.500000 -0.000000
vn 0.866025 -0.500001 0.000000
vn 0.866025 -0.500001 0.000000
vn 0.866025 -0.500001 0.000000
vn 0.866025 -0.500001 0.000000
vn 0.000000 -0.351277 0.936272
vn 0.000000 -0.351277 0.936272
vn 0.000000 -0.351277 0.936272
vn 0.000000 -0.351277 0.936272
vn -0.304213 -0.175638 0.936272
vn -0.304213 -0.175638 0.936272
vn -0.304213 -0.175638 0.936272
vn -0.304213 -0.175638 0.936272
vn -0.304213 0.175637 0.936272
vn -0.304213 0.175637 0.936272
vn -0.304213 0.175637 0.936272
vn -0.304213 0.175637 0.936272
vn 0.000000 0.351273 0.936273
vn 0.000000 0.351273 0.936273
vn 0.000000 0.351273 0.936273
vn 0.000000 0.351273 0.936273
vn 0.304213 0.175637 0.936272
vn 0.304213 0.175637 0.936272
vn 0.304213 0.175637 0.936272
vn 0.304213 0.175637 0.936272
vn 0.304213 -0.175638 0.936272
vn 0.304213 -0.175638 0.936272
vn 0.304213 -0.175638 0.936272
vn 0.304213 -0.175638 0.936272
vn 0.000000 0.846395 0.532556
vn 0.000000 0.846395 0.532556
vn 0.000000 0.846395 0.532556
vn 0.000000 0.846395 0.532556
vn 0.732999 0.423198 0.532555
vn 0.732999 0.423198 0.532555
vn 0.732999 0.423198 0.532555
vn 0.732999 0.423198 0.532555
vn 0.732999 -0.423198 0.532555
vn 0.732999 -0.423198 0.532555
vn 0.732999 -0.423198 0.532555
vn 0.732999 -0.423198 0.532555
vn 0.000000 -0.846395 0.532556
vn 0.000000 -0.846395 0.532556
vn 0.000000 -0.846395 0.532556
vn 0.000000 -0.846395 0.532556
vn -0.732999 -0.423198 0.532555
vn -0.732999 -0.423198 0.532555
vn -0.732999 -0.423198 0.532555
vn -0.732999 -0.423198 0.532555
vn -0.732999 0.423198 0.532555
vn -0.732999 0.423198 0.532555
vn -0.732999 0.423198 0.532555
vn -0.732999 0.423198 0.532555
vn 0.000000 0.023352 0.999727
vn 0.000000 0.023352 0.999727
vn 0.000000 0.000000 1.000000
vn 0.000000 0.000000 1.000000
vn 0.000000 1.000000 0.000000
vn 0.000000 1.000000 0.000000
vn 0.000000 1.000000 0.000000
vn 0.000000 1.000000 0.000000
vn 0.000000 0.000000 -1.000000
vn 0.000000 0.000000 -1.000000
vn 0.000000 0.023352 -0.999727
vn 0.000000 0.023352 -0.999727
vn 0.000000 -1.000000 0.000000
vn 0.000000 -1.000000 0.000000
vn 0.000000 -1.000000 0.000000
vn 0.000000 -1.000000 0.000000
vn 1.000000 -0.000000 0.000000
vn 1.000000 -0.000000 0.000000
vn 1.000000 0.000000 0.000000
vn 1.000000 0.000000 0.000000
vn -1.000000 -0.000000 0.000000
vn -1.000000 -0.000000 0.000000
vn -1.000000 0.000000 0.000000
vn -1.000000 0.000000 0.000000
vn 0.000000 -0.000000 1.000000
vn 0.000000 -0.000000 1.000000
vn 0.000000 0.023352 0.999727
vn 0.000000 0.023352 0.999727
vn 1.000000 0.000000 0.000000
vn 1.000000 0.000000 0.000000
vn 1.000000 -0.000000 0.000000
vn 1.000000 -0.000000 0.000000
vn 0.000000 0.023352 -0.999727
vn 0.000000 0.023352 -0.999727
vn 0.000000 0.000000 -1.000000
vn 0.000000 0.000000 -1.000000
vn -1.000000 0.000000 0.000000
vn -1.000000 0.000000 0.000000
vn -1.000000 -0.000000 0.000000
vn -1.000000 -0.000000 0.000000
vn 0.000000 -0.580076 0.814562
vn 0.000000 -0.580076 0.814562
vn 0.000000 -0.000000 1.000000
vn 0.000000 -0.000000 1.000000
vn 1.000000 0.000000 0.000000
vn 1.000000 0.000000 0.000000
vn 1.000000 0.000000 0.000000
vn 1.000000 0.000000 0.000000
vn 0.000000 0.000000 -1.000000
vn 0.000000 0.000000 -1.000000
vn 0.000000 -0.580080 -0.814560
vn 0.000000 -0.580080 -0.814560
vn -1.000000 0.000000 0.000000
vn -1.000000 0.000000 0.000000
vn -1.000000 0.000000 0.000000
vn -1.000000 0.000000 0.000000
vn 0.000000 0.000000 -1.000000
vn 0.000000 0.000000 -1.000000
vn 0.000000 0.000000 -1.000000
vn 0.000000 0.000000 -1.000000
vn 0.000000 0.000000 1.000000
vn 0.000000 0.000000 1.000000
vn 0.000000 0.000000 1.000000
vn 0.000000 0.000000 1.000000
vn -1.000000 0.000000 0.000000
vn -1.000000 0.000000 0.000000
vn -1.000000 0.000000 0.000000
vn -1.000000 0.000000 0.000000
vn 0.000000 -1.000000 0.000000
vn 0.000000 -1.000000 0.000000
vn 0.000000 -1.000000 0.000000
vn 0.000000 -1.000000 0.000000
vn 1.000000 0.000000 0.000000
vn 1.000000 0.000000 0.000000
vn 1.000000 0.000000 0.000000
vn 1.000000 0.000000 0.000000
vn 0.000000 1.000000 0.000000
vn 0.000000 1.000000 0.000000
vn 0.000000 1.000000 0.000000
vn 0.000000 1.000000 0.000000
vn 0.000000 0.000000 -1.000000
vn 0.000000 0.000000 -1.000000
vn 0.000000 0.000000 -1.000000
vn 0.000000 0.000000 -1.000000
vn -1.000000 0.000000 0.000000
vn -1.000000 0.000000 0.000000
vn -1.000000 0.000000 0.000000
vn 0.000000 0.000000 1.000000
vn 0.000000 0.000000 1.000000
vn 0.000000 0.000000 1.000000
vn 0.000000 0.000000 1.000000
vn 0.000000 -1.000000 0.000001
vn 0.000000 -1.000000 0.000001
vn 0.000000 -1.000000 0.000001
vn 0.000000 -1.000000 0.000001
vn 0.000000 -1.000000 0.000000
vn 0.000000 -1.000000 0.000000
vn 0.000000 -1.000000 0.000000
vn 0.000000 -1.000000 0.000000
vn -1.000000 0.000001 0.000000
vn -1.000000 0.000001 0.000000
vn -1.000000 0.000001 0.000000
vn -1.000000 0.000001 0.000000
vn 0.000000 0.571185 -0.820821
vn 0.000000 0.571185 -0.820821
vn 0.000000 0.571185 -0.820821
vn 0.000000 0.571185 -0.820821
vn 1.000000 0.000001 0.000000
vn 1.000000 0.000001 0.000000
vn 1.000000 0.000001 0.000000
vn 1.000000 0.000001 0.000000
vn 0.000000 0.571185 0.820821
vn 0.000000 0.571185 0.820821
vn 0.000000 0.571185 0.820821
vn 0.000000 0.571185 0.820821
vn 0.000000 1.000000 0.000000
vn 0.000000 1.000000 0.000000
vn 0.000000 1.000000 0.000000
vn 0.000000 1.000000 0.000000
vn 0.000000 1.000000 -0.000005
vn 0.000000 1.000000 -0.000005
vn 0.000000 1.000000 -0.000005
vn 0.000000 1.000000 -0.000005
vn 0.000000 1.000000 0.000000
vn 0.000000 1.000000 0.000000
vn 0.000000 1.000000 0.000000
vn 0.000000 1.000000 0.000000
vn 0.000000 1.000000 0.000005
vn 0.000000 1.000000 0.000005
vn 0.000000 1.000000 0.000005
vn 0.000000 1.000000 0.000005
vn 0.000000 -0.509720 0.860340
vn 0.000000 -0.509720 0.860340
vn 0.000000 -0.509720 0.860340
vn 0.000000 -0.509720 0.860340
vn 1.000000 0.000001 0.000000
vn 1.000000 0.000001 0.000000
vn 1.000000 0.000001 0.000000
vn 1.000000 0.000001 0.000000
vn 0.000000 -0.509720 -0.860340
vn 0.000000 -0.509720 -0.860340
vn 0.000000 -0.509720 -0.860340
vn 0.000000 -0.509720 -0.860340
vn -1.000000 0.000001 0.000000
vn -1.000000 0.000001 0.000000
vn -1.000000 0.000001 0.000000
vn -1.000000 0.000001 0.000000
vn 1.000000 0.000000 0.000000
vn 1.000000 0.000000 0.000000
vn 1.000000 0.000000 0.000000
vn 1.000000 0.000000 0.000000
vn 0.000000 -0.707107 0.707106
vn 0.000000 -0.707107 0.707106
vn 0.000000 -0.707107 0.707106
vn 0.000000 -0.707107 0.707106
vn 0.000000 -1.000000 -0.000001
vn 0.000000 -1.000000 -0.000001
vn 0.000000 -1.000000 -0.000001
vn 0.000000 -1.000000 -0.000001
vn -1.000000 0.000000 0.000000
vn -1.000000 0.000000 0.000000
vn -1.000000 0.000000 0.000000
vn -1.000000 0.000000 0.000000
vn 0.000000 -1.000000 0.000000
vn 0.000000 -1.000000 0.000000
vn 0.000000 -1.000000 0.000000
vn 0.000000 -1.000000 0.000000
vn 1.000000 0.000000 0.000000
vn 1.000000 0.000000 0.000000
vn 1.000000 0.000000 0.000000
s off
f 2/1/1 1/2/2 7/3/3 8/4/4
f 3/5/5 2/1/6 8/4/7 9/6/8
f 4/7/9 3/5/10 9/6/11 10/8/12
f 5/9/13 4/7/14 10/8/15 11/10/16
f 6/11/17 5/9/18 11/10/19 12/12/20
f 1/2/21 6/11/22 12/12/23 7/3/24
f 8/4/25 7/3/26 13/13/27 14/14/28
f 9/6/29 8/4/30 14/14/31 15/15/32
f 10/8/33 9/6/34 15/15/35 16/16/36
f 11/10/37 10/8/38 16/16/39 17/17/40
f 12/12/41 11/10/42 17/17/43 18/18/44
f 7/3/45 12/12/46 18/18/47 13/13/48
f 14/14/49 13/13/50 19/19/51 20/20/52
f 15/15/53 14/14/54 20/20/55 21/21/56
f 16/16/57 15/15/58 21/21/59 22/22/60
f 17/17/61 16/16/62 22/22/63 23/23/64
f 18/18/65 17/17/66 23/23/67 24/24/68
f 13/13/69 18/18/70 24/24/71 19/19/72
f 20/20/73 19/19/74 25/25/75 26/26/76
f 21/21/77 20/20/78 26/26/79 27/27/80
f 22/22/81 21/21/82 27/27/83 28/28/84
f 23/23/85 22/22/86 28/28/87 29/29/88
f 24/24/89 23/23/90 29/29/91 30/30/92
f 19/19/93 24/24/94 30/30/95 25/25/96
f 26/26/97 25/25/98 1/2/99 2/1/100
f 27/27/101 26/26/102 2/1/103 3/5/104
f 28/28/105 27/27/106 3/5/107 4/7/108
f 29/29/109 28/28/110 4/7/111 5/9/112
f 30/30/113 29/29/114 5/9/115 6/11/116
f 25/25/117 30/30/118 6/11/119 1/2/120
f 39/31/121 40/32/122 34/33/123 33/34/124
f 33/34/125 34/33/126 36/35/127 35/36/128
f 35/36/129 36/35/130 41/37/131 42/38/132
f 37/39/133 38/40/134 32/41/135 31/42/136
f 40/32/137 41/37/138 36/35/139 34/33/140
f 42/38/141 39/31/142 33/34/143 35/36/144
f 43/43/145 44/44/146 40/32/147 39/31/148
f 44/44/149 45/45/150 41/37/151 40/32/152
f 42/38/153 41/37/154 45/45/155 46/46/156
f 46/46/157 43/43/158 39/31/159 42/38/160
f 31/42/161 32/41/162 44/44/163 43/43/164
f 32/41/165 38/40/166 45/45/167 44/44/168
f 46/46/169 45/45/170 38/40/171 37/39/172
f 37/39/173 31/42/174 43/43/175 46/46/176
f 52/47/177 51/48/178 54/49/179 53/50/180
f 50/51/181 49/52/182 47/53/183 48/54/184
f 51/48/185 47/55/186 49/56/187 54/49/188
f 61/57/189 62/58/190 63/59/191 64/60/192
f 52/47/193 53/50/194 50/61/195 48/62/196
f 55/63/197 56/64/198 57/65/199 58/66/200
f 59/67/201 60/68/202 57/65/203 56/64/204
f 60/68/205 76/69/206 57/65/207
f 75/70/208 74/71/209 55/63/210 58/66/211
f 53/72/212 54/73/213 60/68/214 59/67/215
f 49/74/216 76/69/217 60/68/218 54/73/219
f 65/75/220 66/76/221 72/77/222 69/78/223
f 66/76/224 67/79/225 71/80/226 72/77/227
f 67/79/228 68/81/229 70/82/230 71/80/231
f 68/81/232 65/75/233 69/78/234 70/82/235
f 47/83/236 51/84/237 66/76/238 65/75/239
f 51/84/240 52/85/241 67/79/242 66/76/243
f 52/85/244 48/86/245 68/81/246 67/79/247
f 48/86/248 47/83/249 65/75/250 68/81/251
f 70/82/252 69/78/253 61/57/254 64/60/255
f 71/80/256 70/82/257 64/60/258 63/59/259
f 72/77/260 71/80/261 63/59/262 62/58/263
f 69/78/264 72/77/265 62/58/266 61/57/267
f 74/71/268 73/87/269 56/64/270 55/63/271
f 73/87/272 74/71/273 75/70/274 76/69/275
f 73/87/276 76/69/277 49/74/278 50/88/279
f 57/65/280 76/69/281 75/70/282 58/66/283
f 73/87/284 50/88/285 53/72/286 59/67/287
f 56/64/288 73/87/289 59/67/290
