# This file uses centimeters as units for non-parametric coordinates.

v -7.830996 0.000001 6.974365
v -7.830996 2.191309 6.974365
v -7.165113 0.000000 -7.338318
v -7.165113 2.191307 -7.338257
v -6.460146 2.191309 8.270020
v -6.460146 0.000001 8.270020
v -6.099851 0.000000 -1.521729
v -6.099851 2.191309 -1.521729
v -6.855029 0.000000 -0.777588
v -6.855029 2.191309 -0.777588
v -7.437265 0.000000 -2.490235
v -7.437265 2.191309 -2.490235
v -7.971193 0.000000 -5.707825
v -7.971193 2.191307 -5.707886
v 0.000000 0.000002 -7.338318
v 0.000000 2.191309 -7.338257
v -2.604067 2.191309 -8.201294
v -2.604067 0.000002 -8.201294
v -7.418069 0.000000 -1.085633
v -7.418069 2.191309 -1.085572
v -6.778185 2.191309 -1.488526
v -6.778185 0.000000 -1.488465
v 0.000000 0.000002 -8.018677
v 0.000000 2.191309 -8.018677
v -6.684336 2.191309 8.892395
v -6.684336 0.000001 8.892396
v -8.388847 0.000001 7.193177
v -8.388847 2.191309 7.193176
v -7.958915 2.191309 -2.134278
v -7.958915 0.000000 -2.134339
v -8.601047 2.191307 -5.811402
v -8.601047 0.000000 -5.811463
v -7.522583 2.191307 -7.854493
v -7.522583 0.000000 -7.854554
v -2.562735 2.191309 -8.892334
v -2.562735 0.000002 -8.892395
v 0.000000 2.191309 -1.521729
v 0.000000 2.191309 8.270020
v 0.000000 2.191309 8.892395
v 0.000000 0.000001 8.892395
v 0.000000 0.000001 8.270020
v 0.000000 -0.000000 -1.521729
v 7.830996 0.000001 6.974365
v 7.830996 2.191309 6.974365
v 7.165113 -0.000000 -7.338318
v 7.165113 2.191307 -7.338257
v 6.460146 2.191309 8.270020
v 6.460146 0.000001 8.270020
v 6.099851 -0.000000 -1.521729
v 6.099851 2.191309 -1.521729
v 6.855029 -0.000000 -0.777588
v 6.855029 2.191309 -0.777588
v 7.437265 -0.000000 -2.490235
v 7.437265 2.191309 -2.490235
v 7.971193 -0.000000 -5.707825
v 7.971193 2.191307 -5.707886
v 2.604067 2.191309 -8.201294
v 2.604067 0.000002 -8.201294
v 7.418069 0.000000 -1.085633
v 7.418069 2.191309 -1.085572
v 6.778185 2.191309 -1.488526
v 6.778185 0.000000 -1.488465
v 6.684336 2.191309 8.892395
v 6.684336 0.000001 8.892396
v 8.388847 0.000001 7.193177
v 8.388847 2.191309 7.193176
v 7.958915 2.191309 -2.134278
v 7.958915 0.000000 -2.134339
v 8.601047 2.191307 -5.811402
v 8.601047 -0.000000 -5.811463
v 7.522583 2.191307 -7.854493
v 7.522583 0.000000 -7.854554
v 2.562735 2.191309 -8.892334
v 2.562735 0.000002 -8.892395
vt 0.016005 0.277357
vt 0.016005 0.277357
vt 0.016005 0.277357
vt 0.016005 0.277357
vt 0.016005 0.277357
vt 0.016005 0.277357
vt 0.016005 0.277357
vt 0.016005 0.277357
vt 0.016005 0.277357
vt 0.016005 0.277357
vt 0.016005 0.277357
vt 0.016005 0.277357
vt 0.016005 0.277357
vt 0.016005 0.277357
vt 0.016005 0.277357
vt 0.016005 0.277357
vt 0.016005 0.277357
vt 0.016005 0.277357
vt 0.016005 0.277357
vt 0.016005 0.277357
vt 0.016005 0.277357
vt 0.016005 0.277357
vt 0.005278 0.278947
vt 0.005278 0.278947
vt 0.016005 0.277357
vt 0.016005 0.277357
vt 0.016005 0.277357
vt 0.016005 0.277357
vt 0.005278 0.278947
vt 0.005278 0.278947
vt 0.016005 0.277357
vt 0.016005 0.277357
vt 0.016005 0.277357
vt 0.016005 0.277357
vt 0.016005 0.277357
vt 0.016005 0.277357
vt 0.016005 0.277357
vt 0.016005 0.277357
vt 0.005278 0.278947
vt 0.005278 0.278947
vt 0.005278 0.278947
vt 0.005278 0.278947
vt 0.005278 0.278947
vt 0.005278 0.278947
vt 0.005278 0.278947
vt 0.005278 0.278947
vt 0.016005 0.277357
vt 0.016005 0.277357
vt 0.016005 0.277357
vt 0.016005 0.277357
vt 0.016005 0.277357
vt 0.016005 0.277357
vt 0.016005 0.277357
vt 0.016005 0.277357
vt 0.016005 0.277357
vt 0.016005 0.277357
vt 0.016005 0.277357
vt 0.016005 0.277357
vt 0.016005 0.277357
vt 0.016005 0.277357
vt 0.016005 0.277357
vt 0.016005 0.277357
vt 0.016005 0.277357
vt 0.016005 0.277357
vt 0.016005 0.277357
vt 0.016005 0.277357
vt 0.016005 0.277357
vt 0.016005 0.277357
vt 0.016005 0.277357
vt 0.016005 0.277357
vt 0.016005 0.277357
vt 0.016005 0.277357
vt 0.016005 0.277357
vt 0.016005 0.277357
vt 0.016005 0.277357
vt 0.016005 0.277357
vt 0.016005 0.277357
vt 0.016005 0.277357
vt 0.016005 0.277357
vt 0.016005 0.277357
vt 0.016005 0.277357
vt 0.016005 0.277357
vt 0.016005 0.277357
vt 0.016005 0.277357
vt 0.016005 0.277357
vt 0.016005 0.277357
vt 0.016005 0.277357
vt 0.016005 0.277357
vt 0.016005 0.277357
vt 0.016005 0.277357
vt 0.016005 0.277357
vt 0.016005 0.277357
vt 0.016005 0.277357
vt 0.016005 0.277357
vt 0.016005 0.277357
vt 0.016005 0.277357
vt 0.016005 0.277357
vt 0.016005 0.277357
vt 0.016005 0.277357
vt 0.016005 0.277357
vt 0.016005 0.277357
vt 0.016005 0.277357
vt 0.016005 0.277357
vt 0.016005 0.277357
vt 0.016005 0.277357
vt 0.016005 0.277357
vt 0.016005 0.277357
vt 0.016005 0.277357
vt 0.016005 0.277357
vt 0.016005 0.277357
vt 0.016005 0.277357
vt 0.016005 0.277357
vt 0.016005 0.277357
vt 0.016005 0.277357
vt 0.005278 0.278947
vt 0.005278 0.278947
vt 0.005278 0.278947
vt 0.005278 0.278947
vt 0.005278 0.278947
vt 0.005278 0.278947
vt 0.005278 0.278947
vt 0.016604 0.277056
vt 0.005278 0.278947
vt 0.016604 0.277056
vt 0.016604 0.277056
vt 0.016604 0.277056
vt 0.016604 0.277056
vt 0.005278 0.278947
vt 0.016604 0.277056
vt 0.005278 0.278947
vt 0.016005 0.277357
vt 0.016005 0.277357
vt 0.016005 0.277357
vt 0.016005 0.277357
vt 0.016005 0.277357
vt 0.016005 0.277357
vt 0.016005 0.277357
vt 0.016005 0.277357
vt 0.016005 0.277357
vt 0.016005 0.277357
vt 0.016005 0.277357
vt 0.016005 0.277357
vt 0.016005 0.277357
vt 0.016005 0.277357
vt 0.016005 0.277357
vt 0.016005 0.277357
vt 0.016005 0.277357
vt 0.016005 0.277357
vt 0.016005 0.277357
vt 0.016005 0.277357
vt 0.016005 0.277357
vt 0.016005 0.277357
vt 0.016005 0.277357
vt 0.016005 0.277357
vt 0.016005 0.277357
vt 0.016005 0.277357
vt 0.016005 0.277357
vt 0.016005 0.277357
vt 0.016005 0.277357
vt 0.016005 0.277357
vt 0.016005 0.277357
vt 0.016005 0.277357
vt 0.005278 0.278947
vt 0.005278 0.278947
vt 0.005278 0.278947
vt 0.005278 0.278947
vt 0.005278 0.278947
vt 0.005278 0.278947
vt 0.005278 0.278947
vt 0.005278 0.278947
vt 0.016005 0.277357
vt 0.016005 0.277357
vt 0.016005 0.277357
vt 0.016005 0.277357
vt 0.016005 0.277357
vt 0.016005 0.277357
vt 0.016005 0.277357
vt 0.016005 0.277357
vt 0.016005 0.277357
vt 0.016005 0.277357
vt 0.016005 0.277357
vt 0.016005 0.277357
vt 0.016005 0.277357
vt 0.016005 0.277357
vt 0.016005 0.277357
vt 0.016005 0.277357
vt 0.016005 0.277357
vt 0.016005 0.277357
vt 0.016005 0.277357
vt 0.016005 0.277357
vt 0.016005 0.277357
vt 0.016005 0.277357
vt 0.016005 0.277357
vt 0.016005 0.277357
vt 0.016005 0.277357
vt 0.016005 0.277357
vt 0.016005 0.277357
vt 0.016005 0.277357
vt 0.016005 0.277357
vt 0.016005 0.277357
vt 0.016005 0.277357
vt 0.016005 0.277357
vt 0.016005 0.277357
vt 0.016005 0.277357
vt 0.016005 0.277357
vt 0.016005 0.277357
vt 0.016005 0.277357
vt 0.016005 0.277357
vt 0.016005 0.277357
vt 0.016005 0.277357
vt 0.016005 0.277357
vt 0.016005 0.277357
vt 0.016005 0.277357
vt 0.016005 0.277357
vt 0.016005 0.277357
vt 0.016005 0.277357
vt 0.016005 0.277357
vt 0.016005 0.277357
vt 0.016005 0.277357
vt 0.016005 0.277357
vt 0.016005 0.277357
vt 0.016005 0.277357
vt 0.016005 0.277357
vt 0.016005 0.277357
vt 0.016005 0.277357
vt 0.016005 0.277357
vt 0.016005 0.277357
vt 0.016005 0.277357
vt 0.016005 0.277357
vt 0.016005 0.277357
vt 0.016005 0.277357
vt 0.016005 0.277357
vt 0.016005 0.277357
vt 0.016005 0.277357
vt 0.005278 0.278947
vt 0.005278 0.278947
vt 0.005278 0.278947
vt 0.005278 0.278947
vt 0.005278 0.278947
vt 0.005278 0.278947
vt 0.005278 0.278947
vt 0.016604 0.277056
vt 0.016604 0.277056
vt 0.016005 0.277357
vt 0.016005 0.277357
vt 0.016604 0.277056
vt 0.016604 0.277056
vt 0.016005 0.277357
vt 0.016005 0.277357
vt 0.016604 0.277056
vt 0.016604 0.277056
vt 0.016005 0.277357
vt 0.016005 0.277357
vt 0.005278 0.278947
vt 0.005278 0.278947
vt 0.005278 0.278947
vt 0.005278 0.278947
vt 0.005278 0.278947
vt 0.005278 0.278947
vt 0.005278 0.278947
vn -0.532816 0.000000 -0.846231
vn -0.532816 0.000000 -0.846231
vn -0.532816 0.000000 -0.846231
vn -0.532816 0.000000 -0.846231
vn -0.706006 0.000000 0.708206
vn -0.706006 0.000000 0.708206
vn -0.706006 0.000000 0.708206
vn -0.706006 0.000000 0.708206
vn -0.479870 -0.000000 0.877339
vn -0.479870 -0.000000 0.877339
vn -0.479870 -0.000000 0.877339
vn -0.479870 -0.000000 0.877339
vn -0.993195 0.000002 -0.116463
vn -0.993195 0.000002 -0.116463
vn -0.993195 0.000002 -0.116463
vn -0.993195 0.000002 -0.116463
vn -0.985093 -0.000005 0.172026
vn -0.985093 -0.000005 0.172026
vn -0.985093 -0.000005 0.172026
vn -0.985093 -0.000005 0.172026
vn -0.884355 0.000013 -0.466815
vn -0.884355 0.000013 -0.466815
vn -0.884355 0.000013 -0.466815
vn -0.884355 0.000013 -0.466815
vn -0.204813 0.000027 -0.978801
vn -0.204813 0.000027 -0.978801
vn -0.204813 0.000027 -0.978801
vn -0.204813 0.000027 -0.978801
vn 0.322683 0.000013 -0.946507
vn 0.322683 0.000013 -0.946507
vn 0.322683 0.000013 -0.946507
vn 0.322683 0.000013 -0.946507
vn 0.000000 -1.000000 -0.000000
vn 0.000000 -1.000000 -0.000000
vn 0.000000 -1.000000 -0.000000
vn 0.000000 -1.000000 -0.000000
vn -0.000000 1.000000 -0.000000
vn -0.000000 1.000000 -0.000000
vn -0.000001 1.000000 -0.000000
vn -0.000001 1.000000 -0.000000
vn 0.000000 1.000000 0.000000
vn 0.000000 1.000000 0.000000
vn 0.000000 1.000000 0.000000
vn 0.000000 1.000000 0.000000
vn 0.000000 -1.000000 0.000000
vn 0.000000 -1.000000 0.000000
vn 0.000000 -1.000000 0.000000
vn 0.000000 -1.000000 0.000000
vn 0.000000 -1.000000 0.000000
vn 0.000000 -1.000000 0.000000
vn 0.000000 -1.000000 0.000000
vn 0.000000 -1.000000 0.000000
vn 0.000000 1.000000 0.000000
vn 0.000000 1.000000 0.000000
vn 0.000000 1.000000 0.000000
vn 0.000000 1.000000 0.000000
vn 0.000000 1.000000 0.000000
vn 0.000000 1.000000 0.000000
vn 0.000000 1.000000 0.000000
vn 0.000000 1.000000 0.000000
vn 0.000000 -1.000000 0.000000
vn 0.000000 -1.000000 0.000000
vn 0.000000 -1.000000 0.000000
vn 0.000000 -1.000000 0.000000
vn 0.000000 1.000000 0.000000
vn 0.000000 1.000000 0.000000
vn 0.000000 1.000000 0.000000
vn 0.000000 1.000000 0.000000
vn -0.000000 -1.000000 0.000000
vn -0.000000 -1.000000 0.000000
vn -0.000000 -1.000000 0.000000
vn -0.000000 -1.000000 0.000000
vn -0.000000 1.000000 -0.000001
vn -0.000000 1.000000 -0.000001
vn -0.000000 1.000000 -0.000001
vn -0.000000 1.000000 -0.000001
vn 0.000000 -1.000000 0.000000
vn 0.000000 -1.000000 0.000000
vn 0.000000 -1.000000 0.000000
vn 0.000000 -1.000000 0.000000
vn 0.000000 1.000000 0.000000
vn 0.000000 1.000000 0.000000
vn 0.000000 1.000000 0.000000
vn 0.000000 1.000000 0.000000
vn 0.000000 -1.000000 0.000000
vn 0.000000 -1.000000 0.000000
vn 0.000000 -1.000000 0.000000
vn 0.000000 -1.000000 0.000000
vn -0.000000 1.000000 0.000001
vn -0.000000 1.000000 0.000001
vn -0.000000 1.000000 0.000001
vn -0.000000 1.000000 0.000001
vn 0.000000 -1.000000 -0.000000
vn 0.000000 -1.000000 -0.000000
vn 0.000000 -1.000000 -0.000000
vn 0.000000 -1.000000 -0.000000
vn 0.000000 1.000000 -0.000000
vn 0.000000 1.000000 -0.000000
vn 0.000000 1.000000 -0.000000
vn 0.000000 1.000000 -0.000000
vn 0.000000 -1.000000 0.000000
vn 0.000000 -1.000000 0.000000
vn 0.000000 -1.000000 0.000000
vn 0.000000 -1.000000 0.000000
vn 0.000000 -1.000000 0.000000
vn 0.000000 -1.000000 0.000000
vn 0.000000 -1.000000 -0.000000
vn 0.000000 -1.000000 -0.000000
vn 0.000000 1.000000 0.000000
vn 0.000000 1.000000 0.000000
vn -0.000000 1.000000 -0.000000
vn -0.000000 1.000000 -0.000000
vn 0.000000 1.000000 0.000000
vn 0.000000 1.000000 0.000000
vn 0.000000 1.000000 0.000000
vn -0.000000 1.000000 -0.000000
vn 0.000000 1.000000 -0.000000
vn 0.000000 1.000000 -0.000000
vn 0.000000 1.000000 -0.000000
vn 0.000000 1.000000 0.000000
vn 0.000000 1.000000 0.000000
vn -0.000000 1.000000 0.000000
vn -0.000000 1.000000 0.000000
vn 0.000000 0.000000 1.000000
vn 0.000000 0.000000 1.000000
vn 0.000000 0.000000 1.000000
vn 0.000000 0.000000 1.000000
vn 0.000000 -1.000000 0.000000
vn 0.000000 -1.000000 0.000000
vn 0.000000 -1.000000 0.000000
vn 0.000000 -1.000000 0.000000
vn -0.000000 -1.000000 0.000000
vn -0.000000 -1.000000 0.000000
vn 0.000000 -1.000000 0.000000
vn 0.000000 -1.000000 0.000000
vn 0.000000 -1.000000 -0.000000
vn 0.000000 -1.000000 -0.000000
vn 0.000000 -1.000000 -0.000000
vn 0.000000 1.000000 -0.000000
vn 0.000000 1.000000 -0.000000
vn -0.000000 1.000000 -0.000000
vn -0.000000 1.000000 -0.000000
vn 0.532816 0.000000 -0.846231
vn 0.532816 0.000000 -0.846231
vn 0.532816 0.000000 -0.846231
vn 0.532816 0.000000 -0.846231
vn 0.706006 0.000000 0.708206
vn 0.706006 0.000000 0.708206
vn 0.706006 0.000000 0.708206
vn 0.706006 0.000000 0.708206
vn 0.479870 -0.000000 0.877339
vn 0.479870 -0.000000 0.877339
vn 0.479870 -0.000000 0.877339
vn 0.479870 -0.000000 0.877339
vn 0.993195 0.000002 -0.116463
vn 0.993195 0.000002 -0.116463
vn 0.993195 0.000002 -0.116463
vn 0.993195 0.000002 -0.116463
vn 0.985093 -0.000005 0.172026
vn 0.985093 -0.000005 0.172026
vn 0.985093 -0.000005 0.172026
vn 0.985093 -0.000005 0.172026
vn 0.884355 0.000013 -0.466815
vn 0.884355 0.000013 -0.466815
vn 0.884355 0.000013 -0.466815
vn 0.884355 0.000013 -0.466815
vn 0.204813 0.000027 -0.978801
vn 0.204813 0.000027 -0.978801
vn 0.204813 0.000027 -0.978801
vn 0.204813 0.000027 -0.978801
vn -0.322683 0.000013 -0.946507
vn -0.322683 0.000013 -0.946507
vn -0.322683 0.000013 -0.946507
vn -0.322683 0.000013 -0.946507
vn -0.000000 -1.000000 -0.000000
vn -0.000000 -1.000000 -0.000000
vn -0.000000 -1.000000 -0.000000
vn -0.000000 -1.000000 -0.000000
vn 0.000000 1.000000 -0.000000
vn 0.000001 1.000000 -0.000000
vn 0.000001 1.000000 -0.000000
vn 0.000000 1.000000 -0.000000
vn 0.000000 1.000000 0.000000
vn 0.000000 1.000000 0.000000
vn 0.000000 1.000000 0.000000
vn 0.000000 1.000000 0.000000
vn 0.000000 -1.000000 -0.000000
vn 0.000000 -1.000000 -0.000000
vn 0.000000 -1.000000 -0.000000
vn 0.000000 -1.000000 -0.000000
vn 0.000000 -1.000000 0.000000
vn 0.000000 -1.000000 0.000000
vn 0.000000 -1.000000 0.000000
vn 0.000000 -1.000000 0.000000
vn 0.000000 1.000000 -0.000000
vn 0.000000 1.000000 -0.000000
vn 0.000000 1.000000 -0.000000
vn 0.000000 1.000000 -0.000000
vn 0.000000 1.000000 0.000000
vn 0.000000 1.000000 0.000000
vn 0.000000 1.000000 0.000000
vn 0.000000 1.000000 0.000000
vn 0.000000 -1.000000 0.000000
vn 0.000000 -1.000000 0.000000
vn 0.000000 -1.000000 0.000000
vn 0.000000 -1.000000 0.000000
vn 0.000000 1.000000 0.000000
vn 0.000000 1.000000 0.000000
vn 0.000000 1.000000 0.000000
vn 0.000000 1.000000 0.000000
vn 0.000000 -1.000000 0.000000
vn 0.000000 -1.000000 0.000000
vn 0.000000 -1.000000 0.000000
vn 0.000000 -1.000000 0.000000
vn 0.000000 1.000000 -0.000000
vn 0.000000 1.000000 -0.000000
vn 0.000000 1.000000 -0.000000
vn 0.000000 1.000000 -0.000000
vn 0.000000 -1.000000 0.000000
vn 0.000000 -1.000000 0.000000
vn 0.000000 -1.000000 0.000000
vn 0.000000 -1.000000 0.000000
vn 0.000000 1.000000 0.000000
vn 0.000000 1.000000 0.000000
vn 0.000000 1.000000 0.000000
vn 0.000000 1.000000 0.000000
vn 0.000000 -1.000000 -0.000000
vn 0.000000 -1.000000 -0.000000
vn 0.000000 -1.000000 -0.000000
vn 0.000000 -1.000000 -0.000000
vn 0.000000 1.000000 0.000001
vn 0.000000 1.000000 0.000001
vn 0.000000 1.000000 0.000001
vn 0.000000 1.000000 0.000001
vn -0.000000 -1.000000 -0.000000
vn -0.000000 -1.000000 -0.000000
vn -0.000000 -1.000000 -0.000000
vn -0.000000 -1.000000 -0.000000
vn 0.000000 1.000000 0.000000
vn 0.000000 1.000000 0.000000
vn 0.000000 1.000000 -0.000000
vn 0.000000 1.000000 -0.000000
vn 0.000000 -1.000000 0.000000
vn 0.000000 -1.000000 0.000000
vn 0.000000 -1.000000 0.000000
vn 0.000000 -1.000000 0.000000
vn -0.000000 -1.000000 0.000000
vn -0.000000 -1.000000 -0.000000
vn -0.000000 -1.000000 -0.000000
vn -0.000000 -1.000000 0.000000
vn 0.000000 1.000000 0.000000
vn 0.000000 1.000000 -0.000000
vn 0.000000 1.000000 -0.000000
vn 0.000000 1.000000 0.000000
vn 0.000000 1.000000 0.000000
vn 0.000000 1.000000 0.000000
vn 0.000000 1.000000 0.000000
vn 0.000000 1.000000 -0.000000
vn 0.000000 1.000000 -0.000000
vn 0.000000 1.000000 -0.000000
vn 0.000000 1.000000 -0.000000
vn 0.000000 1.000000 0.000000
vn 0.000000 1.000000 0.000000
vn 0.000000 1.000000 0.000000
vn 0.000000 1.000000 0.000000
vn 0.000000 0.000000 1.000000
vn 0.000000 0.000000 1.000000
vn 0.000000 0.000000 1.000000
vn 0.000000 0.000000 1.000000
vn 0.000000 -1.000000 0.000000
vn 0.000000 -1.000000 0.000000
vn 0.000000 -1.000000 0.000000
vn 0.000000 -1.000000 0.000000
vn 0.000000 -1.000000 0.000000
vn -0.000000 -1.000000 0.000000
vn -0.000000 -1.000000 0.000000
vn -0.000000 -1.000000 0.000000
vn 0.000000 -1.000000 -0.000000
vn 0.000000 -1.000000 -0.000000
vn 0.000000 -1.000000 -0.000000
vn 0.000000 1.000000 -0.000000
vn 0.000000 1.000000 -0.000000
vn 0.000000 1.000000 -0.000000
vn 0.000000 1.000000 -0.000000
vn -0.000000 -1.000000 0.000000
vn -0.000000 -1.000000 0.000000
vn 0.000000 -1.000000 0.000000
vn 0.000000 -1.000000 0.000000
vn -0.000000 -1.000000 0.000000
vn -0.000000 -1.000000 0.000000
vn -0.000000 -1.000000 0.000000
vn -0.000000 -1.000000 0.000000
s off
f 19/1/1 20/2/2 21/3/3 22/4/4
f 28/7/5 27/8/6 26/9/7 25/10/8
f 22/11/9 21/12/10 29/13/11 30/14/12
f 27/15/13 28/16/14 20/17/15 19/18/16
f 30/19/17 29/20/18 31/21/19 32/22/20
f 32/25/21 31/26/22 33/27/23 34/28/24
f 34/31/25 33/32/26 35/33/27 36/34/28
f 36/35/29 35/36/30 24/37/31 23/38/32
f 11/42/33 18/41/34 15/30/35 7/29/36
f 12/46/37 17/43/38 4/44/39 14/45/40
f 10/47/41 8/48/42 21/49/43 20/50/44
f 7/51/45 9/52/46 19/53/47 22/54/48
f 1/59/49 6/60/50 26/61/51 27/62/52
f 5/63/53 2/64/54 28/65/55 25/66/56
f 8/67/57 12/68/58 29/69/59 21/70/60
f 11/71/61 7/72/62 22/73/63 30/74/64
f 2/75/65 10/76/66 20/77/67 28/78/68
f 9/79/69 1/80/70 27/81/71 19/82/72
f 12/83/73 14/84/74 31/85/75 29/86/76
f 13/87/77 11/88/78 30/89/79 32/90/80
f 14/91/81 4/92/82 33/93/83 31/94/84
f 3/95/85 13/96/86 32/97/87 34/98/88
f 4/99/89 17/100/90 35/101/91 33/102/92
f 18/103/93 3/104/94 34/105/95 36/106/96
f 17/107/97 16/108/98 24/109/99 35/110/100
f 15/111/101 18/112/102 36/113/103 23/114/104
f 13/39/105 3/40/106 18/41/107 11/42/108
f 8/24/109 16/23/110 17/43/111 12/46/112
f 37/121/113 16/23/114 8/24/115
f 2/119/116 37/121/117 8/24/118 10/118/119
f 39/125/120 38/122/121 5/55/122 25/56/123
f 40/127/124 39/124/125 25/5/126 26/6/127
f 41/129/128 40/126/129 26/57/130 6/58/131
f 42/130/132 1/116/133 9/117/134 7/29/135
f 7/29/136 15/30/137 42/130/138
f 38/123/139 37/121/140 2/119/141 5/120/142
f 59/131/143 62/134/144 61/133/145 60/132/146
f 66/135/147 63/138/148 64/137/149 65/136/150
f 62/139/151 68/142/152 67/141/153 61/140/154
f 65/143/155 59/146/156 60/145/157 66/144/158
f 68/147/159 70/150/160 69/149/161 67/148/162
f 70/151/163 72/154/164 71/153/165 69/152/166
f 72/155/167 74/158/168 73/157/169 71/156/170
f 74/159/171 23/162/172 24/161/173 73/160/174
f 53/163/175 49/166/176 15/165/177 58/164/178
f 54/167/179 56/170/180 46/169/181 57/168/182
f 52/171/183 60/174/184 61/173/185 50/172/186
f 49/175/187 62/178/188 59/177/189 51/176/190
f 43/179/191 65/182/192 64/181/193 48/180/194
f 47/183/195 63/186/196 66/185/197 44/184/198
f 50/187/199 61/190/200 67/189/201 54/188/202
f 53/191/203 68/194/204 62/193/205 49/192/206
f 44/195/207 66/198/208 60/197/209 52/196/210
f 51/199/211 59/202/212 65/201/213 43/200/214
f 54/203/215 67/206/216 69/205/217 56/204/218
f 55/207/219 70/210/220 68/209/221 53/208/222
f 56/211/223 69/214/224 71/213/225 46/212/226
f 45/215/227 72/218/228 70/217/229 55/216/230
f 46/219/231 71/222/232 73/221/233 57/220/234
f 58/223/235 74/226/236 72/225/237 45/224/238
f 57/227/239 73/230/240 24/229/241 16/228/242
f 15/231/243 23/234/244 74/233/245 58/232/246
f 55/235/247 53/163/248 58/164/249 45/236/250
f 50/237/251 54/167/252 57/168/253 16/238/254
f 37/239/255 50/237/256 16/238/257
f 44/240/258 52/241/259 50/237/260 37/239/261
f 39/242/262 63/245/263 47/244/264 38/243/265
f 40/246/266 64/249/267 63/248/268 39/247/269
f 41/250/270 48/253/271 64/252/272 40/251/273
f 43/254/274 42/258/275 49/166/276 51/255/277
f 49/166/278 42/258/279 15/165/280
f 38/259/281 47/260/282 44/240/283 37/239/284
f 41/256/285 42/258/286 43/254/287 48/257/288
f 41/128/289 6/115/290 1/116/291 42/130/292
