# This file uses centimeters as units for non-parametric coordinates.

v 0.524019 11.300322 0.302543
v 0.524019 11.300322 -0.302543
v -0.000000 11.300322 -0.605087
v -0.524020 11.300322 -0.302543
v -0.524020 11.300322 0.302543
v -0.000000 11.300322 0.605086
v -0.000000 11.300322 -0.000000
v 0.861841 -4.624365 0.497585
v 0.861841 -4.624365 -0.497584
v 0.000000 -4.624365 -0.995171
v -0.861841 -4.624365 -0.497585
v -0.861841 -4.624365 0.497585
v 0.000000 -4.624365 0.995171
v 0.861841 10.982214 0.497584
v -0.000000 10.982214 0.995169
v -0.861841 10.982214 0.497584
v -0.861841 10.982214 -0.497585
v -0.000000 10.982214 -0.995171
v 0.861841 10.982214 -0.497585
v 0.000000 -12.159520 0.530863
v 0.459741 -12.159520 0.265432
v 0.000000 -12.159519 0.000000
v -0.459741 -12.159520 0.265432
v -0.459741 -12.159520 -0.265432
v 0.000000 -12.159520 -0.530864
v 0.459741 -12.159520 -0.265432
v 1.318439 -4.978549 -0.456340
v 1.318439 -4.978549 0.456340
v 0.000000 -4.978549 -1.203402
v -1.042175 -4.978549 -0.601701
v -1.042175 -4.978549 0.601701
v 0.000000 -4.978549 1.203402
v 0.976911 -9.941606 -0.564019
v 0.000000 -9.941606 -1.128041
v -0.976911 -9.941606 -0.564019
v -0.976911 -9.941606 0.564021
v 0.000000 -9.941606 1.128041
v 0.976911 -9.941606 0.564020
v 0.861841 -0.544685 0.497585
v 0.861841 -0.544685 -0.497584
v 1.243797 -0.898869 0.470385
v 1.243797 -0.898869 -0.470385
vt 0.102694 0.207564
vt 0.102690 0.207575
vt 0.369558 0.471287
vt 0.369659 0.471287
vt 0.102818 0.207715
vt 0.369666 0.470392
vt 0.102816 0.207580
vt 0.369563 0.470392
vt 0.102945 0.207574
vt 0.369716 0.471297
vt 0.102943 0.207564
vt 0.369724 0.470396
vt 0.102819 0.207559
vt 0.102819 0.206769
vt 0.102666 0.206765
vt 0.102970 0.206766
vt 0.102972 0.206758
vt 0.102815 0.206754
vt 0.102660 0.206758
vt 0.369672 0.471308
vt 0.369679 0.470399
vt 0.369569 0.471308
vt 0.369575 0.470399
vt 0.369512 0.471298
vt 0.369517 0.470396
vt 0.103937 0.206624
vt 0.102818 0.206729
vt 0.102691 0.206725
vt 0.102944 0.206726
vt 0.102945 0.206719
vt 0.102815 0.206715
vt 0.102687 0.206718
vt 0.104239 0.206627
vt 0.104160 0.206614
vt 0.104463 0.206618
vt 0.104385 0.206604
vt 0.104079 0.206601
vt 0.103855 0.206611
vt 0.102819 0.207139
vt 0.102957 0.207140
vt 0.102959 0.207141
vt 0.102816 0.207141
vt 0.102674 0.207141
vt 0.102679 0.207140
vt 0.103658 0.206765
vt 0.103795 0.206784
vt 0.104025 0.206750
vt 0.104531 0.206755
vt 0.104658 0.206775
vt 0.104290 0.206790
vt 0.102818 0.206729
vt 0.102691 0.206725
vt 0.102666 0.206765
vt 0.102819 0.206769
vn 1.000000 0.000000 -0.000000
vn 1.000000 0.000000 -0.000000
vn 1.000000 0.000000 -0.000000
vn 1.000000 0.000000 -0.000000
vn 0.500002 -0.000000 -0.866024
vn 0.500002 -0.000000 -0.866024
vn 0.500002 -0.000000 -0.866024
vn 0.500002 -0.000000 -0.866024
vn -0.500001 -0.000000 -0.866025
vn -0.500001 -0.000000 -0.866025
vn -0.500001 -0.000000 -0.866025
vn -0.500001 -0.000000 -0.866025
vn -1.000000 0.000000 0.000000
vn -1.000000 0.000000 0.000000
vn -1.000000 0.000000 0.000000
vn -1.000000 0.000000 0.000000
vn -0.500001 0.000000 0.866025
vn -0.500001 0.000000 0.866025
vn -0.500001 0.000000 0.866025
vn -0.500001 0.000000 0.866025
vn 0.500000 0.000000 0.866025
vn 0.500000 0.000000 0.866025
vn 0.500000 0.000000 0.866025
vn 0.500000 0.000000 0.866025
vn -0.000002 -1.000000 -0.000002
vn -0.000002 -1.000000 -0.000002
vn -0.000002 -1.000000 -0.000002
vn -0.000000 -1.000000 -0.000002
vn -0.000000 -1.000000 -0.000002
vn -0.000000 -1.000000 -0.000002
vn 0.000002 -1.000000 -0.000000
vn 0.000002 -1.000000 -0.000000
vn 0.000002 -1.000000 -0.000000
vn 0.000000 -1.000000 0.000002
vn 0.000000 -1.000000 0.000002
vn 0.000000 -1.000000 0.000002
vn 0.000000 -1.000000 0.000002
vn 0.000000 -1.000000 0.000002
vn 0.000000 -1.000000 0.000002
vn 0.000000 -1.000000 0.000000
vn 0.000000 -1.000000 0.000000
vn 0.000000 -1.000000 0.000000
vn 0.000000 1.000000 0.000000
vn 0.000000 1.000000 0.000000
vn 0.000000 1.000000 0.000000
vn 0.000001 1.000000 -0.000000
vn 0.000001 1.000000 -0.000000
vn 0.000001 1.000000 -0.000000
vn 0.000000 1.000000 0.000000
vn 0.000000 1.000000 0.000000
vn 0.000000 1.000000 0.000000
vn 0.000000 1.000000 0.000000
vn 0.000000 1.000000 0.000000
vn 0.000000 1.000000 0.000000
vn 0.000000 1.000000 0.000000
vn 0.000000 1.000000 0.000000
vn 0.000000 1.000000 0.000000
vn 0.000000 1.000000 0.000000
vn 0.000000 1.000000 0.000000
vn 0.000000 1.000000 0.000000
vn 0.997641 -0.068652 -0.000000
vn 0.997641 -0.068652 -0.000000
vn 0.997641 -0.068652 -0.000000
vn 0.997641 -0.068652 -0.000000
vn 0.495933 -0.014237 -0.868244
vn 0.495933 -0.014237 -0.868244
vn 0.495933 -0.014237 -0.868244
vn 0.495933 -0.014237 -0.868244
vn -0.499958 -0.013149 -0.865950
vn -0.499958 -0.013149 -0.865950
vn -0.499958 -0.013149 -0.865950
vn -0.499958 -0.013149 -0.865950
vn -0.999914 -0.013149 0.000000
vn -0.999914 -0.013149 0.000000
vn -0.999914 -0.013149 0.000000
vn -0.999914 -0.013149 0.000000
vn -0.499957 -0.013149 0.865950
vn -0.499957 -0.013149 0.865950
vn -0.499957 -0.013149 0.865950
vn -0.499957 -0.013149 0.865950
vn 0.495933 -0.014237 0.868244
vn 0.495933 -0.014237 0.868244
vn 0.495933 -0.014237 0.868244
vn 0.495933 -0.014237 0.868244
vn 0.342772 0.728031 0.593699
vn 0.342772 0.728031 0.593699
vn 0.342772 0.728031 0.593699
vn 0.342772 0.728031 0.593699
vn -0.342772 0.728031 0.593699
vn -0.342772 0.728031 0.593699
vn -0.342772 0.728031 0.593699
vn -0.342772 0.728031 0.593699
vn -0.685545 0.728030 0.000000
vn -0.685545 0.728030 0.000000
vn -0.685545 0.728030 0.000000
vn -0.685545 0.728030 0.000000
vn -0.342773 0.728031 -0.593698
vn -0.342773 0.728031 -0.593698
vn -0.342773 0.728031 -0.593698
vn -0.342773 0.728031 -0.593698
vn 0.342772 0.728032 -0.593698
vn 0.342772 0.728032 -0.593698
vn 0.342772 0.728032 -0.593698
vn 0.342772 0.728032 -0.593698
vn 0.685544 0.728031 -0.000000
vn 0.685544 0.728031 -0.000000
vn 0.685544 0.728031 -0.000000
vn 0.685544 0.728031 -0.000000
vn 0.679946 0.733262 -0.000000
vn 0.679946 0.733262 -0.000000
vn 0.679946 0.733262 -0.000000
vn 0.679946 0.733262 -0.000000
vn 0.439083 0.464340 -0.769152
vn 0.439083 0.464340 -0.769152
vn 0.439083 0.464340 -0.769152
vn 0.439083 0.464340 -0.769152
vn -0.445571 0.453727 -0.771750
vn -0.445571 0.453727 -0.771750
vn -0.445571 0.453727 -0.771750
vn -0.445571 0.453727 -0.771750
vn -0.891140 0.453728 0.000000
vn -0.891140 0.453728 0.000000
vn -0.891140 0.453728 0.000000
vn -0.891140 0.453728 0.000000
vn -0.445571 0.453727 0.771750
vn -0.445571 0.453727 0.771750
vn -0.445571 0.453727 0.771750
vn -0.445571 0.453727 0.771750
vn 0.439082 0.464339 0.769153
vn 0.439082 0.464339 0.769153
vn 0.439082 0.464339 0.769153
vn 0.439082 0.464339 0.769153
vn 0.486939 -0.227087 -0.843399
vn 0.486939 -0.227087 -0.843399
vn 0.486939 -0.227087 -0.843399
vn 0.486939 -0.227087 -0.843399
vn -0.486938 -0.227087 -0.843400
vn -0.486938 -0.227087 -0.843400
vn -0.486938 -0.227087 -0.843400
vn -0.486938 -0.227087 -0.843400
vn -0.973875 -0.227087 0.000000
vn -0.973875 -0.227087 0.000000
vn -0.973875 -0.227087 0.000000
vn -0.973875 -0.227087 0.000000
vn -0.486937 -0.227087 0.843400
vn -0.486937 -0.227087 0.843400
vn -0.486937 -0.227087 0.843400
vn -0.486937 -0.227087 0.843400
vn 0.486938 -0.227087 0.843400
vn 0.486938 -0.227087 0.843400
vn 0.486938 -0.227087 0.843400
vn 0.486938 -0.227087 0.843400
vn 0.973875 -0.227086 -0.000000
vn 0.973875 -0.227086 -0.000000
vn 0.973875 -0.227086 -0.000000
vn 0.973875 -0.227086 -0.000000
vn -1.000000 0.000000 0.000000
vn -1.000000 0.000000 0.000000
vn -1.000000 0.000000 0.000000
vn -1.000000 0.000000 0.000000
vn 0.080531 -0.000979 0.996752
vn 0.080531 -0.000979 0.996752
vn 0.080531 -0.000979 0.996752
vn 0.080531 -0.000979 0.996752
vn 0.999833 0.018293 -0.000000
vn 0.999833 0.018293 -0.000000
vn 0.999833 0.018293 -0.000000
vn 0.999833 0.018293 -0.000000
vn 0.080529 -0.000979 -0.996752
vn 0.080529 -0.000979 -0.996752
vn 0.080529 -0.000979 -0.996752
vn 0.080529 -0.000979 -0.996752
s off
f 8/3/1 9/4/2 19/6/3 14/8/4
f 9/4/5 10/10/6 18/12/7 19/6/8
f 10/10/9 11/20/10 17/21/11 18/12/12
f 11/20/13 12/22/14 16/23/15 17/21/16
f 12/22/17 13/24/18 15/25/19 16/23/20
f 13/24/21 8/3/22 14/8/23 15/25/24
f 21/1/25 20/2/26 22/5/27
f 20/2/28 23/7/29 22/5/30
f 23/7/31 24/9/32 22/5/33
f 24/9/34 25/11/35 22/5/36
f 25/11/37 26/13/38 22/5/39
f 26/13/40 21/1/41 22/5/42
f 1/26/43 2/33/44 7/34/45
f 2/33/46 3/35/47 7/34/48
f 3/35/49 4/36/50 7/34/51
f 4/36/52 5/37/53 7/34/54
f 5/37/55 6/38/56 7/34/57
f 6/38/58 1/26/59 7/34/60
f 38/44/61 33/39/62 27/14/63 28/15/64
f 33/39/65 34/40/66 29/16/67 27/14/68
f 34/40/69 35/41/70 30/17/71 29/16/72
f 35/41/73 36/42/74 31/18/75 30/17/76
f 36/42/77 37/43/78 32/19/79 31/18/80
f 37/43/81 38/44/82 28/15/83 32/19/84
f 15/45/85 14/46/86 1/26/87 6/38/88
f 16/47/89 15/45/90 6/38/91 5/37/92
f 17/48/93 16/47/94 5/37/95 4/36/96
f 18/49/97 17/48/98 4/36/99 3/35/100
f 19/50/101 18/49/102 3/35/103 2/33/104
f 14/46/105 19/50/106 2/33/107 1/26/108
f 40/51/109 39/52/110 41/53/111 42/54/112
f 10/29/113 9/27/114 27/14/115 29/16/116
f 11/30/117 10/29/118 29/16/119 30/17/120
f 12/31/121 11/30/122 30/17/123 31/18/124
f 13/32/125 12/31/126 31/18/127 32/19/128
f 8/28/129 13/32/130 32/19/131 28/15/132
f 26/13/133 25/11/134 34/40/135 33/39/136
f 25/11/137 24/9/138 35/41/139 34/40/140
f 24/9/141 23/7/142 36/42/143 35/41/144
f 23/7/145 20/2/146 37/43/147 36/42/148
f 20/2/149 21/1/150 38/44/151 37/43/152
f 21/1/153 26/13/154 33/39/155 38/44/156
f 9/27/157 8/28/158 39/52/159 40/51/160
f 8/28/161 28/15/162 41/53/163 39/52/164
f 28/15/165 27/14/166 42/54/167 41/53/168
f 27/14/169 9/27/170 40/51/171 42/54/172
