# This file uses centimeters as units for non-parametric coordinates.

v 1.807373 84.200760 0.202759
v 1.807373 84.197861 -1.701599
v -1.497864 84.200760 0.202759
v -1.497864 84.197861 -1.701599
v 1.807373 -43.982502 -0.509399
v 1.807373 -43.985386 -2.413635
v -1.497864 -43.985397 -2.413635
v -1.497864 -43.982502 -0.509399
v 0.154785 -43.980824 -3.023804
v 0.154785 -43.988407 0.281250
v 0.154785 84.196198 0.813232
v 0.154785 84.203766 -2.492188
v 0.154755 85.527908 0.158386
v 0.154755 85.530884 -1.817627
v -0.830231 85.527344 -1.343018
v -0.830231 85.530663 -0.209656
v 1.139740 85.527344 -1.343018
v 1.139740 85.530663 -0.209656
v 2.826385 -45.905869 0.007690
v 2.826385 -45.910526 -3.070679
v -2.516876 -45.910538 -3.070679
v -2.516876 -45.905869 0.007690
v 0.154785 -45.903164 -4.057129
v 0.154785 -45.915413 1.285828
v 2.826385 -53.754139 -0.050964
v 2.826385 -53.758804 -3.129333
v -2.516876 -53.758816 -3.129333
v -2.516876 -53.754139 -0.050964
v 0.154785 -53.751434 -4.115723
v 0.154785 -53.763683 1.227173
v 3.995148 -53.752636 0.558594
v 3.995148 -53.759342 -3.866516
v -3.685638 -53.759357 -3.866516
v -3.685638 -53.752636 0.558594
v 0.154785 -53.748753 -5.284424
v 0.154785 -53.766361 2.395935
v 4.876343 -55.397888 1.005737
v 4.876343 -55.406128 -4.434631
v -4.566833 -55.406147 -4.434631
v -4.566833 -55.397888 1.005737
v 0.154785 -55.393112 -6.177856
v 0.154785 -55.414757 3.264771
v -13.430603 -56.552010 7.771301
v 0.757141 -62.488407 12.380432
v 13.430603 -59.217270 3.121399
v 12.059906 -57.545002 -7.976807
v 0.243286 -58.107376 -13.281128
v -10.661957 -58.468700 -8.257019
v -11.853241 -69.611938 8.079102
v 0.668213 -74.830727 9.415039
v 11.853241 -71.964172 3.975220
v 10.643494 -70.488297 -5.819580
v 0.214722 -70.984627 -10.500854
v -9.409760 -71.303513 -6.066895
v 0.238159 -85.531914 0.377991
vt 0.035414 0.279936
vt 0.035409 0.279949
vt 0.035429 0.278958
vt 0.035434 0.278953
vt 0.035413 0.278950
vt 0.035403 0.278959
vt 0.035382 0.278956
vt 0.035388 0.278951
vt 0.035370 0.279943
vt 0.035375 0.279930
vt 0.035388 0.279950
vt 0.035396 0.279927
vt 0.035403 0.278959
vt 0.035382 0.278956
vt 0.035388 0.278951
vt 0.035413 0.278950
vt 0.035434 0.278953
vt 0.035429 0.278958
vt 0.092621 0.350430
vt 0.092621 0.350430
vt 0.092621 0.350430
vt 0.092621 0.350430
vt 0.092621 0.350430
vt 0.092621 0.350430
vt 0.092621 0.350430
vt 0.092621 0.350430
vt 0.092621 0.350430
vt 0.092621 0.350430
vt 0.092621 0.350430
vt 0.092621 0.350430
vt 0.092621 0.350430
vt 0.092621 0.350430
vt 0.092621 0.350430
vt 0.092621 0.350430
vt 0.092621 0.350430
vt 0.092621 0.350430
vt 0.092621 0.350430
vt 0.092621 0.350430
vt 0.092621 0.350430
vt 0.092621 0.350430
vt 0.092621 0.350430
vt 0.092621 0.350430
vt 0.092621 0.350430
vt 0.092621 0.350430
vt 0.092621 0.350430
vt 0.092621 0.350430
vt 0.092621 0.350430
vt 0.092621 0.350430
vt 0.036285 0.354964
vt 0.036285 0.354964
vt 0.036285 0.354964
vt 0.036285 0.354964
vt 0.036285 0.354964
vt 0.036285 0.354964
vt 0.036285 0.354964
vt 0.036285 0.354964
vt 0.036285 0.354964
vt 0.036285 0.354964
vt 0.036285 0.354964
vt 0.036285 0.354964
vt 0.036285 0.352373
vt 0.036285 0.352373
vt 0.036285 0.352373
vt 0.036285 0.352373
vt 0.036285 0.352373
vt 0.036285 0.352373
vt 0.036285 0.352373
vt 0.036285 0.352373
vt 0.036285 0.352373
vt 0.036285 0.352373
vt 0.036285 0.352373
vt 0.036285 0.352373
vt 0.036285 0.352373
vn 1.000000 -0.000000 0.000000
vn 1.000000 -0.000000 0.000000
vn 1.000000 -0.000000 0.000000
vn 1.000000 -0.000000 0.000000
vn -0.000405 1.000000 -0.000105
vn -0.000405 1.000000 -0.000105
vn -0.000405 1.000000 -0.000105
vn -0.000405 1.000000 -0.000105
vn -1.000000 0.000000 0.000000
vn -1.000000 0.000000 0.000000
vn -1.000000 0.000000 0.000000
vn -1.000000 0.000000 0.000000
vn -0.390206 0.004466 -0.920717
vn -0.390206 0.004466 -0.920717
vn -0.390206 0.004466 -0.920717
vn -0.390206 0.004466 -0.920717
vn -0.390292 -0.004468 0.920680
vn -0.390292 -0.004468 0.920680
vn -0.390292 -0.004468 0.920680
vn -0.390292 -0.004468 0.920680
vn 0.390305 -0.004468 0.920675
vn 0.390305 -0.004468 0.920675
vn 0.390305 -0.004468 0.920675
vn 0.390305 -0.004468 0.920675
vn 0.000405 1.000000 -0.000105
vn 0.000405 1.000000 -0.000105
vn 0.000405 1.000000 -0.000105
vn 0.000405 1.000000 -0.000105
vn 0.390218 0.004466 -0.920712
vn 0.390218 0.004466 -0.920712
vn 0.390218 0.004466 -0.920712
vn 0.390218 0.004466 -0.920712
vn -0.394216 0.417468 -0.818727
vn -0.394217 0.417468 -0.818727
vn -0.394217 0.417468 -0.818727
vn -0.394217 0.417468 -0.818727
vn -0.893684 0.448696 -0.000918
vn -0.893684 0.448696 -0.000918
vn -0.893684 0.448696 -0.000918
vn -0.893684 0.448696 -0.000918
vn -0.314597 0.420206 0.851149
vn -0.314597 0.420206 0.851149
vn -0.314597 0.420207 0.851149
vn -0.314597 0.420207 0.851149
vn 0.893684 0.448696 -0.000918
vn 0.893684 0.448696 -0.000918
vn 0.893684 0.448696 -0.000918
vn 0.893684 0.448696 -0.000918
vn 0.394222 0.417475 -0.818721
vn 0.394222 0.417475 -0.818721
vn 0.394222 0.417475 -0.818721
vn 0.394222 0.417475 -0.818721
vn 0.314603 0.420214 0.851144
vn 0.314603 0.420214 0.851144
vn 0.314603 0.420214 0.851144
vn 0.314603 0.420214 0.851144
vn 0.883722 0.468012 -0.000709
vn 0.883722 0.468012 -0.000709
vn 0.883722 0.468012 -0.000709
vn 0.883722 0.468012 -0.000709
vn -0.883722 0.468012 -0.000711
vn -0.883722 0.468012 -0.000711
vn -0.883722 0.468012 -0.000711
vn -0.883722 0.468012 -0.000711
vn 0.310400 0.450076 -0.837307
vn 0.310400 0.450076 -0.837307
vn 0.310400 0.450076 -0.837307
vn 0.310400 0.450076 -0.837307
vn -0.389245 0.425816 0.816804
vn -0.389245 0.425816 0.816804
vn -0.389245 0.425816 0.816804
vn -0.389245 0.425816 0.816804
vn -0.310394 0.450075 -0.837310
vn -0.310394 0.450075 -0.837310
vn -0.310394 0.450075 -0.837310
vn -0.310394 0.450075 -0.837310
vn 0.389253 0.425816 0.816800
vn 0.389253 0.425816 0.816800
vn 0.389253 0.425816 0.816800
vn 0.389253 0.425816 0.816800
vn 1.000000 -0.000000 0.000000
vn 1.000000 -0.000000 0.000000
vn 1.000000 -0.000000 0.000000
vn 1.000000 -0.000000 0.000000
vn -1.000000 -0.000000 0.000000
vn -1.000000 -0.000000 0.000000
vn -1.000000 -0.000000 0.000000
vn -1.000000 -0.000000 0.000000
vn 0.346377 0.007007 -0.938069
vn 0.346377 0.007007 -0.938069
vn 0.346377 0.007007 -0.938069
vn 0.346377 0.007007 -0.938069
vn -0.431571 -0.006742 0.902054
vn -0.431571 -0.006742 0.902054
vn -0.431571 -0.006742 0.902054
vn -0.431571 -0.006742 0.902054
vn -0.346370 0.007007 -0.938072
vn -0.346370 0.007007 -0.938072
vn -0.346370 0.007007 -0.938072
vn -0.346370 0.007007 -0.938072
vn 0.431579 -0.006742 0.902050
vn 0.431579 -0.006742 0.902050
vn 0.431579 -0.006742 0.902050
vn 0.431579 -0.006742 0.902050
vn -0.000496 0.999999 -0.001515
vn -0.000496 0.999999 -0.001515
vn -0.000496 0.999999 -0.001515
vn -0.000496 0.999999 -0.001515
vn 0.000494 0.999999 -0.001519
vn 0.000494 0.999999 -0.001519
vn 0.000494 0.999999 -0.001519
vn 0.000494 0.999999 -0.001519
vn 0.001910 0.999996 0.002298
vn 0.001910 0.999996 0.002298
vn 0.001910 0.999996 0.002298
vn 0.001910 0.999996 0.002298
vn 0.002478 0.999994 0.002290
vn 0.002478 0.999994 0.002290
vn 0.002478 0.999994 0.002290
vn 0.002478 0.999994 0.002290
vn -0.001914 0.999996 0.002298
vn -0.001914 0.999996 0.002298
vn -0.001914 0.999996 0.002298
vn -0.001914 0.999996 0.002298
vn -0.002478 0.999994 0.002288
vn -0.002478 0.999994 0.002288
vn -0.002478 0.999994 0.002288
vn -0.002478 0.999994 0.002288
vn 0.881603 0.471992 -0.000715
vn 0.881603 0.471992 -0.000715
vn 0.881603 0.471992 -0.000715
vn 0.881603 0.471992 -0.000715
vn -0.881603 0.471991 -0.000717
vn -0.881603 0.471991 -0.000717
vn -0.881603 0.471991 -0.000717
vn -0.881603 0.471991 -0.000717
vn 0.309714 0.453944 -0.835471
vn 0.309714 0.453944 -0.835471
vn 0.309714 0.453944 -0.835471
vn 0.309714 0.453944 -0.835471
vn -0.388471 0.429635 0.815171
vn -0.388471 0.429635 0.815171
vn -0.388471 0.429635 0.815171
vn -0.388471 0.429635 0.815171
vn -0.309712 0.453944 -0.835472
vn -0.309712 0.453944 -0.835472
vn -0.309712 0.453944 -0.835472
vn -0.309712 0.453944 -0.835472
vn 0.388475 0.429635 0.815169
vn 0.388475 0.429635 0.815169
vn 0.388475 0.429635 0.815170
vn 0.388475 0.429635 0.815169
vn 0.358412 0.931367 0.064005
vn 0.358412 0.931367 0.064005
vn 0.358412 0.931367 0.064005
vn 0.358412 0.931367 0.064005
vn -0.291545 0.948660 -0.122658
vn -0.291545 0.948660 -0.122658
vn -0.291545 0.948660 -0.122658
vn -0.291545 0.948660 -0.122658
vn 0.116173 0.931307 -0.345212
vn 0.116173 0.931307 -0.345212
vn 0.116173 0.931307 -0.345212
vn 0.116173 0.931307 -0.345212
vn -0.185326 0.907164 -0.377766
vn -0.185326 0.907164 -0.377766
vn -0.185326 0.907164 -0.377766
vn -0.185326 0.907164 -0.377766
vn 0.231270 0.785813 0.573595
vn 0.231270 0.785813 0.573595
vn 0.231270 0.785813 0.573595
vn 0.231270 0.785813 0.573595
vn 0.092018 0.863788 0.495381
vn 0.092018 0.863788 0.495381
vn 0.092018 0.863788 0.495381
vn 0.092018 0.863788 0.495381
vn -0.261562 -0.115578 0.958242
vn -0.261562 -0.115578 0.958242
vn -0.261562 -0.115578 0.958242
vn -0.261562 -0.115578 0.958242
vn 0.541218 -0.106149 0.834155
vn 0.541218 -0.106149 0.834155
vn 0.541218 -0.106149 0.834155
vn 0.541218 -0.106149 0.834156
vn 0.981332 -0.130875 -0.140922
vn 0.981332 -0.130875 -0.140922
vn 0.981332 -0.130875 -0.140922
vn 0.981332 -0.130875 -0.140922
vn 0.409432 -0.193409 -0.891605
vn 0.409431 -0.193409 -0.891605
vn 0.409432 -0.193409 -0.891605
vn 0.409432 -0.193409 -0.891605
vn -0.405385 -0.192061 -0.893743
vn -0.405385 -0.192062 -0.893743
vn -0.405385 -0.192061 -0.893743
vn -0.405385 -0.192061 -0.893743
vn -0.980385 -0.122056 -0.154750
vn -0.980385 -0.122056 -0.154750
vn -0.980385 -0.122056 -0.154750
vn -0.980385 -0.122056 -0.154750
vn -0.328449 -0.601667 0.728092
vn -0.328449 -0.601667 0.728092
vn -0.328449 -0.601667 0.728092
vn 0.471678 -0.579908 0.664249
vn 0.471678 -0.579908 0.664249
vn 0.471678 -0.579908 0.664249
vn 0.770199 -0.609772 -0.187007
vn 0.770199 -0.609771 -0.187007
vn 0.770199 -0.609771 -0.187007
vn 0.361805 -0.557940 -0.746860
vn 0.361805 -0.557940 -0.746860
vn 0.361805 -0.557940 -0.746860
vn -0.329478 -0.565786 -0.755864
vn -0.329478 -0.565786 -0.755864
vn -0.329478 -0.565786 -0.755864
vn -0.810494 -0.581493 -0.070465
vn -0.810494 -0.581493 -0.070465
vn -0.810494 -0.581493 -0.070465
s off
f 5/1/1 6/2/2 2/3/3 1/4/4
f 13/16/5 14/13/6 15/14/7 16/15/8
f 3/8/9 4/7/10 7/9/11 8/10/12
f 12/6/13 9/11/14 7/9/15 4/7/16
f 8/10/17 10/12/18 11/5/19 3/8/20
f 11/5/21 10/12/22 5/1/23 1/4/24
f 18/17/25 17/18/26 14/13/27 13/16/28
f 6/2/29 9/11/30 12/6/31 2/3/32
f 12/6/33 4/7/34 15/14/35 14/13/36
f 4/7/37 3/8/38 16/15/39 15/14/40
f 3/8/41 11/5/42 13/16/43 16/15/44
f 1/4/45 2/3/46 17/18/47 18/17/48
f 2/3/49 12/6/50 14/13/51 17/18/52
f 11/5/53 1/4/54 18/17/55 13/16/56
f 6/19/57 5/20/58 19/21/59 20/22/60
f 8/23/61 7/24/62 21/25/63 22/26/64
f 9/27/65 6/19/66 20/22/67 23/28/68
f 10/29/69 8/23/70 22/26/71 24/30/72
f 7/24/73 9/27/74 23/28/75 21/25/76
f 5/20/77 10/29/78 24/30/79 19/21/80
f 20/22/81 19/21/82 25/31/83 26/32/84
f 22/26/85 21/25/86 27/33/87 28/34/88
f 23/28/89 20/22/90 26/32/91 29/35/92
f 24/30/93 22/26/94 28/34/95 30/36/96
f 21/25/97 23/28/98 29/35/99 27/33/100
f 19/21/101 24/30/102 30/36/103 25/31/104
f 26/32/105 25/31/106 31/37/107 32/38/108
f 28/34/109 27/33/110 33/39/111 34/40/112
f 29/35/113 26/32/114 32/38/115 35/41/116
f 30/36/117 28/34/118 34/40/119 36/42/120
f 27/33/121 29/35/122 35/41/123 33/39/124
f 25/31/125 30/36/126 36/42/127 31/37/128
f 32/38/129 31/37/130 37/43/131 38/44/132
f 34/40/133 33/39/134 39/45/135 40/46/136
f 35/41/137 32/38/138 38/44/139 41/47/140
f 36/42/141 34/40/142 40/46/143 42/48/144
f 33/39/145 35/41/146 41/47/147 39/45/148
f 31/37/149 36/42/150 42/48/151 37/43/152
f 38/49/153 37/50/154 45/57/155 46/58/156
f 40/51/157 39/52/158 48/60/159 43/55/160
f 41/53/161 38/49/162 46/58/163 47/59/164
f 39/52/165 41/53/166 47/59/167 48/60/168
f 44/56/169 45/57/170 37/50/171 42/54/172
f 42/54/173 40/51/174 43/55/175 44/56/176
f 44/61/177 43/62/178 49/63/179 50/64/180
f 45/65/181 44/61/182 50/64/183 51/66/184
f 46/67/185 45/65/186 51/66/187 52/68/188
f 47/69/189 46/67/190 52/68/191 53/70/192
f 48/71/193 47/69/194 53/70/195 54/72/196
f 43/62/197 48/71/198 54/72/199 49/63/200
f 50/64/201 49/63/202 55/73/203
f 51/66/204 50/64/205 55/73/206
f 52/68/207 51/66/208 55/73/209
f 53/70/210 52/68/211 55/73/212
f 54/72/213 53/70/214 55/73/215
f 49/63/216 54/72/217 55/73/218
