# This file uses centimeters as units for non-parametric coordinates.

v 6.703323 0.000000 -6.703426
v 0.000004 0.000000 -9.479919
v -6.703320 0.000000 -6.703426
v -9.479935 0.000000 -0.000061
v -6.703320 0.000000 6.703278
v 0.000004 0.000000 9.479858
v 6.703323 0.000000 6.703278
v 9.479942 0.000000 -0.000061
v 7.326866 5.264435 -7.327026
v 0.000004 5.264435 -10.361816
v -7.326851 5.264435 -7.327026
v -10.361755 5.264435 -0.000061
v -7.326851 5.264435 7.326782
v 0.000004 5.264435 10.361664
v 7.326866 5.264435 7.326782
v 10.361778 5.264435 -0.000061
v 3.058922 0.000000 -3.059021
v 0.000004 0.000000 -4.326050
v -3.058907 0.000000 -3.059021
v -4.325947 0.000000 -0.000061
v -3.058907 0.000000 3.058777
v 0.000004 0.000000 4.325836
v 3.058922 0.000000 3.058777
v 4.325989 0.000000 -0.000061
v 3.058922 6.029846 -3.059021
v 0.000004 6.029846 -4.326050
v -3.058907 6.029846 -3.059021
v -4.325947 6.029846 -0.000061
v -3.058907 6.029846 3.058777
v 0.000004 6.029846 4.325836
v 3.058922 6.029846 3.058777
v 4.325989 6.029846 -0.000061
v 2.314095 3.014922 -2.314209
v 0.000004 3.014922 -3.272644
v -2.314072 3.014922 -2.314209
v -3.272596 3.014922 -0.000061
v -2.314072 3.014922 2.313965
v 0.000004 3.014922 3.272552
v 2.314095 3.014922 2.313965
v 3.272612 3.014922 -0.000061
v 7.703674 2.611357 -7.703735
v 0.000004 2.611357 -10.894653
v -7.703663 2.611357 -7.703735
v -10.894638 2.611357 -0.000061
v -7.703663 2.611357 7.703583
v 0.000004 2.611357 10.894531
v 7.703674 2.611357 7.703583
v 10.894646 2.611357 -0.000061
v 5.194710 6.799492 -5.194763
v 0.000004 6.799492 -7.346436
v -5.194695 6.799492 -5.194763
v -7.346420 6.799492 -0.000061
v -5.194695 6.799492 5.194550
v 0.000004 6.799492 7.346344
v 5.194710 6.799492 5.194550
v 7.346443 6.799492 -0.000061
vt 0.048062 0.374534
vt 0.048373 0.374326
vt 0.047677 0.326764
vt 0.047927 0.326646
vt 0.048744 0.374375
vt 0.047950 0.326562
vt 0.048983 0.374660
vt 0.047731 0.326658
vt 0.048942 0.375039
vt 0.048256 0.326627
vt 0.048619 0.375285
vt 0.048243 0.326546
vt 0.048209 0.375224
vt 0.048545 0.326709
vt 0.047983 0.374902
vt 0.048498 0.326613
vt 0.048396 0.374438
vt 0.048139 0.374612
vt 0.048274 0.374690
vt 0.048432 0.374581
vt 0.048703 0.374480
vt 0.048623 0.374607
vt 0.048898 0.374717
vt 0.048742 0.374755
vt 0.048862 0.375029
vt 0.048717 0.374945
vt 0.048598 0.375228
vt 0.048556 0.375063
vt 0.048264 0.375179
vt 0.048355 0.375034
vt 0.048078 0.374916
vt 0.048240 0.374877
vt 0.048658 0.326877
vt 0.048590 0.326747
vt 0.048447 0.327056
vt 0.048402 0.326885
vt 0.047984 0.327094
vt 0.048006 0.326914
vt 0.047658 0.326951
vt 0.047723 0.326804
vt 0.048317 0.374680
vt 0.048442 0.374594
vt 0.048593 0.374615
vt 0.048686 0.374732
vt 0.048666 0.374881
vt 0.048539 0.374973
vt 0.048382 0.374950
vt 0.048290 0.374828
vt 0.048019 0.326612
vt 0.047888 0.326674
vt 0.048208 0.326601
vt 0.048368 0.326645
vt 0.048413 0.326728
vt 0.048292 0.326806
vt 0.048065 0.326822
vt 0.047895 0.326762
vt 0.048051 0.326744
vt 0.047954 0.326796
vt 0.048193 0.326734
vt 0.048312 0.326772
vt 0.048342 0.326841
vt 0.048252 0.326902
vt 0.048089 0.326914
vt 0.047964 0.326867
vt 0.067839 0.355284
vt 0.068072 0.355187
vt 0.068088 0.355316
vt 0.067950 0.355376
vt 0.068323 0.355239
vt 0.068238 0.355348
vt 0.068474 0.355421
vt 0.068323 0.355459
vt 0.068421 0.355653
vt 0.068287 0.355591
vt 0.068162 0.355786
vt 0.068140 0.355663
vt 0.067867 0.355712
vt 0.067975 0.355624
vt 0.067743 0.355494
vt 0.067899 0.355501
vt 0.067746 0.355265
vt 0.068058 0.355138
vt 0.068393 0.355206
vt 0.068604 0.355451
vt 0.068545 0.355779
vt 0.068183 0.355975
vt 0.067766 0.355866
vt 0.067604 0.355553
vn 0.376254 0.182427 -0.908379
vn 0.376254 0.182427 -0.908379
vn 0.376254 0.182427 -0.908379
vn 0.376254 0.182427 -0.908379
vn -0.376255 0.182428 -0.908379
vn -0.376255 0.182428 -0.908379
vn -0.376255 0.182428 -0.908379
vn -0.376255 0.182428 -0.908379
vn -0.908374 0.182445 -0.376260
vn -0.908373 0.182445 -0.376260
vn -0.908373 0.182445 -0.376260
vn -0.908373 0.182445 -0.376260
vn -0.908371 0.182452 0.376263
vn -0.908371 0.182452 0.376262
vn -0.908371 0.182452 0.376263
vn -0.908371 0.182452 0.376262
vn -0.376259 0.182448 0.908373
vn -0.376259 0.182448 0.908373
vn -0.376259 0.182448 0.908373
vn -0.376259 0.182448 0.908373
vn 0.376259 0.182448 0.908373
vn 0.376259 0.182448 0.908373
vn 0.376259 0.182448 0.908373
vn 0.376259 0.182448 0.908373
vn 0.908372 0.182448 0.376263
vn 0.908372 0.182448 0.376263
vn 0.908372 0.182448 0.376263
vn 0.908372 0.182448 0.376263
vn 0.908374 0.182442 -0.376260
vn 0.908374 0.182442 -0.376260
vn 0.908374 0.182442 -0.376260
vn 0.908374 0.182442 -0.376260
vn 0.000000 -1.000000 0.000000
vn 0.000000 -1.000000 0.000000
vn 0.000000 -1.000000 0.000000
vn 0.000000 -1.000000 0.000000
vn 0.000000 -1.000000 0.000000
vn 0.000000 -1.000000 0.000000
vn 0.000000 -1.000000 0.000000
vn 0.000000 -1.000000 0.000000
vn 0.000000 -1.000000 0.000000
vn 0.000000 -1.000000 0.000000
vn 0.000000 -1.000000 0.000000
vn 0.000000 -1.000000 0.000000
vn 0.000000 -1.000000 0.000000
vn 0.000000 -1.000000 0.000000
vn 0.000000 -1.000000 0.000000
vn 0.000000 -1.000000 0.000000
vn 0.000000 -1.000000 0.000000
vn 0.000000 -1.000000 0.000000
vn 0.000000 -1.000000 0.000000
vn 0.000000 -1.000000 0.000000
vn 0.000000 -1.000000 0.000000
vn 0.000000 -1.000000 0.000000
vn 0.000000 -1.000000 0.000000
vn 0.000000 -1.000000 0.000000
vn 0.000000 -1.000000 0.000000
vn 0.000000 -1.000000 0.000000
vn 0.000000 -1.000000 0.000000
vn 0.000000 -1.000000 0.000000
vn 0.000000 -1.000000 0.000000
vn 0.000000 -1.000000 0.000000
vn 0.000000 -1.000000 0.000000
vn 0.000000 -1.000000 0.000000
vn -0.101747 0.964005 0.245645
vn -0.101747 0.964005 0.245644
vn -0.101747 0.964005 0.245644
vn -0.101747 0.964005 0.245644
vn 0.101748 0.964005 0.245644
vn 0.101748 0.964005 0.245644
vn 0.101748 0.964005 0.245644
vn 0.101748 0.964005 0.245644
vn 0.245640 0.964007 0.101747
vn 0.245640 0.964007 0.101747
vn 0.245640 0.964007 0.101747
vn 0.245640 0.964007 0.101747
vn 0.245638 0.964007 -0.101749
vn 0.245638 0.964007 -0.101749
vn 0.245638 0.964007 -0.101749
vn 0.245638 0.964007 -0.101749
vn 0.101749 0.964007 -0.245637
vn 0.101749 0.964007 -0.245637
vn 0.101749 0.964007 -0.245637
vn 0.101749 0.964007 -0.245637
vn -0.101749 0.964007 -0.245637
vn -0.101749 0.964007 -0.245637
vn -0.101749 0.964007 -0.245637
vn -0.101749 0.964007 -0.245637
vn -0.245639 0.964007 -0.101750
vn -0.245639 0.964007 -0.101750
vn -0.245639 0.964007 -0.101750
vn -0.245639 0.964007 -0.101750
vn -0.245640 0.964006 0.101748
vn -0.245640 0.964006 0.101748
vn -0.245640 0.964006 0.101748
vn -0.245640 0.964006 0.101748
vn -0.364166 -0.307183 0.879217
vn -0.364166 -0.307183 0.879217
vn -0.364166 -0.307183 0.879217
vn -0.364166 -0.307183 0.879217
vn 0.364167 -0.307183 0.879216
vn 0.364167 -0.307183 0.879216
vn 0.364167 -0.307183 0.879216
vn 0.364167 -0.307183 0.879216
vn 0.879215 -0.307178 0.364175
vn 0.879215 -0.307178 0.364175
vn 0.879215 -0.307178 0.364175
vn 0.879215 -0.307178 0.364175
vn 0.879209 -0.307178 -0.364189
vn 0.879209 -0.307178 -0.364189
vn 0.879209 -0.307178 -0.364189
vn 0.879209 -0.307178 -0.364189
vn 0.364194 -0.307167 -0.879210
vn 0.364194 -0.307167 -0.879210
vn 0.364194 -0.307167 -0.879210
vn 0.364194 -0.307167 -0.879210
vn -0.364193 -0.307167 -0.879211
vn -0.364193 -0.307167 -0.879211
vn -0.364193 -0.307167 -0.879211
vn -0.364193 -0.307167 -0.879211
vn -0.879207 -0.307180 -0.364191
vn -0.879207 -0.307180 -0.364191
vn -0.879207 -0.307180 -0.364191
vn -0.879207 -0.307180 -0.364191
vn -0.879213 -0.307180 0.364177
vn -0.879213 -0.307180 0.364177
vn -0.879213 -0.307180 0.364177
vn -0.879213 -0.307180 0.364177
vn -0.364166 0.307183 0.879217
vn -0.364166 0.307183 0.879217
vn -0.364166 0.307183 0.879217
vn -0.364166 0.307183 0.879217
vn 0.364167 0.307183 0.879216
vn 0.364167 0.307183 0.879216
vn 0.364167 0.307183 0.879216
vn 0.364167 0.307183 0.879216
vn 0.879215 0.307177 0.364175
vn 0.879215 0.307177 0.364175
vn 0.879215 0.307177 0.364175
vn 0.879215 0.307177 0.364175
vn 0.879209 0.307177 -0.364189
vn 0.879209 0.307177 -0.364189
vn 0.879209 0.307177 -0.364189
vn 0.879209 0.307177 -0.364189
vn 0.364195 0.307167 -0.879210
vn 0.364195 0.307167 -0.879210
vn 0.364195 0.307167 -0.879210
vn 0.364195 0.307167 -0.879210
vn -0.364193 0.307166 -0.879211
vn -0.364193 0.307166 -0.879211
vn -0.364193 0.307166 -0.879211
vn -0.364193 0.307166 -0.879211
vn -0.879207 0.307180 -0.364191
vn -0.879207 0.307180 -0.364191
vn -0.879207 0.307180 -0.364191
vn -0.879207 0.307180 -0.364191
vn -0.879213 0.307180 0.364177
vn -0.879213 0.307180 0.364177
vn -0.879213 0.307180 0.364177
vn -0.879213 0.307180 0.364177
vn 0.342205 -0.447579 -0.826177
vn 0.342205 -0.447579 -0.826177
vn 0.342205 -0.447579 -0.826177
vn 0.342205 -0.447579 -0.826177
vn -0.342205 -0.447579 -0.826177
vn -0.342205 -0.447579 -0.826177
vn -0.342205 -0.447579 -0.826177
vn -0.342205 -0.447579 -0.826177
vn -0.826175 -0.447578 -0.342213
vn -0.826175 -0.447578 -0.342213
vn -0.826175 -0.447578 -0.342213
vn -0.826175 -0.447578 -0.342213
vn -0.826174 -0.447577 0.342214
vn -0.826174 -0.447577 0.342214
vn -0.826174 -0.447577 0.342214
vn -0.826174 -0.447577 0.342214
vn -0.342212 -0.447571 0.826179
vn -0.342212 -0.447571 0.826179
vn -0.342212 -0.447571 0.826179
vn -0.342212 -0.447571 0.826179
vn 0.342212 -0.447571 0.826179
vn 0.342212 -0.447571 0.826179
vn 0.342212 -0.447571 0.826179
vn 0.342212 -0.447571 0.826179
vn 0.826174 -0.447578 0.342214
vn 0.826174 -0.447578 0.342214
vn 0.826174 -0.447578 0.342214
vn 0.826174 -0.447578 0.342214
vn 0.826174 -0.447578 -0.342213
vn 0.826174 -0.447578 -0.342213
vn 0.826174 -0.447579 -0.342213
vn 0.826174 -0.447578 -0.342213
vn 0.184679 0.875840 -0.445867
vn 0.184679 0.875840 -0.445867
vn 0.184679 0.875840 -0.445867
vn 0.184679 0.875840 -0.445867
vn -0.184679 0.875840 -0.445867
vn -0.184679 0.875840 -0.445867
vn -0.184679 0.875840 -0.445867
vn -0.184679 0.875840 -0.445867
vn -0.445872 0.875837 -0.184686
vn -0.445872 0.875837 -0.184686
vn -0.445872 0.875837 -0.184686
vn -0.445872 0.875837 -0.184686
vn -0.445871 0.875836 0.184689
vn -0.445871 0.875836 0.184689
vn -0.445871 0.875836 0.184689
vn -0.445871 0.875836 0.184689
vn -0.184688 0.875837 0.445869
vn -0.184688 0.875837 0.445869
vn -0.184688 0.875837 0.445869
vn -0.184688 0.875837 0.445869
vn 0.184688 0.875837 0.445870
vn 0.184688 0.875837 0.445869
vn 0.184688 0.875837 0.445870
vn 0.184688 0.875837 0.445870
vn 0.445871 0.875836 0.184689
vn 0.445871 0.875836 0.184689
vn 0.445871 0.875836 0.184689
vn 0.445871 0.875836 0.184689
vn 0.445871 0.875837 -0.184686
vn 0.445871 0.875837 -0.184686
vn 0.445871 0.875837 -0.184686
vn 0.445871 0.875837 -0.184686
s off
f 41/3/1 42/4/2 10/6/3 9/8/4
f 42/4/5 43/10/6 11/12/7 10/6/8
f 43/10/9 44/14/10 12/16/11 11/12/12
f 44/14/13 45/33/14 13/34/15 12/16/16
f 45/33/17 46/35/18 14/36/19 13/34/20
f 46/35/21 47/37/22 15/38/23 14/36/24
f 47/37/25 48/39/26 16/40/27 15/38/28
f 48/39/29 41/3/30 9/8/31 16/40/32
f 2/17/33 1/18/34 17/19/35 18/20/36
f 3/21/37 2/17/38 18/20/39 19/22/40
f 4/23/41 3/21/42 19/22/43 20/24/44
f 5/25/45 4/23/46 20/24/47 21/26/48
f 6/27/49 5/25/50 21/26/51 22/28/52
f 7/29/53 6/27/54 22/28/55 23/30/56
f 8/31/57 7/29/58 23/30/59 24/32/60
f 1/18/61 8/31/62 24/32/63 17/19/64
f 49/65/65 50/66/66 26/67/67 25/68/68
f 50/66/69 51/69/70 27/70/71 26/67/72
f 51/69/73 52/71/74 28/72/75 27/70/76
f 52/71/77 53/73/78 29/74/79 28/72/80
f 53/73/81 54/75/82 30/76/83 29/74/84
f 54/75/85 55/77/86 31/78/87 30/76/88
f 55/77/89 56/79/90 32/80/91 31/78/92
f 56/79/93 49/65/94 25/68/95 32/80/96
f 18/20/97 17/19/98 33/41/99 34/42/100
f 19/22/101 18/20/102 34/42/103 35/43/104
f 20/24/105 19/22/106 35/43/107 36/44/108
f 21/26/109 20/24/110 36/44/111 37/45/112
f 22/28/113 21/26/114 37/45/115 38/46/116
f 23/30/117 22/28/118 38/46/119 39/47/120
f 24/32/121 23/30/122 39/47/123 40/48/124
f 17/19/125 24/32/126 40/48/127 33/41/128
f 34/57/129 33/58/130 25/50/131 26/49/132
f 35/59/133 34/57/134 26/49/135 27/51/136
f 36/60/137 35/59/138 27/51/139 28/52/140
f 37/61/141 36/60/142 28/52/143 29/53/144
f 38/62/145 37/61/146 29/53/147 30/54/148
f 39/63/149 38/62/150 30/54/151 31/55/152
f 40/64/153 39/63/154 31/55/155 32/56/156
f 33/58/157 40/64/158 32/56/159 25/50/160
f 1/18/161 2/17/162 42/2/163 41/1/164
f 2/17/165 3/21/166 43/5/167 42/2/168
f 3/21/169 4/23/170 44/7/171 43/5/172
f 4/23/173 5/25/174 45/9/175 44/7/176
f 5/25/177 6/27/178 46/11/179 45/9/180
f 6/27/181 7/29/182 47/13/183 46/11/184
f 7/29/185 8/31/186 48/15/187 47/13/188
f 8/31/189 1/18/190 41/1/191 48/15/192
f 9/81/193 10/82/194 50/66/195 49/65/196
f 10/82/197 11/83/198 51/69/199 50/66/200
f 11/83/201 12/84/202 52/71/203 51/69/204
f 12/84/205 13/85/206 53/73/207 52/71/208
f 13/85/209 14/86/210 54/75/211 53/73/212
f 14/86/213 15/87/214 55/77/215 54/75/216
f 15/87/217 16/88/218 56/79/219 55/77/220
f 16/88/221 9/81/222 49/65/223 56/79/224
