# This file uses centimeters as units for non-parametric coordinates.

v -37.136108 -41.696278 5.168884
v 37.425171 -41.949886 2.772034
v -37.425171 9.523613 2.772034
v 37.425171 9.523613 2.772034
v 6.441162 -41.949886 2.772034
v -37.425049 -25.373219 2.772034
v -39.095581 11.193996 2.772095
v 39.095581 11.193996 2.772034
v 39.354004 11.452408 0.000000
v -39.354004 11.452431 0.000061
v 39.354004 -43.878681 0.000015
v 5.661377 -44.436489 -0.248489
v -39.859009 -25.804462 -0.292343
v -39.832520 -44.318798 2.946106
v 6.462158 -44.046795 3.020386
v -38.750122 -43.277042 5.693634
v 39.095581 -43.620274 2.772034
v -39.449463 -25.311275 3.048492
vt 0.306013 0.108835
vt 0.402916 0.108835
vt 0.402916 0.163469
vt 0.306013 0.163469
vt 0.080472 0.279044
vt 0.080028 0.279142
vt 0.080009 0.279132
vt 0.080455 0.279037
vt 0.362803 0.108835
vt 0.080015 0.279627
vt 0.306013 0.126429
vt 0.080212 0.279541
vt 0.080436 0.279314
vt 0.080448 0.279453
vt 0.080227 0.279562
vt 0.080461 0.279457
vt 0.080032 0.279637
vt 0.080461 0.279318
vt 0.080463 0.279059
vt 0.080040 0.279155
vt 0.080226 0.279536
vt 0.080451 0.279447
vt 0.080043 0.279619
vt 0.080445 0.279323
vn 0.064701 0.154474 0.985876
vn 0.001506 0.004890 0.999987
vn 0.005392 0.009683 0.999939
vn 0.000000 0.995683 0.092823
vn 0.000000 0.995683 0.092823
vn 0.000000 0.995683 0.092823
vn 0.000000 0.995683 0.092823
vn 0.002614 0.004122 -0.999988
vn 0.002614 0.004122 -0.999988
vn 0.002614 0.004122 -0.999988
vn 0.002614 0.004122 -0.999988
vn 0.002614 0.004122 -0.999988
vn 0.005349 -0.973205 0.229875
vn 0.005349 -0.973205 0.229875
vn 0.005349 -0.973206 0.229875
vn 0.005349 -0.973206 0.229875
vn 0.995683 0.000000 0.092823
vn 0.995683 0.000000 0.092823
vn 0.995683 0.000000 0.092823
vn 0.995683 0.000000 0.092823
vn -0.972159 0.018334 0.233604
vn -0.972159 0.018334 0.233604
vn -0.972159 0.018334 0.233604
vn -0.972159 0.018334 0.233604
vn 0.005392 0.009683 0.999939
vn 0.001506 0.004890 0.999987
vn 0.000084 0.001638 0.999999
vn 0.000000 -0.000001 1.000000
vn 0.002006 0.000091 0.999998
vn -0.069447 -0.171980 -0.982650
vn -0.069447 -0.171980 -0.982649
vn -0.069447 -0.171980 -0.982650
vn 0.014756 -0.994326 0.105352
vn 0.014756 -0.994326 0.105352
vn 0.014756 -0.994326 0.105352
vn 0.014756 -0.994326 0.105352
vn -0.994064 0.011551 0.108180
vn -0.994064 0.011551 0.108180
vn -0.994064 0.011551 0.108180
vn -0.994064 0.011551 0.108180
vn 0.002006 0.000091 0.999998
vn 0.000000 -0.000001 1.000000
vn 0.000000 -0.000011 1.000000
vn 0.026274 0.001188 0.999654
vn 0.001506 0.004890 0.999987
vn 0.064701 0.154474 0.985876
vn 0.085310 0.171949 0.981405
vn 0.035167 0.133473 0.990428
vn 0.000000 -0.000001 1.000000
vn 0.000084 0.001638 0.999999
vn 0.001407 0.027496 0.999621
vn 0.000000 -0.000011 1.000000
vn 0.064701 0.154474 0.985876
vn 0.005392 0.009683 0.999939
vn 0.101069 0.049622 0.993641
vn 0.085310 0.171949 0.981405
vn 0.000084 0.001638 0.999999
vn 0.001506 0.004890 0.999987
vn 0.035167 0.133473 0.990428
vn 0.001407 0.027496 0.999621
vn 0.005392 0.009683 0.999939
vn 0.002006 0.000091 0.999998
vn 0.026274 0.001188 0.999654
vn 0.101069 0.049622 0.993641
s off
f 1/1/1 5/9/2 6/11/3
f 7/5/4 8/6/5 9/7/6 10/8/7
f 10/8/8 9/7/9 11/10/10 12/12/11 13/13/12
f 14/14/13 12/12/14 15/15/15 16/16/16
f 17/17/17 11/10/18 9/7/19 8/6/20
f 14/14/21 16/16/22 18/18/23 13/13/24
f 6/11/25 5/9/26 2/2/27 4/3/28 3/4/29
f 13/13/30 12/12/31 14/14/32
f 15/15/33 12/12/34 11/10/35 17/17/36
f 13/13/37 18/18/38 7/5/39 10/8/40
f 3/19/41 4/20/42 8/6/43 7/5/44
f 5/21/45 1/22/46 16/16/47 15/15/48
f 4/20/49 2/23/50 17/17/51 8/6/52
f 1/22/53 6/24/54 18/18/55 16/16/56
f 2/23/57 5/21/58 15/15/59 17/17/60
f 6/24/61 3/19/62 7/5/63 18/18/64
