# This file uses centimeters as units for non-parametric coordinates.

v -8.812626 0.000000 2.666842
v 6.114037 0.000000 2.666842
v -6.114037 3.802094 2.666842
v 8.812626 3.802094 2.666842
v -6.114037 3.802094 -2.666842
v 8.812626 3.802094 -2.666842
v -8.812626 0.000000 -2.666842
v 6.114037 0.000000 -2.666842
v 0.000000 0.000000 2.666842
v 0.000000 0.000000 -2.666842
v 0.000000 3.802094 -2.666842
v 0.000000 3.802094 2.666842
vt 0.400902 0.402277
vt 0.404751 0.466512
vt 0.400915 0.402851
vt 0.404747 0.466927
vt 0.400941 0.402434
vt 0.403808 0.466903
vt 0.400926 0.401866
vt 0.403782 0.466488
vt 0.400306 0.402263
vt 0.404774 0.465949
vt 0.403860 0.465927
vt 0.404769 0.466358
vt 0.400284 0.402835
vt 0.400311 0.401851
vt 0.403883 0.466336
vt 0.400288 0.402417
vn 0.000000 0.000000 1.000000
vn 0.000000 0.000000 1.000000
vn 0.000000 0.000000 1.000000
vn 0.000000 0.000000 1.000000
vn 0.000000 1.000000 0.000000
vn 0.000000 1.000000 0.000000
vn 0.000000 1.000000 0.000000
vn 0.000000 1.000000 0.000000
vn 0.000000 0.000000 -1.000000
vn 0.000000 0.000000 -1.000000
vn 0.000000 0.000000 -1.000000
vn 0.000000 0.000000 -1.000000
vn 0.000000 -1.000000 0.000000
vn 0.000000 -1.000000 0.000000
vn 0.000000 -1.000000 0.000000
vn 0.000000 -1.000000 0.000000
vn 0.815474 -0.578794 0.000000
vn 0.815474 -0.578794 0.000000
vn 0.815474 -0.578794 0.000000
vn 0.815474 -0.578794 0.000000
vn -0.815474 0.578794 0.000000
vn -0.815474 0.578794 0.000000
vn -0.815474 0.578794 0.000000
vn -0.815474 0.578794 0.000000
vn 0.000000 -1.000000 0.000000
vn 0.000000 -1.000000 0.000000
vn 0.000000 -1.000000 0.000000
vn 0.000000 -1.000000 0.000000
vn 0.000000 0.000000 -1.000000
vn 0.000000 0.000000 -1.000000
vn 0.000000 0.000000 -1.000000
vn 0.000000 0.000000 -1.000000
vn 0.000000 1.000000 0.000000
vn 0.000000 1.000000 0.000000
vn 0.000000 1.000000 0.000000
vn 0.000000 1.000000 0.000000
vn 0.000000 0.000000 1.000000
vn 0.000000 0.000000 1.000000
vn 0.000000 0.000000 1.000000
vn 0.000000 0.000000 1.000000
s off
f 12/2/1 9/4/2 2/6/3 4/8/4
f 11/10/5 12/2/6 4/8/7 6/11/8
f 10/12/9 11/10/10 6/11/11 8/15/12
f 9/4/13 10/12/14 8/15/15 2/6/16
f 2/6/17 8/15/18 6/11/19 4/8/20
f 7/1/21 1/3/22 3/5/23 5/7/24
f 7/1/25 10/9/26 9/13/27 1/3/28
f 5/7/29 11/14/30 10/9/31 7/1/32
f 3/5/33 12/16/34 11/14/35 5/7/36
f 1/3/37 9/13/38 12/16/39 3/5/40
