# This file uses centimeters as units for non-parametric coordinates.

v -92.831932 -49.334579 42.831936
v -7.168067 -49.334579 42.831936
v -81.300011 -28.096817 31.300009
v -18.699993 -28.096817 31.300009
v -81.300011 -28.096817 -31.300003
v -18.699993 -28.096817 -31.300003
v -92.831932 -49.334579 -42.831928
v -7.168067 -49.334579 -42.831928
v -87.247025 -49.334579 -37.247021
v -12.752974 -49.334579 -37.247021
v -12.752974 -49.334579 37.247028
v -87.247025 -49.334579 37.247028
v -81.053429 -47.532444 -31.053427
v -81.053429 -47.532444 31.053434
v -18.946568 -47.532444 -31.053427
v -18.946568 -47.532444 31.053434
v -83.783997 -50.578754 -33.783997
v -83.783997 -50.578754 33.784004
v -16.216000 -50.578754 -33.783997
v -16.216000 -50.578754 33.784004
v -79.849205 -50.578754 -29.849201
v -79.849205 -50.578754 29.849209
v -20.150793 -50.578754 -29.849201
v -20.150793 -50.578754 29.849209
v -74.515518 -48.255947 -24.515512
v -74.515518 -48.255947 24.515520
v -25.484484 -48.255947 -24.515512
v -25.484484 -48.255947 24.515520
v -76.304565 -51.705452 -26.304564
v -76.304565 -51.705452 26.304571
v -23.695431 -51.705452 -26.304564
v -23.695431 -51.705452 26.304571
v -72.540680 -51.705452 -22.540680
v -72.540680 -51.705452 22.540688
v -27.459318 -51.705452 -22.540680
v -27.459318 -51.705452 22.540688
v -68.311867 -49.760284 -18.311863
v -68.311867 -49.760284 18.311871
v -31.688129 -49.760284 -18.311863
v -31.688129 -49.760284 18.311871
v -70.147385 -52.950848 -20.147381
v -70.147385 -52.950848 20.147388
v -29.852615 -52.950848 -20.147381
v -29.852615 -52.950848 20.147388
v -92.831932 -45.010227 42.831932
v -7.168067 -45.010227 42.831932
v -7.168067 -45.010250 -42.831928
v -92.831932 -45.010250 -42.831928
v -81.300011 -40.048309 -31.300003
v -18.699993 -40.048309 -31.300003
v -18.699993 -40.048302 31.300011
v -81.300011 -40.048302 31.300011
v 0.000000 28.096958 37.646679
v 0.000000 -28.096817 37.646675
v 0.000000 -28.096817 -37.646675
v 0.000000 28.096962 -37.646675
v -100.000000 -28.096817 37.646675
v -100.000000 -28.096817 -37.646675
v -100.000000 28.096962 -37.646675
v -100.000000 28.096958 37.646679
v -50.000000 34.236351 0.000004
v -50.000000 -0.000011 44.878296
v -50.000000 -0.000008 -44.878296
v 5.000000 31.207066 -41.044079
v -5.000000 31.207066 -41.044079
v 5.000000 31.207066 41.044079
v -5.000000 31.207066 41.044079
v 5.000000 -31.207066 41.044079
v -5.000000 -31.207066 41.044079
v 5.000000 -31.207066 -41.044079
v -5.000000 -31.207066 -41.044079
v 3.572540 37.304699 -54.678043
v -3.572540 37.304699 -54.678043
v 3.572540 37.304695 54.678047
v -3.572540 37.304695 54.678047
v 3.572540 30.648079 61.141212
v -3.572540 30.648079 61.141212
v 3.572540 30.648079 -61.141212
v -3.572540 30.648079 -61.141212
v 3.572540 58.801960 54.678043
v -3.572540 58.801960 54.678043
v -3.572540 58.801960 61.141216
v 3.572540 58.801960 61.141216
v 3.572540 58.801960 -54.678043
v -3.572540 58.801960 -54.678043
v 3.572540 58.801964 -61.141212
v -3.572540 58.801964 -61.141212
v 7.978668 58.801960 50.692417
v -7.978668 58.801960 50.692417
v -7.978668 58.801960 65.126831
v 7.978668 58.801960 65.126831
v 7.978668 58.801960 -50.692417
v -7.978668 58.801960 -50.692417
v 7.978668 58.801964 -65.126831
v -7.978668 58.801964 -65.126831
v 7.978668 67.164200 50.692421
v -7.978668 67.164200 50.692421
v -7.978668 67.164200 65.126831
v 7.978668 67.164200 65.126831
v 7.978668 67.164200 -50.692417
v -7.978668 67.164200 -50.692417
v 7.978668 67.164200 -65.126831
v -7.978668 67.164200 -65.126831
vt 0.090385 0.281767
vt 0.090561 0.282175
vt 0.090577 0.281772
vt 0.090413 0.281315
vt 0.091366 0.281728
vt 0.091338 0.281254
vt 0.091385 0.282136
vt 0.091360 0.281713
vt 0.091262 0.282091
vt 0.091228 0.281789
vt 0.090656 0.282120
vt 0.090545 0.281826
vt 0.076752 0.281826
vt 0.077435 0.281789
vt 0.077469 0.282091
vt 0.076863 0.282120
vt 0.090545 0.281826
vt 0.091228 0.281789
vt 0.091262 0.282091
vt 0.090656 0.282120
vt 0.090545 0.281826
vt 0.091228 0.281789
vt 0.091262 0.282091
vt 0.090656 0.282120
vt 0.076752 0.281826
vt 0.077435 0.281789
vt 0.077469 0.282091
vt 0.076863 0.282120
vt 0.090545 0.281826
vt 0.091228 0.281789
vt 0.091262 0.282091
vt 0.090656 0.282120
vt 0.090545 0.281826
vt 0.091228 0.281789
vt 0.091262 0.282091
vt 0.090656 0.282120
vt 0.076752 0.281826
vt 0.077435 0.281789
vt 0.077469 0.282091
vt 0.076863 0.282120
vt 0.090545 0.281826
vt 0.091228 0.281789
vt 0.091262 0.282091
vt 0.090656 0.282120
vt 0.090387 0.281733
vt 0.090562 0.282145
vt 0.091384 0.282105
vt 0.091358 0.281678
vt 0.091349 0.281494
vt 0.091376 0.281942
vt 0.090568 0.281983
vt 0.090398 0.281552
vt 0.090981 0.282274
vt 0.090981 0.282274
vt 0.090981 0.282274
vt 0.090981 0.282274
vt 0.090981 0.282274
vt 0.090981 0.282274
vt 0.090981 0.282274
vt 0.090981 0.282274
vt 0.090981 0.282274
vt 0.090981 0.282274
vt 0.090981 0.282274
vt 0.090981 0.282274
vt 0.090981 0.282274
vt 0.090981 0.282274
vt 0.090981 0.282274
vt 0.090981 0.282274
vt 0.090981 0.282274
vt 0.090981 0.282274
vt 0.090981 0.282274
vt 0.090981 0.282274
vt 0.090981 0.282274
vt 0.090981 0.282274
vt 0.090981 0.282274
vt 0.090981 0.282274
vt 0.090981 0.282274
vt 0.090981 0.282274
vt 0.090981 0.282274
vt 0.090981 0.282274
vt 0.090981 0.282274
vt 0.090981 0.282274
vt 0.090981 0.282274
vt 0.090981 0.282274
vt 0.090981 0.282274
vt 0.090981 0.282274
vt 0.090981 0.282274
vt 0.090981 0.282274
vt 0.090981 0.282274
vt 0.090981 0.282274
vt 0.090981 0.282274
vt 0.090981 0.282274
vt 0.090981 0.282274
vt 0.090981 0.282274
vt 0.090981 0.282274
vt 0.090998 0.227318
vt 0.090998 0.227318
vt 0.090998 0.227318
vt 0.090998 0.227318
vt 0.090998 0.227318
vt 0.090998 0.227318
vt 0.090998 0.227318
vt 0.090998 0.227318
vt 0.090998 0.227318
vt 0.090998 0.227318
vt 0.090998 0.227318
vt 0.090998 0.227318
vt 0.090998 0.227318
vt 0.090998 0.227318
vt 0.090998 0.227318
vt 0.090998 0.227318
vt 0.090998 0.227318
vt 0.090998 0.227318
vt 0.090998 0.227318
vt 0.090998 0.227318
vt 0.090998 0.227318
vt 0.090998 0.227318
vt 0.090998 0.227318
vt 0.090998 0.227318
vt 0.090998 0.227318
vt 0.090998 0.227318
vt 0.090998 0.227318
vt 0.090998 0.227318
vt 0.090998 0.227318
vt 0.090998 0.227318
vt 0.090998 0.227318
vt 0.090998 0.227318
vt 0.090998 0.227318
vt 0.090998 0.227318
vt 0.090998 0.227318
vt 0.090998 0.227318
vt 0.090998 0.227318
vt 0.090998 0.227318
vt 0.090981 0.282274
vt 0.090981 0.282274
vt 0.090981 0.282274
vt 0.090981 0.282274
vt 0.090981 0.282274
vt 0.090981 0.282274
vt 0.090981 0.282274
vt 0.090981 0.282274
vt 0.090981 0.282274
vt 0.090981 0.282274
vt 0.090981 0.282274
vt 0.090981 0.282274
vt 0.090981 0.282274
vt 0.090981 0.282274
vt 0.090981 0.282274
vt 0.090981 0.282274
vn 0.000000 -1.000000 0.000001
vn 0.000000 -1.000000 0.000001
vn 0.000000 -1.000000 0.000001
vn 0.000000 -1.000000 0.000001
vn 0.000000 -1.000000 0.000000
vn 0.000000 -1.000000 0.000000
vn 0.000000 -1.000000 0.000000
vn 0.000000 -1.000000 0.000000
vn 0.000000 -1.000000 -0.000001
vn 0.000000 -1.000000 -0.000001
vn 0.000000 -1.000000 -0.000001
vn 0.000000 -1.000000 -0.000001
vn 0.000000 -1.000000 0.000000
vn 0.000000 -1.000000 0.000000
vn 0.000000 -1.000000 0.000000
vn 0.000000 -1.000000 0.000000
vn 0.000000 -1.000000 0.000000
vn 0.000000 -1.000000 0.000000
vn 0.000000 -1.000000 0.000000
vn 0.000000 -1.000000 0.000000
vn 0.279381 -0.960180 0.000000
vn 0.279381 -0.960180 0.000000
vn 0.279381 -0.960180 0.000000
vn 0.279381 -0.960180 0.000000
vn 0.000000 -0.960180 0.279381
vn 0.000000 -0.960180 0.279381
vn 0.000000 -0.960180 0.279381
vn 0.000000 -0.960180 0.279381
vn -0.279381 -0.960180 0.000000
vn -0.279381 -0.960180 0.000000
vn -0.279381 -0.960180 0.000000
vn -0.279381 -0.960180 0.000000
vn 0.000000 -0.960180 -0.279381
vn 0.000000 -0.960180 -0.279381
vn 0.000000 -0.960180 -0.279381
vn 0.000000 -0.960180 -0.279381
vn -0.744644 0.667462 0.000000
vn -0.744644 0.667462 0.000000
vn -0.744644 0.667462 0.000000
vn -0.744644 0.667462 0.000000
vn 0.000000 0.667463 -0.744643
vn 0.000000 0.667463 -0.744643
vn 0.000000 0.667463 -0.744643
vn 0.000000 0.667463 -0.744643
vn 0.744643 0.667463 0.000000
vn 0.744643 0.667463 0.000000
vn 0.744643 0.667463 0.000000
vn 0.744643 0.667463 0.000000
vn 0.000000 0.667463 0.744643
vn 0.000000 0.667463 0.744643
vn 0.000000 0.667463 0.744643
vn 0.000000 0.667463 0.744643
vn 0.000000 -1.000000 0.000000
vn 0.000000 -1.000000 0.000000
vn 0.000000 -1.000000 0.000000
vn 0.000000 -1.000000 0.000000
vn 0.000000 -1.000000 -0.000000
vn 0.000000 -1.000000 -0.000000
vn 0.000000 -1.000000 -0.000000
vn 0.000000 -1.000000 -0.000000
vn 0.000000 -1.000000 0.000000
vn 0.000000 -1.000000 0.000000
vn 0.000000 -1.000000 0.000000
vn 0.000000 -1.000000 0.000000
vn 0.000000 -1.000000 0.000000
vn 0.000000 -1.000000 0.000000
vn 0.000000 -1.000000 0.000000
vn 0.000000 -1.000000 0.000000
vn 0.399277 -0.916830 0.000000
vn 0.399277 -0.916830 0.000000
vn 0.399277 -0.916830 0.000000
vn 0.399277 -0.916830 0.000000
vn 0.000000 -0.916831 0.399277
vn 0.000000 -0.916831 0.399277
vn 0.000000 -0.916831 0.399277
vn 0.000000 -0.916831 0.399277
vn -0.399277 -0.916830 0.000000
vn -0.399277 -0.916830 0.000000
vn -0.399277 -0.916830 0.000000
vn -0.399277 -0.916830 0.000000
vn 0.000000 -0.916830 -0.399277
vn 0.000000 -0.916830 -0.399277
vn 0.000000 -0.916830 -0.399277
vn 0.000000 -0.916830 -0.399277
vn -0.887711 0.460402 0.000000
vn -0.887711 0.460402 0.000000
vn -0.887711 0.460402 0.000000
vn -0.887711 0.460402 0.000000
vn 0.000000 0.460402 -0.887710
vn 0.000000 0.460402 -0.887710
vn 0.000000 0.460402 -0.887710
vn 0.000000 0.460402 -0.887710
vn 0.887710 0.460402 0.000000
vn 0.887710 0.460402 0.000000
vn 0.887710 0.460402 0.000000
vn 0.887710 0.460402 0.000000
vn 0.000000 0.460402 0.887711
vn 0.000000 0.460402 0.887711
vn 0.000000 0.460402 0.887711
vn 0.000000 0.460402 0.887711
vn 0.000000 -1.000000 0.000000
vn 0.000000 -1.000000 0.000000
vn 0.000000 -1.000000 0.000000
vn 0.000000 -1.000000 0.000000
vn 0.000000 -1.000000 0.000001
vn 0.000000 -1.000000 0.000001
vn 0.000000 -1.000000 0.000001
vn 0.000000 -1.000000 0.000001
vn 0.000000 -1.000000 0.000000
vn 0.000000 -1.000000 0.000000
vn 0.000000 -1.000000 0.000000
vn 0.000000 -1.000000 0.000000
vn 0.000000 -1.000000 -0.000001
vn 0.000000 -1.000000 -0.000001
vn 0.000000 -1.000000 -0.000001
vn 0.000000 -1.000000 -0.000001
vn 0.417890 -0.908498 0.000000
vn 0.417890 -0.908498 0.000000
vn 0.417890 -0.908498 0.000000
vn 0.417890 -0.908498 0.000000
vn 0.000000 -0.908498 0.417890
vn 0.000000 -0.908498 0.417890
vn 0.000000 -0.908498 0.417890
vn 0.000000 -0.908498 0.417890
vn -0.417890 -0.908498 0.000000
vn -0.417890 -0.908498 0.000000
vn -0.417890 -0.908498 0.000000
vn -0.417890 -0.908498 0.000000
vn 0.000000 -0.908498 -0.417890
vn 0.000000 -0.908498 -0.417890
vn 0.000000 -0.908498 -0.417890
vn 0.000000 -0.908498 -0.417890
vn -0.866796 0.498664 0.000000
vn -0.866796 0.498664 0.000000
vn -0.866796 0.498664 0.000000
vn -0.866796 0.498664 0.000000
vn 0.000000 0.498664 -0.866795
vn 0.000000 0.498664 -0.866795
vn 0.000000 0.498664 -0.866795
vn 0.000000 0.498664 -0.866795
vn 0.866796 0.498663 0.000000
vn 0.866796 0.498663 0.000000
vn 0.866796 0.498663 0.000000
vn 0.866796 0.498663 0.000000
vn 0.000000 0.498664 0.866795
vn 0.000000 0.498664 0.866795
vn 0.000000 0.498664 0.866795
vn 0.000000 0.498664 0.866795
vn 0.000000 0.918577 0.395243
vn 0.000000 0.918577 0.395243
vn 0.000000 0.918577 0.395243
vn 0.000000 0.918577 0.395243
vn -0.395243 0.918577 -0.000000
vn -0.395243 0.918577 -0.000000
vn -0.395243 0.918577 -0.000000
vn -0.395243 0.918577 -0.000000
vn 0.395243 0.918577 -0.000000
vn 0.395243 0.918577 -0.000000
vn 0.395243 0.918577 -0.000000
vn 0.395243 0.918577 -0.000000
vn 0.000000 0.918576 -0.395244
vn 0.000000 0.918576 -0.395244
vn 0.000000 0.918576 -0.395244
vn 0.000000 0.918576 -0.395244
vn 0.000000 0.000001 1.000000
vn 0.000000 0.000001 1.000000
vn 0.000000 0.000001 1.000000
vn 0.000000 0.000001 1.000000
vn 1.000000 0.000000 0.000000
vn 1.000000 0.000000 0.000000
vn 1.000000 0.000000 0.000000
vn 1.000000 0.000000 0.000000
vn 0.000000 0.000000 -1.000000
vn 0.000000 0.000000 -1.000000
vn 0.000000 0.000000 -1.000000
vn 0.000000 0.000000 -1.000000
vn -1.000000 -0.000001 0.000000
vn -1.000000 -0.000001 0.000000
vn -1.000000 -0.000001 0.000000
vn -1.000000 -0.000001 0.000000
vn 0.000000 0.000000 -1.000000
vn 0.000000 0.000000 -1.000000
vn 0.000000 0.000000 -1.000000
vn 0.000000 0.000000 -1.000000
vn 1.000000 0.000000 0.000000
vn 1.000000 0.000000 0.000000
vn 1.000000 0.000000 0.000000
vn 1.000000 0.000000 0.000000
vn 0.000000 0.000000 1.000000
vn 0.000000 0.000000 1.000000
vn 0.000000 0.000000 1.000000
vn 0.000000 0.000000 1.000000
vn -1.000000 0.000000 0.000000
vn -1.000000 0.000000 0.000000
vn -1.000000 0.000000 0.000000
vn -1.000000 0.000000 0.000000
vn 1.000000 0.000000 0.000000
vn 1.000000 0.000000 0.000000
vn 1.000000 0.000000 0.000000
vn 1.000000 0.000000 0.000000
vn 0.000000 0.986962 -0.160953
vn 0.000000 0.986962 -0.160953
vn 0.000000 0.986962 -0.160953
vn -0.121873 0.992546 0.000000
vn -0.121873 0.992546 0.000000
vn -0.121873 0.992546 0.000000
vn 0.000000 0.986962 0.160953
vn 0.000000 0.986962 0.160953
vn 0.000000 0.986962 0.160953
vn 0.121873 0.992546 0.000000
vn 0.121873 0.992546 0.000000
vn 0.121873 0.992546 0.000000
vn 0.000000 0.249257 0.968437
vn 0.000000 0.249257 0.968437
vn 0.000000 0.249257 0.968437
vn -0.143143 -0.000000 0.989702
vn -0.143143 -0.000000 0.989702
vn -0.143143 -0.000000 0.989702
vn 0.000000 -0.249259 0.968437
vn 0.000000 -0.249259 0.968437
vn 0.000000 -0.249259 0.968437
vn 0.143143 -0.000000 0.989702
vn 0.143143 -0.000000 0.989702
vn 0.143143 -0.000000 0.989702
vn 0.000000 -0.249259 -0.968437
vn 0.000000 -0.249259 -0.968437
vn 0.000000 -0.249259 -0.968437
vn -0.143143 0.000000 -0.989702
vn -0.143143 0.000000 -0.989702
vn -0.143143 0.000000 -0.989702
vn 0.000000 0.249257 -0.968437
vn 0.000000 0.249257 -0.968437
vn 0.000000 0.249257 -0.968437
vn 0.143143 0.000000 -0.989702
vn 0.143143 0.000000 -0.989702
vn 0.143143 0.000000 -0.989702
vn 0.000000 1.000000 0.000000
vn 0.000000 1.000000 0.000000
vn 0.000000 1.000000 0.000000
vn 0.000000 1.000000 0.000000
vn 0.000000 0.000000 1.000000
vn 0.000000 0.000000 1.000000
vn 0.000000 0.000000 1.000000
vn 0.000000 0.000000 1.000000
vn 0.000000 -1.000000 0.000000
vn 0.000000 -1.000000 0.000000
vn 0.000000 -1.000000 0.000000
vn 0.000000 -1.000000 0.000000
vn 0.000000 0.000000 -1.000000
vn 0.000000 0.000000 -1.000000
vn 0.000000 0.000000 -1.000000
vn 0.000000 0.000000 -1.000000
vn -1.000000 0.000000 0.000000
vn -1.000000 0.000000 0.000000
vn -1.000000 0.000000 0.000000
vn -1.000000 0.000000 0.000000
vn 1.000000 0.000000 0.000000
vn 1.000000 0.000000 0.000000
vn 1.000000 0.000000 0.000000
vn 1.000000 0.000000 0.000000
vn 0.000000 1.000000 0.000000
vn 0.000000 1.000000 0.000000
vn 0.000000 1.000000 0.000000
vn 0.000000 1.000000 0.000000
vn 0.000000 -1.000000 0.000000
vn 0.000000 -1.000000 0.000000
vn 0.000000 -1.000000 0.000000
vn 0.000000 -1.000000 0.000000
vn -1.000000 0.000000 0.000000
vn -1.000000 0.000000 0.000000
vn -1.000000 0.000000 0.000000
vn -1.000000 0.000000 0.000000
vn 1.000000 0.000000 0.000000
vn 1.000000 0.000000 0.000000
vn 1.000000 0.000000 0.000000
vn 1.000000 0.000000 0.000000
vn 0.000000 1.000000 0.000000
vn 0.000000 1.000000 0.000000
vn 0.000000 1.000000 0.000000
vn 0.000000 1.000000 0.000000
vn 0.000000 1.000000 0.000000
vn 0.000000 1.000000 0.000000
vn 0.000000 1.000000 0.000000
vn 0.000000 1.000000 0.000000
vn 0.000000 -0.000000 -1.000000
vn 0.000000 -0.000000 -1.000000
vn 0.000000 -0.000000 -1.000000
vn 0.000000 -0.000000 -1.000000
vn -1.000000 0.000000 0.000000
vn -1.000000 0.000000 0.000000
vn -1.000000 0.000000 0.000000
vn -1.000000 0.000000 0.000000
vn 0.000000 -0.000000 1.000000
vn 0.000000 -0.000000 1.000000
vn 0.000000 -0.000000 1.000000
vn 0.000000 -0.000000 1.000000
vn 1.000000 0.000000 0.000000
vn 1.000000 0.000000 0.000000
vn 1.000000 0.000000 0.000000
vn 1.000000 0.000000 0.000000
vn 0.000000 0.000000 1.000000
vn 0.000000 0.000000 1.000000
vn 0.000000 0.000000 1.000000
vn 0.000000 0.000000 1.000000
vn 1.000000 0.000000 0.000000
vn 1.000000 0.000000 0.000000
vn 1.000000 0.000000 0.000000
vn 1.000000 0.000000 0.000000
vn 0.000000 0.000000 -1.000000
vn 0.000000 0.000000 -1.000000
vn 0.000000 0.000000 -1.000000
vn 0.000000 0.000000 -1.000000
vn -1.000000 0.000000 0.000000
vn -1.000000 0.000000 0.000000
vn -1.000000 0.000000 0.000000
vn -1.000000 0.000000 0.000000
vn 0.000000 -1.000000 0.000001
vn 0.000000 -1.000000 0.000001
vn 0.000000 -1.000000 0.000001
vn 0.000000 -1.000000 0.000001
vn 0.000000 -1.000000 0.000000
vn 0.000000 -1.000000 0.000000
vn 0.000000 -1.000000 0.000000
vn 0.000000 -1.000000 0.000000
vn 0.000000 -1.000000 -0.000001
vn 0.000000 -1.000000 -0.000001
vn 0.000000 -1.000000 -0.000001
vn 0.000000 -1.000000 -0.000001
vn 0.000000 -1.000000 0.000000
vn 0.000000 -1.000000 0.000000
vn 0.000000 -1.000000 0.000000
vn 0.000000 -1.000000 0.000000
vn 0.000000 -1.000000 -0.000001
vn 0.000000 -1.000000 -0.000001
vn 0.000000 -1.000000 -0.000001
vn 0.000000 -1.000000 -0.000001
vn 0.000000 -1.000000 -0.000001
vn 0.000000 -1.000000 -0.000001
vn 0.000000 -1.000000 -0.000001
vn 0.000000 -1.000000 -0.000001
vn 0.000000 -1.000000 0.000001
vn 0.000000 -1.000000 0.000001
vn 0.000000 -1.000000 0.000001
vn 0.000000 -1.000000 0.000001
vn -0.000000 -1.000000 -0.000001
vn -0.000000 -1.000000 -0.000001
vn -0.000000 -1.000000 -0.000001
vn -0.000000 -1.000000 -0.000001
vn 0.000000 0.000000 -1.000000
vn 0.000000 0.000000 -1.000000
vn 0.000000 0.000000 -1.000000
vn 0.000000 0.000000 -1.000000
vn -1.000000 0.000000 0.000000
vn -1.000000 0.000000 0.000000
vn -1.000000 0.000000 0.000000
vn -1.000000 0.000000 0.000000
vn 0.000000 0.000000 1.000000
vn 0.000000 0.000000 1.000000
vn 0.000000 0.000000 1.000000
vn 0.000000 0.000000 1.000000
vn 1.000000 0.000000 0.000000
vn 1.000000 0.000000 0.000000
vn 1.000000 0.000000 0.000000
vn 1.000000 0.000000 0.000000
vn 0.000000 0.000000 1.000000
vn 0.000000 0.000000 1.000000
vn 0.000000 0.000000 1.000000
vn 0.000000 0.000000 1.000000
vn 1.000000 0.000000 0.000000
vn 1.000000 0.000000 0.000000
vn 1.000000 0.000000 0.000000
vn 1.000000 0.000000 0.000000
vn 0.000000 0.000000 -1.000000
vn 0.000000 0.000000 -1.000000
vn 0.000000 0.000000 -1.000000
vn 0.000000 0.000000 -1.000000
vn -1.000000 0.000000 0.000000
vn -1.000000 0.000000 0.000000
vn -1.000000 0.000000 0.000000
vn -1.000000 0.000000 0.000000
vn -1.000000 0.000000 0.000000
vn -1.000000 0.000000 0.000000
vn -1.000000 0.000000 0.000000
vn -1.000000 0.000000 0.000000
vn 0.000000 -1.000000 0.000000
vn 0.000000 -1.000000 0.000000
vn 0.000000 -1.000000 0.000000
vn 0.000000 -1.000000 0.000000
vn 0.000000 -1.000000 0.000000
vn 0.000000 -1.000000 0.000000
vn 0.000000 -1.000000 0.000000
vn 0.000000 -1.000000 0.000000
vn 0.000000 -1.000000 0.000000
vn 0.000000 -1.000000 0.000000
vn 0.000000 -1.000000 0.000000
vn 0.000000 -1.000000 0.000000
vn 0.000000 -1.000000 0.000000
vn 0.000000 -1.000000 0.000000
vn 0.000000 -1.000000 0.000000
vn 0.000000 -1.000000 0.000000
s off
f 7/8/1 8/7/2 10/9/3 9/10/4
f 8/7/5 2/2/6 11/11/7 10/9/8
f 2/2/9 1/1/10 12/12/11 11/11/12
f 1/1/13 7/8/14 9/10/15 12/12/16
f 42/41/17 41/42/18 43/43/19 44/44/20
f 12/12/21 9/10/22 13/14/23 14/13/24
f 9/10/25 10/9/26 15/15/27 13/14/28
f 10/9/29 11/11/30 16/16/31 15/15/32
f 11/11/33 12/12/34 14/13/35 16/16/36
f 14/13/37 13/14/38 17/18/39 18/17/40
f 13/14/41 15/15/42 19/19/43 17/18/44
f 15/15/45 16/16/46 20/20/47 19/19/48
f 16/16/49 14/13/50 18/17/51 20/20/52
f 18/17/53 17/18/54 21/22/55 22/21/56
f 17/18/57 19/19/58 23/23/59 21/22/60
f 19/19/61 20/20/62 24/24/63 23/23/64
f 20/20/65 18/17/66 22/21/67 24/24/68
f 22/21/69 21/22/70 25/26/71 26/25/72
f 21/22/73 23/23/74 27/27/75 25/26/76
f 23/23/77 24/24/78 28/28/79 27/27/80
f 24/24/81 22/21/82 26/25/83 28/28/84
f 26/25/85 25/26/86 29/30/87 30/29/88
f 25/26/89 27/27/90 31/31/91 29/30/92
f 27/27/93 28/28/94 32/32/95 31/31/96
f 28/28/97 26/25/98 30/29/99 32/32/100
f 30/29/101 29/30/102 33/34/103 34/33/104
f 29/30/105 31/31/106 35/35/107 33/34/108
f 31/31/109 32/32/110 36/36/111 35/35/112
f 32/32/113 30/29/114 34/33/115 36/36/116
f 34/33/117 33/34/118 37/38/119 38/37/120
f 33/34/121 35/35/122 39/39/123 37/38/124
f 35/35/125 36/36/126 40/40/127 39/39/128
f 36/36/129 34/33/130 38/37/131 40/40/132
f 38/37/133 37/38/134 41/42/135 42/41/136
f 37/38/137 39/39/138 43/43/139 41/42/140
f 39/39/141 40/40/142 44/44/143 43/43/144
f 40/40/145 38/37/146 42/41/147 44/44/148
f 51/51/149 52/52/150 45/45/151 46/46/152
f 52/52/153 49/49/154 48/48/155 45/45/156
f 50/50/157 51/51/158 46/46/159 47/47/160
f 47/47/161 48/48/162 49/49/163 50/50/164
f 46/46/165 45/45/166 1/1/167 2/2/168
f 47/47/169 46/46/170 2/2/171 8/7/172
f 7/8/173 48/48/174 47/47/175 8/7/176
f 45/45/177 48/48/178 7/8/179 1/1/180
f 50/50/181 49/49/182 5/6/183 6/5/184
f 4/3/185 51/51/186 50/50/187 6/5/188
f 3/4/189 52/52/190 51/51/191 4/3/192
f 5/6/193 49/49/194 52/52/195 3/4/196
f 56/53/197 53/54/198 54/55/199 55/56/200
f 56/57/201 59/58/202 61/59/203
f 59/60/204 60/61/205 61/59/206
f 60/61/207 53/62/208 61/59/209
f 53/63/210 56/64/211 61/59/212
f 53/65/213 60/66/214 62/67/215
f 60/66/216 57/68/217 62/67/218
f 57/69/219 54/70/220 62/67/221
f 54/71/222 53/72/223 62/67/224
f 55/73/225 58/74/226 63/75/227
f 58/76/228 59/77/229 63/75/230
f 59/78/231 56/79/232 63/75/233
f 56/80/234 55/81/235 63/75/236
f 64/82/237 65/83/238 67/84/239 66/85/240
f 66/85/241 67/84/242 69/86/243 68/87/244
f 68/87/245 69/86/246 71/88/247 70/89/248
f 70/89/249 71/88/250 65/90/251 64/91/252
f 65/83/253 71/92/254 69/93/255 67/84/256
f 70/94/257 64/82/258 66/85/259 68/95/260
f 72/96/261 73/97/262 75/98/263 74/99/264
f 76/100/265 77/101/266 79/102/267 78/103/268
f 73/97/269 79/104/270 77/105/271 75/98/272
f 78/106/273 72/96/274 74/99/275 76/107/276
f 96/108/277 97/109/278 98/110/279 99/111/280
f 101/112/281 100/113/282 102/114/283 103/115/284
f 74/99/285 75/98/286 81/116/287 80/117/288
f 75/98/289 77/101/290 82/118/291 81/116/292
f 77/101/293 76/100/294 83/119/295 82/118/296
f 76/100/297 74/99/298 80/117/299 83/119/300
f 73/120/301 72/121/302 84/122/303 85/123/304
f 72/121/305 78/103/306 86/124/307 84/122/308
f 78/103/309 79/102/310 87/125/311 86/124/312
f 79/102/313 73/120/314 85/123/315 87/125/316
f 80/117/317 81/116/318 89/126/319 88/127/320
f 81/116/321 82/118/322 90/128/323 89/126/324
f 82/118/325 83/119/326 91/129/327 90/128/328
f 83/119/329 80/117/330 88/127/331 91/129/332
f 85/123/333 84/122/334 92/130/335 93/131/336
f 84/122/337 86/124/338 94/132/339 92/130/340
f 86/124/341 87/125/342 95/133/343 94/132/344
f 87/125/345 85/123/346 93/131/347 95/133/348
f 88/127/349 89/126/350 97/109/351 96/108/352
f 89/126/353 90/128/354 98/110/355 97/109/356
f 90/128/357 91/129/358 99/111/359 98/110/360
f 91/129/361 88/127/362 96/108/363 99/111/364
f 93/131/365 92/130/366 100/113/367 101/112/368
f 92/130/369 94/132/370 102/114/371 100/113/372
f 94/132/373 95/133/374 103/115/375 102/114/376
f 95/133/377 93/131/378 101/112/379 103/115/380
f 58/134/381 57/68/382 60/61/383 59/77/384
f 55/135/385 54/136/386 4/137/387 6/138/388
f 54/139/389 57/140/390 3/141/391 4/142/392
f 57/143/393 58/134/394 5/144/395 3/145/396
f 58/146/397 55/147/398 6/148/399 5/149/400
