# This file uses centimeters as units for non-parametric coordinates.

v 1.652710 51.577850 0.601074
v 1.652710 51.560730 -1.303223
v -1.652527 51.577850 0.601074
v -1.652527 51.560730 -1.303223
v 1.652710 -29.484344 0.846191
v 1.652710 -29.501450 -1.057922
v -1.652527 -29.501457 -1.057922
v -1.652527 -29.484344 0.846191
v -2.739594 -33.078083 2.736389
v -2.739594 -33.106434 -2.742798
v -10.173401 -33.720287 -3.485291
v -10.173401 -33.684288 3.485229
v 2.739807 -33.106434 -2.742798
v 10.173401 -33.720287 -3.485291
v 2.739807 -33.078102 2.736389
v 10.173401 -33.684288 3.485229
v -10.029144 -36.551121 -3.314026
v -10.029144 -36.516579 3.368530
v 10.029175 -36.551128 -3.314026
v 10.029175 -36.516575 3.368530
v 2.585022 -30.710144 -2.600464
v 2.585022 -30.683376 2.569153
v -2.584778 -30.710163 -2.600464
v -2.584778 -30.683384 2.569153
v 0.000122 -29.501450 -1.668152
v 0.000122 -29.484344 1.636841
v 0.000122 51.577850 1.211548
v 0.000122 51.560730 -2.093872
v -11.075378 -51.552162 3.144897
v -11.075378 -51.577858 -2.898926
v 11.075378 -51.577858 -2.898926
v 11.075378 -51.552162 3.144897
v -9.096863 -36.337234 1.950317
v -9.096863 -36.357750 -1.895874
v 9.096893 -36.357765 -1.895874
v 9.096893 -36.337234 1.950317
v 5.408844 -36.337234 0.969849
v 6.585236 -50.539108 2.004211
v 6.585236 -50.564808 -1.758240
v 5.408844 -36.357765 -0.821655
v 1.623901 -36.337234 1.950317
v 1.977112 -51.552162 3.144897
v 1.977112 -51.577858 -2.898926
v 1.623901 -36.357758 -1.895874
v -1.406799 -36.337234 0.969849
v -1.712769 -50.539108 2.004211
v -1.712769 -50.564808 -1.758240
v -1.406799 -36.357758 -0.821716
v -3.435760 -36.337238 1.950317
v -4.182983 -51.552162 3.144897
v -4.182983 -51.577858 -2.898926
v -3.435760 -36.357758 -1.895874
v -6.021149 -36.337238 0.969849
v -7.330688 -50.539108 2.004211
v -7.330688 -50.564808 -1.758240
v -6.021149 -36.357750 -0.821716
vt 0.035414 0.279936
vt 0.035409 0.279949
vt 0.035429 0.278958
vt 0.035434 0.278953
vt 0.035413 0.278950
vt 0.035403 0.278959
vt 0.035382 0.278956
vt 0.035388 0.278951
vt 0.035370 0.279943
vt 0.035375 0.279930
vt 0.035388 0.279950
vt 0.035396 0.279927
vt 0.350249 0.421542
vt 0.350351 0.421540
vt 0.350013 0.421537
vt 0.349870 0.421539
vt 0.350506 0.421542
vt 0.350870 0.421545
vt 0.350403 0.421543
vt 0.350716 0.421547
vt 0.350013 0.421782
vt 0.349870 0.421779
vt 0.350869 0.421778
vt 0.350715 0.421775
vt 0.350506 0.421313
vt 0.350404 0.421317
vt 0.350351 0.421309
vt 0.350250 0.421314
vt 0.350506 0.421313
vt 0.350404 0.421317
vt 0.350429 0.421311
vt 0.350250 0.421314
vt 0.350351 0.421309
vt 0.350327 0.421316
vt 0.037670 0.354019
vt 0.037852 0.354035
vt 0.038020 0.354028
vt 0.037836 0.354012
vt 0.037087 0.353106
vt 0.037225 0.353099
vt 0.037193 0.354064
vt 0.037020 0.354046
vt 0.037810 0.353114
vt 0.037958 0.353118
vt 0.037813 0.353124
vt 0.037666 0.353120
vt 0.037515 0.353116
vt 0.037501 0.354026
vt 0.037680 0.354043
vt 0.037657 0.353110
vt 0.037394 0.353113
vt 0.037365 0.354032
vt 0.037543 0.354049
vt 0.037535 0.353107
vt 0.037313 0.353111
vt 0.037274 0.354036
vt 0.037450 0.354053
vt 0.037453 0.353105
vt 0.037209 0.353109
vt 0.037158 0.354040
vt 0.037333 0.354058
vt 0.037349 0.353103
vn 1.000000 0.000000 0.000000
vn 1.000000 0.000000 0.000000
vn 1.000000 0.000000 0.000000
vn 1.000000 0.000000 0.000000
vn -0.000358 0.999978 -0.006573
vn -0.000358 0.999978 -0.006573
vn -0.000358 0.999978 -0.006573
vn -0.000358 0.999978 -0.006573
vn -1.000000 -0.000000 0.000000
vn -1.000000 -0.000000 0.000000
vn -1.000000 -0.000000 0.000000
vn -1.000000 -0.000000 0.000000
vn -0.390224 -0.003811 -0.920712
vn -0.390224 -0.003811 -0.920712
vn -0.390224 -0.003811 -0.920712
vn -0.390224 -0.003811 -0.920712
vn -0.390282 0.003807 0.920688
vn -0.390282 0.003807 0.920688
vn -0.390282 0.003807 0.920688
vn -0.390282 0.003807 0.920688
vn -0.081788 0.996636 -0.005151
vn -0.081788 0.996636 -0.005151
vn -0.081788 0.996636 -0.005151
vn -0.081788 0.996636 -0.005151
vn 0.000000 0.770713 -0.637183
vn 0.000000 0.770713 -0.637183
vn 0.000000 0.770713 -0.637182
vn 0.000000 0.770713 -0.637183
vn 0.081789 0.996636 -0.005150
vn 0.081789 0.996636 -0.005150
vn 0.081789 0.996636 -0.005150
vn 0.081789 0.996636 -0.005150
vn 0.000001 0.777250 0.629192
vn 0.000001 0.777250 0.629192
vn 0.000001 0.777250 0.629192
vn 0.000001 0.777250 0.629192
vn -0.998705 -0.050878 0.000263
vn -0.998705 -0.050878 0.000263
vn -0.998705 -0.050878 0.000263
vn -0.998705 -0.050878 0.000263
vn 0.000000 -0.060389 -0.998175
vn 0.000000 -0.060389 -0.998175
vn 0.000000 -0.060389 -0.998175
vn 0.000000 -0.060389 -0.998175
vn 0.998705 -0.050867 0.000263
vn 0.998705 -0.050867 0.000263
vn 0.998705 -0.050867 0.000263
vn 0.998705 -0.050867 0.000263
vn 0.000000 -0.041168 0.999152
vn 0.000000 -0.041168 0.999152
vn 0.000000 -0.041168 0.999152
vn 0.000000 -0.041168 0.999152
vn 0.997919 0.064479 -0.000334
vn 0.997919 0.064479 -0.000334
vn 0.997919 0.064479 -0.000334
vn 0.997919 0.064479 -0.000334
vn -0.000000 0.059293 -0.998241
vn -0.000000 0.059293 -0.998241
vn -0.000000 0.059293 -0.998241
vn -0.000000 0.059293 -0.998241
vn -0.997918 0.064492 -0.000334
vn -0.997918 0.064492 -0.000334
vn -0.997918 0.064492 -0.000334
vn -0.997918 0.064492 -0.000334
vn 0.000000 0.069666 0.997570
vn 0.000000 0.069666 0.997570
vn 0.000000 0.069666 0.997570
vn 0.000000 0.069666 0.997570
vn -0.000000 -0.999987 0.005169
vn -0.000000 -0.999987 0.005169
vn -0.000000 -0.999987 0.005169
vn -0.000000 -0.999987 0.005169
vn 0.790764 0.612110 -0.003796
vn 0.790764 0.612110 -0.003796
vn 0.790764 0.612110 -0.003796
vn 0.790764 0.612110 -0.003796
vn 0.195345 0.825818 -0.529023
vn 0.195345 0.825818 -0.529023
vn 0.195345 0.825818 -0.529023
vn -0.790786 0.612081 -0.003798
vn -0.790786 0.612081 -0.003798
vn -0.790786 0.612081 -0.003798
vn -0.790786 0.612081 -0.003798
vn -0.225500 0.852631 0.471349
vn -0.225500 0.852631 0.471349
vn -0.225500 0.852631 0.471349
vn -0.195345 0.825813 -0.529031
vn -0.195345 0.825813 -0.529031
vn -0.195345 0.825813 -0.529031
vn -0.000002 0.610754 -0.791820
vn -0.000002 0.610754 -0.791820
vn -0.000002 0.610754 -0.791820
vn 0.225503 0.852636 0.471340
vn 0.225503 0.852636 0.471340
vn 0.225503 0.852636 0.471340
vn -0.000001 0.613830 0.789438
vn -0.000001 0.613830 0.789438
vn -0.000001 0.613830 0.789438
vn 0.390294 0.003807 0.920683
vn 0.390294 0.003807 0.920683
vn 0.390294 0.003807 0.920682
vn 0.390294 0.003807 0.920682
vn 0.000358 0.999978 -0.006572
vn 0.000358 0.999978 -0.006572
vn 0.000358 0.999978 -0.006572
vn 0.000358 0.999978 -0.006572
vn 0.390236 -0.003811 -0.920707
vn 0.390236 -0.003811 -0.920707
vn 0.390236 -0.003811 -0.920707
vn 0.390236 -0.003811 -0.920707
vn -0.220082 -0.975468 0.005113
vn -0.220082 -0.975468 0.005113
vn -0.220082 -0.975468 0.005113
vn -0.220082 -0.975468 0.005113
vn -0.991654 0.128927 -0.000602
vn -0.991654 0.128927 -0.000602
vn -0.991654 0.128927 -0.000602
vn -0.991654 0.128927 -0.000602
vn -0.257075 0.036093 -0.965717
vn -0.257075 0.036093 -0.965717
vn -0.257075 0.036093 -0.965717
vn -0.257075 0.036093 -0.965717
vn 0.991654 0.128925 -0.000603
vn 0.991654 0.128925 -0.000603
vn 0.991654 0.128925 -0.000603
vn 0.991654 0.128925 -0.000603
vn -0.245316 0.047060 0.968300
vn -0.245316 0.047060 0.968300
vn -0.245316 0.047060 0.968300
vn -0.245316 0.047060 0.968300
vn 0.234405 0.085563 0.968366
vn 0.234405 0.085563 0.968366
vn 0.234405 0.085563 0.968366
vn 0.234405 0.085563 0.968366
vn 0.214710 -0.976664 0.005119
vn 0.214710 -0.976664 0.005119
vn 0.214710 -0.976664 0.005119
vn 0.214710 -0.976664 0.005119
vn 0.245776 0.076468 -0.966306
vn 0.245776 0.076468 -0.966306
vn 0.245776 0.076468 -0.966306
vn 0.245776 0.076468 -0.966306
vn -0.290344 0.071836 0.954222
vn -0.290344 0.071836 0.954222
vn -0.290344 0.071836 0.954222
vn -0.290344 0.071836 0.954222
vn -0.264748 -0.964304 0.005054
vn -0.264748 -0.964304 0.005054
vn -0.264748 -0.964304 0.005054
vn -0.264749 -0.964304 0.005054
vn -0.303930 0.062171 -0.950664
vn -0.303930 0.062171 -0.950664
vn -0.303930 0.062171 -0.950664
vn -0.303930 0.062171 -0.950664
vn 0.415863 0.053898 0.907829
vn 0.415863 0.053898 0.907829
vn 0.415863 0.053898 0.907829
vn 0.415863 0.053898 0.907829
vn 0.379433 -0.925206 0.004849
vn 0.379433 -0.925206 0.004849
vn 0.379433 -0.925206 0.004849
vn 0.379433 -0.925206 0.004849
vn 0.433277 0.043826 -0.900194
vn 0.433278 0.043826 -0.900194
vn 0.433277 0.043826 -0.900194
vn 0.433277 0.043826 -0.900194
vn -0.330755 0.094274 0.938996
vn -0.330755 0.094274 0.938996
vn -0.330755 0.094274 0.938996
vn -0.330755 0.094274 0.938996
vn -0.306359 -0.951903 0.004990
vn -0.306359 -0.951903 0.004990
vn -0.306359 -0.951903 0.004990
vn -0.306359 -0.951903 0.004990
vn -0.345820 0.085756 -0.934374
vn -0.345820 0.085756 -0.934374
vn -0.345820 0.085756 -0.934374
vn -0.345820 0.085756 -0.934374
vn 0.291332 0.039858 0.955791
vn 0.291332 0.039858 0.955791
vn 0.291332 0.039858 0.955791
vn 0.291332 0.039858 0.955791
vn 0.261140 -0.965288 0.005060
vn 0.261140 -0.965288 0.005060
vn 0.261140 -0.965288 0.005060
vn 0.261140 -0.965288 0.005060
vn 0.304878 0.028679 -0.951960
vn 0.304878 0.028679 -0.951960
vn 0.304878 0.028679 -0.951960
vn 0.304878 0.028679 -0.951960
s off
f 5/1/1 6/2/2 2/3/3 1/4/4
f 27/5/5 28/6/6 4/7/7 3/8/8
f 3/8/9 4/7/10 7/9/11 8/10/12
f 28/6/13 25/11/14 7/9/15 4/7/16
f 8/10/17 26/12/18 27/5/19 3/8/20
f 9/13/21 10/14/22 11/15/23 12/16/24
f 10/14/25 13/17/26 14/18/27 11/15/28
f 13/17/29 15/19/30 16/20/31 14/18/32
f 15/19/33 9/13/34 12/16/35 16/20/36
f 12/16/37 11/15/38 17/21/39 18/22/40
f 11/15/41 14/18/42 19/23/43 17/21/44
f 14/18/45 16/20/46 20/24/47 19/23/48
f 16/20/49 12/16/50 18/22/51 20/24/52
f 15/19/53 13/17/54 21/25/55 22/26/56
f 13/17/57 10/14/58 23/27/59 21/25/60
f 24/28/61 23/27/62 10/14/63 9/13/64
f 9/13/65 15/19/66 22/26/67 24/28/68
f 19/23/69 20/24/70 18/22/71 17/21/72
f 6/29/73 5/30/74 22/26/75 21/25/76
f 21/25/77 25/31/78 6/29/79
f 8/32/80 7/33/81 23/27/82 24/28/83
f 24/28/84 26/34/85 8/32/86
f 7/33/87 25/31/88 23/27/89
f 23/27/90 25/31/91 21/25/92
f 5/30/93 26/34/94 22/26/95
f 22/26/96 26/34/97 24/28/98
f 27/5/99 26/12/100 5/1/101 1/4/102
f 1/4/103 2/3/104 28/6/105 27/5/106
f 6/2/107 25/11/108 28/6/109 2/3/110
f 38/35/111 39/36/112 31/37/113 32/38/114
f 33/39/115 34/40/116 30/41/117 29/42/118
f 39/36/119 40/43/120 35/44/121 31/37/122
f 35/44/123 36/45/124 32/38/125 31/37/126
f 36/45/127 37/46/128 38/35/129 32/38/130
f 38/35/131 37/46/132 41/47/133 42/48/134
f 42/48/135 43/49/136 39/36/137 38/35/138
f 43/49/139 44/50/140 40/43/141 39/36/142
f 42/48/143 41/47/144 45/51/145 46/52/146
f 46/52/147 47/53/148 43/49/149 42/48/150
f 47/53/151 48/54/152 44/50/153 43/49/154
f 46/52/155 45/51/156 49/55/157 50/56/158
f 50/56/159 51/57/160 47/53/161 46/52/162
f 51/57/163 52/58/164 48/54/165 47/53/166
f 50/56/167 49/55/168 53/59/169 54/60/170
f 54/60/171 55/61/172 51/57/173 50/56/174
f 55/61/175 56/62/176 52/58/177 51/57/178
f 54/60/179 53/59/180 33/39/181 29/42/182
f 29/42/183 30/41/184 55/61/185 54/60/186
f 34/40/187 56/62/188 55/61/189 30/41/190
