# This file uses centimeters as units for non-parametric coordinates.

v 5.572388 -4.810028 12.081360
v 2.247437 -4.421329 8.448059
v 11.993896 17.732134 -13.092041
v 9.121460 18.412970 -13.256042
v 8.959717 17.095034 -15.897339
v 2.143555 -3.760334 11.840698
v 0.403076 -7.853474 -3.462769
v 17.029907 13.555011 -0.946228
v 13.437866 15.180606 0.443848
v 14.676270 14.814854 -2.215393
v -4.073486 -6.125767 -1.775757
v -2.587280 -6.628483 -5.017273
v 12.975952 -8.512283 0.098999
v 1.031860 20.432693 -2.526672
v -2.787964 19.999559 -0.882751
v -1.688232 20.065104 -3.625916
v 8.322632 -8.512283 2.101868
v 9.662842 -8.512283 -1.240051
v 21.799561 12.941056 -5.130188
v 15.056641 17.449455 -8.001160
v 10.696289 20.350708 -1.173645
v 14.744751 17.635302 5.916687
v 21.606567 13.056021 3.471497
v 20.074097 10.357943 -5.133911
v 13.331177 14.866337 -8.005310
v 8.971069 17.767591 -1.177856
v 13.019653 15.052093 5.912598
v 19.881348 10.472816 3.467407
v -8.862305 18.124414 -8.960144
v -0.502563 19.437744 7.841919
v 7.754517 19.943907 -0.328674
v -9.250366 22.301817 -9.093811
v -11.160278 22.490631 2.373657
v -0.890747 23.615147 7.708618
v 7.366089 24.121309 -0.462158
v 2.199341 23.309626 -10.846191
v -0.315063 17.359207 -16.765503
v -7.620728 16.717957 -15.590759
v -7.841553 19.091324 -15.666565
v -0.535522 19.732573 -16.841370
v -10.772217 18.313225 2.507263
v -11.504395 17.177708 10.100586
v -4.661499 17.904108 12.939392
v -4.882324 20.277470 12.863525
v -11.724731 19.551075 10.024780
v 5.676392 18.784054 10.416565
v 10.559692 19.048698 4.498474
v 10.339111 21.422056 4.422791
v 5.455933 21.157419 10.340759
v 2.587280 19.132221 -10.713013
v 14.065063 16.521671 -20.763855
v 6.975952 18.016809 -20.741211
v 5.388428 21.239222 -14.449402
v 11.495972 21.735657 -10.584595
v 16.858154 18.820091 -14.487183
v 13.490845 13.780939 -19.505066
v 6.402100 15.276133 -19.482178
v 4.814331 18.498667 -13.190308
v 10.922241 18.994844 -9.325867
v 16.284302 16.079229 -13.228516
v 7.045898 0.761414 -10.004456
v -3.806763 -0.517507 -8.137695
v -1.715576 14.016272 29.863159
v 4.696289 -4.936316 -3.275818
v -9.087158 -1.207254 -6.490173
v 5.709595 11.426450 13.122192
v -4.388916 10.367419 14.450134
v -10.583496 3.846715 13.810852
v 0.474365 0.146533 17.157166
v 9.327026 -5.300580 -9.072205
v 2.410889 2.751598 -15.367493
v 32.143311 16.238882 -20.092102
v 11.197266 -2.650506 -1.939392
v 2.065186 -0.180618 -4.935730
v 18.293945 -5.891776 -14.755066
v 11.524170 4.198592 -19.574646
v 18.261353 10.642099 -11.664612
v 22.422119 5.903473 -5.501526
v -1.772827 1.396215 -1.603638
v 7.150635 -5.740426 -2.827881
v 26.557739 15.598609 17.863281
v 2.375610 0.435041 -8.414124
v 11.578979 1.654247 -10.626648
v 13.888916 10.983984 16.062744
v 22.325684 1.851896 12.781372
v 22.381592 8.783085 3.108948
v 17.799927 12.618460 9.387207
v 6.803467 1.204179 -2.515076
v 1.968262 -8.359896 -12.821106
v -3.869751 14.638285 -30.652527
v -0.897095 -0.310661 -0.770996
v -9.714111 -3.318069 -9.587341
v 7.744507 9.903037 -23.419556
v 3.964844 -0.567949 -24.830017
v -10.185181 4.620225 -19.244690
v -4.685303 10.143707 -18.909790
v -2.578735 -5.248662 -7.244568
v 7.045776 0.270585 0.923462
v -28.896851 16.484339 -2.877014
v -1.143433 1.036961 -13.776062
v 9.073853 -1.837906 -12.108093
v -22.497559 0.281678 -6.922241
v -17.808960 2.586715 4.407654
v -13.961670 9.541577 -1.157593
v -16.019531 10.009252 -13.968750
vt 0.186656 0.280966
vt 0.186656 0.280966
vt 0.186656 0.280966
vt 0.186656 0.280966
vt 0.186656 0.280966
vt 0.186656 0.280966
vt 0.186656 0.280966
vt 0.186656 0.280966
vt 0.186656 0.280966
vt 0.186656 0.280966
vt 0.186656 0.280966
vt 0.186656 0.280966
vt 0.186656 0.280966
vt 0.186656 0.280966
vt 0.186656 0.280966
vt 0.186656 0.280966
vt 0.186656 0.280966
vt 0.186656 0.280966
vt 0.186656 0.280966
vt 0.186656 0.280966
vt 0.186656 0.280966
vt 0.186656 0.280966
vt 0.186656 0.280966
vt 0.186656 0.280966
vt 0.186656 0.280966
vt 0.186656 0.280966
vt 0.186656 0.280966
vt 0.186656 0.280966
vt 0.186656 0.280966
vt 0.186656 0.280966
vt 0.103154 0.135350
vt 0.103154 0.135350
vt 0.103154 0.135350
vt 0.103154 0.135350
vt 0.103154 0.135350
vt 0.103154 0.135350
vt 0.103154 0.135350
vt 0.103154 0.135350
vt 0.103154 0.135350
vt 0.103154 0.135350
vt 0.103154 0.135350
vt 0.103154 0.135350
vt 0.103154 0.135350
vt 0.103154 0.135350
vt 0.103154 0.135350
vt 0.103154 0.135350
vt 0.103154 0.135350
vt 0.103154 0.135350
vt 0.103154 0.135350
vt 0.103154 0.135350
vt 0.103154 0.135350
vt 0.103154 0.135350
vt 0.103154 0.135350
vt 0.103154 0.135350
vt 0.103154 0.135350
vt 0.103154 0.135350
vt 0.103154 0.135350
vt 0.103154 0.135350
vt 0.103154 0.135350
vt 0.103154 0.135350
vt 0.103154 0.135350
vt 0.103154 0.135350
vt 0.103154 0.135350
vt 0.103154 0.135350
vt 0.103154 0.135350
vt 0.103154 0.135350
vt 0.103154 0.135350
vt 0.103154 0.135350
vt 0.103154 0.135350
vt 0.103154 0.135350
vt 0.103154 0.135350
vt 0.103154 0.135350
vt 0.103154 0.135350
vt 0.103154 0.135350
vt 0.103154 0.135350
vt 0.103154 0.135350
vt 0.103154 0.135350
vt 0.103154 0.135350
vt 0.103154 0.135350
vt 0.103154 0.135350
vt 0.103154 0.135350
vt 0.103154 0.135350
vt 0.103154 0.135350
vt 0.103154 0.135350
vt 0.103154 0.135350
vt 0.103154 0.135350
vt 0.103154 0.135350
vt 0.103154 0.135350
vt 0.103154 0.135350
vt 0.103154 0.135350
vt 0.103154 0.135350
vt 0.103154 0.135350
vt 0.103154 0.135350
vt 0.175426 0.305598
vt 0.175426 0.305598
vt 0.175426 0.305598
vt 0.175426 0.305598
vt 0.175426 0.305598
vt 0.175426 0.305598
vt 0.175426 0.305598
vt 0.175426 0.305598
vt 0.175426 0.305598
vt 0.175426 0.305598
vt 0.175426 0.305598
vt 0.175426 0.305598
vt 0.175426 0.305598
vt 0.175426 0.305598
vt 0.175426 0.305598
vt 0.175426 0.305598
vt 0.175426 0.305598
vt 0.175426 0.305598
vt 0.175426 0.305598
vt 0.175426 0.305598
vt 0.175426 0.305598
vt 0.175426 0.305598
vt 0.175426 0.305598
vt 0.175426 0.305598
vt 0.175426 0.305598
vt 0.175426 0.305598
vt 0.175426 0.305598
vt 0.175426 0.305598
vt 0.175426 0.305598
vt 0.175426 0.305598
vt 0.175426 0.305598
vt 0.175426 0.305598
vt 0.175426 0.305598
vt 0.175426 0.305598
vt 0.175426 0.305598
vt 0.175426 0.305598
vt 0.175426 0.305598
vt 0.175426 0.305598
vt 0.175426 0.305598
vt 0.175426 0.305598
vt 0.175426 0.305598
vt 0.175426 0.305598
vt 0.175426 0.305598
vt 0.175426 0.305598
vt 0.175426 0.305598
vt 0.175426 0.305598
vt 0.175426 0.305598
vt 0.175426 0.305598
vt 0.175426 0.305598
vt 0.175426 0.305598
vt 0.175426 0.305598
vt 0.175426 0.305598
vt 0.175426 0.305598
vt 0.175426 0.305598
vt 0.175426 0.305598
vt 0.175426 0.305598
vt 0.175426 0.305598
vt 0.175426 0.305598
vt 0.175426 0.305598
vt 0.175426 0.305598
vt 0.175426 0.305598
vt 0.175426 0.305598
vt 0.175426 0.305598
vt 0.175426 0.305598
vt 0.175426 0.305598
vn 0.991127 0.132613 0.009034
vn 0.991127 0.132613 0.009034
vn 0.991127 0.132613 0.009034
vn 0.991127 0.132613 0.009034
vn -0.993505 -0.113195 -0.011630
vn -0.993505 -0.113195 -0.011630
vn -0.993505 -0.113195 -0.011630
vn -0.993505 -0.113195 -0.011630
vn -0.017840 0.362490 0.931817
vn -0.017840 0.362490 0.931817
vn -0.017840 0.362490 0.931817
vn -0.017840 0.362490 0.931817
vn -0.976374 0.116617 -0.181917
vn -0.976374 0.116617 -0.181917
vn -0.976374 0.116617 -0.181917
vn -0.976374 0.116617 -0.181917
vn 0.183620 0.028309 -0.982590
vn 0.183620 0.028309 -0.982590
vn 0.183620 0.028309 -0.982590
vn 0.183620 0.028309 -0.982590
vn -0.182713 -0.006648 0.983144
vn -0.182713 -0.006648 0.983144
vn -0.182713 -0.006648 0.983144
vn -0.182713 -0.006648 0.983144
vn -0.915411 -0.161116 -0.368870
vn -0.915411 -0.161116 -0.368870
vn -0.915411 -0.161116 -0.368870
vn -0.915411 -0.161116 -0.368870
vn 0.370886 0.059954 -0.926741
vn 0.370886 0.059954 -0.926741
vn 0.370886 0.059954 -0.926741
vn 0.370886 0.059954 -0.926741
vn -0.372286 -0.041973 0.927168
vn -0.372286 -0.041973 0.927168
vn -0.372286 -0.041973 0.927168
vn -0.372286 -0.041973 0.927168
vn 0.146164 -0.106919 -0.983465
vn 0.146164 -0.106919 -0.983465
vn 0.146164 -0.106919 -0.983465
vn 0.146164 -0.106919 -0.983465
vn -0.936922 0.164608 -0.308352
vn -0.936922 0.164608 -0.308352
vn -0.936922 0.164608 -0.308352
vn -0.936922 0.164608 -0.308352
vn -0.551405 0.175393 0.815592
vn -0.551405 0.175393 0.815592
vn -0.551405 0.175393 0.815592
vn -0.551405 0.175393 0.815592
vn 0.450528 -0.020587 0.892525
vn 0.450528 -0.020587 0.892525
vn 0.450528 -0.020587 0.892525
vn 0.450528 -0.020587 0.892525
vn 0.949543 -0.209812 -0.233124
vn 0.949543 -0.209812 -0.233124
vn 0.949543 -0.209812 -0.233124
vn 0.949543 -0.209812 -0.233124
vn 0.177081 0.973709 0.143295
vn 0.177081 0.973709 0.143295
vn 0.177081 0.973709 0.143295
vn 0.411244 0.911321 0.019301
vn 0.411244 0.911321 0.019301
vn 0.411244 0.911321 0.019301
vn -0.035318 0.999156 -0.020960
vn -0.035318 0.999156 -0.020960
vn -0.035318 0.999156 -0.020960
vn -0.965931 -0.097396 -0.239775
vn -0.965931 -0.097396 -0.239775
vn -0.965931 -0.097396 -0.239775
vn -0.965931 -0.097396 -0.239775
vn -0.382656 -0.006053 0.923871
vn -0.382656 -0.006053 0.923871
vn -0.382656 -0.006053 0.923871
vn -0.382656 -0.006053 0.923871
vn 0.766101 0.091485 0.636176
vn 0.766101 0.091485 0.636176
vn 0.766101 0.091485 0.636176
vn 0.766101 0.091485 0.636176
vn 0.923958 0.073854 -0.375296
vn 0.923958 0.073854 -0.375296
vn 0.923958 0.073854 -0.375296
vn 0.923958 0.073854 -0.375296
vn -0.154680 -0.045888 -0.986898
vn -0.154680 -0.045888 -0.986898
vn -0.154680 -0.045888 -0.986898
vn -0.154680 -0.045888 -0.986898
vn 0.125708 0.992057 0.004601
vn 0.125708 0.992057 0.004601
vn 0.125708 0.992057 0.004601
vn 0.021616 0.969062 -0.245870
vn 0.021616 0.969062 -0.245870
vn 0.021616 0.969062 -0.245870
vn -0.054723 0.977329 0.204530
vn -0.054723 0.977329 0.204530
vn -0.054723 0.977329 0.204530
vn -0.981842 -0.096435 -0.163358
vn -0.981842 -0.096435 -0.163358
vn -0.981842 -0.096435 -0.163358
vn -0.981842 -0.096435 -0.163358
vn -0.148513 0.876592 -0.457744
vn -0.148513 0.876592 -0.457744
vn -0.148513 0.876592 -0.457744
vn -0.148513 0.876592 -0.457744
vn 0.891572 0.068563 -0.447659
vn 0.891572 0.068563 -0.447659
vn 0.891572 0.068563 -0.447659
vn 0.891572 0.068563 -0.447659
vn 0.757982 0.091051 0.645890
vn 0.757982 0.091051 0.645890
vn 0.757982 0.091051 0.645890
vn 0.757982 0.091051 0.645890
vn -0.263314 0.899965 0.347461
vn -0.263314 0.899965 0.347461
vn -0.263314 0.899965 0.347461
vn -0.263314 0.899965 0.347461
vn -0.989378 -0.095419 -0.109663
vn -0.989378 -0.095419 -0.109663
vn -0.989378 -0.095419 -0.109663
vn -0.989378 -0.095419 -0.109663
vn 0.867956 0.064913 -0.492381
vn 0.867956 0.064913 -0.492381
vn 0.867956 0.064913 -0.492381
vn 0.867956 0.064913 -0.492381
vn 0.266341 0.916482 0.298534
vn 0.266341 0.916482 0.298534
vn 0.266341 0.916482 0.298534
vn 0.266341 0.916482 0.298534
vn -0.385153 -0.006308 0.922831
vn -0.385153 -0.006308 0.922831
vn -0.385153 -0.006308 0.922831
vn -0.385153 -0.006308 0.922831
vn 0.058970 -0.235097 -0.970182
vn 0.058970 -0.235097 -0.970182
vn 0.058970 -0.235097 -0.970182
vn 0.058970 -0.235097 -0.970182
vn -0.972606 -0.152550 -0.175403
vn -0.972606 -0.152550 -0.175403
vn -0.972606 -0.152550 -0.175403
vn -0.972606 -0.152550 -0.175403
vn -0.482800 0.160621 0.860875
vn -0.482800 0.160621 0.860875
vn -0.482800 0.160621 0.860875
vn -0.482800 0.160621 0.860875
vn 0.534664 0.260126 0.804033
vn 0.534664 0.260126 0.804033
vn 0.534664 0.260126 0.804033
vn 0.534664 0.260126 0.804033
vn 0.936593 0.017815 -0.349966
vn 0.936593 0.017815 -0.349966
vn 0.936593 0.017815 -0.349966
vn 0.936593 0.017815 -0.349966
vn -0.099268 0.994937 0.015710
vn -0.099268 0.994937 0.015710
vn -0.099268 0.994937 0.015710
vn 0.163895 0.973658 -0.158520
vn 0.163895 0.973658 -0.158520
vn 0.163895 0.973658 -0.158520
vn -0.363627 0.921570 -0.135956
vn -0.363628 0.921570 -0.135956
vn -0.363628 0.921570 -0.135956
vn -0.128947 0.969760 -0.207214
vn -0.128947 0.969760 -0.207214
vn -0.128947 0.969760 -0.207214
vn -0.410953 -0.650250 0.638977
vn -0.410953 -0.650250 0.638977
vn -0.410953 -0.650250 0.638977
vn -0.722613 0.690204 -0.038063
vn -0.722613 0.690204 -0.038063
vn -0.722613 0.690204 -0.038063
vn 0.869656 -0.251717 0.424662
vn 0.869656 -0.251717 0.424662
vn 0.869656 -0.251717 0.424662
vn -0.177198 0.889787 -0.420571
vn -0.177198 0.889787 -0.420571
vn -0.177198 0.889787 -0.420571
vn -0.150095 0.889133 -0.432336
vn -0.150095 0.889133 -0.432336
vn -0.150095 0.889133 -0.432336
vn -0.201862 0.946814 -0.250589
vn -0.201862 0.946814 -0.250589
vn -0.201862 0.946814 -0.250589
vn -0.665619 0.665449 -0.337830
vn -0.665619 0.665449 -0.337830
vn -0.665619 0.665449 -0.337830
vn -0.364716 -0.909488 0.199536
vn -0.364716 -0.909488 0.199536
vn -0.364716 -0.909488 0.199536
vn -0.294598 -0.939846 0.172923
vn -0.294598 -0.939846 0.172923
vn -0.294598 -0.939846 0.172923
vn 0.964910 -0.125572 0.230609
vn 0.964910 -0.125572 0.230609
vn 0.964910 -0.125572 0.230609
vn 0.913122 -0.347586 0.213054
vn 0.913122 -0.347586 0.213054
vn 0.913122 -0.347586 0.213054
vn 0.169363 -0.329949 -0.928682
vn 0.169363 -0.329949 -0.928682
vn 0.169363 -0.329949 -0.928682
vn 0.036265 0.803921 0.593629
vn 0.036266 0.803921 0.593630
vn 0.036265 0.803921 0.593629
vn -0.491980 0.831424 -0.258244
vn -0.491980 0.831424 -0.258244
vn -0.491980 0.831424 -0.258244
vn 0.849113 -0.476310 0.228335
vn 0.849113 -0.476310 0.228335
vn 0.849113 -0.476310 0.228335
vn -0.388084 -0.750995 -0.534226
vn -0.388084 -0.750995 -0.534226
vn -0.388084 -0.750995 -0.534226
vn -0.273275 -0.557703 -0.783765
vn -0.273275 -0.557703 -0.783765
vn -0.273275 -0.557703 -0.783765
vn -0.028363 0.962549 0.269619
vn -0.028363 0.962549 0.269619
vn -0.028363 0.962549 0.269619
vn -0.590466 0.794117 -0.143972
vn -0.590466 0.794117 -0.143972
vn -0.590466 0.794117 -0.143972
vn -0.281382 0.659510 0.697044
vn -0.281382 0.659510 0.697044
vn -0.281382 0.659510 0.697044
vn -0.088903 0.618472 0.780762
vn -0.088903 0.618472 0.780762
vn -0.088903 0.618472 0.780762
vn 0.136618 -0.939765 0.313332
vn 0.136618 -0.939765 0.313332
vn 0.136618 -0.939765 0.313332
vn 0.620221 -0.606933 0.496949
vn 0.620221 -0.606933 0.496949
vn 0.620221 -0.606933 0.496949
vn -0.007895 -0.344596 0.938718
vn -0.007895 -0.344596 0.938718
vn -0.007895 -0.344596 0.938718
vn 0.130245 0.885542 -0.445927
vn 0.130245 0.885542 -0.445927
vn 0.130245 0.885542 -0.445927
vn 0.958307 -0.234856 -0.162757
vn 0.958307 -0.234856 -0.162757
vn 0.958307 -0.234856 -0.162757
vn -0.345540 0.938009 0.027225
vn -0.345540 0.938009 0.027225
vn -0.345540 0.938009 0.027225
vn -0.396222 -0.612725 0.683795
vn -0.396222 -0.612725 0.683795
vn -0.396222 -0.612725 0.683795
vn -0.396908 -0.612364 0.683721
vn -0.396908 -0.612364 0.683721
vn -0.396908 -0.612364 0.683721
vn 0.716754 -0.661603 -0.220330
vn 0.716754 -0.661603 -0.220330
vn 0.716754 -0.661603 -0.220330
vn 0.708252 -0.575768 -0.408498
vn 0.708252 -0.575768 -0.408498
vn 0.708252 -0.575768 -0.408498
vn 0.052655 0.868814 -0.492330
vn 0.052655 0.868814 -0.492330
vn 0.052655 0.868814 -0.492330
vn -0.217039 0.882965 -0.416253
vn -0.217039 0.882965 -0.416253
vn -0.217039 0.882965 -0.416253
vn -0.326823 0.887682 -0.324356
vn -0.326823 0.887682 -0.324356
vn -0.326823 0.887682 -0.324356
vn -0.470791 0.880180 -0.060315
vn -0.470791 0.880180 -0.060315
vn -0.470791 0.880180 -0.060315
vn 0.507467 -0.067465 -0.859026
vn 0.507467 -0.067465 -0.859026
vn 0.507466 -0.067465 -0.859026
vn -0.698803 0.682911 0.212854
vn -0.698803 0.682911 0.212854
vn -0.698803 0.682911 0.212854
vn -0.471521 -0.516598 -0.714699
vn -0.471521 -0.516598 -0.714699
vn -0.471521 -0.516598 -0.714699
vn 0.149329 0.919949 0.362485
vn 0.149329 0.919949 0.362485
vn 0.149329 0.919949 0.362485
vn 0.928730 -0.355273 -0.106030
vn 0.928730 -0.355273 -0.106030
vn 0.928730 -0.355273 -0.106030
vn 0.941473 -0.331914 -0.058834
vn 0.941473 -0.331914 -0.058834
vn 0.941473 -0.331914 -0.058834
vn -0.455183 -0.710485 -0.536674
vn -0.455183 -0.710485 -0.536674
vn -0.455183 -0.710485 -0.536674
vn -0.469906 -0.693015 -0.546734
vn -0.469906 -0.693015 -0.546734
vn -0.469906 -0.693016 -0.546734
vn -0.622977 0.589111 0.514634
vn -0.622977 0.589111 0.514634
vn -0.622977 0.589111 0.514634
vn -0.667851 0.575957 0.471433
vn -0.667851 0.575957 0.471433
vn -0.667851 0.575957 0.471433
vn -0.095303 0.920567 0.378780
vn -0.095303 0.920567 0.378780
vn -0.095303 0.920567 0.378780
vn 0.184288 0.867721 0.461627
vn 0.184288 0.867721 0.461627
vn 0.184288 0.867720 0.461627
vn -0.804101 -0.422100 0.418633
vn -0.804101 -0.422100 0.418633
vn -0.804101 -0.422100 0.418633
vn 0.424606 0.904695 -0.035178
vn 0.424606 0.904695 -0.035178
vn 0.424606 0.904695 -0.035178
vn 0.166051 0.558483 0.812726
vn 0.166051 0.558483 0.812726
vn 0.166051 0.558483 0.812726
vn -0.673984 -0.082919 -0.734078
vn -0.673984 -0.082919 -0.734078
vn -0.673984 -0.082919 -0.734078
vn 0.001093 -0.829171 0.558994
vn 0.001093 -0.829171 0.558994
vn 0.001093 -0.829171 0.558994
vn -0.251493 -0.922818 0.291819
vn -0.251493 -0.922818 0.291819
vn -0.251493 -0.922818 0.291819
vn 0.409243 0.908613 -0.083323
vn 0.409243 0.908613 -0.083323
vn 0.409243 0.908613 -0.083323
vn 0.165975 0.558518 0.812717
vn 0.165975 0.558518 0.812717
vn 0.165975 0.558518 0.812717
vn 0.516268 0.854864 -0.051721
vn 0.516268 0.854864 -0.051721
vn 0.516268 0.854864 -0.051721
vn 0.303509 0.904039 -0.300992
vn 0.303509 0.904039 -0.300992
vn 0.303509 0.904039 -0.300992
vn -0.201090 -0.683368 -0.701834
vn -0.201090 -0.683368 -0.701833
vn -0.201090 -0.683368 -0.701834
vn -0.258887 -0.447618 -0.855930
vn -0.258887 -0.447618 -0.855930
vn -0.258887 -0.447618 -0.855930
s off
f 1/1/1 2/2/2 5/8/3 3/3/4
f 4/4/5 5/5/6 2/7/7 6/6/8
f 6/9/9 1/1/10 3/3/11 4/10/12
f 9/13/13 10/14/14 12/15/15 11/16/16
f 7/11/17 12/17/18 10/18/19 8/12/20
f 11/19/21 7/11/22 8/12/23 9/20/24
f 15/23/25 16/24/26 18/25/27 17/26/28
f 13/21/29 18/27/30 16/28/31 14/22/32
f 17/29/33 13/21/34 14/22/35 15/30/36
f 24/45/37 25/31/38 20/43/39 19/44/40
f 25/31/41 26/32/42 21/46/43 20/43/44
f 26/32/45 27/33/46 22/47/47 21/46/48
f 27/33/49 28/34/50 23/42/51 22/47/52
f 28/34/53 24/35/54 19/41/55 23/42/56
f 19/36/57 20/37/58 22/39/59
f 20/37/60 21/38/61 22/39/62
f 23/40/63 19/36/64 22/39/65
f 29/72/66 41/48/67 33/70/68 32/71/69
f 42/49/70 43/50/71 44/51/72 45/52/73
f 46/53/74 47/54/75 48/55/76 49/56/77
f 31/75/78 50/57/79 36/69/80 35/76/81
f 37/58/82 38/59/83 39/60/84 40/61/85
f 32/62/86 33/63/87 35/65/88
f 33/63/89 34/64/90 35/65/91
f 36/66/92 32/62/93 35/65/94
f 29/67/95 32/68/96 39/60/97 38/59/98
f 32/68/99 36/69/100 40/61/101 39/60/102
f 36/69/103 50/57/104 37/58/105 40/61/106
f 30/73/107 34/74/108 44/51/109 43/50/110
f 34/74/111 33/70/112 45/52/113 44/51/114
f 33/70/115 41/48/116 42/49/117 45/52/118
f 31/75/119 35/76/120 48/55/121 47/54/122
f 35/76/123 34/74/124 49/56/125 48/55/126
f 34/74/127 30/73/128 46/53/129 49/56/130
f 56/91/131 57/77/132 52/89/133 51/90/134
f 57/77/135 58/78/136 53/92/137 52/89/138
f 58/78/139 59/79/140 54/93/141 53/92/142
f 59/79/143 60/80/144 55/88/145 54/93/146
f 60/80/147 56/81/148 51/87/149 55/88/150
f 51/82/151 52/83/152 54/85/153
f 52/83/154 53/84/155 54/85/156
f 55/86/157 51/82/158 54/85/159
f 66/94/160 67/95/161 63/96/162
f 63/96/163 68/97/164 69/98/165
f 67/95/166 68/99/167 63/96/168
f 69/100/169 66/94/170 63/96/171
f 61/101/172 62/102/173 66/94/174
f 66/94/175 62/102/176 67/95/177
f 65/103/178 68/99/179 62/102/180
f 62/102/181 68/99/182 67/95/183
f 68/97/184 65/104/185 69/98/186
f 69/98/187 65/104/188 64/105/189
f 64/106/190 61/101/191 69/100/192
f 69/100/193 61/101/194 66/94/195
f 75/107/196 76/108/197 72/109/198
f 72/109/199 77/110/200 78/111/201
f 76/108/202 77/112/203 72/109/204
f 78/113/205 75/107/206 72/109/207
f 70/114/208 71/115/209 75/107/210
f 75/107/211 71/115/212 76/108/213
f 71/115/214 74/116/215 76/108/216
f 76/108/217 74/116/218 77/112/219
f 78/111/220 77/110/221 73/117/222
f 73/117/223 77/110/224 74/118/225
f 70/114/226 75/107/227 73/119/228
f 73/119/229 75/107/230 78/113/231
f 84/120/232 85/121/233 81/122/234
f 81/122/235 86/123/236 87/124/237
f 85/121/238 86/125/239 81/122/240
f 87/126/241 84/120/242 81/122/243
f 79/127/244 80/128/245 84/120/246
f 84/120/247 80/128/248 85/121/249
f 83/129/250 86/125/251 80/128/252
f 80/128/253 86/125/254 85/121/255
f 86/123/256 83/130/257 87/124/258
f 87/124/259 83/130/260 82/131/261
f 82/132/262 79/127/263 87/126/264
f 87/126/265 79/127/266 84/120/267
f 93/133/268 94/134/269 90/135/270
f 90/135/271 95/136/272 96/137/273
f 94/134/274 95/138/275 90/135/276
f 96/139/277 93/133/278 90/135/279
f 88/140/280 89/141/281 93/133/282
f 93/133/283 89/141/284 94/134/285
f 89/141/286 92/142/287 94/134/288
f 94/134/289 92/142/290 95/138/291
f 95/136/292 92/143/293 96/137/294
f 96/137/295 92/143/296 91/144/297
f 88/140/298 93/133/299 91/145/300
f 91/145/301 93/133/302 96/139/303
f 102/146/304 103/147/305 99/148/306
f 99/148/307 104/149/308 105/150/309
f 103/147/310 104/151/311 99/148/312
f 105/152/313 102/146/314 99/148/315
f 98/153/316 103/147/317 97/154/318
f 97/154/319 103/147/320 102/146/321
f 101/155/322 104/151/323 98/153/324
f 98/153/325 104/151/326 103/147/327
f 105/150/328 104/149/329 100/156/330
f 100/156/331 104/149/332 101/157/333
f 97/154/334 102/146/335 100/158/336
f 100/158/337 102/146/338 105/152/339
