# This file uses centimeters as units for non-parametric coordinates.

v 12.124695 7.657421 -12.124023
v 0.000000 7.657421 -17.146606
v -12.124756 7.657421 -12.124023
v -17.146545 7.657421 0.000000
v -12.124756 7.657421 12.123901
v 0.000000 7.657421 17.146484
v 12.124756 7.657421 12.123901
v 17.146545 7.657421 0.000000
v 11.521423 8.775738 -11.521484
v 0.000000 8.775738 -16.293701
v -11.521362 8.775738 -11.521484
v -16.293701 8.775738 0.000000
v -11.521362 8.775738 11.521362
v 0.000000 8.775738 16.293579
v 11.521423 8.775738 11.521362
v 16.293701 8.775738 0.000000
v 7.170776 0.000034 -7.170166
v 0.000000 0.000034 -10.140259
v 0.000000 0.000034 0.000000
v -7.170776 0.000034 -7.170166
v -10.140930 0.000034 0.000000
v -7.170776 0.000034 7.170044
v 0.000000 0.000034 10.140137
v 7.170776 0.000034 7.170044
v 10.140930 0.000034 0.000000
v 6.814026 1.118305 -6.814087
v 0.000000 1.118305 -9.636597
v 0.000000 1.118305 0.000000
v -6.814026 1.118305 -6.814087
v -9.636475 1.118305 0.000000
v -6.814026 1.118305 6.813965
v 0.000000 1.118305 9.636475
v 6.814026 1.118305 6.813965
v 9.636475 1.118305 0.000000
vt 0.401397 0.489974
vt 0.401397 0.489974
vt 0.401397 0.489974
vt 0.401397 0.489974
vt 0.401397 0.489974
vt 0.401397 0.489974
vt 0.401397 0.489974
vt 0.401397 0.489974
vt 0.401397 0.489974
vt 0.401397 0.489974
vt 0.401397 0.489974
vt 0.401397 0.489974
vt 0.401397 0.489974
vt 0.401397 0.489974
vt 0.401397 0.489974
vt 0.401397 0.489974
vt 0.401397 0.489974
vt 0.401397 0.489974
vt 0.401397 0.489974
vt 0.401397 0.489974
vt 0.401397 0.489974
vt 0.401397 0.489974
vt 0.401397 0.489974
vt 0.401397 0.489974
vt 0.401397 0.489974
vt 0.401397 0.489974
vt 0.401397 0.489974
vt 0.401397 0.489974
vt 0.401397 0.489974
vt 0.401397 0.489974
vt 0.401397 0.489974
vt 0.401397 0.489974
vt 0.401397 0.489974
vt 0.401397 0.489974
vt 0.401397 0.489974
vt 0.401397 0.489974
vt 0.401397 0.489974
vt 0.401397 0.489974
vt 0.401397 0.489974
vt 0.401397 0.489974
vt 0.401397 0.489974
vt 0.401397 0.489974
vt 0.401397 0.489974
vt 0.401397 0.489974
vt 0.401397 0.489974
vt 0.401397 0.489974
vt 0.401397 0.489974
vt 0.401397 0.489974
vt 0.401397 0.489974
vt 0.401397 0.489974
vt 0.401397 0.489974
vt 0.401397 0.489974
vn 0.312863 0.575882 -0.755299
vn 0.312863 0.575882 -0.755299
vn 0.312863 0.575882 -0.755299
vn 0.312863 0.575882 -0.755299
vn -0.312860 0.575893 -0.755291
vn -0.312860 0.575894 -0.755292
vn -0.312860 0.575893 -0.755291
vn -0.312860 0.575894 -0.755292
vn -0.755232 0.575993 -0.312822
vn -0.755232 0.575993 -0.312822
vn -0.755232 0.575993 -0.312822
vn -0.755232 0.575993 -0.312822
vn -0.755231 0.575992 0.312825
vn -0.755231 0.575992 0.312825
vn -0.755231 0.575992 0.312825
vn -0.755231 0.575992 0.312825
vn -0.312860 0.575894 0.755291
vn -0.312860 0.575894 0.755291
vn -0.312860 0.575894 0.755291
vn -0.312860 0.575894 0.755291
vn 0.312861 0.575888 0.755296
vn 0.312861 0.575888 0.755296
vn 0.312861 0.575888 0.755296
vn 0.312861 0.575888 0.755296
vn 0.755240 0.575978 0.312827
vn 0.755240 0.575978 0.312827
vn 0.755240 0.575978 0.312827
vn 0.755240 0.575978 0.312827
vn 0.755250 0.575965 -0.312830
vn 0.755250 0.575965 -0.312830
vn 0.755250 0.575965 -0.312830
vn 0.755250 0.575965 -0.312830
vn 0.000000 -1.000000 0.000000
vn 0.000000 -1.000000 0.000000
vn 0.000000 -1.000000 0.000000
vn 0.000000 -1.000000 0.000000
vn 0.000000 -1.000000 0.000000
vn 0.000000 -1.000000 0.000000
vn 0.000000 -1.000000 0.000000
vn 0.000000 -1.000000 0.000000
vn 0.000000 -1.000000 0.000000
vn 0.000000 -1.000000 0.000000
vn 0.000000 -1.000000 0.000000
vn 0.000000 -1.000000 0.000000
vn 0.000000 -1.000000 0.000000
vn 0.000000 -1.000000 0.000000
vn 0.000000 -1.000000 0.000000
vn 0.000000 -1.000000 0.000000
vn 0.000000 -1.000000 0.000000
vn 0.000000 -1.000000 0.000000
vn 0.000000 -1.000000 0.000000
vn 0.000000 -1.000000 0.000000
vn 0.000000 -1.000000 0.000000
vn 0.000000 -1.000000 0.000000
vn 0.000000 -1.000000 0.000000
vn 0.000000 -1.000000 0.000000
vn 0.000000 1.000000 0.000000
vn 0.000000 1.000000 0.000000
vn 0.000000 1.000000 0.000000
vn 0.000000 1.000000 0.000000
vn 0.000000 1.000000 0.000000
vn 0.000000 1.000000 0.000000
vn 0.000000 1.000000 0.000000
vn 0.000000 1.000000 0.000000
vn 0.000000 1.000000 0.000000
vn 0.000000 1.000000 0.000000
vn 0.000000 1.000000 0.000000
vn 0.000000 1.000000 0.000000
vn 0.000000 1.000000 0.000000
vn 0.000000 1.000000 0.000000
vn 0.000000 1.000000 0.000000
vn 0.000000 1.000000 0.000000
vn 0.000000 1.000000 0.000000
vn 0.000000 1.000000 0.000000
vn 0.000000 1.000000 0.000000
vn 0.000000 1.000000 0.000000
vn 0.000000 1.000000 0.000000
vn 0.000000 1.000000 0.000000
vn 0.000000 1.000000 0.000000
vn 0.000000 1.000000 0.000000
vn 0.292266 -0.645562 -0.705571
vn 0.292266 -0.645562 -0.705571
vn 0.292266 -0.645562 -0.705571
vn 0.292266 -0.645562 -0.705571
vn -0.292265 -0.645563 -0.705571
vn -0.292264 -0.645563 -0.705571
vn -0.292264 -0.645563 -0.705571
vn -0.292265 -0.645563 -0.705571
vn -0.705587 -0.645545 -0.292265
vn -0.705587 -0.645545 -0.292265
vn -0.705587 -0.645545 -0.292265
vn -0.705587 -0.645545 -0.292265
vn -0.705586 -0.645545 0.292268
vn -0.705586 -0.645545 0.292268
vn -0.705586 -0.645545 0.292268
vn -0.705586 -0.645545 0.292268
vn -0.292265 -0.645563 0.705571
vn -0.292265 -0.645563 0.705571
vn -0.292265 -0.645563 0.705571
vn -0.292265 -0.645563 0.705571
vn 0.292265 -0.645563 0.705571
vn 0.292265 -0.645563 0.705571
vn 0.292265 -0.645563 0.705571
vn 0.292265 -0.645563 0.705571
vn 0.705586 -0.645545 0.292268
vn 0.705586 -0.645545 0.292268
vn 0.705586 -0.645545 0.292268
vn 0.705586 -0.645545 0.292268
vn 0.705588 -0.645543 -0.292267
vn 0.705588 -0.645543 -0.292267
vn 0.705588 -0.645543 -0.292267
vn 0.705588 -0.645543 -0.292267
vn -0.298357 0.626214 0.720305
vn -0.298357 0.626214 0.720304
vn -0.298357 0.626214 0.720304
vn -0.298357 0.626214 0.720304
vn 0.298358 0.626214 0.720305
vn 0.298358 0.626214 0.720305
vn 0.298358 0.626214 0.720305
vn 0.298358 0.626214 0.720305
vn 0.720303 0.626216 0.298357
vn 0.720303 0.626216 0.298357
vn 0.720303 0.626216 0.298357
vn 0.720303 0.626216 0.298357
vn 0.720302 0.626216 -0.298361
vn 0.720302 0.626216 -0.298361
vn 0.720302 0.626216 -0.298361
vn 0.720302 0.626216 -0.298361
vn 0.298358 0.626214 -0.720305
vn 0.298358 0.626214 -0.720305
vn 0.298358 0.626214 -0.720305
vn 0.298358 0.626214 -0.720305
vn -0.298357 0.626214 -0.720304
vn -0.298357 0.626214 -0.720304
vn -0.298357 0.626214 -0.720304
vn -0.298357 0.626214 -0.720304
vn -0.720301 0.626218 -0.298358
vn -0.720301 0.626218 -0.298358
vn -0.720301 0.626218 -0.298358
vn -0.720301 0.626218 -0.298358
vn -0.720303 0.626218 0.298355
vn -0.720303 0.626218 0.298355
vn -0.720303 0.626218 0.298355
vn -0.720303 0.626218 0.298355
s off
f 1/9/1 2/10/2 10/19/3 9/18/4
f 2/10/5 3/11/6 11/20/7 10/19/8
f 3/11/9 4/12/10 12/21/11 11/20/12
f 4/12/13 5/13/14 13/22/15 12/21/16
f 5/13/17 6/14/18 14/23/19 13/22/20
f 6/14/21 7/15/22 15/24/23 14/23/24
f 7/15/25 8/16/26 16/25/27 15/24/28
f 8/16/29 1/17/30 9/26/31 16/25/32
f 18/37/33 17/38/34 19/35/35
f 20/39/36 18/37/37 19/35/38
f 21/40/39 20/39/40 19/35/41
f 22/41/42 21/40/43 19/35/44
f 23/42/45 22/41/46 19/35/47
f 24/43/48 23/42/49 19/35/50
f 25/44/51 24/43/52 19/35/53
f 17/38/54 25/44/55 19/35/56
f 26/45/57 27/46/58 28/36/59
f 27/46/60 29/47/61 28/36/62
f 29/47/63 30/48/64 28/36/65
f 30/48/66 31/49/67 28/36/68
f 31/49/69 32/50/70 28/36/71
f 32/50/72 33/51/73 28/36/74
f 33/51/75 34/52/76 28/36/77
f 34/52/78 26/45/79 28/36/80
f 2/2/81 1/1/82 17/38/83 18/37/84
f 3/3/85 2/2/86 18/37/87 20/39/88
f 4/4/89 3/3/90 20/39/91 21/40/92
f 5/5/93 4/4/94 21/40/95 22/41/96
f 6/6/97 5/5/98 22/41/99 23/42/100
f 7/7/101 6/6/102 23/42/103 24/43/104
f 8/8/105 7/7/106 24/43/107 25/44/108
f 1/1/109 8/8/110 25/44/111 17/38/112
f 9/33/113 10/32/114 27/46/115 26/45/116
f 10/32/117 11/31/118 29/47/119 27/46/120
f 11/31/121 12/30/122 30/48/123 29/47/124
f 12/30/125 13/29/126 31/49/127 30/48/128
f 13/29/129 14/28/130 32/50/131 31/49/132
f 14/28/133 15/27/134 33/51/135 32/50/136
f 15/27/137 16/34/138 34/52/139 33/51/140
f 16/34/141 9/33/142 26/45/143 34/52/144
