# This file uses centimeters as units for non-parametric coordinates.

v -17.985931 0.000000 -25.288715
v 17.985931 0.000000 -25.288715
v -16.145802 10.363998 -10.690743
v 16.145802 10.363998 -10.690743
v 16.145802 10.364000 -25.288715
v -16.145802 10.364000 -25.288715
v -16.145802 39.487072 -25.288715
v 16.145802 39.487072 -25.288715
v 16.145802 39.487072 -10.690743
v -16.145802 39.487072 -10.690743
v 0.000000 39.487072 6.672641
v 0.000000 39.487072 -0.216776
v -3.444720 39.487072 3.274549
v 3.444720 39.487072 3.274549
v -1.640009 38.691189 3.250136
v 0.000000 38.691189 1.587934
v 1.640009 38.691189 3.250136
v 0.000000 38.691189 4.867955
v -1.198498 37.362263 3.244149
v 0.000000 37.362263 2.029447
v 1.198498 37.362263 3.244149
v 0.000000 37.362263 4.426445
v -13.381380 24.925535 -10.690743
v 13.381380 24.925535 -10.690743
v 13.381380 24.925537 -25.288715
v -13.381380 24.925537 -25.288715
v 14.978902 58.401997 -25.288715
v 13.446417 42.641174 -25.288715
v -13.446417 42.641174 -25.288715
v -14.978902 58.401997 -25.288715
v 13.446417 42.641174 16.866985
v -13.446417 42.641174 16.866985
v 14.978902 58.401997 16.866985
v -14.978902 58.401997 16.866985
v 13.446417 42.641174 -27.888714
v -13.446417 42.641174 -27.888714
v 13.446417 42.641174 19.466993
v -13.446417 42.641174 19.466993
v 14.978902 61.001991 -25.288971
v 14.761915 58.402252 -27.888714
v -14.978902 61.001991 -25.288971
v -14.761915 58.402252 -27.888714
v 14.978902 61.001991 16.867252
v 14.761915 58.402252 19.466993
v -14.978902 61.001991 16.867252
v -14.761915 58.402252 19.466993
v 16.534855 0.000000 16.866985
v 17.985931 0.000000 15.438265
v 14.694727 10.363998 16.866985
v 16.145802 10.363998 15.438265
v -17.985931 0.000000 15.438265
v -16.534855 0.000000 16.866985
v -14.694727 10.363998 16.866985
v -16.145802 10.363998 15.438265
v 16.482567 58.401997 -25.288715
v 17.888111 57.396481 -25.288715
v 17.847265 56.976635 15.434904
v 16.518206 58.401997 16.866985
v 15.135538 39.487072 16.866985
v 16.145802 39.487072 15.438265
v -16.482567 58.401997 -25.288715
v -17.888111 57.396481 -25.288715
v -17.840364 56.905697 15.363625
v -16.518206 58.401997 16.866985
v -15.135538 39.487072 16.866985
v -16.145802 39.487072 15.438265
v 5.698804 47.541176 19.466993
v -5.698804 47.541176 19.466993
v 5.698807 53.502251 19.466993
v -5.698807 53.502251 19.466993
vt 0.080452 0.300998
vt 0.080189 0.300924
vt 0.080161 0.300743
vt 0.080487 0.300818
vt 0.080305 0.300882
vt 0.080565 0.300950
vt 0.080280 0.301035
vt 0.080586 0.301129
vt 0.080477 0.301186
vt 0.080616 0.300522
vt 0.080314 0.300478
vt 0.080325 0.300671
vt 0.080593 0.300724
vt 0.080177 0.300864
vt 0.079898 0.300790
vt 0.079874 0.300567
vt 0.080189 0.300628
vt 0.079691 0.228732
vt 0.079765 0.228730
vt 0.079493 0.228729
vt 0.079418 0.228732
vt 0.080219 0.300581
vt 0.079898 0.300523
vt 0.080291 0.300450
vt 0.080600 0.300492
vt 0.080225 0.300808
vt 0.079881 0.228365
vt 0.080078 0.228383
vt 0.079827 0.228511
vt 0.079727 0.228506
vt 0.080305 0.300677
vt 0.080574 0.300731
vt 0.122181 0.375833
vt 0.121333 0.375734
vt 0.121265 0.375211
vt 0.122227 0.375296
vt 0.121295 0.375104
vt 0.122265 0.375183
vt 0.122961 0.382558
vt 0.123931 0.382460
vt 0.123853 0.382946
vt 0.123007 0.383049
vt 0.123909 0.382346
vt 0.122930 0.382440
vt 0.080264 0.301139
vt 0.080166 0.301083
vt 0.080291 0.300482
vt 0.080280 0.300709
vt 0.080264 0.300490
vt 0.080158 0.300810
vt 0.080601 0.300777
vt 0.080204 0.300855
vt 0.080228 0.300828
vt 0.080161 0.300829
vt 0.080224 0.300907
vt 0.079933 0.301180
vt 0.080600 0.301253
vt 0.080270 0.301443
vt 0.079925 0.301306
vt 0.080224 0.301304
vt 0.079923 0.301295
vt 0.079935 0.301191
vt 0.080244 0.301444
vt 0.080250 0.301303
vt 0.080277 0.300480
vt 0.079912 0.300821
vt 0.079915 0.300813
vt 0.080631 0.300545
vt 0.080268 0.300646
vt 0.080248 0.300903
vt 0.079887 0.300571
vt 0.079885 0.300558
vt 0.079925 0.300783
vt 0.080220 0.300621
vt 0.079900 0.300561
vt 0.080616 0.300530
vt 0.080238 0.300625
vt 0.080599 0.300527
vt 0.079311 0.228387
vt 0.079456 0.228512
vt 0.079078 0.228369
vt 0.079351 0.228507
vt 0.122181 0.375833
vt 0.121333 0.375734
vt 0.121265 0.375211
vt 0.122227 0.375296
vt 0.398696 0.422461
vt 0.397709 0.422450
vt 0.397704 0.421935
vt 0.398704 0.421940
vn 0.000000 0.000000 1.000000
vn 0.000000 0.000000 1.000000
vn 0.000000 0.000000 1.000000
vn 0.000000 0.000000 1.000000
vn 0.000000 0.000000 -1.000000
vn 0.000000 0.000000 -1.000000
vn 0.000000 0.000000 -1.000000
vn 0.000000 0.000000 -1.000000
vn 0.982453 -0.186513 0.000000
vn 0.982453 -0.186513 0.000000
vn 0.982453 -0.186513 0.000000
vn 0.982453 -0.186513 0.000000
vn -0.982453 -0.186513 0.000000
vn -0.982453 -0.186513 0.000000
vn -0.982453 -0.186513 0.000000
vn -0.982453 -0.186513 0.000000
vn 0.000000 0.000000 1.000000
vn 0.000000 0.000000 1.000000
vn 0.000000 0.000000 1.000000
vn 0.000000 0.000000 1.000000
vn 0.984601 0.174816 0.000000
vn 0.984601 0.174816 0.000000
vn 0.984601 0.174816 0.000000
vn 0.000000 0.000000 -1.000000
vn 0.000000 0.000000 -1.000000
vn 0.000000 0.000000 -1.000000
vn 0.000000 0.000000 -1.000000
vn -0.984601 0.174816 0.000000
vn -0.984601 0.174816 0.000000
vn -0.984601 0.174816 0.000000
vn 0.000000 -1.000000 0.000000
vn 0.000000 -1.000000 0.000000
vn 0.000000 -1.000000 0.000000
vn 0.000000 -1.000000 0.000000
vn 0.984601 0.174816 0.000000
vn 0.984601 0.174816 0.000000
vn 0.984601 0.174816 0.000000
vn 0.984601 0.174816 0.000000
vn -0.984601 0.174816 0.000000
vn -0.984601 0.174816 0.000000
vn -0.984601 0.174816 0.000000
vn -0.984601 0.174816 0.000000
vn 0.000000 0.000000 -1.000000
vn 0.000000 0.000000 -1.000000
vn 0.000000 0.000000 -1.000000
vn 0.000000 0.000000 -1.000000
vn 0.995301 -0.096828 0.000000
vn 0.995301 -0.096828 0.000000
vn 0.995301 -0.096828 0.000000
vn 0.000000 0.000000 1.000000
vn 0.000000 0.000000 1.000000
vn 0.000000 0.000000 1.000000
vn 0.000000 0.000000 1.000000
vn -0.995301 -0.096828 0.000000
vn -0.995301 -0.096828 0.000000
vn -0.995301 -0.096828 0.000000
vn 0.000000 -1.000000 0.000000
vn 0.000000 -1.000000 0.000000
vn 0.000000 -1.000000 0.000000
vn 0.000000 -1.000000 0.000000
vn 0.000000 1.000000 0.000000
vn 0.000000 1.000000 0.000000
vn 0.000000 1.000000 0.000000
vn 0.000000 1.000000 0.000000
vn 0.000000 -1.000000 0.000000
vn 0.000000 -1.000000 0.000000
vn 0.000000 -1.000000 0.000000
vn 0.000000 -1.000000 0.000000
vn 0.000000 -1.000000 0.000000
vn 0.000000 -1.000000 0.000000
vn -0.378534 -0.846890 -0.373483
vn -0.378534 -0.846890 -0.373483
vn -0.378534 -0.846890 -0.373483
vn -0.378534 -0.846890 -0.373483
vn 0.378534 -0.846890 -0.373483
vn 0.378534 -0.846890 -0.373483
vn 0.378534 -0.846890 -0.373483
vn 0.378534 -0.846890 -0.373483
vn 0.369828 -0.850103 0.374903
vn 0.369828 -0.850103 0.374903
vn 0.369828 -0.850103 0.374903
vn 0.369828 -0.850103 0.374903
vn -0.369828 -0.850103 0.374903
vn -0.369828 -0.850103 0.374903
vn -0.369828 -0.850103 0.374903
vn -0.369828 -0.850103 0.374903
vn -0.693219 -0.227234 -0.683968
vn -0.693219 -0.227234 -0.683968
vn -0.693219 -0.227234 -0.683968
vn -0.693219 -0.227234 -0.683968
vn 0.693219 -0.227234 -0.683968
vn 0.693219 -0.227234 -0.683968
vn 0.693219 -0.227234 -0.683968
vn 0.693219 -0.227234 -0.683968
vn 0.683419 -0.230169 0.692792
vn 0.683419 -0.230169 0.692792
vn 0.683419 -0.230169 0.692792
vn 0.683419 -0.230169 0.692792
vn -0.683419 -0.230169 0.692792
vn -0.683419 -0.230169 0.692792
vn -0.683419 -0.230169 0.692792
vn -0.683419 -0.230169 0.692792
vn 0.000000 0.000000 1.000000
vn 0.000000 0.000000 1.000000
vn 0.000000 0.000000 1.000000
vn 0.000000 0.000000 1.000000
vn 0.982453 0.186513 0.000000
vn 0.982453 0.186513 0.000000
vn 0.982453 0.186513 0.000000
vn 0.982453 0.186513 0.000000
vn 0.000000 0.000000 -1.000000
vn 0.000000 0.000000 -1.000000
vn 0.000000 0.000000 -1.000000
vn 0.000000 0.000000 -1.000000
vn -0.982453 0.186513 0.000000
vn -0.982453 0.186513 0.000000
vn -0.982453 0.186513 0.000000
vn -0.982453 0.186513 0.000000
vn 0.000000 -1.000000 0.000000
vn 0.000000 -1.000000 0.000000
vn 0.000000 -1.000000 0.000000
vn 0.000000 -1.000000 0.000001
vn 0.000000 -1.000000 0.000001
vn 0.000000 -1.000000 0.000001
vn 0.000000 -1.000000 0.000001
vn 0.000000 -1.000000 0.000000
vn 0.000000 -1.000000 0.000000
vn 0.000000 -1.000000 0.000000
vn 0.000000 -1.000000 0.000000
vn 0.000000 -1.000000 0.000000
vn 0.000000 -1.000000 0.000000
vn 0.000000 -1.000000 0.000001
vn 0.000000 -1.000000 0.000001
vn 0.000000 -1.000000 0.000001
vn 0.000000 0.000000 -1.000000
vn 0.000000 0.000000 -1.000000
vn 0.000000 0.000000 -1.000000
vn 0.000000 0.000000 -1.000000
vn 0.000000 0.000000 -1.000000
vn 0.000000 0.000000 -1.000000
vn 0.000000 0.000000 -1.000000
vn 0.000000 0.000000 -1.000000
vn 0.000000 0.000000 -1.000000
vn 0.995084 -0.089905 -0.041527
vn 0.995084 -0.089905 -0.041527
vn 0.995084 -0.089905 -0.041527
vn 0.995084 -0.089905 -0.041527
vn 0.000000 -1.000000 0.000000
vn 0.000000 -1.000000 0.000000
vn 0.000000 -1.000000 0.000000
vn 0.000000 -1.000000 0.000000
vn -0.995084 -0.089905 -0.041527
vn -0.995084 -0.089905 -0.041527
vn -0.995084 -0.089905 -0.041527
vn -0.995084 -0.089905 -0.041527
vn 0.000000 -1.000000 0.000000
vn 0.000000 -1.000000 0.000000
vn 0.000000 -1.000000 0.000000
vn 0.000000 -1.000000 0.000000
vn 0.995084 -0.089905 0.041527
vn 0.995084 -0.089905 0.041527
vn 0.995084 -0.089905 0.041527
vn 0.995084 -0.089905 0.041527
vn -0.995084 -0.089905 0.041527
vn -0.995084 -0.089905 0.041527
vn -0.995084 -0.089905 0.041527
vn -0.995084 -0.089905 0.041527
vn 1.000000 0.000001 0.000000
vn 1.000000 0.000001 0.000000
vn 1.000000 0.000001 0.000000
vn 1.000000 0.000001 0.000000
vn -1.000000 0.000001 0.000000
vn -1.000000 0.000001 0.000000
vn -1.000000 0.000001 0.000000
vn -1.000000 0.000001 0.000000
vn 0.000000 0.707107 -0.707106
vn 0.000000 0.707107 -0.707106
vn 0.000000 0.707107 -0.707106
vn 0.000000 0.707107 -0.707106
vn 0.000000 0.707106 0.707107
vn 0.000000 0.707106 0.707107
vn 0.000000 0.707106 0.707107
vn 0.000000 0.707106 0.707107
vn 0.996536 -0.000009 -0.083168
vn 0.996536 -0.000009 -0.083168
vn 0.996536 -0.000009 -0.083168
vn -0.996536 -0.000009 -0.083168
vn -0.996536 -0.000009 -0.083168
vn -0.996536 -0.000009 -0.083168
vn 0.996536 -0.000009 0.083167
vn 0.996536 -0.000009 0.083167
vn 0.996536 -0.000009 0.083167
vn -0.996536 -0.000009 0.083167
vn -0.996536 -0.000009 0.083167
vn -0.996536 -0.000009 0.083167
vn 0.000000 1.000000 0.000000
vn 0.000000 1.000000 0.000000
vn 0.000000 1.000000 0.000000
vn 0.000000 1.000000 0.000000
vn -0.000000 0.000000 -1.000000
vn -0.000000 0.000000 -1.000000
vn -0.000000 0.000000 -1.000000
vn -0.000000 0.000000 -1.000000
vn -0.000000 0.000000 -1.000000
vn 0.000000 0.000000 1.000000
vn 0.000000 0.000000 1.000000
vn 0.000000 0.000000 1.000000
vn 0.000000 0.000000 1.000000
vn 0.000000 -1.000000 0.000000
vn 0.000000 -1.000000 0.000000
vn 0.000000 -1.000000 0.000000
vn 0.000000 -1.000000 0.000000
vn 0.696216 0.123613 0.707109
vn 0.696216 0.123613 0.707109
vn 0.696216 0.123613 0.707109
vn 0.696216 0.123613 0.707109
vn -0.696216 0.123613 0.707109
vn -0.696216 0.123613 0.707109
vn -0.696216 0.123613 0.707109
vn -0.696216 0.123613 0.707109
vn 0.665495 0.746393 0.003823
vn 0.665495 0.746393 0.003823
vn 0.665495 0.746393 0.003823
vn 0.665495 0.746393 0.003823
vn 0.756673 -0.064044 0.650649
vn 0.756673 -0.064044 0.650649
vn 0.756673 -0.064044 0.650649
vn 0.756673 -0.064044 0.650649
vn -0.677260 0.735730 0.004460
vn -0.677260 0.735730 0.004460
vn -0.677260 0.735730 0.004460
vn -0.677260 0.735730 0.004460
vn -0.764980 -0.063473 0.640919
vn -0.764980 -0.063473 0.640919
vn -0.764980 -0.063473 0.640919
vn -0.764980 -0.063473 0.640919
vn 0.995301 -0.096827 0.000000
vn 0.995301 -0.096827 0.000000
vn 0.995301 -0.096827 0.000000
vn 0.995301 -0.096827 0.000000
vn -0.995301 -0.096827 0.000000
vn -0.995301 -0.096827 0.000000
vn -0.995301 -0.096827 0.000000
vn -0.995301 -0.096827 0.000000
vn -0.000001 0.000000 1.000000
vn -0.000001 0.000000 1.000000
vn -0.000001 0.000000 1.000000
vn -0.000001 0.000000 1.000000
vn 0.000001 0.000000 1.000000
vn 0.000001 0.000000 1.000000
vn 0.000001 0.000000 1.000000
vn 0.000001 0.000000 1.000000
vn 0.000000 1.000000 0.000000
vn 0.000000 1.000000 0.000000
vn 0.000000 1.000000 0.000000
vn 0.000000 1.000000 0.000000
vn 0.000000 1.000000 0.000000
vn 0.000000 1.000000 0.000000
vn 0.000000 1.000000 0.000000
vn 0.000000 1.000000 0.000000
vn -0.000000 0.000000 1.000000
vn 0.000000 0.000000 1.000000
vn 0.000000 0.000000 1.000000
vn 0.000000 0.000000 1.000000
vn 0.000000 0.000000 1.000000
vn 0.000000 0.000000 1.000000
vn 0.000000 0.000000 1.000000
vn 0.000000 0.000000 1.000000
vn 0.000000 0.000000 1.000000
vn -0.000000 0.000000 1.000000
vn 0.000000 0.000000 1.000000
vn 0.000000 0.000000 1.000000
vn -0.000000 0.000000 1.000000
vn -0.000000 0.000000 1.000000
vn 0.000000 0.000000 1.000000
vn 0.000000 0.000000 1.000000
vn 0.000000 1.000000 0.000000
vn 0.000000 1.000000 0.000000
vn 0.000000 1.000000 0.000000
vn 0.000000 1.000000 0.000000
vn 0.000000 -1.000000 0.000000
vn 0.000000 -1.000000 0.000000
vn 0.000000 -1.000000 0.000000
vn 0.000000 -1.000000 0.000000
s off
f 23/1/1 24/2/2 9/3/3 10/4/4
f 7/51/5 8/48/6 25/5/7 26/6/8
f 24/2/9 25/5/10 8/48/11 9/3/12
f 26/6/13 23/1/14 10/4/15 7/51/16
f 47/59/17 49/62/18 53/60/19 52/63/20
f 2/45/21 5/7/22 4/46/23
f 5/7/24 2/45/25 1/57/26 6/8/27
f 1/57/28 3/9/29 6/8/30
f 51/58/31 48/61/32 47/59/33 52/63/34
f 2/45/35 4/46/36 50/56/37 48/61/38
f 3/9/39 1/57/40 51/58/41 54/64/42
f 42/39/43 40/40/44 35/41/45 36/42/46
f 9/3/47 8/48/48 56/49/49
f 68/87/50 67/88/51 69/89/52 70/90/53
f 7/51/54 10/4/55 62/68/56
f 19/18/57 20/19/58 21/20/59 22/21/60
f 45/22/61 43/23/62 39/24/63 41/25/64
f 11/54/65 59/66/66 65/55/67
f 13/53/68 66/70/69 10/4/70
f 13/27/71 12/28/72 16/29/73 15/30/74
f 12/28/75 14/79/76 17/80/77 16/29/78
f 14/79/79 11/81/80 18/82/81 17/80/82
f 11/81/83 13/27/84 15/30/85 18/82/86
f 15/30/87 16/29/88 20/19/89 19/18/90
f 16/29/91 17/80/92 21/20/93 20/19/94
f 17/80/95 18/82/96 22/21/97 21/20/98
f 18/82/99 15/30/100 19/18/101 22/21/102
f 3/9/103 4/46/104 24/2/105 23/1/106
f 4/46/107 5/7/108 25/5/109 24/2/110
f 25/5/111 5/7/112 6/8/113 26/6/114
f 6/8/115 3/9/116 23/1/117 26/6/118
f 9/3/119 60/67/120 14/50/121
f 11/54/122 14/50/123 60/67/124 59/66/125
f 10/4/126 9/3/127 12/26/128
f 12/26/129 9/3/130 14/50/131
f 10/4/132 12/26/133 13/53/134
f 8/48/135 7/51/136 29/32/137 28/31/138
f 7/51/139 62/68/140 61/76/141 30/78/142 29/32/143
f 27/47/144 28/31/145 35/12/146 40/11/147
f 28/31/148 29/32/149 36/13/150 35/12/151
f 29/32/152 30/78/153 42/10/154 36/13/155
f 32/52/156 31/73/157 37/15/158 38/14/159
f 31/73/160 33/75/161 44/16/162 37/15/163
f 34/74/164 32/52/165 38/14/166 46/17/167
f 33/75/168 27/47/169 39/24/170 43/23/171
f 30/78/172 34/74/173 45/22/174 41/25/175
f 39/43/176 40/40/177 42/39/178 41/44/179
f 44/35/180 43/37/181 45/38/182 46/36/183
f 39/24/184 27/47/185 40/11/186
f 41/25/187 42/10/188 30/78/189
f 43/23/190 44/16/191 33/75/192
f 45/22/193 34/74/194 46/17/195
f 54/64/196 50/56/197 4/46/198 3/9/199
f 55/65/200 56/49/201 8/48/202 28/31/203 27/47/204
f 65/55/205 59/66/206 31/73/207 32/52/208
f 65/55/209 66/70/210 13/53/211 11/54/212
f 47/59/213 48/61/214 50/56/215 49/62/216
f 51/58/217 52/63/218 53/60/219 54/64/220
f 56/49/221 55/65/222 58/72/223 57/71/224
f 57/71/225 58/72/226 59/66/227 60/67/228
f 61/76/229 62/68/230 63/69/231 64/77/232
f 64/77/233 63/69/234 66/70/235 65/55/236
f 57/71/237 60/67/238 9/3/239 56/49/240
f 66/70/241 63/69/242 62/68/243 10/4/244
f 59/66/245 58/72/246 33/75/247 31/73/248
f 64/77/249 65/55/250 32/52/251 34/74/252
f 58/72/253 55/65/254 27/47/255 33/75/256
f 61/76/257 64/77/258 34/74/259 30/78/260
f 38/33/261 37/34/262 67/84/263 68/83/264
f 37/34/265 44/35/266 69/85/267 67/84/268
f 44/35/269 46/36/270 70/86/271 69/85/272
f 46/36/273 38/33/274 68/83/275 70/86/276
f 49/62/277 50/56/278 54/64/279 53/60/280
f 2/45/281 48/61/282 51/58/283 1/57/284
