# This file uses centimeters as units for non-parametric coordinates.

v 3.059902 0.000000 -3.059902
v 0.000000 0.000000 -4.327355
v -3.059902 0.000000 -3.059902
v -4.327355 0.000000 0.000000
v -3.059902 0.000000 3.059902
v 0.000000 0.000000 4.327355
v 3.059903 0.000000 3.059903
v 4.327356 0.000000 0.000000
v 3.059902 27.210487 -3.059902
v 0.000000 27.210487 -4.327355
v -3.059902 27.210487 -3.059902
v -4.327355 27.210487 0.000000
v -3.059902 27.210487 3.059902
v 0.000000 27.210487 4.327355
v 3.059903 27.210487 3.059903
v 4.327356 27.210487 0.000000
v 4.200319 24.661936 -4.200319
v 5.940149 24.661936 0.000000
v 4.200320 24.661936 4.200320
v -0.000000 24.661936 5.940149
v -4.200320 24.661936 4.200319
v -5.940149 24.661936 0.000000
v -4.200320 24.661936 -4.200319
v -0.000000 24.661936 -5.940149
v 4.200319 2.858788 -4.200319
v -0.000000 2.858788 -5.940150
v -4.200320 2.858788 -4.200319
v -5.940150 2.858788 0.000000
v -4.200320 2.858788 4.200319
v -0.000000 2.858788 5.940150
v 4.200320 2.858788 4.200320
v 5.940150 2.858788 0.000000
v -0.739104 12.235736 -5.634003
v -3.461216 12.235736 -4.506466
v -3.461216 15.284989 -4.506466
v -0.739104 15.284989 -5.634002
v 0.739104 12.235736 5.634003
v 3.461216 12.235736 4.506467
v 3.461216 15.284989 4.506467
v 0.739104 15.284989 5.634003
v 0.000000 27.210487 0.000000
v 0.000000 0.000000 0.000000
vt 0.112739 0.183398
vt 0.112893 0.183394
vt 0.112895 0.182643
vt 0.112738 0.182644
vt 0.113023 0.183409
vt 0.113028 0.182647
vt 0.113057 0.183436
vt 0.113062 0.182655
vt 0.112967 0.183458
vt 0.112970 0.182661
vt 0.112803 0.183463
vt 0.112804 0.182662
vt 0.112669 0.183447
vt 0.112667 0.182658
vt 0.112645 0.183420
vt 0.112643 0.182650
vt 0.112768 0.183504
vt 0.112701 0.183521
vt 0.112719 0.183542
vt 0.112816 0.183555
vt 0.112934 0.183552
vt 0.112999 0.183534
vt 0.112976 0.183512
vt 0.112881 0.183500
vt 0.112768 0.182556
vt 0.112883 0.182555
vt 0.112981 0.182557
vt 0.113005 0.182561
vt 0.112937 0.182564
vt 0.112817 0.182565
vt 0.112718 0.182563
vt 0.112699 0.182559
vt 0.114077 0.202915
vt 0.114263 0.202909
vt 0.114265 0.201996
vt 0.114076 0.201996
vt 0.114425 0.202926
vt 0.114432 0.201996
vt 0.114475 0.202958
vt 0.114483 0.201995
vt 0.114372 0.202988
vt 0.114377 0.201995
vt 0.114171 0.202995
vt 0.114172 0.201995
vt 0.114002 0.202975
vt 0.113998 0.201995
vt 0.113968 0.202942
vt 0.113963 0.201995
vt 0.114263 0.202909
vt 0.114425 0.202926
vt 0.114432 0.201996
vt 0.114265 0.201996
vt 0.114171 0.202995
vt 0.114002 0.202975
vt 0.113998 0.201995
vt 0.114172 0.201995
vt 0.138893 0.423446
vt 0.139283 0.423469
vt 0.139286 0.423041
vt 0.138892 0.423023
vt 0.138736 0.423757
vt 0.138294 0.423726
vt 0.138286 0.423239
vt 0.138733 0.423264
vt 0.112850 0.182560
vt 0.112848 0.183528
vn 0.382684 0.000000 -0.923879
vn 0.382684 0.000000 -0.923879
vn 0.382684 0.000000 -0.923879
vn 0.382684 0.000000 -0.923879
vn -0.382684 0.000000 -0.923880
vn -0.382684 0.000000 -0.923880
vn -0.382684 0.000000 -0.923880
vn -0.382684 0.000000 -0.923880
vn -0.923880 0.000000 -0.382684
vn -0.923880 0.000000 -0.382684
vn -0.923880 0.000000 -0.382684
vn -0.923880 0.000000 -0.382684
vn -0.923880 0.000000 0.382684
vn -0.923880 0.000000 0.382684
vn -0.923880 0.000000 0.382684
vn -0.923880 0.000000 0.382684
vn -0.382684 0.000000 0.923879
vn -0.382684 0.000000 0.923879
vn -0.382684 0.000000 0.923879
vn -0.382684 0.000000 0.923879
vn 0.382683 0.000000 0.923880
vn 0.382683 0.000000 0.923880
vn 0.382683 0.000000 0.923880
vn 0.382683 0.000000 0.923880
vn 0.923880 0.000000 0.382683
vn 0.923880 0.000000 0.382683
vn 0.923880 0.000000 0.382683
vn 0.923880 0.000000 0.382683
vn 0.923879 0.000000 -0.382684
vn 0.923879 0.000000 -0.382684
vn 0.923879 0.000000 -0.382684
vn 0.923879 0.000000 -0.382684
vn 0.000000 -1.000000 0.000000
vn 0.000000 -1.000000 0.000000
vn 0.000000 -1.000000 0.000000
vn 0.000000 -1.000000 0.000000
vn 0.000000 1.000000 0.000000
vn 0.000000 1.000000 -0.000000
vn 0.000000 1.000000 0.000000
vn 0.000000 1.000000 0.000000
vn 0.797568 0.504723 -0.330364
vn 0.797568 0.504723 -0.330364
vn 0.797568 0.504723 -0.330364
vn 0.797568 0.504723 -0.330364
vn 0.797568 0.504723 0.330363
vn 0.797568 0.504723 0.330363
vn 0.797568 0.504723 0.330363
vn 0.797568 0.504723 0.330363
vn 0.330363 0.504723 0.797568
vn 0.330363 0.504723 0.797568
vn 0.330363 0.504723 0.797568
vn 0.330363 0.504723 0.797568
vn -0.330364 0.504723 0.797568
vn -0.330364 0.504723 0.797568
vn -0.330364 0.504723 0.797568
vn -0.330364 0.504723 0.797568
vn -0.797568 0.504723 0.330364
vn -0.797568 0.504723 0.330364
vn -0.797568 0.504723 0.330364
vn -0.797568 0.504723 0.330364
vn -0.797568 0.504723 -0.330363
vn -0.797568 0.504723 -0.330363
vn -0.797568 0.504723 -0.330363
vn -0.797568 0.504723 -0.330363
vn -0.330364 0.504723 -0.797568
vn -0.330364 0.504723 -0.797568
vn -0.330364 0.504723 -0.797568
vn -0.330364 0.504723 -0.797568
vn 0.330364 0.504723 -0.797568
vn 0.330364 0.504723 -0.797568
vn 0.330364 0.504723 -0.797568
vn 0.330364 0.504723 -0.797568
vn 0.339355 -0.462197 -0.819275
vn 0.339355 -0.462197 -0.819275
vn 0.339355 -0.462197 -0.819275
vn 0.339355 -0.462197 -0.819275
vn -0.339355 -0.462197 -0.819275
vn -0.339355 -0.462197 -0.819275
vn -0.339355 -0.462197 -0.819275
vn -0.339355 -0.462197 -0.819275
vn -0.819275 -0.462197 -0.339355
vn -0.819275 -0.462197 -0.339355
vn -0.819275 -0.462197 -0.339355
vn -0.819275 -0.462197 -0.339355
vn -0.819275 -0.462197 0.339355
vn -0.819275 -0.462197 0.339355
vn -0.819275 -0.462197 0.339355
vn -0.819275 -0.462197 0.339355
vn -0.339355 -0.462197 0.819275
vn -0.339355 -0.462197 0.819275
vn -0.339355 -0.462197 0.819275
vn -0.339355 -0.462197 0.819275
vn 0.339355 -0.462197 0.819275
vn 0.339355 -0.462197 0.819275
vn 0.339355 -0.462197 0.819275
vn 0.339355 -0.462197 0.819275
vn 0.819275 -0.462197 0.339355
vn 0.819275 -0.462197 0.339355
vn 0.819275 -0.462197 0.339355
vn 0.819275 -0.462197 0.339355
vn 0.819275 -0.462197 -0.339355
vn 0.819275 -0.462197 -0.339355
vn 0.819275 -0.462197 -0.339355
vn 0.819275 -0.462197 -0.339355
vn -0.382684 0.000000 -0.923880
vn -0.382684 0.000000 -0.923880
vn -0.382684 0.000000 -0.923880
vn -0.382684 0.000000 -0.923880
vn -0.382683 0.000000 -0.923880
vn -0.382683 0.000000 -0.923880
vn -0.382683 0.000000 -0.923880
vn -0.382683 0.000000 -0.923880
vn -0.382684 0.000000 -0.923879
vn -0.382684 0.000000 -0.923879
vn -0.382684 0.000000 -0.923879
vn -0.382684 0.000000 -0.923879
vn -0.382684 0.000000 -0.923879
vn -0.382684 0.000000 -0.923879
vn -0.382684 0.000000 -0.923879
vn -0.382684 0.000000 -0.923879
vn 0.382683 0.000000 0.923880
vn 0.382683 0.000000 0.923880
vn 0.382683 0.000000 0.923880
vn 0.382683 0.000000 0.923880
vn 0.382682 0.000000 0.923880
vn 0.382682 0.000000 0.923880
vn 0.382682 0.000000 0.923880
vn 0.382682 0.000000 0.923880
vn 0.382683 -0.000000 0.923880
vn 0.382683 -0.000000 0.923880
vn 0.382683 -0.000000 0.923880
vn 0.382683 -0.000000 0.923880
vn 0.382684 0.000000 0.923879
vn 0.382684 0.000000 0.923879
vn 0.382684 0.000000 0.923879
vn 0.382684 0.000000 0.923879
vn 0.000000 1.000000 0.000000
vn 0.000000 1.000000 0.000000
vn 0.000000 1.000000 -0.000000
vn 0.000000 1.000000 0.000000
vn 0.000000 1.000000 0.000000
vn 0.000000 1.000000 -0.000000
vn 0.000000 1.000000 0.000000
vn 0.000000 1.000000 0.000000
vn 0.000000 1.000000 0.000000
vn 0.000000 1.000000 -0.000000
vn 0.000000 1.000000 0.000000
vn 0.000000 1.000000 0.000000
vn 0.000000 -1.000000 0.000000
vn 0.000000 -1.000000 0.000000
vn 0.000000 -1.000000 0.000000
vn 0.000000 -1.000000 0.000000
vn 0.000000 -1.000000 0.000000
vn 0.000000 -1.000000 0.000000
vn 0.000000 -1.000000 0.000000
vn 0.000000 -1.000000 0.000000
vn 0.000000 -1.000000 0.000000
vn 0.000000 -1.000000 0.000000
vn 0.000000 -1.000000 0.000000
vn 0.000000 -1.000000 0.000000
s off
f 25/33/1 26/34/2 24/35/3 17/36/4
f 33/57/5 34/58/6 35/59/7 36/60/8
f 27/37/9 28/39/10 22/40/11 23/38/12
f 28/39/13 29/41/14 21/42/15 22/40/16
f 29/41/17 30/43/18 20/44/19 21/42/20
f 37/61/21 38/62/22 39/63/23 40/64/24
f 31/45/25 32/47/26 18/48/27 19/46/28
f 32/47/29 25/33/30 17/36/31 18/48/32
f 42/66/33 8/18/34 7/19/35 6/20/36
f 12/28/37 41/65/38 10/26/39 11/27/40
f 18/16/41 17/4/42 9/25/43 16/32/44
f 19/14/45 18/16/46 16/32/47 15/31/48
f 20/12/49 19/14/50 15/31/51 14/30/52
f 21/10/53 20/12/54 14/30/55 13/29/56
f 22/8/57 21/10/58 13/29/59 12/28/60
f 23/6/61 22/8/62 12/28/63 11/27/64
f 24/3/65 23/6/66 11/27/67 10/26/68
f 17/4/69 24/3/70 10/26/71 9/25/72
f 1/17/73 2/24/74 26/2/75 25/1/76
f 2/24/77 3/23/78 27/5/79 26/2/80
f 3/23/81 4/22/82 28/7/83 27/5/84
f 4/22/85 5/21/86 29/9/87 28/7/88
f 5/21/89 6/20/90 30/11/91 29/9/92
f 6/20/93 7/19/94 31/13/95 30/11/96
f 7/19/97 8/18/98 32/15/99 31/13/100
f 8/18/101 1/17/102 25/1/103 32/15/104
f 26/34/105 27/37/106 34/50/107 33/49/108
f 27/37/109 23/38/110 35/51/111 34/50/112
f 23/38/113 24/35/114 36/52/115 35/51/116
f 24/35/117 26/34/118 33/49/119 36/52/120
f 30/43/121 31/45/122 38/54/123 37/53/124
f 31/45/125 19/46/126 39/55/127 38/54/128
f 19/46/129 20/44/130 40/56/131 39/55/132
f 20/44/133 30/43/134 37/53/135 40/56/136
f 9/25/137 10/26/138 41/65/139 16/32/140
f 14/30/141 41/65/142 12/28/143 13/29/144
f 16/32/145 41/65/146 14/30/147 15/31/148
f 4/22/149 42/66/150 6/20/151 5/21/152
f 2/24/153 42/66/154 4/22/155 3/23/156
f 1/17/157 8/18/158 42/66/159 2/24/160
