# This file uses centimeters as units for non-parametric coordinates.

v 7.239014 -12.548622 1.897659
v -6.693604 -12.306290 3.755356
v 7.238525 -12.454010 3.072586
v -6.479858 -11.926895 4.850204
v 7.173584 0.037292 0.978546
v -7.173615 -0.037292 0.978546
v 7.173584 0.037292 0.000031
v -7.173615 -0.037292 0.000031
v -7.128815 -8.656250 2.868469
v -7.125580 -9.279297 1.721390
v 4.472107 -12.500977 3.074295
v 3.681763 -12.567116 1.897659
v 7.161011 2.455750 1.178314
v -7.186188 2.381165 1.178314
v -7.186188 2.381165 0.000031
v 7.161011 2.455750 0.000031
vt 0.218185 0.469082
vt 0.218186 0.469212
vt 0.217746 0.469190
vt 0.217738 0.469014
vt 0.220035 0.376986
vt 0.220592 0.377225
vt 0.220079 0.377248
vt 0.218738 0.468807
vt 0.218056 0.468676
vt 0.218058 0.468841
vt 0.218731 0.468976
vt 0.217942 0.468971
vt 0.217938 0.468801
vt 0.218731 0.468976
vt 0.218515 0.469264
vt 0.218506 0.469125
vt 0.218738 0.468807
vt 0.220021 0.376384
vt 0.218058 0.468841
vt 0.218056 0.468676
vt 0.221021 0.377212
vt 0.221011 0.376365
vn -0.005227 -0.980850 0.194696
vn -0.005227 -0.980850 0.194696
vn -0.005227 -0.980850 0.194696
vn -0.005227 -0.980850 0.194696
vn 0.162497 0.534708 0.829266
vn 0.162497 0.534708 0.829266
vn 0.162497 0.534708 0.829266
vn -0.005199 0.999987 0.000000
vn -0.005199 0.999987 0.000000
vn -0.005199 0.999987 0.000000
vn -0.005199 0.999987 0.000000
vn -0.987635 -0.085895 0.131143
vn -0.987635 -0.085895 0.131143
vn -0.987635 -0.085895 0.131143
vn -0.987635 -0.085895 0.131143
vn 0.999986 0.005198 -0.000002
vn 0.999986 0.005198 -0.000002
vn 0.999986 0.005198 -0.000002
vn 0.999986 0.005198 -0.000002
vn 0.053666 0.214144 0.975327
vn 0.053666 0.214144 0.975327
vn 0.053666 0.214144 0.975327
vn -0.159048 -0.566166 -0.808801
vn -0.159048 -0.566166 -0.808802
vn -0.159048 -0.566166 -0.808801
vn -0.999987 -0.005197 0.000002
vn -0.999987 -0.005197 0.000002
vn -0.999986 -0.005197 0.000002
vn -0.999987 -0.005197 0.000002
vn -0.039700 -0.183160 -0.982281
vn -0.039700 -0.183160 -0.982281
vn -0.039700 -0.183160 -0.982281
vn -0.001074 0.165086 0.986279
vn -0.001074 0.165086 0.986279
vn -0.001074 0.165086 0.986279
vn -0.001074 0.165086 0.986279
vn 0.010347 -0.997849 0.064737
vn 0.010347 -0.997849 0.064737
vn 0.010347 -0.997849 0.064737
vn 0.010347 -0.997849 0.064737
vn 0.000775 -0.149085 -0.988824
vn 0.000775 -0.149085 -0.988824
vn 0.000775 -0.149085 -0.988824
vn 0.000775 -0.149085 -0.988824
vn 0.000428 -0.082319 0.996606
vn 0.000428 -0.082319 0.996606
vn 0.000428 -0.082319 0.996606
vn 0.000428 -0.082319 0.996606
vn -0.999987 -0.005199 0.000000
vn -0.999986 -0.005199 0.000000
vn -0.999987 -0.005199 0.000000
vn -0.999987 -0.005199 0.000000
vn 0.000000 0.000000 -1.000000
vn 0.000000 0.000000 -1.000000
vn 0.000000 0.000000 -1.000000
vn 0.000000 0.000000 -1.000000
vn 0.999987 0.005199 0.000000
vn 0.999987 0.005199 0.000000
vn 0.999986 0.005199 0.000000
vn 0.999987 0.005199 0.000000
s off
f 11/1/1 4/4/2 2/3/3 12/2/4
f 9/5/5 4/7/6 11/6/7
f 13/8/8 16/11/9 15/10/10 14/9/11
f 10/12/12 2/3/13 4/4/14 9/13/15
f 7/14/16 5/17/17 3/16/18 1/15/19
f 6/18/20 9/5/21 11/6/22
f 12/2/23 2/3/24 10/12/25
f 9/13/26 6/20/27 8/19/28 10/12/29
f 12/2/30 10/12/31 8/19/32
f 3/21/33 5/22/34 6/18/35 11/6/36
f 1/15/37 3/16/38 11/1/39 12/2/40
f 1/15/41 12/2/42 8/19/43 7/14/44
f 5/17/45 13/8/46 14/9/47 6/20/48
f 6/20/49 14/9/50 15/10/51 8/19/52
f 8/19/53 15/10/54 16/11/55 7/14/56
f 7/14/57 16/11/58 13/8/59 5/17/60
