# This file uses centimeters as units for non-parametric coordinates.

v 5.780579 1.273921 -10.012146
v -5.780579 1.273921 -10.012146
v -11.561157 1.273921 -0.000061
v -5.780579 1.273921 10.012268
v 5.780579 1.273921 10.012268
v 11.561157 1.273921 -0.000061
v 5.780579 2.114092 -10.012146
v -5.780579 2.114092 -10.012146
v -11.561157 2.114092 -0.000061
v -5.780579 2.114092 10.012268
v 5.780579 2.114092 10.012268
v 11.561157 2.114092 -0.000061
v 3.214355 0.000010 -5.567444
v -3.214355 0.000010 -5.567444
v 0.000000 0.000010 -0.000061
v -6.428772 0.000010 -0.000061
v -3.214355 0.000010 5.567444
v 3.214355 0.000010 5.567444
v 6.428772 0.000010 -0.000061
v 3.214355 0.840190 -5.567444
v -3.214355 0.840190 -5.567444
v 0.000000 0.840190 -0.000061
v -6.428772 0.840190 -0.000061
v -3.214355 0.840190 5.567444
v 3.214355 0.840190 5.567444
v 6.428772 0.840190 -0.000061
vt 0.403278 0.491389
vt 0.403278 0.491389
vt 0.403278 0.491389
vt 0.403278 0.491389
vt 0.403278 0.491389
vt 0.403278 0.491389
vt 0.403278 0.491389
vt 0.403278 0.491389
vt 0.403278 0.491389
vt 0.403278 0.491389
vt 0.403278 0.491389
vt 0.403278 0.491389
vt 0.403278 0.491389
vt 0.403278 0.491389
vt 0.403278 0.491389
vt 0.403278 0.491389
vt 0.403278 0.491389
vt 0.403278 0.491389
vt 0.403278 0.491389
vt 0.403278 0.491389
vt 0.403278 0.491389
vt 0.403278 0.491389
vt 0.403278 0.491389
vt 0.403278 0.491389
vt 0.403278 0.491389
vt 0.403278 0.491389
vt 0.403278 0.491389
vt 0.403278 0.491389
vt 0.403278 0.491389
vt 0.403278 0.491389
vt 0.403278 0.491389
vt 0.403278 0.491389
vt 0.403278 0.491389
vt 0.403278 0.491389
vt 0.403278 0.491389
vt 0.403278 0.491389
vt 0.403278 0.491389
vt 0.403278 0.491389
vt 0.403278 0.491389
vt 0.403278 0.491389
vn 0.000000 0.000000 -1.000000
vn 0.000000 0.000000 -1.000000
vn 0.000000 0.000000 -1.000000
vn 0.000000 0.000000 -1.000000
vn -0.866022 0.000000 -0.500006
vn -0.866022 0.000000 -0.500006
vn -0.866022 0.000000 -0.500006
vn -0.866022 0.000000 -0.500006
vn -0.866027 0.000000 0.499997
vn -0.866027 0.000000 0.499997
vn -0.866027 0.000000 0.499997
vn -0.866027 0.000000 0.499997
vn 0.000000 0.000000 1.000000
vn 0.000000 0.000000 1.000000
vn 0.000000 0.000000 1.000000
vn 0.000000 0.000000 1.000000
vn 0.866027 0.000000 0.499997
vn 0.866027 0.000000 0.499997
vn 0.866027 0.000000 0.499997
vn 0.866027 0.000000 0.499997
vn 0.866022 0.000000 -0.500006
vn 0.866022 0.000000 -0.500006
vn 0.866022 0.000000 -0.500006
vn 0.866022 0.000000 -0.500006
vn 0.000000 -1.000000 0.000000
vn 0.000000 -1.000000 0.000000
vn 0.000000 -1.000000 0.000000
vn 0.000000 -1.000000 0.000000
vn 0.000000 -1.000000 0.000000
vn 0.000000 -1.000000 0.000000
vn 0.000000 -1.000000 0.000000
vn 0.000000 -1.000000 0.000000
vn 0.000000 -1.000000 0.000000
vn 0.000000 -1.000000 0.000000
vn 0.000000 -1.000000 0.000000
vn 0.000000 -1.000000 0.000000
vn 0.000000 -1.000000 0.000000
vn 0.000000 -1.000000 0.000000
vn 0.000000 -1.000000 0.000000
vn 0.000000 -1.000000 0.000000
vn 0.000000 -1.000000 0.000000
vn 0.000000 -1.000000 0.000000
vn 0.000000 1.000000 0.000000
vn 0.000000 1.000000 0.000000
vn 0.000000 1.000000 0.000000
vn 0.000000 1.000000 0.000000
vn 0.000000 1.000000 0.000000
vn 0.000000 1.000000 0.000000
vn 0.000000 1.000000 0.000000
vn 0.000000 1.000000 0.000000
vn 0.000000 1.000000 0.000000
vn 0.000000 1.000000 0.000000
vn 0.000000 1.000000 0.000000
vn 0.000000 1.000000 0.000000
vn 0.000000 1.000000 0.000000
vn 0.000000 1.000000 0.000000
vn 0.000000 1.000000 0.000000
vn 0.000000 1.000000 0.000000
vn 0.000000 1.000000 0.000000
vn 0.000000 1.000000 0.000000
vn 0.000000 -0.961295 -0.275520
vn 0.000000 -0.961295 -0.275520
vn 0.000000 -0.961295 -0.275520
vn 0.000000 -0.961295 -0.275520
vn -0.238603 -0.961296 -0.137760
vn -0.238603 -0.961296 -0.137760
vn -0.238603 -0.961296 -0.137760
vn -0.238603 -0.961297 -0.137760
vn -0.238603 -0.961297 0.137757
vn -0.238603 -0.961297 0.137757
vn -0.238603 -0.961297 0.137757
vn -0.238603 -0.961297 0.137757
vn 0.000000 -0.961297 0.275513
vn 0.000000 -0.961297 0.275513
vn 0.000000 -0.961297 0.275513
vn 0.000000 -0.961297 0.275513
vn 0.238603 -0.961297 0.137757
vn 0.238603 -0.961297 0.137757
vn 0.238603 -0.961297 0.137757
vn 0.238603 -0.961297 0.137757
vn 0.238603 -0.961296 -0.137760
vn 0.238603 -0.961296 -0.137760
vn 0.238603 -0.961297 -0.137760
vn 0.238603 -0.961296 -0.137760
vn 0.000000 0.961296 0.275518
vn 0.000000 0.961296 0.275518
vn 0.000000 0.961296 0.275518
vn 0.000000 0.961296 0.275518
vn 0.238601 0.961297 0.137759
vn 0.238601 0.961297 0.137759
vn 0.238601 0.961297 0.137759
vn 0.238601 0.961297 0.137759
vn 0.238601 0.961297 -0.137756
vn 0.238601 0.961297 -0.137756
vn 0.238601 0.961297 -0.137756
vn 0.238601 0.961298 -0.137756
vn 0.000000 0.961298 -0.275511
vn 0.000000 0.961298 -0.275511
vn 0.000000 0.961298 -0.275511
vn 0.000000 0.961298 -0.275511
vn -0.238601 0.961297 -0.137756
vn -0.238601 0.961297 -0.137756
vn -0.238601 0.961298 -0.137756
vn -0.238601 0.961297 -0.137756
vn -0.238601 0.961297 0.137759
vn -0.238601 0.961297 0.137759
vn -0.238601 0.961297 0.137759
vn -0.238601 0.961297 0.137759
s off
f 1/7/1 2/8/2 8/15/3 7/14/4
f 2/8/5 3/9/6 9/16/7 8/15/8
f 3/9/9 4/10/10 10/17/11 9/16/12
f 4/10/13 5/11/14 11/18/15 10/17/16
f 5/11/17 6/12/18 12/19/19 11/18/20
f 6/12/21 1/13/22 7/20/23 12/19/24
f 14/29/25 13/30/26 15/27/27
f 16/31/28 14/29/29 15/27/30
f 17/32/31 16/31/32 15/27/33
f 18/33/34 17/32/35 15/27/36
f 19/34/37 18/33/38 15/27/39
f 13/30/40 19/34/41 15/27/42
f 20/35/43 21/36/44 22/28/45
f 21/36/46 23/37/47 22/28/48
f 23/37/49 24/38/50 22/28/51
f 24/38/52 25/39/53 22/28/54
f 25/39/55 26/40/56 22/28/57
f 26/40/58 20/35/59 22/28/60
f 2/2/61 1/1/62 13/30/63 14/29/64
f 3/3/65 2/2/66 14/29/67 16/31/68
f 4/4/69 3/3/70 16/31/71 17/32/72
f 5/5/73 4/4/74 17/32/75 18/33/76
f 6/6/77 5/5/78 18/33/79 19/34/80
f 1/1/81 6/6/82 19/34/83 13/30/84
f 7/25/85 8/24/86 21/36/87 20/35/88
f 8/24/89 9/23/90 23/37/91 21/36/92
f 9/23/93 10/22/94 24/38/95 23/37/96
f 10/22/97 11/21/98 25/39/99 24/38/100
f 11/21/101 12/26/102 26/40/103 25/39/104
f 12/26/105 7/25/106 20/35/107 26/40/108
