# This file uses centimeters as units for non-parametric coordinates.

v -7.500000 15.258657 2.439629
v -7.500000 15.104314 -4.729913
v 7.500000 15.104314 -4.729913
v 7.500000 15.258658 2.439629
v -4.425000 13.352259 2.727237
v 4.424999 13.352262 2.727237
v -4.424999 4.600918 4.047505
v 4.424999 4.600918 4.047505
v -2.897652 17.746769 2.064261
v -2.897652 23.477467 1.199702
v 2.897652 17.746769 2.064261
v 2.897652 23.477468 1.199702
v 0.000000 8.976589 3.387371
v 0.000000 14.810820 2.507192
v -5.900000 8.976589 3.387371
v 0.000000 3.142359 4.267550
v 5.900000 8.976589 3.387371
v 0.000000 20.612122 1.631980
v -3.863534 20.612120 1.631980
v 0.000000 16.791653 2.208354
v 3.863534 20.612122 1.631980
v 0.000000 24.432583 1.055608
v 7.500000 15.104316 1.416575
v -7.500000 15.104314 1.416575
v 7.500010 23.635696 1.175830
v 6.599424 25.785534 0.851496
v 4.425284 26.676022 0.717153
v 7.500010 23.481358 0.152775
v 6.599424 25.631187 -0.171558
v 4.425284 26.521677 -0.305901
v 4.425276 0.154342 4.718336
v 6.599434 1.044830 4.583992
v 7.500000 3.194662 4.259659
v 7.500000 3.040323 3.236605
v 6.599434 0.890490 3.560939
v 4.425276 -0.000001 3.695282
v -7.500000 23.481350 -4.729913
v -6.599433 25.631184 -4.729913
v -4.425272 26.521675 -4.729913
v -7.500000 23.481350 0.152776
v -6.599433 25.631184 -0.171557
v -4.425272 26.521675 -0.305901
v -7.500000 3.040319 -4.729913
v -4.425276 0.000000 -4.729913
v -6.599434 0.890489 -4.729913
v -4.425276 0.000000 3.695282
v -6.599434 0.890489 3.560939
v -7.500000 3.040319 3.236605
v 6.599424 25.631184 -4.729913
v 7.500010 23.481350 -4.729913
v 4.425284 26.521675 -4.729913
v 6.599434 0.890490 -4.729913
v 4.425276 0.000000 -4.729913
v 7.500000 3.040319 -4.729913
v -6.599434 1.044832 4.583992
v -4.425276 0.154343 4.718336
v -7.500000 3.194662 4.259659
v -6.599433 25.785522 0.851497
v -7.500000 23.635695 1.175830
v -4.425272 26.676022 0.717153
v 0.000000 15.197080 2.448919
vt 0.015555 0.323961
vt 0.080781 0.250474
vt 0.015595 0.323836
vt 0.081433 0.275340
vt 0.015950 0.323641
vt 0.015906 0.323762
vt 0.081557 0.275379
vt 0.081598 0.275494
vt 0.081438 0.275494
vt 0.082277 0.275493
vt 0.082227 0.275603
vt 0.082105 0.275639
vt 0.082117 0.275493
vt 0.081559 0.275604
vt 0.081442 0.275641
vt 0.081322 0.275604
vt 0.081277 0.275494
vt 0.081312 0.275379
vt 0.081990 0.275604
vt 0.081957 0.275493
vt 0.082004 0.275378
vt 0.082130 0.275339
vt 0.082248 0.275378
vt 0.015748 0.323587
vt 0.016168 0.323869
vt 0.080802 0.250116
vt 0.015765 0.323596
vt 0.016050 0.323582
vt 0.015561 0.323723
vt 0.015443 0.323706
vt 0.015314 0.323772
vt 0.015279 0.323911
vt 0.015319 0.324021
vt 0.015743 0.323986
vt 0.015442 0.324028
vt 0.016093 0.323888
vt 0.015928 0.323864
vt 0.016017 0.323874
vt 0.016109 0.323816
vt 0.016153 0.323703
vt 0.016138 0.323597
vt 0.081202 0.250105
vt 0.081066 0.250049
vt 0.081014 0.249995
vt 0.015228 0.323788
vt 0.015215 0.323776
vt 0.016151 0.323787
vt 0.016170 0.323797
vt 0.016104 0.323924
vt 0.016170 0.323855
vt 0.015238 0.324038
vt 0.080309 0.250291
vt 0.081045 0.250235
vt 0.081175 0.250301
vt 0.080394 0.250579
vt 0.080669 0.250390
vt 0.080302 0.250481
vt 0.081151 0.250048
vt 0.080680 0.250053
vt 0.015296 0.323674
vt 0.015310 0.323685
vt 0.015225 0.324024
vt 0.015309 0.324148
vt 0.015236 0.324129
vt 0.016181 0.323575
vt 0.016200 0.323583
vt 0.015305 0.324109
vt 0.016145 0.323522
vt 0.016125 0.323514
vt 0.080384 0.250196
vt 0.080286 0.250121
vt 0.080216 0.250209
vt 0.080983 0.250313
vt 0.081108 0.250385
vt 0.080229 0.250424
vt 0.080318 0.250520
vt 0.016211 0.323509
vt 0.016191 0.323501
vt 0.081212 0.250037
vt 0.015225 0.323702
vt 0.080305 0.250211
vt 0.015211 0.323690
vt 0.081038 0.250299
vt 0.081166 0.250369
vt 0.015232 0.324120
vt 0.080234 0.250498
vt 0.080322 0.250599
vt 0.081073 0.249985
vt 0.080212 0.250134
vt 0.015760 0.324021
vt 0.015753 0.323791
vn 0.000000 0.149177 0.988811
vn 0.000000 0.149177 0.988811
vn 0.000000 0.149177 0.988811
vn 0.000000 0.149177 0.988811
vn 0.000000 0.149177 0.988811
vn 0.000000 0.149177 0.988811
vn 0.000000 0.149177 0.988811
vn 0.000000 0.149177 0.988811
vn 0.000000 0.149176 0.988811
vn 0.000000 0.149176 0.988811
vn 0.000000 0.149176 0.988811
vn 0.000000 0.149176 0.988811
vn 0.000000 0.149177 0.988811
vn 0.000000 0.149177 0.988811
vn 0.000000 0.149177 0.988811
vn -0.000000 0.149176 0.988811
vn -0.000000 0.149176 0.988811
vn -0.000000 0.149176 0.988811
vn -0.000000 0.149176 0.988811
vn 0.000000 0.149177 0.988811
vn 0.000000 0.149177 0.988811
vn 0.000000 0.149177 0.988811
vn 0.000000 0.149177 0.988811
vn 0.000000 0.149177 0.988811
vn 0.000000 0.149177 0.988811
vn 0.000000 0.149177 0.988811
vn 0.000000 0.149177 0.988811
vn 0.000000 0.149177 0.988811
vn 0.000000 0.149177 0.988811
vn 0.000000 0.149177 0.988811
vn -0.000000 0.149177 0.988811
vn -0.000000 0.149177 0.988811
vn -0.000000 0.149177 0.988811
vn -0.000000 0.149177 0.988811
vn 0.000000 0.149177 0.988811
vn 0.000000 0.149177 0.988811
vn 0.000000 0.149177 0.988811
vn 0.000000 0.149177 0.988811
vn -0.000000 0.149177 0.988811
vn -0.000000 0.149177 0.988811
vn -0.000000 0.149177 0.988811
vn -0.000000 0.149177 0.988811
vn -0.000000 0.149177 0.988811
vn -0.000000 0.149177 0.988811
vn -0.000000 0.149177 0.988811
vn -0.000000 0.149177 0.988811
vn -0.000000 0.149177 0.988811
vn -0.000000 0.149177 0.988811
vn -0.000000 0.149177 0.988811
vn -0.000000 0.149177 0.988811
vn -0.000000 0.149177 0.988811
vn -0.000000 0.149177 0.988811
vn 0.000000 0.149176 0.988811
vn 0.000000 0.149176 0.988811
vn 0.000000 0.149176 0.988811
vn -0.000000 0.149176 0.988811
vn -0.000000 0.149176 0.988811
vn -0.000000 0.149176 0.988811
vn 0.379023 0.925387 -0.000001
vn 0.379023 0.925387 -0.000001
vn 0.379023 0.925387 -0.000001
vn 0.379023 0.925387 -0.000001
vn 0.922341 0.386377 -0.000001
vn 0.922341 0.386377 -0.000001
vn 0.922341 0.386377 -0.000001
vn 0.922341 0.386377 -0.000001
vn 0.923880 -0.378401 0.057086
vn 0.923880 -0.378401 0.057086
vn 0.923880 -0.378401 0.057086
vn 0.923880 -0.378401 0.057086
vn 0.382684 -0.913542 0.137820
vn 0.382684 -0.913542 0.137820
vn 0.382684 -0.913542 0.137820
vn 0.382684 -0.913542 0.137820
vn -0.382685 0.913541 -0.137820
vn -0.382685 0.913541 -0.137820
vn -0.382685 0.913541 -0.137820
vn -0.382685 0.913541 -0.137820
vn -0.923879 0.378402 -0.057088
vn -0.923879 0.378402 -0.057088
vn -0.923879 0.378402 -0.057088
vn -0.923879 0.378402 -0.057088
vn -0.923879 -0.378402 0.057087
vn -0.923879 -0.378402 0.057087
vn -0.923879 -0.378402 0.057087
vn -0.923879 -0.378402 0.057087
vn -0.382684 -0.913542 0.137821
vn -0.382684 -0.913542 0.137821
vn -0.382684 -0.913542 0.137821
vn -0.382684 -0.913542 0.137821
vn -0.000000 -1.000000 -0.000000
vn -0.000000 -1.000000 -0.000000
vn -0.000000 -1.000000 -0.000000
vn -0.000000 -1.000000 -0.000000
vn -0.000000 1.000000 0.000000
vn -0.000000 1.000000 0.000000
vn -0.000000 1.000000 0.000000
vn -0.000000 1.000000 0.000000
vn 1.000000 0.000000 0.000000
vn 1.000000 0.000000 0.000000
vn 1.000000 0.000000 0.000000
vn 1.000000 0.000000 0.000000
vn -1.000000 0.000000 0.000000
vn -1.000000 0.000000 0.000000
vn -1.000000 0.000000 0.000000
vn -1.000000 0.000000 0.000000
vn -1.000000 -0.000000 0.000000
vn -1.000000 -0.000000 0.000000
vn -1.000000 -0.000000 0.000000
vn -1.000000 -0.000000 0.000000
vn 1.000000 -0.000001 0.000000
vn 1.000000 -0.000001 0.000000
vn 1.000000 -0.000001 0.000000
vn 1.000000 -0.000001 0.000000
vn 1.000000 -0.000001 0.000000
vn 1.000000 -0.000001 0.000000
vn 1.000000 -0.000001 0.000000
vn 1.000000 -0.000001 0.000000
vn 1.000000 0.000000 0.000000
vn 1.000000 0.000000 0.000000
vn 1.000000 0.000000 0.000000
vn 1.000000 0.000000 0.000000
vn -0.000000 -0.988811 0.149177
vn -0.000000 -0.988811 0.149177
vn -0.000000 -0.988811 0.149177
vn -0.000000 -0.988811 0.149177
vn -1.000000 0.000000 0.000000
vn -1.000000 0.000000 0.000000
vn -1.000000 0.000000 0.000000
vn -1.000000 0.000000 0.000000
vn -1.000000 -0.000000 0.000000
vn -1.000000 -0.000000 0.000000
vn -1.000000 -0.000000 0.000000
vn -1.000000 -0.000000 0.000000
vn -0.000000 0.988810 -0.149179
vn -0.000000 0.988810 -0.149179
vn -0.000000 0.988810 -0.149179
vn -0.000000 0.988810 -0.149179
vn 0.000000 0.149177 0.988811
vn 0.000000 0.149177 0.988811
vn 0.000000 0.149177 0.988811
vn -0.000000 0.149177 0.988811
vn -0.000000 0.149177 0.988811
vn -0.000000 0.149177 0.988811
vn 0.000000 0.149177 0.988811
vn 0.000000 0.149177 0.988811
vn 0.000000 0.149177 0.988811
vn 0.000000 0.149176 0.988811
vn 0.000000 0.149176 0.988811
vn 0.000000 0.149176 0.988811
vn 0.000000 0.000000 -1.000000
vn 0.000000 0.000000 -1.000000
vn 0.000000 0.000000 -1.000000
vn 0.000000 0.000000 -1.000000
vn 0.000000 0.000000 -1.000000
vn 0.000000 0.000000 -1.000000
vn 0.000000 0.000000 -1.000000
vn 0.000000 0.000000 -1.000000
vn 0.000000 0.149177 0.988811
vn 0.000000 0.149177 0.988811
vn 0.000000 0.149177 0.988811
vn 0.000000 0.149177 0.988811
vn 0.000000 0.149177 0.988811
vn 0.000000 0.149177 0.988811
vn -0.000000 0.149176 0.988811
vn -0.000000 0.149176 0.988811
vn -0.000000 0.149176 0.988811
vn -0.000000 0.149176 0.988811
vn -0.000000 0.149176 0.988811
vn -0.000000 0.149176 0.988811
vn 0.382686 0.913540 -0.137823
vn 0.382686 0.913540 -0.137823
vn 0.382686 0.913540 -0.137823
vn 0.382686 0.913540 -0.137823
vn 0.923877 0.378408 -0.057088
vn 0.923877 0.378408 -0.057088
vn 0.923877 0.378408 -0.057088
vn 0.923877 0.378408 -0.057088
vn 0.922344 -0.386371 0.000000
vn 0.922344 -0.386371 0.000000
vn 0.922344 -0.386371 0.000000
vn 0.922344 -0.386371 0.000000
vn 0.379020 -0.925389 -0.000000
vn 0.379020 -0.925389 -0.000000
vn 0.379020 -0.925389 -0.000000
vn 0.379020 -0.925389 -0.000000
vn -0.379020 0.925389 0.000000
vn -0.379020 0.925389 0.000000
vn -0.379020 0.925389 0.000000
vn -0.379020 0.925389 0.000000
vn -0.922344 0.386371 0.000000
vn -0.922344 0.386371 0.000000
vn -0.922344 0.386371 0.000000
vn -0.922344 0.386371 0.000000
vn -0.922344 -0.386371 0.000000
vn -0.922344 -0.386371 0.000000
vn -0.922344 -0.386371 0.000000
vn -0.922344 -0.386371 0.000000
vn -0.379020 -0.925389 0.000000
vn -0.379020 -0.925389 0.000000
vn -0.379020 -0.925389 0.000000
vn -0.379020 -0.925389 0.000000
vn 0.000000 0.149177 0.988811
vn 0.000000 0.149177 0.988811
vn 0.000000 0.149177 0.988811
vn 0.000000 0.149177 0.988811
vn 0.000000 0.149176 0.988811
vn 0.000000 0.149176 0.988811
vn 0.000000 0.149176 0.988811
vn 0.000000 0.149176 0.988811
vn 0.000000 0.149177 0.988811
vn 0.000000 0.149177 0.988811
vn 0.000000 0.149177 0.988811
vn 0.000000 0.149176 0.988811
vn 0.000000 0.149176 0.988811
vn 0.000000 0.149176 0.988811
vn -0.000000 0.149177 0.988811
vn -0.000000 0.149177 0.988811
vn -0.000000 0.149177 0.988811
vn 0.000000 0.149177 0.988811
vn 0.000000 0.149177 0.988811
vn 0.000000 0.149177 0.988811
vn 0.000000 0.149177 0.988811
vn 0.000000 0.149177 0.988811
vn 0.000000 0.149177 0.988811
vn -0.000000 0.149177 0.988811
vn -0.000000 0.149177 0.988811
vn -0.000000 0.149177 0.988811
vn 0.000000 0.149177 0.988811
vn 0.000000 0.149177 0.988811
vn 0.000000 0.149177 0.988811
vn 0.000000 0.149176 0.988811
vn 0.000000 0.149176 0.988811
vn 0.000000 0.149176 0.988811
vn -0.000000 0.149177 0.988811
vn -0.000000 0.149177 0.988811
vn -0.000000 0.149177 0.988811
vn 0.000000 0.149177 0.988811
vn 0.000000 0.149177 0.988811
vn 0.000000 0.149177 0.988811
vn 0.000000 0.149176 0.988811
vn 0.000000 0.149176 0.988811
vn 0.000000 0.149176 0.988811
vn -0.000000 0.149177 0.988811
vn -0.000000 0.149177 0.988811
vn -0.000000 0.149177 0.988811
vn -0.000000 0.000000 -1.000000
vn -0.000000 0.000000 -1.000000
vn -0.000000 0.000000 -1.000000
vn -0.000000 0.000000 -1.000000
vn 0.000000 0.000000 -1.000000
vn 0.000000 0.000000 -1.000000
vn 0.000000 0.000000 -1.000000
vn 0.000000 0.000000 -1.000000
vn -0.000000 0.000000 -1.000000
vn -0.000000 0.000000 -1.000000
vn -0.000000 0.000000 -1.000000
vn -0.000000 0.000000 -1.000000
vn 0.000000 0.000000 -1.000000
vn 0.000000 0.000000 -1.000000
vn 0.000000 0.000000 -1.000000
vn 0.000000 0.000000 -1.000000
s off
f 17/4/1 6/7/2 14/8/3 13/9/4
f 22/10/5 10/11/6 19/12/7 18/13/8
f 4/27/9 61/91/10 14/3/11 6/29/12
f 1/34/13 15/35/14 5/1/15
f 20/6/16 61/91/17 4/27/18 11/5/19
f 4/27/20 21/28/21 11/5/22
f 14/8/23 5/14/24 15/15/25 13/9/26
f 15/15/27 7/16/28 16/17/29 13/9/30
f 16/17/31 8/18/32 17/4/33 13/9/34
f 19/12/35 9/19/36 20/20/37 18/13/38
f 20/20/39 11/21/40 21/22/41 18/13/42
f 21/22/43 12/23/44 22/10/45 18/13/46
f 12/41/47 27/66/48 22/40/49
f 8/31/50 33/61/51 17/30/52
f 7/33/53 56/51/54 16/32/55
f 10/39/56 59/36/57 19/38/58
f 30/42/59 29/79/60 49/88/61 51/43/62
f 29/79/63 28/58/64 50/44/65 49/88/66
f 33/61/67 32/80/68 35/82/69 34/60/70
f 32/80/71 31/45/72 36/46/73 35/82/74
f 42/47/75 41/25/76 58/50/77 60/48/78
f 41/25/79 40/49/80 59/36/81 58/50/82
f 48/63/83 47/64/84 55/85/85 57/67/86
f 47/64/87 46/62/88 56/51/89 55/85/90
f 36/52/91 46/76/92 44/75/93 53/72/94
f 39/53/95 42/54/96 30/42/97 51/43/98
f 3/59/99 23/26/100 34/70/101 54/71/102
f 48/55/103 24/2/104 2/56/105 43/57/106
f 40/74/107 37/73/108 2/56/109 24/2/110
f 28/58/111 23/26/112 3/59/113 50/44/114
f 28/69/115 25/68/116 4/27/117 23/24/118
f 34/60/119 23/24/120 4/27/121 33/61/122
f 56/51/123 46/62/124 36/46/125 31/45/126
f 1/34/127 24/90/128 48/63/129 57/67/130
f 40/49/131 24/90/132 1/34/133 59/36/134
f 30/65/135 42/47/136 60/48/137 27/66/138
f 12/41/139 25/68/140 26/77/141
f 12/41/142 26/77/143 27/66/144
f 8/31/145 31/45/146 32/80/147
f 8/31/148 32/80/149 33/61/150
f 49/88/151 50/44/152 3/59/153 51/43/154
f 2/56/155 44/75/156 45/86/157 43/57/158
f 7/33/159 57/67/160 55/85/161
f 7/33/162 55/85/163 56/51/164
f 10/39/165 60/48/166 58/50/167
f 10/39/168 58/50/169 59/36/170
f 27/66/171 26/77/172 29/78/173 30/65/174
f 26/77/175 25/68/176 28/69/177 29/78/178
f 34/70/179 35/81/180 52/89/181 54/71/182
f 35/81/183 36/52/184 53/72/185 52/89/186
f 39/53/187 38/83/188 41/84/189 42/54/190
f 38/83/191 37/73/192 40/74/193 41/84/194
f 43/57/195 45/86/196 47/87/197 48/55/198
f 45/86/199 44/75/200 46/76/201 47/87/202
f 1/34/203 61/91/204 20/6/205 9/37/206
f 14/3/207 61/91/208 1/34/209 5/1/210
f 22/40/211 60/48/212 10/39/213
f 22/40/214 27/66/215 60/48/216
f 19/38/217 1/34/218 9/37/219
f 19/38/220 59/36/221 1/34/222
f 15/35/223 57/67/224 7/33/225
f 1/34/226 57/67/227 15/35/228
f 16/32/229 31/45/230 8/31/231
f 16/32/232 56/51/233 31/45/234
f 17/30/235 4/27/236 6/29/237
f 17/30/238 33/61/239 4/27/240
f 21/28/241 25/68/242 12/41/243
f 4/27/244 25/68/245 21/28/246
f 39/53/247 2/56/248 37/73/249 38/83/250
f 51/43/251 3/59/252 2/56/253 39/53/254
f 52/89/255 53/72/256 3/59/257 54/71/258
f 3/59/259 53/72/260 44/75/261 2/56/262
