# This file uses centimeters as units for non-parametric coordinates.

v -36.770985 0.000000 35.000000
v 36.770985 0.000000 35.000000
v -36.770985 10.000000 35.000000
v 36.770985 10.000000 35.000000
v -36.770985 10.000000 -35.000000
v 36.770985 10.000000 -35.000000
v -36.770985 0.000000 -35.000000
v 36.770985 0.000000 -35.000000
v -33.514137 8.450000 -35.000000
v 33.514137 8.450000 -35.000000
v 33.514137 1.550000 -35.000000
v -33.514137 1.550000 -35.000000
v -33.514137 8.450000 -32.239838
v 33.514137 8.450000 -32.239838
v 33.514137 1.550000 -32.239838
v -33.514137 1.550000 -32.239838
v 18.385492 10.000000 35.000000
v 18.385492 0.000000 35.000000
v -18.385492 10.000000 35.000000
v -18.385492 0.000000 35.000000
v 0.000000 10.000000 -35.000000
v -5.065780 10.000000 35.000000
v -5.065780 0.000000 35.000000
v 0.000000 0.000000 -35.000000
v 0.000000 1.550000 -35.000000
v 0.000000 1.550000 -32.239838
v 0.000000 8.450000 -32.239838
v 0.000000 8.450000 -35.000000
v 18.385492 10.000000 -35.000000
v 16.757069 8.450000 -35.000000
v 16.757069 8.450000 -32.239838
v 16.757069 1.550000 -32.239838
v 16.757069 1.550000 -35.000000
v 18.385492 0.000000 -35.000000
v -6.900492 6.578490 35.000000
v -6.900492 3.421513 35.000000
v -16.550781 6.578490 35.000000
v -16.550781 3.421513 35.000000
v -9.940844 6.578490 35.000000
v -13.510432 6.578490 35.000000
v -9.940844 3.421513 35.000000
v -13.510432 3.421513 35.000000
vt 0.249407 0.271734
vt 0.248871 0.271552
vt 0.248865 0.271360
vt 0.249411 0.271516
vt 0.304589 0.262498
vt 0.247036 0.262498
vt 0.247036 0.217677
vt 0.304589 0.217677
vt 0.247036 0.217677
vt 0.304589 0.217677
vt 0.304589 0.262498
vt 0.247036 0.262498
vt 0.248591 0.236928
vt 0.277720 0.236928
vt 0.277720 0.256833
vt 0.248591 0.256833
vt 0.249688 0.278962
vt 0.250460 0.279137
vt 0.250398 0.279252
vt 0.249710 0.279039
vt 0.250459 0.279962
vt 0.250399 0.279800
vt 0.249709 0.279410
vt 0.249724 0.279354
vt 0.195160 0.337870
vt 0.219333 0.220644
vt 0.219333 0.232152
vt 0.218159 0.337870
vt 0.250498 0.279243
vt 0.249773 0.279036
vt 0.250496 0.279782
vt 0.249786 0.279349
vt 0.249333 0.271404
vt 0.249854 0.271541
vt 0.249865 0.271351
vt 0.249334 0.271233
vt 0.261424 0.262498
vt 0.248591 0.256833
vt 0.304441 0.258781
vt 0.290201 0.262498
vt 0.290201 0.262498
vt 0.277720 0.256833
vt 0.261424 0.262498
vt 0.277720 0.236928
vt 0.304441 0.284743
vt 0.248591 0.236928
vt 0.250074 0.279050
vt 0.275812 0.217677
vt 0.279777 0.262498
vt 0.271848 0.262498
vt 0.275812 0.217677
vt 0.250084 0.279686
vt 0.250062 0.279577
vt 0.250141 0.279565
vt 0.218159 0.278787
vt 0.195160 0.278787
vt 0.250136 0.279140
vt 0.250054 0.279145
vt 0.230462 0.265965
vt 0.230462 0.279825
vt 0.250267 0.279093
vt 0.261424 0.217677
vt 0.250226 0.279199
vt 0.192892 0.220644
vt 0.250317 0.279191
vt 0.250319 0.279674
vt 0.192892 0.232152
vt 0.250231 0.279689
vt 0.290201 0.217677
vt 0.250272 0.279824
vt 0.196286 0.279825
vt 0.196286 0.265965
vt 0.247780 0.284743
vt 0.247780 0.258781
vt 0.255771 0.284033
vt 0.253651 0.284033
vt 0.255771 0.281261
vt 0.255771 0.281261
vt 0.253651 0.281260
vt 0.255771 0.284033
vt 0.253651 0.284033
vt 0.253651 0.281260
vt 0.254923 0.284033
vt 0.254499 0.281260
vt 0.254499 0.284033
vt 0.254923 0.281260
vt 0.029213 0.123107
vt 0.029202 0.122111
vt 0.030180 0.122114
vt 0.030176 0.123111
vt 0.011537 0.124395
vt 0.011549 0.123400
vt 0.012528 0.123402
vt 0.012501 0.124400
vn 0.000000 0.000000 1.000000
vn 0.000000 0.000000 1.000000
vn 0.000000 0.000000 1.000000
vn 0.000000 0.000000 1.000000
vn 0.000000 1.000000 0.000000
vn 0.000000 1.000000 0.000000
vn 0.000000 1.000000 0.000000
vn 0.000000 1.000000 0.000000
vn 0.000000 0.000000 -1.000000
vn 0.000000 0.000000 -1.000000
vn 0.000000 0.000000 -1.000000
vn 0.000000 0.000000 -1.000000
vn 0.000000 -1.000000 0.000000
vn 0.000000 -1.000000 0.000000
vn 0.000000 -1.000000 0.000000
vn 0.000000 -1.000000 0.000000
vn 0.000000 0.000000 -1.000000
vn 0.000000 0.000000 -1.000000
vn 0.000000 0.000000 -1.000000
vn 0.000000 0.000000 -1.000000
vn 0.000000 0.000000 -1.000000
vn 0.000000 0.000000 -1.000000
vn 0.000000 0.000000 -1.000000
vn 0.000000 0.000000 -1.000000
vn 0.000000 0.000000 -1.000000
vn 0.000000 0.000000 -1.000000
vn 0.000000 0.000000 -1.000000
vn 0.000000 0.000000 -1.000000
vn 0.000000 0.000000 -1.000000
vn 0.000000 0.000000 -1.000000
vn -0.000000 0.000000 -1.000000
vn -0.000000 0.000000 -1.000000
vn 0.000000 -1.000000 0.000000
vn 0.000000 -1.000000 0.000000
vn 0.000000 -1.000000 0.000000
vn 0.000000 -1.000000 0.000000
vn -1.000000 0.000000 0.000000
vn -1.000000 0.000000 0.000000
vn -1.000000 0.000000 0.000000
vn -1.000000 0.000000 0.000000
vn 0.000000 1.000000 0.000000
vn 0.000000 1.000000 0.000000
vn 0.000000 1.000000 0.000000
vn 0.000000 1.000000 0.000000
vn 1.000000 0.000000 0.000000
vn 1.000000 0.000000 0.000000
vn 1.000000 0.000000 0.000000
vn 1.000000 0.000000 0.000000
vn 1.000000 0.000000 0.000000
vn 1.000000 0.000000 0.000000
vn 1.000000 0.000000 0.000000
vn 1.000000 -0.000000 0.000000
vn -1.000000 0.000000 0.000000
vn -1.000000 0.000000 0.000000
vn -1.000000 0.000000 0.000000
vn -1.000000 -0.000000 0.000000
vn 0.000000 0.000000 1.000000
vn 0.000000 0.000000 1.000000
vn 0.000000 0.000000 1.000000
vn 0.000000 0.000000 1.000000
vn 0.000000 0.000000 1.000000
vn 0.000000 0.000000 1.000000
vn 0.000000 0.000000 1.000000
vn 0.000000 0.000000 1.000000
vn 0.000000 1.000000 0.000000
vn 0.000000 1.000000 -0.000000
vn 0.000000 1.000000 0.000000
vn 0.000000 -1.000000 0.000000
vn 0.000000 -1.000000 0.000000
vn 0.000000 -1.000000 0.000000
vn 0.000000 1.000000 0.000000
vn 0.000000 1.000000 -0.000000
vn 0.000000 1.000000 -0.000000
vn 0.000000 1.000000 -0.000000
vn 0.000000 0.000000 1.000000
vn 0.000000 0.000000 1.000000
vn 0.000000 0.000000 1.000000
vn 0.000000 0.000000 1.000000
vn 0.000000 -1.000000 0.000000
vn 0.000000 -1.000000 0.000000
vn 0.000000 -1.000000 0.000000
vn 0.000000 -1.000000 0.000000
vn 0.000000 0.000000 -1.000000
vn 0.000000 0.000000 -1.000000
vn 0.000000 0.000000 -1.000000
vn 0.000000 0.000000 -1.000000
vn 0.000000 1.000000 0.000000
vn 0.000000 1.000000 0.000000
vn 0.000000 1.000000 0.000000
vn 0.000000 1.000000 0.000000
vn 0.000000 0.000000 -1.000000
vn 0.000000 0.000000 -1.000000
vn 0.000000 0.000000 -1.000000
vn 0.000000 0.000000 -1.000000
vn 0.000000 -1.000000 0.000000
vn 0.000000 -1.000000 0.000000
vn 0.000000 -1.000000 0.000000
vn 0.000000 -1.000000 0.000000
vn 0.000000 0.000000 -1.000000
vn 0.000000 0.000000 -1.000000
vn 0.000000 0.000000 -1.000000
vn 0.000000 0.000000 -1.000000
vn 0.000000 0.000000 -1.000000
vn 0.000000 0.000000 -1.000000
vn 0.000000 0.000000 -1.000000
vn 0.000000 0.000000 -1.000000
vn 0.000000 -1.000000 0.000000
vn 0.000000 -1.000000 0.000000
vn 0.000000 -1.000000 0.000000
vn 0.000000 -1.000000 0.000000
vn 0.000000 0.000000 -1.000000
vn 0.000000 0.000000 -1.000000
vn 0.000000 0.000000 -1.000000
vn 0.000000 0.000000 -1.000000
vn 0.000000 1.000000 0.000000
vn 0.000000 1.000000 0.000000
vn 0.000000 1.000000 0.000000
vn 0.000000 1.000000 0.000000
vn 0.000000 0.000000 -1.000000
vn 0.000000 0.000000 -1.000000
vn 0.000000 0.000000 -1.000000
vn 0.000000 0.000000 -1.000000
vn 0.000000 1.000000 0.000000
vn 0.000000 1.000000 0.000000
vn 0.000000 1.000000 -0.000000
vn 0.000000 1.000000 -0.000000
vn 0.000000 -1.000000 0.000000
vn 0.000000 -1.000000 0.000000
vn 0.000000 -1.000000 0.000000
vn 0.000000 -1.000000 0.000000
vn 0.000000 0.000000 1.000000
vn 0.000000 0.000000 1.000000
vn 0.000000 0.000000 1.000000
vn 0.000000 0.000000 1.000000
vn 0.000000 0.000000 1.000000
vn 0.000000 0.000000 1.000000
vn 0.000000 0.000000 1.000000
vn -0.000001 0.000000 1.000000
vn -0.000001 0.000000 1.000000
vn -0.000001 0.000000 1.000000
vn -0.000001 0.000000 1.000000
vn 0.000000 0.000000 1.000000
vn 0.000000 0.000000 1.000000
vn 0.000000 0.000000 1.000000
vn 0.000000 0.000000 1.000000
vn 0.000000 0.000000 1.000000
vn 0.000000 0.000000 1.000000
vn 0.000000 0.000000 1.000000
vn 0.000000 0.000000 1.000000
vn 0.000000 0.000000 1.000000
vn 0.000000 0.000000 1.000000
vn 0.000000 0.000000 1.000000
vn 0.000000 0.000000 1.000000
vn 0.000000 0.000000 1.000000
vn 0.000000 0.000000 1.000000
vn 0.000000 0.000000 1.000000
vn 0.000000 0.000000 1.000000
vn 0.000000 0.000000 1.000000
vn 0.000000 0.000000 1.000000
vn 0.000000 0.000000 1.000000
vn 0.000000 0.000000 1.000000
vn 0.000000 0.000000 1.000000
vn 0.000000 0.000000 1.000000
vn 0.000000 0.000000 1.000000
vn 0.000000 0.000000 1.000000
vn 0.000000 0.000000 1.000000
s off
f 4/15/1 17/38/2 18/46/3 2/14/4
f 17/37/5 4/6/6 6/7/7 29/62/8
f 26/59/9 27/60/10 31/71/11 32/72/12
f 34/69/13 18/40/14 23/50/15 24/51/16
f 28/58/17 21/47/18 29/61/19 30/63/20
f 10/19/21 6/18/22 8/21/23 11/22/24
f 33/68/25 34/70/26 24/52/27 25/53/28
f 5/17/29 9/20/30 12/24/31 7/23/32
f 27/57/33 28/58/34 30/63/35 31/65/36
f 14/29/37 10/19/38 11/22/39 15/31/40
f 32/66/41 33/68/42 25/53/43 26/54/44
f 9/20/45 13/30/46 16/32/47 12/24/48
f 4/4/49 2/1/50 8/2/51 6/3/52
f 5/36/53 7/33/54 1/34/55 3/35/56
f 18/39/57 17/45/58 22/73/59 23/74/60
f 20/44/61 19/42/62 3/16/63 1/13/64
f 3/5/65 19/41/66 5/8/67
f 7/9/68 20/43/69 1/12/70
f 5/8/71 19/41/72 22/49/73 21/48/74
f 36/87/75 35/88/76 39/89/77 41/90/78
f 7/9/79 24/51/80 23/50/81 20/43/82
f 25/53/83 24/52/84 7/23/85 12/24/86
f 26/54/87 25/53/88 12/24/89 16/32/90
f 13/25/91 27/56/92 26/55/93 16/28/94
f 9/20/95 28/58/96 27/57/97 13/30/98
f 5/17/99 21/47/100 28/58/101 9/20/102
f 30/63/103 29/61/104 6/18/105 10/19/106
f 31/65/107 30/63/108 10/19/109 14/29/110
f 32/67/111 31/64/112 14/26/113 15/27/114
f 11/22/115 33/68/116 32/66/117 15/31/118
f 8/21/119 34/70/120 33/68/121 11/22/122
f 17/37/123 29/62/124 21/48/125 22/49/126
f 8/10/127 2/11/128 18/40/129 34/69/130
f 23/77/131 22/75/132 35/80/133 36/78/134
f 22/75/135 39/83/136 35/80/137
f 19/76/138 20/79/139 38/82/140 37/81/141
f 41/86/142 23/77/143 36/78/144
f 40/85/145 19/76/146 37/81/147
f 42/91/148 40/92/149 37/93/150 38/94/151
f 20/79/152 42/84/153 38/82/154
f 39/83/155 40/85/156 42/84/157 41/86/158
f 39/83/159 22/75/160 19/76/161 40/85/162
f 20/79/163 23/77/164 41/86/165 42/84/166
