# This file uses centimeters as units for non-parametric coordinates.

v 0.000000 0.000000 -7.684814
v -6.655273 0.000000 -3.842285
v -6.655273 0.000000 3.842285
v 0.000000 0.000000 7.684570
v 6.654968 0.000000 3.842285
v 6.654968 0.000000 -3.842285
v 0.000000 15.768227 -7.684814
v -6.655273 15.768227 -3.842285
v -6.655273 15.768227 3.842285
v 0.000000 15.768227 7.684570
v 6.654968 15.768227 3.842285
v 6.654968 15.768227 -3.842285
v 0.000000 0.000000 0.000000
v 0.000000 15.768227 -5.539551
v -4.797180 15.768227 -2.769531
v -4.797180 15.768227 2.769531
v 0.000000 15.768227 5.539063
v 4.796875 15.768227 2.769531
v 4.796875 15.768227 -2.769531
v 0.000000 3.115211 -5.110840
v -4.426025 3.115211 -2.555664
v 0.000000 3.115211 0.000000
v -4.426025 3.115211 2.555420
v 0.000000 3.115211 5.110840
v 4.426025 3.115211 2.555420
v 4.426025 3.115211 -2.555664
v 6.654968 1.486229 1.329590
v 6.654968 1.486229 -1.329590
v 6.654968 14.281990 -1.329590
v 6.654968 14.281990 1.329590
v 6.654968 4.330780 1.329590
v 6.654968 4.330780 -1.329590
v 6.654968 11.693375 -1.329590
v 6.654968 11.693375 1.329590
v 12.567566 3.836105 1.329590
v 12.567566 3.836105 -1.329590
v 11.339478 5.776215 -1.329590
v 11.339478 5.776215 1.329590
v 11.339478 12.691597 -1.329590
v 11.339478 12.691597 1.329590
v 12.567566 14.422218 -1.329590
v 12.567566 14.422218 1.329590
v 14.366333 9.504143 1.329590
v 14.366333 9.504143 -1.329590
v 12.398438 9.504143 -1.329590
v 12.398438 9.504143 1.329590
v 0.000000 2.300000 -7.684814
v -4.663429 2.300000 -4.992309
v -4.663429 13.468226 -4.992309
v 0.000000 13.468226 -7.684814
v 4.663146 2.300000 -4.992349
v 4.663146 13.468226 -4.992349
v -4.663397 2.300000 4.992254
v 0.000000 2.300000 7.684570
v 0.000000 13.468226 7.684570
v -4.663397 13.468227 4.992254
v 4.663115 2.300000 4.992293
v 4.663115 13.468226 4.992293
v 4.663115 7.884113 4.992293
v 0.000000 8.018399 7.684570
v -4.663397 7.884113 4.992254
v -4.663429 7.884113 -4.992309
v 0.000000 7.988759 -7.684814
v 4.663146 7.884113 -4.992349
vt 0.208516 0.209112
vt 0.208516 0.209112
vt 0.208516 0.209112
vt 0.208516 0.209112
vt 0.208516 0.209112
vt 0.208516 0.209112
vt 0.208516 0.209112
vt 0.208516 0.209112
vt 0.208516 0.209112
vt 0.208516 0.209112
vt 0.208516 0.209112
vt 0.208516 0.209112
vt 0.208516 0.209112
vt 0.208516 0.209112
vt 0.208516 0.209112
vt 0.208516 0.209112
vt 0.208516 0.209112
vt 0.208516 0.209112
vt 0.208516 0.209112
vt 0.208516 0.209112
vt 0.208516 0.209112
vt 0.208516 0.209112
vt 0.208516 0.209112
vt 0.208516 0.209112
vt 0.208516 0.209112
vt 0.208516 0.209112
vt 0.208516 0.209112
vt 0.208516 0.209112
vt 0.208516 0.209112
vt 0.208516 0.209112
vt 0.208516 0.209112
vt 0.208516 0.209112
vt 0.208516 0.209112
vt 0.208516 0.209112
vt 0.208516 0.209112
vt 0.208516 0.209112
vt 0.208516 0.209112
vt 0.208516 0.209112
vt 0.208516 0.209112
vt 0.208516 0.209112
vt 0.208516 0.209112
vt 0.208516 0.209112
vt 0.208516 0.209112
vt 0.208516 0.209112
vt 0.208516 0.209112
vt 0.208516 0.209112
vt 0.208516 0.209112
vt 0.208516 0.209112
vt 0.208516 0.209112
vt 0.208516 0.209112
vt 0.208516 0.209112
vt 0.208516 0.209112
vt 0.208516 0.209112
vt 0.208516 0.209112
vt 0.208516 0.209112
vt 0.208516 0.209112
vt 0.208516 0.209112
vt 0.208516 0.209112
vt 0.208516 0.209112
vt 0.208516 0.209112
vt 0.208516 0.209112
vt 0.208516 0.209112
vt 0.208516 0.209112
vt 0.208516 0.209112
vt 0.208516 0.209112
vt 0.208516 0.209112
vt 0.208516 0.209112
vt 0.208516 0.209112
vt 0.208516 0.209112
vt 0.208516 0.209112
vt 0.208516 0.209112
vt 0.208516 0.209112
vt 0.208516 0.209112
vt 0.208516 0.209112
vt 0.208516 0.209112
vt 0.208516 0.209112
vt 0.208516 0.209112
vt 0.208516 0.209112
vt 0.191567 0.199972
vt 0.203017 0.199972
vt 0.179018 0.214103
vt 0.170242 0.214103
vt 0.178562 0.200480
vt 0.191160 0.200480
vt 0.169930 0.213931
vt 0.160274 0.213931
vt 0.203284 0.200480
vt 0.179223 0.213931
vt 0.179472 0.199972
vt 0.160971 0.214103
vt 0.208516 0.209112
vt 0.208516 0.209112
vt 0.208516 0.209112
vt 0.208516 0.209112
vt 0.208516 0.209112
vt 0.208516 0.209112
vt 0.208516 0.209112
vt 0.208516 0.209112
vt 0.208516 0.209112
vt 0.208516 0.209112
vt 0.208516 0.209112
vt 0.208516 0.209112
vt 0.208516 0.209112
vt 0.208516 0.209112
vt 0.208516 0.209112
vt 0.208516 0.209112
vt 0.208516 0.209112
vt 0.208516 0.209112
vt 0.208516 0.209112
vt 0.208516 0.209112
vt 0.208516 0.209112
vt 0.208516 0.209112
vt 0.208516 0.209112
vt 0.208516 0.209112
vt 0.208516 0.209112
vt 0.208516 0.209112
vt 0.208516 0.209112
vt 0.208516 0.209112
vt 0.208516 0.209112
vt 0.208516 0.209112
vt 0.208516 0.209112
vt 0.208516 0.209112
vt 0.208516 0.209112
vt 0.208516 0.209112
vt 0.208516 0.209112
vt 0.208516 0.209112
vt 0.208516 0.209112
vt 0.208516 0.209112
vt 0.208516 0.209112
vt 0.208516 0.209112
vt 0.208516 0.209112
vt 0.208516 0.209112
vt 0.208516 0.209112
vt 0.208516 0.209112
vt 0.208516 0.209112
vt 0.208516 0.209112
vt 0.208516 0.209112
vt 0.208516 0.209112
vt 0.208516 0.209112
vt 0.208516 0.209112
vt 0.208516 0.209112
vt 0.208516 0.209112
vt 0.208516 0.209112
vt 0.208516 0.209112
vt 0.208516 0.209112
vt 0.208516 0.209112
vt 0.208516 0.209112
vt 0.208516 0.209112
vt 0.208516 0.209112
vt 0.208516 0.209112
vt 0.208516 0.209112
vt 0.208516 0.209112
vt 0.208516 0.209112
vt 0.208516 0.209112
vt 0.208516 0.209112
vt 0.208516 0.209112
vt 0.208516 0.209112
vt 0.208516 0.209112
vt 0.208516 0.209112
vt 0.208516 0.209112
vt 0.208516 0.209112
vt 0.208516 0.209112
vt 0.208516 0.209112
vt 0.208516 0.209112
vt 0.208516 0.209112
vt 0.208516 0.209112
vt 0.208516 0.209112
vt 0.208516 0.209112
vt 0.208516 0.209112
vt 0.208516 0.209112
vt 0.208516 0.209112
vt 0.208516 0.209112
vt 0.208516 0.209112
vt 0.208516 0.209112
vt 0.208516 0.209112
vt 0.208516 0.209112
vt 0.208516 0.209112
vt 0.208516 0.209112
vt 0.208516 0.209112
vt 0.208516 0.209112
vt 0.208516 0.209112
vt 0.208516 0.209112
vt 0.208516 0.209112
vt 0.208516 0.209112
vt 0.208516 0.209112
vt 0.208516 0.209112
vt 0.208516 0.209112
vt 0.208516 0.209112
vt 0.208516 0.209112
vt 0.208516 0.209112
vt 0.208516 0.209112
vt 0.208516 0.209112
vt 0.208516 0.209112
vt 0.208516 0.209112
vt 0.208516 0.209112
vt 0.208516 0.209112
vt 0.208516 0.209112
vt 0.208516 0.209112
vt 0.208516 0.209112
vt 0.208516 0.209112
vt 0.208516 0.209112
vt 0.208516 0.209112
vt 0.208516 0.209112
vt 0.208516 0.209112
vt 0.208516 0.209112
vt 0.208516 0.209112
vt 0.208516 0.209112
vt 0.208516 0.209112
vt 0.208516 0.209112
vt 0.208516 0.209112
vt 0.208516 0.209112
vt 0.208516 0.209112
vt 0.208516 0.209112
vt 0.208516 0.209112
vt 0.208516 0.209112
vt 0.208516 0.209112
vt 0.208516 0.209112
vt 0.208516 0.209112
vt 0.208516 0.209112
vt 0.208516 0.209112
vt 0.208516 0.209112
vt 0.208516 0.209112
vt 0.208516 0.209112
vt 0.208516 0.209112
vt 0.208516 0.209112
vt 0.208516 0.209112
vt 0.208516 0.209112
vt 0.208516 0.209112
vt 0.208516 0.209112
vt 0.208516 0.209112
vt 0.208516 0.209112
vt 0.208516 0.209112
vt 0.208516 0.209112
vt 0.208516 0.209112
vt 0.208516 0.209112
vt 0.208516 0.209112
vt 0.208516 0.209112
vt 0.208516 0.209112
vt 0.208516 0.209112
vt 0.208516 0.209112
vt 0.208516 0.209112
vt 0.208516 0.209112
vt 0.208516 0.209112
vt 0.208516 0.209112
vt 0.179223 0.199799
vt 0.208516 0.209112
vt 0.169930 0.199799
vt 0.208516 0.209112
vt 0.178562 0.214301
vt 0.179018 0.199601
vt 0.208516 0.209112
vt 0.170242 0.199601
vt 0.179472 0.214110
vt 0.208516 0.209112
vt 0.191567 0.214110
vt 0.160971 0.199601
vt 0.203017 0.214110
vt 0.191160 0.214301
vt 0.160274 0.199799
vt 0.203284 0.214301
vn -0.500010 0.000000 -0.866020
vn -0.500010 0.000000 -0.866020
vn -0.500010 0.000000 -0.866019
vn -0.500010 0.000000 -0.866019
vn -1.000000 0.000000 0.000000
vn -1.000000 0.000000 0.000000
vn -1.000000 0.000000 0.000000
vn -1.000000 0.000000 0.000000
vn -0.499986 0.000000 0.866033
vn -0.499986 0.000000 0.866033
vn -0.499986 0.000000 0.866033
vn -0.499987 0.000000 0.866033
vn 0.500004 0.000000 0.866023
vn 0.500004 0.000000 0.866023
vn 0.500004 0.000000 0.866023
vn 0.500004 0.000000 0.866023
vn 1.000000 0.000000 0.000000
vn 1.000000 0.000000 0.000000
vn 1.000000 0.000000 0.000000
vn 1.000000 0.000000 0.000000
vn 0.500028 0.000000 -0.866010
vn 0.500028 0.000000 -0.866010
vn 0.500027 0.000000 -0.866010
vn 0.500027 0.000000 -0.866009
vn 0.000000 -1.000000 0.000000
vn 0.000000 -1.000000 0.000000
vn 0.000000 -1.000000 0.000000
vn 0.000000 -1.000000 0.000000
vn 0.000000 -1.000000 0.000000
vn 0.000000 -1.000000 0.000000
vn 0.000000 -1.000000 0.000000
vn 0.000000 -1.000000 0.000000
vn 0.000000 -1.000000 0.000000
vn 0.000000 -1.000000 0.000000
vn 0.000000 -1.000000 0.000000
vn 0.000000 -1.000000 0.000000
vn 0.000000 -1.000000 0.000000
vn 0.000000 -1.000000 0.000000
vn 0.000000 -1.000000 0.000000
vn 0.000000 -1.000000 0.000000
vn 0.000000 -1.000000 0.000000
vn 0.000000 -1.000000 0.000000
vn 0.000000 1.000000 0.000000
vn 0.000000 1.000000 0.000000
vn 0.000000 1.000000 0.000000
vn 0.000000 1.000000 0.000000
vn 0.000000 1.000000 0.000000
vn 0.000000 1.000000 0.000000
vn 0.000000 1.000000 0.000000
vn 0.000000 1.000000 0.000000
vn 0.000000 1.000000 0.000000
vn 0.000000 1.000000 0.000000
vn 0.000000 1.000000 0.000000
vn 0.000000 1.000000 0.000000
vn 0.000000 1.000000 0.000000
vn 0.000000 1.000000 0.000000
vn 0.000000 1.000000 0.000000
vn 0.000000 1.000000 0.000000
vn 0.000000 1.000000 0.000000
vn 0.000000 1.000000 0.000000
vn 0.000000 1.000000 0.000000
vn 0.000000 1.000000 0.000000
vn 0.000000 1.000000 0.000000
vn 0.000000 1.000000 0.000000
vn 0.000000 1.000000 0.000000
vn 0.000000 1.000000 0.000000
vn 0.000000 1.000000 0.000000
vn 0.000000 1.000000 0.000000
vn 0.000000 1.000000 0.000000
vn 0.000000 1.000000 0.000000
vn 0.000000 1.000000 0.000000
vn 0.000000 1.000000 0.000000
vn 0.000000 1.000000 0.000000
vn 0.000000 1.000000 0.000000
vn 0.000000 1.000000 0.000000
vn 0.000000 1.000000 0.000000
vn 0.000000 1.000000 0.000000
vn 0.000000 1.000000 0.000000
vn 0.000000 1.000000 0.000000
vn 0.000000 1.000000 0.000000
vn 0.000000 1.000000 0.000000
vn 0.000000 1.000000 0.000000
vn 0.000000 1.000000 0.000000
vn 0.000000 1.000000 0.000000
vn 0.499798 0.029311 0.865646
vn 0.499798 0.029311 0.865646
vn 0.499797 0.029311 0.865646
vn 0.499798 0.029311 0.865646
vn 0.999570 0.029321 0.000000
vn 0.999570 0.029321 0.000000
vn 0.999570 0.029321 0.000000
vn 0.999570 0.029321 0.000000
vn 0.499780 0.029303 -0.865656
vn 0.499780 0.029303 -0.865656
vn 0.499780 0.029303 -0.865656
vn 0.499780 0.029303 -0.865656
vn -0.499793 0.029297 -0.865649
vn -0.499793 0.029297 -0.865649
vn -0.499793 0.029297 -0.865649
vn -0.499793 0.029297 -0.865649
vn -0.999571 0.029297 0.000000
vn -0.999571 0.029297 0.000000
vn -0.999571 0.029297 0.000000
vn -0.999571 0.029297 0.000000
vn -0.499810 0.029305 0.865639
vn -0.499810 0.029305 0.865639
vn -0.499810 0.029305 0.865639
vn -0.499810 0.029305 0.865639
vn 1.000000 0.000000 0.000000
vn 1.000000 0.000000 0.000000
vn 1.000000 0.000000 0.000000
vn 1.000000 0.000000 0.000000
vn 1.000000 0.000000 0.000000
vn 1.000000 0.000000 0.000000
vn 1.000000 0.000000 0.000000
vn 1.000000 0.000000 0.000000
vn 1.000000 0.000000 0.000000
vn 1.000000 0.000000 0.000000
vn 1.000000 0.000000 0.000000
vn 1.000000 0.000000 0.000000
vn 1.000000 0.000000 0.000000
vn 1.000000 0.000000 0.000000
vn 1.000000 0.000000 0.000000
vn 1.000000 0.000000 0.000000
vn 1.000000 0.000000 0.000000
vn 1.000000 0.000000 0.000000
vn 1.000000 0.000000 0.000000
vn 1.000000 0.000000 0.000000
vn 1.000000 0.000000 0.000000
vn 1.000000 0.000000 0.000000
vn 1.000000 0.000000 0.000000
vn 1.000000 0.000000 0.000000
vn 1.000000 0.000000 0.000000
vn 1.000000 0.000000 0.000000
vn 1.000000 0.000000 0.000000
vn 1.000000 0.000000 0.000000
vn 0.369335 -0.929296 0.000000
vn 0.369335 -0.929296 0.000000
vn 0.369335 -0.929296 0.000000
vn 0.369335 -0.929296 0.000000
vn 0.000000 0.000000 -1.000000
vn 0.000000 0.000000 -1.000000
vn 0.000000 0.000000 -1.000000
vn 0.000000 0.000000 -1.000000
vn -0.294840 0.955547 0.000000
vn -0.294840 0.955547 0.000000
vn -0.294840 0.955547 0.000000
vn -0.294840 0.955547 0.000000
vn 0.000000 0.000000 1.000000
vn 0.000000 0.000000 1.000000
vn 0.000000 0.000000 1.000000
vn 0.000000 0.000000 1.000000
vn 0.208411 -0.978041 0.000000
vn 0.208411 -0.978041 0.000000
vn 0.208411 -0.978041 0.000000
vn 0.208411 -0.978041 0.000000
vn 0.000000 0.000000 -1.000000
vn 0.000000 0.000000 -1.000000
vn 0.000000 0.000000 -1.000000
vn 0.000000 0.000000 -1.000000
vn -0.023710 0.999719 0.000000
vn -0.023710 0.999719 0.000000
vn -0.023710 0.999719 0.000000
vn -0.023710 0.999719 0.000000
vn 0.000000 0.000000 1.000000
vn 0.000000 0.000000 1.000000
vn 0.000000 0.000000 1.000000
vn 0.000000 0.000000 1.000000
vn 0.953154 -0.302486 0.000000
vn 0.953154 -0.302486 0.000000
vn 0.953154 -0.302486 0.000000
vn 0.953154 -0.302486 0.000000
vn 0.000000 0.000000 -1.000000
vn 0.000000 0.000000 -1.000000
vn 0.000000 0.000000 -1.000000
vn 0.000000 0.000000 -1.000000
vn -0.961943 0.273251 0.000000
vn -0.961943 0.273251 0.000000
vn -0.961943 0.273251 0.000000
vn -0.961943 0.273251 0.000000
vn 0.000000 0.000000 1.000000
vn 0.000000 0.000000 1.000000
vn 0.000000 0.000000 1.000000
vn 0.000000 0.000000 1.000000
vn -0.948998 -0.315283 0.000000
vn -0.948998 -0.315283 0.000000
vn -0.948998 -0.315283 0.000000
vn -0.948998 -0.315283 0.000000
vn 0.000000 0.000000 -1.000000
vn 0.000000 0.000000 -1.000000
vn 0.000000 0.000000 -1.000000
vn 0.000000 0.000000 -1.000000
vn 0.939155 0.343492 0.000000
vn 0.939155 0.343492 0.000000
vn 0.939155 0.343492 0.000000
vn 0.939155 0.343492 0.000000
vn 0.000000 0.000000 1.000000
vn 0.000000 0.000000 1.000000
vn 0.000000 0.000000 1.000000
vn 0.000000 0.000000 1.000000
vn -0.500010 0.000000 -0.866019
vn -0.500010 0.000000 -0.866019
vn -0.500010 0.000000 -0.866020
vn -0.500010 0.000000 -0.866020
vn -0.500010 0.000000 -0.866019
vn -0.500010 -0.000000 -0.866019
vn -0.500010 0.000000 -0.866020
vn -0.500010 0.000000 -0.866019
vn -0.500010 0.000000 -0.866020
vn -0.500010 -0.000000 -0.866019
vn -0.500010 -0.000000 -0.866019
vn -0.500010 0.000000 -0.866020
vn -0.500010 0.000000 -0.866020
vn 0.500028 -0.000000 -0.866009
vn 0.500027 -0.000000 -0.866010
vn 0.500028 0.000000 -0.866010
vn 0.500028 0.000000 -0.866010
vn 0.500028 0.000000 -0.866010
vn 0.500028 0.000000 -0.866009
vn 0.500028 0.000000 -0.866010
vn 0.500028 0.000000 -0.866010
vn 0.500028 0.000000 -0.866009
vn 0.500028 -0.000000 -0.866009
vn 0.500028 0.000000 -0.866010
vn 0.500027 0.000000 -0.866009
vn 0.500028 0.000000 -0.866010
vn -0.499987 0.000000 0.866033
vn -0.499986 0.000000 0.866033
vn -0.499986 0.000000 0.866033
vn -0.499986 0.000000 0.866033
vn -0.499987 0.000000 0.866033
vn -0.499987 0.000000 0.866033
vn -0.499986 0.000000 0.866033
vn -0.499986 0.000000 0.866033
vn -0.499987 0.000000 0.866033
vn -0.499987 0.000000 0.866033
vn -0.499986 0.000000 0.866033
vn -0.499987 0.000000 0.866033
vn -0.499986 0.000000 0.866033
vn 0.500004 0.000000 0.866023
vn 0.500004 0.000000 0.866023
vn 0.500004 0.000000 0.866023
vn 0.500004 0.000000 0.866023
vn 0.500004 0.000000 0.866023
vn 0.500004 -0.000000 0.866023
vn 0.500004 0.000000 0.866023
vn 0.500004 0.000000 0.866023
vn 0.500004 0.000000 0.866023
vn 0.500004 -0.000000 0.866023
vn 0.500004 -0.000000 0.866023
vn 0.500004 0.000000 0.866023
vn 0.500004 0.000000 0.866023
vn 0.500004 0.000000 0.866023
vn 0.500004 0.000000 0.866023
vn 0.500004 0.000000 0.866023
vn 0.500004 0.000000 0.866023
vn -0.499987 0.000000 0.866033
vn -0.499986 0.000000 0.866033
vn -0.499986 0.000000 0.866033
vn -0.499986 0.000000 0.866033
vn -0.500010 0.000000 -0.866019
vn -0.500010 0.000000 -0.866019
vn -0.500010 0.000000 -0.866020
vn -0.500010 0.000000 -0.866020
vn 0.500027 0.000000 -0.866009
vn 0.500027 0.000000 -0.866010
vn 0.500028 0.000000 -0.866010
vn 0.500028 0.000000 -0.866010
s off
f 47/79/1 48/80/2 62/257/3 63/255/4
f 2/135/5 3/9/6 9/16/7 8/133/8
f 53/83/9 54/84/10 60/258/11 61/249/12
f 54/84/13 57/87/14 59/260/15 60/258/16
f 31/187/17 32/189/18 33/183/19 34/177/20
f 51/89/21 47/79/22 63/255/23 64/253/24
f 2/136/25 1/1/26 13/240/27
f 3/120/28 2/2/29 13/241/30
f 4/119/31 3/3/32 13/242/33
f 5/115/34 4/4/35 13/243/36
f 6/126/37 5/5/38 13/244/39
f 1/138/40 6/6/41 13/27/42
f 20/224/43 21/232/44 22/238/45
f 21/233/46 23/220/47 22/237/48
f 23/221/49 24/214/50 22/236/51
f 24/215/52 25/208/53 22/235/54
f 25/209/55 26/202/56 22/28/57
f 26/203/58 20/223/59 22/239/60
f 7/130/61 8/24/62 15/230/63 14/226/64
f 8/132/65 9/23/66 16/218/67 15/229/68
f 9/117/69 10/22/70 17/212/71 16/217/72
f 10/118/73 11/21/74 18/206/75 17/211/76
f 11/110/77 12/26/78 19/200/79 18/205/80
f 12/125/81 7/25/82 14/227/83 19/199/84
f 14/29/85 15/231/86 21/36/87 20/225/88
f 15/30/89 16/219/90 23/37/91 21/234/92
f 16/31/93 17/213/94 24/38/95 23/222/96
f 17/32/97 18/207/98 25/39/99 24/216/100
f 18/33/101 19/201/102 26/40/103 25/210/104
f 19/34/105 14/228/106 20/35/107 26/204/108
f 5/114/109 6/12/110 28/197/111 27/193/112
f 6/128/113 12/19/114 33/182/115 32/190/116
f 12/124/117 11/18/118 30/172/119 29/174/120
f 11/112/121 5/11/122 31/186/123 34/178/124
f 31/185/125 5/113/126 27/194/127
f 6/127/128 32/191/129 28/196/130
f 33/181/131 12/123/132 29/175/133
f 11/111/134 34/179/135 30/171/136
f 27/41/137 28/198/138 36/169/139 35/165/140
f 28/42/141 32/192/142 37/163/143 36/168/144
f 32/46/145 31/188/146 38/160/147 37/162/148
f 31/45/149 27/195/150 35/166/151 38/159/152
f 34/48/153 33/184/154 39/155/155 40/151/156
f 33/47/157 29/176/158 41/145/159 39/154/160
f 29/43/161 30/173/162 42/140/163 41/144/164
f 30/44/165 34/180/166 40/152/167 42/139/168
f 35/49/169 36/170/170 44/147/171 43/57/172
f 36/50/173 37/164/174 45/157/175 44/58/176
f 37/51/177 38/161/178 46/149/179 45/59/180
f 38/52/181 35/167/182 43/142/183 46/60/184
f 40/53/185 39/156/186 45/62/187 46/150/188
f 39/54/189 41/146/190 44/63/191 45/158/192
f 41/55/193 42/141/194 43/64/195 44/148/196
f 42/56/197 40/153/198 46/61/199 43/143/200
f 1/7/201 2/137/202 48/131/203 47/65/204
f 2/8/205 8/134/206 49/129/207 62/251/208 48/66/209
f 8/15/210 7/14/211 50/68/212 49/67/213
f 6/91/214 1/10/215 47/70/216 51/69/217
f 7/17/218 12/92/219 52/121/220 50/71/221
f 12/93/222 6/94/223 51/122/224 64/254/225 52/72/226
f 3/95/227 4/96/228 54/73/229 53/97/230
f 10/98/231 9/99/232 56/116/233 55/100/234
f 9/101/235 3/102/236 53/103/237 61/248/238 56/74/239
f 4/104/240 5/13/241 57/76/242 54/75/243
f 5/20/244 11/105/245 58/109/246 59/246/247 57/77/248
f 11/106/249 10/107/250 55/108/251 58/78/252
f 60/247/253 59/245/254 58/88/255 55/85/256
f 61/259/257 60/247/258 55/85/259 56/86/260
f 63/252/261 62/250/262 49/81/263 50/82/264
f 64/256/265 63/252/266 50/82/267 52/90/268
