# This file uses centimeters as units for non-parametric coordinates.

v 1.841484 -3.584450 -1.841470
v 0.000000 -3.584450 -2.604265
v -1.841484 -3.584450 -1.841470
v -2.604257 -3.584450 -0.000000
v -1.841484 -3.584450 1.841499
v 0.000000 -3.584450 2.604234
v 1.841484 -3.584450 1.841499
v 2.604249 -3.584450 -0.000000
v 2.979589 -1.369137 -2.979567
v 0.000000 -1.369137 -4.213752
v -2.979589 -1.369137 -2.979567
v -4.213775 -1.369137 -0.000000
v -2.979589 -1.369137 2.979597
v 0.000000 -1.369137 4.213782
v 2.979589 -1.369137 2.979597
v 4.213767 -1.369137 -0.000000
v 2.979589 1.369140 -2.979567
v 0.000000 1.369140 -4.213752
v -2.979589 1.369140 -2.979567
v -4.213775 1.369140 -0.000000
v -2.979589 1.369140 2.979597
v 0.000000 1.369140 4.213782
v 2.979589 1.369140 2.979597
v 4.213767 1.369140 -0.000000
v 1.841484 3.584450 -1.841470
v 0.000000 3.584450 -2.604265
v -1.841484 3.584450 -1.841470
v -2.604257 3.584450 -0.000000
v -1.841484 3.584450 1.841499
v 0.000000 3.584450 2.604234
v 1.841484 3.584450 1.841499
v 2.604249 3.584450 -0.000000
v 0.000000 -4.430618 -0.000000
v 0.000000 4.430622 -0.000000
vt 0.398619 0.490219
vt 0.398542 0.490095
vt 0.398340 0.489906
vt 0.398464 0.490108
vt 0.398635 0.489966
vt 0.398494 0.489701
vt 0.398840 0.489908
vt 0.398828 0.489608
vt 0.399041 0.489951
vt 0.399154 0.489676
vt 0.399123 0.490072
vt 0.399289 0.489870
vt 0.399035 0.490203
vt 0.399147 0.490081
vt 0.398825 0.490265
vt 0.398802 0.490182
vt 0.398312 0.489659
vt 0.398437 0.489858
vt 0.398469 0.489456
vt 0.398807 0.489364
vt 0.399137 0.489431
vt 0.399274 0.489623
vt 0.399130 0.489832
vt 0.398779 0.489932
vt 0.398475 0.489447
vt 0.398554 0.489569
vt 0.398572 0.489322
vt 0.398784 0.489265
vt 0.398992 0.489307
vt 0.399076 0.489425
vt 0.398984 0.489553
vt 0.398767 0.489613
vt 0.398839 0.490157
vt 0.398769 0.489357
vn 0.317740 -0.557325 -0.767092
vn 0.317740 -0.557325 -0.767092
vn 0.317740 -0.557325 -0.767092
vn 0.317740 -0.557325 -0.767092
vn -0.317740 -0.557325 -0.767092
vn -0.317740 -0.557325 -0.767092
vn -0.317740 -0.557325 -0.767092
vn -0.317740 -0.557325 -0.767092
vn -0.767092 -0.557325 -0.317740
vn -0.767092 -0.557325 -0.317740
vn -0.767092 -0.557325 -0.317740
vn -0.767092 -0.557325 -0.317740
vn -0.767092 -0.557325 0.317740
vn -0.767092 -0.557325 0.317740
vn -0.767092 -0.557325 0.317740
vn -0.767092 -0.557325 0.317740
vn -0.317740 -0.557325 0.767092
vn -0.317740 -0.557325 0.767092
vn -0.317740 -0.557325 0.767092
vn -0.317740 -0.557325 0.767092
vn 0.317740 -0.557325 0.767092
vn 0.317740 -0.557325 0.767092
vn 0.317740 -0.557325 0.767092
vn 0.317740 -0.557325 0.767092
vn 0.767092 -0.557325 0.317740
vn 0.767092 -0.557325 0.317740
vn 0.767092 -0.557325 0.317740
vn 0.767092 -0.557325 0.317740
vn 0.767092 -0.557325 -0.317740
vn 0.767092 -0.557325 -0.317740
vn 0.767092 -0.557325 -0.317740
vn 0.767092 -0.557325 -0.317740
vn 0.382683 0.000000 -0.923880
vn 0.382683 0.000000 -0.923880
vn 0.382683 0.000000 -0.923880
vn 0.382683 0.000000 -0.923880
vn -0.382683 0.000000 -0.923880
vn -0.382683 0.000000 -0.923880
vn -0.382683 0.000000 -0.923880
vn -0.382683 0.000000 -0.923880
vn -0.923880 0.000000 -0.382683
vn -0.923880 0.000000 -0.382683
vn -0.923880 0.000000 -0.382683
vn -0.923880 0.000000 -0.382683
vn -0.923880 0.000000 0.382683
vn -0.923880 0.000000 0.382683
vn -0.923880 0.000000 0.382683
vn -0.923880 0.000000 0.382683
vn -0.382683 0.000000 0.923880
vn -0.382683 0.000000 0.923880
vn -0.382683 0.000000 0.923880
vn -0.382683 0.000000 0.923880
vn 0.382683 0.000000 0.923880
vn 0.382683 0.000000 0.923880
vn 0.382683 0.000000 0.923880
vn 0.382683 0.000000 0.923880
vn 0.923880 0.000000 0.382683
vn 0.923880 0.000000 0.382683
vn 0.923880 0.000000 0.382683
vn 0.923880 0.000000 0.382683
vn 0.923879 0.000000 -0.382684
vn 0.923879 0.000000 -0.382684
vn 0.923879 0.000000 -0.382684
vn 0.923879 0.000000 -0.382684
vn 0.317740 0.557325 -0.767092
vn 0.317740 0.557325 -0.767092
vn 0.317740 0.557325 -0.767092
vn 0.317740 0.557325 -0.767092
vn -0.317740 0.557325 -0.767092
vn -0.317740 0.557325 -0.767092
vn -0.317740 0.557325 -0.767092
vn -0.317740 0.557325 -0.767092
vn -0.767092 0.557325 -0.317740
vn -0.767092 0.557325 -0.317740
vn -0.767092 0.557325 -0.317740
vn -0.767092 0.557325 -0.317740
vn -0.767092 0.557325 0.317740
vn -0.767092 0.557325 0.317740
vn -0.767092 0.557325 0.317740
vn -0.767092 0.557325 0.317740
vn -0.317740 0.557325 0.767092
vn -0.317740 0.557325 0.767092
vn -0.317740 0.557325 0.767092
vn -0.317740 0.557325 0.767092
vn 0.317740 0.557325 0.767092
vn 0.317740 0.557325 0.767092
vn 0.317740 0.557325 0.767092
vn 0.317740 0.557325 0.767092
vn 0.767092 0.557325 0.317740
vn 0.767092 0.557325 0.317740
vn 0.767092 0.557325 0.317740
vn 0.767092 0.557325 0.317740
vn 0.767092 0.557325 -0.317740
vn 0.767092 0.557325 -0.317740
vn 0.767092 0.557325 -0.317740
vn 0.767092 0.557325 -0.317740
vn 0.126963 -0.943360 -0.306516
vn 0.126963 -0.943360 -0.306516
vn 0.126963 -0.943360 -0.306516
vn -0.126963 -0.943360 -0.306516
vn -0.126963 -0.943360 -0.306516
vn -0.126963 -0.943360 -0.306516
vn -0.306516 -0.943360 -0.126963
vn -0.306516 -0.943360 -0.126963
vn -0.306516 -0.943360 -0.126963
vn -0.306516 -0.943360 0.126963
vn -0.306516 -0.943360 0.126963
vn -0.306516 -0.943360 0.126963
vn -0.126963 -0.943360 0.306516
vn -0.126963 -0.943360 0.306516
vn -0.126963 -0.943360 0.306516
vn 0.126963 -0.943360 0.306516
vn 0.126963 -0.943360 0.306516
vn 0.126963 -0.943360 0.306516
vn 0.306516 -0.943360 0.126963
vn 0.306516 -0.943360 0.126963
vn 0.306516 -0.943360 0.126963
vn 0.306516 -0.943360 -0.126963
vn 0.306516 -0.943360 -0.126963
vn 0.306516 -0.943360 -0.126963
vn 0.126963 0.943360 -0.306516
vn 0.126963 0.943360 -0.306516
vn 0.126963 0.943360 -0.306516
vn -0.126963 0.943360 -0.306516
vn -0.126963 0.943360 -0.306516
vn -0.126963 0.943360 -0.306516
vn -0.306516 0.943360 -0.126963
vn -0.306516 0.943360 -0.126963
vn -0.306516 0.943360 -0.126963
vn -0.306516 0.943360 0.126963
vn -0.306516 0.943360 0.126963
vn -0.306516 0.943360 0.126963
vn -0.126963 0.943360 0.306516
vn -0.126963 0.943360 0.306516
vn -0.126963 0.943360 0.306516
vn 0.126963 0.943360 0.306516
vn 0.126963 0.943360 0.306516
vn 0.126963 0.943360 0.306516
vn 0.306516 0.943360 0.126963
vn 0.306516 0.943360 0.126963
vn 0.306516 0.943360 0.126963
vn 0.306516 0.943360 -0.126963
vn 0.306516 0.943360 -0.126963
vn 0.306516 0.943360 -0.126963
s off
f 1/1/1 2/2/2 10/3/3 9/4/4
f 2/2/5 3/5/6 11/6/7 10/3/8
f 3/5/9 4/7/10 12/8/11 11/6/12
f 4/7/13 5/9/14 13/10/15 12/8/16
f 5/9/17 6/11/18 14/12/19 13/10/20
f 6/11/21 7/13/22 15/14/23 14/12/24
f 7/13/25 8/15/26 16/16/27 15/14/28
f 8/15/29 1/1/30 9/4/31 16/16/32
f 9/4/33 10/3/34 18/17/35 17/18/36
f 10/3/37 11/6/38 19/19/39 18/17/40
f 11/6/41 12/8/42 20/20/43 19/19/44
f 12/8/45 13/10/46 21/21/47 20/20/48
f 13/10/49 14/12/50 22/22/51 21/21/52
f 14/12/53 15/14/54 23/23/55 22/22/56
f 15/14/57 16/16/58 24/24/59 23/23/60
f 16/16/61 9/4/62 17/18/63 24/24/64
f 17/18/65 18/17/66 26/25/67 25/26/68
f 18/17/69 19/19/70 27/27/71 26/25/72
f 19/19/73 20/20/74 28/28/75 27/27/76
f 20/20/77 21/21/78 29/29/79 28/28/80
f 21/21/81 22/22/82 30/30/83 29/29/84
f 22/22/85 23/23/86 31/31/87 30/30/88
f 23/23/89 24/24/90 32/32/91 31/31/92
f 24/24/93 17/18/94 25/26/95 32/32/96
f 2/2/97 1/1/98 33/33/99
f 3/5/100 2/2/101 33/33/102
f 4/7/103 3/5/104 33/33/105
f 5/9/106 4/7/107 33/33/108
f 6/11/109 5/9/110 33/33/111
f 7/13/112 6/11/113 33/33/114
f 8/15/115 7/13/116 33/33/117
f 1/1/118 8/15/119 33/33/120
f 25/26/121 26/25/122 34/34/123
f 26/25/124 27/27/125 34/34/126
f 27/27/127 28/28/128 34/34/129
f 28/28/130 29/29/131 34/34/132
f 29/29/133 30/30/134 34/34/135
f 30/30/136 31/31/137 34/34/138
f 31/31/139 32/32/140 34/34/141
f 32/32/142 25/26/143 34/34/144
