# This file uses centimeters as units for non-parametric coordinates.

v -25.922966 37.250053 24.972364
v 7.743209 40.551979 24.972364
v -25.156101 38.489288 24.972364
v 7.484059 41.766350 24.972364
v -25.156101 38.489288 -24.972364
v 7.484059 41.766350 -24.972364
v -25.922966 37.250053 -24.972364
v 7.743209 40.551979 -24.972364
v -5.682493 39.777107 -3.542718
v 2.930218 40.794556 -3.542718
v 2.930218 40.794556 -16.405842
v -5.682493 39.777107 -16.405842
v -24.382114 37.250061 -24.972364
v -24.382114 37.250061 24.972364
v -0.776604 40.338829 24.972364
v -1.658433 40.200104 -24.972364
v -1.283230 40.273811 -3.542718
v -1.510424 40.238457 -16.405842
v -1.385231 38.973015 -24.972364
v -0.503676 39.112961 24.972364
v -26.179482 0.000000 24.972364
v 23.765247 0.000000 24.972364
v -26.179482 37.250061 24.972364
v 23.765247 34.313469 24.972364
v -26.179482 37.250061 -24.972364
v 23.765247 37.250061 -24.972364
v -26.179482 0.000000 -24.972364
v 23.765247 2.715206 -24.972364
v 23.765247 2.811712 -6.003768
v 23.765247 2.811712 22.314241
v 23.765247 26.190027 22.314241
v -26.179482 2.811712 -6.003768
v -26.179482 2.811712 22.314241
v -26.179482 26.190027 22.314241
v -24.638634 37.250061 23.431517
v 1.721827 37.250061 23.431517
v 1.721827 37.250061 -23.431517
v -24.638634 37.250061 -23.431517
v -24.638634 35.699318 23.431517
v 1.721827 35.699318 23.431517
v 1.721827 35.699318 -23.431517
v -24.638634 35.699318 -23.431517
v -4.962086 0.000000 24.972364
v 2.547853 0.000000 24.972364
v 2.547853 29.805271 24.972364
v -4.962086 29.805271 24.972364
v -4.962086 29.805271 -24.972364
v 2.547853 29.805271 -24.972364
v 2.547853 0.000000 -24.972364
v -4.962086 0.000000 -24.972364
v 23.765247 37.250061 -2.922717
v 23.765247 37.250061 -8.046939
v 7.684681 37.250061 -1.314866
v 7.074982 37.250061 -6.606600
v 23.765247 27.366856 -11.104685
v 23.765247 26.039480 -6.227818
v 23.765247 26.983114 -5.950366
v 23.765247 28.392797 -10.775954
v 26.179482 22.854595 -7.114924
v 25.660671 24.310501 -11.787929
v 25.818626 22.395443 -7.293212
v 25.238926 23.830313 -12.007227
v -23.501659 0.000000 24.972364
v -7.809196 0.000000 24.972364
v -16.880836 2.606709 24.972364
v -15.887508 0.000000 23.488543
v 16.401737 37.250061 24.972364
v 23.765247 37.250061 13.104849
v 20.141842 37.250061 -14.717697
v 20.141811 37.250061 -23.083208
v 22.106091 37.250061 -14.775330
v 22.106091 37.250061 -23.190811
v 23.765247 0.000000 -18.658638
v 20.944607 0.000000 -24.972366
v -26.179478 31.200130 -24.972363
v -26.179482 11.230111 -24.972364
v -24.065075 20.678457 -24.972364
v -26.179482 21.454966 -22.053164
vt 0.047691 0.327801
vt 0.047760 0.327818
vt 0.047760 0.327793
vt 0.047691 0.327779
vt 0.046760 0.327798
vt 0.046822 0.327783
vt 0.046761 0.327823
vt 0.046822 0.327805
vt 0.047691 0.327779
vt 0.047760 0.327793
vt 0.046760 0.327798
vt 0.046822 0.327783
vt 0.101795 0.378791
vt 0.101106 0.378634
vt 0.101325 0.377791
vt 0.101981 0.377938
vt 0.046816 0.327807
vt 0.047698 0.327802
vt 0.047743 0.327790
vt 0.046778 0.327794
vt 0.101444 0.378711
vt 0.047726 0.327786
vt 0.046792 0.327790
vt 0.101664 0.377867
vt 0.046777 0.327818
vt 0.047744 0.327814
vt 0.047552 0.352890
vt 0.047697 0.352878
vt 0.047697 0.352298
vt 0.047545 0.352305
vt 0.081878 0.253851
vt 0.081221 0.253958
vt 0.080878 0.253292
vt 0.081401 0.253227
vt 0.047822 0.352555
vt 0.048017 0.352543
vt 0.048000 0.353278
vt 0.047815 0.353298
vt 0.081525 0.279323
vt 0.080573 0.279315
vt 0.081536 0.278554
vt 0.080716 0.278952
vt 0.081494 0.278958
vt 0.081502 0.278323
vt 0.047752 0.327809
vt 0.046784 0.327790
vt 0.046965 0.327795
vt 0.047717 0.327784
vt 0.046760 0.327097
vt 0.047099 0.327095
vt 0.047021 0.327235
vt 0.047003 0.327267
vt 0.046863 0.327597
vt 0.047654 0.327588
vt 0.047625 0.327567
vt 0.047015 0.327574
vt 0.047658 0.327003
vt 0.047629 0.327067
vt 0.046850 0.327006
vt 0.047755 0.327087
vt 0.047760 0.327092
vt 0.047658 0.327003
vt 0.047233 0.327095
vt 0.047120 0.327095
vt 0.046760 0.327097
vt 0.046850 0.327006
vt 0.047760 0.327092
vt 0.047658 0.327003
vt 0.046760 0.327097
vt 0.046850 0.327006
vt 0.047758 0.327111
vt 0.047760 0.327092
vt 0.047752 0.327809
vt 0.047654 0.327588
vt 0.047654 0.327568
vt 0.047658 0.327003
vt 0.046760 0.327097
vt 0.046850 0.327006
vt 0.046779 0.327823
vt 0.046863 0.327597
vt 0.047606 0.327588
vt 0.047654 0.327588
vt 0.047654 0.327588
vt 0.049884 0.352323
vt 0.050077 0.351831
vt 0.050350 0.351875
vt 0.050182 0.352357
vt 0.049993 0.352760
vt 0.049730 0.352667
vt 0.049730 0.352667
vt 0.049993 0.352760
vt 0.049959 0.352831
vt 0.049696 0.352742
vt 0.047101 0.327278
vt 0.047117 0.327249
vt 0.047202 0.327095
vt 0.047511 0.327093
vt 0.047723 0.327171
vt 0.081002 0.278411
vt 0.081913 0.278018
vt 0.082002 0.278229
vt 0.081080 0.278629
vt 0.049959 0.352831
vt 0.049696 0.352742
vt 0.047120 0.327095
vt 0.046760 0.327097
vt 0.047099 0.327095
vt 0.046760 0.327097
vt 0.046863 0.327819
vt 0.046779 0.327823
vt 0.046852 0.327102
vt 0.046859 0.327419
vt 0.046856 0.327257
vt 0.046879 0.327260
vn -0.000000 0.000000 1.000000
vn -0.000000 0.000000 1.000000
vn -0.000000 0.000000 1.000000
vn -0.000000 0.000000 1.000000
vn -0.000000 0.000000 1.000000
vn -0.111082 0.993811 -0.000385
vn -0.111082 0.993811 -0.000385
vn -0.111082 0.993811 -0.000385
vn -0.111082 0.993811 -0.000385
vn 0.000000 0.000000 -1.000000
vn 0.000000 0.000000 -1.000000
vn 0.000000 0.000000 -1.000000
vn 0.000000 0.000000 -1.000000
vn 0.000000 0.000000 -1.000000
vn 0.000005 -1.000000 0.000000
vn 0.000005 -1.000000 0.000000
vn 0.000005 -1.000000 0.000000
vn 0.000005 -1.000000 0.000000
vn 0.977979 0.208703 0.000000
vn 0.977979 0.208703 0.000000
vn 0.977979 0.208703 0.000000
vn 0.977979 0.208703 0.000000
vn -0.850352 0.526215 0.000000
vn -0.850352 0.526215 0.000000
vn -0.850352 0.526215 0.000000
vn -0.850352 0.526215 0.000000
vn -0.081256 0.996677 -0.005654
vn -0.081256 0.996677 -0.005654
vn -0.081256 0.996677 -0.005654
vn -0.081256 0.996677 -0.005654
vn -0.208702 0.977979 0.000000
vn -0.208702 0.977979 0.000000
vn -0.208702 0.977979 0.000000
vn -0.208702 0.977979 0.000000
vn -0.154360 0.987914 0.014129
vn -0.154360 0.987914 0.014129
vn -0.154360 0.987914 0.014129
vn -0.154360 0.987914 0.014129
vn -0.065987 0.997820 0.000000
vn -0.065987 0.997820 0.000000
vn -0.065987 0.997820 0.000000
vn -0.065987 0.997820 0.000000
vn 0.076275 -0.997087 0.000724
vn 0.076275 -0.997087 0.000724
vn 0.076275 -0.997087 0.000724
vn 0.076275 -0.997087 0.000724
vn 0.000000 0.000000 1.000000
vn 0.000000 0.000000 1.000000
vn 0.000000 0.000000 1.000000
vn 0.000000 0.000000 1.000000
vn -0.123479 0.992347 -0.000273
vn -0.123479 0.992347 -0.000273
vn -0.123479 0.992347 -0.000273
vn -0.123479 0.992347 -0.000273
vn 0.000000 0.000000 -1.000000
vn 0.000000 0.000000 -1.000000
vn 0.000000 0.000000 -1.000000
vn 0.000000 0.000000 -1.000000
vn -0.154312 0.988013 -0.004269
vn -0.154312 0.988013 -0.004269
vn -0.154312 0.988013 -0.004269
vn -0.154312 0.988013 -0.004269
vn -0.078256 0.996855 0.012463
vn -0.078256 0.996855 0.012463
vn -0.078256 0.996855 0.012463
vn -0.078256 0.996855 0.012463
vn 0.171131 -0.985248 -0.000130
vn 0.171131 -0.985248 -0.000130
vn 0.171131 -0.985248 -0.000130
vn 0.171131 -0.985248 -0.000130
vn 0.000000 0.000000 1.000000
vn 0.000000 0.000000 1.000000
vn 0.000000 0.000000 1.000000
vn 0.000000 0.000000 1.000000
vn 0.000000 1.000000 0.000000
vn 0.000000 1.000000 0.000000
vn 0.000000 1.000000 0.000000
vn 0.000000 1.000000 0.000000
vn 0.000000 0.000000 -1.000000
vn 0.000000 0.000000 -1.000000
vn 0.000000 0.000000 -1.000000
vn 0.000000 0.000000 -1.000000
vn 0.000000 -1.000000 0.000000
vn 0.000000 -1.000000 0.000000
vn 0.000000 -1.000000 0.000000
vn 0.000000 -1.000000 0.000000
vn 1.000000 0.000000 0.000000
vn 1.000000 0.000000 0.000000
vn 1.000000 0.000000 0.000000
vn -1.000000 0.000000 0.000000
vn -1.000000 0.000000 0.000000
vn -1.000000 0.000000 0.000000
vn 1.000000 0.000001 0.000000
vn 1.000000 0.000001 0.000000
vn 1.000000 0.000001 0.000000
vn 1.000000 0.000001 0.000000
vn 1.000000 0.000000 0.000000
vn 1.000000 0.000000 0.000000
vn 1.000000 0.000000 0.000000
vn 1.000000 0.000000 0.000000
vn 1.000000 0.000000 0.000000
vn -1.000000 0.000000 0.000000
vn -1.000000 0.000000 0.000000
vn -1.000000 0.000000 0.000000
vn -1.000000 0.000000 0.000000
vn -1.000000 0.000000 0.000000
vn -1.000000 0.000000 0.000000
vn -1.000000 0.000000 0.000000
vn -1.000000 0.000000 0.000000
vn -1.000000 0.000000 -0.000000
vn -1.000000 0.000000 -0.000000
vn -1.000000 0.000000 -0.000000
vn -1.000000 0.000000 -0.000000
vn -1.000000 0.000000 -0.000000
vn 0.000000 1.000000 0.000000
vn 0.000000 1.000000 0.000000
vn 0.000000 1.000000 0.000000
vn 0.000000 1.000000 0.000000
vn 0.000000 1.000000 0.000000
vn 0.000000 1.000000 0.000000
vn 0.000000 1.000000 0.000000
vn 0.000000 1.000000 0.000000
vn 0.000000 1.000000 -0.000001
vn 0.000000 1.000000 -0.000001
vn 0.000000 1.000000 -0.000001
vn 0.000000 1.000000 -0.000001
vn 0.000000 1.000000 0.000000
vn 0.000000 1.000000 0.000000
vn 0.000000 1.000000 0.000000
vn 0.000000 1.000000 0.000000
vn 0.000000 0.000000 -1.000000
vn 0.000000 0.000000 -1.000000
vn 0.000000 0.000000 -1.000000
vn 0.000000 0.000000 -1.000000
vn -1.000000 0.000000 0.000000
vn -1.000000 0.000000 0.000000
vn -1.000000 0.000000 0.000000
vn -1.000000 0.000000 0.000000
vn 0.000000 0.000000 1.000000
vn 0.000000 0.000000 1.000000
vn 0.000000 0.000000 1.000000
vn 0.000000 0.000000 1.000000
vn 1.000000 0.000000 0.000000
vn 1.000000 0.000000 0.000000
vn 1.000000 0.000000 0.000000
vn 1.000000 0.000000 0.000000
vn 0.000000 0.000000 1.000000
vn 0.000000 0.000000 1.000000
vn 0.000000 0.000000 1.000000
vn 0.000000 0.000000 1.000000
vn 0.000000 0.000000 1.000000
vn 0.000000 0.000000 1.000000
vn 0.000000 0.000000 1.000000
vn 0.000000 0.000000 1.000000
vn 0.000000 0.000000 1.000000
vn 0.000000 0.000000 1.000000
vn 0.000000 0.000000 -1.000000
vn 0.000000 0.000000 -1.000000
vn 0.000000 0.000000 -1.000000
vn 0.000000 0.000000 -1.000000
vn 0.000000 0.000000 -1.000000
vn 0.000000 0.000000 -1.000000
vn 0.000000 0.000000 -1.000000
vn 0.000000 0.000000 -1.000000
vn 0.000000 0.000000 -1.000000
vn 0.000000 0.000000 -1.000000
vn 0.000000 0.000000 -1.000000
vn 0.000000 0.000000 -1.000000
vn 0.000000 0.000000 -1.000000
vn 0.000000 0.000000 -1.000000
vn 0.662447 -0.688171 -0.295946
vn 0.662447 -0.688171 -0.295946
vn 0.662447 -0.688171 -0.295946
vn 0.000000 -1.000000 0.000000
vn 0.000000 -1.000000 0.000000
vn 0.000000 -1.000000 0.000000
vn 0.000000 -1.000000 0.000000
vn 0.000000 1.000000 0.000000
vn 0.000000 1.000000 0.000000
vn 0.000000 1.000000 0.000000
vn 0.000000 1.000000 0.000000
vn 1.000000 0.000000 0.000000
vn 1.000000 0.000000 0.000000
vn 1.000000 0.000000 0.000000
vn 1.000000 0.000000 0.000000
vn 0.793095 -0.549808 -0.262128
vn 0.793095 -0.549808 -0.262128
vn 0.793095 -0.549808 -0.262128
vn 0.793095 -0.549808 -0.262128
vn 1.000000 0.000000 0.000000
vn 1.000000 0.000000 0.000000
vn 1.000000 0.000000 0.000000
vn 1.000000 0.000000 0.000000
vn 1.000000 0.000000 0.000000
vn 1.000000 0.000000 0.000000
vn 1.000000 0.000000 0.000000
vn 0.361019 0.905256 0.224003
vn 0.361019 0.905256 0.224003
vn 0.361019 0.905256 0.224003
vn 0.000000 1.000000 0.000000
vn 0.000000 1.000000 0.000000
vn 0.000000 1.000000 0.000000
vn 0.000000 1.000000 0.000000
vn 0.891352 0.445155 0.085612
vn 0.891352 0.445155 0.085612
vn 0.891352 0.445155 0.085612
vn 0.891352 0.445155 0.085612
vn -0.043521 -0.298548 0.953402
vn -0.043521 -0.298548 0.953402
vn -0.043521 -0.298548 0.953402
vn -0.043521 -0.298548 0.953402
vn -0.902729 -0.424835 -0.067792
vn -0.902729 -0.424835 -0.067792
vn -0.902729 -0.424835 -0.067792
vn -0.902729 -0.424835 -0.067792
vn 0.146843 0.301657 -0.942040
vn 0.146843 0.301657 -0.942040
vn 0.146843 0.301657 -0.942040
vn 0.146843 0.301657 -0.942040
vn 0.172049 -0.436990 0.882859
vn 0.172049 -0.436990 0.882859
vn 0.172049 -0.436989 0.882859
vn 0.000000 -1.000000 0.000000
vn 0.000000 -1.000000 0.000000
vn 0.000000 -1.000000 0.000000
vn 0.000000 -1.000000 0.000000
vn 0.000000 -1.000000 0.000000
vn -0.152942 -0.532255 0.832655
vn -0.152942 -0.532255 0.832655
vn -0.152942 -0.532255 0.832655
vn 0.000000 0.000000 1.000000
vn 0.000000 0.000000 1.000000
vn 0.000000 0.000000 1.000000
vn 0.000000 0.000000 1.000000
vn 1.000000 0.000000 0.000000
vn 1.000000 0.000000 0.000000
vn 1.000000 0.000000 0.000000
vn 1.000000 0.000000 0.000000
vn 0.000000 0.000000 1.000000
vn 0.000000 0.000000 1.000000
vn 0.000000 0.000000 1.000000
vn 0.000000 0.000000 1.000000
vn 0.000000 1.000000 0.000000
vn 0.000000 1.000000 0.000000
vn 0.000000 1.000000 0.000000
vn 0.000000 1.000000 0.000000
vn 0.000000 1.000000 0.000000
vn 0.000000 1.000000 0.000000
vn 0.000000 1.000000 0.000000
vn 0.000000 1.000000 0.000000
vn 0.000000 1.000000 0.000000
vn 0.000000 1.000000 0.000000
vn 0.000000 1.000000 0.000000
vn 0.000000 1.000000 0.000000
vn 0.000000 1.000000 0.000000
vn 0.000000 1.000000 0.000000
vn 0.000000 1.000000 0.000000
vn 0.000000 1.000000 0.000000
vn 0.000000 1.000000 0.000000
vn 0.000000 1.000000 -0.000000
vn 0.000000 1.000000 -0.000000
vn 0.000000 1.000000 -0.000000
vn 0.000000 1.000000 -0.000000
vn 0.000000 -1.000000 0.000000
vn 0.000000 -1.000000 0.000000
vn 0.000000 -1.000000 0.000000
vn 0.000000 -1.000000 0.000000
vn 0.000000 -1.000000 0.000000
vn 1.000000 0.000000 0.000000
vn 1.000000 0.000000 0.000000
vn 1.000000 0.000000 0.000000
vn 1.000000 0.000000 0.000000
vn 1.000000 0.000000 0.000000
vn -0.775105 0.173458 -0.607556
vn -0.775105 0.173458 -0.607556
vn -0.775105 0.173458 -0.607556
vn -0.819113 -0.164607 -0.549507
vn -0.819113 -0.164607 -0.549507
vn -0.819113 -0.164607 -0.549507
vn -0.000000 -0.000000 -1.000000
vn -0.000000 -0.000000 -1.000000
vn -0.000000 -0.000000 -1.000000
vn -0.000000 -0.000000 -1.000000
vn -1.000000 0.000000 0.000000
vn -1.000000 0.000000 0.000000
vn -1.000000 0.000000 0.000000
vn -1.000000 0.000000 0.000000
vn -1.000000 0.000000 0.000000
vn -1.000000 0.000000 0.000000
vn -1.000000 0.000000 0.000000
s off
f 1/1/1 14/18/2 20/26/3 15/19/4 3/4/5
f 9/13/6 17/21/7 18/24/8 12/16/9
f 5/6/10 16/20/11 19/25/12 13/17/13 7/8/14
f 7/8/15 13/17/16 14/18/17 1/1/18
f 2/2/19 8/7/20 6/5/21 4/3/22
f 7/8/23 1/1/24 3/4/25 5/6/26
f 3/4/27 15/19/28 17/22/29 9/9/30
f 4/3/31 6/5/32 11/11/33 10/10/34
f 6/5/35 16/20/36 18/23/37 11/11/38
f 5/6/39 3/4/40 9/9/41 12/12/42
f 14/18/43 13/17/44 19/25/45 20/26/46
f 15/19/47 20/26/48 2/2/49 4/3/50
f 18/24/51 17/21/52 10/14/53 11/15/54
f 19/25/55 16/20/56 6/5/57 8/7/58
f 17/22/59 15/19/60 4/3/61 10/10/62
f 18/23/63 16/20/64 5/6/65 12/12/66
f 20/26/67 19/25/68 8/7/69 2/2/70
f 43/27/71 44/28/72 45/29/73 46/30/74
f 39/31/75 40/32/76 41/33/77 42/34/78
f 47/35/79 48/36/80 49/37/81 50/38/82
f 50/38/83 49/37/84 44/28/85 43/27/86
f 30/39/87 29/40/88 31/41/89
f 32/42/90 33/43/91 34/44/92
f 22/45/93 73/109/94 29/47/95 30/48/96
f 26/49/97 52/50/98 58/51/99 55/52/100 28/46/101
f 27/53/102 21/54/103 33/55/104 32/56/105
f 21/54/106 23/57/107 34/58/108 33/55/109
f 25/59/110 75/111/111 78/114/112 34/58/113 23/57/114
f 23/57/115 67/60/116 36/61/117 35/62/118
f 36/61/119 53/63/120 54/64/121 37/65/122
f 26/49/123 25/59/124 38/66/125 37/65/126
f 25/59/127 23/57/128 35/62/129 38/66/130
f 35/62/131 36/61/132 40/67/133 39/68/134
f 36/61/135 37/65/136 41/69/137 40/67/138
f 37/65/139 38/66/140 42/70/141 41/69/142
f 38/66/143 35/62/144 39/68/145 42/70/146
f 22/45/147 24/71/148 67/60/149 45/72/150 44/73/151
f 23/57/152 21/54/153 63/74/154 65/75/155 46/76/156
f 25/59/157 26/49/158 48/77/159 47/78/160
f 26/49/161 28/46/162 74/110/163 49/79/164 48/77/165
f 27/53/166 76/112/167 77/113/168 47/78/169 50/80/170
f 28/46/171 73/109/172 74/110/173
f 66/81/174 50/80/175 43/82/176 64/83/177
f 52/84/178 54/85/179 53/86/180 51/87/181
f 51/87/182 57/88/183 58/89/184 52/84/185
f 60/90/186 59/91/187 61/92/188 62/93/189
f 29/47/190 56/94/191 57/95/192 51/96/193 68/97/194 24/71/195 31/98/196
f 24/71/197 68/97/198 67/60/199
f 70/99/200 69/100/201 71/101/202 72/102/203
f 58/89/204 57/88/205 59/91/206 60/90/207
f 57/88/208 56/103/209 61/92/210 59/91/211
f 56/103/212 55/104/213 62/93/214 61/92/215
f 55/104/216 58/89/217 60/90/218 62/93/219
f 63/74/220 66/81/221 65/75/222
f 21/54/223 27/53/224 50/80/225 66/81/226 63/74/227
f 65/75/228 66/81/229 64/83/230
f 46/76/231 65/75/232 64/83/233 43/82/234
f 24/71/235 22/45/236 30/48/237 31/98/238
f 67/60/239 23/57/240 46/76/241 45/72/242
f 67/60/243 68/97/244 51/96/245 53/63/246 36/61/247
f 37/65/248 54/64/249 69/105/250 70/106/251
f 54/64/252 52/50/253 71/107/254 69/105/255
f 52/50/256 26/49/257 72/108/258 71/107/259
f 26/49/260 37/65/261 70/106/262 72/108/263
f 74/110/264 73/109/265 22/45/266 44/73/267 49/79/268
f 73/109/269 28/46/270 55/52/271 56/94/272 29/47/273
f 76/112/274 78/114/275 77/113/276
f 77/113/277 78/114/278 75/111/279
f 47/78/280 77/113/281 75/111/282 25/59/283
f 32/56/284 78/114/285 76/112/286 27/53/287
f 34/58/288 78/114/289 32/56/290
