# This file uses centimeters as units for non-parametric coordinates.

v 9.687897 -2.176781 -7.945980
v -9.687897 -1.739128 -7.893398
v 9.687897 -1.194199 -7.945980
v -9.687897 -0.756546 -7.893398
v 0.000000 0.491287 26.324280
v 0.000000 -0.491287 26.324280
v -0.371241 -7.786499 -7.199207
v -0.371241 -5.551392 -7.199207
v 2.906371 -0.491287 -7.199207
v 2.186528 0.491287 -7.199207
v -2.906371 -0.053635 -7.893398
v -2.186528 0.928936 -7.893398
vt 0.101315 0.378663
vt 0.101112 0.378715
vt 0.101113 0.378689
vt 0.101316 0.378637
vt 0.100316 0.378193
vt 0.101021 0.378905
vt 0.100317 0.378216
vt 0.100933 0.378761
vt 0.101021 0.378931
vt 0.100717 0.378816
vt 0.100717 0.378789
vt 0.100933 0.378734
vn -0.113623 -0.041621 -0.992652
vn -0.113623 -0.041621 -0.992652
vn -0.113623 -0.041621 -0.992652
vn -0.113623 -0.041621 -0.992652
vn -0.919242 0.389101 -0.059956
vn -0.919242 0.389100 -0.059956
vn -0.919242 0.389101 -0.059956
vn -0.949454 -0.304378 0.076751
vn -0.949454 -0.304378 0.076751
vn -0.949454 -0.304377 0.076751
vn -0.962179 0.000000 0.272417
vn -0.962179 0.000000 0.272417
vn -0.962179 0.000000 0.272417
vn -0.962179 0.000000 0.272417
vn 0.962289 0.000000 0.272030
vn 0.962289 0.000000 0.272030
vn 0.962289 0.000000 0.272030
vn 0.962289 0.000000 0.272030
vn 0.181172 -0.040531 -0.982616
vn 0.181172 -0.040531 -0.982616
vn 0.181172 -0.040531 -0.982616
vn 0.181172 -0.040531 -0.982616
vn 0.962904 0.263501 -0.058160
vn 0.962904 0.263501 -0.058160
vn 0.962904 0.263501 -0.058160
vn 0.909327 -0.408545 0.078836
vn 0.909327 -0.408545 0.078836
vn 0.909327 -0.408545 0.078836
vn 0.000001 0.000000 -1.000000
vn 0.000001 0.000000 -1.000000
vn 0.000001 0.000000 -1.000000
vn 0.000001 0.000000 -1.000000
vn 0.000000 0.000000 -1.000000
vn 0.000000 0.000000 -1.000000
vn 0.000000 0.000000 -1.000000
vn 0.000000 0.000000 -1.000000
vn -0.219147 0.975332 0.026478
vn -0.219147 0.975332 0.026478
vn -0.219147 0.975332 0.026478
vn 0.220565 0.975266 0.014386
vn 0.220565 0.975266 0.014386
vn 0.220565 0.975266 0.014386
vn -0.243337 -0.969712 -0.021097
vn -0.243337 -0.969712 -0.021097
vn -0.243337 -0.969712 -0.021097
vn 0.241073 -0.969950 -0.032882
vn 0.241073 -0.969950 -0.032882
vn 0.241073 -0.969950 -0.032882
s off
f 1/1/1 9/2/2 10/3/3 3/4/4
f 5/5/5 10/3/6 8/6/7
f 6/7/8 11/8/9 7/9/10
f 2/10/11 6/7/12 5/5/13 4/11/14
f 6/7/15 1/1/16 3/4/17 5/5/18
f 8/6/19 7/9/20 11/8/21 12/12/22
f 5/5/23 8/6/24 12/12/25
f 6/7/26 7/9/27 9/2/28
f 10/3/29 9/2/30 7/9/31 8/6/32
f 12/12/33 11/8/34 2/10/35 4/11/36
f 5/5/37 12/12/38 4/11/39
f 3/4/40 10/3/41 5/5/42
f 6/7/43 9/2/44 1/1/45
f 6/7/46 2/10/47 11/8/48
