# This file uses centimeters as units for non-parametric coordinates.

v 6.356171 17.743170 -6.356092
v -0.000061 17.743170 -8.988913
v -6.356262 17.743170 -6.356092
v -8.989014 17.743170 0.000128
v -6.356262 17.743170 6.356146
v -0.000061 17.743170 8.989040
v 6.356171 17.743170 6.356146
v 8.988953 17.743170 0.000128
v 5.284607 22.540623 -5.284882
v -0.000061 22.540623 -7.473506
v -5.284698 22.540623 -5.284882
v -7.473755 22.540623 0.000128
v -5.284698 22.540623 5.284553
v -0.000061 22.540623 7.473757
v 5.284607 22.540623 5.284553
v 7.473694 22.540623 0.000128
v 6.356171 19.765261 -6.356092
v -0.000061 19.765261 -8.988913
v -0.000061 19.765261 -7.745862
v 5.477173 19.765261 -5.477482
v -6.356262 19.765261 -6.356092
v -5.477264 19.765261 -5.477482
v -8.989014 19.765261 0.000128
v -7.746094 19.765261 0.000128
v -6.356262 19.765261 6.356146
v -5.477264 19.765261 5.477129
v -0.000061 19.765261 8.989040
v -0.000061 19.765261 7.746118
v 6.356171 19.765261 6.356146
v 5.477173 19.765261 5.477129
v 8.988953 19.765261 0.000128
v 7.746033 19.765261 0.000128
v 5.785065 17.568668 -5.784951
v -0.000061 17.568668 -8.181362
v -5.785187 17.568668 -5.784951
v -8.181396 17.568668 0.000124
v -5.785187 17.568668 5.785072
v -0.000061 17.568668 8.181451
v 5.785065 17.568668 5.785072
v 8.181396 17.568668 0.000124
v 3.616119 22.540623 -3.616298
v -0.000061 22.540623 -5.113928
v -3.616211 22.540623 -3.616298
v -5.114136 22.540623 0.000128
v -3.616211 22.540623 3.616155
v -0.000061 22.540623 5.114182
v 3.616119 22.540623 3.616155
v 5.114075 22.540623 0.000128
v 3.453522 22.175446 -3.453665
v -0.000061 22.175446 -4.883945
v -3.453583 22.175446 -3.453665
v -4.884155 22.175446 0.000128
v -3.453583 22.175446 3.453539
v -0.000061 22.175446 4.884200
v 3.453522 22.175446 3.453539
v 4.884094 22.175446 0.000128
v -0.000061 22.175446 0.000128
v 3.740814 -0.000000 -3.740906
v -0.000031 -0.000000 -5.290405
v -3.740997 -0.000000 -3.740906
v -5.290436 -0.000000 0.000122
v -3.740997 -0.000000 3.740845
v -0.000031 -0.000000 5.290466
v 3.740814 -0.000000 3.740845
v 5.290466 -0.000000 0.000122
v 5.785614 16.221388 -5.785522
v -0.000061 16.221388 -8.182007
v -5.785675 16.221388 -5.785522
v -8.182098 16.221388 0.000122
v -5.785675 16.221388 5.785583
v -0.000061 16.221388 8.182129
v 5.785614 16.221388 5.785583
v 8.182037 16.221388 0.000122
v -0.000031 -0.000000 0.000122
v 5.426422 16.046886 -5.426270
v -0.000061 16.046886 -7.674255
v -5.426605 16.046886 -5.426270
v -7.674225 16.046886 0.000122
v -5.426605 16.046886 5.426453
v -0.000061 16.046886 7.674316
v 5.426422 16.046886 5.426453
v 7.674286 16.046886 0.000122
v 3.733093 2.562927 -3.733154
v -0.000031 2.562927 -5.279297
v -3.733185 2.562927 -3.733154
v -5.279510 2.562927 0.000122
v -3.733185 2.562927 3.733154
v -0.000031 2.562927 5.279480
v 3.733093 2.562927 3.733154
v 5.279480 2.562927 0.000122
v 2.175354 7.778282 -5.298550
v -0.000061 5.899847 -5.817833
v -0.000061 12.770534 -7.146486
v 2.510437 10.916897 -5.729288
v -2.175476 7.778281 -5.298550
v -2.510559 10.916898 -5.729287
v -2.175476 7.778282 5.298641
v -0.000061 5.899841 5.818017
v -0.000061 12.770534 7.146538
v -2.510559 10.916897 5.729404
v 2.175354 7.778282 5.298642
v 2.510437 10.916895 5.729405
vt 0.102702 0.375827
vt 0.102844 0.375967
vt 0.102900 0.375715
vt 0.102787 0.375803
vt 0.103140 0.376015
vt 0.103117 0.375687
vt 0.103402 0.375943
vt 0.103327 0.375733
vt 0.103486 0.375814
vt 0.103416 0.375830
vt 0.103353 0.375704
vt 0.103320 0.375928
vt 0.103073 0.375658
vt 0.103080 0.375962
vt 0.102801 0.375700
vt 0.102855 0.375907
vt 0.102786 0.375708
vt 0.102900 0.375622
vt 0.102927 0.375635
vt 0.102830 0.375709
vt 0.103120 0.375595
vt 0.103117 0.375612
vt 0.103331 0.375639
vt 0.103301 0.375650
vt 0.103422 0.375734
vt 0.103378 0.375732
vt 0.103325 0.375829
vt 0.103293 0.375813
vt 0.103083 0.375862
vt 0.103086 0.375841
vt 0.102855 0.375809
vt 0.102890 0.375796
vt 0.102781 0.375864
vt 0.102997 0.375710
vt 0.103270 0.375627
vt 0.103419 0.375667
vt 0.103388 0.375789
vt 0.103208 0.375921
vt 0.102961 0.375998
vt 0.102776 0.375980
vt 0.103080 0.375740
vt 0.102858 0.375891
vt 0.103316 0.375644
vt 0.103403 0.375666
vt 0.103315 0.375773
vt 0.103121 0.375901
vt 0.102917 0.375989
vt 0.102801 0.375991
vt 0.103068 0.375721
vt 0.102858 0.375866
vt 0.103292 0.375631
vt 0.103377 0.375652
vt 0.103294 0.375756
vt 0.103109 0.375879
vt 0.102914 0.375962
vt 0.102804 0.375962
vt 0.103090 0.375807
vt 0.102807 0.375812
vt 0.102911 0.375729
vt 0.102900 0.375715
vt 0.102787 0.375803
vt 0.103116 0.375703
vt 0.103117 0.375687
vt 0.103313 0.375746
vt 0.103327 0.375733
vt 0.103396 0.375838
vt 0.103416 0.375830
vt 0.103305 0.375929
vt 0.103320 0.375928
vt 0.103082 0.375961
vt 0.103080 0.375962
vt 0.102871 0.375910
vt 0.102855 0.375907
vt 0.112884 0.208875
vt 0.112756 0.209060
vt 0.113040 0.209124
vt 0.113101 0.208835
vt 0.113283 0.208964
vt 0.113325 0.209188
vt 0.113198 0.209378
vt 0.112977 0.209419
vt 0.112793 0.209286
vt 0.102900 0.375622
vt 0.102786 0.375708
vt 0.103120 0.375595
vt 0.103331 0.375639
vt 0.103422 0.375734
vt 0.103325 0.375829
vt 0.103083 0.375862
vt 0.102855 0.375809
vt 0.102441 0.378814
vt 0.102237 0.379034
vt 0.102278 0.378384
vt 0.102491 0.378514
vt 0.102004 0.378850
vt 0.101979 0.378551
vt 0.113102 0.208830
vt 0.113286 0.208960
vt 0.113457 0.208822
vt 0.113146 0.208605
vt 0.113328 0.209187
vt 0.113530 0.209206
vt 0.101773 0.378536
vt 0.101959 0.378673
vt 0.101929 0.378034
vt 0.101731 0.378246
vt 0.102164 0.378508
vt 0.102185 0.378217
vt 0.112976 0.209420
vt 0.112791 0.209286
vt 0.112617 0.209374
vt 0.112932 0.209605
vt 0.112754 0.209057
vt 0.112556 0.208986
vt 0.112883 0.208870
vt 0.113200 0.209379
vt 0.112883 0.208870
vt 0.112754 0.209057
vt 0.112777 0.208671
vt 0.112556 0.208986
vt 0.112777 0.208671
vt 0.113102 0.208830
vt 0.113146 0.208605
vt 0.113200 0.209379
vt 0.113328 0.209187
vt 0.113315 0.209534
vt 0.113530 0.209206
vt 0.113315 0.209534
vt 0.112976 0.209420
vt 0.112932 0.209605
vn 0.084962 -0.975045 -0.205108
vn 0.084962 -0.975045 -0.205108
vn 0.084962 -0.975045 -0.205108
vn 0.084962 -0.975045 -0.205108
vn -0.084964 -0.975044 -0.205112
vn -0.084964 -0.975044 -0.205112
vn -0.084964 -0.975044 -0.205112
vn -0.084964 -0.975044 -0.205112
vn -0.205111 -0.975044 -0.084959
vn -0.205111 -0.975044 -0.084959
vn -0.205111 -0.975044 -0.084959
vn -0.205111 -0.975044 -0.084959
vn -0.205116 -0.975043 0.084962
vn -0.205116 -0.975043 0.084962
vn -0.205116 -0.975043 0.084962
vn -0.205116 -0.975043 0.084962
vn -0.084966 -0.975042 0.205119
vn -0.084966 -0.975042 0.205119
vn -0.084966 -0.975042 0.205119
vn -0.084966 -0.975042 0.205119
vn 0.084964 -0.975043 0.205115
vn 0.084964 -0.975043 0.205115
vn 0.084964 -0.975043 0.205115
vn 0.084964 -0.975043 0.205115
vn 0.205118 -0.975042 0.084966
vn 0.205118 -0.975042 0.084966
vn 0.205118 -0.975042 0.084966
vn 0.205118 -0.975042 0.084966
vn 0.205113 -0.975044 -0.084962
vn 0.205113 -0.975044 -0.084962
vn 0.205113 -0.975044 -0.084962
vn 0.205113 -0.975044 -0.084962
vn 0.000000 1.000000 -0.000001
vn 0.000000 1.000000 -0.000001
vn 0.000000 1.000000 -0.000001
vn 0.000000 1.000000 -0.000001
vn 0.000000 1.000000 0.000000
vn 0.000000 1.000000 0.000000
vn 0.000000 1.000000 0.000000
vn 0.000000 1.000000 0.000000
vn 0.000000 1.000000 -0.000000
vn 0.000000 1.000000 -0.000000
vn 0.000000 1.000000 -0.000000
vn 0.000000 1.000000 -0.000000
vn 0.000000 1.000000 0.000001
vn 0.000000 1.000000 0.000001
vn 0.000000 1.000000 0.000001
vn 0.000000 1.000000 0.000001
vn 0.000000 1.000000 0.000000
vn 0.000000 1.000000 0.000000
vn 0.000000 1.000000 0.000000
vn 0.000000 1.000000 0.000000
vn 0.000000 1.000000 0.000001
vn 0.000000 1.000000 0.000001
vn 0.000000 1.000000 0.000001
vn 0.000000 1.000000 0.000001
vn 0.000000 1.000000 0.000000
vn 0.000000 1.000000 0.000000
vn 0.000000 1.000000 0.000000
vn 0.000000 1.000000 0.000000
vn 0.000000 1.000000 -0.000000
vn 0.000000 1.000000 -0.000000
vn 0.000000 1.000000 -0.000000
vn 0.000000 1.000000 -0.000000
vn 0.382681 0.000000 -0.923881
vn 0.382681 0.000000 -0.923881
vn 0.382681 0.000000 -0.923881
vn 0.382681 0.000000 -0.923881
vn 0.381068 0.090295 -0.920127
vn 0.381068 0.090295 -0.920127
vn 0.381068 0.090295 -0.920127
vn 0.381068 0.090295 -0.920127
vn -0.382684 0.000000 -0.923880
vn -0.382684 0.000000 -0.923880
vn -0.382684 0.000000 -0.923880
vn -0.382684 0.000000 -0.923880
vn -0.381070 0.090296 -0.920126
vn -0.381070 0.090296 -0.920126
vn -0.381070 0.090296 -0.920126
vn -0.381070 0.090296 -0.920126
vn -0.923883 0.000000 -0.382676
vn -0.923883 0.000000 -0.382676
vn -0.923883 0.000000 -0.382676
vn -0.923883 0.000000 -0.382676
vn -0.920110 0.090294 -0.381111
vn -0.920110 0.090294 -0.381111
vn -0.920110 0.090294 -0.381111
vn -0.920110 0.090294 -0.381111
vn -0.923878 0.000000 0.382686
vn -0.923878 0.000000 0.382686
vn -0.923878 0.000000 0.382686
vn -0.923878 0.000000 0.382686
vn -0.920095 0.090292 0.381147
vn -0.920095 0.090292 0.381147
vn -0.920095 0.090292 0.381147
vn -0.920095 0.090292 0.381147
vn -0.382693 0.000000 0.923876
vn -0.382693 0.000000 0.923876
vn -0.382693 0.000000 0.923876
vn -0.382693 0.000000 0.923876
vn -0.381157 0.090292 0.920091
vn -0.381157 0.090292 0.920091
vn -0.381157 0.090292 0.920091
vn -0.381157 0.090292 0.920091
vn 0.382690 0.000000 0.923877
vn 0.382690 0.000000 0.923877
vn 0.382690 0.000000 0.923877
vn 0.382690 0.000000 0.923877
vn 0.381154 0.090292 0.920092
vn 0.381154 0.090292 0.920092
vn 0.381154 0.090292 0.920092
vn 0.381154 0.090292 0.920092
vn 0.923878 0.000000 0.382686
vn 0.923878 0.000000 0.382686
vn 0.923878 0.000000 0.382686
vn 0.923878 0.000000 0.382686
vn 0.920093 0.090291 0.381152
vn 0.920093 0.090291 0.381152
vn 0.920093 0.090291 0.381152
vn 0.920093 0.090291 0.381152
vn 0.923883 0.000000 -0.382676
vn 0.923883 0.000000 -0.382676
vn 0.923883 0.000000 -0.382676
vn 0.923883 0.000000 -0.382676
vn 0.920108 0.090293 -0.381115
vn 0.920108 0.090293 -0.381115
vn 0.920108 0.090293 -0.381115
vn 0.920108 0.090293 -0.381115
vn 0.000000 1.000000 0.000000
vn 0.000000 1.000000 0.000000
vn 0.000000 1.000000 0.000000
vn 0.000000 1.000000 0.000000
vn 0.000000 1.000000 -0.000000
vn 0.000000 1.000000 -0.000000
vn 0.000000 1.000000 -0.000000
vn 0.000000 1.000000 -0.000000
vn 0.000000 1.000000 0.000000
vn 0.000000 1.000000 0.000000
vn 0.000000 1.000000 0.000000
vn 0.000000 1.000000 0.000000
vn 0.000000 1.000000 -0.000000
vn 0.000000 1.000000 -0.000000
vn 0.000000 1.000000 -0.000000
vn 0.000000 1.000000 -0.000000
vn 0.000000 1.000000 -0.000000
vn 0.000000 1.000000 -0.000000
vn 0.000000 1.000000 -0.000000
vn 0.000000 1.000000 -0.000000
vn 0.000000 1.000000 -0.000001
vn 0.000000 1.000000 -0.000001
vn 0.000000 1.000000 -0.000001
vn 0.000000 1.000000 -0.000001
vn 0.000000 1.000000 0.000000
vn 0.000000 1.000000 0.000000
vn 0.000000 1.000000 0.000000
vn 0.000000 1.000000 0.000000
vn 0.000000 1.000000 0.000000
vn 0.000000 1.000000 0.000000
vn 0.000000 1.000000 0.000000
vn 0.000000 1.000000 0.000000
vn -0.330722 0.502920 0.798558
vn -0.330722 0.502920 0.798558
vn -0.330722 0.502920 0.798558
vn -0.330722 0.502920 0.798558
vn 0.330721 0.502918 0.798559
vn 0.330721 0.502918 0.798559
vn 0.330721 0.502918 0.798559
vn 0.330721 0.502918 0.798559
vn 0.798545 0.502917 0.330758
vn 0.798545 0.502917 0.330758
vn 0.798545 0.502917 0.330758
vn 0.798545 0.502917 0.330758
vn 0.798535 0.502911 -0.330790
vn 0.798535 0.502911 -0.330790
vn 0.798535 0.502911 -0.330790
vn 0.798535 0.502911 -0.330790
vn 0.330799 0.502904 -0.798536
vn 0.330799 0.502904 -0.798536
vn 0.330799 0.502904 -0.798536
vn 0.330799 0.502904 -0.798536
vn -0.330799 0.502904 -0.798536
vn -0.330799 0.502904 -0.798536
vn -0.330799 0.502904 -0.798536
vn -0.330799 0.502904 -0.798536
vn -0.798535 0.502909 -0.330795
vn -0.798535 0.502909 -0.330795
vn -0.798535 0.502909 -0.330795
vn -0.798535 0.502909 -0.330795
vn -0.798544 0.502915 0.330762
vn -0.798544 0.502915 0.330762
vn -0.798544 0.502915 0.330762
vn -0.798544 0.502915 0.330762
vn 0.000000 1.000000 -0.000000
vn 0.000000 1.000000 -0.000000
vn 0.000000 1.000000 -0.000000
vn 0.000000 1.000000 -0.000000
vn 0.000000 1.000000 0.000000
vn 0.000000 1.000000 0.000000
vn 0.000000 1.000000 0.000000
vn 0.000000 1.000000 0.000000
vn 0.000000 1.000000 0.000000
vn 0.000000 1.000000 0.000000
vn 0.000000 1.000000 0.000000
vn 0.000000 1.000000 0.000000
vn 0.000000 1.000000 -0.000000
vn 0.000000 1.000000 -0.000000
vn 0.000000 1.000000 -0.000000
vn 0.000000 1.000000 -0.000000
vn 0.133397 -0.937284 -0.322032
vn 0.133397 -0.937284 -0.322032
vn 0.133397 -0.937284 -0.322032
vn 0.133397 -0.937284 -0.322032
vn -0.133401 -0.937279 -0.322044
vn -0.133401 -0.937279 -0.322044
vn -0.133401 -0.937279 -0.322044
vn -0.133401 -0.937279 -0.322044
vn -0.322042 -0.937281 -0.133392
vn -0.322042 -0.937281 -0.133392
vn -0.322042 -0.937281 -0.133392
vn -0.322042 -0.937281 -0.133392
vn -0.322055 -0.937275 0.133400
vn -0.322055 -0.937275 0.133400
vn -0.322055 -0.937275 0.133400
vn -0.322055 -0.937275 0.133400
vn -0.133407 -0.937272 0.322061
vn -0.133407 -0.937272 0.322061
vn -0.133407 -0.937272 0.322061
vn -0.133407 -0.937272 0.322061
vn 0.133402 -0.937277 0.322049
vn 0.133402 -0.937277 0.322049
vn 0.133402 -0.937277 0.322049
vn 0.133402 -0.937277 0.322049
vn 0.322057 -0.937273 0.133408
vn 0.322057 -0.937273 0.133408
vn 0.322057 -0.937273 0.133408
vn 0.322057 -0.937273 0.133408
vn 0.322044 -0.937279 -0.133400
vn 0.322044 -0.937279 -0.133400
vn 0.322044 -0.937279 -0.133400
vn 0.322044 -0.937279 -0.133400
vn 0.000000 -1.000000 0.000000
vn 0.000000 -1.000000 0.000000
vn 0.000000 -1.000000 0.000000
vn 0.000000 -1.000000 0.000000
vn 0.000000 -1.000000 0.000000
vn 0.000000 -1.000000 0.000000
vn 0.000000 -1.000000 0.000000
vn 0.000000 -1.000000 0.000000
vn 0.000000 -1.000000 0.000000
vn 0.000000 -1.000000 0.000000
vn 0.000000 -1.000000 0.000000
vn 0.000000 -1.000000 0.000000
vn 0.000000 -1.000000 0.000000
vn 0.000000 -1.000000 0.000000
vn 0.000000 -1.000000 0.000000
vn 0.000000 -1.000000 0.000000
vn 0.000000 -1.000000 0.000000
vn 0.000000 -1.000000 0.000000
vn 0.000000 -1.000000 0.000000
vn 0.000000 -1.000000 0.000000
vn 0.000000 -1.000000 0.000000
vn 0.000000 -1.000000 -0.000000
vn 0.000000 -1.000000 -0.000000
vn 0.000000 -1.000000 -0.000000
vn 0.382682 0.000000 -0.923880
vn 0.382682 0.000000 -0.923880
vn 0.382682 0.000000 -0.923880
vn 0.382682 0.000000 -0.923880
vn -0.382684 0.000000 -0.923879
vn -0.382684 0.000000 -0.923879
vn -0.382684 0.000000 -0.923879
vn -0.382684 0.000000 -0.923879
vn -0.923883 0.000000 -0.382676
vn -0.923883 0.000000 -0.382676
vn -0.923883 0.000000 -0.382676
vn -0.923883 0.000000 -0.382676
vn -0.923878 0.000000 0.382686
vn -0.923878 0.000000 0.382686
vn -0.923878 0.000000 0.382686
vn -0.923878 0.000000 0.382686
vn -0.382692 0.000000 0.923876
vn -0.382692 0.000000 0.923876
vn -0.382692 0.000000 0.923876
vn -0.382692 0.000000 0.923876
vn 0.382690 0.000000 0.923877
vn 0.382690 0.000000 0.923877
vn 0.382690 0.000000 0.923877
vn 0.382690 0.000000 0.923877
vn 0.923878 0.000000 0.382686
vn 0.923878 0.000000 0.382686
vn 0.923878 0.000000 0.382686
vn 0.923878 0.000000 0.382686
vn 0.923883 0.000000 -0.382676
vn 0.923883 0.000000 -0.382676
vn 0.923883 0.000000 -0.382676
vn 0.923883 0.000000 -0.382676
vn 0.376979 -0.172576 -0.910003
vn 0.376979 -0.172576 -0.910003
vn 0.376979 -0.172576 -0.910003
vn 0.376979 -0.172576 -0.910003
vn -0.376976 -0.172577 -0.910003
vn -0.376976 -0.172577 -0.910003
vn -0.376976 -0.172577 -0.910003
vn -0.376976 -0.172577 -0.910003
vn -0.911692 -0.161914 -0.377627
vn -0.911692 -0.161914 -0.377627
vn -0.911692 -0.161914 -0.377627
vn -0.911692 -0.161914 -0.377627
vn -0.911687 -0.161917 0.377637
vn -0.911687 -0.161917 0.377637
vn -0.911687 -0.161917 0.377637
vn -0.911687 -0.161917 0.377637
vn -0.376982 -0.172568 0.910003
vn -0.376982 -0.172568 0.910003
vn -0.376982 -0.172568 0.910003
vn -0.376982 -0.172568 0.910003
vn 0.376983 -0.172566 0.910002
vn 0.376983 -0.172566 0.910002
vn 0.376983 -0.172566 0.910002
vn 0.376983 -0.172566 0.910002
vn 0.911677 -0.161917 0.377661
vn 0.911677 -0.161917 0.377661
vn 0.911677 -0.161917 0.377661
vn 0.911677 -0.161917 0.377661
vn 0.911682 -0.161914 -0.377650
vn 0.911682 -0.161914 -0.377650
vn 0.911682 -0.161914 -0.377650
vn 0.911682 -0.161914 -0.377650
vn 0.382660 0.003976 -0.923881
vn 0.382660 0.003976 -0.923881
vn 0.382660 0.003976 -0.923881
vn 0.382660 0.003976 -0.923881
vn -0.382656 0.003983 -0.923882
vn -0.382656 0.003983 -0.923882
vn -0.382656 0.003983 -0.923882
vn -0.382656 0.003983 -0.923882
vn -0.923880 0.003953 -0.382662
vn -0.923880 0.003953 -0.382662
vn -0.923880 0.003953 -0.382662
vn -0.923880 0.003953 -0.382662
vn -0.923870 0.003949 0.382686
vn -0.923870 0.003949 0.382686
vn -0.923870 0.003949 0.382686
vn -0.923870 0.003949 0.382686
vn -0.382689 0.003950 0.923869
vn -0.382689 0.003950 0.923869
vn -0.382689 0.003950 0.923869
vn -0.382689 0.003950 0.923869
vn 0.382693 0.003943 0.923867
vn 0.382693 0.003943 0.923867
vn 0.382693 0.003943 0.923867
vn 0.382693 0.003943 0.923867
vn 0.923859 0.003946 0.382713
vn 0.923859 0.003946 0.382713
vn 0.923859 0.003946 0.382713
vn 0.923859 0.003946 0.382713
vn 0.923869 0.003950 -0.382689
vn 0.923869 0.003950 -0.382689
vn 0.923869 0.003950 -0.382689
vn 0.923869 0.003950 -0.382689
vn 0.370178 -0.157786 -0.915463
vn 0.370178 -0.157786 -0.915463
vn 0.370178 -0.157786 -0.915463
vn 0.370178 -0.157786 -0.915463
vn 0.383494 -0.157357 -0.910039
vn 0.383494 -0.157357 -0.910039
vn 0.383494 -0.157357 -0.910039
vn 0.383494 -0.157357 -0.910039
vn 0.377614 -0.162551 -0.911584
vn 0.377614 -0.162551 -0.911584
vn 0.377614 -0.162551 -0.911584
vn 0.377614 -0.162551 -0.911584
vn -0.370177 -0.157788 -0.915463
vn -0.370177 -0.157788 -0.915463
vn -0.370177 -0.157788 -0.915463
vn -0.370177 -0.157788 -0.915463
vn -0.377611 -0.162554 -0.911584
vn -0.377611 -0.162554 -0.911584
vn -0.377611 -0.162554 -0.911584
vn -0.377611 -0.162554 -0.911584
vn -0.383490 -0.157358 -0.910040
vn -0.383490 -0.157358 -0.910040
vn -0.383490 -0.157358 -0.910040
vn -0.383490 -0.157358 -0.910040
vn -0.370214 -0.157787 0.915448
vn -0.370214 -0.157787 0.915448
vn -0.370214 -0.157787 0.915448
vn -0.370214 -0.157787 0.915448
vn -0.383472 -0.157360 0.910048
vn -0.383472 -0.157360 0.910048
vn -0.383472 -0.157360 0.910048
vn -0.383472 -0.157360 0.910048
vn -0.377615 -0.162565 0.911581
vn -0.377615 -0.162565 0.911581
vn -0.377615 -0.162565 0.911581
vn -0.377615 -0.162565 0.911581
vn 0.370215 -0.157786 0.915448
vn 0.370215 -0.157786 0.915448
vn 0.370215 -0.157786 0.915448
vn 0.370215 -0.157786 0.915448
vn 0.377617 -0.162563 0.911580
vn 0.377617 -0.162563 0.911580
vn 0.377617 -0.162563 0.911580
vn 0.377617 -0.162563 0.911580
vn 0.383475 -0.157359 0.910047
vn 0.383475 -0.157359 0.910047
vn 0.383475 -0.157359 0.910047
vn 0.383475 -0.157359 0.910047
s off
f 33/1/1 34/2/2 2/3/3 1/4/4
f 34/2/5 35/5/6 3/6/7 2/3/8
f 35/5/9 36/7/10 4/8/11 3/6/12
f 36/7/13 37/9/14 5/10/15 4/8/16
f 37/9/17 38/11/18 6/12/19 5/10/20
f 38/11/21 39/13/22 7/14/23 6/12/24
f 39/13/25 40/15/26 8/16/27 7/14/28
f 40/15/29 33/1/30 1/4/31 8/16/32
f 17/17/33 18/18/34 19/19/35 20/20/36
f 18/18/37 21/21/38 22/22/39 19/19/40
f 21/21/41 23/23/42 24/24/43 22/22/44
f 23/23/45 25/25/46 26/26/47 24/24/48
f 25/25/49 27/27/50 28/28/51 26/26/52
f 27/27/53 29/29/54 30/30/55 28/28/56
f 29/29/57 31/31/58 32/32/59 30/30/60
f 31/31/61 17/17/62 20/20/63 32/32/64
f 1/4/65 2/3/66 18/18/67 17/17/68
f 10/34/69 9/33/70 20/20/71 19/19/72
f 2/3/73 3/6/74 21/21/75 18/18/76
f 11/35/77 10/34/78 19/19/79 22/22/80
f 3/6/81 4/8/82 23/23/83 21/21/84
f 12/36/85 11/35/86 22/22/87 24/24/88
f 4/8/89 5/10/90 25/25/91 23/23/92
f 13/37/93 12/36/94 24/24/95 26/26/96
f 5/10/97 6/12/98 27/27/99 25/25/100
f 14/38/101 13/37/102 26/26/103 28/28/104
f 6/12/105 7/14/106 29/29/107 27/27/108
f 15/39/109 14/38/110 28/28/111 30/30/112
f 7/14/113 8/16/114 31/31/115 29/29/116
f 16/40/117 15/39/118 30/30/119 32/32/120
f 8/16/121 1/4/122 17/17/123 31/31/124
f 9/33/125 16/40/126 32/32/127 20/20/128
f 9/33/129 10/34/130 42/41/131 41/42/132
f 10/34/133 11/35/134 43/43/135 42/41/136
f 11/35/137 12/36/138 44/44/139 43/43/140
f 12/36/141 13/37/142 45/45/143 44/44/144
f 13/37/145 14/38/146 46/46/147 45/45/148
f 14/38/149 15/39/150 47/47/151 46/46/152
f 15/39/153 16/40/154 48/48/155 47/47/156
f 16/40/157 9/33/158 41/42/159 48/48/160
f 41/42/161 42/41/162 50/49/163 49/50/164
f 42/41/165 43/43/166 51/51/167 50/49/168
f 43/43/169 44/44/170 52/52/171 51/51/172
f 44/44/173 45/45/174 53/53/175 52/52/176
f 45/45/177 46/46/178 54/54/179 53/53/180
f 46/46/181 47/47/182 55/55/183 54/54/184
f 47/47/185 48/48/186 56/56/187 55/55/188
f 48/48/189 41/42/190 49/50/191 56/56/192
f 56/56/193 57/57/194 54/54/195 55/55/196
f 50/49/197 57/57/198 56/56/199 49/50/200
f 50/49/201 51/51/202 52/52/203 57/57/204
f 54/54/205 57/57/206 52/52/207 53/53/208
f 75/58/209 76/59/210 67/60/211 66/61/212
f 76/59/213 77/62/214 68/63/215 67/60/216
f 77/62/217 78/64/218 69/65/219 68/63/220
f 78/64/221 79/66/222 70/67/223 69/65/224
f 79/66/225 80/68/226 71/69/227 70/67/228
f 80/68/229 81/70/230 72/71/231 71/69/232
f 81/70/233 82/72/234 73/73/235 72/71/236
f 82/72/237 75/58/238 66/61/239 73/73/240
f 59/74/241 58/75/242 74/76/243
f 60/77/244 59/74/245 74/76/246
f 61/78/247 60/77/248 74/76/249
f 62/79/250 61/78/251 74/76/252
f 63/80/253 62/79/254 74/76/255
f 64/81/256 63/80/257 74/76/258
f 65/82/259 64/81/260 74/76/261
f 58/75/262 65/82/263 74/76/264
f 66/61/265 67/60/266 34/83/267 33/84/268
f 67/60/269 68/63/270 35/85/271 34/83/272
f 68/63/273 69/65/274 36/86/275 35/85/276
f 69/65/277 70/67/278 37/87/279 36/86/280
f 70/67/281 71/69/282 38/88/283 37/87/284
f 71/69/285 72/71/286 39/89/287 38/88/288
f 72/71/289 73/73/290 40/90/291 39/89/292
f 73/73/293 66/61/294 33/84/295 40/90/296
f 91/91/297 92/92/298 93/93/299 94/94/300
f 92/92/301 95/95/302 96/96/303 93/93/304
f 85/97/305 86/98/306 78/99/307 77/100/308
f 86/98/309 87/101/310 79/102/311 78/99/312
f 97/103/313 98/104/314 99/105/315 100/106/316
f 98/104/317 101/107/318 102/108/319 99/105/320
f 89/109/321 90/110/322 82/111/323 81/112/324
f 90/110/325 83/113/326 75/114/327 82/111/328
f 58/75/329 59/74/330 84/115/331 83/113/332
f 59/74/333 60/77/334 85/97/335 84/115/336
f 60/77/337 61/78/338 86/98/339 85/97/340
f 61/78/341 62/79/342 87/101/343 86/98/344
f 62/79/345 63/80/346 88/116/347 87/101/348
f 63/80/349 64/81/350 89/109/351 88/116/352
f 64/81/353 65/82/354 90/110/355 89/109/356
f 65/82/357 58/75/358 83/113/359 90/110/360
f 83/113/361 84/115/362 92/117/363 91/118/364
f 76/119/365 75/114/366 94/120/367 93/121/368
f 75/114/369 83/113/370 91/118/371 94/120/372
f 84/115/373 85/97/374 95/122/375 92/117/376
f 85/97/377 77/100/378 96/123/379 95/122/380
f 77/100/381 76/119/382 93/121/383 96/123/384
f 87/101/385 88/116/386 98/124/387 97/125/388
f 80/126/389 79/102/390 100/127/391 99/128/392
f 79/102/393 87/101/394 97/125/395 100/127/396
f 88/116/397 89/109/398 101/129/399 98/124/400
f 89/109/401 81/112/402 102/130/403 101/129/404
f 81/112/405 80/126/406 99/128/407 102/130/408
