# This file uses centimeters as units for non-parametric coordinates.

v -13.060312 0.000000 -25.087757
v -13.060312 0.000000 25.087757
v -13.060312 54.624008 -25.087757
v -13.060312 54.624008 25.087757
v 13.060322 54.624008 -25.087757
v 13.060304 54.624008 25.087751
v 13.060322 0.000000 -25.087757
v 13.060304 0.000000 25.087751
v 11.691655 28.155512 25.087751
v -11.691647 28.155512 25.087746
v 11.691655 53.814701 25.087751
v -11.691647 53.814701 25.087746
v 1.746861 20.352571 25.087751
v -0.861021 20.352571 25.087751
v 1.746861 24.447929 25.087751
v -0.861021 24.447929 25.087751
v -0.861021 21.781853 25.087751
v -0.861021 23.018646 25.087751
v 1.746861 21.781853 25.087751
v 1.746861 23.018646 25.087751
v -10.449605 17.655849 25.087757
v 10.365194 17.655849 25.087751
v -10.449605 2.075634 25.087757
v 10.365194 2.075634 25.087751
v 11.350961 1.965472 -25.087757
v -11.350961 1.965472 -25.087757
v -11.350961 52.658504 -25.087757
v 11.350961 52.658504 -25.087757
v -13.060312 30.022097 -7.875823
v -13.060312 30.022097 20.594999
v -13.060312 50.578964 20.594999
v -13.060312 50.578964 -7.875823
v -12.017198 31.012527 -6.793795
v -12.017198 31.012527 19.512981
v -12.017198 49.588531 19.512981
v -12.017198 49.588531 -6.793795
v 13.060322 48.111240 -19.105379
v 13.060322 48.111240 19.105377
v 13.060322 6.512768 19.105377
v 13.060322 6.512768 -19.105379
v 12.017179 47.082912 -18.160789
v 12.017179 47.082912 18.160782
v 12.017179 7.541120 18.160782
v 12.017179 7.541120 -18.160789
v 10.627728 2.331966 -22.790098
v -10.627728 2.331966 -22.790098
v -10.627728 52.292015 -22.790098
v 10.627728 52.292015 -22.790098
v -9.393055 2.866490 27.586033
v 9.308626 2.866490 27.586029
v 9.308626 16.864992 27.586029
v -9.393055 16.864992 27.586033
v -7.596776 12.509441 27.586033
v 7.512366 12.509441 27.586029
v 7.512366 15.427816 27.586029
v -7.596776 15.427816 27.586033
v -6.932774 13.050121 25.471334
v 6.848345 13.050121 25.471327
v 6.848345 14.887135 25.471327
v -6.932774 14.887135 25.471334
v 10.927563 52.788967 27.341204
v -10.927545 52.788967 27.341198
v -10.927545 29.181257 27.341198
v 10.927563 29.181257 27.341204
v -7.534677 3.891396 27.586033
v 7.450266 3.891396 27.586029
v 7.450266 7.591758 27.586029
v -7.534677 7.591758 27.586033
v -10.924148 54.624008 20.598463
v -10.924148 54.624008 23.385538
v 11.113589 54.624008 23.385538
v 11.113589 54.624008 20.598454
v -10.699476 55.571255 20.745958
v -10.699476 55.571255 23.238041
v 10.888901 55.571255 23.238041
v 10.888919 55.571255 20.745958
vt 0.081354 0.277859
vt 0.081308 0.277996
vt 0.081318 0.277661
vt 0.081366 0.277548
vt 0.081386 0.277299
vt 0.081239 0.277574
vt 0.080905 0.277544
vt 0.081134 0.277282
vt 0.081111 0.277399
vt 0.080950 0.277603
vt 0.080973 0.278090
vt 0.081117 0.277818
vt 0.081139 0.277848
vt 0.080943 0.278239
vt 0.081230 0.278282
vt 0.081363 0.277873
vt 0.080941 0.277610
vt 0.081203 0.277634
vt 0.081153 0.277831
vt 0.081349 0.277853
vt 0.081369 0.277321
vt 0.081151 0.277306
vt 0.081001 0.277874
vt 0.080954 0.277868
vt 0.080952 0.277824
vt 0.080999 0.277829
vt 0.081202 0.277792
vt 0.081201 0.278255
vt 0.081202 0.278072
vt 0.081004 0.277954
vt 0.081002 0.277911
vt 0.080949 0.277764
vt 0.080962 0.278041
vt 0.080958 0.277948
vt 0.080956 0.277905
vt 0.080971 0.278221
vt 0.081306 0.278015
vt 0.081355 0.277866
vt 0.081316 0.277651
vt 0.081368 0.277530
vt 0.080944 0.277595
vt 0.081114 0.277383
vt 0.080969 0.278110
vt 0.081120 0.277822
vt 0.302733 0.283797
vt 0.247881 0.283797
vt 0.247881 0.239992
vt 0.302733 0.239992
vt 0.079866 0.226312
vt 0.080246 0.226363
vt 0.080231 0.226345
vt 0.079878 0.226298
vt 0.080252 0.225898
vt 0.080235 0.225917
vt 0.079820 0.225856
vt 0.079838 0.225877
vt 0.079672 0.225824
vt 0.080672 0.225920
vt 0.080643 0.225939
vt 0.079698 0.225847
vt 0.080584 0.226626
vt 0.080564 0.226608
vt 0.079766 0.226502
vt 0.079783 0.226491
vt 0.082234 0.304966
vt 0.081280 0.304849
vt 0.081259 0.304013
vt 0.082259 0.304092
vt 0.013882 0.123910
vt 0.013150 0.123966
vt 0.013107 0.123630
vt 0.013847 0.123574
vt 0.013945 0.124517
vt 0.013229 0.124574
vt 0.013187 0.124252
vt 0.013912 0.124195
vt 0.081029 0.277936
vt 0.080721 0.278044
vt 0.080708 0.278004
vt 0.080994 0.277905
vt 0.193422 0.219142
vt 0.244133 0.219142
vt 0.244133 0.337983
vt 0.193422 0.337983
vt 0.080728 0.277136
vt 0.080711 0.277118
vt 0.081101 0.277055
vt 0.081057 0.277044
vt 0.082234 0.304966
vt 0.081280 0.304849
vt 0.081259 0.304013
vt 0.082259 0.304092
vt 0.082234 0.304966
vt 0.081280 0.304849
vt 0.081259 0.304013
vt 0.082259 0.304092
vt 0.082234 0.304966
vt 0.081280 0.304849
vt 0.081259 0.304013
vt 0.082259 0.304092
vt 0.081154 0.279148
vt 0.080159 0.279053
vt 0.080154 0.278879
vt 0.081153 0.278968
vt 0.304651 0.285701
vt 0.245963 0.285701
vt 0.245963 0.238088
vt 0.304651 0.238088
vt 0.082234 0.304966
vt 0.081280 0.304849
vt 0.081280 0.304849
vt 0.082234 0.304966
vt 0.249932 0.239470
vt 0.301436 0.239470
vt 0.301436 0.253106
vt 0.249932 0.253106
vt 0.081386 0.277299
vt 0.081239 0.277574
vt 0.080905 0.277544
vt 0.081134 0.277282
vt 0.081163 0.302364
vt 0.080839 0.302596
vt 0.080265 0.302488
vt 0.080597 0.302260
vt 0.081228 0.302540
vt 0.080867 0.302803
vt 0.080228 0.302681
vt 0.080598 0.302423
vn -1.000000 0.000000 0.000000
vn -1.000000 0.000000 0.000000
vn -1.000000 0.000000 0.000000
vn -1.000000 0.000000 0.000000
vn 0.000000 1.000000 -0.000002
vn 0.000000 1.000000 -0.000002
vn 0.000000 1.000000 -0.000002
vn 0.000000 1.000000 -0.000002
vn 1.000000 0.000000 0.000000
vn 1.000000 0.000000 0.000000
vn 1.000000 0.000000 0.000000
vn 1.000000 0.000000 0.000000
vn 0.000000 -1.000000 0.000000
vn 0.000000 -1.000000 0.000000
vn 0.000000 -1.000000 0.000000
vn 0.000000 -1.000000 0.000000
vn -0.000000 0.000000 1.000000
vn -0.000000 0.000000 1.000000
vn -0.000000 0.000000 1.000000
vn -0.000000 0.000000 1.000000
vn 0.000000 0.000000 -1.000000
vn 0.000000 0.000000 -1.000000
vn 0.000000 0.000000 -1.000000
vn 0.000000 0.000000 -1.000000
vn 0.000000 0.000000 1.000000
vn 0.000000 0.000000 1.000000
vn 0.000000 0.000000 1.000000
vn 0.000000 0.000000 1.000000
vn 0.000000 -0.000007 1.000000
vn 0.000000 -0.000007 1.000000
vn 0.000000 -0.000007 1.000000
vn 0.000000 -0.000007 1.000000
vn 0.000005 0.000000 1.000000
vn -0.000001 0.000001 1.000000
vn 0.000000 0.000001 1.000000
vn 0.000000 0.000001 1.000000
vn 0.000000 0.000001 1.000000
vn 0.000000 0.000001 1.000000
vn 0.000000 0.000001 1.000000
vn 0.000000 0.000001 1.000000
vn 0.000000 0.000001 1.000000
vn 0.000000 0.000001 1.000000
vn 0.000000 0.000000 1.000000
vn 0.000000 0.000000 1.000000
vn 0.000000 0.000000 1.000000
vn 0.000000 0.000000 1.000000
vn -0.000000 0.000001 1.000000
vn -0.000000 0.000001 1.000000
vn -0.000000 0.000001 1.000000
vn -0.000000 0.000001 1.000000
vn 0.000000 0.000000 1.000000
vn 0.000000 0.000000 1.000000
vn 0.000000 0.000000 1.000000
vn 0.000000 0.000000 1.000000
vn 0.000000 0.000000 1.000000
vn 0.000000 0.000000 1.000000
vn 0.000000 0.000000 1.000000
vn 0.000000 0.000000 1.000000
vn 0.000001 0.000000 1.000000
vn 0.000001 0.000000 1.000000
vn 0.000001 0.000000 1.000000
vn 0.000001 0.000000 1.000000
vn 0.000000 0.000000 1.000000
vn 0.000000 0.000000 1.000000
vn 0.000000 0.000000 1.000000
vn 0.000000 0.000000 1.000000
vn 0.000000 0.000000 -1.000000
vn 0.000000 0.000000 -1.000000
vn 0.000000 0.000000 -1.000000
vn 0.000000 0.000000 -1.000000
vn 0.000001 0.000000 -1.000000
vn 0.000001 0.000000 -1.000000
vn 0.000001 0.000000 -1.000000
vn 0.000001 0.000000 -1.000000
vn 0.000000 0.000000 -1.000000
vn 0.000000 0.000000 -1.000000
vn 0.000000 0.000000 -1.000000
vn 0.000000 0.000000 -1.000000
vn 0.000000 0.000000 -1.000000
vn 0.000000 0.000000 -1.000000
vn 0.000000 0.000000 -1.000000
vn 0.000000 0.000000 -1.000000
vn -1.000000 -0.000000 0.000000
vn -1.000000 -0.000000 0.000000
vn -1.000000 -0.000000 0.000000
vn -1.000000 -0.000000 0.000000
vn -1.000000 0.000000 0.000000
vn -1.000000 0.000000 0.000000
vn -1.000000 0.000000 0.000000
vn -1.000000 0.000000 0.000000
vn -1.000000 0.000000 0.000000
vn -1.000000 0.000000 0.000000
vn -1.000000 0.000000 0.000000
vn -1.000000 0.000000 0.000000
vn -1.000000 0.000000 0.000000
vn -1.000000 0.000000 0.000000
vn -1.000000 0.000000 0.000000
vn -1.000000 0.000000 0.000000
vn -0.688557 0.725183 0.000000
vn -0.688557 0.725183 0.000000
vn -0.688557 0.725183 0.000000
vn -0.688557 0.725183 0.000000
vn -0.719931 0.000000 -0.694046
vn -0.719931 0.000000 -0.694046
vn -0.719931 0.000000 -0.694046
vn -0.719931 0.000000 -0.694046
vn -0.688557 -0.725182 0.000000
vn -0.688557 -0.725182 0.000000
vn -0.688557 -0.725182 0.000000
vn -0.688557 -0.725182 0.000000
vn -0.719934 0.000000 0.694042
vn -0.719934 0.000000 0.694042
vn -0.719934 0.000000 0.694042
vn -0.719934 0.000000 0.694042
vn 1.000000 0.000001 0.000000
vn 1.000000 0.000001 0.000000
vn 1.000000 0.000001 0.000000
vn 1.000000 0.000001 0.000000
vn 1.000000 0.000000 0.000003
vn 1.000000 0.000000 0.000003
vn 1.000000 0.000000 0.000003
vn 1.000000 0.000000 0.000003
vn 1.000000 -0.000001 0.000000
vn 1.000000 -0.000001 0.000000
vn 1.000000 -0.000001 0.000000
vn 1.000000 -0.000001 0.000000
vn 1.000000 0.000000 0.000000
vn 1.000000 0.000000 0.000000
vn 1.000000 0.000000 0.000000
vn 1.000000 0.000000 0.000000
vn 0.702032 -0.712145 0.000000
vn 0.702032 -0.712145 0.000000
vn 0.702032 -0.712145 0.000000
vn 0.702032 -0.712145 0.000000
vn 0.671226 0.000000 -0.741253
vn 0.671226 0.000000 -0.741253
vn 0.671226 0.000000 -0.741253
vn 0.671226 0.000000 -0.741253
vn 0.702041 0.712137 0.000000
vn 0.702041 0.712137 0.000000
vn 0.702041 0.712137 0.000000
vn 0.702041 0.712137 0.000000
vn 0.671223 0.000000 0.741255
vn 0.671223 0.000000 0.741255
vn 0.671223 0.000000 0.741255
vn 0.671223 0.000000 0.741255
vn 0.000000 0.987516 -0.157517
vn 0.000000 0.987516 -0.157517
vn 0.000000 0.987516 -0.157517
vn 0.000000 0.987516 -0.157517
vn 0.953862 0.000000 -0.300246
vn 0.953862 0.000000 -0.300246
vn 0.953862 0.000000 -0.300246
vn 0.953862 0.000000 -0.300246
vn 0.000000 -0.987517 -0.157514
vn 0.000000 -0.987517 -0.157514
vn 0.000000 -0.987517 -0.157514
vn 0.000000 -0.987517 -0.157514
vn -0.953862 0.000000 -0.300246
vn -0.953862 0.000000 -0.300246
vn -0.953862 0.000000 -0.300246
vn -0.953862 0.000000 -0.300246
vn 0.000000 -0.953371 0.301800
vn 0.000000 -0.953371 0.301800
vn 0.000000 -0.953371 0.301800
vn 0.000000 -0.953371 0.301800
vn 0.921020 0.000000 0.389516
vn 0.921020 0.000000 0.389516
vn 0.921020 0.000000 0.389516
vn 0.921020 0.000000 0.389516
vn 0.000000 0.953371 0.301800
vn 0.000000 0.953371 0.301800
vn 0.000000 0.953371 0.301800
vn 0.000000 0.953371 0.301800
vn -0.921022 0.000000 0.389511
vn -0.921022 0.000000 0.389511
vn -0.921022 0.000000 0.389511
vn -0.921022 0.000000 0.389511
vn 0.000000 0.000000 1.000000
vn 0.000000 0.000000 1.000000
vn 0.000000 0.000000 1.000000
vn 0.000000 0.000000 1.000000
vn -0.000002 0.000000 1.000000
vn -0.000002 0.000000 1.000000
vn -0.000002 0.000000 1.000000
vn -0.000002 0.000000 1.000000
vn 0.000000 0.000000 1.000000
vn 0.000000 0.000000 1.000000
vn 0.000000 0.000000 1.000000
vn 0.000000 0.000000 1.000000
vn -0.000001 0.000000 1.000000
vn -0.000001 0.000000 1.000000
vn -0.000001 0.000000 1.000000
vn -0.000001 0.000000 1.000000
vn 0.000000 0.968835 0.247708
vn 0.000000 0.968835 0.247708
vn 0.000000 0.968835 0.247708
vn 0.000000 0.968835 0.247708
vn -0.954071 0.000000 0.299580
vn -0.954071 0.000000 0.299580
vn -0.954071 0.000000 0.299580
vn -0.954071 0.000000 0.299580
vn 0.000000 -0.968834 0.247710
vn 0.000000 -0.968834 0.247709
vn 0.000000 -0.968834 0.247710
vn 0.000000 -0.968834 0.247710
vn 0.954073 0.000000 0.299574
vn 0.954073 0.000000 0.299574
vn 0.954073 0.000000 0.299574
vn 0.954073 0.000000 0.299574
vn -0.000000 0.910148 0.414284
vn -0.000000 0.910147 0.414284
vn -0.000000 0.910148 0.414284
vn -0.000000 0.910148 0.414284
vn -0.947038 0.000000 0.321122
vn -0.947038 0.000000 0.321122
vn -0.947038 0.000000 0.321122
vn -0.947038 0.000000 0.321122
vn -0.000000 -0.910146 0.414288
vn -0.000000 -0.910146 0.414288
vn -0.000000 -0.910146 0.414288
vn -0.000000 -0.910146 0.414288
vn 0.947039 0.000000 0.321119
vn 0.947039 0.000000 0.321119
vn 0.947039 0.000000 0.321119
vn 0.947039 0.000000 0.321119
vn 0.000000 -0.000000 1.000000
vn 0.000000 -0.000000 1.000000
vn 0.000000 -0.000000 1.000000
vn 0.000000 -0.000000 1.000000
vn 0.000003 0.000000 1.000000
vn 0.000003 0.000000 1.000000
vn 0.000003 0.000000 1.000000
vn 0.000003 0.000000 1.000000
vn 0.000000 0.000000 1.000000
vn 0.000000 0.000000 1.000000
vn 0.000000 0.000000 1.000000
vn 0.000000 0.000000 1.000000
vn 0.000000 0.000000 1.000000
vn 0.000000 0.000000 1.000000
vn 0.000000 0.000000 1.000000
vn 0.000000 0.000000 1.000000
vn 0.000005 0.000000 1.000000
vn -0.000002 0.000000 1.000000
vn -0.000003 0.000000 1.000000
vn -0.000001 0.000001 1.000000
vn 0.000000 1.000000 0.000000
vn 0.000000 1.000000 0.000000
vn 0.000000 1.000000 0.000000
vn 0.000000 1.000000 0.000000
vn 0.000000 1.000000 0.000002
vn 0.000000 1.000000 0.000002
vn 0.000000 1.000000 0.000002
vn 0.000000 1.000000 0.000002
vn 0.000000 1.000000 0.000000
vn 0.000000 1.000000 0.000000
vn 0.000000 1.000000 0.000000
vn 0.000000 1.000000 0.000000
vn 0.000000 1.000000 -0.000000
vn 0.000000 1.000000 -0.000000
vn 0.000000 1.000000 -0.000000
vn 0.000000 1.000000 -0.000000
vn -0.973006 0.230781 0.000000
vn -0.973006 0.230781 0.000000
vn -0.973006 0.230781 0.000000
vn -0.973006 0.230781 0.000000
vn 0.000000 0.153858 0.988093
vn 0.000000 0.153858 0.988093
vn 0.000000 0.153858 0.988093
vn 0.000000 0.153858 0.988093
vn 0.973004 0.230788 0.000003
vn 0.973004 0.230789 0.000003
vn 0.973004 0.230788 0.000003
vn 0.973004 0.230788 0.000003
vn -0.000000 0.153861 -0.988092
vn -0.000000 0.153861 -0.988093
vn -0.000000 0.153861 -0.988093
vn -0.000000 0.153861 -0.988093
vn 0.000000 0.000000 1.000000
vn 0.000000 0.000000 1.000000
vn 0.000000 0.000000 1.000000
vn 0.000000 0.000000 1.000000
vn 0.000000 0.000000 1.000000
vn 0.000000 0.000000 1.000000
vn 0.000000 0.000000 1.000000
vn 0.000000 0.000000 1.000000
vn 0.000005 0.000000 1.000000
vn 0.000008 0.000000 1.000000
vn 0.000008 0.000000 1.000000
vn -0.000002 0.000000 1.000000
s off
f 33/1/1 34/2/2 35/3/3 36/4/4
f 73/121/5 74/122/6 75/123/7 76/124/8
f 41/9/9 42/10/10 43/11/11 44/12/12
f 7/13/13 8/14/14 2/15/15 1/16/16
f 61/45/17 62/46/18 63/47/19 64/48/20
f 45/81/21 46/82/22 47/83/23 48/84/24
f 18/69/25 20/70/26 15/71/27 16/72/28
f 6/7/29 4/6/30 12/18/31 11/17/32
f 10/27/33 21/29/34 14/30/35 17/31/36 18/23/37 16/26/38
f 21/29/39 22/33/40 13/34/41 14/30/42
f 9/32/43 8/14/44 6/7/45 11/17/46
f 9/32/47 10/27/48 16/26/49 15/25/50
f 14/73/51 13/74/52 19/75/53 17/76/54
f 17/31/55 19/35/56 20/24/57 18/23/58
f 57/101/59 58/102/60 59/103/61 60/104/62
f 2/15/63 8/14/64 24/36/65 23/28/66
f 7/13/67 1/16/68 26/20/69 25/19/70
f 1/16/71 3/5/72 27/21/73 26/20/74
f 3/5/75 5/8/76 28/22/77 27/21/78
f 5/8/79 7/13/80 25/19/81 28/22/82
f 1/16/83 2/15/84 30/37/85 29/38/86
f 2/15/87 4/6/88 31/39/89 30/37/90
f 4/6/91 3/5/92 32/40/93 31/39/94
f 3/5/95 1/16/96 29/38/97 32/40/98
f 29/49/99 30/50/100 34/51/101 33/52/102
f 30/50/103 31/53/104 35/54/105 34/51/106
f 31/53/107 32/55/108 36/56/109 35/54/110
f 32/55/111 29/49/112 33/52/113 36/56/114
f 5/8/115 6/7/116 38/41/117 37/42/118
f 6/7/119 8/14/120 39/43/121 38/41/122
f 8/14/123 7/13/124 40/44/125 39/43/126
f 7/13/127 5/8/128 37/42/129 40/44/130
f 37/57/131 38/58/132 42/59/133 41/60/134
f 38/58/135 39/61/136 43/62/137 42/59/138
f 39/61/139 40/63/140 44/64/141 43/62/142
f 40/63/143 37/57/144 41/60/145 44/64/146
f 25/77/147 26/78/148 46/79/149 45/80/150
f 26/78/151 27/85/152 47/86/153 46/79/154
f 27/85/155 28/87/156 48/88/157 47/86/158
f 28/87/159 25/77/160 45/80/161 48/88/162
f 23/65/163 24/66/164 50/90/165 49/89/166
f 24/66/167 22/67/168 51/91/169 50/90/170
f 22/67/171 21/68/172 52/92/173 51/91/174
f 21/68/175 23/65/176 49/89/177 52/92/178
f 65/113/179 66/114/180 67/115/181 68/116/182
f 50/90/183 51/91/184 55/95/185 54/94/186
f 51/91/187 52/92/188 56/96/189 55/95/190
f 52/92/191 49/89/192 53/93/193 56/96/194
f 53/93/195 54/94/196 58/98/197 57/97/198
f 54/94/199 55/95/200 59/99/201 58/98/202
f 55/95/203 56/96/204 60/100/205 59/99/206
f 56/96/207 53/93/208 57/97/209 60/100/210
f 11/105/211 12/106/212 62/46/213 61/45/214
f 62/46/215 12/106/216 10/107/217 63/47/218
f 10/107/219 9/108/220 64/48/221 63/47/222
f 61/45/223 64/48/224 9/108/225 11/105/226
f 49/89/227 50/90/228 66/110/229 65/109/230
f 50/90/231 54/94/232 67/111/233 66/110/234
f 54/94/235 53/93/236 68/112/237 67/111/238
f 53/93/239 49/89/240 65/109/241 68/112/242
f 10/27/243 2/15/244 23/28/245 21/29/246
f 3/5/247 4/6/248 70/118/249 69/117/250
f 4/6/251 6/7/252 71/119/253 70/118/254
f 6/7/255 5/8/256 72/120/257 71/119/258
f 5/8/259 3/5/260 69/117/261 72/120/262
f 69/125/263 70/126/264 74/122/265 73/121/266
f 70/126/267 71/127/268 75/123/269 74/122/270
f 71/127/271 72/128/272 76/124/273 75/123/274
f 72/128/275 69/125/276 73/121/277 76/124/278
f 9/32/279 15/25/280 20/24/281 19/35/282 13/34/283 22/33/284 24/36/285 8/14/286
f 10/27/287 12/18/288 4/6/289 2/15/290
