# This file uses centimeters as units for non-parametric coordinates.

v -134.556335 0.000000 30.649658
v -127.667847 0.000000 30.649658
v -134.556335 69.611610 30.649658
v -127.667847 69.611610 30.649658
v -134.556335 69.611610 -30.649597
v -127.667847 69.611610 -30.649597
v -134.556335 0.000000 -30.649597
v -127.667847 0.000000 -30.649597
v -160.261658 0.000000 65.285400
v -154.555237 0.000000 69.143799
v -154.555237 69.611610 69.143799
v -160.261658 69.611610 65.285400
v -160.261658 69.611610 -65.285339
v -154.555237 69.611610 -69.143799
v -154.555237 0.000000 -69.143799
v -160.261658 0.000000 -65.285339
v 134.556335 0.000000 -30.649597
v 127.667847 0.000000 -30.649597
v 134.556335 69.611610 -30.649597
v 127.667847 69.611610 -30.649597
v 134.556335 69.611610 30.649658
v 127.667847 69.611610 30.649658
v 134.556335 0.000000 30.649658
v 127.667847 0.000000 30.649658
v 160.261658 0.000000 -65.285339
v 154.555237 0.000000 -69.143799
v 154.555237 69.611610 -69.143799
v 160.261658 69.611610 -65.285339
v 160.261658 69.611610 65.285400
v 154.555237 69.611610 69.143799
v 154.555237 0.000000 69.143799
v 160.261658 0.000000 65.285400
v -202.750153 69.285316 93.009277
v -202.750153 75.000000 -93.009338
v -202.750153 69.285316 -93.009338
v 202.750183 69.285316 -93.009338
v -127.975037 36.243465 -3.444214
v -127.975037 36.243465 3.444214
v -127.975037 69.786400 -3.444214
v -127.975037 69.786400 3.444214
v 128.008911 69.786400 -3.444214
v 128.008911 69.786400 3.444214
v 128.008911 36.243465 -3.444214
v 128.008911 36.243465 3.444214
v 0.000000 69.285316 110.919189
v 0.000000 69.285316 -110.919250
v 0.000000 75.000000 110.919189
v 101.375061 69.285316 104.726563
v 101.375061 75.000000 -104.726501
v 101.375061 69.285316 -104.726501
v -101.375061 69.285316 104.726563
v -101.375061 69.285316 -104.726501
v -101.375061 75.000000 -104.726501
v -101.375061 75.000000 104.726563
v 127.031067 75.000000 9.599121
v 127.031067 75.000000 -9.599182
v 0.000000 75.000000 -15.445679
v 0.000000 75.000000 15.445679
v -127.031067 75.000000 -9.599182
v -127.031067 75.000000 9.599121
v -192.612640 75.000000 94.181030
v -202.750153 72.916969 93.009277
v 202.750183 72.680725 -93.009338
v -202.750153 75.000000 74.407471
v 202.750183 75.000000 -74.407410
v 10.137512 75.000000 -110.299988
v 91.237549 75.000000 105.345703
v 0.000000 73.201302 -110.919250
v 135.034180 75.000000 100.836060
v 192.612610 75.000000 -94.181030
v 101.375061 73.801216 104.726563
v -58.429504 75.000000 -107.349915
v 103.940674 75.000000 100.603622
v -3.414038 75.000000 -105.615387
v 195.979248 69.285316 93.791992
v 202.750183 69.285316 86.193359
v 195.979248 75.000000 93.791992
v 202.750183 75.000000 86.193359
v -157.691132 0.000000 61.821777
v -151.866501 0.000000 65.294434
v -151.866501 69.611610 65.294434
v -157.691132 69.611610 61.821777
v -157.691132 69.611610 -61.821777
v -151.866501 69.611610 -65.294373
v -151.866501 0.000000 -65.294373
v -157.691132 0.000000 -61.821777
v 157.691132 69.611610 61.821777
v 151.866501 69.611610 65.294434
v 151.866501 0.000000 65.294434
v 157.691132 0.000000 61.821777
v 157.691132 0.000000 -61.821777
v 151.866501 0.000000 -65.294373
v 151.866501 69.611610 -65.294373
v 157.691132 69.611610 -61.821777
vt 0.016166 0.303340
vt 0.016085 0.303335
vt 0.016097 0.302378
vt 0.016179 0.302380
vt 0.016360 0.302340
vt 0.016431 0.302341
vt 0.016347 0.303154
vt 0.016417 0.303158
vt 0.079013 0.234784
vt 0.078994 0.234773
vt 0.078964 0.234221
vt 0.078984 0.234226
vt 0.079939 0.234225
vt 0.079965 0.234219
vt 0.079958 0.234769
vt 0.079933 0.234781
vt 0.079041 0.234779
vt 0.079025 0.234767
vt 0.078997 0.234218
vt 0.079013 0.234224
vt 0.079913 0.234222
vt 0.079936 0.234216
vt 0.079930 0.234764
vt 0.079908 0.234776
vt 0.079854 0.234373
vt 0.079872 0.234377
vt 0.079874 0.234035
vt 0.079856 0.234033
vt 0.016179 0.302380
vt 0.016097 0.302378
vt 0.016360 0.302340
vt 0.016431 0.302341
vt 0.079289 0.234033
vt 0.079268 0.234036
vt 0.079280 0.234379
vt 0.079299 0.234374
vt 0.016417 0.303158
vt 0.016347 0.303154
vt 0.016085 0.303335
vt 0.016166 0.303340
vt 0.079840 0.234375
vt 0.079856 0.234379
vt 0.079857 0.234036
vt 0.079841 0.234034
vt 0.079302 0.234034
vt 0.079284 0.234037
vt 0.079295 0.234381
vt 0.079313 0.234376
vt 0.016251 0.301475
vt 0.016251 0.301492
vt 0.016055 0.301474
vt 0.016320 0.301368
vt 0.016149 0.301340
vt 0.016150 0.301355
vt 0.082534 0.228423
vt 0.082672 0.228424
vt 0.082739 0.228876
vt 0.082506 0.228875
vt 0.016166 0.303340
vt 0.016085 0.303335
vt 0.016097 0.302378
vt 0.016179 0.302380
vt 0.016360 0.302340
vt 0.016431 0.302341
vt 0.016347 0.303154
vt 0.016417 0.303158
vt 0.016663 0.301380
vt 0.016661 0.301396
vt 0.016642 0.301529
vt 0.016446 0.301510
vt 0.016491 0.301382
vt 0.016492 0.301366
vt 0.082723 0.229423
vt 0.082563 0.229422
vt 0.016447 0.301493
vt 0.016320 0.301353
vt 0.016064 0.301333
vt 0.016251 0.301475
vt 0.016577 0.301373
vt 0.016545 0.301502
vt 0.016583 0.301496
vt 0.016643 0.301520
vt 0.015979 0.301334
vt 0.016653 0.301445
vt 0.016235 0.301346
vt 0.016153 0.301466
vt 0.016320 0.301361
vt 0.016023 0.301339
vt 0.016055 0.301466
vt 0.016406 0.301360
vt 0.016005 0.301453
vt 0.016320 0.301353
vt 0.015979 0.301341
vt 0.015995 0.301430
vt 0.015956 0.301448
vt 0.015873 0.301457
vt 0.015918 0.301383
vt 0.015864 0.301452
vt 0.015860 0.301437
vt 0.015868 0.301440
vt 0.016166 0.303340
vt 0.016085 0.303335
vt 0.016097 0.302378
vt 0.016179 0.302380
vt 0.016431 0.302341
vt 0.016360 0.302340
vt 0.016347 0.303154
vt 0.016417 0.303158
vt 0.016431 0.302341
vt 0.016360 0.302340
vt 0.016347 0.303154
vt 0.016417 0.303158
vt 0.016166 0.303340
vt 0.016085 0.303335
vt 0.016097 0.302378
vt 0.016179 0.302380
vn -0.560132 0.000000 0.828403
vn -0.560132 0.000000 0.828403
vn -0.560132 0.000000 0.828403
vn -0.560132 0.000000 0.828403
vn 0.000000 1.000000 0.000000
vn 0.000000 1.000000 0.000000
vn 0.000000 1.000000 0.000000
vn 0.000000 1.000000 0.000000
vn -0.560132 0.000000 -0.828403
vn -0.560132 0.000000 -0.828403
vn -0.560132 0.000000 -0.828403
vn -0.560132 0.000000 -0.828403
vn 0.000000 -1.000000 0.000000
vn 0.000000 -1.000000 0.000000
vn 0.000000 -1.000000 0.000000
vn 0.000000 -1.000000 0.000000
vn 1.000000 0.000000 0.000000
vn 1.000000 0.000000 0.000000
vn 1.000000 0.000000 0.000000
vn 1.000000 0.000000 0.000000
vn -1.000000 0.000000 -0.000000
vn -1.000000 0.000000 -0.000000
vn -1.000000 0.000000 -0.000000
vn -1.000000 0.000000 -0.000000
vn 0.000000 -1.000000 0.000000
vn 0.000000 -1.000000 0.000000
vn 0.000000 -1.000000 0.000000
vn 0.000000 -1.000000 0.000000
vn 0.819817 0.000000 0.572626
vn 0.819817 0.000000 0.572626
vn 0.819817 0.000000 0.572625
vn 0.819817 0.000000 0.572625
vn 0.000000 1.000000 0.000000
vn 0.000000 1.000000 0.000000
vn 0.000000 1.000000 0.000000
vn 0.000000 1.000000 0.000000
vn -0.803011 0.000000 -0.595964
vn -0.803011 0.000000 -0.595964
vn -0.803011 0.000000 -0.595964
vn -0.803011 0.000000 -0.595964
vn 0.000000 1.000000 0.000000
vn 0.000000 1.000000 0.000000
vn 0.000000 1.000000 0.000000
vn 0.000000 1.000000 0.000000
vn 0.819817 0.000000 -0.572625
vn 0.819817 0.000000 -0.572625
vn 0.819817 0.000000 -0.572625
vn 0.819817 0.000000 -0.572625
vn 0.000000 -1.000000 0.000000
vn 0.000000 -1.000000 0.000000
vn 0.000000 -1.000000 0.000000
vn 0.000000 -1.000000 0.000000
vn -0.803011 0.000000 0.595964
vn -0.803011 0.000000 0.595964
vn -0.803011 0.000000 0.595964
vn -0.803011 0.000000 0.595964
vn 0.560131 0.000000 -0.828404
vn 0.560131 0.000000 -0.828404
vn 0.560131 0.000000 -0.828404
vn 0.560131 0.000000 -0.828404
vn 0.000000 1.000000 0.000000
vn 0.000000 1.000000 0.000000
vn 0.000000 1.000000 0.000000
vn 0.000000 1.000000 0.000000
vn 0.560131 0.000000 0.828404
vn 0.560131 0.000000 0.828404
vn 0.560131 0.000000 0.828404
vn 0.560131 0.000000 0.828404
vn 0.000000 -1.000000 0.000000
vn 0.000000 -1.000000 0.000000
vn 0.000000 -1.000000 0.000000
vn 0.000000 -1.000000 0.000000
vn -1.000000 0.000000 -0.000000
vn -1.000000 0.000000 -0.000000
vn -1.000000 0.000000 -0.000000
vn -1.000000 0.000000 -0.000000
vn 1.000000 0.000000 0.000000
vn 1.000000 0.000000 0.000000
vn 1.000000 0.000000 0.000000
vn 1.000000 0.000000 0.000000
vn 0.000000 -1.000000 0.000000
vn 0.000000 -1.000000 0.000000
vn 0.000000 -1.000000 0.000000
vn 0.000000 -1.000000 0.000000
vn -0.819817 0.000000 -0.572625
vn -0.819817 0.000000 -0.572625
vn -0.819817 0.000000 -0.572625
vn -0.819817 0.000000 -0.572625
vn 0.000000 1.000000 -0.000000
vn 0.000000 1.000000 -0.000000
vn 0.000000 1.000000 0.000000
vn 0.000000 1.000000 0.000000
vn 0.803011 0.000000 0.595964
vn 0.803011 0.000000 0.595964
vn 0.803011 0.000000 0.595964
vn 0.803011 0.000000 0.595964
vn 0.000000 1.000000 0.000000
vn 0.000000 1.000000 0.000000
vn 0.000000 1.000000 0.000000
vn 0.000000 1.000000 0.000000
vn -0.819817 0.000000 0.572626
vn -0.819817 0.000000 0.572626
vn -0.819817 0.000000 0.572625
vn -0.819817 0.000000 0.572625
vn 0.000000 -1.000000 0.000000
vn 0.000000 -1.000000 0.000000
vn 0.000000 -1.000000 0.000000
vn 0.000000 -1.000000 0.000000
vn 0.803011 0.000000 -0.595964
vn 0.803011 0.000000 -0.595964
vn 0.803011 0.000000 -0.595964
vn 0.803011 0.000000 -0.595964
vn -0.202269 0.952019 -0.229669
vn -0.202269 0.952019 -0.229669
vn -0.202269 0.952019 -0.229669
vn 0.000000 1.000000 0.000000
vn 0.000000 1.000000 0.000000
vn 0.000000 1.000000 0.000000
vn 0.000000 1.000000 0.000000
vn 0.000000 -1.000000 0.000000
vn 0.000000 -1.000000 0.000000
vn 0.000000 -1.000000 0.000000
vn 0.000000 -1.000000 0.000000
vn -1.000000 0.000000 -0.000000
vn -1.000000 0.000000 -0.000000
vn -1.000000 0.000000 -0.000000
vn -1.000000 0.000000 -0.000000
vn 0.000000 1.000000 0.000000
vn 0.000000 1.000000 0.000000
vn 0.000000 1.000000 0.000000
vn 0.000000 1.000000 0.000000
vn 1.000000 0.000000 0.000000
vn 1.000000 0.000000 0.000000
vn 1.000000 0.000000 0.000000
vn 1.000000 0.000000 0.000000
vn 0.000000 -1.000000 0.000000
vn 0.000000 -1.000000 0.000000
vn 0.000000 -1.000000 0.000000
vn 0.000000 -1.000000 0.000000
vn 0.000000 0.000000 1.000000
vn 0.000000 0.000000 1.000000
vn 0.000000 0.000000 1.000000
vn 0.000000 0.000000 1.000000
vn 0.000000 0.000000 -1.000000
vn 0.000000 0.000000 -1.000000
vn 0.000000 0.000000 -1.000000
vn 0.000000 0.000000 -1.000000
vn -0.266821 0.953989 0.136793
vn -0.266821 0.953989 0.136793
vn -0.266821 0.953989 0.136793
vn 0.000000 -1.000000 0.000000
vn 0.000000 -1.000000 0.000000
vn 0.000000 -1.000000 0.000000
vn 0.000000 -1.000000 0.000000
vn 0.000000 1.000000 0.000000
vn 0.000000 1.000000 0.000000
vn 0.000000 1.000000 0.000000
vn 0.000000 1.000000 0.000000
vn -0.060974 0.000000 0.998139
vn -0.060974 0.000000 0.998139
vn -0.060974 0.000000 0.998139
vn -0.060974 0.000000 0.998139
vn 0.000000 -1.000000 0.000000
vn 0.000000 -1.000000 0.000000
vn 0.000000 -1.000000 0.000000
vn 0.000000 -1.000000 0.000000
vn 0.000000 -1.000000 0.000000
vn 0.000000 -1.000000 0.000000
vn 0.000000 -1.000000 0.000000
vn 0.000000 -1.000000 0.000000
vn -0.114818 0.000000 -0.993387
vn -0.114818 0.000000 -0.993387
vn -0.114818 0.000000 -0.993387
vn -0.114818 0.000000 -0.993387
vn -0.018475 0.974279 0.224585
vn -0.018475 0.974279 0.224585
vn -0.018475 0.974279 0.224585
vn 0.000000 1.000000 0.000000
vn 0.000000 1.000000 0.000000
vn 0.000000 1.000000 0.000000
vn 0.000000 1.000000 0.000000
vn 0.293929 0.943874 -0.150692
vn 0.293929 0.943874 -0.150692
vn 0.293929 0.943874 -0.150692
vn 0.000000 1.000000 0.000000
vn 0.000000 1.000000 0.000000
vn 0.000000 1.000000 0.000000
vn -1.000000 0.000000 -0.000000
vn -1.000000 0.000000 -0.000000
vn -1.000000 0.000000 -0.000000
vn -1.000000 0.000000 -0.000000
vn -0.114818 0.000000 0.993387
vn -0.114818 0.000000 0.993387
vn -0.114818 0.000000 0.993387
vn -0.114818 0.000000 0.993387
vn 0.000000 1.000000 0.000000
vn 0.000000 1.000000 0.000000
vn 0.000000 1.000000 0.000000
vn 0.000000 1.000000 0.000000
vn 0.000000 1.000000 0.000000
vn 0.000000 1.000000 0.000000
vn 0.000000 1.000000 0.000000
vn 0.000000 1.000000 0.000000
vn 0.000000 1.000000 0.000000
vn 1.000000 -0.000002 0.000000
vn 1.000000 -0.000002 0.000000
vn 1.000000 0.000000 0.000000
vn 1.000000 0.000000 0.000000
vn 0.114818 0.000000 -0.993387
vn 0.114818 0.000000 -0.993387
vn 0.114818 0.000000 -0.993387
vn 0.114818 0.000000 -0.993387
vn 0.000000 1.000000 -0.000000
vn 0.000000 1.000000 -0.000000
vn 0.000000 1.000000 -0.000000
vn 0.000000 1.000000 -0.000000
vn 0.000000 1.000000 -0.000000
vn 0.000000 1.000000 -0.000000
vn 0.000000 1.000000 -0.000000
vn 0.000000 1.000000 -0.000000
vn 0.060972 0.000000 -0.998140
vn 0.060972 0.000000 -0.998140
vn 0.060972 0.000000 -0.998140
vn -0.060974 0.000000 -0.998139
vn -0.060974 0.000000 -0.998139
vn -0.060974 0.000000 -0.998139
vn 0.114818 0.000000 0.993387
vn 0.114818 0.000000 0.993387
vn 0.114817 0.000009 0.993387
vn 0.114817 0.000009 0.993387
vn 0.000000 1.000000 -0.000000
vn 0.000000 1.000000 -0.000000
vn 0.000000 1.000000 -0.000000
vn 0.000000 1.000000 -0.000000
vn 0.000000 1.000000 0.000000
vn 0.000000 1.000000 0.000000
vn 0.000000 1.000000 0.000000
vn 0.060974 0.000000 0.998139
vn 0.060974 0.000000 0.998139
vn 0.060974 0.000000 0.998139
vn 0.060974 0.000000 0.998139
vn 0.160556 0.943896 0.288586
vn 0.160556 0.943896 0.288586
vn 0.160556 0.943896 0.288586
vn 0.023987 0.971833 -0.234449
vn 0.023987 0.971833 -0.234449
vn 0.023987 0.971833 -0.234449
vn 0.000000 1.000000 0.000000
vn 0.000000 1.000000 0.000000
vn 0.000000 1.000000 0.000000
vn 0.000000 1.000000 0.000000
vn 0.000000 1.000000 0.000000
vn 0.000000 1.000000 0.000000
vn 0.000000 1.000000 0.000000
vn 0.000000 1.000000 0.000000
vn 0.000000 1.000000 0.000000
vn 0.000000 1.000000 0.000000
vn 0.000000 1.000000 0.000000
vn 0.000000 1.000000 0.000000
vn 0.000000 1.000000 0.000000
vn 0.000000 1.000000 0.000000
vn 0.000000 1.000000 0.000000
vn 0.000000 1.000000 0.000000
vn 0.000000 1.000000 0.000000
vn 0.000000 1.000000 0.000000
vn 0.060974 0.000000 -0.998139
vn 0.060974 0.000000 -0.998139
vn 0.060974 0.000000 -0.998139
vn 0.060974 0.000000 -0.998139
vn -0.060974 -0.000000 -0.998139
vn -0.060974 -0.000000 -0.998139
vn -0.060974 -0.000000 -0.998139
vn -0.060974 -0.000000 -0.998139
vn 0.114819 0.000000 -0.993386
vn 0.114819 0.000000 -0.993386
vn 0.114819 0.000000 -0.993386
vn 1.000000 0.000000 0.000000
vn 1.000000 0.000000 0.000000
vn 1.000000 0.000000 0.000000
vn 0.114818 0.000000 0.993387
vn 0.114818 0.000000 0.993387
vn 0.114818 0.000000 0.993387
vn 0.060975 0.000000 0.998139
vn 0.060975 0.000000 0.998139
vn 0.060975 0.000000 0.998139
vn -0.114818 0.000000 0.993387
vn -0.114818 0.000000 0.993387
vn -0.114818 0.000000 0.993387
vn -1.000000 0.000000 -0.000000
vn -1.000000 0.000000 -0.000000
vn -1.000000 0.000000 -0.000000
vn 0.000000 1.000000 -0.000000
vn 0.000000 1.000000 0.000000
vn 0.000000 1.000000 0.000000
vn 0.746599 0.000000 0.665274
vn 0.746599 0.000000 0.665274
vn 0.746599 0.000000 0.665274
vn 0.746599 0.000000 0.665274
vn 0.000000 1.000000 -0.000000
vn 0.000000 1.000000 0.000000
vn 0.000000 1.000000 -0.000000
vn 0.000000 -1.000000 0.000000
vn 0.000000 -1.000000 0.000000
vn 0.000000 -1.000000 0.000000
vn 0.000000 -1.000000 0.000000
vn 0.000000 -1.000000 0.000000
vn 0.000000 -1.000000 0.000000
vn 0.000000 -1.000000 0.000000
vn 0.819817 0.000000 0.572625
vn 0.819817 0.000000 0.572625
vn 0.819817 0.000000 0.572626
vn 0.819817 0.000000 0.572626
vn 0.000000 1.000000 0.000000
vn 0.000000 1.000000 0.000000
vn 0.000000 1.000000 0.000000
vn 0.000000 1.000000 0.000000
vn -0.803011 0.000000 -0.595964
vn -0.803011 0.000000 -0.595964
vn -0.803011 0.000000 -0.595964
vn -0.803011 0.000000 -0.595964
vn 0.000000 1.000000 0.000000
vn 0.000000 1.000000 0.000000
vn 0.000000 1.000000 0.000000
vn 0.000000 1.000000 0.000000
vn 0.819817 0.000000 -0.572625
vn 0.819817 0.000000 -0.572625
vn 0.819817 0.000000 -0.572625
vn 0.819817 0.000000 -0.572625
vn 0.000000 -1.000000 0.000000
vn 0.000000 -1.000000 0.000000
vn 0.000000 -1.000000 0.000000
vn 0.000000 -1.000000 0.000000
vn -0.803011 0.000000 0.595964
vn -0.803011 0.000000 0.595964
vn -0.803011 0.000000 0.595964
vn -0.803011 0.000000 0.595964
vn 0.000000 1.000000 0.000000
vn 0.000000 1.000000 0.000000
vn 0.000000 1.000000 0.000000
vn 0.000000 1.000000 0.000000
vn -0.819817 0.000000 0.572625
vn -0.819817 0.000000 0.572625
vn -0.819817 0.000000 0.572626
vn -0.819817 0.000000 0.572626
vn 0.000000 -1.000000 0.000000
vn 0.000000 -1.000000 0.000000
vn 0.000000 -1.000000 0.000000
vn 0.000000 -1.000000 0.000000
vn 0.803011 0.000000 -0.595964
vn 0.803011 0.000000 -0.595964
vn 0.803011 0.000000 -0.595964
vn 0.803011 0.000000 -0.595964
vn 0.000000 -1.000000 0.000000
vn 0.000000 -1.000000 0.000000
vn 0.000000 -1.000000 0.000000
vn 0.000000 -1.000000 0.000000
vn -0.819817 0.000000 -0.572625
vn -0.819817 0.000000 -0.572625
vn -0.819817 0.000000 -0.572625
vn -0.819817 0.000000 -0.572625
vn 0.000000 1.000000 0.000000
vn 0.000000 1.000000 0.000000
vn 0.000000 1.000000 -0.000000
vn 0.000000 1.000000 -0.000000
vn 0.803011 0.000000 0.595964
vn 0.803011 0.000000 0.595964
vn 0.803011 0.000000 0.595964
vn 0.803011 0.000000 0.595964
s off
f 9/9/1 10/10/2 11/11/3 12/12/4
f 3/4/5 4/3/6 6/5/7 5/6/8
f 13/13/9 14/14/10 15/15/11 16/16/12
f 7/8/13 8/7/14 2/2/15 1/1/16
f 2/2/17 8/7/18 6/5/19 4/3/20
f 7/8/21 1/1/22 3/4/23 5/6/24
f 79/17/25 80/18/26 10/10/27 9/9/28
f 80/18/29 81/19/30 11/11/31 10/10/32
f 81/19/33 82/20/34 12/12/35 11/11/36
f 82/20/37 79/17/38 9/9/39 12/12/40
f 83/21/41 84/22/42 14/14/43 13/13/44
f 84/22/45 85/23/46 15/15/47 14/14/48
f 85/23/49 86/24/50 16/16/51 15/15/52
f 86/24/53 83/21/54 13/13/55 16/16/56
f 25/25/57 26/26/58 27/27/59 28/28/60
f 19/29/61 20/30/62 22/31/63 21/32/64
f 29/33/65 30/34/66 31/35/67 32/36/68
f 23/37/69 24/38/70 18/39/71 17/40/72
f 18/39/73 24/38/74 22/31/75 20/30/76
f 23/37/77 17/40/78 19/29/79 21/32/80
f 91/41/81 92/42/82 26/26/83 25/25/84
f 92/42/85 93/43/86 27/27/87 26/26/88
f 93/43/89 94/44/90 28/28/91 27/27/92
f 94/44/93 91/41/94 25/25/95 28/28/96
f 87/45/97 88/46/98 30/34/99 29/33/100
f 88/46/101 89/47/102 31/35/103 30/34/104
f 89/47/105 90/48/106 32/36/107 31/35/108
f 90/48/109 87/45/110 29/33/111 32/36/112
f 68/87/113 74/92/114 66/85/115
f 55/55/116 56/56/117 57/57/118 58/58/119
f 45/50/120 46/52/121 50/54/122 48/51/123
f 37/59/124 38/60/125 40/61/126 39/62/127
f 39/62/128 40/61/129 42/63/130 41/64/131
f 41/64/132 42/63/133 44/65/134 43/66/135
f 43/66/136 44/65/137 38/60/138 37/59/139
f 38/60/140 44/65/141 42/63/142 40/61/143
f 43/66/144 37/59/145 39/62/146 41/64/147
f 64/84/148 62/82/149 61/81/150
f 51/70/151 52/71/152 46/52/153 45/50/154
f 58/58/155 57/57/156 59/73/157 60/74/158
f 54/75/159 51/70/160 45/50/161 47/49/162
f 48/51/163 50/54/164 36/93/165 76/98/166
f 35/68/167 52/71/168 51/70/169 33/69/170
f 34/67/171 53/72/172 52/71/173 35/68/174
f 71/89/175 69/95/176 73/91/177
f 54/75/178 47/49/179 58/78/180 60/80/181
f 70/88/182 65/97/183 63/83/184
f 53/72/185 34/67/186 59/79/187
f 33/69/188 64/84/189 34/67/190 35/68/191
f 33/69/192 51/70/193 54/75/194 61/81/195
f 61/81/196 54/75/197 60/80/198
f 34/67/199 64/84/200 59/79/201
f 70/88/202 49/53/203 56/77/204
f 78/99/205 76/98/206 36/93/207 65/97/208
f 50/54/209 49/53/210 70/88/211 36/93/212
f 74/92/213 72/90/214 53/72/215 59/79/216
f 49/53/217 66/85/218 74/92/219 56/77/220
f 46/52/221 68/87/222 66/85/223
f 46/52/224 72/90/225 68/87/226
f 69/95/227 48/51/228 75/96/229 77/100/230
f 73/91/231 69/95/232 77/100/233 55/94/234
f 47/49/235 67/86/236 58/78/237
f 47/49/238 45/50/239 48/51/240 67/86/241
f 71/89/242 73/91/243 67/86/244
f 72/90/245 74/92/246 68/87/247
f 55/94/248 65/97/249 70/88/250 56/77/251
f 58/78/252 67/86/253 73/91/254 55/94/255
f 59/79/256 64/84/257 61/81/258 60/80/259
f 74/92/260 59/79/261 57/76/262
f 56/77/263 74/92/264 57/76/265
f 46/52/266 66/85/267 49/53/268 50/54/269
f 52/71/270 53/72/271 72/90/272 46/52/273
f 36/93/274 70/88/275 63/83/276
f 65/97/277 36/93/278 63/83/279
f 69/95/280 71/89/281 48/51/282
f 67/86/283 48/51/284 71/89/285
f 33/69/286 61/81/287 62/82/288
f 62/82/289 64/84/290 33/69/291
f 55/94/292 78/99/293 65/97/294
f 75/96/295 76/98/296 78/99/297 77/100/298
f 77/100/299 78/99/300 55/94/301
f 48/51/302 76/98/303 75/96/304
f 1/1/305 2/2/306 80/102/307 79/101/308
f 2/2/309 4/3/310 81/103/311 80/102/312
f 4/3/313 3/4/314 82/104/315 81/103/316
f 3/4/317 1/1/318 79/101/319 82/104/320
f 5/6/321 6/5/322 84/106/323 83/105/324
f 6/5/325 8/7/326 85/107/327 84/106/328
f 8/7/329 7/8/330 86/108/331 85/107/332
f 7/8/333 5/6/334 83/105/335 86/108/336
f 21/32/337 22/31/338 88/110/339 87/109/340
f 22/31/341 24/38/342 89/111/343 88/110/344
f 24/38/345 23/37/346 90/112/347 89/111/348
f 23/37/349 21/32/350 87/109/351 90/112/352
f 17/40/353 18/39/354 92/114/355 91/113/356
f 18/39/357 20/30/358 93/115/359 92/114/360
f 20/30/361 19/29/362 94/116/363 93/115/364
f 19/29/365 17/40/366 91/113/367 94/116/368
