# This file uses centimeters as units for non-parametric coordinates.

v -2.410311 -6.756957 -0.494692
v 2.410311 -6.756957 -0.494692
v -2.410311 -6.756958 0.494692
v 2.410311 -6.756958 0.494692
v -2.354743 10.429262 0.223190
v 2.354743 10.429262 0.223190
v -2.354743 10.429262 -0.223190
v 2.354743 10.429262 -0.223190
v -1.968184 -6.156459 1.283913
v 1.968184 -6.156459 1.283913
v 1.564751 8.665259 1.283913
v -1.564751 8.665259 1.283913
v -1.564751 8.665259 -1.283913
v 1.564751 8.665259 -1.283913
v 1.968184 -6.156459 -1.283913
v -1.968184 -6.156459 -1.283913
v -2.876797 -5.462266 0.494692
v -2.349102 -5.278451 1.283913
v 2.349102 -5.278451 1.283913
v 2.876797 -5.462266 0.494692
v 2.876797 -5.462266 -0.494692
v 2.349102 -5.278451 -1.283913
v -2.349102 -5.278451 -1.283913
v -2.876797 -5.462266 -0.494692
v 10.723024 25.140890 -0.266288
v 6.190941 29.897621 -0.266288
v 0.000000 31.638702 -0.266288
v -6.190941 29.897621 -0.266288
v -10.723024 25.140890 -0.266288
v -12.171127 17.092308 -0.266293
v -7.864511 10.091976 -0.351959
v -4.569008 7.761915 -0.351959
v 0.000000 -1.314979 -0.351959
v 4.569008 7.761915 -0.351959
v 7.864511 10.091976 -0.351959
v 12.171127 17.092308 -0.266293
v 10.723024 25.140890 0.266288
v 6.190941 29.897621 0.266288
v 0.000000 31.638702 0.266288
v -6.190941 29.897621 0.266288
v -10.723024 25.140890 0.266288
v -12.171127 17.092308 0.266293
v -7.864511 10.091977 0.351959
v -4.569008 7.761915 0.351959
v 0.000000 -1.314979 0.351959
v 4.569008 7.761915 0.351959
v 7.864511 10.091977 0.351959
v 12.171127 17.092308 0.266293
v 10.183378 24.813885 -0.689877
v 5.879376 29.331224 -0.689877
v 0.000000 17.092308 -0.689877
v 0.000000 30.984686 -0.689877
v -5.879376 29.331224 -0.689877
v -10.183378 24.813885 -0.689877
v -11.558605 17.092308 -0.689877
v -7.253716 10.436078 -0.689877
v 7.253716 10.436078 -0.689877
v 11.558605 17.092308 -0.689877
v 10.183378 24.813885 0.689877
v 5.879376 29.331224 0.689877
v 0.000000 17.092308 0.689877
v 0.000000 30.984686 0.689877
v -5.879376 29.331224 0.689877
v -10.183378 24.813885 0.689877
v -11.558605 17.092308 0.689877
v -7.253716 10.436078 0.689877
v 7.253716 10.436078 0.689877
v 11.558605 17.092308 0.689877
v -9.652296 11.845737 0.689877
v -10.392910 11.570456 0.266298
v -10.392910 11.570455 -0.266298
v -9.652296 11.845737 -0.689877
v 9.652297 11.845737 0.689877
v 10.392910 11.570456 0.266298
v 10.392910 11.570456 -0.266298
v 9.652297 11.845737 -0.689877
vt 0.037957 0.302042
vt 0.038001 0.302206
vt 0.038012 0.302132
vt 0.037966 0.301972
vt 0.037888 0.301933
vt 0.037926 0.302088
vt 0.037168 0.302062
vt 0.037185 0.301937
vt 0.037044 0.301981
vt 0.037012 0.302136
vt 0.037014 0.302169
vt 0.037046 0.302012
vt 0.037190 0.302084
vt 0.037174 0.302215
vt 0.037907 0.302241
vt 0.037872 0.302080
vt 0.037937 0.302148
vt 0.037928 0.302222
vt 0.037882 0.302026
vt 0.037890 0.301957
vt 0.037976 0.302075
vt 0.037941 0.301946
vt 0.037923 0.302093
vt 0.037956 0.302228
vt 0.038482 0.274349
vt 0.038582 0.274386
vt 0.038583 0.274326
vt 0.038483 0.274299
vt 0.037638 0.274312
vt 0.037583 0.274340
vt 0.037583 0.274366
vt 0.037638 0.274334
vt 0.038513 0.274329
vt 0.038513 0.274390
vt 0.038408 0.274346
vt 0.038409 0.274297
vt 0.038053 0.327348
vt 0.037898 0.327220
vt 0.037895 0.327217
vt 0.038052 0.327346
vt 0.037832 0.327036
vt 0.037829 0.327031
vt 0.037870 0.326847
vt 0.037867 0.326840
vt 0.037997 0.326703
vt 0.037995 0.326695
vt 0.038179 0.326638
vt 0.038178 0.326630
vt 0.038369 0.326667
vt 0.038370 0.326659
vt 0.038522 0.326783
vt 0.038524 0.326776
vt 0.038824 0.326938
vt 0.038829 0.326932
vt 0.038571 0.327153
vt 0.038574 0.327149
vt 0.038446 0.327309
vt 0.038448 0.327306
vt 0.038255 0.327381
vt 0.038256 0.327379
vt 0.104380 0.205709
vt 0.104553 0.205883
vt 0.104790 0.205472
vt 0.104319 0.205473
vt 0.104384 0.205240
vt 0.104556 0.205071
vt 0.104788 0.205009
vt 0.105020 0.205081
vt 0.105028 0.205869
vt 0.104791 0.205946
vt 0.104548 0.205884
vt 0.104372 0.205707
vt 0.104790 0.205466
vt 0.104310 0.205467
vt 0.104376 0.205230
vt 0.104551 0.205058
vt 0.104788 0.204995
vt 0.105024 0.205068
vt 0.105032 0.205871
vt 0.104791 0.205949
vt 0.104356 0.205721
vt 0.104539 0.205905
vt 0.104292 0.205472
vt 0.104361 0.205226
vt 0.104542 0.205047
vt 0.104788 0.204982
vt 0.105034 0.205046
vt 0.105043 0.205904
vt 0.104791 0.205973
vt 0.104537 0.205906
vt 0.104352 0.205720
vt 0.104287 0.205469
vt 0.104357 0.205220
vt 0.104540 0.205040
vt 0.104788 0.204974
vt 0.105037 0.205039
vt 0.105046 0.205905
vt 0.104791 0.205974
vt 0.104977 0.205054
vt 0.104987 0.205026
vt 0.038332 0.326653
vt 0.038331 0.326661
vt 0.104985 0.205033
vt 0.104974 0.205067
vt 0.104984 0.205886
vt 0.104995 0.205919
vt 0.038410 0.327320
vt 0.038408 0.327323
vt 0.104993 0.205917
vt 0.104981 0.205885
vn 0.000000 -1.000000 -0.000001
vn 0.000000 -1.000000 -0.000001
vn 0.000000 -1.000000 -0.000001
vn 0.000000 -1.000000 -0.000001
vn 0.000000 -0.000000 1.000000
vn 0.000000 -0.000000 1.000000
vn 0.000000 -0.000000 1.000000
vn 0.000000 -0.000000 1.000000
vn 0.000000 1.000000 0.000000
vn 0.000000 1.000000 0.000000
vn 0.000000 1.000000 0.000000
vn 0.000000 1.000000 0.000000
vn 0.000000 -0.000000 -1.000000
vn 0.000000 -0.000000 -1.000000
vn 0.000000 -0.000000 -1.000000
vn 0.000000 -0.000000 -1.000000
vn 0.999461 0.032833 0.000000
vn 0.999461 0.032833 0.000000
vn 0.999461 0.032833 0.000000
vn 0.999461 0.032833 0.000000
vn -0.999461 0.032833 0.000000
vn -0.999461 0.032833 0.000000
vn -0.999461 0.032833 0.000000
vn -0.999461 0.032833 0.000000
vn 0.000000 -0.795827 0.605525
vn 0.000000 -0.795827 0.605525
vn 0.000000 -0.795827 0.605525
vn 0.000000 -0.795827 0.605525
vn 0.797215 0.040389 0.602344
vn 0.797215 0.040389 0.602344
vn 0.797215 0.040389 0.602344
vn 0.797215 0.040389 0.602344
vn 0.000000 0.515325 0.856995
vn 0.000000 0.515325 0.856995
vn 0.000000 0.515325 0.856995
vn 0.000000 0.515325 0.856995
vn -0.797215 0.040389 0.602344
vn -0.797215 0.040389 0.602344
vn -0.797215 0.040389 0.602344
vn -0.797215 0.040389 0.602344
vn 0.000000 0.515325 -0.856995
vn 0.000000 0.515325 -0.856995
vn 0.000000 0.515325 -0.856995
vn 0.000000 0.515325 -0.856995
vn 0.797215 0.040389 -0.602344
vn 0.797215 0.040389 -0.602344
vn 0.797215 0.040389 -0.602343
vn 0.797215 0.040389 -0.602344
vn 0.000000 -0.795827 -0.605524
vn 0.000000 -0.795827 -0.605524
vn 0.000000 -0.795827 -0.605524
vn 0.000000 -0.795827 -0.605524
vn -0.797215 0.040389 -0.602343
vn -0.797215 0.040389 -0.602344
vn -0.797215 0.040389 -0.602344
vn -0.797215 0.040389 -0.602344
vn -0.744254 -0.290277 0.601519
vn -0.744254 -0.290277 0.601519
vn -0.744254 -0.290277 0.601519
vn -0.744254 -0.290277 0.601519
vn 0.000000 0.000000 1.000000
vn 0.000000 0.000000 1.000000
vn 0.000000 0.000000 1.000000
vn 0.000000 0.000000 1.000000
vn 0.744254 -0.290277 0.601519
vn 0.744254 -0.290277 0.601519
vn 0.744254 -0.290277 0.601519
vn 0.744254 -0.290277 0.601519
vn 0.940795 -0.338975 -0.000000
vn 0.940795 -0.338975 -0.000000
vn 0.940795 -0.338975 -0.000000
vn 0.940795 -0.338975 -0.000000
vn 0.744254 -0.290277 -0.601519
vn 0.744254 -0.290277 -0.601519
vn 0.744254 -0.290277 -0.601519
vn 0.744254 -0.290277 -0.601519
vn 0.000000 0.000000 -1.000000
vn 0.000000 0.000000 -1.000000
vn 0.000000 0.000000 -1.000000
vn 0.000000 0.000000 -1.000000
vn -0.744254 -0.290277 -0.601519
vn -0.744254 -0.290277 -0.601519
vn -0.744254 -0.290277 -0.601519
vn -0.744254 -0.290277 -0.601519
vn -0.940795 -0.338975 -0.000000
vn -0.940795 -0.338975 -0.000000
vn -0.940795 -0.338975 -0.000000
vn -0.940795 -0.338975 -0.000000
vn 0.723996 0.689804 0.000000
vn 0.723996 0.689804 0.000000
vn 0.723996 0.689804 0.000000
vn 0.723996 0.689804 0.000000
vn 0.270728 0.962656 0.000000
vn 0.270728 0.962656 0.000000
vn 0.270728 0.962656 0.000000
vn 0.270728 0.962656 0.000000
vn -0.270728 0.962656 0.000000
vn -0.270728 0.962656 0.000000
vn -0.270728 0.962656 0.000000
vn -0.270728 0.962656 0.000000
vn -0.723996 0.689804 0.000000
vn -0.723996 0.689804 0.000000
vn -0.723996 0.689804 0.000000
vn -0.723996 0.689804 0.000000
vn -0.984197 0.177077 0.000000
vn -0.984197 0.177077 0.000000
vn -0.984197 0.177077 0.000000
vn -0.984197 0.177077 0.000000
vn -0.504782 -0.863247 0.000002
vn -0.504782 -0.863247 0.000002
vn -0.504782 -0.863247 0.000002
vn -0.504782 -0.863247 0.000002
vn -0.577316 -0.816521 0.000000
vn -0.577315 -0.816521 0.000000
vn -0.577315 -0.816521 0.000000
vn -0.577315 -0.816521 0.000000
vn -0.893221 -0.449618 -0.000000
vn -0.893221 -0.449618 -0.000000
vn -0.893221 -0.449618 -0.000000
vn -0.893221 -0.449618 -0.000000
vn 0.893221 -0.449618 -0.000000
vn 0.893221 -0.449618 -0.000000
vn 0.893221 -0.449618 -0.000000
vn 0.893221 -0.449618 -0.000000
vn 0.577315 -0.816521 0.000000
vn 0.577316 -0.816521 0.000000
vn 0.577315 -0.816521 0.000000
vn 0.577315 -0.816521 0.000000
vn 0.951861 -0.306530 0.000000
vn 0.951861 -0.306530 0.000000
vn 0.951861 -0.306530 0.000000
vn 0.951861 -0.306530 0.000000
vn 0.984197 0.177077 0.000000
vn 0.984197 0.177077 0.000000
vn 0.984197 0.177077 0.000000
vn 0.984197 0.177077 0.000000
vn 0.000000 0.000000 -1.000000
vn 0.000000 0.000000 -1.000000
vn 0.000000 0.000000 -1.000000
vn 0.000000 0.000000 -1.000000
vn 0.000000 0.000000 -1.000000
vn 0.000000 0.000000 -1.000000
vn 0.000000 0.000000 -1.000000
vn 0.000000 0.000000 -1.000000
vn 0.000000 0.000000 -1.000000
vn -0.000000 0.000000 -1.000000
vn -0.000000 0.000000 -1.000000
vn -0.000000 0.000000 -1.000000
vn 0.000000 0.000000 -1.000000
vn 0.000000 0.000000 -1.000000
vn 0.000000 0.000000 -1.000000
vn 0.000000 -0.000000 -1.000000
vn 0.000000 -0.000000 -1.000000
vn 0.000000 -0.000000 -1.000000
vn 0.000000 -0.000000 -1.000000
vn 0.000000 -0.000000 -1.000000
vn 0.000000 -0.000000 -1.000000
vn 0.000000 -0.000000 -1.000000
vn 0.000000 -0.000000 -1.000000
vn 0.000000 -0.000000 -1.000000
vn 0.000000 -0.000000 -1.000000
vn 0.000000 -0.000000 -1.000000
vn 0.000000 0.000000 -1.000000
vn 0.000000 0.000000 -1.000000
vn 0.000000 0.000000 -1.000000
vn 0.000000 0.000000 1.000000
vn 0.000000 0.000000 1.000000
vn 0.000000 0.000000 1.000000
vn 0.000000 0.000000 1.000000
vn 0.000000 0.000000 1.000000
vn 0.000000 0.000000 1.000000
vn 0.000000 0.000000 1.000000
vn 0.000000 0.000000 1.000000
vn 0.000000 0.000000 1.000000
vn 0.000000 0.000000 1.000000
vn 0.000000 0.000000 1.000000
vn 0.000000 0.000000 1.000000
vn 0.000000 0.000000 1.000000
vn 0.000000 0.000000 1.000000
vn 0.000000 0.000000 1.000000
vn 0.000000 -0.000000 1.000000
vn 0.000000 -0.000000 1.000000
vn 0.000000 -0.000000 1.000000
vn 0.000000 -0.000000 1.000000
vn 0.000000 0.000000 1.000000
vn 0.000000 0.000000 1.000000
vn 0.000000 0.000000 1.000000
vn 0.000000 0.000000 1.000000
vn -0.000000 -0.000000 1.000000
vn -0.000000 -0.000000 1.000000
vn -0.000000 -0.000000 1.000000
vn -0.000000 -0.000000 1.000000
vn -0.000000 0.000000 1.000000
vn -0.000000 0.000000 1.000000
vn -0.000000 0.000000 1.000000
vn 0.000000 -0.000000 1.000000
vn 0.000000 -0.000000 1.000000
vn 0.000000 -0.000000 1.000000
vn 0.000000 0.000000 -1.000000
vn 0.000000 0.000000 -1.000000
vn 0.000000 0.000000 -1.000000
vn 0.000000 0.000000 1.000000
vn 0.000000 0.000000 1.000000
vn 0.000000 0.000000 1.000000
vn 0.000000 0.000000 -1.000000
vn 0.000000 0.000000 -1.000000
vn 0.000000 0.000000 -1.000000
vn 0.000000 0.000000 -1.000000
vn 0.410100 0.390732 -0.824104
vn 0.410100 0.390732 -0.824104
vn 0.410100 0.390732 -0.824104
vn 0.410100 0.390732 -0.824104
vn 0.151125 0.537370 -0.829695
vn 0.151125 0.537371 -0.829695
vn 0.151125 0.537371 -0.829695
vn 0.151125 0.537371 -0.829695
vn -0.151125 0.537370 -0.829696
vn -0.151125 0.537370 -0.829696
vn -0.151125 0.537370 -0.829696
vn -0.151125 0.537370 -0.829696
vn -0.410100 0.390732 -0.824104
vn -0.410100 0.390732 -0.824104
vn -0.410100 0.390732 -0.824104
vn -0.410100 0.390732 -0.824104
vn -0.570318 0.102104 -0.815054
vn -0.570318 0.102104 -0.815054
vn -0.570318 0.102104 -0.815054
vn -0.570318 0.102104 -0.815054
vn -0.275864 -0.445343 -0.851803
vn -0.275864 -0.445343 -0.851803
vn -0.275864 -0.445343 -0.851803
vn -0.275864 -0.445343 -0.851803
vn 0.000000 -0.700667 -0.713489
vn 0.000000 -0.700667 -0.713489
vn 0.000000 -0.700667 -0.713489
vn 0.000000 -0.700667 -0.713489
vn 0.497775 -0.170318 -0.850419
vn 0.497775 -0.170318 -0.850419
vn 0.497775 -0.170318 -0.850419
vn 0.497775 -0.170318 -0.850419
vn 0.570318 0.102104 -0.815054
vn 0.570318 0.102104 -0.815054
vn 0.570318 0.102104 -0.815054
vn 0.570318 0.102104 -0.815054
vn 0.410100 0.390732 0.824104
vn 0.410100 0.390732 0.824104
vn 0.410100 0.390732 0.824104
vn 0.410100 0.390732 0.824104
vn 0.151125 0.537370 0.829696
vn 0.151125 0.537370 0.829696
vn 0.151125 0.537370 0.829696
vn 0.151125 0.537370 0.829696
vn -0.151125 0.537370 0.829695
vn -0.151125 0.537371 0.829695
vn -0.151125 0.537371 0.829695
vn -0.151125 0.537371 0.829695
vn -0.410100 0.390732 0.824104
vn -0.410100 0.390732 0.824104
vn -0.410100 0.390732 0.824104
vn -0.410100 0.390732 0.824104
vn -0.570318 0.102104 0.815053
vn -0.570318 0.102104 0.815053
vn -0.570318 0.102104 0.815053
vn -0.570318 0.102104 0.815053
vn -0.275865 -0.445344 0.851802
vn -0.275865 -0.445344 0.851802
vn -0.275865 -0.445344 0.851803
vn -0.275865 -0.445344 0.851803
vn 0.497775 -0.170318 0.850419
vn 0.497775 -0.170318 0.850419
vn 0.497775 -0.170318 0.850419
vn 0.497775 -0.170318 0.850419
vn 0.570318 0.102104 0.815053
vn 0.570318 0.102104 0.815053
vn 0.570318 0.102104 0.815053
vn 0.570318 0.102104 0.815053
vn 0.000000 -0.700668 0.713488
vn 0.000000 -0.700668 0.713488
vn 0.000000 -0.700668 0.713488
vn 0.000000 -0.700668 0.713488
vn -0.497775 -0.170318 0.850419
vn -0.497775 -0.170318 0.850419
vn -0.497775 -0.170318 0.850419
vn -0.497775 -0.170318 0.850419
vn -0.951861 -0.306530 0.000001
vn -0.951861 -0.306530 0.000001
vn -0.951861 -0.306530 0.000001
vn -0.951861 -0.306530 0.000001
vn -0.497774 -0.170318 -0.850419
vn -0.497774 -0.170318 -0.850419
vn -0.497774 -0.170318 -0.850419
vn -0.497774 -0.170318 -0.850419
vn 0.275865 -0.445344 0.851803
vn 0.275865 -0.445344 0.851803
vn 0.275865 -0.445344 0.851803
vn 0.275865 -0.445344 0.851803
vn 0.504783 -0.863247 0.000001
vn 0.504783 -0.863247 0.000001
vn 0.504783 -0.863247 0.000001
vn 0.504783 -0.863247 0.000001
vn 0.275865 -0.445344 -0.851803
vn 0.275865 -0.445344 -0.851803
vn 0.275865 -0.445344 -0.851803
vn 0.275865 -0.445344 -0.851803
s off
f 1/25/1 2/26/2 4/27/3 3/28/4
f 18/5/5 19/6/6 11/7/7 12/8/8
f 5/29/9 6/30/10 8/31/11 7/32/12
f 13/13/13 14/14/14 22/15/15 23/16/16
f 20/33/17 21/34/18 8/31/19 6/30/20
f 7/32/21 24/35/22 17/36/23 5/29/24
f 3/4/25 4/3/26 10/21/27 9/22/28
f 19/6/29 20/17/30 6/10/31 11/7/32
f 6/10/33 5/9/34 12/8/35 11/7/36
f 5/9/37 17/20/38 18/5/39 12/8/40
f 7/12/41 8/11/42 14/14/43 13/13/44
f 8/11/45 21/18/46 22/15/47 14/14/48
f 2/2/49 1/1/50 16/23/51 15/24/52
f 23/16/53 24/19/54 7/12/55 13/13/56
f 18/5/57 17/20/58 3/4/59 9/22/60
f 9/22/61 10/21/62 19/6/63 18/5/64
f 4/3/65 20/17/66 19/6/67 10/21/68
f 2/26/69 21/34/70 20/33/71 4/27/72
f 22/15/73 21/18/74 2/2/75 15/24/76
f 23/16/77 22/15/78 15/24/79 16/23/80
f 1/1/81 24/19/82 23/16/83 16/23/84
f 17/36/85 24/35/86 1/25/87 3/28/88
f 25/37/89 26/38/90 38/39/91 37/40/92
f 26/38/93 27/41/94 39/42/95 38/39/96
f 27/41/97 28/43/98 40/44/99 39/42/100
f 28/43/101 29/45/102 41/46/103 40/44/104
f 29/45/105 30/47/106 42/48/107 41/46/108
f 70/101/109 71/102/110 31/49/111 43/50/112
f 31/49/113 32/51/114 44/52/115 43/50/116
f 32/51/117 33/53/118 45/54/119 44/52/120
f 33/53/121 34/55/122 46/56/123 45/54/124
f 34/55/125 35/57/126 47/58/127 46/56/128
f 74/107/129 75/108/130 36/59/131 48/60/132
f 36/59/133 25/37/134 37/40/135 48/60/136
f 50/61/137 49/62/138 51/63/139
f 52/64/140 50/61/141 51/63/142
f 53/65/143 52/64/144 51/63/145
f 54/66/146 53/65/147 51/63/148
f 55/67/149 54/66/150 51/63/151
f 56/68/152 72/104/153 55/67/154 51/63/155
f 57/69/156 56/68/157 51/63/158
f 58/70/159 76/110/160 57/69/161 51/63/162
f 49/62/163 58/70/164 51/63/165
f 59/71/166 60/72/167 61/73/168
f 60/72/169 62/74/170 61/73/171
f 62/74/172 63/75/173 61/73/174
f 63/75/175 64/76/176 61/73/177
f 64/76/178 65/77/179 61/73/180
f 65/77/181 69/99/182 66/78/183 61/73/184
f 47/58/185 43/50/186 44/52/187 46/56/188
f 67/79/189 73/105/190 68/80/191 61/73/192
f 68/80/193 59/71/194 61/73/195
f 61/73/196 66/78/197 67/79/198
f 34/55/199 33/53/200 32/51/201
f 46/56/202 44/52/203 45/54/204
f 34/55/205 32/51/206 31/49/207 35/57/208
f 26/81/209 25/82/210 49/62/211 50/61/212
f 27/83/213 26/81/214 50/61/215 52/64/216
f 28/84/217 27/83/218 52/64/219 53/65/220
f 29/85/221 28/84/222 53/65/223 54/66/224
f 30/86/225 29/85/226 54/66/227 55/67/228
f 31/87/229 71/103/230 72/104/231 56/68/232
f 35/88/233 31/87/234 56/68/235 57/69/236
f 36/89/237 75/109/238 76/110/239 58/70/240
f 25/82/241 36/89/242 58/70/243 49/62/244
f 37/90/245 38/91/246 60/72/247 59/71/248
f 38/91/249 39/92/250 62/74/251 60/72/252
f 39/92/253 40/93/254 63/75/255 62/74/256
f 40/93/257 41/94/258 64/76/259 63/75/260
f 41/94/261 42/95/262 65/77/263 64/76/264
f 69/99/265 70/100/266 43/96/267 66/78/268
f 73/105/269 74/106/270 48/98/271 68/80/272
f 48/98/273 37/90/274 59/71/275 68/80/276
f 43/96/277 47/97/278 67/79/279 66/78/280
f 42/95/281 70/100/282 69/99/283 65/77/284
f 30/47/285 71/102/286 70/101/287 42/48/288
f 72/104/289 71/103/290 30/86/291 55/67/292
f 47/97/293 74/106/294 73/105/295 67/79/296
f 35/57/297 75/108/298 74/107/299 47/58/300
f 76/110/301 75/109/302 35/88/303 57/69/304
