# This file uses centimeters as units for non-parametric coordinates.

v 15.396240 2.256470 -15.396301
v 0.000000 2.256470 -21.773621
v -15.396301 2.256470 -15.396301
v -21.773621 2.256470 0.000061
v -15.396301 2.256470 15.396301
v 0.000000 2.256470 21.773621
v 15.396301 2.256470 15.396301
v 21.773621 2.256470 0.000061
v 14.649841 3.308334 -14.649231
v 0.000000 3.308334 -20.717468
v -14.649841 3.308334 -14.649231
v -20.717468 3.308334 0.000061
v -14.649841 3.308334 14.649109
v 0.000000 3.308334 20.717468
v 14.649841 3.308334 14.649109
v 20.717468 3.308334 0.000061
v 11.738464 0.000000 -11.738586
v 0.000000 0.000000 -16.600769
v 0.000000 0.000000 0.000061
v -11.738525 0.000000 -11.738586
v -16.600708 0.000000 0.000061
v -11.738525 0.000000 11.738586
v 0.000000 0.000000 16.600769
v 11.738525 0.000000 11.738586
v 16.600769 0.000000 0.000061
v 11.169067 1.051872 -11.169739
v 0.000000 1.051872 -15.795715
v 0.000000 1.051872 0.000061
v -11.169067 1.051872 -11.169739
v -15.795776 1.051872 0.000061
v -11.169067 1.051872 11.169739
v 0.000000 1.051872 15.795715
v 11.169067 1.051872 11.169739
v 15.795837 1.051872 0.000061
vt 0.113599 0.182419
vt 0.113599 0.182419
vt 0.113599 0.182419
vt 0.113599 0.182419
vt 0.113599 0.182419
vt 0.113599 0.182419
vt 0.113599 0.182419
vt 0.113599 0.182419
vt 0.113599 0.182419
vt 0.113599 0.182419
vt 0.113599 0.182419
vt 0.113599 0.182419
vt 0.113599 0.182419
vt 0.113599 0.182419
vt 0.113599 0.182419
vt 0.113599 0.182419
vt 0.113599 0.182419
vt 0.113599 0.182419
vt 0.113599 0.182419
vt 0.113599 0.182419
vt 0.113599 0.182419
vt 0.113599 0.182419
vt 0.113599 0.182419
vt 0.113599 0.182419
vt 0.113599 0.182419
vt 0.113599 0.182419
vt 0.113599 0.182419
vt 0.113599 0.182419
vt 0.113599 0.182419
vt 0.113599 0.182419
vt 0.113599 0.182419
vt 0.113599 0.182419
vt 0.113599 0.182419
vt 0.113599 0.182419
vt 0.113599 0.182419
vt 0.113599 0.182419
vt 0.113599 0.182419
vt 0.113599 0.182419
vt 0.113599 0.182419
vt 0.113599 0.182419
vt 0.113599 0.182419
vt 0.113599 0.182419
vt 0.113599 0.182419
vt 0.113599 0.182419
vt 0.113599 0.182419
vt 0.113599 0.182419
vt 0.113599 0.182419
vt 0.113599 0.182419
vt 0.113599 0.182419
vt 0.113599 0.182419
vt 0.113599 0.182419
vt 0.113599 0.182419
vn 0.280553 0.680101 -0.677312
vn 0.280553 0.680101 -0.677312
vn 0.280553 0.680102 -0.677312
vn 0.280553 0.680102 -0.677312
vn -0.280551 0.680106 -0.677309
vn -0.280551 0.680106 -0.677309
vn -0.280551 0.680106 -0.677309
vn -0.280551 0.680106 -0.677309
vn -0.677365 0.680044 -0.280565
vn -0.677365 0.680044 -0.280565
vn -0.677365 0.680044 -0.280565
vn -0.677365 0.680044 -0.280565
vn -0.677356 0.680053 0.280565
vn -0.677356 0.680053 0.280565
vn -0.677356 0.680053 0.280565
vn -0.677356 0.680053 0.280565
vn -0.280546 0.680127 0.677290
vn -0.280546 0.680127 0.677290
vn -0.280546 0.680127 0.677290
vn -0.280546 0.680127 0.677290
vn 0.280546 0.680127 0.677290
vn 0.280546 0.680127 0.677290
vn 0.280546 0.680127 0.677290
vn 0.280546 0.680127 0.677290
vn 0.677356 0.680053 0.280565
vn 0.677356 0.680053 0.280565
vn 0.677356 0.680053 0.280565
vn 0.677356 0.680053 0.280565
vn 0.677373 0.680034 -0.280570
vn 0.677373 0.680034 -0.280570
vn 0.677373 0.680034 -0.280570
vn 0.677373 0.680034 -0.280570
vn 0.000000 -1.000000 0.000000
vn 0.000000 -1.000000 0.000000
vn 0.000000 -1.000000 0.000000
vn 0.000000 -1.000000 0.000000
vn 0.000000 -1.000000 0.000000
vn 0.000000 -1.000000 0.000000
vn 0.000000 -1.000000 0.000000
vn 0.000000 -1.000000 0.000000
vn 0.000000 -1.000000 0.000000
vn 0.000000 -1.000000 -0.000000
vn 0.000000 -1.000000 -0.000000
vn 0.000000 -1.000000 -0.000000
vn 0.000000 -1.000000 0.000000
vn 0.000000 -1.000000 0.000000
vn 0.000000 -1.000000 0.000000
vn 0.000000 -1.000000 0.000000
vn 0.000000 -1.000000 0.000000
vn 0.000000 -1.000000 0.000000
vn 0.000000 -1.000000 0.000000
vn 0.000000 -1.000000 0.000000
vn 0.000000 -1.000000 0.000000
vn 0.000000 -1.000000 0.000000
vn 0.000000 -1.000000 0.000000
vn 0.000000 -1.000000 0.000000
vn 0.000000 1.000000 0.000000
vn 0.000000 1.000000 0.000000
vn 0.000000 1.000000 0.000000
vn 0.000000 1.000000 0.000000
vn 0.000000 1.000000 0.000000
vn 0.000000 1.000000 0.000000
vn 0.000000 1.000000 0.000000
vn 0.000000 1.000000 0.000000
vn 0.000000 1.000000 0.000000
vn 0.000000 1.000000 -0.000000
vn 0.000000 1.000000 -0.000000
vn 0.000000 1.000000 -0.000000
vn 0.000000 1.000000 0.000000
vn 0.000000 1.000000 0.000000
vn 0.000000 1.000000 0.000000
vn 0.000000 1.000000 0.000000
vn 0.000000 1.000000 0.000000
vn 0.000000 1.000000 0.000000
vn 0.000000 1.000000 0.000000
vn 0.000000 1.000000 0.000000
vn 0.000000 1.000000 0.000000
vn 0.000000 1.000000 0.000000
vn 0.000000 1.000000 0.000000
vn 0.000000 1.000000 0.000000
vn 0.163389 -0.904272 -0.394458
vn 0.163389 -0.904272 -0.394458
vn 0.163389 -0.904272 -0.394458
vn 0.163389 -0.904272 -0.394458
vn -0.163388 -0.904272 -0.394458
vn -0.163388 -0.904272 -0.394458
vn -0.163388 -0.904272 -0.394458
vn -0.163388 -0.904272 -0.394458
vn -0.394455 -0.904273 -0.163386
vn -0.394455 -0.904273 -0.163386
vn -0.394455 -0.904273 -0.163386
vn -0.394455 -0.904273 -0.163386
vn -0.394455 -0.904273 0.163387
vn -0.394455 -0.904273 0.163387
vn -0.394455 -0.904273 0.163387
vn -0.394455 -0.904273 0.163387
vn -0.163388 -0.904272 0.394458
vn -0.163388 -0.904272 0.394458
vn -0.163388 -0.904272 0.394458
vn -0.163388 -0.904272 0.394458
vn 0.163388 -0.904272 0.394458
vn 0.163388 -0.904272 0.394458
vn 0.163388 -0.904272 0.394458
vn 0.163388 -0.904272 0.394458
vn 0.394456 -0.904272 0.163389
vn 0.394456 -0.904272 0.163389
vn 0.394456 -0.904272 0.163389
vn 0.394456 -0.904272 0.163389
vn 0.394456 -0.904272 -0.163389
vn 0.394456 -0.904272 -0.163389
vn 0.394456 -0.904272 -0.163389
vn 0.394456 -0.904272 -0.163389
vn -0.170112 0.895761 0.410699
vn -0.170112 0.895761 0.410699
vn -0.170112 0.895761 0.410699
vn -0.170112 0.895761 0.410699
vn 0.170112 0.895761 0.410699
vn 0.170112 0.895761 0.410699
vn 0.170112 0.895761 0.410699
vn 0.170112 0.895761 0.410699
vn 0.410676 0.895774 0.170103
vn 0.410676 0.895774 0.170103
vn 0.410676 0.895774 0.170103
vn 0.410676 0.895774 0.170103
vn 0.410677 0.895773 -0.170106
vn 0.410677 0.895773 -0.170106
vn 0.410677 0.895773 -0.170106
vn 0.410677 0.895773 -0.170106
vn 0.170115 0.895759 -0.410702
vn 0.170115 0.895759 -0.410702
vn 0.170115 0.895759 -0.410702
vn 0.170115 0.895759 -0.410702
vn -0.170115 0.895759 -0.410702
vn -0.170115 0.895759 -0.410702
vn -0.170115 0.895759 -0.410702
vn -0.170115 0.895759 -0.410702
vn -0.410678 0.895772 -0.170107
vn -0.410678 0.895772 -0.170107
vn -0.410678 0.895772 -0.170107
vn -0.410678 0.895772 -0.170107
vn -0.410677 0.895773 0.170105
vn -0.410677 0.895773 0.170105
vn -0.410677 0.895773 0.170105
vn -0.410677 0.895773 0.170105
s off
f 1/9/1 2/10/2 10/19/3 9/18/4
f 2/10/5 3/11/6 11/20/7 10/19/8
f 3/11/9 4/12/10 12/21/11 11/20/12
f 4/12/13 5/13/14 13/22/15 12/21/16
f 5/13/17 6/14/18 14/23/19 13/22/20
f 6/14/21 7/15/22 15/24/23 14/23/24
f 7/15/25 8/16/26 16/25/27 15/24/28
f 8/16/29 1/17/30 9/26/31 16/25/32
f 18/37/33 17/38/34 19/35/35
f 20/39/36 18/37/37 19/35/38
f 21/40/39 20/39/40 19/35/41
f 22/41/42 21/40/43 19/35/44
f 23/42/45 22/41/46 19/35/47
f 24/43/48 23/42/49 19/35/50
f 25/44/51 24/43/52 19/35/53
f 17/38/54 25/44/55 19/35/56
f 26/45/57 27/46/58 28/36/59
f 27/46/60 29/47/61 28/36/62
f 29/47/63 30/48/64 28/36/65
f 30/48/66 31/49/67 28/36/68
f 31/49/69 32/50/70 28/36/71
f 32/50/72 33/51/73 28/36/74
f 33/51/75 34/52/76 28/36/77
f 34/52/78 26/45/79 28/36/80
f 2/2/81 1/1/82 17/38/83 18/37/84
f 3/3/85 2/2/86 18/37/87 20/39/88
f 4/4/89 3/3/90 20/39/91 21/40/92
f 5/5/93 4/4/94 21/40/95 22/41/96
f 6/6/97 5/5/98 22/41/99 23/42/100
f 7/7/101 6/6/102 23/42/103 24/43/104
f 8/8/105 7/7/106 24/43/107 25/44/108
f 1/1/109 8/8/110 25/44/111 17/38/112
f 9/33/113 10/32/114 27/46/115 26/45/116
f 10/32/117 11/31/118 29/47/119 27/46/120
f 11/31/121 12/30/122 30/48/123 29/47/124
f 12/30/125 13/29/126 31/49/127 30/48/128
f 13/29/129 14/28/130 32/50/131 31/49/132
f 14/28/133 15/27/134 33/51/135 32/50/136
f 15/27/137 16/34/138 34/52/139 33/51/140
f 16/34/141 9/33/142 26/45/143 34/52/144
