# This file uses centimeters as units for non-parametric coordinates.

v -5.651108 11.932434 17.275829
v 5.651108 11.932434 17.275829
v 5.651108 13.448410 17.275829
v -5.651108 13.448410 17.275829
v -5.651108 13.052620 18.546564
v 5.651108 13.052620 18.546564
v -21.814581 19.343285 -11.337060
v -21.814581 20.411865 -10.809434
v -21.814581 20.642586 -9.640256
v 21.814581 19.343018 -11.337060
v 21.814581 20.411751 -10.809354
v 21.814581 20.642525 -9.639997
v -21.814581 17.956871 -9.707473
v -21.814581 18.449379 -9.359355
v -21.814581 18.681831 -8.190602
v 21.814581 17.957176 -9.707473
v 21.814581 18.449501 -9.359445
v 21.814581 18.681908 -8.190892
v 21.814581 13.498322 -8.863193
v 21.814581 9.070004 -9.148044
v -21.814581 9.069824 -9.148053
v -21.814581 13.498199 -8.863202
v -21.814581 9.262138 -10.543893
v -21.814581 13.690514 -10.259042
v 21.814581 9.262035 -10.543893
v 21.814581 13.690353 -10.259042
v -21.814581 -0.000000 -8.090627
v -21.814581 1.316024 -10.965116
v -21.814581 4.899902 -11.746491
v 21.814581 -0.000000 -8.090623
v 21.814581 1.316025 -10.965112
v 21.814581 4.899906 -11.746482
v -21.814581 1.578022 -6.539515
v -21.814581 2.927303 -9.417283
v -21.814581 5.056862 -10.119887
v 21.814581 1.578022 -6.539527
v 21.814581 2.927300 -9.417295
v 21.814581 5.056852 -10.119910
v -21.814581 -0.000000 13.435502
v -18.553738 0.000000 16.696346
v -20.859503 -0.000000 15.741267
v -21.814581 1.578022 13.435502
v -20.859503 1.578022 15.741267
v -18.553738 1.578022 16.696346
v 21.814581 -0.000000 13.435502
v 20.859503 -0.000000 15.741267
v 18.553738 0.000000 16.696346
v 21.814581 1.578022 13.435502
v 18.553738 1.578022 16.696346
v 20.859503 1.578022 15.741267
v 21.814581 12.798798 13.761891
v 20.871111 12.185310 16.067545
v 18.582209 11.932434 17.050961
v 21.814581 14.321609 13.761891
v 18.582209 13.448410 17.050961
v 20.871109 13.703278 16.067543
v -21.814581 12.798798 13.761891
v -18.582209 11.932434 17.050961
v -20.871111 12.185310 16.067545
v -21.814581 14.321609 13.761891
v -20.871109 13.703278 16.067543
v -18.582209 13.448410 17.050961
v -4.627166 16.803741 17.934917
v -5.651108 15.797241 17.737211
v -4.627166 16.467690 19.234396
v -5.651108 15.462425 19.031925
v 5.651108 15.797241 17.737211
v 4.627166 16.803741 17.934917
v 4.627166 16.467690 19.234396
v 5.651108 15.462425 19.031925
v 8.359581 12.600174 -8.920964
v 8.359581 9.968143 -9.090272
v -8.359596 12.600060 -8.920976
v -8.359596 9.967972 -9.090280
v -8.359596 12.792366 -10.316812
v -8.359596 10.160282 -10.486119
v 8.359579 12.792213 -10.316815
v 8.359579 10.160179 -10.486123
vt 0.120594 0.231111
vt 0.120591 0.231135
vt 0.119793 0.231118
vt 0.119789 0.231094
vt 0.119751 0.230930
vt 0.119746 0.230904
vt 0.120047 0.230913
vt 0.120050 0.230940
vt 0.120620 0.230920
vt 0.120616 0.230947
vt 0.120313 0.230945
vt 0.120314 0.230918
vt 0.120639 0.230517
vt 0.119792 0.230505
vt 0.119694 0.230865
vt 0.120684 0.230883
vt 0.119793 0.230459
vt 0.119688 0.230838
vt 0.120639 0.230470
vt 0.120688 0.230856
vt 0.120633 0.230476
vt 0.120636 0.230463
vt 0.119799 0.230452
vt 0.119804 0.230465
vt 0.119798 0.230498
vt 0.119801 0.230504
vt 0.120636 0.230510
vt 0.120634 0.230515
vt 0.119809 0.230584
vt 0.119821 0.230651
vt 0.119826 0.230634
vt 0.119814 0.230568
vt 0.120627 0.230596
vt 0.120619 0.230663
vt 0.120625 0.230580
vt 0.120616 0.230646
vt 0.119737 0.231043
vt 0.119742 0.231066
vt 0.119839 0.230794
vt 0.119829 0.230788
vt 0.120611 0.230802
vt 0.120606 0.230807
vt 0.120653 0.231085
vt 0.120656 0.231061
vt 0.120610 0.230713
vt 0.119835 0.230701
vt 0.119841 0.230687
vt 0.120607 0.230699
vt 0.120602 0.230758
vt 0.119846 0.230745
vt 0.119837 0.230738
vt 0.120608 0.230751
vt 0.120638 0.231121
vt 0.120642 0.231097
vt 0.119750 0.231102
vt 0.119744 0.231078
vt 0.119704 0.230910
vt 0.119698 0.230883
vt 0.120668 0.230928
vt 0.120672 0.230901
vt 0.120044 0.230940
vt 0.120313 0.230945
vt 0.120313 0.230908
vt 0.120042 0.230877
vt 0.120061 0.230889
vt 0.120289 0.230866
vt 0.120314 0.230882
vt 0.120288 0.230893
vt 0.120064 0.230862
vt 0.120038 0.230903
vt 0.119821 0.230651
vt 0.119809 0.230584
vt 0.120627 0.230596
vt 0.120619 0.230663
vt 0.120616 0.230646
vt 0.120625 0.230580
vt 0.119814 0.230568
vt 0.119826 0.230634
vn 0.000000 0.000000 1.000000
vn 0.000000 0.000000 1.000000
vn 0.000000 0.000000 1.000000
vn 0.000000 0.000000 1.000000
vn 0.017387 0.000000 0.999849
vn 0.017387 0.000000 0.999849
vn 0.017387 0.000000 0.999849
vn 0.017387 0.000000 0.999849
vn -0.017387 0.000000 0.999849
vn -0.017387 0.000000 0.999849
vn -0.017387 0.000000 0.999849
vn -0.017387 0.000000 0.999849
vn 0.000000 -0.750145 0.661273
vn 0.000000 -0.750145 0.661273
vn 0.000000 -0.750145 0.661273
vn 0.000000 -0.750145 0.661273
vn 1.000000 0.000000 0.000000
vn 1.000000 0.000000 0.000000
vn 1.000000 0.000000 0.000000
vn 0.000000 0.968151 0.250366
vn 0.000000 0.968151 0.250366
vn 0.000000 0.968151 0.250366
vn 0.000000 0.968151 0.250366
vn -1.000000 0.000000 0.000000
vn -1.000000 0.000000 0.000000
vn -1.000000 0.000000 0.000000
vn 0.000000 0.192746 -0.981249
vn 0.000000 0.192746 -0.981249
vn 0.000000 0.192746 -0.981249
vn 0.000000 0.192746 -0.981249
vn -1.000000 0.000000 0.000000
vn -1.000000 0.000000 0.000000
vn -1.000000 0.000000 0.000000
vn -1.000000 0.000000 0.000000
vn 0.000000 -0.197446 0.980314
vn 0.000000 -0.197446 0.980314
vn 0.000000 -0.197446 0.980314
vn 0.000000 -0.197446 0.980314
vn 1.000000 0.000000 0.000000
vn 1.000000 0.000000 0.000000
vn 1.000000 0.000000 0.000000
vn 1.000000 0.000000 0.000000
vn 0.000000 -0.967015 -0.254721
vn 0.000000 -0.967015 -0.254721
vn 0.000000 -0.967015 -0.254721
vn 0.000000 -0.967015 -0.254721
vn 1.000000 0.000000 0.000000
vn 1.000000 0.000000 0.000000
vn 1.000000 0.000000 0.000000
vn 1.000000 0.000000 0.000000
vn -0.000000 0.965404 0.260758
vn -0.000000 0.965404 0.260758
vn -0.000000 0.965404 0.260758
vn -0.000000 0.965404 0.260758
vn -1.000000 0.000001 0.000000
vn -1.000000 0.000001 0.000000
vn -1.000000 0.000001 0.000000
vn -1.000000 0.000001 0.000000
vn 0.000003 0.442739 -0.896650
vn 0.000003 0.442739 -0.896650
vn 0.000003 0.442739 -0.896650
vn 0.000003 0.442739 -0.896650
vn 0.000003 0.981078 -0.193612
vn 0.000003 0.981078 -0.193612
vn 0.000003 0.981078 -0.193612
vn 0.000003 0.981078 -0.193612
vn 1.000000 0.000000 0.000000
vn 1.000000 0.000000 0.000000
vn 1.000000 0.000000 0.000000
vn 1.000000 0.000000 0.000000
vn 1.000000 0.000000 0.000000
vn 1.000000 0.000000 0.000000
vn 1.000000 0.000000 0.000000
vn 1.000000 0.000000 0.000000
vn -1.000000 -0.000001 0.000000
vn -1.000000 -0.000001 0.000000
vn -1.000000 -0.000001 0.000000
vn -1.000000 -0.000001 0.000000
vn -1.000000 -0.000001 0.000000
vn -1.000000 -0.000001 0.000000
vn -1.000000 -0.000001 0.000000
vn -1.000000 -0.000001 0.000000
vn 0.000003 -0.980791 0.195062
vn 0.000003 -0.980791 0.195062
vn 0.000003 -0.980791 0.195062
vn 0.000003 -0.980791 0.195062
vn 0.000004 -0.577218 0.816590
vn 0.000004 -0.577218 0.816590
vn 0.000004 -0.577218 0.816590
vn 0.000004 -0.577218 0.816590
vn 1.000000 0.000000 0.000000
vn 1.000000 0.000000 0.000000
vn 1.000000 0.000000 0.000000
vn 1.000000 0.000000 0.000000
vn -1.000000 0.000000 0.000000
vn -1.000000 0.000000 0.000000
vn -1.000000 0.000000 0.000000
vn -1.000000 0.000000 0.000000
vn -0.000001 0.186046 0.982541
vn -0.000001 0.186046 0.982541
vn -0.000001 0.186046 0.982541
vn -0.000001 0.186046 0.982541
vn -1.000000 0.000000 0.000000
vn -1.000000 0.000000 0.000000
vn -1.000000 0.000000 0.000000
vn -1.000000 0.000000 0.000000
vn -0.000001 -0.187332 -0.982297
vn -0.000001 -0.187332 -0.982297
vn -0.000001 -0.187332 -0.982297
vn -0.000001 -0.187332 -0.982297
vn 1.000000 0.000000 0.000000
vn 1.000000 0.000000 0.000000
vn 1.000000 0.000000 0.000000
vn 1.000000 0.000000 0.000000
vn 1.000000 0.000000 0.000000
vn 1.000000 0.000000 0.000000
vn 1.000000 0.000000 0.000000
vn 1.000000 0.000000 0.000000
vn -1.000000 -0.000001 0.000000
vn -1.000000 -0.000001 0.000000
vn -1.000000 -0.000001 0.000000
vn -1.000000 -0.000001 0.000000
vn 0.000001 -0.235369 0.971906
vn 0.000001 -0.235369 0.971906
vn 0.000001 -0.235369 0.971906
vn 0.000001 -0.235369 0.971906
vn 1.000000 0.000000 0.000000
vn 1.000000 0.000000 0.000000
vn 1.000000 0.000000 0.000000
vn 1.000000 0.000000 0.000000
vn 0.000000 0.265771 -0.964036
vn 0.000000 0.265771 -0.964036
vn 0.000000 0.265771 -0.964036
vn 0.000000 0.265771 -0.964036
vn -1.000000 -0.000001 0.000000
vn -1.000000 -0.000001 0.000000
vn -1.000000 -0.000001 0.000000
vn -1.000000 -0.000001 0.000000
vn 0.000000 -0.909238 -0.416276
vn 0.000000 -0.909238 -0.416276
vn 0.000000 -0.909238 -0.416276
vn 0.000000 -0.909238 -0.416276
vn 0.000000 -0.213020 -0.977048
vn 0.000000 -0.213020 -0.977048
vn 0.000000 -0.213020 -0.977048
vn 0.000000 -0.213020 -0.977048
vn 1.000000 0.000000 0.000000
vn 1.000000 0.000000 0.000000
vn 1.000000 0.000000 0.000000
vn 1.000000 0.000000 0.000000
vn 1.000000 0.000000 0.000000
vn 1.000000 0.000000 0.000000
vn 1.000000 0.000000 0.000000
vn 1.000000 0.000000 0.000000
vn -1.000000 0.000000 0.000000
vn -1.000000 0.000000 0.000000
vn -1.000000 0.000000 0.000000
vn -1.000000 0.000000 0.000000
vn -1.000000 0.000000 0.000000
vn -1.000000 0.000000 0.000000
vn -1.000000 0.000000 0.000000
vn -1.000000 0.000000 0.000000
vn 0.000000 0.313320 0.949648
vn 0.000000 0.313320 0.949648
vn 0.000000 0.313320 0.949648
vn 0.000000 0.313320 0.949648
vn 0.000000 0.905420 0.424518
vn 0.000000 0.905420 0.424518
vn 0.000000 0.905420 0.424518
vn 0.000000 0.905420 0.424518
vn 0.000000 1.000000 0.000004
vn 0.000000 1.000000 0.000004
vn 0.000000 1.000000 0.000004
vn 0.000000 1.000000 0.000004
vn 0.000000 -1.000000 -0.000002
vn 0.000000 -1.000000 -0.000002
vn 0.000000 -1.000000 -0.000002
vn 0.000000 -1.000000 -0.000002
vn -0.923880 0.000000 0.382683
vn -0.923880 0.000000 0.382683
vn -0.923880 0.000000 0.382683
vn -0.923880 0.000000 0.382683
vn -0.382683 0.000000 0.923880
vn -0.382683 0.000000 0.923880
vn -0.382683 0.000000 0.923880
vn -0.382683 0.000000 0.923880
vn 0.382683 0.000000 0.923880
vn 0.382683 0.000000 0.923880
vn 0.382683 0.000000 0.923880
vn 0.382683 0.000000 0.923880
vn 0.923880 0.000000 0.382683
vn 0.923880 0.000000 0.382683
vn 0.923880 0.000000 0.382683
vn 0.923880 0.000000 0.382683
vn 0.394753 0.000002 0.918787
vn 0.394753 0.000002 0.918787
vn 0.394753 0.000002 0.918787
vn 0.394753 0.000002 0.918787
vn 0.925512 0.000001 0.378719
vn 0.925512 0.000001 0.378719
vn 0.925512 0.000001 0.378719
vn 0.925512 0.000001 0.378719
vn -0.925512 0.000001 0.378718
vn -0.925512 0.000001 0.378718
vn -0.925512 0.000001 0.378718
vn -0.925512 0.000001 0.378718
vn -0.394753 0.000001 0.918787
vn -0.394753 0.000001 0.918787
vn -0.394753 0.000001 0.918787
vn -0.394753 0.000001 0.918787
vn 0.000000 -1.000000 0.000000
vn 0.000000 -1.000000 0.000000
vn 0.000000 -1.000000 0.000000
vn 0.000000 -1.000000 0.000000
vn 0.000000 1.000000 -0.000000
vn 0.000000 1.000000 -0.000000
vn 0.000000 1.000000 -0.000000
vn 0.000000 1.000000 -0.000000
vn -0.004501 -0.965907 -0.258850
vn -0.004501 -0.965907 -0.258850
vn -0.004501 -0.965907 -0.258850
vn 0.004535 0.965394 0.260757
vn 0.004535 0.965394 0.260757
vn 0.004535 0.965394 0.260757
vn 0.004501 -0.965907 -0.258850
vn 0.004501 -0.965907 -0.258850
vn 0.004501 -0.965907 -0.258850
vn -0.004535 0.965394 0.260756
vn -0.004535 0.965394 0.260756
vn -0.004535 0.965394 0.260756
vn -0.707107 0.684586 0.177036
vn -0.707107 0.684586 0.177036
vn -0.707107 0.684586 0.177036
vn -0.707107 0.684586 0.177036
vn 0.707107 0.684586 0.177036
vn 0.707107 0.684586 0.177036
vn 0.707107 0.684586 0.177036
vn 0.707107 0.684586 0.177036
vn -0.000000 -0.965916 -0.258855
vn -0.000000 -0.965916 -0.258855
vn -0.000000 -0.965916 -0.258855
vn -0.000000 -0.965916 -0.258855
vn 0.000000 0.966518 0.256598
vn 0.000000 0.966518 0.256598
vn 0.000000 0.966518 0.256598
vn 0.000000 0.966518 0.256598
vn 0.000000 1.000000 0.000000
vn 0.000000 1.000000 0.000000
vn 0.000000 1.000000 0.000000
vn 0.000000 1.000000 0.000000
vn 0.000000 1.000000 0.000000
vn 0.000000 1.000000 0.000000
vn 0.000000 1.000000 0.000000
vn 0.000000 1.000000 0.000000
vn 0.000000 1.000000 0.000000
vn 0.000000 1.000000 0.000000
vn -0.000000 -1.000000 0.000000
vn -0.000000 -1.000000 0.000000
vn -0.000000 -1.000000 0.000000
vn -0.000000 -1.000000 0.000000
vn -0.000000 -1.000000 0.000000
vn -0.000000 -1.000000 0.000000
vn -0.000000 -1.000000 0.000000
vn -0.000000 -1.000000 0.000000
vn -0.000000 -1.000000 0.000000
vn -0.000000 -1.000000 0.000000
vn 0.000000 -0.197445 0.980314
vn 0.000000 -0.197445 0.980314
vn 0.000000 -0.197445 0.980314
vn 0.000000 -0.197445 0.980314
vn 0.000000 0.192747 -0.981248
vn 0.000000 0.192747 -0.981248
vn 0.000000 0.192747 -0.981248
vn 0.000000 0.192747 -0.981248
vn -0.000000 -0.064193 0.997938
vn -0.000000 -0.064193 0.997938
vn -0.000000 -0.064193 0.997938
vn -0.000000 -0.064193 0.997938
vn -0.000000 -0.064192 0.997938
vn -0.000000 -0.064192 0.997938
vn -0.000000 -0.064192 0.997938
vn -0.000000 -0.064192 0.997938
vn 0.000000 -0.064191 0.997938
vn 0.000000 -0.064191 0.997938
vn 0.000000 -0.064191 0.997938
vn 0.000000 -0.064191 0.997938
vn 0.000000 -0.064192 0.997938
vn 0.000000 -0.064192 0.997938
vn 0.000000 -0.064192 0.997938
vn 0.000000 -0.064192 0.997938
vn 0.000000 0.064192 -0.997938
vn 0.000000 0.064192 -0.997938
vn 0.000000 0.064192 -0.997938
vn 0.000000 0.064192 -0.997938
vn 0.000000 0.064191 -0.997938
vn 0.000000 0.064191 -0.997938
vn 0.000000 0.064191 -0.997938
vn 0.000000 0.064191 -0.997938
vn 0.000000 0.064193 -0.997938
vn 0.000000 0.064193 -0.997938
vn 0.000000 0.064193 -0.997938
vn 0.000000 0.064193 -0.997938
vn 0.000000 0.064191 -0.997938
vn 0.000000 0.064191 -0.997938
vn 0.000000 0.064191 -0.997938
vn 0.000000 0.064191 -0.997938
vn -1.000000 0.000000 0.000001
vn -1.000000 0.000000 0.000001
vn -1.000000 0.000000 0.000001
vn -1.000000 0.000000 0.000001
vn -0.000001 -0.990655 -0.136389
vn -0.000001 -0.990655 -0.136389
vn -0.000001 -0.990655 -0.136389
vn -0.000001 -0.990655 -0.136389
vn 1.000000 0.000000 0.000000
vn 1.000000 0.000000 0.000000
vn 1.000000 0.000000 0.000000
vn 1.000000 0.000000 0.000000
vn -0.000002 0.990656 0.136388
vn -0.000002 0.990656 0.136388
vn -0.000002 0.990656 0.136388
vn -0.000002 0.990656 0.136388
s off
f 44/1/1 40/2/2 47/3/3 49/4/4
f 53/5/5 55/6/6 3/7/7 2/8/8
f 62/9/9 58/10/10 1/11/11 4/12/12
f 1/11/13 2/8/14 6/61/15 5/62/16
f 2/8/17 3/7/18 6/61/19
f 69/65/20 68/69/21 63/66/22 65/68/23
f 4/12/24 1/11/25 5/62/26
f 67/64/27 64/67/28 63/66/29 68/69/30
f 4/12/31 5/62/32 66/63/33 64/67/34
f 5/62/35 6/61/36 70/70/37 66/63/38
f 6/61/39 3/7/40 67/64/41 70/70/42
f 57/16/43 51/15/44 53/5/45 58/10/46
f 18/14/47 12/17/48 54/18/49 51/15/50
f 12/17/51 9/19/52 60/20/53 54/18/54
f 9/19/55 15/13/56 57/16/57 60/20/58
f 7/21/59 8/22/60 11/23/61 10/24/62
f 8/22/63 9/19/64 12/17/65 11/23/66
f 10/24/67 11/23/68 17/25/69 16/26/70
f 11/23/71 12/17/72 18/14/73 17/25/74
f 9/19/75 8/22/76 14/27/77 15/13/78
f 8/22/79 7/21/80 13/28/81 14/27/82
f 15/13/83 14/27/84 17/25/85 18/14/86
f 14/27/87 13/28/88 16/26/89 17/25/90
f 19/29/91 20/30/92 25/31/93 26/32/94
f 21/34/95 22/33/96 24/35/97 23/36/98
f 22/33/99 19/29/100 16/26/101 13/28/102
f 24/35/103 22/33/104 13/28/105 7/21/106
f 26/32/107 24/35/108 7/21/109 10/24/110
f 19/29/111 26/32/112 10/24/113 16/26/114
f 48/37/115 45/38/116 30/39/117 36/40/118
f 33/41/119 27/42/120 39/43/121 42/44/122
f 35/45/123 38/46/124 20/30/125 21/34/126
f 38/46/127 32/47/128 25/31/129 20/30/130
f 32/47/131 29/48/132 23/36/133 25/31/134
f 29/48/135 35/45/136 21/34/137 23/36/138
f 27/42/139 28/49/140 31/50/141 30/39/142
f 28/49/143 29/48/144 32/47/145 31/50/146
f 30/39/147 31/50/148 37/51/149 36/40/150
f 31/50/151 32/47/152 38/46/153 37/51/154
f 29/48/155 28/49/156 34/52/157 35/45/158
f 28/49/159 27/42/160 33/41/161 34/52/162
f 35/45/163 34/52/164 37/51/165 38/46/166
f 34/52/167 33/41/168 36/40/169 37/51/170
f 55/6/171 62/9/172 4/12/173 3/7/174
f 58/10/175 53/5/176 2/8/177 1/11/178
f 39/43/179 41/53/180 43/54/181 42/44/182
f 41/53/183 40/2/184 44/1/185 43/54/186
f 47/3/187 46/55/188 50/56/189 49/4/190
f 46/55/191 45/38/192 48/37/193 50/56/194
f 53/5/195 52/57/196 56/58/197 55/6/198
f 52/57/199 51/15/200 54/18/201 56/58/202
f 57/16/203 59/59/204 61/60/205 60/20/206
f 59/59/207 58/10/208 62/9/209 61/60/210
f 40/2/211 39/43/212 45/38/213 47/3/214
f 48/37/215 42/44/216 44/1/217 49/4/218
f 53/5/219 51/15/220 52/57/221
f 55/6/222 56/58/223 54/18/224
f 58/10/225 59/59/226 57/16/227
f 62/9/228 60/20/229 61/60/230
f 63/66/231 64/67/232 66/63/233 65/68/234
f 67/64/235 68/69/236 69/65/237 70/70/238
f 15/13/239 18/14/240 51/15/241 57/16/242
f 54/18/243 60/20/244 62/9/245 55/6/246
f 48/37/247 49/4/248 50/56/249
f 48/37/250 36/40/251 33/41/252 42/44/253
f 44/1/254 42/44/255 43/54/256
f 40/2/257 41/53/258 39/43/259
f 45/38/260 39/43/261 27/42/262 30/39/263
f 47/3/264 45/38/265 46/55/266
f 66/63/267 70/70/268 69/65/269 65/68/270
f 3/7/271 4/12/272 64/67/273 67/64/274
f 20/30/275 19/29/276 71/72/277 72/71/278
f 19/29/279 22/33/280 73/73/281 71/72/282
f 22/33/283 21/34/284 74/74/285 73/73/286
f 21/34/287 20/30/288 72/71/289 74/74/290
f 23/36/291 24/35/292 75/76/293 76/75/294
f 24/35/295 26/32/296 77/77/297 75/76/298
f 26/32/299 25/31/300 78/78/301 77/77/302
f 25/31/303 23/36/304 76/75/305 78/78/306
f 72/71/307 71/72/308 77/77/309 78/78/310
f 71/72/311 73/73/312 75/76/313 77/77/314
f 73/73/315 74/74/316 76/75/317 75/76/318
f 74/74/319 72/71/320 78/78/321 76/75/322
