# This file uses centimeters as units for non-parametric coordinates.

v 30.573490 11.909685 4.251989
v 31.470402 11.909685 4.251989
v 30.573490 12.806787 4.251989
v 31.470402 12.806787 4.251989
v 30.480598 12.899703 3.741003
v 31.563297 12.899703 3.741003
v 30.480598 11.816768 3.741003
v 31.563297 11.816768 3.741003
v 24.790409 11.676364 4.251989
v 27.740055 11.676364 4.251989
v 24.790409 13.040084 4.251989
v 27.740055 13.040084 4.251989
v 24.790409 13.040084 3.741003
v 27.740055 13.040084 3.741003
v 24.790409 11.676364 3.741003
v 27.740055 11.676364 3.741003
v 20.594547 11.676364 4.251989
v 23.544437 11.676364 4.251989
v 20.594547 13.040084 4.251989
v 23.544437 13.040084 4.251989
v 20.594547 13.040084 3.741003
v 23.544437 13.040084 3.741003
v 20.594547 11.676364 3.741003
v 23.544437 11.676364 3.741003
v -35.551388 12.128299 3.741003
v 35.551395 12.128299 3.741003
v -35.551388 55.820038 3.741003
v 35.551395 55.820038 3.741003
v 34.049625 57.180309 3.741003
v 34.049625 10.768038 3.741003
v -34.049377 57.180309 3.741003
v -34.049377 10.768038 3.741003
v 34.049625 10.768038 1.231969
v 35.551395 12.128299 1.231969
v 35.551395 55.820038 1.231969
v 34.049625 57.180309 1.231969
v -34.049377 10.768038 1.231969
v -34.049377 57.180309 1.231969
v -35.551388 12.128299 1.231969
v -35.551388 55.820038 1.231969
v 32.582401 54.858356 3.741003
v 32.582401 14.220314 3.741003
v 33.416878 54.051640 3.741003
v 33.416878 15.027040 3.741003
v -32.581966 54.858356 3.741003
v -32.581966 14.220314 3.741003
v -33.416439 15.027040 3.741003
v -33.416439 54.051640 3.741003
v 32.245491 54.529530 2.743200
v 32.245491 14.549142 2.743200
v 33.071297 53.735512 2.743200
v 33.071297 15.343167 2.743200
v -32.245052 54.529530 2.743200
v -32.245052 14.549142 2.743200
v -33.070858 15.343167 2.743200
v -33.070858 53.735512 2.743200
v -15.606197 23.337860 1.231969
v 15.606266 23.337860 1.231969
v 15.606266 44.610485 1.231969
v -15.606197 44.610485 1.231969
v -15.606197 23.337860 -2.582118
v 15.606266 23.337860 -2.582118
v 15.606266 44.610485 -2.582118
v -15.606197 44.610485 -2.582118
v -19.240353 0.000000 10.730505
v 19.240360 0.000000 10.730505
v -18.408199 1.738071 10.266394
v 18.408207 1.738071 10.266394
v -18.408199 1.738071 -10.266443
v 18.408207 1.738071 -10.266443
v -19.240353 0.000000 -10.730556
v 19.240360 0.000000 -10.730556
v -3.630733 1.738071 -1.566615
v 3.630558 1.738071 -1.566615
v 3.630558 1.738071 -8.472864
v -3.630733 1.738071 -8.472864
v -3.630733 37.835091 -1.566615
v 3.630558 37.835091 -1.566615
v 3.630558 37.835091 -8.472864
v -3.630733 37.835091 -8.472864
v 4.604374 13.360345 3.741003
v 4.811771 11.628007 3.741003
v -4.604122 13.360345 3.741003
v -4.811520 11.628007 3.741003
vt 0.114575 0.179971
vt 0.113645 0.180010
vt 0.113589 0.179158
vt 0.114522 0.179121
vt 0.113606 0.179092
vt 0.114537 0.179055
vt 0.114589 0.179904
vt 0.113662 0.179942
vt 0.081022 0.252566
vt 0.081022 0.252566
vt 0.081022 0.252566
vt 0.081022 0.252566
vt 0.081022 0.252566
vt 0.081022 0.252566
vt 0.081141 0.013493
vt 0.081141 0.013493
vt 0.081141 0.013493
vt 0.081141 0.013493
vt 0.081141 0.013493
vt 0.081141 0.013493
vt 0.081141 0.013493
vt 0.081141 0.013493
vt 0.081141 0.013493
vt 0.081141 0.013493
vt 0.081141 0.013493
vt 0.081141 0.013493
vt 0.081141 0.013493
vt 0.081141 0.013493
vt 0.081141 0.013493
vt 0.081141 0.013493
vt 0.081141 0.013493
vt 0.081141 0.013493
vt 0.081141 0.013493
vt 0.081141 0.013493
vt 0.081141 0.013493
vt 0.081141 0.013493
vt 0.081141 0.013493
vt 0.081141 0.013493
vt 0.081141 0.013493
vt 0.081141 0.013493
vt 0.081141 0.013493
vt 0.081141 0.013493
vt 0.081022 0.252566
vt 0.081022 0.252566
vt 0.081022 0.252566
vt 0.081022 0.252566
vt 0.081022 0.252566
vt 0.081022 0.252566
vt 0.081022 0.252566
vt 0.081022 0.252566
vt 0.081022 0.252566
vt 0.081022 0.252566
vt 0.081022 0.252566
vt 0.081022 0.252566
vt 0.987515 -0.000000
vt 1.000000 0.019860
vt 1.000000 0.980140
vt 0.987515 1.000000
vt 0.012485 -0.000000
vt 0.012485 1.000000
vt -0.000000 0.019860
vt -0.000000 0.980140
vt 0.081022 0.252566
vt 0.081022 0.252566
vt 0.081022 0.252566
vt 0.081022 0.252566
vt 0.081022 0.252566
vt 0.081022 0.252566
vt 0.081022 0.252566
vt 0.081022 0.252566
vt 0.081022 0.252566
vt 0.081022 0.252566
vt 0.081022 0.252566
vt 0.081022 0.252566
vt 0.081022 0.252566
vt 0.081022 0.252566
vt 0.081022 0.252566
vt 0.081022 0.252566
vt 0.081022 0.252566
vt 0.081022 0.252566
vt 0.081022 0.252566
vt 0.081022 0.252566
vt 0.081022 0.252566
vt 0.081022 0.252566
vt 0.081022 0.252566
vt 0.081022 0.252566
vt 0.081022 0.252566
vt 0.081022 0.252566
vt 0.081022 0.252566
vt 0.081022 0.252566
vt 0.081022 0.252566
vt 0.081022 0.252566
vt 0.081022 0.252566
vt 0.081022 0.252566
vt 0.081022 0.252566
vt 0.081022 0.252566
vt 0.081022 0.252566
vt 0.081022 0.252566
vt 0.081022 0.252566
vt 0.081022 0.252566
vt 0.081022 0.252566
vt 0.081022 0.252566
vt 0.081022 0.252566
vt 0.081022 0.252566
vt 0.081022 0.252566
vt 0.081022 0.252566
vt 0.081022 0.252566
vt 0.081022 0.252566
vt 0.081022 0.252566
vt 0.081022 0.252566
vt 0.081022 0.252566
vt 0.081022 0.252566
vt 0.081022 0.252566
vt 0.081022 0.252566
vt 0.081022 0.252566
vt 0.081022 0.252566
vt 0.081022 0.252566
vt 0.081022 0.252566
vt 0.100503 0.304604
vt 0.100525 0.304398
vt 0.101484 0.304304
vt 0.101503 0.304499
vn 0.000000 0.000000 1.000000
vn 0.000000 0.000000 1.000000
vn 0.000000 0.000000 1.000000
vn 0.000000 0.000000 1.000000
vn 0.000000 0.983867 0.178904
vn 0.000000 0.983867 0.178904
vn 0.000000 0.983867 0.178904
vn 0.000000 0.983867 0.178904
vn 0.000000 -0.983866 0.178906
vn 0.000000 -0.983866 0.178906
vn 0.000000 -0.983866 0.178906
vn 0.000000 -0.983866 0.178906
vn 0.983874 0.000000 0.178865
vn 0.983874 0.000000 0.178865
vn 0.983874 0.000000 0.178865
vn 0.983874 0.000000 0.178865
vn -0.983875 0.000000 0.178858
vn -0.983875 0.000000 0.178858
vn -0.983875 0.000000 0.178858
vn -0.983875 0.000000 0.178858
vn 0.000000 0.000000 1.000000
vn 0.000000 0.000000 1.000000
vn 0.000000 0.000000 1.000000
vn 0.000000 0.000000 1.000000
vn 0.000000 1.000000 0.000000
vn 0.000000 1.000000 0.000000
vn 0.000000 1.000000 0.000000
vn 0.000000 1.000000 0.000000
vn 0.000000 -1.000000 0.000000
vn 0.000000 -1.000000 0.000000
vn 0.000000 -1.000000 0.000000
vn 0.000000 -1.000000 0.000000
vn 1.000000 0.000000 0.000000
vn 1.000000 0.000000 0.000000
vn 1.000000 0.000000 0.000000
vn 1.000000 0.000000 0.000000
vn -1.000000 0.000000 0.000000
vn -1.000000 0.000000 0.000000
vn -1.000000 0.000000 0.000000
vn -1.000000 0.000000 0.000000
vn 0.000000 0.000000 1.000000
vn 0.000000 0.000000 1.000000
vn 0.000000 0.000000 1.000000
vn 0.000000 0.000000 1.000000
vn 0.000000 1.000000 0.000000
vn 0.000000 1.000000 0.000000
vn 0.000000 1.000000 0.000000
vn 0.000000 1.000000 0.000000
vn 0.000000 -1.000000 0.000000
vn 0.000000 -1.000000 0.000000
vn 0.000000 -1.000000 0.000000
vn 0.000000 -1.000000 0.000000
vn 1.000000 0.000000 0.000000
vn 1.000000 0.000000 0.000000
vn 1.000000 0.000000 0.000000
vn 1.000000 0.000000 0.000000
vn -1.000000 0.000000 0.000000
vn -1.000000 0.000000 0.000000
vn -1.000000 0.000000 0.000000
vn -1.000000 0.000000 0.000000
vn -0.000000 0.000000 -1.000000
vn -0.000000 0.000000 -1.000000
vn -0.000000 0.000000 -1.000000
vn -0.000000 0.000000 -1.000000
vn 0.000000 0.000000 -1.000000
vn 0.000000 0.000000 -1.000000
vn 0.000000 0.000000 -1.000000
vn 0.000000 0.000000 -1.000000
vn 0.000000 0.000000 -1.000000
vn 0.000000 0.000000 -1.000000
vn 0.000000 0.000000 -1.000000
vn 0.000000 0.000000 -1.000000
vn 0.000000 0.000000 1.000000
vn 0.000000 0.000000 1.000000
vn 0.000000 0.000000 1.000000
vn 0.000000 0.000000 1.000000
vn 0.000000 0.000000 1.000000
vn 0.000000 0.000000 1.000000
vn 0.000000 0.000000 1.000000
vn 0.000000 0.000000 1.000000
vn 0.000000 0.000000 1.000000
vn 0.000000 0.000000 1.000000
vn 0.000000 0.000000 1.000000
vn 0.000000 0.000000 1.000000
vn 0.671325 -0.741163 0.000000
vn 0.671325 -0.741163 0.000000
vn 0.671325 -0.741163 0.000000
vn 0.671325 -0.741163 0.000000
vn 1.000000 0.000000 0.000000
vn 1.000000 0.000000 0.000000
vn 1.000000 0.000000 0.000000
vn 1.000000 0.000000 0.000000
vn 0.671328 0.741161 0.000000
vn 0.671328 0.741161 0.000000
vn 0.671328 0.741161 0.000000
vn 0.671328 0.741161 0.000000
vn 0.000000 -1.000000 0.000000
vn 0.000000 -1.000000 0.000000
vn 0.000000 -1.000000 0.000000
vn 0.000000 -1.000000 0.000000
vn 0.000000 1.000000 0.000000
vn 0.000000 1.000000 0.000000
vn 0.000000 1.000000 0.000000
vn 0.000000 1.000000 0.000000
vn -0.671265 -0.741217 0.000000
vn -0.671265 -0.741217 0.000000
vn -0.671265 -0.741217 0.000000
vn -0.671265 -0.741217 0.000000
vn -0.671268 0.741215 0.000000
vn -0.671268 0.741215 0.000000
vn -0.671268 0.741215 0.000000
vn -0.671268 0.741215 0.000000
vn -1.000000 0.000000 0.000000
vn -1.000000 0.000000 0.000000
vn -1.000000 0.000000 0.000000
vn -1.000000 0.000000 0.000000
vn 0.000000 0.000000 1.000000
vn 0.000000 0.000000 1.000000
vn 0.000000 0.000000 1.000000
vn 0.000000 0.000000 1.000000
vn 0.000000 0.000000 1.000000
vn 0.000000 0.000000 1.000000
vn 0.000000 0.000000 1.000000
vn 0.000000 0.000000 1.000000
vn 0.000000 0.000000 1.000000
vn 0.000000 0.000000 1.000000
vn 0.000000 0.000000 1.000000
vn 0.000000 0.000000 1.000000
vn 0.000000 0.000000 1.000000
vn 0.000000 0.000000 1.000000
vn 0.000000 0.000000 1.000000
vn 0.000000 0.000000 1.000000
vn 0.000000 0.000000 1.000000
vn 0.000000 0.000000 1.000000
vn 0.000000 0.000000 1.000000
vn 0.000000 0.000000 1.000000
vn -0.000000 0.000000 1.000000
vn -0.000000 0.000000 1.000000
vn -0.000000 0.000000 1.000000
vn -0.000000 0.000000 1.000000
vn -0.000000 0.000000 1.000000
vn -0.000000 0.000000 1.000000
vn -0.000000 0.000000 1.000000
vn -0.000000 0.000000 1.000000
vn -0.000000 0.000000 1.000000
vn -0.000000 0.000000 1.000000
vn -0.000000 0.000000 1.000000
vn -0.000000 0.000000 1.000000
vn -0.628151 -0.651514 0.425389
vn -0.628151 -0.651514 0.425389
vn -0.628151 -0.651514 0.425389
vn -0.628151 -0.651514 0.425389
vn -0.944931 0.000000 0.327269
vn -0.944931 0.000000 0.327269
vn -0.944931 0.000000 0.327269
vn -0.944931 0.000000 0.327269
vn -0.628154 0.651511 0.425389
vn -0.628154 0.651511 0.425389
vn -0.628154 0.651511 0.425389
vn -0.628154 0.651511 0.425389
vn 0.000000 -0.949755 0.312995
vn 0.000000 -0.949755 0.312995
vn 0.000000 -0.949755 0.312995
vn 0.000000 -0.949755 0.312995
vn 0.000000 0.949755 0.312993
vn 0.000000 0.949755 0.312993
vn 0.000000 0.949755 0.312993
vn 0.000000 0.949755 0.312993
vn 0.944931 0.000000 0.327269
vn 0.944931 0.000000 0.327269
vn 0.944931 0.000000 0.327269
vn 0.944931 0.000000 0.327269
vn 0.628150 -0.651516 0.425388
vn 0.628150 -0.651516 0.425388
vn 0.628150 -0.651516 0.425388
vn 0.628150 -0.651516 0.425388
vn 0.628153 0.651513 0.425389
vn 0.628153 0.651513 0.425389
vn 0.628153 0.651513 0.425389
vn 0.628153 0.651513 0.425389
vn 0.000000 0.000000 -1.000000
vn 0.000000 0.000000 -1.000000
vn 0.000000 0.000000 -1.000000
vn 0.000000 0.000000 -1.000000
vn 0.000000 0.000000 -1.000000
vn 0.000000 0.000000 -1.000000
vn 0.000000 0.000000 -1.000000
vn 0.000000 0.000000 -1.000000
vn 0.000000 0.000000 -1.000000
vn 0.000000 0.000000 -1.000000
vn 0.000000 0.000000 -1.000000
vn 0.000000 0.000000 -1.000000
vn 0.000000 0.000000 -1.000000
vn 0.000000 0.000000 -1.000000
vn 0.000000 0.000000 -1.000000
vn 0.000000 0.000000 -1.000000
vn 0.000000 -1.000000 0.000000
vn 0.000000 -1.000000 0.000000
vn 0.000000 -1.000000 0.000000
vn 0.000000 -1.000000 0.000000
vn 1.000000 0.000000 0.000000
vn 1.000000 0.000000 0.000000
vn 1.000000 0.000000 0.000000
vn 1.000000 0.000000 0.000000
vn 0.000000 1.000000 0.000000
vn 0.000000 1.000000 0.000000
vn 0.000000 1.000000 0.000000
vn 0.000000 1.000000 0.000000
vn -1.000000 0.000000 0.000000
vn -1.000000 0.000000 0.000000
vn -1.000000 0.000000 0.000000
vn -1.000000 0.000000 0.000000
vn 0.000000 0.257987 0.966148
vn 0.000000 0.257987 0.966148
vn 0.000000 0.257987 0.966148
vn 0.000000 0.257987 0.966148
vn 0.000000 1.000000 0.000000
vn 0.000000 1.000000 0.000000
vn 0.000000 1.000000 0.000000
vn 0.000000 1.000000 0.000000
vn 0.000000 0.257988 -0.966148
vn 0.000000 0.257988 -0.966148
vn 0.000000 0.257988 -0.966148
vn 0.000000 0.257988 -0.966148
vn 0.000000 -1.000000 0.000000
vn 0.000000 -1.000000 0.000000
vn 0.000000 -1.000000 0.000000
vn 0.000000 -1.000000 0.000000
vn 0.901952 0.431836 0.000000
vn 0.901952 0.431836 0.000000
vn 0.901952 0.431836 0.000000
vn 0.901952 0.431836 0.000000
vn -0.901952 0.431836 0.000000
vn -0.901952 0.431836 0.000000
vn -0.901952 0.431836 0.000000
vn -0.901952 0.431836 0.000000
vn 0.000000 1.000000 0.000000
vn 0.000000 1.000000 0.000000
vn 0.000000 1.000000 0.000000
vn 0.000000 1.000000 0.000000
vn 0.000000 1.000000 0.000000
vn 0.000000 1.000000 0.000000
vn 0.000000 1.000000 0.000000
vn 0.000000 1.000000 0.000000
vn 0.000000 1.000000 -0.000000
vn 0.000000 1.000000 -0.000000
vn 0.000000 1.000000 -0.000000
vn 0.000000 1.000000 -0.000000
vn 0.000000 1.000000 0.000000
vn 0.000000 1.000000 0.000000
vn 0.000000 1.000000 0.000000
vn 0.000000 1.000000 0.000000
vn 0.000000 0.000000 1.000000
vn 0.000000 0.000000 1.000000
vn 0.000000 0.000000 1.000000
vn 0.000000 0.000000 1.000000
vn 1.000000 0.000000 0.000000
vn 1.000000 0.000000 0.000000
vn 1.000000 0.000000 0.000000
vn 1.000000 0.000000 0.000000
vn 0.000000 0.000000 -1.000000
vn 0.000000 0.000000 -1.000000
vn 0.000000 0.000000 -1.000000
vn 0.000000 0.000000 -1.000000
vn -1.000000 0.000000 0.000000
vn -1.000000 0.000000 0.000000
vn -1.000000 0.000000 0.000000
vn -1.000000 0.000000 0.000000
vn 0.000000 0.000000 1.000000
vn 0.000000 0.000000 1.000000
vn 0.000000 0.000000 1.000000
vn 0.000000 0.000000 1.000000
vn 0.000000 0.000000 1.000000
vn 0.000000 0.000000 1.000000
vn 0.000000 0.000000 1.000000
vn 0.000000 0.000000 1.000000
vn -0.000000 0.000000 1.000000
vn -0.000000 0.000000 1.000000
vn -0.000000 0.000000 1.000000
vn -0.000000 0.000000 1.000000
vn 0.000000 0.000000 1.000000
vn 0.000000 0.000000 1.000000
vn 0.000000 0.000000 1.000000
vn 0.000000 0.000000 1.000000
s off
f 1/1/1 2/2/2 4/3/3 3/4/4
f 3/4/5 4/3/6 6/5/7 5/6/8
f 7/7/9 8/8/10 2/2/11 1/1/12
f 2/2/13 8/8/14 6/5/15 4/3/16
f 7/7/17 1/1/18 3/4/19 5/6/20
f 9/15/21 10/16/22 12/17/23 11/18/24
f 11/18/25 12/17/26 14/19/27 13/20/28
f 15/21/29 16/22/30 10/23/31 9/24/32
f 10/16/33 16/25/34 14/26/35 12/17/36
f 15/27/37 9/15/38 11/18/39 13/28/40
f 17/29/41 18/30/42 20/31/43 19/32/44
f 19/32/45 20/31/46 22/33/47 21/34/48
f 23/35/49 24/36/50 18/37/51 17/38/52
f 18/30/53 24/39/54 22/40/55 20/31/56
f 23/41/57 17/29/58 19/32/59 21/42/60
f 33/43/61 36/44/62 35/45/63 34/46/64
f 61/47/65 64/48/66 63/49/67 62/50/68
f 39/51/69 40/52/70 38/53/71 37/54/72
f 50/55/73 52/56/74 51/57/75 49/58/76
f 54/59/77 50/55/78 49/58/79 53/60/80
f 55/61/81 54/59/82 53/60/83 56/62/84
f 30/63/85 33/43/86 34/46/87 26/64/88
f 26/64/89 34/46/90 35/45/91 28/65/92
f 28/65/93 35/45/94 36/44/95 29/66/96
f 32/67/97 37/54/98 33/43/99 30/63/100
f 29/66/101 36/44/102 38/53/103 31/68/104
f 25/69/105 39/51/106 37/54/107 32/67/108
f 31/68/109 38/53/110 40/52/111 27/70/112
f 27/70/113 40/52/114 39/51/115 25/69/116
f 29/71/117 41/72/118 43/73/119 28/74/120
f 28/74/121 43/73/122 44/75/123 26/76/124
f 26/76/125 44/75/126 42/77/127 30/78/128
f 31/79/129 45/80/130 41/72/131 29/71/132
f 82/119/133 81/120/134 83/121/135 84/122/136
f 25/83/137 47/84/138 48/85/139 27/86/140
f 27/86/141 48/85/142 45/80/143 31/79/144
f 32/82/145 46/81/146 47/84/147 25/83/148
f 41/72/149 49/87/150 51/88/151 43/73/152
f 43/73/153 51/88/154 52/89/155 44/75/156
f 44/75/157 52/89/158 50/90/159 42/77/160
f 45/80/161 53/91/162 49/87/163 41/72/164
f 42/77/165 50/90/166 54/92/167 46/81/168
f 47/84/169 55/93/170 56/94/171 48/85/172
f 48/85/173 56/94/174 53/91/175 45/80/176
f 46/81/177 54/92/178 55/93/179 47/84/180
f 37/54/181 57/95/182 58/96/183 33/43/184
f 33/43/185 58/96/186 59/97/187 36/44/188
f 36/44/189 59/97/190 60/98/191 38/53/192
f 38/53/193 60/98/194 57/95/195 37/54/196
f 57/95/197 61/47/198 62/50/199 58/96/200
f 58/96/201 62/50/202 63/49/203 59/97/204
f 59/97/205 63/49/206 64/48/207 60/98/208
f 60/98/209 64/48/210 61/47/211 57/95/212
f 65/99/213 66/100/214 68/101/215 67/102/216
f 77/103/217 78/104/218 79/105/219 80/106/220
f 69/107/221 70/108/222 72/109/223 71/110/224
f 71/110/225 72/109/226 66/111/227 65/112/228
f 66/100/229 72/113/230 70/114/231 68/101/232
f 71/14/233 65/99/234 67/102/235 69/13/236
f 67/102/237 68/101/238 74/12/239 73/11/240
f 68/101/241 70/108/242 75/10/243 74/12/244
f 70/108/245 69/107/246 76/9/247 75/10/248
f 69/107/249 67/102/250 73/11/251 76/9/252
f 73/11/253 74/12/254 78/104/255 77/103/256
f 74/12/257 75/10/258 79/105/259 78/104/260
f 75/10/261 76/9/262 80/106/263 79/105/264
f 76/9/265 73/11/266 77/103/267 80/106/268
f 30/78/269 42/77/270 81/116/271 82/115/272
f 42/77/273 46/81/274 83/117/275 81/116/276
f 46/81/277 32/82/278 84/118/279 83/117/280
f 32/82/281 30/78/282 82/115/283 84/118/284
