# This file uses centimeters as units for non-parametric coordinates.

v -14.174744 35.157604 14.101837
v 7.703125 35.157604 17.326141
v -5.304138 36.824936 8.190826
v 14.163574 36.824936 -2.299316
v -14.174744 35.979671 14.101837
v 7.703125 35.979671 17.326141
v 14.174744 36.003029 -2.278564
v -5.292969 36.003029 8.211639
v 10.741272 36.741848 -8.475189
v -12.133179 36.643562 -4.307281
v 11.268921 35.947369 -7.101105
v -11.642334 35.876091 -2.999420
v 11.411438 35.157604 -7.836487
v -11.471741 35.157604 -4.239105
v 10.865051 35.949726 -8.774353
v -12.013733 35.900581 -4.891693
v -11.853638 17.549557 16.906708
v 10.260498 17.549557 16.906708
v -11.853638 17.549557 -16.441406
v 10.260498 17.549557 -16.441406
v -11.876038 26.324335 16.234100
v 9.632263 26.324335 16.665558
v 10.282898 26.324335 -15.768799
v -11.225403 26.324335 -16.200256
v -11.590027 19.535599 14.965881
v 10.513733 19.535599 15.642273
v -10.570007 19.535599 -18.366638
v 11.533752 19.535599 -17.690247
v -11.590027 20.340916 14.965881
v 10.513733 20.340916 15.642273
v 11.533752 20.340916 -17.690247
v -10.570007 20.340916 -18.366638
v -13.925842 28.571217 15.329224
v 8.001038 28.571217 18.201660
v -9.594177 28.571217 -17.736359
v 12.332642 28.571217 -14.863922
v -13.925842 29.652903 15.329224
v 8.001038 29.652903 18.201660
v 12.332642 29.652903 -14.863922
v -9.594177 29.652903 -17.736359
v -11.853638 35.099113 16.906708
v 10.260498 35.099113 16.906708
v 10.260498 35.099113 -16.441406
v -11.853638 35.099113 -16.441406
v -11.853638 0.000000 16.906708
v 10.260498 0.000000 16.906708
v -11.853638 0.000000 -16.441406
v 10.260498 0.000000 -16.441406
v -10.987061 8.774778 16.814392
v 10.512695 8.774778 16.072510
v 9.393921 8.774778 -16.349091
v -12.105835 8.774778 -15.607208
v -13.393738 5.335466 17.553619
v 8.702820 5.335466 18.434296
v -12.065674 5.335466 -15.768005
v 10.030884 5.335466 -14.887329
v -13.393738 6.513243 17.553619
v 8.702820 6.513243 18.434296
v 10.030884 6.513243 -14.887329
v -12.065674 6.513243 -15.768005
v -9.769958 11.062695 18.119446
v 12.331360 11.062695 15.709198
v -13.404602 11.062695 -15.209351
v 8.696655 11.062695 -17.619598
v -9.769958 12.227303 18.119446
v 12.331360 12.227303 15.709198
v 8.696655 12.227303 -17.619598
v -13.404602 12.227303 -15.209351
vt 0.389836 0.325628
vt 0.415722 0.325628
vt 0.415722 0.357330
vt 0.389836 0.357330
vt 0.389836 0.325628
vt 0.389836 0.357330
vt 0.415722 0.357330
vt 0.415722 0.325628
vt 0.389836 0.325628
vt 0.415722 0.325628
vt 0.415722 0.357330
vt 0.389836 0.357330
vt 0.415722 0.351557
vt 0.415722 0.351557
vt 0.389836 0.344728
vt 0.389836 0.344728
vt 0.415722 0.350089
vt 0.389836 0.343557
vt 0.415722 0.349021
vt 0.415722 0.349021
vt 0.389836 0.341947
vt 0.389836 0.341947
vt 0.415722 0.350289
vt 0.415722 0.350289
vt 0.389836 0.343337
vt 0.389836 0.343337
vt 0.394818 0.362915
vt 0.410586 0.362915
vt 0.410586 0.383863
vt 0.394818 0.383863
vt 0.410586 0.362924
vt 0.410586 0.383863
vt 0.394818 0.362915
vt 0.394818 0.383863
vt 0.382178 0.362158
vt 0.381958 0.361990
vt 0.382654 0.361890
vt 0.382958 0.362020
vt 0.382179 0.362243
vt 0.382956 0.362094
vt 0.382652 0.361955
vt 0.381960 0.362062
vt 0.382178 0.362158
vt 0.381958 0.361990
vt 0.382654 0.361890
vt 0.382958 0.362020
vt 0.382179 0.362243
vt 0.382956 0.362094
vt 0.382652 0.361955
vt 0.381960 0.362062
vt 0.362897 0.325763
vt 0.388783 0.325763
vt 0.388783 0.357465
vt 0.362897 0.357465
vt 0.394818 0.362964
vt 0.410586 0.362964
vt 0.410586 0.384748
vt 0.394818 0.384748
vt 0.410586 0.362964
vt 0.410586 0.383863
vt 0.394818 0.362964
vt 0.394818 0.384748
vt 0.362897 0.358658
vt 0.362897 0.390360
vt 0.388783 0.390360
vt 0.388783 0.358658
vt 0.394818 0.362079
vt 0.410586 0.362079
vt 0.410586 0.383863
vt 0.394818 0.383863
vt 0.410586 0.362079
vt 0.410586 0.383863
vt 0.394818 0.362079
vt 0.394818 0.383863
vt 0.382178 0.362158
vt 0.381958 0.361990
vt 0.382654 0.361890
vt 0.382958 0.362020
vt 0.382179 0.362243
vt 0.382956 0.362094
vt 0.382652 0.361955
vt 0.381960 0.362062
vt 0.382178 0.362158
vt 0.381958 0.361990
vt 0.382654 0.361890
vt 0.382958 0.362020
vt 0.382179 0.362243
vt 0.382956 0.362094
vt 0.382652 0.361955
vt 0.381960 0.362062
vt 0.394818 0.362964
vt 0.410586 0.362964
vt 0.410586 0.383912
vt 0.394818 0.383912
vt 0.410586 0.362964
vt 0.410586 0.384047
vt 0.394818 0.362964
vt 0.394818 0.383912
vn -0.001660 0.999992 -0.003516
vn -0.001660 0.999992 -0.003516
vn -0.001660 0.999992 -0.003516
vn -0.001660 0.999992 -0.003516
vn 0.000000 -1.000000 0.000000
vn 0.000000 -1.000000 0.000000
vn 0.000000 -1.000000 0.000000
vn 0.000000 -1.000000 0.000000
vn -0.145803 0.000000 0.989314
vn -0.145803 0.000000 0.989314
vn -0.145803 0.000000 0.989314
vn -0.145803 0.000000 0.989314
vn 0.989191 0.021269 0.145086
vn 0.989191 0.021269 0.145086
vn 0.989190 0.021269 0.145086
vn 0.989191 0.021269 0.145086
vn 0.474169 0.028694 0.879966
vn 0.474169 0.028694 0.879966
vn 0.474169 0.028694 0.879966
vn 0.474169 0.028694 0.879966
vn -0.867599 0.127716 0.480583
vn -0.867599 0.127716 0.480583
vn -0.867599 0.127716 0.480583
vn -0.867599 0.127716 0.480583
vn 0.004674 -0.999951 0.008690
vn 0.004674 -0.999951 0.008690
vn 0.004674 -0.999951 0.008690
vn 0.004674 -0.999951 0.008690
vn -0.006070 0.999923 -0.010829
vn -0.006070 0.999923 -0.010829
vn -0.006070 0.999923 -0.010829
vn -0.006070 0.999923 -0.010829
vn 0.859149 -0.138666 -0.492579
vn 0.859149 -0.138666 -0.492579
vn 0.859149 -0.138666 -0.492579
vn 0.859149 -0.138666 -0.492579
vn -0.938944 -0.292924 0.180497
vn -0.938945 -0.292924 0.180497
vn -0.938944 -0.292924 0.180497
vn -0.154031 0.474453 -0.866700
vn -0.154031 0.474453 -0.866700
vn -0.154031 0.474452 -0.866700
vn -0.154031 0.474452 -0.866700
vn 0.945231 0.233746 -0.227820
vn 0.945231 0.233746 -0.227820
vn 0.945231 0.233746 -0.227820
vn -0.989230 0.008065 -0.146149
vn -0.989230 0.008065 -0.146149
vn -0.989230 0.008065 -0.146149
vn -0.989230 0.008065 -0.146149
vn 0.904710 0.366114 -0.217853
vn 0.904710 0.366114 -0.217853
vn 0.904710 0.366114 -0.217853
vn -0.105791 -0.750671 -0.652151
vn -0.105791 -0.750671 -0.652151
vn -0.105791 -0.750671 -0.652151
vn -0.105791 -0.750671 -0.652151
vn -0.859630 -0.484402 0.162454
vn -0.859630 -0.484402 0.162454
vn -0.859630 -0.484402 0.162454
vn -0.009877 0.051629 0.998618
vn -0.009877 0.051629 0.998617
vn -0.009877 0.051629 0.998617
vn -0.009877 0.051629 0.998617
vn 0.999364 0.034257 0.009884
vn 0.999364 0.034257 0.009884
vn 0.999364 0.034257 0.009884
vn 0.999364 0.034257 0.009884
vn 0.009877 0.051629 -0.998618
vn 0.009877 0.051629 -0.998617
vn 0.009877 0.051629 -0.998617
vn 0.009877 0.051629 -0.998617
vn -0.999364 0.034256 -0.009884
vn -0.999364 0.034256 -0.009884
vn -0.999364 0.034256 -0.009884
vn -0.999364 0.034256 -0.009884
vn 0.000000 1.000000 -0.000000
vn 0.000000 1.000000 -0.000000
vn 0.000000 1.000000 -0.000000
vn 0.000000 1.000000 -0.000000
vn 0.000000 -1.000000 0.000000
vn 0.000000 -1.000000 0.000000
vn 0.000000 -1.000000 0.000000
vn 0.000000 -1.000000 0.000000
vn -0.030586 0.000000 0.999532
vn -0.030586 0.000000 0.999532
vn -0.030586 0.000000 0.999532
vn -0.030586 0.000000 0.999532
vn 0.999532 0.000000 0.030587
vn 0.999532 0.000000 0.030587
vn 0.999532 0.000000 0.030587
vn 0.999532 0.000000 0.030587
vn 0.030586 0.000000 -0.999532
vn 0.030586 0.000000 -0.999532
vn 0.030586 0.000000 -0.999532
vn 0.030586 0.000000 -0.999532
vn -0.999532 0.000000 -0.030587
vn -0.999532 0.000000 -0.030587
vn -0.999532 0.000000 -0.030587
vn -0.999532 0.000000 -0.030587
vn 0.000000 1.000000 0.000000
vn 0.000000 1.000000 0.000000
vn 0.000000 1.000000 0.000000
vn 0.000000 1.000000 0.000000
vn 0.000000 -1.000000 0.000000
vn 0.000000 -1.000000 0.000000
vn 0.000000 -1.000000 0.000000
vn 0.000000 -1.000000 0.000000
vn -0.129891 0.000000 0.991528
vn -0.129891 0.000000 0.991528
vn -0.129891 0.000000 0.991528
vn -0.129891 0.000000 0.991528
vn 0.991528 0.000000 0.129891
vn 0.991528 0.000000 0.129891
vn 0.991528 0.000000 0.129891
vn 0.991528 0.000000 0.129891
vn 0.129891 0.000000 -0.991528
vn 0.129891 0.000000 -0.991528
vn 0.129891 0.000000 -0.991528
vn 0.129891 0.000000 -0.991528
vn -0.991528 0.000000 -0.129892
vn -0.991528 0.000000 -0.129892
vn -0.991528 0.000000 -0.129892
vn -0.991528 0.000000 -0.129892
vn 0.000000 1.000000 0.000000
vn 0.000000 1.000000 0.000000
vn 0.000000 1.000000 0.000000
vn 0.000000 1.000000 0.000000
vn -0.009877 -0.051629 0.998617
vn -0.009877 -0.051629 0.998618
vn -0.009877 -0.051629 0.998618
vn -0.009877 -0.051629 0.998617
vn 0.999364 -0.034257 0.009884
vn 0.999364 -0.034257 0.009884
vn 0.999364 -0.034257 0.009884
vn 0.999364 -0.034257 0.009884
vn 0.009877 -0.051629 -0.998617
vn 0.009877 -0.051629 -0.998618
vn 0.009877 -0.051629 -0.998618
vn 0.009877 -0.051629 -0.998617
vn -0.999364 -0.034256 -0.009884
vn -0.999364 -0.034256 -0.009884
vn -0.999364 -0.034256 -0.009884
vn -0.999364 -0.034256 -0.009884
vn 0.000000 -1.000000 -0.000000
vn 0.000000 -1.000000 -0.000000
vn 0.000000 -1.000000 -0.000000
vn 0.000000 -1.000000 -0.000000
vn 0.016985 0.051633 0.998522
vn 0.016985 0.051633 0.998522
vn 0.016985 0.051633 0.998522
vn 0.016985 0.051633 0.998522
vn 0.999268 0.034264 -0.016998
vn 0.999268 0.034264 -0.016998
vn 0.999268 0.034264 -0.016998
vn 0.999268 0.034264 -0.016998
vn -0.016985 0.051633 -0.998522
vn -0.016985 0.051633 -0.998522
vn -0.016985 0.051633 -0.998522
vn -0.016985 0.051633 -0.998522
vn -0.999268 0.034264 0.016998
vn -0.999268 0.034264 0.016998
vn -0.999268 0.034264 0.016998
vn -0.999268 0.034264 0.016998
vn 0.000000 1.000000 -0.000000
vn 0.000000 1.000000 -0.000000
vn 0.000000 1.000000 -0.000000
vn 0.000000 1.000000 -0.000000
vn 0.000000 -1.000000 0.000000
vn 0.000000 -1.000000 0.000000
vn 0.000000 -1.000000 0.000000
vn 0.000000 -1.000000 0.000000
vn -0.039824 0.000000 0.999207
vn -0.039824 0.000000 0.999207
vn -0.039824 0.000000 0.999207
vn -0.039824 0.000000 0.999207
vn 0.999207 0.000000 0.039824
vn 0.999207 0.000000 0.039824
vn 0.999207 0.000000 0.039824
vn 0.999207 0.000000 0.039824
vn 0.039824 0.000000 -0.999207
vn 0.039824 0.000000 -0.999207
vn 0.039824 0.000000 -0.999207
vn 0.039824 0.000000 -0.999207
vn -0.999207 0.000000 -0.039824
vn -0.999207 0.000000 -0.039824
vn -0.999207 0.000000 -0.039824
vn -0.999207 0.000000 -0.039824
vn 0.000000 1.000000 0.000000
vn 0.000000 1.000000 0.000000
vn 0.000000 1.000000 0.000000
vn 0.000000 1.000000 0.000000
vn 0.000000 -1.000000 0.000000
vn 0.000000 -1.000000 0.000000
vn 0.000000 -1.000000 0.000000
vn 0.000000 -1.000000 0.000000
vn 0.108412 0.000000 0.994106
vn 0.108412 0.000000 0.994106
vn 0.108412 0.000000 0.994106
vn 0.108412 0.000000 0.994106
vn 0.994106 0.000000 -0.108413
vn 0.994106 0.000000 -0.108413
vn 0.994106 0.000000 -0.108413
vn 0.994106 0.000000 -0.108413
vn -0.108412 0.000000 -0.994106
vn -0.108412 0.000000 -0.994106
vn -0.108412 0.000000 -0.994106
vn -0.108412 0.000000 -0.994106
vn -0.994106 0.000000 0.108411
vn -0.994106 0.000000 0.108411
vn -0.994106 0.000000 0.108411
vn -0.994106 0.000000 0.108411
vn 0.016985 -0.051633 0.998522
vn 0.016985 -0.051633 0.998522
vn 0.016985 -0.051633 0.998522
vn 0.016985 -0.051633 0.998522
vn 0.999268 -0.034264 -0.016998
vn 0.999268 -0.034264 -0.016998
vn 0.999268 -0.034264 -0.016998
vn 0.999268 -0.034264 -0.016998
vn -0.016985 -0.051633 -0.998522
vn -0.016985 -0.051633 -0.998522
vn -0.016985 -0.051633 -0.998522
vn -0.016985 -0.051633 -0.998522
vn -0.999268 -0.034264 0.016998
vn -0.999268 -0.034264 0.016998
vn -0.999268 -0.034264 0.016998
vn -0.999268 -0.034264 0.016998
s off
f 5/1/1 6/2/2 11/17/3 12/18/4
f 1/5/5 14/22/6 13/20/7 2/8/8
f 1/9/9 2/10/10 6/2/11 5/1/12
f 2/10/13 13/19/14 11/17/15 6/2/16
f 4/11/17 3/12/18 8/4/19 7/3/20
f 3/12/21 10/15/22 12/18/23 8/4/24
f 12/18/25 11/17/26 7/3/27 8/4/28
f 9/14/29 10/16/30 3/6/31 4/7/32
f 11/17/33 9/13/34 4/11/35 7/3/36
f 16/25/37 12/18/38 10/15/39
f 15/24/40 16/26/41 10/16/42 9/14/43
f 11/17/44 15/23/45 9/13/46
f 12/18/47 14/21/48 1/9/49 5/1/50
f 11/17/51 13/19/52 15/23/53
f 13/20/54 14/22/55 16/26/56 15/24/57
f 12/18/58 16/25/59 14/21/60
f 17/27/61 18/28/62 22/29/63 21/30/64
f 18/28/65 20/31/66 23/32/67 22/29/68
f 20/31/69 19/33/70 24/34/71 23/32/72
f 19/33/73 17/27/74 21/30/75 24/34/76
f 29/35/77 30/36/78 31/37/79 32/38/80
f 25/39/81 27/40/82 28/41/83 26/42/84
f 25/39/85 26/42/86 30/36/87 29/35/88
f 26/42/89 28/41/90 31/37/91 30/36/92
f 28/41/93 27/40/94 32/38/95 31/37/96
f 27/40/97 25/39/98 29/35/99 32/38/100
f 37/43/101 38/44/102 39/45/103 40/46/104
f 33/47/105 35/48/106 36/49/107 34/50/108
f 33/47/109 34/50/110 38/44/111 37/43/112
f 34/50/113 36/49/114 39/45/115 38/44/116
f 36/49/117 35/48/118 40/46/119 39/45/120
f 35/48/121 33/47/122 37/43/123 40/46/124
f 41/51/125 42/52/126 43/53/127 44/54/128
f 21/55/129 22/56/130 42/57/131 41/58/132
f 22/56/133 23/59/134 43/60/135 42/57/136
f 23/59/137 24/61/138 44/62/139 43/60/140
f 24/61/141 21/55/142 41/58/143 44/62/144
f 45/63/145 47/64/146 48/65/147 46/66/148
f 45/67/149 46/68/150 50/69/151 49/70/152
f 46/68/153 48/71/154 51/72/155 50/69/156
f 48/71/157 47/73/158 52/74/159 51/72/160
f 47/73/161 45/67/162 49/70/163 52/74/164
f 57/75/165 58/76/166 59/77/167 60/78/168
f 53/79/169 55/80/170 56/81/171 54/82/172
f 53/79/173 54/82/174 58/76/175 57/75/176
f 54/82/177 56/81/178 59/77/179 58/76/180
f 56/81/181 55/80/182 60/78/183 59/77/184
f 55/80/185 53/79/186 57/75/187 60/78/188
f 65/83/189 66/84/190 67/85/191 68/86/192
f 61/87/193 63/88/194 64/89/195 62/90/196
f 61/87/197 62/90/198 66/84/199 65/83/200
f 62/90/201 64/89/202 67/85/203 66/84/204
f 64/89/205 63/88/206 68/86/207 67/85/208
f 63/88/209 61/87/210 65/83/211 68/86/212
f 49/91/213 50/92/214 18/93/215 17/94/216
f 50/92/217 51/95/218 20/96/219 18/93/220
f 51/95/221 52/97/222 19/98/223 20/96/224
f 52/97/225 49/91/226 17/94/227 19/98/228
