# This file uses centimeters as units for non-parametric coordinates.

v -3.156157 -0.146957 -9.430191
v 3.821917 3.028255 -7.614983
v -6.029902 18.459854 1.206951
v -2.118751 18.459854 1.206951
v -6.029902 18.863583 0.073455
v -2.118751 18.863583 0.073455
v -3.156157 0.256773 -10.563686
v 3.821917 3.431984 -8.748478
v 1.540386 0.256773 -10.563686
v 1.540386 -0.146957 -9.430191
v -12.531721 0.641464 10.563691
v 12.531708 0.641464 10.563691
v -12.531721 25.050095 4.143449
v 12.531708 25.050095 4.143449
v -12.531721 23.814857 -0.552690
v 12.531708 23.814857 -0.552690
v -12.531721 -0.593773 5.867553
v 12.531708 -0.593773 5.867553
v -9.896704 3.008219 9.941163
v 9.896690 3.008219 9.941163
v 9.896690 22.683338 4.765977
v -9.896704 22.683338 4.765977
v -9.752292 2.468405 7.481327
v 9.752274 2.468405 7.481327
v 9.752274 21.942997 2.358906
v -9.752292 21.942997 2.358905
vt 0.026613 0.250671
vt 0.026697 0.250722
vt 0.026802 0.250639
vt 0.026971 0.250081
vt 0.026895 0.250059
vt 0.026948 0.250062
vt 0.026872 0.250040
vt 0.026776 0.250625
vt 0.026670 0.250708
vt 0.026587 0.250657
vt 0.401716 0.209302
vt 0.442714 0.209302
vt 0.442714 0.253335
vt 0.401716 0.253335
vt 0.026747 0.249876
vt 0.027500 0.250044
vt 0.027441 0.250056
vt 0.026692 0.249883
vt 0.027392 0.250876
vt 0.026725 0.250533
vt 0.027445 0.250853
vt 0.026774 0.250519
vt 0.027399 0.250789
vt 0.026803 0.250500
vt 0.027441 0.250082
vt 0.026781 0.249924
vt 0.027381 0.250790
vt 0.026792 0.250503
vt 0.027421 0.250089
vt 0.026769 0.249930
vn -0.000000 -0.496304 0.868149
vn -0.000000 -0.496303 0.868149
vn -0.000000 -0.496304 0.868149
vn -0.000000 -0.496303 0.868149
vn -0.000000 -0.496303 0.868149
vn 0.000000 0.942029 0.335533
vn 0.000000 0.942029 0.335533
vn 0.000000 0.942029 0.335533
vn 0.000000 0.942029 0.335533
vn 0.000000 0.496303 -0.868149
vn 0.000000 0.496304 -0.868149
vn 0.000000 0.496304 -0.868149
vn 0.000000 0.496304 -0.868149
vn 0.000000 0.496304 -0.868149
vn 0.000000 -0.942028 -0.335533
vn 0.433961 -0.848703 -0.302292
vn 0.480643 -0.826080 -0.294234
vn 0.000000 -0.942028 -0.335533
vn 0.946910 0.302861 0.107873
vn 0.946910 0.302861 0.107873
vn 0.946910 0.302861 0.107873
vn 0.946910 0.302861 0.107873
vn -0.990850 -0.127144 -0.045286
vn -0.990850 -0.127144 -0.045286
vn -0.990850 -0.127144 -0.045286
vn -0.990850 -0.127144 -0.045286
vn 0.480643 -0.826080 -0.294234
vn 0.433961 -0.848703 -0.302292
vn 0.844670 -0.504256 -0.179606
vn 0.844670 -0.504256 -0.179606
vn 0.000000 0.254378 0.967105
vn 0.000000 0.254378 0.967105
vn 0.000000 0.254378 0.967105
vn 0.000000 0.254378 0.967105
vn 0.000000 0.967104 -0.254380
vn 0.000000 0.967104 -0.254380
vn 0.000000 0.967104 -0.254380
vn 0.000000 0.967104 -0.254380
vn 0.000000 -0.254379 -0.967105
vn 0.000000 -0.254379 -0.967105
vn 0.000000 -0.254379 -0.967105
vn 0.000000 -0.254379 -0.967105
vn 0.000000 -0.967104 0.254380
vn 0.000000 -0.967104 0.254380
vn 0.000000 -0.967104 0.254380
vn 0.000000 -0.967104 0.254380
vn 1.000000 0.000000 0.000000
vn 1.000000 0.000000 0.000000
vn 1.000000 0.000000 0.000000
vn 1.000000 0.000000 0.000000
vn -1.000000 0.000000 0.000000
vn -1.000000 0.000000 0.000000
vn -1.000000 0.000000 0.000000
vn -1.000000 0.000000 0.000000
vn 0.000000 0.254378 0.967105
vn 0.000000 0.254378 0.967105
vn 0.000000 0.254378 0.967105
vn 0.000000 0.254378 0.967105
vn 0.000000 0.254379 0.967105
vn 0.000000 0.254379 0.967105
vn 0.000000 0.254379 0.967105
vn 0.000000 0.254379 0.967105
vn 0.000000 0.254378 0.967105
vn 0.000000 0.254378 0.967105
vn 0.000000 0.254378 0.967105
vn 0.000000 0.254378 0.967105
vn -0.000000 0.254379 0.967105
vn -0.000000 0.254379 0.967105
vn -0.000000 0.254379 0.967105
vn -0.000000 0.254379 0.967105
vn 0.000000 0.976757 -0.214350
vn 0.000000 0.976757 -0.214350
vn 0.000000 0.976757 -0.214350
vn 0.000000 0.976757 -0.214350
vn -0.998357 0.014576 0.055415
vn -0.998357 0.014576 0.055415
vn -0.998357 0.014576 0.055415
vn -0.998357 0.014576 0.055415
vn -0.000000 -0.955812 0.293978
vn -0.000000 -0.955812 0.293978
vn -0.000000 -0.955812 0.293978
vn -0.000000 -0.955812 0.293978
vn 0.998357 0.014575 0.055413
vn 0.998357 0.014575 0.055413
vn 0.998357 0.014575 0.055413
vn 0.998357 0.014575 0.055413
s off
f 1/1/1 10/2/2 2/3/3 4/4/4 3/5/5
f 3/5/6 4/4/7 6/6/8 5/7/9
f 5/7/10 6/6/11 8/8/12 9/9/13 7/10/14
f 7/10/15 9/9/16 10/2/17 1/1/18
f 2/3/19 8/8/20 6/6/21 4/4/22
f 7/10/23 1/1/24 3/5/25 5/7/26
f 10/2/27 9/9/28 8/8/29 2/3/30
f 23/11/31 24/12/32 25/13/33 26/14/34
f 13/15/35 14/16/36 16/17/37 15/18/38
f 15/18/39 16/17/40 18/19/41 17/20/42
f 17/20/43 18/19/44 12/21/45 11/22/46
f 12/21/47 18/19/48 16/17/49 14/16/50
f 17/20/51 11/22/52 13/15/53 15/18/54
f 11/22/55 12/21/56 20/23/57 19/24/58
f 12/21/59 14/16/60 21/25/61 20/23/62
f 14/16/63 13/15/64 22/26/65 21/25/66
f 13/15/67 11/22/68 19/24/69 22/26/70
f 19/24/71 20/23/72 24/27/73 23/28/74
f 20/23/75 21/25/76 25/29/77 24/27/78
f 21/25/79 22/26/80 26/30/81 25/29/82
f 22/26/83 19/24/84 23/28/85 26/30/86
