# This file uses centimeters as units for non-parametric coordinates.

v -4.591129 0.000000 16.428532
v 4.591129 0.000000 16.428532
v -4.591129 14.089268 16.428532
v 4.591129 14.089263 16.428532
v -4.591129 35.556934 -16.428532
v 4.591129 35.556934 -16.428532
v -4.591129 0.000000 -16.428532
v 4.591129 0.000000 -16.428532
v 4.591129 35.556934 -3.253503
v -4.591129 35.556934 -3.253503
v 3.339108 35.556934 -3.253503
v -3.339195 35.556934 -3.253503
v 3.339108 35.556934 -15.063805
v -3.339195 35.556934 -15.063805
v -3.339195 15.379793 15.354008
v 3.339108 15.379791 15.354008
v -3.339195 0.960236 15.354008
v 3.339108 0.960236 15.354008
v 3.339108 0.960247 -15.063770
v -3.339195 0.960247 -15.063770
v -3.172588 1.505707 16.428532
v 3.172543 1.505707 16.428532
v 3.172543 12.583558 16.428532
v -3.172588 12.583562 16.428532
vt 0.132468 0.183916
vt 0.132320 0.183871
vt 0.132527 0.183453
vt 0.132669 0.183493
vt 0.132742 0.183011
vt 0.132532 0.182955
vt 0.132510 0.183436
vt 0.132705 0.183492
vt 0.132283 0.183893
vt 0.132487 0.183955
vt 0.132492 0.183833
vt 0.132663 0.183170
vt 0.132284 0.183771
vt 0.132449 0.183112
vt 0.132478 0.183120
vt 0.132321 0.183744
vt 0.132473 0.183790
vt 0.132634 0.183162
vt 0.132549 0.182984
vt 0.132703 0.183025
vt 0.132487 0.183955
vt 0.132283 0.183893
vt 0.132284 0.183771
vt 0.132492 0.183833
vt 0.338736 0.325973
vt 0.361977 0.325973
vt 0.361977 0.355148
vt 0.338736 0.355148
vn 0.000000 1.000000 0.000000
vn 0.000000 1.000000 0.000000
vn 0.000000 0.660294 0.751007
vn 0.000000 0.660294 0.751007
vn 0.000000 0.000000 -1.000000
vn 0.000000 0.000000 -1.000000
vn 0.000000 0.000000 -1.000000
vn 0.000000 0.000000 -1.000000
vn 0.000000 -1.000000 0.000000
vn 0.000000 -1.000000 0.000000
vn 0.000000 -1.000000 0.000000
vn 0.000000 -1.000000 0.000000
vn -1.000000 0.000000 0.000000
vn -1.000000 0.000000 0.000000
vn -1.000000 0.000000 0.000000
vn -1.000000 0.000000 0.000000
vn -1.000000 0.000000 0.000000
vn 0.000000 0.000000 1.000000
vn 0.000000 0.000000 1.000000
vn 0.000000 0.000000 1.000000
vn 0.000000 0.000000 1.000000
vn 1.000000 0.000000 0.000000
vn 1.000000 0.000000 0.000000
vn 1.000000 0.000000 0.000000
vn 1.000000 0.000000 0.000000
vn 1.000000 0.000000 0.000000
vn 0.021322 0.663827 0.747582
vn 0.032916 0.676463 0.735741
vn 0.032916 0.676463 0.735741
vn 0.024710 0.667547 0.744157
vn -0.032918 0.676463 0.735741
vn -0.021322 0.663826 0.747584
vn -0.024710 0.667547 0.744157
vn -0.032918 0.676463 0.735741
vn 0.000000 1.000000 0.000000
vn 0.000000 1.000000 0.000000
vn 0.000000 1.000000 0.000000
vn 0.000000 1.000000 0.000000
vn 0.000000 1.000000 -0.000000
vn 0.000000 1.000000 -0.000000
vn 0.000000 1.000000 -0.000000
vn 0.000000 1.000000 -0.000000
vn 0.000000 1.000000 0.000000
vn 0.000000 1.000000 0.000000
vn 0.000000 1.000000 0.000000
vn 0.000000 1.000000 0.000000
vn 0.021322 0.663827 0.747582
vn 0.024710 0.667547 0.744157
vn -0.024710 0.667547 0.744157
vn -0.021322 0.663826 0.747584
vn 0.000000 0.000000 -1.000000
vn 0.000000 0.000000 -1.000000
vn 0.000000 0.000000 -1.000000
vn 0.000000 0.000000 -1.000000
vn -1.000000 0.000000 0.000000
vn -1.000000 0.000000 0.000000
vn -1.000000 0.000000 0.000000
vn -1.000000 0.000000 0.000000
vn 1.000000 0.000000 0.000000
vn 1.000000 0.000000 0.000000
vn 1.000000 0.000000 0.000000
vn 1.000000 0.000000 0.000000
vn -1.000000 0.000000 0.000000
vn -1.000000 0.000000 0.000000
vn -1.000000 0.000000 0.000000
vn 0.000000 0.000001 1.000000
vn 0.000000 0.000001 1.000000
vn 0.000000 0.660294 0.751007
vn 0.000000 0.660294 0.751007
vn 1.000000 -0.000000 0.000000
vn 1.000000 -0.000000 0.000000
vn 1.000000 -0.000000 0.000000
vn 0.000000 0.000000 1.000000
vn 0.000000 0.000000 1.000000
vn 0.000000 0.000000 1.000000
vn 0.000000 0.000000 1.000000
vn 0.000001 0.000000 1.000000
vn 0.000001 0.000000 1.000000
vn 0.000001 0.000000 1.000000
vn 0.000001 0.000000 1.000000
vn 0.000000 0.000000 1.000000
vn 0.000000 0.000000 1.000000
vn 0.000000 0.000000 1.000000
vn 0.000000 0.000000 1.000000
vn 0.000000 0.000000 1.000000
vn 0.000000 0.000000 1.000000
vn 0.000000 0.000000 1.000000
vn 0.000000 0.000000 1.000000
s off
f 17/1/1 18/2/2 19/3/3 20/4/4
f 5/5/5 6/6/6 8/7/7 7/8/8
f 7/8/9 8/7/10 2/9/11 1/10/12
f 7/8/13 1/10/14 3/11/15 10/12/16 5/5/17
f 21/25/18 22/26/19 23/27/20 24/28/21
f 2/9/22 8/7/23 6/6/24 9/14/25 4/13/26
f 4/13/27 9/14/28 11/15/29 16/16/30
f 10/12/31 3/11/32 15/17/33 12/18/34
f 9/14/35 6/6/36 13/19/37 11/15/38
f 6/6/39 5/5/40 14/20/41 13/19/42
f 5/5/43 10/12/44 12/18/45 14/20/46
f 4/13/47 16/16/48 15/17/49 3/11/50
f 15/17/51 16/16/52 18/2/53 17/1/54
f 16/16/55 11/15/56 19/3/57 18/2/58
f 12/18/59 15/17/60 17/1/61 20/4/62
f 11/15/63 13/19/64 19/3/65
f 13/19/66 14/20/67 20/4/68 19/3/69
f 14/20/70 12/18/71 20/4/72
f 1/10/73 2/9/74 22/22/75 21/21/76
f 2/9/77 4/13/78 23/23/79 22/22/80
f 4/13/81 3/11/82 24/24/83 23/23/84
f 3/11/85 1/10/86 21/21/87 24/24/88
