# This file uses centimeters as units for non-parametric coordinates.

v 6.363525 0.828304 1.954407
v -6.363525 0.828304 1.954407
v 3.785645 0.825439 -2.777588
v -3.785706 0.825439 -2.777588
v 3.785645 1.780952 -2.777588
v -3.785706 1.780952 -2.777588
v 6.363525 2.688320 1.954407
v -6.363525 2.688320 1.954407
v 3.785645 0.825439 -1.416870
v -3.785706 0.825439 -1.416870
v -3.785706 1.780952 -1.416870
v 3.785645 1.780952 -1.416870
v 6.363525 0.828308 -0.756714
v -6.363525 0.828308 -0.756714
v -6.363525 2.688320 -0.756714
v 6.363525 2.688320 -0.756714
v 1.019867 0.825439 -2.777588
v -1.019867 0.825439 -2.777588
v 1.019867 1.780952 -2.777588
v -1.019867 1.780952 -2.777588
v 1.019867 1.780952 -3.915955
v 1.019867 0.825439 -3.915955
v -1.019867 0.825439 -3.915955
v -1.019867 1.780952 -3.915955
v 0.526764 1.780952 -4.365906
v 0.526764 0.825439 -4.365906
v -0.526733 0.825439 -4.365906
v -0.526733 1.780952 -4.365906
v -10.684387 4.957237 33.274536
v 12.523956 4.860878 31.367249
v 11.638885 1.929531 0.303223
v -11.638916 1.929531 0.303223
v -11.862305 1.028339 35.173584
v 11.862305 1.028339 35.173584
v 11.862305 1.028339 0.000000
v -11.862305 1.028339 0.000000
v -13.789337 0.000000 38.855164
v 13.789337 0.000000 38.855164
v 13.789337 1.028337 38.855164
v -13.789337 1.028337 38.855164
v 13.789337 0.000000 -2.838928
v 13.789337 1.028336 -2.838928
v -13.789337 0.000000 -2.838928
v -13.789337 1.028336 -2.838928
v -11.638916 1.929531 16.099976
v 11.638885 1.929531 14.533081
v -11.750610 1.947533 35.022034
v 11.750610 1.947533 35.022034
v 12.599304 4.190247 31.659668
v -10.720428 4.287048 33.576111
v -11.722595 2.101196 23.693176
v 11.722595 2.101196 23.693176
vt 0.101625 0.304370
vt 0.102505 0.304285
vt 0.102522 0.304129
vt 0.102256 0.304154
vt 0.101902 0.304187
vt 0.101636 0.304213
vt 0.101976 0.304329
vt 0.101902 0.304187
vt 0.102256 0.304154
vt 0.102337 0.304294
vt 0.101706 0.304355
vt 0.101976 0.304329
vt 0.102337 0.304294
vt 0.102607 0.304268
vt 0.102588 0.304426
vt 0.101694 0.304514
vt 0.101675 0.304778
vt 0.102557 0.304689
vt 0.102475 0.304545
vt 0.101607 0.304632
vt 0.101620 0.304442
vt 0.102496 0.304357
vt 0.102580 0.304498
vt 0.101689 0.304587
vt 0.101902 0.304187
vt 0.101976 0.304329
vt 0.102256 0.304154
vt 0.102337 0.304294
vt 0.389912 0.341597
vt 0.415798 0.341597
vt 0.415798 0.357448
vt 0.389912 0.357448
vt 0.389912 0.325746
vt 0.415798 0.325746
vt 0.415798 0.325746
vt 0.389912 0.325746
vt 0.415798 0.325746
vt 0.415798 0.357448
vt 0.389912 0.357448
vt 0.389912 0.325746
vt 0.389912 0.325746
vt 0.049214 0.328454
vt 0.048612 0.328450
vt 0.048609 0.328456
vt 0.049216 0.328461
vt 0.048594 0.327463
vt 0.048591 0.327462
vt 0.049229 0.327462
vt 0.049231 0.327461
vt 0.048649 0.328305
vt 0.049175 0.328308
vt 0.048636 0.327533
vt 0.049185 0.327532
vt 0.389912 0.325746
vt 0.415798 0.325746
vt 0.415798 0.325746
vn 0.000000 -1.000000 0.000000
vn 0.000000 -1.000000 0.000000
vn 0.000000 -1.000000 0.000000
vn 0.000000 -1.000000 0.000000
vn 0.000000 -1.000000 0.000000
vn 0.000000 -1.000000 0.000000
vn 0.000000 0.000000 -1.000000
vn 0.000000 0.000000 -1.000000
vn 0.000000 0.000000 -1.000000
vn 0.000000 0.000000 -1.000000
vn 0.000000 1.000000 0.000000
vn 0.000000 1.000000 0.000000
vn 0.000000 1.000000 0.000000
vn 0.000000 1.000000 0.000000
vn 0.000000 1.000000 0.000000
vn 0.000000 1.000000 0.000000
vn 0.000000 0.000000 1.000000
vn 0.000000 0.000000 1.000000
vn 0.000000 0.000000 1.000000
vn 0.000000 0.000000 1.000000
vn -1.000000 0.000000 0.000000
vn -1.000000 0.000000 0.000000
vn -1.000000 0.000000 0.000000
vn -1.000000 0.000000 0.000000
vn 1.000000 0.000000 0.000000
vn 1.000000 0.000000 0.000000
vn 1.000000 0.000000 0.000000
vn 1.000000 0.000000 0.000000
vn 0.000000 -0.999991 0.004345
vn 0.000000 -0.999991 0.004345
vn 0.000000 -0.999991 0.004345
vn 0.000000 -0.999991 0.004345
vn -0.248085 0.000000 -0.968738
vn -0.248085 0.000000 -0.968738
vn -0.248085 0.000000 -0.968738
vn -0.248085 0.000000 -0.968738
vn 0.000000 0.588319 -0.808629
vn 0.000000 0.588319 -0.808629
vn 0.000000 0.588319 -0.808629
vn 0.000000 0.588319 -0.808629
vn 0.248080 0.000000 -0.968740
vn 0.248080 0.000000 -0.968740
vn 0.248080 0.000000 -0.968740
vn 0.248080 0.000000 -0.968740
vn 0.000000 -1.000000 -0.000001
vn 0.000000 -1.000000 -0.000001
vn 0.000000 -1.000000 -0.000001
vn 0.000000 -1.000000 -0.000001
vn -1.000000 0.000000 0.000000
vn -1.000000 0.000000 0.000000
vn -1.000000 0.000000 0.000000
vn -1.000000 0.000000 0.000000
vn 0.000000 1.000000 0.000000
vn 0.000000 1.000000 0.000000
vn 0.000000 1.000000 0.000000
vn 0.000000 1.000000 0.000000
vn 1.000000 0.000000 0.000000
vn 1.000000 0.000000 0.000000
vn 1.000000 0.000000 0.000000
vn 1.000000 0.000000 0.000000
vn 0.000000 0.000000 -1.000000
vn 0.000000 0.000000 -1.000000
vn 0.000000 0.000000 -1.000000
vn 0.000000 0.000000 -1.000000
vn 0.000000 0.000000 -1.000000
vn 0.000000 0.000000 -1.000000
vn 0.000000 0.000000 -1.000000
vn 0.000000 0.000000 -1.000000
vn 1.000000 0.000000 0.000000
vn 1.000000 0.000000 0.000000
vn 1.000000 0.000000 0.000000
vn 1.000000 0.000000 0.000000
vn 0.000000 -1.000000 0.000000
vn 0.000000 -1.000000 0.000000
vn 0.000000 -1.000000 0.000000
vn 0.000000 -1.000000 0.000000
vn -1.000000 0.000000 0.000000
vn -1.000000 0.000000 0.000000
vn -1.000000 0.000000 0.000000
vn -1.000000 0.000000 0.000000
vn 0.000000 1.000000 0.000000
vn 0.000000 1.000000 0.000000
vn 0.000000 1.000000 0.000000
vn 0.000000 1.000000 0.000000
vn 0.674046 0.000000 -0.738689
vn 0.674046 0.000000 -0.738689
vn 0.674046 0.000000 -0.738689
vn 0.674046 0.000000 -0.738689
vn 0.000000 -1.000000 -0.000000
vn 0.000000 -1.000000 -0.000000
vn 0.000000 -1.000000 -0.000000
vn 0.000000 -1.000000 -0.000000
vn -0.674023 0.000000 -0.738710
vn -0.674023 0.000000 -0.738710
vn -0.674023 0.000000 -0.738710
vn -0.674023 0.000000 -0.738710
vn 0.000000 1.000000 -0.000000
vn 0.000000 1.000000 -0.000000
vn 0.000000 1.000000 -0.000000
vn 0.000000 1.000000 -0.000000
vn 0.000000 1.000000 0.000000
vn 0.000000 1.000000 0.000000
vn 0.000000 1.000000 0.000000
vn 0.000000 1.000000 0.000000
vn 0.007501 -0.972649 0.232158
vn 0.007501 -0.972649 0.232158
vn 0.007501 -0.972649 0.232158
vn 0.007501 -0.972649 0.232158
vn 0.977809 -0.207696 -0.027417
vn 0.977809 -0.207696 -0.027417
vn 0.977809 -0.207696 -0.027417
vn 0.977809 -0.207696 -0.027417
vn 0.000000 0.318901 -0.947788
vn 0.000000 0.318901 -0.947788
vn 0.000000 0.318901 -0.947788
vn 0.000000 0.318901 -0.947788
vn -0.982086 0.188424 -0.001808
vn -0.982086 0.188424 -0.001808
vn -0.982086 0.188424 -0.001808
vn -0.982086 0.188424 -0.001808
vn -0.982086 0.188424 -0.001808
vn -0.982086 0.188424 -0.001808
vn 0.000000 0.000000 1.000000
vn 0.000000 0.000000 1.000000
vn 0.000000 0.000000 1.000000
vn 0.000000 0.000000 1.000000
vn 1.000000 0.000000 0.000000
vn 1.000000 0.000000 0.000000
vn 1.000000 0.000000 0.000000
vn 1.000000 0.000000 0.000000
vn 0.000000 0.000000 -1.000000
vn 0.000000 0.000000 -1.000000
vn 0.000000 0.000000 -1.000000
vn 0.000000 0.000000 -1.000000
vn -1.000000 0.000000 0.000000
vn -1.000000 0.000000 0.000000
vn -1.000000 0.000000 0.000000
vn -1.000000 0.000000 0.000000
vn 0.000000 1.000000 0.000001
vn 0.000000 1.000000 0.000001
vn 0.000000 1.000000 0.000001
vn 0.000000 1.000000 0.000001
vn 0.000001 1.000000 -0.000000
vn 0.000001 1.000000 -0.000000
vn 0.000001 1.000000 -0.000000
vn 0.000001 1.000000 -0.000000
vn 0.000000 1.000000 -0.000001
vn 0.000000 1.000000 -0.000001
vn 0.000000 1.000000 -0.000001
vn 0.000000 1.000000 -0.000001
vn 0.000000 -1.000000 0.000000
vn 0.000000 -1.000000 0.000000
vn 0.000000 -1.000000 0.000000
vn 0.000000 -1.000000 0.000000
vn -0.000001 1.000000 -0.000000
vn -0.000001 1.000000 -0.000000
vn -0.000001 1.000000 -0.000000
vn -0.000001 1.000000 -0.000000
vn -0.010814 0.985035 -0.172014
vn -0.010814 0.985035 -0.172014
vn -0.010814 0.985035 -0.172014
vn -0.010814 0.985035 -0.172014
vn 0.000000 0.162677 0.986679
vn 0.000000 0.162677 0.986679
vn 0.000000 0.162677 0.986679
vn 0.000000 0.162677 0.986679
vn 0.076534 0.405728 0.910784
vn 0.076534 0.405728 0.910784
vn 0.076534 0.405728 0.910784
vn 0.076534 0.405728 0.910784
vn 0.000000 0.999908 0.013563
vn 0.000000 0.999908 0.013563
vn 0.000000 0.999908 0.013563
vn 0.000000 0.999908 0.013563
vn 0.982578 0.185844 -0.001803
vn 0.982578 0.185844 -0.001803
vn 0.982578 0.185844 -0.001803
vn 0.982578 0.185844 -0.001803
vn 0.982578 0.185844 -0.001803
vn 0.982578 0.185844 -0.001803
vn -0.946192 0.323550 0.006082
vn -0.946192 0.323549 0.006082
vn -0.946192 0.323549 0.006082
vn -0.946192 0.323549 0.006082
s off
f 9/1/1 10/2/2 4/3/3 18/4/4 17/5/5 3/6/6
f 25/7/7 26/8/8 27/9/9 28/10/10
f 5/11/11 19/12/12 20/13/13 6/14/14 11/15/15 12/16/16
f 7/17/17 8/18/18 2/19/19 1/20/20
f 10/2/21 11/15/22 6/14/23 4/3/24
f 12/16/25 9/1/26 3/6/27 5/11/28
f 13/21/29 14/22/30 10/2/31 9/1/32
f 14/22/33 15/23/34 11/15/35 10/2/36
f 12/16/37 11/15/38 15/23/39 16/24/40
f 16/24/41 13/21/42 9/1/43 12/16/44
f 1/20/45 2/19/46 14/22/47 13/21/48
f 2/19/49 8/18/50 15/23/51 14/22/52
f 16/24/53 15/23/54 8/18/55 7/17/56
f 7/17/57 1/20/58 13/21/59 16/24/60
f 20/13/61 18/4/62 4/3/63 6/14/64
f 3/6/65 17/5/66 19/12/67 5/11/68
f 19/12/69 17/5/70 22/25/71 21/26/72
f 17/5/73 18/4/74 23/27/75 22/25/76
f 18/4/77 20/13/78 24/28/79 23/27/80
f 20/13/81 19/12/82 21/26/83 24/28/84
f 21/26/85 22/25/86 26/8/87 25/7/88
f 22/25/89 23/27/90 27/9/91 26/8/92
f 23/27/93 24/28/94 28/10/95 27/9/96
f 24/28/97 21/26/98 25/7/99 28/10/100
f 45/29/101 46/30/102 31/31/103 32/32/104
f 51/33/105 52/34/106 49/35/107 50/36/108
f 46/30/109 30/37/110 49/35/111 52/34/112
f 35/38/113 36/39/114 32/32/115 31/31/116
f 47/40/117 51/33/118 45/29/119 32/32/120 36/39/121 33/41/122
f 37/42/123 38/43/124 39/44/125 40/45/126
f 38/43/127 41/46/128 42/47/129 39/44/130
f 41/46/131 43/48/132 44/49/133 42/47/134
f 43/48/135 37/42/136 40/45/137 44/49/138
f 34/50/139 33/51/140 40/45/141 39/44/142
f 35/52/143 34/50/144 39/44/145 42/47/146
f 36/53/147 35/52/148 42/47/149 44/49/150
f 41/46/151 38/43/152 37/42/153 43/48/154
f 33/51/155 36/53/156 44/49/157 40/45/158
f 29/54/159 30/37/160 46/30/161 45/29/162
f 33/41/163 34/55/164 48/56/165 47/40/166
f 50/36/167 49/35/168 30/37/169 29/54/170
f 47/40/171 48/56/172 52/34/173 51/33/174
f 46/30/175 52/34/176 48/56/177 34/55/178 35/38/179 31/31/180
f 45/29/181 51/33/182 50/36/183 29/54/184
