# This file uses centimeters as units for non-parametric coordinates.

v -21.598129 10.787865 4.477291
v -20.417175 11.968803 4.477291
v -21.598129 10.787865 -0.916748
v -20.417175 11.968803 -0.916748
v 20.417175 11.968803 4.477291
v 21.598129 10.787865 4.477291
v 21.598129 10.787865 -0.916748
v 20.417175 11.968803 -0.916748
v -20.417175 -9.241463 4.477291
v -21.598129 -8.060517 4.477291
v -21.598129 -8.060517 -0.916748
v -20.417175 -9.241463 -0.916748
v 21.598129 -8.060517 4.477291
v 20.417175 -9.241463 4.477291
v 20.417175 -9.241463 -0.916748
v 21.598129 -8.060517 -0.916748
v -19.441681 -7.783041 4.477291
v 19.441681 -7.783041 4.477291
v 19.441681 10.510387 4.477291
v -19.441681 10.510387 4.477291
v 20.417175 11.968803 2.561276
v -20.417175 11.968803 2.561276
v -21.598129 10.787865 2.561276
v -21.598129 -8.060517 2.561276
v -20.417175 -9.241463 2.561276
v 20.417175 -9.241463 2.561276
v 21.598129 -8.060517 2.561276
v 21.598129 10.787865 2.561276
vt 0.330381 0.374839
vt 0.330381 0.374839
vt 0.330381 0.374839
vt 0.330381 0.374839
vt 0.330381 0.374839
vt 0.330381 0.374839
vt 0.330381 0.374839
vt 0.330381 0.374839
vt 0.079185 0.302605
vt 0.079185 0.302605
vt 0.079185 0.302605
vt 0.079185 0.302605
vt 0.079185 0.302605
vt 0.079185 0.302605
vt 0.079185 0.302605
vt 0.079185 0.302605
vt 0.079185 0.302605
vt 0.330381 0.374839
vt 0.079185 0.302605
vt 0.330381 0.374839
vt 0.330381 0.374839
vt 0.079185 0.302605
vt 0.330381 0.374839
vt 0.079185 0.302605
vt 0.079185 0.302605
vt 0.330381 0.374839
vt 0.330381 0.374839
vt 0.079185 0.302605
vt 0.330381 0.374839
vt 0.330381 0.374839
vt 0.079185 0.302605
vt 0.330381 0.374839
vt 0.079185 0.302605
vt 0.330381 0.374839
vt 0.330381 0.374839
vt 0.330381 0.374839
vt 0.330381 0.374839
vt 0.330381 0.374839
vt 0.330381 0.374839
vt 0.330381 0.374839
vt 0.330381 0.374839
vt 0.330381 0.374839
vt 0.330381 0.374839
vt 0.330381 0.374839
vt 0.308130 0.362096
vt 0.359588 0.362096
vt 0.359588 0.386159
vt 0.308130 0.386159
vt 0.330381 0.374839
vt 0.330381 0.374839
vt 0.330381 0.374839
vt 0.330381 0.374839
vt 0.330381 0.374839
vt 0.330381 0.374839
vt 0.330381 0.374839
vt 0.330381 0.374839
vn 0.000000 1.000000 0.000000
vn 0.000000 1.000000 0.000000
vn 0.000000 1.000000 0.000000
vn 0.000000 1.000000 0.000000
vn 0.000000 -1.000000 0.000000
vn 0.000000 -1.000000 0.000000
vn 0.000000 -1.000000 0.000000
vn 0.000000 -1.000000 0.000000
vn 1.000000 0.000000 0.000000
vn 1.000000 0.000000 0.000000
vn 1.000000 0.000000 0.000000
vn 1.000000 0.000000 0.000000
vn -1.000000 0.000000 0.000000
vn -1.000000 0.000000 0.000000
vn -1.000000 0.000000 0.000000
vn -1.000000 0.000000 0.000000
vn 0.000000 0.000000 -1.000000
vn 0.000000 0.000000 -1.000000
vn 0.000000 0.000000 -1.000000
vn 0.000000 0.000000 -1.000000
vn 0.000000 0.000000 -1.000000
vn 0.000000 0.000000 -1.000000
vn 0.000000 0.000000 -1.000000
vn 0.000000 0.000000 -1.000000
vn 0.000000 0.000000 1.000000
vn 0.000000 0.000000 1.000000
vn 0.000000 0.000000 1.000000
vn 0.000000 0.000000 1.000000
vn -0.707102 0.707111 0.000000
vn -0.707102 0.707111 0.000000
vn -0.707102 0.707111 0.000000
vn -0.707102 0.707111 0.000000
vn 0.707102 0.707111 0.000000
vn 0.707102 0.707111 0.000000
vn 0.707102 0.707111 0.000000
vn 0.707102 0.707111 0.000000
vn -0.707104 -0.707109 0.000000
vn -0.707104 -0.707109 0.000000
vn -0.707104 -0.707109 0.000000
vn -0.707104 -0.707109 0.000000
vn 0.707104 -0.707109 0.000000
vn 0.707104 -0.707109 0.000000
vn 0.707104 -0.707109 0.000000
vn 0.707104 -0.707109 0.000000
vn -0.000000 0.000000 1.000000
vn -0.000000 0.000000 1.000000
vn -0.000000 0.000000 1.000000
vn 0.000000 0.000000 1.000000
vn 0.000000 0.000000 1.000000
vn 0.000000 0.000000 1.000000
vn 0.000000 0.000000 1.000000
vn 0.000000 0.000000 1.000000
vn 0.000000 0.000000 1.000000
vn 0.000000 0.000000 1.000000
vn 0.000000 0.000000 1.000000
vn 0.000000 0.000000 1.000000
vn 0.000000 0.000000 1.000000
vn 0.000000 0.000000 1.000000
vn -0.000000 0.000000 1.000000
vn -0.000000 0.000000 1.000000
vn -0.000000 0.000000 1.000000
vn 0.000000 0.000000 1.000000
vn 0.000000 0.000000 1.000000
vn 0.000000 0.000000 1.000000
vn 0.000000 0.000000 1.000000
vn 0.000000 0.000000 1.000000
vn 0.000000 0.000000 1.000000
vn 0.000000 0.000000 1.000000
vn -0.000000 0.000000 1.000000
vn -0.000000 0.000000 1.000000
vn -0.000000 0.000000 1.000000
vn -0.000000 0.000000 1.000000
vn 0.000000 1.000000 0.000000
vn 0.000000 1.000000 0.000000
vn 0.000000 1.000000 0.000000
vn 0.000000 1.000000 0.000000
vn -0.707102 0.707111 0.000000
vn -0.707102 0.707111 0.000000
vn -0.707102 0.707111 0.000000
vn -0.707102 0.707111 0.000000
vn -1.000000 0.000000 0.000000
vn -1.000000 0.000000 0.000000
vn -1.000000 0.000000 0.000000
vn -1.000000 0.000000 0.000000
vn -0.707104 -0.707109 0.000000
vn -0.707104 -0.707109 0.000000
vn -0.707104 -0.707109 0.000000
vn -0.707104 -0.707109 0.000000
vn 0.000000 -1.000000 0.000000
vn 0.000000 -1.000000 0.000000
vn 0.000000 -1.000000 0.000000
vn 0.000000 -1.000000 0.000000
vn 0.707104 -0.707109 0.000000
vn 0.707104 -0.707109 0.000000
vn 0.707104 -0.707109 0.000000
vn 0.707104 -0.707109 0.000000
vn 1.000000 0.000000 0.000000
vn 1.000000 0.000000 0.000000
vn 1.000000 0.000000 0.000000
vn 1.000000 0.000000 0.000000
vn 0.707102 0.707111 0.000000
vn 0.707102 0.707111 0.000000
vn 0.707102 0.707111 0.000000
vn 0.707102 0.707111 0.000000
s off
f 22/50/1 2/30/2 5/18/3 21/49/4
f 9/27/5 25/55/6 26/56/7 14/39/8
f 13/23/9 27/40/10 28/36/11 6/26/12
f 24/53/13 10/20/14 1/21/15 23/51/16
f 3/9/17 4/10/18 8/11/19 7/12/20 16/13/21 15/14/22 12/15/23 11/16/24
f 17/45/25 18/46/26 19/47/27 20/48/28
f 1/29/29 2/30/30 22/50/31 23/52/32
f 5/18/33 6/32/34 28/34/35 21/49/36
f 9/27/37 10/35/38 24/54/39 25/55/40
f 13/38/41 14/39/42 26/56/43 27/37/44
f 10/1/45 9/2/46 17/41/47
f 9/2/48 14/3/49 18/42/50 17/41/51
f 14/3/52 13/4/53 18/42/54
f 13/4/55 6/5/56 19/43/57 18/42/58
f 6/5/59 5/6/60 19/43/61
f 5/6/62 2/7/63 20/44/64 19/43/65
f 2/7/66 1/8/67 20/44/68
f 1/8/69 10/1/70 17/41/71 20/44/72
f 4/10/73 22/17/74 21/19/75 8/11/76
f 23/22/77 22/17/78 4/10/79 3/9/80
f 11/16/81 24/24/82 23/22/83 3/9/84
f 25/25/85 24/24/86 11/16/87 12/15/88
f 26/28/89 25/25/90 12/15/91 15/14/92
f 27/31/93 26/28/94 15/14/95 16/13/96
f 28/33/97 27/31/98 16/13/99 7/12/100
f 21/19/101 28/33/102 7/12/103 8/11/104
