# This file uses centimeters as units for non-parametric coordinates.

v -0.194567 22.505270 0.736141
v 0.728989 22.492210 0.237489
v -0.739082 34.876961 -0.596091
v 0.184473 34.863903 -1.094865
v -1.235901 34.756382 -1.512891
v -0.312344 34.743305 -2.011663
v -0.691355 22.384676 -0.180658
v 0.232202 22.371616 -0.679309
v 3.379959 0.000000 -3.380127
v -0.000015 0.000000 -4.780029
v -3.379959 0.000000 -3.380127
v -4.779953 0.000000 0.000061
v -3.379959 0.000000 3.379883
v -0.000015 0.000000 4.780029
v 3.379959 0.000000 3.379883
v 4.780121 0.000000 0.000061
v 5.495834 24.108345 -5.495789
v -0.000015 24.108345 -7.772399
v -5.495834 24.108345 -5.495789
v -7.772141 24.108345 0.000061
v -5.495834 24.108345 5.495667
v -0.000015 24.108345 7.772217
v 5.495834 24.108345 5.495667
v 7.772141 24.108345 0.000061
v -0.000015 0.000000 0.000061
v 5.029755 25.181011 -5.029785
v -0.000015 25.181011 -7.113098
v -5.029755 25.181011 -5.029785
v -7.112961 25.181011 0.000061
v -5.029755 25.181011 5.029541
v -0.000015 25.181011 7.113037
v 5.029755 25.181011 5.029541
v 7.112976 25.181011 0.000061
v 5.073288 23.411980 -5.073242
v -0.000015 23.411980 -7.174805
v -5.073364 23.411980 -5.073242
v -7.174744 23.411980 0.000061
v -5.073364 23.411980 5.073303
v -0.000015 23.411980 7.174805
v 5.073288 23.411980 5.073303
v 7.174942 23.411980 0.000061
v 3.485229 2.379642 -3.485352
v -0.000015 2.379642 -4.928894
v -3.485291 2.379642 -3.485352
v -4.928818 2.379642 0.000061
v -3.485291 2.379642 3.485168
v -0.000015 2.379642 4.928894
v 3.485229 2.379642 3.485168
v 4.928955 2.379642 0.000061
v 4.178238 25.181011 -4.178284
v -0.000015 25.181011 -5.909119
v -4.178284 25.181011 -4.178284
v -5.909012 25.181011 0.000061
v -4.178284 25.181011 4.178223
v -0.000015 25.181011 5.909058
v 4.178238 25.181011 4.178223
v 5.909012 25.181011 0.000061
v 2.588211 25.181011 -2.588318
v -0.000015 25.181011 -3.660400
v -0.000015 25.181011 -0.000061
v -2.588226 25.181011 -2.588318
v -3.660416 25.181011 0.000061
v -2.588226 25.181011 2.588257
v -0.000015 25.181011 3.660401
v 2.588211 25.181011 2.588257
v 3.660385 25.181011 0.000061
v 3.253983 24.469242 -3.253967
v -0.000015 24.469242 -4.601990
v -3.253998 24.469242 -3.253967
v -4.601837 24.469242 0.000061
v -3.253998 24.469242 3.253967
v -0.000015 24.469242 4.602051
v 3.253983 24.469242 3.253967
v 4.601807 24.469242 0.000061
v 4.799210 21.731462 -4.799255
v 6.787262 21.731462 0.000061
v 4.799210 21.731462 4.799316
v -0.000015 21.731462 6.787170
v -4.799271 21.731462 4.799316
v -6.787018 21.731462 0.000061
v -4.799271 21.731462 -4.799255
v -0.000015 21.731462 -6.787170
vt 0.101741 0.378417
vt 0.101659 0.378411
vt 0.101701 0.377421
vt 0.101785 0.377426
vt 0.101713 0.377417
vt 0.101796 0.377421
vt 0.101671 0.378401
vt 0.101753 0.378406
vt 0.131664 0.376578
vt 0.131963 0.376513
vt 0.131961 0.376461
vt 0.131637 0.376530
vt 0.132269 0.376559
vt 0.132292 0.376510
vt 0.132437 0.376702
vt 0.132476 0.376662
vt 0.132344 0.376877
vt 0.132378 0.376850
vt 0.132002 0.376968
vt 0.132004 0.376949
vt 0.131643 0.376901
vt 0.131610 0.376876
vt 0.131518 0.376732
vt 0.131476 0.376694
vt 0.403227 0.492158
vt 0.403102 0.492167
vt 0.403269 0.492178
vt 0.403374 0.492161
vt 0.403466 0.492174
vt 0.403446 0.492190
vt 0.403316 0.492199
vt 0.403154 0.492196
vt 0.403067 0.492182
vt 0.131794 0.376496
vt 0.131968 0.376459
vt 0.131979 0.376572
vt 0.132148 0.376486
vt 0.132238 0.376564
vt 0.132178 0.376654
vt 0.131990 0.376699
vt 0.131794 0.376666
vt 0.131717 0.376580
vt 0.131961 0.376380
vt 0.131659 0.376441
vt 0.132269 0.376424
vt 0.132439 0.376558
vt 0.132346 0.376723
vt 0.132001 0.376809
vt 0.131638 0.376746
vt 0.131512 0.376586
vt 0.172001 0.472154
vt 0.172183 0.472155
vt 0.172215 0.471246
vt 0.171972 0.471246
vt 0.172308 0.472181
vt 0.172383 0.471262
vt 0.172302 0.472219
vt 0.172376 0.471284
vt 0.172160 0.472246
vt 0.172187 0.471301
vt 0.171968 0.472245
vt 0.171925 0.471300
vt 0.171844 0.472217
vt 0.171760 0.471283
vt 0.171861 0.472179
vt 0.171784 0.471261
vt 0.403226 0.492042
vt 0.403097 0.492047
vt 0.403377 0.492044
vt 0.403472 0.492052
vt 0.403452 0.492064
vt 0.403317 0.492070
vt 0.403150 0.492068
vt 0.403061 0.492058
vt 0.131964 0.376410
vt 0.131710 0.376462
vt 0.132223 0.376447
vt 0.132361 0.376560
vt 0.132280 0.376696
vt 0.131996 0.376765
vt 0.131700 0.376714
vt 0.131591 0.376584
vt 0.131750 0.376517
vt 0.131966 0.376471
vt 0.132188 0.376504
vt 0.132303 0.376603
vt 0.132232 0.376719
vt 0.131994 0.376778
vt 0.131746 0.376735
vt 0.131652 0.376623
vt 0.402984 0.491308
vt 0.403036 0.491334
vt 0.403030 0.491268
vt 0.402976 0.491236
vt 0.403104 0.491283
vt 0.403099 0.491207
vt 0.403336 0.491277
vt 0.403338 0.491199
vt 0.403522 0.491294
vt 0.403529 0.491220
vt 0.403545 0.491322
vt 0.403552 0.491253
vt 0.403414 0.491343
vt 0.403418 0.491278
vt 0.403211 0.491348
vt 0.403209 0.491284
vn 0.473255 0.114885 0.873402
vn 0.473255 0.114885 0.873402
vn 0.473255 0.114885 0.873402
vn 0.473255 0.114885 0.873402
vn -0.043712 0.993302 -0.106962
vn -0.043712 0.993302 -0.106962
vn -0.043712 0.993302 -0.106962
vn -0.043712 0.993302 -0.106962
vn -0.473255 -0.114886 -0.873402
vn -0.473255 -0.114886 -0.873402
vn -0.473255 -0.114886 -0.873402
vn -0.473255 -0.114886 -0.873402
vn 0.879827 -0.012444 -0.475131
vn 0.879827 -0.012444 -0.475131
vn 0.879827 -0.012444 -0.475132
vn 0.879827 -0.012444 -0.475131
vn -0.879827 0.012439 0.475132
vn -0.879827 0.012439 0.475132
vn -0.879827 0.012439 0.475132
vn -0.879827 0.012439 0.475132
vn 0.299889 -0.621260 -0.723949
vn 0.299889 -0.621260 -0.723949
vn 0.299889 -0.621260 -0.723949
vn 0.299889 -0.621260 -0.723949
vn -0.299892 -0.621250 -0.723956
vn -0.299892 -0.621250 -0.723956
vn -0.299892 -0.621250 -0.723956
vn -0.299892 -0.621250 -0.723956
vn -0.724025 -0.621172 -0.299887
vn -0.724025 -0.621172 -0.299887
vn -0.724025 -0.621172 -0.299887
vn -0.724025 -0.621172 -0.299887
vn -0.724040 -0.621148 0.299902
vn -0.724040 -0.621148 0.299902
vn -0.724040 -0.621148 0.299902
vn -0.724040 -0.621148 0.299902
vn -0.299920 -0.621133 0.724045
vn -0.299920 -0.621133 0.724045
vn -0.299920 -0.621133 0.724045
vn -0.299920 -0.621133 0.724045
vn 0.299918 -0.621144 0.724037
vn 0.299918 -0.621143 0.724037
vn 0.299918 -0.621143 0.724037
vn 0.299918 -0.621143 0.724037
vn 0.724062 -0.621109 0.299930
vn 0.724062 -0.621109 0.299930
vn 0.724062 -0.621109 0.299930
vn 0.724062 -0.621109 0.299930
vn 0.724047 -0.621133 -0.299916
vn 0.724047 -0.621133 -0.299916
vn 0.724047 -0.621133 -0.299916
vn 0.724047 -0.621133 -0.299916
vn 0.000000 -1.000000 0.000000
vn 0.000000 -1.000000 0.000000
vn 0.000000 -1.000000 0.000000
vn 0.000000 -1.000000 0.000000
vn 0.000000 -1.000000 0.000000
vn 0.000000 -1.000000 0.000000
vn 0.000000 -1.000000 0.000000
vn 0.000000 -1.000000 0.000000
vn 0.000000 -1.000000 0.000000
vn 0.000000 -1.000000 0.000000
vn 0.000000 -1.000000 0.000000
vn 0.000000 -1.000000 0.000000
vn 0.000000 -1.000000 0.000000
vn 0.000000 -1.000000 0.000000
vn 0.000000 -1.000000 0.000000
vn 0.000000 -1.000000 0.000000
vn 0.000000 -1.000000 0.000000
vn 0.000000 -1.000000 0.000000
vn 0.000000 -1.000000 0.000000
vn 0.000000 -1.000000 0.000000
vn 0.000000 -1.000000 0.000000
vn 0.000000 -1.000000 0.000000
vn 0.000000 -1.000000 0.000000
vn 0.000000 -1.000000 0.000000
vn 0.000000 1.000000 0.000000
vn 0.000000 1.000000 0.000000
vn 0.000000 1.000000 0.000000
vn 0.000000 1.000000 0.000000
vn 0.000000 1.000000 0.000000
vn 0.000000 1.000000 0.000000
vn 0.000000 1.000000 0.000000
vn 0.000000 1.000000 0.000000
vn 0.000000 1.000000 0.000000
vn 0.000000 1.000000 0.000000
vn 0.000000 1.000000 0.000000
vn 0.000000 1.000000 0.000000
vn 0.000000 1.000000 0.000000
vn 0.000000 1.000000 0.000000
vn 0.000000 1.000000 0.000000
vn 0.000000 1.000000 0.000000
vn 0.000000 1.000000 0.000000
vn 0.000000 1.000000 0.000000
vn 0.000000 1.000000 0.000000
vn 0.000000 1.000000 0.000000
vn 0.000000 1.000000 0.000000
vn 0.000000 1.000000 0.000000
vn 0.000000 1.000000 0.000000
vn 0.000000 1.000000 0.000000
vn 0.332793 0.493724 -0.803421
vn 0.332793 0.493724 -0.803421
vn 0.332793 0.493724 -0.803421
vn 0.332793 0.493724 -0.803421
vn -0.332795 0.493724 -0.803420
vn -0.332795 0.493724 -0.803420
vn -0.332795 0.493724 -0.803420
vn -0.332795 0.493724 -0.803420
vn -0.803445 0.493702 -0.332769
vn -0.803445 0.493702 -0.332769
vn -0.803445 0.493702 -0.332769
vn -0.803445 0.493702 -0.332769
vn -0.803430 0.493717 0.332783
vn -0.803430 0.493717 0.332783
vn -0.803430 0.493717 0.332783
vn -0.803430 0.493717 0.332783
vn -0.332803 0.493724 0.803417
vn -0.332803 0.493724 0.803417
vn -0.332803 0.493724 0.803417
vn -0.332803 0.493724 0.803417
vn 0.332801 0.493724 0.803418
vn 0.332801 0.493724 0.803418
vn 0.332801 0.493724 0.803418
vn 0.332801 0.493724 0.803418
vn 0.803432 0.493712 0.332784
vn 0.803432 0.493712 0.332784
vn 0.803432 0.493712 0.332784
vn 0.803432 0.493712 0.332784
vn 0.803447 0.493698 -0.332771
vn 0.803446 0.493698 -0.332771
vn 0.803446 0.493698 -0.332771
vn 0.803446 0.493698 -0.332771
vn 0.381179 -0.088367 -0.920269
vn 0.381179 -0.088367 -0.920269
vn 0.380732 -0.100701 -0.919186
vn 0.380732 -0.100701 -0.919186
vn -0.381176 -0.088367 -0.920270
vn -0.381176 -0.088367 -0.920270
vn -0.380730 -0.100701 -0.919187
vn -0.380730 -0.100701 -0.919187
vn -0.920280 -0.088366 -0.381151
vn -0.920280 -0.088366 -0.381151
vn -0.919197 -0.100704 -0.380704
vn -0.919197 -0.100704 -0.380704
vn -0.920274 -0.088368 0.381165
vn -0.920274 -0.088368 0.381165
vn -0.919191 -0.100707 0.380718
vn -0.919191 -0.100707 0.380718
vn -0.381188 -0.088373 0.920264
vn -0.381188 -0.088373 0.920264
vn -0.380739 -0.100706 0.919182
vn -0.380739 -0.100706 0.919182
vn 0.381190 -0.088373 0.920263
vn 0.381190 -0.088373 0.920263
vn 0.380742 -0.100706 0.919181
vn 0.380741 -0.100706 0.919181
vn 0.920254 -0.088371 0.381213
vn 0.920254 -0.088371 0.381213
vn 0.919171 -0.100708 0.380765
vn 0.919171 -0.100707 0.380765
vn 0.920260 -0.088369 -0.381199
vn 0.920260 -0.088369 -0.381199
vn 0.919177 -0.100705 -0.380752
vn 0.919177 -0.100705 -0.380752
vn 0.382021 -0.057693 -0.922351
vn 0.382021 -0.057693 -0.922351
vn 0.382021 -0.057693 -0.922351
vn 0.382021 -0.057693 -0.922351
vn -0.382020 -0.057697 -0.922351
vn -0.382020 -0.057697 -0.922351
vn -0.382020 -0.057697 -0.922351
vn -0.382021 -0.057697 -0.922351
vn -0.922354 -0.057710 -0.382011
vn -0.922354 -0.057710 -0.382011
vn -0.922354 -0.057710 -0.382011
vn -0.922354 -0.057710 -0.382011
vn -0.922341 -0.057714 0.382043
vn -0.922341 -0.057714 0.382043
vn -0.922341 -0.057714 0.382043
vn -0.922341 -0.057714 0.382043
vn -0.382069 -0.057709 0.922330
vn -0.382069 -0.057709 0.922330
vn -0.382069 -0.057709 0.922330
vn -0.382069 -0.057709 0.922330
vn 0.382069 -0.057704 0.922330
vn 0.382069 -0.057704 0.922330
vn 0.382069 -0.057704 0.922330
vn 0.382069 -0.057704 0.922330
vn 0.922324 -0.057697 0.382085
vn 0.922324 -0.057697 0.382085
vn 0.922324 -0.057697 0.382085
vn 0.922324 -0.057697 0.382085
vn 0.922338 -0.057692 -0.382053
vn 0.922338 -0.057692 -0.382053
vn 0.922338 -0.057692 -0.382053
vn 0.922338 -0.057692 -0.382053
vn 0.000000 1.000000 0.000000
vn 0.000000 1.000000 0.000000
vn 0.000000 1.000000 0.000000
vn 0.000000 1.000000 0.000000
vn 0.000000 1.000000 0.000000
vn 0.000000 1.000000 0.000000
vn 0.000000 1.000000 0.000000
vn 0.000000 1.000000 0.000000
vn 0.000000 1.000000 -0.000000
vn 0.000000 1.000000 -0.000000
vn 0.000000 1.000000 -0.000000
vn 0.000000 1.000000 -0.000000
vn 0.000000 1.000000 0.000001
vn 0.000000 1.000000 0.000001
vn 0.000000 1.000000 0.000001
vn 0.000000 1.000000 0.000001
vn 0.000000 1.000000 0.000001
vn 0.000000 1.000000 0.000001
vn 0.000000 1.000000 0.000001
vn 0.000000 1.000000 0.000001
vn 0.000000 1.000000 0.000000
vn 0.000000 1.000000 0.000000
vn 0.000000 1.000000 0.000000
vn 0.000000 1.000000 0.000000
vn 0.000000 1.000000 0.000000
vn 0.000000 1.000000 0.000000
vn 0.000000 1.000000 0.000000
vn 0.000000 1.000000 0.000000
vn 0.000000 1.000000 -0.000000
vn 0.000000 1.000000 -0.000000
vn 0.000000 1.000000 -0.000000
vn 0.000000 1.000000 -0.000000
vn -0.077574 0.979244 0.187254
vn -0.077580 0.979240 0.187270
vn 0.242362 0.773921 -0.585070
vn 0.242362 0.773921 -0.585070
vn 0.077580 0.979240 0.187272
vn 0.077574 0.979243 0.187257
vn -0.242363 0.773921 -0.585070
vn -0.242363 0.773921 -0.585070
vn 0.187245 0.979247 0.077558
vn 0.187253 0.979245 0.077561
vn -0.585094 0.773905 -0.242357
vn -0.585094 0.773905 -0.242357
vn 0.187259 0.979243 -0.077566
vn 0.187248 0.979246 -0.077561
vn -0.585085 0.773909 0.242365
vn -0.585085 0.773909 0.242365
vn 0.077573 0.979244 -0.187255
vn 0.077583 0.979238 -0.187281
vn -0.242364 0.773941 0.585043
vn -0.242364 0.773941 0.585043
vn -0.077584 0.979238 -0.187280
vn -0.077572 0.979244 -0.187252
vn 0.242363 0.773941 0.585043
vn 0.242363 0.773941 0.585043
vn -0.187250 0.979245 -0.077565
vn -0.187258 0.979244 -0.077568
vn 0.585086 0.773909 0.242363
vn 0.585086 0.773909 0.242363
vn -0.187252 0.979245 0.077564
vn -0.187248 0.979246 0.077562
vn 0.585095 0.773905 -0.242354
vn 0.585095 0.773905 -0.242354
vn -0.194328 0.861501 0.469099
vn -0.194328 0.861500 0.469099
vn -0.077580 0.979240 0.187270
vn -0.077574 0.979244 0.187254
vn 0.194327 0.861501 0.469099
vn 0.194327 0.861501 0.469098
vn 0.077574 0.979243 0.187257
vn 0.077580 0.979240 0.187272
vn 0.469102 0.861503 0.194308
vn 0.469102 0.861503 0.194308
vn 0.187253 0.979245 0.077561
vn 0.187245 0.979247 0.077558
vn 0.469102 0.861501 -0.194316
vn 0.469102 0.861501 -0.194316
vn 0.187248 0.979246 -0.077561
vn 0.187259 0.979243 -0.077566
vn 0.194340 0.861486 -0.469121
vn 0.194340 0.861486 -0.469121
vn 0.077583 0.979238 -0.187281
vn 0.077573 0.979244 -0.187255
vn -0.194341 0.861485 -0.469122
vn -0.194341 0.861485 -0.469122
vn -0.077572 0.979244 -0.187252
vn -0.077584 0.979238 -0.187280
vn -0.469102 0.861501 -0.194317
vn -0.469102 0.861501 -0.194317
vn -0.187258 0.979244 -0.077568
vn -0.187250 0.979245 -0.077565
vn -0.469101 0.861503 0.194309
vn -0.469101 0.861503 0.194309
vn -0.187248 0.979246 0.077562
vn -0.187252 0.979245 0.077564
vn 0.919177 -0.100705 -0.380752
vn 0.919177 -0.100705 -0.380752
vn 0.903580 -0.208420 -0.374305
vn 0.903580 -0.208420 -0.374305
vn 0.919171 -0.100707 0.380765
vn 0.919171 -0.100708 0.380765
vn 0.903578 -0.208420 0.374309
vn 0.903578 -0.208420 0.374309
vn 0.380741 -0.100706 0.919181
vn 0.380742 -0.100706 0.919181
vn 0.374283 -0.208394 0.903595
vn 0.374283 -0.208394 0.903595
vn -0.380739 -0.100706 0.919182
vn -0.380739 -0.100706 0.919182
vn -0.374280 -0.208396 0.903596
vn -0.374280 -0.208396 0.903596
vn -0.919191 -0.100707 0.380718
vn -0.919191 -0.100707 0.380718
vn -0.903594 -0.208436 0.374263
vn -0.903594 -0.208436 0.374263
vn -0.919197 -0.100704 -0.380704
vn -0.919197 -0.100704 -0.380704
vn -0.903596 -0.208436 -0.374259
vn -0.903596 -0.208436 -0.374259
vn -0.380730 -0.100701 -0.919187
vn -0.380730 -0.100701 -0.919187
vn -0.374290 -0.208396 -0.903592
vn -0.374290 -0.208396 -0.903592
vn 0.380732 -0.100701 -0.919186
vn 0.380732 -0.100701 -0.919186
vn 0.374293 -0.208394 -0.903591
vn 0.374293 -0.208394 -0.903591
s off
f 1/1/1 2/2/2 4/3/3 3/4/4
f 3/4/5 4/3/6 6/5/7 5/6/8
f 5/6/9 6/5/10 8/7/11 7/8/12
f 2/2/13 8/7/14 6/5/15 4/3/16
f 7/8/17 1/1/18 3/4/19 5/6/20
f 34/9/21 35/10/22 18/11/23 17/12/24
f 35/10/25 36/13/26 19/14/27 18/11/28
f 36/13/29 37/15/30 20/16/31 19/14/32
f 37/15/33 38/17/34 21/18/35 20/16/36
f 38/17/37 39/19/38 22/20/39 21/18/40
f 39/19/41 40/21/42 23/22/43 22/20/44
f 40/21/45 41/23/46 24/24/47 23/22/48
f 41/23/49 34/9/50 17/12/51 24/24/52
f 10/25/53 9/26/54 25/27/55
f 11/28/56 10/25/57 25/27/58
f 12/29/59 11/28/60 25/27/61
f 13/30/62 12/29/63 25/27/64
f 14/31/65 13/30/66 25/27/67
f 15/32/68 14/31/69 25/27/70
f 16/33/71 15/32/72 25/27/73
f 9/26/74 16/33/75 25/27/76
f 58/34/77 59/35/78 60/36/79
f 59/35/80 61/37/81 60/36/82
f 61/37/83 62/38/84 60/36/85
f 62/38/86 63/39/87 60/36/88
f 63/39/89 64/40/90 60/36/91
f 64/40/92 65/41/93 60/36/94
f 65/41/95 66/42/96 60/36/97
f 66/42/98 58/34/99 60/36/100
f 17/12/101 18/11/102 27/43/103 26/44/104
f 18/11/105 19/14/106 28/45/107 27/43/108
f 19/14/109 20/16/110 29/46/111 28/45/112
f 20/16/113 21/18/114 30/47/115 29/46/116
f 21/18/117 22/20/118 31/48/119 30/47/120
f 22/20/121 23/22/122 32/49/123 31/48/124
f 23/22/125 24/24/126 33/50/127 32/49/128
f 24/24/129 17/12/130 26/44/131 33/50/132
f 42/51/133 43/52/134 82/53/135 75/54/136
f 43/52/137 44/55/138 81/56/139 82/53/140
f 44/55/141 45/57/142 80/58/143 81/56/144
f 45/57/145 46/59/146 79/60/147 80/58/148
f 46/59/149 47/61/150 78/62/151 79/60/152
f 47/61/153 48/63/154 77/64/155 78/62/156
f 48/63/157 49/65/158 76/66/159 77/64/160
f 49/65/161 42/51/162 75/54/163 76/66/164
f 9/26/165 10/25/166 43/67/167 42/68/168
f 10/25/169 11/28/170 44/69/171 43/67/172
f 11/28/173 12/29/174 45/70/175 44/69/176
f 12/29/177 13/30/178 46/71/179 45/70/180
f 13/30/181 14/31/182 47/72/183 46/71/184
f 14/31/185 15/32/186 48/73/187 47/72/188
f 15/32/189 16/33/190 49/74/191 48/73/192
f 16/33/193 9/26/194 42/68/195 49/74/196
f 26/44/197 27/43/198 51/75/199 50/76/200
f 27/43/201 28/45/202 52/77/203 51/75/204
f 28/45/205 29/46/206 53/78/207 52/77/208
f 29/46/209 30/47/210 54/79/211 53/78/212
f 30/47/213 31/48/214 55/80/215 54/79/216
f 31/48/217 32/49/218 56/81/219 55/80/220
f 32/49/221 33/50/222 57/82/223 56/81/224
f 33/50/225 26/44/226 50/76/227 57/82/228
f 67/83/229 68/84/230 59/35/231 58/34/232
f 68/84/233 69/85/234 61/37/235 59/35/236
f 69/85/237 70/86/238 62/38/239 61/37/240
f 70/86/241 71/87/242 63/39/243 62/38/244
f 71/87/245 72/88/246 64/40/247 63/39/248
f 72/88/249 73/89/250 65/41/251 64/40/252
f 73/89/253 74/90/254 66/42/255 65/41/256
f 74/90/257 67/83/258 58/34/259 66/42/260
f 50/76/261 51/75/262 68/84/263 67/83/264
f 51/75/265 52/77/266 69/85/267 68/84/268
f 52/77/269 53/78/270 70/86/271 69/85/272
f 53/78/273 54/79/274 71/87/275 70/86/276
f 54/79/277 55/80/278 72/88/279 71/87/280
f 55/80/281 56/81/282 73/89/283 72/88/284
f 56/81/285 57/82/286 74/90/287 73/89/288
f 57/82/289 50/76/290 67/83/291 74/90/292
f 76/91/293 75/92/294 34/93/295 41/94/296
f 77/95/297 76/91/298 41/94/299 40/96/300
f 78/97/301 77/95/302 40/96/303 39/98/304
f 79/99/305 78/97/306 39/98/307 38/100/308
f 80/101/309 79/99/310 38/100/311 37/102/312
f 81/103/313 80/101/314 37/102/315 36/104/316
f 82/105/317 81/103/318 36/104/319 35/106/320
f 75/92/321 82/105/322 35/106/323 34/93/324
