# This file uses centimeters as units for non-parametric coordinates.

v 25.355469 0.000000 16.714600
v 25.355469 0.000000 -16.714600
v 25.233643 0.824414 16.634399
v 25.233643 0.824414 -16.634399
v -25.233276 0.824414 16.634399
v -25.233276 0.824414 -16.634399
v -25.354919 0.000000 16.714600
v -25.354919 0.000000 -16.714600
v 27.330627 0.000000 15.120667
v 27.330627 0.000000 -15.120667
v 27.199524 0.824414 -15.048096
v 27.199524 0.824414 15.048096
v -27.199219 0.824414 15.048096
v -27.199219 0.824414 -15.048096
v -27.330444 0.000000 -15.120667
v -27.330444 0.000000 15.120667
v 24.644836 0.824414 14.781250
v 24.644836 0.824414 9.905762
v 20.767883 0.824414 9.905762
v 20.767883 0.824414 14.781250
v 25.285400 0.824414 14.060181
v 25.285400 0.824414 10.626831
v 20.127319 0.824414 10.626831
v 20.127319 0.824414 14.060181
v 21.264709 0.824414 13.631836
v 21.264709 0.824414 11.055298
v 24.148010 0.824414 13.631836
v 24.148010 0.824414 11.055298
vt 0.080148 0.255049
vt 0.080180 0.255136
vt 0.079223 0.277883
vt 0.079252 0.278251
vt 0.079298 0.278243
vt 0.079292 0.278176
vt 0.079360 0.278171
vt 0.079369 0.278238
vt 0.080222 0.278179
vt 0.080058 0.277831
vt 0.080182 0.255125
vt 0.080150 0.255034
vt 0.081143 0.255033
vt 0.080925 0.255125
vt 0.080927 0.255136
vt 0.081148 0.255048
vt 0.080022 0.277817
vt 0.079253 0.277865
vt 0.079290 0.278271
vt 0.080198 0.278204
vt 0.079285 0.278234
vt 0.079281 0.278187
vt 0.079373 0.278180
vt 0.079379 0.278227
vt 0.081127 0.255042
vt 0.080892 0.255139
vt 0.080208 0.255140
vt 0.080182 0.255042
vt 0.080890 0.255128
vt 0.080210 0.255129
vt 0.080185 0.255028
vt 0.081122 0.255027
vt 0.100634 0.329194
vt 0.100652 0.328669
vt 0.101376 0.328662
vt 0.101391 0.329186
vt 0.100512 0.329114
vt 0.100529 0.328745
vt 0.101498 0.328735
vt 0.101513 0.329104
vt 0.101388 0.329081
vt 0.101379 0.328767
vt 0.100638 0.329089
vt 0.100649 0.328774
vt 0.079753 0.278166
vt 0.078796 0.278219
vt 0.078753 0.277561
vt 0.079684 0.277511
vn 0.987590 0.157054 0.000000
vn 0.987590 0.157054 0.000000
vn 0.987590 0.157054 0.000000
vn 0.987590 0.157054 0.000000
vn 0.000000 1.000000 -0.000000
vn 0.000000 1.000000 -0.000000
vn 0.000000 1.000000 -0.000000
vn 0.000000 1.000000 -0.000000
vn -0.987567 0.157196 0.000000
vn -0.987567 0.157196 0.000000
vn -0.987567 0.157196 0.000000
vn -0.987567 0.157196 0.000000
vn 0.000000 -1.000000 0.000000
vn 0.000000 -1.000000 0.000000
vn 0.000000 -1.000000 0.000000
vn 0.000000 -1.000000 0.000000
vn 0.000000 0.096824 -0.995301
vn 0.000000 0.096824 -0.995301
vn 0.000000 0.096824 -0.995302
vn 0.000000 0.096824 -0.995302
vn 0.000000 0.096824 0.995301
vn 0.000000 0.096824 0.995301
vn 0.000000 0.096824 0.995302
vn 0.000000 0.096824 0.995302
vn 0.000000 -1.000000 0.000000
vn 0.000000 -1.000000 0.000000
vn 0.000000 -1.000000 0.000000
vn 0.000000 -1.000000 0.000000
vn 0.619266 0.166099 -0.767412
vn 0.619266 0.166099 -0.767412
vn 0.619266 0.166099 -0.767412
vn 0.619266 0.166099 -0.767412
vn 0.000000 1.000000 -0.000000
vn 0.000000 1.000000 -0.000000
vn 0.000000 1.000000 -0.000000
vn 0.619266 0.166099 0.767412
vn 0.619266 0.166099 0.767412
vn 0.619266 0.166099 0.767412
vn 0.619266 0.166099 0.767412
vn 0.000000 1.000000 -0.000000
vn 0.000000 1.000000 -0.000000
vn 0.000000 1.000000 -0.000000
vn -0.619228 0.166074 -0.767448
vn -0.619228 0.166074 -0.767448
vn -0.619228 0.166074 -0.767448
vn -0.619228 0.166074 -0.767448
vn 0.000000 -1.000000 0.000000
vn 0.000000 -1.000000 0.000000
vn 0.000000 -1.000000 0.000000
vn 0.000000 -1.000000 0.000000
vn -0.619228 0.166074 0.767448
vn -0.619228 0.166074 0.767448
vn -0.619228 0.166074 0.767448
vn -0.619228 0.166074 0.767448
vn 0.000000 1.000000 0.000000
vn 0.000000 1.000000 0.000000
vn 0.000000 1.000000 0.000000
vn 0.000000 1.000000 0.000000
vn 0.000000 1.000000 0.000000
vn 0.000000 1.000000 0.000000
vn 0.000000 1.000000 0.000000
vn 0.000000 1.000000 0.000000
vn 0.000000 1.000000 0.000000
vn 0.000000 1.000000 0.000000
vn 0.000000 1.000000 0.000000
vn 0.000000 1.000000 0.000000
vn 0.000000 1.000000 0.000000
vn 0.000000 1.000000 0.000000
vn 0.000000 1.000000 0.000000
vn 0.000000 1.000000 0.000000
vn 0.000000 1.000000 0.000000
vn 0.000000 1.000000 0.000000
vn 0.000000 1.000000 0.000000
vn 0.000000 1.000000 0.000000
vn 0.000000 1.000000 -0.000000
vn 0.000000 1.000000 -0.000000
vn 0.000000 1.000000 -0.000000
vn 0.000000 1.000000 -0.000000
vn 0.000000 1.000000 0.000000
vn 0.000000 1.000000 0.000000
vn 0.000000 1.000000 0.000000
vn 0.000000 1.000000 0.000000
vn 0.000000 1.000000 0.000000
vn 0.000000 1.000000 0.000000
vn 0.000000 1.000000 0.000000
vn 0.000000 1.000000 0.000000
vn 0.000000 1.000000 0.000000
vn 0.000000 1.000000 0.000000
vn 0.000000 1.000000 0.000000
vn 0.000000 1.000000 0.000000
vn 0.000000 1.000000 0.000000
vn 0.000000 1.000000 0.000000
vn 0.000000 1.000000 0.000000
vn 0.000000 1.000000 0.000000
vn 0.000000 1.000000 0.000000
vn 0.000000 1.000000 -0.000000
vn 0.000000 1.000000 -0.000000
vn 0.000000 1.000000 0.000000
vn 0.000000 1.000000 0.000000
vn 0.000000 1.000000 -0.000000
vn 0.000000 1.000000 -0.000000
vn 0.000000 1.000000 0.000000
vn 0.000000 1.000000 0.000000
vn 0.000000 1.000000 0.000000
vn 0.000000 1.000000 -0.000000
vn 0.000000 1.000000 -0.000000
vn 0.000000 1.000000 0.000000
vn 0.000000 1.000000 0.000000
s off
f 9/1/1 10/2/2 11/11/3 12/12/4
f 26/42/5 28/44/6 18/34/7 19/35/8
f 13/13/9 14/14/10 15/15/11 16/16/12
f 7/25/13 8/26/14 2/27/15 1/28/16
f 2/27/17 8/26/18 6/29/19 4/30/20
f 7/25/21 1/28/22 3/31/23 5/32/24
f 1/28/25 2/27/26 10/2/27 9/1/28
f 2/27/29 4/30/30 11/11/31 10/2/32
f 18/34/33 28/44/34 22/38/35
f 3/31/36 1/28/37 9/1/38 12/12/39
f 23/39/40 26/42/41 19/35/42
f 6/29/43 8/26/44 15/15/45 14/14/46
f 8/26/47 7/25/48 16/16/49 15/15/50
f 7/25/51 5/32/52 13/13/53 16/16/54
f 4/18/55 6/17/56 19/7/57 18/6/58
f 5/20/59 3/19/60 17/5/61 20/8/62
f 3/19/63 12/4/64 21/21/65 17/5/66
f 12/4/67 11/3/68 22/22/69 21/21/70
f 11/3/71 4/18/72 18/6/73 22/22/74
f 6/17/75 14/10/76 23/23/77 19/7/78
f 14/10/79 13/9/80 24/24/81 23/23/82
f 13/9/83 5/20/84 20/8/85 24/24/86
f 20/36/87 25/41/88 24/40/89
f 17/33/90 27/43/91 25/41/92 20/36/93
f 25/45/94 27/46/95 28/47/96 26/48/97
f 24/40/98 25/41/99 26/42/100 23/39/101
f 21/37/102 27/43/103 17/33/104
f 22/38/105 28/44/106 27/43/107 21/37/108
