# This file uses centimeters as units for non-parametric coordinates.

v -4.999496 0.000000 4.729913
v 4.999496 0.000000 4.729913
v 4.999496 0.000000 -4.729913
v -4.999496 0.000000 -4.729913
v 7.997421 15.000000 -4.729913
v -7.997421 15.000000 -4.729913
v 4.999496 15.000000 4.729913
v -4.999496 15.000000 4.729913
v 6.652733 3.075000 4.729913
v 6.652733 11.924999 4.729913
v 15.503113 3.075000 4.729913
v 15.503113 11.924999 4.729913
v -6.685364 3.075000 4.729913
v -15.535744 3.075000 4.729913
v -6.685364 11.924999 4.729913
v -15.535744 11.924999 4.729913
v 11.077919 7.500000 4.729913
v 5.177673 7.500000 4.729913
v 11.077919 1.600000 4.729913
v 16.978165 7.500000 4.729913
v 11.077919 13.400000 4.729913
v -11.110558 7.500000 4.729913
v -11.110558 1.600000 4.729913
v -5.210304 7.500000 4.729913
v -11.110558 13.400000 4.729913
v -17.010803 7.500000 4.729913
v -7.997421 15.000000 3.695282
v 7.997421 15.000000 3.695282
v 4.999496 0.000000 3.695282
v -4.999496 0.000000 3.695282
v -16.925278 15.000000 4.729913
v -19.099434 14.099434 4.729913
v -20.000000 11.925276 4.729913
v -16.925278 15.000000 3.695282
v -19.099434 14.099434 3.695282
v -20.000000 11.925276 3.695282
v 20.000000 11.925276 4.729913
v 19.099426 14.099434 4.729913
v 16.925278 15.000000 4.729913
v 16.925278 15.000000 3.695282
v 19.099426 14.099434 3.695282
v 20.000000 11.925276 3.695282
v -16.925278 0.000000 -4.729913
v -19.099434 0.900566 -4.729913
v -20.000000 3.074725 -4.729913
v -16.925278 0.000000 3.695282
v -19.099434 0.900566 3.695282
v -20.000000 3.074725 3.695282
v 16.925278 0.000000 -4.729913
v 20.000000 3.074725 -4.729913
v 19.099426 0.900566 -4.729913
v 20.000000 3.074725 3.695282
v 19.099426 0.900566 3.695282
v 16.925278 0.000000 3.695282
v -19.099434 14.099434 -4.729913
v -16.925278 15.000000 -4.729913
v -20.000000 11.925276 -4.729913
v 19.099426 14.099434 -4.729913
v 20.000000 11.925276 -4.729913
v 16.925278 15.000000 -4.729913
v 19.099426 0.900566 4.729913
v 20.000000 3.074725 4.729913
v 16.925278 0.000000 4.729913
v -19.099434 0.900566 4.729913
v -16.925278 0.000000 4.729913
v -20.000000 3.074725 4.729913
v 0.000000 7.500000 4.729913
v -6.354095 15.000000 -0.278353
v 6.354095 15.000000 -0.278353
v -6.354095 15.000000 2.576320
v 6.354095 15.000000 2.576320
vt 0.015555 0.323961
vt 0.080677 0.250502
vt 0.015595 0.323836
vt 0.081433 0.275340
vt 0.015950 0.323641
vt 0.015906 0.323762
vt 0.081557 0.275379
vt 0.081598 0.275494
vt 0.081438 0.275494
vt 0.082277 0.275493
vt 0.082227 0.275603
vt 0.082105 0.275639
vt 0.082117 0.275493
vt 0.081559 0.275604
vt 0.081442 0.275641
vt 0.081322 0.275604
vt 0.081277 0.275494
vt 0.081312 0.275379
vt 0.081990 0.275604
vt 0.081957 0.275493
vt 0.082004 0.275378
vt 0.082130 0.275339
vt 0.082248 0.275378
vt 0.015627 0.323610
vt 0.015627 0.324018
vt 0.080914 0.250094
vt 0.015887 0.323572
vt 0.016050 0.323582
vt 0.015561 0.323723
vt 0.015443 0.323706
vt 0.015314 0.323772
vt 0.015279 0.323911
vt 0.015319 0.324021
vt 0.015442 0.324028
vt 0.016152 0.323877
vt 0.015885 0.323949
vt 0.015928 0.323864
vt 0.016017 0.323874
vt 0.016109 0.323816
vt 0.016153 0.323703
vt 0.016138 0.323597
vt 0.081202 0.250105
vt 0.081066 0.250049
vt 0.081014 0.249995
vt 0.015228 0.323788
vt 0.015215 0.323776
vt 0.016151 0.323787
vt 0.016170 0.323797
vt 0.015910 0.323973
vt 0.015623 0.324051
vt 0.015238 0.324038
vt 0.080309 0.250291
vt 0.081045 0.250235
vt 0.081175 0.250301
vt 0.080690 0.250137
vt 0.080394 0.250579
vt 0.080569 0.250415
vt 0.080302 0.250481
vt 0.080886 0.250445
vt 0.081151 0.250048
vt 0.080787 0.250034
vt 0.015869 0.323563
vt 0.015296 0.323674
vt 0.015643 0.323620
vt 0.015310 0.323685
vt 0.015225 0.324024
vt 0.016185 0.323865
vt 0.016200 0.323894
vt 0.016198 0.323856
vt 0.016181 0.323575
vt 0.016200 0.323583
vt 0.080769 0.250366
vt 0.080573 0.250071
vt 0.015267 0.324115
vt 0.016145 0.323522
vt 0.016125 0.323514
vt 0.080384 0.250196
vt 0.080286 0.250121
vt 0.080216 0.250209
vt 0.080983 0.250313
vt 0.081108 0.250385
vt 0.080229 0.250424
vt 0.080318 0.250520
vt 0.016211 0.323509
vt 0.016191 0.323501
vt 0.081212 0.250037
vt 0.015225 0.323702
vt 0.080305 0.250211
vt 0.015211 0.323690
vt 0.081038 0.250299
vt 0.081166 0.250369
vt 0.015215 0.324161
vt 0.080234 0.250498
vt 0.080322 0.250599
vt 0.015174 0.324137
vt 0.081073 0.249985
vt 0.080212 0.250134
vt 0.015179 0.324128
vt 0.015753 0.323791
vt 0.080573 0.250071
vt 0.080787 0.250034
vt 0.080914 0.250094
vt 0.080690 0.250137
vt 0.102629 0.326490
vt 0.103589 0.326596
vt 0.103569 0.326789
vt 0.102589 0.326677
vn 0.000000 0.000000 1.000000
vn 0.000000 0.000000 1.000000
vn 0.000000 0.000000 1.000000
vn 0.000000 -1.000000 0.000000
vn 0.000000 -1.000000 0.000000
vn 0.000000 -1.000000 0.000000
vn 0.000000 -1.000000 0.000000
vn 0.000000 0.000000 -1.000000
vn 0.000000 0.000000 -1.000000
vn 0.000000 0.000000 -1.000000
vn 0.000000 0.000000 -1.000000
vn 0.000000 1.000000 0.000000
vn 0.000000 1.000000 0.000000
vn 0.000000 1.000000 0.000000
vn 0.000000 1.000000 0.000000
vn 0.000000 0.000000 1.000000
vn 0.000000 0.000000 1.000000
vn 0.000000 0.000000 1.000000
vn 0.000000 0.000000 1.000000
vn 0.000000 0.000000 1.000000
vn 0.000000 0.000000 1.000000
vn 0.000000 0.000000 1.000000
vn 0.000000 0.000000 1.000000
vn 0.000000 0.000000 1.000000
vn 0.000000 0.000000 1.000000
vn 0.000000 0.000000 1.000000
vn 0.000000 0.000000 1.000000
vn 0.000000 0.000000 1.000000
vn 0.000000 0.000000 1.000000
vn 0.000000 0.000000 1.000000
vn 0.000000 0.000000 1.000000
vn 0.000000 0.000000 1.000000
vn 0.000000 0.000000 1.000000
vn 0.000000 0.000000 1.000000
vn 0.000000 0.000000 1.000000
vn 0.000000 0.000000 1.000000
vn 0.000000 0.000000 1.000000
vn 0.000000 0.000000 1.000000
vn 0.000000 0.000000 1.000000
vn 0.000000 0.000000 1.000000
vn 0.000000 0.000000 1.000000
vn 0.000000 0.000000 1.000000
vn 0.000000 0.000000 1.000000
vn 0.000000 0.000000 1.000000
vn 0.000000 0.000000 1.000000
vn 0.000000 0.000000 1.000000
vn 0.000000 0.000000 1.000000
vn 0.000000 0.000000 1.000000
vn 0.000000 0.000000 1.000000
vn 0.000000 0.000000 1.000000
vn 0.000000 0.000000 1.000000
vn 0.000000 0.000000 1.000000
vn 0.000000 0.000000 1.000000
vn 0.000000 0.000000 1.000000
vn 0.000000 0.000000 1.000000
vn 0.000000 0.000000 1.000000
vn 0.000000 0.000000 1.000000
vn 0.000000 0.000000 1.000000
vn 0.000000 0.000000 1.000000
vn 0.000000 0.000000 1.000000
vn 0.000000 0.000000 1.000000
vn 0.000000 1.000000 0.000000
vn 0.000000 1.000000 0.000000
vn 0.000000 1.000000 0.000000
vn 0.000000 1.000000 0.000000
vn 0.000000 -1.000000 0.000000
vn 0.000000 -1.000000 0.000000
vn 0.000000 -1.000000 0.000000
vn 0.000000 -1.000000 0.000000
vn 0.000000 0.000000 1.000000
vn 0.000000 0.000000 1.000000
vn 0.000000 0.000000 1.000000
vn 0.000000 0.000000 1.000000
vn 0.000000 0.000000 1.000000
vn 0.000000 0.000000 1.000000
vn -0.000000 0.000000 1.000000
vn -0.000000 0.000000 1.000000
vn -0.000000 0.000000 1.000000
vn 0.000000 0.000000 1.000000
vn 0.000000 0.000000 1.000000
vn 0.000000 0.000000 1.000000
vn -0.923880 0.382683 0.000000
vn -0.923880 0.382683 0.000000
vn -0.923880 0.382683 0.000000
vn -0.923880 0.382683 0.000000
vn -0.382683 0.923880 0.000000
vn -0.382683 0.923880 0.000000
vn -0.382683 0.923880 0.000000
vn -0.382683 0.923880 0.000000
vn 0.382683 0.923880 0.000000
vn 0.382683 0.923880 0.000000
vn 0.382683 0.923880 0.000000
vn 0.382683 0.923880 0.000000
vn 0.923880 0.382683 0.000000
vn 0.923880 0.382683 0.000000
vn 0.923880 0.382683 0.000000
vn 0.923880 0.382683 0.000000
vn -0.923880 -0.382683 0.000000
vn -0.923880 -0.382683 0.000000
vn -0.923880 -0.382683 0.000000
vn -0.923880 -0.382683 0.000000
vn -0.382684 -0.923880 0.000000
vn -0.382684 -0.923880 0.000000
vn -0.382684 -0.923880 0.000000
vn -0.382684 -0.923880 0.000000
vn 0.382684 -0.923880 0.000000
vn 0.382684 -0.923880 0.000000
vn 0.382684 -0.923880 0.000000
vn 0.382684 -0.923880 0.000000
vn 0.923880 -0.382683 0.000000
vn 0.923880 -0.382683 0.000000
vn 0.923880 -0.382683 0.000000
vn 0.923880 -0.382683 0.000000
vn 1.000000 0.000000 0.000000
vn 1.000000 0.000000 0.000000
vn 1.000000 0.000000 0.000000
vn 1.000000 0.000000 0.000000
vn -1.000000 0.000000 0.000000
vn -1.000000 0.000000 0.000000
vn -1.000000 0.000000 0.000000
vn -1.000000 0.000000 0.000000
vn 0.000000 1.000000 0.000000
vn 0.000000 1.000000 0.000000
vn 0.000000 1.000000 0.000000
vn 0.000000 1.000000 0.000000
vn 0.000000 -1.000000 0.000000
vn 0.000000 -1.000000 0.000000
vn 0.000000 -1.000000 0.000000
vn 0.000000 -1.000000 0.000000
vn 0.000000 -1.000000 0.000000
vn 0.000000 -1.000000 0.000000
vn 0.000000 -1.000000 0.000000
vn 0.000000 -1.000000 0.000000
vn 0.000000 1.000000 0.000000
vn 0.000000 1.000000 0.000000
vn 0.000000 1.000000 0.000000
vn 0.000000 1.000000 0.000000
vn 0.000000 1.000000 0.000000
vn 0.000000 1.000000 0.000000
vn 0.000000 1.000000 0.000000
vn 0.000000 1.000000 0.000000
vn 0.000000 1.000000 0.000000
vn 0.000000 1.000000 0.000000
vn 0.000000 1.000000 0.000000
vn 0.000000 1.000000 0.000000
vn 1.000000 0.000000 0.000000
vn 1.000000 0.000000 0.000000
vn 1.000000 0.000000 0.000000
vn 1.000000 0.000000 0.000000
vn 0.000000 -1.000000 0.000000
vn 0.000000 -1.000000 0.000000
vn 0.000000 -1.000000 0.000000
vn 0.000000 -1.000000 0.000000
vn 0.000000 -1.000000 0.000000
vn 0.000000 -1.000000 0.000000
vn 0.000000 -1.000000 0.000000
vn 0.000000 -1.000000 0.000000
vn -1.000000 0.000000 0.000000
vn -1.000000 0.000000 0.000000
vn -1.000000 0.000000 0.000000
vn -1.000000 0.000000 0.000000
vn 0.000000 0.000000 1.000000
vn 0.000000 0.000000 1.000000
vn 0.000000 0.000000 1.000000
vn 0.000000 0.000000 1.000000
vn 0.000000 0.000000 1.000000
vn 0.000000 0.000000 1.000000
vn 0.000000 0.000000 1.000000
vn 0.000000 0.000000 1.000000
vn 0.000000 0.000000 1.000000
vn 0.000000 0.000000 1.000000
vn 0.000000 0.000000 1.000000
vn 0.000000 0.000000 1.000000
vn 0.000000 0.000000 -1.000000
vn 0.000000 0.000000 -1.000000
vn 0.000000 0.000000 -1.000000
vn 0.000000 0.000000 -1.000000
vn -0.000000 0.000000 -1.000000
vn -0.000000 0.000000 -1.000000
vn -0.000000 0.000000 -1.000000
vn -0.000000 0.000000 -1.000000
vn 0.000000 0.000000 1.000000
vn 0.000000 0.000000 1.000000
vn 0.000000 0.000000 1.000000
vn 0.000000 0.000000 1.000000
vn 0.000000 0.000000 1.000000
vn 0.000000 0.000000 1.000000
vn -0.000000 0.000000 1.000000
vn -0.000000 0.000000 1.000000
vn -0.000000 0.000000 1.000000
vn 0.000000 0.000000 1.000000
vn 0.000000 0.000000 1.000000
vn 0.000000 0.000000 1.000000
vn -0.923880 0.382683 0.000000
vn -0.923880 0.382683 0.000000
vn -0.923880 0.382683 0.000000
vn -0.923880 0.382683 0.000000
vn -0.382683 0.923880 0.000000
vn -0.382683 0.923880 0.000000
vn -0.382683 0.923880 0.000000
vn -0.382683 0.923880 0.000000
vn 0.382683 0.923880 0.000000
vn 0.382683 0.923880 0.000000
vn 0.382683 0.923880 0.000000
vn 0.382683 0.923880 0.000000
vn 0.923880 0.382683 0.000000
vn 0.923880 0.382683 0.000000
vn 0.923880 0.382683 0.000000
vn 0.923880 0.382683 0.000000
vn -0.923880 -0.382683 0.000000
vn -0.923880 -0.382683 0.000000
vn -0.923880 -0.382683 0.000000
vn -0.923880 -0.382683 0.000000
vn -0.382683 -0.923880 0.000000
vn -0.382683 -0.923880 0.000000
vn -0.382683 -0.923880 0.000000
vn -0.382683 -0.923880 0.000000
vn 0.382683 -0.923880 0.000000
vn 0.382683 -0.923880 0.000000
vn 0.382683 -0.923880 0.000000
vn 0.382683 -0.923880 0.000000
vn 0.923880 -0.382683 0.000000
vn 0.923880 -0.382683 0.000000
vn 0.923880 -0.382683 0.000000
vn 0.923880 -0.382683 0.000000
vn 0.000000 0.000000 1.000000
vn 0.000000 0.000000 1.000000
vn 0.000000 0.000000 1.000000
vn 0.000000 0.000000 1.000000
vn 0.000000 0.000000 1.000000
vn 0.000000 0.000000 1.000000
vn 0.000000 0.000000 1.000000
vn 0.000000 0.000000 1.000000
vn 0.000000 0.000000 1.000000
vn 0.000000 0.000000 1.000000
vn 0.000000 0.000000 1.000000
vn 0.000000 0.000000 1.000000
vn 0.000000 0.000000 1.000000
vn 0.000000 0.000000 1.000000
vn 0.000000 0.000000 1.000000
vn 0.000000 0.000000 1.000000
vn 0.000000 0.000000 1.000000
vn 0.000000 0.000000 1.000000
vn 0.000000 0.000000 1.000000
vn 0.000000 0.000000 1.000000
vn 0.000000 0.000000 1.000000
vn 0.000000 0.000000 1.000000
vn 0.000000 0.000000 1.000000
vn 0.000000 0.000000 1.000000
vn 0.000000 0.000000 1.000000
vn 0.000000 0.000000 1.000000
vn 0.000000 0.000000 1.000000
vn 0.000000 0.000000 1.000000
vn 0.000000 0.000000 1.000000
vn -0.000000 0.000000 1.000000
vn -0.000000 0.000000 1.000000
vn -0.000000 0.000000 1.000000
vn -0.000000 0.000000 1.000000
vn -0.000000 0.000000 1.000000
vn -0.000000 0.000000 1.000000
vn 0.000000 0.000000 1.000000
vn 0.000000 0.000000 1.000000
vn 0.000000 0.000000 1.000000
vn 0.000000 0.000000 1.000000
vn 0.000000 0.000000 1.000000
vn 0.000000 0.000000 1.000000
vn 0.000000 0.000000 1.000000
vn 0.000000 0.000000 1.000000
vn 0.000000 0.000000 1.000000
vn 0.000000 0.000000 1.000000
vn 0.000000 0.000000 1.000000
vn 0.000000 0.000000 1.000000
vn 0.000000 1.000000 0.000000
vn 0.000000 1.000000 0.000000
vn 0.000000 1.000000 0.000000
vn 0.000000 1.000000 0.000000
vn 0.000000 1.000000 0.000000
vn 0.000000 1.000000 0.000000
vn 0.000000 1.000000 0.000000
vn 0.000000 1.000000 0.000000
vn 0.000000 1.000000 0.000000
vn 0.000000 1.000000 0.000000
vn 0.000000 1.000000 0.000000
vn 0.000000 1.000000 0.000000
vn 0.000000 1.000000 0.000000
vn 0.000000 1.000000 0.000000
vn 0.000000 1.000000 0.000000
vn 0.000000 1.000000 0.000000
vn 0.000000 0.000000 -1.000000
vn 0.000000 0.000000 -1.000000
vn 0.000000 0.000000 -1.000000
vn 0.000000 0.000000 -1.000000
vn 0.000000 0.000000 -1.000000
vn 0.000000 0.000000 -1.000000
vn 0.000000 0.000000 -1.000000
vn 0.000000 0.000000 -1.000000
vn -0.000000 0.000000 -1.000000
vn -0.000000 0.000000 -1.000000
vn -0.000000 0.000000 -1.000000
vn -0.000000 0.000000 -1.000000
vn -0.000000 0.000000 -1.000000
vn -0.000000 0.000000 -1.000000
vn -0.000000 0.000000 -1.000000
vn -0.000000 0.000000 -1.000000
s off
f 67/99/1 7/64/2 8/27/3
f 29/2/4 30/59/5 4/72/6 3/57/7
f 3/57/8 4/72/9 6/61/10 5/73/11
f 69/104/12 68/105/13 70/106/14 71/107/15
f 21/4/16 10/7/17 18/8/18 17/9/19
f 26/10/20 14/11/21 23/12/22 22/13/23
f 7/64/24 67/99/25 18/3/26 10/29/27
f 2/25/28 19/34/29 9/1/30
f 24/6/31 67/99/32 8/27/33 15/5/34
f 8/27/35 25/28/36 15/5/37
f 18/8/38 9/14/39 19/15/40 17/9/41
f 19/15/42 11/16/43 20/17/44 17/9/45
f 20/17/46 12/18/47 21/4/48 17/9/49
f 23/12/50 13/19/51 24/20/52 22/13/53
f 24/20/54 15/21/55 25/22/56 22/13/57
f 25/22/58 16/23/59 26/10/60 22/13/61
f 28/24/62 27/62/63 8/27/64 7/64/65
f 2/25/66 1/36/67 30/49/68 29/50/69
f 16/41/70 33/71/71 26/40/72
f 12/31/73 39/65/74 21/30/75
f 11/33/76 62/51/77 20/32/78
f 14/39/79 65/35/80 23/38/81
f 36/42/82 35/86/83 55/96/84 57/43/85
f 35/86/86 34/60/87 56/44/88 55/96/89
f 39/65/90 38/87/91 41/89/92 40/63/93
f 38/87/94 37/45/95 42/46/96 41/89/97
f 48/47/98 47/67/99 64/69/100 66/48/101
f 47/67/102 46/68/103 65/35/104 64/69/105
f 54/92/106 53/95/107 61/98/108 63/74/109
f 53/95/110 52/66/111 62/51/112 61/98/113
f 42/52/114 52/83/115 50/82/116 59/79/117
f 45/53/118 48/54/119 36/42/120 57/43/121
f 5/73/122 28/55/123 40/77/124 60/78/125
f 54/56/126 29/2/127 3/57/128 49/58/129
f 46/81/130 43/80/131 4/72/132 30/59/133
f 34/60/134 27/26/135 6/61/136 56/44/137
f 34/76/138 31/75/139 8/27/140 27/62/141
f 40/63/142 28/24/143 7/64/144 39/65/145
f 62/51/146 52/66/147 42/46/148 37/45/149
f 2/25/150 29/50/151 54/92/152 63/74/153
f 46/68/154 30/49/155 1/36/156 65/35/157
f 36/70/158 48/47/159 66/48/160 33/71/161
f 16/41/162 31/75/163 32/84/164
f 16/41/165 32/84/166 33/71/167
f 12/31/168 37/45/169 38/87/170
f 12/31/171 38/87/172 39/65/173
f 55/96/174 56/44/175 6/61/176 57/43/177
f 3/57/178 50/82/179 51/93/180 49/58/181
f 11/33/182 63/74/183 61/98/184
f 11/33/185 61/98/186 62/51/187
f 14/39/188 66/48/189 64/69/190
f 14/39/191 64/69/192 65/35/193
f 33/71/194 32/84/195 35/85/196 36/70/197
f 32/84/198 31/75/199 34/76/200 35/85/201
f 40/77/202 41/88/203 58/97/204 60/78/205
f 41/88/206 42/52/207 59/79/208 58/97/209
f 45/53/210 44/90/211 47/91/212 48/54/213
f 44/90/214 43/80/215 46/81/216 47/91/217
f 49/58/218 51/93/219 53/94/220 54/56/221
f 51/93/222 50/82/223 52/83/224 53/94/225
f 1/36/226 67/99/227 24/6/228 13/37/229
f 1/36/230 2/25/231 67/99/232
f 18/3/233 67/99/234 2/25/235 9/1/236
f 26/40/237 66/48/238 14/39/239
f 26/40/240 33/71/241 66/48/242
f 23/38/243 1/36/244 13/37/245
f 23/38/246 65/35/247 1/36/248
f 19/34/249 63/74/250 11/33/251
f 2/25/252 63/74/253 19/34/254
f 20/32/255 37/45/256 12/31/257
f 20/32/258 62/51/259 37/45/260
f 21/30/261 7/64/262 10/29/263
f 21/30/264 39/65/265 7/64/266
f 25/28/267 31/75/268 16/41/269
f 8/27/270 31/75/271 25/28/272
f 5/73/273 6/61/274 68/101/275 69/100/276
f 6/61/277 27/26/278 70/102/279 68/101/280
f 27/26/281 28/55/282 71/103/283 70/102/284
f 28/55/285 5/73/286 69/100/287 71/103/288
f 45/53/289 4/72/290 43/80/291 44/90/292
f 57/43/293 6/61/294 4/72/295 45/53/296
f 58/97/297 59/79/298 5/73/299 60/78/300
f 5/73/301 59/79/302 50/82/303 3/57/304
