# This file uses centimeters as units for non-parametric coordinates.

v -1.672035 0.000000 3.368782
v 1.672035 0.000000 3.368782
v -1.672035 1.777439 3.368782
v 1.672035 1.777439 3.368782
v -1.672035 1.777439 -3.368782
v 1.672035 1.777439 -3.368782
v -1.672035 0.000000 -3.368782
v 1.672035 0.000000 -3.368782
v -1.029113 0.341726 3.368782
v 1.029113 0.341726 3.368782
v 1.029113 1.435713 3.368782
v -1.029113 1.435713 3.368782
v -1.029113 0.341726 5.157432
v 1.029113 0.341726 5.157432
v 1.029113 1.435713 5.157432
v -1.029113 1.435713 5.157432
vt 0.348767 0.402737
vt 0.348752 0.402425
vt 0.349684 0.402327
vt 0.349745 0.402629
vt 0.349692 0.402512
vt 0.349752 0.402816
vt 0.348781 0.402610
vt 0.348797 0.402924
vt 0.348778 0.402633
vt 0.348788 0.402826
vt 0.348760 0.402519
vt 0.348770 0.402711
vt 0.216818 0.319106
vt 0.216818 0.337893
vt 0.225525 0.319106
vt 0.225525 0.337893
vt 0.253091 0.277564
vt 0.263778 0.277564
vt 0.216818 0.337893
vt 0.225525 0.337893
vt 0.225525 0.319106
vt 0.216818 0.319106
vt 0.253091 0.272808
vt 0.263778 0.272808
vn 0.000000 0.000000 1.000000
vn 0.000000 0.000000 1.000000
vn 0.000000 0.000000 1.000000
vn 0.000000 0.000000 1.000000
vn 0.000000 1.000000 0.000000
vn 0.000000 1.000000 0.000000
vn 0.000000 1.000000 0.000000
vn 0.000000 1.000000 0.000000
vn 0.000000 0.000000 -1.000000
vn 0.000000 0.000000 -1.000000
vn 0.000000 0.000000 -1.000000
vn 0.000000 0.000000 -1.000000
vn 0.000000 -1.000000 0.000000
vn 0.000000 -1.000000 0.000000
vn 0.000000 -1.000000 0.000000
vn 0.000000 -1.000000 0.000000
vn 1.000000 0.000000 0.000000
vn 1.000000 0.000000 0.000000
vn 1.000000 0.000000 0.000000
vn 1.000000 0.000000 0.000000
vn -1.000000 0.000000 0.000000
vn -1.000000 0.000000 0.000000
vn -1.000000 0.000000 0.000000
vn -1.000000 0.000000 0.000000
vn 0.000000 0.000000 1.000000
vn 0.000000 0.000000 1.000000
vn 0.000000 0.000000 1.000000
vn 0.000000 0.000000 1.000000
vn -0.000000 0.000000 1.000000
vn -0.000000 0.000000 1.000000
vn -0.000000 0.000000 1.000000
vn -0.000000 0.000000 1.000000
vn 0.000000 0.000000 1.000000
vn 0.000000 0.000000 1.000000
vn 0.000000 0.000000 1.000000
vn 0.000000 0.000000 1.000000
vn 0.000000 0.000000 1.000000
vn 0.000000 0.000000 1.000000
vn 0.000000 0.000000 1.000000
vn 0.000000 0.000000 1.000000
vn 0.000000 -1.000000 0.000000
vn 0.000000 -1.000000 0.000000
vn 0.000000 -1.000000 0.000000
vn 0.000000 -1.000000 0.000000
vn 1.000000 0.000000 0.000000
vn 1.000000 0.000000 0.000000
vn 1.000000 0.000000 0.000000
vn 1.000000 0.000000 0.000000
vn 0.000000 1.000000 0.000000
vn 0.000000 1.000000 0.000000
vn 0.000000 1.000000 0.000000
vn 0.000000 1.000000 0.000000
vn -1.000000 0.000000 0.000000
vn -1.000000 0.000000 0.000000
vn -1.000000 0.000000 0.000000
vn -1.000000 0.000000 0.000000
s off
f 13/23/1 14/24/2 15/18/3 16/17/4
f 3/1/5 4/2/6 6/3/7 5/4/8
f 5/4/9 6/3/10 8/5/11 7/6/12
f 7/6/13 8/5/14 2/7/15 1/8/16
f 2/7/17 8/5/18 6/3/19 4/2/20
f 7/6/21 1/8/22 3/1/23 5/4/24
f 1/8/25 2/7/26 10/9/27 9/10/28
f 2/7/29 4/2/30 11/11/31 10/9/32
f 4/2/33 3/1/34 12/12/35 11/11/36
f 3/1/37 1/8/38 9/10/39 12/12/40
f 9/19/41 10/20/42 14/21/43 13/22/44
f 10/20/45 11/16/46 15/15/47 14/21/48
f 11/16/49 12/14/50 16/13/51 15/15/52
f 12/14/53 9/19/54 13/22/55 16/13/56
