# This file uses centimeters as units for non-parametric coordinates.

v -2.795155 -13.399891 -13.399883
v -2.795166 0.000001 -18.950317
v -2.795146 13.399895 -13.399883
v -2.795166 18.950312 0.000000
v -2.795146 13.399895 13.399883
v -2.795166 0.000001 18.950317
v -2.795155 -13.399894 13.399883
v -2.795166 -18.950312 0.000000
v 2.795146 -13.399891 -13.399883
v 2.795166 0.000001 -18.950317
v 2.795155 13.399894 -13.399883
v 2.795151 18.950312 0.000000
v 2.795155 13.399894 13.399883
v 2.795166 0.000001 18.950317
v 2.795147 -13.399894 13.399883
v 2.795156 -18.950274 0.000000
v -2.795166 0.000000 0.000000
v 2.795166 0.000001 0.000000
vt 0.102220 0.231408
vt 0.102222 0.231206
vt 0.101342 0.231201
vt 0.101342 0.231402
vt 0.102232 0.231065
vt 0.101318 0.231060
vt 0.102244 0.231068
vt 0.101281 0.231063
vt 0.102253 0.231233
vt 0.101253 0.231228
vt 0.102251 0.231463
vt 0.101253 0.231456
vt 0.102240 0.231600
vt 0.101282 0.231594
vt 0.102227 0.231570
vt 0.101319 0.231564
vt 0.102236 0.231326
vt 0.101300 0.231321
vn 0.000000 -0.382684 -0.923879
vn 0.000000 -0.382684 -0.923879
vn 0.000000 -0.382684 -0.923879
vn 0.000000 -0.382684 -0.923879
vn -0.000000 0.382684 -0.923879
vn -0.000000 0.382684 -0.923879
vn -0.000000 0.382684 -0.923879
vn -0.000000 0.382684 -0.923879
vn 0.000000 0.923879 -0.382684
vn 0.000000 0.923880 -0.382684
vn 0.000000 0.923880 -0.382684
vn 0.000000 0.923879 -0.382684
vn 0.000000 0.923880 0.382684
vn 0.000000 0.923879 0.382684
vn 0.000000 0.923879 0.382684
vn 0.000000 0.923880 0.382684
vn -0.000000 0.382684 0.923879
vn -0.000000 0.382684 0.923879
vn -0.000000 0.382684 0.923879
vn -0.000000 0.382684 0.923879
vn -0.000000 -0.382684 0.923879
vn -0.000000 -0.382684 0.923879
vn -0.000000 -0.382684 0.923879
vn -0.000000 -0.382684 0.923879
vn 0.000003 -0.923880 0.382683
vn 0.000003 -0.923880 0.382683
vn 0.000003 -0.923880 0.382683
vn 0.000003 -0.923880 0.382683
vn 0.000003 -0.923880 -0.382683
vn 0.000003 -0.923880 -0.382683
vn 0.000003 -0.923880 -0.382683
vn 0.000003 -0.923880 -0.382683
vn -1.000000 0.000000 0.000001
vn -1.000000 0.000000 0.000000
vn -1.000000 -0.000000 0.000000
vn -1.000000 -0.000000 0.000000
vn 1.000000 0.000001 0.000000
vn 1.000000 -0.000000 -0.000000
vn 1.000000 -0.000000 -0.000000
vn 1.000000 0.000001 -0.000000
vn -1.000000 -0.000000 -0.000000
vn -1.000000 -0.000000 0.000000
vn -1.000000 0.000000 0.000000
vn -1.000000 0.000000 -0.000001
vn -1.000000 0.000001 0.000000
vn -1.000000 0.000000 0.000000
vn -1.000000 0.000000 0.000001
vn -1.000000 0.000001 0.000001
vn -1.000000 0.000000 -0.000001
vn -1.000000 0.000000 0.000000
vn -1.000000 0.000001 0.000000
vn -1.000000 0.000001 -0.000001
vn 1.000000 -0.000001 -0.000000
vn 1.000000 -0.000000 -0.000000
vn 1.000000 -0.000000 -0.000000
vn 1.000000 -0.000001 -0.000000
vn 1.000000 -0.000000 0.000000
vn 1.000000 -0.000000 -0.000000
vn 1.000000 0.000001 0.000000
vn 1.000000 0.000001 0.000000
vn 1.000000 -0.000001 -0.000000
vn 1.000000 -0.000000 -0.000000
vn 1.000000 -0.000000 0.000000
vn 1.000000 -0.000001 0.000000
s off
f 1/1/1 2/2/2 10/3/3 9/4/4
f 2/2/5 3/5/6 11/6/7 10/3/8
f 3/5/9 4/7/10 12/8/11 11/6/12
f 4/7/13 5/9/14 13/10/15 12/8/16
f 5/9/17 6/11/18 14/12/19 13/10/20
f 6/11/21 7/13/22 15/14/23 14/12/24
f 7/13/25 8/15/26 16/16/27 15/14/28
f 8/15/29 1/1/30 9/4/31 16/16/32
f 6/11/33 17/17/34 8/15/35 7/13/36
f 12/8/37 18/18/38 10/3/39 11/6/40
f 1/1/41 8/15/42 17/17/43 2/2/44
f 4/7/45 17/17/46 6/11/47 5/9/48
f 2/2/49 17/17/50 4/7/51 3/5/52
f 9/4/53 10/3/54 18/18/55 16/16/56
f 14/12/57 18/18/58 12/8/59 13/10/60
f 16/16/61 18/18/62 14/12/63 15/14/64
