# This file uses centimeters as units for non-parametric coordinates.

v 4.463013 0.000000 -4.463013
v 0.000000 0.000000 -6.311646
v -4.463013 0.000000 -4.463013
v -6.311646 0.000000 0.000000
v -4.463013 0.000000 4.463013
v 0.000000 0.000000 6.311646
v 4.463013 0.000000 4.463013
v 6.311646 0.000000 0.000000
v 4.673340 12.922466 -4.673279
v 0.000000 12.922466 -6.609008
v -4.673218 12.922466 -4.673279
v -6.609008 12.922466 0.000000
v -4.673218 12.922466 4.673279
v 0.000000 12.922466 6.609008
v 4.673340 12.922466 4.673279
v 6.609008 12.922466 0.000000
v 0.000000 0.000000 0.000000
v 4.185303 12.922466 -4.185303
v 0.000000 12.922466 -5.918915
v -4.185303 12.922466 -4.185303
v -5.918945 12.922466 0.000000
v -4.185303 12.922466 4.185303
v 0.000000 12.922466 5.918915
v 4.185303 12.922466 4.185303
v 5.918945 12.922466 0.000000
v 3.943481 3.021339 -3.943481
v 0.000000 3.021339 -5.576904
v 0.000000 3.021339 0.000000
v -3.943481 3.021339 -3.943481
v -5.576904 3.021339 0.000000
v -3.943481 3.021339 3.943481
v 0.000000 3.021339 5.576904
v 3.943481 3.021339 3.943481
v 5.576904 3.021339 0.000000
vt 0.102083 0.354510
vt 0.102207 0.354386
vt 0.102172 0.353745
vt 0.102037 0.353864
vt 0.102456 0.354337
vt 0.102442 0.353699
vt 0.102695 0.354389
vt 0.102700 0.353749
vt 0.102790 0.354515
vt 0.102802 0.353869
vt 0.102677 0.354645
vt 0.102680 0.353993
vt 0.102414 0.354699
vt 0.102395 0.354045
vt 0.102165 0.354641
vt 0.102125 0.353990
vt 0.102436 0.354512
vt 0.102118 0.354363
vt 0.102227 0.354255
vt 0.102432 0.354365
vt 0.102451 0.354213
vt 0.102663 0.354258
vt 0.102747 0.354367
vt 0.102646 0.354480
vt 0.102413 0.354527
vt 0.102192 0.354477
vt 0.102197 0.353758
vt 0.102077 0.353864
vt 0.102440 0.353716
vt 0.102671 0.353761
vt 0.102762 0.353868
vt 0.102652 0.353980
vt 0.102398 0.354026
vt 0.102157 0.353977
vn 0.382597 -0.021255 -0.923671
vn 0.382597 -0.021255 -0.923671
vn 0.382597 -0.021255 -0.923671
vn 0.382597 -0.021255 -0.923671
vn -0.382597 -0.021255 -0.923671
vn -0.382597 -0.021255 -0.923671
vn -0.382597 -0.021255 -0.923671
vn -0.382597 -0.021255 -0.923671
vn -0.923671 -0.021255 -0.382597
vn -0.923671 -0.021255 -0.382597
vn -0.923671 -0.021255 -0.382597
vn -0.923671 -0.021255 -0.382597
vn -0.923671 -0.021255 0.382596
vn -0.923671 -0.021255 0.382596
vn -0.923671 -0.021255 0.382596
vn -0.923671 -0.021255 0.382596
vn -0.382597 -0.021255 0.923671
vn -0.382597 -0.021255 0.923671
vn -0.382597 -0.021255 0.923671
vn -0.382597 -0.021255 0.923671
vn 0.382597 -0.021255 0.923671
vn 0.382597 -0.021255 0.923671
vn 0.382597 -0.021255 0.923671
vn 0.382597 -0.021255 0.923671
vn 0.923671 -0.021255 0.382596
vn 0.923671 -0.021255 0.382596
vn 0.923671 -0.021255 0.382597
vn 0.923671 -0.021255 0.382596
vn 0.923671 -0.021255 -0.382597
vn 0.923671 -0.021255 -0.382596
vn 0.923671 -0.021255 -0.382597
vn 0.923671 -0.021255 -0.382596
vn 0.000000 -1.000000 0.000000
vn 0.000000 -1.000000 0.000000
vn 0.000000 -1.000000 0.000000
vn 0.000000 -1.000000 0.000000
vn 0.000000 -1.000000 0.000000
vn 0.000000 -1.000000 0.000000
vn 0.000000 -1.000000 0.000000
vn 0.000000 -1.000000 0.000000
vn 0.000000 -1.000000 0.000000
vn 0.000000 -1.000000 0.000000
vn 0.000000 -1.000000 0.000000
vn 0.000000 -1.000000 0.000000
vn 0.000000 -1.000000 0.000000
vn 0.000000 -1.000000 0.000000
vn 0.000000 -1.000000 0.000000
vn 0.000000 -1.000000 0.000000
vn 0.000000 -1.000000 0.000000
vn 0.000000 -1.000000 0.000000
vn 0.000000 -1.000000 0.000000
vn 0.000000 -1.000000 0.000000
vn 0.000000 -1.000000 0.000000
vn 0.000000 -1.000000 0.000000
vn 0.000000 -1.000000 0.000000
vn 0.000000 -1.000000 0.000000
vn 0.000000 1.000000 0.000000
vn 0.000000 1.000000 0.000000
vn 0.000000 1.000000 0.000000
vn 0.000000 1.000000 0.000000
vn 0.000000 1.000000 0.000000
vn 0.000000 1.000000 0.000000
vn 0.000000 1.000000 0.000000
vn 0.000000 1.000000 0.000000
vn 0.000000 1.000000 0.000000
vn 0.000000 1.000000 0.000000
vn 0.000000 1.000000 0.000000
vn 0.000000 1.000000 0.000000
vn 0.000000 1.000000 0.000000
vn 0.000000 1.000000 0.000000
vn 0.000000 1.000000 0.000000
vn 0.000000 1.000000 0.000000
vn 0.000000 1.000000 0.000000
vn 0.000000 1.000000 0.000000
vn 0.000000 1.000000 0.000000
vn 0.000000 1.000000 0.000000
vn 0.000000 1.000000 0.000000
vn 0.000000 1.000000 0.000000
vn 0.000000 1.000000 0.000000
vn 0.000000 1.000000 0.000000
vn 0.000000 1.000000 0.000000
vn 0.000000 1.000000 0.000000
vn 0.000000 1.000000 0.000000
vn 0.000000 1.000000 0.000000
vn 0.000000 1.000000 -0.000001
vn 0.000000 1.000000 -0.000001
vn 0.000000 1.000000 -0.000001
vn 0.000000 1.000000 -0.000001
vn 0.000000 1.000000 0.000000
vn 0.000000 1.000000 0.000000
vn 0.000000 1.000000 0.000000
vn 0.000000 1.000000 0.000000
vn 0.000000 1.000000 0.000000
vn 0.000000 1.000000 0.000000
vn 0.000000 1.000000 0.000000
vn 0.000000 1.000000 0.000000
vn 0.000000 1.000000 0.000001
vn 0.000000 1.000000 0.000001
vn 0.000000 1.000000 0.000001
vn 0.000000 1.000000 0.000001
vn 0.000000 1.000000 0.000000
vn 0.000000 1.000000 0.000000
vn 0.000000 1.000000 0.000000
vn 0.000000 1.000000 0.000000
vn 0.000000 1.000000 -0.000000
vn 0.000000 1.000000 -0.000000
vn 0.000000 1.000000 -0.000000
vn 0.000000 1.000000 -0.000000
vn 0.000000 1.000000 0.000000
vn 0.000000 1.000000 0.000000
vn 0.000000 1.000000 0.000000
vn 0.000000 1.000000 0.000000
vn -0.382488 0.031896 0.923410
vn -0.382488 0.031896 0.923410
vn -0.382488 0.031896 0.923410
vn -0.382488 0.031896 0.923410
vn 0.382489 0.031896 0.923409
vn 0.382489 0.031896 0.923409
vn 0.382489 0.031896 0.923409
vn 0.382489 0.031896 0.923409
vn 0.923409 0.031896 0.382489
vn 0.923409 0.031896 0.382489
vn 0.923409 0.031896 0.382489
vn 0.923409 0.031896 0.382489
vn 0.923409 0.031896 -0.382489
vn 0.923409 0.031896 -0.382489
vn 0.923409 0.031896 -0.382489
vn 0.923409 0.031896 -0.382489
vn 0.382489 0.031896 -0.923409
vn 0.382489 0.031896 -0.923409
vn 0.382489 0.031896 -0.923409
vn 0.382489 0.031896 -0.923409
vn -0.382487 0.031896 -0.923410
vn -0.382488 0.031896 -0.923410
vn -0.382488 0.031896 -0.923410
vn -0.382488 0.031896 -0.923410
vn -0.923410 0.031896 -0.382487
vn -0.923410 0.031896 -0.382487
vn -0.923410 0.031896 -0.382487
vn -0.923410 0.031896 -0.382487
vn -0.923410 0.031896 0.382487
vn -0.923410 0.031896 0.382487
vn -0.923410 0.031896 0.382487
vn -0.923410 0.031896 0.382487
s off
f 1/1/1 2/2/2 10/3/3 9/4/4
f 2/2/5 3/5/6 11/6/7 10/3/8
f 3/5/9 4/7/10 12/8/11 11/6/12
f 4/7/13 5/9/14 13/10/15 12/8/16
f 5/9/17 6/11/18 14/12/19 13/10/20
f 6/11/21 7/13/22 15/14/23 14/12/24
f 7/13/25 8/15/26 16/16/27 15/14/28
f 8/15/29 1/1/30 9/4/31 16/16/32
f 2/2/33 1/1/34 17/17/35
f 3/5/36 2/2/37 17/17/38
f 4/7/39 3/5/40 17/17/41
f 5/9/42 4/7/43 17/17/44
f 6/11/45 5/9/46 17/17/47
f 7/13/48 6/11/49 17/17/50
f 8/15/51 7/13/52 17/17/53
f 1/1/54 8/15/55 17/17/56
f 26/18/57 27/19/58 28/20/59
f 27/19/60 29/21/61 28/20/62
f 29/21/63 30/22/64 28/20/65
f 30/22/66 31/23/67 28/20/68
f 31/23/69 32/24/70 28/20/71
f 32/24/72 33/25/73 28/20/74
f 33/25/75 34/26/76 28/20/77
f 34/26/78 26/18/79 28/20/80
f 9/4/81 10/3/82 19/27/83 18/28/84
f 10/3/85 11/6/86 20/29/87 19/27/88
f 11/6/89 12/8/90 21/30/91 20/29/92
f 12/8/93 13/10/94 22/31/95 21/30/96
f 13/10/97 14/12/98 23/32/99 22/31/100
f 14/12/101 15/14/102 24/33/103 23/32/104
f 15/14/105 16/16/106 25/34/107 24/33/108
f 16/16/109 9/4/110 18/28/111 25/34/112
f 18/28/113 19/27/114 27/19/115 26/18/116
f 19/27/117 20/29/118 29/21/119 27/19/120
f 20/29/121 21/30/122 30/22/123 29/21/124
f 21/30/125 22/31/126 31/23/127 30/22/128
f 22/31/129 23/32/130 32/24/131 31/23/132
f 23/32/133 24/33/134 33/25/135 32/24/136
f 24/33/137 25/34/138 34/26/139 33/25/140
f 25/34/141 18/28/142 26/18/143 34/26/144
