# This file uses centimeters as units for non-parametric coordinates.

v -6.734802 0.000000 2.825806
v 6.049622 0.000000 6.049683
v -6.049561 0.000000 -6.049561
v 6.049622 0.000000 -6.049561
v 0.000000 -3.622012 -9.849487
v -0.685120 -3.622012 6.625732
v 9.849609 -3.622012 0.000122
v 0.000000 -6.786940 0.000122
v -9.849548 -3.622012 0.000122
v -0.511597 -2.857780 5.203125
v 5.254028 1.278093 4.784668
v 8.815308 -2.587612 0.004150
v -5.592102 0.250375 1.245361
v -8.641785 -3.101476 -0.153564
v 0.000000 -2.831309 -8.576416
v 4.776550 0.790708 -4.776489
v -4.776550 0.790701 -4.776489
v -0.015198 -4.824619 -0.124878
vt 0.380745 0.362806
vt 0.380745 0.362806
vt 0.380745 0.362806
vt 0.380745 0.362806
vt 0.380745 0.362806
vt 0.380745 0.362806
vt 0.380745 0.362806
vt 0.380745 0.362806
vt 0.380745 0.362806
vt 0.380745 0.362806
vt 0.380745 0.362806
vt 0.380745 0.362806
vt 0.380745 0.362806
vt 0.380745 0.362806
vt 0.380745 0.362806
vt 0.380745 0.362806
vt 0.380745 0.362806
vt 0.380745 0.362806
vt 0.380745 0.362806
vt 0.380745 0.362806
vt 0.380745 0.362806
vt 0.380745 0.362806
vt 0.380745 0.362806
vt 0.380745 0.362806
vt 0.380745 0.362806
vt 0.380745 0.362806
vn -0.427141 0.520663 -0.739230
vn -0.427141 0.520663 -0.739230
vn -0.427141 0.520663 -0.739230
vn 0.546828 -0.154067 -0.822947
vn 0.546828 -0.154067 -0.822947
vn 0.546828 -0.154068 -0.822947
vn -0.689624 0.171257 0.703626
vn -0.689624 0.171257 0.703626
vn -0.689624 0.171257 0.703626
vn 0.686296 0.160920 0.709297
vn 0.686296 0.160920 0.709297
vn 0.686296 0.160920 0.709297
vn 0.190103 0.955471 0.225691
vn 0.190103 0.955471 0.225691
vn 0.190103 0.955471 0.225691
vn -0.242477 0.944348 0.222290
vn -0.242477 0.944348 0.222290
vn -0.242477 0.944348 0.222290
vn -0.224611 0.907166 -0.355808
vn -0.224611 0.907166 -0.355808
vn -0.224611 0.907166 -0.355808
vn 0.186289 0.927211 -0.324925
vn 0.186289 0.927211 -0.324925
vn 0.186289 0.927211 -0.324925
vn 0.404590 -0.649980 0.643298
vn 0.404590 -0.649980 0.643298
vn 0.404590 -0.649980 0.643298
vn -0.581119 -0.127340 0.803794
vn -0.581119 -0.127340 0.803794
vn -0.581119 -0.127340 0.803794
vn 0.647417 -0.402122 -0.647417
vn 0.647417 -0.402122 -0.647417
vn 0.647417 -0.402122 -0.647417
vn -0.647421 -0.402117 -0.647417
vn -0.647421 -0.402117 -0.647417
vn -0.647421 -0.402117 -0.647417
vn -0.292539 -0.910408 -0.292537
vn -0.292539 -0.910408 -0.292537
vn -0.292539 -0.910408 -0.292537
vn 0.292537 -0.910409 -0.292537
vn 0.292537 -0.910409 -0.292537
vn 0.292537 -0.910409 -0.292537
vn 0.275102 -0.856148 0.437412
vn 0.275102 -0.856148 0.437412
vn 0.275102 -0.856148 0.437412
vn -0.281737 -0.876791 0.389694
vn -0.281737 -0.876791 0.389694
vn -0.281737 -0.876791 0.389694
vn -0.380492 0.691769 0.613743
vn -0.380492 0.691769 0.613744
vn -0.380492 0.691769 0.613744
vn -0.380492 0.691769 0.613744
vn 0.762203 0.643163 0.073402
vn 0.700684 0.711170 0.057255
vn 0.701000 0.710852 0.057336
vn 0.762203 0.643163 0.073402
vn 0.248678 0.879347 0.406089
vn 0.248678 0.879347 0.406089
vn 0.248678 0.879347 0.406089
vn 0.248678 0.879347 0.406089
vn -0.543982 0.730715 -0.412480
vn -0.543982 0.730715 -0.412480
vn -0.543982 0.730715 -0.412480
vn -0.543982 0.730715 -0.412480
vn 0.700684 0.711170 0.057255
vn 0.633636 0.772558 0.040742
vn 0.633636 0.772558 0.040742
vn 0.701000 0.710852 0.057336
vn -0.139492 0.808411 -0.571851
vn -0.000000 0.816394 -0.577496
vn 0.000000 0.816394 -0.577496
vn -0.139492 0.808411 -0.571851
vn -0.000000 0.816394 -0.577496
vn 0.139496 0.808412 -0.571848
vn 0.139496 0.808413 -0.571848
vn 0.000000 0.816394 -0.577496
vn -0.527407 0.825201 0.202202
vn -0.527407 0.825201 0.202202
vn -0.527407 0.825201 0.202202
vn -0.527407 0.825201 0.202202
s off
f 10/19/1 11/20/2 12/21/3
f 13/22/4 10/19/5 14/23/6
f 15/25/7 12/21/8 16/24/9
f 14/23/10 15/25/11 17/26/12
f 14/23/13 18/8/14 15/25/15
f 18/8/16 12/21/17 15/25/18
f 10/19/19 12/21/20 18/8/21
f 14/23/22 10/19/23 18/8/24
f 6/10/25 7/12/26 2/11/27
f 1/13/28 9/14/29 6/10/30
f 5/15/31 4/16/32 7/12/33
f 9/14/34 3/17/35 5/15/36
f 9/14/37 5/15/38 8/18/39
f 8/18/40 5/15/41 7/12/42
f 6/10/43 8/18/44 7/12/45
f 9/14/46 8/18/47 6/10/48
f 6/6/49 2/2/50 11/20/51 10/19/52
f 2/2/53 7/7/54 12/21/55 11/20/56
f 1/1/57 6/6/58 10/19/59 13/22/60
f 9/9/61 1/1/62 13/22/63 14/23/64
f 7/7/65 4/4/66 16/24/67 12/21/68
f 4/4/69 5/5/70 15/25/71 16/24/72
f 5/5/73 3/3/74 17/26/75 15/25/76
f 3/3/77 9/9/78 14/23/79 17/26/80
