# This file uses centimeters as units for non-parametric coordinates.

v -120.805809 -67.953278 5.326843
v 120.805809 -67.953278 5.326843
v -120.805809 67.953262 5.326843
v 120.805809 67.953262 5.326843
v -127.105812 74.253296 7.181763
v 127.105812 74.253296 7.181763
v 127.105812 -74.253281 7.181763
v -127.105812 -74.253281 7.181763
v -130.705811 77.853287 7.181763
v 130.705811 77.853287 7.181763
v 130.705811 77.853287 0.000000
v -130.705811 77.853287 0.000000
v -130.705811 -77.853279 0.000000
v 130.705811 -77.853279 0.000000
v 130.705811 -77.853279 7.181763
v -130.705811 -77.853279 7.181763
vt 0.080267 0.326227
vt 0.079267 0.326165
vt 0.079277 0.326156
vt 0.080267 0.326217
vt 0.080209 0.326741
vt 0.079328 0.326658
vt 0.079320 0.326670
vt 0.080209 0.326754
vt 0.080223 0.326259
vt 0.079309 0.326200
vt 0.079281 0.326179
vt 0.080251 0.326240
vt 0.079351 0.326641
vt 0.080176 0.326718
vt 0.080197 0.326742
vt 0.079330 0.326660
vt 0.000000 0.000000
vt 1.000000 0.000000
vt 1.000000 1.000000
vt 0.000000 1.000000
vn 0.000000 0.000000 1.000000
vn 0.000000 0.000000 1.000000
vn 0.000000 0.000000 1.000000
vn 0.000000 0.000000 1.000000
vn 0.000000 1.000000 0.000000
vn 0.000000 1.000000 0.000000
vn 0.000000 1.000000 0.000000
vn 0.000000 1.000000 0.000000
vn 0.000000 -1.000000 0.000000
vn 0.000000 -1.000000 0.000000
vn 0.000000 -1.000000 0.000000
vn 0.000000 -1.000000 0.000000
vn 1.000000 0.000000 0.000000
vn 1.000000 0.000000 0.000000
vn 1.000000 0.000000 0.000000
vn 1.000000 0.000000 0.000000
vn -1.000000 0.000000 -0.000000
vn -1.000000 0.000000 -0.000000
vn -1.000000 0.000000 -0.000000
vn -1.000000 0.000000 -0.000000
vn 0.000000 -0.282444 0.959284
vn 0.000000 -0.282444 0.959284
vn 0.000000 -0.282444 0.959284
vn 0.000000 -0.282444 0.959284
vn 0.000000 0.282445 0.959283
vn 0.000000 0.282445 0.959283
vn 0.000000 0.282445 0.959283
vn 0.000000 0.282445 0.959283
vn -0.282445 0.000000 0.959283
vn -0.282445 0.000000 0.959283
vn -0.282445 0.000000 0.959283
vn -0.282445 0.000000 0.959283
vn 0.282445 0.000000 0.959283
vn 0.282445 0.000000 0.959283
vn 0.282445 0.000000 0.959283
vn 0.282445 0.000000 0.959283
vn 0.000000 0.000000 1.000000
vn 0.000000 0.000000 1.000000
vn 0.000000 0.000000 1.000000
vn 0.000000 0.000000 1.000000
vn 0.000000 0.000000 1.000000
vn 0.000000 0.000000 1.000000
vn 0.000000 0.000000 1.000000
vn 0.000000 0.000000 1.000000
vn 0.000000 0.000000 -1.000000
vn 0.000000 0.000000 -1.000000
vn 0.000000 0.000000 -1.000000
vn 0.000000 0.000000 -1.000000
vn -0.000000 0.000000 1.000000
vn -0.000000 0.000000 1.000000
vn -0.000000 0.000000 1.000000
vn -0.000000 0.000000 1.000000
vn -0.000000 0.000000 1.000000
vn -0.000000 0.000000 1.000000
vn -0.000000 0.000000 1.000000
vn -0.000000 0.000000 1.000000
s off
f 1/17/1 2/18/2 4/19/3 3/20/4
f 9/1/5 10/2/6 11/3/7 12/4/8
f 13/5/9 14/6/10 15/7/11 16/8/12
f 15/7/13 14/6/14 11/3/15 10/2/16
f 13/5/17 16/8/18 9/1/19 12/4/20
f 3/9/21 4/10/22 6/11/23 5/12/24
f 2/13/25 1/14/26 8/15/27 7/16/28
f 4/10/29 2/13/30 7/16/31 6/11/32
f 1/14/33 3/9/34 5/12/35 8/15/36
f 5/12/37 6/11/38 10/2/39 9/1/40
f 7/16/41 8/15/42 16/8/43 15/7/44
f 13/5/45 12/4/46 11/3/47 14/6/48
f 6/11/49 7/16/50 15/7/51 10/2/52
f 8/15/53 5/12/54 9/1/55 16/8/56
