# This file uses centimeters as units for non-parametric coordinates.

v -1.344511 -0.340123 -7.752090
v 4.239794 3.015949 -6.306847
v -3.644251 19.326527 0.717114
v -0.514289 19.326527 0.717114
v -3.644251 19.828688 -0.317307
v -0.514289 19.828688 -0.317307
v -1.344511 0.162035 -8.786526
v 4.239794 3.518106 -7.341267
v 2.413951 0.162035 -8.786526
v 2.413951 -0.340123 -7.752090
v -22.213392 0.690363 8.786530
v 22.213409 0.690363 8.786530
v -22.213392 27.772266 1.663133
v 22.213409 27.772266 1.663133
v -22.213392 26.783758 -2.095002
v 22.213409 26.783758 -2.095002
v -22.213392 -0.298147 5.028396
v 22.213409 -0.298147 5.028396
v -19.730230 3.316329 8.095811
v 19.730247 3.316329 8.095811
v 19.730247 25.146303 2.353837
v -19.730230 25.146303 2.353837
v -19.614597 2.915347 6.119160
v 19.614670 2.915346 6.119159
v 19.614670 24.522827 0.435703
v -19.614597 24.522827 0.435703
vt 0.079992 0.253280
vt 0.080076 0.253331
vt 0.080181 0.253249
vt 0.080349 0.252690
vt 0.080273 0.252668
vt 0.080326 0.252671
vt 0.080250 0.252649
vt 0.080154 0.253234
vt 0.080049 0.253317
vt 0.079965 0.253266
vt 0.317758 0.209681
vt 0.399403 0.209681
vt 0.399403 0.253876
vt 0.317758 0.253876
vt 0.080126 0.252485
vt 0.080879 0.252653
vt 0.080820 0.252665
vt 0.080071 0.252492
vt 0.080770 0.253485
vt 0.080104 0.253142
vt 0.080823 0.253462
vt 0.080153 0.253128
vt 0.080778 0.253398
vt 0.080182 0.253110
vt 0.080820 0.252692
vt 0.080160 0.252533
vt 0.080760 0.253399
vt 0.080171 0.253112
vt 0.080800 0.252698
vt 0.080148 0.252539
vn 0.000001 -0.395522 0.918456
vn 0.000001 -0.395522 0.918456
vn 0.000001 -0.395522 0.918456
vn 0.000001 -0.395522 0.918457
vn 0.000001 -0.395522 0.918456
vn 0.000000 0.899601 0.436713
vn 0.000000 0.899601 0.436713
vn 0.000000 0.899601 0.436713
vn 0.000000 0.899601 0.436713
vn 0.000001 0.395523 -0.918456
vn 0.000001 0.395523 -0.918456
vn 0.000001 0.395523 -0.918456
vn 0.000001 0.395523 -0.918456
vn 0.000001 0.395523 -0.918456
vn 0.000000 -0.899605 -0.436705
vn 0.553692 -0.749120 -0.363655
vn 0.540379 -0.756947 -0.367454
vn 0.000000 -0.899605 -0.436705
vn 0.965918 0.232859 0.113041
vn 0.965918 0.232859 0.113041
vn 0.965918 0.232859 0.113041
vn 0.965918 0.232859 0.113041
vn -0.994270 -0.096163 -0.046682
vn -0.994270 -0.096163 -0.046682
vn -0.994270 -0.096163 -0.046682
vn -0.994270 -0.096163 -0.046682
vn 0.540379 -0.756947 -0.367454
vn 0.553692 -0.749120 -0.363655
vn 0.894359 -0.402438 -0.195361
vn 0.894359 -0.402438 -0.195361
vn 0.000000 0.254379 0.967105
vn 0.000000 0.254379 0.967105
vn 0.000000 0.254379 0.967105
vn 0.000000 0.254379 0.967105
vn 0.000000 0.967105 -0.254379
vn 0.000000 0.967105 -0.254379
vn 0.000000 0.967105 -0.254379
vn 0.000000 0.967105 -0.254379
vn 0.000000 -0.254379 -0.967105
vn 0.000000 -0.254379 -0.967105
vn 0.000000 -0.254379 -0.967105
vn 0.000000 -0.254379 -0.967105
vn 0.000000 -0.967105 0.254379
vn 0.000000 -0.967105 0.254379
vn 0.000000 -0.967105 0.254379
vn 0.000000 -0.967105 0.254379
vn 1.000000 0.000000 0.000000
vn 1.000000 0.000000 0.000000
vn 1.000000 0.000000 0.000000
vn 1.000000 0.000000 0.000000
vn -1.000000 0.000000 0.000000
vn -1.000000 0.000000 0.000000
vn -1.000000 0.000000 0.000000
vn -1.000000 0.000000 0.000000
vn 0.000000 0.254382 0.967104
vn 0.000000 0.254382 0.967104
vn 0.000000 0.254382 0.967104
vn 0.000000 0.254382 0.967104
vn -0.000003 0.254379 0.967105
vn -0.000003 0.254379 0.967105
vn -0.000003 0.254379 0.967105
vn -0.000003 0.254379 0.967105
vn 0.000000 0.254377 0.967105
vn 0.000000 0.254377 0.967105
vn 0.000000 0.254377 0.967105
vn 0.000000 0.254377 0.967105
vn 0.000003 0.254379 0.967105
vn 0.000003 0.254379 0.967105
vn 0.000003 0.254379 0.967105
vn 0.000003 0.254379 0.967105
vn 0.000000 0.980038 -0.198810
vn 0.000000 0.980038 -0.198810
vn 0.000000 0.980038 -0.198810
vn 0.000000 0.980038 -0.198810
vn -0.998357 0.014577 0.055418
vn -0.998357 0.014577 0.055418
vn -0.998357 0.014577 0.055418
vn -0.998357 0.014577 0.055418
vn -0.000000 -0.951022 0.309124
vn -0.000000 -0.951022 0.309124
vn -0.000000 -0.951022 0.309124
vn -0.000000 -0.951022 0.309124
vn 0.998355 0.014584 0.055445
vn 0.998355 0.014584 0.055445
vn 0.998355 0.014584 0.055445
vn 0.998355 0.014584 0.055445
s off
f 1/1/1 10/2/2 2/3/3 4/4/4 3/5/5
f 3/5/6 4/4/7 6/6/8 5/7/9
f 5/7/10 6/6/11 8/8/12 9/9/13 7/10/14
f 7/10/15 9/9/16 10/2/17 1/1/18
f 2/3/19 8/8/20 6/6/21 4/4/22
f 7/10/23 1/1/24 3/5/25 5/7/26
f 10/2/27 9/9/28 8/8/29 2/3/30
f 23/11/31 24/12/32 25/13/33 26/14/34
f 13/15/35 14/16/36 16/17/37 15/18/38
f 15/18/39 16/17/40 18/19/41 17/20/42
f 17/20/43 18/19/44 12/21/45 11/22/46
f 12/21/47 18/19/48 16/17/49 14/16/50
f 17/20/51 11/22/52 13/15/53 15/18/54
f 11/22/55 12/21/56 20/23/57 19/24/58
f 12/21/59 14/16/60 21/25/61 20/23/62
f 14/16/63 13/15/64 22/26/65 21/25/66
f 13/15/67 11/22/68 19/24/69 22/26/70
f 19/24/71 20/23/72 24/27/73 23/28/74
f 20/23/75 21/25/76 25/29/77 24/27/78
f 21/25/79 22/26/80 26/30/81 25/29/82
f 22/26/83 19/24/84 23/28/85 26/30/86
