# This file uses centimeters as units for non-parametric coordinates.

v -11.661377 13.039257 2.642597
v -11.661377 13.039257 0.000000
v -11.661377 -13.039257 2.642597
v -11.661377 -13.039257 0.000000
v 11.661377 -13.039257 0.000000
v 11.661377 13.039257 0.000000
v 11.661377 13.039257 2.642597
v 11.661377 -13.039257 2.642597
vt 0.000783 0.062216
vt 0.000783 0.062216
vt 0.000783 0.119280
vt 0.000783 0.119280
vt 0.097555 0.035174
vt 0.097675 0.034903
vt 0.097683 0.035215
vt 0.097568 0.035487
vt 0.049853 0.119280
vt 0.002006 0.118494
vt 0.049853 0.062216
vt 0.097140 0.035653
vt 0.098068 0.035763
vt 0.098029 0.035843
vt 0.097114 0.035733
vt 0.097067 0.035207
vt 0.097086 0.035128
vt 0.002001 0.118492
vt 0.002002 0.118492
vt 0.002007 0.118493
vn -1.000000 0.000000 0.000000
vn -1.000000 0.000000 0.000000
vn -1.000000 0.000000 0.000000
vn -1.000000 0.000000 0.000000
vn 0.000000 0.000000 -1.000000
vn 0.000000 0.000000 -1.000000
vn 0.000000 0.000000 -1.000000
vn 0.000000 0.000000 -1.000000
vn 0.000000 1.000000 0.000000
vn 0.000000 1.000000 0.000000
vn 0.000000 1.000000 0.000000
vn 0.000000 1.000000 0.000000
vn 0.000000 0.000000 1.000000
vn 0.000000 0.000000 1.000000
vn 0.000000 0.000000 1.000000
vn 0.000000 0.000000 1.000000
vn 0.000000 -1.000000 0.000000
vn 0.000000 -1.000000 0.000000
vn 0.000000 -1.000000 0.000000
vn 0.000000 -1.000000 0.000000
vn 1.000000 0.000000 0.000000
vn 1.000000 0.000000 0.000000
vn 1.000000 0.000000 0.000000
vn 1.000000 0.000000 0.000000
s off
f 4/1/1 3/2/2 1/3/3 2/4/4
f 2/5/5 6/6/6 5/7/7 4/8/8
f 1/10/9 7/18/10 6/19/11 2/20/12
f 3/2/13 8/11/14 7/9/15 1/3/16
f 8/12/17 3/13/18 4/14/19 5/15/20
f 6/16/21 7/17/22 8/12/23 5/15/24
