# This file uses centimeters as units for non-parametric coordinates.

v -10.035735 -0.000001 8.668579
v 6.030760 -0.000001 8.668579
v -10.035735 2.520597 8.668579
v 6.030760 2.520597 8.668579
v 9.422934 2.520597 -8.921242
v 9.422934 -0.000001 -8.921242
v -9.706414 2.520597 7.247772
v 4.824509 2.520597 7.247772
v 8.007653 2.520597 -8.876823
v 8.007653 -0.000001 -8.876823
v 4.824509 -0.000001 7.247772
v -9.706414 -0.000001 7.247772
v 6.850472 2.520597 5.414932
v 8.553036 2.520597 6.267426
v 8.553036 -0.000001 6.267426
v 6.850472 -0.000001 5.414932
v -8.581816 5.764313 7.237915
v 6.606458 5.764313 8.843872
v -8.581816 7.108908 7.237915
v 6.606458 7.108908 8.843872
v 8.583143 7.108908 -9.003319
v 8.583143 5.764313 -9.003319
v 0.116321 5.764313 8.203522
v -0.394804 7.108908 8.153091
v 1.112379 7.108908 -3.575600
v 1.196589 5.764313 -3.654320
v 7.421533 7.108906 0.583115
v 7.435121 5.764313 0.445396
v 5.250969 5.764318 -8.931831
v 1.411594 5.764296 -6.304893
v 1.368839 7.108889 -6.264923
v 5.250969 7.108912 -8.931839
v 9.554003 5.764277 -1.718842
v 9.547098 7.108871 -1.648972
v 10.035722 5.764352 -6.601204
v 10.035723 7.108946 -6.601227
v -3.613996 5.764317 -2.113358
v -3.767632 7.108908 -1.969704
v -8.531373 5.764299 4.655380
v -8.531373 7.108895 4.655380
v -7.155163 5.764304 9.408997
v -2.419348 5.764307 9.876251
v -2.678797 7.108901 9.850677
v -7.155163 7.108900 9.409012
v 2.118291 5.764313 9.953735
v 1.858861 7.108908 9.928131
v 5.412526 5.764313 10.278748
v 5.412526 7.108908 10.278748
v 9.985847 5.764357 2.801193
v 9.565248 5.764282 7.064056
v 9.978956 7.108949 2.871063
v 9.565250 7.108878 7.064041
v -8.347470 2.520599 6.472702
v 6.606467 2.520599 8.843872
v -8.347470 4.142438 6.472702
v 6.606467 4.142438 8.843872
v 7.517745 4.142438 -8.363358
v 7.517745 2.520599 -8.363358
v -2.920102 2.520599 10.624710
v -2.876328 4.142438 10.629044
v 9.780776 4.142438 -0.794357
v 9.785528 2.520599 -0.842522
v 6.748919 2.520599 -9.185486
v -9.116300 2.520599 5.650528
v -9.116300 4.142438 5.650528
v 6.748919 4.142438 -9.185486
v -7.667089 4.142438 9.915619
v 9.109196 4.142438 8.039993
v -7.667089 5.764277 9.915619
v 9.109196 5.764277 8.039993
v 7.132395 5.764277 -10.050003
v 7.132395 4.142438 -10.050003
v 6.302619 4.142438 -10.629013
v -8.496866 4.142438 9.336594
v -8.496866 5.764277 9.336594
v 6.302619 5.764277 -10.629013
v -10.035735 7.108911 8.668579
v 6.030760 7.108911 8.668579
v -10.035735 9.629506 8.668579
v 6.030760 9.629506 8.668579
v 9.422934 9.629506 -8.921242
v 9.422934 7.108911 -8.921242
v -9.706414 9.629506 7.247772
v 4.824509 9.629506 7.247772
v 8.007653 9.629506 -8.876823
v 8.007653 7.108911 -8.876823
v 4.824509 7.108911 7.247772
v -9.706414 7.108911 7.247772
v 6.850472 9.629506 5.414932
v 8.553036 9.629506 6.267426
v 8.553036 7.108911 6.267426
v 6.850472 7.108911 5.414932
v 2.098278 15.031250 0.330994
v 0.694340 14.968937 1.271271
v 0.285561 13.588593 1.077950
v 1.075813 12.708439 0.234856
v 2.311852 13.765518 -0.249290
v 4.885994 13.749168 4.414749
v 3.482109 13.686874 5.355026
v 3.073334 12.306530 5.161713
v 3.863514 11.426400 4.318710
v 5.099621 12.483456 3.834473
v 1.158413 14.206001 0.343575
v 4.246746 12.773449 4.866318
v 4.414734 12.717276 1.695343
v 4.054096 14.854387 2.675186
v 1.767052 14.790138 4.219711
v 1.076851 12.459541 3.893295
v 2.411018 10.973483 2.469879
v 2.087168 2.156354 2.766953
v 2.841206 2.159772 2.206116
v 2.459222 16.616726 3.355286
v 3.213260 16.620140 2.794434
v 2.396564 16.651787 2.533096
v 2.024509 2.191417 1.944794
vt 0.026940 0.329063
vt 0.026901 0.328648
vt 0.026896 0.328630
vt 0.026935 0.329051
vt 0.038330 0.379147
vt 0.038262 0.378826
vt 0.038395 0.378697
vt 0.039134 0.378997
vt 0.027896 0.328947
vt 0.027885 0.328960
vt 0.039124 0.379039
vt 0.038396 0.378742
vt 0.038265 0.378869
vt 0.038332 0.379187
vt 0.027070 0.328468
vt 0.027073 0.328488
vt 0.026964 0.328675
vt 0.027000 0.329052
vt 0.027115 0.328536
vt 0.027833 0.328961
vt 0.027823 0.328975
vt 0.027117 0.328556
vt 0.027004 0.329063
vt 0.026968 0.328693
vt 0.143110 0.304030
vt 0.142977 0.303995
vt 0.142982 0.303937
vt 0.143108 0.303960
vt 0.143108 0.303960
vt 0.142982 0.303937
vt 0.143314 0.303930
vt 0.143512 0.303945
vt 0.143177 0.303958
vt 0.143319 0.303986
vt 0.142884 0.303970
vt 0.143177 0.303958
vt 0.143171 0.303911
vt 0.142882 0.303919
vt 0.143512 0.303945
vt 0.143345 0.303980
vt 0.143342 0.303926
vt 0.143512 0.303902
vt 0.142982 0.303937
vt 0.142977 0.303995
vt 0.142884 0.303970
vt 0.142882 0.303919
vt 0.142882 0.303919
vt 0.143171 0.303911
vt 0.142977 0.303995
vt 0.143110 0.304030
vt 0.143257 0.303939
vt 0.143267 0.303997
vt 0.143110 0.304030
vt 0.143108 0.303960
vt 0.142884 0.303970
vt 0.143171 0.303911
vt 0.143177 0.303958
vt 0.143512 0.303945
vt 0.143512 0.303902
vt 0.143512 0.303902
vt 0.138200 0.493041
vt 0.137956 0.492909
vt 0.137938 0.492858
vt 0.138183 0.492992
vt 0.138500 0.492354
vt 0.138883 0.492340
vt 0.138893 0.492387
vt 0.138516 0.492401
vt 0.138037 0.492591
vt 0.138020 0.492543
vt 0.138938 0.492400
vt 0.138249 0.493058
vt 0.138232 0.493008
vt 0.138927 0.492352
vt 0.215590 0.473149
vt 0.215364 0.473072
vt 0.215362 0.473021
vt 0.215589 0.473080
vt 0.215992 0.472997
vt 0.215992 0.473040
vt 0.215992 0.473040
vt 0.215590 0.473149
vt 0.215589 0.473080
vt 0.215992 0.472997
vt 0.026940 0.329063
vt 0.026901 0.328648
vt 0.026896 0.328630
vt 0.026935 0.329051
vt 0.038330 0.379147
vt 0.038262 0.378826
vt 0.038395 0.378697
vt 0.039134 0.378997
vt 0.039124 0.379039
vt 0.038396 0.378742
vt 0.038265 0.378869
vt 0.038332 0.379187
vt 0.027070 0.328468
vt 0.027073 0.328488
vt 0.027885 0.328960
vt 0.027896 0.328947
vt 0.026964 0.328675
vt 0.027000 0.329052
vt 0.027833 0.328961
vt 0.027115 0.328536
vt 0.027117 0.328556
vt 0.027823 0.328975
vt 0.027004 0.329063
vt 0.026968 0.328693
vt 0.176076 0.257259
vt 0.176030 0.257337
vt 0.175783 0.257585
vt 0.175814 0.257529
vt 0.176241 0.257776
vt 0.175905 0.257842
vt 0.176407 0.257986
vt 0.176008 0.257965
vt 0.176281 0.257615
vt 0.175938 0.257739
vt 0.176566 0.257198
vt 0.176581 0.257149
vt 0.176702 0.257306
vt 0.176691 0.257457
vt 0.176783 0.257586
vt 0.176700 0.257364
vt 0.175832 0.257734
vt 0.047656 0.352284
vt 0.047646 0.352257
vt 0.047644 0.351287
vt 0.047654 0.351309
vt 0.047720 0.351305
vt 0.047718 0.352280
vn 0.000000 0.000000 1.000000
vn 0.000000 0.000000 1.000000
vn 0.000000 0.000000 1.000000
vn 0.000000 0.000000 1.000000
vn 0.000000 1.000000 0.000000
vn 0.000000 1.000000 0.000000
vn 0.000000 1.000000 0.000000
vn 0.000000 1.000000 0.000000
vn 0.000000 -1.000000 0.000000
vn 0.000000 -1.000000 0.000000
vn 0.000000 -1.000000 0.000000
vn 0.000000 -1.000000 0.000000
vn 0.981908 0.000000 0.189360
vn 0.981908 0.000000 0.189360
vn 0.998364 0.000000 0.057179
vn 0.998364 0.000000 0.057179
vn -0.673150 0.000000 -0.739506
vn -0.673150 0.000000 -0.739506
vn -0.673150 0.000000 -0.739506
vn -0.673150 0.000000 -0.739506
vn 0.000000 1.000000 -0.000000
vn 0.000000 1.000000 -0.000000
vn 0.000000 1.000000 -0.000000
vn 0.000000 1.000000 -0.000000
vn 0.000000 1.000000 0.000000
vn 0.000000 1.000000 0.000000
vn 0.000000 1.000000 0.000000
vn 0.000000 1.000000 0.000000
vn 0.000000 -1.000000 0.000000
vn 0.000000 -1.000000 0.000000
vn 0.000000 -1.000000 0.000000
vn 0.000000 -1.000000 0.000000
vn 0.000000 -1.000000 0.000000
vn 0.000000 -1.000000 0.000000
vn 0.000000 -1.000000 0.000000
vn 0.000000 -1.000000 0.000000
vn -0.974174 0.000000 -0.225798
vn -0.974174 0.000000 -0.225798
vn -0.974174 0.000000 -0.225798
vn -0.974174 0.000000 -0.225798
vn -0.031370 0.000000 -0.999508
vn -0.031370 0.000000 -0.999508
vn -0.031370 0.000000 -0.999508
vn -0.031370 0.000000 -0.999508
vn 0.000000 1.000000 0.000000
vn 0.000000 1.000000 0.000000
vn 0.000000 1.000000 0.000000
vn 0.000000 1.000000 0.000000
vn 0.689502 0.000000 0.724283
vn 0.981908 0.000000 0.189360
vn 0.981908 0.000000 0.189360
vn 0.689502 0.000000 0.724283
vn 0.000000 -1.000000 0.000000
vn 0.000000 -1.000000 0.000000
vn 0.000000 -1.000000 0.000000
vn 0.000000 -1.000000 0.000000
vn -0.098188 -0.000015 0.995168
vn -0.098188 -0.000015 0.995168
vn -0.098188 -0.000015 0.995168
vn -0.098188 -0.000015 0.995168
vn -0.000001 1.000000 0.000000
vn 0.000000 1.000000 0.000000
vn -0.000000 1.000000 -0.000000
vn 0.000000 -1.000000 0.000000
vn 0.000000 -1.000000 -0.000000
vn 0.000000 -1.000000 0.000000
vn 0.995168 -0.000002 0.098189
vn 0.995168 -0.000002 0.098189
vn 0.995168 -0.000002 0.098189
vn 0.995168 -0.000002 0.098189
vn -0.565461 0.003266 -0.824769
vn -0.565461 0.003266 -0.824769
vn -0.565461 0.003266 -0.824769
vn -0.565461 0.003266 -0.824769
vn -0.098186 0.000003 0.995168
vn -0.098186 0.000003 0.995168
vn -0.098186 0.000003 0.995168
vn -0.098186 0.000003 0.995168
vn -0.000000 1.000000 -0.000000
vn 0.000000 1.000000 0.000000
vn -0.000000 1.000000 0.000001
vn -0.000000 1.000000 0.000000
vn 0.000000 -1.000000 0.000000
vn 0.000000 -1.000000 -0.000000
vn 0.000001 -1.000000 -0.000000
vn -0.810364 -0.015008 -0.585735
vn -0.810364 -0.015008 -0.585735
vn -0.810364 -0.015008 -0.585735
vn -0.810364 -0.015008 -0.585735
vn 0.000000 -1.000000 0.000000
vn 0.000000 -1.000000 -0.000000
vn 0.000000 -1.000000 -0.000001
vn 0.000000 -1.000000 -0.000000
vn 0.995168 0.000005 0.098189
vn 0.995168 0.000005 0.098189
vn 0.995168 0.000005 0.098189
vn 0.995168 0.000005 0.098189
vn -0.000000 1.000000 -0.000000
vn -0.000000 1.000000 0.000000
vn 0.000000 1.000000 0.000000
vn 0.000003 -1.000000 0.000001
vn 0.000003 -1.000000 0.000001
vn 0.000003 -1.000000 0.000001
vn 0.000003 -1.000000 0.000001
vn -0.995199 -0.043108 -0.087867
vn -0.995199 -0.043108 -0.087867
vn -0.995199 -0.043108 -0.087867
vn -0.995199 -0.043108 -0.087867
vn -0.000003 1.000000 -0.000002
vn -0.000003 1.000000 -0.000002
vn -0.000003 1.000000 -0.000002
vn -0.000003 1.000000 -0.000002
vn -0.021448 -0.000003 -0.999770
vn -0.021448 -0.000003 -0.999770
vn -0.021448 -0.000003 -0.999770
vn -0.021448 -0.000003 -0.999770
vn 0.718592 -0.048079 0.693768
vn 0.718592 -0.048079 0.693768
vn 0.718592 -0.048079 0.693768
vn 0.718592 -0.048079 0.693768
vn 0.000001 -1.000000 -0.000005
vn 0.000001 -1.000000 -0.000005
vn 0.000001 -1.000000 -0.000005
vn 0.000001 -1.000000 -0.000005
vn 0.855709 -0.000004 -0.517457
vn 0.855709 -0.000004 -0.517457
vn 0.855709 -0.000004 -0.517457
vn 0.855709 -0.000004 -0.517457
vn -0.000001 1.000000 0.000005
vn -0.000001 1.000000 0.000005
vn -0.000001 1.000000 0.000005
vn -0.000001 1.000000 0.000005
vn -0.308450 0.051264 -0.949858
vn -0.308450 0.051264 -0.949858
vn -0.308450 0.051264 -0.949858
vn -0.308450 0.051264 -0.949858
vn 0.000000 -1.000000 0.000000
vn 0.000001 -1.000000 -0.000000
vn 0.000002 -1.000000 0.000001
vn 0.000002 -1.000000 0.000001
vn -0.999809 0.000000 -0.019529
vn -0.999809 0.000000 -0.019529
vn -0.999809 0.000000 -0.019529
vn -0.999809 0.000000 -0.019529
vn -0.000001 1.000000 0.000000
vn -0.000000 1.000000 -0.000000
vn -0.000002 1.000000 -0.000001
vn -0.000002 1.000000 -0.000001
vn 0.000001 -1.000000 -0.000000
vn 0.000000 -1.000000 -0.000000
vn 0.000001 -1.000000 -0.000004
vn 0.000001 -1.000000 -0.000004
vn 0.563266 0.184167 0.805490
vn 0.563266 0.184167 0.805490
vn 0.563266 0.184167 0.805490
vn 0.563266 0.184167 0.805490
vn 0.000000 1.000000 0.000000
vn -0.000001 1.000000 0.000000
vn -0.000000 1.000000 0.000004
vn -0.000000 1.000000 0.000004
vn -0.835717 -0.000003 0.549161
vn -0.835717 -0.000003 0.549161
vn -0.835717 -0.000003 0.549161
vn -0.835717 -0.000003 0.549161
vn -0.629815 -0.158969 0.760304
vn -0.629815 -0.158969 0.760304
vn -0.629815 -0.158969 0.760304
vn -0.629815 -0.158969 0.760304
vn 0.000000 -1.000000 -0.000000
vn 0.000000 -1.000000 -0.000001
vn 0.000000 -1.000000 0.000000
vn 0.000000 -1.000000 0.000000
vn 0.768695 0.000000 0.639616
vn 0.768695 0.000000 0.639616
vn 0.768695 0.000000 0.639616
vn 0.768695 0.000000 0.639616
vn -0.000000 1.000000 0.000001
vn 0.000000 1.000000 0.000000
vn 0.000000 1.000000 0.000000
vn 0.000000 1.000000 0.000000
vn 0.000000 -1.000000 -0.000001
vn 0.000000 -1.000000 -0.000000
vn 0.000003 -1.000000 -0.000006
vn 0.000003 -1.000000 -0.000006
vn 0.671371 0.062121 -0.738514
vn 0.671371 0.062121 -0.738514
vn 0.671371 0.062121 -0.738514
vn 0.671371 0.062121 -0.738514
vn -0.000000 1.000000 0.000000
vn -0.000000 1.000000 0.000001
vn -0.000003 1.000000 0.000005
vn -0.000003 1.000000 0.000005
vn 0.515464 0.000005 0.856911
vn 0.515464 0.000005 0.856911
vn 0.515464 0.000005 0.856911
vn 0.515464 0.000005 0.856911
vn -0.624827 0.006125 0.780739
vn -0.163256 0.000885 0.986583
vn -0.150003 0.000703 0.988685
vn -0.624827 0.006125 0.780739
vn 0.000000 1.000000 -0.000000
vn 0.000000 1.000000 0.000000
vn 0.000000 1.000000 0.000000
vn 0.000000 1.000000 -0.000000
vn 0.000000 -1.000000 0.000000
vn 0.000000 -1.000000 0.000000
vn 0.000000 -1.000000 0.000000
vn 0.000000 -1.000000 0.000000
vn 0.949971 -0.003246 0.312323
vn 0.998880 0.000761 0.047300
vn 0.998291 0.000594 0.058436
vn 0.949971 -0.003246 0.312323
vn -0.683019 0.000000 -0.730401
vn -0.683019 0.000000 -0.730401
vn -0.683019 0.000000 -0.730401
vn -0.683019 0.000000 -0.730401
vn -0.150003 0.000703 0.988685
vn -0.163256 0.000885 0.986583
vn 0.184375 -0.003801 0.982849
vn 0.184375 -0.003801 0.982849
vn 0.000000 1.000000 0.000000
vn 0.000000 1.000000 0.000000
vn 0.000000 1.000000 0.000000
vn 0.000000 -1.000000 0.000000
vn 0.000000 -1.000000 0.000000
vn 0.000000 -1.000000 0.000000
vn 0.998291 0.000594 0.058436
vn 0.998880 0.000761 0.047300
vn 0.957743 0.005673 -0.287568
vn 0.957743 0.005673 -0.287568
vn 0.000000 -1.000000 0.000000
vn 0.000000 -1.000000 0.000000
vn 0.000000 -1.000000 0.000000
vn 0.000000 -1.000000 0.000000
vn -0.624827 0.006125 0.780739
vn -0.624827 0.006125 0.780739
vn -0.730405 0.000000 0.683014
vn -0.730405 0.000000 0.683014
vn 0.000000 1.000000 -0.000000
vn 0.000000 1.000000 -0.000000
vn 0.000000 1.000000 -0.000000
vn 0.000000 1.000000 -0.000000
vn 0.730388 0.000000 -0.683033
vn 0.730388 0.000000 -0.683033
vn 0.730388 0.000000 -0.683033
vn 0.730388 0.000000 -0.683033
vn 0.111110 0.000000 0.993808
vn 0.111110 0.000000 0.993808
vn 0.111110 0.000000 0.993808
vn 0.111110 0.000000 0.993808
vn 0.000000 1.000000 0.000000
vn 0.000000 1.000000 0.000000
vn 0.000000 1.000000 0.000000
vn 0.000000 -1.000000 0.000000
vn 0.000000 -1.000000 -0.000000
vn 0.000000 -1.000000 0.000000
vn 0.994082 0.000000 -0.108629
vn 0.994082 0.000000 -0.108629
vn 0.994082 0.000000 -0.108629
vn 0.994082 0.000000 -0.108629
vn -0.803362 0.000000 -0.595491
vn -0.803362 0.000000 -0.595491
vn -0.803362 0.000000 -0.595491
vn -0.803362 0.000000 -0.595491
vn 0.000000 -1.000000 0.000000
vn 0.000000 -1.000000 0.000000
vn 0.000000 -1.000000 0.000000
vn 0.000000 -1.000000 0.000000
vn -0.572255 0.000000 0.820076
vn -0.572255 0.000000 0.820076
vn -0.572255 0.000000 0.820076
vn -0.572255 0.000000 0.820076
vn 0.000000 1.000000 0.000000
vn 0.000000 1.000000 0.000000
vn 0.000000 1.000000 0.000000
vn 0.000000 1.000000 0.000000
vn 0.572246 0.000000 -0.820082
vn 0.572246 0.000000 -0.820082
vn 0.572246 0.000000 -0.820082
vn 0.572246 0.000000 -0.820082
vn 0.000000 0.000000 1.000000
vn 0.000000 0.000000 1.000000
vn 0.000000 0.000000 1.000000
vn 0.000000 0.000000 1.000000
vn 0.000000 1.000000 0.000000
vn 0.000000 1.000000 0.000000
vn 0.000000 1.000000 0.000000
vn 0.000000 1.000000 0.000000
vn 0.000000 -1.000000 0.000000
vn 0.000000 -1.000000 0.000000
vn 0.000000 -1.000000 0.000000
vn 0.000000 -1.000000 0.000000
vn 0.981908 0.000000 0.189360
vn 0.981908 0.000000 0.189360
vn 0.998364 0.000000 0.057179
vn 0.998364 0.000000 0.057179
vn -0.673150 0.000000 -0.739506
vn -0.673150 0.000000 -0.739506
vn -0.673150 0.000000 -0.739506
vn -0.673150 0.000000 -0.739506
vn 0.000000 1.000000 0.000000
vn 0.000000 1.000000 0.000000
vn 0.000000 1.000000 0.000000
vn 0.000000 1.000000 0.000000
vn 0.000000 1.000000 -0.000000
vn 0.000000 1.000000 -0.000000
vn 0.000000 1.000000 -0.000000
vn 0.000000 1.000000 -0.000000
vn 0.000000 -1.000000 -0.000000
vn 0.000000 -1.000000 -0.000000
vn 0.000000 -1.000000 0.000000
vn 0.000000 -1.000000 0.000000
vn 0.000000 -1.000000 -0.000000
vn 0.000000 -1.000000 -0.000000
vn 0.000000 -1.000000 -0.000000
vn 0.000000 -1.000000 -0.000000
vn -0.974174 0.000000 -0.225798
vn -0.974174 0.000000 -0.225798
vn -0.974174 0.000000 -0.225798
vn -0.974174 0.000000 -0.225798
vn -0.031370 0.000000 -0.999508
vn -0.031370 0.000000 -0.999508
vn -0.031370 0.000000 -0.999508
vn -0.031370 0.000000 -0.999508
vn 0.000000 1.000000 0.000000
vn 0.000000 1.000000 -0.000000
vn 0.000000 1.000000 -0.000000
vn 0.000000 1.000000 0.000000
vn 0.689502 0.000000 0.724283
vn 0.981908 0.000000 0.189360
vn 0.981908 0.000000 0.189360
vn 0.689502 0.000000 0.724283
vn 0.000000 -1.000000 -0.000000
vn 0.000000 -1.000000 -0.000000
vn 0.000000 -1.000000 -0.000000
vn 0.000000 -1.000000 -0.000000
vn 0.261133 0.863315 0.431853
vn 0.261133 0.863315 0.431853
vn 0.261133 0.863315 0.431853
vn 0.261133 0.863315 0.431853
vn -0.533657 0.039727 0.844768
vn -0.533657 0.039727 0.844768
vn -0.533657 0.039727 0.844768
vn -0.533657 0.039727 0.844768
vn -0.368212 -0.793962 0.483782
vn -0.368212 -0.793962 0.483782
vn -0.368212 -0.793962 0.483782
vn -0.368212 -0.793962 0.483782
vn 0.570467 -0.778074 -0.262999
vn 0.570467 -0.778074 -0.262999
vn 0.570467 -0.778074 -0.262999
vn 0.570467 -0.778074 -0.262999
vn 0.923378 0.277466 -0.265303
vn 0.923378 0.277466 -0.265303
vn 0.923378 0.277466 -0.265303
vn 0.923378 0.277466 -0.265303
vn -0.484387 0.541183 -0.687379
vn -0.484387 0.541183 -0.687379
vn -0.484387 0.541183 -0.687379
vn -0.729730 0.302015 -0.613418
vn -0.729730 0.302015 -0.613418
vn -0.729730 0.302015 -0.613418
vn -0.677814 0.090357 -0.729660
vn -0.677814 0.090357 -0.729660
vn -0.677814 0.090357 -0.729660
vn -0.428270 0.088906 -0.899267
vn -0.428270 0.088906 -0.899267
vn -0.428270 0.088906 -0.899267
vn -0.319065 0.349951 -0.880756
vn -0.319065 0.349951 -0.880756
vn -0.319065 0.349951 -0.880756
vn 0.555736 0.020547 0.831105
vn 0.555736 0.020547 0.831105
vn 0.555736 0.020547 0.831105
vn 0.320767 -0.223880 0.920319
vn 0.320767 -0.223880 0.920319
vn 0.320767 -0.223880 0.920319
vn 0.379694 -0.439050 0.814290
vn 0.379694 -0.439050 0.814290
vn 0.379694 -0.439050 0.814290
vn 0.627679 -0.439720 0.642390
vn 0.627679 -0.439720 0.642390
vn 0.627679 -0.439720 0.642390
vn 0.733617 -0.176980 0.656113
vn 0.733617 -0.176980 0.656113
vn 0.733617 -0.176980 0.656113
vn 0.722710 0.385088 -0.573931
vn 0.722710 0.385088 -0.573931
vn 0.722710 0.385088 -0.573931
vn 0.722710 0.385088 -0.573931
vn 0.007889 0.998011 0.062552
vn 0.007889 0.998011 0.062552
vn 0.007889 0.998011 0.062552
vn 0.007889 0.998011 0.062552
vn -0.911951 0.221719 0.345234
vn -0.911951 0.221719 0.345234
vn -0.911951 0.221719 0.345234
vn -0.911951 0.221719 0.345234
vn -0.763794 -0.643986 -0.043596
vn -0.763794 -0.643986 -0.043596
vn -0.763794 -0.643986 -0.043596
vn -0.763794 -0.643986 -0.043596
vn 0.302741 -0.659416 -0.688127
vn 0.302741 -0.659416 -0.688127
vn 0.302741 -0.659416 -0.688127
vn 0.302741 -0.659416 -0.688127
vn 0.596258 -0.047945 0.801360
vn 0.596259 -0.047945 0.801360
vn 0.596258 -0.047945 0.801360
vn 0.596258 -0.047945 0.801360
vn 0.025702 0.998843 0.040636
vn 0.025702 0.998843 0.040636
vn 0.025702 0.998843 0.040636
vn 0.305701 0.030851 -0.951628
vn 0.305701 0.030851 -0.951628
vn 0.305701 0.030851 -0.951628
vn 0.305701 0.030851 -0.951628
vn -0.025699 -0.998843 -0.040639
vn -0.025699 -0.998843 -0.040639
vn -0.025699 -0.998843 -0.040639
vn -0.996783 0.022517 0.076926
vn -0.996783 0.022517 0.076926
vn -0.996783 0.022517 0.076926
vn -0.996783 0.022517 0.076926
s off
f 1/1/1 2/2/2 4/3/3 3/4/4
f 7/5/5 8/6/6 13/7/7 9/8/8
f 10/11/9 16/12/10 11/13/11 12/14/12
f 14/15/13 15/16/14 6/10/15 5/9/16
f 10/11/17 12/14/18 7/5/19 9/8/20
f 3/4/21 4/3/22 8/17/23 7/18/24
f 9/20/25 13/19/26 14/15/27 5/9/28
f 15/16/29 16/22/30 10/21/31 6/10/32
f 2/2/33 1/1/34 12/23/35 11/24/36
f 1/1/37 3/4/38 7/18/39 12/23/40
f 5/9/41 6/10/42 10/21/43 9/20/44
f 4/3/45 14/15/46 13/19/47 8/17/48
f 2/2/49 15/16/50 14/15/51 4/3/52
f 16/22/53 15/16/54 2/2/55 11/24/56
f 41/25/57 42/26/58 43/27/59 44/28/60
f 19/29/61 24/30/62 25/31/63
f 22/32/64 28/33/65 26/34/66
f 50/35/67 49/36/68 51/37/69 52/38/70
f 29/39/71 30/40/72 31/41/73 32/42/74
f 46/43/75 45/44/76 47/45/77 48/46/78
f 25/31/79 24/30/80 20/47/81 27/48/82
f 26/34/83 23/49/84 17/50/85
f 38/51/86 37/52/87 39/53/88 40/54/89
f 26/34/90 28/33/91 18/55/92 23/49/93
f 34/56/94 33/57/95 35/58/96 36/59/97
f 25/31/98 27/48/99 21/60/100
f 22/32/101 26/34/102 30/40/103 29/39/104
f 26/34/105 25/31/106 31/41/107 30/40/108
f 25/31/109 21/60/110 32/42/111 31/41/112
f 21/60/113 22/32/114 29/39/115 32/42/116
f 27/48/117 28/33/118 33/57/119 34/56/120
f 28/33/121 22/32/122 35/58/123 33/57/124
f 22/32/125 21/60/126 36/59/127 35/58/128
f 21/60/129 27/48/130 34/56/131 36/59/132
f 25/31/133 26/34/134 37/52/135 38/51/136
f 26/34/137 17/50/138 39/53/139 37/52/140
f 17/50/141 19/29/142 40/54/143 39/53/144
f 19/29/145 25/31/146 38/51/147 40/54/148
f 17/50/149 23/49/150 42/26/151 41/25/152
f 23/49/153 24/30/154 43/27/155 42/26/156
f 24/30/157 19/29/158 44/28/159 43/27/160
f 19/29/161 17/50/162 41/25/163 44/28/164
f 24/30/165 23/49/166 45/44/167 46/43/168
f 23/49/169 18/55/170 47/45/171 45/44/172
f 18/55/173 20/47/174 48/46/175 47/45/176
f 20/47/177 24/30/178 46/43/179 48/46/180
f 18/55/181 28/33/182 49/36/183 50/35/184
f 28/33/185 27/48/186 51/37/187 49/36/188
f 27/48/189 20/47/190 52/38/191 51/37/192
f 20/47/193 18/55/194 50/35/195 52/38/196
f 53/61/197 59/62/198 60/63/199 55/64/200
f 55/64/201 60/63/202 61/65/203 57/66/204
f 58/67/205 62/68/206 59/62/207 53/61/208
f 54/69/209 62/68/210 61/65/211 56/70/212
f 63/71/213 64/72/214 65/73/215 66/74/216
f 60/63/217 59/62/218 54/69/219 56/70/220
f 61/65/221 60/63/222 56/70/223
f 59/62/224 62/68/225 54/69/226
f 61/65/227 62/68/228 58/67/229 57/66/230
f 58/67/231 53/61/232 64/72/233 63/71/234
f 53/61/235 55/64/236 65/73/237 64/72/238
f 55/64/239 57/66/240 66/74/241 65/73/242
f 57/66/243 58/67/244 63/71/245 66/74/246
f 67/75/247 68/76/248 70/77/249 69/78/250
f 69/78/251 70/77/252 71/79/253
f 72/80/254 68/76/255 67/75/256
f 68/76/257 72/80/258 71/79/259 70/77/260
f 73/81/261 74/82/262 75/83/263 76/84/264
f 72/80/265 67/75/266 74/82/267 73/81/268
f 67/75/269 69/78/270 75/83/271 74/82/272
f 69/78/273 71/79/274 76/84/275 75/83/276
f 71/79/277 72/80/278 73/81/279 76/84/280
f 77/85/281 78/86/282 80/87/283 79/88/284
f 83/89/285 84/90/286 89/91/287 85/92/288
f 86/93/289 92/94/290 87/95/291 88/96/292
f 90/97/293 91/98/294 82/99/295 81/100/296
f 86/93/297 88/96/298 83/89/299 85/92/300
f 79/88/301 80/87/302 84/101/303 83/102/304
f 85/103/305 89/104/306 90/97/307 81/100/308
f 91/98/309 92/105/310 86/106/311 82/99/312
f 78/86/313 77/85/314 88/107/315 87/108/316
f 77/85/317 79/88/318 83/102/319 88/107/320
f 81/100/321 82/99/322 86/106/323 85/103/324
f 80/87/325 90/97/326 89/104/327 84/101/328
f 78/86/329 91/98/330 90/97/331 80/87/332
f 92/105/333 91/98/334 78/86/335 87/108/336
f 106/109/337 107/110/338 99/111/339 98/112/340
f 107/110/341 108/113/342 100/114/343 99/111/344
f 108/113/345 109/115/346 101/116/347 100/114/348
f 109/115/349 105/117/350 102/118/351 101/116/352
f 98/112/353 102/118/354 105/117/355 106/109/356
f 94/119/357 93/120/358 103/121/359
f 95/122/360 94/119/361 103/121/362
f 96/123/363 95/122/364 103/121/365
f 97/124/366 96/123/367 103/121/368
f 93/120/369 97/124/370 103/121/371
f 98/112/372 99/111/373 104/125/374
f 99/111/375 100/114/376 104/125/377
f 100/114/378 101/116/379 104/125/380
f 101/116/381 102/118/382 104/125/383
f 104/125/384 102/118/385 98/112/386
f 105/117/387 97/124/388 93/120/389 106/109/390
f 107/110/391 106/109/392 93/120/393 94/119/394
f 108/113/395 107/110/396 94/119/397 95/122/398
f 109/115/399 108/113/400 95/122/401 96/123/402
f 97/124/403 105/117/404 109/115/405 96/123/406
f 110/126/407 111/127/408 113/128/409 112/129/410
f 112/129/411 113/128/412 114/130/413
f 115/131/414 114/130/415 113/128/416 111/127/417
f 115/131/418 111/127/419 110/126/420
f 115/131/421 110/126/422 112/129/423 114/130/424
