# This file uses centimeters as units for non-parametric coordinates.

v -5.719633 0.000000 6.890213
v -4.575821 0.000000 8.034025
v -5.719633 3.034027 6.890213
v -4.575821 3.034027 8.034025
v 5.719633 0.000000 6.890213
v 4.575821 0.000000 8.034025
v 5.719633 3.034027 6.890213
v 4.575821 3.034027 8.034025
v -5.719633 3.034027 -6.890213
v -4.575821 3.034027 -8.034025
v -5.719633 0.000000 -6.890213
v -4.575821 0.000000 -8.034025
v 4.575821 3.034027 -8.034025
v 5.719633 3.034027 -6.890213
v 5.719633 0.000000 -6.890213
v 4.575821 0.000000 -8.034025
v -3.354158 3.378139 6.273098
v -4.192593 3.378139 5.379991
v 3.354158 3.378139 6.273098
v 4.192593 3.378139 5.379991
v 4.192593 3.378139 -5.379991
v 3.354158 3.378139 -6.273098
v -3.354158 3.378139 -6.273098
v -4.192593 3.378139 -5.379991
v -3.978645 0.699688 -8.034025
v -3.978645 2.334339 -8.034025
v -0.750040 2.334339 -8.034025
v -0.750040 0.699688 -8.034025
vt 0.250533 0.264447
vt 0.250511 0.264539
vt 0.249952 0.264663
vt 0.249949 0.264575
vt 0.250241 0.263774
vt 0.250250 0.263663
vt 0.249736 0.263761
vt 0.249747 0.263870
vt 0.249857 0.264526
vt 0.249865 0.264615
vt 0.249697 0.263932
vt 0.249683 0.263824
vt 0.250331 0.263700
vt 0.250319 0.263810
vt 0.250557 0.264463
vt 0.250581 0.264369
vt 0.250271 0.263770
vt 0.249788 0.263863
vt 0.249826 0.263813
vt 0.250210 0.263739
vt 0.250424 0.264355
vt 0.250459 0.264296
vt 0.250000 0.264447
vt 0.249933 0.264408
vt 0.264316 0.271367
vt 0.264316 0.278218
vt 0.252419 0.278218
vt 0.252419 0.271367
vt 0.264316 0.271367
vt 0.264316 0.278218
vt 0.252419 0.278218
vt 0.252419 0.271367
vt 0.132233 0.377623
vt 0.131570 0.377626
vt 0.131637 0.377557
vt 0.132167 0.377555
vt 0.132242 0.378479
vt 0.132174 0.378553
vt 0.131624 0.378555
vt 0.131556 0.378482
vn 0.000000 0.000000 1.000000
vn 0.000000 0.000000 1.000000
vn 0.000000 0.000000 1.000000
vn 0.000000 0.000000 1.000000
vn 0.000000 0.000000 -1.000000
vn 0.000000 0.000000 -1.000000
vn 0.000000 0.000000 -1.000000
vn 0.000000 0.000000 -1.000000
vn 1.000000 0.000000 0.000000
vn 1.000000 0.000000 0.000000
vn 1.000000 0.000000 0.000000
vn 1.000000 0.000000 0.000000
vn -1.000000 0.000000 0.000000
vn -1.000000 0.000000 0.000000
vn -1.000000 0.000000 0.000000
vn -1.000000 0.000000 0.000000
vn 0.000000 1.000000 0.000000
vn 0.000000 1.000000 0.000000
vn 0.000000 1.000000 0.000000
vn 0.000000 1.000000 0.000000
vn 0.000000 -1.000000 0.000000
vn 0.000000 -1.000000 0.000000
vn 0.000000 -1.000000 0.000000
vn 0.000000 -1.000000 0.000000
vn 0.000000 -1.000000 0.000000
vn 0.000000 -1.000000 0.000000
vn 0.000000 -1.000000 0.000000
vn 0.000000 -1.000000 0.000000
vn -0.707107 0.000000 0.707107
vn -0.707107 0.000000 0.707107
vn -0.707107 0.000000 0.707107
vn -0.707107 0.000000 0.707107
vn 0.707107 0.000000 0.707107
vn 0.707107 0.000000 0.707107
vn 0.707107 0.000000 0.707107
vn 0.707107 0.000000 0.707107
vn -0.707107 0.000000 -0.707107
vn -0.707107 0.000000 -0.707107
vn -0.707107 0.000000 -0.707107
vn -0.707107 0.000000 -0.707107
vn 0.707107 0.000000 -0.707107
vn 0.707107 0.000000 -0.707107
vn 0.707107 0.000000 -0.707107
vn 0.707107 0.000000 -0.707107
vn -0.114527 0.987148 0.111453
vn -0.114527 0.987148 0.111453
vn -0.114527 0.987148 0.111453
vn -0.114527 0.987148 0.111453
vn 0.000000 0.981436 0.191788
vn 0.000000 0.981436 0.191788
vn 0.000000 0.981436 0.191788
vn 0.000000 0.981436 0.191788
vn 0.114527 0.987148 0.111453
vn 0.114527 0.987148 0.111453
vn 0.114527 0.987148 0.111453
vn 0.114527 0.987148 0.111453
vn 0.219833 0.975537 0.000000
vn 0.219833 0.975537 0.000000
vn 0.219833 0.975537 0.000000
vn 0.219833 0.975537 0.000000
vn 0.114527 0.987148 -0.111453
vn 0.114527 0.987148 -0.111453
vn 0.114527 0.987148 -0.111453
vn 0.114527 0.987148 -0.111453
vn 0.000000 0.981436 -0.191788
vn 0.000000 0.981436 -0.191788
vn 0.000000 0.981436 -0.191788
vn 0.000000 0.981436 -0.191788
vn -0.114527 0.987148 -0.111453
vn -0.114527 0.987148 -0.111453
vn -0.114527 0.987148 -0.111453
vn -0.114527 0.987148 -0.111453
vn -0.219833 0.975537 0.000000
vn -0.219833 0.975537 0.000000
vn -0.219833 0.975537 0.000000
vn -0.219833 0.975537 0.000000
vn 0.000000 1.000000 0.000000
vn 0.000000 1.000000 0.000000
vn 0.000000 1.000000 0.000000
vn 0.000000 1.000000 0.000000
vn 0.000000 1.000000 0.000000
vn 0.000000 1.000000 0.000000
vn 0.000000 1.000000 0.000000
vn 0.000000 1.000000 0.000000
vn 0.000000 0.000000 -1.000000
vn 0.000000 0.000000 -1.000000
vn 0.000000 0.000000 -1.000000
vn 0.000000 0.000000 -1.000000
vn 0.000000 0.000000 -1.000000
vn 0.000000 0.000000 -1.000000
vn 0.000000 0.000000 -1.000000
vn 0.000000 0.000000 -1.000000
vn 0.000000 0.000000 -1.000000
vn 0.000000 0.000000 -1.000000
vn 0.000000 0.000000 -1.000000
vn 0.000000 0.000000 -1.000000
vn 0.000000 0.000000 -1.000000
vn 0.000000 0.000000 -1.000000
vn 0.000000 0.000000 -1.000000
vn 0.000000 0.000000 -1.000000
s off
f 4/1/1 2/2/2 6/3/3 8/4/4
f 25/29/5 26/30/6 27/31/7 28/32/8
f 7/9/9 5/10/10 15/11/11 14/12/12
f 9/13/13 11/14/14 1/15/15 3/16/16
f 24/33/17 21/34/18 22/35/19 23/36/20
f 11/14/21 12/5/22 16/8/23 15/11/24 5/10/25 6/3/26 2/2/27 1/15/28
f 1/15/29 2/2/30 4/1/31 3/16/32
f 6/3/33 5/10/34 7/9/35 8/4/36
f 9/13/37 10/6/38 12/5/39 11/14/40
f 13/7/41 14/12/42 15/11/43 16/8/44
f 3/16/45 4/1/46 17/21/47 18/22/48
f 4/1/49 8/4/50 19/23/51 17/21/52
f 8/4/53 7/9/54 20/24/55 19/23/56
f 7/9/57 14/12/58 21/18/59 20/24/60
f 14/12/61 13/7/62 22/19/63 21/18/64
f 13/7/65 10/6/66 23/20/67 22/19/68
f 10/6/69 9/13/70 24/17/71 23/20/72
f 9/13/73 3/16/74 18/22/75 24/17/76
f 18/37/77 17/38/78 19/39/79 20/40/80
f 18/22/81 20/24/82 21/18/83 24/17/84
f 12/25/85 10/26/86 26/30/87 25/29/88
f 10/26/89 13/27/90 27/31/91 26/30/92
f 13/27/93 16/28/94 28/32/95 27/31/96
f 16/28/97 12/25/98 25/29/99 28/32/100
