# This file uses centimeters as units for non-parametric coordinates.

v 3.349121 8.340577 -5.494629
v -2.995483 8.340577 -5.494629
v -6.167725 8.340577 0.000000
v -2.995483 8.340577 5.494629
v 3.349121 8.340577 5.494629
v 6.521484 8.340577 0.000000
v 3.349121 15.498300 -5.494629
v -2.995483 15.498300 -5.494629
v -6.167725 15.498300 0.000000
v -2.995483 15.498300 5.494629
v 3.349121 15.498300 5.494629
v 6.521484 15.498300 0.000000
v 0.176880 8.340577 0.000000
v 0.176880 15.498300 0.000000
v 2.434082 0.000000 -3.909668
v -2.080322 0.000000 -3.909668
v -4.337524 0.000000 0.000000
v -2.080322 0.000000 3.909668
v 2.434082 0.000000 3.909668
v 4.691162 0.000000 0.000000
v 2.434082 61.713676 -3.909668
v -2.080322 61.713676 -3.909668
v -4.337524 61.713676 0.000000
v -2.080322 61.713676 3.909668
v 2.434082 61.713676 3.909668
v 4.691162 61.713676 0.000000
v -19.365967 61.713676 10.932617
v 19.365967 61.713676 10.932617
v -19.365967 129.182159 10.932617
v 19.365967 129.182159 10.932617
v -19.365967 129.182159 -13.151733
v 19.365967 129.182159 -13.151733
v -19.365967 61.713676 -13.151733
v 19.365967 61.713676 -13.151733
v -13.436768 99.017555 13.151733
v 13.436523 99.017555 13.151733
v 13.436523 117.141411 13.151733
v -13.436768 117.141411 13.151733
v -9.718384 101.525253 13.151733
v 9.718384 101.525253 13.151733
v 9.718384 114.633690 13.151733
v -9.718384 114.633690 13.151733
v -7.940430 104.399147 11.839844
v 7.940308 104.399147 11.839844
v 7.940308 111.759781 11.839844
v -7.940430 111.759781 11.839844
v 3.349121 49.348938 -5.494629
v -2.995483 49.348938 -5.494629
v -6.167725 49.348938 0.000000
v -2.995483 49.348938 5.494629
v 3.349121 49.348938 5.494629
v 6.521484 49.348938 0.000000
v 3.349121 56.506660 -5.494629
v -2.995483 56.506660 -5.494629
v -6.167725 56.506660 0.000000
v -2.995483 56.506660 5.494629
v 3.349121 56.506660 5.494629
v 6.521484 56.506660 0.000000
v 0.176880 49.348938 0.000000
v 0.176880 56.506660 0.000000
v -5.214355 108.160110 11.839844
v 5.214233 108.160110 11.839844
v 5.214233 109.939178 11.839844
v -5.214355 109.939178 11.839844
v 19.365967 114.581131 -3.664795
v 19.365967 114.581131 8.932495
v 19.365967 125.811646 -3.664795
v 19.365967 125.811646 8.932495
v -19.365967 114.581131 -3.664795
v -19.365967 114.581131 8.932495
v -19.365967 125.811646 8.932495
v -19.365967 125.811646 -3.664795
vt 0.134486 0.249211
vt 0.134486 0.249211
vt 0.134486 0.249211
vt 0.134486 0.249211
vt 0.134486 0.249211
vt 0.134486 0.249211
vt 0.134486 0.249211
vt 0.134486 0.249211
vt 0.134486 0.249211
vt 0.134486 0.249211
vt 0.134486 0.249211
vt 0.134486 0.249211
vt 0.134486 0.249211
vt 0.134486 0.249211
vt 0.134486 0.249211
vt 0.134486 0.249211
vt 0.134486 0.249211
vt 0.134486 0.249211
vt 0.134486 0.249211
vt 0.134486 0.249211
vt 0.134486 0.249211
vt 0.134486 0.249211
vt 0.134486 0.249211
vt 0.134486 0.249211
vt 0.134486 0.249211
vt 0.134486 0.249211
vt 0.134486 0.249211
vt 0.134486 0.249211
vt 0.134486 0.327707
vt 0.134486 0.327707
vt 0.134486 0.327707
vt 0.134486 0.327707
vt 0.134486 0.327707
vt 0.134486 0.327707
vt 0.134486 0.327707
vt 0.134486 0.327707
vt 0.134486 0.327707
vt 0.134486 0.327707
vt 0.134486 0.327707
vt 0.134486 0.327707
vt 0.134486 0.327707
vt 0.134486 0.327707
vt 0.401245 0.492386
vt 0.401245 0.492386
vt 0.401245 0.492386
vt 0.401245 0.492386
vt 0.134486 0.327707
vt 0.134486 0.327707
vt 0.134486 0.327707
vt 0.134486 0.327707
vt 0.134486 0.327707
vt 0.134486 0.327707
vt 0.134486 0.327707
vt 0.134486 0.327707
vt 0.134486 0.327707
vt 0.134486 0.327707
vt 0.134486 0.327707
vt 0.134486 0.327707
vt 0.134486 0.327707
vt 0.134486 0.327707
vt 0.134486 0.327707
vt 0.134486 0.327707
vt 0.134486 0.327707
vt 0.134486 0.327707
vt 0.134486 0.327707
vt 0.134486 0.327707
vt 0.134486 0.327707
vt 0.134486 0.327707
vt 0.134486 0.327707
vt 0.134486 0.327707
vt 0.134486 0.327707
vt 0.134486 0.327707
vt 0.134486 0.249211
vt 0.134486 0.249211
vt 0.134486 0.249211
vt 0.134486 0.249211
vt 0.134486 0.249211
vt 0.134486 0.249211
vt 0.134486 0.249211
vt 0.134486 0.249211
vt 0.134486 0.249211
vt 0.134486 0.249211
vt 0.134486 0.249211
vt 0.134486 0.249211
vt 0.134486 0.249211
vt 0.134486 0.249211
vt 0.134486 0.249211
vt 0.134486 0.249211
vt 0.134486 0.249211
vt 0.134486 0.249211
vt 0.134486 0.249211
vt 0.134486 0.249211
vt 0.134486 0.249211
vt 0.134486 0.249211
vt 0.134486 0.249211
vt 0.134486 0.249211
vt 0.134486 0.249211
vt 0.134486 0.249211
vt 0.134486 0.249211
vt 0.134486 0.249211
vt 0.401245 0.492386
vt 0.401245 0.492386
vt 0.401245 0.492386
vt 0.401245 0.492386
vt 0.080688 0.232742
vt 0.080688 0.232742
vt 0.080688 0.232742
vt 0.080688 0.232742
vt 0.134486 0.327707
vt 0.134486 0.327707
vt 0.134486 0.327707
vt 0.134486 0.327707
vt 0.134486 0.327707
vt 0.134486 0.327707
vt 0.134486 0.327707
vt 0.134486 0.327707
vt 0.126831 0.445724
vt 0.126831 0.445724
vt 0.126831 0.445724
vt 0.126831 0.445724
vt 0.126831 0.445724
vt 0.126831 0.445724
vt 0.126831 0.445724
vt 0.126831 0.445724
vn 0.000000 0.000000 -1.000000
vn 0.000000 0.000000 -1.000000
vn 0.000000 0.000000 -1.000000
vn 0.000000 0.000000 -1.000000
vn -0.866031 0.000000 -0.499990
vn -0.866031 0.000000 -0.499990
vn -0.866031 0.000000 -0.499990
vn -0.866031 0.000000 -0.499990
vn -0.866031 0.000000 0.499990
vn -0.866031 0.000000 0.499990
vn -0.866031 0.000000 0.499990
vn -0.866031 0.000000 0.499990
vn 0.000000 0.000000 1.000000
vn 0.000000 0.000000 1.000000
vn 0.000000 0.000000 1.000000
vn 0.000000 0.000000 1.000000
vn 0.866023 0.000000 0.500004
vn 0.866023 0.000000 0.500004
vn 0.866023 0.000000 0.500004
vn 0.866023 0.000000 0.500004
vn 0.866023 0.000000 -0.500004
vn 0.866023 0.000000 -0.500004
vn 0.866023 0.000000 -0.500004
vn 0.866023 0.000000 -0.500004
vn 0.000000 -1.000000 0.000000
vn 0.000000 -1.000000 0.000000
vn 0.000000 -1.000000 0.000000
vn 0.000000 -1.000000 0.000000
vn 0.000000 -1.000000 0.000000
vn 0.000000 -1.000000 0.000000
vn 0.000000 -1.000000 0.000000
vn 0.000000 -1.000000 0.000000
vn 0.000000 -1.000000 0.000000
vn 0.000000 -1.000000 0.000000
vn 0.000000 -1.000000 0.000000
vn 0.000000 -1.000000 0.000000
vn 0.000000 -1.000000 0.000000
vn 0.000000 -1.000000 0.000000
vn 0.000000 -1.000000 0.000000
vn 0.000000 -1.000000 0.000000
vn 0.000000 -1.000000 0.000000
vn 0.000000 -1.000000 0.000000
vn 0.000000 1.000000 0.000000
vn 0.000000 1.000000 0.000000
vn 0.000000 1.000000 0.000000
vn 0.000000 1.000000 0.000000
vn 0.000000 1.000000 0.000000
vn 0.000000 1.000000 0.000000
vn 0.000000 1.000000 0.000000
vn 0.000000 1.000000 0.000000
vn 0.000000 1.000000 0.000000
vn 0.000000 1.000000 0.000000
vn 0.000000 1.000000 0.000000
vn 0.000000 1.000000 0.000000
vn 0.000000 1.000000 0.000000
vn 0.000000 1.000000 0.000000
vn 0.000000 1.000000 0.000000
vn 0.000000 1.000000 0.000000
vn 0.000000 1.000000 0.000000
vn 0.000000 1.000000 0.000000
vn 0.000000 0.000000 -1.000000
vn 0.000000 0.000000 -1.000000
vn 0.000000 0.000000 -1.000000
vn 0.000000 0.000000 -1.000000
vn -0.866030 0.000000 -0.499992
vn -0.866030 0.000000 -0.499992
vn -0.866030 0.000000 -0.499992
vn -0.866030 0.000000 -0.499992
vn -0.866030 0.000000 0.499992
vn -0.866030 0.000000 0.499992
vn -0.866030 0.000000 0.499992
vn -0.866030 0.000000 0.499992
vn 0.000000 0.000000 1.000000
vn 0.000000 0.000000 1.000000
vn 0.000000 0.000000 1.000000
vn 0.000000 0.000000 1.000000
vn 0.866042 0.000000 0.499972
vn 0.866042 0.000000 0.499972
vn 0.866042 0.000000 0.499972
vn 0.866042 0.000000 0.499972
vn 0.866042 0.000000 -0.499972
vn 0.866042 0.000000 -0.499972
vn 0.866042 0.000000 -0.499972
vn 0.866042 0.000000 -0.499972
vn 0.000000 0.000000 1.000000
vn 0.000000 0.000000 1.000000
vn 0.000000 0.000000 1.000000
vn 0.000000 0.000000 1.000000
vn 0.000000 1.000000 0.000000
vn 0.000000 1.000000 0.000000
vn 0.000000 1.000000 0.000000
vn 0.000000 1.000000 0.000000
vn 0.000000 0.000000 -1.000000
vn 0.000000 0.000000 -1.000000
vn 0.000000 0.000000 -1.000000
vn 0.000000 0.000000 -1.000000
vn 0.000000 -1.000000 0.000000
vn 0.000000 -1.000000 0.000000
vn 0.000000 -1.000000 0.000000
vn 0.000000 -1.000000 0.000000
vn 1.000000 0.000000 0.000000
vn 1.000000 0.000000 0.000000
vn 1.000000 0.000000 0.000000
vn 1.000000 0.000000 0.000000
vn -1.000000 0.000000 0.000000
vn -1.000000 0.000000 0.000000
vn -1.000000 0.000000 0.000000
vn -1.000000 0.000000 0.000000
vn 0.000000 -0.059383 0.998235
vn 0.000000 -0.059383 0.998235
vn 0.000000 -0.059383 0.998235
vn 0.000000 -0.059383 0.998235
vn 0.350511 0.000000 0.936559
vn 0.350511 0.000000 0.936559
vn 0.350511 0.000000 0.936559
vn 0.350511 0.000000 0.936559
vn 0.000000 0.181248 0.983437
vn 0.000000 0.181248 0.983437
vn 0.000000 0.181248 0.983437
vn 0.000000 0.181248 0.983437
vn -0.350523 0.000000 0.936554
vn -0.350523 0.000000 0.936554
vn -0.350523 0.000000 0.936554
vn -0.350523 0.000000 0.936554
vn 0.000000 0.000000 1.000000
vn 0.000000 0.000000 1.000000
vn 0.000000 0.000000 1.000000
vn 0.000000 0.000000 1.000000
vn 0.000000 0.000000 1.000000
vn 0.000000 0.000000 1.000000
vn 0.000000 0.000000 1.000000
vn 0.000000 0.000000 1.000000
vn 0.000000 0.000000 1.000000
vn 0.000000 0.000000 1.000000
vn 0.000000 0.000000 1.000000
vn 0.000000 0.000000 1.000000
vn 0.000000 0.000000 1.000000
vn 0.000000 0.000000 1.000000
vn 0.000000 0.000000 1.000000
vn 0.000000 0.000000 1.000000
vn 0.000000 0.415264 0.909701
vn 0.000000 0.415264 0.909701
vn 0.000000 0.415264 0.909701
vn 0.000000 0.415264 0.909701
vn -0.593706 0.000000 0.804682
vn -0.593706 0.000000 0.804682
vn -0.593706 0.000000 0.804682
vn -0.593706 0.000000 0.804682
vn 0.000000 -0.415263 0.909702
vn 0.000000 -0.415263 0.909702
vn 0.000000 -0.415263 0.909702
vn 0.000000 -0.415263 0.909702
vn 0.593732 0.000000 0.804663
vn 0.593732 0.000000 0.804663
vn 0.593732 0.000000 0.804663
vn 0.593732 0.000000 0.804663
vn 0.000000 0.000000 -1.000000
vn 0.000000 0.000000 -1.000000
vn 0.000000 0.000000 -1.000000
vn 0.000000 0.000000 -1.000000
vn -0.866031 0.000000 -0.499990
vn -0.866031 0.000000 -0.499990
vn -0.866031 0.000000 -0.499990
vn -0.866031 0.000000 -0.499990
vn -0.866031 0.000000 0.499990
vn -0.866031 0.000000 0.499990
vn -0.866031 0.000000 0.499990
vn -0.866031 0.000000 0.499990
vn 0.000000 0.000000 1.000000
vn 0.000000 0.000000 1.000000
vn 0.000000 0.000000 1.000000
vn 0.000000 0.000000 1.000000
vn 0.866023 0.000000 0.500004
vn 0.866023 0.000000 0.500004
vn 0.866023 0.000000 0.500004
vn 0.866023 0.000000 0.500004
vn 0.866023 0.000000 -0.500004
vn 0.866023 0.000000 -0.500004
vn 0.866023 0.000000 -0.500004
vn 0.866023 0.000000 -0.500004
vn 0.000000 -1.000000 0.000000
vn 0.000000 -1.000000 0.000000
vn 0.000000 -1.000000 -0.000000
vn 0.000000 -1.000000 0.000000
vn 0.000000 -1.000000 0.000000
vn 0.000000 -1.000000 -0.000000
vn 0.000000 -1.000000 -0.000000
vn 0.000000 -1.000000 0.000000
vn 0.000000 -1.000000 -0.000000
vn 0.000000 -1.000000 -0.000000
vn 0.000000 -1.000000 -0.000000
vn 0.000000 -1.000000 -0.000000
vn 0.000000 -1.000000 -0.000000
vn 0.000000 -1.000000 -0.000000
vn 0.000000 -1.000000 -0.000000
vn 0.000000 -1.000000 0.000000
vn 0.000000 -1.000000 -0.000000
vn 0.000000 -1.000000 -0.000000
vn 0.000000 1.000000 0.000000
vn 0.000000 1.000000 0.000000
vn 0.000000 1.000000 0.000000
vn 0.000000 1.000000 0.000000
vn 0.000000 1.000000 0.000000
vn 0.000000 1.000000 0.000000
vn 0.000000 1.000000 0.000000
vn 0.000000 1.000000 0.000000
vn 0.000000 1.000000 0.000000
vn 0.000000 1.000000 0.000000
vn 0.000000 1.000000 0.000000
vn 0.000000 1.000000 0.000000
vn 0.000000 1.000000 0.000000
vn 0.000000 1.000000 0.000000
vn 0.000000 1.000000 0.000000
vn 0.000000 1.000000 0.000000
vn 0.000000 1.000000 0.000000
vn 0.000000 1.000000 0.000000
vn 0.000000 0.000000 1.000000
vn 0.000000 0.000000 1.000000
vn 0.000000 0.000000 1.000000
vn 0.000000 0.000000 1.000000
vn 0.000000 0.000000 1.000000
vn 0.000000 0.000000 1.000000
vn 0.000000 0.000000 1.000000
vn 0.000000 0.000000 1.000000
vn 0.000000 0.000000 1.000000
vn 0.000000 0.000000 1.000000
vn 0.000000 0.000000 1.000000
vn 0.000000 0.000000 1.000000
vn 0.000000 0.000000 1.000000
vn 0.000000 0.000000 1.000000
vn 0.000000 0.000000 1.000000
vn 0.000000 0.000000 1.000000
vn 1.000000 0.000000 0.000000
vn 1.000000 0.000000 0.000000
vn 1.000000 0.000000 0.000000
vn 1.000000 0.000000 0.000000
vn 1.000000 0.000000 0.000000
vn 1.000000 0.000000 0.000000
vn 1.000000 0.000000 0.000000
vn 1.000000 0.000000 0.000000
vn 1.000000 0.000000 0.000000
vn 1.000000 0.000000 0.000000
vn 1.000000 0.000000 0.000000
vn 1.000000 0.000000 0.000000
vn 1.000000 0.000000 0.000000
vn 1.000000 0.000000 0.000000
vn 1.000000 0.000000 0.000000
vn 1.000000 0.000000 0.000000
vn -1.000000 0.000000 0.000000
vn -1.000000 0.000000 0.000000
vn -1.000000 0.000000 0.000000
vn -1.000000 0.000000 0.000000
vn -1.000000 0.000000 0.000000
vn -1.000000 0.000000 0.000000
vn -1.000000 0.000000 0.000000
vn -1.000000 0.000000 0.000000
vn -1.000000 0.000000 0.000000
vn -1.000000 0.000000 0.000000
vn -1.000000 0.000000 0.000000
vn -1.000000 0.000000 0.000000
vn -1.000000 0.000000 0.000000
vn -1.000000 0.000000 0.000000
vn -1.000000 0.000000 0.000000
vn -1.000000 0.000000 0.000000
s off
f 1/7/1 2/8/2 8/15/3 7/14/4
f 2/8/5 3/9/6 9/16/7 8/15/8
f 3/9/9 4/10/10 10/17/11 9/16/12
f 4/10/13 5/11/14 11/18/15 10/17/16
f 5/11/17 6/12/18 12/19/19 11/18/20
f 6/12/21 1/13/22 7/20/23 12/19/24
f 2/2/25 1/1/26 13/27/27
f 3/3/28 2/2/29 13/27/30
f 4/4/31 3/3/32 13/27/33
f 5/5/34 4/4/35 13/27/36
f 6/6/37 5/5/38 13/27/39
f 1/1/40 6/6/41 13/27/42
f 7/25/43 8/24/44 14/28/45
f 8/24/46 9/23/47 14/28/48
f 9/23/49 10/22/50 14/28/51
f 10/22/52 11/21/53 14/28/54
f 11/21/55 12/26/56 14/28/57
f 12/26/58 7/25/59 14/28/60
f 15/29/61 16/30/62 22/31/63 21/32/64
f 16/30/65 17/33/66 23/34/67 22/31/68
f 17/33/69 18/35/70 24/36/71 23/34/72
f 18/35/73 19/37/74 25/38/75 24/36/76
f 19/37/77 20/39/78 26/40/79 25/38/80
f 20/39/81 15/41/82 21/42/83 26/40/84
f 61/105/85 62/106/86 63/107/87 64/108/88
f 29/47/89 30/48/90 32/49/91 31/50/92
f 31/50/93 32/49/94 34/51/95 33/52/96
f 33/52/97 34/51/98 28/53/99 27/54/100
f 66/117/101 65/118/102 67/119/103 68/120/104
f 69/121/105 70/122/106 71/123/107 72/124/108
f 27/59/109 28/55/110 36/61/111 35/62/112
f 28/55/113 30/48/114 37/63/115 36/61/116
f 30/48/117 29/47/118 38/64/119 37/63/120
f 29/47/121 27/59/122 35/62/123 38/64/124
f 35/62/125 36/61/126 40/65/127 39/66/128
f 36/61/129 37/63/130 41/67/131 40/65/132
f 37/63/133 38/64/134 42/68/135 41/67/136
f 38/64/137 35/62/138 39/66/139 42/68/140
f 39/66/141 40/65/142 44/69/143 43/70/144
f 40/65/145 41/67/146 45/71/147 44/69/148
f 41/67/149 42/68/150 46/72/151 45/71/152
f 42/68/153 39/66/154 43/70/155 46/72/156
f 47/73/157 48/74/158 54/75/159 53/76/160
f 48/74/161 49/77/162 55/78/163 54/75/164
f 49/77/165 50/79/166 56/80/167 55/78/168
f 50/79/169 51/81/170 57/82/171 56/80/172
f 51/81/173 52/83/174 58/84/175 57/82/176
f 52/83/177 47/85/178 53/86/179 58/84/180
f 48/87/181 47/88/182 59/89/183
f 49/90/184 48/87/185 59/89/186
f 50/91/187 49/90/188 59/89/189
f 51/92/190 50/91/191 59/89/192
f 52/93/193 51/92/194 59/89/195
f 47/88/196 52/93/197 59/89/198
f 53/94/199 54/95/200 60/96/201
f 54/95/202 55/97/203 60/96/204
f 55/97/205 56/98/206 60/96/207
f 56/98/208 57/99/209 60/96/210
f 57/99/211 58/100/212 60/96/213
f 58/100/214 53/94/215 60/96/216
f 43/43/217 44/44/218 62/45/219 61/46/220
f 44/44/221 45/101/222 63/102/223 62/45/224
f 45/101/225 46/103/226 64/104/227 63/102/228
f 46/103/229 43/43/230 61/46/231 64/104/232
f 28/55/233 34/56/234 65/110/235 66/109/236
f 34/56/237 32/57/238 67/111/239 65/110/240
f 32/57/241 30/48/242 68/112/243 67/111/244
f 30/48/245 28/55/246 66/109/247 68/112/248
f 33/58/249 27/59/250 70/114/251 69/113/252
f 27/59/253 29/47/254 71/115/255 70/114/256
f 29/47/257 31/60/258 72/116/259 71/115/260
f 31/60/261 33/58/262 69/113/263 72/116/264
